<svg width="128" height="24" viewBox="0 0 128 24" fill="none" xmlns="http://www.w3.org/2000/svg">
<path d="M7.27441 1.54199L8.31543 2.16406C10.7529 1.88477 12.2256 1.74512 12.7334 1.74512L13.1523 2.37988C13.0085 3.81022 12.9365 4.92741 12.9365 5.73145C12.9365 6.15462 13.0085 6.36621 13.1523 6.36621L12.9365 7.41992V9.93359C12.9365 10.069 12.6572 10.3483 12.0986 10.7715L11.2607 10.3525L11.4639 8.87988V3.63672C11.4639 3.35742 11.3242 3.21777 11.0449 3.21777C8.94596 3.21777 7.89648 3.77637 7.89648 4.89355L7.69336 5.94727C7.82878 6.86979 7.89648 7.77962 7.89648 8.67676V9.51465C7.89648 10.2679 7.61719 10.7588 7.05859 10.9873C6.85547 10.9873 6.64388 10.7757 6.42383 10.3525V3.4209H6.2207C5.03581 3.4209 3.35579 3.63249 1.18066 4.05566L0.761719 3.4209V3.21777C0.761719 2.61686 2.86068 2.12598 7.05859 1.74512C7.05859 1.6097 7.13053 1.54199 7.27441 1.54199ZM14.6123 11.8252C15.1709 11.9606 15.4502 12.2399 15.4502 12.6631L14.8281 13.7168L13.7744 13.501H11.2607C11.1169 14.4997 11.0449 15.0583 11.0449 15.1768L11.4639 15.3926H13.5713C13.8506 15.4349 13.9902 15.5745 13.9902 15.8115V16.6494L13.7744 17.9062L13.9902 18.3252C13.9902 19.6286 12.2383 20.3988 8.73438 20.6357V21.0547H10.207C10.3509 21.0547 10.4229 21.1266 10.4229 21.2705L14.6123 20.6357C14.8831 20.7796 15.0947 20.8516 15.2471 20.8516V21.0547C15.2471 21.901 14.7562 22.3242 13.7744 22.3242C12.0986 22.4258 11.2607 22.5654 11.2607 22.7432C11.1169 22.7432 11.0449 22.6712 11.0449 22.5273L8.53125 22.7432H8.1123C7.58757 22.7432 7.16862 21.973 6.85547 20.4326C6.85547 19.6032 8.32389 19.1123 11.2607 18.96C11.9548 18.6045 12.3018 18.3252 12.3018 18.1221V17.2842L12.0986 16.8652L7.05859 17.7031L6.85547 17.2842V16.4463C8.81055 16.0231 9.78809 15.6719 9.78809 15.3926V13.7168C9.22949 13.7168 8.9502 13.6449 8.9502 13.501C5.33626 14.0596 3.30501 14.3389 2.85645 14.3389C2.57715 14.3389 2.4375 14.1992 2.4375 13.9199V13.7168C2.4375 12.7604 6.49577 12.1299 14.6123 11.8252ZM31.9697 1.97363L32.3887 2.5957C32.1094 4.79622 31.902 7.52572 31.7666 10.7842C31.902 10.9619 31.9697 11.4486 31.9697 12.2441C31.9697 12.4303 31.6227 12.7816 30.9287 13.2979H30.7129C30.4336 13.2979 30.2939 13.1582 30.2939 12.8789C30.2939 12.752 30.3659 12.1934 30.5098 11.2031L30.2939 10.7842L30.5098 9.51465V8.67676L30.2939 8.25781C29.7438 8.40169 29.2529 8.61328 28.8213 8.89258L29.0371 9.94629C28.8932 10.6742 28.8213 11.0931 28.8213 11.2031C28.9652 11.474 29.0371 11.6813 29.0371 11.8252C28.8932 12.3838 28.542 12.6631 27.9834 12.6631C27.5687 12.0537 27.3613 11.5671 27.3613 11.2031C27.3613 10.9238 27.429 10.7842 27.5645 10.7842L27.3613 8.67676V8.25781C27.4629 4.20378 27.8818 2.17676 28.6182 2.17676H29.0371C29.3164 2.21908 29.4561 2.35872 29.4561 2.5957V3.01465C29.0329 4.83431 28.8213 6.02344 28.8213 6.58203V7.00098H30.0908C30.4801 7.00098 30.7594 5.53255 30.9287 2.5957C31.2588 2.18099 31.6058 1.97363 31.9697 1.97363ZM23.1592 3.23047L23.5781 3.43359H24.6318C24.7757 3.43359 24.8477 3.36589 24.8477 3.23047C25.0085 3.23047 25.3555 3.43783 25.8887 3.85254C25.2878 5.15592 24.0986 6.90365 22.3213 9.0957V9.51465C24.488 10.9196 25.6094 11.7617 25.6855 12.041V12.2441C25.6855 12.4473 25.474 12.6589 25.0508 12.8789C24.543 12.8789 23.3538 12.1087 21.4834 10.5684H21.0645C20.8867 11.5586 20.1885 12.5361 18.9697 13.501H18.7539C18.4746 13.501 18.335 13.3613 18.335 13.082V12.8789C18.335 12.2949 19.8034 10.0563 22.7402 6.16309C23.2988 5.53678 23.5781 5.0459 23.5781 4.69043H22.9561L21.6992 4.90625C21.5553 4.90625 21.4834 4.83431 21.4834 4.69043L17.0781 5.3252C16.6634 5.22363 16.3841 4.94434 16.2402 4.4873C16.2402 3.87793 17.4971 3.52669 20.0107 3.43359V3.64941L20.4297 3.43359H22.9561C23.0915 3.43359 23.1592 3.36589 23.1592 3.23047ZM23.1592 14.9736H29.875L30.2939 15.1895C30.1585 16.5859 30.0908 17.6312 30.0908 18.3252L30.2939 19.5947C30.1331 20.1195 29.7861 20.6061 29.2529 21.0547L28.8213 20.8516H27.9834C25.3089 21.4102 23.7728 21.6895 23.375 21.6895C22.918 21.6895 22.5667 19.9417 22.3213 16.4463C22.5667 15.4645 22.846 14.9736 23.1592 14.9736ZM24.8477 16.4463H24.2129C23.9336 16.4463 23.7939 16.6536 23.7939 17.0684C23.8955 19.0319 24.1748 20.0137 24.6318 20.0137C26.333 19.7344 27.3105 19.5228 27.5645 19.3789C27.8099 19.5228 28.0892 19.5947 28.4023 19.5947L28.6182 19.1758V16.6494L28.4023 16.2305C26.7604 16.3743 25.5755 16.4463 24.8477 16.4463ZM48.8857 2.6084C49.3005 2.75228 49.5078 2.89193 49.5078 3.02734C49.2285 5.4987 49.0889 7.03906 49.0889 7.64844V10.3652C49.0889 10.5091 49.1608 10.5811 49.3047 10.5811C48.9746 11.4189 48.6953 11.8379 48.4668 11.8379H48.0479C47.7686 11.8379 47.6289 11.6982 47.6289 11.4189V5.54102L47.832 4.5L47.4131 4.28418H46.9941C44.2943 4.28418 41.988 4.49577 40.0752 4.91895L39.8721 4.5C39.8721 3.51823 40.71 3.02734 42.3857 3.02734C43.0882 3.02734 44.1377 2.95964 45.5342 2.82422C45.805 2.95964 46.0124 3.02734 46.1562 3.02734C46.4271 2.89193 46.6387 2.82422 46.791 2.82422L47.21 3.02734L48.8857 2.6084ZM49.3047 12.8916C49.9987 13.0693 50.3457 13.2767 50.3457 13.5137C50.3457 14.2415 50.1383 14.6605 49.7236 14.7705H49.5078C48.9069 14.7705 48.3483 14.6309 47.832 14.3516C47.3073 14.3516 45.8389 14.4912 43.4268 14.7705V14.5674C43.4268 14.7028 42.3096 14.8424 40.0752 14.9863C39.7959 14.6478 39.6562 14.3685 39.6562 14.1484C39.8001 13.5898 40.1514 13.3105 40.71 13.3105C42.1826 13.3105 45.0475 13.1709 49.3047 12.8916ZM71.0449 2.39258C71.3158 2.52799 71.5231 2.5957 71.667 2.5957C71.667 3.39128 71.5273 4.22917 71.248 5.10938L71.4639 5.52832C71.32 6.29004 71.248 6.92057 71.248 7.41992H73.5586C73.7617 7.41992 73.9691 7.63151 74.1807 8.05469C74.1722 8.25781 73.8929 8.60482 73.3428 9.0957L72.9238 8.89258H71.667C71.3877 8.9349 71.248 9.07454 71.248 9.31152V11.4062C71.248 11.7194 71.32 11.9987 71.4639 12.2441C71.4639 12.8027 71.1126 13.2217 70.4102 13.501L69.7754 12.6631V8.67676C69.7754 4.4873 70.1986 2.39258 71.0449 2.39258ZM67.4775 3.43359C67.613 3.70443 67.6807 3.91602 67.6807 4.06836C67.6299 4.63542 66.4408 6.3112 64.1133 9.0957V9.31152C66.9147 10.9873 68.3154 12.0368 68.3154 12.46C68.1715 13.0186 67.7526 13.2979 67.0586 13.2979C66.3984 12.6038 65.1374 11.6263 63.2754 10.3652H63.0723C61.3372 13.0059 60.3555 14.3346 60.127 14.3516H59.5049L59.2891 13.501C60.694 11.1227 62.5137 8.67676 64.748 6.16309C64.748 5.92611 64.9554 5.57487 65.3701 5.10938C65.2347 5.10938 65.167 5.04167 65.167 4.90625C61.46 5.32096 59.014 5.52832 57.8291 5.52832C57.6852 5.29134 57.6133 5.01204 57.6133 4.69043C57.6133 4.0472 60.9014 3.62826 67.4775 3.43359ZM69.5723 14.3516H69.9912L70.626 14.7705C70.2959 18.4352 70.0124 20.8092 69.7754 21.8926C69.7754 22.0957 69.568 22.3073 69.1533 22.5273H66.6396C66.1742 22.5273 65.404 22.7389 64.3291 23.1621C63.6266 22.6712 63.2754 20.8516 63.2754 17.7031V17.4873C63.4531 16.0908 63.7324 15.3926 64.1133 15.3926H64.3291C64.6084 15.4349 64.748 15.5745 64.748 15.8115V18.7568C67.4056 18.7568 68.7344 18.4733 68.7344 17.9062C68.7344 15.5365 69.0137 14.3516 69.5723 14.3516ZM64.9512 20.4326V21.0547H65.167C65.751 21.0547 66.5212 20.987 67.4775 20.8516L67.8965 21.0547C68.4551 20.8516 68.7344 20.6442 68.7344 20.4326C68.7344 20.1533 68.5228 20.0137 68.0996 20.0137C67.541 20.0137 66.4915 20.1533 64.9512 20.4326ZM79.5791 0.297852H79.7949C80.0742 0.348633 80.2139 0.492513 80.2139 0.729492C79.9346 1.63509 79.7949 2.26139 79.7949 2.6084V4.28418L79.998 4.70312C80.1419 4.70312 80.2139 4.63542 80.2139 4.5L82.7275 4.70312H83.5654C83.8447 4.74544 83.9844 4.88509 83.9844 5.12207V5.54102L81.2549 9.1084C81.2549 9.37077 82.1647 10.2087 83.9844 11.6221V12.041C83.9844 12.3203 83.8447 12.46 83.5654 12.46H83.3623C82.6429 12.46 81.6611 11.8337 80.417 10.5811H79.998C79.2025 12.3923 78.6439 13.2979 78.3223 13.2979H78.1191C77.8398 13.2979 77.7002 13.1582 77.7002 12.8789V12.46C77.7002 11.5544 78.957 9.59928 81.4707 6.59473V6.17578H80.417C78.7158 6.17578 77.112 6.31543 75.6055 6.59473C75.3346 6.45085 75.123 6.37891 74.9707 6.37891V5.33789C75.1908 5.33789 75.4701 5.19824 75.8086 4.91895H77.2812L78.3223 4.70312V3.44629C78.4661 1.34733 78.8851 0.297852 79.5791 0.297852ZM89.0117 2.82422H89.4307C89.71 2.86654 89.8496 3.00618 89.8496 3.24316C89.5703 5.96842 89.4307 7.99544 89.4307 9.32422V11.4189L89.6465 12.6758C89.3757 13.3105 89.0964 13.6576 88.8086 13.7168H88.3896C88.1865 13.7168 87.9749 13.5094 87.7549 13.0947C87.7887 12.3923 87.9284 12.041 88.1738 12.041L87.9707 11V8.68945H87.5518C86.5023 8.85872 85.9437 9.13802 85.876 9.52734V11L86.0791 13.0947L85.2412 13.7168C84.6826 13.5137 84.4033 13.3063 84.4033 13.0947V8.68945C84.4033 4.91471 84.9619 3.02734 86.0791 3.02734H86.2949L86.498 3.44629V4.08105C86.0833 5.89225 85.876 6.86979 85.876 7.01367V7.63574H86.0791C87.4756 7.35645 88.1738 7.07715 88.1738 6.79785V5.54102C88.2754 3.72982 88.5547 2.82422 89.0117 2.82422ZM108.657 1.5293H109.089L109.508 1.74512C109.364 3.63249 109.292 5.0332 109.292 5.94727V7.2041C109.334 7.4834 109.474 7.62305 109.711 7.62305H109.927L110.968 7.40723C111.247 7.75423 111.387 8.03776 111.387 8.25781C111.387 8.81641 110.688 9.16341 109.292 9.29883L109.508 10.3525V11.6094L108.873 12.4473C108.314 12.3118 108.035 11.8929 108.035 11.1904V5.3125C108.035 4.81315 107.963 4.18262 107.819 3.4209C108.022 2.15983 108.302 1.5293 108.657 1.5293ZM97.9551 1.96094H98.374C98.6533 1.96094 98.793 2.24023 98.793 2.79883L106.144 1.96094C106.186 2.24023 106.326 2.37988 106.562 2.37988C106.283 3.77637 106.144 5.0332 106.144 6.15039V9.93359C106.144 11.0085 105.864 11.639 105.306 11.8252C104.062 11.6813 103.291 11.6094 102.995 11.6094C100.532 11.8887 98.9919 12.168 98.374 12.4473C97.5361 12.4473 97.1172 10.5599 97.1172 6.78516V4.05566C97.2865 2.65918 97.5658 1.96094 97.9551 1.96094ZM100.062 4.47461C99.9271 4.47461 99.5039 4.19531 98.793 3.63672H98.5898C98.446 4.86393 98.374 5.56217 98.374 5.73145C98.5179 8.18587 98.5898 9.72624 98.5898 10.3525C98.8607 10.4964 99.068 10.5684 99.2119 10.5684C102.716 10.3145 104.468 9.96322 104.468 9.51465C104.603 9.51465 104.743 7.55534 104.887 3.63672L104.468 3.4209C101.531 3.7002 100.062 4.05143 100.062 4.47461ZM103.63 12.4473H104.252C104.531 12.498 104.671 12.6377 104.671 12.8662C104.671 13.2217 104.603 13.7845 104.468 14.5547C104.569 16.2305 104.777 17.0684 105.09 17.0684C106.182 17.0684 107.794 16.7891 109.927 16.2305C109.969 16.5098 110.109 16.6494 110.346 16.6494C110.346 17.6312 109.855 18.1221 108.873 18.1221C108.331 18.1221 106.723 18.4014 104.049 18.96C103.49 18.8161 103.211 18.3971 103.211 17.7031V13.9199L103.63 12.4473ZM117.204 0.919922H117.623C117.623 1.19922 117.691 1.33887 117.826 1.33887L117.623 2.39258V4.06836C117.665 4.34766 117.805 4.4873 118.042 4.4873H118.88C119.616 4.4873 120.805 4.41536 122.447 4.27148C122.447 4.55078 122.515 4.69043 122.65 4.69043C122.65 4.82585 122.371 5.24902 121.812 5.95996C121.711 5.95996 121.292 5.88802 120.556 5.74414C119.075 5.74414 116.349 6.09538 112.38 6.79785L112.164 6.37891V5.95996C112.164 5.54525 113.493 5.05436 116.15 4.4873V2.5957C116.15 1.83398 116.502 1.27539 117.204 0.919922ZM124.542 6.37891C124.965 6.51432 125.177 6.65397 125.177 6.79785C124.889 8.99837 124.745 10.4668 124.745 11.2031V11.4062L124.961 11.8252C125.672 11.5459 126.163 11.4062 126.434 11.4062C126.992 11.5501 127.271 11.9014 127.271 12.46C127.128 12.7308 127.056 12.9382 127.056 13.082H126.434C125.401 13.082 124.838 13.2936 124.745 13.7168V16.4463C124.745 17.1403 124.466 17.5592 123.907 17.7031L123.285 16.8652V13.2979C123.285 8.68522 123.704 6.37891 124.542 6.37891ZM118.042 6.79785C120.336 7.55957 121.592 8.18587 121.812 8.67676V9.31152C121.812 10.2171 120.835 11.474 118.88 13.082C119.295 13.082 119.502 13.2217 119.502 13.501L119.299 15.3926C119.434 15.3926 119.502 15.4645 119.502 15.6084C120.137 15.3291 121.047 15.1895 122.231 15.1895L122.65 15.8115V16.2305C122.65 16.5521 120.484 17.1107 116.15 17.9062L115.731 17.2842V17.0684C115.748 16.7637 116.447 16.3447 117.826 15.8115C117.826 15.583 117.898 14.7451 118.042 13.2979H117.826C116.963 13.5771 116.404 13.7168 116.15 13.7168C115.033 13.7168 114.335 12.9466 114.056 11.4062C114.056 9.35807 115.384 7.82194 118.042 6.79785ZM115.516 11.4062C115.66 11.8633 115.939 12.1426 116.354 12.2441C117.581 12.2441 118.91 11.4062 120.34 9.73047V9.31152C120.34 8.96452 120.061 8.75293 119.502 8.67676C119.138 8.67676 118.651 8.88835 118.042 9.31152H117.623C117.623 8.88835 117.483 8.67676 117.204 8.67676H116.988C116.007 9.33691 115.516 10.2467 115.516 11.4062Z" fill="#222222"/>
</svg>
