<svg width="99" height="25" viewBox="0 0 99 25" fill="none" xmlns="http://www.w3.org/2000/svg">
<path d="M1.24805 0.880859C5.25586 1.39648 7.25977 1.71582 7.25977 1.83887L7.74316 1.60156H9.66797C11.9121 2.02344 13.0342 3.86621 13.0342 7.12988C12.7236 7.8623 12.4043 8.26367 12.0762 8.33398H11.5928C11.0127 8.33398 10.5322 6.89258 10.1514 4.00977C9.8291 4.00977 9.66797 3.92773 9.66797 3.76367L9.18457 4.00977H8.94727C8.7832 4.00977 8.70117 3.92773 8.70117 3.76367C7.74023 3.97461 7.25977 4.21484 7.25977 4.48438V7.37598C7.25977 8.33691 6.7793 8.81738 5.81836 8.81738C5.17969 8.2373 4.86035 7.5957 4.86035 6.89258V3.76367C1.97168 3.44727 0.527344 3.04883 0.527344 2.56836V1.11816C0.697266 1.11816 0.9375 1.03906 1.24805 0.880859ZM2.45215 9.78418C3.2959 9.94238 3.77637 10.0215 3.89355 10.0215C8.82129 9.86328 12.1904 9.78418 14.001 9.78418L14.7217 10.7422V11.4629C14.7217 11.6914 14.4814 11.9316 14.001 12.1836H9.43066V12.9043L9.66797 14.5918H11.1094C12.3926 14.5918 13.0342 15.3125 13.0342 16.7539V18.1953C13.0342 20.123 10.9512 21.0869 6.78516 21.0869V21.5615C8.60742 21.8838 9.8877 22.0449 10.626 22.0449H12.0762C12.3047 22.0449 12.5449 22.2852 12.7969 22.7656V23.0117C12.2988 23.9727 11.335 24.4531 9.90527 24.4531C7.11035 24.4531 5.18555 23.249 4.13086 20.8408C4.53516 19.5576 5.33789 18.916 6.53906 18.916C9.18164 18.7578 10.626 18.2773 10.8721 17.4746V16.7539C7.24512 16.918 4.99805 17 4.13086 17L3.41016 16.0332L3.65625 14.8291H6.30176L7.50586 14.5918L7.25977 14.1084V12.4297H5.09766C2.85352 12.4297 1.73145 11.8672 1.73145 10.7422L2.45215 9.78418ZM18.5645 0.177734H19.0479C21.1279 1.60156 22.168 2.88477 22.168 4.02734C22.168 5.04102 21.5264 6.00195 20.2432 6.91016L20.4893 8.58887V9.30957H21.4473C22.4082 9.30957 22.8887 9.79004 22.8887 10.751C22.6484 11.3955 22.4082 11.7178 22.168 11.7178H16.8857C16.5811 11.7178 15.9395 11.4775 14.9609 10.9971V9.79297C14.9609 9.66406 15.2012 9.42383 15.6816 9.07227L16.8857 9.30957H18.0811V7.14746C16.001 6.9248 14.9609 6.04297 14.9609 4.50195V3.30664C14.9609 1.2207 16.1621 0.177734 18.5645 0.177734ZM26.9756 1.38184H27.4502C28.4111 1.38184 28.8916 1.8623 28.8916 2.82324V5.94336C29.2139 5.94336 29.375 6.02539 29.375 6.18945L29.8584 5.94336H31.5371C31.7656 5.94336 32.0059 6.18359 32.2578 6.66406V6.91016C32.2578 7.87109 31.5371 8.35156 30.0957 8.35156C29.293 8.35156 28.8916 8.5127 28.8916 8.83496V11.9551C28.8916 12.2773 28.7334 12.4385 28.417 12.4385H27.2129C26.9844 12.4385 26.7441 12.1982 26.4922 11.7178V8.10547C26.4922 7.94727 26.5713 7.86816 26.7295 7.86816L26.4922 7.38477V6.91016C26.4922 6.74609 26.5713 6.66406 26.7295 6.66406L26.4922 6.18945V3.54395C26.4922 3.14551 26.6533 2.4248 26.9756 1.38184ZM17.3604 2.58594V4.26465C17.3604 4.62793 17.7617 4.86816 18.5645 4.98535C19.2969 4.6748 19.6982 4.35547 19.7686 4.02734C19.3936 3.06641 19.0713 2.58594 18.8018 2.58594H17.3604ZM23.126 13.6338C26.1729 13.6338 27.6963 14.9961 27.6963 17.7207C27.6963 19.6719 26.6533 20.9521 24.5674 21.5615H22.4053C20.6475 20.583 19.7686 19.3818 19.7686 17.958C19.7686 15.4268 20.8877 13.9854 23.126 13.6338ZM22.168 17.7207C22.168 18.5586 22.7275 19.0391 23.8467 19.1621C24.5029 18.8398 24.9834 18.6787 25.2881 18.6787V16.042C24.6494 16.042 24.3301 15.96 24.3301 15.7959L23.8467 16.042C23.6885 16.042 23.6094 15.96 23.6094 15.7959C22.8945 15.7959 22.4141 16.4375 22.168 17.7207ZM37.0498 2.10254C37.6943 2.77051 38.0166 3.57031 38.0166 4.50195V5.46875L37.7705 5.94336C39.5342 7.63672 40.416 8.67969 40.416 9.07227H40.1787L40.416 9.55566C40.416 9.78418 40.1758 10.0244 39.6953 10.2764C39.3379 10.2764 38.6172 9.79297 37.5332 8.82617H37.2959L36.8125 10.2764H36.3291L35.1338 10.0303V9.79297C35.1338 9.59375 35.374 7.99121 35.8545 4.98535V4.50195L32.9717 4.74805L32.4883 4.02734V3.54395C32.8105 2.90527 33.0508 2.58594 33.209 2.58594C33.9297 2.58594 35.21 2.4248 37.0498 2.10254ZM47.8604 3.06055H48.8271C49.3545 3.06055 49.6738 4.18262 49.7852 6.42676L52.668 6.18945H52.9141V6.91016L52.668 7.38477H53.1514C53.1514 7.70703 52.9111 7.86816 52.4307 7.86816L52.668 8.35156H50.2686V8.58887C50.2686 8.93457 50.3477 9.81641 50.5059 11.2344C50.3477 11.873 49.9463 12.1924 49.3018 12.1924C48.5049 12.1924 47.9453 9.38867 47.623 3.78125C47.7812 3.4707 47.8604 3.23047 47.8604 3.06055ZM42.8154 3.78125C43.46 4.39648 43.8613 5.43945 44.0195 6.91016C45.4609 7.66016 46.1816 8.54199 46.1816 9.55566C45.8594 9.55566 45.6982 9.71387 45.6982 10.0303H44.7402C43.9316 9.3916 43.4512 9.07227 43.2988 9.07227L42.3408 10.751H41.374C41.0576 10.751 40.8994 10.5928 40.8994 10.2764V9.55566L41.8574 5.94336H41.6201C41.2158 5.94336 40.4951 6.10449 39.458 6.42676C38.8135 6.18652 38.4912 5.94629 38.4912 5.70605V5.46875C38.4912 4.50781 39.2119 4.02734 40.6533 4.02734C41.251 3.86328 41.9717 3.78125 42.8154 3.78125ZM44.5029 13.6338H45.4609C47.8633 13.6338 49.0645 15.0752 49.0645 17.958C49.0645 19.3643 48.0244 20.2461 45.9443 20.6035C45.8037 20.6035 45.1621 20.3633 44.0195 19.8828V20.1201C43.0527 20.1201 42.332 18.7607 41.8574 16.042C42.4902 14.4365 43.3721 13.6338 44.5029 13.6338ZM44.2568 15.3213L44.0195 16.5166C44.0195 17.6885 44.9014 18.3301 46.665 18.4414L47.1396 17.7207V16.7627C46.583 15.8018 45.8623 15.3213 44.9775 15.3213H44.2568ZM66.8135 1.83887C69.2158 1.83887 70.417 2.88184 70.417 4.96777V5.21387C70.417 10.0244 69.4561 12.4297 67.5342 12.4297C66.8721 12.4297 66.2305 12.5088 65.6094 12.667C65.3281 12.5088 65.0088 12.4297 64.6514 12.4297C64.3408 12.5879 64.1006 12.667 63.9307 12.667V12.4297L63.4473 12.667H62.4805C61.4902 12.667 60.5293 9.54102 59.5977 3.28906C59.5977 2.32227 61.2002 1.83887 64.4053 1.83887H66.8135ZM74.75 2.56836H75.2334C76.0361 2.97852 76.4375 3.61719 76.4375 4.48438C76.4375 4.66016 76.3555 4.90332 76.1914 5.21387L76.4375 6.65527V7.12988H78.8369C79.1709 7.2002 79.4932 7.60156 79.8037 8.33398C79.4814 8.85547 79.3203 9.25684 79.3203 9.53809H78.5996L76.9121 9.78418C76.9121 9.62012 76.833 9.53809 76.6748 9.53809V11.4629C76.6748 13.3848 76.3555 14.3457 75.7168 14.3457H74.5127C74.5127 14.0996 74.3516 13.7803 74.0293 13.3877V7.85938L73.792 6.65527H74.0293L73.792 6.17188V4.24707C73.792 3.38574 74.1113 2.82617 74.75 2.56836ZM62.2432 4.73047C63.0459 7.84766 63.4473 9.61133 63.4473 10.0215H64.4053C66.4912 10.0215 67.5342 9.69922 67.5342 9.05469C67.6924 8.1875 67.7715 7.4668 67.7715 6.89258V4.48438H63.4473L62.2432 4.73047ZM68.0176 15.3125H68.7383C69.2188 15.9805 69.7783 17.3428 70.417 19.3994C71.8643 19.0771 73.2295 18.916 74.5127 18.916L74.9873 19.6455V20.6035C74.9873 21.2129 73.4639 21.6934 70.417 22.0449C68.7295 22.0449 67.6074 20.5215 67.0508 17.4746C67.25 16.0332 67.5723 15.3125 68.0176 15.3125ZM84.6133 3.04297H85.0967C85.0967 3.20703 85.0146 3.28906 84.8506 3.28906C85.126 3.63477 85.3662 4.75684 85.5713 6.65527C87.499 6.65527 88.4629 7.05664 88.4629 7.85938V8.58008C88.4629 8.75 88.0615 9.06934 87.2588 9.53809C87.5811 10.0654 87.7422 10.5459 87.7422 10.9795V12.667C87.543 13.9502 87.0625 14.5918 86.3008 14.5918V14.8291L86.5381 17.2373H87.2588L88.9463 17.4746V18.916C88.9463 19.5605 87.1797 19.8828 83.6465 19.8828H82.4512C81.9707 19.7246 81.7305 19.2441 81.7305 18.4414V18.1953C81.7305 17.8262 82.5303 17.5068 84.1299 17.2373C84.1299 15.3096 83.4883 14.3457 82.2051 14.3457C81.2441 13.4141 80.7637 12.5322 80.7637 11.7002C80.7637 11.46 80.9248 10.7393 81.2471 9.53809C80.5146 9.22754 80.1133 8.9082 80.043 8.58008V7.37598C81.2031 6.89551 82.1641 6.65527 82.9258 6.65527V4.00977C83.1895 3.36523 83.752 3.04297 84.6133 3.04297ZM93.2705 7.37598H93.7539C94.0762 8.34277 94.3164 9.78418 94.4746 11.7002H96.8828C97.7441 11.7002 98.2246 12.1016 98.3242 12.9043C98.002 13.4258 97.8408 13.8271 97.8408 14.1084H94.4746V14.3457C94.4746 15.0137 94.5537 15.8984 94.7119 17C94.7119 18.1191 94.2314 18.6787 93.2705 18.6787C92.4385 18.6787 91.958 17.1553 91.8291 14.1084H92.0664L91.8291 13.625V11.9463C91.8291 11.0615 91.75 9.93945 91.5918 8.58008C91.8145 7.77734 92.374 7.37598 93.2705 7.37598ZM83.4092 10.2588V11.7002C83.4092 11.9346 83.6494 12.1777 84.1299 12.4297H85.0967L85.5713 12.1836C85.5713 11.1406 85.0908 10.4199 84.1299 10.0215C83.8193 10.1797 83.5791 10.2588 83.4092 10.2588Z" fill="#222222"/>
</svg>
