<svg width="146" height="24" viewBox="0 0 146 24" fill="none" xmlns="http://www.w3.org/2000/svg">
<path d="M7.27441 1.54199L8.31543 2.16406C10.7529 1.88477 12.2256 1.74512 12.7334 1.74512L13.1523 2.37988C13.0085 3.81022 12.9365 4.92741 12.9365 5.73145C12.9365 6.15462 13.0085 6.36621 13.1523 6.36621L12.9365 7.41992V9.93359C12.9365 10.069 12.6572 10.3483 12.0986 10.7715L11.2607 10.3525L11.4639 8.87988V3.63672C11.4639 3.35742 11.3242 3.21777 11.0449 3.21777C8.94596 3.21777 7.89648 3.77637 7.89648 4.89355L7.69336 5.94727C7.82878 6.86979 7.89648 7.77962 7.89648 8.67676V9.51465C7.89648 10.2679 7.61719 10.7588 7.05859 10.9873C6.85547 10.9873 6.64388 10.7757 6.42383 10.3525V3.4209H6.2207C5.03581 3.4209 3.35579 3.63249 1.18066 4.05566L0.761719 3.4209V3.21777C0.761719 2.61686 2.86068 2.12598 7.05859 1.74512C7.05859 1.6097 7.13053 1.54199 7.27441 1.54199ZM14.6123 11.8252C15.1709 11.9606 15.4502 12.2399 15.4502 12.6631L14.8281 13.7168L13.7744 13.501H11.2607C11.1169 14.4997 11.0449 15.0583 11.0449 15.1768L11.4639 15.3926H13.5713C13.8506 15.4349 13.9902 15.5745 13.9902 15.8115V16.6494L13.7744 17.9062L13.9902 18.3252C13.9902 19.6286 12.2383 20.3988 8.73438 20.6357V21.0547H10.207C10.3509 21.0547 10.4229 21.1266 10.4229 21.2705L14.6123 20.6357C14.8831 20.7796 15.0947 20.8516 15.2471 20.8516V21.0547C15.2471 21.901 14.7562 22.3242 13.7744 22.3242C12.0986 22.4258 11.2607 22.5654 11.2607 22.7432C11.1169 22.7432 11.0449 22.6712 11.0449 22.5273L8.53125 22.7432H8.1123C7.58757 22.7432 7.16862 21.973 6.85547 20.4326C6.85547 19.6032 8.32389 19.1123 11.2607 18.96C11.9548 18.6045 12.3018 18.3252 12.3018 18.1221V17.2842L12.0986 16.8652L7.05859 17.7031L6.85547 17.2842V16.4463C8.81055 16.0231 9.78809 15.6719 9.78809 15.3926V13.7168C9.22949 13.7168 8.9502 13.6449 8.9502 13.501C5.33626 14.0596 3.30501 14.3389 2.85645 14.3389C2.57715 14.3389 2.4375 14.1992 2.4375 13.9199V13.7168C2.4375 12.7604 6.49577 12.1299 14.6123 11.8252ZM27.7803 1.33887C28.4743 1.48275 28.8213 1.76204 28.8213 2.17676C28.6182 2.73535 28.4108 3.01465 28.1992 3.01465L26.9424 2.81152L17.916 3.64941L17.7129 4.69043V7.2168C17.9922 7.2168 18.1318 7.28451 18.1318 7.41992L18.5508 7.2168H19.1729C20.0023 7.2168 22.7318 6.9375 27.3613 6.37891L27.7803 7.00098C27.7803 7.70345 26.4515 8.05469 23.7939 8.05469C20.0192 8.4694 18.1318 8.81641 18.1318 9.0957C18.1318 10.3568 18.4111 10.9873 18.9697 10.9873L26.9424 9.73047L27.1455 10.1494C27.1455 10.9873 26.5869 11.4062 25.4697 11.4062C25.1989 11.2708 24.9915 11.2031 24.8477 11.2031C23.8659 11.6178 21.4876 12.1045 17.7129 12.6631C17.4336 12.1637 17.0146 10.6276 16.4561 8.05469V5.95996C16.4561 5.81608 16.3841 5.74414 16.2402 5.74414C16.2402 5.60872 16.3122 5.54102 16.4561 5.54102L16.2402 3.43359V2.81152C16.2402 2.6084 16.4518 2.39681 16.875 2.17676H18.335C19.3083 2.17676 22.4567 1.89746 27.7803 1.33887ZM22.5371 12.46H23.1592C23.4385 12.5023 23.5781 12.6419 23.5781 12.8789V14.5547C27.0736 14.4193 28.8213 14.2796 28.8213 14.1357C29.0921 14.2796 29.3037 14.3516 29.4561 14.3516V15.1895C29.4561 15.6042 29.1768 15.8115 28.6182 15.8115C28.305 15.8115 28.0257 15.7438 27.7803 15.6084L17.916 16.6494C17.6452 16.514 17.4378 16.4463 17.2939 16.4463V15.6084C18.335 15.1852 19.6637 14.9736 21.2803 14.9736H21.6992C22.0462 14.9736 22.3255 14.1357 22.5371 12.46ZM25.0508 17.2842C26.8704 18.0798 27.7803 19.4085 27.7803 21.2705C26.9762 22.9463 25.6475 23.7842 23.7939 23.7842C22.1266 23.3695 21.0052 22.6712 20.4297 21.6895C20.4297 21.3763 20.362 21.097 20.2266 20.8516C20.2266 19.2096 21.8346 18.0205 25.0508 17.2842ZM21.6992 21.0547C22.0801 21.8926 22.9857 22.3115 24.416 22.3115C25.2031 22.3115 25.9056 21.8249 26.5234 20.8516C26.2865 19.4551 25.584 18.7568 24.416 18.7568C22.6048 19.1208 21.6992 19.8867 21.6992 21.0547ZM31.7188 2.17676C31.998 2.5153 32.1377 2.7946 32.1377 3.01465C31.8584 4.89355 31.7188 6.08268 31.7188 6.58203V7.63574C34.6302 7.35645 36.7292 7.2168 38.0156 7.2168L38.2188 6.79785C38.0833 5.36751 38.0156 4.24609 38.0156 3.43359C38.0156 3.29818 38.2949 3.01888 38.8535 2.5957L39.6914 3.01465C39.5475 5.11361 39.4756 6.65397 39.4756 7.63574V11.4062C39.4756 12.0156 39.3359 12.5785 39.0566 13.0947L37.165 12.8789C36.0394 12.8789 34.0843 13.0186 31.2998 13.2979C30.9105 13.2979 30.5592 11.4105 30.2461 7.63574C30.2461 3.99642 30.737 2.17676 31.7188 2.17676ZM31.9219 9.31152V9.73047C31.9219 10.763 32.1335 11.3216 32.5566 11.4062H36.543L38.0156 11.2031V9.31152C38.0156 8.98991 37.6644 8.78255 36.9619 8.68945C36.3356 8.68945 34.6556 8.89681 31.9219 9.31152ZM35.2861 13.5137H35.9082L36.124 14.5547V16.6621H36.9619C37.7321 16.6621 38.7096 16.5902 39.8945 16.4463C40.5462 16.6325 40.8975 16.9118 40.9482 17.2842C40.6605 18.1221 40.3812 18.541 40.1104 18.541C39.6533 18.2617 39.2344 18.1221 38.8535 18.1221H38.6377C37.4697 18.1221 35.3708 18.2617 32.3408 18.541C32.07 18.4056 31.8626 18.3379 31.7188 18.3379V17.5C31.7188 17.1191 32.6963 16.8398 34.6514 16.6621V14.7705C34.736 13.9326 34.9476 13.5137 35.2861 13.5137ZM53.4814 4.06836H54.5352C54.5352 4.21224 54.6071 4.4196 54.751 4.69043C54.6071 5.65527 54.5352 6.42546 54.5352 7.00098L54.751 8.25781C54.6071 8.49479 54.5352 8.84603 54.5352 9.31152L54.9541 9.51465H57.0488C57.3281 9.56543 57.4678 9.70931 57.4678 9.94629L57.2646 10.9873H55.792L54.751 11.2031V12.041C54.751 12.4557 54.679 12.6631 54.5352 12.6631L54.751 13.7168V15.8115C54.751 16.0316 54.4674 16.3109 53.9004 16.6494C53.7057 16.6494 53.4984 16.4421 53.2783 16.0273V11.8252C53.2783 11.055 53.2064 10.0775 53.0625 8.89258L53.2783 8.47363L53.0625 7.2168V7.00098C53.0625 6.09538 53.2021 5.11784 53.4814 4.06836ZM43.2109 4.69043C44.2012 4.83431 44.7598 4.90625 44.8867 4.90625L46.1436 4.69043V4.90625L46.5625 4.69043H50.7646C50.7646 4.96973 50.8324 5.10938 50.9678 5.10938C50.6377 6.09115 50.3584 6.58203 50.1299 6.58203C50.0114 6.58203 49.4528 6.44238 48.4541 6.16309C47.9717 6.16309 46.5033 6.23503 44.0488 6.37891V6.58203C44.0488 7.00521 43.9769 7.49609 43.833 8.05469C43.9769 10.526 44.3281 12.4811 44.8867 13.9199H47.4004C48.1029 13.9199 49.1523 13.8522 50.5488 13.7168L50.9678 14.3516V14.5547C50.68 15.1133 50.3288 15.3926 49.9141 15.3926C47.5781 15.3926 45.6908 15.5322 44.252 15.8115C43.2786 15.3883 42.792 13.6406 42.792 10.5684C42.5381 10.5684 42.3984 9.73047 42.373 8.05469V6.58203C41.9499 6.04036 41.7383 5.62142 41.7383 5.3252C42.3561 4.90202 42.847 4.69043 43.2109 4.69043ZM72.7207 2.39258H73.5586C73.8717 2.39258 74.151 2.46029 74.3965 2.5957C74.6419 2.46029 74.9212 2.39258 75.2344 2.39258L75.8691 2.81152C75.5391 3.78483 75.2598 4.27148 75.0312 4.27148C74.0579 3.99219 73.2158 3.85254 72.5049 3.85254H72.0859C69.1491 3.85254 67.6807 4.13184 67.6807 4.69043L67.2617 7.00098C67.541 9.37923 67.8203 10.708 68.0996 10.9873C70.1393 10.8519 72.2383 10.6445 74.3965 10.3652L74.8154 10.9873V11.4062C74.8154 11.8294 74.5361 12.041 73.9775 12.041L72.9238 11.8252C70.1224 12.3838 68.3747 12.6631 67.6807 12.6631H67.4775C66.6989 12.6631 66.208 10.6361 66.0049 6.58203V4.90625L66.2207 4.4873L65.8018 4.27148C65.5563 4.41536 65.277 4.4873 64.9639 4.4873L64.748 4.06836V3.23047C64.7904 2.95117 64.93 2.81152 65.167 2.81152H65.3828C69.8939 2.53223 72.3398 2.39258 72.7207 2.39258ZM77.9639 2.39258H78.3828C78.6621 2.4349 78.8018 2.57454 78.8018 2.81152V3.23047C78.5225 5.27018 78.3828 6.38737 78.3828 6.58203V8.05469H80.2744C80.4775 8.05469 80.6849 8.26204 80.8965 8.67676C80.8965 8.84603 80.6891 9.19727 80.2744 9.73047L79.2207 9.51465C78.5267 9.61621 78.1797 9.8278 78.1797 10.1494C78.3151 11.5882 78.4548 12.4261 78.5986 12.6631C78.3278 13.3063 78.0485 13.6576 77.7607 13.7168H77.5449C77.3418 13.7168 77.1302 13.5052 76.9102 13.082V11.2031C76.9102 5.32943 77.2614 2.39258 77.9639 2.39258ZM77.5449 14.3516C77.5449 14.6309 77.6169 14.7705 77.7607 14.7705C77.3376 15.9469 77.126 17.0641 77.126 18.1221L77.3291 18.541C77.1429 19.1165 76.7959 19.5355 76.2881 19.7979H73.1396C72.8604 19.8402 72.7207 19.9798 72.7207 20.2168V20.8516C72.7207 21.1309 72.9323 21.2705 73.3555 21.2705C75.7253 20.9912 77.1217 20.8516 77.5449 20.8516L77.7607 21.2705V21.8926C77.7607 22.0957 77.5492 22.3073 77.126 22.5273H75.2344L72.0859 23.1621C71.3919 23.1621 71.0449 21.8333 71.0449 19.1758C71.3242 18.7865 72.8604 18.4352 75.6533 18.1221C75.6533 17.8258 75.7253 17.0557 75.8691 15.8115H74.6123C74.3753 15.8115 72.6953 16.0231 69.5723 16.4463C69.5723 16.2939 69.5046 16.0824 69.3691 15.8115C69.3691 14.8382 72.0944 14.3516 77.5449 14.3516ZM90.7002 2.17676H91.7412L92.1602 2.39258C91.9401 8.40169 91.5212 11.4062 90.9033 11.4062C90.6325 11.2708 90.4251 11.2031 90.2812 11.2031C90.4167 9.80664 90.4844 8.75716 90.4844 8.05469C90.349 8.05469 90.2812 7.98275 90.2812 7.83887C90.0951 7.83887 87.9961 8.05046 83.9844 8.47363L83.7686 8.05469V7.83887C83.7686 7.14486 86.0072 6.72591 90.4844 6.58203L90.7002 6.16309V4.69043L90.9033 3.64941C89.7354 3.64941 86.7308 3.85677 81.8896 4.27148C81.7458 4.00065 81.6738 3.79329 81.6738 3.64941C81.8177 3.09082 82.097 2.81152 82.5117 2.81152C87.2259 2.38835 89.9554 2.17676 90.7002 2.17676ZM87.1328 10.5684H87.3359C87.6152 10.6107 87.7549 10.7503 87.7549 10.9873C87.6195 12.2314 87.5518 13.0016 87.5518 13.2979H87.7549C88.4912 13.2979 90.3786 13.1582 93.417 12.8789L93.6328 13.2979V13.9199C93.6328 14.2077 93.4932 14.3516 93.2139 14.3516C92.2913 14.3516 88.5166 14.5589 81.8896 14.9736C81.8896 14.6943 81.8177 14.5547 81.6738 14.5547C81.6738 13.793 83.2142 13.374 86.2949 13.2979V12.46C86.2949 11.3851 86.5742 10.7546 87.1328 10.5684ZM91.5381 15.8115C91.5381 15.9554 91.6058 16.0273 91.7412 16.0273C91.6058 17.6693 91.5381 18.8584 91.5381 19.5947V21.8926C91.5381 22.1719 91.3984 22.3115 91.1191 22.3115H89.2275C87.5518 22.3454 86.7139 22.4893 86.7139 22.7432C85.8675 22.7432 85.4443 21.2028 85.4443 18.1221V16.8652L86.0791 16.0273C86.1807 16.0273 86.5996 16.0951 87.3359 16.2305C89.3249 15.9512 90.7256 15.8115 91.5381 15.8115ZM86.7139 18.1221C86.7139 20.0771 86.9212 21.0547 87.3359 21.0547C89.4349 21.0547 90.4844 20.8473 90.4844 20.4326V19.7979C90.4844 19.4847 90.4167 19.2054 90.2812 18.96C90.4167 18.7145 90.4844 18.4352 90.4844 18.1221V17.0684H90.2812C87.903 17.0684 86.7139 17.4196 86.7139 18.1221ZM98.3965 0.919922H98.5996L99.2344 1.33887C98.9551 2.59993 98.8154 3.50977 98.8154 4.06836C98.9593 4.06836 99.0312 4.13607 99.0312 4.27148C99.8945 3.99219 101.291 3.85254 103.221 3.85254C103.221 3.99642 103.293 4.06836 103.437 4.06836C103.437 4.82161 102.247 5.3125 99.8691 5.54102L95.0449 6.16309C94.7741 6.02767 94.5625 5.95996 94.4102 5.95996V5.3252C94.4102 4.96126 95.4596 4.54232 97.5586 4.06836C97.5586 1.9694 97.8379 0.919922 98.3965 0.919922ZM105.95 3.43359C106.509 3.64518 106.788 3.85677 106.788 4.06836C106.509 5.46484 106.369 6.86133 106.369 8.25781V9.31152L107.423 9.0957H107.842C108.036 9.0957 108.244 9.30729 108.464 9.73047V9.94629C108.464 10.251 107.766 10.5303 106.369 10.7842V12.6631C106.369 12.807 106.437 12.8789 106.572 12.8789C106.369 13.4375 106.162 13.7168 105.95 13.7168H105.531C105.108 13.5729 104.896 13.154 104.896 12.46V9.31152C104.896 5.56217 105.248 3.60286 105.95 3.43359ZM97.9775 6.79785C98.2484 6.93327 98.4557 7.00098 98.5996 7.00098C98.6758 7.00098 98.9593 6.93327 99.4502 6.79785C101.541 7.43262 102.586 8.33822 102.586 9.51465V9.73047C102.129 12.8112 100.66 14.3516 98.1807 14.3516C95.9463 13.9284 94.8291 12.8789 94.8291 11.2031V10.7842C94.8291 9.21842 95.8786 7.88965 97.9775 6.79785ZM96.3018 10.5684V11.4062C96.8773 12.5234 97.5755 13.082 98.3965 13.082C99.8607 13.082 100.771 12.0368 101.126 9.94629V9.0957C101.126 8.90951 100.635 8.5625 99.6533 8.05469C97.4189 8.44401 96.3018 9.2819 96.3018 10.5684ZM102.383 14.1357H102.586L103.221 14.5547C102.941 16.0273 102.802 16.9372 102.802 17.2842C103.183 17.2842 104.579 17.0726 106.991 16.6494L107.207 17.0684V17.9062C107.207 18.1432 105.95 18.4268 103.437 18.7568C103.437 19.0361 103.085 19.1758 102.383 19.1758H102.167C101.752 19.0319 101.545 18.6087 101.545 17.9062V17.0684C101.545 15.1133 101.824 14.1357 102.383 14.1357ZM127.284 1.5293H127.716L128.135 1.74512C127.991 3.63249 127.919 5.0332 127.919 5.94727V7.2041C127.961 7.4834 128.101 7.62305 128.338 7.62305H128.554L129.595 7.40723C129.874 7.75423 130.014 8.03776 130.014 8.25781C130.014 8.81641 129.315 9.16341 127.919 9.29883L128.135 10.3525V11.6094L127.5 12.4473C126.941 12.3118 126.662 11.8929 126.662 11.1904V5.3125C126.662 4.81315 126.59 4.18262 126.446 3.4209C126.649 2.15983 126.929 1.5293 127.284 1.5293ZM116.582 1.96094H117.001C117.28 1.96094 117.42 2.24023 117.42 2.79883L124.771 1.96094C124.813 2.24023 124.952 2.37988 125.189 2.37988C124.91 3.77637 124.771 5.0332 124.771 6.15039V9.93359C124.771 11.0085 124.491 11.639 123.933 11.8252C122.688 11.6813 121.918 11.6094 121.622 11.6094C119.159 11.8887 117.619 12.168 117.001 12.4473C116.163 12.4473 115.744 10.5599 115.744 6.78516V4.05566C115.913 2.65918 116.193 1.96094 116.582 1.96094ZM118.689 4.47461C118.554 4.47461 118.131 4.19531 117.42 3.63672H117.217C117.073 4.86393 117.001 5.56217 117.001 5.73145C117.145 8.18587 117.217 9.72624 117.217 10.3525C117.488 10.4964 117.695 10.5684 117.839 10.5684C121.343 10.3145 123.095 9.96322 123.095 9.51465C123.23 9.51465 123.37 7.55534 123.514 3.63672L123.095 3.4209C120.158 3.7002 118.689 4.05143 118.689 4.47461ZM122.257 12.4473H122.879C123.158 12.498 123.298 12.6377 123.298 12.8662C123.298 13.2217 123.23 13.7845 123.095 14.5547C123.196 16.2305 123.404 17.0684 123.717 17.0684C124.809 17.0684 126.421 16.7891 128.554 16.2305C128.596 16.5098 128.736 16.6494 128.973 16.6494C128.973 17.6312 128.482 18.1221 127.5 18.1221C126.958 18.1221 125.35 18.4014 122.676 18.96C122.117 18.8161 121.838 18.3971 121.838 17.7031V13.9199L122.257 12.4473ZM135.831 0.919922H136.25C136.25 1.19922 136.318 1.33887 136.453 1.33887L136.25 2.39258V4.06836C136.292 4.34766 136.432 4.4873 136.669 4.4873H137.507C138.243 4.4873 139.432 4.41536 141.074 4.27148C141.074 4.55078 141.142 4.69043 141.277 4.69043C141.277 4.82585 140.998 5.24902 140.439 5.95996C140.338 5.95996 139.919 5.88802 139.183 5.74414C137.701 5.74414 134.976 6.09538 131.007 6.79785L130.791 6.37891V5.95996C130.791 5.54525 132.12 5.05436 134.777 4.4873V2.5957C134.777 1.83398 135.129 1.27539 135.831 0.919922ZM143.169 6.37891C143.592 6.51432 143.804 6.65397 143.804 6.79785C143.516 8.99837 143.372 10.4668 143.372 11.2031V11.4062L143.588 11.8252C144.299 11.5459 144.79 11.4062 145.061 11.4062C145.619 11.5501 145.898 11.9014 145.898 12.46C145.755 12.7308 145.683 12.9382 145.683 13.082H145.061C144.028 13.082 143.465 13.2936 143.372 13.7168V16.4463C143.372 17.1403 143.093 17.5592 142.534 17.7031L141.912 16.8652V13.2979C141.912 8.68522 142.331 6.37891 143.169 6.37891ZM136.669 6.79785C138.963 7.55957 140.219 8.18587 140.439 8.67676V9.31152C140.439 10.2171 139.462 11.474 137.507 13.082C137.922 13.082 138.129 13.2217 138.129 13.501L137.926 15.3926C138.061 15.3926 138.129 15.4645 138.129 15.6084C138.764 15.3291 139.674 15.1895 140.858 15.1895L141.277 15.8115V16.2305C141.277 16.5521 139.111 17.1107 134.777 17.9062L134.358 17.2842V17.0684C134.375 16.7637 135.074 16.3447 136.453 15.8115C136.453 15.583 136.525 14.7451 136.669 13.2979H136.453C135.59 13.5771 135.031 13.7168 134.777 13.7168C133.66 13.7168 132.962 12.9466 132.683 11.4062C132.683 9.35807 134.011 7.82194 136.669 6.79785ZM134.143 11.4062C134.286 11.8633 134.566 12.1426 134.98 12.2441C136.208 12.2441 137.536 11.4062 138.967 9.73047V9.31152C138.967 8.96452 138.688 8.75293 138.129 8.67676C137.765 8.67676 137.278 8.88835 136.669 9.31152H136.25C136.25 8.88835 136.11 8.67676 135.831 8.67676H135.615C134.633 9.33691 134.143 10.2467 134.143 11.4062Z" fill="#222222"/>
</svg>
