<svg width="178" height="25" viewBox="0 0 178 25" fill="none" xmlns="http://www.w3.org/2000/svg">
<path d="M1.24805 0.880859C5.25586 1.39648 7.25977 1.71582 7.25977 1.83887L7.74316 1.60156H9.66797C11.9121 2.02344 13.0342 3.86621 13.0342 7.12988C12.7236 7.8623 12.4043 8.26367 12.0762 8.33398H11.5928C11.0127 8.33398 10.5322 6.89258 10.1514 4.00977C9.8291 4.00977 9.66797 3.92773 9.66797 3.76367L9.18457 4.00977H8.94727C8.7832 4.00977 8.70117 3.92773 8.70117 3.76367C7.74023 3.97461 7.25977 4.21484 7.25977 4.48438V7.37598C7.25977 8.33691 6.7793 8.81738 5.81836 8.81738C5.17969 8.2373 4.86035 7.5957 4.86035 6.89258V3.76367C1.97168 3.44727 0.527344 3.04883 0.527344 2.56836V1.11816C0.697266 1.11816 0.9375 1.03906 1.24805 0.880859ZM2.45215 9.78418C3.2959 9.94238 3.77637 10.0215 3.89355 10.0215C8.82129 9.86328 12.1904 9.78418 14.001 9.78418L14.7217 10.7422V11.4629C14.7217 11.6914 14.4814 11.9316 14.001 12.1836H9.43066V12.9043L9.66797 14.5918H11.1094C12.3926 14.5918 13.0342 15.3125 13.0342 16.7539V18.1953C13.0342 20.123 10.9512 21.0869 6.78516 21.0869V21.5615C8.60742 21.8838 9.8877 22.0449 10.626 22.0449H12.0762C12.3047 22.0449 12.5449 22.2852 12.7969 22.7656V23.0117C12.2988 23.9727 11.335 24.4531 9.90527 24.4531C7.11035 24.4531 5.18555 23.249 4.13086 20.8408C4.53516 19.5576 5.33789 18.916 6.53906 18.916C9.18164 18.7578 10.626 18.2773 10.8721 17.4746V16.7539C7.24512 16.918 4.99805 17 4.13086 17L3.41016 16.0332L3.65625 14.8291H6.30176L7.50586 14.5918L7.25977 14.1084V12.4297H5.09766C2.85352 12.4297 1.73145 11.8672 1.73145 10.7422L2.45215 9.78418ZM16.4023 2.11133H21.2012C21.4531 2.11133 21.7754 2.43066 22.168 3.06934V4.27344C22.168 5.07031 22.0068 5.46875 21.6846 5.46875L21.9219 5.95215V6.67285L21.6846 7.14746C22.8213 7.83887 24.0225 8.6416 25.2881 9.55566V9.79297L25.042 10.9971L24.5674 10.751V11.2344H23.3633C21.8516 10.1152 21.0518 9.55566 20.9639 9.55566C20.3486 10.9912 19.7891 11.791 19.2852 11.9551H18.3184C17.8438 11.7969 17.6064 11.3164 17.6064 10.5137C18.7314 8.82617 19.4492 6.9043 19.7598 4.74805L19.2852 4.51074H18.5645C18.0254 4.51074 17.624 4.58984 17.3604 4.74805L14.9609 4.27344V3.55273C14.9609 2.5918 15.4414 2.11133 16.4023 2.11133ZM32.7324 2.11133H33.4531C34.3086 2.11133 35.1084 4.99121 35.8525 10.751V11.4717C35.6943 12.1162 35.2139 12.4385 34.4111 12.4385H33.6904C33.3682 11.2549 33.1279 9.81348 32.9697 8.11426H32.0117L30.3242 8.35156L30.5703 9.55566V10.9971C30.5703 11.2432 30.251 11.5625 29.6123 11.9551C28.4873 11.9551 27.9248 10.833 27.9248 8.58887L26.9668 3.55273C27.2773 2.82031 27.5967 2.41895 27.9248 2.34863C28.6982 2.34863 29.4189 3.5498 30.0869 5.95215C30.0869 5.79395 30.9688 5.71484 32.7324 5.71484C32.252 4.20312 32.0117 3.32129 32.0117 3.06934C32.252 2.43066 32.4922 2.11133 32.7324 2.11133ZM28.1709 14.5918H30.5703C31.8477 14.5918 32.4863 15.7139 32.4863 17.958V18.1953C32.4863 21.0254 32.0059 22.6279 31.0449 23.0029C29.627 23.3193 28.0273 23.5596 26.2461 23.7236C24.3242 22.9502 23.3633 21.5088 23.3633 19.3994C22.8828 18.0928 22.6426 16.9707 22.6426 16.0332C23.123 15.418 23.3633 15.0195 23.3633 14.8379C25.5254 14.6738 27.1279 14.5918 28.1709 14.5918ZM25.2881 17.2373V17.4746C25.9268 20.0352 26.4072 21.3154 26.7295 21.3154C28.8096 20.9521 29.8496 20.6328 29.8496 20.3574V17.2373L28.6455 17C27.2861 17.1582 26.167 17.2373 25.2881 17.2373ZM55.7637 3.54395H56.7217C57.3135 3.54395 57.7148 5.38672 57.9258 9.07227C58.1426 9.07227 59.0244 8.91113 60.5713 8.58887C61.2979 8.89941 61.6963 9.21875 61.7666 9.54688V10.2676C61.7666 11.0703 60.5654 11.4717 58.1631 11.4717V11.7178C58.1631 12.5908 58.3242 14.5127 58.6465 17.4834C58.3359 18.2158 58.0137 18.6172 57.6797 18.6875H56.959C56.168 18.6875 55.6875 16.042 55.5176 10.751C55.3184 10.751 55.1602 8.50684 55.043 4.01855L55.7637 3.54395ZM48.5479 6.66406C49.5088 6.66406 49.9893 7.22656 49.9893 8.35156V14.1172C49.9893 14.3457 49.749 14.5859 49.2686 14.8379H48.3105C48.0762 14.8379 47.8359 14.5977 47.5898 14.1172V9.30957C45.0234 9.46777 43.6611 9.62891 43.5029 9.79297C42.7705 9.48242 42.3691 9.16016 42.2988 8.82617V7.86816C42.2988 7.30566 44.3818 6.9043 48.5479 6.66406ZM63.21 1.36426H69.7051C69.9219 1.37012 70.2412 1.77148 70.6631 2.56836C70.6631 3.5293 70.0215 4.00977 68.7383 4.00977H64.6514C64.6514 5.93164 65.0527 6.89258 65.8555 6.89258C66.4766 7.05078 67.1182 7.12988 67.7803 7.12988C67.874 7.12988 68.917 7.05078 70.9092 6.89258C71.3896 7.47852 71.6299 8.04102 71.6299 8.58008C71.6299 9.21875 71.4688 9.53809 71.1465 9.53809C70.3027 9.53809 68.9404 9.62012 67.0596 9.78418C64.0127 9.78418 62.4893 8.33984 62.4893 5.45117C62.167 3.82812 62.0059 2.86719 62.0059 2.56836C62.1113 2.14062 62.5127 1.73926 63.21 1.36426ZM62.7266 11.4629C64.9824 11.6211 66.9072 11.7002 68.501 11.7002V11.9463L68.9844 11.7002H69.7051C69.8633 11.7002 69.9424 11.7822 69.9424 11.9463L70.4258 11.7002H72.8252L73.5547 13.1504C73.3496 13.7715 72.9482 14.252 72.3506 14.5918L71.1465 14.3457H68.9844C64.332 14.3457 62.0059 13.9473 62.0059 13.1504V12.9043C62.1055 11.9434 62.3457 11.4629 62.7266 11.4629ZM64.8887 15.3125H69.9424C71.1201 15.3125 71.9229 16.2734 72.3506 18.1953C72.1865 18.4766 72.1045 18.7988 72.1045 19.1621L72.3506 19.6455C72.0283 20.2842 71.8672 20.8438 71.8672 21.3242H70.4258C69.9453 21.166 69.7051 20.6855 69.7051 19.8828L69.9424 18.1953C69.6025 18.0371 68.4014 17.8789 66.3389 17.7207L64.8887 17.958L64.168 17V16.0332C64.168 15.8047 64.4082 15.5645 64.8887 15.3125ZM77.1514 2.10254H77.3887C78.5078 2.10254 79.0674 3.22461 79.0674 5.46875C79.2314 5.46875 79.3135 5.94922 79.3135 6.91016H81.2295C82.7412 6.91016 83.8633 7.22949 84.5957 7.86816C84.5957 8.9873 84.1152 9.54688 83.1543 9.54688H81.7129C82.0703 10.0566 82.3896 10.8594 82.6709 11.9551C82.4951 14.1992 81.4551 15.3213 79.5508 15.3213H79.0674C77.79 15.3213 76.6709 14.4395 75.71 12.6758V10.9971L75.9473 9.79297H74.9893L73.7852 9.54688V8.82617C73.7852 7.70703 74.8252 7.14746 76.9053 7.14746C76.5889 5.38965 76.4307 4.18848 76.4307 3.54395C76.5889 2.58301 76.8291 2.10254 77.1514 2.10254ZM88.1992 4.74805H88.9199C89.5586 4.74805 89.96 6.10742 90.124 8.82617L92.2861 8.35156C93.4053 8.50977 93.9648 8.75 93.9648 9.07227V9.79297C93.9648 10.5371 92.7637 11.0176 90.3613 11.2344C90.4785 11.5215 90.6396 12.6436 90.8447 14.6006C90.5342 15.3271 90.2119 15.7256 89.8779 15.7959H88.6826C88.2021 14.4365 87.9619 13.4756 87.9619 12.9131H88.1992C88.041 12.3799 87.7217 10.1387 87.2412 6.18945C87.5635 5.22852 87.8828 4.74805 88.1992 4.74805ZM78.1094 10.5137C77.9512 10.8242 77.8721 11.0645 77.8721 11.2344C78.1885 12.1016 78.6689 12.6611 79.3135 12.9131C79.7939 12.7549 80.0342 12.5967 80.0342 12.4385C79.917 11.1553 79.2754 10.5137 78.1094 10.5137ZM83.6377 16.7627H84.3584C85.0557 16.7627 85.4541 18.1221 85.5537 20.8408C85.9521 20.8408 87.1533 20.6826 89.1572 20.3662C89.96 20.6826 90.3613 20.9229 90.3613 21.0869C90.3613 22.5283 88.6797 23.249 85.3164 23.249H84.833C83.5557 23.249 82.917 21.7256 82.917 18.6787V18.4414C83.0225 17.3223 83.2627 16.7627 83.6377 16.7627ZM104.252 1.37305H104.727C107.615 2.32227 109.06 3.7666 109.06 5.70605L109.297 7.38477C108.705 9.4707 107.662 10.5137 106.168 10.5137H105.447C102.781 10.5137 101.1 8.75 100.402 5.22266V4.50195C100.402 2.75 101.686 1.70703 104.252 1.37305ZM113.146 2.57715H113.621C114.219 2.57715 114.781 4.74219 115.309 9.07227C115.467 9.07227 115.546 10.3525 115.546 12.9131L114.588 13.3965C113.568 13.3965 112.927 11.7939 112.663 8.58887C112.341 6.65527 112.18 5.13184 112.18 4.01855V3.06055C112.432 3.06055 112.754 2.89941 113.146 2.57715ZM102.811 5.45996C103.648 7.22363 104.609 8.10547 105.693 8.10547C106.49 7.88281 106.889 7.32324 106.889 6.42676C106.355 5.03809 105.635 4.15625 104.727 3.78125H103.531C103.15 3.78125 102.91 4.34082 102.811 5.45996ZM107.618 14.6006H108.093C108.638 14.6006 109.039 16.042 109.297 18.9248H113.384C113.706 18.9775 113.867 19.1387 113.867 19.4082V19.8828C113.867 21.0078 112.985 21.5703 111.222 21.5703C108.175 21.5703 106.651 20.3691 106.651 17.9668L106.414 15.5586L107.618 14.6006ZM116.743 4.73047H116.989C117.347 4.73047 117.666 4.80957 117.947 4.96777C118.111 4.96777 118.193 4.88867 118.193 4.73047L119.389 4.96777H123.001C124.442 4.96777 125.245 6.01074 125.409 8.09668C125.245 12.6143 125.005 15.3389 124.688 16.2705H124.205C123.566 16.2705 123.004 15.8721 122.518 15.0752C122.84 12.9072 123.001 10.5811 123.001 8.09668V7.37598L121.797 7.61328V7.37598C121.639 7.37598 121.56 7.45508 121.56 7.61328C121.39 7.61328 121.149 7.53418 120.839 7.37598C119.737 7.53418 118.855 7.61328 118.193 7.61328V7.37598L117.71 7.61328H116.989L116.506 7.37598C116.506 7.53418 116.427 7.61328 116.269 7.61328L115.785 6.40918C116.008 5.29004 116.327 4.73047 116.743 4.73047ZM130.454 4.96777H131.175C132.142 6.49707 132.625 10.1855 132.625 16.0332L131.904 16.5166H130.938C130.457 16.0947 130.138 13.7686 129.979 9.53809C129.979 9.03418 129.818 7.91211 129.496 6.17188C129.807 5.43945 130.126 5.03809 130.454 4.96777ZM146.278 1.83887C148.681 1.83887 149.882 2.88184 149.882 4.96777V5.21387C149.882 10.0244 148.921 12.4297 146.999 12.4297C146.337 12.4297 145.695 12.5088 145.074 12.667C144.793 12.5088 144.474 12.4297 144.116 12.4297C143.806 12.5879 143.565 12.667 143.396 12.667V12.4297L142.912 12.667H141.945C140.955 12.667 139.994 9.54102 139.062 3.28906C139.062 2.32227 140.665 1.83887 143.87 1.83887H146.278ZM154.215 2.56836H154.698C155.501 2.97852 155.902 3.61719 155.902 4.48438C155.902 4.66016 155.82 4.90332 155.656 5.21387L155.902 6.65527V7.12988H158.302C158.636 7.2002 158.958 7.60156 159.269 8.33398C158.946 8.85547 158.785 9.25684 158.785 9.53809H158.064L156.377 9.78418C156.377 9.62012 156.298 9.53809 156.14 9.53809V11.4629C156.14 13.3848 155.82 14.3457 155.182 14.3457H153.978C153.978 14.0996 153.816 13.7803 153.494 13.3877V7.85938L153.257 6.65527H153.494L153.257 6.17188V4.24707C153.257 3.38574 153.576 2.82617 154.215 2.56836ZM141.708 4.73047C142.511 7.84766 142.912 9.61133 142.912 10.0215H143.87C145.956 10.0215 146.999 9.69922 146.999 9.05469C147.157 8.1875 147.236 7.4668 147.236 6.89258V4.48438H142.912L141.708 4.73047ZM147.482 15.3125H148.203C148.684 15.9805 149.243 17.3428 149.882 19.3994C151.329 19.0771 152.694 18.916 153.978 18.916L154.452 19.6455V20.6035C154.452 21.2129 152.929 21.6934 149.882 22.0449C148.194 22.0449 147.072 20.5215 146.516 17.4746C146.715 16.0332 147.037 15.3125 147.482 15.3125ZM164.078 3.04297H164.562C164.562 3.20703 164.479 3.28906 164.315 3.28906C164.591 3.63477 164.831 4.75684 165.036 6.65527C166.964 6.65527 167.928 7.05664 167.928 7.85938V8.58008C167.928 8.75 167.526 9.06934 166.724 9.53809C167.046 10.0654 167.207 10.5459 167.207 10.9795V12.667C167.008 13.9502 166.527 14.5918 165.766 14.5918V14.8291L166.003 17.2373H166.724L168.411 17.4746V18.916C168.411 19.5605 166.645 19.8828 163.111 19.8828H161.916C161.436 19.7246 161.195 19.2441 161.195 18.4414V18.1953C161.195 17.8262 161.995 17.5068 163.595 17.2373C163.595 15.3096 162.953 14.3457 161.67 14.3457C160.709 13.4141 160.229 12.5322 160.229 11.7002C160.229 11.46 160.39 10.7393 160.712 9.53809C159.979 9.22754 159.578 8.9082 159.508 8.58008V7.37598C160.668 6.89551 161.629 6.65527 162.391 6.65527V4.00977C162.654 3.36523 163.217 3.04297 164.078 3.04297ZM172.735 7.37598H173.219C173.541 8.34277 173.781 9.78418 173.939 11.7002H176.348C177.209 11.7002 177.689 12.1016 177.789 12.9043C177.467 13.4258 177.306 13.8271 177.306 14.1084H173.939V14.3457C173.939 15.0137 174.019 15.8984 174.177 17C174.177 18.1191 173.696 18.6787 172.735 18.6787C171.903 18.6787 171.423 17.1553 171.294 14.1084H171.531L171.294 13.625V11.9463C171.294 11.0615 171.215 9.93945 171.057 8.58008C171.279 7.77734 171.839 7.37598 172.735 7.37598ZM162.874 10.2588V11.7002C162.874 11.9346 163.114 12.1777 163.595 12.4297H164.562L165.036 12.1836C165.036 11.1406 164.556 10.4199 163.595 10.0215C163.284 10.1797 163.044 10.2588 162.874 10.2588Z" fill="#222222"/>
</svg>
