<svg width="163" height="25" viewBox="0 0 163 25" fill="none" xmlns="http://www.w3.org/2000/svg">
<path d="M8.51562 0.859375C10.1198 0.859375 10.9219 1.52604 10.9219 2.85938C10.9219 4.65104 10.2552 5.97917 8.92188 6.84375H8.51562V6.45312C9.04688 5.92188 9.3125 4.45833 9.3125 2.0625L8.51562 1.65625L6.125 2.45312V2.0625C6.39583 1.26042 7.19271 0.859375 8.51562 0.859375ZM1.73438 1.65625H2.9375C4.96875 1.65625 6.16667 2.1875 6.53125 3.25C6.53125 4.65625 5.72917 5.98958 4.125 7.25H3.73438V6.84375L5.32812 4.0625V2.85938L2.53125 2.45312C2.0625 2.72396 1.53125 2.85938 0.9375 2.85938V2.45312C1.02083 1.92188 1.28646 1.65625 1.73438 1.65625ZM6.125 8.84375H13.7031L15.7031 9.25L15.3125 10.0469L13.3125 9.64062H11.7188C11.3333 9.64062 10.9323 10.0417 10.5156 10.8438V13.6406C12.224 13.6406 13.1562 14.0365 13.3125 14.8281C10.8854 17.7552 8.89062 19.2188 7.32812 19.2188V20.0156C7.32812 20.224 7.72396 20.625 8.51562 21.2188L10.5156 20.8125H13.3125C13.1458 21.6146 12.0833 22.0156 10.125 22.0156H7.71875C7.30208 22.0156 6.77083 21.4844 6.125 20.4219C6.125 18.9115 7.58854 17.7135 10.5156 16.8281L11.7188 15.2344V14.8281C11.1875 14.8281 10.9219 14.6979 10.9219 14.4375L10.125 14.8281H9.3125C8.71875 14.8281 8.1875 14.6979 7.71875 14.4375C7.26042 14.6979 6.72917 14.8281 6.125 14.8281V14.4375C6.20833 13.9062 6.47396 13.6406 6.92188 13.6406H9.71875L9.3125 11.6406V10.8438L9.71875 10.0469H3.32812L1.34375 10.4375V9.25L6.125 8.84375ZM32.5781 3.65625H32.9688L33.375 6.45312C33.375 8.22396 33.1094 11.151 32.5781 15.2344H31.7812V10.4375H29.7812C29.25 10.4375 28.9844 10.1719 28.9844 9.64062V9.25L31.7812 9.64062V9.25L32.1719 5.65625C31.9115 5.1875 31.7812 4.65625 31.7812 4.0625L32.5781 3.65625ZM26.9844 4.0625H28.1875C28.4479 6.45833 28.7135 7.65625 28.9844 7.65625C28.7135 10.8438 28.4479 12.4375 28.1875 12.4375C28.4479 12.9583 28.5781 13.3594 28.5781 13.6406C28.3177 14.151 28.1875 14.5469 28.1875 14.8281H27.3906V6.04688L26.9844 4.0625ZM19.7969 5.25H20.5938C22.4583 5.25 23.3906 5.91667 23.3906 7.25C23.3906 7.51042 22.724 8.44271 21.3906 10.0469L25.7812 11.6406V12.4375C25.1979 12.4375 23.3385 11.9062 20.2031 10.8438C20.2031 11.1979 19.5365 11.8646 18.2031 12.8438H17.4062C17.4062 12.4896 19.0052 10.625 22.2031 7.25V6.85938L20.2031 6.45312H17.8125V5.65625L19.7969 5.25ZM30.9688 16.4375L31.375 17.2344V20.0156C31.375 21.349 31.1094 22.0156 30.5781 22.0156C30.0469 22.0156 29.7812 21.8854 29.7812 21.625L26.9844 22.0156H24.1875V21.625C24.1875 21.4167 24.5885 21.0156 25.3906 20.4219L24.9844 17.625L26.1875 16.8281H26.5938V17.625C28.0729 16.8333 29.5312 16.4375 30.9688 16.4375ZM27.3906 18.4219V18.0312C26.5885 18.2917 26.1875 18.5573 26.1875 18.8281L26.5938 20.8281H30.1719V19.625L30.5781 17.625C28.8802 18.1562 27.8177 18.4219 27.3906 18.4219ZM43.8438 2.85938H44.2344C44.7656 2.94271 45.0312 3.20833 45.0312 3.65625V4.85938C45.0312 6.93229 44.6354 8.92708 43.8438 10.8438L39.8438 11.25C39.25 10.6458 38.8542 8.91667 38.6562 6.0625L39.0469 5.26562C38.7865 4.74479 38.6562 4.34375 38.6562 4.0625H39.4531L39.8438 6.45312L43.8438 6.0625V2.85938ZM39.8438 7.65625C40.1146 8.05208 40.25 8.84896 40.25 10.0469H42.25L43.8438 8.45312C43.5729 7.93229 43.4375 7.53125 43.4375 7.25C42 7.52083 40.8021 7.65625 39.8438 7.65625ZM41.8438 12.8438V18.4219H46.625L49.4219 18.8281V19.2188L49.0312 20.0156C47.5625 19.7552 46.4948 19.625 45.8281 19.625L42.25 20.0156L41.4531 19.625C41.1823 19.625 41.0469 19.7552 41.0469 20.0156L35.0625 19.2188V18.0312L37.0625 18.4219H39.8438C40.375 18.4219 40.776 16.6927 41.0469 13.2344L41.8438 12.8438ZM64.6875 1.26562C64.9583 5.52604 65.2292 7.78646 65.5 8.04688C65.5 8.31771 65.3646 8.45312 65.0938 8.45312L65.5 11.2344V14.4375H64.2969V14.0312C64.2969 11.3854 64.0312 7.39583 63.5 2.0625L64.6875 1.26562ZM57.1094 3.65625C58.7031 3.92708 59.5 4.32812 59.5 4.85938V5.25C59.5 6.21875 58.9688 7.28646 57.9062 8.45312V8.84375C59.9479 9.90625 61.1458 10.4375 61.5 10.4375V11.2344H61.1094C59.974 11.2344 58.6406 10.5729 57.1094 9.25C54.4323 11.375 52.5729 12.4375 51.5312 12.4375H51.125C55.9167 9.10417 58.3125 6.57812 58.3125 4.85938H53.125V4.0625L57.1094 3.65625ZM66.6875 7.25H67.8906L69.8906 7.65625V8.84375L67.8906 8.45312H65.8906V8.04688C65.974 7.51562 66.2396 7.25 66.6875 7.25ZM60.7031 16.4375H62.7031C63.4323 16.4375 63.9635 17.7656 64.2969 20.4219V20.8281C64.2969 21.0781 63.5 21.6094 61.9062 22.4219C59.2396 22.224 57.9062 21.2917 57.9062 19.625C58.375 18.4271 59.3073 17.3646 60.7031 16.4375ZM59.1094 19.625C59.5052 20.6875 59.9062 21.2188 60.3125 21.2188H61.1094C62.4844 21.2188 63.2812 20.8177 63.5 20.0156C62.9583 18.4219 62.4271 17.625 61.9062 17.625H61.1094C60.7448 17.625 60.0781 18.2917 59.1094 19.625ZM75.1875 1.67188C76.25 1.93229 76.7812 2.72917 76.7812 4.0625V7.25C75.4688 12.5729 74.2708 15.2344 73.1875 15.2344H72.7969V14.4375C74.8906 10.5833 75.9531 7.65625 75.9844 5.65625C75.9844 3.69792 75.5833 2.63542 74.7812 2.46875C73.1875 3.46875 72.3906 4.66667 72.3906 6.0625L73.1875 12.8438L72.3906 13.2344C71.8594 11.2344 71.5938 9.375 71.5938 7.65625V7.25C71.5938 3.53125 72.7917 1.67188 75.1875 1.67188ZM73.9844 19.625L75.1875 21.2188V21.6094C75.1875 23.2135 74.3906 24.0156 72.7969 24.0156C72.276 23.7448 71.875 23.6094 71.5938 23.6094V22.0156C71.5938 20.4219 72.3906 19.625 73.9844 19.625ZM72.7969 20.8125L72.3906 22.8125C72.6615 22.8125 72.7969 22.9479 72.7969 23.2188C73.8594 22.8125 74.3906 22.4115 74.3906 22.0156V21.6094C74.3906 21.0781 74.125 20.8125 73.5938 20.8125H72.7969ZM96.5312 1.67188H97.3281C97.8594 4.88021 98.125 7.40625 98.125 9.25H100.922V10.0469C98.7969 10.0469 97.7344 10.8438 97.7344 12.4375L97.3281 14.4375H96.5312L96.9375 10.4375H96.1406V9.64062H96.9375C96.6667 5.69271 96.5312 3.03646 96.5312 1.67188ZM87.7656 3.65625V4.0625C87.7656 4.59375 87.5 4.85938 86.9688 4.85938C87.7604 7.74479 88.1562 9.47396 88.1562 10.0469H88.9531C90.8177 10.0469 91.75 8.45312 91.75 5.26562L88.9531 5.65625H87.7656V4.85938L89.75 4.46875H92.5469L92.9531 6.0625C92.9531 9.52083 91.6198 11.25 88.9531 11.25H87.3594C86.8281 9.41667 86.5625 7.15625 86.5625 4.46875L87.7656 3.65625ZM91.75 14.0312C91.75 16.9583 93.2135 18.4219 96.1406 18.4219H96.5312L98.5312 18.0312V18.8281L95.7344 19.625C92.5469 19.2604 90.9531 17.9271 90.9531 15.625V14.8281C91.0365 14.2969 91.3021 14.0312 91.75 14.0312ZM105.016 2.03125C106.089 3.89583 107.156 4.82812 108.219 4.82812C109.812 4.82812 110.609 5.09375 110.609 5.625L103.422 6.42188H102.625V5.625C104.094 5.35417 105.161 5.21875 105.828 5.21875C105.286 4.34375 105.016 3.54688 105.016 2.82812V2.03125ZM114.609 4.82812H115.016V13.2188L114.609 14.0156C114.88 14.0156 115.016 14.1458 115.016 14.4062C115.984 13.875 117.047 13.6094 118.203 13.6094H119.812V14.4062C116.344 14.875 114.609 15.276 114.609 15.6094C114.349 17.974 114.219 19.4375 114.219 20H113.812L113.016 19.6094C113.547 15.974 113.812 11.1771 113.812 5.21875L114.609 4.82812ZM105.828 7.625H106.625C108.688 7.625 110.016 8.29167 110.609 9.625V10.4219C109.932 11.7552 108.87 12.4219 107.422 12.4219H107.016C105.641 12.4219 104.844 12.0208 104.625 11.2188V8.8125C104.625 8.4375 105.026 8.04167 105.828 7.625ZM105.422 9.21875V10.4219C105.505 10.9531 105.771 11.2188 106.219 11.2188H107.422L109.422 10.8125C109.422 9.66667 108.885 8.86979 107.812 8.42188V8.01562C106.219 8.36979 105.422 8.77083 105.422 9.21875ZM108.625 14.4062H109.016V14.8125L108.625 16.8125L109.422 17.2031H109.812L112.609 16.8125V17.2031C112.609 18.1198 109.682 18.6562 103.828 18.8125H103.422C103.422 18.1458 104.885 17.6094 107.812 17.2031V16.8125C107.552 16.3438 107.422 15.8125 107.422 15.2188L108.625 14.4062ZM142.766 3.64062L143.172 7.625V10.4219C143.172 10.6927 143.036 10.8281 142.766 10.8281L143.172 11.625L142.766 14.0156L144.766 13.6094H148.359C148.099 14.4115 147.302 14.8125 145.969 14.8125H142.766L142.375 16.8125V20.8125H141.578L141.172 19.2031C141.443 8.82812 141.974 3.64062 142.766 3.64062ZM133.594 6.42188L135.188 6.82812C136.646 6.55729 137.708 6.42188 138.375 6.42188V6.82812C138.375 7.35938 137.844 7.625 136.781 7.625L137.188 8.42188V10.0156L136.781 14.0156L137.578 13.6094H138.781C138.781 14.6823 136.385 15.4844 131.594 16.0156L129.594 15.6094V14.4219H130.797L132.781 14.8125C132.781 14.2292 132.516 12.2344 131.984 8.82812C132.255 8.82812 132.391 8.69271 132.391 8.42188H129.594V8.03125C129.677 7.5 129.943 7.23438 130.391 7.23438C130.661 7.23438 130.797 7.36458 130.797 7.625C132.661 7.17708 133.594 6.77604 133.594 6.42188ZM133.188 8.03125C133.458 10.6875 133.594 12.6823 133.594 14.0156C133.323 14.0156 133.188 14.151 133.188 14.4219H134.781C135.583 14.4219 135.984 12.9531 135.984 10.0156V8.03125H133.188ZM162.438 3.23438C162.438 3.51562 162.307 3.91667 162.047 4.4375C162.37 10.9062 162.635 14.3646 162.844 14.8125L162.438 17.2188V20L160.844 18.8125C160.844 18.6146 160.979 17.8125 161.25 16.4062C160.979 10.5625 160.844 6.70312 160.844 4.82812C161.031 4.03646 161.562 3.50521 162.438 3.23438ZM150.859 5.625L154.859 6.03125H158.047V6.82812L155.25 7.23438H154.062L151.266 6.82812C151.62 8.69271 152.016 9.625 152.453 9.625H157.656V10.0156C157.656 10.5573 157.391 10.8281 156.859 10.8281H152.062V11.625C152.76 12.9479 154.625 13.6094 157.656 13.6094C157.656 13.349 157.786 13.2188 158.047 13.2188V14.4219C157.255 14.4219 156.859 14.5521 156.859 14.8125C152.599 14.8125 150.469 12.9479 150.469 9.21875V7.625H150.859L150.062 6.03125C150.594 6.03125 150.859 5.89583 150.859 5.625Z" fill="#222222"/>
<path d="M8.92188 6.84375V7.09375H8.99584L9.05789 7.05351L8.92188 6.84375ZM8.51562 6.84375H8.26562V7.09375H8.51562V6.84375ZM8.51562 6.45312L8.33885 6.27635L8.26562 6.34957V6.45312H8.51562ZM9.3125 2.0625H9.5625V1.90934L9.42605 1.83977L9.3125 2.0625ZM8.51562 1.65625L8.62917 1.43352L8.53589 1.38597L8.43657 1.41908L8.51562 1.65625ZM6.125 2.45312H5.875V2.79998L6.20406 2.6903L6.125 2.45312ZM6.125 2.0625L5.88814 1.98252L5.875 2.02143V2.0625H6.125ZM6.53125 3.25H6.78125V3.2083L6.76772 3.16886L6.53125 3.25ZM4.125 7.25V7.5H4.21147L4.27946 7.44658L4.125 7.25ZM3.73438 7.25H3.48438V7.5H3.73438V7.25ZM3.73438 6.84375L3.51746 6.71945L3.48438 6.7772V6.84375H3.73438ZM5.32812 4.0625L5.54504 4.1868L5.57812 4.12905V4.0625H5.32812ZM5.32812 2.85938H5.57812V2.64306L5.36406 2.61197L5.32812 2.85938ZM2.53125 2.45312L2.56719 2.20572L2.48131 2.19325L2.40618 2.23666L2.53125 2.45312ZM0.9375 2.85938H0.6875V3.10938H0.9375V2.85938ZM0.9375 2.45312L0.69052 2.41438L0.6875 2.43364V2.45312H0.9375ZM6.125 8.84375V8.59375H6.1144L6.10383 8.59465L6.125 8.84375ZM13.7031 8.84375L13.7529 8.59875L13.7283 8.59375H13.7031V8.84375ZM15.7031 9.25L15.9276 9.36004L16.0701 9.06943L15.7529 9.005L15.7031 9.25ZM15.3125 10.0469L15.2627 10.2919L15.452 10.3303L15.537 10.1569L15.3125 10.0469ZM13.3125 9.64062L13.3623 9.39563L13.3376 9.39062H13.3125V9.64062ZM10.5156 10.8438L10.2938 10.7285L10.2656 10.7827V10.8438H10.5156ZM10.5156 13.6406H10.2656V13.8906H10.5156V13.6406ZM13.3125 14.8281L13.5049 14.9877L13.5808 14.8963L13.5578 14.7797L13.3125 14.8281ZM7.32812 19.2188V18.9688H7.07812V19.2188H7.32812ZM8.51562 21.2188L8.36563 21.4188L8.45541 21.4861L8.56539 21.4637L8.51562 21.2188ZM10.5156 20.8125V20.5625H10.4905L10.4659 20.5675L10.5156 20.8125ZM13.3125 20.8125L13.5573 20.8634L13.6198 20.5625H13.3125V20.8125ZM6.125 20.4219H5.875V20.4919L5.91137 20.5517L6.125 20.4219ZM10.5156 16.8281L10.588 17.0674L10.666 17.0438L10.7152 16.9788L10.5156 16.8281ZM11.7188 15.2344L11.9183 15.385L11.9688 15.3181V15.2344H11.7188ZM11.7188 14.8281H11.9688V14.5781H11.7188V14.8281ZM10.9219 14.4375H11.1719V14.0365L10.8118 14.213L10.9219 14.4375ZM10.125 14.8281V15.0781H10.183L10.235 15.0526L10.125 14.8281ZM7.71875 14.4375L7.84016 14.219L7.71737 14.1507L7.59525 14.2201L7.71875 14.4375ZM6.125 14.8281H5.875V15.0781H6.125V14.8281ZM6.125 14.4375L5.87802 14.3988L5.875 14.418V14.4375H6.125ZM9.71875 13.6406V13.8906H10.0246L9.96375 13.5909L9.71875 13.6406ZM9.3125 11.6406H9.0625V11.6658L9.0675 11.6904L9.3125 11.6406ZM9.3125 10.8438L9.08977 10.7302L9.0625 10.7837V10.8438H9.3125ZM9.71875 10.0469L9.94148 10.1604L10.1268 9.79688H9.71875V10.0469ZM3.32812 10.0469V9.79688H3.30375L3.27984 9.80158L3.32812 10.0469ZM1.34375 10.4375H1.09375V10.7415L1.39204 10.6828L1.34375 10.4375ZM1.34375 9.25L1.32258 9.0009L1.09375 9.02034V9.25H1.34375ZM8.51562 1.10938C9.28927 1.10938 9.82298 1.27109 10.1605 1.55163C10.4892 1.82482 10.6719 2.24466 10.6719 2.85938H11.1719C11.1719 2.14076 10.9535 1.56059 10.4801 1.16712C10.0156 0.780997 9.34615 0.609375 8.51562 0.609375V1.10938ZM10.6719 2.85938C10.6719 4.57904 10.0381 5.82201 8.78586 6.63399L9.05789 7.05351C10.4724 6.13632 11.1719 4.72304 11.1719 2.85938H10.6719ZM8.92188 6.59375H8.51562V7.09375H8.92188V6.59375ZM8.76562 6.84375V6.45312H8.26562V6.84375H8.76562ZM8.6924 6.6299C9.01511 6.30719 9.22479 5.74262 9.35926 5.00168C9.49586 4.24905 9.5625 3.26752 9.5625 2.0625H9.0625C9.0625 3.25331 8.99633 4.20147 8.8673 4.91239C8.73615 5.63499 8.54739 6.06781 8.33885 6.27635L8.6924 6.6299ZM9.42605 1.83977L8.62917 1.43352L8.40208 1.87898L9.19895 2.28523L9.42605 1.83977ZM8.43657 1.41908L6.04594 2.21595L6.20406 2.6903L8.59468 1.89342L8.43657 1.41908ZM6.375 2.45312V2.0625H5.875V2.45312H6.375ZM6.36186 2.14248C6.58018 1.49593 7.22911 1.10938 8.51562 1.10938V0.609375C7.15631 0.609375 6.21149 1.02491 5.88814 1.98252L6.36186 2.14248ZM1.73438 1.90625H2.9375V1.40625H1.73438V1.90625ZM2.9375 1.90625C4.95616 1.90625 5.98782 2.43655 6.29478 3.33114L6.76772 3.16886C6.34552 1.93845 4.98134 1.40625 2.9375 1.40625V1.90625ZM6.28125 3.25C6.28125 4.54956 5.54272 5.81814 3.97054 7.05342L4.27946 7.44658C5.91562 6.16103 6.78125 4.76294 6.78125 3.25H6.28125ZM4.125 7H3.73438V7.5H4.125V7ZM3.98438 7.25V6.84375H3.48438V7.25H3.98438ZM3.95129 6.96805L5.54504 4.1868L5.11121 3.9382L3.51746 6.71945L3.95129 6.96805ZM5.57812 4.0625V2.85938H5.07812V4.0625H5.57812ZM5.36406 2.61197L2.56719 2.20572L2.49531 2.70053L5.29219 3.10678L5.36406 2.61197ZM2.40618 2.23666C1.97906 2.48344 1.49171 2.60938 0.9375 2.60938V3.10938C1.57079 3.10938 2.14594 2.96448 2.65632 2.66959L2.40618 2.23666ZM1.1875 2.85938V2.45312H0.6875V2.85938H1.1875ZM1.18448 2.49187C1.22136 2.25676 1.29364 2.1146 1.376 2.03225C1.45306 1.95518 1.56304 1.90625 1.73438 1.90625V1.40625C1.45779 1.40625 1.211 1.49014 1.02244 1.67869C0.839171 1.86196 0.736975 2.11824 0.69052 2.41438L1.18448 2.49187ZM6.125 9.09375H13.7031V8.59375H6.125V9.09375ZM13.6534 9.08875L15.6534 9.495L15.7529 9.005L13.7529 8.59875L13.6534 9.08875ZM15.4786 9.13996L15.088 9.93684L15.537 10.1569L15.9276 9.36004L15.4786 9.13996ZM15.3623 9.80188L13.3623 9.39563L13.2627 9.88562L15.2627 10.2919L15.3623 9.80188ZM13.3125 9.39062H11.7188V9.89062H13.3125V9.39062ZM11.7188 9.39062C11.434 9.39062 11.1775 9.53924 10.9521 9.76463C10.7261 9.99069 10.5078 10.3165 10.2938 10.7285L10.7375 10.959C10.9401 10.5689 11.1307 10.2932 11.3057 10.1182C11.4813 9.94253 11.6181 9.89062 11.7188 9.89062V9.39062ZM10.2656 10.8438V13.6406H10.7656V10.8438H10.2656ZM10.5156 13.8906C11.3561 13.8906 11.9773 13.9888 12.3984 14.1676C12.8102 14.3425 13.0093 14.5829 13.0672 14.8765L13.5578 14.7797C13.4595 14.2817 13.1142 13.9284 12.5938 13.7074C12.0826 13.4903 11.3834 13.3906 10.5156 13.3906V13.8906ZM13.1201 14.6686C11.9134 16.1238 10.8228 17.2045 9.84821 17.9195C8.87049 18.6369 8.03323 18.9688 7.32812 18.9688V19.4688C8.18552 19.4688 9.12691 19.0689 10.144 18.3227C11.1642 17.5741 12.2845 16.4595 13.5049 14.9877L13.1201 14.6686ZM7.07812 19.2188V20.0156H7.57812V19.2188H7.07812ZM7.07812 20.0156C7.07812 20.1401 7.1341 20.254 7.19269 20.3442C7.25496 20.4401 7.34196 20.5418 7.44707 20.6483C7.65781 20.8618 7.96609 21.1191 8.36563 21.4188L8.66562 21.0187C8.27349 20.7246 7.98802 20.4846 7.80293 20.297C7.71012 20.203 7.64868 20.1283 7.612 20.0718C7.57163 20.0097 7.57812 19.9953 7.57812 20.0156H7.07812ZM8.56539 21.4637L10.5654 21.0575L10.4659 20.5675L8.46586 20.9738L8.56539 21.4637ZM10.5156 21.0625H13.3125V20.5625H10.5156V21.0625ZM13.0677 20.7616C13.0081 21.0486 12.7876 21.2978 12.3023 21.481C11.8126 21.6658 11.0926 21.7656 10.125 21.7656V22.2656C11.1157 22.2656 11.9061 22.1649 12.4789 21.9487C13.0561 21.7309 13.4502 21.3785 13.5573 20.8634L13.0677 20.7616ZM10.125 21.7656H7.71875V22.2656H10.125V21.7656ZM7.71875 21.7656C7.61317 21.7656 7.43769 21.6935 7.18459 21.4404C6.93925 21.1951 6.65699 20.8158 6.33863 20.292L5.91137 20.5517C6.23885 21.0905 6.54513 21.5081 6.83104 21.794C7.10919 22.0721 7.40766 22.2656 7.71875 22.2656V21.7656ZM6.375 20.4219C6.375 19.7601 6.69128 19.1486 7.381 18.5841C8.07655 18.0148 9.13884 17.5058 10.588 17.0674L10.4432 16.5888C8.96533 17.0359 7.8323 17.5686 7.06431 18.1972C6.29049 18.8305 5.875 19.5733 5.875 20.4219H6.375ZM10.7152 16.9788L11.9183 15.385L11.5192 15.0837L10.3161 16.6775L10.7152 16.9788ZM11.9688 15.2344V14.8281H11.4688V15.2344H11.9688ZM11.7188 14.5781C11.4655 14.5781 11.3123 14.5458 11.2311 14.506C11.194 14.4878 11.1818 14.4728 11.1784 14.4678C11.1763 14.4647 11.1719 14.4578 11.1719 14.4375H10.6719C10.6719 14.5474 10.7007 14.6545 10.7649 14.749C10.828 14.8417 10.9154 14.9081 11.0111 14.9549C11.1955 15.0454 11.4407 15.0781 11.7188 15.0781V14.5781ZM10.8118 14.213L10.015 14.6036L10.235 15.0526L11.0319 14.662L10.8118 14.213ZM10.125 14.5781H9.3125V15.0781H10.125V14.5781ZM9.3125 14.5781C8.75658 14.5781 8.2679 14.4566 7.84016 14.219L7.59734 14.656C8.1071 14.9392 8.68092 15.0781 9.3125 15.0781V14.5781ZM7.59525 14.2201C7.17977 14.4562 6.69228 14.5781 6.125 14.5781V15.0781C6.76605 15.0781 7.34106 14.9396 7.84225 14.6549L7.59525 14.2201ZM6.375 14.8281V14.4375H5.875V14.8281H6.375ZM6.37198 14.4762C6.40886 14.2411 6.48114 14.099 6.5635 14.0166C6.64056 13.9396 6.75054 13.8906 6.92188 13.8906V13.3906C6.64529 13.3906 6.3985 13.4745 6.20994 13.6631C6.02667 13.8463 5.92447 14.1026 5.87802 14.3988L6.37198 14.4762ZM6.92188 13.8906H9.71875V13.3906H6.92188V13.8906ZM9.96375 13.5909L9.5575 11.5909L9.0675 11.6904L9.47375 13.6904L9.96375 13.5909ZM9.5625 11.6406V10.8438H9.0625V11.6406H9.5625ZM9.53523 10.9573L9.94148 10.1604L9.49602 9.93333L9.08977 10.7302L9.53523 10.9573ZM9.71875 9.79688H3.32812V10.2969H9.71875V9.79688ZM3.27984 9.80158L1.29546 10.1922L1.39204 10.6828L3.37641 10.2922L3.27984 9.80158ZM1.59375 10.4375V9.25H1.09375V10.4375H1.59375ZM1.36492 9.4991L6.14617 9.09285L6.10383 8.59465L1.32258 9.0009L1.36492 9.4991ZM32.5781 3.65625V3.40625H32.5181L32.4646 3.43352L32.5781 3.65625ZM32.9688 3.65625L33.2162 3.62031L33.1851 3.40625H32.9688V3.65625ZM33.375 6.45312H33.625V6.43506L33.6224 6.41719L33.375 6.45312ZM32.5781 15.2344V15.4844H32.7977L32.826 15.2666L32.5781 15.2344ZM31.7812 15.2344H31.5312V15.4844H31.7812V15.2344ZM31.7812 10.4375H32.0312V10.1875H31.7812V10.4375ZM28.9844 9.25L29.019 9.0024L28.7344 8.96266V9.25H28.9844ZM31.7812 9.64062L31.7467 9.88822L32.0312 9.92797V9.64062H31.7812ZM31.7812 9.25L31.5327 9.22299L31.5312 9.23645V9.25H31.7812ZM32.1719 5.65625L32.4204 5.68326L32.429 5.60429L32.3904 5.53484L32.1719 5.65625ZM31.7812 4.0625L31.6677 3.83977L31.5312 3.90934V4.0625H31.7812ZM26.9844 4.0625V3.8125H26.678L26.7395 4.11264L26.9844 4.0625ZM28.1875 4.0625L28.436 4.03549L28.4118 3.8125H28.1875V4.0625ZM28.9844 7.65625L29.2335 7.67742L29.2565 7.40625H28.9844V7.65625ZM28.1875 12.4375V12.1875H27.783L27.9639 12.5493L28.1875 12.4375ZM28.5781 13.6406L28.8008 13.7542L28.8281 13.7007V13.6406H28.5781ZM28.1875 14.8281V15.0781H28.4375V14.8281H28.1875ZM27.3906 14.8281H27.1406V15.0781H27.3906V14.8281ZM27.3906 6.04688H27.6406V6.02155L27.6355 5.99673L27.3906 6.04688ZM19.7969 5.25V5H19.7715L19.7467 5.00508L19.7969 5.25ZM21.3906 10.0469L21.1984 9.88707L20.9711 10.1605L21.3053 10.2819L21.3906 10.0469ZM25.7812 11.6406H26.0312V11.4654L25.8666 11.4056L25.7812 11.6406ZM25.7812 12.4375V12.6875H26.0312V12.4375H25.7812ZM20.2031 10.8438L20.2834 10.607L19.9531 10.4951V10.8438H20.2031ZM18.2031 12.8438V13.0938H18.2851L18.3511 13.0453L18.2031 12.8438ZM17.4062 12.8438H17.1562V13.0938H17.4062V12.8438ZM22.2031 7.25L22.3846 7.42195L22.4531 7.34963V7.25H22.2031ZM22.2031 6.85938H22.4531V6.65505L22.2529 6.61438L22.2031 6.85938ZM20.2031 6.45312L20.2529 6.20813L20.2283 6.20312H20.2031V6.45312ZM17.8125 6.45312H17.5625V6.70312H17.8125V6.45312ZM17.8125 5.65625L17.7624 5.41133L17.5625 5.45225V5.65625H17.8125ZM30.9688 16.4375L31.1915 16.324L31.1219 16.1875H30.9688V16.4375ZM31.375 17.2344H31.625V17.1743L31.5977 17.1208L31.375 17.2344ZM29.7812 21.625H30.0312V21.3377L29.7467 21.3774L29.7812 21.625ZM26.9844 22.0156V22.2656H27.0017L27.019 22.2632L26.9844 22.0156ZM24.1875 22.0156H23.9375V22.2656H24.1875V22.0156ZM25.3906 20.4219L25.5394 20.6228L25.6595 20.5339L25.638 20.3859L25.3906 20.4219ZM24.9844 17.625L24.8463 17.4166L24.7142 17.5041L24.737 17.6609L24.9844 17.625ZM26.1875 16.8281V16.5781H26.1122L26.0494 16.6197L26.1875 16.8281ZM26.5938 16.8281H26.8438V16.5781H26.5938V16.8281ZM26.5938 17.625H26.3438V18.0424L26.7117 17.8454L26.5938 17.625ZM27.3906 18.4219H27.1406V18.6719H27.3906V18.4219ZM27.3906 18.0312H27.6406V17.6872L27.3134 17.7935L27.3906 18.0312ZM26.1875 18.8281H25.9375V18.8533L25.9425 18.8779L26.1875 18.8281ZM26.5938 20.8281L26.3488 20.8779L26.3894 21.0781H26.5938V20.8281ZM30.1719 20.8281V21.0781H30.4219V20.8281H30.1719ZM30.1719 19.625L29.9269 19.5752L29.9219 19.5999V19.625H30.1719ZM30.5781 17.625L30.8231 17.6748L30.9074 17.26L30.5035 17.3864L30.5781 17.625ZM32.5781 3.90625H32.9688V3.40625H32.5781V3.90625ZM32.7213 3.69219L33.1276 6.48906L33.6224 6.41719L33.2162 3.62031L32.7213 3.69219ZM33.125 6.45312C33.125 8.20627 32.8614 11.1192 32.3302 15.2021L32.826 15.2666C33.3573 11.1829 33.625 8.24165 33.625 6.45312H33.125ZM32.5781 14.9844H31.7812V15.4844H32.5781V14.9844ZM32.0312 15.2344V10.4375H31.5312V15.2344H32.0312ZM31.7812 10.1875H29.7812V10.6875H31.7812V10.1875ZM29.7812 10.1875C29.5542 10.1875 29.4298 10.1309 29.3604 10.0615C29.291 9.99211 29.2344 9.86771 29.2344 9.64062H28.7344C28.7344 9.94479 28.8106 10.2188 29.0068 10.4151C29.203 10.6113 29.4771 10.6875 29.7812 10.6875V10.1875ZM29.2344 9.64062V9.25H28.7344V9.64062H29.2344ZM28.9498 9.4976L31.7467 9.88822L31.8158 9.39303L29.019 9.0024L28.9498 9.4976ZM32.0312 9.64062V9.25H31.5312V9.64062H32.0312ZM32.0298 9.27701L32.4204 5.68326L31.9233 5.62924L31.5327 9.22299L32.0298 9.27701ZM32.3904 5.53484C32.1528 5.1071 32.0312 4.61842 32.0312 4.0625H31.5312C31.5312 4.69408 31.6701 5.2679 31.9533 5.77766L32.3904 5.53484ZM31.8948 4.28523L32.6917 3.87898L32.4646 3.43352L31.6677 3.83977L31.8948 4.28523ZM26.9844 4.3125H28.1875V3.8125H26.9844V4.3125ZM27.939 4.08951C28.0694 5.28964 28.2021 6.19914 28.338 6.81193C28.4055 7.11632 28.4765 7.36064 28.5541 7.53382C28.5924 7.6195 28.6387 7.70226 28.6972 7.76734C28.755 7.83155 28.851 7.90625 28.9844 7.90625V7.40625C29.05 7.40625 29.0785 7.44351 29.0689 7.43286C29.0601 7.42307 29.0391 7.39352 29.0104 7.32946C28.9538 7.20316 28.8914 6.99827 28.8261 6.70369C28.6964 6.11856 28.566 5.2312 28.436 4.03549L27.939 4.08951ZM28.7353 7.63508C28.6 9.22728 28.4665 10.4145 28.3354 11.2011C28.2696 11.5962 28.206 11.8798 28.1464 12.0603C28.116 12.1523 28.0914 12.2028 28.0764 12.2255C28.0527 12.2617 28.0853 12.1875 28.1875 12.1875V12.6875C28.3548 12.6875 28.4527 12.5635 28.4944 12.5C28.5449 12.4231 28.5858 12.3242 28.6212 12.217C28.6931 11.9991 28.7617 11.6851 28.8286 11.2833C28.9632 10.4762 29.0979 9.27272 29.2335 7.67742L28.7353 7.63508ZM27.9639 12.5493C28.2217 13.0649 28.3281 13.4214 28.3281 13.6406H28.8281C28.8281 13.2974 28.6741 12.8517 28.4111 12.3257L27.9639 12.5493ZM28.3554 13.527C28.092 14.0434 27.9375 14.4841 27.9375 14.8281H28.4375C28.4375 14.6096 28.5434 14.2587 28.8008 13.7542L28.3554 13.527ZM28.1875 14.5781H27.3906V15.0781H28.1875V14.5781ZM27.6406 14.8281V6.04688H27.1406V14.8281H27.6406ZM27.6355 5.99673L27.2293 4.01236L26.7395 4.11264L27.1457 6.09702L27.6355 5.99673ZM19.7969 5.5H20.5938V5H19.7969V5.5ZM20.5938 5.5C21.5038 5.5 22.1414 5.66405 22.546 5.95336C22.9351 6.23161 23.1406 6.64893 23.1406 7.25H23.6406C23.6406 6.51773 23.38 5.93505 22.8368 5.54664C22.3091 5.16929 21.5483 5 20.5938 5V5.5ZM23.1406 7.25C23.1406 7.23639 23.1432 7.2452 23.1264 7.2885C23.1112 7.32747 23.0859 7.38051 23.0474 7.44931C22.9706 7.58674 22.8516 7.76927 22.6873 7.99911C22.3592 8.45788 21.8637 9.08654 21.1984 9.88707L21.5829 10.2067C22.2508 9.40304 22.7554 8.76347 23.094 8.28995C23.263 8.05365 23.394 7.85402 23.4838 7.69327C23.5287 7.61298 23.5659 7.53793 23.5924 7.4698C23.6172 7.40601 23.6406 7.32872 23.6406 7.25H23.1406ZM21.3053 10.2819L25.6959 11.8756L25.8666 11.4056L21.4759 9.81188L21.3053 10.2819ZM25.5312 11.6406V12.4375H26.0312V11.6406H25.5312ZM25.7812 12.1875C25.664 12.1875 25.4606 12.1595 25.1576 12.0936C24.8595 12.0288 24.48 11.9307 24.0179 11.7987C23.0939 11.5347 21.8495 11.1377 20.2834 10.607L20.1229 11.0805C21.6921 11.6123 22.9452 12.0122 23.8805 12.2794C24.3481 12.413 24.7388 12.5142 25.0514 12.5822C25.359 12.6491 25.6068 12.6875 25.7812 12.6875V12.1875ZM19.9531 10.8438C19.9531 10.86 19.9425 10.9184 19.8688 11.0313C19.7986 11.1388 19.6867 11.2723 19.5263 11.4326C19.2062 11.7527 18.718 12.1555 18.0551 12.6422L18.3511 13.0453C19.0216 12.5529 19.5334 12.1327 19.8799 11.7862C20.0529 11.6131 20.191 11.4523 20.2874 11.3047C20.3804 11.1623 20.4531 11.0046 20.4531 10.8438H19.9531ZM18.2031 12.5938H17.4062V13.0938H18.2031V12.5938ZM17.6562 12.8438C17.6562 12.8638 17.6517 12.8675 17.6596 12.846C17.6664 12.8274 17.6792 12.7992 17.7006 12.76C17.7435 12.6815 17.8117 12.5759 17.9089 12.4411C18.1026 12.1722 18.3971 11.8067 18.7952 11.3424C19.5906 10.4149 20.7865 9.10859 22.3846 7.42195L22.0217 7.07805C20.4219 8.76641 19.2193 10.0799 18.4157 11.0169C18.0144 11.485 17.7092 11.8629 17.5032 12.1488C17.4005 12.2913 17.3189 12.4158 17.2618 12.5203C17.2333 12.5725 17.2085 12.624 17.1904 12.6733C17.1733 12.7196 17.1562 12.7794 17.1562 12.8438H17.6562ZM22.4531 7.25V6.85938H21.9531V7.25H22.4531ZM22.2529 6.61438L20.2529 6.20813L20.1534 6.69812L22.1534 7.10437L22.2529 6.61438ZM20.2031 6.20312H17.8125V6.70312H20.2031V6.20312ZM18.0625 6.45312V5.65625H17.5625V6.45312H18.0625ZM17.8626 5.90117L19.847 5.49492L19.7467 5.00508L17.7624 5.41133L17.8626 5.90117ZM30.746 16.551L31.1523 17.3479L31.5977 17.1208L31.1915 16.324L30.746 16.551ZM31.125 17.2344V20.0156H31.625V17.2344H31.125ZM31.125 20.0156C31.125 20.673 31.0585 21.1346 30.9435 21.4231C30.8869 21.5652 30.8243 21.6504 30.7663 21.6989C30.7128 21.7437 30.6537 21.7656 30.5781 21.7656V22.2656C30.7681 22.2656 30.9415 22.2043 31.0872 22.0824C31.2284 21.9642 31.3318 21.7994 31.408 21.6082C31.5587 21.23 31.625 20.6915 31.625 20.0156H31.125ZM30.5781 21.7656C30.3249 21.7656 30.1717 21.7333 30.0905 21.6935C30.0534 21.6753 30.0412 21.6603 30.0378 21.6553C30.0356 21.6522 30.0312 21.6453 30.0312 21.625H29.5312C29.5312 21.7349 29.5601 21.842 29.6243 21.9365C29.6874 22.0292 29.7748 22.0956 29.8704 22.1424C30.0549 22.2329 30.3001 22.2656 30.5781 22.2656V21.7656ZM29.7467 21.3774L26.9498 21.768L27.019 22.2632L29.8158 21.8726L29.7467 21.3774ZM26.9844 21.7656H24.1875V22.2656H26.9844V21.7656ZM24.4375 22.0156V21.625H23.9375V22.0156H24.4375ZM24.4375 21.625C24.4375 21.6463 24.4305 21.6323 24.4715 21.5701C24.5087 21.5136 24.571 21.4388 24.6651 21.3447C24.8527 21.1571 25.142 20.917 25.5394 20.6228L25.2419 20.2209C24.8372 20.5205 24.5249 20.7778 24.3115 20.9912C24.2051 21.0976 24.117 21.1993 24.0539 21.2952C23.9946 21.3852 23.9375 21.4996 23.9375 21.625H24.4375ZM25.638 20.3859L25.2318 17.5891L24.737 17.6609L25.1432 20.4578L25.638 20.3859ZM25.1224 17.8334L26.3256 17.0366L26.0494 16.6197L24.8463 17.4166L25.1224 17.8334ZM26.1875 17.0781H26.5938V16.5781H26.1875V17.0781ZM26.3438 16.8281V17.625H26.8438V16.8281H26.3438ZM26.7117 17.8454C28.1607 17.0699 29.5788 16.6875 30.9688 16.6875V16.1875C29.4837 16.1875 27.9852 16.5968 26.4758 17.4046L26.7117 17.8454ZM27.6406 18.4219V18.0312H27.1406V18.4219H27.6406ZM27.3134 17.7935C26.9044 17.9263 26.5786 18.0661 26.3502 18.2174C26.1332 18.3611 25.9375 18.5605 25.9375 18.8281H26.4375C26.4375 18.8249 26.4424 18.7561 26.6263 18.6342C26.799 18.5199 27.0747 18.3967 27.4678 18.269L27.3134 17.7935ZM25.9425 18.8779L26.3488 20.8779L26.8387 20.7784L26.4325 18.7784L25.9425 18.8779ZM26.5938 21.0781H30.1719V20.5781H26.5938V21.0781ZM30.4219 20.8281V19.625H29.9219V20.8281H30.4219ZM30.4169 19.6748L30.8231 17.6748L30.3331 17.5752L29.9269 19.5752L30.4169 19.6748ZM30.5035 17.3864C29.6567 17.6514 28.9717 17.849 28.4472 17.9801C27.9143 18.1133 27.5696 18.1719 27.3906 18.1719V18.6719C27.6388 18.6719 28.0388 18.5976 28.5684 18.4652C29.1064 18.3307 29.8017 18.1299 30.6528 17.8636L30.5035 17.3864ZM43.8438 2.85938V2.60938H43.5938V2.85938H43.8438ZM44.2344 2.85938L44.2731 2.6124L44.2539 2.60938H44.2344V2.85938ZM43.8438 10.8438L43.869 11.0925L44.0177 11.0774L44.0748 10.9392L43.8438 10.8438ZM39.8438 11.25L39.6654 11.4252L39.7496 11.5108L39.869 11.4987L39.8438 11.25ZM38.6562 6.0625L38.4318 5.95246L38.4022 6.01278L38.4068 6.07979L38.6562 6.0625ZM39.0469 5.26562L39.2714 5.37566L39.3258 5.26453L39.2705 5.15382L39.0469 5.26562ZM38.6562 4.0625V3.8125H38.4062V4.0625H38.6562ZM39.4531 4.0625L39.6999 4.02218L39.6656 3.8125H39.4531V4.0625ZM39.8438 6.45312L39.597 6.49344L39.6348 6.72472L39.868 6.70194L39.8438 6.45312ZM43.8438 6.0625L43.868 6.31132L44.0938 6.28928V6.0625H43.8438ZM39.8438 7.65625V7.40625H39.3698L39.6374 7.79742L39.8438 7.65625ZM40.25 10.0469H40V10.2969H40.25V10.0469ZM42.25 10.0469V10.2969H42.3536L42.4268 10.2237L42.25 10.0469ZM43.8438 8.45312L44.0205 8.6299L44.1501 8.50034L44.0656 8.33779L43.8438 8.45312ZM43.4375 7.25H43.6875V6.9485L43.3912 7.00432L43.4375 7.25ZM41.8438 12.8438H42.0938V12.4428L41.7337 12.6193L41.8438 12.8438ZM41.8438 18.4219H41.5938V18.6719H41.8438V18.4219ZM46.625 18.4219L46.6609 18.1745L46.6431 18.1719H46.625V18.4219ZM49.4219 18.8281H49.6719V18.6118L49.4578 18.5807L49.4219 18.8281ZM49.4219 19.2188L49.6464 19.3288L49.6719 19.2767V19.2188H49.4219ZM49.0312 20.0156L48.9876 20.2618L49.1729 20.2946L49.2557 20.1257L49.0312 20.0156ZM45.8281 19.625V19.375H45.8145L45.801 19.3765L45.8281 19.625ZM42.25 20.0156L42.14 20.2401L42.2051 20.272L42.2771 20.2641L42.25 20.0156ZM41.4531 19.625L41.5632 19.4005L41.5111 19.375H41.4531V19.625ZM41.0469 20.0156L41.0139 20.2634L41.2969 20.3011V20.0156H41.0469ZM35.0625 19.2188H34.8125V19.4377L35.0295 19.4666L35.0625 19.2188ZM35.0625 18.0312L35.1104 17.7859L34.8125 17.7277V18.0312H35.0625ZM37.0625 18.4219L37.0146 18.6672L37.0383 18.6719H37.0625V18.4219ZM41.0469 13.2344L40.9368 13.0099L40.8088 13.0727L40.7976 13.2149L41.0469 13.2344ZM43.8438 3.10938H44.2344V2.60938H43.8438V3.10938ZM44.1956 3.10635C44.4307 3.14323 44.5729 3.21552 44.6553 3.29787C44.7323 3.37494 44.7812 3.48492 44.7812 3.65625H45.2812C45.2812 3.37967 45.1974 3.13287 45.0088 2.94432C44.8255 2.76105 44.5693 2.65885 44.2731 2.6124L44.1956 3.10635ZM44.7812 3.65625V4.85938H45.2812V3.65625H44.7812ZM44.7812 4.85938C44.7812 6.89953 44.3919 8.8619 43.6127 10.7483L44.0748 10.9392C44.879 8.99227 45.2812 6.96505 45.2812 4.85938H44.7812ZM43.8185 10.595L39.8185 11.0013L39.869 11.4987L43.869 11.0925L43.8185 10.595ZM40.0221 11.0748C39.7775 10.8259 39.5419 10.3033 39.3453 9.44421C39.1514 8.59756 39.0042 7.46615 38.9057 6.04521L38.4068 6.07979C38.5062 7.51301 38.6558 8.67327 38.8579 9.55579C39.057 10.4259 39.3162 11.0699 39.6654 11.4252L40.0221 11.0748ZM38.8807 6.17254L39.2714 5.37566L38.8224 5.15559L38.4318 5.95246L38.8807 6.17254ZM39.2705 5.15382C39.0127 4.6382 38.9062 4.28173 38.9062 4.0625H38.4062C38.4062 4.40577 38.5602 4.85138 38.8233 5.37743L39.2705 5.15382ZM38.6562 4.3125H39.4531V3.8125H38.6562V4.3125ZM39.2064 4.10282L39.597 6.49344L40.0905 6.41281L39.6999 4.02218L39.2064 4.10282ZM39.868 6.70194L43.868 6.31132L43.8195 5.81368L39.8195 6.20431L39.868 6.70194ZM44.0938 6.0625V2.85938H43.5938V6.0625H44.0938ZM39.6374 7.79742C39.743 7.9518 39.8367 8.20864 39.902 8.59266C39.9665 8.97239 40 9.45594 40 10.0469H40.5C40.5 9.43989 40.4658 8.92605 40.3949 8.5089C40.3247 8.09605 40.2153 7.75653 40.0501 7.51508L39.6374 7.79742ZM40.25 10.2969H42.25V9.79688H40.25V10.2969ZM42.4268 10.2237L44.0205 8.6299L43.667 8.27635L42.0732 9.8701L42.4268 10.2237ZM44.0656 8.33779C43.7973 7.82187 43.6875 7.46684 43.6875 7.25H43.1875C43.1875 7.59566 43.3486 8.04271 43.6219 8.56846L44.0656 8.33779ZM43.3912 7.00432C41.9619 7.27361 40.7807 7.40625 39.8438 7.40625V7.90625C40.8234 7.90625 42.0381 7.76805 43.4838 7.49568L43.3912 7.00432ZM41.5938 12.8438V18.4219H42.0938V12.8438H41.5938ZM41.8438 18.6719H46.625V18.1719H41.8438V18.6719ZM46.5891 18.6693L49.3859 19.0755L49.4578 18.5807L46.6609 18.1745L46.5891 18.6693ZM49.1719 18.8281V19.2188H49.6719V18.8281H49.1719ZM49.1974 19.1087L48.8068 19.9056L49.2557 20.1257L49.6464 19.3288L49.1974 19.1087ZM49.0749 19.7695C47.6049 19.5088 46.5185 19.375 45.8281 19.375V19.875C46.4711 19.875 47.5201 20.0016 48.9876 20.2618L49.0749 19.7695ZM45.801 19.3765L42.2229 19.7671L42.2771 20.2641L45.8553 19.8735L45.801 19.3765ZM42.36 19.7911L41.5632 19.4005L41.3431 19.8495L42.14 20.2401L42.36 19.7911ZM41.4531 19.375C41.2816 19.375 41.1066 19.4161 40.9752 19.5424C40.8419 19.6706 40.7969 19.8443 40.7969 20.0156H41.2969C41.2969 19.9265 41.3195 19.905 41.3217 19.9029C41.3257 19.899 41.3538 19.875 41.4531 19.875V19.375ZM41.0799 19.7678L35.0955 18.9709L35.0295 19.4666L41.0139 20.2634L41.0799 19.7678ZM35.3125 19.2188V18.0312H34.8125V19.2188H35.3125ZM35.0146 18.2766L37.0146 18.6672L37.1104 18.1765L35.1104 17.7859L35.0146 18.2766ZM37.0625 18.6719H39.8438V18.1719H37.0625V18.6719ZM39.8438 18.6719C40.1264 18.6719 40.3147 18.4447 40.4378 18.2163C40.5702 17.9708 40.6846 17.621 40.7865 17.1815C40.9914 16.2981 41.1605 14.9861 41.2961 13.2539L40.7976 13.2149C40.6625 14.941 40.4956 16.2227 40.2994 17.0685C40.2009 17.4936 40.0984 17.7922 39.9977 17.979C39.8878 18.1829 39.8267 18.1719 39.8438 18.1719V18.6719ZM41.1569 13.4589L41.9538 13.0682L41.7337 12.6193L40.9368 13.0099L41.1569 13.4589ZM64.6875 1.26562L64.937 1.24976L64.9094 0.815646L64.5482 1.05803L64.6875 1.26562ZM65.5 8.04688H65.75V7.94044L65.6733 7.86667L65.5 8.04688ZM65.0938 8.45312V8.20312H64.8046L64.8464 8.48926L65.0938 8.45312ZM65.5 11.2344H65.75V11.2162L65.7474 11.1982L65.5 11.2344ZM65.5 14.4375V14.6875H65.75V14.4375H65.5ZM64.2969 14.4375H64.0469V14.6875H64.2969V14.4375ZM63.5 2.0625L63.3607 1.85491L63.2364 1.93832L63.2512 2.08728L63.5 2.0625ZM57.1094 3.65625L57.1513 3.40978L57.1178 3.4041L57.084 3.40754L57.1094 3.65625ZM57.9062 8.45312L57.7214 8.28479L57.6562 8.35635V8.45312H57.9062ZM57.9062 8.84375H57.6562V8.99547L57.7908 9.06552L57.9062 8.84375ZM61.5 10.4375H61.75V10.1875H61.5V10.4375ZM61.5 11.2344V11.4844H61.75V11.2344H61.5ZM57.1094 9.25L57.2728 9.06082L57.1161 8.92545L56.9539 9.05419L57.1094 9.25ZM51.125 12.4375L50.9822 12.2323L50.3278 12.6875H51.125V12.4375ZM58.3125 4.85938H58.5625V4.60938H58.3125V4.85938ZM53.125 4.85938H52.875V5.10938H53.125V4.85938ZM53.125 4.0625L53.0996 3.81379L52.875 3.83669V4.0625H53.125ZM67.8906 7.25L67.9404 7.005L67.9158 7H67.8906V7.25ZM69.8906 7.65625H70.1406V7.45193L69.9404 7.41125L69.8906 7.65625ZM69.8906 8.84375L69.8427 9.08911L70.1406 9.1473V8.84375H69.8906ZM67.8906 8.45312L67.9385 8.20776L67.9148 8.20312H67.8906V8.45312ZM65.8906 8.45312H65.6406V8.70312H65.8906V8.45312ZM65.8906 8.04688L65.6436 8.00813L65.6406 8.02739V8.04688H65.8906ZM60.7031 16.4375V16.1875H60.6277L60.5648 16.2292L60.7031 16.4375ZM64.2969 20.4219H64.5469V20.4062L64.5449 20.3907L64.2969 20.4219ZM61.9062 22.4219L61.8877 22.6712L61.9575 22.6764L62.0198 22.6446L61.9062 22.4219ZM57.9062 19.625L57.6734 19.5339L57.6562 19.5778V19.625H57.9062ZM59.1094 19.625L58.9071 19.4781L58.8283 19.5866L58.8751 19.7123L59.1094 19.625ZM63.5 20.0156L63.7412 20.0814L63.7613 20.0076L63.7367 19.9352L63.5 20.0156ZM64.438 1.28149C64.5735 3.41308 64.7093 5.04879 64.8455 6.18599C64.9136 6.75391 64.9824 7.20285 65.0525 7.52908C65.0874 7.6918 65.1239 7.82986 65.1629 7.93935C65.1982 8.03824 65.2477 8.15105 65.3267 8.22708L65.6733 7.86667C65.6846 7.87759 65.6664 7.8628 65.6339 7.77159C65.6052 7.69097 65.574 7.57643 65.5413 7.42404C65.476 7.12007 65.4093 6.68879 65.342 6.12651C65.2074 5.0033 65.0723 3.37859 64.937 1.24976L64.438 1.28149ZM65.25 8.04688C65.25 8.14376 65.226 8.1705 65.2217 8.17479C65.2174 8.17907 65.1906 8.20312 65.0938 8.20312V8.70312C65.2677 8.70312 65.4441 8.65947 65.5752 8.52834C65.7063 8.39721 65.75 8.22083 65.75 8.04688H65.25ZM64.8464 8.48926L65.2526 11.2705L65.7474 11.1982L65.3411 8.41699L64.8464 8.48926ZM65.25 11.2344V14.4375H65.75V11.2344H65.25ZM65.5 14.1875H64.2969V14.6875H65.5V14.1875ZM64.5469 14.4375V14.0312H64.0469V14.4375H64.5469ZM64.5469 14.0312C64.5469 11.3725 64.2802 7.37275 63.7488 2.03772L63.2512 2.08728C63.7823 7.41892 64.0469 11.3984 64.0469 14.0312H64.5469ZM63.6393 2.27009L64.8268 1.47322L64.5482 1.05803L63.3607 1.85491L63.6393 2.27009ZM57.0675 3.90272C57.8563 4.03676 58.4249 4.19975 58.79 4.38347C59.1648 4.57212 59.25 4.74103 59.25 4.85938H59.75C59.75 4.44647 59.4368 4.14923 59.0147 3.93684C58.5829 3.71953 57.9562 3.54657 57.1513 3.40978L57.0675 3.90272ZM59.25 4.85938V5.25H59.75V4.85938H59.25ZM59.25 5.25C59.25 6.12746 58.7668 7.13689 57.7214 8.28479L58.0911 8.62146C59.1707 7.43603 59.75 6.31004 59.75 5.25H59.25ZM57.6562 8.45312V8.84375H58.1562V8.45312H57.6562ZM57.7908 9.06552C58.8134 9.59767 59.6286 9.99886 60.2346 10.2676C60.5373 10.4018 60.7915 10.5047 60.9952 10.5744C61.19 10.6411 61.3661 10.6875 61.5 10.6875V10.1875C61.4569 10.1875 61.3503 10.1675 61.1571 10.1014C60.9729 10.0383 60.7335 9.9419 60.4373 9.81053C59.8453 9.54801 59.0408 9.15233 58.0217 8.62198L57.7908 9.06552ZM61.25 10.4375V11.2344H61.75V10.4375H61.25ZM61.5 10.9844H61.1094V11.4844H61.5V10.9844ZM61.1094 10.9844C60.0658 10.9844 58.7906 10.3721 57.2728 9.06082L56.9459 9.43918C58.4907 10.7737 59.8821 11.4844 61.1094 11.4844V10.9844ZM56.9539 9.05419C55.6202 10.1129 54.4972 10.9012 53.583 11.4236C52.659 11.9516 51.9825 12.1875 51.5312 12.1875V12.6875C52.1217 12.6875 52.8957 12.3922 53.8311 11.8577C54.7762 11.3176 55.9214 10.5121 57.2648 9.44581L56.9539 9.05419ZM51.5312 12.1875H51.125V12.6875H51.5312V12.1875ZM51.2678 12.6427C53.6696 10.9719 55.4822 9.49587 56.697 8.21501C57.9003 6.94631 58.5625 5.82273 58.5625 4.85938H58.0625C58.0625 5.61477 57.5268 6.61359 56.3342 7.87093C55.1532 9.11611 53.3721 10.5697 50.9822 12.2323L51.2678 12.6427ZM58.3125 4.60938H53.125V5.10938H58.3125V4.60938ZM53.375 4.85938V4.0625H52.875V4.85938H53.375ZM53.1504 4.31121L57.1347 3.90496L57.084 3.40754L53.0996 3.81379L53.1504 4.31121ZM66.6875 7.5H67.8906V7H66.6875V7.5ZM67.8409 7.495L69.8409 7.90125L69.9404 7.41125L67.9404 7.005L67.8409 7.495ZM69.6406 7.65625V8.84375H70.1406V7.65625H69.6406ZM69.9385 8.59839L67.9385 8.20776L67.8427 8.69849L69.8427 9.08911L69.9385 8.59839ZM67.8906 8.20312H65.8906V8.70312H67.8906V8.20312ZM66.1406 8.45312V8.04688H65.6406V8.45312H66.1406ZM66.1376 8.08562C66.1745 7.85051 66.2468 7.70835 66.3291 7.626C66.4062 7.54893 66.5162 7.5 66.6875 7.5V7C66.4109 7 66.1641 7.08389 65.9756 7.27244C65.7923 7.45571 65.6901 7.71199 65.6436 8.00813L66.1376 8.08562ZM60.7031 16.6875H62.7031V16.1875H60.7031V16.6875ZM62.7031 16.6875C62.8002 16.6875 62.9084 16.7288 63.0316 16.8586C63.1586 16.9925 63.2894 17.2091 63.4163 17.5264C63.6699 18.1604 63.8829 19.1311 64.0488 20.453L64.5449 20.3907C64.3775 19.0564 64.1582 18.0349 63.8806 17.3407C63.7419 16.994 63.5823 16.7126 63.3942 16.5144C63.2023 16.3122 62.9706 16.1875 62.7031 16.1875V16.6875ZM64.0469 20.4219V20.8281H64.5469V20.4219H64.0469ZM64.0469 20.8281C64.0469 20.7947 64.0592 20.7839 64.0472 20.803C64.0366 20.8202 64.0141 20.849 63.9724 20.8898C63.8891 20.9715 63.7546 21.0767 63.5605 21.2061C63.1744 21.4635 62.587 21.7942 61.7927 22.1991L62.0198 22.6446C62.8193 22.237 63.4272 21.8959 63.8379 21.6221C64.0423 21.4858 64.2066 21.3605 64.3225 21.2469C64.3804 21.1901 64.4327 21.13 64.4718 21.0671C64.5097 21.0062 64.5469 20.9241 64.5469 20.8281H64.0469ZM61.9248 22.1726C60.6104 22.075 59.6627 21.7981 59.0495 21.3693C58.4517 20.9513 58.1562 20.3791 58.1562 19.625H57.6562C57.6562 20.5376 58.0275 21.2648 58.763 21.7791C59.4831 22.2826 60.5354 22.5708 61.8877 22.6712L61.9248 22.1726ZM58.1391 19.7161C58.5842 18.5786 59.4755 17.553 60.8414 16.6458L60.5648 16.2292C59.1391 17.1762 58.1658 18.2755 57.6734 19.5339L58.1391 19.7161ZM58.8751 19.7123C59.0764 20.2527 59.2857 20.6771 59.5075 20.9709C59.7252 21.2593 59.9918 21.4688 60.3125 21.4688V20.9688C60.227 20.9688 60.0899 20.9126 59.9066 20.6697C59.7273 20.4323 59.5382 20.0598 59.3436 19.5377L58.8751 19.7123ZM60.3125 21.4688H61.1094V20.9688H60.3125V21.4688ZM61.1094 21.4688C61.8168 21.4688 62.4036 21.3663 62.8507 21.1413C63.3072 20.9115 63.6117 20.5563 63.7412 20.0814L63.2588 19.9498C63.1696 20.2771 62.9662 20.5234 62.6259 20.6947C62.2761 20.8707 61.777 20.9688 61.1094 20.9688V21.4688ZM63.7367 19.9352C63.4633 19.1307 63.1868 18.5092 62.9033 18.084C62.6289 17.6723 62.3006 17.375 61.9062 17.375V17.875C62.0327 17.875 62.2305 17.9761 62.4873 18.3613C62.7351 18.733 62.995 19.3068 63.2633 20.0961L63.7367 19.9352ZM61.9062 17.375H61.1094V17.875H61.9062V17.375ZM61.1094 17.375C60.9473 17.375 60.7882 17.4465 60.6436 17.5401C60.4942 17.6366 60.3324 17.775 60.1592 17.9482C59.8122 18.2952 59.3944 18.8074 58.9071 19.4781L59.3116 19.7719C59.7931 19.1093 60.193 18.6215 60.5127 18.3018C60.6728 18.1417 60.8066 18.0301 60.915 17.9599C61.0282 17.8868 61.0891 17.875 61.1094 17.875V17.375ZM75.1875 1.67188L75.247 1.42906L75.2177 1.42188H75.1875V1.67188ZM76.7812 7.25L77.024 7.30985L77.0312 7.28037V7.25H76.7812ZM72.7969 15.2344H72.5469V15.4844H72.7969V15.2344ZM72.7969 14.4375L72.5772 14.3182L72.5469 14.374V14.4375H72.7969ZM75.9844 5.65625L76.2344 5.66016V5.65625H75.9844ZM74.7812 2.46875L74.8321 2.22398L74.7336 2.20351L74.6484 2.25698L74.7812 2.46875ZM72.3906 6.0625H72.1406V6.07714L72.1423 6.09168L72.3906 6.0625ZM73.1875 12.8438L73.2975 13.0682L73.4564 12.9903L73.4358 12.8146L73.1875 12.8438ZM72.3906 13.2344L72.149 13.2986L72.2272 13.5929L72.5007 13.4589L72.3906 13.2344ZM73.9844 19.625L74.1839 19.4744L74.1089 19.375H73.9844V19.625ZM75.1875 21.2188H75.4375V21.135L75.387 21.0681L75.1875 21.2188ZM72.7969 24.0156L72.6815 24.2374L72.7358 24.2656H72.7969V24.0156ZM71.5938 23.6094H71.3438V23.8594H71.5938V23.6094ZM72.7969 20.8125V20.5625H72.5926L72.5519 20.7627L72.7969 20.8125ZM72.3906 22.8125L72.1456 22.7627L72.0847 23.0625H72.3906V22.8125ZM72.7969 23.2188H72.5469V23.582L72.8862 23.4523L72.7969 23.2188ZM75.128 1.91469C75.6077 2.03227 75.9489 2.26459 76.1748 2.60352C76.4043 2.9477 76.5312 3.42651 76.5312 4.0625H77.0312C77.0312 3.36516 76.8926 2.77886 76.5908 2.32617C76.2855 1.86822 75.8298 1.5719 75.247 1.42906L75.128 1.91469ZM76.5312 4.0625V7.25H77.0312V4.0625H76.5312ZM76.5385 7.19015C75.8833 9.84732 75.26 11.8259 74.6705 13.1357C74.3752 13.7917 74.0944 14.2661 73.8317 14.5727C73.5652 14.8835 73.3504 14.9844 73.1875 14.9844V15.4844C73.5663 15.4844 73.9074 15.2525 74.2113 14.898C74.5189 14.5392 74.8227 14.0156 75.1264 13.3409C75.7348 11.9892 76.3667 9.9756 77.024 7.30985L76.5385 7.19015ZM73.1875 14.9844H72.7969V15.4844H73.1875V14.9844ZM73.0469 15.2344V14.4375H72.5469V15.2344H73.0469ZM73.0166 14.5568C75.1118 10.6999 76.2021 7.72605 76.2343 5.66016L75.7344 5.65234C75.7042 7.58645 74.6695 10.4667 72.5772 14.3182L73.0166 14.5568ZM76.2344 5.65625C76.2344 4.66552 76.1337 3.87513 75.9175 3.30234C75.6996 2.72512 75.3473 2.33102 74.8321 2.22398L74.7304 2.71352C75.0173 2.77315 75.2665 2.99363 75.4497 3.47891C75.6345 3.96862 75.7344 4.68864 75.7344 5.65625H76.2344ZM74.6484 2.25698C73.0101 3.28495 72.1406 4.55181 72.1406 6.0625H72.6406C72.6406 4.78152 73.3649 3.65255 74.9141 2.68052L74.6484 2.25698ZM72.1423 6.09168L72.9392 12.8729L73.4358 12.8146L72.6389 6.03332L72.1423 6.09168ZM73.0775 12.6193L72.2806 13.0099L72.5007 13.4589L73.2975 13.0682L73.0775 12.6193ZM72.6322 13.1702C72.1055 11.187 71.8438 9.34946 71.8438 7.65625H71.3438C71.3438 9.40054 71.6133 11.2817 72.149 13.2986L72.6322 13.1702ZM71.8438 7.65625V7.25H71.3438V7.65625H71.8438ZM71.8438 7.25C71.8438 5.40946 72.1416 4.07211 72.7023 3.2018C73.2509 2.35036 74.0661 1.92188 75.1875 1.92188V1.42188C73.913 1.42188 72.9314 1.92308 72.282 2.93101C71.6448 3.92008 71.3438 5.37179 71.3438 7.25H71.8438ZM73.7848 19.7756L74.988 21.3694L75.387 21.0681L74.1839 19.4744L73.7848 19.7756ZM74.9375 21.2188V21.6094H75.4375V21.2188H74.9375ZM74.9375 21.6094C74.9375 22.3733 74.7479 22.9003 74.4125 23.2379C74.0774 23.5751 73.5548 23.7656 72.7969 23.7656V24.2656C73.6327 24.2656 74.3054 24.0551 74.7672 23.5903C75.2287 23.1257 75.4375 22.4496 75.4375 21.6094H74.9375ZM72.9122 23.7938C72.3865 23.5204 71.9394 23.3594 71.5938 23.3594V23.8594C71.8106 23.8594 72.1656 23.9692 72.6815 24.2374L72.9122 23.7938ZM71.8438 23.6094V22.0156H71.3438V23.6094H71.8438ZM71.8438 22.0156C71.8438 21.2573 72.0332 20.7345 72.3682 20.3994C72.7032 20.0644 73.226 19.875 73.9844 19.875V19.375C73.149 19.375 72.4765 19.584 72.0146 20.0459C71.5528 20.5077 71.3438 21.1802 71.3438 22.0156H71.8438ZM72.5519 20.7627L72.1456 22.7627L72.6356 22.8623L73.0419 20.8623L72.5519 20.7627ZM72.3906 23.0625C72.4875 23.0625 72.5142 23.0866 72.5185 23.0908C72.5228 23.0951 72.5469 23.1219 72.5469 23.2188H73.0469C73.0469 23.0448 73.0032 22.8684 72.8721 22.7373C72.741 22.6062 72.5646 22.5625 72.3906 22.5625V23.0625ZM72.8862 23.4523C73.4262 23.2458 73.8498 23.034 74.1428 22.8128C74.429 22.5968 74.6406 22.3328 74.6406 22.0156H74.1406C74.1406 22.0943 74.0867 22.2287 73.8416 22.4138C73.6033 22.5936 73.2301 22.7855 72.7076 22.9852L72.8862 23.4523ZM74.6406 22.0156V21.6094H74.1406V22.0156H74.6406ZM74.6406 21.6094C74.6406 21.3052 74.5644 21.0312 74.3682 20.8349C74.172 20.6387 73.8979 20.5625 73.5938 20.5625V21.0625C73.8208 21.0625 73.9452 21.1191 74.0146 21.1885C74.084 21.2579 74.1406 21.3823 74.1406 21.6094H74.6406ZM73.5938 20.5625H72.7969V21.0625H73.5938V20.5625ZM96.5312 1.67188V1.42188H96.2812V1.67188H96.5312ZM97.3281 1.67188L97.5748 1.63104L97.5401 1.42188H97.3281V1.67188ZM98.125 9.25H97.875V9.5H98.125V9.25ZM100.922 9.25H101.172V9H100.922V9.25ZM100.922 10.0469V10.2969H101.172V10.0469H100.922ZM97.7344 12.4375L97.9794 12.4873L97.9844 12.4626V12.4375H97.7344ZM97.3281 14.4375V14.6875H97.5324L97.5731 14.4873L97.3281 14.4375ZM96.5312 14.4375L96.2825 14.4122L96.2546 14.6875H96.5312V14.4375ZM96.9375 10.4375L97.1862 10.4628L97.2142 10.1875H96.9375V10.4375ZM96.1406 10.4375H95.8906V10.6875H96.1406V10.4375ZM96.1406 9.64062V9.39062H95.8906V9.64062H96.1406ZM96.9375 9.64062V9.89062H97.2052L97.1869 9.62352L96.9375 9.64062ZM87.7656 3.65625H88.0156V3.18575L87.6257 3.44907L87.7656 3.65625ZM86.9688 4.85938V4.60938H86.6409L86.7277 4.92552L86.9688 4.85938ZM88.1562 10.0469H87.9062V10.2969H88.1562V10.0469ZM91.75 5.26562H92V4.97828L91.7154 5.01803L91.75 5.26562ZM88.9531 5.65625V5.90625H88.9705L88.9877 5.90385L88.9531 5.65625ZM87.7656 5.65625H87.5156V5.90625H87.7656V5.65625ZM87.7656 4.85938L87.7173 4.61408L87.5156 4.65379V4.85938H87.7656ZM89.75 4.46875V4.21875H89.7256L89.7017 4.22346L89.75 4.46875ZM92.5469 4.46875L92.7891 4.407L92.7411 4.21875H92.5469V4.46875ZM92.9531 6.0625H93.2031V6.03114L93.1954 6.00075L92.9531 6.0625ZM87.3594 11.25L87.1193 11.3196L87.1715 11.5H87.3594V11.25ZM86.5625 4.46875L86.4226 4.26157L86.3125 4.33591V4.46875H86.5625ZM91.75 14.0312H92V13.7812H91.75V14.0312ZM96.5312 18.4219V18.6719H96.5554L96.5792 18.6672L96.5312 18.4219ZM98.5312 18.0312H98.7812V17.7277L98.4833 17.7859L98.5312 18.0312ZM98.5312 18.8281L98.5998 19.0686L98.7812 19.0168V18.8281H98.5312ZM95.7344 19.625L95.706 19.8734L95.7552 19.879L95.8029 19.8654L95.7344 19.625ZM90.9531 14.8281L90.7061 14.7894L90.7031 14.8086V14.8281H90.9531ZM96.5312 1.92188H97.3281V1.42188H96.5312V1.92188ZM97.0815 1.71271C97.6119 4.91608 97.875 7.42648 97.875 9.25H98.375C98.375 7.38602 98.1068 4.84433 97.5748 1.63104L97.0815 1.71271ZM98.125 9.5H100.922V9H98.125V9.5ZM100.672 9.25V10.0469H101.172V9.25H100.672ZM100.922 9.79688C99.8353 9.79688 98.9748 9.99933 98.3812 10.4445C97.7741 10.8999 97.4844 11.5796 97.4844 12.4375H97.9844C97.9844 11.7016 98.2259 11.1861 98.6813 10.8445C99.1502 10.4929 99.8834 10.2969 100.922 10.2969V9.79688ZM97.4894 12.3877L97.0831 14.3877L97.5731 14.4873L97.9794 12.4873L97.4894 12.3877ZM97.3281 14.1875H96.5312V14.6875H97.3281V14.1875ZM96.78 14.4628L97.1862 10.4628L96.6888 10.4122L96.2825 14.4122L96.78 14.4628ZM96.9375 10.1875H96.1406V10.6875H96.9375V10.1875ZM96.3906 10.4375V9.64062H95.8906V10.4375H96.3906ZM96.1406 9.89062H96.9375V9.39062H96.1406V9.89062ZM97.1869 9.62352C96.916 5.67439 96.7812 3.02654 96.7812 1.67188H96.2812C96.2812 3.04638 96.4173 5.71103 96.6881 9.65773L97.1869 9.62352ZM87.5156 3.65625V4.0625H88.0156V3.65625H87.5156ZM87.5156 4.0625C87.5156 4.28959 87.459 4.41399 87.3896 4.48338C87.3202 4.55277 87.1958 4.60938 86.9688 4.60938V5.10938C87.2729 5.10938 87.547 5.03317 87.7432 4.83693C87.9394 4.6407 88.0156 4.36666 88.0156 4.0625H87.5156ZM86.7277 4.92552C87.1231 6.36678 87.4189 7.51654 87.6157 8.3761C87.8148 9.24609 87.9062 9.7936 87.9062 10.0469H88.4062C88.4062 9.72723 88.2998 9.12371 88.1031 8.26453C87.904 7.39492 87.6061 6.23739 87.2098 4.79323L86.7277 4.92552ZM88.1562 10.2969H88.9531V9.79688H88.1562V10.2969ZM88.9531 10.2969C89.9731 10.2969 90.755 9.85225 91.2666 8.97779C91.766 8.12401 92 6.87556 92 5.26562H91.5C91.5 6.84319 91.2678 7.98536 90.835 8.72533C90.4142 9.44462 89.7977 9.79688 88.9531 9.79688V10.2969ZM91.7154 5.01803L88.9185 5.40865L88.9877 5.90385L91.7846 5.51322L91.7154 5.01803ZM88.9531 5.40625H87.7656V5.90625H88.9531V5.40625ZM88.0156 5.65625V4.85938H87.5156V5.65625H88.0156ZM87.8139 5.10467L89.7983 4.71404L89.7017 4.22346L87.7173 4.61408L87.8139 5.10467ZM89.75 4.71875H92.5469V4.21875H89.75V4.71875ZM92.3046 4.5305L92.7109 6.12425L93.1954 6.00075L92.7891 4.407L92.3046 4.5305ZM92.7031 6.0625C92.7031 7.76652 92.3734 8.99862 91.7551 9.80047C91.1464 10.59 90.228 11 88.9531 11V11.5C90.3449 11.5 91.4266 11.0454 92.1511 10.1058C92.8661 9.17846 93.2031 7.81682 93.2031 6.0625H92.7031ZM88.9531 11H87.3594V11.5H88.9531V11ZM87.5995 11.1804C87.0769 9.37682 86.8125 7.14149 86.8125 4.46875H86.3125C86.3125 7.17101 86.5794 9.45652 87.1193 11.3196L87.5995 11.1804ZM86.7024 4.67593L87.9055 3.86343L87.6257 3.44907L86.4226 4.26157L86.7024 4.67593ZM91.5 14.0312C91.5 15.5333 91.8757 16.7058 92.6709 17.501C93.4661 18.2962 94.6385 18.6719 96.1406 18.6719V18.1719C94.7156 18.1719 93.6928 17.8158 93.0244 17.1474C92.3561 16.4791 92 15.4563 92 14.0312H91.5ZM96.1406 18.6719H96.5312V18.1719H96.1406V18.6719ZM96.5792 18.6672L98.5792 18.2766L98.4833 17.7859L96.4833 18.1765L96.5792 18.6672ZM98.2812 18.0312V18.8281H98.7812V18.0312H98.2812ZM98.4627 18.5877L95.6659 19.3846L95.8029 19.8654L98.5998 19.0686L98.4627 18.5877ZM95.7628 19.3766C94.1931 19.1971 93.053 18.7823 92.3089 18.1598C91.5753 17.5461 91.2031 16.711 91.2031 15.625H90.7031C90.7031 16.841 91.1278 17.8236 91.988 18.5433C92.8377 19.2541 94.0881 19.6883 95.706 19.8734L95.7628 19.3766ZM91.2031 15.625V14.8281H90.7031V15.625H91.2031ZM91.2001 14.8669C91.237 14.6318 91.3093 14.4896 91.3916 14.4072C91.4687 14.3302 91.5787 14.2812 91.75 14.2812V13.7812C91.4734 13.7812 91.2266 13.8651 91.0381 14.0537C90.8548 14.237 90.7526 14.4932 90.7061 14.7894L91.2001 14.8669ZM105.016 2.03125L105.232 1.90656L104.766 1.09552V2.03125H105.016ZM110.609 5.625L110.637 5.87348L110.859 5.84881V5.625H110.609ZM103.422 6.42188V6.67188H103.436L103.449 6.67035L103.422 6.42188ZM102.625 6.42188H102.375V6.67188H102.625V6.42188ZM102.625 5.625L102.58 5.37914L102.375 5.41688V5.625H102.625ZM105.828 5.21875V5.46875H106.277L106.041 5.08716L105.828 5.21875ZM114.609 4.82812V4.57812H114.551L114.499 4.60364L114.609 4.82812ZM115.016 4.82812H115.266V4.57812H115.016V4.82812ZM115.016 13.2188L115.238 13.3323L115.266 13.2788V13.2188H115.016ZM114.609 14.0156L114.387 13.9021L114.201 14.2656H114.609V14.0156ZM115.016 14.4062H114.766V14.8285L115.136 14.6255L115.016 14.4062ZM119.812 13.6094H120.062V13.3594H119.812V13.6094ZM119.812 14.4062L119.846 14.654L120.062 14.6247V14.4062H119.812ZM114.609 15.6094L114.858 15.6367L114.859 15.6231V15.6094H114.609ZM114.219 20V20.25H114.469V20H114.219ZM113.812 20L113.702 20.2245L113.755 20.25H113.812V20ZM113.016 19.6094L112.768 19.5732L112.742 19.7536L112.906 19.8339L113.016 19.6094ZM113.812 5.21875L113.702 4.99427L113.562 5.06288V5.21875H113.812ZM105.828 7.625V7.375H105.767L105.713 7.40315L105.828 7.625ZM110.609 9.625H110.859V9.57185L110.838 9.5233L110.609 9.625ZM110.609 10.4219L110.832 10.5351L110.859 10.4817V10.4219H110.609ZM104.625 11.2188H104.375V11.2522L104.384 11.2845L104.625 11.2188ZM105.422 10.4219H105.172V10.4414L105.175 10.4606L105.422 10.4219ZM107.422 11.2188V11.4688H107.447L107.472 11.4637L107.422 11.2188ZM109.422 10.8125L109.472 11.0575L109.672 11.0168V10.8125H109.422ZM107.812 8.42188H107.562V8.58842L107.716 8.65258L107.812 8.42188ZM107.812 8.01562H108.062V7.70397L107.758 7.77158L107.812 8.01562ZM108.625 14.4062V14.1562H108.548L108.485 14.1991L108.625 14.4062ZM109.016 14.4062H109.266V14.1562H109.016V14.4062ZM109.016 14.8125L109.261 14.8604L109.266 14.8367V14.8125H109.016ZM108.625 16.8125L108.38 16.7646L108.343 16.9526L108.515 17.037L108.625 16.8125ZM109.422 17.2031L109.312 17.4276L109.364 17.4531H109.422V17.2031ZM109.812 17.2031V17.4531H109.83L109.847 17.4507L109.812 17.2031ZM112.609 16.8125H112.859V16.5252L112.575 16.5649L112.609 16.8125ZM103.828 18.8125V19.0626L103.835 19.0624L103.828 18.8125ZM103.422 18.8125H103.172V19.0625H103.422V18.8125ZM107.812 17.2031L107.847 17.4508L108.062 17.4208V17.2031H107.812ZM107.812 16.8125H108.062V16.7477L108.031 16.6911L107.812 16.8125ZM107.422 15.2188L107.282 15.0116L107.172 15.0859V15.2188H107.422ZM104.799 2.15594C105.343 3.1011 105.894 3.82606 106.457 4.31722C107.021 4.80968 107.609 5.07812 108.219 5.07812V4.57812C107.766 4.57812 107.289 4.38042 106.786 3.94059C106.28 3.49946 105.761 2.82599 105.232 1.90656L104.799 2.15594ZM108.219 5.07812C109.008 5.07812 109.573 5.14473 109.933 5.26451C110.298 5.38644 110.359 5.52544 110.359 5.625H110.859C110.859 5.19331 110.522 4.93387 110.091 4.79017C109.653 4.64433 109.023 4.57812 108.219 4.57812V5.07812ZM110.582 5.37652L103.394 6.1734L103.449 6.67035L110.637 5.87348L110.582 5.37652ZM103.422 6.17188H102.625V6.67188H103.422V6.17188ZM102.875 6.42188V5.625H102.375V6.42188H102.875ZM102.67 5.87086C104.138 5.60025 105.186 5.46875 105.828 5.46875V4.96875C105.137 4.96875 104.05 5.10808 102.58 5.37914L102.67 5.87086ZM106.041 5.08716C105.513 4.23551 105.266 3.48445 105.266 2.82812H104.766C104.766 3.6093 105.059 4.45199 105.616 5.35034L106.041 5.08716ZM105.266 2.82812V2.03125H104.766V2.82812H105.266ZM114.609 5.07812H115.016V4.57812H114.609V5.07812ZM114.766 4.82812V13.2188H115.266V4.82812H114.766ZM114.793 13.1052L114.387 13.9021L114.832 14.1292L115.238 13.3323L114.793 13.1052ZM114.609 14.2656C114.709 14.2656 114.737 14.2896 114.741 14.2935C114.743 14.2956 114.766 14.3171 114.766 14.4062H115.266C115.266 14.235 115.221 14.0612 115.087 13.9331C114.956 13.8067 114.781 13.7656 114.609 13.7656V14.2656ZM115.136 14.6255C116.066 14.1154 117.087 13.8594 118.203 13.8594V13.3594C117.007 13.3594 115.903 13.6346 114.895 14.187L115.136 14.6255ZM118.203 13.8594H119.812V13.3594H118.203V13.8594ZM119.562 13.6094V14.4062H120.062V13.6094H119.562ZM119.779 14.1585C118.043 14.3931 116.733 14.6118 115.854 14.815C115.416 14.9162 115.074 15.0161 114.837 15.1165C114.72 15.1661 114.614 15.2217 114.534 15.2867C114.459 15.3468 114.359 15.4536 114.359 15.6094H114.859C114.859 15.6818 114.814 15.7032 114.848 15.6757C114.876 15.6532 114.933 15.619 115.032 15.5769C115.229 15.4937 115.537 15.4015 115.966 15.3022C116.822 15.1043 118.113 14.8881 119.846 14.654L119.779 14.1585ZM114.361 15.582C114.101 17.941 113.969 19.4205 113.969 20H114.469C114.469 19.4545 114.597 18.007 114.858 15.6367L114.361 15.582ZM114.219 19.75H113.812V20.25H114.219V19.75ZM113.923 19.7755L113.126 19.3849L112.906 19.8339L113.702 20.2245L113.923 19.7755ZM113.263 19.6455C113.797 15.9931 114.062 11.1827 114.062 5.21875H113.562C113.562 11.1714 113.297 15.9548 112.768 19.5732L113.263 19.6455ZM113.923 5.44323L114.719 5.05261L114.499 4.60364L113.702 4.99427L113.923 5.44323ZM105.828 7.875H106.625V7.375H105.828V7.875ZM106.625 7.875C108.636 7.875 109.844 8.52025 110.381 9.7267L110.838 9.5233C110.188 8.06308 108.739 7.375 106.625 7.375V7.875ZM110.359 9.625V10.4219H110.859V9.625H110.359ZM110.386 10.3087C110.064 10.9428 109.658 11.4051 109.172 11.7101C108.686 12.0148 108.106 12.1719 107.422 12.1719V12.6719C108.185 12.6719 108.861 12.4956 109.438 12.1336C110.014 11.772 110.477 11.2343 110.832 10.5351L110.386 10.3087ZM107.422 12.1719H107.016V12.6719H107.422V12.1719ZM107.016 12.1719C106.348 12.1719 105.849 12.0738 105.499 11.8978C105.159 11.7265 104.955 11.4802 104.866 11.153L104.384 11.2845C104.513 11.7594 104.818 12.1146 105.274 12.3444C105.721 12.5694 106.308 12.6719 107.016 12.6719V12.1719ZM104.875 11.2188V8.8125H104.375V11.2188H104.875ZM104.875 8.8125C104.875 8.71907 104.925 8.58661 105.101 8.4123C105.277 8.2393 105.553 8.04972 105.943 7.84685L105.713 7.40315C105.301 7.61695 104.976 7.83362 104.75 8.05645C104.526 8.27798 104.375 8.53093 104.375 8.8125H104.875ZM105.172 9.21875V10.4219H105.672V9.21875H105.172ZM105.175 10.4606C105.221 10.7568 105.324 11.013 105.507 11.1963C105.695 11.3849 105.942 11.4688 106.219 11.4688V10.9688C106.047 10.9688 105.937 10.9198 105.86 10.8428C105.778 10.7604 105.706 10.6182 105.669 10.3831L105.175 10.4606ZM106.219 11.4688H107.422V10.9688H106.219V11.4688ZM107.472 11.4637L109.472 11.0575L109.372 10.5675L107.372 10.9738L107.472 11.4637ZM109.672 10.8125C109.672 10.1996 109.528 9.66297 109.227 9.21586C108.926 8.769 108.481 8.42997 107.909 8.19117L107.716 8.65258C108.217 8.8617 108.577 9.14506 108.812 9.49508C109.048 9.84484 109.172 10.2796 109.172 10.8125H109.672ZM108.062 8.42188V8.01562H107.562V8.42188H108.062ZM107.758 7.77158C106.955 7.9501 106.333 8.14421 105.907 8.35872C105.694 8.46589 105.516 8.58479 105.389 8.7205C105.259 8.85863 105.172 9.02594 105.172 9.21875H105.672C105.672 9.18761 105.684 9.13681 105.754 9.0627C105.825 8.98617 105.946 8.89869 106.132 8.80535C106.503 8.61881 107.076 8.43532 107.867 8.25967L107.758 7.77158ZM108.625 14.6562H109.016V14.1562H108.625V14.6562ZM108.766 14.4062V14.8125H109.266V14.4062H108.766ZM108.77 14.7646L108.38 16.7646L108.87 16.8604L109.261 14.8604L108.77 14.7646ZM108.515 17.037L109.312 17.4276L109.532 16.9786L108.735 16.588L108.515 17.037ZM109.422 17.4531H109.812V16.9531H109.422V17.4531ZM109.847 17.4507L112.644 17.0601L112.575 16.5649L109.778 16.9555L109.847 17.4507ZM112.359 16.8125V17.2031H112.859V16.8125H112.359ZM112.359 17.2031C112.359 17.2794 112.299 17.4219 111.949 17.5954C111.615 17.7614 111.093 17.9143 110.369 18.0471C108.925 18.3117 106.745 18.4845 103.821 18.5626L103.835 19.0624C106.765 18.9842 108.976 18.8107 110.459 18.5389C111.198 18.4034 111.774 18.2405 112.172 18.0433C112.554 17.8535 112.859 17.5852 112.859 17.2031H112.359ZM103.828 18.5625H103.422V19.0625H103.828V18.5625ZM103.672 18.8125C103.672 18.7482 103.705 18.6538 103.855 18.53C104.007 18.4053 104.251 18.2747 104.606 18.1449C105.312 17.886 106.388 17.6532 107.847 17.4508L107.778 16.9555C106.31 17.1593 105.191 17.3978 104.433 17.6754C104.056 17.8138 103.752 17.9677 103.538 18.1438C103.322 18.3208 103.172 18.5435 103.172 18.8125H103.672ZM108.062 17.2031V16.8125H107.562V17.2031H108.062ZM108.031 16.6911C107.793 16.2633 107.672 15.7747 107.672 15.2188H107.172C107.172 15.8503 107.311 16.4242 107.594 16.9339L108.031 16.6911ZM107.562 15.4259L108.765 14.6134L108.485 14.1991L107.282 15.0116L107.562 15.4259ZM142.766 3.64062L143.014 3.61527L142.991 3.39062H142.766V3.64062ZM143.172 7.625H143.422V7.61229L143.421 7.59964L143.172 7.625ZM142.766 10.8281V10.5781H142.358L142.543 10.9417L142.766 10.8281ZM143.172 11.625L143.418 11.6669L143.432 11.5852L143.395 11.5115L143.172 11.625ZM142.766 14.0156L142.519 13.9737L142.458 14.3332L142.815 14.2606L142.766 14.0156ZM144.766 13.6094V13.3594H144.74L144.716 13.3644L144.766 13.6094ZM148.359 13.6094L148.597 13.6866L148.703 13.3594H148.359V13.6094ZM142.766 14.8125V14.5625H142.56L142.52 14.7646L142.766 14.8125ZM142.375 16.8125L142.13 16.7646L142.125 16.7883V16.8125H142.375ZM142.375 20.8125V21.0625H142.625V20.8125H142.375ZM141.578 20.8125L141.336 20.8737L141.383 21.0625H141.578V20.8125ZM141.172 19.2031L140.922 19.1966L140.921 19.231L140.929 19.2643L141.172 19.2031ZM133.594 6.42188L133.656 6.17962L133.344 6.10016V6.42188H133.594ZM135.188 6.82812L135.126 7.07038L135.179 7.08397L135.233 7.07392L135.188 6.82812ZM138.375 6.42188H138.625V6.17188H138.375V6.42188ZM136.781 7.625V7.375H136.373L136.559 7.73855L136.781 7.625ZM137.188 8.42188H137.438V8.36183L137.41 8.30833L137.188 8.42188ZM137.188 10.0156L137.436 10.0409L137.438 10.0283V10.0156H137.188ZM136.781 14.0156L136.533 13.9904L136.486 14.4467L136.895 14.2384L136.781 14.0156ZM137.578 13.6094V13.3594H137.518L137.465 13.3866L137.578 13.6094ZM138.781 13.6094H139.031V13.3594H138.781V13.6094ZM131.594 16.0156L131.544 16.2606L131.582 16.2684L131.621 16.2641L131.594 16.0156ZM129.594 15.6094H129.344V15.8137L129.544 15.8544L129.594 15.6094ZM129.594 14.4219V14.1719H129.344V14.4219H129.594ZM130.797 14.4219L130.845 14.1766L130.821 14.1719H130.797V14.4219ZM132.781 14.8125L132.733 15.0578L133.031 15.1165V14.8125H132.781ZM131.984 8.82812V8.57812H131.692L131.737 8.86665L131.984 8.82812ZM132.391 8.42188H132.641V8.17188H132.391V8.42188ZM129.594 8.42188H129.344V8.67188H129.594V8.42188ZM129.594 8.03125L129.347 7.99251L129.344 8.01176V8.03125H129.594ZM130.797 7.625H130.547V7.94217L130.855 7.86808L130.797 7.625ZM133.188 8.03125V7.78125H132.911L132.939 8.05661L133.188 8.03125ZM133.594 14.0156V14.2656H133.844V14.0156H133.594ZM133.188 14.4219H132.938V14.6719H133.188V14.4219ZM135.984 8.03125H136.234V7.78125H135.984V8.03125ZM142.517 3.66598L142.923 7.65036L143.421 7.59964L143.014 3.61527L142.517 3.66598ZM142.922 7.625V10.4219H143.422V7.625H142.922ZM142.922 10.4219C142.922 10.5188 142.898 10.5455 142.894 10.5498C142.889 10.5541 142.863 10.5781 142.766 10.5781V11.0781C142.94 11.0781 143.116 11.0345 143.247 10.9033C143.378 10.7722 143.422 10.5958 143.422 10.4219H142.922ZM142.543 10.9417L142.949 11.7385L143.395 11.5115L142.988 10.7146L142.543 10.9417ZM142.925 11.5831L142.519 13.9737L143.012 14.0575L143.418 11.6669L142.925 11.5831ZM142.815 14.2606L144.815 13.8544L144.716 13.3644L142.716 13.7706L142.815 14.2606ZM144.766 13.8594H148.359V13.3594H144.766V13.8594ZM148.122 13.5322C148.013 13.8657 147.797 14.116 147.454 14.2884C147.103 14.4649 146.614 14.5625 145.969 14.5625V15.0625C146.657 15.0625 147.233 14.9596 147.679 14.735C148.133 14.5064 148.445 14.1551 148.597 13.6866L148.122 13.5322ZM145.969 14.5625H142.766V15.0625H145.969V14.5625ZM142.52 14.7646L142.13 16.7646L142.62 16.8604L143.011 14.8604L142.52 14.7646ZM142.125 16.8125V20.8125H142.625V16.8125H142.125ZM142.375 20.5625H141.578V21.0625H142.375V20.5625ZM141.821 20.7513L141.414 19.1419L140.929 19.2643L141.336 20.8737L141.821 20.7513ZM141.422 19.2096C141.557 14.0236 141.758 10.1407 142.022 7.55672C142.155 6.26291 142.302 5.30511 142.463 4.67506C142.544 4.35799 142.624 4.13966 142.699 4.00598C142.784 3.85452 142.815 3.89062 142.766 3.89062V3.39062C142.519 3.39062 142.36 3.58884 142.263 3.7616C142.156 3.95213 142.063 4.22014 141.978 4.5515C141.808 5.21833 141.658 6.20584 141.525 7.50578C141.258 10.1093 141.057 14.0077 140.922 19.1966L141.422 19.2096ZM133.532 6.66413L135.126 7.07038L135.249 6.58587L133.656 6.17962L133.532 6.66413ZM135.233 7.07392C136.69 6.80334 137.733 6.67188 138.375 6.67188V6.17188C137.684 6.17188 136.602 6.31124 135.142 6.58233L135.233 7.07392ZM138.125 6.42188V6.82812H138.625V6.42188H138.125ZM138.125 6.82812C138.125 6.91719 138.103 6.98397 138.067 7.03808C138.03 7.09376 137.968 7.1506 137.865 7.20217C137.651 7.30887 137.3 7.375 136.781 7.375V7.875C137.325 7.875 137.771 7.80832 138.088 7.64939C138.251 7.56815 138.388 7.45898 138.483 7.31543C138.58 7.17032 138.625 7.00468 138.625 6.82812H138.125ZM136.559 7.73855L136.965 8.53542L137.41 8.30833L137.004 7.51145L136.559 7.73855ZM136.938 8.42188V10.0156H137.438V8.42188H136.938ZM136.939 9.99036L136.533 13.9904L137.03 14.0409L137.436 10.0409L136.939 9.99036ZM136.895 14.2384L137.692 13.8321L137.465 13.3866L136.668 13.7929L136.895 14.2384ZM137.578 13.8594H138.781V13.3594H137.578V13.8594ZM138.531 13.6094C138.531 13.7723 138.443 13.9586 138.178 14.1664C137.911 14.3754 137.492 14.5819 136.905 14.7786C135.733 15.171 133.957 15.5021 131.566 15.7671L131.621 16.2641C134.022 15.9979 135.84 15.6624 137.064 15.2527C137.674 15.0483 138.154 14.8199 138.486 14.5602C138.82 14.2992 139.031 13.9829 139.031 13.6094H138.531ZM131.644 15.7706L129.644 15.3644L129.544 15.8544L131.544 16.2606L131.644 15.7706ZM129.844 15.6094V14.4219H129.344V15.6094H129.844ZM129.594 14.6719H130.797V14.1719H129.594V14.6719ZM130.749 14.6672L132.733 15.0578L132.83 14.5672L130.845 14.1766L130.749 14.6672ZM133.031 14.8125C133.031 14.501 132.962 13.8388 132.83 12.8459C132.697 11.8458 132.497 10.4935 132.231 8.7896L131.737 8.86665C132.003 10.569 132.202 11.9172 132.334 12.9119C132.468 13.9138 132.531 14.5407 132.531 14.8125H133.031ZM131.984 9.07812C132.158 9.07812 132.335 9.03447 132.466 8.90334C132.597 8.77221 132.641 8.59583 132.641 8.42188H132.141C132.141 8.51876 132.117 8.5455 132.112 8.54979C132.108 8.55407 132.081 8.57812 131.984 8.57812V9.07812ZM132.391 8.17188H129.594V8.67188H132.391V8.17188ZM129.844 8.42188V8.03125H129.344V8.42188H129.844ZM129.841 8.06999C129.878 7.83489 129.95 7.69272 130.032 7.61037C130.109 7.5333 130.219 7.48438 130.391 7.48438V6.98438C130.114 6.98438 129.867 7.06826 129.679 7.25682C129.495 7.44009 129.393 7.69636 129.347 7.99251L129.841 8.06999ZM130.391 7.48438C130.49 7.48438 130.518 7.50838 130.522 7.51224C130.524 7.51434 130.547 7.53588 130.547 7.625H131.047C131.047 7.45371 131.002 7.27993 130.869 7.15182C130.737 7.02547 130.562 6.98438 130.391 6.98438V7.48438ZM130.855 7.86808C131.792 7.64318 132.507 7.42701 132.993 7.21793C133.235 7.11394 133.434 7.00593 133.576 6.89055C133.712 6.78065 133.844 6.62507 133.844 6.42188H133.344C133.344 6.39576 133.359 6.42312 133.262 6.50203C133.171 6.57545 133.02 6.6621 132.796 6.75863C132.349 6.95059 131.667 7.15891 130.738 7.38192L130.855 7.86808ZM132.939 8.05661C133.209 10.711 133.344 12.6955 133.344 14.0156H133.844C133.844 12.6691 133.707 10.664 133.436 8.00589L132.939 8.05661ZM133.594 13.7656C133.42 13.7656 133.243 13.8093 133.112 13.9404C132.981 14.0715 132.938 14.2479 132.938 14.4219H133.438C133.438 14.325 133.462 14.2983 133.466 14.294C133.47 14.2897 133.497 14.2656 133.594 14.2656V13.7656ZM133.188 14.6719H134.781V14.1719H133.188V14.6719ZM134.781 14.6719C135.071 14.6719 135.313 14.5346 135.501 14.3049C135.683 14.0827 135.82 13.7691 135.925 13.3862C136.134 12.6187 136.234 11.4901 136.234 10.0156H135.734C135.734 11.4787 135.634 12.5531 135.442 13.2545C135.346 13.6059 135.233 13.8431 135.114 13.9881C135.002 14.1255 134.893 14.1719 134.781 14.1719V14.6719ZM136.234 10.0156V8.03125H135.734V10.0156H136.234ZM135.984 7.78125H133.188V8.28125H135.984V7.78125ZM162.438 3.23438H162.688V2.89529L162.364 2.99555L162.438 3.23438ZM162.047 4.4375L161.823 4.3257L161.794 4.38441L161.797 4.44996L162.047 4.4375ZM162.844 14.8125L163.09 14.8541L163.103 14.7775L163.07 14.7071L162.844 14.8125ZM162.438 17.2188L162.191 17.1771L162.188 17.1978V17.2188H162.438ZM162.438 20L162.288 20.2005L162.688 20.498V20H162.438ZM160.844 18.8125H160.594V18.938L160.694 19.013L160.844 18.8125ZM161.25 16.4062L161.495 16.4535L161.501 16.4244L161.5 16.3947L161.25 16.4062ZM160.844 4.82812L160.6 4.77051L160.594 4.79892V4.82812H160.844ZM150.859 5.625L150.885 5.37628L150.609 5.34832V5.625H150.859ZM154.859 6.03125L154.834 6.27997L154.847 6.28125H154.859V6.03125ZM158.047 6.03125H158.297V5.78125H158.047V6.03125ZM158.047 6.82812L158.083 7.07553L158.297 7.04444V6.82812H158.047ZM155.25 7.23438V7.48438H155.268L155.286 7.48178L155.25 7.23438ZM154.062 7.23438L154.027 7.48178L154.044 7.48438H154.062V7.23438ZM151.266 6.82812L151.302 6.58072L150.955 6.53032L151.02 6.87478L151.266 6.82812ZM157.656 9.625H157.906V9.375H157.656V9.625ZM152.062 10.8281V10.5781H151.812V10.8281H152.062ZM152.062 11.625H151.812V11.6869L151.841 11.7417L152.062 11.625ZM157.656 13.6094V13.8594H157.906V13.6094H157.656ZM158.047 13.2188H158.297V12.9688H158.047V13.2188ZM158.047 14.4219V14.6719H158.297V14.4219H158.047ZM156.859 14.8125V15.0625H157.109V14.8125H156.859ZM150.469 7.625V7.375H150.219V7.625H150.469ZM150.859 7.625V7.875H151.264L151.083 7.5132L150.859 7.625ZM150.062 6.03125V5.78125H149.658L149.839 6.14305L150.062 6.03125ZM162.188 3.23438C162.188 3.45361 162.081 3.81008 161.823 4.3257L162.27 4.5493C162.534 4.02326 162.688 3.57764 162.688 3.23438H162.188ZM161.797 4.44996C161.959 7.68502 162.106 10.1694 162.239 11.902C162.306 12.7679 162.369 13.4486 162.429 13.9422C162.458 14.1888 162.488 14.3917 162.517 14.549C162.545 14.6983 162.576 14.83 162.617 14.9179L163.07 14.7071C163.059 14.683 163.037 14.6087 163.009 14.4578C162.982 14.315 162.954 14.1237 162.925 13.882C162.866 13.3991 162.804 12.7269 162.738 11.8637C162.605 10.1379 162.458 7.65873 162.297 4.42504L161.797 4.44996ZM162.597 14.7709L162.191 17.1771L162.684 17.2604L163.09 14.8541L162.597 14.7709ZM162.188 17.2188V20H162.688V17.2188H162.188ZM162.587 19.7995L160.993 18.612L160.694 19.013L162.288 20.2005L162.587 19.7995ZM161.094 18.8125C161.094 18.7393 161.123 18.5133 161.192 18.1041C161.259 17.7059 161.36 17.156 161.495 16.4535L161.005 16.359C160.869 17.0628 160.767 17.6171 160.699 18.0209C160.632 18.4138 160.594 18.6877 160.594 18.8125H161.094ZM161.5 16.3947C161.229 10.5498 161.094 6.69631 161.094 4.82812H160.594C160.594 6.70994 160.729 10.5752 161 16.4178L161.5 16.3947ZM161.087 4.88574C161.251 4.19245 161.708 3.72181 162.511 3.4732L162.364 2.99555C161.417 3.28861 160.811 3.88047 160.6 4.77051L161.087 4.88574ZM150.834 5.87372L154.834 6.27997L154.885 5.78253L150.885 5.37628L150.834 5.87372ZM154.859 6.28125H158.047V5.78125H154.859V6.28125ZM157.797 6.03125V6.82812H158.297V6.03125H157.797ZM158.011 6.58072L155.214 6.98697L155.286 7.48178L158.083 7.07553L158.011 6.58072ZM155.25 6.98438H154.062V7.48438H155.25V6.98438ZM154.098 6.98697L151.302 6.58072L151.23 7.07553L154.027 7.48178L154.098 6.98697ZM151.02 6.87478C151.198 7.81222 151.389 8.53239 151.598 9.02349C151.702 9.26816 151.816 9.47116 151.946 9.6168C152.077 9.76306 152.246 9.875 152.453 9.875V9.375C152.441 9.375 152.397 9.37041 152.319 9.28359C152.241 9.19616 152.152 9.04955 152.058 8.82808C151.871 8.38688 151.687 7.70862 151.511 6.78147L151.02 6.87478ZM152.453 9.875H157.656V9.375H152.453V9.875ZM157.406 9.625V10.0156H157.906V9.625H157.406ZM157.406 10.0156C157.406 10.2491 157.349 10.3781 157.279 10.4499C157.209 10.5209 157.085 10.5781 156.859 10.5781V11.0781C157.165 11.0781 157.439 10.9999 157.636 10.8001C157.831 10.6011 157.906 10.3238 157.906 10.0156H157.406ZM156.859 10.5781H152.062V11.0781H156.859V10.5781ZM151.812 10.8281V11.625H152.312V10.8281H151.812ZM151.841 11.7417C152.228 12.4746 152.929 13.0041 153.901 13.3489C154.87 13.6928 156.126 13.8594 157.656 13.8594V13.3594C156.156 13.3594 154.963 13.1952 154.068 12.8777C153.175 12.561 152.595 12.0983 152.284 11.5083L151.841 11.7417ZM157.906 13.6094C157.906 13.5177 157.929 13.4949 157.931 13.4932C157.932 13.4915 157.955 13.4688 158.047 13.4688V12.9688C157.878 12.9688 157.706 13.0111 157.577 13.1396C157.449 13.2682 157.406 13.4406 157.406 13.6094H157.906ZM157.797 13.2188V14.4219H158.297V13.2188H157.797ZM158.047 14.1719C157.644 14.1719 157.315 14.2042 157.078 14.2821C156.849 14.3573 156.609 14.5143 156.609 14.8125H157.109C157.109 14.8121 157.109 14.813 157.109 14.8149C157.109 14.8167 157.108 14.8187 157.107 14.8205C157.105 14.8247 157.104 14.8242 157.109 14.8195C157.121 14.8079 157.155 14.783 157.234 14.757C157.394 14.7046 157.658 14.6719 158.047 14.6719V14.1719ZM156.859 14.5625C154.76 14.5625 153.232 14.1024 152.231 13.2259C151.236 12.3551 150.719 11.0355 150.719 9.21875H150.219C150.219 11.1312 150.766 12.6085 151.902 13.6022C153.031 14.5903 154.698 15.0625 156.859 15.0625V14.5625ZM150.719 9.21875V7.625H150.219V9.21875H150.719ZM150.469 7.875H150.859V7.375H150.469V7.875ZM151.083 7.5132L150.286 5.91945L149.839 6.14305L150.636 7.7368L151.083 7.5132ZM150.062 6.28125C150.341 6.28125 150.588 6.24706 150.774 6.15241C150.87 6.10325 150.957 6.03429 151.019 5.93955C151.082 5.84347 151.109 5.73547 151.109 5.625H150.609C150.609 5.64995 150.604 5.66044 150.6 5.66592C150.596 5.67274 150.583 5.68842 150.547 5.70696C150.467 5.74773 150.315 5.78125 150.062 5.78125V6.28125Z" fill="#222222"/>
</svg>
