<svg width="146" height="25" viewBox="0 0 146 25" fill="none" xmlns="http://www.w3.org/2000/svg">
<path d="M6.47461 4.40527C7.08333 4.40527 7.3877 4.76221 7.3877 5.47607C7.3877 6.09033 6.00977 6.39746 3.25391 6.39746H3.10449C2.83333 6.39746 2.57601 6.1429 2.33252 5.63379C2.33252 4.93652 3.71322 4.52702 6.47461 4.40527ZM11.6792 5.16895C13.7212 5.53418 14.7422 6.04606 14.7422 6.70459C14.6426 7.75049 14.5928 8.56673 14.5928 9.15332L15.0493 9.46045H16.4272C16.9364 9.46045 17.3957 9.71501 17.8052 10.2241V10.8384C17.8052 10.9491 17.5506 11.1538 17.0415 11.4526L15.9707 11.3032H14.8916C14.5872 11.4028 14.4351 11.7072 14.4351 12.2163V15.2793C14.4351 16.0208 14.1279 16.4303 13.5137 16.5078C12.9049 16.3307 12.6006 15.8714 12.6006 15.1299C12.6006 13.7188 12.6504 11.0625 12.75 7.16113C11.859 7.16113 11.195 6.70182 10.7578 5.7832C10.863 5.3737 11.1701 5.16895 11.6792 5.16895ZM7.85254 8.23193C8.77116 8.38688 9.23047 8.74658 9.23047 9.31104C9.02572 9.91976 8.46403 10.2241 7.54541 10.2241H6.62402C5.28483 10.2241 3.54997 10.3265 1.41943 10.5312C0.998861 10.3929 0.691732 10.1383 0.498047 9.76758V9.15332C0.498047 8.73828 2.94954 8.43115 7.85254 8.23193ZM5.24609 11.3032H5.70264C6.76514 11.3032 7.48177 12.0669 7.85254 13.5942V14.2085C7.37109 15.9461 6.45247 16.8149 5.09668 16.8149C3.59147 16.8149 2.57048 15.9987 2.03369 14.3662V13.4448C2.03369 12.0171 3.10449 11.3032 5.24609 11.3032ZM3.56104 14.0591V14.2085C3.82113 14.7176 4.23063 14.9722 4.78955 14.9722C5.56429 14.9722 6.0236 14.4631 6.16748 13.4448C6.16748 12.9357 5.91016 12.6812 5.39551 12.6812C4.17253 12.6812 3.56104 13.1405 3.56104 14.0591ZM6.93115 17.8857H7.69482C8.08219 17.8857 8.43913 19.0589 8.76562 21.4053L14.1279 21.0981C14.7422 21.3638 15.0493 21.7235 15.0493 22.1772C15.0493 22.8302 12.8524 23.237 8.4585 23.3975C8.4585 23.5026 8.15413 23.5552 7.54541 23.5552C6.83154 23.2508 6.47461 21.4634 6.47461 18.1929L6.93115 17.8857ZM35.2456 3.02734H35.8599C38.1066 3.84635 39.23 4.71517 39.23 5.63379L39.0806 5.94092C39.0806 6.14014 39.1304 6.23975 39.23 6.23975C39.0252 8.2098 38.873 11.2756 38.7734 15.437H38.9229L38.7734 15.7441V19.106C38.5798 19.4767 38.2726 19.734 37.8521 19.8779C37.3097 19.8779 36.9002 19.4684 36.6235 18.6494C36.7287 16.7679 36.7812 15.1852 36.7812 13.9014V13.1377C34.8776 13.3424 33.4997 13.4448 32.6475 13.4448C32.1328 13.2733 31.8755 13.016 31.8755 12.6729H31.5684C30.3841 14.001 29.1086 14.665 27.7417 14.665C24.8807 14.1338 23.4502 12.8084 23.4502 10.689C23.3506 10.689 23.3008 10.4316 23.3008 9.91699C23.3008 8.30664 24.1696 7.18327 25.9072 6.54688L27.4346 6.39746H28.1982C29.2718 6.39746 30.2956 7.00895 31.2695 8.23193V8.38965H31.5684C31.5684 8.10742 32.7941 7.85286 35.2456 7.62598C35.8101 7.72559 36.2196 7.77539 36.4741 7.77539C36.6512 7.67578 36.856 7.62598 37.0884 7.62598V6.23975C37.0884 6.14014 37.1382 6.09033 37.2378 6.09033C37.2378 5.81917 36.5239 5.20768 35.0962 4.25586C34.991 4.07324 34.9385 3.86849 34.9385 3.6416V3.33447C34.9717 3.12972 35.0741 3.02734 35.2456 3.02734ZM25.1353 10.3818C25.5724 11.9092 26.3389 12.6729 27.4346 12.6729C27.6338 12.778 27.7887 12.8306 27.8994 12.8306C29.5319 12.1333 30.3481 11.3171 30.3481 10.3818C30.3481 9.33594 29.6315 8.51693 28.1982 7.9248C26.5381 7.9248 25.5171 8.64144 25.1353 10.0747V10.3818ZM32.1826 10.0747C32.083 10.2518 32.0332 10.4565 32.0332 10.689V11.2949C32.0664 11.4997 32.1688 11.6021 32.3403 11.6021C35.4006 11.4858 36.9307 11.1815 36.9307 10.689V9.91699C36.9307 9.71224 36.8283 9.60986 36.6235 9.60986H36.0176C34.7393 9.60986 33.4609 9.76481 32.1826 10.0747ZM41.542 3.81592C43.0859 3.91553 44.5137 3.96533 45.8252 3.96533H46.896C47.632 3.96533 48.0415 4.27246 48.1245 4.88672C48.1245 7.53743 47.7676 8.86279 47.0537 8.86279C46.1849 9.16715 44.4998 9.42171 41.9985 9.62646C42.2752 10.8494 42.6322 11.4609 43.0693 11.4609C45.5208 10.8522 46.9486 10.5479 47.3525 10.5479C47.8229 10.7415 48.0802 10.9435 48.1245 11.1538V11.4609C48.1245 12.2799 47.4106 12.6895 45.9829 12.6895C45.9829 12.8112 44.8097 13.1156 42.4634 13.6025C41.7495 13.6025 40.9333 12.2274 40.0146 9.47705C39.9095 8.9126 39.8569 8.50309 39.8569 8.24854L40.3218 7.94141H42.1562C44.3034 7.94141 45.5789 7.58447 45.9829 6.87061V5.95752C45.9829 5.75277 45.8805 5.65039 45.6758 5.65039H41.0854C40.8807 5.65039 40.5238 5.24089 40.0146 4.42188C40.1143 4.22819 40.1641 4.07601 40.1641 3.96533C40.7064 3.96533 41.1657 3.91553 41.542 3.81592ZM48.7305 13.146C49.2396 13.146 49.6491 13.4006 49.959 13.9097V14.0674C49.959 14.9805 48.7332 15.437 46.2817 15.437C44.45 15.6418 42.563 15.9489 40.6206 16.3584C39.9455 16.0817 39.5387 15.7746 39.4004 15.437V14.8311C40.2028 14.4492 43.3128 13.8875 48.7305 13.146ZM47.2031 16.3584H47.6597C48.3735 16.3584 48.7305 16.613 48.7305 17.1221C48.7305 17.6755 48.8328 18.9012 49.0376 20.7993C48.6558 21.2476 47.6375 21.6045 45.9829 21.8701C45.9829 22.0251 45.471 22.1772 44.4473 22.3267C43.5231 22.3267 42.9116 20.6942 42.6128 17.4292V17.2798C43.0942 17.075 44.6243 16.7679 47.2031 16.3584ZM44.7544 18.9565C44.8595 19.6704 45.0117 20.0273 45.2109 20.0273H45.3687C46.3869 19.9056 46.896 19.7036 46.896 19.4214V18.3506H46.7466C45.4185 18.4945 44.7544 18.6965 44.7544 18.9565ZM62.6885 3.01904C63.3359 3.01904 64.0526 3.68311 64.8384 5.01123C65.8621 5.34326 66.374 6.05713 66.374 7.15283C66.5732 9.6486 66.6729 11.0293 66.6729 11.2949C66.4736 14.5654 66.374 17.4264 66.374 19.8779V20.1851C66.374 20.3455 66.1693 20.5503 65.7598 20.7993H65.6021C65.0487 20.7993 64.6392 20.542 64.3735 20.0273C64.3735 19.1696 64.4759 16.1038 64.6807 10.8301C64.6807 8.01888 64.2739 6.4362 63.4604 6.08203C62.5363 5.10254 62.0742 4.3361 62.0742 3.78271V3.47559C62.0742 3.22103 62.279 3.06885 62.6885 3.01904ZM56.5625 5.01123C58.1286 5.01123 59.3543 5.92985 60.2397 7.76709V8.83789C60.2397 10.9131 59.1662 12.2938 57.019 12.98H56.2554C54.6118 12.98 53.0264 12.2633 51.499 10.8301C51.2943 10.4593 51.1919 10.0526 51.1919 9.60986C51.3966 8.32601 52.0109 7.19987 53.0347 6.23145C54.158 5.41797 55.334 5.01123 56.5625 5.01123ZM53.1841 9.91699C53.4774 10.4316 54.5011 10.891 56.2554 11.2949C57.6831 10.8079 58.397 9.88656 58.397 8.53076V8.22363C58.397 7.33268 57.7329 6.82357 56.4048 6.69629C54.2576 7.10026 53.1841 8.17383 53.1841 9.91699ZM63.1533 14.3579C63.6182 14.5571 63.8727 14.7619 63.917 14.9722V15.4287C63.917 16.0762 62.2319 16.4359 58.8618 16.5078C58.1978 16.5078 57.174 16.4552 55.7905 16.3501C53.0513 16.5549 51.3662 16.6572 50.7354 16.6572C50.7354 16.6019 50.5306 16.3473 50.1211 15.8936V15.4287C50.1211 14.9915 51.7563 14.6872 55.0269 14.5156C56.2775 14.6152 57.5033 14.665 58.7041 14.665H59.0112C59.8081 14.665 61.1888 14.5627 63.1533 14.3579ZM82.561 0.75293H84.2461C84.4066 0.75293 84.6113 0.957682 84.8604 1.36719V1.82373C84.8604 2.57633 84.8078 3.13802 84.7026 3.50879C84.8078 4.17839 84.8604 4.83968 84.8604 5.49268V7.17773C84.6943 7.58724 84.3374 7.79199 83.7896 7.79199C83.1753 7.79199 82.8682 6.56624 82.8682 4.11475V3.35107L83.0259 2.5874L82.7188 2.43799H82.4116C82.2954 2.43799 81.7337 2.54036 80.7266 2.74512H80.27C79.451 2.66764 79.0415 2.31071 79.0415 1.67432C79.0415 1.29248 80.2147 0.985352 82.561 0.75293ZM77.0576 1.36719C77.6663 1.52767 77.9707 1.83203 77.9707 2.28027C78.4854 5.58952 78.7427 7.52913 78.7427 8.09912C78.3664 8.40348 78.0094 8.55566 77.6719 8.55566C76.9691 8.55566 76.5596 7.12793 76.4434 4.27246L75.9868 3.20166L73.0815 3.50879C72.661 3.36491 72.3538 3.11035 72.1602 2.74512V2.28027C72.1602 1.8763 73.7926 1.57194 77.0576 1.36719ZM84.7026 8.86279C86.3351 9.03988 87.1514 9.39681 87.1514 9.93359C87.1182 10.1715 86.8138 10.5285 86.2383 11.0044C85.6738 10.8993 85.2643 10.8467 85.0098 10.8467C84.3346 10.8467 83.2638 11.0016 81.7974 11.3115V11.9175C81.7974 12.3657 81.8997 12.7752 82.1045 13.146C82.1045 13.2843 81.8997 13.6413 81.4902 14.2168V14.3662H81.9551C82.4365 14.3662 82.9456 14.3164 83.4824 14.2168C84.5007 14.3496 85.0098 14.8089 85.0098 15.5947L84.8604 16.3584L85.0098 16.9727C85.0098 17.9909 84.0413 18.5 82.1045 18.5C79.6585 18.7048 78.4355 18.9593 78.4355 19.2637C78.4355 19.8779 78.6375 20.1851 79.0415 20.1851C82.0464 19.8807 83.6789 19.7285 83.939 19.7285C84.5754 19.9333 84.9323 20.1878 85.0098 20.4922V20.9487C85.0098 21.3029 84.4508 21.5575 83.333 21.7124C83.2279 21.7124 83.1753 21.6626 83.1753 21.563C80.6961 21.8674 78.8617 22.0195 77.6719 22.0195C77.1572 21.6488 76.6979 20.4258 76.2939 18.3506C76.2939 17.7363 77.0078 17.4292 78.4355 17.4292C79.249 17.2244 80.7791 16.9699 83.0259 16.6655V16.209C82.9152 16.209 82.7603 16.1564 82.561 16.0513C80.5246 16.256 78.5877 16.3584 76.7505 16.3584C76.341 15.9489 76.1362 15.6418 76.1362 15.437C76.1362 14.8283 77.5142 14.5239 80.27 14.5239C80.4471 14.4188 80.6519 14.3662 80.8843 14.3662C80.3862 13.9014 80.0293 12.9329 79.8135 11.4609H77.0576C76.4655 11.4609 75.6493 11.5135 74.6089 11.6187C74.3709 11.5799 74.014 11.2728 73.5381 10.6973C73.5381 9.9834 75.118 9.62646 78.2778 9.62646C80.104 9.62646 82.2456 9.37191 84.7026 8.86279ZM98.6606 3.31787C100.575 4.24202 101.646 4.7041 101.873 4.7041C102.283 5.05827 102.487 5.4152 102.487 5.7749V7.76709C102.521 7.97184 102.623 8.07422 102.794 8.07422H104.479C105.299 8.15169 105.708 8.50863 105.708 9.14502C105.553 9.55452 105.401 9.75928 105.251 9.75928H103.102L102.338 9.91699C102.271 13.7962 102.014 15.7358 101.566 15.7358H100.96C100.445 15.5034 100.188 15.0441 100.188 14.3579C100.188 11.7183 100.29 9.93083 100.495 8.99561C100.495 8.89046 100.445 8.83789 100.346 8.83789L100.495 7.76709V6.23145C100.495 6.1263 99.7287 5.66699 98.1958 4.85352L97.8887 4.39697V3.47559L98.6606 3.31787ZM94.3608 5.61719C94.4992 5.61719 94.7565 5.87451 95.1328 6.38916C95.1328 6.96468 94.3138 8.49756 92.6758 10.9878L96.3613 13.4365L96.5107 13.7437L96.3613 14.5156H95.5894C95.0858 14.5156 93.7576 13.799 91.605 12.3657H91.4556C89.9338 13.5942 88.8602 14.2085 88.2349 14.2085C87.8254 14.2085 87.5182 14.0037 87.3135 13.5942V13.4365C87.3135 12.8555 87.9277 12.3464 89.1562 11.9092C91.403 9.59603 92.5264 8.06315 92.5264 7.31055H92.3687C92.092 7.31055 90.9188 7.41292 88.8491 7.61768C88.578 7.58447 88.3206 7.32715 88.0771 6.8457C88.0771 6.02669 89.6626 5.61719 92.8335 5.61719H94.3608ZM99.2666 16.9644C99.986 17.2189 100.346 17.6284 100.346 18.1929V23.4058C100.346 23.9315 100.191 24.2358 99.8809 24.3188H99.1172C98.6081 24.0588 98.3535 23.652 98.3535 23.0986V19.2637L98.1958 18.9565C96.508 19.0617 95.2297 19.1143 94.3608 19.1143H91.2979C90.6891 19.1143 90.2796 18.8071 90.0693 18.1929C90.2132 17.6782 90.5729 17.4209 91.1484 17.4209C93.0798 17.4209 95.7858 17.2687 99.2666 16.9644ZM120.376 3.35107C122.313 3.57796 123.281 3.98747 123.281 4.57959V8.09912C123.314 8.30387 123.417 8.40625 123.588 8.40625C123.837 8.40625 124.654 8.2513 126.037 7.94141C126.646 8.20703 126.95 8.56396 126.95 9.01221C126.95 9.54899 125.78 10.0609 123.439 10.5479C123.439 10.6475 123.386 10.6973 123.281 10.6973C123.386 11.0791 123.489 12.3547 123.588 14.5239C123.422 15.033 123.115 15.2876 122.667 15.2876C121.854 15.2876 121.447 13.6053 121.447 10.2407V9.93359C121.447 9.59049 121.394 9.33594 121.289 9.16992L121.447 8.24854V7.33545L121.289 6.41406C121.394 6.23698 121.447 6.03223 121.447 5.7998C121.447 5.55078 120.938 5.24642 119.919 4.88672L119.762 4.11475V3.81592C119.762 3.66097 119.966 3.50602 120.376 3.35107ZM118.234 5.7998C118.622 5.89388 118.926 6.25081 119.147 6.87061C119.048 8.22087 118.998 9.34424 118.998 10.2407C118.998 10.4842 119.048 11.2479 119.147 12.5317C118.777 12.8416 118.42 12.9966 118.077 12.9966C117.877 12.9966 117.778 12.944 117.778 12.8389L116.707 12.9966H113.951L113.03 13.146C111.807 13.146 111.195 12.0226 111.195 9.77588V8.24854C111.195 6.8208 111.502 6.10693 112.117 6.10693C112.449 6.31169 112.753 6.41406 113.03 6.41406C115.337 6.00456 117.072 5.7998 118.234 5.7998ZM113.03 8.70508L113.188 10.5479V11.0044C113.215 11.2091 113.315 11.3115 113.486 11.3115H116.242C116.519 11.3115 116.826 11.2091 117.164 11.0044L117.006 10.2407V8.09912L116.856 7.79199C114.482 8.17383 113.207 8.47819 113.03 8.70508ZM115.786 14.6733H116.549C117.164 14.6733 117.471 15.7967 117.471 18.0435V18.5L117.62 18.8071C118.638 18.7075 119.405 18.6577 119.919 18.6577H121.596C122.111 18.6577 122.468 18.9123 122.667 19.4214V19.8779C122.667 20.387 121.342 20.6416 118.691 20.6416C118.691 20.8464 118.03 20.9487 116.707 20.9487C115.888 20.9487 115.479 19.7257 115.479 17.2798C115.479 17.0308 115.429 16.2643 115.329 14.9805L115.786 14.6733ZM131.553 4.86182H134.002C134.555 4.86182 134.915 5.06657 135.081 5.47607V6.09033C135.081 6.24528 134.876 6.39746 134.467 6.54688L133.396 6.39746C132.693 6.49707 132.132 6.54688 131.711 6.54688C131.174 6.54688 130.715 6.24251 130.333 5.63379V5.32666C130.394 5.01676 130.801 4.86182 131.553 4.86182ZM139.829 5.7832H140.128C142.275 6.01009 143.349 6.36702 143.349 6.854C143.448 10.5783 143.551 12.7752 143.656 13.4448H145.183C145.344 13.4448 145.548 13.6496 145.797 14.0591V14.5156C145.797 14.8255 145.083 15.0801 143.656 15.2793V15.437C143.755 17.3185 143.805 18.9012 143.805 20.1851V20.791C143.805 20.9515 143.603 21.1562 143.199 21.4053C142.38 21.3278 141.971 20.9709 141.971 20.3345C141.766 11.757 141.561 7.46826 141.356 7.46826C140.604 7.46826 139.992 7.11133 139.522 6.39746V6.09033C139.55 5.88558 139.652 5.7832 139.829 5.7832ZM137.223 8.08252C137.837 8.32048 138.144 8.67741 138.144 9.15332C138.144 9.66243 136.714 9.91699 133.853 9.91699H128.341C127.522 9.79525 127.112 9.49089 127.112 9.00391C127.112 8.48926 128.133 8.23193 130.175 8.23193H136.301L137.223 8.08252ZM133.089 11.4526C135.74 11.8511 137.065 12.8195 137.065 14.3579C137.065 15.8133 136.097 16.8869 134.16 17.5786H134.002C134.002 18.8016 134.259 19.4131 134.774 19.4131C136.528 19.3135 137.549 19.2637 137.837 19.2637C138.302 19.4629 138.556 19.6676 138.601 19.8779V20.3345C138.601 20.9598 136.559 21.3167 132.475 21.4053C132.475 21.5104 131.708 21.563 130.175 21.563C129.124 21.563 128.357 21.2061 127.876 20.4922C128.02 19.9775 128.377 19.7202 128.947 19.7202H131.86L132.624 19.5708C132.624 18.0379 132.369 17.2715 131.86 17.2715C130.228 16.7126 129.412 15.7414 129.412 14.3579C129.412 13.1349 129.973 12.5234 131.097 12.5234C131.097 12.0475 131.761 11.6906 133.089 11.4526ZM131.097 14.5156V14.8228C131.097 15.2599 131.606 15.6169 132.624 15.8936H133.545C134.669 15.6611 135.23 15.0994 135.23 14.2085V13.9014C134.871 13.2871 134.411 12.98 133.853 12.98H133.238C132.563 12.98 131.849 13.4919 131.097 14.5156Z" fill="#222222"/>
</svg>
