<svg width="108" height="22" viewBox="0 0 108 22" fill="none" xmlns="http://www.w3.org/2000/svg">
<path d="M9.67871 0.351074C11.6156 0.577962 12.584 0.987467 12.584 1.57959V5.09912C12.6172 5.30387 12.7196 5.40625 12.8911 5.40625C13.1401 5.40625 13.9564 5.2513 15.3398 4.94141C15.9486 5.20703 16.2529 5.56396 16.2529 6.01221C16.2529 6.54899 15.0825 7.06087 12.7417 7.54785C12.7417 7.64746 12.6891 7.69727 12.584 7.69727C12.6891 8.0791 12.7915 9.35465 12.8911 11.5239C12.7251 12.033 12.418 12.2876 11.9697 12.2876C11.1562 12.2876 10.7495 10.6053 10.7495 7.24072V6.93359C10.7495 6.59049 10.6969 6.33594 10.5918 6.16992L10.7495 5.24854V4.33545L10.5918 3.41406C10.6969 3.23698 10.7495 3.03223 10.7495 2.7998C10.7495 2.55078 10.2404 2.24642 9.22217 1.88672L9.06445 1.11475V0.815918C9.06445 0.66097 9.26921 0.506022 9.67871 0.351074ZM7.53711 2.7998C7.92448 2.89388 8.22884 3.25081 8.4502 3.87061C8.35059 5.22087 8.30078 6.34424 8.30078 7.24072C8.30078 7.48421 8.35059 8.24788 8.4502 9.53174C8.07943 9.84163 7.72249 9.99658 7.37939 9.99658C7.18018 9.99658 7.08057 9.94401 7.08057 9.83887L6.00977 9.99658H3.25391L2.33252 10.146C1.10954 10.146 0.498047 9.02262 0.498047 6.77588V5.24854C0.498047 3.8208 0.805176 3.10693 1.41943 3.10693C1.75146 3.31169 2.05583 3.41406 2.33252 3.41406C4.64014 3.00456 6.375 2.7998 7.53711 2.7998ZM2.33252 5.70508L2.49023 7.54785V8.00439C2.5179 8.20915 2.61751 8.31152 2.78906 8.31152H5.54492C5.82161 8.31152 6.12874 8.20915 6.46631 8.00439L6.30859 7.24072V5.09912L6.15918 4.79199C3.78516 5.17383 2.5096 5.47819 2.33252 5.70508ZM5.08838 11.6733H5.85205C6.46631 11.6733 6.77344 12.7967 6.77344 15.0435V15.5L6.92285 15.8071C7.94108 15.7075 8.70752 15.6577 9.22217 15.6577H10.8989C11.4136 15.6577 11.7705 15.9123 11.9697 16.4214V16.8779C11.9697 17.387 10.6444 17.6416 7.99365 17.6416C7.99365 17.8464 7.33236 17.9487 6.00977 17.9487C5.19076 17.9487 4.78125 16.7257 4.78125 14.2798C4.78125 14.0308 4.73145 13.2643 4.63184 11.9805L5.08838 11.6733ZM20.856 1.86182H23.3047C23.8581 1.86182 24.2178 2.06657 24.3838 2.47607V3.09033C24.3838 3.24528 24.179 3.39746 23.7695 3.54688L22.6987 3.39746C21.9959 3.49707 21.4342 3.54688 21.0137 3.54688C20.4769 3.54688 20.0176 3.24251 19.6357 2.63379V2.32666C19.6966 2.01676 20.1034 1.86182 20.856 1.86182ZM29.1318 2.7832H29.4307C31.5778 3.01009 32.6514 3.36702 32.6514 3.854C32.751 7.57829 32.8534 9.77523 32.9585 10.4448H34.4858C34.6463 10.4448 34.8511 10.6496 35.1001 11.0591V11.5156C35.1001 11.8255 34.3862 12.0801 32.9585 12.2793V12.437C33.0581 14.3185 33.1079 15.9012 33.1079 17.1851V17.791C33.1079 17.9515 32.9059 18.1562 32.502 18.4053C31.6829 18.3278 31.2734 17.9709 31.2734 17.3345C31.0687 8.757 30.8639 4.46826 30.6592 4.46826C29.9066 4.46826 29.2951 4.11133 28.8247 3.39746V3.09033C28.8524 2.88558 28.9548 2.7832 29.1318 2.7832ZM26.5254 5.08252C27.1396 5.32048 27.4468 5.67741 27.4468 6.15332C27.4468 6.66243 26.0163 6.91699 23.1553 6.91699H17.6436C16.8245 6.79525 16.415 6.49089 16.415 6.00391C16.415 5.48926 17.436 5.23193 19.478 5.23193H25.604L26.5254 5.08252ZM22.3916 8.45264C25.0423 8.85107 26.3677 9.8195 26.3677 11.3579C26.3677 12.8133 25.3993 13.8869 23.4624 14.5786H23.3047C23.3047 15.8016 23.562 16.4131 24.0767 16.4131C25.8309 16.3135 26.8519 16.2637 27.1396 16.2637C27.6045 16.4629 27.859 16.6676 27.9033 16.8779V17.3345C27.9033 17.9598 25.8613 18.3167 21.7773 18.4053C21.7773 18.5104 21.0109 18.563 19.478 18.563C18.4266 18.563 17.6602 18.2061 17.1787 17.4922C17.3226 16.9775 17.6795 16.7202 18.2495 16.7202H21.1631L21.9268 16.5708C21.9268 15.0379 21.6722 14.2715 21.1631 14.2715C19.5306 13.7126 18.7144 12.7414 18.7144 11.3579C18.7144 10.1349 19.276 9.52344 20.3994 9.52344C20.3994 9.04753 21.0635 8.69059 22.3916 8.45264ZM20.3994 11.5156V11.8228C20.3994 12.2599 20.9085 12.6169 21.9268 12.8936H22.8481C23.9715 12.6611 24.5332 12.0994 24.5332 11.2085V10.9014C24.1735 10.2871 23.7142 9.97998 23.1553 9.97998H22.541C21.8659 9.97998 21.152 10.4919 20.3994 11.5156ZM50.8638 1.24756C51.0962 1.76221 51.2484 2.01953 51.3203 2.01953C51.3203 2.67253 50.4017 3.02946 48.5645 3.09033L48.4067 3.39746C48.9878 5.5446 49.3475 6.61816 49.4858 6.61816C50.1167 6.41341 50.6258 6.31104 51.0132 6.31104C51.5278 6.51579 51.7852 6.82015 51.7852 7.22412C51.7852 7.81071 50.7116 8.22021 48.5645 8.45264C46.279 9.1665 44.439 9.52344 43.0444 9.52344C42.3306 9.38509 41.9736 9.18034 41.9736 8.90918V8.61035C41.9736 8.24512 42.9946 7.88542 45.0366 7.53125V7.38184C45.0366 6.61816 44.5275 5.49479 43.5093 4.01172L41.9736 4.31885C41.3317 4.18604 40.8724 3.92871 40.5957 3.54688C40.5957 2.66699 44.0184 1.90055 50.8638 1.24756ZM45.5015 3.70459L46.8794 7.07471H47.1865C47.3913 7.07471 47.4937 6.97233 47.4937 6.76758C47.1118 4.52083 46.7521 3.39746 46.4146 3.39746H46.2651C45.756 3.42513 45.5015 3.52751 45.5015 3.70459ZM46.4146 9.21631C47.1727 9.21631 47.7371 9.98275 48.1079 11.5156H48.2573C51.1239 10.8018 52.8089 10.4448 53.3125 10.4448C53.9268 10.6828 54.2339 10.8875 54.2339 11.0591V11.6733C54.2339 11.9777 53.1105 12.2821 50.8638 12.5864L42.1313 14.5786C41.4119 14.5786 41.0522 14.3241 41.0522 13.8149C41.0522 13.2173 42.3306 12.7082 44.8872 12.2876C45.8058 12.0607 46.2651 11.856 46.2651 11.6733C46.0604 10.8543 45.958 10.1903 45.958 9.68115C46.1074 9.68115 46.2596 9.5262 46.4146 9.21631ZM50.8638 14.2798C51.2843 14.4181 51.5915 14.6727 51.7852 15.0435V17.7993C51.7852 17.9985 51.8848 18.5104 52.084 19.335C52.084 19.7223 51.1654 20.0267 49.3281 20.248C47.8395 20.8623 46.8683 21.1694 46.4146 21.1694H45.8086C45.3604 21.1694 44.8485 19.5868 44.2729 16.4214C44.4777 16.0894 44.5801 15.8348 44.5801 15.6577H44.8872L45.958 15.9648C48.7969 14.8415 50.4321 14.2798 50.8638 14.2798ZM46.4146 17.4922V17.957C46.4146 18.2116 46.5169 18.6709 46.7217 19.335C48.9684 18.8978 50.0918 18.4883 50.0918 18.1064V17.0356L49.9424 16.272H49.793C49.5163 16.272 48.3901 16.6787 46.4146 17.4922ZM70.4624 1.39697C70.5399 1.39697 71.5609 1.95866 73.5254 3.08203C73.4258 11.1559 73.221 15.1929 72.9111 15.1929L72.1475 15.3423H71.9897C71.381 14.9937 71.0767 14.5869 71.0767 14.1221C71.2759 12.3623 71.3755 10.929 71.3755 9.82227V6.75928C71.3755 6.16715 71.4281 5.35091 71.5332 4.31055C71.4447 3.93978 70.7806 3.4279 69.541 2.7749L69.3833 2.01123C69.5493 1.60173 69.909 1.39697 70.4624 1.39697ZM67.6982 3.53857L68.1631 4.15283V4.76709C68.1631 9.16097 67.856 11.3579 67.2417 11.3579C63.9712 11.6955 62.3359 11.9002 62.3359 11.9722C60.8031 11.7287 60.0366 11.2168 60.0366 10.4365C60.0366 8.80404 59.9342 7.57829 59.7295 6.75928C59.7295 6.65967 59.7793 6.60986 59.8789 6.60986L59.7295 5.83789V5.22363C59.7295 4.41016 60.5983 4.00342 62.3359 4.00342C63.0996 3.79867 64.887 3.64372 67.6982 3.53857ZM65.5566 5.53076H65.3989C63.5229 5.53076 62.2972 5.78809 61.7217 6.30273L61.8794 6.60986V8.13721L62.0288 9.97998C64.5854 9.97998 65.8638 9.72542 65.8638 9.21631C65.9634 8.88981 66.0132 7.6613 66.0132 5.53076C65.9136 5.53076 65.8638 5.48096 65.8638 5.38135L65.5566 5.53076ZM78.5933 0.475586H78.9004C79.1715 0.475586 79.4787 1.24202 79.8218 2.7749L80.5854 2.62549H80.8926C81.6064 2.62549 81.9634 2.98242 81.9634 3.69629V3.8457C81.255 5.16829 80.4886 6.39404 79.6641 7.52295V7.83008C81.4017 8.77083 82.2705 9.58984 82.2705 10.2871V10.4365C82.2705 10.5417 82.0658 10.6966 81.6562 10.9014L79.3569 9.52344C78.8478 9.21354 78.4909 9.05859 78.2861 9.05859C76.5485 10.2871 75.5275 10.9014 75.2231 10.9014C74.5037 10.6191 74.144 10.2096 74.144 9.67285C74.4263 9.39616 75.2453 8.88428 76.6011 8.13721C77.4754 7.23519 78.2917 6.21419 79.0498 5.07422V4.76709L74.6089 5.23193C73.9946 5.01611 73.6875 4.60661 73.6875 4.00342C74.4401 3.53857 75.4113 3.28125 76.6011 3.23145H77.5225C77.6663 3.23145 77.8185 3.07926 77.979 2.7749C77.8794 1.86735 77.777 1.30566 77.6719 1.08984C77.777 0.680339 78.0841 0.475586 78.5933 0.475586ZM85.7983 0.475586C87.6356 1.04004 88.5542 1.55192 88.5542 2.01123V4.15283C88.759 7.81624 88.8613 9.861 88.8613 10.2871V10.5942C88.8613 11.2085 88.5542 11.5156 87.9399 11.5156C87.3312 11.5156 87.0269 10.799 87.0269 9.36572V8.60205C87.0269 8.45264 86.8719 8.29769 86.562 8.13721C85.8979 8.13721 84.877 8.18978 83.499 8.29492C82.9899 7.89648 82.7354 7.48698 82.7354 7.06641C83.2555 6.68457 84.5837 6.37744 86.7197 6.14502V5.68848C86.7197 5.48372 86.6174 5.38135 86.4126 5.38135C85.3888 5.48096 84.6224 5.53076 84.1133 5.53076C83.6927 5.39242 83.3856 5.13786 83.1919 4.76709V4.15283C83.7508 3.94808 84.8742 3.74333 86.562 3.53857L86.7197 3.23145C86.7197 2.72233 86.158 2.11084 85.0347 1.39697V0.633301L85.7983 0.475586ZM79.9712 12.1216C80.1095 12.1216 80.3641 12.3789 80.7349 12.8936V13.8149L80.5854 15.3423C82.4061 16.604 83.3247 17.3206 83.3413 17.4922V17.9487C83.3413 18.0981 83.1891 18.2531 82.8848 18.4136H82.7354C82.3812 18.4136 81.4598 17.9515 79.9712 17.0273L78.1367 18.563H77.8296C77.2983 18.563 76.9912 18.4108 76.9082 18.1064V17.4922C78.2363 16.2803 78.9004 14.7474 78.9004 12.8936C79.0443 12.3789 79.4012 12.1216 79.9712 12.1216ZM87.1763 12.2793C87.6854 12.4232 87.9399 12.7801 87.9399 13.3501C87.9399 13.8703 87.7878 14.6893 87.4834 15.8071C89.3206 16.936 90.2393 17.7025 90.2393 18.1064V18.563C90.2393 18.7954 89.9847 18.9476 89.4756 19.0195C89.3594 19.0195 88.5929 18.5104 87.1763 17.4922H86.7197C86.2327 18.6156 85.6185 19.1772 84.877 19.1772H84.7275C84.5671 19.1772 84.3623 18.9725 84.1133 18.563V18.4136C84.1133 18.2033 84.6224 17.1795 85.6406 15.3423C85.9007 13.3003 86.4126 12.2793 87.1763 12.2793ZM100.039 1.27246H100.503C100.869 1.27246 101.989 1.93652 103.865 3.26465V3.41406C103.965 5.41732 104.015 6.74268 104.015 7.39014L104.322 7.54785C105.5 7.3431 106.369 7.24072 106.928 7.24072C107.437 7.44548 107.692 7.74984 107.692 8.15381C107.692 8.76253 106.569 9.17204 104.322 9.38232C104.322 9.58708 104.219 9.68945 104.015 9.68945L104.172 10.4531V10.6025C104.172 11.7646 104.275 13.1426 104.479 14.7363C104.374 15.1458 104.067 15.3506 103.558 15.3506C102.639 15.3506 102.18 14.3296 102.18 12.2876C102.081 8.7736 101.978 6.32487 101.873 4.94141L102.031 4.63428C102.031 4.04215 101.367 3.38086 100.039 2.65039L99.582 2.03613V1.729C99.582 1.58512 99.7342 1.43294 100.039 1.27246ZM97.4404 3.26465C97.9053 3.45833 98.1598 3.66032 98.2041 3.87061V4.48486C98.0381 4.89437 97.6812 5.09912 97.1333 5.09912H96.9839C96.7515 5.09912 96.5467 5.04655 96.3696 4.94141L92.6924 5.55566V5.70508C92.6924 6.98893 92.9497 8.46924 93.4644 10.146H93.6138L99.4243 9.53174C99.6955 9.53174 99.9528 9.7863 100.196 10.2954C100.196 11.1144 99.3275 11.5239 97.5898 11.5239C94.5186 11.9334 92.7339 12.1382 92.2358 12.1382C91.6271 11.8117 91.3228 10.8405 91.3228 9.22461C90.8856 6.81185 90.5785 5.43669 90.4014 5.09912V4.63428C90.4014 4.06982 92.7477 3.61328 97.4404 3.26465Z" fill="#222222"/>
</svg>
