<svg width="174" height="23" viewBox="0 0 174 23" fill="none" xmlns="http://www.w3.org/2000/svg">
<path d="M16.9062 1.64062H17.7031V2.03125C17.7031 3.5 17.0417 6.82812 15.7188 12.0156C15.9792 12.4844 16.1094 13.0156 16.1094 13.6094H15.7188C15.1979 13.349 14.7969 13.2188 14.5156 13.2188V11.2188L14.9219 10.4219H10.125C9.73958 10.4219 9.33854 10.0208 8.92188 9.21875C9.20312 9.21875 9.60417 9.08854 10.125 8.82812C11 9.35938 11.7969 9.625 12.5156 9.625H14.9219C14.9219 8.95833 15.3177 7.35938 16.1094 4.82812L15.3125 5.23438H8.92188V4.4375H9.32812C9.58854 4.4375 9.71875 4.56771 9.71875 4.82812L14.1094 4.03125C14.5573 4.30208 15.224 4.4375 16.1094 4.4375H16.5156C16.5156 3.625 16.6458 2.69271 16.9062 1.64062ZM4.53125 4.82812C5.86458 5.17188 6.53125 5.57292 6.53125 6.03125V8.03125C5.79167 9.35417 4.72396 10.0156 3.32812 10.0156C1.73438 9.60938 0.9375 8.68229 0.9375 7.23438C1.80208 5.63021 3 4.82812 4.53125 4.82812ZM2.9375 6.03125C2.9375 6.44792 2.67188 6.97917 2.14062 7.625V8.03125C2.22396 8.5625 2.48958 8.82812 2.9375 8.82812H3.32812C4.71354 8.82812 5.51562 8.42708 5.73438 7.625V6.82812C5.73438 6.29688 5.46875 6.03125 4.9375 6.03125H2.9375ZM11.3281 15.6094L12.125 16.0156C12.5833 15.7448 13.1146 15.6094 13.7188 15.6094C14.5104 15.6094 15.3073 16.1458 16.1094 17.2188L15.3125 22.4062H14.5156C14.5156 21.875 14.3802 21.6094 14.1094 21.6094L14.5156 18.8125V16.8125H8.53125V16.0156C9.33333 16.0156 10.2656 15.8802 11.3281 15.6094ZM31.0469 3.53125V8.75L30.6406 11.5469C32.2865 11.0156 33.3594 10.75 33.8594 10.75V3.92188H34.6562C34.9271 7.53646 35.0625 10.2135 35.0625 11.9531V18.7812C34.7708 18.7812 34.3698 18.9115 33.8594 19.1719V17.5781C33.8594 17.3073 33.9896 17.1719 34.25 17.1719L33.8594 16.375V11.5469L31.0469 12.3594C31.0469 12.0885 30.9115 11.9531 30.6406 11.9531C30.6406 12.526 30.5052 14 30.2344 16.375H29.4375V14.7656C29.4375 7.27604 29.974 3.53125 31.0469 3.53125ZM25.8281 6.34375V7.54688H25.4219C21.9427 7.54688 20.2031 8.21354 20.2031 9.54688C20.6198 11.151 21.5573 11.9531 23.0156 11.9531H23.8125L25.8281 11.5469C25.5573 12.349 24.7552 12.75 23.4219 12.75H21.0156C20.6406 12.7396 20.1042 12.0729 19.4062 10.75L19.8125 8.34375V7.14062L25.8281 6.34375ZM52.4219 0.859375C54.026 0.859375 54.8281 1.52604 54.8281 2.85938C54.8281 4.65104 54.1615 5.97917 52.8281 6.84375H52.4219V6.45312C52.9531 5.92188 53.2188 4.45833 53.2188 2.0625L52.4219 1.65625L50.0312 2.45312V2.0625C50.3021 1.26042 51.099 0.859375 52.4219 0.859375ZM45.6406 1.65625H46.8438C48.875 1.65625 50.0729 2.1875 50.4375 3.25C50.4375 4.65625 49.6354 5.98958 48.0312 7.25H47.6406V6.84375L49.2344 4.0625V2.85938L46.4375 2.45312C45.9688 2.72396 45.4375 2.85938 44.8438 2.85938V2.45312C44.9271 1.92188 45.1927 1.65625 45.6406 1.65625ZM50.0312 8.84375H57.6094L59.6094 9.25L59.2188 10.0469L57.2188 9.64062H55.625C55.2396 9.64062 54.8385 10.0417 54.4219 10.8438V13.6406C56.1302 13.6406 57.0625 14.0365 57.2188 14.8281C54.7917 17.7552 52.7969 19.2188 51.2344 19.2188V20.0156C51.2344 20.224 51.6302 20.625 52.4219 21.2188L54.4219 20.8125H57.2188C57.0521 21.6146 55.9896 22.0156 54.0312 22.0156H51.625C51.2083 22.0156 50.6771 21.4844 50.0312 20.4219C50.0312 18.9115 51.4948 17.7135 54.4219 16.8281L55.625 15.2344V14.8281C55.0938 14.8281 54.8281 14.6979 54.8281 14.4375L54.0312 14.8281H53.2188C52.625 14.8281 52.0938 14.6979 51.625 14.4375C51.1667 14.6979 50.6354 14.8281 50.0312 14.8281V14.4375C50.1146 13.9062 50.3802 13.6406 50.8281 13.6406H53.625L53.2188 11.6406V10.8438L53.625 10.0469H47.2344L45.25 10.4375V9.25L50.0312 8.84375ZM73.6875 0.859375H74.4844V7.25H75.2812C75.8854 7.25 76.4167 7.11979 76.875 6.85938C77.3958 7.11979 77.7969 7.25 78.0781 7.25V8.04688C78.0781 8.43229 77.6771 8.83333 76.875 9.25V8.84375L77.2812 8.04688H76.875C75.0104 8.04688 74.0781 8.84375 74.0781 10.4375C74.0781 11.25 73.9479 12.1823 73.6875 13.2344C73.1562 13.2344 72.8906 12.8385 72.8906 12.0469C72.8906 11.776 73.0208 11.6406 73.2812 11.6406C73.2812 11.3594 73.151 10.9583 72.8906 10.4375C73.151 7.71875 73.2812 5.59375 73.2812 4.0625V2.85938L73.6875 0.859375ZM63.3125 1.26562L65.2969 1.65625L66.1094 1.26562C67.4531 1.79688 68.3802 2.0625 68.8906 2.0625V2.46875C68.8906 3.5 68.0938 4.96354 66.5 6.85938C67.1771 6.85938 68.375 7.78646 70.0938 9.64062V10.0469H69.6875C68.5625 9.57812 67.3698 8.78125 66.1094 7.65625C63.4531 9.78125 61.8542 10.8438 61.3125 10.8438V10.4375C65.5729 6.07292 67.7031 3.54688 67.7031 2.85938L66.9062 2.46875C65.4688 2.72917 64.2708 2.85938 63.3125 2.85938H62.9062V2.46875C63.1771 1.94792 63.3125 1.54688 63.3125 1.26562ZM72.8906 14.4375H74.0781C74.4635 14.4375 74.8646 14.8333 75.2812 15.625V16.0312C74.75 18.6042 74.4844 20.0677 74.4844 20.4219V21.625H73.6875L73.2812 19.625C73.8125 17.2083 74.0781 15.875 74.0781 15.625H72.0938C69.4688 16.1667 68.0052 16.4375 67.7031 16.4375H66.1094C66.1094 15.5417 68.3698 14.875 72.8906 14.4375ZM90.6719 0.03125C92.7969 0.03125 93.8594 1.09896 93.8594 3.23438H96.2656V4.4375C95.2031 5.61458 94.6719 6.27604 94.6719 6.42188L99.8594 8.03125V9.21875C99.151 9.21875 97.0208 8.42188 93.4688 6.82812C91.4896 8.53646 89.625 9.59896 87.875 10.0156V8.82812C91.5417 7.26562 93.8073 5.80208 94.6719 4.4375H89.4688V3.625L92.2656 3.23438C92.7865 3.49479 93.1875 3.625 93.4688 3.625C93.4688 3.22917 92.5365 2.16667 90.6719 0.4375V0.03125ZM94.6719 8.82812H95.8594V12.0156H100.25V12.4219C100.25 12.9531 99.9844 13.2188 99.4531 13.2188C95.0469 13.4792 91.7188 13.6094 89.4688 13.6094V12.4219H95.0625L94.6719 10.4219V8.82812ZM96.6562 16.0156C97.9896 17.1615 98.6562 18.224 98.6562 19.2031C98.6562 20.8073 97.724 21.6094 95.8594 21.6094C93.901 21.6094 92.8385 21.2083 92.6719 20.4062V18.8125C93.349 16.9479 94.6771 16.0156 96.6562 16.0156ZM93.8594 18.8125V19.6094C93.9427 20.1406 94.2135 20.4062 94.6719 20.4062H96.6562L97.8594 19.6094C97.5885 18.4427 96.9219 17.6406 95.8594 17.2031C94.5469 17.9115 93.8802 18.4479 93.8594 18.8125ZM112.703 4.45312H113.5C114.042 6.56771 114.312 9.22917 114.312 12.4375C114.042 12.9583 113.906 13.3594 113.906 13.6406C114.438 13.724 114.703 13.9896 114.703 14.4375V17.625C113.37 20.0208 112.573 21.2188 112.312 21.2188H109.125C108.052 21.2188 107.516 18.9583 107.516 14.4375H108.328L108.719 16.8281H113.5V14.4375L112.703 14.8281H112.312C112.844 13.9635 113.109 13.3021 113.109 12.8438C112.839 8.17708 112.703 5.38021 112.703 4.45312ZM105.922 6.0625H107.516C109.12 6.22917 109.922 6.625 109.922 7.25C109.474 8.58333 108.807 9.25 107.922 9.25V10.0469C108.641 10.0469 109.969 10.4479 111.906 11.25V12.0469H111.516C109.589 11.5781 108.125 11.0417 107.125 10.4375L103.141 13.2344H102.734V12.8438L108.328 7.25H103.531C103.271 7.25 103.141 7.11979 103.141 6.85938L102.344 7.25H101.938V6.45312L105.922 6.0625ZM112.312 18.0312H109.125L109.516 20.0156H112.312C112.312 19.349 112.578 18.6875 113.109 18.0312V17.625L112.312 18.0312ZM118.797 1.23438H122.797V1.64062C122.797 2.17188 122.531 2.4375 122 2.4375H119.594C119 2.4375 118.469 2.30208 118 2.03125C117.49 2.30208 117.094 2.4375 116.812 2.4375V1.64062L118.797 1.23438ZM126.797 2.82812H127.188V8.82812H130.781V9.21875C130.781 9.75 130.38 10.0156 129.578 10.0156L128.781 9.625C127.458 9.88542 126.797 10.151 126.797 10.4219C126.797 11.5052 126.927 13.901 127.188 17.6094C127.188 20.276 125.589 21.6094 122.391 21.6094C120.797 21.6094 120 20.4115 120 18.0156C120 17.6823 119.865 16.349 119.594 14.0156L120.406 13.6094H120.797C120.797 15.2135 121.062 16.0156 121.594 16.0156C121.594 15.7448 121.729 15.6094 122 15.6094V16.4062H124.797C125.193 16.4062 125.589 15.875 125.984 14.8125L125.594 12.4219C125.854 9.91146 125.984 7.51562 125.984 5.23438V3.625C126.068 3.09375 126.339 2.82812 126.797 2.82812ZM123.203 4.03125L123.594 4.82812C121.865 5.35938 120.667 5.625 120 5.625H119.203L116.406 5.23438V4.4375H121.203L123.203 4.03125ZM120.406 7.21875C121.469 7.21875 122.401 7.88542 123.203 9.21875V10.0156C123.203 10.401 122.802 10.8021 122 11.2188H118.797C118.422 11.2188 118.026 10.8177 117.609 10.0156C117.609 8.15104 118.542 7.21875 120.406 7.21875ZM119.203 8.82812L120 10.4219C120.438 10.151 121.104 10.0156 122 10.0156V8.82812C121.583 8.82812 121.052 8.5625 120.406 8.03125H120C119.469 8.11458 119.203 8.38021 119.203 8.82812ZM121.203 16.8125V19.6094C121.286 20.1406 121.552 20.4062 122 20.4062H122.391C124.786 20.4062 125.984 19.474 125.984 17.6094C125.724 17.6094 125.594 17.474 125.594 17.2031L123.594 17.6094H122.391L121.203 16.8125ZM150.531 1.67188H151.328C151.859 4.88021 152.125 7.40625 152.125 9.25H154.922V10.0469C152.797 10.0469 151.734 10.8438 151.734 12.4375L151.328 14.4375H150.531L150.938 10.4375H150.141V9.64062H150.938C150.667 5.69271 150.531 3.03646 150.531 1.67188ZM141.766 3.65625V4.0625C141.766 4.59375 141.5 4.85938 140.969 4.85938C141.76 7.74479 142.156 9.47396 142.156 10.0469H142.953C144.818 10.0469 145.75 8.45312 145.75 5.26562L142.953 5.65625H141.766V4.85938L143.75 4.46875H146.547L146.953 6.0625C146.953 9.52083 145.62 11.25 142.953 11.25H141.359C140.828 9.41667 140.562 7.15625 140.562 4.46875L141.766 3.65625ZM145.75 14.0312C145.75 16.9583 147.214 18.4219 150.141 18.4219H150.531L152.531 18.0312V18.8281L149.734 19.625C146.547 19.2604 144.953 17.9271 144.953 15.625V14.8281C145.036 14.2969 145.302 14.0312 145.75 14.0312ZM159.016 2.03125C160.089 3.89583 161.156 4.82812 162.219 4.82812C163.812 4.82812 164.609 5.09375 164.609 5.625L157.422 6.42188H156.625V5.625C158.094 5.35417 159.161 5.21875 159.828 5.21875C159.286 4.34375 159.016 3.54688 159.016 2.82812V2.03125ZM168.609 4.82812H169.016V13.2188L168.609 14.0156C168.88 14.0156 169.016 14.1458 169.016 14.4062C169.984 13.875 171.047 13.6094 172.203 13.6094H173.812V14.4062C170.344 14.875 168.609 15.276 168.609 15.6094C168.349 17.974 168.219 19.4375 168.219 20H167.812L167.016 19.6094C167.547 15.974 167.812 11.1771 167.812 5.21875L168.609 4.82812ZM159.828 7.625H160.625C162.688 7.625 164.016 8.29167 164.609 9.625V10.4219C163.932 11.7552 162.87 12.4219 161.422 12.4219H161.016C159.641 12.4219 158.844 12.0208 158.625 11.2188V8.8125C158.625 8.4375 159.026 8.04167 159.828 7.625ZM159.422 9.21875V10.4219C159.505 10.9531 159.771 11.2188 160.219 11.2188H161.422L163.422 10.8125C163.422 9.66667 162.885 8.86979 161.812 8.42188V8.01562C160.219 8.36979 159.422 8.77083 159.422 9.21875ZM162.625 14.4062H163.016V14.8125L162.625 16.8125L163.422 17.2031H163.812L166.609 16.8125V17.2031C166.609 18.1198 163.682 18.6562 157.828 18.8125H157.422C157.422 18.1458 158.885 17.6094 161.812 17.2031V16.8125C161.552 16.3438 161.422 15.8125 161.422 15.2188L162.625 14.4062Z" fill="#222222"/>
<path d="M16.9062 1.64062V1.39062H16.7106L16.6636 1.58056L16.9062 1.64062ZM17.7031 1.64062H17.9531V1.39062H17.7031V1.64062ZM15.7188 12.0156L15.4765 11.9538L15.4519 12.0502L15.5002 12.137L15.7188 12.0156ZM16.1094 13.6094V13.8594H16.3594V13.6094H16.1094ZM15.7188 13.6094L15.6069 13.833L15.6597 13.8594H15.7188V13.6094ZM14.5156 13.2188H14.2656V13.4688H14.5156V13.2188ZM14.5156 11.2188L14.2929 11.1052L14.2656 11.1587V11.2188H14.5156ZM14.9219 10.4219L15.1446 10.5354L15.3299 10.1719H14.9219V10.4219ZM8.92188 9.21875V8.96875H8.51028L8.70002 9.334L8.92188 9.21875ZM10.125 8.82812L10.2547 8.61443L10.1367 8.54276L10.0132 8.60452L10.125 8.82812ZM14.9219 9.625V9.875H15.1719V9.625H14.9219ZM16.1094 4.82812L16.348 4.90275L16.5254 4.33541L15.9958 4.6054L16.1094 4.82812ZM15.3125 5.23438V5.48438H15.3725L15.426 5.4571L15.3125 5.23438ZM8.92188 5.23438H8.67188V5.48438H8.92188V5.23438ZM8.92188 4.4375V4.1875H8.67188V4.4375H8.92188ZM9.71875 4.82812H9.46875V5.12758L9.76339 5.07411L9.71875 4.82812ZM14.1094 4.03125L14.2387 3.81732L14.1578 3.76838L14.0647 3.78527L14.1094 4.03125ZM16.5156 4.4375V4.6875H16.7656V4.4375H16.5156ZM4.53125 4.82812L4.59366 4.58604L4.56296 4.57812H4.53125V4.82812ZM6.53125 8.03125L6.74946 8.15324L6.78125 8.09639V8.03125H6.53125ZM3.32812 10.0156L3.26637 10.2579L3.29676 10.2656H3.32812V10.0156ZM0.9375 7.23438L0.717428 7.11576L0.6875 7.17129V7.23438H0.9375ZM2.9375 6.03125V5.78125H2.6875V6.03125H2.9375ZM2.14062 7.625L1.94755 7.46618L1.89062 7.53539V7.625H2.14062ZM2.14062 8.03125H1.89062V8.05074L1.89365 8.06999L2.14062 8.03125ZM5.73438 7.625L5.97557 7.69078L5.98438 7.65848V7.625H5.73438ZM11.3281 15.6094L11.4417 15.3866L11.3577 15.3438L11.2664 15.3671L11.3281 15.6094ZM12.125 16.0156L12.0115 16.2384L12.1339 16.3008L12.2522 16.2309L12.125 16.0156ZM16.1094 17.2188L16.3565 17.2567L16.3724 17.1531L16.3096 17.0691L16.1094 17.2188ZM15.3125 22.4062V22.6562H15.527L15.5596 22.4442L15.3125 22.4062ZM14.5156 22.4062H14.2656V22.6562H14.5156V22.4062ZM14.1094 21.6094L13.862 21.5734L13.8204 21.8594H14.1094V21.6094ZM14.5156 18.8125L14.763 18.8484L14.7656 18.8306V18.8125H14.5156ZM14.5156 16.8125H14.7656V16.5625H14.5156V16.8125ZM8.53125 16.8125H8.28125V17.0625H8.53125V16.8125ZM8.53125 16.0156V15.7656H8.28125V16.0156H8.53125ZM16.9062 1.89062H17.7031V1.39062H16.9062V1.89062ZM17.4531 1.64062V2.03125H17.9531V1.64062H17.4531ZM17.4531 2.03125C17.4531 2.7388 17.2924 3.91684 16.9618 5.58017C16.6323 7.23812 16.1374 9.36226 15.4765 11.9538L15.961 12.0774C16.623 9.48149 17.1203 7.34782 17.4522 5.67764C17.7831 4.01285 17.9531 2.79245 17.9531 2.03125H17.4531ZM15.5002 12.137C15.7378 12.5648 15.8594 13.0535 15.8594 13.6094H16.3594C16.3594 12.9778 16.2205 12.404 15.9373 11.8942L15.5002 12.137ZM16.1094 13.3594H15.7188V13.8594H16.1094V13.3594ZM15.8306 13.3858C15.3045 13.1227 14.8589 12.9688 14.5156 12.9688V13.4688C14.7349 13.4688 15.0913 13.5752 15.6069 13.833L15.8306 13.3858ZM14.7656 13.2188V11.2188H14.2656V13.2188H14.7656ZM14.7384 11.3323L15.1446 10.5354L14.6991 10.3083L14.2929 11.1052L14.7384 11.3323ZM14.9219 10.1719H10.125V10.6719H14.9219V10.1719ZM10.125 10.1719C10.0243 10.1719 9.88758 10.12 9.71193 9.94432C9.53695 9.76934 9.34639 9.49363 9.14373 9.1035L8.70002 9.334C8.91403 9.74596 9.13232 10.0718 9.35838 10.2979C9.58377 10.5233 9.84027 10.6719 10.125 10.6719V10.1719ZM8.92188 9.46875C9.26514 9.46875 9.71076 9.31476 10.2368 9.05173L10.0132 8.60452C9.49758 8.86233 9.14111 8.96875 8.92188 8.96875V9.46875ZM9.99526 9.04182C10.8936 9.58727 11.7357 9.875 12.5156 9.875V9.375C11.8581 9.375 11.1064 9.13148 10.2547 8.61443L9.99526 9.04182ZM12.5156 9.875H14.9219V9.375H12.5156V9.875ZM15.1719 9.625C15.1719 9.32557 15.2633 8.78606 15.4614 7.98586C15.6576 7.19329 15.9529 6.16608 16.348 4.90275L15.8708 4.7535C15.4742 6.02142 15.1757 7.05932 14.9761 7.86571C14.7783 8.66446 14.6719 9.25776 14.6719 9.625H15.1719ZM15.9958 4.6054L15.199 5.01165L15.426 5.4571L16.2229 5.05085L15.9958 4.6054ZM15.3125 4.98438H8.92188V5.48438H15.3125V4.98438ZM9.17188 5.23438V4.4375H8.67188V5.23438H9.17188ZM8.92188 4.6875H9.32812V4.1875H8.92188V4.6875ZM9.32812 4.6875C9.4198 4.6875 9.44263 4.71025 9.44432 4.71193C9.446 4.71362 9.46875 4.73645 9.46875 4.82812H9.96875C9.96875 4.65938 9.92639 4.4869 9.79787 4.35838C9.66935 4.22986 9.49687 4.1875 9.32812 4.1875V4.6875ZM9.76339 5.07411L14.154 4.27723L14.0647 3.78527L9.67411 4.58214L9.76339 5.07411ZM13.98 4.24518C14.4854 4.55076 15.2063 4.6875 16.1094 4.6875V4.1875C15.2417 4.1875 14.6292 4.0534 14.2387 3.81732L13.98 4.24518ZM16.1094 4.6875H16.5156V4.1875H16.1094V4.6875ZM16.7656 4.4375C16.7656 3.65068 16.8919 2.73922 17.1489 1.70069L16.6636 1.58056C16.3998 2.6462 16.2656 3.59932 16.2656 4.4375H16.7656ZM4.46884 5.07021C5.12715 5.23993 5.59979 5.41892 5.90238 5.60094C6.21412 5.78848 6.28125 5.93807 6.28125 6.03125H6.78125C6.78125 5.6661 6.51504 5.386 6.16012 5.17249C5.79604 4.95348 5.26869 4.76007 4.59366 4.58604L4.46884 5.07021ZM6.28125 6.03125V8.03125H6.78125V6.03125H6.28125ZM6.31304 7.90926C5.613 9.16144 4.62427 9.76562 3.32812 9.76562V10.2656C4.82364 10.2656 5.97034 9.54689 6.74946 8.15324L6.31304 7.90926ZM3.38988 9.77337C2.62587 9.57862 2.07993 9.26588 1.72474 8.85266C1.37223 8.44255 1.1875 7.91012 1.1875 7.23438H0.6875C0.6875 8.00654 0.90121 8.66162 1.34557 9.17859C1.78726 9.69245 2.43663 10.0464 3.26637 10.2579L3.38988 9.77337ZM1.15757 7.35299C1.98848 5.8113 3.11116 5.07812 4.53125 5.07812V4.57812C2.88884 4.57812 1.61568 5.44912 0.717428 7.11576L1.15757 7.35299ZM2.6875 6.03125C2.6875 6.35482 2.47328 6.82706 1.94755 7.46618L2.3337 7.78382C2.87047 7.13127 3.1875 6.54101 3.1875 6.03125H2.6875ZM1.89062 7.625V8.03125H2.39062V7.625H1.89062ZM1.89365 8.06999C1.9401 8.36614 2.0423 8.62241 2.22557 8.80568C2.41412 8.99424 2.66092 9.07812 2.9375 9.07812V8.57812C2.76617 8.57812 2.65619 8.5292 2.57912 8.45213C2.49677 8.36978 2.42448 8.22761 2.3876 7.99251L1.89365 8.06999ZM2.9375 9.07812H3.32812V8.57812H2.9375V9.07812ZM3.32812 9.07812C4.0405 9.07812 4.63099 8.97573 5.08055 8.75095C5.53958 8.52144 5.84588 8.16629 5.97557 7.69078L5.49318 7.55922C5.40412 7.8858 5.2 8.13221 4.85695 8.30374C4.50443 8.48 4.00116 8.57812 3.32812 8.57812V9.07812ZM5.98438 7.625V6.82812H5.48438V7.625H5.98438ZM5.98438 6.82812C5.98438 6.52396 5.90817 6.24992 5.71193 6.05369C5.5157 5.85746 5.24166 5.78125 4.9375 5.78125V6.28125C5.16459 6.28125 5.28899 6.33785 5.35838 6.40725C5.42777 6.47664 5.48438 6.60104 5.48438 6.82812H5.98438ZM4.9375 5.78125H2.9375V6.28125H4.9375V5.78125ZM11.2146 15.8321L12.0115 16.2384L12.2385 15.7929L11.4417 15.3866L11.2146 15.8321ZM12.2522 16.2309C12.667 15.9857 13.1532 15.8594 13.7188 15.8594V15.3594C13.076 15.3594 12.4996 15.5039 11.9978 15.8004L12.2522 16.2309ZM13.7188 15.8594C14.3901 15.8594 15.1221 16.3156 15.9091 17.3684L16.3096 17.0691C15.4925 15.976 14.6308 15.3594 13.7188 15.3594V15.8594ZM15.8623 17.1808L15.0654 22.3683L15.5596 22.4442L16.3565 17.2567L15.8623 17.1808ZM15.3125 22.1562H14.5156V22.6562H15.3125V22.1562ZM14.7656 22.4062C14.7656 22.1275 14.7314 21.8807 14.6368 21.695C14.5876 21.5986 14.5187 21.5119 14.4239 21.4499C14.3278 21.3871 14.2198 21.3594 14.1094 21.3594V21.8594C14.1343 21.8594 14.1448 21.8648 14.1503 21.8684C14.1571 21.8729 14.1728 21.8858 14.1913 21.9221C14.2321 22.0021 14.2656 22.1538 14.2656 22.4062H14.7656ZM14.3568 21.6453L14.763 18.8484L14.2682 18.7766L13.862 21.5734L14.3568 21.6453ZM14.7656 18.8125V16.8125H14.2656V18.8125H14.7656ZM14.5156 16.5625H8.53125V17.0625H14.5156V16.5625ZM8.78125 16.8125V16.0156H8.28125V16.8125H8.78125ZM8.53125 16.2656C9.36019 16.2656 10.314 16.1259 11.3899 15.8516L11.2664 15.3671C10.2172 15.6346 9.30648 15.7656 8.53125 15.7656V16.2656ZM31.0469 3.53125H31.2969V3.28125H31.0469V3.53125ZM31.0469 8.75L31.2943 8.78594L31.2969 8.76806V8.75H31.0469ZM30.6406 11.5469L30.3932 11.5109L30.3355 11.9081L30.7174 11.7848L30.6406 11.5469ZM33.8594 10.75V11H34.1094V10.75H33.8594ZM33.8594 3.92188V3.67188H33.6094V3.92188H33.8594ZM34.6562 3.92188L34.9056 3.9032L34.8882 3.67188H34.6562V3.92188ZM35.0625 18.7812V19.0312H35.3125V18.7812H35.0625ZM33.8594 19.1719H33.6094V19.5801L33.973 19.3946L33.8594 19.1719ZM34.25 17.1719V17.4219H34.651L34.4745 17.0618L34.25 17.1719ZM33.8594 16.375H33.6094V16.433L33.6349 16.485L33.8594 16.375ZM33.8594 11.5469H34.1094V11.2144L33.79 11.3067L33.8594 11.5469ZM31.0469 12.3594H30.7969V12.6918L31.1163 12.5996L31.0469 12.3594ZM30.6406 11.9531V11.7031H30.3906V11.9531H30.6406ZM30.2344 16.375V16.625H30.4575L30.4828 16.4033L30.2344 16.375ZM29.4375 16.375H29.1875V16.625H29.4375V16.375ZM25.8281 6.34375H26.0781V6.05845L25.7953 6.09591L25.8281 6.34375ZM25.8281 7.54688V7.79688H26.0781V7.54688H25.8281ZM20.2031 9.54688H19.9531V9.57881L19.9612 9.60972L20.2031 9.54688ZM23.8125 11.9531V12.2031H23.8374L23.8619 12.1982L23.8125 11.9531ZM25.8281 11.5469L26.065 11.6269L26.2037 11.2162L25.7787 11.3018L25.8281 11.5469ZM21.0156 12.75L21.0087 13H21.0156V12.75ZM19.4062 10.75L19.1597 10.7084L19.1457 10.7918L19.1851 10.8667L19.4062 10.75ZM19.8125 8.34375L20.059 8.38537L20.0625 8.36471V8.34375H19.8125ZM19.8125 7.14062L19.7797 6.89279L19.5625 6.92156V7.14062H19.8125ZM30.7969 3.53125V8.75H31.2969V3.53125H30.7969ZM30.7995 8.71406L30.3932 11.5109L30.888 11.5828L31.2943 8.78594L30.7995 8.71406ZM30.7174 11.7848C31.5375 11.5201 32.2111 11.3228 32.7398 11.1919C33.2744 11.0595 33.6421 11 33.8594 11V10.5C33.5766 10.5 33.1579 10.5733 32.6196 10.7065C32.0753 10.8413 31.3896 11.0424 30.5638 11.309L30.7174 11.7848ZM34.1094 10.75V3.92188H33.6094V10.75H34.1094ZM33.8594 4.17188H34.6562V3.67188H33.8594V4.17188ZM34.4069 3.94055C34.6777 7.55406 34.8125 10.2234 34.8125 11.9531H35.3125C35.3125 10.2037 35.1765 7.51885 34.9056 3.9032L34.4069 3.94055ZM34.8125 11.9531V18.7812H35.3125V11.9531H34.8125ZM35.0625 18.5312C34.7089 18.5312 34.2637 18.6849 33.7458 18.9492L33.973 19.3946C34.4759 19.138 34.8327 19.0312 35.0625 19.0312V18.5312ZM34.1094 19.1719V17.5781H33.6094V19.1719H34.1094ZM34.1094 17.5781C34.1094 17.4788 34.1334 17.4507 34.1372 17.4467C34.1393 17.4445 34.1609 17.4219 34.25 17.4219V16.9219C34.0787 16.9219 33.9049 16.9669 33.7768 17.1002C33.6505 17.2316 33.6094 17.4066 33.6094 17.5781H34.1094ZM34.4745 17.0618L34.0839 16.265L33.6349 16.485L34.0255 17.2819L34.4745 17.0618ZM34.1094 16.375V11.5469H33.6094V16.375H34.1094ZM33.79 11.3067L30.9775 12.1192L31.1163 12.5996L33.9288 11.7871L33.79 11.3067ZM31.2969 12.3594C31.2969 12.1854 31.2532 12.009 31.1221 11.8779C30.991 11.7468 30.8146 11.7031 30.6406 11.7031V12.2031C30.7375 12.2031 30.7642 12.2272 30.7685 12.2315C30.7728 12.2358 30.7969 12.2625 30.7969 12.3594H31.2969ZM30.3906 11.9531C30.3906 12.5085 30.2575 13.966 29.986 16.3467L30.4828 16.4033C30.7529 14.034 30.8906 12.5436 30.8906 11.9531H30.3906ZM30.2344 16.125H29.4375V16.625H30.2344V16.125ZM29.6875 16.375V14.7656H29.1875V16.375H29.6875ZM29.6875 14.7656C29.6875 11.0236 29.8217 8.22947 30.0873 6.3753C30.2205 5.44568 30.3845 4.76957 30.5725 4.33211C30.7706 3.87112 30.9462 3.78125 31.0469 3.78125V3.28125C30.6111 3.28125 30.3173 3.65948 30.1131 4.13469C29.8987 4.63343 29.7274 5.36162 29.5924 6.30439C29.3215 8.19501 29.1875 11.0181 29.1875 14.7656H29.6875ZM25.5781 6.34375V7.54688H26.0781V6.34375H25.5781ZM25.8281 7.29688H25.4219V7.79688H25.8281V7.29688ZM25.4219 7.29688C23.6735 7.29688 22.3317 7.4634 21.4183 7.81343C20.9598 7.98915 20.5937 8.21693 20.3407 8.50781C20.0834 8.80361 19.9531 9.15364 19.9531 9.54688H20.4531C20.4531 9.27344 20.5403 9.04014 20.7179 8.83594C20.8998 8.62682 21.186 8.43793 21.5973 8.28032C22.4235 7.96369 23.6911 7.79688 25.4219 7.79688V7.29688ZM19.9612 9.60972C20.178 10.4446 20.5373 11.0976 21.0562 11.5415C21.5782 11.9881 22.2383 12.2031 23.0156 12.2031V11.7031C22.3347 11.7031 21.7968 11.5171 21.3813 11.1616C20.9627 10.8035 20.6449 10.2533 20.4451 9.48403L19.9612 9.60972ZM23.0156 12.2031H23.8125V11.7031H23.0156V12.2031ZM23.8619 12.1982L25.8775 11.7919L25.7787 11.3018L23.7631 11.7081L23.8619 12.1982ZM25.5913 11.4669C25.3732 12.1127 24.7201 12.5 23.4219 12.5V13C24.7903 13 25.7414 12.5852 26.065 11.6269L25.5913 11.4669ZM23.4219 12.5H21.0156V13H23.4219V12.5ZM21.0226 12.5001C21.0003 12.4995 20.9458 12.4872 20.8532 12.4185C20.7626 12.3511 20.6536 12.243 20.5268 12.0855C20.2734 11.7705 19.9735 11.2895 19.6274 10.6333L19.1851 10.8667C19.5369 11.5335 19.8542 12.0472 20.1373 12.3989C20.2787 12.5747 20.4178 12.7179 20.555 12.8198C20.6903 12.9203 20.8435 12.9953 21.0087 12.9999L21.0226 12.5001ZM19.6528 10.7916L20.059 8.38537L19.566 8.30213L19.1597 10.7084L19.6528 10.7916ZM20.0625 8.34375V7.14062H19.5625V8.34375H20.0625ZM19.8453 7.38846L25.861 6.59159L25.7953 6.09591L19.7797 6.89279L19.8453 7.38846ZM52.8281 6.84375V7.09375H52.9021L52.9641 7.05351L52.8281 6.84375ZM52.4219 6.84375H52.1719V7.09375H52.4219V6.84375ZM52.4219 6.45312L52.2451 6.27635L52.1719 6.34957V6.45312H52.4219ZM53.2188 2.0625H53.4688V1.90934L53.3323 1.83977L53.2188 2.0625ZM52.4219 1.65625L52.5354 1.43352L52.4421 1.38597L52.3428 1.41908L52.4219 1.65625ZM50.0312 2.45312H49.7812V2.79998L50.1103 2.6903L50.0312 2.45312ZM50.0312 2.0625L49.7944 1.98252L49.7812 2.02143V2.0625H50.0312ZM50.4375 3.25H50.6875V3.2083L50.674 3.16886L50.4375 3.25ZM48.0312 7.25V7.5H48.1177L48.1857 7.44658L48.0312 7.25ZM47.6406 7.25H47.3906V7.5H47.6406V7.25ZM47.6406 6.84375L47.4237 6.71945L47.3906 6.7772V6.84375H47.6406ZM49.2344 4.0625L49.4513 4.1868L49.4844 4.12905V4.0625H49.2344ZM49.2344 2.85938H49.4844V2.64306L49.2703 2.61197L49.2344 2.85938ZM46.4375 2.45312L46.4734 2.20572L46.3876 2.19325L46.3124 2.23666L46.4375 2.45312ZM44.8438 2.85938H44.5938V3.10938H44.8438V2.85938ZM44.8438 2.45312L44.5968 2.41438L44.5938 2.43364V2.45312H44.8438ZM50.0312 8.84375V8.59375H50.0206L50.0101 8.59465L50.0312 8.84375ZM57.6094 8.84375L57.6591 8.59875L57.6345 8.59375H57.6094V8.84375ZM59.6094 9.25L59.8339 9.36004L59.9763 9.06943L59.6591 9.005L59.6094 9.25ZM59.2188 10.0469L59.169 10.2919L59.3582 10.3303L59.4432 10.1569L59.2188 10.0469ZM57.2188 9.64062L57.2685 9.39563L57.2439 9.39062H57.2188V9.64062ZM54.4219 10.8438L54.2 10.7285L54.1719 10.7827V10.8438H54.4219ZM54.4219 13.6406H54.1719V13.8906H54.4219V13.6406ZM57.2188 14.8281L57.4112 14.9877L57.487 14.8963L57.464 14.7797L57.2188 14.8281ZM51.2344 19.2188V18.9688H50.9844V19.2188H51.2344ZM52.4219 21.2188L52.2719 21.4188L52.3617 21.4861L52.4716 21.4637L52.4219 21.2188ZM54.4219 20.8125V20.5625H54.3967L54.3721 20.5675L54.4219 20.8125ZM57.2188 20.8125L57.4635 20.8634L57.526 20.5625H57.2188V20.8125ZM50.0312 20.4219H49.7812V20.4919L49.8176 20.5517L50.0312 20.4219ZM54.4219 16.8281L54.4943 17.0674L54.5723 17.0438L54.6214 16.9788L54.4219 16.8281ZM55.625 15.2344L55.8245 15.385L55.875 15.3181V15.2344H55.625ZM55.625 14.8281H55.875V14.5781H55.625V14.8281ZM54.8281 14.4375H55.0781V14.0365L54.7181 14.213L54.8281 14.4375ZM54.0312 14.8281V15.0781H54.0892L54.1413 15.0526L54.0312 14.8281ZM51.625 14.4375L51.7464 14.219L51.6236 14.1507L51.5015 14.2201L51.625 14.4375ZM50.0312 14.8281H49.7812V15.0781H50.0312V14.8281ZM50.0312 14.4375L49.7843 14.3988L49.7812 14.418V14.4375H50.0312ZM53.625 13.6406V13.8906H53.9309L53.87 13.5909L53.625 13.6406ZM53.2188 11.6406H52.9688V11.6658L52.9738 11.6904L53.2188 11.6406ZM53.2188 10.8438L52.996 10.7302L52.9688 10.7837V10.8438H53.2188ZM53.625 10.0469L53.8477 10.1604L54.0331 9.79688H53.625V10.0469ZM47.2344 10.0469V9.79688H47.21L47.1861 9.80158L47.2344 10.0469ZM45.25 10.4375H45V10.7415L45.2983 10.6828L45.25 10.4375ZM45.25 9.25L45.2288 9.0009L45 9.02034V9.25H45.25ZM52.4219 1.10938C53.1955 1.10938 53.7292 1.27109 54.0668 1.55163C54.3954 1.82482 54.5781 2.24466 54.5781 2.85938H55.0781C55.0781 2.14076 54.8598 1.56059 54.3864 1.16712C53.9218 0.780997 53.2524 0.609375 52.4219 0.609375V1.10938ZM54.5781 2.85938C54.5781 4.57904 53.9443 5.82201 52.6921 6.63399L52.9641 7.05351C54.3786 6.13632 55.0781 4.72304 55.0781 2.85938H54.5781ZM52.8281 6.59375H52.4219V7.09375H52.8281V6.59375ZM52.6719 6.84375V6.45312H52.1719V6.84375H52.6719ZM52.5987 6.6299C52.9214 6.30719 53.131 5.74262 53.2655 5.00168C53.4021 4.24905 53.4688 3.26752 53.4688 2.0625H52.9688C52.9688 3.25331 52.9026 4.20147 52.7735 4.91239C52.6424 5.63499 52.4536 6.06781 52.2451 6.27635L52.5987 6.6299ZM53.3323 1.83977L52.5354 1.43352L52.3083 1.87898L53.1052 2.28523L53.3323 1.83977ZM52.3428 1.41908L49.9522 2.21595L50.1103 2.6903L52.5009 1.89342L52.3428 1.41908ZM50.2812 2.45312V2.0625H49.7812V2.45312H50.2812ZM50.2681 2.14248C50.4864 1.49593 51.1354 1.10938 52.4219 1.10938V0.609375C51.0626 0.609375 50.1177 1.02491 49.7944 1.98252L50.2681 2.14248ZM45.6406 1.90625H46.8438V1.40625H45.6406V1.90625ZM46.8438 1.90625C48.8624 1.90625 49.8941 2.43655 50.201 3.33114L50.674 3.16886C50.2518 1.93845 48.8876 1.40625 46.8438 1.40625V1.90625ZM50.1875 3.25C50.1875 4.54956 49.449 5.81814 47.8768 7.05342L48.1857 7.44658C49.8219 6.16103 50.6875 4.76294 50.6875 3.25H50.1875ZM48.0312 7H47.6406V7.5H48.0312V7ZM47.8906 7.25V6.84375H47.3906V7.25H47.8906ZM47.8575 6.96805L49.4513 4.1868L49.0175 3.9382L47.4237 6.71945L47.8575 6.96805ZM49.4844 4.0625V2.85938H48.9844V4.0625H49.4844ZM49.2703 2.61197L46.4734 2.20572L46.4016 2.70053L49.1984 3.10678L49.2703 2.61197ZM46.3124 2.23666C45.8853 2.48344 45.398 2.60938 44.8438 2.60938V3.10938C45.477 3.10938 46.0522 2.96448 46.5626 2.66959L46.3124 2.23666ZM45.0938 2.85938V2.45312H44.5938V2.85938H45.0938ZM45.0907 2.49187C45.1276 2.25676 45.1999 2.1146 45.2822 2.03225C45.3593 1.95518 45.4693 1.90625 45.6406 1.90625V1.40625C45.364 1.40625 45.1172 1.49014 44.9287 1.67869C44.7454 1.86196 44.6432 2.11824 44.5968 2.41438L45.0907 2.49187ZM50.0312 9.09375H57.6094V8.59375H50.0312V9.09375ZM57.5596 9.08875L59.5596 9.495L59.6591 9.005L57.6591 8.59875L57.5596 9.08875ZM59.3849 9.13996L58.9943 9.93684L59.4432 10.1569L59.8339 9.36004L59.3849 9.13996ZM59.2685 9.80188L57.2685 9.39563L57.169 9.88562L59.169 10.2919L59.2685 9.80188ZM57.2188 9.39062H55.625V9.89062H57.2188V9.39062ZM55.625 9.39062C55.3403 9.39062 55.0838 9.53924 54.8584 9.76463C54.6323 9.99069 54.414 10.3165 54.2 10.7285L54.6437 10.959C54.8464 10.5689 55.037 10.2932 55.2119 10.1182C55.3876 9.94253 55.5243 9.89062 55.625 9.89062V9.39062ZM54.1719 10.8438V13.6406H54.6719V10.8438H54.1719ZM54.4219 13.8906C55.2624 13.8906 55.8836 13.9888 56.3046 14.1676C56.7165 14.3425 56.9155 14.5829 56.9735 14.8765L57.464 14.7797C57.3657 14.2817 57.0205 13.9284 56.5 13.7074C55.9888 13.4903 55.2897 13.3906 54.4219 13.3906V13.8906ZM57.0263 14.6686C55.8196 16.1238 54.729 17.2045 53.7545 17.9195C52.7767 18.6369 51.9395 18.9688 51.2344 18.9688V19.4688C52.0918 19.4688 53.0332 19.0689 54.0502 18.3227C55.0705 17.5741 56.1908 16.4595 57.4112 14.9877L57.0263 14.6686ZM50.9844 19.2188V20.0156H51.4844V19.2188H50.9844ZM50.9844 20.0156C50.9844 20.1401 51.0403 20.254 51.0989 20.3442C51.1612 20.4401 51.2482 20.5418 51.3533 20.6483C51.5641 20.8618 51.8723 21.1191 52.2719 21.4188L52.5719 21.0187C52.1797 20.7246 51.8943 20.4846 51.7092 20.297C51.6164 20.203 51.5549 20.1283 51.5182 20.0718C51.4779 20.0097 51.4844 19.9953 51.4844 20.0156H50.9844ZM52.4716 21.4637L54.4716 21.0575L54.3721 20.5675L52.3721 20.9738L52.4716 21.4637ZM54.4219 21.0625H57.2188V20.5625H54.4219V21.0625ZM56.974 20.7616C56.9144 21.0486 56.6939 21.2978 56.2086 21.481C55.7189 21.6658 54.9989 21.7656 54.0312 21.7656V22.2656C55.022 22.2656 55.8124 22.1649 56.3852 21.9487C56.9624 21.7309 57.3565 21.3785 57.4635 20.8634L56.974 20.7616ZM54.0312 21.7656H51.625V22.2656H54.0312V21.7656ZM51.625 21.7656C51.5194 21.7656 51.3439 21.6935 51.0908 21.4404C50.8455 21.1951 50.5632 20.8158 50.2449 20.292L49.8176 20.5517C50.1451 21.0905 50.4514 21.5081 50.7373 21.794C51.0154 22.0721 51.3139 22.2656 51.625 22.2656V21.7656ZM50.2812 20.4219C50.2812 19.7601 50.5975 19.1486 51.2873 18.5841C51.9828 18.0148 53.0451 17.5058 54.4943 17.0674L54.3495 16.5888C52.8716 17.0359 51.7386 17.5686 50.9706 18.1972C50.1967 18.8305 49.7812 19.5733 49.7812 20.4219H50.2812ZM54.6214 16.9788L55.8245 15.385L55.4255 15.0837L54.2223 16.6775L54.6214 16.9788ZM55.875 15.2344V14.8281H55.375V15.2344H55.875ZM55.625 14.5781C55.3718 14.5781 55.2186 14.5458 55.1374 14.506C55.1002 14.4878 55.088 14.4728 55.0847 14.4678C55.0825 14.4647 55.0781 14.4578 55.0781 14.4375H54.5781C54.5781 14.5474 54.6069 14.6545 54.6712 14.749C54.7342 14.8417 54.8216 14.9081 54.9173 14.9549C55.1017 15.0454 55.347 15.0781 55.625 15.0781V14.5781ZM54.7181 14.213L53.9212 14.6036L54.1413 15.0526L54.9382 14.662L54.7181 14.213ZM54.0312 14.5781H53.2188V15.0781H54.0312V14.5781ZM53.2188 14.5781C52.6628 14.5781 52.1742 14.4566 51.7464 14.219L51.5036 14.656C52.0133 14.9392 52.5872 15.0781 53.2188 15.0781V14.5781ZM51.5015 14.2201C51.086 14.4562 50.5985 14.5781 50.0312 14.5781V15.0781C50.6723 15.0781 51.2473 14.9396 51.7485 14.6549L51.5015 14.2201ZM50.2812 14.8281V14.4375H49.7812V14.8281H50.2812ZM50.2782 14.4762C50.3151 14.2411 50.3874 14.099 50.4697 14.0166C50.5468 13.9396 50.6568 13.8906 50.8281 13.8906V13.3906C50.5515 13.3906 50.3047 13.4745 50.1162 13.6631C49.9329 13.8463 49.8307 14.1026 49.7843 14.3988L50.2782 14.4762ZM50.8281 13.8906H53.625V13.3906H50.8281V13.8906ZM53.87 13.5909L53.4637 11.5909L52.9738 11.6904L53.38 13.6904L53.87 13.5909ZM53.4688 11.6406V10.8438H52.9688V11.6406H53.4688ZM53.4415 10.9573L53.8477 10.1604L53.4023 9.93333L52.996 10.7302L53.4415 10.9573ZM53.625 9.79688H47.2344V10.2969H53.625V9.79688ZM47.1861 9.80158L45.2017 10.1922L45.2983 10.6828L47.2827 10.2922L47.1861 9.80158ZM45.5 10.4375V9.25H45V10.4375H45.5ZM45.2712 9.4991L50.0524 9.09285L50.0101 8.59465L45.2288 9.0009L45.2712 9.4991ZM73.6875 0.859375V0.609375H73.4832L73.4425 0.80961L73.6875 0.859375ZM74.4844 0.859375H74.7344V0.609375H74.4844V0.859375ZM74.4844 7.25H74.2344V7.5H74.4844V7.25ZM76.875 6.85938L76.9868 6.63577L76.8675 6.57611L76.7515 6.64201L76.875 6.85938ZM78.0781 7.25H78.3281V7H78.0781V7.25ZM76.875 9.25H76.625V9.66159L76.9902 9.47185L76.875 9.25ZM76.875 8.84375L76.6523 8.7302L76.625 8.7837V8.84375H76.875ZM77.2812 8.04688L77.504 8.16042L77.6893 7.79688H77.2812V8.04688ZM73.6875 13.2344V13.4844H73.8832L73.9302 13.2944L73.6875 13.2344ZM73.2812 11.6406V11.8906H73.5312V11.6406H73.2812ZM72.8906 10.4375L72.6418 10.4137L72.6349 10.4851L72.667 10.5493L72.8906 10.4375ZM73.2812 2.85938L73.0363 2.80961L73.0312 2.83424V2.85938H73.2812ZM63.3125 1.26562L63.3608 1.02033L63.0625 0.961615V1.26562H63.3125ZM65.2969 1.65625L65.2486 1.90154L65.3302 1.91761L65.4052 1.88156L65.2969 1.65625ZM66.1094 1.26562L66.2013 1.03313L66.0996 0.992932L66.0011 1.04031L66.1094 1.26562ZM68.8906 2.0625H69.1406V1.8125H68.8906V2.0625ZM66.5 6.85938L66.3086 6.6985L65.9632 7.10938H66.5V6.85938ZM70.0938 9.64062H70.3438V9.54258L70.2771 9.47067L70.0938 9.64062ZM70.0938 10.0469V10.2969H70.3438V10.0469H70.0938ZM69.6875 10.0469L69.5913 10.2776L69.6375 10.2969H69.6875V10.0469ZM66.1094 7.65625L66.2758 7.46974L66.1182 7.32903L65.9532 7.46103L66.1094 7.65625ZM61.3125 10.8438H61.0625V11.0938H61.3125V10.8438ZM61.3125 10.4375L61.1336 10.2629L61.0625 10.3357V10.4375H61.3125ZM67.7031 2.85938H67.9531V2.7035L67.8132 2.63489L67.7031 2.85938ZM66.9062 2.46875L67.0163 2.24427L66.9425 2.20811L66.8617 2.22275L66.9062 2.46875ZM62.9062 2.85938H62.6562V3.10938H62.9062V2.85938ZM62.9062 2.46875L62.6844 2.35341L62.6562 2.40763V2.46875H62.9062ZM72.8906 14.4375V14.1875H72.8786L72.8665 14.1887L72.8906 14.4375ZM75.2812 15.625H75.5312V15.5632L75.5025 15.5086L75.2812 15.625ZM75.2812 16.0312L75.5261 16.0818L75.5312 16.0568V16.0312H75.2812ZM74.4844 21.625V21.875H74.7344V21.625H74.4844ZM73.6875 21.625L73.4425 21.6748L73.4832 21.875H73.6875V21.625ZM73.2812 19.625L73.0371 19.5713L73.0257 19.623L73.0363 19.6748L73.2812 19.625ZM74.0781 15.625H74.3281V15.375H74.0781V15.625ZM72.0938 15.625V15.375H72.0682L72.0432 15.3802L72.0938 15.625ZM66.1094 16.4375H65.8594V16.6875H66.1094V16.4375ZM73.6875 1.10938H74.4844V0.609375H73.6875V1.10938ZM74.2344 0.859375V7.25H74.7344V0.859375H74.2344ZM74.4844 7.5H75.2812V7H74.4844V7.5ZM75.2812 7.5C75.9223 7.5 76.4973 7.36151 76.9985 7.07674L76.7515 6.64201C76.336 6.87808 75.8485 7 75.2812 7V7.5ZM76.7632 7.08298C77.2892 7.34601 77.7349 7.5 78.0781 7.5V7C77.8589 7 77.5024 6.89358 76.9868 6.63577L76.7632 7.08298ZM77.8281 7.25V8.04688H78.3281V7.25H77.8281ZM77.8281 8.04688C77.8281 8.14756 77.7762 8.28429 77.6006 8.45994C77.4256 8.63492 77.1499 8.82549 76.7598 9.02815L76.9902 9.47185C77.4022 9.25785 77.7281 9.03956 77.9541 8.8135C78.1795 8.5881 78.3281 8.3316 78.3281 8.04688H77.8281ZM77.125 9.25V8.84375H76.625V9.25H77.125ZM77.0977 8.9573L77.504 8.16042L77.0585 7.93333L76.6523 8.7302L77.0977 8.9573ZM77.2812 7.79688H76.875V8.29688H77.2812V7.79688ZM76.875 7.79688C75.9129 7.79688 75.1447 8.00162 74.6149 8.45449C74.0776 8.91378 73.8281 9.59094 73.8281 10.4375H74.3281C74.3281 9.69031 74.5448 9.17215 74.9398 8.83457C75.3422 8.49057 75.9725 8.29688 76.875 8.29688V7.79688ZM73.8281 10.4375C73.8281 11.2243 73.7019 12.1358 73.4448 13.1743L73.9302 13.2944C74.1939 12.2288 74.3281 11.2757 74.3281 10.4375H73.8281ZM73.6875 12.9844C73.494 12.9844 73.3779 12.9181 73.2974 12.7982C73.2051 12.6606 73.1406 12.4226 73.1406 12.0469H72.6406C72.6406 12.4628 72.709 12.8186 72.8823 13.0768C73.0674 13.3527 73.3497 13.4844 73.6875 13.4844V12.9844ZM73.1406 12.0469C73.1406 11.9476 73.1646 11.9195 73.1685 11.9155C73.1706 11.9133 73.1921 11.8906 73.2812 11.8906V11.3906C73.11 11.3906 72.9362 11.4357 72.8081 11.5689C72.6817 11.7003 72.6406 11.8753 72.6406 12.0469H73.1406ZM73.5312 11.6406C73.5312 11.2974 73.3773 10.8517 73.1142 10.3257L72.667 10.5493C72.9248 11.0649 73.0312 11.4214 73.0312 11.6406H73.5312ZM73.1395 10.4613C73.4002 7.73976 73.5312 5.60557 73.5312 4.0625H73.0312C73.0312 5.58193 72.9019 7.69774 72.6418 10.4137L73.1395 10.4613ZM73.5312 4.0625V2.85938H73.0312V4.0625H73.5312ZM73.5262 2.90914L73.9325 0.90914L73.4425 0.80961L73.0363 2.80961L73.5262 2.90914ZM63.2642 1.51092L65.2486 1.90154L65.3452 1.41096L63.3608 1.02033L63.2642 1.51092ZM65.4052 1.88156L66.2177 1.49094L66.0011 1.04031L65.1886 1.43094L65.4052 1.88156ZM66.0175 1.49812C66.6936 1.76541 67.2695 1.96776 67.7436 2.10361C68.2134 2.23822 68.5998 2.3125 68.8906 2.3125V1.8125C68.671 1.8125 68.3386 1.75397 67.8814 1.62295C67.4284 1.49318 66.8689 1.29709 66.2013 1.03313L66.0175 1.49812ZM68.6406 2.0625V2.46875H69.1406V2.0625H68.6406ZM68.6406 2.46875C68.6406 2.92445 68.4629 3.505 68.0734 4.22029C67.6858 4.93216 67.0994 5.75785 66.3086 6.6985L66.6914 7.02025C67.4943 6.06507 68.1033 5.21107 68.5125 4.45939C68.9199 3.71114 69.1406 3.0443 69.1406 2.46875H68.6406ZM66.5 7.10938C66.6156 7.10938 66.7778 7.15007 66.9947 7.25731C67.2091 7.36335 67.4616 7.5267 67.7532 7.7524C68.3366 8.20383 69.0551 8.88786 69.9104 9.81058L70.2771 9.47067C69.4137 8.53923 68.6739 7.83263 68.0593 7.35698C67.7519 7.11913 67.4706 6.93483 67.2163 6.8091C66.9644 6.68457 66.723 6.60938 66.5 6.60938V7.10938ZM69.8438 9.64062V10.0469H70.3438V9.64062H69.8438ZM70.0938 9.79688H69.6875V10.2969H70.0938V9.79688ZM69.7837 9.81611C68.6922 9.36134 67.5229 8.5828 66.2758 7.46974L65.9429 7.84276C67.2167 8.9797 68.4328 9.79491 69.5913 10.2776L69.7837 9.81611ZM65.9532 7.46103C64.6272 8.52186 63.57 9.31343 62.7796 9.83865C62.384 10.1015 62.0602 10.2944 61.8058 10.4206C61.5408 10.5522 61.3849 10.5938 61.3125 10.5938V11.0938C61.5109 11.0938 61.758 11.0025 62.0281 10.8685C62.309 10.7291 62.6524 10.5235 63.0563 10.2551C63.8649 9.71782 64.9353 8.91564 66.2655 7.85147L65.9532 7.46103ZM61.5625 10.8438V10.4375H61.0625V10.8438H61.5625ZM61.4914 10.6121C63.6229 8.42846 65.2256 6.7007 66.2966 5.4307C66.8316 4.79623 67.2381 4.27122 67.5121 3.85786C67.649 3.65136 67.7562 3.46769 67.83 3.30864C67.9012 3.15542 67.9531 3.00063 67.9531 2.85938H67.4531C67.4531 2.88999 67.4385 2.96454 67.3765 3.0981C67.3172 3.22583 67.2247 3.3864 67.0953 3.5816C66.8368 3.97162 66.4444 4.47981 65.9144 5.10836C64.8551 6.3644 63.2625 8.08195 61.1336 10.2629L61.4914 10.6121ZM67.8132 2.63489L67.0163 2.24427L66.7962 2.69323L67.5931 3.08386L67.8132 2.63489ZM66.8617 2.22275C65.4321 2.48174 64.2503 2.60938 63.3125 2.60938V3.10938C64.2914 3.10938 65.5054 2.9766 66.9508 2.71475L66.8617 2.22275ZM63.3125 2.60938H62.9062V3.10938H63.3125V2.60938ZM63.1562 2.85938V2.46875H62.6562V2.85938H63.1562ZM63.1281 2.58409C63.4014 2.05834 63.5625 1.61129 63.5625 1.26562H63.0625C63.0625 1.48246 62.9527 1.8375 62.6844 2.35341L63.1281 2.58409ZM72.8906 14.6875H74.0781V14.1875H72.8906V14.6875ZM74.0781 14.6875C74.18 14.6875 74.3171 14.7393 74.4923 14.9123C74.6671 15.0848 74.8575 15.3566 75.06 15.7414L75.5025 15.5086C75.2883 15.1017 75.0699 14.7798 74.8436 14.5564C74.6178 14.3336 74.3616 14.1875 74.0781 14.1875V14.6875ZM75.0312 15.625V16.0312H75.5312V15.625H75.0312ZM75.0364 15.9807C74.7706 17.2679 74.571 18.2793 74.4376 19.014C74.3064 19.7366 74.2344 20.217 74.2344 20.4219H74.7344C74.7344 20.2726 74.7951 19.8441 74.9296 19.1032C75.0619 18.3744 75.2606 17.3675 75.5261 16.0818L75.0364 15.9807ZM74.2344 20.4219V21.625H74.7344V20.4219H74.2344ZM74.4844 21.375H73.6875V21.875H74.4844V21.375ZM73.9325 21.5752L73.5262 19.5752L73.0363 19.6748L73.4425 21.6748L73.9325 21.5752ZM73.5254 19.6787C73.7912 18.4698 73.9908 17.5304 74.1241 16.8613C74.1907 16.527 74.2411 16.2585 74.2749 16.057C74.3073 15.8636 74.3281 15.7121 74.3281 15.625H73.8281C73.8281 15.6629 73.8157 15.7718 73.7818 15.9743C73.7492 16.1686 73.6999 16.4314 73.6337 16.7637C73.5014 17.4279 73.3026 18.3635 73.0371 19.5713L73.5254 19.6787ZM74.0781 15.375H72.0938V15.875H74.0781V15.375ZM72.0432 15.3802C70.7313 15.6509 69.7111 15.8536 68.9818 15.9885C68.6171 16.0561 68.3266 16.1063 68.1096 16.1396C67.8859 16.1739 67.7565 16.1875 67.7031 16.1875V16.6875C67.8008 16.6875 67.9677 16.6672 68.1854 16.6338C68.4097 16.5994 68.7058 16.5481 69.0728 16.4802C69.8071 16.3443 70.8312 16.1408 72.1443 15.8698L72.0432 15.3802ZM67.7031 16.1875H66.1094V16.6875H67.7031V16.1875ZM66.3594 16.4375C66.3594 16.3326 66.4228 16.1888 66.6754 16.0142C66.9259 15.8411 67.3203 15.6691 67.8754 15.5054C68.9822 15.179 70.6584 14.9047 72.9147 14.6863L72.8665 14.1887C70.602 14.4078 68.8876 14.6856 67.734 15.0258C67.1589 15.1955 66.7056 15.3855 66.3911 15.6029C66.0785 15.819 65.8594 16.0945 65.8594 16.4375H66.3594ZM90.6719 0.03125V-0.21875H90.4219V0.03125H90.6719ZM93.8594 3.23438H93.6094V3.48438H93.8594V3.23438ZM96.2656 3.23438H96.5156V2.98438H96.2656V3.23438ZM96.2656 4.4375L96.4512 4.60501L96.5156 4.53364V4.4375H96.2656ZM94.6719 6.42188H94.4219V6.60607L94.5978 6.66065L94.6719 6.42188ZM99.8594 8.03125H100.109V7.84706L99.9334 7.79248L99.8594 8.03125ZM99.8594 9.21875V9.46875H100.109V9.21875H99.8594ZM93.4688 6.82812L93.5711 6.60003L93.4259 6.53488L93.3054 6.63887L93.4688 6.82812ZM87.875 10.0156H87.625V10.3321L87.9329 10.2588L87.875 10.0156ZM87.875 8.82812L87.777 8.59814L87.625 8.66291V8.82812H87.875ZM94.6719 4.4375L94.8831 4.5713L95.1262 4.1875H94.6719V4.4375ZM89.4688 4.4375H89.2188V4.6875H89.4688V4.4375ZM89.4688 3.625L89.4342 3.3774L89.2188 3.40749V3.625H89.4688ZM92.2656 3.23438L92.3774 3.01077L92.308 2.97604L92.231 2.98678L92.2656 3.23438ZM93.4688 3.625V3.875H93.7188V3.625H93.4688ZM90.6719 0.4375H90.4219V0.546613L90.5019 0.620808L90.6719 0.4375ZM94.6719 8.82812V8.57812H94.4219V8.82812H94.6719ZM95.8594 8.82812H96.1094V8.57812H95.8594V8.82812ZM95.8594 12.0156H95.6094V12.2656H95.8594V12.0156ZM100.25 12.0156H100.5V11.7656H100.25V12.0156ZM99.4531 13.2188V12.9688H99.4457L99.4384 12.9692L99.4531 13.2188ZM89.4688 13.6094H89.2188V13.8594H89.4688V13.6094ZM89.4688 12.4219V12.1719H89.2188V12.4219H89.4688ZM95.0625 12.4219V12.6719H95.3661L95.3079 12.374L95.0625 12.4219ZM94.6719 10.4219H94.4219V10.4461L94.4265 10.4698L94.6719 10.4219ZM96.6562 16.0156L96.8192 15.826L96.7489 15.7656H96.6562V16.0156ZM92.6719 20.4062H92.4219V20.4319L92.4271 20.4571L92.6719 20.4062ZM92.6719 18.8125L92.4369 18.7272L92.4219 18.7685V18.8125H92.6719ZM93.8594 18.8125L93.6098 18.7982L93.6094 18.8054V18.8125H93.8594ZM93.8594 19.6094H93.6094V19.6289L93.6124 19.6481L93.8594 19.6094ZM96.6562 20.4062V20.6562H96.7315L96.7943 20.6147L96.6562 20.4062ZM97.8594 19.6094L97.9974 19.8178L98.1422 19.7219L98.1029 19.5528L97.8594 19.6094ZM95.8594 17.2031L95.9546 16.972L95.845 16.9268L95.7406 16.9831L95.8594 17.2031ZM90.6719 0.28125C91.6955 0.28125 92.4174 0.538207 92.8853 1.00838C93.3534 1.47877 93.6094 2.2049 93.6094 3.23438H94.1094C94.1094 2.12844 93.8341 1.253 93.2397 0.655687C92.6451 0.0581467 91.7732 -0.21875 90.6719 -0.21875V0.28125ZM93.8594 3.48438H96.2656V2.98438H93.8594V3.48438ZM96.0156 3.23438V4.4375H96.5156V3.23438H96.0156ZM96.08 4.26999C95.5478 4.8596 95.1456 5.32346 94.8754 5.65986C94.7407 5.82753 94.6354 5.96777 94.5626 6.07839C94.5265 6.13339 94.495 6.18601 94.4717 6.23421C94.4528 6.27327 94.4219 6.34325 94.4219 6.42188H94.9219C94.9219 6.46404 94.9075 6.48145 94.9219 6.45182C94.9318 6.43134 94.9501 6.39916 94.9803 6.35325C95.0403 6.26205 95.1343 6.13601 95.2652 5.97295C95.5263 5.64789 95.9209 5.19248 96.4512 4.60501L96.08 4.26999ZM94.5978 6.66065L99.7853 8.27002L99.9334 7.79248L94.7459 6.1831L94.5978 6.66065ZM99.6094 8.03125V9.21875H100.109V8.03125H99.6094ZM99.8594 8.96875C99.7185 8.96875 99.4803 8.92723 99.1291 8.82864C98.7836 8.73166 98.3471 8.58486 97.8181 8.38694C96.7602 7.99122 95.3452 7.39602 93.5711 6.60003L93.3664 7.05622C95.1444 7.85398 96.5705 8.4541 97.6429 8.85525C98.1789 9.05576 98.6298 9.2078 98.9939 9.31003C99.3524 9.41066 99.6461 9.46875 99.8594 9.46875V8.96875ZM93.3054 6.63887C91.3438 8.33206 89.5145 9.36828 87.8171 9.77242L87.9329 10.2588C89.7355 9.82964 91.6354 8.74086 93.6321 7.01738L93.3054 6.63887ZM88.125 10.0156V8.82812H87.625V10.0156H88.125ZM87.973 9.05811C89.8139 8.27365 91.3109 7.51079 92.4599 6.76859C93.6053 6.02865 94.4226 5.29803 94.8831 4.5713L94.4607 4.3037C94.0566 4.94155 93.3087 5.62499 92.1886 6.3486C91.0719 7.06994 89.6028 7.8201 87.777 8.59814L87.973 9.05811ZM94.6719 4.1875H89.4688V4.6875H94.6719V4.1875ZM89.7188 4.4375V3.625H89.2188V4.4375H89.7188ZM89.5033 3.8726L92.3002 3.48197L92.231 2.98678L89.4342 3.3774L89.5033 3.8726ZM92.1538 3.45798C92.6799 3.72101 93.1255 3.875 93.4688 3.875V3.375C93.2495 3.375 92.893 3.26858 92.3774 3.01077L92.1538 3.45798ZM93.7188 3.625C93.7188 3.44772 93.6228 3.25343 93.5046 3.06847C93.3784 2.87102 93.1943 2.63634 92.9574 2.36636C92.4829 1.82551 91.7763 1.12079 90.8419 0.254192L90.5019 0.620808C91.432 1.48337 92.1239 2.17449 92.5816 2.69614C92.8109 2.95741 92.9765 3.17065 93.0833 3.33778C93.1981 3.5174 93.2188 3.60437 93.2188 3.625H93.7188ZM90.9219 0.4375V0.03125H90.4219V0.4375H90.9219ZM94.6719 9.07812H95.8594V8.57812H94.6719V9.07812ZM95.6094 8.82812V12.0156H96.1094V8.82812H95.6094ZM95.8594 12.2656H100.25V11.7656H95.8594V12.2656ZM100 12.0156V12.4219H100.5V12.0156H100ZM100 12.4219C100 12.649 99.9434 12.7734 99.874 12.8428C99.8046 12.9121 99.6802 12.9688 99.4531 12.9688V13.4688C99.7573 13.4688 100.031 13.3925 100.228 13.1963C100.424 13.0001 100.5 12.726 100.5 12.4219H100ZM99.4384 12.9692C95.0333 13.2295 91.7112 13.3594 89.4688 13.3594V13.8594C91.7263 13.8594 95.0604 13.7288 99.4679 13.4683L99.4384 12.9692ZM89.7188 13.6094V12.4219H89.2188V13.6094H89.7188ZM89.4688 12.6719H95.0625V12.1719H89.4688V12.6719ZM95.3079 12.374L94.9172 10.374L94.4265 10.4698L94.8171 12.4698L95.3079 12.374ZM94.9219 10.4219V8.82812H94.4219V10.4219H94.9219ZM96.4933 16.2052C97.8125 17.3389 98.4062 18.3376 98.4062 19.2031H98.9062C98.9062 18.1103 98.1666 16.984 96.8192 15.826L96.4933 16.2052ZM98.4062 19.2031C98.4062 19.956 98.1892 20.4783 97.794 20.8183C97.3916 21.1645 96.7616 21.3594 95.8594 21.3594V21.8594C96.8218 21.8594 97.5902 21.6532 98.1201 21.1973C98.6571 20.7353 98.9062 20.0544 98.9062 19.2031H98.4062ZM95.8594 21.3594C94.8918 21.3594 94.1717 21.2595 93.682 21.0747C93.1967 20.8915 92.9763 20.6423 92.9166 20.3554L92.4271 20.4571C92.5341 20.9723 92.9283 21.3246 93.5055 21.5425C94.0783 21.7587 94.8687 21.8594 95.8594 21.8594V21.3594ZM92.9219 20.4062V18.8125H92.4219V20.4062H92.9219ZM92.9069 18.8978C93.2318 18.0029 93.7059 17.3501 94.3194 16.9195C94.9329 16.4888 95.7066 16.2656 96.6562 16.2656V15.7656C95.6267 15.7656 94.7468 16.0086 94.0322 16.5102C93.3176 17.0118 92.789 17.7576 92.4369 18.7272L92.9069 18.8978ZM93.6094 18.8125V19.6094H94.1094V18.8125H93.6094ZM93.6124 19.6481C93.659 19.9453 93.7631 20.2022 93.95 20.3855C94.1415 20.5734 94.3918 20.6562 94.6719 20.6562V20.1562C94.4937 20.1562 94.3793 20.1063 94.3 20.0285C94.2161 19.9462 94.1431 19.8047 94.1064 19.5706L93.6124 19.6481ZM94.6719 20.6562H96.6562V20.1562H94.6719V20.6562ZM96.7943 20.6147L97.9974 19.8178L97.7213 19.4009L96.5182 20.1978L96.7943 20.6147ZM98.1029 19.5528C97.8147 18.3113 97.0955 17.4418 95.9546 16.972L95.7642 17.4343C96.7482 17.8395 97.3624 18.5741 97.6159 19.6659L98.1029 19.5528ZM95.7406 16.9831C95.0793 17.34 94.5691 17.6597 94.2183 17.9419C94.043 18.083 93.9 18.2206 93.7973 18.3552C93.6966 18.4872 93.619 18.6367 93.6098 18.7982L94.109 18.8268C94.1102 18.806 94.1237 18.7517 94.1948 18.6585C94.2641 18.5678 94.3737 18.4587 94.5317 18.3315C94.8476 18.0773 95.327 17.7745 95.9781 17.4231L95.7406 16.9831ZM112.703 4.45312V4.20312H112.453V4.45312H112.703ZM113.5 4.45312L113.742 4.39109L113.694 4.20312H113.5V4.45312ZM114.312 12.4375L114.534 12.5528L114.562 12.4986V12.4375H114.312ZM113.906 13.6406H113.656V13.8545L113.868 13.8876L113.906 13.6406ZM114.703 17.625L114.922 17.7466L114.953 17.6899V17.625H114.703ZM107.516 14.4375V14.1875H107.266V14.4375H107.516ZM108.328 14.4375L108.575 14.3972L108.541 14.1875H108.328V14.4375ZM108.719 16.8281L108.472 16.8684L108.506 17.0781H108.719V16.8281ZM113.5 16.8281V17.0781H113.75V16.8281H113.5ZM113.5 14.4375H113.75V14.0365L113.39 14.213L113.5 14.4375ZM112.703 14.8281V15.0781H112.761L112.813 15.0526L112.703 14.8281ZM112.312 14.8281L112.099 14.6972L111.865 15.0781H112.312V14.8281ZM113.109 12.8438H113.359V12.8365L113.359 12.8293L113.109 12.8438ZM105.922 6.0625V5.8125H105.91L105.897 5.81369L105.922 6.0625ZM107.516 6.0625L107.541 5.81384L107.529 5.8125H107.516V6.0625ZM109.922 7.25L110.159 7.32961L110.172 7.29087V7.25H109.922ZM107.922 9.25V9H107.672V9.25H107.922ZM107.922 10.0469H107.672V10.2969H107.922V10.0469ZM111.906 11.25H112.156V11.0829L112.002 11.019L111.906 11.25ZM111.906 12.0469V12.2969H112.156V12.0469H111.906ZM111.516 12.0469L111.457 12.2898L111.486 12.2969H111.516V12.0469ZM107.125 10.4375L107.254 10.2235L107.115 10.1392L106.981 10.2329L107.125 10.4375ZM103.141 13.2344V13.4844H103.22L103.284 13.439L103.141 13.2344ZM102.734 13.2344H102.484V13.4844H102.734V13.2344ZM102.734 12.8438L102.558 12.667L102.484 12.7402V12.8438H102.734ZM108.328 7.25L108.505 7.42678L108.932 7H108.328V7.25ZM103.141 6.85938H103.391V6.45841L103.031 6.63489L103.141 6.85938ZM102.344 7.25V7.5H102.402L102.454 7.47448L102.344 7.25ZM101.938 7.25H101.688V7.5H101.938V7.25ZM101.938 6.45312L101.913 6.20432L101.688 6.22644V6.45312H101.938ZM112.312 18.0312V18.2812H112.373L112.426 18.254L112.312 18.0312ZM109.125 18.0312V17.7812H108.821L108.88 18.0795L109.125 18.0312ZM109.516 20.0156L109.27 20.0639L109.31 20.2656H109.516V20.0156ZM112.312 20.0156V20.2656H112.562V20.0156H112.312ZM113.109 18.0312L113.304 18.1885L113.359 18.1198V18.0312H113.109ZM113.109 17.625H113.359V17.2169L112.996 17.4023L113.109 17.625ZM112.703 4.70312H113.5V4.20312H112.703V4.70312ZM113.258 4.51516C113.792 6.60242 114.062 9.24127 114.062 12.4375H114.562C114.562 9.21706 114.291 6.533 113.742 4.39109L113.258 4.51516ZM114.091 12.3222C113.817 12.8479 113.656 13.295 113.656 13.6406H114.156C114.156 13.4238 114.266 13.0688 114.534 12.5528L114.091 12.3222ZM113.868 13.8876C114.103 13.9245 114.245 13.9968 114.327 14.0791C114.404 14.1562 114.453 14.2662 114.453 14.4375H114.953C114.953 14.1609 114.869 13.9141 114.681 13.7256C114.497 13.5423 114.241 13.4401 113.945 13.3936L113.868 13.8876ZM114.453 14.4375V17.625H114.953V14.4375H114.453ZM114.485 17.5034C113.819 18.6997 113.29 19.5913 112.897 20.1818C112.7 20.4781 112.542 20.6917 112.421 20.8287C112.36 20.8977 112.315 20.9402 112.284 20.9635C112.245 20.9935 112.26 20.9688 112.312 20.9688V21.4688C112.431 21.4688 112.527 21.4066 112.586 21.3617C112.654 21.3101 112.725 21.2403 112.796 21.1596C112.939 20.9971 113.112 20.7615 113.314 20.4588C113.718 19.8514 114.254 18.9461 114.922 17.7466L114.485 17.5034ZM112.312 20.9688H109.125V21.4688H112.312V20.9688ZM109.125 20.9688C108.961 20.9688 108.794 20.888 108.625 20.6499C108.451 20.4055 108.292 20.0177 108.161 19.4657C107.9 18.3647 107.766 16.6931 107.766 14.4375H107.266C107.266 16.7027 107.4 18.4217 107.675 19.5812C107.812 20.1593 107.989 20.6192 108.217 20.9399C108.45 21.267 108.753 21.4688 109.125 21.4688V20.9688ZM107.516 14.6875H108.328V14.1875H107.516V14.6875ZM108.081 14.4778L108.472 16.8684L108.965 16.7878L108.575 14.3972L108.081 14.4778ZM108.719 17.0781H113.5V16.5781H108.719V17.0781ZM113.75 16.8281V14.4375H113.25V16.8281H113.75ZM113.39 14.213L112.593 14.6036L112.813 15.0526L113.61 14.662L113.39 14.213ZM112.703 14.5781H112.312V15.0781H112.703V14.5781ZM112.526 14.959C113.058 14.0923 113.359 13.3781 113.359 12.8438H112.859C112.859 13.226 112.629 13.8348 112.099 14.6972L112.526 14.959ZM113.359 12.8293C113.088 8.15881 112.953 5.37107 112.953 4.45312H112.453C112.453 5.38934 112.589 8.19536 112.86 12.8582L113.359 12.8293ZM105.922 6.3125H107.516V5.8125H105.922V6.3125ZM107.49 6.31116C108.282 6.39348 108.849 6.53036 109.21 6.70856C109.567 6.88508 109.672 7.07187 109.672 7.25H110.172C110.172 6.80313 109.875 6.47951 109.431 6.26019C108.99 6.04256 108.353 5.89818 107.541 5.81384L107.49 6.31116ZM109.685 7.17039C109.248 8.4718 108.641 9 107.922 9V9.5C108.973 9.5 109.7 8.69487 110.159 7.32961L109.685 7.17039ZM107.672 9.25V10.0469H108.172V9.25H107.672ZM107.922 10.2969C108.243 10.2969 108.727 10.3883 109.385 10.587C110.038 10.7842 110.846 11.0817 111.811 11.481L112.002 11.019C111.029 10.6162 110.204 10.3121 109.529 10.1083C108.859 9.90602 108.319 9.79688 107.922 9.79688V10.2969ZM111.656 11.25V12.0469H112.156V11.25H111.656ZM111.906 11.7969H111.516V12.2969H111.906V11.7969ZM111.575 11.804C109.658 11.3377 108.223 10.8085 107.254 10.2235L106.996 10.6515C108.027 11.2748 109.519 11.8186 111.457 12.2898L111.575 11.804ZM106.981 10.2329L102.997 13.0298L103.284 13.439L107.269 10.6421L106.981 10.2329ZM103.141 12.9844H102.734V13.4844H103.141V12.9844ZM102.984 13.2344V12.8438H102.484V13.2344H102.984ZM102.911 13.0205L108.505 7.42678L108.151 7.07322L102.558 12.667L102.911 13.0205ZM108.328 7H103.531V7.5H108.328V7ZM103.531 7C103.44 7 103.417 6.97725 103.415 6.97557C103.413 6.97388 103.391 6.95105 103.391 6.85938H102.891C102.891 7.02812 102.933 7.2006 103.062 7.32912C103.19 7.45764 103.363 7.5 103.531 7.5V7ZM103.031 6.63489L102.234 7.02552L102.454 7.47448L103.251 7.08386L103.031 6.63489ZM102.344 7H101.938V7.5H102.344V7ZM102.188 7.25V6.45312H101.688V7.25H102.188ZM101.962 6.70193L105.946 6.31131L105.897 5.81369L101.913 6.20432L101.962 6.70193ZM112.312 17.7812H109.125V18.2812H112.312V17.7812ZM108.88 18.0795L109.27 20.0639L109.761 19.9673L109.37 17.983L108.88 18.0795ZM109.516 20.2656H112.312V19.7656H109.516V20.2656ZM112.562 20.0156C112.562 19.4201 112.799 18.8124 113.304 18.1885L112.915 17.874C112.358 18.5626 112.062 19.2779 112.062 20.0156H112.562ZM113.359 18.0312V17.625H112.859V18.0312H113.359ZM112.996 17.4023L112.199 17.8085L112.426 18.254L113.223 17.8477L112.996 17.4023ZM118.797 1.23438V0.984375H118.772L118.747 0.989455L118.797 1.23438ZM122.797 1.23438H123.047V0.984375H122.797V1.23438ZM118 2.03125L118.125 1.81478L118.005 1.7455L117.883 1.81041L118 2.03125ZM116.812 2.4375H116.562V2.6875H116.812V2.4375ZM116.812 1.64062L116.762 1.3957L116.562 1.43662V1.64062H116.812ZM127.188 2.82812H127.438V2.57812H127.188V2.82812ZM127.188 8.82812H126.938V9.07812H127.188V8.82812ZM130.781 8.82812H131.031V8.57812H130.781V8.82812ZM129.578 10.0156L129.468 10.2401L129.52 10.2656H129.578V10.0156ZM128.781 9.625L128.891 9.40052L128.816 9.36343L128.733 9.37971L128.781 9.625ZM127.188 17.6094H127.438V17.6006L127.437 17.5919L127.188 17.6094ZM119.594 14.0156L119.482 13.792L119.325 13.8704L119.345 14.0444L119.594 14.0156ZM120.406 13.6094V13.3594H120.347L120.294 13.3858L120.406 13.6094ZM120.797 13.6094H121.047V13.3594H120.797V13.6094ZM121.594 16.0156V16.2656H121.844V16.0156H121.594ZM122 15.6094H122.25V15.3594H122V15.6094ZM122 16.4062H121.75V16.6562H122V16.4062ZM125.984 14.8125L126.219 14.8998L126.242 14.8376L126.231 14.7722L125.984 14.8125ZM125.594 12.4219L125.345 12.3961L125.342 12.4293L125.347 12.4622L125.594 12.4219ZM125.984 3.625L125.737 3.58626L125.734 3.60551V3.625H125.984ZM123.203 4.03125L123.428 3.92121L123.343 3.74781L123.153 3.78625L123.203 4.03125ZM123.594 4.82812L123.667 5.0671L123.947 4.98108L123.818 4.71809L123.594 4.82812ZM119.203 5.625L119.169 5.8726L119.186 5.875H119.203V5.625ZM116.406 5.23438H116.156V5.45189L116.372 5.48197L116.406 5.23438ZM116.406 4.4375V4.1875H116.156V4.4375H116.406ZM121.203 4.4375V4.6875H121.228L121.253 4.6825L121.203 4.4375ZM123.203 9.21875H123.453V9.14935L123.417 9.08988L123.203 9.21875ZM122 11.2188V11.4688H122.061L122.115 11.4406L122 11.2188ZM117.609 10.0156H117.359V10.0767L117.388 10.1309L117.609 10.0156ZM119.203 8.82812H118.953V8.88714L118.98 8.93993L119.203 8.82812ZM120 10.4219L119.776 10.5337L119.899 10.7785L120.132 10.6344L120 10.4219ZM122 10.0156V10.2656H122.25V10.0156H122ZM122 8.82812H122.25V8.57812H122V8.82812ZM120.406 8.03125L120.565 7.83818L120.496 7.78125H120.406V8.03125ZM120 8.03125V7.78125H119.981L119.961 7.78427L120 8.03125ZM121.203 16.8125L121.342 16.6049L120.953 16.3437V16.8125H121.203ZM121.203 19.6094H120.953V19.6289L120.956 19.6481L121.203 19.6094ZM125.984 17.6094H126.234V17.3594H125.984V17.6094ZM125.594 17.2031H125.844V16.8972L125.544 16.9581L125.594 17.2031ZM123.594 17.6094V17.8594H123.619L123.644 17.8544L123.594 17.6094ZM122.391 17.6094L122.251 17.817L122.315 17.8594H122.391V17.6094ZM118.797 1.48438H122.797V0.984375H118.797V1.48438ZM122.547 1.23438V1.64062H123.047V1.23438H122.547ZM122.547 1.64062C122.547 1.86771 122.49 1.99211 122.421 2.0615C122.351 2.1309 122.227 2.1875 122 2.1875V2.6875C122.304 2.6875 122.578 2.61129 122.774 2.41506C122.971 2.21883 123.047 1.94479 123.047 1.64062H122.547ZM122 2.1875H119.594V2.6875H122V2.1875ZM119.594 2.1875C119.04 2.1875 118.552 2.06156 118.125 1.81478L117.875 2.24772C118.385 2.5426 118.96 2.6875 119.594 2.6875V2.1875ZM117.883 1.81041C117.378 2.07825 117.029 2.1875 116.812 2.1875V2.6875C117.159 2.6875 117.601 2.52591 118.117 2.25209L117.883 1.81041ZM117.062 2.4375V1.64062H116.562V2.4375H117.062ZM116.863 1.88555L118.847 1.4793L118.747 0.989455L116.762 1.3957L116.863 1.88555ZM126.797 3.07812H127.188V2.57812H126.797V3.07812ZM126.938 2.82812V8.82812H127.438V2.82812H126.938ZM127.188 9.07812H130.781V8.57812H127.188V9.07812ZM130.531 8.82812V9.21875H131.031V8.82812H130.531ZM130.531 9.21875C130.531 9.41085 130.465 9.5269 130.342 9.60798C130.202 9.70104 129.959 9.76562 129.578 9.76562V10.2656C129.999 10.2656 130.358 10.1974 130.619 10.0248C130.897 9.84029 131.031 9.5579 131.031 9.21875H130.531ZM129.688 9.79114L128.891 9.40052L128.671 9.84948L129.468 10.2401L129.688 9.79114ZM128.733 9.37971C128.067 9.51077 127.553 9.64584 127.2 9.78754C127.025 9.85789 126.874 9.93569 126.763 10.0256C126.656 10.1128 126.547 10.2442 126.547 10.4219H127.047C127.047 10.4641 127.021 10.4607 127.078 10.4139C127.133 10.3696 127.231 10.314 127.386 10.2515C127.695 10.1276 128.172 9.99964 128.83 9.87029L128.733 9.37971ZM126.547 10.4219C126.547 11.5157 126.678 13.9209 126.938 17.6269L127.437 17.5919C127.176 13.8812 127.047 11.4947 127.047 10.4219H126.547ZM126.938 17.6094C126.938 18.891 126.555 19.8109 125.828 20.4174C125.092 21.0311 123.961 21.3594 122.391 21.3594V21.8594C124.018 21.8594 125.285 21.521 126.148 20.8014C127.02 20.0745 127.438 18.9944 127.438 17.6094H126.938ZM122.391 21.3594C121.667 21.3594 121.152 21.0934 120.806 20.5725C120.447 20.0336 120.25 19.1937 120.25 18.0156H119.75C119.75 19.2334 119.951 20.1903 120.39 20.8494C120.84 21.5264 121.521 21.8594 122.391 21.8594V21.3594ZM120.25 18.0156C120.25 17.6636 120.112 16.3099 119.842 13.9868L119.345 14.0444C119.617 16.388 119.75 17.701 119.75 18.0156H120.25ZM119.706 14.2392L120.518 13.833L120.294 13.3858L119.482 13.792L119.706 14.2392ZM120.406 13.8594H120.797V13.3594H120.406V13.8594ZM120.547 13.6094C120.547 14.4187 120.613 15.0527 120.759 15.4927C120.902 15.9254 121.161 16.2656 121.594 16.2656V15.7656C121.495 15.7656 121.356 15.7048 121.233 15.3355C121.113 14.9733 121.047 14.4042 121.047 13.6094H120.547ZM121.844 16.0156C121.844 15.9187 121.868 15.892 121.872 15.8877C121.876 15.8834 121.903 15.8594 122 15.8594V15.3594C121.826 15.3594 121.65 15.403 121.519 15.5342C121.387 15.6653 121.344 15.8417 121.344 16.0156H121.844ZM121.75 15.6094V16.4062H122.25V15.6094H121.75ZM122 16.6562H124.797V16.1562H122V16.6562ZM124.797 16.6562C125.115 16.6562 125.377 16.4439 125.591 16.1572C125.81 15.8638 126.017 15.4399 126.219 14.8998L125.75 14.7252C125.555 15.2476 125.367 15.6206 125.19 15.8584C125.008 16.103 124.875 16.1562 124.797 16.1562V16.6562ZM126.231 14.7722L125.84 12.3816L125.347 12.4622L125.738 14.8528L126.231 14.7722ZM125.842 12.4477C126.104 9.92957 126.234 7.52509 126.234 5.23438H125.734C125.734 7.50616 125.605 9.89334 125.345 12.3961L125.842 12.4477ZM126.234 5.23438V3.625H125.734V5.23438H126.234ZM126.231 3.66374C126.268 3.4297 126.341 3.28818 126.425 3.20583C126.504 3.1281 126.619 3.07812 126.797 3.07812V2.57812C126.517 2.57812 126.267 2.66096 126.075 2.84886C125.888 3.03214 125.784 3.28905 125.737 3.58626L126.231 3.66374ZM122.979 4.14129L123.369 4.93816L123.818 4.71809L123.428 3.92121L122.979 4.14129ZM123.52 4.58915C121.788 5.12151 120.624 5.375 120 5.375V5.875C120.709 5.875 121.942 5.59724 123.667 5.0671L123.52 4.58915ZM120 5.375H119.203V5.875H120V5.375ZM119.238 5.3774L116.441 4.98678L116.372 5.48197L119.169 5.8726L119.238 5.3774ZM116.656 5.23438V4.4375H116.156V5.23438H116.656ZM116.406 4.6875H121.203V4.1875H116.406V4.6875ZM121.253 4.6825L123.253 4.27625L123.153 3.78625L121.153 4.1925L121.253 4.6825ZM120.406 7.46875C121.344 7.46875 122.209 8.05141 122.989 9.34762L123.417 9.08988C122.593 7.71942 121.593 6.96875 120.406 6.96875V7.46875ZM122.953 9.21875V10.0156H123.453V9.21875H122.953ZM122.953 10.0156C122.953 10.1163 122.901 10.253 122.726 10.4287C122.551 10.6037 122.275 10.7942 121.885 10.9969L122.115 11.4406C122.527 11.2266 122.853 11.0083 123.079 10.7822C123.305 10.5569 123.453 10.3004 123.453 10.0156H122.953ZM122 10.9688H118.797V11.4688H122V10.9688ZM118.797 10.9688C118.703 10.9688 118.571 10.919 118.397 10.7424C118.224 10.5671 118.034 10.2909 117.831 9.90038L117.388 10.1309C117.601 10.5424 117.818 10.8678 118.041 11.0936C118.262 11.318 118.515 11.4688 118.797 11.4688V10.9688ZM117.859 10.0156C117.859 9.12187 118.083 8.49747 118.485 8.09475C118.888 7.69202 119.512 7.46875 120.406 7.46875V6.96875C119.435 6.96875 118.661 7.21163 118.132 7.74119C117.602 8.27076 117.359 9.0448 117.359 10.0156H117.859ZM118.98 8.93993L119.776 10.5337L120.224 10.3101L119.427 8.71632L118.98 8.93993ZM120.132 10.6344C120.51 10.4002 121.12 10.2656 122 10.2656V9.76562C121.088 9.76562 120.365 9.90191 119.868 10.2093L120.132 10.6344ZM122.25 10.0156V8.82812H121.75V10.0156H122.25ZM122 8.57812C121.676 8.57812 121.204 8.36391 120.565 7.83818L120.247 8.22432C120.9 8.76109 121.49 9.07812 122 9.07812V8.57812ZM120.406 7.78125H120V8.28125H120.406V7.78125ZM119.961 7.78427C119.665 7.83072 119.409 7.93292 119.226 8.11619C119.037 8.30475 118.953 8.55154 118.953 8.82812H119.453C119.453 8.65679 119.502 8.54681 119.579 8.46975C119.661 8.38739 119.804 8.31511 120.039 8.27823L119.961 7.78427ZM120.953 16.8125V19.6094H121.453V16.8125H120.953ZM120.956 19.6481C121.003 19.9443 121.105 20.2005 121.288 20.3838C121.477 20.5724 121.723 20.6562 122 20.6562V20.1562C121.829 20.1562 121.719 20.1073 121.642 20.0303C121.559 19.9479 121.487 19.8057 121.45 19.5706L120.956 19.6481ZM122 20.6562H122.391V20.1562H122V20.6562ZM122.391 20.6562C123.614 20.6562 124.578 20.4194 125.239 19.9043C125.913 19.38 126.234 18.5993 126.234 17.6094H125.734C125.734 18.4841 125.457 19.1018 124.932 19.5097C124.396 19.927 123.563 20.1562 122.391 20.1562V20.6562ZM125.984 17.3594C125.895 17.3594 125.874 17.3367 125.872 17.3345C125.868 17.3305 125.844 17.3024 125.844 17.2031H125.344C125.344 17.3747 125.385 17.5497 125.511 17.6811C125.639 17.8143 125.813 17.8594 125.984 17.8594V17.3594ZM125.544 16.9581L123.544 17.3644L123.644 17.8544L125.644 17.4481L125.544 16.9581ZM123.594 17.3594H122.391V17.8594H123.594V17.3594ZM122.53 17.4018L121.342 16.6049L121.064 17.0201L122.251 17.817L122.53 17.4018ZM150.531 1.67188V1.42188H150.281V1.67188H150.531ZM151.328 1.67188L151.575 1.63104L151.54 1.42188H151.328V1.67188ZM152.125 9.25H151.875V9.5H152.125V9.25ZM154.922 9.25H155.172V9H154.922V9.25ZM154.922 10.0469V10.2969H155.172V10.0469H154.922ZM151.734 12.4375L151.979 12.4873L151.984 12.4626V12.4375H151.734ZM151.328 14.4375V14.6875H151.532L151.573 14.4873L151.328 14.4375ZM150.531 14.4375L150.283 14.4122L150.255 14.6875H150.531V14.4375ZM150.938 10.4375L151.186 10.4628L151.214 10.1875H150.938V10.4375ZM150.141 10.4375H149.891V10.6875H150.141V10.4375ZM150.141 9.64062V9.39062H149.891V9.64062H150.141ZM150.938 9.64062V9.89062H151.205L151.187 9.62352L150.938 9.64062ZM141.766 3.65625H142.016V3.18575L141.626 3.44907L141.766 3.65625ZM140.969 4.85938V4.60938H140.641L140.728 4.92552L140.969 4.85938ZM142.156 10.0469H141.906V10.2969H142.156V10.0469ZM145.75 5.26562H146V4.97828L145.715 5.01803L145.75 5.26562ZM142.953 5.65625V5.90625H142.971L142.988 5.90385L142.953 5.65625ZM141.766 5.65625H141.516V5.90625H141.766V5.65625ZM141.766 4.85938L141.717 4.61408L141.516 4.65379V4.85938H141.766ZM143.75 4.46875V4.21875H143.726L143.702 4.22346L143.75 4.46875ZM146.547 4.46875L146.789 4.407L146.741 4.21875H146.547V4.46875ZM146.953 6.0625H147.203V6.03114L147.195 6.00075L146.953 6.0625ZM141.359 11.25L141.119 11.3196L141.172 11.5H141.359V11.25ZM140.562 4.46875L140.423 4.26157L140.312 4.33591V4.46875H140.562ZM145.75 14.0312H146V13.7812H145.75V14.0312ZM150.531 18.4219V18.6719H150.555L150.579 18.6672L150.531 18.4219ZM152.531 18.0312H152.781V17.7277L152.483 17.7859L152.531 18.0312ZM152.531 18.8281L152.6 19.0686L152.781 19.0168V18.8281H152.531ZM149.734 19.625L149.706 19.8734L149.755 19.879L149.803 19.8654L149.734 19.625ZM144.953 14.8281L144.706 14.7894L144.703 14.8086V14.8281H144.953ZM150.531 1.92188H151.328V1.42188H150.531V1.92188ZM151.081 1.71271C151.612 4.91608 151.875 7.42648 151.875 9.25H152.375C152.375 7.38602 152.107 4.84433 151.575 1.63104L151.081 1.71271ZM152.125 9.5H154.922V9H152.125V9.5ZM154.672 9.25V10.0469H155.172V9.25H154.672ZM154.922 9.79688C153.835 9.79688 152.975 9.99933 152.381 10.4445C151.774 10.8999 151.484 11.5796 151.484 12.4375H151.984C151.984 11.7016 152.226 11.1861 152.681 10.8445C153.15 10.4929 153.883 10.2969 154.922 10.2969V9.79688ZM151.489 12.3877L151.083 14.3877L151.573 14.4873L151.979 12.4873L151.489 12.3877ZM151.328 14.1875H150.531V14.6875H151.328V14.1875ZM150.78 14.4628L151.186 10.4628L150.689 10.4122L150.283 14.4122L150.78 14.4628ZM150.938 10.1875H150.141V10.6875H150.938V10.1875ZM150.391 10.4375V9.64062H149.891V10.4375H150.391ZM150.141 9.89062H150.938V9.39062H150.141V9.89062ZM151.187 9.62352C150.916 5.67439 150.781 3.02654 150.781 1.67188H150.281C150.281 3.04638 150.417 5.71103 150.688 9.65773L151.187 9.62352ZM141.516 3.65625V4.0625H142.016V3.65625H141.516ZM141.516 4.0625C141.516 4.28959 141.459 4.41399 141.39 4.48338C141.32 4.55277 141.196 4.60938 140.969 4.60938V5.10938C141.273 5.10938 141.547 5.03317 141.743 4.83693C141.939 4.6407 142.016 4.36666 142.016 4.0625H141.516ZM140.728 4.92552C141.123 6.36678 141.419 7.51654 141.616 8.3761C141.815 9.24609 141.906 9.7936 141.906 10.0469H142.406C142.406 9.72723 142.3 9.12371 142.103 8.26453C141.904 7.39492 141.606 6.23739 141.21 4.79323L140.728 4.92552ZM142.156 10.2969H142.953V9.79688H142.156V10.2969ZM142.953 10.2969C143.973 10.2969 144.755 9.85225 145.267 8.97779C145.766 8.12401 146 6.87556 146 5.26562H145.5C145.5 6.84319 145.268 7.98536 144.835 8.72533C144.414 9.44462 143.798 9.79688 142.953 9.79688V10.2969ZM145.715 5.01803L142.919 5.40865L142.988 5.90385L145.785 5.51322L145.715 5.01803ZM142.953 5.40625H141.766V5.90625H142.953V5.40625ZM142.016 5.65625V4.85938H141.516V5.65625H142.016ZM141.814 5.10467L143.798 4.71404L143.702 4.22346L141.717 4.61408L141.814 5.10467ZM143.75 4.71875H146.547V4.21875H143.75V4.71875ZM146.305 4.5305L146.711 6.12425L147.195 6.00075L146.789 4.407L146.305 4.5305ZM146.703 6.0625C146.703 7.76652 146.373 8.99862 145.755 9.80047C145.146 10.59 144.228 11 142.953 11V11.5C144.345 11.5 145.427 11.0454 146.151 10.1058C146.866 9.17846 147.203 7.81682 147.203 6.0625H146.703ZM142.953 11H141.359V11.5H142.953V11ZM141.6 11.1804C141.077 9.37682 140.812 7.14149 140.812 4.46875H140.312C140.312 7.17101 140.579 9.45652 141.119 11.3196L141.6 11.1804ZM140.702 4.67593L141.906 3.86343L141.626 3.44907L140.423 4.26157L140.702 4.67593ZM145.5 14.0312C145.5 15.5333 145.876 16.7058 146.671 17.501C147.466 18.2962 148.639 18.6719 150.141 18.6719V18.1719C148.716 18.1719 147.693 17.8158 147.024 17.1474C146.356 16.4791 146 15.4563 146 14.0312H145.5ZM150.141 18.6719H150.531V18.1719H150.141V18.6719ZM150.579 18.6672L152.579 18.2766L152.483 17.7859L150.483 18.1765L150.579 18.6672ZM152.281 18.0312V18.8281H152.781V18.0312H152.281ZM152.463 18.5877L149.666 19.3846L149.803 19.8654L152.6 19.0686L152.463 18.5877ZM149.763 19.3766C148.193 19.1971 147.053 18.7823 146.309 18.1598C145.575 17.5461 145.203 16.711 145.203 15.625H144.703C144.703 16.841 145.128 17.8236 145.988 18.5433C146.838 19.2541 148.088 19.6883 149.706 19.8734L149.763 19.3766ZM145.203 15.625V14.8281H144.703V15.625H145.203ZM145.2 14.8669C145.237 14.6318 145.309 14.4896 145.392 14.4072C145.469 14.3302 145.579 14.2812 145.75 14.2812V13.7812C145.473 13.7812 145.227 13.8651 145.038 14.0537C144.855 14.237 144.753 14.4932 144.706 14.7894L145.2 14.8669ZM159.016 2.03125L159.232 1.90656L158.766 1.09552V2.03125H159.016ZM164.609 5.625L164.637 5.87348L164.859 5.84881V5.625H164.609ZM157.422 6.42188V6.67188H157.436L157.449 6.67035L157.422 6.42188ZM156.625 6.42188H156.375V6.67188H156.625V6.42188ZM156.625 5.625L156.58 5.37914L156.375 5.41688V5.625H156.625ZM159.828 5.21875V5.46875H160.277L160.041 5.08716L159.828 5.21875ZM168.609 4.82812V4.57812H168.551L168.499 4.60364L168.609 4.82812ZM169.016 4.82812H169.266V4.57812H169.016V4.82812ZM169.016 13.2188L169.238 13.3323L169.266 13.2788V13.2188H169.016ZM168.609 14.0156L168.387 13.9021L168.201 14.2656H168.609V14.0156ZM169.016 14.4062H168.766V14.8285L169.136 14.6255L169.016 14.4062ZM173.812 13.6094H174.062V13.3594H173.812V13.6094ZM173.812 14.4062L173.846 14.654L174.062 14.6247V14.4062H173.812ZM168.609 15.6094L168.858 15.6367L168.859 15.6231V15.6094H168.609ZM168.219 20V20.25H168.469V20H168.219ZM167.812 20L167.702 20.2245L167.755 20.25H167.812V20ZM167.016 19.6094L166.768 19.5732L166.742 19.7536L166.906 19.8339L167.016 19.6094ZM167.812 5.21875L167.702 4.99427L167.562 5.06288V5.21875H167.812ZM159.828 7.625V7.375H159.767L159.713 7.40315L159.828 7.625ZM164.609 9.625H164.859V9.57185L164.838 9.5233L164.609 9.625ZM164.609 10.4219L164.832 10.5351L164.859 10.4817V10.4219H164.609ZM158.625 11.2188H158.375V11.2522L158.384 11.2845L158.625 11.2188ZM159.422 10.4219H159.172V10.4414L159.175 10.4606L159.422 10.4219ZM161.422 11.2188V11.4688H161.447L161.472 11.4637L161.422 11.2188ZM163.422 10.8125L163.472 11.0575L163.672 11.0168V10.8125H163.422ZM161.812 8.42188H161.562V8.58842L161.716 8.65258L161.812 8.42188ZM161.812 8.01562H162.062V7.70397L161.758 7.77158L161.812 8.01562ZM162.625 14.4062V14.1562H162.548L162.485 14.1991L162.625 14.4062ZM163.016 14.4062H163.266V14.1562H163.016V14.4062ZM163.016 14.8125L163.261 14.8604L163.266 14.8367V14.8125H163.016ZM162.625 16.8125L162.38 16.7646L162.343 16.9526L162.515 17.037L162.625 16.8125ZM163.422 17.2031L163.312 17.4276L163.364 17.4531H163.422V17.2031ZM163.812 17.2031V17.4531H163.83L163.847 17.4507L163.812 17.2031ZM166.609 16.8125H166.859V16.5252L166.575 16.5649L166.609 16.8125ZM157.828 18.8125V19.0626L157.835 19.0624L157.828 18.8125ZM157.422 18.8125H157.172V19.0625H157.422V18.8125ZM161.812 17.2031L161.847 17.4508L162.062 17.4208V17.2031H161.812ZM161.812 16.8125H162.062V16.7477L162.031 16.6911L161.812 16.8125ZM161.422 15.2188L161.282 15.0116L161.172 15.0859V15.2188H161.422ZM158.799 2.15594C159.343 3.1011 159.894 3.82606 160.457 4.31722C161.021 4.80968 161.609 5.07812 162.219 5.07812V4.57812C161.766 4.57812 161.289 4.38042 160.786 3.94059C160.28 3.49946 159.761 2.82599 159.232 1.90656L158.799 2.15594ZM162.219 5.07812C163.008 5.07812 163.573 5.14473 163.933 5.26451C164.298 5.38644 164.359 5.52544 164.359 5.625H164.859C164.859 5.19331 164.522 4.93387 164.091 4.79017C163.653 4.64433 163.023 4.57812 162.219 4.57812V5.07812ZM164.582 5.37652L157.394 6.1734L157.449 6.67035L164.637 5.87348L164.582 5.37652ZM157.422 6.17188H156.625V6.67188H157.422V6.17188ZM156.875 6.42188V5.625H156.375V6.42188H156.875ZM156.67 5.87086C158.138 5.60025 159.186 5.46875 159.828 5.46875V4.96875C159.137 4.96875 158.05 5.10808 156.58 5.37914L156.67 5.87086ZM160.041 5.08716C159.513 4.23551 159.266 3.48445 159.266 2.82812H158.766C158.766 3.6093 159.059 4.45199 159.616 5.35034L160.041 5.08716ZM159.266 2.82812V2.03125H158.766V2.82812H159.266ZM168.609 5.07812H169.016V4.57812H168.609V5.07812ZM168.766 4.82812V13.2188H169.266V4.82812H168.766ZM168.793 13.1052L168.387 13.9021L168.832 14.1292L169.238 13.3323L168.793 13.1052ZM168.609 14.2656C168.709 14.2656 168.737 14.2896 168.741 14.2935C168.743 14.2956 168.766 14.3171 168.766 14.4062H169.266C169.266 14.235 169.221 14.0612 169.087 13.9331C168.956 13.8067 168.781 13.7656 168.609 13.7656V14.2656ZM169.136 14.6255C170.066 14.1154 171.087 13.8594 172.203 13.8594V13.3594C171.007 13.3594 169.903 13.6346 168.895 14.187L169.136 14.6255ZM172.203 13.8594H173.812V13.3594H172.203V13.8594ZM173.562 13.6094V14.4062H174.062V13.6094H173.562ZM173.779 14.1585C172.043 14.3931 170.733 14.6118 169.854 14.815C169.416 14.9162 169.074 15.0161 168.837 15.1165C168.72 15.1661 168.614 15.2217 168.534 15.2867C168.459 15.3468 168.359 15.4536 168.359 15.6094H168.859C168.859 15.6818 168.814 15.7032 168.848 15.6757C168.876 15.6532 168.933 15.619 169.032 15.5769C169.229 15.4937 169.537 15.4015 169.966 15.3022C170.822 15.1043 172.113 14.8881 173.846 14.654L173.779 14.1585ZM168.361 15.582C168.101 17.941 167.969 19.4205 167.969 20H168.469C168.469 19.4545 168.597 18.007 168.858 15.6367L168.361 15.582ZM168.219 19.75H167.812V20.25H168.219V19.75ZM167.923 19.7755L167.126 19.3849L166.906 19.8339L167.702 20.2245L167.923 19.7755ZM167.263 19.6455C167.797 15.9931 168.062 11.1827 168.062 5.21875H167.562C167.562 11.1714 167.297 15.9548 166.768 19.5732L167.263 19.6455ZM167.923 5.44323L168.719 5.05261L168.499 4.60364L167.702 4.99427L167.923 5.44323ZM159.828 7.875H160.625V7.375H159.828V7.875ZM160.625 7.875C162.636 7.875 163.844 8.52025 164.381 9.7267L164.838 9.5233C164.188 8.06308 162.739 7.375 160.625 7.375V7.875ZM164.359 9.625V10.4219H164.859V9.625H164.359ZM164.386 10.3087C164.064 10.9428 163.658 11.4051 163.172 11.7101C162.686 12.0148 162.106 12.1719 161.422 12.1719V12.6719C162.185 12.6719 162.861 12.4956 163.438 12.1336C164.014 11.772 164.477 11.2343 164.832 10.5351L164.386 10.3087ZM161.422 12.1719H161.016V12.6719H161.422V12.1719ZM161.016 12.1719C160.348 12.1719 159.849 12.0738 159.499 11.8978C159.159 11.7265 158.955 11.4802 158.866 11.153L158.384 11.2845C158.513 11.7594 158.818 12.1146 159.274 12.3444C159.721 12.5694 160.308 12.6719 161.016 12.6719V12.1719ZM158.875 11.2188V8.8125H158.375V11.2188H158.875ZM158.875 8.8125C158.875 8.71907 158.925 8.58661 159.101 8.4123C159.277 8.2393 159.553 8.04972 159.943 7.84685L159.713 7.40315C159.301 7.61695 158.976 7.83362 158.75 8.05645C158.526 8.27798 158.375 8.53093 158.375 8.8125H158.875ZM159.172 9.21875V10.4219H159.672V9.21875H159.172ZM159.175 10.4606C159.221 10.7568 159.324 11.013 159.507 11.1963C159.695 11.3849 159.942 11.4688 160.219 11.4688V10.9688C160.047 10.9688 159.937 10.9198 159.86 10.8428C159.778 10.7604 159.706 10.6182 159.669 10.3831L159.175 10.4606ZM160.219 11.4688H161.422V10.9688H160.219V11.4688ZM161.472 11.4637L163.472 11.0575L163.372 10.5675L161.372 10.9738L161.472 11.4637ZM163.672 10.8125C163.672 10.1996 163.528 9.66297 163.227 9.21586C162.926 8.769 162.481 8.42997 161.909 8.19117L161.716 8.65258C162.217 8.8617 162.577 9.14506 162.812 9.49508C163.048 9.84484 163.172 10.2796 163.172 10.8125H163.672ZM162.062 8.42188V8.01562H161.562V8.42188H162.062ZM161.758 7.77158C160.955 7.9501 160.333 8.14421 159.907 8.35872C159.694 8.46589 159.516 8.58479 159.389 8.7205C159.259 8.85863 159.172 9.02594 159.172 9.21875H159.672C159.672 9.18761 159.684 9.13681 159.754 9.0627C159.825 8.98617 159.946 8.89869 160.132 8.80535C160.503 8.61881 161.076 8.43532 161.867 8.25967L161.758 7.77158ZM162.625 14.6562H163.016V14.1562H162.625V14.6562ZM162.766 14.4062V14.8125H163.266V14.4062H162.766ZM162.77 14.7646L162.38 16.7646L162.87 16.8604L163.261 14.8604L162.77 14.7646ZM162.515 17.037L163.312 17.4276L163.532 16.9786L162.735 16.588L162.515 17.037ZM163.422 17.4531H163.812V16.9531H163.422V17.4531ZM163.847 17.4507L166.644 17.0601L166.575 16.5649L163.778 16.9555L163.847 17.4507ZM166.359 16.8125V17.2031H166.859V16.8125H166.359ZM166.359 17.2031C166.359 17.2794 166.299 17.4219 165.949 17.5954C165.615 17.7614 165.093 17.9143 164.369 18.0471C162.925 18.3117 160.745 18.4845 157.821 18.5626L157.835 19.0624C160.765 18.9842 162.976 18.8107 164.459 18.5389C165.198 18.4034 165.774 18.2405 166.172 18.0433C166.554 17.8535 166.859 17.5852 166.859 17.2031H166.359ZM157.828 18.5625H157.422V19.0625H157.828V18.5625ZM157.672 18.8125C157.672 18.7482 157.705 18.6538 157.855 18.53C158.007 18.4053 158.251 18.2747 158.606 18.1449C159.312 17.886 160.388 17.6532 161.847 17.4508L161.778 16.9555C160.31 17.1593 159.191 17.3978 158.433 17.6754C158.056 17.8138 157.752 17.9677 157.538 18.1438C157.322 18.3208 157.172 18.5435 157.172 18.8125H157.672ZM162.062 17.2031V16.8125H161.562V17.2031H162.062ZM162.031 16.6911C161.793 16.2633 161.672 15.7747 161.672 15.2188H161.172C161.172 15.8503 161.311 16.4242 161.594 16.9339L162.031 16.6911ZM161.562 15.4259L162.765 14.6134L162.485 14.1991L161.282 15.0116L161.562 15.4259Z" fill="#222222"/>
</svg>
