<svg width="140" height="23" viewBox="0 0 140 23" fill="none" xmlns="http://www.w3.org/2000/svg">
<path d="M8.51562 0.859375C10.1198 0.859375 10.9219 1.52604 10.9219 2.85938C10.9219 4.65104 10.2552 5.97917 8.92188 6.84375H8.51562V6.45312C9.04688 5.92188 9.3125 4.45833 9.3125 2.0625L8.51562 1.65625L6.125 2.45312V2.0625C6.39583 1.26042 7.19271 0.859375 8.51562 0.859375ZM1.73438 1.65625H2.9375C4.96875 1.65625 6.16667 2.1875 6.53125 3.25C6.53125 4.65625 5.72917 5.98958 4.125 7.25H3.73438V6.84375L5.32812 4.0625V2.85938L2.53125 2.45312C2.0625 2.72396 1.53125 2.85938 0.9375 2.85938V2.45312C1.02083 1.92188 1.28646 1.65625 1.73438 1.65625ZM6.125 8.84375H13.7031L15.7031 9.25L15.3125 10.0469L13.3125 9.64062H11.7188C11.3333 9.64062 10.9323 10.0417 10.5156 10.8438V13.6406C12.224 13.6406 13.1562 14.0365 13.3125 14.8281C10.8854 17.7552 8.89062 19.2188 7.32812 19.2188V20.0156C7.32812 20.224 7.72396 20.625 8.51562 21.2188L10.5156 20.8125H13.3125C13.1458 21.6146 12.0833 22.0156 10.125 22.0156H7.71875C7.30208 22.0156 6.77083 21.4844 6.125 20.4219C6.125 18.9115 7.58854 17.7135 10.5156 16.8281L11.7188 15.2344V14.8281C11.1875 14.8281 10.9219 14.6979 10.9219 14.4375L10.125 14.8281H9.3125C8.71875 14.8281 8.1875 14.6979 7.71875 14.4375C7.26042 14.6979 6.72917 14.8281 6.125 14.8281V14.4375C6.20833 13.9062 6.47396 13.6406 6.92188 13.6406H9.71875L9.3125 11.6406V10.8438L9.71875 10.0469H3.32812L1.34375 10.4375V9.25L6.125 8.84375ZM34.1875 1.625H34.5938L34.1875 3.625V6.03125C35.5208 6.03125 36.1875 6.29688 36.1875 6.82812C34.8542 6.82812 34.1875 7.09375 34.1875 7.625V8.82812C34.1875 9.93229 34.3229 11.3958 34.5938 13.2188C34.1875 14.2812 33.7865 14.8125 33.3906 14.8125H32.9844C32.9844 14.5312 33.1198 14.1302 33.3906 13.6094C33.2031 9.34896 32.8021 7.21875 32.1875 7.21875L29.7969 7.625V7.21875C29.9635 6.42708 31.026 6.03125 32.9844 6.03125V4.82812C32.9844 2.85938 33.3854 1.79167 34.1875 1.625ZM19.7969 3.23438C21.9323 3.23438 23 4.16667 23 6.03125C22.4688 7.72917 22.2031 8.66146 22.2031 8.82812C23.5365 9.61979 24.2031 10.5521 24.2031 11.625H23.4062C23.2396 11.625 22.4375 10.8229 21 9.21875C21 9.55208 20.0677 10.3542 18.2031 11.625H17.4062V10.8125C20.3333 9.21875 21.7969 7.48958 21.7969 5.625V4.82812L19.7969 4.42188H17.8125V3.625L19.7969 3.23438ZM27.7969 3.625L28.5938 4.82812V5.21875C28.5938 5.88542 28.3281 7.08854 27.7969 8.82812C28.8906 9.19271 29.6875 9.85417 30.1875 10.8125V12.0156H29.3906C29.3906 11.2135 28.5938 10.4167 27 9.625C27 10.5521 26.0677 11.6146 24.2031 12.8125H23.7969C26.1927 9.27083 27.3906 6.875 27.3906 5.625V4.82812H27C25.1042 5.08854 24.0365 5.21875 23.7969 5.21875V4.03125C24.1302 4.03125 25.4635 3.89583 27.7969 3.625ZM29.3906 15.6094C32.5885 15.6094 34.1875 16.5417 34.1875 18.4062C33.6562 19.7708 33.3906 20.8385 33.3906 21.6094H32.5938V17.2188C31.9896 17.2188 31.4531 17.0833 30.9844 16.8125C30.724 16.8125 30.5938 16.9479 30.5938 17.2188L29 16.8125L26.2031 17.2188V16.0156C26.8698 16.0156 27.9323 15.8802 29.3906 15.6094ZM44.6719 2.03125V2.4375C44.6719 3.13542 42.6719 3.66667 38.6719 4.03125C38.6719 2.96875 40.6719 2.30208 44.6719 2.03125ZM51.8594 2.82812H52.25C52.25 3.35938 52.1198 3.625 51.8594 3.625L52.25 6.42188V11.625L53.0469 11.2188H55.8438V12.0156L52.25 12.4219V13.6094C52.25 14.276 51.9844 15.474 51.4531 17.2031H50.25C50.7812 16.1719 51.0469 14.7083 51.0469 12.8125C51.0469 11.5417 50.9167 8.47917 50.6562 3.625L51.8594 2.82812ZM46.2656 5.625L46.6562 6.42188C42.625 7.22396 40.099 7.625 39.0781 7.625H38.6719C38.1406 7.625 37.875 7.35938 37.875 6.82812L46.2656 5.625ZM44.2656 8.82812C45.6927 9.35938 46.4896 10.026 46.6562 10.8281C46.3229 12.9531 45.3906 14.0156 43.8594 14.0156C42.474 14.0156 41.4115 13.2188 40.6719 11.625C41.3281 9.76042 42.526 8.82812 44.2656 8.82812ZM42.6719 10.0156C42.6719 10.4531 42.4062 10.8542 41.875 11.2188C42.2708 12.2812 42.6667 12.8125 43.0625 12.8125C44.4479 12.8125 45.25 12.4167 45.4688 11.625V10.4219L43.4688 10.0156H42.6719ZM46.2656 15.6094H47.0625L48.2656 19.6094H54.25V20C54.25 20.5417 53.9844 20.8125 53.4531 20.8125H47.4531C46.6615 18.75 46.2656 17.0156 46.2656 15.6094ZM79.2031 3.23438C80.2656 3.23438 80.7969 6.03125 80.7969 11.625C80.7969 12.7188 80.6667 13.7812 80.4062 14.8125L80.7969 16.8125C80.5365 19.0833 80.4062 20.8125 80.4062 22H80C79.7396 22 79.3385 21.4688 78.7969 20.4062L79.2031 18.4062V12.0156C79.2031 9.86979 79.0677 7.34375 78.7969 4.4375C79.0677 3.91667 79.2031 3.51562 79.2031 3.23438ZM68.8125 4.03125H70.0156C70.1823 6.16667 70.5833 7.23438 71.2188 7.23438H73.6094V8.42188L72.0156 10.8281V11.2188L75.2031 12.0156V13.2188C72.8073 12.875 71.6094 12.2083 71.6094 11.2188C71.401 11.2188 69.9375 12.2865 67.2188 14.4219H65.625V13.6094C67.7292 13.099 69.8594 11.3698 72.0156 8.42188C69.349 8.42188 68.0156 8.15625 68.0156 7.625V7.23438H70.0156C69.2135 5.73438 68.8125 4.66667 68.8125 4.03125ZM72.0156 14.0156V17.2031L70.8125 19.2031C71.0833 18.9427 73.2135 18.6771 77.2031 18.4062V19.6094C73.1823 20.1406 69.9896 20.4062 67.625 20.4062V20L66.8281 20.4062H65.625V19.2031H67.625C69.75 19.2031 70.8125 18.2708 70.8125 16.4062V14.4219C71.0938 14.4219 71.4948 14.2865 72.0156 14.0156ZM94.0781 4.03125H94.875C95.1458 5.5 95.2812 6.56771 95.2812 7.23438C95.2812 10.8177 95.0156 14.0104 94.4844 16.8125C93.9531 16.8125 93.6875 16.5469 93.6875 16.0156C93.9479 11.276 94.0781 7.41667 94.0781 4.4375V4.03125ZM88.8906 4.4375V5.23438C87.026 7.99479 86.0938 9.45833 86.0938 9.625L90.0938 10.8281V12.0156C88.1562 11.6198 86.6875 11.0885 85.6875 10.4219C84.1042 11.7552 83.0417 12.4219 82.5 12.4219V12.0156C83.6771 10.849 85.5417 8.32292 88.0938 4.4375H88.8906ZM90.0938 16.0156C90.0938 18.9427 91.5573 20.4062 94.4844 20.4062L96.0781 20.8125V21.6094H95.6719C91.151 21.6094 88.8906 20.276 88.8906 17.6094C89.2865 16.5469 89.6875 16.0156 90.0938 16.0156ZM115.844 1.67188H116.641C117.172 4.88021 117.438 7.40625 117.438 9.25H120.234V10.0469C118.109 10.0469 117.047 10.8438 117.047 12.4375L116.641 14.4375H115.844L116.25 10.4375H115.453V9.64062H116.25C115.979 5.69271 115.844 3.03646 115.844 1.67188ZM107.078 3.65625V4.0625C107.078 4.59375 106.812 4.85938 106.281 4.85938C107.073 7.74479 107.469 9.47396 107.469 10.0469H108.266C110.13 10.0469 111.062 8.45312 111.062 5.26562L108.266 5.65625H107.078V4.85938L109.062 4.46875H111.859L112.266 6.0625C112.266 9.52083 110.932 11.25 108.266 11.25H106.672C106.141 9.41667 105.875 7.15625 105.875 4.46875L107.078 3.65625ZM111.062 14.0312C111.062 16.9583 112.526 18.4219 115.453 18.4219H115.844L117.844 18.0312V18.8281L115.047 19.625C111.859 19.2604 110.266 17.9271 110.266 15.625V14.8281C110.349 14.2969 110.615 14.0312 111.062 14.0312ZM124.328 2.03125C125.401 3.89583 126.469 4.82812 127.531 4.82812C129.125 4.82812 129.922 5.09375 129.922 5.625L122.734 6.42188H121.938V5.625C123.406 5.35417 124.474 5.21875 125.141 5.21875C124.599 4.34375 124.328 3.54688 124.328 2.82812V2.03125ZM133.922 4.82812H134.328V13.2188L133.922 14.0156C134.193 14.0156 134.328 14.1458 134.328 14.4062C135.297 13.875 136.359 13.6094 137.516 13.6094H139.125V14.4062C135.656 14.875 133.922 15.276 133.922 15.6094C133.661 17.974 133.531 19.4375 133.531 20H133.125L132.328 19.6094C132.859 15.974 133.125 11.1771 133.125 5.21875L133.922 4.82812ZM125.141 7.625H125.938C128 7.625 129.328 8.29167 129.922 9.625V10.4219C129.245 11.7552 128.182 12.4219 126.734 12.4219H126.328C124.953 12.4219 124.156 12.0208 123.938 11.2188V8.8125C123.938 8.4375 124.339 8.04167 125.141 7.625ZM124.734 9.21875V10.4219C124.818 10.9531 125.083 11.2188 125.531 11.2188H126.734L128.734 10.8125C128.734 9.66667 128.198 8.86979 127.125 8.42188V8.01562C125.531 8.36979 124.734 8.77083 124.734 9.21875ZM127.938 14.4062H128.328V14.8125L127.938 16.8125L128.734 17.2031H129.125L131.922 16.8125V17.2031C131.922 18.1198 128.995 18.6562 123.141 18.8125H122.734C122.734 18.1458 124.198 17.6094 127.125 17.2031V16.8125C126.865 16.3438 126.734 15.8125 126.734 15.2188L127.938 14.4062Z" fill="#222222"/>
<path d="M8.92188 6.84375V7.09375H8.99584L9.05789 7.05351L8.92188 6.84375ZM8.51562 6.84375H8.26562V7.09375H8.51562V6.84375ZM8.51562 6.45312L8.33885 6.27635L8.26562 6.34957V6.45312H8.51562ZM9.3125 2.0625H9.5625V1.90934L9.42605 1.83977L9.3125 2.0625ZM8.51562 1.65625L8.62917 1.43352L8.53589 1.38597L8.43657 1.41908L8.51562 1.65625ZM6.125 2.45312H5.875V2.79998L6.20406 2.6903L6.125 2.45312ZM6.125 2.0625L5.88814 1.98252L5.875 2.02143V2.0625H6.125ZM6.53125 3.25H6.78125V3.2083L6.76772 3.16886L6.53125 3.25ZM4.125 7.25V7.5H4.21147L4.27946 7.44658L4.125 7.25ZM3.73438 7.25H3.48438V7.5H3.73438V7.25ZM3.73438 6.84375L3.51746 6.71945L3.48438 6.7772V6.84375H3.73438ZM5.32812 4.0625L5.54504 4.1868L5.57812 4.12905V4.0625H5.32812ZM5.32812 2.85938H5.57812V2.64306L5.36406 2.61197L5.32812 2.85938ZM2.53125 2.45312L2.56719 2.20572L2.48131 2.19325L2.40618 2.23666L2.53125 2.45312ZM0.9375 2.85938H0.6875V3.10938H0.9375V2.85938ZM0.9375 2.45312L0.69052 2.41438L0.6875 2.43364V2.45312H0.9375ZM6.125 8.84375V8.59375H6.1144L6.10383 8.59465L6.125 8.84375ZM13.7031 8.84375L13.7529 8.59875L13.7283 8.59375H13.7031V8.84375ZM15.7031 9.25L15.9276 9.36004L16.0701 9.06943L15.7529 9.005L15.7031 9.25ZM15.3125 10.0469L15.2627 10.2919L15.452 10.3303L15.537 10.1569L15.3125 10.0469ZM13.3125 9.64062L13.3623 9.39563L13.3376 9.39062H13.3125V9.64062ZM10.5156 10.8438L10.2938 10.7285L10.2656 10.7827V10.8438H10.5156ZM10.5156 13.6406H10.2656V13.8906H10.5156V13.6406ZM13.3125 14.8281L13.5049 14.9877L13.5808 14.8963L13.5578 14.7797L13.3125 14.8281ZM7.32812 19.2188V18.9688H7.07812V19.2188H7.32812ZM8.51562 21.2188L8.36563 21.4188L8.45541 21.4861L8.56539 21.4637L8.51562 21.2188ZM10.5156 20.8125V20.5625H10.4905L10.4659 20.5675L10.5156 20.8125ZM13.3125 20.8125L13.5573 20.8634L13.6198 20.5625H13.3125V20.8125ZM6.125 20.4219H5.875V20.4919L5.91137 20.5517L6.125 20.4219ZM10.5156 16.8281L10.588 17.0674L10.666 17.0438L10.7152 16.9788L10.5156 16.8281ZM11.7188 15.2344L11.9183 15.385L11.9688 15.3181V15.2344H11.7188ZM11.7188 14.8281H11.9688V14.5781H11.7188V14.8281ZM10.9219 14.4375H11.1719V14.0365L10.8118 14.213L10.9219 14.4375ZM10.125 14.8281V15.0781H10.183L10.235 15.0526L10.125 14.8281ZM7.71875 14.4375L7.84016 14.219L7.71737 14.1507L7.59525 14.2201L7.71875 14.4375ZM6.125 14.8281H5.875V15.0781H6.125V14.8281ZM6.125 14.4375L5.87802 14.3988L5.875 14.418V14.4375H6.125ZM9.71875 13.6406V13.8906H10.0246L9.96375 13.5909L9.71875 13.6406ZM9.3125 11.6406H9.0625V11.6658L9.0675 11.6904L9.3125 11.6406ZM9.3125 10.8438L9.08977 10.7302L9.0625 10.7837V10.8438H9.3125ZM9.71875 10.0469L9.94148 10.1604L10.1268 9.79688H9.71875V10.0469ZM3.32812 10.0469V9.79688H3.30375L3.27984 9.80158L3.32812 10.0469ZM1.34375 10.4375H1.09375V10.7415L1.39204 10.6828L1.34375 10.4375ZM1.34375 9.25L1.32258 9.0009L1.09375 9.02034V9.25H1.34375ZM8.51562 1.10938C9.28927 1.10938 9.82298 1.27109 10.1605 1.55163C10.4892 1.82482 10.6719 2.24466 10.6719 2.85938H11.1719C11.1719 2.14076 10.9535 1.56059 10.4801 1.16712C10.0156 0.780997 9.34615 0.609375 8.51562 0.609375V1.10938ZM10.6719 2.85938C10.6719 4.57904 10.0381 5.82201 8.78586 6.63399L9.05789 7.05351C10.4724 6.13632 11.1719 4.72304 11.1719 2.85938H10.6719ZM8.92188 6.59375H8.51562V7.09375H8.92188V6.59375ZM8.76562 6.84375V6.45312H8.26562V6.84375H8.76562ZM8.6924 6.6299C9.01511 6.30719 9.22479 5.74262 9.35926 5.00168C9.49586 4.24905 9.5625 3.26752 9.5625 2.0625H9.0625C9.0625 3.25331 8.99633 4.20147 8.8673 4.91239C8.73615 5.63499 8.54739 6.06781 8.33885 6.27635L8.6924 6.6299ZM9.42605 1.83977L8.62917 1.43352L8.40208 1.87898L9.19895 2.28523L9.42605 1.83977ZM8.43657 1.41908L6.04594 2.21595L6.20406 2.6903L8.59468 1.89342L8.43657 1.41908ZM6.375 2.45312V2.0625H5.875V2.45312H6.375ZM6.36186 2.14248C6.58018 1.49593 7.22911 1.10938 8.51562 1.10938V0.609375C7.15631 0.609375 6.21149 1.02491 5.88814 1.98252L6.36186 2.14248ZM1.73438 1.90625H2.9375V1.40625H1.73438V1.90625ZM2.9375 1.90625C4.95616 1.90625 5.98782 2.43655 6.29478 3.33114L6.76772 3.16886C6.34552 1.93845 4.98134 1.40625 2.9375 1.40625V1.90625ZM6.28125 3.25C6.28125 4.54956 5.54272 5.81814 3.97054 7.05342L4.27946 7.44658C5.91562 6.16103 6.78125 4.76294 6.78125 3.25H6.28125ZM4.125 7H3.73438V7.5H4.125V7ZM3.98438 7.25V6.84375H3.48438V7.25H3.98438ZM3.95129 6.96805L5.54504 4.1868L5.11121 3.9382L3.51746 6.71945L3.95129 6.96805ZM5.57812 4.0625V2.85938H5.07812V4.0625H5.57812ZM5.36406 2.61197L2.56719 2.20572L2.49531 2.70053L5.29219 3.10678L5.36406 2.61197ZM2.40618 2.23666C1.97906 2.48344 1.49171 2.60938 0.9375 2.60938V3.10938C1.57079 3.10938 2.14594 2.96448 2.65632 2.66959L2.40618 2.23666ZM1.1875 2.85938V2.45312H0.6875V2.85938H1.1875ZM1.18448 2.49187C1.22136 2.25676 1.29364 2.1146 1.376 2.03225C1.45306 1.95518 1.56304 1.90625 1.73438 1.90625V1.40625C1.45779 1.40625 1.211 1.49014 1.02244 1.67869C0.839171 1.86196 0.736975 2.11824 0.69052 2.41438L1.18448 2.49187ZM6.125 9.09375H13.7031V8.59375H6.125V9.09375ZM13.6534 9.08875L15.6534 9.495L15.7529 9.005L13.7529 8.59875L13.6534 9.08875ZM15.4786 9.13996L15.088 9.93684L15.537 10.1569L15.9276 9.36004L15.4786 9.13996ZM15.3623 9.80188L13.3623 9.39563L13.2627 9.88562L15.2627 10.2919L15.3623 9.80188ZM13.3125 9.39062H11.7188V9.89062H13.3125V9.39062ZM11.7188 9.39062C11.434 9.39062 11.1775 9.53924 10.9521 9.76463C10.7261 9.99069 10.5078 10.3165 10.2938 10.7285L10.7375 10.959C10.9401 10.5689 11.1307 10.2932 11.3057 10.1182C11.4813 9.94253 11.6181 9.89062 11.7188 9.89062V9.39062ZM10.2656 10.8438V13.6406H10.7656V10.8438H10.2656ZM10.5156 13.8906C11.3561 13.8906 11.9773 13.9888 12.3984 14.1676C12.8102 14.3425 13.0093 14.5829 13.0672 14.8765L13.5578 14.7797C13.4595 14.2817 13.1142 13.9284 12.5938 13.7074C12.0826 13.4903 11.3834 13.3906 10.5156 13.3906V13.8906ZM13.1201 14.6686C11.9134 16.1238 10.8228 17.2045 9.84821 17.9195C8.87049 18.6369 8.03323 18.9688 7.32812 18.9688V19.4688C8.18552 19.4688 9.12691 19.0689 10.144 18.3227C11.1642 17.5741 12.2845 16.4595 13.5049 14.9877L13.1201 14.6686ZM7.07812 19.2188V20.0156H7.57812V19.2188H7.07812ZM7.07812 20.0156C7.07812 20.1401 7.1341 20.254 7.19269 20.3442C7.25496 20.4401 7.34196 20.5418 7.44707 20.6483C7.65781 20.8618 7.96609 21.1191 8.36563 21.4188L8.66562 21.0187C8.27349 20.7246 7.98802 20.4846 7.80293 20.297C7.71012 20.203 7.64868 20.1283 7.612 20.0718C7.57163 20.0097 7.57812 19.9953 7.57812 20.0156H7.07812ZM8.56539 21.4637L10.5654 21.0575L10.4659 20.5675L8.46586 20.9738L8.56539 21.4637ZM10.5156 21.0625H13.3125V20.5625H10.5156V21.0625ZM13.0677 20.7616C13.0081 21.0486 12.7876 21.2978 12.3023 21.481C11.8126 21.6658 11.0926 21.7656 10.125 21.7656V22.2656C11.1157 22.2656 11.9061 22.1649 12.4789 21.9487C13.0561 21.7309 13.4502 21.3785 13.5573 20.8634L13.0677 20.7616ZM10.125 21.7656H7.71875V22.2656H10.125V21.7656ZM7.71875 21.7656C7.61317 21.7656 7.43769 21.6935 7.18459 21.4404C6.93925 21.1951 6.65699 20.8158 6.33863 20.292L5.91137 20.5517C6.23885 21.0905 6.54513 21.5081 6.83104 21.794C7.10919 22.0721 7.40766 22.2656 7.71875 22.2656V21.7656ZM6.375 20.4219C6.375 19.7601 6.69128 19.1486 7.381 18.5841C8.07655 18.0148 9.13884 17.5058 10.588 17.0674L10.4432 16.5888C8.96533 17.0359 7.8323 17.5686 7.06431 18.1972C6.29049 18.8305 5.875 19.5733 5.875 20.4219H6.375ZM10.7152 16.9788L11.9183 15.385L11.5192 15.0837L10.3161 16.6775L10.7152 16.9788ZM11.9688 15.2344V14.8281H11.4688V15.2344H11.9688ZM11.7188 14.5781C11.4655 14.5781 11.3123 14.5458 11.2311 14.506C11.194 14.4878 11.1818 14.4728 11.1784 14.4678C11.1763 14.4647 11.1719 14.4578 11.1719 14.4375H10.6719C10.6719 14.5474 10.7007 14.6545 10.7649 14.749C10.828 14.8417 10.9154 14.9081 11.0111 14.9549C11.1955 15.0454 11.4407 15.0781 11.7188 15.0781V14.5781ZM10.8118 14.213L10.015 14.6036L10.235 15.0526L11.0319 14.662L10.8118 14.213ZM10.125 14.5781H9.3125V15.0781H10.125V14.5781ZM9.3125 14.5781C8.75658 14.5781 8.2679 14.4566 7.84016 14.219L7.59734 14.656C8.1071 14.9392 8.68092 15.0781 9.3125 15.0781V14.5781ZM7.59525 14.2201C7.17977 14.4562 6.69228 14.5781 6.125 14.5781V15.0781C6.76605 15.0781 7.34106 14.9396 7.84225 14.6549L7.59525 14.2201ZM6.375 14.8281V14.4375H5.875V14.8281H6.375ZM6.37198 14.4762C6.40886 14.2411 6.48114 14.099 6.5635 14.0166C6.64056 13.9396 6.75054 13.8906 6.92188 13.8906V13.3906C6.64529 13.3906 6.3985 13.4745 6.20994 13.6631C6.02667 13.8463 5.92447 14.1026 5.87802 14.3988L6.37198 14.4762ZM6.92188 13.8906H9.71875V13.3906H6.92188V13.8906ZM9.96375 13.5909L9.5575 11.5909L9.0675 11.6904L9.47375 13.6904L9.96375 13.5909ZM9.5625 11.6406V10.8438H9.0625V11.6406H9.5625ZM9.53523 10.9573L9.94148 10.1604L9.49602 9.93333L9.08977 10.7302L9.53523 10.9573ZM9.71875 9.79688H3.32812V10.2969H9.71875V9.79688ZM3.27984 9.80158L1.29546 10.1922L1.39204 10.6828L3.37641 10.2922L3.27984 9.80158ZM1.59375 10.4375V9.25H1.09375V10.4375H1.59375ZM1.36492 9.4991L6.14617 9.09285L6.10383 8.59465L1.32258 9.0009L1.36492 9.4991ZM34.1875 1.625V1.375H34.1618L34.1366 1.38023L34.1875 1.625ZM34.5938 1.625L34.8387 1.67476L34.8996 1.375H34.5938V1.625ZM34.1875 3.625L33.9425 3.57523L33.9375 3.59987V3.625H34.1875ZM34.1875 6.03125H33.9375V6.28125H34.1875V6.03125ZM36.1875 6.82812V7.07812H36.4375V6.82812H36.1875ZM34.5938 13.2188L34.8273 13.308L34.8507 13.2468L34.841 13.182L34.5938 13.2188ZM32.9844 14.8125H32.7344V15.0625H32.9844V14.8125ZM33.3906 13.6094L33.6124 13.7247L33.6433 13.6653L33.6404 13.5984L33.3906 13.6094ZM32.1875 7.21875V6.96875H32.1664L32.1456 6.97228L32.1875 7.21875ZM29.7969 7.625H29.5469V7.92107L29.8388 7.87147L29.7969 7.625ZM29.7969 7.21875L29.5522 7.16725L29.5469 7.19272V7.21875H29.7969ZM32.9844 6.03125V6.28125H33.2344V6.03125H32.9844ZM19.7969 3.23438V2.98438H19.7725L19.7486 2.98908L19.7969 3.23438ZM23 6.03125L23.2386 6.1059L23.25 6.06945V6.03125H23ZM22.2031 8.82812H21.9531V8.97043L22.0755 9.04309L22.2031 8.82812ZM24.2031 11.625V11.875H24.4531V11.625H24.2031ZM21 9.21875L21.1862 9.05191L20.75 8.56515V9.21875H21ZM18.2031 11.625V11.875H18.2802L18.3439 11.8316L18.2031 11.625ZM17.4062 11.625H17.1562V11.875H17.4062V11.625ZM17.4062 10.8125L17.2867 10.5929L17.1562 10.664V10.8125H17.4062ZM21.7969 4.82812H22.0469V4.6238L21.8466 4.58313L21.7969 4.82812ZM19.7969 4.42188L19.8466 4.17688L19.822 4.17188H19.7969V4.42188ZM17.8125 4.42188H17.5625V4.67188H17.8125V4.42188ZM17.8125 3.625L17.7642 3.37971L17.5625 3.41941V3.625H17.8125ZM27.7969 3.625L28.0053 3.48695L27.9205 3.35897L27.7681 3.37667L27.7969 3.625ZM28.5938 4.82812H28.8438V4.75284L28.8022 4.69008L28.5938 4.82812ZM27.7969 8.82812L27.5578 8.75511L27.4866 8.98822L27.7178 9.0653L27.7969 8.82812ZM30.1875 10.8125H30.4375V10.7512L30.4091 10.6969L30.1875 10.8125ZM30.1875 12.0156V12.2656H30.4375V12.0156H30.1875ZM29.3906 12.0156H29.1406V12.2656H29.3906V12.0156ZM27 9.625L27.1112 9.4011L26.75 9.22167V9.625H27ZM24.2031 12.8125V13.0625H24.2765L24.3383 13.0228L24.2031 12.8125ZM23.7969 12.8125L23.5898 12.6724L23.3259 13.0625H23.7969V12.8125ZM27.3906 4.82812H27.6406V4.57812H27.3906V4.82812ZM27 4.82812V4.57812H26.9829L26.966 4.58045L27 4.82812ZM23.7969 5.21875H23.5469V5.46875H23.7969V5.21875ZM23.7969 4.03125V3.78125H23.5469V4.03125H23.7969ZM29.3906 15.6094V15.3594H29.3676L29.345 15.3636L29.3906 15.6094ZM34.1875 18.4062L34.4205 18.4969L34.4375 18.4532V18.4062H34.1875ZM33.3906 21.6094V21.8594H33.6406V21.6094H33.3906ZM32.5938 21.6094H32.3438V21.8594H32.5938V21.6094ZM32.5938 17.2188H32.8438V16.9688H32.5938V17.2188ZM30.9844 16.8125L31.1094 16.596L31.0514 16.5625H30.9844V16.8125ZM30.5938 17.2188L30.532 17.461L30.8438 17.5405V17.2188H30.5938ZM29 16.8125L29.0618 16.5702L29.0134 16.5579L28.9641 16.5651L29 16.8125ZM26.2031 17.2188H25.9531V17.5077L26.2391 17.4662L26.2031 17.2188ZM26.2031 16.0156V15.7656H25.9531V16.0156H26.2031ZM34.1875 1.875H34.5938V1.375H34.1875V1.875ZM34.3488 1.57524L33.9425 3.57523L34.4325 3.67477L34.8387 1.67476L34.3488 1.57524ZM33.9375 3.625V6.03125H34.4375V3.625H33.9375ZM34.1875 6.28125C34.8449 6.28125 35.3065 6.34777 35.595 6.46271C35.7371 6.51933 35.8222 6.58191 35.8708 6.63991C35.9155 6.69343 35.9375 6.75251 35.9375 6.82812H36.4375C36.4375 6.63811 36.3761 6.46477 36.2542 6.31908C36.1361 6.17786 35.9713 6.07442 35.78 5.99822C35.4018 5.84754 34.8634 5.78125 34.1875 5.78125V6.28125ZM36.1875 6.57812C35.5116 6.57812 34.9732 6.64442 34.595 6.7951C34.4037 6.87129 34.2389 6.97473 34.1208 7.11595C33.9989 7.26164 33.9375 7.43499 33.9375 7.625H34.4375C34.4375 7.54939 34.4595 7.49031 34.5042 7.43678C34.5528 7.37878 34.6379 7.31621 34.78 7.25959C35.0685 7.14465 35.5301 7.07812 36.1875 7.07812V6.57812ZM33.9375 7.625V8.82812H34.4375V7.625H33.9375ZM33.9375 8.82812C33.9375 9.95 34.0748 11.4273 34.3465 13.2555L34.841 13.182C34.571 11.3644 34.4375 9.91458 34.4375 8.82812H33.9375ZM34.3602 13.1295C34.1605 13.6519 33.9686 14.0252 33.7888 14.2634C33.6037 14.5085 33.4693 14.5625 33.3906 14.5625V15.0625C33.7078 15.0625 33.9718 14.8508 34.1878 14.5647C34.409 14.2717 34.6208 13.8481 34.8273 13.308L34.3602 13.1295ZM33.3906 14.5625H32.9844V15.0625H33.3906V14.5625ZM33.2344 14.8125C33.2344 14.5957 33.3442 14.2406 33.6124 13.7247L33.1688 13.494C32.8954 14.0198 32.7344 14.4668 32.7344 14.8125H33.2344ZM33.6404 13.5984C33.5465 11.4653 33.3988 9.85328 33.1949 8.77015C33.0934 8.23092 32.975 7.80627 32.8341 7.51057C32.7039 7.2375 32.5024 6.96875 32.1875 6.96875V7.46875C32.1886 7.46875 32.1911 7.46873 32.1971 7.47144C32.2039 7.47455 32.2171 7.48216 32.2359 7.49995C32.2753 7.53737 32.3262 7.60726 32.3827 7.72575C32.4957 7.96261 32.6045 8.33679 32.7035 8.86266C32.9007 9.90975 33.0472 11.493 33.1409 13.6204L33.6404 13.5984ZM32.1456 6.97228L29.755 7.37853L29.8388 7.87147L32.2294 7.46522L32.1456 6.97228ZM30.0469 7.625V7.21875H29.5469V7.625H30.0469ZM30.0415 7.27025C30.1006 6.98958 30.3197 6.74359 30.806 6.5624C31.2962 6.3798 32.0166 6.28125 32.9844 6.28125V5.78125C31.9938 5.78125 31.2038 5.88062 30.6315 6.09385C30.0553 6.3085 29.6598 6.65626 29.5522 7.16725L30.0415 7.27025ZM33.2344 6.03125V4.82812H32.7344V6.03125H33.2344ZM33.2344 4.82812C33.2344 3.85522 33.3342 3.13115 33.5192 2.63869C33.7026 2.15041 33.952 1.92928 34.2384 1.86977L34.1366 1.38023C33.6209 1.48739 33.2688 1.88344 33.0511 2.46288C32.8351 3.03812 32.7344 3.83228 32.7344 4.82812H33.2344ZM19.7969 3.48438C20.8337 3.48438 21.5647 3.71145 22.0348 4.12191C22.4984 4.52671 22.75 5.14698 22.75 6.03125H23.25C23.25 5.05094 22.9678 4.27277 22.3636 3.74528C21.766 3.22345 20.8954 2.98438 19.7969 2.98438V3.48438ZM22.7614 5.9566C22.4956 6.80622 22.2956 7.46617 22.1619 7.9354C22.0951 8.16978 22.0443 8.3587 22.0099 8.50084C21.9786 8.63056 21.9531 8.75085 21.9531 8.82812H22.4531C22.4531 8.8319 22.4534 8.81839 22.4614 8.77532C22.4686 8.73667 22.4799 8.68472 22.4959 8.61831C22.528 8.48571 22.5767 8.30417 22.6428 8.07241C22.7747 7.60935 22.9732 6.9542 23.2386 6.1059L22.7614 5.9566ZM22.0755 9.04309C23.3701 9.81174 23.9531 10.6763 23.9531 11.625H24.4531C24.4531 10.4279 23.7029 9.42785 22.3308 8.61316L22.0755 9.04309ZM24.2031 11.375H23.4062V11.875H24.2031V11.375ZM23.4062 11.375C23.4255 11.375 23.4399 11.3778 23.4478 11.3797C23.4559 11.3817 23.4608 11.3836 23.4619 11.3841C23.4635 11.3847 23.4583 11.3827 23.4451 11.3745C23.4185 11.3582 23.3781 11.3288 23.3215 11.282C23.2094 11.1892 23.0551 11.0453 22.8565 10.8467C22.4603 10.4505 21.9041 9.85303 21.1862 9.05191L20.8138 9.38559C21.5334 10.1886 22.097 10.7943 22.5029 11.2002C22.7053 11.4026 22.8726 11.5595 23.0027 11.6672C23.0673 11.7206 23.128 11.7665 23.1828 11.8003C23.2103 11.8172 23.2409 11.8339 23.2732 11.8471C23.3028 11.8592 23.35 11.875 23.4062 11.875V11.375ZM20.75 9.21875C20.75 9.20497 20.7538 9.21313 20.7343 9.25085C20.7159 9.28639 20.6836 9.33512 20.632 9.39799C20.5286 9.52385 20.3661 9.68431 20.1377 9.8808C19.6822 10.2727 18.9921 10.7847 18.0623 11.4184L18.3439 11.8316C19.2787 11.1945 19.987 10.67 20.4638 10.2598C20.7016 10.0553 20.8887 9.87329 21.0184 9.71529C21.0833 9.63624 21.1385 9.55769 21.1783 9.4806C21.2171 9.40568 21.25 9.31586 21.25 9.21875H20.75ZM18.2031 11.375H17.4062V11.875H18.2031V11.375ZM17.6562 11.625V10.8125H17.1562V11.625H17.6562ZM17.5258 11.0321C20.469 9.42953 22.0469 7.63631 22.0469 5.625H21.5469C21.5469 7.34285 20.1977 9.00797 17.2867 10.5929L17.5258 11.0321ZM22.0469 5.625V4.82812H21.5469V5.625H22.0469ZM21.8466 4.58313L19.8466 4.17688L19.7471 4.66687L21.7471 5.07312L21.8466 4.58313ZM19.7969 4.17188H17.8125V4.67188H19.7969V4.17188ZM18.0625 4.42188V3.625H17.5625V4.42188H18.0625ZM17.8608 3.87029L19.8452 3.47967L19.7486 2.98908L17.7642 3.37971L17.8608 3.87029ZM27.5884 3.76305L28.3853 4.96617L28.8022 4.69008L28.0053 3.48695L27.5884 3.76305ZM28.3438 4.82812V5.21875H28.8438V4.82812H28.3438ZM28.3438 5.21875C28.3438 5.84279 28.0902 7.01178 27.5578 8.75511L28.036 8.90114C28.5661 7.1653 28.8438 5.92804 28.8438 5.21875H28.3438ZM27.7178 9.0653C28.7546 9.41089 29.498 10.0314 29.9659 10.9281L30.4091 10.6969C29.877 9.67698 29.0267 8.97453 27.8759 8.59095L27.7178 9.0653ZM29.9375 10.8125V12.0156H30.4375V10.8125H29.9375ZM30.1875 11.7656H29.3906V12.2656H30.1875V11.7656ZM29.6406 12.0156C29.6406 11.5253 29.3958 11.0657 28.9697 10.6396C28.5444 10.2143 27.92 9.80285 27.1112 9.4011L26.8888 9.8489C27.6737 10.2388 28.2447 10.6217 28.6162 10.9932C28.987 11.364 29.1406 11.7039 29.1406 12.0156H29.6406ZM26.75 9.625C26.75 10.003 26.5592 10.4436 26.1129 10.9523C25.6682 11.459 24.9904 12.0095 24.068 12.6022L24.3383 13.0228C25.2804 12.4175 26.001 11.8379 26.4887 11.2821C26.9746 10.7283 27.25 10.1741 27.25 9.625H26.75ZM24.2031 12.5625H23.7969V13.0625H24.2031V12.5625ZM24.0039 12.9526C25.2048 11.1773 26.11 9.68286 26.7158 8.47118C27.3166 7.2695 27.6406 6.31279 27.6406 5.625H27.1406C27.1406 6.18721 26.8657 7.05341 26.2686 8.24757C25.6765 9.43172 24.7847 10.906 23.5898 12.6724L24.0039 12.9526ZM27.6406 5.625V4.82812H27.1406V5.625H27.6406ZM27.3906 4.57812H27V5.07812H27.3906V4.57812ZM26.966 4.58045C26.0185 4.7106 25.2791 4.80805 24.7471 4.87293C24.2064 4.93887 23.8978 4.96875 23.7969 4.96875V5.46875C23.9356 5.46875 24.2806 5.43353 24.8076 5.36926C25.3433 5.30392 26.0857 5.20607 27.034 5.0758L26.966 4.58045ZM24.0469 5.21875V4.03125H23.5469V5.21875H24.0469ZM23.7969 4.28125C24.1489 4.28125 25.5026 4.14298 27.8257 3.87333L27.7681 3.37667C25.4245 3.64869 24.1115 3.78125 23.7969 3.78125V4.28125ZM29.3906 15.8594C30.9735 15.8594 32.1197 16.0915 32.8624 16.5246C33.5843 16.9455 33.9375 17.5621 33.9375 18.4062H34.4375C34.4375 17.3858 33.9912 16.604 33.1142 16.0926C32.2579 15.5933 31.0057 15.3594 29.3906 15.3594V15.8594ZM33.9545 18.3156C33.4203 19.6878 33.1406 20.7908 33.1406 21.6094H33.6406C33.6406 20.8862 33.8922 19.8539 34.4205 18.4969L33.9545 18.3156ZM33.3906 21.3594H32.5938V21.8594H33.3906V21.3594ZM32.8438 21.6094V17.2188H32.3438V21.6094H32.8438ZM32.5938 16.9688C32.0283 16.9688 31.5359 16.8424 31.1094 16.596L30.8593 17.029C31.3703 17.3242 31.9509 17.4688 32.5938 17.4688V16.9688ZM30.9844 16.5625C30.8131 16.5625 30.6393 16.6076 30.5112 16.7408C30.3848 16.8722 30.3438 17.0472 30.3438 17.2188H30.8438C30.8438 17.1195 30.8678 17.0914 30.8716 17.0873C30.8737 17.0852 30.8953 17.0625 30.9844 17.0625V16.5625ZM30.6555 16.9765L29.0618 16.5702L28.9382 17.0548L30.532 17.461L30.6555 16.9765ZM28.9641 16.5651L26.1672 16.9713L26.2391 17.4662L29.0359 17.0599L28.9641 16.5651ZM26.4531 17.2188V16.0156H25.9531V17.2188H26.4531ZM26.2031 16.2656C26.8946 16.2656 27.9766 16.1263 29.4363 15.8552L29.345 15.3636C27.888 15.6342 26.845 15.7656 26.2031 15.7656V16.2656ZM44.6719 2.03125H44.9219V1.76375L44.655 1.78182L44.6719 2.03125ZM38.6719 4.03125H38.4219V4.30507L38.6946 4.28022L38.6719 4.03125ZM51.8594 2.82812V2.57812H51.7841L51.7213 2.6197L51.8594 2.82812ZM52.25 2.82812H52.5V2.57812H52.25V2.82812ZM51.8594 3.625V3.375H51.572L51.6118 3.65958L51.8594 3.625ZM52.25 6.42188H52.5V6.4045L52.4976 6.38729L52.25 6.42188ZM52.25 11.625H52V12.0331L52.3635 11.8477L52.25 11.625ZM53.0469 11.2188V10.9688H52.9868L52.9333 10.996L53.0469 11.2188ZM55.8438 11.2188H56.0938V10.9688H55.8438V11.2188ZM55.8438 12.0156L55.8718 12.264L56.0938 12.239V12.0156H55.8438ZM52.25 12.4219L52.2219 12.1735L52 12.1985V12.4219H52.25ZM51.4531 17.2031V17.4531H51.6379L51.6921 17.2765L51.4531 17.2031ZM50.25 17.2031L50.0278 17.0886L49.84 17.4531H50.25V17.2031ZM50.6562 3.625L50.5182 3.41657L50.3989 3.49556L50.4066 3.63839L50.6562 3.625ZM46.2656 5.625L46.4901 5.51496L46.4101 5.35173L46.2301 5.37753L46.2656 5.625ZM46.6562 6.42188L46.705 6.66707L47.0238 6.60365L46.8807 6.31184L46.6562 6.42188ZM37.875 6.82812L37.8395 6.58066L37.625 6.61142V6.82812H37.875ZM44.2656 8.82812L44.3528 8.59383L44.3106 8.57812H44.2656V8.82812ZM46.6562 10.8281L46.9032 10.8669L46.9103 10.8219L46.901 10.7773L46.6562 10.8281ZM40.6719 11.625L40.4361 11.542L40.4023 11.638L40.4451 11.7302L40.6719 11.625ZM42.6719 10.0156V9.76562H42.4219V10.0156H42.6719ZM41.875 11.2188L41.7335 11.0126L41.5726 11.1231L41.6407 11.306L41.875 11.2188ZM45.4688 11.625L45.7097 11.6916L45.7188 11.6589V11.625H45.4688ZM45.4688 10.4219H45.7188V10.2176L45.5185 10.1769L45.4688 10.4219ZM43.4688 10.0156L43.5185 9.77063L43.4939 9.76562H43.4688V10.0156ZM46.2656 15.6094V15.3594H46.0156V15.6094H46.2656ZM47.0625 15.6094L47.3019 15.5374L47.2484 15.3594H47.0625V15.6094ZM48.2656 19.6094L48.0262 19.6814L48.0798 19.8594H48.2656V19.6094ZM54.25 19.6094H54.5V19.3594H54.25V19.6094ZM47.4531 20.8125L47.2197 20.9021L47.2813 21.0625H47.4531V20.8125ZM44.4219 2.03125V2.4375H44.9219V2.03125H44.4219ZM44.4219 2.4375C44.4219 2.47816 44.3936 2.57683 44.166 2.7167C43.9467 2.85145 43.5992 2.9872 43.1077 3.11775C42.1286 3.37782 40.6456 3.60031 38.6492 3.78228L38.6946 4.28022C40.6981 4.0976 42.2151 3.87218 43.2361 3.601C43.7446 3.46592 44.147 3.31522 44.4278 3.14268C44.7002 2.97525 44.9219 2.7458 44.9219 2.4375H44.4219ZM38.9219 4.03125C38.9219 3.85546 39.0008 3.67893 39.2104 3.49771C39.4253 3.31188 39.7657 3.13331 40.2509 2.97155C41.2201 2.64848 42.6946 2.4157 44.6888 2.28068L44.655 1.78182C42.6492 1.91763 41.1236 2.1536 40.0928 2.4972C39.5781 2.66878 39.1684 2.87302 38.8834 3.11948C38.593 3.37055 38.4219 3.67579 38.4219 4.03125H38.9219ZM51.8594 3.07812H52.25V2.57812H51.8594V3.07812ZM52 2.82812C52 3.08135 51.9677 3.23454 51.9279 3.31574C51.9097 3.35288 51.8946 3.36509 51.8897 3.36846C51.8866 3.3706 51.8797 3.375 51.8594 3.375V3.875C51.9693 3.875 52.0763 3.8462 52.1709 3.78193C52.2636 3.71889 52.3299 3.63149 52.3768 3.53582C52.4672 3.35139 52.5 3.10615 52.5 2.82812H52ZM51.6118 3.65958L52.0024 6.45646L52.4976 6.38729L52.107 3.59042L51.6118 3.65958ZM52 6.42188V11.625H52.5V6.42188H52ZM52.3635 11.8477L53.1604 11.4415L52.9333 10.996L52.1365 11.4023L52.3635 11.8477ZM53.0469 11.4688H55.8438V10.9688H53.0469V11.4688ZM55.5938 11.2188V12.0156H56.0938V11.2188H55.5938ZM55.8157 11.7672L52.2219 12.1735L52.2781 12.6703L55.8718 12.264L55.8157 11.7672ZM52 12.4219V13.6094H52.5V12.4219H52ZM52 13.6094C52 14.2332 51.7465 15.3969 51.2141 17.1297L51.6921 17.2765C52.2222 15.551 52.5 14.3189 52.5 13.6094H52ZM51.4531 16.9531H50.25V17.4531H51.4531V16.9531ZM50.4722 17.3176C51.0298 16.2353 51.2969 14.7258 51.2969 12.8125H50.7969C50.7969 14.6909 50.5327 16.1084 50.0278 17.0886L50.4722 17.3176ZM51.2969 12.8125C51.2969 11.5335 51.1662 8.46348 50.9059 3.61161L50.4066 3.63839C50.6671 8.49485 50.7969 11.5498 50.7969 12.8125H51.2969ZM50.7943 3.83343L51.9974 3.03655L51.7213 2.6197L50.5182 3.41657L50.7943 3.83343ZM46.0411 5.73504L46.4318 6.53191L46.8807 6.31184L46.4901 5.51496L46.0411 5.73504ZM46.6075 6.17668C42.567 6.9806 40.0687 7.375 39.0781 7.375V7.875C40.1292 7.875 42.683 7.46731 46.705 6.66707L46.6075 6.17668ZM39.0781 7.375H38.6719V7.875H39.0781V7.375ZM38.6719 7.375C38.4448 7.375 38.3204 7.3184 38.251 7.249C38.1816 7.17961 38.125 7.05521 38.125 6.82812H37.625C37.625 7.13229 37.7012 7.40633 37.8974 7.60256C38.0937 7.79879 38.3677 7.875 38.6719 7.875V7.375ZM37.9105 7.07559L46.3011 5.87247L46.2301 5.37753L37.8395 6.58066L37.9105 7.07559ZM44.1784 9.06242C45.5921 9.58868 46.2731 10.213 46.4115 10.879L46.901 10.7773C46.7061 9.83907 45.7933 9.13007 44.3528 8.59383L44.1784 9.06242ZM46.4093 10.7894C46.2464 11.8278 45.9417 12.5722 45.5191 13.0539C45.1047 13.5261 44.5598 13.7656 43.8594 13.7656V14.2656C44.6902 14.2656 45.3771 13.9739 45.8949 13.3836C46.4046 12.8028 46.7328 11.9535 46.9032 10.8669L46.4093 10.7894ZM43.8594 13.7656C43.2183 13.7656 42.6595 13.5825 42.1734 13.218C41.6842 12.851 41.2565 12.2908 40.8986 11.5198L40.4451 11.7302C40.8269 12.5529 41.3002 13.1881 41.8734 13.618C42.4499 14.0503 43.1151 14.2656 43.8594 14.2656V13.7656ZM40.9077 11.708C41.2246 10.8075 41.6648 10.1537 42.216 9.72464C42.7648 9.29753 43.4429 9.07812 44.2656 9.07812V8.57812C43.3487 8.57812 42.5581 8.82486 41.909 9.33005C41.2623 9.8333 40.7754 10.578 40.4361 11.542L40.9077 11.708ZM42.4219 10.0156C42.4219 10.3366 42.2309 10.6713 41.7335 11.0126L42.0165 11.4249C42.5816 11.0371 42.9219 10.5697 42.9219 10.0156H42.4219ZM41.6407 11.306C41.8419 11.8461 42.0497 12.27 42.2683 12.5634C42.4819 12.8501 42.7447 13.0625 43.0625 13.0625V12.5625C42.9845 12.5625 42.8514 12.5092 42.6692 12.2647C42.492 12.0268 42.3039 11.6539 42.1093 11.1315L41.6407 11.306ZM43.0625 13.0625C43.7746 13.0625 44.3646 12.9615 44.8138 12.7398C45.2723 12.5135 45.5795 12.1627 45.7097 11.6916L45.2278 11.5584C45.1392 11.879 44.936 12.1219 44.5925 12.2914C44.2396 12.4656 43.7359 12.5625 43.0625 12.5625V13.0625ZM45.7188 11.625V10.4219H45.2188V11.625H45.7188ZM45.5185 10.1769L43.5185 9.77063L43.419 10.2606L45.419 10.6669L45.5185 10.1769ZM43.4688 9.76562H42.6719V10.2656H43.4688V9.76562ZM46.2656 15.8594H47.0625V15.3594H46.2656V15.8594ZM46.8231 15.6814L48.0262 19.6814L48.505 19.5374L47.3019 15.5374L46.8231 15.6814ZM48.2656 19.8594H54.25V19.3594H48.2656V19.8594ZM54 19.6094V20H54.5V19.6094H54ZM54 20C54 20.2335 53.9428 20.3625 53.8723 20.4343C53.8027 20.5053 53.679 20.5625 53.4531 20.5625V21.0625C53.7585 21.0625 54.0332 20.9843 54.2293 20.7844C54.4244 20.5854 54.5 20.3082 54.5 20H54ZM53.4531 20.5625H47.4531V21.0625H53.4531V20.5625ZM47.6865 20.7229C46.9003 18.6745 46.5156 16.9726 46.5156 15.6094H46.0156C46.0156 17.0586 46.4226 18.8255 47.2197 20.9021L47.6865 20.7229ZM79.2031 3.23438V2.98438H78.9531V3.23438H79.2031ZM80.4062 14.8125L80.1639 14.7513L80.1502 14.8055L80.1609 14.8604L80.4062 14.8125ZM80.7969 16.8125L81.0452 16.841L81.0497 16.8025L81.0422 16.7646L80.7969 16.8125ZM80.4062 22V22.25H80.6562V22H80.4062ZM78.7969 20.4062L78.5519 20.3565L78.5345 20.442L78.5742 20.5198L78.7969 20.4062ZM79.2031 18.4062L79.4481 18.456L79.4531 18.4314V18.4062H79.2031ZM78.7969 4.4375L78.5751 4.32216L78.5411 4.38744L78.548 4.4607L78.7969 4.4375ZM68.8125 4.03125V3.78125H68.5625V4.03125H68.8125ZM70.0156 4.03125L70.2649 4.0118L70.2469 3.78125H70.0156V4.03125ZM73.6094 7.23438H73.8594V6.98438H73.6094V7.23438ZM73.6094 8.42188L73.8178 8.55993L73.8594 8.49716V8.42188H73.6094ZM72.0156 10.8281L71.8072 10.6901L71.7656 10.7528V10.8281H72.0156ZM72.0156 11.2188H71.7656V11.4139L71.955 11.4613L72.0156 11.2188ZM75.2031 12.0156H75.4531V11.8204L75.2638 11.7731L75.2031 12.0156ZM75.2031 13.2188L75.1676 13.4662L75.4531 13.5072V13.2188H75.2031ZM71.6094 11.2188H71.8594V10.9688H71.6094V11.2188ZM67.2188 14.4219V14.6719H67.3052L67.3732 14.6185L67.2188 14.4219ZM65.625 14.4219H65.375V14.6719H65.625V14.4219ZM65.625 13.6094L65.5661 13.3664L65.375 13.4128V13.6094H65.625ZM72.0156 8.42188L72.2174 8.56947L72.5082 8.17188H72.0156V8.42188ZM68.0156 7.23438V6.98438H67.7656V7.23438H68.0156ZM70.0156 7.23438V7.48438H70.4328L70.2361 7.11649L70.0156 7.23438ZM72.0156 14.0156H72.2656V13.6038L71.9003 13.7938L72.0156 14.0156ZM72.0156 17.2031L72.2299 17.332L72.2656 17.2725V17.2031H72.0156ZM70.8125 19.2031L70.5983 19.0743L70.9858 19.3833L70.8125 19.2031ZM77.2031 18.4062H77.4531V18.1387L77.1862 18.1568L77.2031 18.4062ZM77.2031 19.6094L77.2359 19.8572L77.4531 19.8285V19.6094H77.2031ZM67.625 20.4062H67.375V20.6562H67.625V20.4062ZM67.625 20H67.875V19.5919L67.5115 19.7773L67.625 20ZM66.8281 20.4062V20.6562H66.8882L66.9417 20.629L66.8281 20.4062ZM65.625 20.4062H65.375V20.6562H65.625V20.4062ZM65.625 19.2031V18.9531H65.375V19.2031H65.625ZM70.8125 14.4219V14.1719H70.5625V14.4219H70.8125ZM79.2031 3.48438C79.338 3.48438 79.5036 3.56738 79.6832 3.88256C79.8621 4.19652 80.0218 4.68909 80.1528 5.37868C80.4139 6.75331 80.5469 8.83186 80.5469 11.625H81.0469C81.0469 8.82439 80.9142 6.70763 80.644 5.28538C80.5094 4.57654 80.3371 4.02028 80.1176 3.63502C79.8988 3.25098 79.5995 2.98438 79.2031 2.98438V3.48438ZM80.5469 11.625C80.5469 12.6987 80.4191 13.7406 80.1639 14.7513L80.6486 14.8737C80.9143 13.8219 81.0469 12.7388 81.0469 11.625H80.5469ZM80.1609 14.8604L80.5515 16.8604L81.0422 16.7646L80.6516 14.7646L80.1609 14.8604ZM80.5485 16.784C80.2878 19.0574 80.1562 20.7979 80.1562 22H80.6562C80.6562 20.8271 80.7851 19.1093 81.0452 16.841L80.5485 16.784ZM80.4062 21.75H80V22.25H80.4062V21.75ZM80 21.75C80.0179 21.75 79.999 21.757 79.9349 21.7055C79.8747 21.6572 79.7974 21.5755 79.7034 21.4509C79.516 21.2027 79.2881 20.8194 79.0196 20.2927L78.5742 20.5198C78.8473 21.0556 79.0908 21.4692 79.3044 21.7522C79.4109 21.8933 79.5166 22.0108 79.6218 22.0953C79.723 22.1766 79.8519 22.25 80 22.25V21.75ZM79.0419 20.456L79.4481 18.456L78.9581 18.3565L78.5519 20.3565L79.0419 20.456ZM79.4531 18.4062V12.0156H78.9531V18.4062H79.4531ZM79.4531 12.0156C79.4531 9.85986 79.3171 7.32573 79.0458 4.4143L78.548 4.4607C78.8183 7.36177 78.9531 9.87972 78.9531 12.0156H79.4531ZM79.0187 4.55284C79.2921 4.02709 79.4531 3.58004 79.4531 3.23438H78.9531C78.9531 3.45121 78.8433 3.80625 78.5751 4.32216L79.0187 4.55284ZM68.8125 4.28125H70.0156V3.78125H68.8125V4.28125ZM69.7664 4.0507C69.8502 5.12513 69.9943 5.95412 70.2074 6.5215C70.4131 7.06917 70.7295 7.48438 71.2188 7.48438V6.98438C71.0725 6.98438 70.8708 6.86573 70.6754 6.34569C70.4875 5.84536 70.3477 5.07279 70.2649 4.0118L69.7664 4.0507ZM71.2188 7.48438H73.6094V6.98438H71.2188V7.48438ZM73.3594 7.23438V8.42188H73.8594V7.23438H73.3594ZM73.4009 8.28382L71.8072 10.6901L72.2241 10.9662L73.8178 8.55993L73.4009 8.28382ZM71.7656 10.8281V11.2188H72.2656V10.8281H71.7656ZM71.955 11.4613L75.1425 12.2582L75.2638 11.7731L72.0763 10.9762L71.955 11.4613ZM74.9531 12.0156V13.2188H75.4531V12.0156H74.9531ZM75.2386 12.9713C74.0514 12.8009 73.1886 12.5537 72.6294 12.2425C72.0752 11.9341 71.8594 11.5892 71.8594 11.2188H71.3594C71.3594 11.8379 71.7425 12.3211 72.3862 12.6794C73.0249 13.0348 73.959 13.2928 75.1676 13.4662L75.2386 12.9713ZM71.6094 10.9688C71.5517 10.9688 71.5006 10.9852 71.4698 10.9964C71.4339 11.0096 71.3963 11.027 71.3586 11.0462C71.2831 11.0848 71.1905 11.1397 71.0832 11.2082C70.8677 11.3459 70.5754 11.5496 70.2081 11.8176C69.4727 12.3541 68.4243 13.1571 67.0643 14.2253L67.3732 14.6185C68.7319 13.5513 69.7747 12.7527 70.5028 12.2215C70.8673 11.9556 71.1499 11.7589 71.3523 11.6296C71.454 11.5647 71.5312 11.5195 71.5862 11.4914C71.6138 11.4773 71.6316 11.4696 71.6414 11.4661C71.6563 11.4606 71.641 11.4688 71.6094 11.4688V10.9688ZM67.2188 14.1719H65.625V14.6719H67.2188V14.1719ZM65.875 14.4219V13.6094H65.375V14.4219H65.875ZM65.6839 13.8523C67.8735 13.3212 70.0483 11.535 72.2174 8.56947L71.8138 8.27428C69.6705 11.2046 67.5848 12.8767 65.5661 13.3664L65.6839 13.8523ZM72.0156 8.17188C70.6862 8.17188 69.7062 8.10533 69.0645 7.97747C68.7414 7.91312 68.5242 7.83693 68.3939 7.75904C68.2646 7.6818 68.2656 7.63307 68.2656 7.625H67.7656C67.7656 7.88255 67.9333 8.06625 68.1374 8.18823C68.3404 8.30955 68.6232 8.39938 68.9668 8.46784C69.6583 8.60561 70.6784 8.67188 72.0156 8.67188V8.17188ZM68.2656 7.625V7.23438H67.7656V7.625H68.2656ZM68.0156 7.48438H70.0156V6.98438H68.0156V7.48438ZM70.2361 7.11649C69.838 6.37196 69.5426 5.74059 69.3473 5.22069C69.1503 4.69625 69.0625 4.30394 69.0625 4.03125H68.5625C68.5625 4.39397 68.6752 4.85323 68.8792 5.3965C69.085 5.9443 69.3912 6.59679 69.7952 7.35226L70.2361 7.11649ZM71.7656 14.0156V17.2031H72.2656V14.0156H71.7656ZM71.8014 17.0743L70.5983 19.0743L71.0267 19.332L72.2299 17.332L71.8014 17.0743ZM70.9858 19.3833C70.9788 19.39 70.9981 19.3717 71.085 19.3408C71.1631 19.313 71.2729 19.2828 71.4178 19.251C71.7069 19.1877 72.1146 19.1227 72.6442 19.0567C73.7023 18.9247 75.2267 18.791 77.2201 18.6557L77.1862 18.1568C75.19 18.2923 73.6545 18.4268 72.5823 18.5605C72.0469 18.6273 71.6219 18.6945 71.3108 18.7626C71.1555 18.7966 71.0232 18.832 70.9174 18.8697C70.8204 18.9042 70.7139 18.9511 70.6392 19.0229L70.9858 19.3833ZM76.9531 18.4062V19.6094H77.4531V18.4062H76.9531ZM77.1704 19.3615C73.1539 19.8922 69.9736 20.1562 67.625 20.1562V20.6562C70.0056 20.6562 73.2107 20.389 77.2359 19.8572L77.1704 19.3615ZM67.875 20.4062V20H67.375V20.4062H67.875ZM67.5115 19.7773L66.7146 20.1835L66.9417 20.629L67.7385 20.2227L67.5115 19.7773ZM66.8281 20.1562H65.625V20.6562H66.8281V20.1562ZM65.875 20.4062V19.2031H65.375V20.4062H65.875ZM65.625 19.4531H67.625V18.9531H65.625V19.4531ZM67.625 19.4531C68.7186 19.4531 69.5855 19.2139 70.1805 18.6918C70.7818 18.1642 71.0625 17.3862 71.0625 16.4062H70.5625C70.5625 17.2909 70.312 17.9113 69.8507 18.316C69.3833 18.7262 68.6564 18.9531 67.625 18.9531V19.4531ZM71.0625 16.4062V14.4219H70.5625V16.4062H71.0625ZM70.8125 14.6719C71.1582 14.6719 71.6052 14.5108 72.131 14.2374L71.9003 13.7938C71.3844 14.0621 71.0293 14.1719 70.8125 14.1719V14.6719ZM94.0781 4.03125V3.78125H93.8281V4.03125H94.0781ZM94.875 4.03125L95.1209 3.98592L95.0831 3.78125H94.875V4.03125ZM94.4844 16.8125V17.0625H94.6914L94.73 16.8591L94.4844 16.8125ZM93.6875 16.0156L93.4375 16.0019V16.0156H93.6875ZM88.8906 4.4375H89.1406V4.1875H88.8906V4.4375ZM88.8906 5.23438L89.0978 5.37431L89.1406 5.3109V5.23438H88.8906ZM86.0938 9.625H85.8438V9.81087L86.0217 9.8644L86.0938 9.625ZM90.0938 10.8281H90.3438V10.6423L90.1658 10.5887L90.0938 10.8281ZM90.0938 12.0156L90.0437 12.2606L90.3438 12.3219V12.0156H90.0938ZM85.6875 10.4219L85.8262 10.2139L85.67 10.1098L85.5265 10.2306L85.6875 10.4219ZM82.5 12.4219H82.25V12.6719H82.5V12.4219ZM82.5 12.0156L82.324 11.8381L82.25 11.9114V12.0156H82.5ZM88.0938 4.4375V4.1875H87.9589L87.8848 4.30025L88.0938 4.4375ZM90.0938 16.0156H90.3438V15.7656H90.0938V16.0156ZM94.4844 20.4062L94.5461 20.164L94.5157 20.1562H94.4844V20.4062ZM96.0781 20.8125H96.3281V20.6182L96.1399 20.5702L96.0781 20.8125ZM96.0781 21.6094V21.8594H96.3281V21.6094H96.0781ZM88.8906 17.6094L88.6564 17.5221L88.6406 17.5643V17.6094H88.8906ZM94.0781 4.28125H94.875V3.78125H94.0781V4.28125ZM94.6291 4.07658C94.8997 5.5441 95.0312 6.59238 95.0312 7.23438H95.5312C95.5312 6.54304 95.3919 5.4559 95.1209 3.98592L94.6291 4.07658ZM95.0312 7.23438C95.0312 10.8059 94.7665 13.9825 94.2388 16.7659L94.73 16.8591C95.2648 14.0383 95.5312 10.8296 95.5312 7.23438H95.0312ZM94.4844 16.5625C94.2573 16.5625 94.1329 16.5059 94.0635 16.4365C93.9941 16.3671 93.9375 16.2427 93.9375 16.0156H93.4375C93.4375 16.3198 93.5137 16.5938 93.7099 16.7901C93.9062 16.9863 94.1802 17.0625 94.4844 17.0625V16.5625ZM93.9371 16.0293C94.1977 11.2875 94.3281 7.4231 94.3281 4.4375H93.8281C93.8281 7.41024 93.6982 11.2646 93.4379 16.0019L93.9371 16.0293ZM94.3281 4.4375V4.03125H93.8281V4.4375H94.3281ZM88.6406 4.4375V5.23438H89.1406V4.4375H88.6406ZM88.6835 5.09444C87.7508 6.47515 87.0501 7.53336 86.5821 8.26803C86.3484 8.63497 86.171 8.92375 86.0515 9.13273C85.992 9.23679 85.9447 9.32473 85.9116 9.39448C85.8952 9.42914 85.8803 9.46328 85.869 9.49503C85.8603 9.51965 85.8438 9.56923 85.8438 9.625H86.3438C86.3438 9.65993 86.3345 9.67855 86.3403 9.66207C86.3436 9.65273 86.3506 9.63563 86.3633 9.60894C86.3884 9.55597 86.4286 9.48066 86.4856 9.38095C86.5991 9.18237 86.7714 8.90149 87.0038 8.53666C87.4681 7.80778 88.1658 6.75402 89.0978 5.37431L88.6835 5.09444ZM86.0217 9.8644L90.0217 11.0675L90.1658 10.5887L86.1658 9.3856L86.0217 9.8644ZM89.8438 10.8281V12.0156H90.3438V10.8281H89.8438ZM90.1438 11.7707C88.2201 11.3777 86.7875 10.8547 85.8262 10.2139L85.5488 10.6299C86.5875 11.3224 88.0924 11.8619 90.0437 12.2606L90.1438 11.7707ZM85.5265 10.2306C84.7388 10.894 84.0874 11.3856 83.5703 11.7101C83.3117 11.8723 83.0914 11.9898 82.908 12.066C82.7217 12.1434 82.5886 12.1719 82.5 12.1719V12.6719C82.6822 12.6719 82.8851 12.617 83.0998 12.5277C83.3174 12.4373 83.5633 12.3047 83.836 12.1336C84.3814 11.7915 85.0529 11.2831 85.8485 10.6131L85.5265 10.2306ZM82.75 12.4219V12.0156H82.25V12.4219H82.75ZM82.676 12.1932C83.8744 11.0053 85.7524 8.45752 88.3027 4.57475L87.8848 4.30025C85.331 8.18831 83.4797 10.6926 82.324 11.8381L82.676 12.1932ZM88.0938 4.6875H88.8906V4.1875H88.0938V4.6875ZM89.8438 16.0156C89.8438 17.5177 90.2194 18.6902 91.0146 19.4854C91.8098 20.2806 92.9823 20.6562 94.4844 20.6562V20.1562C93.0594 20.1562 92.0365 19.8002 91.3682 19.1318C90.6998 18.4635 90.3438 17.4406 90.3438 16.0156H89.8438ZM94.4226 20.6485L96.0164 21.0548L96.1399 20.5702L94.5461 20.164L94.4226 20.6485ZM95.8281 20.8125V21.6094H96.3281V20.8125H95.8281ZM96.0781 21.3594H95.6719V21.8594H96.0781V21.3594ZM95.6719 21.3594C93.4279 21.3594 91.786 21.027 90.713 20.394C89.6605 19.7732 89.1406 18.856 89.1406 17.6094H88.6406C88.6406 19.0294 89.251 20.1122 90.4589 20.8247C91.6463 21.5251 93.3951 21.8594 95.6719 21.8594V21.3594ZM89.1249 17.6967C89.3194 17.1745 89.5086 16.8021 89.6878 16.5647C89.8712 16.3218 90.0082 16.2656 90.0938 16.2656V15.7656C89.773 15.7656 89.5064 15.9751 89.2887 16.2634C89.0669 16.5573 88.8577 16.9817 88.6564 17.5221L89.1249 17.6967ZM115.844 1.67188V1.42188H115.594V1.67188H115.844ZM116.641 1.67188L116.887 1.63104L116.853 1.42188H116.641V1.67188ZM117.438 9.25H117.188V9.5H117.438V9.25ZM120.234 9.25H120.484V9H120.234V9.25ZM120.234 10.0469V10.2969H120.484V10.0469H120.234ZM117.047 12.4375L117.292 12.4873L117.297 12.4626V12.4375H117.047ZM116.641 14.4375V14.6875H116.845L116.886 14.4873L116.641 14.4375ZM115.844 14.4375L115.595 14.4122L115.567 14.6875H115.844V14.4375ZM116.25 10.4375L116.499 10.4628L116.527 10.1875H116.25V10.4375ZM115.453 10.4375H115.203V10.6875H115.453V10.4375ZM115.453 9.64062V9.39062H115.203V9.64062H115.453ZM116.25 9.64062V9.89062H116.518L116.499 9.62352L116.25 9.64062ZM107.078 3.65625H107.328V3.18575L106.938 3.44907L107.078 3.65625ZM106.281 4.85938V4.60938H105.953L106.04 4.92552L106.281 4.85938ZM107.469 10.0469H107.219V10.2969H107.469V10.0469ZM111.062 5.26562H111.312V4.97828L111.028 5.01803L111.062 5.26562ZM108.266 5.65625V5.90625H108.283L108.3 5.90385L108.266 5.65625ZM107.078 5.65625H106.828V5.90625H107.078V5.65625ZM107.078 4.85938L107.03 4.61408L106.828 4.65379V4.85938H107.078ZM109.062 4.46875V4.21875H109.038L109.014 4.22346L109.062 4.46875ZM111.859 4.46875L112.102 4.407L112.054 4.21875H111.859V4.46875ZM112.266 6.0625H112.516V6.03114L112.508 6.00075L112.266 6.0625ZM106.672 11.25L106.432 11.3196L106.484 11.5H106.672V11.25ZM105.875 4.46875L105.735 4.26157L105.625 4.33591V4.46875H105.875ZM111.062 14.0312H111.312V13.7812H111.062V14.0312ZM115.844 18.4219V18.6719H115.868L115.892 18.6672L115.844 18.4219ZM117.844 18.0312H118.094V17.7277L117.796 17.7859L117.844 18.0312ZM117.844 18.8281L117.912 19.0686L118.094 19.0168V18.8281H117.844ZM115.047 19.625L115.018 19.8734L115.068 19.879L115.115 19.8654L115.047 19.625ZM110.266 14.8281L110.019 14.7894L110.016 14.8086V14.8281H110.266ZM115.844 1.92188H116.641V1.42188H115.844V1.92188ZM116.394 1.71271C116.924 4.91608 117.188 7.42648 117.188 9.25H117.688C117.688 7.38602 117.419 4.84433 116.887 1.63104L116.394 1.71271ZM117.438 9.5H120.234V9H117.438V9.5ZM119.984 9.25V10.0469H120.484V9.25H119.984ZM120.234 9.79688C119.148 9.79688 118.287 9.99933 117.694 10.4445C117.087 10.8999 116.797 11.5796 116.797 12.4375H117.297C117.297 11.7016 117.538 11.1861 117.994 10.8445C118.463 10.4929 119.196 10.2969 120.234 10.2969V9.79688ZM116.802 12.3877L116.396 14.3877L116.886 14.4873L117.292 12.4873L116.802 12.3877ZM116.641 14.1875H115.844V14.6875H116.641V14.1875ZM116.092 14.4628L116.499 10.4628L116.001 10.4122L115.595 14.4122L116.092 14.4628ZM116.25 10.1875H115.453V10.6875H116.25V10.1875ZM115.703 10.4375V9.64062H115.203V10.4375H115.703ZM115.453 9.89062H116.25V9.39062H115.453V9.89062ZM116.499 9.62352C116.229 5.67439 116.094 3.02654 116.094 1.67188H115.594C115.594 3.04638 115.73 5.71103 116.001 9.65773L116.499 9.62352ZM106.828 3.65625V4.0625H107.328V3.65625H106.828ZM106.828 4.0625C106.828 4.28959 106.772 4.41399 106.702 4.48338C106.633 4.55277 106.508 4.60938 106.281 4.60938V5.10938C106.585 5.10938 106.859 5.03317 107.056 4.83693C107.252 4.6407 107.328 4.36666 107.328 4.0625H106.828ZM106.04 4.92552C106.436 6.36678 106.731 7.51654 106.928 8.3761C107.127 9.24609 107.219 9.7936 107.219 10.0469H107.719C107.719 9.72723 107.612 9.12371 107.416 8.26453C107.217 7.39492 106.919 6.23739 106.522 4.79323L106.04 4.92552ZM107.469 10.2969H108.266V9.79688H107.469V10.2969ZM108.266 10.2969C109.286 10.2969 110.068 9.85225 110.579 8.97779C111.079 8.12401 111.312 6.87556 111.312 5.26562H110.812C110.812 6.84319 110.58 7.98536 110.147 8.72533C109.727 9.44462 109.11 9.79688 108.266 9.79688V10.2969ZM111.028 5.01803L108.231 5.40865L108.3 5.90385L111.097 5.51322L111.028 5.01803ZM108.266 5.40625H107.078V5.90625H108.266V5.40625ZM107.328 5.65625V4.85938H106.828V5.65625H107.328ZM107.126 5.10467L109.111 4.71404L109.014 4.22346L107.03 4.61408L107.126 5.10467ZM109.062 4.71875H111.859V4.21875H109.062V4.71875ZM111.617 4.5305L112.023 6.12425L112.508 6.00075L112.102 4.407L111.617 4.5305ZM112.016 6.0625C112.016 7.76652 111.686 8.99862 111.068 9.80047C110.459 10.59 109.541 11 108.266 11V11.5C109.657 11.5 110.739 11.0454 111.464 10.1058C112.179 9.17846 112.516 7.81682 112.516 6.0625H112.016ZM108.266 11H106.672V11.5H108.266V11ZM106.912 11.1804C106.389 9.37682 106.125 7.14149 106.125 4.46875H105.625C105.625 7.17101 105.892 9.45652 106.432 11.3196L106.912 11.1804ZM106.015 4.67593L107.218 3.86343L106.938 3.44907L105.735 4.26157L106.015 4.67593ZM110.812 14.0312C110.812 15.5333 111.188 16.7058 111.983 17.501C112.779 18.2962 113.951 18.6719 115.453 18.6719V18.1719C114.028 18.1719 113.005 17.8158 112.337 17.1474C111.669 16.4791 111.312 15.4563 111.312 14.0312H110.812ZM115.453 18.6719H115.844V18.1719H115.453V18.6719ZM115.892 18.6672L117.892 18.2766L117.796 17.7859L115.796 18.1765L115.892 18.6672ZM117.594 18.0312V18.8281H118.094V18.0312H117.594ZM117.775 18.5877L114.978 19.3846L115.115 19.8654L117.912 19.0686L117.775 18.5877ZM115.075 19.3766C113.506 19.1971 112.365 18.7823 111.621 18.1598C110.888 17.5461 110.516 16.711 110.516 15.625H110.016C110.016 16.841 110.44 17.8236 111.301 18.5433C112.15 19.2541 113.401 19.6883 115.018 19.8734L115.075 19.3766ZM110.516 15.625V14.8281H110.016V15.625H110.516ZM110.513 14.8669C110.549 14.6318 110.622 14.4896 110.704 14.4072C110.781 14.3302 110.891 14.2812 111.062 14.2812V13.7812C110.786 13.7812 110.539 13.8651 110.351 14.0537C110.167 14.237 110.065 14.4932 110.019 14.7894L110.513 14.8669ZM124.328 2.03125L124.545 1.90656L124.078 1.09552V2.03125H124.328ZM129.922 5.625L129.949 5.87348L130.172 5.84881V5.625H129.922ZM122.734 6.42188V6.67188H122.748L122.762 6.67035L122.734 6.42188ZM121.938 6.42188H121.688V6.67188H121.938V6.42188ZM121.938 5.625L121.892 5.37914L121.688 5.41688V5.625H121.938ZM125.141 5.21875V5.46875H125.589L125.353 5.08716L125.141 5.21875ZM133.922 4.82812V4.57812H133.864L133.812 4.60364L133.922 4.82812ZM134.328 4.82812H134.578V4.57812H134.328V4.82812ZM134.328 13.2188L134.551 13.3323L134.578 13.2788V13.2188H134.328ZM133.922 14.0156L133.699 13.9021L133.514 14.2656H133.922V14.0156ZM134.328 14.4062H134.078V14.8285L134.448 14.6255L134.328 14.4062ZM139.125 13.6094H139.375V13.3594H139.125V13.6094ZM139.125 14.4062L139.158 14.654L139.375 14.6247V14.4062H139.125ZM133.922 15.6094L134.17 15.6367L134.172 15.6231V15.6094H133.922ZM133.531 20V20.25H133.781V20H133.531ZM133.125 20L133.015 20.2245L133.067 20.25H133.125V20ZM132.328 19.6094L132.081 19.5732L132.054 19.7536L132.218 19.8339L132.328 19.6094ZM133.125 5.21875L133.015 4.99427L132.875 5.06288V5.21875H133.125ZM125.141 7.625V7.375H125.08L125.025 7.40315L125.141 7.625ZM129.922 9.625H130.172V9.57185L130.15 9.5233L129.922 9.625ZM129.922 10.4219L130.145 10.5351L130.172 10.4817V10.4219H129.922ZM123.938 11.2188H123.688V11.2522L123.696 11.2845L123.938 11.2188ZM124.734 10.4219H124.484V10.4414L124.487 10.4606L124.734 10.4219ZM126.734 11.2188V11.4688H126.76L126.784 11.4637L126.734 11.2188ZM128.734 10.8125L128.784 11.0575L128.984 11.0168V10.8125H128.734ZM127.125 8.42188H126.875V8.58842L127.029 8.65258L127.125 8.42188ZM127.125 8.01562H127.375V7.70397L127.071 7.77158L127.125 8.01562ZM127.938 14.4062V14.1562H127.861L127.798 14.1991L127.938 14.4062ZM128.328 14.4062H128.578V14.1562H128.328V14.4062ZM128.328 14.8125L128.573 14.8604L128.578 14.8367V14.8125H128.328ZM127.938 16.8125L127.692 16.7646L127.655 16.9526L127.827 17.037L127.938 16.8125ZM128.734 17.2031L128.624 17.4276L128.676 17.4531H128.734V17.2031ZM129.125 17.2031V17.4531H129.142L129.16 17.4507L129.125 17.2031ZM131.922 16.8125H132.172V16.5252L131.887 16.5649L131.922 16.8125ZM123.141 18.8125V19.0626L123.147 19.0624L123.141 18.8125ZM122.734 18.8125H122.484V19.0625H122.734V18.8125ZM127.125 17.2031L127.159 17.4508L127.375 17.4208V17.2031H127.125ZM127.125 16.8125H127.375V16.7477L127.344 16.6911L127.125 16.8125ZM126.734 15.2188L126.594 15.0116L126.484 15.0859V15.2188H126.734ZM124.111 2.15594C124.655 3.1011 125.207 3.82606 125.769 4.31722C126.333 4.80968 126.922 5.07812 127.531 5.07812V4.57812C127.078 4.57812 126.602 4.38042 126.098 3.94059C125.593 3.49946 125.074 2.82599 124.545 1.90656L124.111 2.15594ZM127.531 5.07812C128.321 5.07812 128.886 5.14473 129.245 5.26451C129.611 5.38644 129.672 5.52544 129.672 5.625H130.172C130.172 5.19331 129.834 4.93387 129.403 4.79017C128.966 4.64433 128.335 4.57812 127.531 4.57812V5.07812ZM129.894 5.37652L122.707 6.1734L122.762 6.67035L129.949 5.87348L129.894 5.37652ZM122.734 6.17188H121.938V6.67188H122.734V6.17188ZM122.188 6.42188V5.625H121.688V6.42188H122.188ZM121.983 5.87086C123.45 5.60025 124.499 5.46875 125.141 5.46875V4.96875C124.449 4.96875 123.362 5.10808 121.892 5.37914L121.983 5.87086ZM125.353 5.08716C124.826 4.23551 124.578 3.48445 124.578 2.82812H124.078C124.078 3.6093 124.372 4.45199 124.928 5.35034L125.353 5.08716ZM124.578 2.82812V2.03125H124.078V2.82812H124.578ZM133.922 5.07812H134.328V4.57812H133.922V5.07812ZM134.078 4.82812V13.2188H134.578V4.82812H134.078ZM134.105 13.1052L133.699 13.9021L134.145 14.1292L134.551 13.3323L134.105 13.1052ZM133.922 14.2656C134.021 14.2656 134.049 14.2896 134.053 14.2935C134.055 14.2956 134.078 14.3171 134.078 14.4062H134.578C134.578 14.235 134.533 14.0612 134.4 13.9331C134.268 13.8067 134.093 13.7656 133.922 13.7656V14.2656ZM134.448 14.6255C135.378 14.1154 136.399 13.8594 137.516 13.8594V13.3594C136.319 13.3594 135.215 13.6346 134.208 14.187L134.448 14.6255ZM137.516 13.8594H139.125V13.3594H137.516V13.8594ZM138.875 13.6094V14.4062H139.375V13.6094H138.875ZM139.092 14.1585C137.355 14.3931 136.045 14.6118 135.166 14.815C134.729 14.9162 134.387 15.0161 134.15 15.1165C134.032 15.1661 133.927 15.2217 133.846 15.2867C133.772 15.3468 133.672 15.4536 133.672 15.6094H134.172C134.172 15.6818 134.126 15.7032 134.16 15.6757C134.188 15.6532 134.245 15.619 134.345 15.5769C134.541 15.4937 134.849 15.4015 135.279 15.3022C136.135 15.1043 137.426 14.8881 139.158 14.654L139.092 14.1585ZM133.673 15.582C133.414 17.941 133.281 19.4205 133.281 20H133.781C133.781 19.4545 133.909 18.007 134.17 15.6367L133.673 15.582ZM133.531 19.75H133.125V20.25H133.531V19.75ZM133.235 19.7755L132.438 19.3849L132.218 19.8339L133.015 20.2245L133.235 19.7755ZM132.576 19.6455C133.109 15.9931 133.375 11.1827 133.375 5.21875H132.875C132.875 11.1714 132.61 15.9548 132.081 19.5732L132.576 19.6455ZM133.235 5.44323L134.032 5.05261L133.812 4.60364L133.015 4.99427L133.235 5.44323ZM125.141 7.875H125.938V7.375H125.141V7.875ZM125.938 7.875C127.949 7.875 129.156 8.52025 129.693 9.7267L130.15 9.5233C129.5 8.06308 128.051 7.375 125.938 7.375V7.875ZM129.672 9.625V10.4219H130.172V9.625H129.672ZM129.699 10.3087C129.377 10.9428 128.97 11.4051 128.484 11.7101C127.999 12.0148 127.419 12.1719 126.734 12.1719V12.6719C127.498 12.6719 128.173 12.4956 128.75 12.1336C129.327 11.772 129.79 11.2343 130.145 10.5351L129.699 10.3087ZM126.734 12.1719H126.328V12.6719H126.734V12.1719ZM126.328 12.1719C125.661 12.1719 125.161 12.0738 124.812 11.8978C124.471 11.7265 124.268 11.4802 124.179 11.153L123.696 11.2845C123.826 11.7594 124.13 12.1146 124.587 12.3444C125.034 12.5694 125.621 12.6719 126.328 12.6719V12.1719ZM124.188 11.2188V8.8125H123.688V11.2188H124.188ZM124.188 8.8125C124.188 8.71907 124.237 8.58661 124.414 8.4123C124.589 8.2393 124.865 8.04972 125.256 7.84685L125.025 7.40315C124.614 7.61695 124.288 7.83362 124.063 8.05645C123.838 8.27798 123.688 8.53093 123.688 8.8125H124.188ZM124.484 9.21875V10.4219H124.984V9.21875H124.484ZM124.487 10.4606C124.534 10.7568 124.636 11.013 124.819 11.1963C125.008 11.3849 125.255 11.4688 125.531 11.4688V10.9688C125.36 10.9688 125.25 10.9198 125.173 10.8428C125.091 10.7604 125.018 10.6182 124.981 10.3831L124.487 10.4606ZM125.531 11.4688H126.734V10.9688H125.531V11.4688ZM126.784 11.4637L128.784 11.0575L128.685 10.5675L126.685 10.9738L126.784 11.4637ZM128.984 10.8125C128.984 10.1996 128.84 9.66297 128.539 9.21586C128.239 8.769 127.793 8.42997 127.221 8.19117L127.029 8.65258C127.53 8.8617 127.889 9.14506 128.125 9.49508C128.36 9.84484 128.484 10.2796 128.484 10.8125H128.984ZM127.375 8.42188V8.01562H126.875V8.42188H127.375ZM127.071 7.77158C126.267 7.9501 125.646 8.14421 125.22 8.35872C125.007 8.46589 124.829 8.58479 124.702 8.7205C124.572 8.85863 124.484 9.02594 124.484 9.21875H124.984C124.984 9.18761 124.996 9.13681 125.066 9.0627C125.138 8.98617 125.259 8.89869 125.444 8.80535C125.815 8.61881 126.389 8.43532 127.179 8.25967L127.071 7.77158ZM127.938 14.6562H128.328V14.1562H127.938V14.6562ZM128.078 14.4062V14.8125H128.578V14.4062H128.078ZM128.083 14.7646L127.692 16.7646L128.183 16.8604L128.573 14.8604L128.083 14.7646ZM127.827 17.037L128.624 17.4276L128.844 16.9786L128.048 16.588L127.827 17.037ZM128.734 17.4531H129.125V16.9531H128.734V17.4531ZM129.16 17.4507L131.956 17.0601L131.887 16.5649L129.09 16.9555L129.16 17.4507ZM131.672 16.8125V17.2031H132.172V16.8125H131.672ZM131.672 17.2031C131.672 17.2794 131.611 17.4219 131.262 17.5954C130.927 17.7614 130.406 17.9143 129.681 18.0471C128.238 18.3117 126.058 18.4845 123.134 18.5626L123.147 19.0624C126.077 18.9842 128.288 18.8107 129.772 18.5389C130.511 18.4034 131.087 18.2405 131.484 18.0433C131.866 17.8535 132.172 17.5852 132.172 17.2031H131.672ZM123.141 18.5625H122.734V19.0625H123.141V18.5625ZM122.984 18.8125C122.984 18.7482 123.017 18.6538 123.168 18.53C123.319 18.4053 123.564 18.2747 123.918 18.1449C124.624 17.886 125.701 17.6532 127.159 17.4508L127.091 16.9555C125.622 17.1593 124.503 17.3978 123.746 17.6754C123.368 17.8138 123.064 17.9677 122.85 18.1438C122.635 18.3208 122.484 18.5435 122.484 18.8125H122.984ZM127.375 17.2031V16.8125H126.875V17.2031H127.375ZM127.344 16.6911C127.106 16.2633 126.984 15.7747 126.984 15.2188H126.484C126.484 15.8503 126.623 16.4242 126.906 16.9339L127.344 16.6911ZM126.874 15.4259L128.077 14.6134L127.798 14.1991L126.594 15.0116L126.874 15.4259Z" fill="#222222"/>
</svg>
