<svg width="164" height="23" viewBox="0 0 164 23" fill="none" xmlns="http://www.w3.org/2000/svg">
<path d="M7.27441 1.54199L8.31543 2.16406C10.7529 1.88477 12.2256 1.74512 12.7334 1.74512L13.1523 2.37988C13.0085 3.81022 12.9365 4.92741 12.9365 5.73145C12.9365 6.15462 13.0085 6.36621 13.1523 6.36621L12.9365 7.41992V9.93359C12.9365 10.069 12.6572 10.3483 12.0986 10.7715L11.2607 10.3525L11.4639 8.87988V3.63672C11.4639 3.35742 11.3242 3.21777 11.0449 3.21777C8.94596 3.21777 7.89648 3.77637 7.89648 4.89355L7.69336 5.94727C7.82878 6.86979 7.89648 7.77962 7.89648 8.67676V9.51465C7.89648 10.2679 7.61719 10.7588 7.05859 10.9873C6.85547 10.9873 6.64388 10.7757 6.42383 10.3525V3.4209H6.2207C5.03581 3.4209 3.35579 3.63249 1.18066 4.05566L0.761719 3.4209V3.21777C0.761719 2.61686 2.86068 2.12598 7.05859 1.74512C7.05859 1.6097 7.13053 1.54199 7.27441 1.54199ZM14.6123 11.8252C15.1709 11.9606 15.4502 12.2399 15.4502 12.6631L14.8281 13.7168L13.7744 13.501H11.2607C11.1169 14.4997 11.0449 15.0583 11.0449 15.1768L11.4639 15.3926H13.5713C13.8506 15.4349 13.9902 15.5745 13.9902 15.8115V16.6494L13.7744 17.9062L13.9902 18.3252C13.9902 19.6286 12.2383 20.3988 8.73438 20.6357V21.0547H10.207C10.3509 21.0547 10.4229 21.1266 10.4229 21.2705L14.6123 20.6357C14.8831 20.7796 15.0947 20.8516 15.2471 20.8516V21.0547C15.2471 21.901 14.7562 22.3242 13.7744 22.3242C12.0986 22.4258 11.2607 22.5654 11.2607 22.7432C11.1169 22.7432 11.0449 22.6712 11.0449 22.5273L8.53125 22.7432H8.1123C7.58757 22.7432 7.16862 21.973 6.85547 20.4326C6.85547 19.6032 8.32389 19.1123 11.2607 18.96C11.9548 18.6045 12.3018 18.3252 12.3018 18.1221V17.2842L12.0986 16.8652L7.05859 17.7031L6.85547 17.2842V16.4463C8.81055 16.0231 9.78809 15.6719 9.78809 15.3926V13.7168C9.22949 13.7168 8.9502 13.6449 8.9502 13.501C5.33626 14.0596 3.30501 14.3389 2.85645 14.3389C2.57715 14.3389 2.4375 14.1992 2.4375 13.9199V13.7168C2.4375 12.7604 6.49577 12.1299 14.6123 11.8252ZM22.7529 1.54199L23.7939 2.16406C26.2314 1.88477 27.7041 1.74512 28.2119 1.74512L28.6309 2.37988C28.487 3.81022 28.415 4.92741 28.415 5.73145C28.415 6.15462 28.487 6.36621 28.6309 6.36621L28.415 7.41992V9.93359C28.415 10.069 28.1357 10.3483 27.5771 10.7715L26.7393 10.3525L26.9424 8.87988V3.63672C26.9424 3.35742 26.8027 3.21777 26.5234 3.21777C24.4245 3.21777 23.375 3.77637 23.375 4.89355L23.1719 5.94727C23.3073 6.86979 23.375 7.77962 23.375 8.67676V9.51465C23.375 10.2679 23.0957 10.7588 22.5371 10.9873C22.334 10.9873 22.1224 10.7757 21.9023 10.3525V3.4209H21.6992C20.5143 3.4209 18.8343 3.63249 16.6592 4.05566L16.2402 3.4209V3.21777C16.2402 2.61686 18.3392 2.12598 22.5371 1.74512C22.5371 1.6097 22.609 1.54199 22.7529 1.54199ZM30.0908 11.8252C30.6494 11.9606 30.9287 12.2399 30.9287 12.6631L30.3066 13.7168L29.2529 13.501H26.7393C26.5954 14.4997 26.5234 15.0583 26.5234 15.1768L26.9424 15.3926H29.0498C29.3291 15.4349 29.4688 15.5745 29.4688 15.8115V16.6494L29.2529 17.9062L29.4688 18.3252C29.4688 19.6286 27.7168 20.3988 24.2129 20.6357V21.0547H25.6855C25.8294 21.0547 25.9014 21.1266 25.9014 21.2705L30.0908 20.6357C30.3617 20.7796 30.5732 20.8516 30.7256 20.8516V21.0547C30.7256 21.901 30.2347 22.3242 29.2529 22.3242C27.5771 22.4258 26.7393 22.5654 26.7393 22.7432C26.5954 22.7432 26.5234 22.6712 26.5234 22.5273L24.0098 22.7432H23.5908C23.0661 22.7432 22.6471 21.973 22.334 20.4326C22.334 19.6032 23.8024 19.1123 26.7393 18.96C27.4333 18.6045 27.7803 18.3252 27.7803 18.1221V17.2842L27.5771 16.8652L22.5371 17.7031L22.334 17.2842V16.4463C24.2891 16.0231 25.2666 15.6719 25.2666 15.3926V13.7168C24.708 13.7168 24.4287 13.6449 24.4287 13.501C20.8148 14.0596 18.7835 14.3389 18.335 14.3389C18.0557 14.3389 17.916 14.1992 17.916 13.9199V13.7168C17.916 12.7604 21.9743 12.1299 30.0908 11.8252ZM50.5869 2.17676L51.0059 2.81152V3.01465L50.3838 4.06836L48.9111 3.85254C47.9717 3.85254 45.0348 4.06413 40.1006 4.4873V4.69043C40.1006 5.43522 40.0286 6.06576 39.8848 6.58203C40.0286 8.13086 40.2402 9.59928 40.5195 10.9873C44.4128 10.2933 47.5612 9.94629 49.9648 9.94629C49.9648 10.0817 50.0326 10.1494 50.168 10.1494C49.8379 10.9873 49.5586 11.4062 49.3301 11.4062H49.127C48.7038 11.4062 48.4922 11.3385 48.4922 11.2031C43.4564 11.9056 40.7269 12.4642 40.3037 12.8789C39.1865 12.8789 38.6279 10.4329 38.6279 5.54102C38.6279 5.41406 38.4883 4.85124 38.209 3.85254V3.64941C38.209 3.16699 41.4971 2.81576 48.0732 2.5957C48.0732 2.39258 48.9111 2.25293 50.5869 2.17676ZM51.6406 4.90625H51.8438C52.2669 5.05013 52.4785 5.46908 52.4785 6.16309C52.1992 7.42415 52.0596 8.33398 52.0596 8.89258V10.5684C53.3206 10.3991 53.9512 10.1917 53.9512 9.94629C53.9512 7.50879 54.2305 6.04036 54.7891 5.54102L55.627 5.95996C55.2038 9.59082 54.9922 12.5277 54.9922 14.7705V15.4053L55.208 17.5L54.3701 18.1221C54.0993 17.9867 53.8877 17.9189 53.7354 17.9189V11.8252H53.3164C52.5632 11.8252 52.0723 12.1087 51.8438 12.6758V15.1895C51.8438 15.6888 51.9157 16.3193 52.0596 17.0811C51.848 17.6396 51.6364 17.9189 51.4248 17.9189H51.0059C50.5911 17.7751 50.3838 17.3561 50.3838 16.6621V16.0273H49.749C45.8473 16.7298 43.1898 17.0811 41.7764 17.0811L41.5605 16.6621V16.4463C41.5605 16.0231 42.5423 15.6042 44.5059 15.1895V14.5547C44.5059 14.4193 44.4339 14.3516 44.29 14.3516C44.6117 12.9551 44.9629 12.2568 45.3438 12.2568H45.5596C45.7542 12.2568 45.9616 12.4642 46.1816 12.8789C46.1816 13.0905 46.042 13.721 45.7627 14.7705C46.0335 14.9059 46.2451 14.9736 46.3975 14.9736C49.055 14.762 50.3838 14.2035 50.3838 13.2979C50.5615 7.70345 50.9805 4.90625 51.6406 4.90625ZM69.417 3.64941H70.0391C70.3184 3.64941 70.458 3.85677 70.458 4.27148C70.0094 4.89779 69.5905 8.11393 69.2012 13.9199L69.417 14.3516C69.417 14.7663 68.9938 15.1852 68.1475 15.6084C67.8682 15.2614 67.7285 14.9821 67.7285 14.7705C68.084 7.35645 68.6468 3.64941 69.417 3.64941ZM57.877 4.06836H66.6875C66.9668 4.11068 67.1064 4.25033 67.1064 4.4873V4.90625L63.3232 10.1494C64.3389 11.1989 65.6676 12.0368 67.3096 12.6631L67.5254 13.082C67.2376 13.6406 66.8864 13.9199 66.4717 13.9199C66.2601 13.9199 64.9313 13.082 62.4854 11.4062C62.2061 11.4909 61.3682 12.4727 59.9717 14.3516H59.3369L59.1338 13.501L64.7959 5.52832V5.3252L63.3232 5.52832H58.2959L56.8232 5.74414L56.4043 5.10938C56.599 4.41536 57.0898 4.06836 57.877 4.06836ZM73.3428 3.66211L73.5586 4.08105C73.5586 4.60579 73.2793 6.07422 72.7207 8.48633C72.7207 8.62174 72.7884 8.68945 72.9238 8.68945L72.7207 10.1621V11.8379L72.9238 13.0947C72.8307 13.4671 72.4837 13.8141 71.8828 14.1357C71.6797 14.1357 71.4681 13.9284 71.248 13.5137C71.248 6.94596 71.8786 3.66211 73.1396 3.66211H73.3428ZM72.0859 15.8115H72.5049C72.7842 15.8623 72.9238 16.0062 72.9238 16.2432V16.8652C72.9238 16.9753 72.7165 17.1868 72.3018 17.5C71.8786 17.3984 71.5993 17.1191 71.4639 16.6621C71.667 16.0951 71.8743 15.8115 72.0859 15.8115ZM87.3389 1.54199L88.3799 2.16406C90.8174 1.88477 92.29 1.74512 92.7979 1.74512L93.2168 2.37988C93.0729 3.81022 93.001 4.92741 93.001 5.73145C93.001 6.15462 93.0729 6.36621 93.2168 6.36621L93.001 7.41992V9.93359C93.001 10.069 92.7217 10.3483 92.1631 10.7715L91.3252 10.3525L91.5283 8.87988V3.63672C91.5283 3.35742 91.3887 3.21777 91.1094 3.21777C89.0104 3.21777 87.9609 3.77637 87.9609 4.89355L87.7578 5.94727C87.8932 6.86979 87.9609 7.77962 87.9609 8.67676V9.51465C87.9609 10.2679 87.6816 10.7588 87.123 10.9873C86.9199 10.9873 86.7083 10.7757 86.4883 10.3525V3.4209H86.2852C85.1003 3.4209 83.4202 3.63249 81.2451 4.05566L80.8262 3.4209V3.21777C80.8262 2.61686 82.9251 2.12598 87.123 1.74512C87.123 1.6097 87.195 1.54199 87.3389 1.54199ZM94.6768 11.8252C95.2354 11.9606 95.5146 12.2399 95.5146 12.6631L94.8926 13.7168L93.8389 13.501H91.3252C91.1813 14.4997 91.1094 15.0583 91.1094 15.1768L91.5283 15.3926H93.6357C93.915 15.4349 94.0547 15.5745 94.0547 15.8115V16.6494L93.8389 17.9062L94.0547 18.3252C94.0547 19.6286 92.3027 20.3988 88.7988 20.6357V21.0547H90.2715C90.4154 21.0547 90.4873 21.1266 90.4873 21.2705L94.6768 20.6357C94.9476 20.7796 95.1592 20.8516 95.3115 20.8516V21.0547C95.3115 21.901 94.8206 22.3242 93.8389 22.3242C92.1631 22.4258 91.3252 22.5654 91.3252 22.7432C91.1813 22.7432 91.1094 22.6712 91.1094 22.5273L88.5957 22.7432H88.1768C87.652 22.7432 87.2331 21.973 86.9199 20.4326C86.9199 19.6032 88.3883 19.1123 91.3252 18.96C92.0192 18.6045 92.3662 18.3252 92.3662 18.1221V17.2842L92.1631 16.8652L87.123 17.7031L86.9199 17.2842V16.4463C88.875 16.0231 89.8525 15.6719 89.8525 15.3926V13.7168C89.2939 13.7168 89.0146 13.6449 89.0146 13.501C85.4007 14.0596 83.3695 14.3389 82.9209 14.3389C82.6416 14.3389 82.502 14.1992 82.502 13.9199V13.7168C82.502 12.7604 86.5602 12.1299 94.6768 11.8252ZM111.615 1.55469L111.831 1.97363C111.831 2.69303 111.619 3.11198 111.196 3.23047C103.088 3.23047 99.0342 3.57747 99.0342 4.27148C98.8903 4.54232 98.8184 4.75391 98.8184 4.90625C98.9622 5.64258 99.0342 6.34082 99.0342 7.00098C102.36 6.58626 105.576 6.30697 108.683 6.16309C108.818 6.43392 108.886 6.64551 108.886 6.79785C108.683 7.35645 108.475 7.63574 108.264 7.63574H107.845C103.985 7.63574 101.116 7.98275 99.2373 8.67676L99.8721 11.2031C100.642 11.2031 103.647 10.8519 108.886 10.1494H109.939C110.143 10.1494 110.354 10.361 110.574 10.7842C110.303 11.4189 110.024 11.766 109.736 11.8252H107.426C102.111 12.2061 99.4531 12.625 99.4531 13.082C98.7083 13.082 98.0778 10.7757 97.5615 6.16309V4.90625C96.7236 4.36458 96.3047 4.01335 96.3047 3.85254C96.3047 2.70996 100.989 2.01172 110.358 1.75781C110.358 1.6224 110.777 1.55469 111.615 1.55469ZM110.574 13.082L110.777 13.501C110.777 14.2035 110.638 14.5547 110.358 14.5547C107.904 14.6986 106.436 14.7705 105.953 14.7705L105.75 15.1895V18.541C105.75 18.7441 105.538 18.9557 105.115 19.1758C104.557 18.9473 104.277 18.4564 104.277 17.7031V14.9736C101.831 15.2529 99.4531 15.6042 97.1426 16.0273L96.7236 15.3926C96.7236 14.4531 100.989 13.7549 109.521 13.2979C109.521 13.154 109.872 13.082 110.574 13.082ZM101.129 17.2842H102.183C102.183 17.5635 102.25 17.7031 102.386 17.7031L102.183 18.7568C102.318 19.9756 102.386 20.6738 102.386 20.8516C103.41 20.8516 105.928 20.4326 109.939 19.5947C110.498 19.7301 110.777 20.0094 110.777 20.4326C110.777 20.915 110.147 21.262 108.886 21.4736L108.467 21.2705L101.548 22.5273C101.133 21.8587 100.926 20.8092 100.926 19.3789V18.3379L101.129 17.2842ZM118.905 0.729492H119.121C122.617 1.06803 124.364 2.67188 124.364 5.54102V5.95996C123.662 9.31999 122.054 11 119.54 11H118.283C115.067 10.3483 113.459 8.80794 113.459 6.37891V6.17578C113.459 4.10221 114.576 2.49414 116.811 1.35156C117.191 0.996094 117.89 0.788737 118.905 0.729492ZM114.932 5.75684V6.17578C114.932 7.89388 116.049 9.01107 118.283 9.52734H118.905C121.563 9.21419 122.892 7.95736 122.892 5.75684V5.33789C122.892 3.23893 121.495 2.18945 118.702 2.18945C116.188 3.14583 114.932 4.33496 114.932 5.75684ZM126.04 11.4189C126.175 11.6898 126.243 11.8971 126.243 12.041C125.964 12.7943 125.617 13.2132 125.202 13.2979C124.813 13.2979 123.416 13.2301 121.013 13.0947C119.075 13.0947 116.417 13.3021 113.04 13.7168L112.621 13.0947V12.6758C112.621 11.9733 115.626 11.6221 121.635 11.6221C122.388 11.766 123.019 11.8379 123.526 11.8379C124.635 11.5586 125.473 11.4189 126.04 11.4189ZM117.026 14.3516L117.864 14.9736L117.445 17.5L118.067 18.3379C119.896 18.194 121.364 17.9824 122.473 17.7031C123.031 17.847 123.522 17.9189 123.945 17.9189V18.7568C123.945 19.1715 123.666 19.3789 123.107 19.3789C121.923 19.3789 119.756 19.5905 116.607 20.0137C116.328 19.5566 116.188 19.1377 116.188 18.7568V16.0273C116.188 14.9948 116.468 14.4362 117.026 14.3516ZM145.063 1.5293H145.495L145.914 1.74512C145.77 3.63249 145.698 5.0332 145.698 5.94727V7.2041C145.741 7.4834 145.88 7.62305 146.117 7.62305H146.333L147.374 7.40723C147.653 7.75423 147.793 8.03776 147.793 8.25781C147.793 8.81641 147.095 9.16341 145.698 9.29883L145.914 10.3525V11.6094L145.279 12.4473C144.721 12.3118 144.441 11.8929 144.441 11.1904V5.3125C144.441 4.81315 144.369 4.18262 144.226 3.4209C144.429 2.15983 144.708 1.5293 145.063 1.5293ZM134.361 1.96094H134.78C135.06 1.96094 135.199 2.24023 135.199 2.79883L142.55 1.96094C142.592 2.24023 142.732 2.37988 142.969 2.37988C142.689 3.77637 142.55 5.0332 142.55 6.15039V9.93359C142.55 11.0085 142.271 11.639 141.712 11.8252C140.468 11.6813 139.698 11.6094 139.401 11.6094C136.938 11.8887 135.398 12.168 134.78 12.4473C133.942 12.4473 133.523 10.5599 133.523 6.78516V4.05566C133.693 2.65918 133.972 1.96094 134.361 1.96094ZM136.469 4.47461C136.333 4.47461 135.91 4.19531 135.199 3.63672H134.996C134.852 4.86393 134.78 5.56217 134.78 5.73145C134.924 8.18587 134.996 9.72624 134.996 10.3525C135.267 10.4964 135.474 10.5684 135.618 10.5684C139.122 10.3145 140.874 9.96322 140.874 9.51465C141.009 9.51465 141.149 7.55534 141.293 3.63672L140.874 3.4209C137.937 3.7002 136.469 4.05143 136.469 4.47461ZM140.036 12.4473H140.658C140.938 12.498 141.077 12.6377 141.077 12.8662C141.077 13.2217 141.009 13.7845 140.874 14.5547C140.976 16.2305 141.183 17.0684 141.496 17.0684C142.588 17.0684 144.2 16.7891 146.333 16.2305C146.375 16.5098 146.515 16.6494 146.752 16.6494C146.752 17.6312 146.261 18.1221 145.279 18.1221C144.738 18.1221 143.13 18.4014 140.455 18.96C139.896 18.8161 139.617 18.3971 139.617 17.7031V13.9199L140.036 12.4473ZM153.61 0.919922H154.029C154.029 1.19922 154.097 1.33887 154.232 1.33887L154.029 2.39258V4.06836C154.072 4.34766 154.211 4.4873 154.448 4.4873H155.286C156.022 4.4873 157.212 4.41536 158.854 4.27148C158.854 4.55078 158.921 4.69043 159.057 4.69043C159.057 4.82585 158.777 5.24902 158.219 5.95996C158.117 5.95996 157.698 5.88802 156.962 5.74414C155.481 5.74414 152.756 6.09538 148.786 6.79785L148.57 6.37891V5.95996C148.57 5.54525 149.899 5.05436 152.557 4.4873V2.5957C152.557 1.83398 152.908 1.27539 153.61 0.919922ZM160.948 6.37891C161.371 6.51432 161.583 6.65397 161.583 6.79785C161.295 8.99837 161.151 10.4668 161.151 11.2031V11.4062L161.367 11.8252C162.078 11.5459 162.569 11.4062 162.84 11.4062C163.398 11.5501 163.678 11.9014 163.678 12.46C163.534 12.7308 163.462 12.9382 163.462 13.082H162.84C161.807 13.082 161.244 13.2936 161.151 13.7168V16.4463C161.151 17.1403 160.872 17.5592 160.313 17.7031L159.691 16.8652V13.2979C159.691 8.68522 160.11 6.37891 160.948 6.37891ZM154.448 6.79785C156.742 7.55957 157.999 8.18587 158.219 8.67676V9.31152C158.219 10.2171 157.241 11.474 155.286 13.082C155.701 13.082 155.908 13.2217 155.908 13.501L155.705 15.3926C155.84 15.3926 155.908 15.4645 155.908 15.6084C156.543 15.3291 157.453 15.1895 158.638 15.1895L159.057 15.8115V16.2305C159.057 16.5521 156.89 17.1107 152.557 17.9062L152.138 17.2842V17.0684C152.155 16.7637 152.853 16.3447 154.232 15.8115C154.232 15.583 154.304 14.7451 154.448 13.2979H154.232C153.369 13.5771 152.811 13.7168 152.557 13.7168C151.439 13.7168 150.741 12.9466 150.462 11.4062C150.462 9.35807 151.791 7.82194 154.448 6.79785ZM151.922 11.4062C152.066 11.8633 152.345 12.1426 152.76 12.2441C153.987 12.2441 155.316 11.4062 156.746 9.73047V9.31152C156.746 8.96452 156.467 8.75293 155.908 8.67676C155.544 8.67676 155.058 8.88835 154.448 9.31152H154.029C154.029 8.88835 153.89 8.67676 153.61 8.67676H153.395C152.413 9.33691 151.922 10.2467 151.922 11.4062Z" fill="#222222"/>
</svg>
