<svg width="120" height="23" viewBox="0 0 120 23" fill="none" xmlns="http://www.w3.org/2000/svg">
<path d="M7.27441 1.54199L8.31543 2.16406C10.7529 1.88477 12.2256 1.74512 12.7334 1.74512L13.1523 2.37988C13.0085 3.81022 12.9365 4.92741 12.9365 5.73145C12.9365 6.15462 13.0085 6.36621 13.1523 6.36621L12.9365 7.41992V9.93359C12.9365 10.069 12.6572 10.3483 12.0986 10.7715L11.2607 10.3525L11.4639 8.87988V3.63672C11.4639 3.35742 11.3242 3.21777 11.0449 3.21777C8.94596 3.21777 7.89648 3.77637 7.89648 4.89355L7.69336 5.94727C7.82878 6.86979 7.89648 7.77962 7.89648 8.67676V9.51465C7.89648 10.2679 7.61719 10.7588 7.05859 10.9873C6.85547 10.9873 6.64388 10.7757 6.42383 10.3525V3.4209H6.2207C5.03581 3.4209 3.35579 3.63249 1.18066 4.05566L0.761719 3.4209V3.21777C0.761719 2.61686 2.86068 2.12598 7.05859 1.74512C7.05859 1.6097 7.13053 1.54199 7.27441 1.54199ZM14.6123 11.8252C15.1709 11.9606 15.4502 12.2399 15.4502 12.6631L14.8281 13.7168L13.7744 13.501H11.2607C11.1169 14.4997 11.0449 15.0583 11.0449 15.1768L11.4639 15.3926H13.5713C13.8506 15.4349 13.9902 15.5745 13.9902 15.8115V16.6494L13.7744 17.9062L13.9902 18.3252C13.9902 19.6286 12.2383 20.3988 8.73438 20.6357V21.0547H10.207C10.3509 21.0547 10.4229 21.1266 10.4229 21.2705L14.6123 20.6357C14.8831 20.7796 15.0947 20.8516 15.2471 20.8516V21.0547C15.2471 21.901 14.7562 22.3242 13.7744 22.3242C12.0986 22.4258 11.2607 22.5654 11.2607 22.7432C11.1169 22.7432 11.0449 22.6712 11.0449 22.5273L8.53125 22.7432H8.1123C7.58757 22.7432 7.16862 21.973 6.85547 20.4326C6.85547 19.6032 8.32389 19.1123 11.2607 18.96C11.9548 18.6045 12.3018 18.3252 12.3018 18.1221V17.2842L12.0986 16.8652L7.05859 17.7031L6.85547 17.2842V16.4463C8.81055 16.0231 9.78809 15.6719 9.78809 15.3926V13.7168C9.22949 13.7168 8.9502 13.6449 8.9502 13.501C5.33626 14.0596 3.30501 14.3389 2.85645 14.3389C2.57715 14.3389 2.4375 14.1992 2.4375 13.9199V13.7168C2.4375 12.7604 6.49577 12.1299 14.6123 11.8252ZM31.5381 3.02734C32.0036 3.17122 32.2871 3.45052 32.3887 3.86523C31.9655 5.49023 31.7539 7.17025 31.7539 8.90527V10.1621C31.7539 10.4753 31.682 10.7546 31.5381 11C31.682 11.2708 31.7539 11.4782 31.7539 11.6221C31.39 12.5192 31.0387 13.0101 30.7002 13.0947H30.4971L29.8623 12.6758C30.1416 10.6953 30.2812 9.29883 30.2812 8.48633H30.0781C29.9173 8.48633 29.1471 8.62598 27.7676 8.90527C27.4883 8.90527 27.3486 8.76562 27.3486 8.48633V8.05469C27.3486 7.73307 28.3981 7.31413 30.4971 6.79785C30.4971 4.28418 30.8441 3.02734 31.5381 3.02734ZM24.2129 3.44629C24.3483 4.28418 24.488 4.70312 24.6318 4.70312C24.9365 4.70312 25.9818 4.56348 27.7676 4.28418L28.1865 4.91895V5.75684C28.1865 5.84147 27.4883 6.7513 26.0918 8.48633V8.68945C27.7676 10.1875 28.6055 11.0254 28.6055 11.2031V11.8379L27.5645 12.041C27.5645 11.931 26.8662 11.3047 25.4697 10.1621H25.2539C24.9069 10.1621 24.6995 10.4414 24.6318 11L24.835 12.041L23.9971 12.6758H23.1592L20.4297 10.5811C19.5918 11.2835 19.1729 11.8421 19.1729 12.2568H18.5508C18.2715 12.2568 18.1318 12.1172 18.1318 11.8379C18.1318 11.4147 19.4564 9.24805 22.1055 5.33789V4.91895C19.6172 5.19824 17.734 5.33789 16.4561 5.33789C16.3122 5.06706 16.2402 4.85547 16.2402 4.70312C16.2402 3.86523 18.8978 3.44629 24.2129 3.44629ZM23.5781 6.79785C23.3073 6.66243 23.0957 6.59473 22.9434 6.59473C21.8262 8.18587 21.2676 9.0957 21.2676 9.32422L22.9434 10.5811H23.3623C23.3623 10.3441 24.2044 8.94336 25.8887 6.37891V6.17578H25.6729C24.9958 6.17578 24.2975 6.38314 23.5781 6.79785ZM30.4971 13.9326C30.4971 14.068 30.5648 14.1357 30.7002 14.1357C30.5055 18.4691 30.0866 20.6357 29.4434 20.6357H29.2402C29.0286 20.6357 28.8171 20.3564 28.6055 19.7979C28.8848 17.4788 29.0244 16.0824 29.0244 15.6084H28.6055C27.556 15.6084 26.0199 15.9596 23.9971 16.6621L23.5781 16.0273V15.6084C23.5781 14.8636 25.8844 14.305 30.4971 13.9326ZM37.1523 0.919922H37.3555L37.9902 1.33887C37.7109 2.59993 37.5713 3.50977 37.5713 4.06836C37.7152 4.06836 37.7871 4.13607 37.7871 4.27148C38.6504 3.99219 40.0469 3.85254 41.9766 3.85254C41.9766 3.99642 42.0485 4.06836 42.1924 4.06836C42.1924 4.82161 41.0033 5.3125 38.625 5.54102L33.8008 6.16309C33.5299 6.02767 33.3184 5.95996 33.166 5.95996V5.3252C33.166 4.96126 34.2155 4.54232 36.3145 4.06836C36.3145 1.9694 36.5938 0.919922 37.1523 0.919922ZM44.7061 3.43359C45.2646 3.64518 45.5439 3.85677 45.5439 4.06836C45.2646 5.46484 45.125 6.86133 45.125 8.25781V9.31152L46.1787 9.0957H46.5977C46.7923 9.0957 46.9997 9.30729 47.2197 9.73047V9.94629C47.2197 10.251 46.5215 10.5303 45.125 10.7842V12.6631C45.125 12.807 45.1927 12.8789 45.3281 12.8789C45.125 13.4375 44.9176 13.7168 44.7061 13.7168H44.2871C43.8639 13.5729 43.6523 13.154 43.6523 12.46V9.31152C43.6523 5.56217 44.0036 3.60286 44.7061 3.43359ZM36.7334 6.79785C37.0042 6.93327 37.2116 7.00098 37.3555 7.00098C37.4316 7.00098 37.7152 6.93327 38.2061 6.79785C40.2965 7.43262 41.3418 8.33822 41.3418 9.51465V9.73047C40.8848 12.8112 39.4163 14.3516 36.9365 14.3516C34.7021 13.9284 33.585 12.8789 33.585 11.2031V10.7842C33.585 9.21842 34.6344 7.88965 36.7334 6.79785ZM35.0576 10.5684V11.4062C35.6331 12.5234 36.3314 13.082 37.1523 13.082C38.6165 13.082 39.5264 12.0368 39.8818 9.94629V9.0957C39.8818 8.90951 39.391 8.5625 38.4092 8.05469C36.1748 8.44401 35.0576 9.2819 35.0576 10.5684ZM41.1387 14.1357H41.3418L41.9766 14.5547C41.6973 16.0273 41.5576 16.9372 41.5576 17.2842C41.9385 17.2842 43.335 17.0726 45.7471 16.6494L45.9629 17.0684V17.9062C45.9629 18.1432 44.7061 18.4268 42.1924 18.7568C42.1924 19.0361 41.8411 19.1758 41.1387 19.1758H40.9229C40.5081 19.0319 40.3008 18.6087 40.3008 17.9062V17.0684C40.3008 15.1133 40.5801 14.1357 41.1387 14.1357ZM59.5273 1.56738L59.9463 1.77051C59.5316 2.47298 59.3242 3.03158 59.3242 3.44629V4.70312C59.3665 4.98242 59.5062 5.12207 59.7432 5.12207H62.6758L63.7295 5.33789V5.54102C63.7295 6.19271 63.1709 7.10254 62.0537 8.27051V8.48633C64.0088 10.5007 64.9863 11.6178 64.9863 11.8379C64.8424 12.1087 64.7705 12.3203 64.7705 12.4727H63.7295C63.7295 12.0664 62.8197 11.0846 61 9.52734H60.5811C60.4033 9.52734 59.0068 11.0677 56.3916 14.1484H55.9727C55.6934 14.1484 55.5537 14.0088 55.5537 13.7295V13.3105C56.7809 11.6855 58.5964 9.51888 61 6.81055H60.7969C58.6217 6.94596 56.6624 7.22526 54.9189 7.64844L54.5 7.01367V6.81055C54.5 6.29427 55.6172 5.87109 57.8516 5.54102V4.28418C57.8516 2.8877 58.2028 1.9821 58.9053 1.56738H59.5273ZM66.459 6.17578H66.6621C66.8737 6.17578 67.0853 6.45508 67.2969 7.01367C67.0176 8.41016 66.8779 9.66699 66.8779 10.7842V13.3105C66.8779 14.4193 66.9456 15.8877 67.0811 17.7158C66.8102 18.3506 66.5309 18.6976 66.2432 18.7568H66.04C65.7438 18.7568 65.3926 17.847 64.9863 16.0273L58.4863 17.2842C58.2155 17.1488 58.0039 17.0811 57.8516 17.0811V16.4463C57.8516 16.1501 58.6217 15.7311 60.1621 15.1895C60.2467 12.6758 60.6657 11.4189 61.4189 11.4189L62.2568 12.041C61.9775 12.5234 61.7702 13.5052 61.6348 14.9863C61.7702 14.9863 61.8379 15.054 61.8379 15.1895C64.2161 14.8594 65.4053 14.5124 65.4053 14.1484V11.2031C65.4053 10.89 65.4772 10.6107 65.6211 10.3652C65.4772 10.1198 65.4053 9.84049 65.4053 9.52734V8.90527C65.4053 7.2972 65.7565 6.38737 66.459 6.17578ZM74.3584 0.945312C74.6377 0.98763 74.7773 1.12728 74.7773 1.36426C74.7773 1.69434 74.0114 3.02311 72.4795 5.35059C72.3356 5.59603 72.2637 5.87533 72.2637 6.18848C75.4798 8.87142 77.0879 10.6149 77.0879 11.4189C77.0879 11.6982 76.8763 11.8379 76.4531 11.8379L71.8447 7.86426L71.0068 7.64844C70.0335 9.60352 69.4749 11 69.3311 11.8379L68.9121 12.0537H68.709C68.3874 12.0537 68.1758 11.7025 68.0742 11C68.362 9.45964 70.2493 6.10807 73.7363 0.945312H74.3584ZM80.8584 1.99902C81.417 2.13444 81.6963 2.55339 81.6963 3.25586C81.3239 3.25586 80.9727 5.97689 80.6426 11.4189L80.8584 11.8379C80.5791 12.9635 80.2998 13.5264 80.0205 13.5264H79.6016C79.3223 13.5264 79.1826 13.3867 79.1826 13.1074C79.4619 5.70182 80.0205 1.99902 80.8584 1.99902ZM75.6152 13.3105C76.1738 13.5221 76.4531 13.7337 76.4531 13.9453V14.1484C76.0384 14.6816 75.8311 15.3122 75.8311 16.04V17.2969C75.8311 17.4323 76.1104 17.6396 76.6689 17.9189C77.3545 17.7835 79.1022 17.5762 81.9121 17.2969L82.1152 17.7158V17.9189C82.1152 18.2998 81.9756 18.7188 81.6963 19.1758L80.6426 18.9727C79.4069 18.9727 77.6634 19.18 75.4121 19.5947C74.7096 19.5947 74.3584 18.2702 74.3584 15.6211C74.68 14.0807 75.099 13.3105 75.6152 13.3105ZM100.923 1.5293H101.354L101.773 1.74512C101.63 3.63249 101.558 5.0332 101.558 5.94727V7.2041C101.6 7.4834 101.74 7.62305 101.977 7.62305H102.192L103.233 7.40723C103.513 7.75423 103.652 8.03776 103.652 8.25781C103.652 8.81641 102.954 9.16341 101.558 9.29883L101.773 10.3525V11.6094L101.139 12.4473C100.58 12.3118 100.301 11.8929 100.301 11.1904V5.3125C100.301 4.81315 100.229 4.18262 100.085 3.4209C100.288 2.15983 100.567 1.5293 100.923 1.5293ZM90.2207 1.96094H90.6396C90.9189 1.96094 91.0586 2.24023 91.0586 2.79883L98.4092 1.96094C98.4515 2.24023 98.5911 2.37988 98.8281 2.37988C98.5488 3.77637 98.4092 5.0332 98.4092 6.15039V9.93359C98.4092 11.0085 98.1299 11.639 97.5713 11.8252C96.3271 11.6813 95.557 11.6094 95.2607 11.6094C92.7979 11.8887 91.2575 12.168 90.6396 12.4473C89.8018 12.4473 89.3828 10.5599 89.3828 6.78516V4.05566C89.5521 2.65918 89.8314 1.96094 90.2207 1.96094ZM92.3281 4.47461C92.1927 4.47461 91.7695 4.19531 91.0586 3.63672H90.8555C90.7116 4.86393 90.6396 5.56217 90.6396 5.73145C90.7835 8.18587 90.8555 9.72624 90.8555 10.3525C91.1263 10.4964 91.3337 10.5684 91.4775 10.5684C94.9814 10.3145 96.7334 9.96322 96.7334 9.51465C96.8688 9.51465 97.0085 7.55534 97.1523 3.63672L96.7334 3.4209C93.7965 3.7002 92.3281 4.05143 92.3281 4.47461ZM95.8955 12.4473H96.5176C96.7969 12.498 96.9365 12.6377 96.9365 12.8662C96.9365 13.2217 96.8688 13.7845 96.7334 14.5547C96.835 16.2305 97.0423 17.0684 97.3555 17.0684C98.4473 17.0684 100.06 16.7891 102.192 16.2305C102.235 16.5098 102.374 16.6494 102.611 16.6494C102.611 17.6312 102.12 18.1221 101.139 18.1221C100.597 18.1221 98.9889 18.4014 96.3145 18.96C95.7559 18.8161 95.4766 18.3971 95.4766 17.7031V13.9199L95.8955 12.4473ZM109.47 0.919922H109.889C109.889 1.19922 109.956 1.33887 110.092 1.33887L109.889 2.39258V4.06836C109.931 4.34766 110.071 4.4873 110.308 4.4873H111.146C111.882 4.4873 113.071 4.41536 114.713 4.27148C114.713 4.55078 114.781 4.69043 114.916 4.69043C114.916 4.82585 114.637 5.24902 114.078 5.95996C113.977 5.95996 113.558 5.88802 112.821 5.74414C111.34 5.74414 108.615 6.09538 104.646 6.79785L104.43 6.37891V5.95996C104.43 5.54525 105.758 5.05436 108.416 4.4873V2.5957C108.416 1.83398 108.767 1.27539 109.47 0.919922ZM116.808 6.37891C117.231 6.51432 117.442 6.65397 117.442 6.79785C117.155 8.99837 117.011 10.4668 117.011 11.2031V11.4062L117.227 11.8252C117.938 11.5459 118.428 11.4062 118.699 11.4062C119.258 11.5501 119.537 11.9014 119.537 12.46C119.393 12.7308 119.321 12.9382 119.321 13.082H118.699C117.667 13.082 117.104 13.2936 117.011 13.7168V16.4463C117.011 17.1403 116.731 17.5592 116.173 17.7031L115.551 16.8652V13.2979C115.551 8.68522 115.97 6.37891 116.808 6.37891ZM110.308 6.79785C112.601 7.55957 113.858 8.18587 114.078 8.67676V9.31152C114.078 10.2171 113.101 11.474 111.146 13.082C111.56 13.082 111.768 13.2217 111.768 13.501L111.564 15.3926C111.7 15.3926 111.768 15.4645 111.768 15.6084C112.402 15.3291 113.312 15.1895 114.497 15.1895L114.916 15.8115V16.2305C114.916 16.5521 112.749 17.1107 108.416 17.9062L107.997 17.2842V17.0684C108.014 16.7637 108.712 16.3447 110.092 15.8115C110.092 15.583 110.164 14.7451 110.308 13.2979H110.092C109.229 13.5771 108.67 13.7168 108.416 13.7168C107.299 13.7168 106.601 12.9466 106.321 11.4062C106.321 9.35807 107.65 7.82194 110.308 6.79785ZM107.781 11.4062C107.925 11.8633 108.204 12.1426 108.619 12.2441C109.846 12.2441 111.175 11.4062 112.605 9.73047V9.31152C112.605 8.96452 112.326 8.75293 111.768 8.67676C111.404 8.67676 110.917 8.88835 110.308 9.31152H109.889C109.889 8.88835 109.749 8.67676 109.47 8.67676H109.254C108.272 9.33691 107.781 10.2467 107.781 11.4062Z" fill="#222222"/>
</svg>
