<svg width="128" height="25" viewBox="0 0 128 25" fill="none" xmlns="http://www.w3.org/2000/svg">
<path d="M1.24805 0.880859C5.25586 1.39648 7.25977 1.71582 7.25977 1.83887L7.74316 1.60156H9.66797C11.9121 2.02344 13.0342 3.86621 13.0342 7.12988C12.7236 7.8623 12.4043 8.26367 12.0762 8.33398H11.5928C11.0127 8.33398 10.5322 6.89258 10.1514 4.00977C9.8291 4.00977 9.66797 3.92773 9.66797 3.76367L9.18457 4.00977H8.94727C8.7832 4.00977 8.70117 3.92773 8.70117 3.76367C7.74023 3.97461 7.25977 4.21484 7.25977 4.48438V7.37598C7.25977 8.33691 6.7793 8.81738 5.81836 8.81738C5.17969 8.2373 4.86035 7.5957 4.86035 6.89258V3.76367C1.97168 3.44727 0.527344 3.04883 0.527344 2.56836V1.11816C0.697266 1.11816 0.9375 1.03906 1.24805 0.880859ZM2.45215 9.78418C3.2959 9.94238 3.77637 10.0215 3.89355 10.0215C8.82129 9.86328 12.1904 9.78418 14.001 9.78418L14.7217 10.7422V11.4629C14.7217 11.6914 14.4814 11.9316 14.001 12.1836H9.43066V12.9043L9.66797 14.5918H11.1094C12.3926 14.5918 13.0342 15.3125 13.0342 16.7539V18.1953C13.0342 20.123 10.9512 21.0869 6.78516 21.0869V21.5615C8.60742 21.8838 9.8877 22.0449 10.626 22.0449H12.0762C12.3047 22.0449 12.5449 22.2852 12.7969 22.7656V23.0117C12.2988 23.9727 11.335 24.4531 9.90527 24.4531C7.11035 24.4531 5.18555 23.249 4.13086 20.8408C4.53516 19.5576 5.33789 18.916 6.53906 18.916C9.18164 18.7578 10.626 18.2773 10.8721 17.4746V16.7539C7.24512 16.918 4.99805 17 4.13086 17L3.41016 16.0332L3.65625 14.8291H6.30176L7.50586 14.5918L7.25977 14.1084V12.4297H5.09766C2.85352 12.4297 1.73145 11.8672 1.73145 10.7422L2.45215 9.78418ZM21.6934 4.73926C23.7734 4.73926 24.8135 5.46289 24.8135 6.91016C24.8135 7.26758 24.8955 7.58691 25.0596 7.86816C24.8955 8.14941 24.8135 8.46875 24.8135 8.82617V9.07227C25.376 8.42773 25.9385 8.10547 26.501 8.10547H30.1045V7.86816C30.1045 7.50488 30.0254 7.18555 29.8672 6.91016C30.2598 5.62695 30.7402 4.98535 31.3086 4.98535C31.5371 4.99121 31.9385 5.31055 32.5127 5.94336C32.3486 7.54297 32.2666 8.74414 32.2666 9.54688V14.1172C32.2666 14.2754 32.1875 14.3545 32.0293 14.3545L32.2666 14.8379V16.042C32.2666 17.4834 31.625 18.2041 30.3418 18.2041C30.0254 17.5654 29.7852 17.2461 29.6211 17.2461L29.8672 15.5586V14.6006C26.498 14.6006 24.8135 14.1201 24.8135 13.1592C25.1416 12.1982 25.4639 11.7178 25.7803 11.7178C26.7998 11.7178 28.1621 11.876 29.8672 12.1924V10.5137L29.3838 10.751C28.8506 10.751 28.4492 10.6719 28.1797 10.5137L26.7383 10.751H25.7803L24.8135 10.0303C24.8135 12.4326 24.6553 13.6338 24.3389 13.6338C24.3389 13.7979 24.418 13.8799 24.5762 13.8799C24.5762 15.4795 23.1348 16.2793 20.252 16.2793V16.042L19.7686 16.2793H18.3271C18.3271 15.9102 17.8467 15.6699 16.8857 15.5586C16.083 13.6602 15.4414 10.7773 14.9609 6.91016V6.42676C14.9609 5.30176 17.2051 4.73926 21.6934 4.73926ZM17.3691 7.63086C18.084 11.6328 18.7227 13.6338 19.2852 13.6338C19.6074 13.6338 19.7686 13.7158 19.7686 13.8799L20.252 13.6338H22.1768C22.4932 11.2314 22.6514 9.14844 22.6514 7.38477H17.8438L17.3691 7.63086ZM39.2471 1.60156C39.8857 1.75977 40.4453 1.83887 40.9258 1.83887C41.2363 1.68066 41.4795 1.60156 41.6553 1.60156C41.6553 1.85352 41.8135 2.17578 42.1299 2.56836V3.76367C42.1299 4.08594 41.3301 4.32617 39.7305 4.48438L39.2471 4.24707C39.0771 4.24707 38.8369 4.32617 38.5264 4.48438L37.5596 4.24707C36.1182 4.37598 35.3975 4.61621 35.3975 4.96777V5.93457C35.3975 6.21582 36.1182 6.53516 37.5596 6.89258C37.7236 6.89258 37.8057 6.81348 37.8057 6.65527L39.0098 6.89258L41.4092 6.65527L42.1299 7.61328V8.81738C41.7607 8.81738 41.2803 9.05762 40.6885 9.53809L39.4844 9.30078H37.5596C34.6768 9.30078 33.2354 8.09668 33.2354 5.68848V4.24707H32.752C32.752 4.08887 32.8311 4.00977 32.9893 4.00977L32.752 3.52637C32.752 2.66504 33.0713 2.10254 33.71 1.83887H33.9561C34.1143 1.83887 34.1934 1.9209 34.1934 2.08496L34.6768 1.83887H36.8389C37.6006 1.83887 38.4033 1.75977 39.2471 1.60156ZM33.4727 10.2588L35.8809 10.5049H42.376C42.8564 10.6631 43.0967 11.1436 43.0967 11.9463V12.667C43.0967 12.9893 42.9355 13.1504 42.6133 13.1504H40.4512C39.9707 13.1504 39.7305 13.2295 39.7305 13.3877L38.5264 13.1504H36.8389C36.0361 13.1504 34.835 13.0684 33.2354 12.9043C33.2354 12.5879 33.0742 12.4297 32.752 12.4297V11.7002C32.752 11.1201 32.9922 10.6396 33.4727 10.2588ZM34.4395 14.1084H39.9678C41.251 14.1084 41.8926 15.0723 41.8926 17C41.8926 18.3242 40.208 19.2061 36.8389 19.6455C36.8389 19.9619 37.0791 20.1201 37.5596 20.1201C37.7236 20.1201 37.8057 20.041 37.8057 19.8828L39.0098 20.1201C40.2344 20.1201 41.6758 19.9619 43.334 19.6455L43.5713 20.1201V20.8408C43.5713 22.124 42.291 22.7656 39.7305 22.7656L39.2471 22.5283L38.7637 22.7656L38.2803 22.5283C38.1221 22.5283 38.043 22.6074 38.043 22.7656C35.3184 22.3965 33.9561 21.4355 33.9561 19.8828V19.6455C33.9561 18.1104 35.5586 17.1465 38.7637 16.7539V16.5166H34.6768C34.4014 16.5166 34.1611 16.1152 33.9561 15.3125C34.2783 14.791 34.4395 14.3896 34.4395 14.1084ZM47.6602 0.652344C49.4004 0.652344 50.7627 1.93555 51.7471 4.50195H53.4258L55.1045 4.26465C55.1045 4.42285 55.1865 4.50195 55.3506 4.50195V1.37305C55.3506 1.14453 55.5908 0.904297 56.0713 0.652344C57.1904 0.652344 57.75 1.61621 57.75 3.54395C58.0723 6.57324 58.2334 8.81445 58.2334 10.2676L57.5127 10.751H57.2754C56.3145 10.751 55.834 10.0303 55.834 8.58887C55.6699 7.70996 55.5879 7.06836 55.5879 6.66406H51.7471C50.8389 8.26953 49.5557 9.07227 47.8975 9.07227C47.8975 9.23047 47.8184 9.30957 47.6602 9.30957C45.0938 8.58301 43.8105 7.1416 43.8105 4.98535V4.50195C43.8105 2.72656 44.7715 1.52539 46.6934 0.898438L47.6602 0.652344ZM45.9727 4.50195C46.1953 6.10742 46.916 6.91016 48.1348 6.91016C48.8379 6.91016 49.3184 6.50879 49.5762 5.70605C49.0371 3.78418 48.4775 2.82324 47.8975 2.82324C46.6143 2.94043 45.9727 3.5 45.9727 4.50195ZM56.3086 13.1592C59.1973 16.4521 60.6416 18.6143 60.6416 19.6455L60.3955 20.8496H59.4375C58.8984 20.8496 58.0166 19.6484 56.792 17.2461H56.5547C56.1738 19.6484 55.6904 20.8496 55.1045 20.8496H54.3838C53.9854 20.8496 53.7451 20.5273 53.6631 19.8828C54.3955 15.5586 54.958 13.3965 55.3506 13.3965C55.4268 13.3965 55.7461 13.3174 56.3086 13.1592ZM48.6182 13.6338H49.8223C50.9941 14.3193 52.1953 15.7637 53.4258 17.9668V18.9248C53.1035 19.3174 52.9424 19.6367 52.9424 19.8828C51.8291 19.8828 50.8682 18.9219 50.0596 17H49.5762C49.5762 19.0859 48.9375 20.1289 47.6602 20.1289C47.2676 19.8066 46.9453 19.6455 46.6934 19.6455C47.1738 17.2314 47.8154 15.2275 48.6182 13.6338ZM68.8174 4.49316C69.1396 5.01465 69.3008 5.49512 69.3008 5.93457V6.40918C69.0547 7.21191 67.0508 7.61328 63.2891 7.61328V9.53809C63.2891 12.2627 63.9307 13.625 65.2139 13.625H68.334C68.498 13.625 68.8203 13.9473 69.3008 14.5918C69.3008 15.875 68.8203 16.5166 67.8594 16.5166C66.9395 16.5166 66.377 16.5957 66.1719 16.7539C63.125 16.3789 61.6016 15.5791 61.6016 14.3545C61.1211 12.8545 60.8809 11.4893 60.8809 10.2588V5.93457L61.8389 4.73047L63.5264 4.96777C66.585 4.65137 68.3486 4.49316 68.8174 4.49316ZM74.8291 4.49316C75.4736 5.29004 75.7959 6.89258 75.7959 9.30078H78.4414L79.6455 9.53809V11.2256C79.4814 11.7061 78.998 11.9463 78.1953 11.9463H75.7959V15.7959C75.7959 16.915 75.2334 17.4746 74.1084 17.4746L73.3877 16.5166V9.78418C73.3877 8.85254 73.3086 7.56934 73.1504 5.93457C73.4141 4.97363 73.9736 4.49316 74.8291 4.49316ZM80.6055 2.32227H81.3262C81.6484 2.65039 81.9707 5.53613 82.293 10.9795L81.3262 11.7002H81.0889C80.667 11.7002 80.3447 11.0586 80.1221 9.77539V7.37598L79.8848 5.92578C79.8848 5.76758 79.9639 5.68848 80.1221 5.68848L79.8848 4.48438V3.04297C79.8848 2.80859 80.125 2.56836 80.6055 2.32227ZM82.0469 13.3877C82.5332 14.3135 82.7764 14.876 82.7764 15.0752C82.5361 15.7139 82.293 16.0332 82.0469 16.0332C81.0859 16.0332 80.6055 15.5527 80.6055 14.5918C80.7051 14.1113 81.1855 13.71 82.0469 13.3877ZM96.4385 1.83887C98.8408 1.83887 100.042 2.88184 100.042 4.96777V5.21387C100.042 10.0244 99.0811 12.4297 97.1592 12.4297C96.4971 12.4297 95.8555 12.5088 95.2344 12.667C94.9531 12.5088 94.6338 12.4297 94.2764 12.4297C93.9658 12.5879 93.7256 12.667 93.5557 12.667V12.4297L93.0723 12.667H92.1055C91.1152 12.667 90.1543 9.54102 89.2227 3.28906C89.2227 2.32227 90.8252 1.83887 94.0303 1.83887H96.4385ZM104.375 2.56836H104.858C105.661 2.97852 106.062 3.61719 106.062 4.48438C106.062 4.66016 105.98 4.90332 105.816 5.21387L106.062 6.65527V7.12988H108.462C108.796 7.2002 109.118 7.60156 109.429 8.33398C109.106 8.85547 108.945 9.25684 108.945 9.53809H108.225L106.537 9.78418C106.537 9.62012 106.458 9.53809 106.3 9.53809V11.4629C106.3 13.3848 105.98 14.3457 105.342 14.3457H104.138C104.138 14.0996 103.977 13.7803 103.654 13.3877V7.85938L103.417 6.65527H103.654L103.417 6.17188V4.24707C103.417 3.38574 103.736 2.82617 104.375 2.56836ZM91.8682 4.73047C92.6709 7.84766 93.0723 9.61133 93.0723 10.0215H94.0303C96.1162 10.0215 97.1592 9.69922 97.1592 9.05469C97.3174 8.1875 97.3965 7.4668 97.3965 6.89258V4.48438H93.0723L91.8682 4.73047ZM97.6426 15.3125H98.3633C98.8438 15.9805 99.4033 17.3428 100.042 19.3994C101.489 19.0771 102.854 18.916 104.138 18.916L104.612 19.6455V20.6035C104.612 21.2129 103.089 21.6934 100.042 22.0449C98.3545 22.0449 97.2324 20.5215 96.6758 17.4746C96.875 16.0332 97.1973 15.3125 97.6426 15.3125ZM114.238 3.04297H114.722C114.722 3.20703 114.64 3.28906 114.476 3.28906C114.751 3.63477 114.991 4.75684 115.196 6.65527C117.124 6.65527 118.088 7.05664 118.088 7.85938V8.58008C118.088 8.75 117.687 9.06934 116.884 9.53809C117.206 10.0654 117.367 10.5459 117.367 10.9795V12.667C117.168 13.9502 116.688 14.5918 115.926 14.5918V14.8291L116.163 17.2373H116.884L118.571 17.4746V18.916C118.571 19.5605 116.805 19.8828 113.271 19.8828H112.076C111.596 19.7246 111.355 19.2441 111.355 18.4414V18.1953C111.355 17.8262 112.155 17.5068 113.755 17.2373C113.755 15.3096 113.113 14.3457 111.83 14.3457C110.869 13.4141 110.389 12.5322 110.389 11.7002C110.389 11.46 110.55 10.7393 110.872 9.53809C110.14 9.22754 109.738 8.9082 109.668 8.58008V7.37598C110.828 6.89551 111.789 6.65527 112.551 6.65527V4.00977C112.814 3.36523 113.377 3.04297 114.238 3.04297ZM122.896 7.37598H123.379C123.701 8.34277 123.941 9.78418 124.1 11.7002H126.508C127.369 11.7002 127.85 12.1016 127.949 12.9043C127.627 13.4258 127.466 13.8271 127.466 14.1084H124.1V14.3457C124.1 15.0137 124.179 15.8984 124.337 17C124.337 18.1191 123.856 18.6787 122.896 18.6787C122.063 18.6787 121.583 17.1553 121.454 14.1084H121.691L121.454 13.625V11.9463C121.454 11.0615 121.375 9.93945 121.217 8.58008C121.439 7.77734 121.999 7.37598 122.896 7.37598ZM113.034 10.2588V11.7002C113.034 11.9346 113.274 12.1777 113.755 12.4297H114.722L115.196 12.1836C115.196 11.1406 114.716 10.4199 113.755 10.0215C113.444 10.1797 113.204 10.2588 113.034 10.2588Z" fill="#222222"/>
</svg>
