<svg width="163" height="26" viewBox="0 0 163 26" fill="none" xmlns="http://www.w3.org/2000/svg">
<path d="M7.396 3.01904H8.31738C10.1325 3.01904 11.563 4.14242 12.6089 6.38916C12.6089 6.4943 12.6587 6.64648 12.7583 6.8457C12.7583 9.18652 11.8895 10.7194 10.1519 11.4443H8.4668C6.09831 11.4443 4.31087 10.5755 3.10449 8.83789L2.79736 7.76709V7.45996C3.10173 7.1556 3.71598 6.1346 4.64014 4.39697C5.74137 3.47835 6.65999 3.01904 7.396 3.01904ZM4.64014 8.22363C4.64014 9.03711 6.07064 9.54899 8.93164 9.75928C10.0882 9.75928 10.8021 8.78809 11.0732 6.8457C10.5531 5.31283 9.53206 4.54639 8.01025 4.54639C6.7762 4.54639 5.65283 5.77214 4.64014 8.22363ZM8.77393 12.2163C10.9709 12.3159 12.5563 12.3657 13.5303 12.3657L13.8374 12.2163C14.4959 12.2163 14.9027 12.6756 15.0576 13.5942C14.958 14.0037 14.6536 14.2085 14.1445 14.2085H11.9946C11.7622 14.2085 11.5575 14.1559 11.3804 14.0508C11.2033 14.1559 10.9985 14.2085 10.7661 14.2085H10.1519C10.0522 15.4093 10.0024 16.2782 10.0024 16.8149C10.0356 17.0142 10.138 17.1138 10.3096 17.1138H11.8452C12.6034 17.241 13.0101 17.4458 13.0654 17.728C13.0654 20.4894 12.7611 21.8701 12.1523 21.8701L11.231 22.0195C9.41585 21.9199 7.88298 21.8701 6.63232 21.8701H5.86035C5.6556 21.9033 5.55322 22.0057 5.55322 22.1772V22.6338C5.55322 23.3919 5.70817 23.8014 6.01807 23.8623C6.44417 23.8623 7.00586 23.8125 7.70312 23.7129C9.28027 23.8125 10.661 23.8623 11.8452 23.8623L12.4512 23.7129C12.7832 23.7129 13.1429 24.0698 13.5303 24.7837C13.5303 25.3979 13.1706 25.7051 12.4512 25.7051C10.9294 25.7051 9.55143 25.6525 8.31738 25.5474L5.09668 25.8545C4.27767 25.8545 3.86816 24.9359 3.86816 23.0986C3.66341 22.4788 3.56104 21.7124 3.56104 20.7993L4.17529 20.3345H8.31738C8.8763 20.3345 9.59017 20.387 10.459 20.4922C10.8685 20.3372 11.0732 20.1823 11.0732 20.0273V19.2637C11.0732 18.9593 10.4092 18.8071 9.08105 18.8071H6.47461C6.24772 18.8071 6.04297 18.8569 5.86035 18.9565C4.32747 18.8237 3.56104 18.5692 3.56104 18.1929V17.5786C3.56104 17.4292 3.71598 17.2743 4.02588 17.1138H8.31738C8.31738 16.7098 8.26481 16.5078 8.15967 16.5078L8.31738 15.4287V14.3579L8.15967 14.0508L1.41943 14.3579C0.998861 14.2196 0.691732 13.965 0.498047 13.5942C0.498047 12.8748 1.1123 12.5151 2.34082 12.5151C5.32357 12.3159 7.46794 12.2163 8.77393 12.2163ZM24.2676 4.39697C24.904 4.60173 25.2609 4.85628 25.3384 5.16064V5.62549C25.3384 6.1346 24.3672 6.38916 22.4248 6.38916C20.1781 6.8208 19.0547 7.12793 19.0547 7.31055V7.61768C19.1045 8.74658 19.2567 9.41064 19.5112 9.60986C22.0568 8.99561 23.7944 8.68848 24.7241 8.68848C25.2332 8.83236 25.4878 9.18929 25.4878 9.75928V10.2241C21.7082 10.772 19.8184 11.2811 19.8184 11.7515C19.8184 12.4764 19.9207 13.0381 20.1255 13.4365C22.6268 13.027 24.262 12.7227 25.0312 12.5234C25.6455 12.7282 25.9526 12.9302 25.9526 13.1294V13.7437C25.9526 14.1421 23.7031 14.7038 19.2041 15.4287C18.3851 15.4287 17.9756 14.3053 17.9756 12.0586C17.876 12.0586 17.5716 10.321 17.0625 6.8457C16.9574 6.8457 16.9048 6.69352 16.9048 6.38916V6.23145C16.9048 5.67806 19.359 5.06657 24.2676 4.39697ZM29.6299 16.8149C30.3438 17.0086 30.7007 17.3656 30.7007 17.8857C30.7007 18.5498 29.2204 18.9593 26.2598 19.1143C20.3828 20.0329 17.1123 20.4922 16.4482 20.4922C15.6292 20.3428 15.2197 19.9333 15.2197 19.2637C15.2197 18.8708 17.6712 18.4115 22.5742 17.8857C23.1663 17.681 25.5182 17.3241 29.6299 16.8149ZM40.9731 5.18555C43.4191 6.10417 44.6421 7.12516 44.6421 8.24854C44.6421 9.98063 44.7943 10.8467 45.0986 10.8467H47.3979C48.1118 10.8467 48.4688 11.2036 48.4688 11.9175V12.0752C48.4688 12.4847 47.3454 12.7393 45.0986 12.8389L44.9492 13.146C45.154 15.2599 45.2563 16.8924 45.2563 18.0435L44.6421 18.5H44.4844C43.5713 18.5 43.1147 17.479 43.1147 15.437C42.8049 10.3403 42.5475 7.79199 42.3428 7.79199C40.915 7.23861 40.2012 6.72949 40.2012 6.26465V5.49268C40.7158 5.49268 40.9731 5.3903 40.9731 5.18555ZM31.9419 6.56348H35.0049C37.0413 6.56348 38.0596 7.17773 38.0596 8.40625C38.2643 10.6862 38.3667 12.1139 38.3667 12.6895C38.3667 13.027 36.6844 13.5361 33.3198 14.2168V14.5239C34.1056 16.0236 34.7171 16.9422 35.1543 17.2798C35.4863 17.2798 36.6097 17.075 38.5244 16.6655C38.9893 16.8647 39.2438 17.0695 39.2881 17.2798V17.7363C39.2881 18.2288 38.2671 18.6882 36.2251 19.1143H34.8472C33.7791 19.1143 32.4538 17.3794 30.8711 13.9097V13.2954C30.8711 12.9136 32.1466 12.5566 34.6978 12.2246C35.8211 11.8649 36.3828 11.5605 36.3828 11.3115C36.2113 9.47428 36.0563 8.55566 35.918 8.55566C35.7409 8.45605 35.5389 8.40625 35.312 8.40625H32.249C31.6956 8.40625 31.2861 8.2015 31.0205 7.79199V7.02832C31.1257 6.71842 31.4328 6.56348 31.9419 6.56348ZM57.3633 3.6416H57.9775C59.4053 3.6416 60.1191 4.04834 60.1191 4.86182C60.2188 4.96696 60.2686 5.37646 60.2686 6.09033V8.84619C60.3018 9.05094 60.4041 9.15332 60.5757 9.15332C61.2785 9.05371 61.8402 9.00391 62.2607 9.00391L63.0327 9.15332V8.23193C63.0327 7.72282 63.0825 6.95915 63.1821 5.94092C62.1528 5.54248 61.5911 5.18278 61.4971 4.86182V4.25586C61.4971 4.10091 61.7018 3.94596 62.1113 3.79102C63.2181 3.79102 64.2391 4.20052 65.1743 5.01953C65.0415 7.95247 64.9391 9.73991 64.8672 10.3818C64.9668 10.7858 65.0166 11.1427 65.0166 11.4526C64.917 12.9302 64.8672 13.7464 64.8672 13.9014L65.0166 14.665C64.8229 15.1354 64.6209 15.3927 64.4106 15.437H64.2529C63.4395 15.437 63.0327 15.0275 63.0327 14.2085V10.3818C62.4185 10.6862 61.5496 10.9408 60.4263 11.1455C60.4263 11.2562 60.3737 11.4084 60.2686 11.6021C60.3737 12.4709 60.4263 13.1875 60.4263 13.752V14.2085C60.4263 14.7785 60.1717 15.1354 59.6626 15.2793C58.8436 15.0137 58.4341 14.5544 58.4341 13.9014V7.31885C58.4341 5.78597 58.0771 5.01953 57.3633 5.01953L56.8984 4.40527V4.09814C56.8984 3.95426 57.0534 3.80208 57.3633 3.6416ZM54.7568 4.55469C55.4098 4.55469 55.7668 5.47607 55.8276 7.31885C55.8276 10.4565 54.8592 12.7033 52.9224 14.0591C52.6899 14.0591 52.4852 14.1089 52.3081 14.2085C51.5942 14.0314 51.2373 13.8267 51.2373 13.5942V13.1377C52.4603 12.0863 53.0718 11.2174 53.0718 10.5312C52.9722 10.5312 52.9224 10.4814 52.9224 10.3818L52.1504 10.5312H49.8594C49.721 10.5312 49.4637 10.2767 49.0874 9.76758V9.30273C49.0874 8.79362 50.5677 8.53906 53.5283 8.53906C53.7331 8.20703 53.8354 7.90267 53.8354 7.62598V7.31885C53.8354 6.8042 53.7331 6.54688 53.5283 6.54688C51.1709 6.75163 49.8953 6.854 49.7017 6.854C49.2424 6.68799 48.8854 6.38363 48.6309 5.94092V5.63379C48.6309 5.01953 50.4681 4.7124 54.1426 4.7124C54.1426 4.60726 54.3473 4.55469 54.7568 4.55469ZM60.2686 15.437H60.7334C61.3255 15.437 61.6825 17.6838 61.8042 22.1772C61.8042 22.7196 59.967 23.1789 56.2925 23.5552C55.4735 23.5552 55.064 22.0721 55.064 19.106C54.9865 19.106 54.8343 18.4447 54.6074 17.1221C54.7568 16.7126 54.909 16.5078 55.064 16.5078H55.3711C56.2067 16.5078 56.7158 17.2217 56.8984 18.6494H57.0562C58.8934 18.3451 59.812 18.0379 59.812 17.728V15.8936C59.812 15.7441 59.9642 15.592 60.2686 15.437ZM57.2056 20.6416V21.2559C57.2388 21.4606 57.3411 21.563 57.5127 21.563C59.1507 21.3582 59.9697 21.1009 59.9697 20.791V20.1851C59.9697 19.9803 59.8674 19.8779 59.6626 19.8779C58.8768 20.1823 58.0578 20.4368 57.2056 20.6416ZM73.6123 4.41357C74.3262 4.41357 74.6831 4.77051 74.6831 5.48438C74.3732 6.0599 74.2183 6.4694 74.2183 6.71289C75.2642 7.5485 76.9492 8.6193 79.2734 9.92529V10.689C79.2734 10.8384 79.1213 10.9933 78.8169 11.1538H78.6592C77.984 11.0431 76.1994 10.0719 73.3052 8.24023H73.1475C71.1719 9.72884 69.5394 10.5451 68.25 10.689H67.9429C67.5389 10.5229 67.3369 10.166 67.3369 9.61816C67.3369 9.45768 68.5101 8.84619 70.8564 7.78369C71.8249 7.03662 72.5885 5.91325 73.1475 4.41357H73.6123ZM71.4707 10.689C72.2842 10.8162 72.6909 11.1234 72.6909 11.6104C72.6909 11.8538 72.6411 12.6175 72.5415 13.9014L73.6123 14.2085C73.806 14.1089 73.9582 14.0591 74.0688 14.0591V13.6025C74.0688 13.2594 74.1187 13.0021 74.2183 12.8306L74.0688 11.9175V11.6104C74.0688 11.1012 74.2736 10.7941 74.6831 10.689C75.4966 10.689 75.9033 11.6076 75.9033 13.4448V13.752C75.9033 13.8958 76.0583 14.048 76.3682 14.2085H82.1787C82.793 14.2085 83.1001 14.5156 83.1001 15.1299C83.1001 15.7441 82.591 16.0513 81.5728 16.0513H78.5098C75.61 16.0513 71.5786 16.1011 66.4155 16.2007C65.9562 16.0291 65.5993 15.722 65.3447 15.2793V14.9722C65.4831 14.5682 65.9424 14.3662 66.7227 14.3662H70.3916C70.541 14.3662 70.696 14.2113 70.8564 13.9014V12.0669C70.8564 11.2866 71.0612 10.8273 71.4707 10.689ZM73.7617 16.5078C76.5176 17.1055 77.8955 18.0241 77.8955 19.2637V19.5708C77.8955 21.4744 76.5701 22.5951 73.9194 22.9326H73.6123C71.266 22.3792 70.0928 21.563 70.0928 20.4839L69.9351 19.5708V19.2637C69.9351 18.013 70.8039 17.0944 72.5415 16.5078H73.7617ZM71.6201 19.7202C71.6201 20.5392 72.1818 21.0483 73.3052 21.2476H74.2183C75.1479 21.2476 75.812 20.4839 76.2104 18.9565C75.4744 18.3423 74.5558 18.0352 73.4546 18.0352C72.7684 18.0352 72.1569 18.5968 71.6201 19.7202ZM98.9966 0.75293H100.682C100.842 0.75293 101.047 0.957682 101.296 1.36719V1.82373C101.296 2.57633 101.243 3.13802 101.138 3.50879C101.243 4.17839 101.296 4.83968 101.296 5.49268V7.17773C101.13 7.58724 100.773 7.79199 100.225 7.79199C99.6108 7.79199 99.3037 6.56624 99.3037 4.11475V3.35107L99.4614 2.5874L99.1543 2.43799H98.8472C98.731 2.43799 98.1693 2.54036 97.1621 2.74512H96.7056C95.8866 2.66764 95.4771 2.31071 95.4771 1.67432C95.4771 1.29248 96.6502 0.985352 98.9966 0.75293ZM93.4932 1.36719C94.1019 1.52767 94.4062 1.83203 94.4062 2.28027C94.9209 5.58952 95.1782 7.52913 95.1782 8.09912C94.8019 8.40348 94.445 8.55566 94.1074 8.55566C93.4046 8.55566 92.9951 7.12793 92.8789 4.27246L92.4224 3.20166L89.5171 3.50879C89.0965 3.36491 88.7894 3.11035 88.5957 2.74512V2.28027C88.5957 1.8763 90.2282 1.57194 93.4932 1.36719ZM101.138 8.86279C102.771 9.03988 103.587 9.39681 103.587 9.93359C103.554 10.1715 103.249 10.5285 102.674 11.0044C102.109 10.8993 101.7 10.8467 101.445 10.8467C100.77 10.8467 99.6994 11.0016 98.2329 11.3115V11.9175C98.2329 12.3657 98.3353 12.7752 98.54 13.146C98.54 13.2843 98.3353 13.6413 97.9258 14.2168V14.3662H98.3906C98.8721 14.3662 99.3812 14.3164 99.918 14.2168C100.936 14.3496 101.445 14.8089 101.445 15.5947L101.296 16.3584L101.445 16.9727C101.445 17.9909 100.477 18.5 98.54 18.5C96.0941 18.7048 94.8711 18.9593 94.8711 19.2637C94.8711 19.8779 95.0731 20.1851 95.4771 20.1851C98.4819 19.8807 100.114 19.7285 100.375 19.7285C101.011 19.9333 101.368 20.1878 101.445 20.4922V20.9487C101.445 21.3029 100.886 21.5575 99.7686 21.7124C99.6634 21.7124 99.6108 21.6626 99.6108 21.563C97.1317 21.8674 95.2972 22.0195 94.1074 22.0195C93.5928 21.6488 93.1335 20.4258 92.7295 18.3506C92.7295 17.7363 93.4434 17.4292 94.8711 17.4292C95.6846 17.2244 97.2147 16.9699 99.4614 16.6655V16.209C99.3507 16.209 99.1958 16.1564 98.9966 16.0513C96.9601 16.256 95.0233 16.3584 93.186 16.3584C92.7765 15.9489 92.5718 15.6418 92.5718 15.437C92.5718 14.8283 93.9497 14.5239 96.7056 14.5239C96.8826 14.4188 97.0874 14.3662 97.3198 14.3662C96.8218 13.9014 96.4648 12.9329 96.249 11.4609H93.4932C92.901 11.4609 92.0848 11.5135 91.0444 11.6187C90.8065 11.5799 90.4495 11.2728 89.9736 10.6973C89.9736 9.9834 91.5535 9.62646 94.7134 9.62646C96.5396 9.62646 98.6812 9.37191 101.138 8.86279ZM119.388 2.71191C121.225 3.08268 122.144 3.48942 122.144 3.93213C122.144 4.51872 122.041 5.13298 121.836 5.7749H121.994C121.789 6.38916 121.687 7.71729 121.687 9.75928V12.6729C121.687 13.2262 121.43 13.6357 120.915 13.9014C120.102 13.9014 119.695 13.4919 119.695 12.6729V12.0586C119.695 11.5218 119.745 10.653 119.844 9.45215L119.537 9.30273C117.595 9.30273 116.624 9.50749 116.624 9.91699C116.624 12.6729 116.267 14.0508 115.553 14.0508C114.938 14.0508 114.582 13.6413 114.482 12.8223L115.096 5.46777C113.458 5.11361 112.639 4.55192 112.639 3.78271C112.639 3.6333 112.791 3.47835 113.096 3.31787H113.403C115.86 3.68311 117.088 4.14518 117.088 4.7041L116.781 7.45996C116.975 7.5651 117.127 7.61768 117.238 7.61768C119.075 7.61768 119.994 7.41292 119.994 7.00342C119.994 6.75439 120.046 5.98796 120.151 4.7041C119.028 4.36654 118.466 3.80485 118.466 3.01904C118.798 2.81429 119.105 2.71191 119.388 2.71191ZM110.498 4.85352C110.918 4.9974 111.222 5.25195 111.411 5.61719C111.411 6.53581 110.747 8.01888 109.418 10.0664C109.418 10.3044 110.083 11.021 111.411 12.2163C111.516 12.3934 111.568 12.5954 111.568 12.8223V13.1294C111.568 13.2788 111.413 13.4338 111.104 13.5942C110.7 13.5942 109.731 12.9302 108.198 11.6021H107.891C106.425 12.6203 105.453 13.1294 104.978 13.1294H104.67C104.134 12.8638 103.826 12.5594 103.749 12.2163C103.749 11.8843 104.72 11.27 106.663 10.3735C108.079 8.92367 108.846 7.74772 108.962 6.8457C106.699 6.95085 105.473 7.00342 105.285 7.00342C104.67 6.79313 104.363 6.38363 104.363 5.7749V5.61719C104.463 5.31283 104.77 5.16064 105.285 5.16064H105.592C107.822 5.16064 109.457 5.05827 110.498 4.85352ZM117.088 15.5864C118.417 15.7137 119.081 16.2256 119.081 17.1221V18.3423C119.081 19.5929 118.978 20.7689 118.773 21.8701L118.923 22.6338C118.718 23.1872 118.464 23.4943 118.159 23.5552C117.495 23.3504 117.036 23.248 116.781 23.248C116.278 23.248 114.847 23.5552 112.49 24.1694C111.311 24.1694 110.647 22.4318 110.498 18.9565C110.392 18.6411 110.34 18.0296 110.34 17.1221V16.8149C110.34 16.339 112.434 15.9793 116.624 15.7358C116.624 15.6362 116.778 15.5864 117.088 15.5864ZM112.332 18.3423C112.642 20.9985 112.896 22.3267 113.096 22.3267C114.274 21.9227 115.298 21.7207 116.167 21.7207H116.624C117.033 21.7207 117.238 20.4424 117.238 17.8857C116.989 17.681 116.784 17.5786 116.624 17.5786C113.763 17.728 112.332 17.9328 112.332 18.1929V18.3423ZM136.812 3.35107C138.748 3.57796 139.717 3.98747 139.717 4.57959V8.09912C139.75 8.30387 139.852 8.40625 140.024 8.40625C140.273 8.40625 141.089 8.2513 142.473 7.94141C143.081 8.20703 143.386 8.56396 143.386 9.01221C143.386 9.54899 142.215 10.0609 139.875 10.5479C139.875 10.6475 139.822 10.6973 139.717 10.6973C139.822 11.0791 139.924 12.3547 140.024 14.5239C139.858 15.033 139.551 15.2876 139.103 15.2876C138.289 15.2876 137.882 13.6053 137.882 10.2407V9.93359C137.882 9.59049 137.83 9.33594 137.725 9.16992L137.882 8.24854V7.33545L137.725 6.41406C137.83 6.23698 137.882 6.03223 137.882 5.7998C137.882 5.55078 137.373 5.24642 136.355 4.88672L136.197 4.11475V3.81592C136.197 3.66097 136.402 3.50602 136.812 3.35107ZM134.67 5.7998C135.057 5.89388 135.362 6.25081 135.583 6.87061C135.483 8.22087 135.434 9.34424 135.434 10.2407C135.434 10.4842 135.483 11.2479 135.583 12.5317C135.212 12.8416 134.855 12.9966 134.512 12.9966C134.313 12.9966 134.213 12.944 134.213 12.8389L133.143 12.9966H130.387L129.465 13.146C128.242 13.146 127.631 12.0226 127.631 9.77588V8.24854C127.631 6.8208 127.938 6.10693 128.552 6.10693C128.884 6.31169 129.189 6.41406 129.465 6.41406C131.773 6.00456 133.508 5.7998 134.67 5.7998ZM129.465 8.70508L129.623 10.5479V11.0044C129.651 11.2091 129.75 11.3115 129.922 11.3115H132.678C132.954 11.3115 133.262 11.2091 133.599 11.0044L133.441 10.2407V8.09912L133.292 7.79199C130.918 8.17383 129.642 8.47819 129.465 8.70508ZM132.221 14.6733H132.985C133.599 14.6733 133.906 15.7967 133.906 18.0435V18.5L134.056 18.8071C135.074 18.7075 135.84 18.6577 136.355 18.6577H138.032C138.546 18.6577 138.903 18.9123 139.103 19.4214V19.8779C139.103 20.387 137.777 20.6416 135.126 20.6416C135.126 20.8464 134.465 20.9487 133.143 20.9487C132.324 20.9487 131.914 19.7257 131.914 17.2798C131.914 17.0308 131.864 16.2643 131.765 14.9805L132.221 14.6733ZM147.989 4.86182H150.438C150.991 4.86182 151.351 5.06657 151.517 5.47607V6.09033C151.517 6.24528 151.312 6.39746 150.902 6.54688L149.832 6.39746C149.129 6.49707 148.567 6.54688 148.146 6.54688C147.61 6.54688 147.15 6.24251 146.769 5.63379V5.32666C146.829 5.01676 147.236 4.86182 147.989 4.86182ZM156.265 5.7832H156.563C158.711 6.01009 159.784 6.36702 159.784 6.854C159.884 10.5783 159.986 12.7752 160.091 13.4448H161.619C161.779 13.4448 161.984 13.6496 162.233 14.0591V14.5156C162.233 14.8255 161.519 15.0801 160.091 15.2793V15.437C160.191 17.3185 160.241 18.9012 160.241 20.1851V20.791C160.241 20.9515 160.039 21.1562 159.635 21.4053C158.816 21.3278 158.406 20.9709 158.406 20.3345C158.201 11.757 157.997 7.46826 157.792 7.46826C157.039 7.46826 156.428 7.11133 155.958 6.39746V6.09033C155.985 5.88558 156.088 5.7832 156.265 5.7832ZM153.658 8.08252C154.272 8.32048 154.58 8.67741 154.58 9.15332C154.58 9.66243 153.149 9.91699 150.288 9.91699H144.776C143.957 9.79525 143.548 9.49089 143.548 9.00391C143.548 8.48926 144.569 8.23193 146.611 8.23193H152.737L153.658 8.08252ZM149.524 11.4526C152.175 11.8511 153.5 12.8195 153.5 14.3579C153.5 15.8133 152.532 16.8869 150.595 17.5786H150.438C150.438 18.8016 150.695 19.4131 151.209 19.4131C152.964 19.3135 153.985 19.2637 154.272 19.2637C154.737 19.4629 154.992 19.6676 155.036 19.8779V20.3345C155.036 20.9598 152.994 21.3167 148.91 21.4053C148.91 21.5104 148.144 21.563 146.611 21.563C145.559 21.563 144.793 21.2061 144.312 20.4922C144.455 19.9775 144.812 19.7202 145.382 19.7202H148.296L149.06 19.5708C149.06 18.0379 148.805 17.2715 148.296 17.2715C146.663 16.7126 145.847 15.7414 145.847 14.3579C145.847 13.1349 146.409 12.5234 147.532 12.5234C147.532 12.0475 148.196 11.6906 149.524 11.4526ZM147.532 14.5156V14.8228C147.532 15.2599 148.041 15.6169 149.06 15.8936H149.981C151.104 15.6611 151.666 15.0994 151.666 14.2085V13.9014C151.306 13.2871 150.847 12.98 150.288 12.98H149.674C148.999 12.98 148.285 13.4919 147.532 14.5156Z" fill="#222222"/>
</svg>
