<svg width="184" height="25" viewBox="0 0 184 25" fill="none" xmlns="http://www.w3.org/2000/svg">
<path d="M3.89355 2.10254H4.13086C5.25 2.10254 5.80957 3.22461 5.80957 5.46875C5.97363 5.46875 6.05566 5.94922 6.05566 6.91016H7.97168C9.4834 6.91016 10.6055 7.22949 11.3379 7.86816C11.3379 8.9873 10.8574 9.54688 9.89648 9.54688H8.45508C8.8125 10.0566 9.13184 10.8594 9.41309 11.9551C9.2373 14.1992 8.19727 15.3213 6.29297 15.3213H5.80957C4.53223 15.3213 3.41309 14.4395 2.45215 12.6758V10.9971L2.68945 9.79297H1.73145L0.527344 9.54688V8.82617C0.527344 7.70703 1.56738 7.14746 3.64746 7.14746C3.33105 5.38965 3.17285 4.18848 3.17285 3.54395C3.33105 2.58301 3.57129 2.10254 3.89355 2.10254ZM14.9414 4.74805H15.6621C16.3008 4.74805 16.7021 6.10742 16.8662 8.82617L19.0283 8.35156C20.1475 8.50977 20.707 8.75 20.707 9.07227V9.79297C20.707 10.5371 19.5059 11.0176 17.1035 11.2344C17.2207 11.5215 17.3818 12.6436 17.5869 14.6006C17.2764 15.3271 16.9541 15.7256 16.6201 15.7959H15.4248C14.9443 14.4365 14.7041 13.4756 14.7041 12.9131H14.9414C14.7832 12.3799 14.4639 10.1387 13.9834 6.18945C14.3057 5.22852 14.625 4.74805 14.9414 4.74805ZM4.85156 10.5137C4.69336 10.8242 4.61426 11.0645 4.61426 11.2344C4.93066 12.1016 5.41113 12.6611 6.05566 12.9131C6.53613 12.7549 6.77637 12.5967 6.77637 12.4385C6.65918 11.1553 6.01758 10.5137 4.85156 10.5137ZM10.3799 16.7627H11.1006C11.7979 16.7627 12.1963 18.1221 12.2959 20.8408C12.6943 20.8408 13.8955 20.6826 15.8994 20.3662C16.7021 20.6826 17.1035 20.9229 17.1035 21.0869C17.1035 22.5283 15.4219 23.249 12.0586 23.249H11.5752C10.2979 23.249 9.65918 21.7256 9.65918 18.6787V18.4414C9.76465 17.3223 10.0049 16.7627 10.3799 16.7627ZM28.1025 0.898438C29.2275 0.898438 29.79 2.41895 29.79 5.45996C29.9482 6.2627 30.2676 6.66406 30.748 6.66406C33.0039 6.66406 34.9287 6.42383 36.5225 5.94336C37.0029 6.69336 37.2432 7.25586 37.2432 7.63086V7.86816C37.2432 8.61816 35.4795 9.09863 31.9521 9.30957H30.0273C28.5039 9.30957 27.6221 7.70703 27.3818 4.50195C27.2236 3.92188 27.1445 3.04004 27.1445 1.85645V1.61914C27.3848 1.61914 27.7041 1.37891 28.1025 0.898438ZM37.2432 10.0303C38.5264 10.0303 39.168 10.5107 39.168 11.4717V12.1924C38.9043 12.1924 38.6611 12.3535 38.4385 12.6758C36.458 12.834 35.418 12.9131 35.3184 12.9131V13.1592L35.5557 16.042C35.3154 16.6807 35.0752 17 34.835 17H33.6309L33.1562 15.3213V13.6338L32.9102 13.1592L32.4355 13.3965H30.0273C29.166 13.3965 28.6064 13.0771 28.3486 12.4385V11.4717C28.3486 11.2432 28.5889 11.0029 29.0693 10.751H29.79C32.1807 10.751 34.665 10.5107 37.2432 10.0303ZM30.2734 16.2793H30.9941C31.3281 16.2793 31.7266 17.3223 32.1895 19.4082C32.8457 19.7246 33.3262 19.8828 33.6309 19.8828L34.1143 19.6455L34.5977 19.8828L36.9971 19.4082C37.958 19.6191 38.4385 19.8594 38.4385 20.1289C38.4385 21.459 37.0791 22.2588 34.3604 22.5283V22.291C34.1963 22.291 34.1143 22.3701 34.1143 22.5283C30.9092 22.5283 29.3066 20.6855 29.3066 17L30.2734 16.2793ZM51.6504 5.46875C52.4531 5.94922 52.8545 8.03223 52.8545 11.7178V16.2793L51.167 16.7627C51.167 16.4404 51.0088 16.2793 50.6924 16.2793V11.7178H49.251L47.5635 11.4717C47.1475 13.5576 46.2686 14.6006 44.9268 14.6006H43.7227C41.2734 14.6006 39.832 12.8369 39.3984 9.30957V9.07227C39.8789 7.15039 40.8398 6.18945 42.2812 6.18945H42.7646C42.9229 6.18945 43.002 6.26855 43.002 6.42676L43.4854 6.18945H44.4434C45.8027 6.18945 46.8428 7.22949 47.5635 9.30957H49.7256L50.209 9.55566L50.4463 9.07227V8.58887C50.4463 8.01465 50.3672 7.29395 50.209 6.42676C50.3672 5.78809 50.8477 5.46875 51.6504 5.46875ZM54.7705 5.70605C55.8955 5.91699 56.6162 8.31934 56.9326 12.9131C56.9326 15.3154 56.4521 16.5166 55.4912 16.5166H55.2539C55.002 16.5166 54.6826 16.1973 54.2959 15.5586L54.5332 13.1592V11.2344C54.5332 9.99805 54.2139 8.63574 53.5752 7.14746C53.5752 6.34473 53.9736 5.86426 54.7705 5.70605ZM42.2812 8.10547L41.5605 9.30957C41.9238 11.2314 42.7236 12.1924 43.96 12.1924H44.6807C45.3252 11.9346 45.6475 11.375 45.6475 10.5137V9.79297C45.0029 8.66797 43.8809 8.10547 42.2812 8.10547ZM64.0996 0.880859C68.1074 1.39648 70.1113 1.71582 70.1113 1.83887L70.5947 1.60156H72.5195C74.7637 2.02344 75.8857 3.86621 75.8857 7.12988C75.5752 7.8623 75.2559 8.26367 74.9277 8.33398H74.4443C73.8643 8.33398 73.3838 6.89258 73.0029 4.00977C72.6807 4.00977 72.5195 3.92773 72.5195 3.76367L72.0361 4.00977H71.7988C71.6348 4.00977 71.5527 3.92773 71.5527 3.76367C70.5918 3.97461 70.1113 4.21484 70.1113 4.48438V7.37598C70.1113 8.33691 69.6309 8.81738 68.6699 8.81738C68.0312 8.2373 67.7119 7.5957 67.7119 6.89258V3.76367C64.8232 3.44727 63.3789 3.04883 63.3789 2.56836V1.11816C63.5488 1.11816 63.7891 1.03906 64.0996 0.880859ZM65.3037 9.78418C66.1475 9.94238 66.6279 10.0215 66.7451 10.0215C71.6729 9.86328 75.042 9.78418 76.8525 9.78418L77.5732 10.7422V11.4629C77.5732 11.6914 77.333 11.9316 76.8525 12.1836H72.2822V12.9043L72.5195 14.5918H73.9609C75.2441 14.5918 75.8857 15.3125 75.8857 16.7539V18.1953C75.8857 20.123 73.8027 21.0869 69.6367 21.0869V21.5615C71.459 21.8838 72.7393 22.0449 73.4775 22.0449H74.9277C75.1562 22.0449 75.3965 22.2852 75.6484 22.7656V23.0117C75.1504 23.9727 74.1865 24.4531 72.7568 24.4531C69.9619 24.4531 68.0371 23.249 66.9824 20.8408C67.3867 19.5576 68.1895 18.916 69.3906 18.916C72.0332 18.7578 73.4775 18.2773 73.7236 17.4746V16.7539C70.0967 16.918 67.8496 17 66.9824 17L66.2617 16.0332L66.5078 14.8291H69.1533L70.3574 14.5918L70.1113 14.1084V12.4297H67.9492C65.7051 12.4297 64.583 11.8672 64.583 10.7422L65.3037 9.78418ZM81.8994 2.07617V2.32227L82.3828 2.07617H82.6289C83.5254 2.07617 84.085 2.47754 84.3076 3.28027C84.1143 4.40527 83.7129 4.96777 83.1035 4.96777L81.4248 4.72168C81.1436 4.88574 80.8213 4.96777 80.458 4.96777V5.44238C80.458 6.73145 80.9385 7.37598 81.8994 7.37598C82.9775 7.37598 83.8623 7.61621 84.5537 8.09668L84.3076 5.92578C84.3076 4.08008 85.1104 3.03711 86.7158 2.79688H88.1572C88.3213 2.79688 88.4033 2.87891 88.4033 3.04297L88.8867 2.79688H90.082C90.3164 2.79688 90.5596 3.03711 90.8115 3.51758V4.00098C90.8115 5.12598 90.1699 5.68848 88.8867 5.68848C87.7383 5.52441 87.0967 5.44238 86.9619 5.44238V6.89258C86.9619 7.85352 87.6826 8.33398 89.124 8.33398C89.3525 8.33398 89.5928 8.57422 89.8447 9.05469V9.30078C89.8447 10.1621 89.5254 10.7217 88.8867 10.9795H87.1992C85.875 10.9795 84.9932 10.0977 84.5537 8.33398H84.3076C84.3076 9.61719 84.0674 10.2588 83.5869 10.2588H82.8662C79.4971 10.2588 77.8125 8.89648 77.8125 6.17188V4.72168C77.8125 4.34082 78.0527 3.62012 78.5332 2.55957L79.0166 2.79688V2.32227H80.7041L81.8994 2.07617ZM95.3818 2.79688H95.6191C95.8711 2.79688 96.1934 3.11914 96.5859 3.76367C96.7441 6.91602 96.8232 9.00195 96.8232 10.0215H96.5859C96.5859 10.1797 96.665 10.2588 96.8232 10.2588C96.8232 10.6807 96.583 11.5625 96.1025 12.9043H94.8984C94.6465 12.9043 94.3271 12.585 93.9404 11.9463C93.9404 11.583 94.0195 11.2607 94.1777 10.9795L93.9404 10.4961C94.0986 9.62891 94.1777 8.9082 94.1777 8.33398H91.0488C90.7969 8.33398 90.4746 8.01465 90.082 7.37598V7.12988C90.1875 6.16895 90.4307 5.68848 90.8115 5.68848H92.0156C92.1738 5.68848 92.2529 5.76758 92.2529 5.92578L92.7363 5.68848H93.9404C93.9404 5.36621 94.0195 5.20508 94.1777 5.20508L93.9404 4.72168V4.24707C93.9404 3.28027 94.4209 2.79688 95.3818 2.79688ZM87.1992 14.3545L92.7363 15.0752C93.5391 15.6729 93.9404 16.6338 93.9404 17.958C93.9404 20.4951 93.2988 21.8604 92.0156 22.0537C91.2129 21.8311 90.8115 21.2686 90.8115 20.3662V20.1289C90.8115 19.9766 90.9697 19.335 91.2861 18.2041V17.4834H91.0488L87.6826 17.2373L87.1992 17.4834C86.2383 17.0674 85.7578 16.5049 85.7578 15.7959C85.916 15.4854 85.9951 15.2451 85.9951 15.0752C85.8369 15.0752 85.7578 14.9932 85.7578 14.8291C86.7188 14.7178 87.1992 14.5596 87.1992 14.3545ZM97.7832 2.32227H98.5039C98.8262 2.65039 99.1484 5.53613 99.4707 10.9795L98.5039 11.7002H98.2666C97.8447 11.7002 97.5225 11.0586 97.2998 9.77539V7.37598L97.0625 5.92578C97.0625 5.76758 97.1416 5.68848 97.2998 5.68848L97.0625 4.48438V3.04297C97.0625 2.80859 97.3027 2.56836 97.7832 2.32227ZM99.2246 13.3877C99.7109 14.3135 99.9541 14.876 99.9541 15.0752C99.7139 15.7139 99.4707 16.0332 99.2246 16.0332C98.2637 16.0332 97.7832 15.5527 97.7832 14.5918C97.8828 14.1113 98.3633 13.71 99.2246 13.3877ZM110.25 1.37305H110.725C113.613 2.32227 115.058 3.7666 115.058 5.70605L115.295 7.38477C114.703 9.4707 113.66 10.5137 112.166 10.5137H111.445C108.779 10.5137 107.098 8.75 106.4 5.22266V4.50195C106.4 2.75 107.684 1.70703 110.25 1.37305ZM119.145 2.57715H119.619C120.217 2.57715 120.779 4.74219 121.307 9.07227C121.465 9.07227 121.544 10.3525 121.544 12.9131L120.586 13.3965C119.566 13.3965 118.925 11.7939 118.661 8.58887C118.339 6.65527 118.178 5.13184 118.178 4.01855V3.06055C118.43 3.06055 118.752 2.89941 119.145 2.57715ZM108.809 5.45996C109.646 7.22363 110.607 8.10547 111.691 8.10547C112.488 7.88281 112.887 7.32324 112.887 6.42676C112.354 5.03809 111.633 4.15625 110.725 3.78125H109.529C109.148 3.78125 108.908 4.34082 108.809 5.45996ZM113.616 14.6006H114.091C114.636 14.6006 115.037 16.042 115.295 18.9248H119.382C119.704 18.9775 119.865 19.1387 119.865 19.4082V19.8828C119.865 21.0078 118.983 21.5703 117.22 21.5703C114.173 21.5703 112.649 20.3691 112.649 17.9668L112.412 15.5586L113.616 14.6006ZM122.741 4.73047H122.987C123.345 4.73047 123.664 4.80957 123.945 4.96777C124.109 4.96777 124.191 4.88867 124.191 4.73047L125.387 4.96777H128.999C130.44 4.96777 131.243 6.01074 131.407 8.09668C131.243 12.6143 131.003 15.3389 130.687 16.2705H130.203C129.564 16.2705 129.002 15.8721 128.516 15.0752C128.838 12.9072 128.999 10.5811 128.999 8.09668V7.37598L127.795 7.61328V7.37598C127.637 7.37598 127.558 7.45508 127.558 7.61328C127.388 7.61328 127.147 7.53418 126.837 7.37598C125.735 7.53418 124.854 7.61328 124.191 7.61328V7.37598L123.708 7.61328H122.987L122.504 7.37598C122.504 7.53418 122.425 7.61328 122.267 7.61328L121.783 6.40918C122.006 5.29004 122.325 4.73047 122.741 4.73047ZM136.452 4.96777H137.173C138.14 6.49707 138.623 10.1855 138.623 16.0332L137.902 16.5166H136.936C136.455 16.0947 136.136 13.7686 135.978 9.53809C135.978 9.03418 135.816 7.91211 135.494 6.17188C135.805 5.43945 136.124 5.03809 136.452 4.96777ZM152.276 1.83887C154.679 1.83887 155.88 2.88184 155.88 4.96777V5.21387C155.88 10.0244 154.919 12.4297 152.997 12.4297C152.335 12.4297 151.693 12.5088 151.072 12.667C150.791 12.5088 150.472 12.4297 150.114 12.4297C149.804 12.5879 149.563 12.667 149.394 12.667V12.4297L148.91 12.667H147.943C146.953 12.667 145.992 9.54102 145.061 3.28906C145.061 2.32227 146.663 1.83887 149.868 1.83887H152.276ZM160.213 2.56836H160.696C161.499 2.97852 161.9 3.61719 161.9 4.48438C161.9 4.66016 161.818 4.90332 161.654 5.21387L161.9 6.65527V7.12988H164.3C164.634 7.2002 164.956 7.60156 165.267 8.33398C164.944 8.85547 164.783 9.25684 164.783 9.53809H164.062L162.375 9.78418C162.375 9.62012 162.296 9.53809 162.138 9.53809V11.4629C162.138 13.3848 161.818 14.3457 161.18 14.3457H159.976C159.976 14.0996 159.814 13.7803 159.492 13.3877V7.85938L159.255 6.65527H159.492L159.255 6.17188V4.24707C159.255 3.38574 159.574 2.82617 160.213 2.56836ZM147.706 4.73047C148.509 7.84766 148.91 9.61133 148.91 10.0215H149.868C151.954 10.0215 152.997 9.69922 152.997 9.05469C153.155 8.1875 153.234 7.4668 153.234 6.89258V4.48438H148.91L147.706 4.73047ZM153.48 15.3125H154.201C154.682 15.9805 155.241 17.3428 155.88 19.3994C157.327 19.0771 158.692 18.916 159.976 18.916L160.45 19.6455V20.6035C160.45 21.2129 158.927 21.6934 155.88 22.0449C154.192 22.0449 153.07 20.5215 152.514 17.4746C152.713 16.0332 153.035 15.3125 153.48 15.3125ZM170.076 3.04297H170.56C170.56 3.20703 170.478 3.28906 170.313 3.28906C170.589 3.63477 170.829 4.75684 171.034 6.65527C172.962 6.65527 173.926 7.05664 173.926 7.85938V8.58008C173.926 8.75 173.524 9.06934 172.722 9.53809C173.044 10.0654 173.205 10.5459 173.205 10.9795V12.667C173.006 13.9502 172.525 14.5918 171.764 14.5918V14.8291L172.001 17.2373H172.722L174.409 17.4746V18.916C174.409 19.5605 172.643 19.8828 169.109 19.8828H167.914C167.434 19.7246 167.193 19.2441 167.193 18.4414V18.1953C167.193 17.8262 167.993 17.5068 169.593 17.2373C169.593 15.3096 168.951 14.3457 167.668 14.3457C166.707 13.4141 166.227 12.5322 166.227 11.7002C166.227 11.46 166.388 10.7393 166.71 9.53809C165.978 9.22754 165.576 8.9082 165.506 8.58008V7.37598C166.666 6.89551 167.627 6.65527 168.389 6.65527V4.00977C168.652 3.36523 169.215 3.04297 170.076 3.04297ZM178.733 7.37598H179.217C179.539 8.34277 179.779 9.78418 179.938 11.7002H182.346C183.207 11.7002 183.688 12.1016 183.787 12.9043C183.465 13.4258 183.304 13.8271 183.304 14.1084H179.938V14.3457C179.938 15.0137 180.017 15.8984 180.175 17C180.175 18.1191 179.694 18.6787 178.733 18.6787C177.901 18.6787 177.421 17.1553 177.292 14.1084H177.529L177.292 13.625V11.9463C177.292 11.0615 177.213 9.93945 177.055 8.58008C177.277 7.77734 177.837 7.37598 178.733 7.37598ZM168.872 10.2588V11.7002C168.872 11.9346 169.112 12.1777 169.593 12.4297H170.56L171.034 12.1836C171.034 11.1406 170.554 10.4199 169.593 10.0215C169.282 10.1797 169.042 10.2588 168.872 10.2588Z" fill="#222222"/>
</svg>
