<svg width="157" height="24" viewBox="0 0 157 24" fill="none" xmlns="http://www.w3.org/2000/svg">
<path d="M11.7188 4.03125H12.5156V4.4375C12.7865 8.73958 12.9219 11.1354 12.9219 11.625H14.5156L16.5156 12.0156V12.8125C16.5156 13.3542 16.25 13.625 15.7188 13.625V12.8125H12.9219V15.6094L12.5156 17.6094L11.7188 17.2188C11.3021 17.2188 10.7708 17.75 10.125 18.8125C10.8333 18.8125 12.2969 20.1406 14.5156 22.7969V23.5938C13.0052 22.8021 11.4062 21.6042 9.71875 20L5.73438 23.5938H4.9375V23.2031L10.9219 16.4062H11.7188V12.4219C11.7188 10.8802 11.5885 8.75 11.3281 6.03125C11.5885 5.59375 11.7188 4.92708 11.7188 4.03125ZM1.34375 8.82812C3.35417 8.82812 4.94792 9.49479 6.125 10.8281C4.79167 14.8177 3.72917 16.8125 2.9375 16.8125H2.53125V16.4062C2.53125 15.5312 3.33333 13.8021 4.9375 11.2188C4.9375 10.6875 4.00521 10.2865 2.14062 10.0156H0.9375C1.20833 9.50521 1.34375 9.10938 1.34375 8.82812ZM31.3906 1.67188C32.1302 4.11979 32.6615 6.91146 32.9844 10.0469C32.7135 10.5573 32.5781 10.9583 32.5781 11.25C31.9844 11.25 31.3229 8.1875 30.5938 2.0625L31.3906 1.67188ZM21.8125 2.46875V2.85938L22.6094 2.46875H27.3906V3.26562H24.6094V4.46875C24.6615 7.125 24.9271 8.45312 25.4062 8.45312L27.3906 8.04688C26.599 8.92188 26.2031 9.58854 26.2031 10.0469C21.6823 9.34896 19.4219 8.41667 19.4219 7.25V4.85938L19.8125 4.0625H18.2188V3.65625C18.2188 3.125 19.4167 2.72917 21.8125 2.46875ZM20.2188 6.85938C21.1562 7.82812 22.349 8.35938 23.7969 8.45312V6.0625L23.4062 4.0625C23.6667 4.0625 23.7969 3.92708 23.7969 3.65625H22.6094C21.0156 3.65625 20.2188 4.72396 20.2188 6.85938ZM29.3906 13.2344L32.1875 13.6406C31.6562 14.3073 31.3906 14.9688 31.3906 15.625H30.9844V14.8281H30.5938C28.4583 15.6302 27.3906 16.2969 27.3906 16.8281H27C27.1562 17.8906 28.2188 18.4219 30.1875 18.4219H31.3906V16.0312C31.474 15.5 31.7396 15.2344 32.1875 15.2344L32.5781 18.0312C32.5781 18.4062 32.1823 18.8021 31.3906 19.2188H29.3906C27.4635 19.2188 26.2656 18.5573 25.7969 17.2344V16.8281C25.7969 16.6406 26.9948 15.4427 29.3906 13.2344ZM28.9844 14.0312V14.8281H29.3906V14.0312H28.9844ZM47.0625 0.859375H47.8594V7.25H48.6562C49.2604 7.25 49.7917 7.11979 50.25 6.85938C50.7708 7.11979 51.1719 7.25 51.4531 7.25V8.04688C51.4531 8.43229 51.0521 8.83333 50.25 9.25V8.84375L50.6562 8.04688H50.25C48.3854 8.04688 47.4531 8.84375 47.4531 10.4375C47.4531 11.25 47.3229 12.1823 47.0625 13.2344C46.5312 13.2344 46.2656 12.8385 46.2656 12.0469C46.2656 11.776 46.3958 11.6406 46.6562 11.6406C46.6562 11.3594 46.526 10.9583 46.2656 10.4375C46.526 7.71875 46.6562 5.59375 46.6562 4.0625V2.85938L47.0625 0.859375ZM36.6875 1.26562L38.6719 1.65625L39.4844 1.26562C40.8281 1.79688 41.7552 2.0625 42.2656 2.0625V2.46875C42.2656 3.5 41.4688 4.96354 39.875 6.85938C40.5521 6.85938 41.75 7.78646 43.4688 9.64062V10.0469H43.0625C41.9375 9.57812 40.7448 8.78125 39.4844 7.65625C36.8281 9.78125 35.2292 10.8438 34.6875 10.8438V10.4375C38.9479 6.07292 41.0781 3.54688 41.0781 2.85938L40.2812 2.46875C38.8438 2.72917 37.6458 2.85938 36.6875 2.85938H36.2812V2.46875C36.5521 1.94792 36.6875 1.54688 36.6875 1.26562ZM46.2656 14.4375H47.4531C47.8385 14.4375 48.2396 14.8333 48.6562 15.625V16.0312C48.125 18.6042 47.8594 20.0677 47.8594 20.4219V21.625H47.0625L46.6562 19.625C47.1875 17.2083 47.4531 15.875 47.4531 15.625H45.4688C42.8438 16.1667 41.3802 16.4375 41.0781 16.4375H39.4844C39.4844 15.5417 41.7448 14.875 46.2656 14.4375ZM76.4219 4.0625H77.2188C77.2188 5.45833 77.349 7.71875 77.6094 10.8438H78.0156L78.8125 10.4375V10.8438C78.0104 11.5521 77.6094 14.7448 77.6094 20.4219V20.8281H77.2188C76.6875 20.8281 76.4219 20.5573 76.4219 20.0156V12.0469H76.0156C72.3698 12.5781 70.375 12.8438 70.0312 12.8438V12.4375C70.0312 11.6458 72.1615 11.1146 76.4219 10.8438V10.4375C76.151 8.08333 76.0156 6.61979 76.0156 6.04688L76.4219 4.0625ZM66.0469 6.45312C67.901 6.80729 68.8281 7.20833 68.8281 7.65625V8.04688C68.8281 9.59896 67.901 10.9323 66.0469 12.0469V13.2344C66.8073 13.2344 68 14.4323 69.625 16.8281V17.2344H68.8281C66.7031 15.5156 65.6406 14.3177 65.6406 13.6406H64.4375C64.4375 14.1719 63.5104 15.1042 61.6562 16.4375H61.25V16.0312L67.6406 8.45312V8.04688C67.0365 8.04688 66.5052 7.91667 66.0469 7.65625C64.599 7.91667 63.401 8.04688 62.4531 8.04688V7.65625C62.4531 7.17708 63.651 6.77604 66.0469 6.45312ZM94.0625 1.26562C94.3333 5.52604 94.6042 7.78646 94.875 8.04688C94.875 8.31771 94.7396 8.45312 94.4688 8.45312L94.875 11.2344V14.4375H93.6719V14.0312C93.6719 11.3854 93.4062 7.39583 92.875 2.0625L94.0625 1.26562ZM86.4844 3.65625C88.0781 3.92708 88.875 4.32812 88.875 4.85938V5.25C88.875 6.21875 88.3438 7.28646 87.2812 8.45312V8.84375C89.3229 9.90625 90.5208 10.4375 90.875 10.4375V11.2344H90.4844C89.349 11.2344 88.0156 10.5729 86.4844 9.25C83.8073 11.375 81.9479 12.4375 80.9062 12.4375H80.5C85.2917 9.10417 87.6875 6.57812 87.6875 4.85938H82.5V4.0625L86.4844 3.65625ZM96.0625 7.25H97.2656L99.2656 7.65625V8.84375L97.2656 8.45312H95.2656V8.04688C95.349 7.51562 95.6146 7.25 96.0625 7.25ZM90.0781 16.4375H92.0781C92.8073 16.4375 93.3385 17.7656 93.6719 20.4219V20.8281C93.6719 21.0781 92.875 21.6094 91.2812 22.4219C88.6146 22.224 87.2812 21.2917 87.2812 19.625C87.75 18.4271 88.6823 17.3646 90.0781 16.4375ZM88.4844 19.625C88.8802 20.6875 89.2812 21.2188 89.6875 21.2188H90.4844C91.8594 21.2188 92.6562 20.8177 92.875 20.0156C92.3333 18.4219 91.8021 17.625 91.2812 17.625H90.4844C90.1198 17.625 89.4531 18.2917 88.4844 19.625ZM108.156 1.26562H108.547C108.286 2.41146 108.156 3.34375 108.156 4.0625C110.281 4.21875 111.344 4.61458 111.344 5.25V5.65625C110.552 5.65625 108.958 5.25521 106.562 4.45312C106.562 5.09896 105.365 5.5 102.969 5.65625V4.85938C104.542 4.85938 106.271 3.66146 108.156 1.26562ZM107.359 7.64062H108.156V10.0469C108.156 12.2031 107.755 13.9323 106.953 15.2344H112.547C113.078 15.3177 113.344 15.5833 113.344 16.0312V16.4219H109.344L106.953 16.8281L106.156 16.4219C105.646 16.6927 105.245 16.8281 104.953 16.8281C102.297 16.3594 100.969 15.8281 100.969 15.2344V14.4375C102.698 14.9688 103.896 15.2344 104.562 15.2344H105.766C106.391 14.1302 106.922 11.599 107.359 7.64062ZM133.094 1.67188H133.891C134.422 4.88021 134.688 7.40625 134.688 9.25H137.484V10.0469C135.359 10.0469 134.297 10.8438 134.297 12.4375L133.891 14.4375H133.094L133.5 10.4375H132.703V9.64062H133.5C133.229 5.69271 133.094 3.03646 133.094 1.67188ZM124.328 3.65625V4.0625C124.328 4.59375 124.062 4.85938 123.531 4.85938C124.323 7.74479 124.719 9.47396 124.719 10.0469H125.516C127.38 10.0469 128.312 8.45312 128.312 5.26562L125.516 5.65625H124.328V4.85938L126.312 4.46875H129.109L129.516 6.0625C129.516 9.52083 128.182 11.25 125.516 11.25H123.922C123.391 9.41667 123.125 7.15625 123.125 4.46875L124.328 3.65625ZM128.312 14.0312C128.312 16.9583 129.776 18.4219 132.703 18.4219H133.094L135.094 18.0312V18.8281L132.297 19.625C129.109 19.2604 127.516 17.9271 127.516 15.625V14.8281C127.599 14.2969 127.865 14.0312 128.312 14.0312ZM141.578 2.03125C142.651 3.89583 143.719 4.82812 144.781 4.82812C146.375 4.82812 147.172 5.09375 147.172 5.625L139.984 6.42188H139.188V5.625C140.656 5.35417 141.724 5.21875 142.391 5.21875C141.849 4.34375 141.578 3.54688 141.578 2.82812V2.03125ZM151.172 4.82812H151.578V13.2188L151.172 14.0156C151.443 14.0156 151.578 14.1458 151.578 14.4062C152.547 13.875 153.609 13.6094 154.766 13.6094H156.375V14.4062C152.906 14.875 151.172 15.276 151.172 15.6094C150.911 17.974 150.781 19.4375 150.781 20H150.375L149.578 19.6094C150.109 15.974 150.375 11.1771 150.375 5.21875L151.172 4.82812ZM142.391 7.625H143.188C145.25 7.625 146.578 8.29167 147.172 9.625V10.4219C146.495 11.7552 145.432 12.4219 143.984 12.4219H143.578C142.203 12.4219 141.406 12.0208 141.188 11.2188V8.8125C141.188 8.4375 141.589 8.04167 142.391 7.625ZM141.984 9.21875V10.4219C142.068 10.9531 142.333 11.2188 142.781 11.2188H143.984L145.984 10.8125C145.984 9.66667 145.448 8.86979 144.375 8.42188V8.01562C142.781 8.36979 141.984 8.77083 141.984 9.21875ZM145.188 14.4062H145.578V14.8125L145.188 16.8125L145.984 17.2031H146.375L149.172 16.8125V17.2031C149.172 18.1198 146.245 18.6562 140.391 18.8125H139.984C139.984 18.1458 141.448 17.6094 144.375 17.2031V16.8125C144.115 16.3438 143.984 15.8125 143.984 15.2188L145.188 14.4062Z" fill="#222222"/>
<path d="M11.7188 4.03125V3.78125H11.4688V4.03125H11.7188ZM12.5156 4.03125H12.7656V3.78125H12.5156V4.03125ZM12.5156 4.4375H12.2656V4.44536L12.2661 4.45321L12.5156 4.4375ZM12.9219 11.625H12.6719V11.875H12.9219V11.625ZM14.5156 11.625L14.5635 11.3796L14.5398 11.375H14.5156V11.625ZM16.5156 12.0156H16.7656V11.8097L16.5635 11.7703L16.5156 12.0156ZM15.7188 13.625H15.4688V13.875H15.7188V13.625ZM15.7188 12.8125H15.9688V12.5625H15.7188V12.8125ZM12.9219 12.8125V12.5625H12.6719V12.8125H12.9219ZM12.9219 15.6094L13.1669 15.6591L13.1719 15.6345V15.6094H12.9219ZM12.5156 17.6094L12.4056 17.8339L12.6962 17.9763L12.7606 17.6591L12.5156 17.6094ZM11.7188 17.2188L11.8288 16.9943L11.7767 16.9688H11.7188V17.2188ZM10.125 18.8125L9.91137 18.6826L9.68048 19.0625H10.125V18.8125ZM14.5156 22.7969H14.7656V22.7062L14.7075 22.6366L14.5156 22.7969ZM14.5156 23.5938L14.3996 23.8152L14.7656 24.007V23.5938H14.5156ZM9.71875 20L9.891 19.8188L9.72321 19.6593L9.55131 19.8144L9.71875 20ZM5.73438 23.5938V23.8438H5.83046L5.90182 23.7794L5.73438 23.5938ZM4.9375 23.5938H4.6875V23.8438H4.9375V23.5938ZM4.9375 23.2031L4.74986 23.0379L4.6875 23.1088V23.2031H4.9375ZM10.9219 16.4062V16.1562H10.8089L10.7342 16.241L10.9219 16.4062ZM11.7188 16.4062V16.6562H11.9688V16.4062H11.7188ZM11.3281 6.03125L11.1133 5.90338L11.0715 5.97366L11.0793 6.05509L11.3281 6.03125ZM1.34375 8.82812V8.57812H1.09375V8.82812H1.34375ZM6.125 10.8281L6.36211 10.9074L6.40778 10.7707L6.31242 10.6627L6.125 10.8281ZM2.53125 16.8125H2.28125V17.0625H2.53125V16.8125ZM4.9375 11.2188L5.14988 11.3506L5.1875 11.2901V11.2188H4.9375ZM2.14062 10.0156L2.17656 9.76822L2.15869 9.76562H2.14062V10.0156ZM0.9375 10.0156L0.716663 9.89845L0.521833 10.2656H0.9375V10.0156ZM11.7188 4.28125H12.5156V3.78125H11.7188V4.28125ZM12.2656 4.03125V4.4375H12.7656V4.03125H12.2656ZM12.2661 4.45321C12.5374 8.7617 12.6719 11.1457 12.6719 11.625H13.1719C13.1719 11.1252 13.0356 8.71746 12.7651 4.42179L12.2661 4.45321ZM12.9219 11.875H14.5156V11.375H12.9219V11.875ZM14.4677 11.8704L16.4677 12.261L16.5635 11.7703L14.5635 11.3796L14.4677 11.8704ZM16.2656 12.0156V12.8125H16.7656V12.0156H16.2656ZM16.2656 12.8125C16.2656 13.046 16.2084 13.175 16.1379 13.2468C16.0683 13.3178 15.9446 13.375 15.7188 13.375V13.875C16.0242 13.875 16.2988 13.7968 16.4949 13.5969C16.6901 13.3979 16.7656 13.1207 16.7656 12.8125H16.2656ZM15.9688 13.625V12.8125H15.4688V13.625H15.9688ZM15.7188 12.5625H12.9219V13.0625H15.7188V12.5625ZM12.6719 12.8125V15.6094H13.1719V12.8125H12.6719ZM12.6769 15.5596L12.2706 17.5596L12.7606 17.6591L13.1669 15.6591L12.6769 15.5596ZM12.6257 17.3849L11.8288 16.9943L11.6087 17.4432L12.4056 17.8339L12.6257 17.3849ZM11.7188 16.9688C11.4077 16.9688 11.1092 17.1623 10.831 17.4404C10.5451 17.7263 10.2388 18.1439 9.91137 18.6826L10.3386 18.9424C10.657 18.4186 10.9392 18.0393 11.1846 17.794C11.4377 17.5409 11.6132 17.4688 11.7188 17.4688V16.9688ZM10.125 19.0625C10.2323 19.0625 10.4082 19.1163 10.6674 19.2748C10.9203 19.4295 11.226 19.6671 11.5859 19.9937C12.3051 20.6464 13.2172 21.6323 14.3238 22.9571L14.7075 22.6366C13.5953 21.3052 12.6662 20.2989 11.9219 19.6235C11.55 19.286 11.2183 19.0256 10.9283 18.8482C10.6445 18.6747 10.3719 18.5625 10.125 18.5625V19.0625ZM14.2656 22.7969V23.5938H14.7656V22.7969H14.2656ZM14.6317 23.3723C13.1477 22.5945 11.5674 21.4124 9.891 19.8188L9.5465 20.1812C11.2451 21.7959 12.8627 23.0097 14.3996 23.8152L14.6317 23.3723ZM9.55131 19.8144L5.56693 23.4081L5.90182 23.7794L9.88619 20.1856L9.55131 19.8144ZM5.73438 23.3438H4.9375V23.8438H5.73438V23.3438ZM5.1875 23.5938V23.2031H4.6875V23.5938H5.1875ZM5.12514 23.3683L11.1095 16.5715L10.7342 16.241L4.74986 23.0379L5.12514 23.3683ZM10.9219 16.6562H11.7188V16.1562H10.9219V16.6562ZM11.9688 16.4062V12.4219H11.4688V16.4062H11.9688ZM11.9688 12.4219C11.9688 10.8684 11.8377 8.72905 11.577 6.00741L11.0793 6.05509C11.3394 8.77095 11.4688 10.892 11.4688 12.4219H11.9688ZM11.5429 6.15912C11.8379 5.66359 11.9688 4.94241 11.9688 4.03125H11.4688C11.4688 4.91176 11.3392 5.52391 11.1133 5.90338L11.5429 6.15912ZM1.34375 9.07812C3.29286 9.07812 4.81443 9.72133 5.93758 10.9936L6.31242 10.6627C5.0814 9.26825 3.41547 8.57812 1.34375 8.57812V9.07812ZM5.88789 10.7489C5.22257 12.7397 4.62882 14.2201 4.10747 15.1989C3.84628 15.6893 3.60946 16.0418 3.39892 16.2683C3.18233 16.5013 3.02977 16.5625 2.9375 16.5625V17.0625C3.24106 17.0625 3.51819 16.8744 3.76514 16.6087C4.01814 16.3365 4.27872 15.941 4.54878 15.4339C5.08993 14.4179 5.6941 12.9062 6.36211 10.9074L5.88789 10.7489ZM2.9375 16.5625H2.53125V17.0625H2.9375V16.5625ZM2.78125 16.8125V16.4062H2.28125V16.8125H2.78125ZM2.78125 16.4062C2.78125 16.0278 2.95997 15.4199 3.3596 14.5583C3.75465 13.7067 4.3504 12.6381 5.14988 11.3506L4.72512 11.0869C3.92043 12.3827 3.31306 13.4704 2.90602 14.3479C2.50357 15.2156 2.28125 15.9097 2.28125 16.4062H2.78125ZM5.1875 11.2188C5.1875 10.7852 4.80957 10.4931 4.33707 10.2899C3.84048 10.0763 3.11539 9.90459 2.17656 9.76822L2.10469 10.263C3.03045 10.3975 3.7038 10.5618 4.13949 10.7492C4.59929 10.947 4.6875 11.1211 4.6875 11.2188H5.1875ZM2.14062 9.76562H0.9375V10.2656H2.14062V9.76562ZM1.15834 10.1328C1.43216 9.61675 1.59375 9.17457 1.59375 8.82812H1.09375C1.09375 9.04418 0.984503 9.39367 0.716663 9.89845L1.15834 10.1328ZM31.3906 1.67188L31.6299 1.59957L31.5448 1.31786L31.2806 1.44739L31.3906 1.67188ZM32.9844 10.0469L33.2052 10.1641L33.2408 10.0969L33.2331 10.0213L32.9844 10.0469ZM32.5781 11.25V11.5H32.8281V11.25H32.5781ZM30.5938 2.0625L30.4837 1.83802L30.3245 1.91604L30.3455 2.09205L30.5938 2.0625ZM21.8125 2.46875H22.0625V2.1901L21.7855 2.22021L21.8125 2.46875ZM21.8125 2.85938H21.5625V3.26034L21.9225 3.08386L21.8125 2.85938ZM22.6094 2.46875V2.21875H22.5514L22.4993 2.24427L22.6094 2.46875ZM27.3906 2.46875H27.6406V2.21875H27.3906V2.46875ZM27.3906 3.26562V3.51562H27.6406V3.26562H27.3906ZM24.6094 3.26562V3.01562H24.3594V3.26562H24.6094ZM24.6094 4.46875H24.3593L24.3594 4.47365L24.6094 4.46875ZM25.4062 8.45312V8.70312H25.4316L25.4564 8.69804L25.4062 8.45312ZM27.3906 8.04688L27.576 8.2146L28.0878 7.64897L27.3405 7.80196L27.3906 8.04688ZM26.2031 10.0469L26.165 10.2939L26.4531 10.3384V10.0469H26.2031ZM19.4219 4.85938L19.1974 4.74934L19.1719 4.8014V4.85938H19.4219ZM19.8125 4.0625L20.037 4.17254L20.2135 3.8125H19.8125V4.0625ZM18.2188 4.0625H17.9688V4.3125H18.2188V4.0625ZM20.2188 6.85938H19.9688V6.96054L20.0391 7.03323L20.2188 6.85938ZM23.7969 8.45312L23.7807 8.7026L24.0469 8.71984V8.45312H23.7969ZM23.7969 6.0625H24.0469V6.03831L24.0422 6.01458L23.7969 6.0625ZM23.4062 4.0625V3.8125H23.1027L23.1609 4.11042L23.4062 4.0625ZM23.7969 3.65625H24.0469V3.40625H23.7969V3.65625ZM29.3906 13.2344L29.4266 12.987L29.3087 12.9699L29.2212 13.0506L29.3906 13.2344ZM32.1875 13.6406L32.383 13.7964L32.6544 13.4558L32.2234 13.3932L32.1875 13.6406ZM31.3906 15.625V15.875H31.6406V15.625H31.3906ZM30.9844 15.625H30.7344V15.875H30.9844V15.625ZM30.9844 14.8281H31.2344V14.5781H30.9844V14.8281ZM30.5938 14.8281V14.5781H30.5483L30.5058 14.5941L30.5938 14.8281ZM27.3906 16.8281V17.0781H27.6406V16.8281H27.3906ZM27 16.8281V16.5781H26.7105L26.7527 16.8645L27 16.8281ZM31.3906 18.4219V18.6719H31.6406V18.4219H31.3906ZM31.3906 16.0312L31.1436 15.9925L31.1406 16.0118V16.0312H31.3906ZM32.1875 15.2344L32.4351 15.1998L32.405 14.9844H32.1875V15.2344ZM32.5781 18.0312H32.8281V18.0139L32.8257 17.9967L32.5781 18.0312ZM31.3906 19.2188V19.4688H31.4524L31.5071 19.44L31.3906 19.2188ZM25.7969 17.2344H25.5469V17.2774L25.5612 17.3179L25.7969 17.2344ZM28.9844 14.0312V13.7812H28.7344V14.0312H28.9844ZM28.9844 14.8281H28.7344V15.0781H28.9844V14.8281ZM29.3906 14.8281V15.0781H29.6406V14.8281H29.3906ZM29.3906 14.0312H29.6406V13.7812H29.3906V14.0312ZM31.1513 1.74418C31.8854 4.17384 32.414 6.9494 32.7357 10.0725L33.2331 10.0213C32.9089 6.87351 32.375 4.06575 31.6299 1.59957L31.1513 1.74418ZM32.7635 9.9297C32.4889 10.4474 32.3281 10.894 32.3281 11.25H32.8281C32.8281 11.0226 32.9382 10.6672 33.2052 10.1641L32.7635 9.9297ZM32.5781 11C32.618 11 32.607 11.0248 32.5477 10.9506C32.4929 10.8818 32.4262 10.7633 32.3514 10.581C32.203 10.2189 32.0456 9.6619 31.8811 8.90035C31.5529 7.38097 31.2064 5.09358 30.842 2.03295L30.3455 2.09205C30.7103 5.15642 31.0591 7.46278 31.3924 9.0059C31.5586 9.7756 31.7234 10.367 31.8888 10.7706C31.971 10.9711 32.059 11.1397 32.1569 11.2623C32.2503 11.3795 32.3898 11.5 32.5781 11.5V11ZM30.7038 2.28698L31.5007 1.89636L31.2806 1.44739L30.4837 1.83802L30.7038 2.28698ZM21.5625 2.46875V2.85938H22.0625V2.46875H21.5625ZM21.9225 3.08386L22.7194 2.69323L22.4993 2.24427L21.7025 2.63489L21.9225 3.08386ZM22.6094 2.71875H27.3906V2.21875H22.6094V2.71875ZM27.1406 2.46875V3.26562H27.6406V2.46875H27.1406ZM27.3906 3.01562H24.6094V3.51562H27.3906V3.01562ZM24.3594 3.26562V4.46875H24.8594V3.26562H24.3594ZM24.3594 4.47365C24.3855 5.80535 24.4652 6.81951 24.6025 7.50606C24.6707 7.84707 24.7567 8.12631 24.8689 8.32638C24.9784 8.52174 25.1508 8.70312 25.4062 8.70312V8.20312C25.4059 8.20312 25.4059 8.20318 25.405 8.20286C25.4038 8.20242 25.3989 8.20042 25.3903 8.19373C25.3717 8.1792 25.3414 8.14687 25.305 8.08182C25.231 7.94986 25.1574 7.73106 25.0928 7.408C24.9645 6.76643 24.8853 5.7884 24.8593 4.46385L24.3594 4.47365ZM25.4564 8.69804L27.4408 8.29179L27.3405 7.80196L25.3561 8.20821L25.4564 8.69804ZM27.2052 7.87915C26.8034 8.32331 26.4946 8.72249 26.285 9.07549C26.0782 9.42385 25.9531 9.75159 25.9531 10.0469H26.4531C26.4531 9.88383 26.526 9.64906 26.715 9.33076C26.9012 9.01709 27.1862 8.64544 27.576 8.2146L27.2052 7.87915ZM26.2413 9.7998C23.9866 9.45174 22.3148 9.04774 21.2125 8.5931C20.6608 8.36554 20.2675 8.13157 20.0158 7.89786C19.767 7.66682 19.6719 7.45172 19.6719 7.25H19.1719C19.1719 7.63161 19.3593 7.97055 19.6756 8.26425C19.989 8.55528 20.4434 8.81675 21.0219 9.05533C22.18 9.53299 23.8988 9.9441 26.165 10.2939L26.2413 9.7998ZM19.6719 7.25V4.85938H19.1719V7.25H19.6719ZM19.6464 4.96941L20.037 4.17254L19.588 3.95246L19.1974 4.74934L19.6464 4.96941ZM19.8125 3.8125H18.2188V4.3125H19.8125V3.8125ZM18.4688 4.0625V3.65625H17.9688V4.0625H18.4688ZM18.4688 3.65625C18.4688 3.62985 18.4804 3.57065 18.5964 3.48091C18.7137 3.39013 18.9076 3.29348 19.1956 3.19831C19.769 3.00885 20.6463 2.84698 21.8395 2.71729L21.7855 2.22021C20.5828 2.35094 19.6633 2.51719 19.0387 2.72356C18.7278 2.82631 18.4725 2.94451 18.2903 3.0855C18.1068 3.22753 17.9688 3.41702 17.9688 3.65625H18.4688ZM20.0391 7.03323C21.0233 8.05021 22.276 8.60517 23.7807 8.7026L23.813 8.20365C22.422 8.11358 21.2892 7.60604 20.3984 6.68552L20.0391 7.03323ZM24.0469 8.45312V6.0625H23.5469V8.45312H24.0469ZM24.0422 6.01458L23.6516 4.01458L23.1609 4.11042L23.5515 6.11042L24.0422 6.01458ZM23.4062 4.3125C23.5775 4.3125 23.7513 4.26744 23.8794 4.13421C24.0058 4.00281 24.0469 3.8278 24.0469 3.65625H23.5469C23.5469 3.75553 23.5229 3.78365 23.519 3.78766C23.5169 3.78985 23.4954 3.8125 23.4062 3.8125V4.3125ZM23.7969 3.40625H22.6094V3.90625H23.7969V3.40625ZM22.6094 3.40625C21.751 3.40625 21.0712 3.69764 20.6161 4.3075C20.1711 4.90363 19.9688 5.76782 19.9688 6.85938H20.4688C20.4688 5.81552 20.6648 5.07814 21.0168 4.60656C21.3585 4.14871 21.874 3.90625 22.6094 3.90625V3.40625ZM29.3547 13.4818L32.1516 13.888L32.2234 13.3932L29.4266 12.987L29.3547 13.4818ZM31.992 13.4848C31.4361 14.1824 31.1406 14.8971 31.1406 15.625H31.6406C31.6406 15.0404 31.8764 14.4322 32.383 13.7964L31.992 13.4848ZM31.3906 15.375H30.9844V15.875H31.3906V15.375ZM31.2344 15.625V14.8281H30.7344V15.625H31.2344ZM30.9844 14.5781H30.5938V15.0781H30.9844V14.5781ZM30.5058 14.5941C29.4329 14.9971 28.6139 15.3711 28.059 15.7176C27.782 15.8906 27.5598 16.0634 27.4042 16.238C27.2501 16.4108 27.1406 16.6092 27.1406 16.8281H27.6406C27.6406 16.7814 27.6646 16.6972 27.7774 16.5706C27.8888 16.4457 28.067 16.3021 28.3238 16.1417C28.8366 15.8216 29.6191 15.4613 30.6817 15.0622L30.5058 14.5941ZM27.3906 16.5781H27V17.0781H27.3906V16.5781ZM26.7527 16.8645C26.8441 17.4861 27.207 17.9494 27.8023 18.247C28.3839 18.5379 29.1867 18.6719 30.1875 18.6719V18.1719C29.2195 18.1719 28.5068 18.0403 28.0259 17.7998C27.5586 17.5662 27.3122 17.2327 27.2473 16.7918L26.7527 16.8645ZM30.1875 18.6719H31.3906V18.1719H30.1875V18.6719ZM31.6406 18.4219V16.0312H31.1406V18.4219H31.6406ZM31.6376 16.07C31.6745 15.8349 31.7468 15.6927 31.8291 15.6104C31.9062 15.5333 32.0162 15.4844 32.1875 15.4844V14.9844C31.9109 14.9844 31.6641 15.0683 31.4756 15.2568C31.2923 15.4401 31.1901 15.6964 31.1436 15.9925L31.6376 16.07ZM31.9399 15.269L32.3305 18.0658L32.8257 17.9967L32.4351 15.1998L31.9399 15.269ZM32.3281 18.0312C32.3281 18.1259 32.2784 18.2587 32.1045 18.4326C31.9317 18.6054 31.6594 18.7948 31.2742 18.9975L31.5071 19.44C31.9135 19.2261 32.235 19.0092 32.458 18.7862C32.68 18.5642 32.8281 18.3116 32.8281 18.0312H32.3281ZM31.3906 18.9688H29.3906V19.4688H31.3906V18.9688ZM29.3906 18.9688C28.4531 18.9688 27.7176 18.8075 27.1677 18.5038C26.6238 18.2035 26.247 17.7563 26.0325 17.1509L25.5612 17.3179C25.8155 18.0353 26.272 18.5804 26.926 18.9415C27.574 19.2993 28.4011 19.4688 29.3906 19.4688V18.9688ZM26.0469 17.2344V16.8281H25.5469V17.2344H26.0469ZM26.0469 16.8281C26.0469 16.8733 26.0318 16.8988 26.0365 16.8888C26.0384 16.885 26.0448 16.873 26.0597 16.8511C26.0892 16.8077 26.1382 16.7452 26.2106 16.6616C26.3544 16.4953 26.5739 16.264 26.8721 15.9658C27.4674 15.3706 28.3628 14.5217 29.5601 13.4182L29.2212 13.0506C28.0226 14.1553 27.1212 15.0097 26.5185 15.6123C26.2177 15.9131 25.9881 16.1545 25.8324 16.3345C25.755 16.424 25.6917 16.5032 25.6463 16.5698C25.6238 16.6029 25.6022 16.6381 25.5853 16.6735C25.5713 16.7027 25.5469 16.7595 25.5469 16.8281H26.0469ZM28.7344 14.0312V14.8281H29.2344V14.0312H28.7344ZM28.9844 15.0781H29.3906V14.5781H28.9844V15.0781ZM29.6406 14.8281V14.0312H29.1406V14.8281H29.6406ZM29.3906 13.7812H28.9844V14.2812H29.3906V13.7812ZM47.0625 0.859375V0.609375H46.8582L46.8175 0.80961L47.0625 0.859375ZM47.8594 0.859375H48.1094V0.609375H47.8594V0.859375ZM47.8594 7.25H47.6094V7.5H47.8594V7.25ZM50.25 6.85938L50.3618 6.63577L50.2425 6.57611L50.1265 6.64201L50.25 6.85938ZM51.4531 7.25H51.7031V7H51.4531V7.25ZM50.25 9.25H50V9.66159L50.3652 9.47185L50.25 9.25ZM50.25 8.84375L50.0273 8.7302L50 8.7837V8.84375H50.25ZM50.6562 8.04688L50.879 8.16042L51.0643 7.79688H50.6562V8.04688ZM47.0625 13.2344V13.4844H47.2582L47.3052 13.2944L47.0625 13.2344ZM46.6562 11.6406V11.8906H46.9062V11.6406H46.6562ZM46.2656 10.4375L46.0168 10.4137L46.0099 10.4851L46.042 10.5493L46.2656 10.4375ZM46.6562 2.85938L46.4113 2.80961L46.4062 2.83424V2.85938H46.6562ZM36.6875 1.26562L36.7358 1.02033L36.4375 0.961615V1.26562H36.6875ZM38.6719 1.65625L38.6236 1.90154L38.7052 1.91761L38.7802 1.88156L38.6719 1.65625ZM39.4844 1.26562L39.5763 1.03313L39.4746 0.992932L39.3761 1.04031L39.4844 1.26562ZM42.2656 2.0625H42.5156V1.8125H42.2656V2.0625ZM39.875 6.85938L39.6836 6.6985L39.3382 7.10938H39.875V6.85938ZM43.4688 9.64062H43.7188V9.54258L43.6521 9.47067L43.4688 9.64062ZM43.4688 10.0469V10.2969H43.7188V10.0469H43.4688ZM43.0625 10.0469L42.9663 10.2776L43.0125 10.2969H43.0625V10.0469ZM39.4844 7.65625L39.6508 7.46974L39.4932 7.32903L39.3282 7.46103L39.4844 7.65625ZM34.6875 10.8438H34.4375V11.0938H34.6875V10.8438ZM34.6875 10.4375L34.5086 10.2629L34.4375 10.3357V10.4375H34.6875ZM41.0781 2.85938H41.3281V2.7035L41.1882 2.63489L41.0781 2.85938ZM40.2812 2.46875L40.3913 2.24427L40.3175 2.20811L40.2367 2.22275L40.2812 2.46875ZM36.2812 2.85938H36.0312V3.10938H36.2812V2.85938ZM36.2812 2.46875L36.0594 2.35341L36.0312 2.40763V2.46875H36.2812ZM46.2656 14.4375V14.1875H46.2536L46.2415 14.1887L46.2656 14.4375ZM48.6562 15.625H48.9062V15.5632L48.8775 15.5086L48.6562 15.625ZM48.6562 16.0312L48.9011 16.0818L48.9062 16.0568V16.0312H48.6562ZM47.8594 21.625V21.875H48.1094V21.625H47.8594ZM47.0625 21.625L46.8175 21.6748L46.8582 21.875H47.0625V21.625ZM46.6562 19.625L46.4121 19.5713L46.4007 19.623L46.4113 19.6748L46.6562 19.625ZM47.4531 15.625H47.7031V15.375H47.4531V15.625ZM45.4688 15.625V15.375H45.4432L45.4182 15.3802L45.4688 15.625ZM39.4844 16.4375H39.2344V16.6875H39.4844V16.4375ZM47.0625 1.10938H47.8594V0.609375H47.0625V1.10938ZM47.6094 0.859375V7.25H48.1094V0.859375H47.6094ZM47.8594 7.5H48.6562V7H47.8594V7.5ZM48.6562 7.5C49.2973 7.5 49.8723 7.36151 50.3735 7.07674L50.1265 6.64201C49.711 6.87808 49.2235 7 48.6562 7V7.5ZM50.1382 7.08298C50.6642 7.34601 51.1099 7.5 51.4531 7.5V7C51.2339 7 50.8774 6.89358 50.3618 6.63577L50.1382 7.08298ZM51.2031 7.25V8.04688H51.7031V7.25H51.2031ZM51.2031 8.04688C51.2031 8.14756 51.1512 8.28429 50.9756 8.45994C50.8006 8.63492 50.5249 8.82549 50.1348 9.02815L50.3652 9.47185C50.7772 9.25785 51.1031 9.03956 51.3291 8.8135C51.5545 8.5881 51.7031 8.3316 51.7031 8.04688H51.2031ZM50.5 9.25V8.84375H50V9.25H50.5ZM50.4727 8.9573L50.879 8.16042L50.4335 7.93333L50.0273 8.7302L50.4727 8.9573ZM50.6562 7.79688H50.25V8.29688H50.6562V7.79688ZM50.25 7.79688C49.2879 7.79688 48.5197 8.00162 47.9899 8.45449C47.4526 8.91378 47.2031 9.59094 47.2031 10.4375H47.7031C47.7031 9.69031 47.9198 9.17215 48.3148 8.83457C48.7172 8.49057 49.3475 8.29688 50.25 8.29688V7.79688ZM47.2031 10.4375C47.2031 11.2243 47.0769 12.1358 46.8198 13.1743L47.3052 13.2944C47.569 12.2288 47.7031 11.2757 47.7031 10.4375H47.2031ZM47.0625 12.9844C46.869 12.9844 46.7529 12.9181 46.6724 12.7982C46.5801 12.6606 46.5156 12.4226 46.5156 12.0469H46.0156C46.0156 12.4628 46.084 12.8186 46.2573 13.0768C46.4424 13.3527 46.7247 13.4844 47.0625 13.4844V12.9844ZM46.5156 12.0469C46.5156 11.9476 46.5396 11.9195 46.5435 11.9155C46.5456 11.9133 46.5671 11.8906 46.6562 11.8906V11.3906C46.485 11.3906 46.3112 11.4357 46.1831 11.5689C46.0567 11.7003 46.0156 11.8753 46.0156 12.0469H46.5156ZM46.9062 11.6406C46.9062 11.2974 46.7523 10.8517 46.4892 10.3257L46.042 10.5493C46.2998 11.0649 46.4062 11.4214 46.4062 11.6406H46.9062ZM46.5145 10.4613C46.7752 7.73976 46.9062 5.60557 46.9062 4.0625H46.4062C46.4062 5.58193 46.2769 7.69774 46.0168 10.4137L46.5145 10.4613ZM46.9062 4.0625V2.85938H46.4062V4.0625H46.9062ZM46.9012 2.90914L47.3075 0.90914L46.8175 0.80961L46.4113 2.80961L46.9012 2.90914ZM36.6392 1.51092L38.6236 1.90154L38.7202 1.41096L36.7358 1.02033L36.6392 1.51092ZM38.7802 1.88156L39.5927 1.49094L39.3761 1.04031L38.5636 1.43094L38.7802 1.88156ZM39.3925 1.49812C40.0686 1.76541 40.6445 1.96776 41.1186 2.10361C41.5884 2.23822 41.9748 2.3125 42.2656 2.3125V1.8125C42.046 1.8125 41.7136 1.75397 41.2564 1.62295C40.8034 1.49318 40.2439 1.29709 39.5763 1.03313L39.3925 1.49812ZM42.0156 2.0625V2.46875H42.5156V2.0625H42.0156ZM42.0156 2.46875C42.0156 2.92445 41.8379 3.505 41.4484 4.22029C41.0608 4.93216 40.4744 5.75785 39.6836 6.6985L40.0664 7.02025C40.8693 6.06507 41.4783 5.21107 41.8875 4.45939C42.2949 3.71114 42.5156 3.0443 42.5156 2.46875H42.0156ZM39.875 7.10938C39.9906 7.10938 40.1528 7.15007 40.3697 7.25731C40.5841 7.36335 40.8366 7.5267 41.1282 7.7524C41.7116 8.20383 42.4301 8.88786 43.2854 9.81058L43.6521 9.47067C42.7887 8.53923 42.0489 7.83263 41.4343 7.35698C41.1269 7.11913 40.8456 6.93483 40.5913 6.8091C40.3394 6.68457 40.098 6.60938 39.875 6.60938V7.10938ZM43.2188 9.64062V10.0469H43.7188V9.64062H43.2188ZM43.4688 9.79688H43.0625V10.2969H43.4688V9.79688ZM43.1587 9.81611C42.0672 9.36134 40.8979 8.5828 39.6508 7.46974L39.3179 7.84276C40.5917 8.9797 41.8078 9.79491 42.9663 10.2776L43.1587 9.81611ZM39.3282 7.46103C38.0022 8.52186 36.945 9.31343 36.1546 9.83865C35.759 10.1015 35.4352 10.2944 35.1808 10.4206C34.9158 10.5522 34.7599 10.5938 34.6875 10.5938V11.0938C34.8859 11.0938 35.133 11.0025 35.4031 10.8685C35.684 10.7291 36.0274 10.5235 36.4313 10.2551C37.2399 9.71782 38.3103 8.91564 39.6405 7.85147L39.3282 7.46103ZM34.9375 10.8438V10.4375H34.4375V10.8438H34.9375ZM34.8664 10.6121C36.9979 8.42846 38.6006 6.7007 39.6716 5.4307C40.2066 4.79623 40.6131 4.27122 40.8871 3.85786C41.024 3.65136 41.1312 3.46769 41.205 3.30864C41.2762 3.15542 41.3281 3.00063 41.3281 2.85938H40.8281C40.8281 2.88999 40.8135 2.96454 40.7515 3.0981C40.6922 3.22583 40.5997 3.3864 40.4703 3.5816C40.2118 3.97162 39.8194 4.47981 39.2894 5.10836C38.2301 6.3644 36.6375 8.08195 34.5086 10.2629L34.8664 10.6121ZM41.1882 2.63489L40.3913 2.24427L40.1712 2.69323L40.9681 3.08386L41.1882 2.63489ZM40.2367 2.22275C38.8071 2.48174 37.6253 2.60938 36.6875 2.60938V3.10938C37.6664 3.10938 38.8804 2.9766 40.3258 2.71475L40.2367 2.22275ZM36.6875 2.60938H36.2812V3.10938H36.6875V2.60938ZM36.5312 2.85938V2.46875H36.0312V2.85938H36.5312ZM36.5031 2.58409C36.7764 2.05834 36.9375 1.61129 36.9375 1.26562H36.4375C36.4375 1.48246 36.3277 1.8375 36.0594 2.35341L36.5031 2.58409ZM46.2656 14.6875H47.4531V14.1875H46.2656V14.6875ZM47.4531 14.6875C47.555 14.6875 47.6921 14.7393 47.8674 14.9123C48.0421 15.0848 48.2325 15.3566 48.435 15.7414L48.8775 15.5086C48.6633 15.1017 48.4449 14.7798 48.2186 14.5564C47.9928 14.3336 47.7366 14.1875 47.4531 14.1875V14.6875ZM48.4062 15.625V16.0312H48.9062V15.625H48.4062ZM48.4114 15.9807C48.1456 17.2679 47.946 18.2793 47.8126 19.014C47.6814 19.7366 47.6094 20.217 47.6094 20.4219H48.1094C48.1094 20.2726 48.1701 19.8441 48.3046 19.1032C48.4369 18.3744 48.6356 17.3675 48.9011 16.0818L48.4114 15.9807ZM47.6094 20.4219V21.625H48.1094V20.4219H47.6094ZM47.8594 21.375H47.0625V21.875H47.8594V21.375ZM47.3075 21.5752L46.9012 19.5752L46.4113 19.6748L46.8175 21.6748L47.3075 21.5752ZM46.9004 19.6787C47.1662 18.4698 47.3658 17.5304 47.4991 16.8613C47.5657 16.527 47.6161 16.2585 47.6499 16.057C47.6823 15.8636 47.7031 15.7121 47.7031 15.625H47.2031C47.2031 15.6629 47.1907 15.7718 47.1568 15.9743C47.1242 16.1686 47.0749 16.4314 47.0087 16.7637C46.8764 17.4279 46.6776 18.3635 46.4121 19.5713L46.9004 19.6787ZM47.4531 15.375H45.4688V15.875H47.4531V15.375ZM45.4182 15.3802C44.1063 15.6509 43.0861 15.8536 42.3569 15.9885C41.9921 16.0561 41.7016 16.1063 41.4846 16.1396C41.2609 16.1739 41.1315 16.1875 41.0781 16.1875V16.6875C41.1758 16.6875 41.3426 16.6672 41.5604 16.6338C41.7847 16.5994 42.0808 16.5481 42.4478 16.4802C43.1821 16.3443 44.2062 16.1408 45.5193 15.8698L45.4182 15.3802ZM41.0781 16.1875H39.4844V16.6875H41.0781V16.1875ZM39.7344 16.4375C39.7344 16.3326 39.7978 16.1888 40.0504 16.0142C40.3009 15.8411 40.6953 15.6691 41.2504 15.5054C42.3572 15.179 44.0334 14.9047 46.2897 14.6863L46.2415 14.1887C43.977 14.4078 42.2626 14.6856 41.109 15.0258C40.5339 15.1955 40.0806 15.3855 39.766 15.6029C39.4535 15.819 39.2344 16.0945 39.2344 16.4375H39.7344ZM76.4219 4.0625V3.8125H76.2179L76.177 4.01236L76.4219 4.0625ZM77.2188 4.0625H77.4688V3.8125H77.2188V4.0625ZM77.6094 10.8438L77.3602 10.8645L77.3793 11.0938H77.6094V10.8438ZM78.0156 10.8438V11.0938H78.0757L78.1292 11.0665L78.0156 10.8438ZM78.8125 10.4375H79.0625V10.0294L78.699 10.2148L78.8125 10.4375ZM78.8125 10.8438L78.978 11.0311L79.0625 10.9565V10.8438H78.8125ZM77.6094 20.8281V21.0781H77.8594V20.8281H77.6094ZM76.4219 12.0469H76.6719V11.7969H76.4219V12.0469ZM76.0156 12.0469V11.7969H75.9975L75.9796 11.7995L76.0156 12.0469ZM70.0312 12.8438H69.7812V13.0938H70.0312V12.8438ZM76.4219 10.8438L76.4377 11.0932L76.6719 11.0784V10.8438H76.4219ZM76.4219 10.4375H76.6719V10.4232L76.6702 10.4089L76.4219 10.4375ZM76.0156 6.04688L75.7707 5.99673L75.7656 6.02155V6.04688H76.0156ZM66.0469 6.45312L66.0938 6.20756L66.0538 6.19993L66.0135 6.20537L66.0469 6.45312ZM66.0469 12.0469L65.9181 11.8326L65.7969 11.9055V12.0469H66.0469ZM66.0469 13.2344H65.7969V13.4844H66.0469V13.2344ZM69.625 16.8281H69.875V16.7513L69.8319 16.6878L69.625 16.8281ZM69.625 17.2344V17.4844H69.875V17.2344H69.625ZM68.8281 17.2344L68.6709 17.4288L68.7397 17.4844H68.8281V17.2344ZM65.6406 13.6406H65.8906V13.3906H65.6406V13.6406ZM64.4375 13.6406V13.3906H64.1875V13.6406H64.4375ZM61.6562 16.4375V16.6875H61.7368L61.8022 16.6405L61.6562 16.4375ZM61.25 16.4375H61V16.6875H61.25V16.4375ZM61.25 16.0312L61.0589 15.8701L61 15.9399V16.0312H61.25ZM67.6406 8.45312L67.8317 8.61429L67.8906 8.54447V8.45312H67.6406ZM67.6406 8.04688H67.8906V7.79688H67.6406V8.04688ZM66.0469 7.65625L66.1704 7.43889L66.0917 7.39418L66.0026 7.4102L66.0469 7.65625ZM62.4531 8.04688H62.2031V8.29688H62.4531V8.04688ZM76.4219 4.3125H77.2188V3.8125H76.4219V4.3125ZM76.9688 4.0625C76.9688 5.46957 77.0998 7.73893 77.3602 10.8645L77.8585 10.823C77.5981 7.69857 77.4688 5.4471 77.4688 4.0625H76.9688ZM77.6094 11.0938H78.0156V10.5938H77.6094V11.0938ZM78.1292 11.0665L78.926 10.6602L78.699 10.2148L77.9021 10.621L78.1292 11.0665ZM78.5625 10.4375V10.8438H79.0625V10.4375H78.5625ZM78.647 10.6564C78.3929 10.8808 78.2009 11.269 78.0472 11.7671C77.8909 12.2742 77.7633 12.933 77.6621 13.7384C77.4597 15.35 77.3594 17.5795 77.3594 20.4219H77.8594C77.8594 17.5872 77.9596 15.3818 78.1582 13.8007C78.2576 13.0097 78.3806 12.3827 78.525 11.9145C78.6722 11.4374 78.8311 11.1609 78.978 11.0311L78.647 10.6564ZM77.3594 20.4219V20.8281H77.8594V20.4219H77.3594ZM77.6094 20.5781H77.2188V21.0781H77.6094V20.5781ZM77.2188 20.5781C76.9929 20.5781 76.8692 20.5209 76.7996 20.4499C76.7291 20.3781 76.6719 20.2491 76.6719 20.0156H76.1719C76.1719 20.3238 76.2474 20.6011 76.4426 20.8001C76.6386 20.9999 76.9133 21.0781 77.2188 21.0781V20.5781ZM76.6719 20.0156V12.0469H76.1719V20.0156H76.6719ZM76.4219 11.7969H76.0156V12.2969H76.4219V11.7969ZM75.9796 11.7995C74.157 12.0651 72.748 12.2641 71.7522 12.3967C70.7447 12.5309 70.182 12.5938 70.0312 12.5938V13.0938C70.2243 13.0938 70.8308 13.0238 71.8182 12.8923C72.8171 12.7593 74.2284 12.5599 76.0517 12.2943L75.9796 11.7995ZM70.2812 12.8438V12.4375H69.7812V12.8438H70.2812ZM70.2812 12.4375C70.2812 12.3682 70.3248 12.2526 70.5626 12.105C70.7962 11.9599 71.1661 11.8184 71.6894 11.6879C72.7319 11.4279 74.3113 11.2284 76.4377 11.0932L76.406 10.5943C74.272 10.7299 72.6561 10.9315 71.5684 11.2027C71.0266 11.3379 70.5977 11.4945 70.2988 11.6802C70.004 11.8633 69.7812 12.1109 69.7812 12.4375H70.2812ZM76.6719 10.8438V10.4375H76.1719V10.8438H76.6719ZM76.6702 10.4089C76.3988 8.0491 76.2656 6.60213 76.2656 6.04688H75.7656C75.7656 6.63746 75.9033 8.11757 76.1735 10.4661L76.6702 10.4089ZM76.2605 6.09702L76.6668 4.11264L76.177 4.01236L75.7707 5.99673L76.2605 6.09702ZM66 6.69869C66.9217 6.87475 67.5955 7.0595 68.0336 7.24898C68.2533 7.34406 68.3987 7.43404 68.4855 7.51348C68.5711 7.59188 68.5781 7.63897 68.5781 7.65625H69.0781C69.0781 7.44957 68.9693 7.27857 68.8231 7.14473C68.6781 7.01192 68.4758 6.89553 68.2321 6.79008C67.743 6.57852 67.0262 6.38567 66.0938 6.20756L66 6.69869ZM68.5781 7.65625V8.04688H69.0781V7.65625H68.5781ZM68.5781 8.04688C68.5781 9.47864 67.7299 10.7434 65.9181 11.8326L66.1757 12.2611C68.0721 11.1211 69.0781 9.71927 69.0781 8.04688H68.5781ZM65.7969 12.0469V13.2344H66.2969V12.0469H65.7969ZM66.0469 13.4844C66.1731 13.4844 66.3442 13.5351 66.5675 13.6721C66.7889 13.8078 67.0444 14.0178 67.3346 14.3092C67.9148 14.892 68.6091 15.7757 69.4181 16.9685L69.8319 16.6878C69.0159 15.4847 68.3013 14.5715 67.6889 13.9564C67.3827 13.6489 67.0959 13.4096 66.8289 13.2459C66.564 13.0834 66.3008 12.9844 66.0469 12.9844V13.4844ZM69.375 16.8281V17.2344H69.875V16.8281H69.375ZM69.625 16.9844H68.8281V17.4844H69.625V16.9844ZM68.9853 17.04C67.9272 16.1841 67.1425 15.4649 66.6245 14.881C66.3655 14.5889 66.1785 14.3366 66.0574 14.1228C65.9345 13.906 65.8906 13.7483 65.8906 13.6406H65.3906C65.3906 13.8714 65.4796 14.1175 65.6223 14.3693C65.7669 14.6244 65.9782 14.9058 66.2505 15.2128C66.795 15.8267 67.6041 16.5659 68.6709 17.4288L68.9853 17.04ZM65.6406 13.3906H64.4375V13.8906H65.6406V13.3906ZM64.1875 13.6406C64.1875 13.7049 64.1574 13.8148 64.0525 13.9805C63.9499 14.1423 63.7897 14.3359 63.5649 14.562C63.1156 15.0138 62.4331 15.571 61.5103 16.2345L61.8022 16.6405C62.7336 15.9707 63.4417 15.395 63.9195 14.9146C64.1582 14.6745 64.3456 14.4521 64.4749 14.248C64.6017 14.0479 64.6875 13.842 64.6875 13.6406H64.1875ZM61.6562 16.1875H61.25V16.6875H61.6562V16.1875ZM61.5 16.4375V16.0312H61V16.4375H61.5ZM61.4411 16.1924L67.8317 8.61429L67.4495 8.29196L61.0589 15.8701L61.4411 16.1924ZM67.8906 8.45312V8.04688H67.3906V8.45312H67.8906ZM67.6406 7.79688C67.0733 7.79688 66.5859 7.67495 66.1704 7.43889L65.9234 7.87361C66.4246 8.15838 66.9996 8.29688 67.6406 8.29688V7.79688ZM66.0026 7.4102C64.5623 7.66925 63.3804 7.79688 62.4531 7.79688V8.29688C63.4216 8.29688 64.6357 8.16408 66.0911 7.9023L66.0026 7.4102ZM62.7031 8.04688V7.65625H62.2031V8.04688H62.7031ZM62.7031 7.65625C62.7031 7.65225 62.7039 7.60254 62.8258 7.51299C62.945 7.42537 63.1414 7.33009 63.4309 7.23316C64.007 7.04031 64.8866 6.86177 66.0803 6.70088L66.0135 6.20537C64.8113 6.36739 63.8941 6.55084 63.2722 6.75903C62.9628 6.86262 62.7099 6.97763 62.5297 7.11006C62.3521 7.24056 62.2031 7.42067 62.2031 7.65625H62.7031ZM94.0625 1.26562L94.312 1.24976L94.2844 0.815646L93.9232 1.05803L94.0625 1.26562ZM94.875 8.04688H95.125V7.94044L95.0483 7.86667L94.875 8.04688ZM94.4688 8.45312V8.20312H94.1796L94.2214 8.48926L94.4688 8.45312ZM94.875 11.2344H95.125V11.2162L95.1224 11.1982L94.875 11.2344ZM94.875 14.4375V14.6875H95.125V14.4375H94.875ZM93.6719 14.4375H93.4219V14.6875H93.6719V14.4375ZM92.875 2.0625L92.7357 1.85491L92.6114 1.93832L92.6262 2.08728L92.875 2.0625ZM86.4844 3.65625L86.5263 3.40978L86.4928 3.4041L86.459 3.40754L86.4844 3.65625ZM87.2812 8.45312L87.0964 8.28479L87.0312 8.35635V8.45312H87.2812ZM87.2812 8.84375H87.0312V8.99547L87.1658 9.06552L87.2812 8.84375ZM90.875 10.4375H91.125V10.1875H90.875V10.4375ZM90.875 11.2344V11.4844H91.125V11.2344H90.875ZM86.4844 9.25L86.6478 9.06082L86.4911 8.92545L86.3289 9.05419L86.4844 9.25ZM80.5 12.4375L80.3572 12.2323L79.7028 12.6875H80.5V12.4375ZM87.6875 4.85938H87.9375V4.60938H87.6875V4.85938ZM82.5 4.85938H82.25V5.10938H82.5V4.85938ZM82.5 4.0625L82.4746 3.81379L82.25 3.83669V4.0625H82.5ZM97.2656 7.25L97.3154 7.005L97.2908 7H97.2656V7.25ZM99.2656 7.65625H99.5156V7.45193L99.3154 7.41125L99.2656 7.65625ZM99.2656 8.84375L99.2177 9.08911L99.5156 9.1473V8.84375H99.2656ZM97.2656 8.45312L97.3135 8.20776L97.2898 8.20312H97.2656V8.45312ZM95.2656 8.45312H95.0156V8.70312H95.2656V8.45312ZM95.2656 8.04688L95.0186 8.00813L95.0156 8.02739V8.04688H95.2656ZM90.0781 16.4375V16.1875H90.0027L89.9398 16.2292L90.0781 16.4375ZM93.6719 20.4219H93.9219V20.4062L93.9199 20.3907L93.6719 20.4219ZM91.2812 22.4219L91.2627 22.6712L91.3325 22.6764L91.3948 22.6446L91.2812 22.4219ZM87.2812 19.625L87.0484 19.5339L87.0312 19.5778V19.625H87.2812ZM88.4844 19.625L88.2821 19.4781L88.2033 19.5866L88.2501 19.7123L88.4844 19.625ZM92.875 20.0156L93.1162 20.0814L93.1363 20.0076L93.1117 19.9352L92.875 20.0156ZM93.813 1.28149C93.9485 3.41308 94.0843 5.04879 94.2205 6.18599C94.2886 6.75391 94.3574 7.20285 94.4275 7.52908C94.4624 7.6918 94.4989 7.82986 94.5379 7.93935C94.5732 8.03824 94.6227 8.15105 94.7017 8.22708L95.0483 7.86667C95.0596 7.87759 95.0414 7.8628 95.0089 7.77159C94.9802 7.69097 94.949 7.57643 94.9163 7.42404C94.851 7.12007 94.7843 6.68879 94.717 6.12651C94.5824 5.0033 94.4473 3.37859 94.312 1.24976L93.813 1.28149ZM94.625 8.04688C94.625 8.14376 94.601 8.1705 94.5967 8.17479C94.5924 8.17907 94.5656 8.20312 94.4688 8.20312V8.70312C94.6427 8.70312 94.8191 8.65947 94.9502 8.52834C95.0813 8.39721 95.125 8.22083 95.125 8.04688H94.625ZM94.2214 8.48926L94.6276 11.2705L95.1224 11.1982L94.7161 8.41699L94.2214 8.48926ZM94.625 11.2344V14.4375H95.125V11.2344H94.625ZM94.875 14.1875H93.6719V14.6875H94.875V14.1875ZM93.9219 14.4375V14.0312H93.4219V14.4375H93.9219ZM93.9219 14.0312C93.9219 11.3725 93.6552 7.37275 93.1238 2.03772L92.6262 2.08728C93.1573 7.41892 93.4219 11.3984 93.4219 14.0312H93.9219ZM93.0143 2.27009L94.2018 1.47322L93.9232 1.05803L92.7357 1.85491L93.0143 2.27009ZM86.4425 3.90272C87.2313 4.03676 87.7999 4.19975 88.165 4.38347C88.5398 4.57212 88.625 4.74103 88.625 4.85938H89.125C89.125 4.44647 88.8118 4.14923 88.3897 3.93684C87.9579 3.71953 87.3312 3.54657 86.5263 3.40978L86.4425 3.90272ZM88.625 4.85938V5.25H89.125V4.85938H88.625ZM88.625 5.25C88.625 6.12746 88.1418 7.13689 87.0964 8.28479L87.4661 8.62146C88.5457 7.43603 89.125 6.31004 89.125 5.25H88.625ZM87.0312 8.45312V8.84375H87.5312V8.45312H87.0312ZM87.1658 9.06552C88.1884 9.59767 89.0036 9.99886 89.6096 10.2676C89.9123 10.4018 90.1665 10.5047 90.3702 10.5744C90.565 10.6411 90.7411 10.6875 90.875 10.6875V10.1875C90.8319 10.1875 90.7253 10.1675 90.5321 10.1014C90.3478 10.0383 90.1085 9.9419 89.8123 9.81053C89.2203 9.54801 88.4158 9.15233 87.3967 8.62198L87.1658 9.06552ZM90.625 10.4375V11.2344H91.125V10.4375H90.625ZM90.875 10.9844H90.4844V11.4844H90.875V10.9844ZM90.4844 10.9844C89.4408 10.9844 88.1656 10.3721 86.6478 9.06082L86.3209 9.43918C87.8657 10.7737 89.2571 11.4844 90.4844 11.4844V10.9844ZM86.3289 9.05419C84.9952 10.1129 83.8722 10.9012 82.958 11.4236C82.034 11.9516 81.3575 12.1875 80.9062 12.1875V12.6875C81.4967 12.6875 82.2707 12.3922 83.2061 11.8577C84.1512 11.3176 85.2964 10.5121 86.6398 9.44581L86.3289 9.05419ZM80.9062 12.1875H80.5V12.6875H80.9062V12.1875ZM80.6428 12.6427C83.0446 10.9719 84.8572 9.49587 86.072 8.21501C87.2753 6.94631 87.9375 5.82273 87.9375 4.85938H87.4375C87.4375 5.61477 86.9018 6.61359 85.7092 7.87093C84.5282 9.11611 82.7471 10.5697 80.3572 12.2323L80.6428 12.6427ZM87.6875 4.60938H82.5V5.10938H87.6875V4.60938ZM82.75 4.85938V4.0625H82.25V4.85938H82.75ZM82.5254 4.31121L86.5097 3.90496L86.459 3.40754L82.4746 3.81379L82.5254 4.31121ZM96.0625 7.5H97.2656V7H96.0625V7.5ZM97.2159 7.495L99.2159 7.90125L99.3154 7.41125L97.3154 7.005L97.2159 7.495ZM99.0156 7.65625V8.84375H99.5156V7.65625H99.0156ZM99.3135 8.59839L97.3135 8.20776L97.2177 8.69849L99.2177 9.08911L99.3135 8.59839ZM97.2656 8.20312H95.2656V8.70312H97.2656V8.20312ZM95.5156 8.45312V8.04688H95.0156V8.45312H95.5156ZM95.5126 8.08562C95.5495 7.85051 95.6218 7.70835 95.7041 7.626C95.7812 7.54893 95.8912 7.5 96.0625 7.5V7C95.7859 7 95.5391 7.08389 95.3506 7.27244C95.1673 7.45571 95.0651 7.71199 95.0186 8.00813L95.5126 8.08562ZM90.0781 16.6875H92.0781V16.1875H90.0781V16.6875ZM92.0781 16.6875C92.1752 16.6875 92.2834 16.7288 92.4066 16.8586C92.5336 16.9925 92.6644 17.2091 92.7913 17.5264C93.0449 18.1604 93.2579 19.1311 93.4238 20.453L93.9199 20.3907C93.7525 19.0564 93.5332 18.0349 93.2556 17.3407C93.1169 16.994 92.9573 16.7126 92.7692 16.5144C92.5773 16.3122 92.3456 16.1875 92.0781 16.1875V16.6875ZM93.4219 20.4219V20.8281H93.9219V20.4219H93.4219ZM93.4219 20.8281C93.4219 20.7947 93.4342 20.7839 93.4222 20.803C93.4116 20.8202 93.3891 20.849 93.3474 20.8898C93.2641 20.9715 93.1296 21.0767 92.9355 21.2061C92.5494 21.4635 91.962 21.7942 91.1677 22.1991L91.3948 22.6446C92.1943 22.237 92.8022 21.8959 93.2129 21.6221C93.4173 21.4858 93.5816 21.3605 93.6975 21.2469C93.7554 21.1901 93.8077 21.13 93.8468 21.0671C93.8847 21.0062 93.9219 20.9241 93.9219 20.8281H93.4219ZM91.2998 22.1726C89.9854 22.075 89.0377 21.7981 88.4245 21.3693C87.8267 20.9513 87.5312 20.3791 87.5312 19.625H87.0312C87.0312 20.5376 87.4025 21.2648 88.138 21.7791C88.8581 22.2826 89.9104 22.5708 91.2627 22.6712L91.2998 22.1726ZM87.5141 19.7161C87.9592 18.5786 88.8505 17.553 90.2164 16.6458L89.9398 16.2292C88.5141 17.1762 87.5408 18.2755 87.0484 19.5339L87.5141 19.7161ZM88.2501 19.7123C88.4514 20.2527 88.6607 20.6771 88.8825 20.9709C89.1002 21.2593 89.3668 21.4688 89.6875 21.4688V20.9688C89.602 20.9688 89.4649 20.9126 89.2816 20.6697C89.1023 20.4323 88.9132 20.0598 88.7186 19.5377L88.2501 19.7123ZM89.6875 21.4688H90.4844V20.9688H89.6875V21.4688ZM90.4844 21.4688C91.1918 21.4688 91.7785 21.3663 92.2257 21.1413C92.6822 20.9115 92.9867 20.5563 93.1162 20.0814L92.6338 19.9498C92.5446 20.2771 92.3412 20.5234 92.0009 20.6947C91.6511 20.8707 91.152 20.9688 90.4844 20.9688V21.4688ZM93.1117 19.9352C92.8383 19.1307 92.5618 18.5092 92.2783 18.084C92.0039 17.6723 91.6756 17.375 91.2812 17.375V17.875C91.4077 17.875 91.6055 17.9761 91.8623 18.3613C92.1101 18.733 92.37 19.3068 92.6383 20.0961L93.1117 19.9352ZM91.2812 17.375H90.4844V17.875H91.2812V17.375ZM90.4844 17.375C90.3223 17.375 90.1632 17.4465 90.0186 17.5401C89.8692 17.6366 89.7074 17.775 89.5342 17.9482C89.1872 18.2952 88.7694 18.8074 88.2821 19.4781L88.6866 19.7719C89.1681 19.1093 89.568 18.6215 89.8877 18.3018C90.0478 18.1417 90.1816 18.0301 90.29 17.9599C90.4032 17.8868 90.4641 17.875 90.4844 17.875V17.375ZM108.156 1.26562V1.01562H108.035L107.96 1.11102L108.156 1.26562ZM108.547 1.26562L108.791 1.32103L108.86 1.01562H108.547V1.26562ZM108.156 4.0625H107.906V4.29479L108.138 4.31183L108.156 4.0625ZM111.344 5.65625V5.90625H111.594V5.65625H111.344ZM106.562 4.45312L106.642 4.21606L106.312 4.10579V4.45312H106.562ZM102.969 5.65625H102.719V5.92309L102.985 5.90572L102.969 5.65625ZM102.969 4.85938V4.60938H102.719V4.85938H102.969ZM107.359 7.64062V7.39062H107.135L107.111 7.61316L107.359 7.64062ZM108.156 7.64062H108.406V7.39062H108.156V7.64062ZM106.953 15.2344L106.74 15.1033L106.506 15.4844H106.953V15.2344ZM112.547 15.2344L112.586 14.9874L112.566 14.9844H112.547V15.2344ZM113.344 16.4219V16.6719H113.594V16.4219H113.344ZM109.344 16.4219V16.1719H109.323L109.302 16.1754L109.344 16.4219ZM106.953 16.8281L106.84 17.0509L106.913 17.0885L106.995 17.0746L106.953 16.8281ZM106.156 16.4219L106.27 16.1991L106.154 16.1401L106.039 16.201L106.156 16.4219ZM104.953 16.8281L104.91 17.0743L104.931 17.0781H104.953V16.8281ZM100.969 14.4375L101.042 14.1985L100.719 14.0992V14.4375H100.969ZM105.766 15.2344V15.4844H105.911L105.983 15.3575L105.766 15.2344ZM108.156 1.51562H108.547V1.01562H108.156V1.51562ZM108.303 1.21022C108.041 2.36433 107.906 3.31713 107.906 4.0625H108.406C108.406 3.37037 108.532 2.45859 108.791 1.32103L108.303 1.21022ZM108.138 4.31183C109.194 4.38946 109.962 4.5255 110.46 4.71083C110.976 4.90331 111.094 5.10376 111.094 5.25H111.594C111.594 4.76082 111.18 4.44565 110.634 4.24229C110.069 4.03179 109.244 3.89179 108.175 3.81317L108.138 4.31183ZM111.094 5.25V5.65625H111.594V5.25H111.094ZM111.344 5.40625C110.98 5.40625 110.409 5.3127 109.616 5.11303C108.827 4.91465 107.837 4.61602 106.642 4.21606L106.483 4.69019C107.684 5.09231 108.688 5.39524 109.494 5.59791C110.294 5.79928 110.915 5.90625 111.344 5.90625V5.40625ZM106.312 4.45312C106.312 4.52609 106.282 4.60804 106.173 4.70336C106.059 4.80346 105.869 4.90598 105.585 5.00121C105.017 5.19127 104.145 5.32904 102.952 5.40678L102.985 5.90572C104.189 5.82721 105.113 5.68633 105.743 5.47535C106.058 5.37006 106.317 5.24146 106.502 5.07985C106.693 4.91345 106.812 4.70307 106.812 4.45312H106.312ZM103.219 5.65625V4.85938H102.719V5.65625H103.219ZM102.969 5.10938C104.666 5.10938 106.461 3.8246 108.353 1.42023L107.96 1.11102C106.081 3.49832 104.417 4.60938 102.969 4.60938V5.10938ZM107.359 7.89062H108.156V7.39062H107.359V7.89062ZM107.906 7.64062V10.0469H108.406V7.64062H107.906ZM107.906 10.0469C107.906 12.1749 107.51 13.8536 106.74 15.1033L107.166 15.3655C108 14.011 108.406 12.2313 108.406 10.0469H107.906ZM106.953 15.4844H112.547V14.9844H106.953V15.4844ZM112.508 15.4814C112.743 15.5182 112.885 15.5905 112.968 15.6729C113.045 15.7499 113.094 15.8599 113.094 16.0312H113.594C113.594 15.7547 113.51 15.5079 113.321 15.3193C113.138 15.136 112.882 15.0338 112.586 14.9874L112.508 15.4814ZM113.094 16.0312V16.4219H113.594V16.0312H113.094ZM113.344 16.1719H109.344V16.6719H113.344V16.1719ZM109.302 16.1754L106.911 16.5817L106.995 17.0746L109.386 16.6683L109.302 16.1754ZM107.067 16.6054L106.27 16.1991L106.043 16.6446L106.84 17.0509L107.067 16.6054ZM106.039 16.201C105.536 16.468 105.181 16.5781 104.953 16.5781V17.0781C105.309 17.0781 105.756 16.9174 106.273 16.6427L106.039 16.201ZM104.997 16.5819C103.673 16.3484 102.697 16.1019 102.058 15.846C101.737 15.7176 101.516 15.5929 101.379 15.4772C101.243 15.3614 101.219 15.2803 101.219 15.2344H100.719C100.719 15.4853 100.861 15.6933 101.056 15.8587C101.252 16.0243 101.529 16.173 101.872 16.3102C102.56 16.5856 103.577 16.8391 104.91 17.0743L104.997 16.5819ZM101.219 15.2344V14.4375H100.719V15.2344H101.219ZM100.895 14.6765C102.621 15.2066 103.853 15.4844 104.562 15.4844V14.9844C103.939 14.9844 102.775 14.7309 101.042 14.1985L100.895 14.6765ZM104.562 15.4844H105.766V14.9844H104.562V15.4844ZM105.983 15.3575C106.316 14.7701 106.611 13.8295 106.877 12.5592C107.145 11.2826 107.389 9.6515 107.608 7.66809L107.111 7.61316C106.893 9.58809 106.651 11.2017 106.388 12.4565C106.124 13.7174 105.841 14.5944 105.548 15.1112L105.983 15.3575ZM133.094 1.67188V1.42188H132.844V1.67188H133.094ZM133.891 1.67188L134.137 1.63104L134.103 1.42188H133.891V1.67188ZM134.688 9.25H134.438V9.5H134.688V9.25ZM137.484 9.25H137.734V9H137.484V9.25ZM137.484 10.0469V10.2969H137.734V10.0469H137.484ZM134.297 12.4375L134.542 12.4873L134.547 12.4626V12.4375H134.297ZM133.891 14.4375V14.6875H134.095L134.136 14.4873L133.891 14.4375ZM133.094 14.4375L132.845 14.4122L132.817 14.6875H133.094V14.4375ZM133.5 10.4375L133.749 10.4628L133.777 10.1875H133.5V10.4375ZM132.703 10.4375H132.453V10.6875H132.703V10.4375ZM132.703 9.64062V9.39062H132.453V9.64062H132.703ZM133.5 9.64062V9.89062H133.768L133.749 9.62352L133.5 9.64062ZM124.328 3.65625H124.578V3.18575L124.188 3.44907L124.328 3.65625ZM123.531 4.85938V4.60938H123.203L123.29 4.92552L123.531 4.85938ZM124.719 10.0469H124.469V10.2969H124.719V10.0469ZM128.312 5.26562H128.562V4.97828L128.278 5.01803L128.312 5.26562ZM125.516 5.65625V5.90625H125.533L125.55 5.90385L125.516 5.65625ZM124.328 5.65625H124.078V5.90625H124.328V5.65625ZM124.328 4.85938L124.28 4.61408L124.078 4.65379V4.85938H124.328ZM126.312 4.46875V4.21875H126.288L126.264 4.22346L126.312 4.46875ZM129.109 4.46875L129.352 4.407L129.304 4.21875H129.109V4.46875ZM129.516 6.0625H129.766V6.03114L129.758 6.00075L129.516 6.0625ZM123.922 11.25L123.682 11.3196L123.734 11.5H123.922V11.25ZM123.125 4.46875L122.985 4.26157L122.875 4.33591V4.46875H123.125ZM128.312 14.0312H128.562V13.7812H128.312V14.0312ZM133.094 18.4219V18.6719H133.118L133.142 18.6672L133.094 18.4219ZM135.094 18.0312H135.344V17.7277L135.046 17.7859L135.094 18.0312ZM135.094 18.8281L135.162 19.0686L135.344 19.0168V18.8281H135.094ZM132.297 19.625L132.268 19.8734L132.318 19.879L132.365 19.8654L132.297 19.625ZM127.516 14.8281L127.269 14.7894L127.266 14.8086V14.8281H127.516ZM133.094 1.92188H133.891V1.42188H133.094V1.92188ZM133.644 1.71271C134.174 4.91608 134.438 7.42648 134.438 9.25H134.938C134.938 7.38602 134.669 4.84433 134.137 1.63104L133.644 1.71271ZM134.688 9.5H137.484V9H134.688V9.5ZM137.234 9.25V10.0469H137.734V9.25H137.234ZM137.484 9.79688C136.398 9.79688 135.537 9.99933 134.944 10.4445C134.337 10.8999 134.047 11.5796 134.047 12.4375H134.547C134.547 11.7016 134.788 11.1861 135.244 10.8445C135.713 10.4929 136.446 10.2969 137.484 10.2969V9.79688ZM134.052 12.3877L133.646 14.3877L134.136 14.4873L134.542 12.4873L134.052 12.3877ZM133.891 14.1875H133.094V14.6875H133.891V14.1875ZM133.342 14.4628L133.749 10.4628L133.251 10.4122L132.845 14.4122L133.342 14.4628ZM133.5 10.1875H132.703V10.6875H133.5V10.1875ZM132.953 10.4375V9.64062H132.453V10.4375H132.953ZM132.703 9.89062H133.5V9.39062H132.703V9.89062ZM133.749 9.62352C133.479 5.67439 133.344 3.02654 133.344 1.67188H132.844C132.844 3.04638 132.98 5.71103 133.251 9.65773L133.749 9.62352ZM124.078 3.65625V4.0625H124.578V3.65625H124.078ZM124.078 4.0625C124.078 4.28959 124.022 4.41399 123.952 4.48338C123.883 4.55277 123.758 4.60938 123.531 4.60938V5.10938C123.835 5.10938 124.109 5.03317 124.306 4.83693C124.502 4.6407 124.578 4.36666 124.578 4.0625H124.078ZM123.29 4.92552C123.686 6.36678 123.981 7.51654 124.178 8.3761C124.377 9.24609 124.469 9.7936 124.469 10.0469H124.969C124.969 9.72723 124.862 9.12371 124.666 8.26453C124.467 7.39492 124.169 6.23739 123.772 4.79323L123.29 4.92552ZM124.719 10.2969H125.516V9.79688H124.719V10.2969ZM125.516 10.2969C126.536 10.2969 127.318 9.85225 127.829 8.97779C128.329 8.12401 128.562 6.87556 128.562 5.26562H128.062C128.062 6.84319 127.83 7.98536 127.397 8.72533C126.977 9.44462 126.36 9.79688 125.516 9.79688V10.2969ZM128.278 5.01803L125.481 5.40865L125.55 5.90385L128.347 5.51322L128.278 5.01803ZM125.516 5.40625H124.328V5.90625H125.516V5.40625ZM124.578 5.65625V4.85938H124.078V5.65625H124.578ZM124.376 5.10467L126.361 4.71404L126.264 4.22346L124.28 4.61408L124.376 5.10467ZM126.312 4.71875H129.109V4.21875H126.312V4.71875ZM128.867 4.5305L129.273 6.12425L129.758 6.00075L129.352 4.407L128.867 4.5305ZM129.266 6.0625C129.266 7.76652 128.936 8.99862 128.318 9.80047C127.709 10.59 126.791 11 125.516 11V11.5C126.907 11.5 127.989 11.0454 128.714 10.1058C129.429 9.17846 129.766 7.81682 129.766 6.0625H129.266ZM125.516 11H123.922V11.5H125.516V11ZM124.162 11.1804C123.639 9.37682 123.375 7.14149 123.375 4.46875H122.875C122.875 7.17101 123.142 9.45652 123.682 11.3196L124.162 11.1804ZM123.265 4.67593L124.468 3.86343L124.188 3.44907L122.985 4.26157L123.265 4.67593ZM128.062 14.0312C128.062 15.5333 128.438 16.7058 129.233 17.501C130.029 18.2962 131.201 18.6719 132.703 18.6719V18.1719C131.278 18.1719 130.255 17.8158 129.587 17.1474C128.919 16.4791 128.562 15.4563 128.562 14.0312H128.062ZM132.703 18.6719H133.094V18.1719H132.703V18.6719ZM133.142 18.6672L135.142 18.2766L135.046 17.7859L133.046 18.1765L133.142 18.6672ZM134.844 18.0312V18.8281H135.344V18.0312H134.844ZM135.025 18.5877L132.228 19.3846L132.365 19.8654L135.162 19.0686L135.025 18.5877ZM132.325 19.3766C130.756 19.1971 129.615 18.7823 128.871 18.1598C128.138 17.5461 127.766 16.711 127.766 15.625H127.266C127.266 16.841 127.69 17.8236 128.551 18.5433C129.4 19.2541 130.651 19.6883 132.268 19.8734L132.325 19.3766ZM127.766 15.625V14.8281H127.266V15.625H127.766ZM127.763 14.8669C127.799 14.6318 127.872 14.4896 127.954 14.4072C128.031 14.3302 128.141 14.2812 128.312 14.2812V13.7812C128.036 13.7812 127.789 13.8651 127.601 14.0537C127.417 14.237 127.315 14.4932 127.269 14.7894L127.763 14.8669ZM141.578 2.03125L141.795 1.90656L141.328 1.09552V2.03125H141.578ZM147.172 5.625L147.199 5.87348L147.422 5.84881V5.625H147.172ZM139.984 6.42188V6.67188H139.998L140.012 6.67035L139.984 6.42188ZM139.188 6.42188H138.938V6.67188H139.188V6.42188ZM139.188 5.625L139.142 5.37914L138.938 5.41688V5.625H139.188ZM142.391 5.21875V5.46875H142.839L142.603 5.08716L142.391 5.21875ZM151.172 4.82812V4.57812H151.114L151.062 4.60364L151.172 4.82812ZM151.578 4.82812H151.828V4.57812H151.578V4.82812ZM151.578 13.2188L151.801 13.3323L151.828 13.2788V13.2188H151.578ZM151.172 14.0156L150.949 13.9021L150.764 14.2656H151.172V14.0156ZM151.578 14.4062H151.328V14.8285L151.698 14.6255L151.578 14.4062ZM156.375 13.6094H156.625V13.3594H156.375V13.6094ZM156.375 14.4062L156.408 14.654L156.625 14.6247V14.4062H156.375ZM151.172 15.6094L151.42 15.6367L151.422 15.6231V15.6094H151.172ZM150.781 20V20.25H151.031V20H150.781ZM150.375 20L150.265 20.2245L150.317 20.25H150.375V20ZM149.578 19.6094L149.331 19.5732L149.304 19.7536L149.468 19.8339L149.578 19.6094ZM150.375 5.21875L150.265 4.99427L150.125 5.06288V5.21875H150.375ZM142.391 7.625V7.375H142.33L142.275 7.40315L142.391 7.625ZM147.172 9.625H147.422V9.57185L147.4 9.5233L147.172 9.625ZM147.172 10.4219L147.395 10.5351L147.422 10.4817V10.4219H147.172ZM141.188 11.2188H140.938V11.2522L140.946 11.2845L141.188 11.2188ZM141.984 10.4219H141.734V10.4414L141.737 10.4606L141.984 10.4219ZM143.984 11.2188V11.4688H144.01L144.034 11.4637L143.984 11.2188ZM145.984 10.8125L146.034 11.0575L146.234 11.0168V10.8125H145.984ZM144.375 8.42188H144.125V8.58842L144.279 8.65258L144.375 8.42188ZM144.375 8.01562H144.625V7.70397L144.321 7.77158L144.375 8.01562ZM145.188 14.4062V14.1562H145.111L145.048 14.1991L145.188 14.4062ZM145.578 14.4062H145.828V14.1562H145.578V14.4062ZM145.578 14.8125L145.823 14.8604L145.828 14.8367V14.8125H145.578ZM145.188 16.8125L144.942 16.7646L144.905 16.9526L145.077 17.037L145.188 16.8125ZM145.984 17.2031L145.874 17.4276L145.926 17.4531H145.984V17.2031ZM146.375 17.2031V17.4531H146.392L146.41 17.4507L146.375 17.2031ZM149.172 16.8125H149.422V16.5252L149.137 16.5649L149.172 16.8125ZM140.391 18.8125V19.0626L140.397 19.0624L140.391 18.8125ZM139.984 18.8125H139.734V19.0625H139.984V18.8125ZM144.375 17.2031L144.409 17.4508L144.625 17.4208V17.2031H144.375ZM144.375 16.8125H144.625V16.7477L144.594 16.6911L144.375 16.8125ZM143.984 15.2188L143.844 15.0116L143.734 15.0859V15.2188H143.984ZM141.361 2.15594C141.905 3.1011 142.457 3.82606 143.019 4.31722C143.583 4.80968 144.172 5.07812 144.781 5.07812V4.57812C144.328 4.57812 143.852 4.38042 143.348 3.94059C142.843 3.49946 142.324 2.82599 141.795 1.90656L141.361 2.15594ZM144.781 5.07812C145.571 5.07812 146.136 5.14473 146.495 5.26451C146.861 5.38644 146.922 5.52544 146.922 5.625H147.422C147.422 5.19331 147.084 4.93387 146.653 4.79017C146.216 4.64433 145.585 4.57812 144.781 4.57812V5.07812ZM147.144 5.37652L139.957 6.1734L140.012 6.67035L147.199 5.87348L147.144 5.37652ZM139.984 6.17188H139.188V6.67188H139.984V6.17188ZM139.438 6.42188V5.625H138.938V6.42188H139.438ZM139.233 5.87086C140.7 5.60025 141.749 5.46875 142.391 5.46875V4.96875C141.699 4.96875 140.612 5.10808 139.142 5.37914L139.233 5.87086ZM142.603 5.08716C142.076 4.23551 141.828 3.48445 141.828 2.82812H141.328C141.328 3.6093 141.622 4.45199 142.178 5.35034L142.603 5.08716ZM141.828 2.82812V2.03125H141.328V2.82812H141.828ZM151.172 5.07812H151.578V4.57812H151.172V5.07812ZM151.328 4.82812V13.2188H151.828V4.82812H151.328ZM151.355 13.1052L150.949 13.9021L151.395 14.1292L151.801 13.3323L151.355 13.1052ZM151.172 14.2656C151.271 14.2656 151.299 14.2896 151.303 14.2935C151.305 14.2956 151.328 14.3171 151.328 14.4062H151.828C151.828 14.235 151.783 14.0612 151.65 13.9331C151.518 13.8067 151.343 13.7656 151.172 13.7656V14.2656ZM151.698 14.6255C152.628 14.1154 153.649 13.8594 154.766 13.8594V13.3594C153.569 13.3594 152.465 13.6346 151.458 14.187L151.698 14.6255ZM154.766 13.8594H156.375V13.3594H154.766V13.8594ZM156.125 13.6094V14.4062H156.625V13.6094H156.125ZM156.342 14.1585C154.605 14.3931 153.295 14.6118 152.416 14.815C151.979 14.9162 151.637 15.0161 151.4 15.1165C151.282 15.1661 151.177 15.2217 151.096 15.2867C151.022 15.3468 150.922 15.4536 150.922 15.6094H151.422C151.422 15.6818 151.376 15.7032 151.41 15.6757C151.438 15.6532 151.495 15.619 151.595 15.5769C151.791 15.4937 152.099 15.4015 152.529 15.3022C153.385 15.1043 154.676 14.8881 156.408 14.654L156.342 14.1585ZM150.923 15.582C150.664 17.941 150.531 19.4205 150.531 20H151.031C151.031 19.4545 151.159 18.007 151.42 15.6367L150.923 15.582ZM150.781 19.75H150.375V20.25H150.781V19.75ZM150.485 19.7755L149.688 19.3849L149.468 19.8339L150.265 20.2245L150.485 19.7755ZM149.826 19.6455C150.359 15.9931 150.625 11.1827 150.625 5.21875H150.125C150.125 11.1714 149.86 15.9548 149.331 19.5732L149.826 19.6455ZM150.485 5.44323L151.282 5.05261L151.062 4.60364L150.265 4.99427L150.485 5.44323ZM142.391 7.875H143.188V7.375H142.391V7.875ZM143.188 7.875C145.199 7.875 146.406 8.52025 146.943 9.7267L147.4 9.5233C146.75 8.06308 145.301 7.375 143.188 7.375V7.875ZM146.922 9.625V10.4219H147.422V9.625H146.922ZM146.949 10.3087C146.627 10.9428 146.22 11.4051 145.734 11.7101C145.249 12.0148 144.669 12.1719 143.984 12.1719V12.6719C144.748 12.6719 145.423 12.4956 146 12.1336C146.577 11.772 147.04 11.2343 147.395 10.5351L146.949 10.3087ZM143.984 12.1719H143.578V12.6719H143.984V12.1719ZM143.578 12.1719C142.911 12.1719 142.411 12.0738 142.062 11.8978C141.721 11.7265 141.518 11.4802 141.429 11.153L140.946 11.2845C141.076 11.7594 141.38 12.1146 141.837 12.3444C142.284 12.5694 142.871 12.6719 143.578 12.6719V12.1719ZM141.438 11.2188V8.8125H140.938V11.2188H141.438ZM141.438 8.8125C141.438 8.71907 141.487 8.58661 141.664 8.4123C141.839 8.2393 142.115 8.04972 142.506 7.84685L142.275 7.40315C141.864 7.61695 141.538 7.83362 141.313 8.05645C141.088 8.27798 140.938 8.53093 140.938 8.8125H141.438ZM141.734 9.21875V10.4219H142.234V9.21875H141.734ZM141.737 10.4606C141.784 10.7568 141.886 11.013 142.069 11.1963C142.258 11.3849 142.505 11.4688 142.781 11.4688V10.9688C142.61 10.9688 142.5 10.9198 142.423 10.8428C142.341 10.7604 142.268 10.6182 142.231 10.3831L141.737 10.4606ZM142.781 11.4688H143.984V10.9688H142.781V11.4688ZM144.034 11.4637L146.034 11.0575L145.935 10.5675L143.935 10.9738L144.034 11.4637ZM146.234 10.8125C146.234 10.1996 146.09 9.66297 145.789 9.21586C145.489 8.769 145.043 8.42997 144.471 8.19117L144.279 8.65258C144.78 8.8617 145.139 9.14506 145.375 9.49508C145.61 9.84484 145.734 10.2796 145.734 10.8125H146.234ZM144.625 8.42188V8.01562H144.125V8.42188H144.625ZM144.321 7.77158C143.517 7.9501 142.896 8.14421 142.47 8.35872C142.257 8.46589 142.079 8.58479 141.952 8.7205C141.822 8.85863 141.734 9.02594 141.734 9.21875H142.234C142.234 9.18761 142.247 9.13681 142.316 9.0627C142.388 8.98617 142.509 8.89869 142.694 8.80535C143.065 8.61881 143.639 8.43532 144.429 8.25967L144.321 7.77158ZM145.188 14.6562H145.578V14.1562H145.188V14.6562ZM145.328 14.4062V14.8125H145.828V14.4062H145.328ZM145.333 14.7646L144.942 16.7646L145.433 16.8604L145.823 14.8604L145.333 14.7646ZM145.077 17.037L145.874 17.4276L146.094 16.9786L145.298 16.588L145.077 17.037ZM145.984 17.4531H146.375V16.9531H145.984V17.4531ZM146.41 17.4507L149.206 17.0601L149.137 16.5649L146.34 16.9555L146.41 17.4507ZM148.922 16.8125V17.2031H149.422V16.8125H148.922ZM148.922 17.2031C148.922 17.2794 148.861 17.4219 148.512 17.5954C148.177 17.7614 147.656 17.9143 146.931 18.0471C145.488 18.3117 143.308 18.4845 140.384 18.5626L140.397 19.0624C143.327 18.9842 145.538 18.8107 147.022 18.5389C147.761 18.4034 148.337 18.2405 148.734 18.0433C149.116 17.8535 149.422 17.5852 149.422 17.2031H148.922ZM140.391 18.5625H139.984V19.0625H140.391V18.5625ZM140.234 18.8125C140.234 18.7482 140.267 18.6538 140.418 18.53C140.569 18.4053 140.814 18.2747 141.168 18.1449C141.874 17.886 142.951 17.6532 144.409 17.4508L144.341 16.9555C142.872 17.1593 141.753 17.3978 140.996 17.6754C140.618 17.8138 140.314 17.9677 140.1 18.1438C139.885 18.3208 139.734 18.5435 139.734 18.8125H140.234ZM144.625 17.2031V16.8125H144.125V17.2031H144.625ZM144.594 16.6911C144.356 16.2633 144.234 15.7747 144.234 15.2188H143.734C143.734 15.8503 143.873 16.4242 144.156 16.9339L144.594 16.6911ZM144.124 15.4259L145.327 14.6134L145.048 14.1991L143.844 15.0116L144.124 15.4259Z" fill="#222222"/>
</svg>
