<svg width="170" height="25" viewBox="0 0 170 25" fill="none" xmlns="http://www.w3.org/2000/svg">
<path d="M11.7031 2.46875H12.1094C12.3698 5.59375 12.5 7.85417 12.5 9.25V11.6406L16.5 11.25C17.0312 11.3333 17.2969 11.599 17.2969 12.0469L12.5 12.8438C12.5 14.5625 12.2344 16.4219 11.7031 18.4219H10.9062L11.3125 15.625V10.0469C11.3125 9.45312 11.1771 8.92188 10.9062 8.45312C11.1771 7.98438 11.3125 7.45312 11.3125 6.85938V6.0625L10.9062 4.0625H11.3125L10.9062 3.26562C10.9896 2.73438 11.2552 2.46875 11.7031 2.46875ZM0.9375 6.0625H2.14062C2.31771 10.5833 2.58333 12.8438 2.9375 12.8438C3.72917 12.8438 4.125 12.974 4.125 13.2344C5.98958 13.2344 6.92188 11.2396 6.92188 7.25H3.32812C2.79688 7.25 2.53125 6.98438 2.53125 6.45312L6.51562 6.0625C6.98438 6.32292 7.52083 6.45312 8.125 6.45312V6.85938C8.125 11.6406 6.92708 14.0312 4.53125 14.0312C2.40625 14.0312 1.34375 13.2344 1.34375 11.6406C1.07292 10.2656 0.9375 8.67188 0.9375 6.85938V6.0625ZM26.1875 0.84375C27.7812 0.84375 28.5781 1.64062 28.5781 3.23438V4.82812C28.5781 5.24479 28.0469 5.77604 26.9844 6.42188H24.5938C23.2604 5.63021 22.5938 4.70312 22.5938 3.64062C24 1.90104 25.1979 0.96875 26.1875 0.84375ZM24.1875 3.23438V4.4375C24.2708 4.96875 24.5365 5.23438 24.9844 5.23438H26.5938C27.3854 4.96354 27.7812 4.16146 27.7812 2.82812L26.5938 2.03125C24.9896 2.19792 24.1875 2.59896 24.1875 3.23438ZM34.9688 11.625V12.4219L21 13.6094C19.6667 13.276 19 12.8802 19 12.4219V12.0156C20.3958 12.2865 21.1927 12.4219 21.3906 12.4219L22.1875 12.0156C22.7292 12.0156 23 12.151 23 12.4219C29 11.8906 32.9896 11.625 34.9688 11.625ZM26.1875 16.0156L25.3906 21.6094H26.5938C29.7812 21.6094 31.375 21.0729 31.375 20L30.9844 17.6094H30.5781L26.5938 18.0156V16.8125L30.5781 16.4062H30.9844C31.7135 16.4062 32.2448 17.7396 32.5781 20.4062C32.5781 21.5521 30.849 22.349 27.3906 22.7969V22.4062L26.5938 22.7969H26.1875L25.3906 22.4062V23.5938H24.9844C24.4531 23.5938 24.1875 23.3281 24.1875 22.7969V18.8125L24.9844 19.2031L24.5938 18.4062C24.5938 17.0729 25.125 16.276 26.1875 16.0156ZM43.8438 1.64062C45.7083 1.64062 46.6406 2.70312 46.6406 4.82812C45.6198 5.63021 44.4219 6.03125 43.0469 6.03125H41.8438C40.7812 5.47917 40.25 4.8125 40.25 4.03125C40.25 2.96875 41.4479 2.17188 43.8438 1.64062ZM41.4531 4.03125C41.4531 4.42708 41.9844 4.82812 43.0469 5.23438C44.6406 4.96354 45.4375 4.5625 45.4375 4.03125V2.82812H43.8438C42.25 2.99479 41.4531 3.39583 41.4531 4.03125ZM36.6562 10.8281L39.4531 11.2188H45.8438C46.1042 11.2188 46.2344 11.3542 46.2344 11.625C46.5052 11.625 46.6406 11.4896 46.6406 11.2188L49.0312 11.625V12.0156L48.6406 12.8125L46.6406 12.4219H41.0469C38.1198 12.4219 36.6562 12.0208 36.6562 11.2188V10.8281ZM41.0469 16.0156H43.8438C46.5104 16.3385 47.8438 16.8698 47.8438 17.6094V18.0156C47.8438 18.349 45.9792 19.4115 42.25 21.2031V21.6094C42.9271 22.9323 44.125 23.5938 45.8438 23.5938C47.5729 23.0625 48.7708 22.7969 49.4375 22.7969V23.5938C47.1667 24.3958 45.4375 24.7969 44.25 24.7969C43.0521 24.7969 41.9844 23.7344 41.0469 21.6094C41.0469 20.8073 42.3802 19.875 45.0469 18.8125C46.1094 18.2812 46.6406 17.8802 46.6406 17.6094C43.7448 17.0781 41.8802 16.8125 41.0469 16.8125V16.0156ZM66.7969 0.859375C68.401 0.859375 69.2031 1.52604 69.2031 2.85938C69.2031 4.65104 68.5365 5.97917 67.2031 6.84375H66.7969V6.45312C67.3281 5.92188 67.5938 4.45833 67.5938 2.0625L66.7969 1.65625L64.4062 2.45312V2.0625C64.6771 1.26042 65.474 0.859375 66.7969 0.859375ZM60.0156 1.65625H61.2188C63.25 1.65625 64.4479 2.1875 64.8125 3.25C64.8125 4.65625 64.0104 5.98958 62.4062 7.25H62.0156V6.84375L63.6094 4.0625V2.85938L60.8125 2.45312C60.3438 2.72396 59.8125 2.85938 59.2188 2.85938V2.45312C59.3021 1.92188 59.5677 1.65625 60.0156 1.65625ZM64.4062 8.84375H71.9844L73.9844 9.25L73.5938 10.0469L71.5938 9.64062H70C69.6146 9.64062 69.2135 10.0417 68.7969 10.8438V13.6406C70.5052 13.6406 71.4375 14.0365 71.5938 14.8281C69.1667 17.7552 67.1719 19.2188 65.6094 19.2188V20.0156C65.6094 20.224 66.0052 20.625 66.7969 21.2188L68.7969 20.8125H71.5938C71.4271 21.6146 70.3646 22.0156 68.4062 22.0156H66C65.5833 22.0156 65.0521 21.4844 64.4062 20.4219C64.4062 18.9115 65.8698 17.7135 68.7969 16.8281L70 15.2344V14.8281C69.4688 14.8281 69.2031 14.6979 69.2031 14.4375L68.4062 14.8281H67.5938C67 14.8281 66.4688 14.6979 66 14.4375C65.5417 14.6979 65.0104 14.8281 64.4062 14.8281V14.4375C64.4896 13.9062 64.7552 13.6406 65.2031 13.6406H68L67.5938 11.6406V10.8438L68 10.0469H61.6094L59.625 10.4375V9.25L64.4062 8.84375ZM88.8594 4.45312H90.0625V6.45312L90.4531 8.45312H90.0625L90.4531 9.25C90.4531 10.0625 90.1875 12.4531 89.6562 16.4219H88.8594V10.4375C84.3385 10.7917 82.0781 12.2552 82.0781 14.8281H81.2812V14.0312C82.4271 12.3542 83.224 10.4948 83.6719 8.45312H82.4688C80.9167 10.9219 79.3229 12.9167 77.6875 14.4375H77.2812V14.0312C79.4167 11 80.4844 9.27083 80.4844 8.84375C77.2865 8.58333 75.6875 8.18229 75.6875 7.64062L77.6875 7.25C78.3542 7.25 79.4167 7.38021 80.875 7.64062L83.2656 7.25C84.3385 7.51042 84.875 8.04167 84.875 8.84375C84.6042 9.36458 84.4688 9.76562 84.4688 10.0469H84.875C86.5417 9.71354 88.0052 9.3125 89.2656 8.84375L88.8594 8.04688V6.04688C88.8594 5.78646 88.9948 5.65625 89.2656 5.65625L88.8594 4.85938V4.45312ZM84.875 17.625H85.6719C87.7969 17.625 88.8594 18.9583 88.8594 21.625L88.4531 24.4062H87.6562V21.625C87.6562 19.7604 86.7292 18.8281 84.875 18.8281C82.9792 19.0885 81.9115 19.2188 81.6719 19.2188V18.8281C81.8385 18.026 82.9062 17.625 84.875 17.625ZM106.531 3.23438H106.938V5.625C106.938 7.48958 107.068 10.4219 107.328 14.4219L108.125 14.0156L108.922 14.4219C109.443 14.151 109.844 14.0156 110.125 14.0156L110.922 14.4219C111.391 14.151 111.927 14.0156 112.531 14.0156V15.2188H107.328V15.6094C107.328 16.6927 107.198 19.0885 106.938 22.7969H105.734V22.4062C105.734 20.125 105.87 17.7292 106.141 15.2188C105.87 10.5208 105.599 7.32292 105.328 5.625C105.682 4.03125 106.083 3.23438 106.531 3.23438ZM100.547 3.625V4.4375C100.391 4.4375 98.3906 4.70312 94.5469 5.23438L93.75 4.82812V5.23438C94.0208 5.23438 94.1562 5.36458 94.1562 5.625L92.5625 6.03125V4.82812C95.9167 4.02604 98.5781 3.625 100.547 3.625ZM101.344 7.625V8.42188C96.8125 9.48438 94.151 10.0156 93.3594 10.0156C92.8385 9.75521 92.4375 9.625 92.1562 9.625V8.82812C94.4375 8.82812 97.5 8.42708 101.344 7.625ZM96.5469 12.0156H98.9531C99.3594 12.0156 99.8906 12.5469 100.547 13.6094V14.0156C100.547 15.4427 100.016 16.375 98.9531 16.8125H96.5469C96.1302 16.8125 95.599 16.2812 94.9531 15.2188V13.6094C94.9531 13.2031 95.4844 12.6719 96.5469 12.0156ZM95.75 14.0156C95.75 14.724 96.4167 15.3906 97.75 16.0156C98.4583 16.0156 99.125 15.349 99.75 14.0156C98.7188 13.2135 97.9167 12.8125 97.3438 12.8125C96.2812 13.2188 95.75 13.6198 95.75 14.0156ZM115.828 2.71875H116.219C117.021 2.71875 117.422 4.19271 117.422 7.14062V7.54688H117.828C118.141 7.54688 119.615 7.27604 122.25 6.73438V7.14062C122.25 7.80729 120.776 8.34375 117.828 8.75H117.422C116.536 8.75 116.005 6.73958 115.828 2.71875ZM114.219 11.9531C114.75 11.9531 115.016 12.0885 115.016 12.3594C118.161 12.0885 120.438 11.9531 121.844 11.9531H126.656V12.75H122.641L120.641 13.1562V12.75L119.844 13.1562H114.219V11.9531ZM119.844 14.3594C119.844 17.0365 121.047 18.375 123.453 18.375H126.25V19.1719L124.25 19.5781H123.047C120.37 19.2135 119.031 18.0104 119.031 15.9688V15.1562C119.115 14.625 119.385 14.3594 119.844 14.3594ZM146.406 1.67188H147.203C147.734 4.88021 148 7.40625 148 9.25H150.797V10.0469C148.672 10.0469 147.609 10.8438 147.609 12.4375L147.203 14.4375H146.406L146.812 10.4375H146.016V9.64062H146.812C146.542 5.69271 146.406 3.03646 146.406 1.67188ZM137.641 3.65625V4.0625C137.641 4.59375 137.375 4.85938 136.844 4.85938C137.635 7.74479 138.031 9.47396 138.031 10.0469H138.828C140.693 10.0469 141.625 8.45312 141.625 5.26562L138.828 5.65625H137.641V4.85938L139.625 4.46875H142.422L142.828 6.0625C142.828 9.52083 141.495 11.25 138.828 11.25H137.234C136.703 9.41667 136.438 7.15625 136.438 4.46875L137.641 3.65625ZM141.625 14.0312C141.625 16.9583 143.089 18.4219 146.016 18.4219H146.406L148.406 18.0312V18.8281L145.609 19.625C142.422 19.2604 140.828 17.9271 140.828 15.625V14.8281C140.911 14.2969 141.177 14.0312 141.625 14.0312ZM154.891 2.03125C155.964 3.89583 157.031 4.82812 158.094 4.82812C159.688 4.82812 160.484 5.09375 160.484 5.625L153.297 6.42188H152.5V5.625C153.969 5.35417 155.036 5.21875 155.703 5.21875C155.161 4.34375 154.891 3.54688 154.891 2.82812V2.03125ZM164.484 4.82812H164.891V13.2188L164.484 14.0156C164.755 14.0156 164.891 14.1458 164.891 14.4062C165.859 13.875 166.922 13.6094 168.078 13.6094H169.688V14.4062C166.219 14.875 164.484 15.276 164.484 15.6094C164.224 17.974 164.094 19.4375 164.094 20H163.688L162.891 19.6094C163.422 15.974 163.688 11.1771 163.688 5.21875L164.484 4.82812ZM155.703 7.625H156.5C158.562 7.625 159.891 8.29167 160.484 9.625V10.4219C159.807 11.7552 158.745 12.4219 157.297 12.4219H156.891C155.516 12.4219 154.719 12.0208 154.5 11.2188V8.8125C154.5 8.4375 154.901 8.04167 155.703 7.625ZM155.297 9.21875V10.4219C155.38 10.9531 155.646 11.2188 156.094 11.2188H157.297L159.297 10.8125C159.297 9.66667 158.76 8.86979 157.688 8.42188V8.01562C156.094 8.36979 155.297 8.77083 155.297 9.21875ZM158.5 14.4062H158.891V14.8125L158.5 16.8125L159.297 17.2031H159.688L162.484 16.8125V17.2031C162.484 18.1198 159.557 18.6562 153.703 18.8125H153.297C153.297 18.1458 154.76 17.6094 157.688 17.2031V16.8125C157.427 16.3438 157.297 15.8125 157.297 15.2188L158.5 14.4062Z" fill="#222222"/>
<path d="M12.1094 2.46875L12.3585 2.44799L12.3394 2.21875H12.1094V2.46875ZM12.5 11.6406H12.25V11.9162L12.5243 11.8894L12.5 11.6406ZM16.5 11.25L16.5387 11.003L16.5073 10.9981L16.4757 11.0012L16.5 11.25ZM17.2969 12.0469L17.3378 12.2935L17.5469 12.2588V12.0469H17.2969ZM12.5 12.8438L12.459 12.5971L12.25 12.6319V12.8438H12.5ZM11.7031 18.4219V18.6719H11.8954L11.9447 18.4861L11.7031 18.4219ZM10.9062 18.4219L10.6588 18.3859L10.6173 18.6719H10.9062V18.4219ZM11.3125 15.625L11.5599 15.6609L11.5625 15.6431V15.625H11.3125ZM10.9062 8.45312L10.6898 8.32806L10.6175 8.45312L10.6898 8.57819L10.9062 8.45312ZM11.3125 6.0625H11.5625V6.03737L11.5575 6.01273L11.3125 6.0625ZM10.9062 4.0625V3.8125H10.6004L10.6613 4.11227L10.9062 4.0625ZM11.3125 4.0625V4.3125H11.7206L11.5352 3.94895L11.3125 4.0625ZM10.9062 3.26562L10.6593 3.22688L10.6467 3.30696L10.6835 3.37917L10.9062 3.26562ZM0.9375 6.0625V5.8125H0.6875V6.0625H0.9375ZM2.14062 6.0625L2.39043 6.05271L2.38102 5.8125H2.14062V6.0625ZM4.125 13.2344H3.875V13.4844H4.125V13.2344ZM6.92188 7.25H7.17188V7H6.92188V7.25ZM2.53125 6.45312L2.50686 6.20432L2.28125 6.22644V6.45312H2.53125ZM6.51562 6.0625L6.63704 5.84396L6.56886 5.80608L6.49123 5.81369L6.51562 6.0625ZM8.125 6.45312H8.375V6.20312H8.125V6.45312ZM1.34375 11.6406H1.59375V11.6162L1.58904 11.5923L1.34375 11.6406ZM11.7031 2.71875H12.1094V2.21875H11.7031V2.71875ZM11.8602 2.48951C12.1206 5.61393 12.25 7.8654 12.25 9.25H12.75C12.75 7.84293 12.619 5.57357 12.3585 2.44799L11.8602 2.48951ZM12.25 9.25V11.6406H12.75V9.25H12.25ZM12.5243 11.8894L16.5243 11.4988L16.4757 11.0012L12.4757 11.3918L12.5243 11.8894ZM16.4613 11.497C16.6964 11.5339 16.8385 11.6061 16.9209 11.6885C16.9979 11.7656 17.0469 11.8755 17.0469 12.0469H17.5469C17.5469 11.7703 17.463 11.5235 17.2744 11.3349C17.0912 11.1517 16.8349 11.0495 16.5387 11.003L16.4613 11.497ZM17.2559 11.8003L12.459 12.5971L12.541 13.0904L17.3378 12.2935L17.2559 11.8003ZM12.25 12.8438C12.25 14.537 11.9883 16.3745 11.4615 18.3577L11.9447 18.4861C12.4805 16.4692 12.75 14.588 12.75 12.8438H12.25ZM11.7031 18.1719H10.9062V18.6719H11.7031V18.1719ZM11.1537 18.4578L11.5599 15.6609L11.0651 15.5891L10.6588 18.3859L11.1537 18.4578ZM11.5625 15.625V10.0469H11.0625V15.625H11.5625ZM11.5625 10.0469C11.5625 9.41358 11.4176 8.83844 11.1227 8.32806L10.6898 8.57819C10.9366 9.00531 11.0625 9.49267 11.0625 10.0469H11.5625ZM11.1227 8.57819C11.4176 8.06781 11.5625 7.49267 11.5625 6.85938H11.0625C11.0625 7.41358 10.9366 7.90094 10.6898 8.32806L11.1227 8.57819ZM11.5625 6.85938V6.0625H11.0625V6.85938H11.5625ZM11.5575 6.01273L11.1512 4.01273L10.6613 4.11227L11.0675 6.11227L11.5575 6.01273ZM10.9062 4.3125H11.3125V3.8125H10.9062V4.3125ZM11.5352 3.94895L11.129 3.15208L10.6835 3.37917L11.0898 4.17605L11.5352 3.94895ZM11.1532 3.30437C11.1901 3.06926 11.2624 2.9271 11.3447 2.84475C11.4218 2.76768 11.5318 2.71875 11.7031 2.71875V2.21875C11.4265 2.21875 11.1797 2.30264 10.9912 2.49119C10.8079 2.67446 10.7057 2.93074 10.6593 3.22688L11.1532 3.30437ZM0.9375 6.3125H2.14062V5.8125H0.9375V6.3125ZM1.89082 6.07229C1.97942 8.33418 2.09038 10.0374 2.22436 11.1776C2.29114 11.7459 2.36479 12.1848 2.44738 12.486C2.48813 12.6347 2.53517 12.7655 2.59329 12.8644C2.64209 12.9475 2.74952 13.0938 2.9375 13.0938V12.5938C3.03694 12.5938 3.05859 12.6694 3.02439 12.6111C2.9995 12.5688 2.9663 12.4877 2.92958 12.3538C2.85722 12.0899 2.78698 11.6812 2.72095 11.1193C2.58931 9.99905 2.47892 8.31165 2.39043 6.05271L1.89082 6.07229ZM2.9375 13.0938C3.32616 13.0938 3.59076 13.1265 3.75001 13.1789C3.82904 13.2049 3.86343 13.2298 3.87518 13.2414C3.87988 13.2461 3.87893 13.2465 3.87714 13.2424C3.87633 13.2406 3.87572 13.2386 3.87534 13.2367C3.87498 13.2349 3.875 13.234 3.875 13.2344H4.375C4.375 12.9362 4.13494 12.7792 3.90624 12.7039C3.66966 12.6261 3.34051 12.5938 2.9375 12.5938V13.0938ZM4.125 13.4844C4.6385 13.4844 5.09815 13.3461 5.4938 13.0639C5.88702 12.7834 6.20286 12.3711 6.44914 11.8441C6.93869 10.7967 7.17188 9.25636 7.17188 7.25H6.67188C6.67188 9.23322 6.43891 10.6851 5.99617 11.6324C5.77631 12.1029 5.50946 12.4386 5.20347 12.6568C4.89989 12.8733 4.54379 12.9844 4.125 12.9844V13.4844ZM6.92188 7H3.32812V7.5H6.92188V7ZM3.32812 7C3.10104 7 2.97664 6.9434 2.90725 6.874C2.83785 6.80461 2.78125 6.68021 2.78125 6.45312H2.28125C2.28125 6.75729 2.35746 7.03133 2.55369 7.22756C2.74992 7.42379 3.02396 7.5 3.32812 7.5V7ZM2.55564 6.70193L6.54002 6.31131L6.49123 5.81369L2.50686 6.20432L2.55564 6.70193ZM6.39421 6.28104C6.90461 6.56459 7.48382 6.70312 8.125 6.70312V6.20312C7.55785 6.20312 7.06414 6.08124 6.63704 5.84396L6.39421 6.28104ZM7.875 6.45312V6.85938H8.375V6.45312H7.875ZM7.875 6.85938C7.875 9.23719 7.5758 10.9833 7.00305 12.1263C6.71846 12.6942 6.37033 13.1053 5.96505 13.3749C5.56131 13.6434 5.08657 13.7812 4.53125 13.7812V14.2812C5.17384 14.2812 5.74729 14.1202 6.24198 13.7912C6.73514 13.4631 7.13571 12.9776 7.45007 12.3503C8.07524 11.1027 8.375 9.26281 8.375 6.85938H7.875ZM4.53125 13.7812C3.49279 13.7812 2.75953 13.5853 2.29063 13.2336C1.83525 12.8921 1.59375 12.3765 1.59375 11.6406H1.09375C1.09375 12.4985 1.3835 13.1783 1.99063 13.6336C2.58422 14.0788 3.44471 14.2812 4.53125 14.2812V13.7812ZM1.58904 11.5923C1.32209 10.2371 1.1875 8.6601 1.1875 6.85938H0.6875C0.6875 8.68365 0.823739 10.2942 1.09846 11.6889L1.58904 11.5923ZM1.1875 6.85938V6.0625H0.6875V6.85938H1.1875ZM26.1875 0.84375V0.59375H26.1718L26.1562 0.595721L26.1875 0.84375ZM26.9844 6.42188V6.67188H27.0544L27.1142 6.63551L26.9844 6.42188ZM24.5938 6.42188L24.4661 6.63684L24.5251 6.67188H24.5938V6.42188ZM22.5938 3.64062L22.3993 3.48346L22.3438 3.55221V3.64062H22.5938ZM24.1875 4.4375H23.9375V4.45699L23.9405 4.47624L24.1875 4.4375ZM26.5938 5.23438V5.48438H26.6353L26.6747 5.47092L26.5938 5.23438ZM27.7812 2.82812H28.0312V2.69482L27.9206 2.62053L27.7812 2.82812ZM26.5938 2.03125L26.7331 1.82366L26.6579 1.77324L26.5679 1.78259L26.5938 2.03125ZM34.9688 11.625H35.2188V11.375H34.9688V11.625ZM34.9688 12.4219L34.9899 12.671L35.2188 12.6515V12.4219H34.9688ZM21 13.6094L20.9394 13.8519L20.9797 13.862L21.0212 13.8585L21 13.6094ZM19 12.0156L19.0476 11.7702L18.75 11.7125V12.0156H19ZM21.3906 12.4219V12.6719H21.4507L21.5042 12.6446L21.3906 12.4219ZM22.1875 12.0156V11.7656H22.1275L22.074 11.7929L22.1875 12.0156ZM23 12.4219H22.75V12.695L23.022 12.6709L23 12.4219ZM26.1875 16.0156L26.435 16.0509L26.4872 15.6848L26.128 15.7728L26.1875 16.0156ZM25.3906 21.6094L25.1431 21.5741L25.1025 21.8594H25.3906V21.6094ZM31.375 20H31.625V19.9797L31.6217 19.9597L31.375 20ZM30.9844 17.6094L31.2311 17.5691L31.1968 17.3594H30.9844V17.6094ZM30.5781 17.6094V17.3594H30.5654L30.5528 17.3607L30.5781 17.6094ZM26.5938 18.0156H26.3438V18.2924L26.6191 18.2643L26.5938 18.0156ZM26.5938 16.8125L26.5684 16.5638L26.3438 16.5867V16.8125H26.5938ZM30.5781 16.4062V16.1562H30.5654L30.5528 16.1575L30.5781 16.4062ZM32.5781 20.4062H32.8281V20.3907L32.8262 20.3752L32.5781 20.4062ZM27.3906 22.7969H27.1406V23.0813L27.4227 23.0448L27.3906 22.7969ZM27.3906 22.4062H27.6406V22.0053L27.2806 22.1818L27.3906 22.4062ZM26.5938 22.7969V23.0469H26.6517L26.7038 23.0214L26.5938 22.7969ZM26.1875 22.7969L26.0775 23.0214L26.1295 23.0469H26.1875V22.7969ZM25.3906 22.4062L25.5007 22.1818L25.1406 22.0053V22.4062H25.3906ZM25.3906 23.5938V23.8438H25.6406V23.5938H25.3906ZM24.1875 18.8125L24.2975 18.588L23.9375 18.4115V18.8125H24.1875ZM24.9844 19.2031L24.8743 19.4276L25.5305 19.7493L25.2089 19.0931L24.9844 19.2031ZM24.5938 18.4062H24.3438V18.4642L24.3693 18.5163L24.5938 18.4062ZM26.1875 1.09375C26.9458 1.09375 27.4687 1.28317 27.8037 1.61818C28.1387 1.9532 28.3281 2.47604 28.3281 3.23438H28.8281C28.8281 2.39896 28.6191 1.72649 28.1572 1.26463C27.6954 0.802772 27.0229 0.59375 26.1875 0.59375V1.09375ZM28.3281 3.23438V4.82812H28.8281V3.23438H28.3281ZM28.3281 4.82812C28.3281 4.9337 28.256 5.10919 28.0029 5.36229C27.7576 5.60763 27.3783 5.88989 26.8545 6.20824L27.1142 6.63551C27.653 6.30803 28.0706 6.00175 28.3565 5.71584C28.6346 5.43769 28.8281 5.13921 28.8281 4.82812H28.3281ZM26.9844 6.17188H24.5938V6.67188H26.9844V6.17188ZM24.7214 6.20691C23.4258 5.43765 22.8438 4.57812 22.8438 3.64062H22.3438C22.3438 4.82813 23.095 5.82276 24.4661 6.63684L24.7214 6.20691ZM22.7882 3.79779C23.4844 2.93658 24.1219 2.28428 24.7004 1.83401C25.281 1.38217 25.786 1.14645 26.2188 1.09178L26.1562 0.595721C25.5994 0.666051 25.0107 0.958979 24.3933 1.43943C23.774 1.92145 23.1094 2.60508 22.3993 3.48346L22.7882 3.79779ZM23.9375 3.23438V4.4375H24.4375V3.23438H23.9375ZM23.9405 4.47624C23.987 4.77239 24.0892 5.02866 24.2724 5.21193C24.461 5.40049 24.7078 5.48438 24.9844 5.48438V4.98438C24.813 4.98438 24.7031 4.93545 24.626 4.85838C24.5436 4.77603 24.4714 4.63386 24.4345 4.39876L23.9405 4.47624ZM24.9844 5.48438H26.5938V4.98438H24.9844V5.48438ZM26.6747 5.47092C27.6229 5.14651 28.0312 4.19468 28.0312 2.82812H27.5312C27.5312 4.12824 27.1479 4.78057 26.5128 4.99783L26.6747 5.47092ZM27.9206 2.62053L26.7331 1.82366L26.4544 2.23884L27.6419 3.03572L27.9206 2.62053ZM26.5679 1.78259C25.7559 1.86696 25.1187 2.01271 24.6773 2.23342C24.2314 2.45636 23.9375 2.78439 23.9375 3.23438H24.4375C24.4375 3.04895 24.5447 2.85875 24.9009 2.68064C25.2615 2.50031 25.8275 2.36221 26.6196 2.27991L26.5679 1.78259ZM34.7188 11.625V12.4219H35.2188V11.625H34.7188ZM34.9476 12.1728L20.9788 13.3603L21.0212 13.8585L34.9899 12.671L34.9476 12.1728ZM21.0606 13.3668C20.4023 13.2023 19.9299 13.027 19.6276 12.8475C19.3163 12.6627 19.25 12.5144 19.25 12.4219H18.75C18.75 12.7877 19.017 13.0665 19.3724 13.2775C19.7367 13.4938 20.2643 13.6832 20.9394 13.8519L21.0606 13.3668ZM19.25 12.4219V12.0156H18.75V12.4219H19.25ZM18.9524 12.261C19.651 12.3966 20.2014 12.4986 20.6026 12.5668C20.993 12.6331 21.2657 12.6719 21.3906 12.6719V12.1719C21.3176 12.1719 21.093 12.1429 20.6864 12.0738C20.2908 12.0066 19.7448 11.9055 19.0476 11.7702L18.9524 12.261ZM21.5042 12.6446L22.301 12.2384L22.074 11.7929L21.2771 12.1991L21.5042 12.6446ZM22.1875 12.2656C22.4456 12.2656 22.6019 12.2992 22.6851 12.3408C22.7231 12.3598 22.7366 12.376 22.7412 12.3828C22.7447 12.3881 22.75 12.3979 22.75 12.4219H23.25C23.25 12.3104 23.2214 12.2017 23.1572 12.1055C23.0941 12.0108 23.006 11.9423 22.9087 11.8936C22.721 11.7998 22.4711 11.7656 22.1875 11.7656V12.2656ZM23.022 12.6709C29.024 12.1395 33.0025 11.875 34.9688 11.875V11.375C32.9767 11.375 28.976 11.6418 22.978 12.1728L23.022 12.6709ZM25.94 15.9804L25.1431 21.5741L25.6381 21.6446L26.435 16.0509L25.94 15.9804ZM25.3906 21.8594H26.5938V21.3594H25.3906V21.8594ZM26.5938 21.8594C28.1949 21.8594 29.4232 21.7255 30.2594 21.444C31.0903 21.1643 31.625 20.7011 31.625 20H31.125C31.125 20.3718 30.8628 20.7133 30.0999 20.9701C29.3425 21.2251 28.1801 21.3594 26.5938 21.3594V21.8594ZM31.6217 19.9597L31.2311 17.5691L30.7376 17.6497L31.1283 20.0403L31.6217 19.9597ZM30.9844 17.3594H30.5781V17.8594H30.9844V17.3594ZM30.5528 17.3607L26.5684 17.7669L26.6191 18.2643L30.6035 17.8581L30.5528 17.3607ZM26.8438 18.0156V16.8125H26.3438V18.0156H26.8438ZM26.6191 17.0612L30.6035 16.655L30.5528 16.1575L26.5684 16.5638L26.6191 17.0612ZM30.5781 16.6562H30.9844V16.1562H30.5781V16.6562ZM30.9844 16.6562C31.0811 16.6562 31.1892 16.6976 31.3125 16.828C31.4396 16.9625 31.5705 17.1801 31.6974 17.4988C31.9511 18.1354 32.1642 19.1101 32.3301 20.4373L32.8262 20.3752C32.6588 19.0357 32.4395 18.0104 32.1619 17.3137C32.0233 16.9657 31.8638 16.6834 31.6758 16.4845C31.484 16.2816 31.2522 16.1562 30.9844 16.1562V16.6562ZM32.3281 20.4062C32.3281 20.8271 32.0161 21.2494 31.1766 21.6362C30.3467 22.0187 29.0798 22.326 27.3585 22.5489L27.4227 23.0448C29.1598 22.8198 30.4866 22.5048 31.3859 22.0903C32.2756 21.6803 32.8281 21.1313 32.8281 20.4062H32.3281ZM27.6406 22.7969V22.4062H27.1406V22.7969H27.6406ZM27.2806 22.1818L26.4837 22.5724L26.7038 23.0214L27.5007 22.6307L27.2806 22.1818ZM26.5938 22.5469H26.1875V23.0469H26.5938V22.5469ZM26.2975 22.5724L25.5007 22.1818L25.2806 22.6307L26.0775 23.0214L26.2975 22.5724ZM25.1406 22.4062V23.5938H25.6406V22.4062H25.1406ZM25.3906 23.3438H24.9844V23.8438H25.3906V23.3438ZM24.9844 23.3438C24.7573 23.3438 24.6329 23.2871 24.5635 23.2178C24.4941 23.1484 24.4375 23.024 24.4375 22.7969H23.9375C23.9375 23.101 24.0137 23.3751 24.2099 23.5713C24.4062 23.7675 24.6802 23.8438 24.9844 23.8438V23.3438ZM24.4375 22.7969V18.8125H23.9375V22.7969H24.4375ZM24.0775 19.037L24.8743 19.4276L25.0944 18.9786L24.2975 18.588L24.0775 19.037ZM25.2089 19.0931L24.8182 18.2962L24.3693 18.5163L24.7599 19.3132L25.2089 19.0931ZM24.8438 18.4062C24.8438 17.7703 24.9707 17.2915 25.2002 16.9473C25.4261 16.6083 25.7673 16.376 26.247 16.2584L26.128 15.7728C25.5452 15.9156 25.0895 16.212 24.7842 16.6699C24.4824 17.1226 24.3438 17.7089 24.3438 18.4062H24.8438ZM43.8438 1.64062V1.39062H43.8164L43.7896 1.39655L43.8438 1.64062ZM46.6406 4.82812L46.7951 5.0247L46.8906 4.94963V4.82812H46.6406ZM41.8438 6.03125L41.7285 6.25309L41.7827 6.28125H41.8438V6.03125ZM43.0469 5.23438L42.9576 5.46789L43.0214 5.49229L43.0888 5.48084L43.0469 5.23438ZM45.4375 2.82812H45.6875V2.57812H45.4375V2.82812ZM43.8438 2.82812V2.57812H43.8307L43.8177 2.57948L43.8438 2.82812ZM36.6562 10.8281L36.6908 10.5805L36.4062 10.5408V10.8281H36.6562ZM39.4531 11.2188L39.4185 11.4663L39.4358 11.4688H39.4531V11.2188ZM46.2344 11.625H45.9844V11.875H46.2344V11.625ZM46.6406 11.2188L46.6825 10.9723L46.3906 10.9227V11.2188H46.6406ZM49.0312 11.625H49.2812V11.4139L49.0731 11.3785L49.0312 11.625ZM49.0312 12.0156L49.2557 12.1257L49.2812 12.0736V12.0156H49.0312ZM48.6406 12.8125L48.5927 13.0579L48.7808 13.0946L48.8651 12.9225L48.6406 12.8125ZM46.6406 12.4219L46.6885 12.1765L46.6648 12.1719H46.6406V12.4219ZM41.0469 16.0156V15.7656H40.7969V16.0156H41.0469ZM43.8438 16.0156L43.8738 15.7674L43.8588 15.7656H43.8438V16.0156ZM42.25 21.2031L42.1417 20.9778L42 21.0459V21.2031H42.25ZM42.25 21.6094H42V21.6696L42.0275 21.7233L42.25 21.6094ZM45.8438 23.5938V23.8438H45.8813L45.9172 23.8327L45.8438 23.5938ZM49.4375 22.7969H49.6875V22.5469H49.4375V22.7969ZM49.4375 23.5938L49.5208 23.8295L49.6875 23.7706V23.5938H49.4375ZM41.0469 21.6094H40.7969V21.6621L40.8181 21.7103L41.0469 21.6094ZM45.0469 18.8125L45.1394 19.0447L45.1492 19.0408L45.1587 19.0361L45.0469 18.8125ZM46.6406 17.6094H46.8906V17.4011L46.6857 17.3635L46.6406 17.6094ZM41.0469 16.8125H40.7969V17.0625H41.0469V16.8125ZM43.8438 1.89062C44.7284 1.89062 45.3488 2.14117 45.7535 2.60239C46.1637 3.06985 46.3906 3.79671 46.3906 4.82812H46.8906C46.8906 3.73454 46.6514 2.86765 46.1293 2.27261C45.6017 1.67133 44.8237 1.39062 43.8438 1.39062V1.89062ZM46.4862 4.63155C45.5121 5.39689 44.3694 5.78125 43.0469 5.78125V6.28125C44.4743 6.28125 45.7275 5.86353 46.7951 5.0247L46.4862 4.63155ZM43.0469 5.78125H41.8438V6.28125H43.0469V5.78125ZM41.959 5.80941C40.9309 5.27517 40.5 4.67497 40.5 4.03125H40C40 4.95003 40.6316 5.68316 41.7285 6.25309L41.959 5.80941ZM40.5 4.03125C40.5 3.61178 40.7304 3.21505 41.2869 2.84487C41.8483 2.47144 42.7119 2.14768 43.8979 1.8847L43.7896 1.39655C42.5798 1.66482 41.6465 2.00512 41.01 2.42857C40.3685 2.85526 40 3.38822 40 4.03125H40.5ZM41.2031 4.03125C41.2031 4.34843 41.4148 4.61241 41.7009 4.82844C41.994 5.04964 42.4176 5.26141 42.9576 5.46789L43.1362 5.00086C42.6137 4.80109 42.2404 4.60921 42.0022 4.42938C41.7571 4.24436 41.7031 4.10991 41.7031 4.03125H41.2031ZM43.0888 5.48084C43.8937 5.34406 44.5204 5.1711 44.9522 4.95378C45.3743 4.74139 45.6875 4.44415 45.6875 4.03125H45.1875C45.1875 4.1496 45.1023 4.3185 44.7275 4.50715C44.3624 4.69088 43.7938 4.85386 43.005 4.98791L43.0888 5.48084ZM45.6875 4.03125V2.82812H45.1875V4.03125H45.6875ZM45.4375 2.57812H43.8438V3.07812H45.4375V2.57812ZM43.8177 2.57948C43.0108 2.66387 42.3774 2.80967 41.9384 3.03059C41.4946 3.25393 41.2031 3.58213 41.2031 4.03125H41.7031C41.7031 3.84495 41.8101 3.65493 42.1632 3.47722C42.5211 3.2971 43.0829 3.15905 43.8698 3.07677L43.8177 2.57948ZM36.6217 11.0757L39.4185 11.4663L39.4877 10.9712L36.6908 10.5805L36.6217 11.0757ZM39.4531 11.4688H45.8438V10.9688H39.4531V11.4688ZM45.8438 11.4688C45.9329 11.4688 45.9544 11.4914 45.9565 11.4936C45.9604 11.4976 45.9844 11.5257 45.9844 11.625H46.4844C46.4844 11.4534 46.4433 11.2784 46.3169 11.147C46.1888 11.0138 46.015 10.9688 45.8438 10.9688V11.4688ZM46.2344 11.875C46.4083 11.875 46.5847 11.8313 46.7158 11.7002C46.847 11.5691 46.8906 11.3927 46.8906 11.2188H46.3906C46.3906 11.3156 46.3666 11.3424 46.3623 11.3467C46.358 11.3509 46.3313 11.375 46.2344 11.375V11.875ZM46.5987 11.4652L48.9894 11.8715L49.0731 11.3785L46.6825 10.9723L46.5987 11.4652ZM48.7812 11.625V12.0156H49.2812V11.625H48.7812ZM48.8068 11.9056L48.4161 12.7025L48.8651 12.9225L49.2557 12.1257L48.8068 11.9056ZM48.6885 12.5671L46.6885 12.1765L46.5927 12.6672L48.5927 13.0579L48.6885 12.5671ZM46.6406 12.1719H41.0469V12.6719H46.6406V12.1719ZM41.0469 12.1719C39.589 12.1719 38.5186 12.0714 37.82 11.88C37.4699 11.7841 37.2337 11.6706 37.0894 11.552C36.9526 11.4395 36.9062 11.3306 36.9062 11.2188H36.4062C36.4062 11.5079 36.5428 11.7499 36.7719 11.9382C36.9935 12.1204 37.3061 12.2576 37.6878 12.3622C38.4528 12.5718 39.5776 12.6719 41.0469 12.6719V12.1719ZM36.9062 11.2188V10.8281H36.4062V11.2188H36.9062ZM41.0469 16.2656H43.8438V15.7656H41.0469V16.2656ZM43.8137 16.2638C45.1408 16.4245 46.115 16.635 46.7512 16.8885C47.0696 17.0154 47.287 17.1467 47.4213 17.2747C47.5514 17.3987 47.5938 17.5089 47.5938 17.6094H48.0938C48.0938 17.3401 47.9695 17.1065 47.7662 16.9128C47.5672 16.7231 47.2845 16.5628 46.9363 16.424C46.2391 16.1462 45.2134 15.9297 43.8738 15.7674L43.8137 16.2638ZM47.5938 17.6094V18.0156H48.0938V17.6094H47.5938ZM47.5938 18.0156C47.5938 17.9796 47.6056 17.9611 47.6028 17.9663C47.6006 17.9702 47.5921 17.9837 47.5709 18.0072C47.5282 18.0543 47.4553 18.1191 47.3443 18.2022C47.1238 18.3673 46.7848 18.5813 46.3215 18.8453C45.397 19.3721 44.0049 20.0826 42.1417 20.9778L42.3583 21.4285C44.2242 20.532 45.629 19.8154 46.5691 19.2797C47.0381 19.0125 47.3984 18.7863 47.644 18.6025C47.766 18.5111 47.8679 18.4242 47.9418 18.3425C47.9788 18.3015 48.014 18.2562 48.041 18.207C48.0673 18.1592 48.0938 18.0933 48.0938 18.0156H47.5938ZM42 21.2031V21.6094H42.5V21.2031H42ZM42.0275 21.7233C42.3866 22.4251 42.8891 22.9596 43.5354 23.3165C44.1797 23.6723 44.9527 23.8438 45.8438 23.8438V23.3438C45.016 23.3438 44.3307 23.1845 43.7771 22.8788C43.2255 22.5742 42.7904 22.1166 42.4725 21.4955L42.0275 21.7233ZM45.9172 23.8327C47.6499 23.3004 48.8136 23.0469 49.4375 23.0469V22.5469C48.728 22.5469 47.4959 22.8246 45.7703 23.3548L45.9172 23.8327ZM49.1875 22.7969V23.5938H49.6875V22.7969H49.1875ZM49.3542 23.358C47.0885 24.1583 45.3928 24.5469 44.25 24.5469V25.0469C45.4822 25.0469 47.2449 24.6334 49.5208 23.8295L49.3542 23.358ZM44.25 24.5469C43.7331 24.5469 43.2268 24.3201 42.7271 23.8228C42.2239 23.3221 41.7379 22.5563 41.2756 21.5085L40.8181 21.7103C41.2934 22.7875 41.8099 23.6154 42.3744 24.1772C42.9424 24.7424 43.569 25.0469 44.25 25.0469V24.5469ZM41.2969 21.6094C41.2969 21.4809 41.3499 21.3246 41.4951 21.1358C41.6406 20.9464 41.8685 20.7383 42.1901 20.5135C42.8334 20.0637 43.8126 19.5734 45.1394 19.0447L44.9543 18.5803C43.6145 19.1141 42.5937 19.6212 41.9036 20.1037C41.5585 20.345 41.2865 20.5868 41.0987 20.831C40.9105 21.0758 40.7969 21.3368 40.7969 21.6094H41.2969ZM45.1587 19.0361C45.6947 18.7681 46.1091 18.527 46.3928 18.3128C46.5343 18.206 46.6523 18.0992 46.7371 17.992C46.8194 17.8879 46.8906 17.7578 46.8906 17.6094H46.3906C46.3906 17.5964 46.3954 17.618 46.3449 17.6819C46.2969 17.7426 46.2157 17.8201 46.0916 17.9138C45.844 18.1006 45.4615 18.3257 44.9351 18.5889L45.1587 19.0361ZM46.6857 17.3635C43.7964 16.8334 41.9076 16.5625 41.0469 16.5625V17.0625C41.8528 17.0625 43.6932 17.3228 46.5955 17.8553L46.6857 17.3635ZM41.2969 16.8125V16.0156H40.7969V16.8125H41.2969ZM67.2031 6.84375V7.09375H67.2771L67.3391 7.05351L67.2031 6.84375ZM66.7969 6.84375H66.5469V7.09375H66.7969V6.84375ZM66.7969 6.45312L66.6201 6.27635L66.5469 6.34957V6.45312H66.7969ZM67.5938 2.0625H67.8438V1.90934L67.7073 1.83977L67.5938 2.0625ZM66.7969 1.65625L66.9104 1.43352L66.8171 1.38597L66.7178 1.41908L66.7969 1.65625ZM64.4062 2.45312H64.1562V2.79998L64.4853 2.6903L64.4062 2.45312ZM64.4062 2.0625L64.1694 1.98252L64.1562 2.02143V2.0625H64.4062ZM64.8125 3.25H65.0625V3.2083L65.049 3.16886L64.8125 3.25ZM62.4062 7.25V7.5H62.4927L62.5607 7.44658L62.4062 7.25ZM62.0156 7.25H61.7656V7.5H62.0156V7.25ZM62.0156 6.84375L61.7987 6.71945L61.7656 6.7772V6.84375H62.0156ZM63.6094 4.0625L63.8263 4.1868L63.8594 4.12905V4.0625H63.6094ZM63.6094 2.85938H63.8594V2.64306L63.6453 2.61197L63.6094 2.85938ZM60.8125 2.45312L60.8484 2.20572L60.7626 2.19325L60.6874 2.23666L60.8125 2.45312ZM59.2188 2.85938H58.9688V3.10938H59.2188V2.85938ZM59.2188 2.45312L58.9718 2.41438L58.9688 2.43364V2.45312H59.2188ZM64.4062 8.84375V8.59375H64.3956L64.3851 8.59465L64.4062 8.84375ZM71.9844 8.84375L72.0341 8.59875L72.0095 8.59375H71.9844V8.84375ZM73.9844 9.25L74.2089 9.36004L74.3513 9.06943L74.0341 9.005L73.9844 9.25ZM73.5938 10.0469L73.544 10.2919L73.7332 10.3303L73.8182 10.1569L73.5938 10.0469ZM71.5938 9.64062L71.6435 9.39563L71.6189 9.39062H71.5938V9.64062ZM68.7969 10.8438L68.575 10.7285L68.5469 10.7827V10.8438H68.7969ZM68.7969 13.6406H68.5469V13.8906H68.7969V13.6406ZM71.5938 14.8281L71.7862 14.9877L71.862 14.8963L71.839 14.7797L71.5938 14.8281ZM65.6094 19.2188V18.9688H65.3594V19.2188H65.6094ZM66.7969 21.2188L66.6469 21.4188L66.7367 21.4861L66.8466 21.4637L66.7969 21.2188ZM68.7969 20.8125V20.5625H68.7717L68.7471 20.5675L68.7969 20.8125ZM71.5938 20.8125L71.8385 20.8634L71.901 20.5625H71.5938V20.8125ZM64.4062 20.4219H64.1562V20.4919L64.1926 20.5517L64.4062 20.4219ZM68.7969 16.8281L68.8693 17.0674L68.9473 17.0438L68.9964 16.9788L68.7969 16.8281ZM70 15.2344L70.1995 15.385L70.25 15.3181V15.2344H70ZM70 14.8281H70.25V14.5781H70V14.8281ZM69.2031 14.4375H69.4531V14.0365L69.0931 14.213L69.2031 14.4375ZM68.4062 14.8281V15.0781H68.4642L68.5163 15.0526L68.4062 14.8281ZM66 14.4375L66.1214 14.219L65.9986 14.1507L65.8765 14.2201L66 14.4375ZM64.4062 14.8281H64.1562V15.0781H64.4062V14.8281ZM64.4062 14.4375L64.1593 14.3988L64.1562 14.418V14.4375H64.4062ZM68 13.6406V13.8906H68.3059L68.245 13.5909L68 13.6406ZM67.5938 11.6406H67.3438V11.6658L67.3488 11.6904L67.5938 11.6406ZM67.5938 10.8438L67.371 10.7302L67.3438 10.7837V10.8438H67.5938ZM68 10.0469L68.2227 10.1604L68.4081 9.79688H68V10.0469ZM61.6094 10.0469V9.79688H61.585L61.5611 9.80158L61.6094 10.0469ZM59.625 10.4375H59.375V10.7415L59.6733 10.6828L59.625 10.4375ZM59.625 9.25L59.6038 9.0009L59.375 9.02034V9.25H59.625ZM66.7969 1.10938C67.5705 1.10938 68.1042 1.27109 68.4418 1.55163C68.7704 1.82482 68.9531 2.24466 68.9531 2.85938H69.4531C69.4531 2.14076 69.2348 1.56059 68.7614 1.16712C68.2968 0.780997 67.6274 0.609375 66.7969 0.609375V1.10938ZM68.9531 2.85938C68.9531 4.57904 68.3193 5.82201 67.0671 6.63399L67.3391 7.05351C68.7536 6.13632 69.4531 4.72304 69.4531 2.85938H68.9531ZM67.2031 6.59375H66.7969V7.09375H67.2031V6.59375ZM67.0469 6.84375V6.45312H66.5469V6.84375H67.0469ZM66.9736 6.6299C67.2964 6.30719 67.506 5.74262 67.6405 5.00168C67.7771 4.24905 67.8438 3.26752 67.8438 2.0625H67.3438C67.3438 3.25331 67.2776 4.20147 67.1486 4.91239C67.0174 5.63499 66.8286 6.06781 66.6201 6.27635L66.9736 6.6299ZM67.7073 1.83977L66.9104 1.43352L66.6833 1.87898L67.4802 2.28523L67.7073 1.83977ZM66.7178 1.41908L64.3272 2.21595L64.4853 2.6903L66.8759 1.89342L66.7178 1.41908ZM64.6562 2.45312V2.0625H64.1562V2.45312H64.6562ZM64.6431 2.14248C64.8614 1.49593 65.5104 1.10938 66.7969 1.10938V0.609375C65.4376 0.609375 64.4927 1.02491 64.1694 1.98252L64.6431 2.14248ZM60.0156 1.90625H61.2188V1.40625H60.0156V1.90625ZM61.2188 1.90625C63.2374 1.90625 64.2691 2.43655 64.576 3.33114L65.049 3.16886C64.6268 1.93845 63.2626 1.40625 61.2188 1.40625V1.90625ZM64.5625 3.25C64.5625 4.54956 63.824 5.81814 62.2518 7.05342L62.5607 7.44658C64.1969 6.16103 65.0625 4.76294 65.0625 3.25H64.5625ZM62.4062 7H62.0156V7.5H62.4062V7ZM62.2656 7.25V6.84375H61.7656V7.25H62.2656ZM62.2325 6.96805L63.8263 4.1868L63.3925 3.9382L61.7987 6.71945L62.2325 6.96805ZM63.8594 4.0625V2.85938H63.3594V4.0625H63.8594ZM63.6453 2.61197L60.8484 2.20572L60.7766 2.70053L63.5734 3.10678L63.6453 2.61197ZM60.6874 2.23666C60.2603 2.48344 59.773 2.60938 59.2188 2.60938V3.10938C59.852 3.10938 60.4272 2.96448 60.9376 2.66959L60.6874 2.23666ZM59.4688 2.85938V2.45312H58.9688V2.85938H59.4688ZM59.4657 2.49187C59.5026 2.25676 59.5749 2.1146 59.6572 2.03225C59.7343 1.95518 59.8443 1.90625 60.0156 1.90625V1.40625C59.739 1.40625 59.4922 1.49014 59.3037 1.67869C59.1204 1.86196 59.0182 2.11824 58.9718 2.41438L59.4657 2.49187ZM64.4062 9.09375H71.9844V8.59375H64.4062V9.09375ZM71.9346 9.08875L73.9346 9.495L74.0341 9.005L72.0341 8.59875L71.9346 9.08875ZM73.7599 9.13996L73.3693 9.93684L73.8182 10.1569L74.2089 9.36004L73.7599 9.13996ZM73.6435 9.80188L71.6435 9.39563L71.544 9.88562L73.544 10.2919L73.6435 9.80188ZM71.5938 9.39062H70V9.89062H71.5938V9.39062ZM70 9.39062C69.7153 9.39062 69.4588 9.53924 69.2334 9.76463C69.0073 9.99069 68.789 10.3165 68.575 10.7285L69.0187 10.959C69.2214 10.5689 69.4119 10.2932 69.5869 10.1182C69.7626 9.94253 69.8993 9.89062 70 9.89062V9.39062ZM68.5469 10.8438V13.6406H69.0469V10.8438H68.5469ZM68.7969 13.8906C69.6374 13.8906 70.2586 13.9888 70.6796 14.1676C71.0915 14.3425 71.2905 14.5829 71.3485 14.8765L71.839 14.7797C71.7407 14.2817 71.3955 13.9284 70.875 13.7074C70.3638 13.4903 69.6647 13.3906 68.7969 13.3906V13.8906ZM71.4013 14.6686C70.1946 16.1238 69.104 17.2045 68.1295 17.9195C67.1517 18.6369 66.3145 18.9688 65.6094 18.9688V19.4688C66.4668 19.4688 67.4082 19.0689 68.4252 18.3227C69.4455 17.5741 70.5658 16.4595 71.7862 14.9877L71.4013 14.6686ZM65.3594 19.2188V20.0156H65.8594V19.2188H65.3594ZM65.3594 20.0156C65.3594 20.1401 65.4153 20.254 65.4739 20.3442C65.5362 20.4401 65.6232 20.5418 65.7283 20.6483C65.9391 20.8618 66.2473 21.1191 66.6469 21.4188L66.9469 21.0187C66.5547 20.7246 66.2693 20.4846 66.0842 20.297C65.9914 20.203 65.9299 20.1283 65.8932 20.0718C65.8529 20.0097 65.8594 19.9953 65.8594 20.0156H65.3594ZM66.8466 21.4637L68.8466 21.0575L68.7471 20.5675L66.7471 20.9738L66.8466 21.4637ZM68.7969 21.0625H71.5938V20.5625H68.7969V21.0625ZM71.349 20.7616C71.2894 21.0486 71.0689 21.2978 70.5836 21.481C70.0939 21.6658 69.3739 21.7656 68.4062 21.7656V22.2656C69.397 22.2656 70.1874 22.1649 70.7602 21.9487C71.3374 21.7309 71.7315 21.3785 71.8385 20.8634L71.349 20.7616ZM68.4062 21.7656H66V22.2656H68.4062V21.7656ZM66 21.7656C65.8944 21.7656 65.7189 21.6935 65.4658 21.4404C65.2205 21.1951 64.9382 20.8158 64.6199 20.292L64.1926 20.5517C64.5201 21.0905 64.8264 21.5081 65.1123 21.794C65.3904 22.0721 65.6889 22.2656 66 22.2656V21.7656ZM64.6562 20.4219C64.6562 19.7601 64.9725 19.1486 65.6623 18.5841C66.3578 18.0148 67.4201 17.5058 68.8693 17.0674L68.7245 16.5888C67.2466 17.0359 66.1136 17.5686 65.3456 18.1972C64.5717 18.8305 64.1562 19.5733 64.1562 20.4219H64.6562ZM68.9964 16.9788L70.1995 15.385L69.8005 15.0837L68.5973 16.6775L68.9964 16.9788ZM70.25 15.2344V14.8281H69.75V15.2344H70.25ZM70 14.5781C69.7468 14.5781 69.5936 14.5458 69.5124 14.506C69.4752 14.4878 69.463 14.4728 69.4597 14.4678C69.4575 14.4647 69.4531 14.4578 69.4531 14.4375H68.9531C68.9531 14.5474 68.9819 14.6545 69.0462 14.749C69.1092 14.8417 69.1966 14.9081 69.2923 14.9549C69.4767 15.0454 69.722 15.0781 70 15.0781V14.5781ZM69.0931 14.213L68.2962 14.6036L68.5163 15.0526L69.3132 14.662L69.0931 14.213ZM68.4062 14.5781H67.5938V15.0781H68.4062V14.5781ZM67.5938 14.5781C67.0378 14.5781 66.5491 14.4566 66.1214 14.219L65.8786 14.656C66.3884 14.9392 66.9622 15.0781 67.5938 15.0781V14.5781ZM65.8765 14.2201C65.461 14.4562 64.9735 14.5781 64.4062 14.5781V15.0781C65.0473 15.0781 65.6223 14.9396 66.1235 14.6549L65.8765 14.2201ZM64.6562 14.8281V14.4375H64.1562V14.8281H64.6562ZM64.6532 14.4762C64.6901 14.2411 64.7624 14.099 64.8447 14.0166C64.9218 13.9396 65.0318 13.8906 65.2031 13.8906V13.3906C64.9265 13.3906 64.6797 13.4745 64.4912 13.6631C64.3079 13.8463 64.2057 14.1026 64.1593 14.3988L64.6532 14.4762ZM65.2031 13.8906H68V13.3906H65.2031V13.8906ZM68.245 13.5909L67.8387 11.5909L67.3488 11.6904L67.755 13.6904L68.245 13.5909ZM67.8438 11.6406V10.8438H67.3438V11.6406H67.8438ZM67.8165 10.9573L68.2227 10.1604L67.7773 9.93333L67.371 10.7302L67.8165 10.9573ZM68 9.79688H61.6094V10.2969H68V9.79688ZM61.5611 9.80158L59.5767 10.1922L59.6733 10.6828L61.6577 10.2922L61.5611 9.80158ZM59.875 10.4375V9.25H59.375V10.4375H59.875ZM59.6462 9.4991L64.4274 9.09285L64.3851 8.59465L59.6038 9.0009L59.6462 9.4991ZM88.8594 4.45312V4.20312H88.6094V4.45312H88.8594ZM90.0625 4.45312H90.3125V4.20312H90.0625V4.45312ZM90.0625 6.45312H89.8125V6.47731L89.8171 6.50105L90.0625 6.45312ZM90.4531 8.45312V8.70312H90.7567L90.6985 8.4052L90.4531 8.45312ZM90.0625 8.45312V8.20312H89.6615L89.838 8.56316L90.0625 8.45312ZM90.4531 9.25H90.7031V9.19202L90.6776 9.13996L90.4531 9.25ZM89.6562 16.4219V16.6719H89.875L89.904 16.455L89.6562 16.4219ZM88.8594 16.4219H88.6094V16.6719H88.8594V16.4219ZM88.8594 10.4375H89.1094V10.1671L88.8399 10.1883L88.8594 10.4375ZM82.0781 14.8281V15.0781H82.3281V14.8281H82.0781ZM81.2812 14.8281H81.0312V15.0781H81.2812V14.8281ZM81.2812 14.0312L81.0748 13.8902L81.0312 13.954V14.0312H81.2812ZM83.6719 8.45312L83.9161 8.5067L83.9827 8.20312H83.6719V8.45312ZM82.4688 8.45312V8.20312H82.3306L82.2571 8.32006L82.4688 8.45312ZM77.6875 14.4375V14.6875H77.7858L77.8577 14.6206L77.6875 14.4375ZM77.2812 14.4375H77.0312V14.6875H77.2812V14.4375ZM77.2812 14.0312L77.0769 13.8873L77.0312 13.952V14.0312H77.2812ZM80.4844 8.84375H80.7344V8.61328L80.5047 8.59457L80.4844 8.84375ZM75.6875 7.64062L75.6396 7.39526L75.4375 7.43473V7.64062H75.6875ZM77.6875 7.25V7H77.6633L77.6396 7.00464L77.6875 7.25ZM80.875 7.64062L80.8311 7.88673L80.8731 7.89425L80.9153 7.88735L80.875 7.64062ZM83.2656 7.25L83.3246 7.00705L83.2753 6.9951L83.2253 7.00327L83.2656 7.25ZM84.875 8.84375L85.0968 8.95909L85.125 8.90487V8.84375H84.875ZM84.4688 10.0469H84.2188V10.2969H84.4688V10.0469ZM84.875 10.0469V10.2969H84.8998L84.924 10.292L84.875 10.0469ZM89.2656 8.84375L89.3528 9.07807L89.6158 8.98024L89.4883 8.7302L89.2656 8.84375ZM88.8594 8.04688H88.6094V8.10692L88.6367 8.16042L88.8594 8.04688ZM89.2656 5.65625V5.90625H89.6737L89.4883 5.5427L89.2656 5.65625ZM88.8594 4.85938H88.6094V4.91942L88.6367 4.97292L88.8594 4.85938ZM88.8594 21.625L89.1068 21.6611L89.1094 21.6432V21.625H88.8594ZM88.4531 24.4062V24.6562H88.6693L88.7005 24.4424L88.4531 24.4062ZM87.6562 24.4062H87.4062V24.6562H87.6562V24.4062ZM84.875 18.8281V18.5781H84.8579L84.841 18.5805L84.875 18.8281ZM81.6719 19.2188H81.4219V19.4688H81.6719V19.2188ZM81.6719 18.8281L81.4271 18.7773L81.4219 18.8024V18.8281H81.6719ZM88.8594 4.70312H90.0625V4.20312H88.8594V4.70312ZM89.8125 4.45312V6.45312H90.3125V4.45312H89.8125ZM89.8171 6.50105L90.2078 8.50105L90.6985 8.4052L90.3079 6.4052L89.8171 6.50105ZM90.4531 8.20312H90.0625V8.70312H90.4531V8.20312ZM89.838 8.56316L90.2286 9.36004L90.6776 9.13996L90.287 8.34309L89.838 8.56316ZM90.2031 9.25C90.2031 10.0416 89.9408 12.4115 89.4085 16.3887L89.904 16.455C90.4342 12.4947 90.7031 10.0834 90.7031 9.25H90.2031ZM89.6562 16.1719H88.8594V16.6719H89.6562V16.1719ZM89.1094 16.4219V10.4375H88.6094V16.4219H89.1094ZM88.8399 10.1883C86.5629 10.3666 84.8189 10.826 83.6376 11.5909C82.4402 12.3662 81.8281 13.4522 81.8281 14.8281H82.3281C82.3281 13.6311 82.8463 12.6989 83.9093 12.0106C84.9884 11.312 86.635 10.8625 88.8789 10.6867L88.8399 10.1883ZM82.0781 14.5781H81.2812V15.0781H82.0781V14.5781ZM81.5312 14.8281V14.0312H81.0312V14.8281H81.5312ZM81.4877 14.1723C82.6521 12.468 83.4615 10.5787 83.9161 8.5067L83.4277 8.39955C82.9864 10.4108 82.202 12.2404 81.0748 13.8902L81.4877 14.1723ZM83.6719 8.20312H82.4688V8.70312H83.6719V8.20312ZM82.2571 8.32006C80.7133 10.7757 79.1328 12.7521 77.5173 14.2544L77.8577 14.6206C79.5131 13.0812 81.1201 11.0681 82.6804 8.58619L82.2571 8.32006ZM77.6875 14.1875H77.2812V14.6875H77.6875V14.1875ZM77.5312 14.4375V14.0312H77.0312V14.4375H77.5312ZM77.4856 14.1752C78.5543 12.6582 79.3585 11.4633 79.8963 10.5923C80.165 10.1572 80.3698 9.79877 80.5082 9.51914C80.5774 9.37945 80.6321 9.25533 80.6699 9.14851C80.706 9.04672 80.7344 8.94056 80.7344 8.84375H80.2344C80.2344 8.85371 80.2293 8.89501 80.1987 8.98137C80.1699 9.0627 80.1244 9.16742 80.0601 9.29727C79.9317 9.5567 79.7361 9.90009 79.4709 10.3296C78.941 11.1877 78.1436 12.373 77.0769 13.8873L77.4856 14.1752ZM80.5047 8.59457C78.9091 8.46465 77.7265 8.30054 76.9475 8.10517C76.556 8.00697 76.2834 7.90488 76.1143 7.80515C76.0303 7.75562 75.9831 7.71318 75.9587 7.68228C75.9366 7.65433 75.9375 7.64192 75.9375 7.64062H75.4375C75.4375 7.91411 75.6398 8.10582 75.8603 8.23586C76.0909 8.37181 76.418 8.48783 76.8259 8.59015C77.6459 8.79581 78.8617 8.96244 80.4641 9.09293L80.5047 8.59457ZM75.7354 7.88599L77.7354 7.49536L77.6396 7.00464L75.6396 7.39526L75.7354 7.88599ZM77.6875 7.5C78.3303 7.5 79.3741 7.62656 80.8311 7.88673L80.9189 7.39452C79.4593 7.13386 78.378 7 77.6875 7V7.5ZM80.9153 7.88735L83.3059 7.49673L83.2253 7.00327L80.8347 7.3939L80.9153 7.88735ZM83.2067 7.49295C83.7181 7.61708 84.0724 7.79927 84.2967 8.02139C84.5144 8.2369 84.625 8.50481 84.625 8.84375H85.125C85.125 8.38061 84.9674 7.98185 84.6486 7.66611C84.3364 7.35698 83.8861 7.14334 83.3246 7.00705L83.2067 7.49295ZM84.6532 8.72841C84.3798 9.25416 84.2188 9.70121 84.2188 10.0469H84.7188C84.7188 9.83004 84.8285 9.475 85.0968 8.95909L84.6532 8.72841ZM84.4688 10.2969H84.875V9.79688H84.4688V10.2969ZM84.924 10.292C86.6004 9.95674 88.0772 9.55245 89.3528 9.07807L89.1785 8.60943C87.9332 9.07255 86.4829 9.47035 84.826 9.80173L84.924 10.292ZM89.4883 8.7302L89.0821 7.93333L88.6367 8.16042L89.0429 8.9573L89.4883 8.7302ZM89.1094 8.04688V6.04688H88.6094V8.04688H89.1094ZM89.1094 6.04688C89.1094 5.95775 89.132 5.93622 89.1342 5.93411C89.1382 5.93025 89.1663 5.90625 89.2656 5.90625V5.40625C89.0941 5.40625 88.9191 5.44735 88.7877 5.5737C88.6544 5.7018 88.6094 5.87558 88.6094 6.04688H89.1094ZM89.4883 5.5427L89.0821 4.74583L88.6367 4.97292L89.0429 5.7698L89.4883 5.5427ZM89.1094 4.85938V4.45312H88.6094V4.85938H89.1094ZM84.875 17.875H85.6719V17.375H84.875V17.875ZM85.6719 17.875C86.6789 17.875 87.3947 18.1881 87.867 18.7808C88.3479 19.3843 88.6094 20.3182 88.6094 21.625H89.1094C89.1094 20.2651 88.8396 19.199 88.258 18.4692C87.6678 17.7286 86.7899 17.375 85.6719 17.375V17.875ZM88.612 21.5889L88.2057 24.3701L88.7005 24.4424L89.1068 21.6611L88.612 21.5889ZM88.4531 24.1562H87.6562V24.6562H88.4531V24.1562ZM87.9062 24.4062V21.625H87.4062V24.4062H87.9062ZM87.9062 21.625C87.9062 20.6545 87.6649 19.8807 87.1382 19.3511C86.6113 18.8212 85.841 18.5781 84.875 18.5781V19.0781C85.7632 19.0781 86.3835 19.3012 86.7837 19.7036C87.1841 20.1063 87.4062 20.7309 87.4062 21.625H87.9062ZM84.841 18.5805C83.8935 18.7106 83.1541 18.8081 82.6221 18.8729C82.0814 18.9389 81.7728 18.9688 81.6719 18.9688V19.4688C81.8106 19.4688 82.1556 19.4335 82.6826 19.3693C83.2183 19.3039 83.9607 19.2061 84.909 19.0758L84.841 18.5805ZM81.9219 19.2188V18.8281H81.4219V19.2188H81.9219ZM81.9166 18.879C81.9762 18.5926 82.1973 18.3432 82.6856 18.1598C83.178 17.9748 83.9021 17.875 84.875 17.875V17.375C83.8792 17.375 83.085 17.4757 82.5098 17.6917C81.9303 17.9094 81.5343 18.2616 81.4271 18.7773L81.9166 18.879ZM106.938 3.23438H107.188V2.98438H106.938V3.23438ZM107.328 14.4219L107.079 14.4381L107.103 14.8171L107.442 14.6446L107.328 14.4219ZM108.125 14.0156L108.239 13.7929L108.125 13.735L108.011 13.7929L108.125 14.0156ZM108.922 14.4219L108.808 14.6446L108.923 14.7031L109.037 14.6437L108.922 14.4219ZM110.125 14.0156L110.239 13.7929L110.185 13.7656H110.125V14.0156ZM110.922 14.4219L110.808 14.6446L110.929 14.7063L111.047 14.6383L110.922 14.4219ZM112.531 14.0156H112.781V13.7656H112.531V14.0156ZM112.531 15.2188V15.4688H112.781V15.2188H112.531ZM107.328 15.2188V14.9688H107.078V15.2188H107.328ZM106.938 22.7969V23.0469H107.171L107.187 22.8144L106.938 22.7969ZM105.734 22.7969H105.484V23.0469H105.734V22.7969ZM106.141 15.2188L106.389 15.2456L106.391 15.225L106.39 15.2044L106.141 15.2188ZM105.328 5.625L105.084 5.57077L105.074 5.6173L105.081 5.66438L105.328 5.625ZM100.547 3.625H100.797V3.375H100.547V3.625ZM100.547 4.4375V4.6875H100.797V4.4375H100.547ZM94.5469 5.23438L94.4333 5.4571L94.5033 5.49277L94.5811 5.48202L94.5469 5.23438ZM93.75 4.82812L93.8635 4.6054L93.5 4.42006V4.82812H93.75ZM93.75 5.23438H93.5V5.48438H93.75V5.23438ZM94.1562 5.625L94.218 5.86725L94.4062 5.81927V5.625H94.1562ZM92.5625 6.03125H92.3125V6.35297L92.6243 6.2735L92.5625 6.03125ZM92.5625 4.82812L92.5044 4.58498L92.3125 4.63086V4.82812H92.5625ZM101.344 7.625H101.594V7.31745L101.293 7.38027L101.344 7.625ZM101.344 8.42188L101.401 8.66527L101.594 8.62004V8.42188H101.344ZM93.3594 10.0156L93.2476 10.2392L93.3004 10.2656H93.3594V10.0156ZM92.1562 9.625H91.9062V9.875H92.1562V9.625ZM92.1562 8.82812V8.57812H91.9062V8.82812H92.1562ZM96.5469 12.0156V11.7656H96.4759L96.4155 11.8029L96.5469 12.0156ZM100.547 13.6094H100.797V13.5384L100.76 13.478L100.547 13.6094ZM98.9531 16.8125V17.0625H99.0026L99.0483 17.0437L98.9531 16.8125ZM94.9531 15.2188H94.7031V15.2888L94.7395 15.3486L94.9531 15.2188ZM97.75 16.0156L97.6439 16.242L97.6943 16.2656H97.75V16.0156ZM99.75 14.0156L99.9764 14.1217L100.061 13.9409L99.9035 13.8183L99.75 14.0156ZM97.3438 12.8125V12.5625H97.2976L97.2545 12.579L97.3438 12.8125ZM106.531 3.48438H106.938V2.98438H106.531V3.48438ZM106.688 3.23438V5.625H107.188V3.23438H106.688ZM106.688 5.625C106.688 7.49824 106.818 10.4374 107.079 14.4381L107.578 14.4056C107.317 10.4064 107.188 7.48093 107.188 5.625H106.688ZM107.442 14.6446L108.239 14.2384L108.011 13.7929L107.215 14.1991L107.442 14.6446ZM108.011 14.2384L108.808 14.6446L109.035 14.1991L108.239 13.7929L108.011 14.2384ZM109.037 14.6437C109.553 14.3754 109.908 14.2656 110.125 14.2656V13.7656C109.779 13.7656 109.332 13.9267 108.807 14.2001L109.037 14.6437ZM110.011 14.2384L110.808 14.6446L111.035 14.1991L110.239 13.7929L110.011 14.2384ZM111.047 14.6383C111.473 14.3919 111.966 14.2656 112.531 14.2656V13.7656C111.888 13.7656 111.308 13.9101 110.797 14.2054L111.047 14.6383ZM112.281 14.0156V15.2188H112.781V14.0156H112.281ZM112.531 14.9688H107.328V15.4688H112.531V14.9688ZM107.078 15.2188V15.6094H107.578V15.2188H107.078ZM107.078 15.6094C107.078 16.6822 106.949 19.0687 106.688 22.7794L107.187 22.8144C107.447 19.1084 107.578 16.7032 107.578 15.6094H107.078ZM106.938 22.5469H105.734V23.0469H106.938V22.5469ZM105.984 22.7969V22.4062H105.484V22.7969H105.984ZM105.984 22.4062C105.984 20.1348 106.119 17.748 106.389 15.2456L105.892 15.1919C105.62 17.7103 105.484 20.1152 105.484 22.4062H105.984ZM106.39 15.2044C106.119 10.5077 105.848 7.29773 105.575 5.58562L105.081 5.66438C105.35 7.3481 105.62 10.534 105.891 15.2331L106.39 15.2044ZM105.572 5.67923C105.748 4.88881 105.931 4.31506 106.118 3.94442C106.211 3.75894 106.299 3.6379 106.375 3.56607C106.449 3.4965 106.5 3.48438 106.531 3.48438V2.98438C106.338 2.98438 106.171 3.07186 106.033 3.20151C105.897 3.32889 105.778 3.50669 105.671 3.71964C105.457 4.14587 105.263 4.76744 105.084 5.57077L105.572 5.67923ZM100.297 3.625V4.4375H100.797V3.625H100.297ZM100.547 4.1875C100.511 4.1875 100.447 4.19362 100.375 4.20139C100.296 4.20989 100.189 4.22252 100.053 4.23918C99.7827 4.27253 99.397 4.32246 98.8968 4.3889C97.8961 4.5218 96.4346 4.72109 94.5126 4.98673L94.5811 5.48202C96.5029 5.21641 97.9633 5.01727 98.9626 4.88454C99.4624 4.81817 99.8462 4.76849 100.115 4.73543C100.249 4.71889 100.353 4.70662 100.429 4.69852C100.466 4.69446 100.496 4.69156 100.517 4.6897C100.542 4.6876 100.549 4.6875 100.547 4.6875V4.1875ZM94.6604 5.01165L93.8635 4.6054L93.6365 5.05085L94.4333 5.4571L94.6604 5.01165ZM93.5 4.82812V5.23438H94V4.82812H93.5ZM93.75 5.48438C93.8493 5.48438 93.8774 5.50838 93.8814 5.51224C93.8836 5.51434 93.9062 5.53588 93.9062 5.625H94.4062C94.4062 5.45371 94.3612 5.27993 94.228 5.15182C94.0966 5.02548 93.9216 4.98438 93.75 4.98438V5.48438ZM94.0945 5.38275L92.5007 5.789L92.6243 6.2735L94.218 5.86725L94.0945 5.38275ZM92.8125 6.03125V4.82812H92.3125V6.03125H92.8125ZM92.6206 5.07127C95.9677 4.27088 98.607 3.875 100.547 3.875V3.375C98.5492 3.375 95.8656 3.7812 92.5044 4.58498L92.6206 5.07127ZM101.094 7.625V8.42188H101.594V7.625H101.094ZM101.287 8.17848C99.0221 8.70947 97.227 9.10719 95.9003 9.37202C94.563 9.63895 93.7256 9.76562 93.3594 9.76562V10.2656C93.7848 10.2656 94.674 10.1267 95.9982 9.86235C97.3328 9.59593 99.1341 9.19678 101.401 8.66527L101.287 8.17848ZM93.4712 9.79202C92.9451 9.52899 92.4995 9.375 92.1562 9.375V9.875C92.3755 9.875 92.732 9.98142 93.2476 10.2392L93.4712 9.79202ZM92.4062 9.625V8.82812H91.9062V9.625H92.4062ZM92.1562 9.07812C94.4626 9.07812 97.5444 8.6732 101.395 7.86973L101.293 7.38027C97.4556 8.18097 94.4124 8.57812 92.1562 8.57812V9.07812ZM96.5469 12.2656H98.9531V11.7656H96.5469V12.2656ZM98.9531 12.2656C99.0523 12.2656 99.2248 12.3362 99.4795 12.5908C99.7254 12.8367 100.01 13.2167 100.334 13.7407L100.76 13.478C100.427 12.9396 100.118 12.5226 99.833 12.2373C99.5564 11.9607 99.2602 11.7656 98.9531 11.7656V12.2656ZM100.297 13.6094V14.0156H100.797V13.6094H100.297ZM100.297 14.0156C100.297 14.6996 100.169 15.2434 99.9312 15.6614C99.6952 16.0756 99.3416 16.3822 98.8579 16.5813L99.0483 17.0437C99.6272 16.8053 100.07 16.427 100.366 15.9089C100.659 15.3946 100.797 14.7587 100.797 14.0156H100.297ZM98.9531 16.5625H96.5469V17.0625H98.9531V16.5625ZM96.5469 16.5625C96.4413 16.5625 96.2658 16.4904 96.0127 16.2373C95.7674 15.9919 95.4851 15.6126 95.1668 15.0889L94.7395 15.3486C95.067 15.8874 95.3733 16.3049 95.6592 16.5908C95.9373 16.869 96.2358 17.0625 96.5469 17.0625V16.5625ZM95.2031 15.2188V13.6094H94.7031V15.2188H95.2031ZM95.2031 13.6094C95.2031 13.5102 95.2737 13.3377 95.5283 13.083C95.7742 12.8371 96.1542 12.552 96.6782 12.2283L96.4155 11.8029C95.8771 12.1355 95.4601 12.4441 95.1748 12.7295C94.8982 13.0061 94.7031 13.3023 94.7031 13.6094H95.2031ZM95.5 14.0156C95.5 14.4558 95.7091 14.8595 96.0732 15.2237C96.4352 15.5857 96.964 15.9233 97.6439 16.242L97.8561 15.7893C97.2026 15.4829 96.7314 15.1747 96.4268 14.8701C96.1243 14.5676 96 14.2838 96 14.0156H95.5ZM97.75 16.2656C98.1902 16.2656 98.5938 16.0566 98.958 15.6924C99.32 15.3304 99.6577 14.8016 99.9764 14.1217L99.5236 13.9095C99.2173 14.563 98.9091 15.0342 98.6045 15.3388C98.302 15.6413 98.0182 15.7656 97.75 15.7656V16.2656ZM99.9035 13.8183C99.3802 13.4113 98.9076 13.1001 98.4868 12.8897C98.0687 12.6806 97.6849 12.5625 97.3438 12.5625V13.0625C97.5756 13.0625 97.8792 13.1449 98.2632 13.3369C98.6445 13.5275 99.0886 13.8179 99.5965 14.213L99.9035 13.8183ZM97.2545 12.579C96.7144 12.7855 96.2908 12.9972 95.9978 13.2184C95.7117 13.4345 95.5 13.6984 95.5 14.0156H96C96 13.937 96.054 13.8025 96.2991 13.6175C96.5373 13.4377 96.9106 13.2458 97.433 13.046L97.2545 12.579ZM115.828 2.71875V2.46875H115.567L115.578 2.72975L115.828 2.71875ZM117.422 7.54688H117.172V7.79688H117.422V7.54688ZM122.25 6.73438H122.5V6.42777L122.2 6.48949L122.25 6.73438ZM117.828 8.75V9H117.845L117.862 8.99766L117.828 8.75ZM114.219 11.9531V11.7031H113.969V11.9531H114.219ZM115.016 12.3594H114.766V12.6318L115.037 12.6085L115.016 12.3594ZM126.656 11.9531H126.906V11.7031H126.656V11.9531ZM126.656 12.75V13H126.906V12.75H126.656ZM122.641 12.75V12.5H122.615L122.591 12.505L122.641 12.75ZM120.641 13.1562H120.391V13.4621L120.69 13.4012L120.641 13.1562ZM120.641 12.75H120.891V12.3419L120.527 12.5273L120.641 12.75ZM119.844 13.1562V13.4062H119.904L119.957 13.379L119.844 13.1562ZM114.219 13.1562H113.969V13.4062H114.219V13.1562ZM119.844 14.3594H120.094V14.1094H119.844V14.3594ZM126.25 18.375H126.5V18.125H126.25V18.375ZM126.25 19.1719L126.3 19.4169L126.5 19.3762V19.1719H126.25ZM124.25 19.5781V19.8281H124.275L124.3 19.8231L124.25 19.5781ZM123.047 19.5781L123.013 19.8258L123.03 19.8281H123.047V19.5781ZM119.031 15.1562L118.784 15.1175L118.781 15.1368V15.1562H119.031ZM115.828 2.96875H116.219V2.46875H115.828V2.96875ZM116.219 2.96875C116.33 2.96875 116.439 3.0151 116.551 3.1532C116.67 3.29879 116.784 3.53706 116.88 3.88985C117.071 4.59387 117.172 5.67233 117.172 7.14062H117.672C117.672 5.661 117.572 4.52852 117.362 3.75858C117.258 3.3744 117.121 3.05994 116.939 2.83703C116.751 2.60665 116.509 2.46875 116.219 2.46875V2.96875ZM117.172 7.14062V7.54688H117.672V7.14062H117.172ZM117.422 7.79688H117.828V7.29688H117.422V7.79688ZM117.828 7.79688C117.928 7.79688 118.097 7.77672 118.318 7.74327C118.545 7.70886 118.844 7.65755 119.213 7.58963C119.953 7.45375 120.982 7.25021 122.3 6.97926L122.2 6.48949C120.883 6.7602 119.857 6.96292 119.123 7.09787C118.755 7.16537 118.462 7.21562 118.243 7.24892C118.017 7.28317 117.884 7.29688 117.828 7.29688V7.79688ZM122 6.73438V7.14062H122.5V6.73438H122ZM122 7.14062C122 7.2042 121.967 7.29851 121.816 7.42254C121.663 7.54743 121.416 7.67814 121.059 7.80804C120.347 8.06703 119.263 8.29989 117.794 8.50234L117.862 8.99766C119.341 8.79386 120.468 8.55537 121.23 8.27789C121.61 8.13957 121.916 7.98577 122.132 7.80988C122.348 7.63313 122.5 7.41038 122.5 7.14062H122ZM117.828 8.5H117.422V9H117.828V8.5ZM117.422 8.5C117.311 8.5 117.179 8.44181 117.029 8.22904C116.876 8.01314 116.731 7.66923 116.601 7.17832C116.342 6.19973 116.166 4.71361 116.078 2.70775L115.578 2.72975C115.667 4.74472 115.845 6.27423 116.118 7.30606C116.254 7.82036 116.418 8.23035 116.62 8.51705C116.824 8.80689 117.09 9 117.422 9V8.5ZM114.219 12.2031C114.471 12.2031 114.623 12.2366 114.703 12.2774C114.739 12.296 114.752 12.3116 114.757 12.3185C114.76 12.3239 114.766 12.3344 114.766 12.3594H115.266C115.266 12.2489 115.238 12.1409 115.175 12.0448C115.113 11.9501 115.026 11.8811 114.93 11.832C114.744 11.7373 114.498 11.7031 114.219 11.7031V12.2031ZM115.037 12.6085C118.182 12.3377 120.449 12.2031 121.844 12.2031V11.7031C120.426 11.7031 118.141 11.8394 114.994 12.1103L115.037 12.6085ZM121.844 12.2031H126.656V11.7031H121.844V12.2031ZM126.406 11.9531V12.75H126.906V11.9531H126.406ZM126.656 12.5H122.641V13H126.656V12.5ZM122.591 12.505L120.591 12.9113L120.69 13.4012L122.69 12.995L122.591 12.505ZM120.891 13.1562V12.75H120.391V13.1562H120.891ZM120.527 12.5273L119.73 12.9335L119.957 13.379L120.754 12.9727L120.527 12.5273ZM119.844 12.9062H114.219V13.4062H119.844V12.9062ZM114.469 13.1562V11.9531H113.969V13.1562H114.469ZM119.594 14.3594C119.594 15.7303 119.901 16.8051 120.56 17.5382C121.224 18.2764 122.204 18.625 123.453 18.625V18.125C122.296 18.125 121.472 17.8043 120.932 17.204C120.388 16.5985 120.094 15.6656 120.094 14.3594H119.594ZM123.453 18.625H126.25V18.125H123.453V18.625ZM126 18.375V19.1719H126.5V18.375H126ZM126.2 18.9269L124.2 19.3331L124.3 19.8231L126.3 19.4169L126.2 18.9269ZM124.25 19.3281H123.047V19.8281H124.25V19.3281ZM123.081 19.3304C121.768 19.1517 120.82 18.7716 120.202 18.2164C119.593 17.6689 119.281 16.9292 119.281 15.9688H118.781C118.781 17.0499 119.139 17.9327 119.868 18.5883C120.589 19.2362 121.648 19.64 123.013 19.8258L123.081 19.3304ZM119.281 15.9688V15.1562H118.781V15.9688H119.281ZM119.278 15.195C119.315 14.961 119.388 14.8194 119.472 14.7371C119.551 14.6594 119.666 14.6094 119.844 14.6094V14.1094C119.564 14.1094 119.313 14.1922 119.122 14.3801C118.935 14.5634 118.831 14.8203 118.784 15.1175L119.278 15.195ZM146.406 1.67188V1.42188H146.156V1.67188H146.406ZM147.203 1.67188L147.45 1.63104L147.415 1.42188H147.203V1.67188ZM148 9.25H147.75V9.5H148V9.25ZM150.797 9.25H151.047V9H150.797V9.25ZM150.797 10.0469V10.2969H151.047V10.0469H150.797ZM147.609 12.4375L147.854 12.4873L147.859 12.4626V12.4375H147.609ZM147.203 14.4375V14.6875H147.407L147.448 14.4873L147.203 14.4375ZM146.406 14.4375L146.158 14.4122L146.13 14.6875H146.406V14.4375ZM146.812 10.4375L147.061 10.4628L147.089 10.1875H146.812V10.4375ZM146.016 10.4375H145.766V10.6875H146.016V10.4375ZM146.016 9.64062V9.39062H145.766V9.64062H146.016ZM146.812 9.64062V9.89062H147.08L147.062 9.62352L146.812 9.64062ZM137.641 3.65625H137.891V3.18575L137.501 3.44907L137.641 3.65625ZM136.844 4.85938V4.60938H136.516L136.603 4.92552L136.844 4.85938ZM138.031 10.0469H137.781V10.2969H138.031V10.0469ZM141.625 5.26562H141.875V4.97828L141.59 5.01803L141.625 5.26562ZM138.828 5.65625V5.90625H138.846L138.863 5.90385L138.828 5.65625ZM137.641 5.65625H137.391V5.90625H137.641V5.65625ZM137.641 4.85938L137.592 4.61408L137.391 4.65379V4.85938H137.641ZM139.625 4.46875V4.21875H139.601L139.577 4.22346L139.625 4.46875ZM142.422 4.46875L142.664 4.407L142.616 4.21875H142.422V4.46875ZM142.828 6.0625H143.078V6.03114L143.07 6.00075L142.828 6.0625ZM137.234 11.25L136.994 11.3196L137.047 11.5H137.234V11.25ZM136.438 4.46875L136.298 4.26157L136.188 4.33591V4.46875H136.438ZM141.625 14.0312H141.875V13.7812H141.625V14.0312ZM146.406 18.4219V18.6719H146.43L146.454 18.6672L146.406 18.4219ZM148.406 18.0312H148.656V17.7277L148.358 17.7859L148.406 18.0312ZM148.406 18.8281L148.475 19.0686L148.656 19.0168V18.8281H148.406ZM145.609 19.625L145.581 19.8734L145.63 19.879L145.678 19.8654L145.609 19.625ZM140.828 14.8281L140.581 14.7894L140.578 14.8086V14.8281H140.828ZM146.406 1.92188H147.203V1.42188H146.406V1.92188ZM146.956 1.71271C147.487 4.91608 147.75 7.42648 147.75 9.25H148.25C148.25 7.38602 147.982 4.84433 147.45 1.63104L146.956 1.71271ZM148 9.5H150.797V9H148V9.5ZM150.547 9.25V10.0469H151.047V9.25H150.547ZM150.797 9.79688C149.71 9.79688 148.85 9.99933 148.256 10.4445C147.649 10.8999 147.359 11.5796 147.359 12.4375H147.859C147.859 11.7016 148.101 11.1861 148.556 10.8445C149.025 10.4929 149.758 10.2969 150.797 10.2969V9.79688ZM147.364 12.3877L146.958 14.3877L147.448 14.4873L147.854 12.4873L147.364 12.3877ZM147.203 14.1875H146.406V14.6875H147.203V14.1875ZM146.655 14.4628L147.061 10.4628L146.564 10.4122L146.158 14.4122L146.655 14.4628ZM146.812 10.1875H146.016V10.6875H146.812V10.1875ZM146.266 10.4375V9.64062H145.766V10.4375H146.266ZM146.016 9.89062H146.812V9.39062H146.016V9.89062ZM147.062 9.62352C146.791 5.67439 146.656 3.02654 146.656 1.67188H146.156C146.156 3.04638 146.292 5.71103 146.563 9.65773L147.062 9.62352ZM137.391 3.65625V4.0625H137.891V3.65625H137.391ZM137.391 4.0625C137.391 4.28959 137.334 4.41399 137.265 4.48338C137.195 4.55277 137.071 4.60938 136.844 4.60938V5.10938C137.148 5.10938 137.422 5.03317 137.618 4.83693C137.814 4.6407 137.891 4.36666 137.891 4.0625H137.391ZM136.603 4.92552C136.998 6.36678 137.294 7.51654 137.491 8.3761C137.69 9.24609 137.781 9.7936 137.781 10.0469H138.281C138.281 9.72723 138.175 9.12371 137.978 8.26453C137.779 7.39492 137.481 6.23739 137.085 4.79323L136.603 4.92552ZM138.031 10.2969H138.828V9.79688H138.031V10.2969ZM138.828 10.2969C139.848 10.2969 140.63 9.85225 141.142 8.97779C141.641 8.12401 141.875 6.87556 141.875 5.26562H141.375C141.375 6.84319 141.143 7.98536 140.71 8.72533C140.289 9.44462 139.673 9.79688 138.828 9.79688V10.2969ZM141.59 5.01803L138.794 5.40865L138.863 5.90385L141.66 5.51322L141.59 5.01803ZM138.828 5.40625H137.641V5.90625H138.828V5.40625ZM137.891 5.65625V4.85938H137.391V5.65625H137.891ZM137.689 5.10467L139.673 4.71404L139.577 4.22346L137.592 4.61408L137.689 5.10467ZM139.625 4.71875H142.422V4.21875H139.625V4.71875ZM142.18 4.5305L142.586 6.12425L143.07 6.00075L142.664 4.407L142.18 4.5305ZM142.578 6.0625C142.578 7.76652 142.248 8.99862 141.63 9.80047C141.021 10.59 140.103 11 138.828 11V11.5C140.22 11.5 141.302 11.0454 142.026 10.1058C142.741 9.17846 143.078 7.81682 143.078 6.0625H142.578ZM138.828 11H137.234V11.5H138.828V11ZM137.475 11.1804C136.952 9.37682 136.688 7.14149 136.688 4.46875H136.188C136.188 7.17101 136.454 9.45652 136.994 11.3196L137.475 11.1804ZM136.577 4.67593L137.781 3.86343L137.501 3.44907L136.298 4.26157L136.577 4.67593ZM141.375 14.0312C141.375 15.5333 141.751 16.7058 142.546 17.501C143.341 18.2962 144.514 18.6719 146.016 18.6719V18.1719C144.591 18.1719 143.568 17.8158 142.899 17.1474C142.231 16.4791 141.875 15.4563 141.875 14.0312H141.375ZM146.016 18.6719H146.406V18.1719H146.016V18.6719ZM146.454 18.6672L148.454 18.2766L148.358 17.7859L146.358 18.1765L146.454 18.6672ZM148.156 18.0312V18.8281H148.656V18.0312H148.156ZM148.338 18.5877L145.541 19.3846L145.678 19.8654L148.475 19.0686L148.338 18.5877ZM145.638 19.3766C144.068 19.1971 142.928 18.7823 142.184 18.1598C141.45 17.5461 141.078 16.711 141.078 15.625H140.578C140.578 16.841 141.003 17.8236 141.863 18.5433C142.713 19.2541 143.963 19.6883 145.581 19.8734L145.638 19.3766ZM141.078 15.625V14.8281H140.578V15.625H141.078ZM141.075 14.8669C141.112 14.6318 141.184 14.4896 141.267 14.4072C141.344 14.3302 141.454 14.2812 141.625 14.2812V13.7812C141.348 13.7812 141.102 13.8651 140.913 14.0537C140.73 14.237 140.628 14.4932 140.581 14.7894L141.075 14.8669ZM154.891 2.03125L155.107 1.90656L154.641 1.09552V2.03125H154.891ZM160.484 5.625L160.512 5.87348L160.734 5.84881V5.625H160.484ZM153.297 6.42188V6.67188H153.311L153.324 6.67035L153.297 6.42188ZM152.5 6.42188H152.25V6.67188H152.5V6.42188ZM152.5 5.625L152.455 5.37914L152.25 5.41688V5.625H152.5ZM155.703 5.21875V5.46875H156.152L155.916 5.08716L155.703 5.21875ZM164.484 4.82812V4.57812H164.426L164.374 4.60364L164.484 4.82812ZM164.891 4.82812H165.141V4.57812H164.891V4.82812ZM164.891 13.2188L165.113 13.3323L165.141 13.2788V13.2188H164.891ZM164.484 14.0156L164.262 13.9021L164.076 14.2656H164.484V14.0156ZM164.891 14.4062H164.641V14.8285L165.011 14.6255L164.891 14.4062ZM169.688 13.6094H169.938V13.3594H169.688V13.6094ZM169.688 14.4062L169.721 14.654L169.938 14.6247V14.4062H169.688ZM164.484 15.6094L164.733 15.6367L164.734 15.6231V15.6094H164.484ZM164.094 20V20.25H164.344V20H164.094ZM163.688 20L163.577 20.2245L163.63 20.25H163.688V20ZM162.891 19.6094L162.643 19.5732L162.617 19.7536L162.781 19.8339L162.891 19.6094ZM163.688 5.21875L163.577 4.99427L163.438 5.06288V5.21875H163.688ZM155.703 7.625V7.375H155.642L155.588 7.40315L155.703 7.625ZM160.484 9.625H160.734V9.57185L160.713 9.5233L160.484 9.625ZM160.484 10.4219L160.707 10.5351L160.734 10.4817V10.4219H160.484ZM154.5 11.2188H154.25V11.2522L154.259 11.2845L154.5 11.2188ZM155.297 10.4219H155.047V10.4414L155.05 10.4606L155.297 10.4219ZM157.297 11.2188V11.4688H157.322L157.347 11.4637L157.297 11.2188ZM159.297 10.8125L159.347 11.0575L159.547 11.0168V10.8125H159.297ZM157.688 8.42188H157.438V8.58842L157.591 8.65258L157.688 8.42188ZM157.688 8.01562H157.938V7.70397L157.633 7.77158L157.688 8.01562ZM158.5 14.4062V14.1562H158.423L158.36 14.1991L158.5 14.4062ZM158.891 14.4062H159.141V14.1562H158.891V14.4062ZM158.891 14.8125L159.136 14.8604L159.141 14.8367V14.8125H158.891ZM158.5 16.8125L158.255 16.7646L158.218 16.9526L158.39 17.037L158.5 16.8125ZM159.297 17.2031L159.187 17.4276L159.239 17.4531H159.297V17.2031ZM159.688 17.2031V17.4531H159.705L159.722 17.4507L159.688 17.2031ZM162.484 16.8125H162.734V16.5252L162.45 16.5649L162.484 16.8125ZM153.703 18.8125V19.0626L153.71 19.0624L153.703 18.8125ZM153.297 18.8125H153.047V19.0625H153.297V18.8125ZM157.688 17.2031L157.722 17.4508L157.938 17.4208V17.2031H157.688ZM157.688 16.8125H157.938V16.7477L157.906 16.6911L157.688 16.8125ZM157.297 15.2188L157.157 15.0116L157.047 15.0859V15.2188H157.297ZM154.674 2.15594C155.218 3.1011 155.769 3.82606 156.332 4.31722C156.896 4.80968 157.484 5.07812 158.094 5.07812V4.57812C157.641 4.57812 157.164 4.38042 156.661 3.94059C156.155 3.49946 155.636 2.82599 155.107 1.90656L154.674 2.15594ZM158.094 5.07812C158.883 5.07812 159.448 5.14473 159.808 5.26451C160.173 5.38644 160.234 5.52544 160.234 5.625H160.734C160.734 5.19331 160.397 4.93387 159.966 4.79017C159.528 4.64433 158.898 4.57812 158.094 4.57812V5.07812ZM160.457 5.37652L153.269 6.1734L153.324 6.67035L160.512 5.87348L160.457 5.37652ZM153.297 6.17188H152.5V6.67188H153.297V6.17188ZM152.75 6.42188V5.625H152.25V6.42188H152.75ZM152.545 5.87086C154.013 5.60025 155.061 5.46875 155.703 5.46875V4.96875C155.012 4.96875 153.925 5.10808 152.455 5.37914L152.545 5.87086ZM155.916 5.08716C155.388 4.23551 155.141 3.48445 155.141 2.82812H154.641C154.641 3.6093 154.934 4.45199 155.491 5.35034L155.916 5.08716ZM155.141 2.82812V2.03125H154.641V2.82812H155.141ZM164.484 5.07812H164.891V4.57812H164.484V5.07812ZM164.641 4.82812V13.2188H165.141V4.82812H164.641ZM164.668 13.1052L164.262 13.9021L164.707 14.1292L165.113 13.3323L164.668 13.1052ZM164.484 14.2656C164.584 14.2656 164.612 14.2896 164.616 14.2935C164.618 14.2956 164.641 14.3171 164.641 14.4062H165.141C165.141 14.235 165.096 14.0612 164.962 13.9331C164.831 13.8067 164.656 13.7656 164.484 13.7656V14.2656ZM165.011 14.6255C165.941 14.1154 166.962 13.8594 168.078 13.8594V13.3594C166.882 13.3594 165.778 13.6346 164.77 14.187L165.011 14.6255ZM168.078 13.8594H169.688V13.3594H168.078V13.8594ZM169.438 13.6094V14.4062H169.938V13.6094H169.438ZM169.654 14.1585C167.918 14.3931 166.608 14.6118 165.729 14.815C165.291 14.9162 164.949 15.0161 164.712 15.1165C164.595 15.1661 164.489 15.2217 164.409 15.2867C164.334 15.3468 164.234 15.4536 164.234 15.6094H164.734C164.734 15.6818 164.689 15.7032 164.723 15.6757C164.751 15.6532 164.808 15.619 164.907 15.5769C165.104 15.4937 165.412 15.4015 165.841 15.3022C166.697 15.1043 167.988 14.8881 169.721 14.654L169.654 14.1585ZM164.236 15.582C163.976 17.941 163.844 19.4205 163.844 20H164.344C164.344 19.4545 164.472 18.007 164.733 15.6367L164.236 15.582ZM164.094 19.75H163.688V20.25H164.094V19.75ZM163.798 19.7755L163.001 19.3849L162.781 19.8339L163.577 20.2245L163.798 19.7755ZM163.138 19.6455C163.672 15.9931 163.938 11.1827 163.938 5.21875H163.438C163.438 11.1714 163.172 15.9548 162.643 19.5732L163.138 19.6455ZM163.798 5.44323L164.594 5.05261L164.374 4.60364L163.577 4.99427L163.798 5.44323ZM155.703 7.875H156.5V7.375H155.703V7.875ZM156.5 7.875C158.511 7.875 159.719 8.52025 160.256 9.7267L160.713 9.5233C160.062 8.06308 158.614 7.375 156.5 7.375V7.875ZM160.234 9.625V10.4219H160.734V9.625H160.234ZM160.261 10.3087C159.939 10.9428 159.533 11.4051 159.047 11.7101C158.561 12.0148 157.981 12.1719 157.297 12.1719V12.6719C158.06 12.6719 158.736 12.4956 159.313 12.1336C159.889 11.772 160.352 11.2343 160.707 10.5351L160.261 10.3087ZM157.297 12.1719H156.891V12.6719H157.297V12.1719ZM156.891 12.1719C156.223 12.1719 155.724 12.0738 155.374 11.8978C155.034 11.7265 154.83 11.4802 154.741 11.153L154.259 11.2845C154.388 11.7594 154.693 12.1146 155.149 12.3444C155.596 12.5694 156.183 12.6719 156.891 12.6719V12.1719ZM154.75 11.2188V8.8125H154.25V11.2188H154.75ZM154.75 8.8125C154.75 8.71907 154.8 8.58661 154.976 8.4123C155.152 8.2393 155.428 8.04972 155.818 7.84685L155.588 7.40315C155.176 7.61695 154.851 7.83362 154.625 8.05645C154.401 8.27798 154.25 8.53093 154.25 8.8125H154.75ZM155.047 9.21875V10.4219H155.547V9.21875H155.047ZM155.05 10.4606C155.096 10.7568 155.199 11.013 155.382 11.1963C155.57 11.3849 155.817 11.4688 156.094 11.4688V10.9688C155.922 10.9688 155.812 10.9198 155.735 10.8428C155.653 10.7604 155.581 10.6182 155.544 10.3831L155.05 10.4606ZM156.094 11.4688H157.297V10.9688H156.094V11.4688ZM157.347 11.4637L159.347 11.0575L159.247 10.5675L157.247 10.9738L157.347 11.4637ZM159.547 10.8125C159.547 10.1996 159.403 9.66297 159.102 9.21586C158.801 8.769 158.356 8.42997 157.784 8.19117L157.591 8.65258C158.092 8.8617 158.452 9.14506 158.687 9.49508C158.923 9.84484 159.047 10.2796 159.047 10.8125H159.547ZM157.938 8.42188V8.01562H157.438V8.42188H157.938ZM157.633 7.77158C156.83 7.9501 156.208 8.14421 155.782 8.35872C155.569 8.46589 155.391 8.58479 155.264 8.7205C155.134 8.85863 155.047 9.02594 155.047 9.21875H155.547C155.547 9.18761 155.559 9.13681 155.629 9.0627C155.7 8.98617 155.821 8.89869 156.007 8.80535C156.378 8.61881 156.951 8.43532 157.742 8.25967L157.633 7.77158ZM158.5 14.6562H158.891V14.1562H158.5V14.6562ZM158.641 14.4062V14.8125H159.141V14.4062H158.641ZM158.645 14.7646L158.255 16.7646L158.745 16.8604L159.136 14.8604L158.645 14.7646ZM158.39 17.037L159.187 17.4276L159.407 16.9786L158.61 16.588L158.39 17.037ZM159.297 17.4531H159.688V16.9531H159.297V17.4531ZM159.722 17.4507L162.519 17.0601L162.45 16.5649L159.653 16.9555L159.722 17.4507ZM162.234 16.8125V17.2031H162.734V16.8125H162.234ZM162.234 17.2031C162.234 17.2794 162.174 17.4219 161.824 17.5954C161.49 17.7614 160.968 17.9143 160.244 18.0471C158.8 18.3117 156.62 18.4845 153.696 18.5626L153.71 19.0624C156.64 18.9842 158.851 18.8107 160.334 18.5389C161.073 18.4034 161.649 18.2405 162.047 18.0433C162.429 17.8535 162.734 17.5852 162.734 17.2031H162.234ZM153.703 18.5625H153.297V19.0625H153.703V18.5625ZM153.547 18.8125C153.547 18.7482 153.58 18.6538 153.73 18.53C153.882 18.4053 154.126 18.2747 154.481 18.1449C155.187 17.886 156.263 17.6532 157.722 17.4508L157.653 16.9555C156.185 17.1593 155.066 17.3978 154.308 17.6754C153.931 17.8138 153.627 17.9677 153.413 18.1438C153.197 18.3208 153.047 18.5435 153.047 18.8125H153.547ZM157.938 17.2031V16.8125H157.438V17.2031H157.938ZM157.906 16.6911C157.668 16.2633 157.547 15.7747 157.547 15.2188H157.047C157.047 15.8503 157.186 16.4242 157.469 16.9339L157.906 16.6911ZM157.437 15.4259L158.64 14.6134L158.36 14.1991L157.157 15.0116L157.437 15.4259Z" fill="#222222"/>
</svg>
