<svg width="173" height="26" viewBox="0 0 173 26" fill="none" xmlns="http://www.w3.org/2000/svg">
<path d="M16.9062 3.03125H18.1094V3.4375C18.1094 4.10417 18.2448 5.16667 18.5156 6.625C17.6302 14.4583 16.9635 18.9844 16.5156 20.2031C16.5156 20.474 16.3802 20.6094 16.1094 20.6094V13.4219L16.5156 12.6094H10.9219V11.8125L15.7188 11.4219H16.5156V10.625L16.9062 7.82812H16.5156C15.9948 8.08854 15.5938 8.21875 15.3125 8.21875V7.82812C13.9479 8.35938 12.8854 8.625 12.125 8.625V8.21875L11.3281 8.625C10.8073 8.35417 10.4062 8.21875 10.125 8.21875V7.42188C14.9167 7.42188 17.3125 6.75521 17.3125 5.42188L16.9062 4.625V3.03125ZM3.73438 7.03125H4.9375C5.29167 7.03125 5.95312 7.69271 6.92188 9.01562V9.82812C6.92188 11.6823 5.85938 12.6094 3.73438 12.6094C1.86979 12.6094 0.9375 11.4115 0.9375 9.01562C1.3125 7.69271 2.24479 7.03125 3.73438 7.03125ZM3.73438 7.82812C3.73438 8.35938 3.33333 8.625 2.53125 8.625V11.4219H3.73438C5.11979 11.4219 5.91667 11.0208 6.125 10.2188V9.42188C6.125 8.90104 5.32812 8.36979 3.73438 7.82812ZM31.3906 4.65625H31.7969C32.3281 4.73958 32.5938 5.00521 32.5938 5.45312C32.5938 6.53646 32.724 8.93229 32.9844 12.6406C32.724 16.099 32.1927 17.8281 31.3906 17.8281H31C31.5312 13.8906 31.7969 11.4948 31.7969 10.6406C31.526 9.00521 31.3906 7.01042 31.3906 4.65625ZM20.625 7.84375H21.0156C21.2865 7.84375 21.4219 7.97917 21.4219 8.25L23.4062 7.84375H27C27 9.84375 25.5365 12.2396 22.6094 15.0312H22.2188L25.4062 9.04688H23.4062L20.625 8.64062V7.84375ZM29 16.2344V16.625C27.9896 17.6562 27.0573 18.8542 26.2031 20.2188V20.625C26.2031 20.9792 26.8698 21.6406 28.2031 22.6094L32.9844 17.8281H33.3906V19.0156C32.3281 19.0156 31.7969 19.9479 31.7969 21.8125C32.276 21.8125 33.0729 22.7448 34.1875 24.6094V25.0156H33.3906L30.2031 22.2188C30.2031 23.5417 29.1354 24.2031 27 24.2031C27 23.7344 26.4688 22.6719 25.4062 21.0156L21.4219 23.8125H20.2188V23.4062C23.1146 21.2292 25.6406 18.8385 27.7969 16.2344H29ZM46.3125 3.73438H47.1094V8.54688L47.5156 11.3594C47.2448 11.3594 47.1094 11.4896 47.1094 11.75H48.3125L50.3281 11.3594L50.7188 12.1562V12.5625H47.5156V14.1562L47.1094 18.9844H46.3125C46.3125 18.6927 46.1771 18.2917 45.9062 17.7812L46.3125 15.375C46.3125 14.7708 46.1771 14.2344 45.9062 13.7656C45.9062 13.4948 46.0417 13.3594 46.3125 13.3594L45.9062 8.54688V6.54688L46.3125 3.73438ZM41.5 7.75C42.0104 8.01042 42.4115 8.14062 42.7031 8.14062V8.95312L37.4844 9.75V13.3594C37.4844 13.8906 37.8854 14.1562 38.6875 14.1562C40.1354 14.1562 41.6042 13.7552 43.0938 12.9531V13.3594C42.0729 14.7031 40.3333 15.375 37.875 15.375C36.8125 15.1042 36.2812 14.2969 36.2812 12.9531L36.6719 10.1562H35.875C35.875 9.26042 37.75 8.45833 41.5 7.75ZM69.7344 3.73438H70.5312C71.0625 5.58854 71.3281 7.19271 71.3281 8.54688C71.3281 10.224 71.1979 12.2292 70.9375 14.5625L71.3281 16.9688H70.5312C70 16.9688 69.7344 16.7031 69.7344 16.1719V3.73438ZM60.5 6.54688H61.2969C61.4219 10.0156 61.8229 11.75 62.5 11.75L66.5156 10.5469V10.9531C65.4427 12.2865 64.2396 12.9531 62.9062 12.9531H62.1094C61.0365 12.526 60.5 11.5938 60.5 10.1562V6.54688ZM85.7969 0.65625C86.599 7.57292 87 12.6302 87 15.8281V19.8125C85.6667 19.8125 85 13.5625 85 1.0625L85.7969 0.65625ZM73.0312 7.84375H81.8125V8.64062L76.2188 16.625H75.8281V15.4375C78.0365 11.9479 79.5 9.81771 80.2188 9.04688C79.9479 9.04688 79.8125 8.91146 79.8125 8.64062L79.0156 9.04688H73.0312V7.84375ZM87.4062 11.8438H91.3906C91.3906 12.375 90.1927 12.7708 87.7969 13.0312L87.4062 12.2344V11.8438ZM101.188 0.625C104.115 0.895833 105.578 1.43229 105.578 2.23438C105.578 2.76562 105.312 3.03125 104.781 3.03125C104.781 2.22917 103.583 1.5625 101.188 1.03125V0.625ZM109.984 2.23438H110.375C111.177 2.23438 111.578 3.69792 111.578 6.625V7.42188H115.578V8.625C113.557 8.35417 112.224 8.08854 111.578 7.82812V11.0156L111.172 13.0156H110.375V10.2188C110.375 9.61458 110.245 9.08333 109.984 8.625C110.245 8.15625 110.375 7.61979 110.375 7.01562C110.375 6.58854 110.245 4.99479 109.984 2.23438ZM101.984 4.21875H103.578C105.391 4.5 106.323 4.90104 106.375 5.42188C106.312 5.88021 105.651 6.94792 104.391 8.625C105.234 8.625 106.432 9.02083 107.984 9.8125V10.625H106.781L103.984 9.01562C102.984 10.6198 102.318 11.4219 101.984 11.4219H101.188C101.188 10.9531 102.385 9.21875 104.781 6.21875V5.42188H102.781C102.25 5.42188 101.984 5.15625 101.984 4.625V4.21875ZM110.781 14.2188H111.172V14.6094C111.172 15.4115 110.641 16.6094 109.578 18.2031C111.974 19.474 113.172 20.276 113.172 20.6094V21.4062H112.781L108.375 19.0156C108.375 19.3698 107.708 20.0312 106.375 21H105.188V19.8125L105.984 20.2031C106.87 19.401 108.068 17.8021 109.578 15.4062H109.172C107.349 15.6771 105.885 15.8125 104.781 15.8125V15.0156C107.292 14.4844 109.292 14.2188 110.781 14.2188ZM118.891 1.71875H119.281C120.083 1.71875 120.484 3.19271 120.484 6.14062V6.54688H120.891C121.203 6.54688 122.677 6.27604 125.312 5.73438V6.14062C125.312 6.80729 123.839 7.34375 120.891 7.75H120.484C119.599 7.75 119.068 5.73958 118.891 1.71875ZM117.281 10.9531C117.812 10.9531 118.078 11.0885 118.078 11.3594C121.224 11.0885 123.5 10.9531 124.906 10.9531H129.719V11.75H125.703L123.703 12.1562V11.75L122.906 12.1562H117.281V10.9531ZM122.906 13.3594C122.906 16.0365 124.109 17.375 126.516 17.375H129.312V18.1719L127.312 18.5781H126.109C123.432 18.2135 122.094 17.0104 122.094 14.9688V14.1562C122.177 13.625 122.448 13.3594 122.906 13.3594ZM149.469 0.671875H150.266C150.797 3.88021 151.062 6.40625 151.062 8.25H153.859V9.04688C151.734 9.04688 150.672 9.84375 150.672 11.4375L150.266 13.4375H149.469L149.875 9.4375H149.078V8.64062H149.875C149.604 4.69271 149.469 2.03646 149.469 0.671875ZM140.703 2.65625V3.0625C140.703 3.59375 140.438 3.85938 139.906 3.85938C140.698 6.74479 141.094 8.47396 141.094 9.04688H141.891C143.755 9.04688 144.688 7.45312 144.688 4.26562L141.891 4.65625H140.703V3.85938L142.688 3.46875H145.484L145.891 5.0625C145.891 8.52083 144.557 10.25 141.891 10.25H140.297C139.766 8.41667 139.5 6.15625 139.5 3.46875L140.703 2.65625ZM144.688 13.0312C144.688 15.9583 146.151 17.4219 149.078 17.4219H149.469L151.469 17.0312V17.8281L148.672 18.625C145.484 18.2604 143.891 16.9271 143.891 14.625V13.8281C143.974 13.2969 144.24 13.0312 144.688 13.0312ZM157.953 1.03125C159.026 2.89583 160.094 3.82812 161.156 3.82812C162.75 3.82812 163.547 4.09375 163.547 4.625L156.359 5.42188H155.562V4.625C157.031 4.35417 158.099 4.21875 158.766 4.21875C158.224 3.34375 157.953 2.54688 157.953 1.82812V1.03125ZM167.547 3.82812H167.953V12.2188L167.547 13.0156C167.818 13.0156 167.953 13.1458 167.953 13.4062C168.922 12.875 169.984 12.6094 171.141 12.6094H172.75V13.4062C169.281 13.875 167.547 14.276 167.547 14.6094C167.286 16.974 167.156 18.4375 167.156 19H166.75L165.953 18.6094C166.484 14.974 166.75 10.1771 166.75 4.21875L167.547 3.82812ZM158.766 6.625H159.562C161.625 6.625 162.953 7.29167 163.547 8.625V9.42188C162.87 10.7552 161.807 11.4219 160.359 11.4219H159.953C158.578 11.4219 157.781 11.0208 157.562 10.2188V7.8125C157.562 7.4375 157.964 7.04167 158.766 6.625ZM158.359 8.21875V9.42188C158.443 9.95312 158.708 10.2188 159.156 10.2188H160.359L162.359 9.8125C162.359 8.66667 161.823 7.86979 160.75 7.42188V7.01562C159.156 7.36979 158.359 7.77083 158.359 8.21875ZM161.562 13.4062H161.953V13.8125L161.562 15.8125L162.359 16.2031H162.75L165.547 15.8125V16.2031C165.547 17.1198 162.62 17.6562 156.766 17.8125H156.359C156.359 17.1458 157.823 16.6094 160.75 16.2031V15.8125C160.49 15.3438 160.359 14.8125 160.359 14.2188L161.562 13.4062Z" fill="#222222"/>
<path d="M16.9062 3.03125V2.78125H16.6562V3.03125H16.9062ZM18.1094 3.03125H18.3594V2.78125H18.1094V3.03125ZM18.5156 6.625L18.764 6.65308L18.7682 6.61602L18.7614 6.57935L18.5156 6.625ZM16.5156 20.2031L16.281 20.1169L16.2656 20.1586V20.2031H16.5156ZM16.1094 20.6094H15.8594V20.8594H16.1094V20.6094ZM16.1094 13.4219L15.8858 13.3101L15.8594 13.3629V13.4219H16.1094ZM16.5156 12.6094L16.7392 12.7212L16.9201 12.3594H16.5156V12.6094ZM10.9219 12.6094H10.6719V12.8594H10.9219V12.6094ZM10.9219 11.8125L10.9016 11.5633L10.6719 11.582V11.8125H10.9219ZM15.7188 11.4219V11.1719H15.7086L15.6985 11.1727L15.7188 11.4219ZM16.5156 11.4219V11.6719H16.7656V11.4219H16.5156ZM16.5156 10.625L16.268 10.5904L16.2656 10.6076V10.625H16.5156ZM16.9062 7.82812L17.1538 7.86271L17.1936 7.57812H16.9062V7.82812ZM16.5156 7.82812V7.57812H16.4566L16.4038 7.60452L16.5156 7.82812ZM15.3125 8.21875H15.0625V8.46875H15.3125V8.21875ZM15.3125 7.82812H15.5625V7.46252L15.2218 7.59516L15.3125 7.82812ZM12.125 8.625H11.875V8.875H12.125V8.625ZM12.125 8.21875H12.375V7.81069L12.0115 7.99602L12.125 8.21875ZM11.3281 8.625L11.2128 8.8468L11.327 8.90619L11.4417 8.84773L11.3281 8.625ZM10.125 8.21875H9.875V8.46875H10.125V8.21875ZM10.125 7.42188V7.17188H9.875V7.42188H10.125ZM17.3125 5.42188H17.5625V5.36183L17.5352 5.30833L17.3125 5.42188ZM16.9062 4.625H16.6562V4.68505L16.6835 4.73855L16.9062 4.625ZM6.92188 9.01562H7.17188V8.93388L7.12358 8.86792L6.92188 9.01562ZM0.9375 9.01562L0.696977 8.94744L0.6875 8.98088V9.01562H0.9375ZM3.73438 7.82812L3.81482 7.59142L3.48438 7.47911V7.82812H3.73438ZM2.53125 8.625V8.375H2.28125V8.625H2.53125ZM2.53125 11.4219H2.28125V11.6719H2.53125V11.4219ZM6.125 10.2188L6.36697 10.2816L6.375 10.2507V10.2188H6.125ZM16.9062 3.28125H18.1094V2.78125H16.9062V3.28125ZM17.8594 3.03125V3.4375H18.3594V3.03125H17.8594ZM17.8594 3.4375C17.8594 4.12896 17.9987 5.21095 18.2698 6.67065L18.7614 6.57935C18.4908 5.12239 18.3594 4.07938 18.3594 3.4375H17.8594ZM18.2672 6.59692C17.8246 10.5125 17.437 13.5991 17.1042 15.8581C16.7698 18.1285 16.4942 19.5367 16.281 20.1169L16.7503 20.2894C16.985 19.6508 17.2667 18.1866 17.5989 15.931C17.9328 13.6639 18.3212 10.5709 18.764 6.65308L18.2672 6.59692ZM16.2656 20.2031C16.2656 20.3 16.2416 20.3267 16.2373 20.331C16.233 20.3353 16.2063 20.3594 16.1094 20.3594V20.8594C16.2833 20.8594 16.4597 20.8157 16.5908 20.6846C16.722 20.5535 16.7656 20.3771 16.7656 20.2031H16.2656ZM16.3594 20.6094V13.4219H15.8594V20.6094H16.3594ZM16.333 13.5337L16.7392 12.7212L16.292 12.4976L15.8858 13.3101L16.333 13.5337ZM16.5156 12.3594H10.9219V12.8594H16.5156V12.3594ZM11.1719 12.6094V11.8125H10.6719V12.6094H11.1719ZM10.9422 12.0617L15.739 11.6711L15.6985 11.1727L10.9016 11.5633L10.9422 12.0617ZM15.7188 11.6719H16.5156V11.1719H15.7188V11.6719ZM16.7656 11.4219V10.625H16.2656V11.4219H16.7656ZM16.7632 10.6596L17.1538 7.86271L16.6587 7.79354L16.268 10.5904L16.7632 10.6596ZM16.9062 7.57812H16.5156V8.07812H16.9062V7.57812ZM16.4038 7.60452C15.8882 7.86233 15.5317 7.96875 15.3125 7.96875V8.46875C15.6558 8.46875 16.1014 8.31476 16.6274 8.05173L16.4038 7.60452ZM15.5625 8.21875V7.82812H15.0625V8.21875H15.5625ZM15.2218 7.59516C13.8644 8.1236 12.8375 8.375 12.125 8.375V8.875C12.9334 8.875 14.0314 8.59515 15.4032 8.06109L15.2218 7.59516ZM12.375 8.625V8.21875H11.875V8.625H12.375ZM12.0115 7.99602L11.2146 8.40227L11.4417 8.84773L12.2385 8.44148L12.0115 7.99602ZM11.4435 8.4032C10.9177 8.1298 10.4707 7.96875 10.125 7.96875V8.46875C10.3418 8.46875 10.6969 8.57853 11.2128 8.8468L11.4435 8.4032ZM10.375 8.21875V7.42188H9.875V8.21875H10.375ZM10.125 7.67188C12.5267 7.67188 14.3511 7.50541 15.5826 7.16272C16.1978 6.99156 16.6854 6.77106 17.0235 6.48879C17.3691 6.20029 17.5625 5.8423 17.5625 5.42188H17.0625C17.0625 5.66811 16.9564 5.89346 16.7031 6.10496C16.4422 6.32269 16.0314 6.51886 15.4486 6.68103C14.2843 7.00501 12.515 7.17188 10.125 7.17188V7.67188ZM17.5352 5.30833L17.129 4.51145L16.6835 4.73855L17.0898 5.53542L17.5352 5.30833ZM17.1562 4.625V3.03125H16.6562V4.625H17.1562ZM3.73438 7.28125H4.9375V6.78125H3.73438V7.28125ZM4.9375 7.28125C4.95413 7.28125 5.01236 7.29185 5.12431 7.36476C5.23112 7.43433 5.3635 7.54518 5.52244 7.70412C5.83985 8.02152 6.23864 8.50574 6.72017 9.16333L7.12358 8.86792C6.63636 8.20259 6.22005 7.69462 5.876 7.35057C5.70421 7.17878 5.54427 7.04159 5.39718 6.94579C5.25522 6.85333 5.09795 6.78125 4.9375 6.78125V7.28125ZM6.67188 9.01562V9.82812H7.17188V9.01562H6.67188ZM6.67188 9.82812C6.67188 10.7071 6.4216 11.3235 5.96064 11.7257C5.49316 12.1336 4.76607 12.3594 3.73438 12.3594V12.8594C4.82768 12.8594 5.69434 12.6216 6.28936 12.1024C6.8909 11.5776 7.17188 10.8033 7.17188 9.82812H6.67188ZM3.73438 12.3594C2.85969 12.3594 2.24197 12.0816 1.83401 11.5574C1.41678 11.0213 1.1875 10.188 1.1875 9.01562H0.6875C0.6875 10.2391 0.924364 11.2027 1.43943 11.8645C1.96376 12.5382 2.74448 12.8594 3.73438 12.8594V12.3594ZM1.17802 9.08381C1.35325 8.46565 1.6519 8.02265 2.06263 7.73124C2.47533 7.43843 3.02579 7.28125 3.73438 7.28125V6.78125C2.95337 6.78125 2.2929 6.9548 1.77331 7.32345C1.25175 7.69349 0.896753 8.24268 0.696977 8.94744L1.17802 9.08381ZM3.48438 7.82812C3.48438 8.02022 3.41796 8.13627 3.29554 8.21735C3.15504 8.31041 2.91261 8.375 2.53125 8.375V8.875C2.95197 8.875 3.3111 8.80677 3.57164 8.63421C3.85027 8.44967 3.98438 8.16728 3.98438 7.82812H3.48438ZM2.28125 8.625V11.4219H2.78125V8.625H2.28125ZM2.53125 11.6719H3.73438V11.1719H2.53125V11.6719ZM3.73438 11.6719C4.44661 11.6719 5.03616 11.5695 5.48348 11.3444C5.94064 11.1143 6.24321 10.7581 6.36697 10.2816L5.88303 10.1559C5.79846 10.4815 5.59842 10.7268 5.25871 10.8978C4.90915 11.0737 4.40755 11.1719 3.73438 11.1719V11.6719ZM6.375 10.2188V9.42188H5.875V10.2188H6.375ZM6.375 9.42188C6.375 9.02749 6.07766 8.69922 5.66602 8.4248C5.24083 8.14134 4.61926 7.86483 3.81482 7.59142L3.65393 8.06483C4.44324 8.33309 5.01699 8.59304 5.38867 8.84083C5.77391 9.09765 5.875 9.29543 5.875 9.42188H6.375ZM31.3906 4.65625V4.40625H31.1406V4.65625H31.3906ZM31.7969 4.65625L31.8356 4.40927L31.8164 4.40625H31.7969V4.65625ZM32.9844 12.6406L33.2337 12.6594L33.235 12.6413L33.2338 12.6231L32.9844 12.6406ZM31 17.8281L30.7522 17.7947L30.714 18.0781H31V17.8281ZM31.7969 10.6406H32.0469V10.6201L32.0435 10.5998L31.7969 10.6406ZM20.625 7.84375V7.59375H20.375V7.84375H20.625ZM21.4219 8.25H21.1719V8.55637L21.472 8.49492L21.4219 8.25ZM23.4062 7.84375V7.59375H23.3809L23.3561 7.59883L23.4062 7.84375ZM27 7.84375H27.25V7.59375H27V7.84375ZM22.6094 15.0312V15.2812H22.7095L22.7819 15.2122L22.6094 15.0312ZM22.2188 15.0312L21.9981 14.9137L21.8023 15.2812H22.2188V15.0312ZM25.4062 9.04688L25.6269 9.1644L25.8227 8.79688H25.4062V9.04688ZM23.4062 9.04688L23.3701 9.29425L23.3881 9.29688H23.4062V9.04688ZM20.625 8.64062H20.375V8.85676L20.5889 8.888L20.625 8.64062ZM29 16.2344H29.25V15.9844H29V16.2344ZM29 16.625L29.1786 16.8L29.25 16.7271V16.625H29ZM26.2031 20.2188L25.9912 20.0861L25.9531 20.147V20.2188H26.2031ZM28.2031 22.6094L28.0562 22.8116L28.2289 22.9371L28.3799 22.7862L28.2031 22.6094ZM32.9844 17.8281V17.5781H32.8808L32.8076 17.6513L32.9844 17.8281ZM33.3906 17.8281H33.6406V17.5781H33.3906V17.8281ZM33.3906 19.0156V19.2656H33.6406V19.0156H33.3906ZM31.7969 21.8125H31.5469V22.0625H31.7969V21.8125ZM34.1875 24.6094H34.4375V24.5403L34.4021 24.4811L34.1875 24.6094ZM34.1875 25.0156V25.2656H34.4375V25.0156H34.1875ZM33.3906 25.0156L33.2257 25.2035L33.2965 25.2656H33.3906V25.0156ZM30.2031 22.2188L30.368 22.0308L29.9531 21.6668V22.2188H30.2031ZM27 24.2031H26.75V24.4531H27V24.2031ZM25.4062 21.0156L25.6167 20.8806L25.4759 20.6613L25.2626 20.811L25.4062 21.0156ZM21.4219 23.8125V24.0625H21.5009L21.5655 24.0171L21.4219 23.8125ZM20.2188 23.8125H19.9688V24.0625H20.2188V23.8125ZM20.2188 23.4062L20.0685 23.2064L19.9688 23.2814V23.4062H20.2188ZM27.7969 16.2344V15.9844H27.6793L27.6043 16.0749L27.7969 16.2344ZM31.3906 4.90625H31.7969V4.40625H31.3906V4.90625ZM31.7581 4.90323C31.9932 4.94011 32.1354 5.01239 32.2178 5.09475C32.2948 5.17181 32.3438 5.28179 32.3438 5.45312H32.8438C32.8438 5.17654 32.7599 4.92975 32.5713 4.74119C32.388 4.55792 32.1318 4.45572 31.8356 4.40927L31.7581 4.90323ZM32.3438 5.45312C32.3438 6.54696 32.4747 8.95213 32.735 12.6581L33.2338 12.6231C32.9732 8.91245 32.8438 6.52596 32.8438 5.45312H32.3438ZM32.7351 12.6219C32.6052 14.3461 32.4089 15.6205 32.1516 16.4578C32.0226 16.8778 31.8837 17.1694 31.7434 17.3512C31.6058 17.5298 31.4879 17.5781 31.3906 17.5781V18.0781C31.6944 18.0781 31.9437 17.9104 32.1394 17.6566C32.3325 17.4061 32.493 17.0493 32.6296 16.6047C32.9036 15.7128 33.1031 14.3935 33.2337 12.6594L32.7351 12.6219ZM31.3906 17.5781H31V18.0781H31.3906V17.5781ZM31.2478 17.8616C31.7779 13.932 32.0469 11.5158 32.0469 10.6406H31.5469C31.5469 11.4738 31.2846 13.8493 30.7522 17.7947L31.2478 17.8616ZM32.0435 10.5998C31.7756 8.98217 31.6406 7.00192 31.6406 4.65625H31.1406C31.1406 7.01891 31.2765 9.02825 31.5502 10.6815L32.0435 10.5998ZM20.625 8.09375H21.0156V7.59375H20.625V8.09375ZM21.0156 8.09375C21.1125 8.09375 21.1392 8.1178 21.1435 8.12209C21.1478 8.12638 21.1719 8.15312 21.1719 8.25H21.6719C21.6719 8.07605 21.6282 7.89966 21.4971 7.76854C21.366 7.63741 21.1896 7.59375 21.0156 7.59375V8.09375ZM21.472 8.49492L23.4564 8.08867L23.3561 7.59883L21.3717 8.00508L21.472 8.49492ZM23.4062 8.09375H27V7.59375H23.4062V8.09375ZM26.75 7.84375C26.75 9.73216 25.3584 12.0639 22.4368 14.8503L22.7819 15.2122C25.7145 12.4152 27.25 9.95534 27.25 7.84375H26.75ZM22.6094 14.7812H22.2188V15.2812H22.6094V14.7812ZM22.4394 15.1488L25.6269 9.1644L25.1856 8.92935L21.9981 14.9137L22.4394 15.1488ZM25.4062 8.79688H23.4062V9.29688H25.4062V8.79688ZM23.4424 8.7995L20.6611 8.39325L20.5889 8.888L23.3701 9.29425L23.4424 8.7995ZM20.875 8.64062V7.84375H20.375V8.64062H20.875ZM28.75 16.2344V16.625H29.25V16.2344H28.75ZM28.8214 16.45C27.7971 17.4955 26.8539 18.708 25.9912 20.0861L26.415 20.3514C27.2607 19.0004 28.1821 17.817 29.1786 16.8L28.8214 16.45ZM25.9531 20.2188V20.625H26.4531V20.2188H25.9531ZM25.9531 20.625C25.9531 20.786 26.026 20.9436 26.1191 21.0854C26.2157 21.2325 26.3539 21.3924 26.527 21.5642C26.8737 21.9082 27.3856 22.3244 28.0562 22.8116L28.3501 22.4071C27.6873 21.9256 27.1992 21.5267 26.8792 21.2092C26.719 21.0503 26.6072 20.9179 26.5371 20.8111C26.4636 20.699 26.4531 20.6411 26.4531 20.625H25.9531ZM28.3799 22.7862L33.1612 18.0049L32.8076 17.6513L28.0263 22.4326L28.3799 22.7862ZM32.9844 18.0781H33.3906V17.5781H32.9844V18.0781ZM33.1406 17.8281V19.0156H33.6406V17.8281H33.1406ZM33.3906 18.7656C32.7685 18.7656 32.2877 19.0478 31.9781 19.5911C31.6805 20.1134 31.5469 20.8647 31.5469 21.8125H32.0469C32.0469 20.8958 32.1789 20.2486 32.4125 19.8386C32.6342 19.4496 32.9503 19.2656 33.3906 19.2656V18.7656ZM31.7969 22.0625C31.8391 22.0625 31.9263 22.0854 32.0683 22.1892C32.2061 22.2898 32.3712 22.4487 32.5639 22.6742C32.9488 23.1245 33.4182 23.8097 33.9729 24.7376L34.4021 24.4811C33.8422 23.5444 33.3559 22.8312 32.9439 22.3493C32.7382 22.1086 32.5446 21.9179 32.3633 21.7854C32.1863 21.6561 31.9942 21.5625 31.7969 21.5625V22.0625ZM33.9375 24.6094V25.0156H34.4375V24.6094H33.9375ZM34.1875 24.7656H33.3906V25.2656H34.1875V24.7656ZM33.5555 24.8277L30.368 22.0308L30.0382 22.4067L33.2257 25.2035L33.5555 24.8277ZM29.9531 22.2188C29.9531 22.7992 29.7263 23.2122 29.2707 23.4945C28.7953 23.789 28.05 23.9531 27 23.9531V24.4531C28.0854 24.4531 28.9417 24.2865 29.534 23.9196C30.1461 23.5404 30.4531 22.9612 30.4531 22.2188H29.9531ZM27.25 24.2031C27.25 24.0449 27.2065 23.8598 27.1366 23.6583C27.0654 23.4532 26.9608 23.2142 26.8252 22.9429C26.5538 22.4002 26.1501 21.7121 25.6167 20.8806L25.1958 21.1506C25.7249 21.9754 26.118 22.6467 26.378 23.1665C26.5079 23.4265 26.6026 23.6445 26.6642 23.8222C26.7271 24.0035 26.75 24.127 26.75 24.2031H27.25ZM25.2626 20.811L21.2782 23.6079L21.5655 24.0171L25.5499 21.2202L25.2626 20.811ZM21.4219 23.5625H20.2188V24.0625H21.4219V23.5625ZM20.4688 23.8125V23.4062H19.9688V23.8125H20.4688ZM20.369 23.6061C23.2793 21.4181 25.8198 19.0141 27.9894 16.3938L27.6043 16.0749C25.4614 18.663 22.9498 21.0403 20.0685 23.2064L20.369 23.6061ZM27.7969 16.4844H29V15.9844H27.7969V16.4844ZM46.3125 3.73438V3.48438H46.096L46.0651 3.69863L46.3125 3.73438ZM47.1094 3.73438H47.3594V3.48438H47.1094V3.73438ZM47.1094 8.54688H46.8594V8.56484L46.8619 8.58261L47.1094 8.54688ZM47.5156 11.3594V11.6094H47.8043L47.7631 11.3236L47.5156 11.3594ZM47.1094 11.75H46.8594V12H47.1094V11.75ZM48.3125 11.75V12H48.3365L48.3601 11.9954L48.3125 11.75ZM50.3281 11.3594L50.5526 11.2493L50.4684 11.0775L50.2806 11.1139L50.3281 11.3594ZM50.7188 12.1562H50.9688V12.0983L50.9432 12.0462L50.7188 12.1562ZM50.7188 12.5625V12.8125H50.9688V12.5625H50.7188ZM47.5156 12.5625V12.3125H47.2656V12.5625H47.5156ZM47.5156 14.1562L47.7647 14.1772L47.7656 14.1667V14.1562H47.5156ZM47.1094 18.9844V19.2344H47.3392L47.3585 19.0053L47.1094 18.9844ZM46.3125 18.9844H46.0625V19.2344H46.3125V18.9844ZM45.9062 17.7812L45.6597 17.7396L45.6456 17.8234L45.6854 17.8984L45.9062 17.7812ZM46.3125 15.375L46.559 15.4166L46.5625 15.396V15.375H46.3125ZM45.9062 13.7656H45.6562V13.8327L45.6898 13.8907L45.9062 13.7656ZM46.3125 13.3594V13.6094H46.5845L46.5616 13.3383L46.3125 13.3594ZM45.9062 8.54688H45.6562V8.55741L45.6571 8.5679L45.9062 8.54688ZM45.9062 6.54688L45.6588 6.51114L45.6562 6.52891V6.54688H45.9062ZM41.5 7.75L41.6136 7.52731L41.5375 7.48849L41.4536 7.50434L41.5 7.75ZM42.7031 8.14062H42.9531V7.89062H42.7031V8.14062ZM42.7031 8.95312L42.7409 9.20026L42.9531 9.16785V8.95312H42.7031ZM37.4844 9.75L37.4466 9.50286L37.2344 9.53528V9.75H37.4844ZM43.0938 12.9531H43.3438V12.5346L42.9752 12.733L43.0938 12.9531ZM43.0938 13.3594L43.2928 13.5106L43.3438 13.4436V13.3594H43.0938ZM37.875 15.375L37.8132 15.6173L37.8436 15.625H37.875V15.375ZM36.2812 12.9531L36.0337 12.9185L36.0312 12.9358V12.9531H36.2812ZM36.6719 10.1562L36.9195 10.1908L36.9592 9.90625H36.6719V10.1562ZM35.875 10.1562H35.625V10.4062H35.875V10.1562ZM46.3125 3.98438H47.1094V3.48438H46.3125V3.98438ZM46.8594 3.73438V8.54688H47.3594V3.73438H46.8594ZM46.8619 8.58261L47.2682 11.3951L47.7631 11.3236L47.3568 8.51114L46.8619 8.58261ZM47.5156 11.1094C47.3441 11.1094 47.1691 11.1505 47.0377 11.2768C46.9044 11.4049 46.8594 11.5787 46.8594 11.75H47.3594C47.3594 11.6609 47.382 11.6393 47.3842 11.6372C47.3882 11.6334 47.4163 11.6094 47.5156 11.6094V11.1094ZM47.1094 12H48.3125V11.5H47.1094V12ZM48.3601 11.9954L50.3757 11.6048L50.2806 11.1139L48.2649 11.5046L48.3601 11.9954ZM50.1036 11.4694L50.4943 12.2663L50.9432 12.0462L50.5526 11.2493L50.1036 11.4694ZM50.4688 12.1562V12.5625H50.9688V12.1562H50.4688ZM50.7188 12.3125H47.5156V12.8125H50.7188V12.3125ZM47.2656 12.5625V14.1562H47.7656V12.5625H47.2656ZM47.2665 14.1353L46.8603 18.9634L47.3585 19.0053L47.7647 14.1772L47.2665 14.1353ZM47.1094 18.7344H46.3125V19.2344H47.1094V18.7344ZM46.5625 18.9844C46.5625 18.6284 46.4018 18.1817 46.1271 17.6641L45.6854 17.8984C45.9524 18.4016 46.0625 18.757 46.0625 18.9844H46.5625ZM46.1528 17.8229L46.559 15.4166L46.066 15.3334L45.6597 17.7396L46.1528 17.8229ZM46.5625 15.375C46.5625 14.7321 46.418 14.1516 46.1227 13.6406L45.6898 13.8907C45.9362 14.3172 46.0625 14.8095 46.0625 15.375H46.5625ZM46.1562 13.7656C46.1562 13.6687 46.1803 13.642 46.1846 13.6377C46.1889 13.6334 46.2156 13.6094 46.3125 13.6094V13.1094C46.1385 13.1094 45.9622 13.153 45.831 13.2842C45.6999 13.4153 45.6562 13.5917 45.6562 13.7656H46.1562ZM46.5616 13.3383L46.1554 8.52585L45.6571 8.5679L46.0634 13.3804L46.5616 13.3383ZM46.1562 8.54688V6.54688H45.6562V8.54688H46.1562ZM46.1537 6.58261L46.5599 3.77012L46.0651 3.69863L45.6588 6.51114L46.1537 6.58261ZM41.3864 7.97269C41.9043 8.23694 42.3496 8.39062 42.7031 8.39062V7.89062C42.4733 7.89062 42.1165 7.7839 41.6136 7.52731L41.3864 7.97269ZM42.4531 8.14062V8.95312H42.9531V8.14062H42.4531ZM42.6654 8.70599L37.4466 9.50286L37.5221 9.99714L42.7409 9.20026L42.6654 8.70599ZM37.2344 9.75V13.3594H37.7344V9.75H37.2344ZM37.2344 13.3594C37.2344 13.6985 37.3685 13.9809 37.6471 14.1655C37.9076 14.338 38.2668 14.4062 38.6875 14.4062V13.9062C38.3061 13.9062 38.0637 13.8417 37.9232 13.7486C37.8008 13.6675 37.7344 13.5515 37.7344 13.3594H37.2344ZM38.6875 14.4062C40.1833 14.4062 41.6924 13.9916 43.2123 13.1732L42.9752 12.733C41.5159 13.5188 40.0876 13.9062 38.6875 13.9062V14.4062ZM42.8438 12.9531V13.3594H43.3438V12.9531H42.8438ZM42.8947 13.2081C41.9399 14.465 40.2925 15.125 37.875 15.125V15.625C40.3741 15.625 42.206 14.9413 43.2928 13.5106L42.8947 13.2081ZM37.9368 15.1327C37.4572 15.0105 37.1152 14.7735 36.8885 14.429C36.6583 14.0792 36.5312 13.5945 36.5312 12.9531H36.0312C36.0312 13.6555 36.1698 14.2463 36.4708 14.7038C36.7754 15.1666 37.2303 15.4687 37.8132 15.6173L37.9368 15.1327ZM36.5288 12.9877L36.9195 10.1908L36.4243 10.1217L36.0337 12.9185L36.5288 12.9877ZM36.6719 9.90625H35.875V10.4062H36.6719V9.90625ZM36.125 10.1562C36.125 10.0281 36.1902 9.87217 36.3944 9.68726C36.5995 9.50147 36.9227 9.30811 37.3796 9.11267C38.2917 8.72246 39.6767 8.34883 41.5464 7.99566L41.4536 7.50434C39.5733 7.8595 38.1458 8.24108 37.1829 8.65296C36.7023 8.85855 36.3223 9.07796 36.0588 9.31664C35.7942 9.55621 35.625 9.8365 35.625 10.1562H36.125ZM69.7344 3.73438V3.48438H69.4844V3.73438H69.7344ZM70.5312 3.73438L70.7716 3.66552L70.7197 3.48438H70.5312V3.73438ZM70.9375 14.5625L70.689 14.5348L70.6852 14.5688L70.6907 14.6026L70.9375 14.5625ZM71.3281 16.9688V17.2188H71.622L71.5749 16.9287L71.3281 16.9688ZM60.5 6.54688V6.29688H60.25V6.54688H60.5ZM61.2969 6.54688L61.5467 6.53787L61.538 6.29688H61.2969V6.54688ZM62.5 11.75V12H62.5366L62.5718 11.9895L62.5 11.75ZM66.5156 10.5469H66.7656V10.211L66.4439 10.3074L66.5156 10.5469ZM66.5156 10.9531L66.7104 11.1099L66.7656 11.0412V10.9531H66.5156ZM62.1094 12.9531L62.0169 13.1854L62.0614 13.2031H62.1094V12.9531ZM69.7344 3.98438H70.5312V3.48438H69.7344V3.98438ZM70.2909 3.80323C70.8182 5.64366 71.0781 7.22355 71.0781 8.54688H71.5781C71.5781 7.16187 71.3068 5.53343 70.7716 3.66552L70.2909 3.80323ZM71.0781 8.54688C71.0781 10.2119 70.9488 12.2073 70.689 14.5348L71.186 14.5902C71.447 12.251 71.5781 10.2361 71.5781 8.54688H71.0781ZM70.6907 14.6026L71.0814 17.0088L71.5749 16.9287L71.1843 14.5224L70.6907 14.6026ZM71.3281 16.7188H70.5312V17.2188H71.3281V16.7188ZM70.5312 16.7188C70.3042 16.7188 70.1798 16.6621 70.1104 16.5928C70.041 16.5234 69.9844 16.399 69.9844 16.1719H69.4844C69.4844 16.476 69.5606 16.7501 69.7568 16.9463C69.953 17.1425 70.2271 17.2188 70.5312 17.2188V16.7188ZM69.9844 16.1719V3.73438H69.4844V16.1719H69.9844ZM60.5 6.79688H61.2969V6.29688H60.5V6.79688ZM61.047 6.55588C61.1097 8.2942 61.2418 9.61437 61.4478 10.5055C61.5504 10.9491 61.6754 11.3055 61.8316 11.5568C61.9872 11.8071 62.206 12 62.5 12V11.5C62.4555 11.5 62.3702 11.4761 62.2563 11.2928C62.1429 11.1105 62.0329 10.8165 61.935 10.3929C61.74 9.5497 61.6091 8.2683 61.5467 6.53787L61.047 6.55588ZM62.5718 11.9895L66.5874 10.7864L66.4439 10.3074L62.4282 11.5105L62.5718 11.9895ZM66.2656 10.5469V10.9531H66.7656V10.5469H66.2656ZM66.3209 10.7964C65.2808 12.0889 64.1433 12.7031 62.9062 12.7031V13.2031C64.3359 13.2031 65.6046 12.484 66.7104 11.1099L66.3209 10.7964ZM62.9062 12.7031H62.1094V13.2031H62.9062V12.7031ZM62.2018 12.7209C61.7136 12.5265 61.357 12.2225 61.119 11.8089C60.8788 11.3914 60.75 10.8455 60.75 10.1562H60.25C60.25 10.9045 60.3895 11.5435 60.6857 12.0583C60.9841 12.577 61.4322 12.9527 62.0169 13.1854L62.2018 12.7209ZM60.75 10.1562V6.54688H60.25V10.1562H60.75ZM85.7969 0.65625L86.0452 0.627452L86.0038 0.270157L85.6833 0.433523L85.7969 0.65625ZM87 19.8125V20.0625H87.25V19.8125H87ZM85 1.0625L84.8865 0.839773L84.75 0.909338V1.0625H85ZM73.0312 7.84375V7.59375H72.7812V7.84375H73.0312ZM81.8125 7.84375H82.0625V7.59375H81.8125V7.84375ZM81.8125 8.64062L82.0173 8.78407L82.0625 8.71948V8.64062H81.8125ZM76.2188 16.625V16.875H76.3489L76.4235 16.7684L76.2188 16.625ZM75.8281 16.625H75.5781V16.875H75.8281V16.625ZM75.8281 15.4375L75.6169 15.3038L75.5781 15.365V15.4375H75.8281ZM80.2188 9.04688L80.4016 9.21737L80.7937 8.79688H80.2188V9.04688ZM79.8125 8.64062H80.0625V8.23256L79.699 8.4179L79.8125 8.64062ZM79.0156 9.04688V9.29688H79.0757L79.1292 9.2696L79.0156 9.04688ZM73.0312 9.04688H72.7812V9.29688H73.0312V9.04688ZM87.4062 11.8438V11.5938H87.1562V11.8438H87.4062ZM91.3906 11.8438H91.6406V11.5938H91.3906V11.8438ZM87.7969 13.0312L87.5724 13.1413L87.6496 13.2987L87.8239 13.2798L87.7969 13.0312ZM87.4062 12.2344H87.1562V12.2924L87.1818 12.3444L87.4062 12.2344ZM85.5485 0.685048C86.3505 7.60057 86.75 12.6457 86.75 15.8281H87.25C87.25 12.6148 86.8474 7.54526 86.0452 0.627452L85.5485 0.685048ZM86.75 15.8281V19.8125H87.25V15.8281H86.75ZM87 19.5625C86.9439 19.5625 86.8531 19.5327 86.7316 19.37C86.6098 19.2069 86.4846 18.9441 86.3631 18.5644C86.121 17.808 85.9148 16.6565 85.7486 15.0985C85.4167 11.9872 85.25 7.31049 85.25 1.0625H84.75C84.75 7.31451 84.9166 12.0128 85.2514 15.1515C85.4186 16.7185 85.629 17.9108 85.8869 18.7168C86.0154 19.1184 86.161 19.4415 86.3309 19.6691C86.5011 19.897 86.7228 20.0625 87 20.0625V19.5625ZM85.1135 1.28523L85.9104 0.878977L85.6833 0.433523L84.8865 0.839773L85.1135 1.28523ZM73.0312 8.09375H81.8125V7.59375H73.0312V8.09375ZM81.5625 7.84375V8.64062H82.0625V7.84375H81.5625ZM81.6077 8.49718L76.014 16.4816L76.4235 16.7684L82.0173 8.78407L81.6077 8.49718ZM76.2188 16.375H75.8281V16.875H76.2188V16.375ZM76.0781 16.625V15.4375H75.5781V16.625H76.0781ZM76.0394 15.5712C78.2522 12.0744 79.7023 9.96731 80.4016 9.21737L80.0359 8.87638C79.2977 9.66811 77.8207 11.8214 75.6169 15.3038L76.0394 15.5712ZM80.2188 8.79688C80.1219 8.79688 80.0951 8.77282 80.0908 8.76854C80.0865 8.76425 80.0625 8.73751 80.0625 8.64062H79.5625C79.5625 8.81458 79.6062 8.99096 79.7373 9.12209C79.8684 9.25322 80.0448 9.29688 80.2188 9.29688V8.79688ZM79.699 8.4179L78.9021 8.82415L79.1292 9.2696L79.926 8.86335L79.699 8.4179ZM79.0156 8.79688H73.0312V9.29688H79.0156V8.79688ZM73.2812 9.04688V7.84375H72.7812V9.04688H73.2812ZM87.4062 12.0938H91.3906V11.5938H87.4062V12.0938ZM91.1406 11.8438C91.1406 11.8701 91.129 11.9294 91.013 12.0191C90.8957 12.1099 90.7018 12.2065 90.4137 12.3017C89.8404 12.4911 88.963 12.653 87.7699 12.7827L87.8239 13.2798C89.0265 13.1491 89.9461 12.9828 90.5706 12.7764C90.8816 12.6737 91.1368 12.5555 91.319 12.4145C91.5026 12.2725 91.6406 12.083 91.6406 11.8438H91.1406ZM88.0214 12.9212L87.6307 12.1243L87.1818 12.3444L87.5724 13.1413L88.0214 12.9212ZM87.6562 12.2344V11.8438H87.1562V12.2344H87.6562ZM101.188 0.625L101.211 0.376063L100.938 0.350801V0.625H101.188ZM104.781 3.03125H104.531V3.28125H104.781V3.03125ZM101.188 1.03125H100.938V1.23189L101.133 1.27532L101.188 1.03125ZM109.984 2.23438V1.98438H109.71L109.735 2.25786L109.984 2.23438ZM111.578 7.42188H111.328V7.67188H111.578V7.42188ZM115.578 7.42188H115.828V7.17188H115.578V7.42188ZM115.578 8.625L115.545 8.87278L115.828 8.91074V8.625H115.578ZM111.578 7.82812L111.672 7.59626L111.328 7.45776V7.82812H111.578ZM111.578 11.0156L111.823 11.0654L111.828 11.0408V11.0156H111.578ZM111.172 13.0156V13.2656H111.376L111.417 13.0654L111.172 13.0156ZM110.375 13.0156H110.125V13.2656H110.375V13.0156ZM109.984 8.625L109.766 8.50359L109.698 8.62638L109.767 8.7485L109.984 8.625ZM101.984 4.21875V3.96875H101.734V4.21875H101.984ZM103.578 4.21875L103.616 3.97171L103.597 3.96875H103.578V4.21875ZM106.375 5.42188L106.623 5.45565L106.627 5.42639L106.624 5.397L106.375 5.42188ZM104.391 8.625L104.191 8.4748L103.89 8.875H104.391V8.625ZM107.984 9.8125H108.234V9.65937L108.098 9.5898L107.984 9.8125ZM107.984 10.625V10.875H108.234V10.625H107.984ZM106.781 10.625L106.657 10.8417L106.714 10.875H106.781V10.625ZM103.984 9.01562L104.109 8.79894L103.9 8.67857L103.772 8.88337L103.984 9.01562ZM101.188 11.4219H100.938V11.6719H101.188V11.4219ZM104.781 6.21875L104.977 6.37476L105.031 6.30633V6.21875H104.781ZM104.781 5.42188H105.031V5.17188H104.781V5.42188ZM111.172 14.2188H111.422V13.9688H111.172V14.2188ZM109.578 18.2031L109.37 18.0644L109.217 18.2944L109.461 18.424L109.578 18.2031ZM113.172 21.4062V21.6562H113.422V21.4062H113.172ZM112.781 21.4062L112.662 21.626L112.718 21.6562H112.781V21.4062ZM108.375 19.0156L108.494 18.7959L108.125 18.5956V19.0156H108.375ZM106.375 21V21.25H106.456L106.522 21.2023L106.375 21ZM105.188 21H104.938V21.25H105.188V21ZM105.188 19.8125L105.298 19.588L104.938 19.4115V19.8125H105.188ZM105.984 20.2031L105.874 20.4276L106.027 20.5022L106.152 20.3884L105.984 20.2031ZM109.578 15.4062L109.79 15.5396L110.031 15.1562H109.578V15.4062ZM109.172 15.4062V15.1562H109.153L109.135 15.159L109.172 15.4062ZM104.781 15.8125H104.531V16.0625H104.781V15.8125ZM104.781 15.0156L104.729 14.771L104.531 14.813V15.0156H104.781ZM101.164 0.873937C102.622 1.00879 103.694 1.20832 104.394 1.4652C104.745 1.5938 104.986 1.73068 105.135 1.8671C105.279 1.99909 105.328 2.12008 105.328 2.23438H105.828C105.828 1.94763 105.694 1.70078 105.472 1.49814C105.256 1.29992 104.947 1.13537 104.567 0.995741C103.804 0.716158 102.68 0.512045 101.211 0.376063L101.164 0.873937ZM105.328 2.23438C105.328 2.46146 105.272 2.58586 105.202 2.65525C105.133 2.72465 105.008 2.78125 104.781 2.78125V3.28125C105.085 3.28125 105.359 3.20504 105.556 3.00881C105.752 2.81258 105.828 2.53854 105.828 2.23438H105.328ZM105.031 3.03125C105.031 2.48832 104.625 2.05637 104.004 1.71124C103.374 1.36034 102.448 1.0546 101.242 0.787178L101.133 1.27532C102.323 1.53915 103.194 1.83236 103.761 2.14814C104.339 2.46968 104.531 2.7721 104.531 3.03125H105.031ZM101.438 1.03125V0.625H100.938V1.03125H101.438ZM109.984 2.48438H110.375V1.98438H109.984V2.48438ZM110.375 2.48438C110.487 2.48438 110.596 2.53075 110.708 2.66755C110.827 2.81183 110.94 3.04806 111.036 3.3981C111.228 4.09671 111.328 5.16717 111.328 6.625H111.828C111.828 5.15575 111.728 4.0309 111.518 3.26596C111.414 2.88423 111.277 2.57163 111.094 2.35003C110.906 2.12094 110.664 1.98438 110.375 1.98438V2.48438ZM111.328 6.625V7.42188H111.828V6.625H111.328ZM111.578 7.67188H115.578V7.17188H111.578V7.67188ZM115.328 7.42188V8.625H115.828V7.42188H115.328ZM115.611 8.37722C113.586 8.10573 112.284 7.84304 111.672 7.59626L111.485 8.05999C112.164 8.33404 113.529 8.6026 115.545 8.87278L115.611 8.37722ZM111.328 7.82812V11.0156H111.828V7.82812H111.328ZM111.333 10.9659L110.927 12.9659L111.417 13.0654L111.823 11.0654L111.333 10.9659ZM111.172 12.7656H110.375V13.2656H111.172V12.7656ZM110.625 13.0156V10.2188H110.125V13.0156H110.625ZM110.625 10.2188C110.625 9.5777 110.487 9.00269 110.202 8.5015L109.767 8.7485C110.003 9.16398 110.125 9.65147 110.125 10.2188H110.625ZM110.203 8.74641C110.486 8.23601 110.625 7.6568 110.625 7.01562H110.125C110.125 7.58278 110.003 8.07649 109.766 8.50359L110.203 8.74641ZM110.625 7.01562C110.625 6.57341 110.493 4.96346 110.233 2.21089L109.735 2.25786C109.997 5.02612 110.125 6.60367 110.125 7.01562H110.625ZM101.984 4.46875H103.578V3.96875H101.984V4.46875ZM103.54 4.46579C104.439 4.60534 105.101 4.77206 105.538 4.96012C105.997 5.15748 106.115 5.33672 106.126 5.44675L106.624 5.397C106.583 4.9862 106.209 4.7045 105.736 4.50082C105.24 4.28783 104.53 4.11341 103.616 3.97171L103.54 4.46579ZM106.127 5.3881C106.117 5.46434 106.077 5.58937 105.99 5.77273C105.905 5.95209 105.782 6.17232 105.62 6.43475C105.294 6.95944 104.819 7.63886 104.191 8.4748L104.59 8.7752C105.223 7.93406 105.708 7.24109 106.045 6.69807C106.213 6.42664 106.346 6.18918 106.442 5.98704C106.536 5.78889 106.602 5.60858 106.623 5.45565L106.127 5.3881ZM104.391 8.875C105.171 8.875 106.324 9.24627 107.871 10.0352L108.098 9.5898C106.541 8.7954 105.297 8.375 104.391 8.375V8.875ZM107.734 9.8125V10.625H108.234V9.8125H107.734ZM107.984 10.375H106.781V10.875H107.984V10.375ZM106.906 10.4083L104.109 8.79894L103.86 9.23231L106.657 10.8417L106.906 10.4083ZM103.772 8.88337C103.274 9.68222 102.865 10.2725 102.542 10.6605C102.38 10.8551 102.247 10.9912 102.14 11.0765C102.025 11.1694 101.978 11.1719 101.984 11.1719V11.6719C102.157 11.6719 102.319 11.5741 102.453 11.4665C102.597 11.3513 102.755 11.1866 102.927 10.9801C103.271 10.566 103.695 9.9532 104.197 9.14788L103.772 8.88337ZM101.984 11.1719H101.188V11.6719H101.984V11.1719ZM101.438 11.4219C101.438 11.4089 101.443 11.3644 101.477 11.2759C101.509 11.1918 101.56 11.0846 101.632 10.9524C101.775 10.6883 101.994 10.3421 102.292 9.91161C102.886 9.05155 103.78 7.87325 104.977 6.37476L104.586 6.06274C103.387 7.56425 102.484 8.75313 101.88 9.62745C101.579 10.0642 101.348 10.4269 101.192 10.7136C101.115 10.8568 101.053 10.9854 101.01 11.0977C100.969 11.2054 100.938 11.3176 100.938 11.4219H101.438ZM105.031 6.21875V5.42188H104.531V6.21875H105.031ZM104.781 5.17188H102.781V5.67188H104.781V5.17188ZM102.781 5.17188C102.554 5.17188 102.43 5.11527 102.36 5.04588C102.291 4.97649 102.234 4.85209 102.234 4.625H101.734C101.734 4.92916 101.811 5.2032 102.007 5.39943C102.203 5.59567 102.477 5.67188 102.781 5.67188V5.17188ZM102.234 4.625V4.21875H101.734V4.625H102.234ZM110.781 14.4688H111.172V13.9688H110.781V14.4688ZM110.922 14.2188V14.6094H111.422V14.2188H110.922ZM110.922 14.6094C110.922 14.9602 110.804 15.4232 110.545 16.008C110.287 16.5895 109.897 17.2745 109.37 18.0644L109.786 18.3418C110.322 17.538 110.729 16.8271 111.002 16.2107C111.274 15.5976 111.422 15.0606 111.422 14.6094H110.922ZM109.461 18.424C110.657 19.0582 111.546 19.5717 112.134 19.9655C112.429 20.1631 112.641 20.3252 112.775 20.4529C112.843 20.517 112.884 20.566 112.908 20.6008C112.933 20.6393 112.922 20.6389 112.922 20.6094H113.422C113.422 20.4965 113.373 20.3981 113.324 20.324C113.272 20.2461 113.201 20.1679 113.119 20.09C112.954 19.9339 112.716 19.7536 112.413 19.5501C111.803 19.1418 110.895 18.6189 109.695 17.9823L109.461 18.424ZM112.922 20.6094V21.4062H113.422V20.6094H112.922ZM113.172 21.1562H112.781V21.6562H113.172V21.1562ZM112.9 21.1865L108.494 18.7959L108.256 19.2354L112.662 21.626L112.9 21.1865ZM108.125 19.0156C108.125 19.0317 108.115 19.0897 108.041 19.2017C107.971 19.3085 107.859 19.4409 107.699 19.5999C107.379 19.9173 106.891 20.3162 106.228 20.7977L106.522 21.2023C107.192 20.7151 107.704 20.2988 108.051 19.9548C108.224 19.7831 108.362 19.6232 108.459 19.4761C108.552 19.3342 108.625 19.1766 108.625 19.0156H108.125ZM106.375 20.75H105.188V21.25H106.375V20.75ZM105.438 21V19.8125H104.938V21H105.438ZM105.077 20.037L105.874 20.4276L106.094 19.9786L105.298 19.588L105.077 20.037ZM106.152 20.3884C107.066 19.5611 108.279 17.9356 109.79 15.5396L109.367 15.2729C107.856 17.6686 106.674 19.241 105.817 20.0178L106.152 20.3884ZM109.578 15.1562H109.172V15.6562H109.578V15.1562ZM109.135 15.159C107.317 15.429 105.868 15.5625 104.781 15.5625V16.0625C105.903 16.0625 107.38 15.9252 109.209 15.6535L109.135 15.159ZM105.031 15.8125V15.0156H104.531V15.8125H105.031ZM104.833 15.2602C107.337 14.7304 109.317 14.4688 110.781 14.4688V13.9688C109.266 13.9688 107.247 14.2384 104.729 14.771L104.833 15.2602ZM118.891 1.71875V1.46875H118.629L118.641 1.72975L118.891 1.71875ZM120.484 6.54688H120.234V6.79688H120.484V6.54688ZM125.312 5.73438H125.562V5.42777L125.262 5.48949L125.312 5.73438ZM120.891 7.75V8H120.908L120.925 7.99766L120.891 7.75ZM117.281 10.9531V10.7031H117.031V10.9531H117.281ZM118.078 11.3594H117.828V11.6318L118.1 11.6085L118.078 11.3594ZM129.719 10.9531H129.969V10.7031H129.719V10.9531ZM129.719 11.75V12H129.969V11.75H129.719ZM125.703 11.75V11.5H125.678L125.653 11.505L125.703 11.75ZM123.703 12.1562H123.453V12.4621L123.753 12.4012L123.703 12.1562ZM123.703 11.75H123.953V11.3419L123.59 11.5273L123.703 11.75ZM122.906 12.1562V12.4062H122.966L123.02 12.379L122.906 12.1562ZM117.281 12.1562H117.031V12.4062H117.281V12.1562ZM122.906 13.3594H123.156V13.1094H122.906V13.3594ZM129.312 17.375H129.562V17.125H129.312V17.375ZM129.312 18.1719L129.362 18.4169L129.562 18.3762V18.1719H129.312ZM127.312 18.5781V18.8281H127.338L127.362 18.8231L127.312 18.5781ZM126.109 18.5781L126.076 18.8258L126.092 18.8281H126.109V18.5781ZM122.094 14.1562L121.847 14.1175L121.844 14.1368V14.1562H122.094ZM118.891 1.96875H119.281V1.46875H118.891V1.96875ZM119.281 1.96875C119.392 1.96875 119.501 2.0151 119.614 2.1532C119.733 2.29879 119.846 2.53706 119.942 2.88985C120.134 3.59387 120.234 4.67233 120.234 6.14062H120.734C120.734 4.661 120.634 3.52852 120.425 2.75858C120.32 2.3744 120.183 2.05994 120.001 1.83703C119.813 1.60665 119.571 1.46875 119.281 1.46875V1.96875ZM120.234 6.14062V6.54688H120.734V6.14062H120.234ZM120.484 6.79688H120.891V6.29688H120.484V6.79688ZM120.891 6.79688C120.991 6.79688 121.16 6.77672 121.38 6.74327C121.607 6.70886 121.906 6.65755 122.276 6.58963C123.015 6.45375 124.045 6.25021 125.363 5.97926L125.262 5.48949C123.945 5.7602 122.92 5.96292 122.185 6.09787C121.818 6.16537 121.525 6.21562 121.305 6.24892C121.079 6.28317 120.947 6.29688 120.891 6.29688V6.79688ZM125.062 5.73438V6.14062H125.562V5.73438H125.062ZM125.062 6.14062C125.062 6.2042 125.03 6.29851 124.878 6.42254C124.725 6.54743 124.478 6.67814 124.122 6.80804C123.41 7.06703 122.326 7.29989 120.856 7.50234L120.925 7.99766C122.404 7.79386 123.53 7.55537 124.293 7.27789C124.673 7.13957 124.979 6.98577 125.194 6.80988C125.411 6.63313 125.562 6.41038 125.562 6.14062H125.062ZM120.891 7.5H120.484V8H120.891V7.5ZM120.484 7.5C120.373 7.5 120.241 7.44181 120.091 7.22904C119.939 7.01314 119.793 6.66923 119.664 6.17832C119.405 5.19973 119.229 3.71361 119.14 1.70775L118.641 1.72975C118.73 3.74472 118.908 5.27423 119.18 6.30606C119.316 6.82036 119.48 7.23035 119.682 7.51705C119.887 7.80689 120.153 8 120.484 8V7.5ZM117.281 11.2031C117.534 11.2031 117.685 11.2366 117.765 11.2774C117.802 11.296 117.815 11.3116 117.819 11.3185C117.823 11.3239 117.828 11.3344 117.828 11.3594H118.328C118.328 11.2489 118.3 11.1409 118.238 11.0448C118.176 10.9501 118.089 10.8811 117.992 10.832C117.807 10.7373 117.56 10.7031 117.281 10.7031V11.2031ZM118.1 11.6085C121.245 11.3377 123.512 11.2031 124.906 11.2031V10.7031C123.488 10.7031 121.203 10.8394 118.057 11.1103L118.1 11.6085ZM124.906 11.2031H129.719V10.7031H124.906V11.2031ZM129.469 10.9531V11.75H129.969V10.9531H129.469ZM129.719 11.5H125.703V12H129.719V11.5ZM125.653 11.505L123.653 11.9113L123.753 12.4012L125.753 11.995L125.653 11.505ZM123.953 12.1562V11.75H123.453V12.1562H123.953ZM123.59 11.5273L122.793 11.9335L123.02 12.379L123.817 11.9727L123.59 11.5273ZM122.906 11.9062H117.281V12.4062H122.906V11.9062ZM117.531 12.1562V10.9531H117.031V12.1562H117.531ZM122.656 13.3594C122.656 14.7303 122.964 15.8051 123.623 16.5382C124.286 17.2764 125.267 17.625 126.516 17.625V17.125C125.358 17.125 124.534 16.8043 123.995 16.204C123.45 15.5985 123.156 14.6656 123.156 13.3594H122.656ZM126.516 17.625H129.312V17.125H126.516V17.625ZM129.062 17.375V18.1719H129.562V17.375H129.062ZM129.263 17.9269L127.263 18.3331L127.362 18.8231L129.362 18.4169L129.263 17.9269ZM127.312 18.3281H126.109V18.8281H127.312V18.3281ZM126.143 18.3304C124.831 18.1517 123.882 17.7716 123.265 17.2164C122.656 16.6689 122.344 15.9292 122.344 14.9688H121.844C121.844 16.0499 122.201 16.9327 122.931 17.5883C123.651 18.2362 124.711 18.64 126.076 18.8258L126.143 18.3304ZM122.344 14.9688V14.1562H121.844V14.9688H122.344ZM122.341 14.195C122.377 13.961 122.45 13.8194 122.534 13.7371C122.614 13.6594 122.728 13.6094 122.906 13.6094V13.1094C122.626 13.1094 122.376 13.1922 122.184 13.3801C121.997 13.5634 121.893 13.8203 121.847 14.1175L122.341 14.195ZM149.469 0.671875V0.421875H149.219V0.671875H149.469ZM150.266 0.671875L150.512 0.631035L150.478 0.421875H150.266V0.671875ZM151.062 8.25H150.812V8.5H151.062V8.25ZM153.859 8.25H154.109V8H153.859V8.25ZM153.859 9.04688V9.29688H154.109V9.04688H153.859ZM150.672 11.4375L150.917 11.4873L150.922 11.4626V11.4375H150.672ZM150.266 13.4375V13.6875H150.47L150.511 13.4873L150.266 13.4375ZM149.469 13.4375L149.22 13.4122L149.192 13.6875H149.469V13.4375ZM149.875 9.4375L150.124 9.46276L150.152 9.1875H149.875V9.4375ZM149.078 9.4375H148.828V9.6875H149.078V9.4375ZM149.078 8.64062V8.39062H148.828V8.64062H149.078ZM149.875 8.64062V8.89062H150.143L150.124 8.62352L149.875 8.64062ZM140.703 2.65625H140.953V2.18575L140.563 2.44907L140.703 2.65625ZM139.906 3.85938V3.60938H139.578L139.665 3.92552L139.906 3.85938ZM141.094 9.04688H140.844V9.29688H141.094V9.04688ZM144.688 4.26562H144.938V3.97828L144.653 4.01803L144.688 4.26562ZM141.891 4.65625V4.90625H141.908L141.925 4.90385L141.891 4.65625ZM140.703 4.65625H140.453V4.90625H140.703V4.65625ZM140.703 3.85938L140.655 3.61408L140.453 3.65379V3.85938H140.703ZM142.688 3.46875V3.21875H142.663L142.639 3.22346L142.688 3.46875ZM145.484 3.46875L145.727 3.407L145.679 3.21875H145.484V3.46875ZM145.891 5.0625H146.141V5.03114L146.133 5.00075L145.891 5.0625ZM140.297 10.25L140.057 10.3196L140.109 10.5H140.297V10.25ZM139.5 3.46875L139.36 3.26157L139.25 3.33591V3.46875H139.5ZM144.688 13.0312H144.938V12.7812H144.688V13.0312ZM149.469 17.4219V17.6719H149.493L149.517 17.6672L149.469 17.4219ZM151.469 17.0312H151.719V16.7277L151.421 16.7859L151.469 17.0312ZM151.469 17.8281L151.537 18.0686L151.719 18.0168V17.8281H151.469ZM148.672 18.625L148.643 18.8734L148.693 18.879L148.74 18.8654L148.672 18.625ZM143.891 13.8281L143.644 13.7894L143.641 13.8086V13.8281H143.891ZM149.469 0.921875H150.266V0.421875H149.469V0.921875ZM150.019 0.712715C150.549 3.91608 150.812 6.42648 150.812 8.25H151.312C151.312 6.38602 151.044 3.84433 150.512 0.631035L150.019 0.712715ZM151.062 8.5H153.859V8H151.062V8.5ZM153.609 8.25V9.04688H154.109V8.25H153.609ZM153.859 8.79688C152.773 8.79688 151.912 8.99933 151.319 9.44453C150.712 9.89987 150.422 10.5796 150.422 11.4375H150.922C150.922 10.7016 151.163 10.1861 151.619 9.84453C152.088 9.49286 152.821 9.29688 153.859 9.29688V8.79688ZM150.427 11.3877L150.021 13.3877L150.511 13.4873L150.917 11.4873L150.427 11.3877ZM150.266 13.1875H149.469V13.6875H150.266V13.1875ZM149.717 13.4628L150.124 9.46276L149.626 9.41224L149.22 13.4122L149.717 13.4628ZM149.875 9.1875H149.078V9.6875H149.875V9.1875ZM149.328 9.4375V8.64062H148.828V9.4375H149.328ZM149.078 8.89062H149.875V8.39062H149.078V8.89062ZM150.124 8.62352C149.854 4.67439 149.719 2.02654 149.719 0.671875H149.219C149.219 2.04638 149.355 4.71103 149.626 8.65773L150.124 8.62352ZM140.453 2.65625V3.0625H140.953V2.65625H140.453ZM140.453 3.0625C140.453 3.28959 140.397 3.41399 140.327 3.48338C140.258 3.55277 140.133 3.60938 139.906 3.60938V4.10938C140.21 4.10938 140.484 4.03317 140.681 3.83693C140.877 3.6407 140.953 3.36666 140.953 3.0625H140.453ZM139.665 3.92552C140.061 5.36678 140.356 6.51654 140.553 7.3761C140.752 8.24609 140.844 8.7936 140.844 9.04688H141.344C141.344 8.72723 141.237 8.12371 141.041 7.26453C140.842 6.39492 140.544 5.23739 140.147 3.79323L139.665 3.92552ZM141.094 9.29688H141.891V8.79688H141.094V9.29688ZM141.891 9.29688C142.911 9.29688 143.693 8.85225 144.204 7.97779C144.704 7.12401 144.938 5.87556 144.938 4.26562H144.438C144.438 5.84319 144.205 6.98536 143.772 7.72533C143.352 8.44462 142.735 8.79688 141.891 8.79688V9.29688ZM144.653 4.01803L141.856 4.40865L141.925 4.90385L144.722 4.51322L144.653 4.01803ZM141.891 4.40625H140.703V4.90625H141.891V4.40625ZM140.953 4.65625V3.85938H140.453V4.65625H140.953ZM140.751 4.10467L142.736 3.71404L142.639 3.22346L140.655 3.61408L140.751 4.10467ZM142.688 3.71875H145.484V3.21875H142.688V3.71875ZM145.242 3.5305L145.648 5.12425L146.133 5.00075L145.727 3.407L145.242 3.5305ZM145.641 5.0625C145.641 6.76652 145.311 7.99862 144.693 8.80047C144.084 9.58999 143.166 10 141.891 10V10.5C143.282 10.5 144.364 10.0454 145.089 9.10578C145.804 8.17846 146.141 6.81682 146.141 5.0625H145.641ZM141.891 10H140.297V10.5H141.891V10ZM140.537 10.1804C140.014 8.37682 139.75 6.14149 139.75 3.46875H139.25C139.25 6.17101 139.517 8.45652 140.057 10.3196L140.537 10.1804ZM139.64 3.67593L140.843 2.86343L140.563 2.44907L139.36 3.26157L139.64 3.67593ZM144.438 13.0312C144.438 14.5333 144.813 15.7058 145.608 16.501C146.404 17.2962 147.576 17.6719 149.078 17.6719V17.1719C147.653 17.1719 146.63 16.8158 145.962 16.1474C145.294 15.4791 144.938 14.4563 144.938 13.0312H144.438ZM149.078 17.6719H149.469V17.1719H149.078V17.6719ZM149.517 17.6672L151.517 17.2766L151.421 16.7859L149.421 17.1765L149.517 17.6672ZM151.219 17.0312V17.8281H151.719V17.0312H151.219ZM151.4 17.5877L148.603 18.3846L148.74 18.8654L151.537 18.0686L151.4 17.5877ZM148.7 18.3766C147.131 18.1971 145.99 17.7823 145.246 17.1598C144.513 16.5461 144.141 15.711 144.141 14.625H143.641C143.641 15.841 144.065 16.8236 144.926 17.5433C145.775 18.2541 147.026 18.6883 148.643 18.8734L148.7 18.3766ZM144.141 14.625V13.8281H143.641V14.625H144.141ZM144.138 13.8669C144.174 13.6318 144.247 13.4896 144.329 13.4072C144.406 13.3302 144.516 13.2812 144.688 13.2812V12.7812C144.411 12.7812 144.164 12.8651 143.976 13.0537C143.792 13.237 143.69 13.4932 143.644 13.7894L144.138 13.8669ZM157.953 1.03125L158.17 0.906564L157.703 0.0955248V1.03125H157.953ZM163.547 4.625L163.574 4.87348L163.797 4.84881V4.625H163.547ZM156.359 5.42188V5.67188H156.373L156.387 5.67035L156.359 5.42188ZM155.562 5.42188H155.312V5.67188H155.562V5.42188ZM155.562 4.625L155.517 4.37914L155.312 4.41688V4.625H155.562ZM158.766 4.21875V4.46875H159.214L158.978 4.08716L158.766 4.21875ZM167.547 3.82812V3.57812H167.489L167.437 3.60364L167.547 3.82812ZM167.953 3.82812H168.203V3.57812H167.953V3.82812ZM167.953 12.2188L168.176 12.3323L168.203 12.2788V12.2188H167.953ZM167.547 13.0156L167.324 12.9021L167.139 13.2656H167.547V13.0156ZM167.953 13.4062H167.703V13.8285L168.073 13.6255L167.953 13.4062ZM172.75 12.6094H173V12.3594H172.75V12.6094ZM172.75 13.4062L172.783 13.654L173 13.6247V13.4062H172.75ZM167.547 14.6094L167.795 14.6367L167.797 14.6231V14.6094H167.547ZM167.156 19V19.25H167.406V19H167.156ZM166.75 19L166.64 19.2245L166.692 19.25H166.75V19ZM165.953 18.6094L165.706 18.5732L165.679 18.7536L165.843 18.8339L165.953 18.6094ZM166.75 4.21875L166.64 3.99427L166.5 4.06288V4.21875H166.75ZM158.766 6.625V6.375H158.705L158.65 6.40315L158.766 6.625ZM163.547 8.625H163.797V8.57185L163.775 8.5233L163.547 8.625ZM163.547 9.42188L163.77 9.53507L163.797 9.48172V9.42188H163.547ZM157.562 10.2188H157.312V10.2522L157.321 10.2845L157.562 10.2188ZM158.359 9.42188H158.109V9.44136L158.112 9.46062L158.359 9.42188ZM160.359 10.2188V10.4688H160.385L160.409 10.4637L160.359 10.2188ZM162.359 9.8125L162.409 10.0575L162.609 10.0168V9.8125H162.359ZM160.75 7.42188H160.5V7.58842L160.654 7.65258L160.75 7.42188ZM160.75 7.01562H161V6.70397L160.696 6.77158L160.75 7.01562ZM161.562 13.4062V13.1562H161.486L161.423 13.1991L161.562 13.4062ZM161.953 13.4062H162.203V13.1562H161.953V13.4062ZM161.953 13.8125L162.198 13.8604L162.203 13.8367V13.8125H161.953ZM161.562 15.8125L161.317 15.7646L161.28 15.9526L161.452 16.037L161.562 15.8125ZM162.359 16.2031L162.249 16.4276L162.301 16.4531H162.359V16.2031ZM162.75 16.2031V16.4531H162.767L162.785 16.4507L162.75 16.2031ZM165.547 15.8125H165.797V15.5252L165.512 15.5649L165.547 15.8125ZM156.766 17.8125V18.0626L156.772 18.0624L156.766 17.8125ZM156.359 17.8125H156.109V18.0625H156.359V17.8125ZM160.75 16.2031L160.784 16.4508L161 16.4208V16.2031H160.75ZM160.75 15.8125H161V15.7477L160.969 15.6911L160.75 15.8125ZM160.359 14.2188L160.219 14.0116L160.109 14.0859V14.2188H160.359ZM157.736 1.15594C158.28 2.1011 158.832 2.82606 159.394 3.31722C159.958 3.80968 160.547 4.07812 161.156 4.07812V3.57812C160.703 3.57812 160.227 3.38042 159.723 2.94059C159.218 2.49946 158.699 1.82599 158.17 0.906564L157.736 1.15594ZM161.156 4.07812C161.946 4.07812 162.511 4.14473 162.87 4.26451C163.236 4.38644 163.297 4.52544 163.297 4.625H163.797C163.797 4.19331 163.459 3.93387 163.028 3.79017C162.591 3.64433 161.96 3.57812 161.156 3.57812V4.07812ZM163.519 4.37652L156.332 5.1734L156.387 5.67035L163.574 4.87348L163.519 4.37652ZM156.359 5.17188H155.562V5.67188H156.359V5.17188ZM155.812 5.42188V4.625H155.312V5.42188H155.812ZM155.608 4.87086C157.075 4.60025 158.124 4.46875 158.766 4.46875V3.96875C158.074 3.96875 156.987 4.10808 155.517 4.37914L155.608 4.87086ZM158.978 4.08716C158.451 3.23551 158.203 2.48445 158.203 1.82812H157.703C157.703 2.6093 157.997 3.45199 158.553 4.35034L158.978 4.08716ZM158.203 1.82812V1.03125H157.703V1.82812H158.203ZM167.547 4.07812H167.953V3.57812H167.547V4.07812ZM167.703 3.82812V12.2188H168.203V3.82812H167.703ZM167.73 12.1052L167.324 12.9021L167.77 13.1292L168.176 12.3323L167.73 12.1052ZM167.547 13.2656C167.646 13.2656 167.674 13.2896 167.678 13.2935C167.68 13.2956 167.703 13.3171 167.703 13.4062H168.203C168.203 13.235 168.158 13.0612 168.025 12.9331C167.893 12.8067 167.718 12.7656 167.547 12.7656V13.2656ZM168.073 13.6255C169.003 13.1154 170.024 12.8594 171.141 12.8594V12.3594C169.944 12.3594 168.84 12.6346 167.833 13.187L168.073 13.6255ZM171.141 12.8594H172.75V12.3594H171.141V12.8594ZM172.5 12.6094V13.4062H173V12.6094H172.5ZM172.717 13.1585C170.98 13.3931 169.67 13.6118 168.791 13.815C168.354 13.9162 168.012 14.0161 167.775 14.1165C167.657 14.1661 167.552 14.2217 167.471 14.2867C167.397 14.3468 167.297 14.4536 167.297 14.6094H167.797C167.797 14.6818 167.751 14.7032 167.785 14.6757C167.813 14.6532 167.87 14.619 167.97 14.5769C168.166 14.4937 168.474 14.4015 168.904 14.3022C169.76 14.1043 171.051 13.8881 172.783 13.654L172.717 13.1585ZM167.298 14.582C167.039 16.941 166.906 18.4205 166.906 19H167.406C167.406 18.4545 167.534 17.007 167.795 14.6367L167.298 14.582ZM167.156 18.75H166.75V19.25H167.156V18.75ZM166.86 18.7755L166.063 18.3849L165.843 18.8339L166.64 19.2245L166.86 18.7755ZM166.201 18.6455C166.734 14.9931 167 10.1827 167 4.21875H166.5C166.5 10.1714 166.235 14.9548 165.706 18.5732L166.201 18.6455ZM166.86 4.44323L167.657 4.05261L167.437 3.60364L166.64 3.99427L166.86 4.44323ZM158.766 6.875H159.562V6.375H158.766V6.875ZM159.562 6.875C161.574 6.875 162.781 7.52025 163.318 8.7267L163.775 8.5233C163.125 7.06308 161.676 6.375 159.562 6.375V6.875ZM163.297 8.625V9.42188H163.797V8.625H163.297ZM163.324 9.30868C163.002 9.94275 162.595 10.4051 162.109 10.7101C161.624 11.0148 161.044 11.1719 160.359 11.1719V11.6719C161.123 11.6719 161.798 11.4956 162.375 11.1336C162.952 10.772 163.415 10.2343 163.77 9.53507L163.324 9.30868ZM160.359 11.1719H159.953V11.6719H160.359V11.1719ZM159.953 11.1719C159.286 11.1719 158.786 11.0738 158.437 10.8978C158.096 10.7265 157.893 10.4802 157.804 10.153L157.321 10.2845C157.451 10.7594 157.755 11.1146 158.212 11.3444C158.659 11.5694 159.246 11.6719 159.953 11.6719V11.1719ZM157.812 10.2188V7.8125H157.312V10.2188H157.812ZM157.812 7.8125C157.812 7.71907 157.862 7.58661 158.039 7.4123C158.214 7.2393 158.49 7.04972 158.881 6.84685L158.65 6.40315C158.239 6.61695 157.913 6.83362 157.688 7.05645C157.463 7.27798 157.312 7.53093 157.312 7.8125H157.812ZM158.109 8.21875V9.42188H158.609V8.21875H158.109ZM158.112 9.46062C158.159 9.75676 158.261 10.013 158.444 10.1963C158.633 10.3849 158.88 10.4688 159.156 10.4688V9.96875C158.985 9.96875 158.875 9.91982 158.798 9.84275C158.716 9.7604 158.643 9.61824 158.606 9.38313L158.112 9.46062ZM159.156 10.4688H160.359V9.96875H159.156V10.4688ZM160.409 10.4637L162.409 10.0575L162.31 9.5675L160.31 9.97375L160.409 10.4637ZM162.609 9.8125C162.609 9.1996 162.465 8.66297 162.164 8.21586C161.864 7.769 161.418 7.42997 160.846 7.19117L160.654 7.65258C161.155 7.8617 161.514 8.14506 161.75 8.49508C161.985 8.84484 162.109 9.27956 162.109 9.8125H162.609ZM161 7.42188V7.01562H160.5V7.42188H161ZM160.696 6.77158C159.892 6.9501 159.271 7.14421 158.845 7.35872C158.632 7.46589 158.454 7.58479 158.327 7.7205C158.197 7.85863 158.109 8.02594 158.109 8.21875H158.609C158.609 8.18761 158.622 8.13681 158.691 8.0627C158.763 7.98617 158.884 7.89869 159.069 7.80535C159.44 7.61881 160.014 7.43532 160.804 7.25967L160.696 6.77158ZM161.562 13.6562H161.953V13.1562H161.562V13.6562ZM161.703 13.4062V13.8125H162.203V13.4062H161.703ZM161.708 13.7646L161.317 15.7646L161.808 15.8604L162.198 13.8604L161.708 13.7646ZM161.452 16.037L162.249 16.4276L162.469 15.9786L161.673 15.588L161.452 16.037ZM162.359 16.4531H162.75V15.9531H162.359V16.4531ZM162.785 16.4507L165.581 16.0601L165.512 15.5649L162.715 15.9555L162.785 16.4507ZM165.297 15.8125V16.2031H165.797V15.8125H165.297ZM165.297 16.2031C165.297 16.2794 165.236 16.4219 164.887 16.5954C164.552 16.7614 164.031 16.9143 163.306 17.0471C161.863 17.3117 159.683 17.4845 156.759 17.5626L156.772 18.0624C159.702 17.9842 161.913 17.8107 163.397 17.5389C164.136 17.4034 164.712 17.2405 165.109 17.0433C165.491 16.8535 165.797 16.5852 165.797 16.2031H165.297ZM156.766 17.5625H156.359V18.0625H156.766V17.5625ZM156.609 17.8125C156.609 17.7482 156.642 17.6538 156.793 17.53C156.944 17.4053 157.189 17.2747 157.543 17.1449C158.249 16.886 159.326 16.6532 160.784 16.4508L160.716 15.9555C159.247 16.1593 158.128 16.3978 157.371 16.6754C156.993 16.8138 156.689 16.9677 156.475 17.1438C156.26 17.3208 156.109 17.5435 156.109 17.8125H156.609ZM161 16.2031V15.8125H160.5V16.2031H161ZM160.969 15.6911C160.731 15.2633 160.609 14.7747 160.609 14.2188H160.109C160.109 14.8503 160.248 15.4242 160.531 15.9339L160.969 15.6911ZM160.499 14.4259L161.702 13.6134L161.423 13.1991L160.219 14.0116L160.499 14.4259Z" fill="#222222"/>
</svg>
