<svg width="130" height="25" viewBox="0 0 130 25" fill="none" xmlns="http://www.w3.org/2000/svg">
<path d="M13.3477 5.03613H13.8125C15.5446 5.57845 16.4106 6.08757 16.4106 6.56348V9.77588C16.4106 11.187 16.513 13.6357 16.7178 17.1221C16.6126 17.5316 16.3055 17.7363 15.7964 17.7363C14.9829 17.7363 14.5762 16.1564 14.5762 12.9966V7.17773C14.5762 7.05046 14.1667 6.69352 13.3477 6.10693L13.1982 5.7998L13.3477 5.03613ZM1.1123 5.65039H4.01758C5.44531 5.65039 6.15918 6.46663 6.15918 8.09912C6.15918 8.38135 6.31136 9.14502 6.61572 10.3901C6.16195 11.5135 5.24609 12.0752 3.86816 12.0752H2.78906C2.58984 12.1084 2.49023 12.2108 2.49023 12.3823C2.65072 14.2196 2.95508 15.1382 3.40332 15.1382C4.68164 14.9334 5.44808 14.8311 5.70264 14.8311C6.61019 14.8311 7.27148 15.0856 7.68652 15.5947V16.3584C7.4209 16.3584 5.73861 16.613 2.63965 17.1221C1.66569 17.1221 0.951823 15.1326 0.498047 11.1538V10.8467C0.53125 10.6475 0.633626 10.5479 0.805176 10.5479H2.78906C3.82389 10.5479 4.38558 10.2407 4.47412 9.62646C4.40218 8.19873 4.2002 7.48486 3.86816 7.48486H3.71045C1.66846 7.48486 0.647461 7.02555 0.647461 6.10693V5.95752L1.1123 5.65039ZM9.521 6.26465C11.3582 6.26465 12.2769 7.07812 12.2769 8.70508C12.382 10.0498 12.5369 11.1732 12.7417 12.0752C12.7417 12.1859 12.6891 12.3381 12.584 12.5317C12.7887 14.3136 12.8911 15.437 12.8911 15.9019C12.88 16.1951 12.5729 16.4497 11.9697 16.6655C11.2559 16.6655 10.8989 15.7995 10.8989 14.0674C10.8989 13.6191 10.7467 13.2096 10.4424 12.8389L8.91504 12.9966H8.4502C7.92448 12.9966 7.62012 12.8416 7.53711 12.5317V11.7681C7.53711 11.5246 8.55811 11.27 10.6001 11.0044V10.8467C10.6001 8.70508 10.2404 7.63428 9.521 7.63428C9.28857 7.63428 9.13639 7.37972 9.06445 6.87061C9.2194 6.46663 9.37158 6.26465 9.521 6.26465ZM25.7617 3.48389H26.376C29.0322 4.40251 30.3604 5.16895 30.3604 5.7832L30.0532 8.69678C30.5291 8.86279 31.3454 9.06478 32.502 9.30273L32.8091 9.76758V10.2241C32.6431 10.6336 32.2861 10.8384 31.7383 10.8384H30.0532L29.9038 11.9092V15.1299C29.9038 15.8438 29.5441 16.2007 28.8247 16.2007C28.216 15.8687 27.9116 15.4591 27.9116 14.9722V13.2871C27.9116 10.6807 28.014 8.33154 28.2188 6.23975C26.376 5.37646 25.4546 4.56022 25.4546 3.79102C25.4878 3.58626 25.5902 3.48389 25.7617 3.48389ZM20.5571 5.32666H21.3208C22.5991 5.32666 23.6727 6.1429 24.5415 7.77539C24.7463 8.17383 24.8486 8.73551 24.8486 9.46045C24.8486 11.5301 23.266 12.7559 20.1006 13.1377C17.9535 12.4128 16.8799 11.1344 16.8799 9.30273V8.38965C16.8799 6.89551 18.1056 5.87451 20.5571 5.32666ZM18.7144 9.00391V9.30273C18.7144 10.6309 19.1764 11.2949 20.1006 11.2949C22.0374 10.9076 23.0059 10.1937 23.0059 9.15332V8.53906C23.0059 7.72559 22.4442 7.21647 21.3208 7.01172C19.5832 7.33822 18.7144 8.00228 18.7144 9.00391ZM20.3994 16.043H23.6201C24.262 16.043 25.0285 16.0955 25.9194 16.2007C26.2736 16.0955 26.7827 16.043 27.4468 16.043C27.7567 16.043 28.0638 16.3501 28.3682 16.9644C28.1855 19.7202 27.6737 21.0981 26.8325 21.0981C23.0584 21.0981 21.1714 21.3555 21.1714 21.8701C21.1714 22.584 21.4757 22.9409 22.0845 22.9409L29.7461 22.3267C30.46 22.5314 30.8169 22.9409 30.8169 23.5552C30.8169 24.269 29.2342 24.626 26.0688 24.626C24.619 24.8307 23.0363 24.9331 21.3208 24.9331H21.0137C20.001 24.9331 19.3895 24.0145 19.1792 22.1772C19.1792 21.6073 19.1266 21.0456 19.0215 20.4922C19.0215 19.8945 20.452 19.5348 23.313 19.4131H24.998C25.5293 19.4131 25.8364 19.2609 25.9194 18.9565V18.3423C25.9194 18.1375 25.8171 18.0352 25.6123 18.0352H20.25C19.6966 18.0352 19.2871 17.7806 19.0215 17.2715V16.3501C19.6855 16.1453 20.1449 16.043 20.3994 16.043ZM47.6514 5.31836H47.9585C49.9009 5.95475 50.8721 6.46387 50.8721 6.8457C50.8721 9.50195 51.027 10.8301 51.3369 10.8301H53.022C53.2267 10.8301 53.3291 10.7277 53.3291 10.5229C53.224 8.1766 52.867 7.00342 52.2583 7.00342C51.7713 7.00342 51.4642 6.59391 51.3369 5.7749C51.3369 5.62549 51.4891 5.47331 51.7935 5.31836C53.9406 5.70573 55.0142 6.36979 55.0142 7.31055C55.2189 9.46875 55.3213 10.7443 55.3213 11.1372V11.9092C55.3213 12.1361 55.3711 12.3381 55.4707 12.5151C55.3711 12.7144 55.3213 12.8693 55.3213 12.98C55.3213 13.0907 55.3711 13.2428 55.4707 13.4365L55.3213 14.3579V14.5156C55.3213 14.82 55.3711 14.9722 55.4707 14.9722L55.3213 15.7358V19.1143C55.3213 19.8281 54.9644 20.1851 54.2505 20.1851H53.9434C53.4287 19.925 53.1714 19.5155 53.1714 18.9565V17.4209L53.3291 16.5078C53.3291 16.4027 53.2765 16.3501 53.1714 16.3501L53.3291 15.2793V12.6729C53.2184 12.6729 53.0635 12.6203 52.8643 12.5151C51.6413 12.5926 51.0298 12.7476 51.0298 12.98V13.4365C51.0298 13.5417 51.0796 13.5942 51.1792 13.5942L51.0298 13.9014V16.043C51.0298 16.4137 51.0796 16.873 51.1792 17.4209C51.0685 18.5498 50.7116 19.1143 50.1084 19.1143C49.3945 19.1143 49.0376 18.0407 49.0376 15.8936V13.5942C49.0376 13.2843 49.0874 13.1294 49.187 13.1294L49.0376 12.3657V8.99561C49.0376 7.71175 48.5257 6.89274 47.502 6.53857C47.2972 6.20654 47.1948 5.89941 47.1948 5.61719L47.6514 5.31836ZM45.8169 7.45996C46.4312 7.69792 46.7383 7.90267 46.7383 8.07422V8.38135C46.7383 13.561 45.2552 16.779 42.2891 18.0352C42.1895 18.3451 41.8823 18.5 41.3677 18.5H41.0605C40.3467 18.5 39.9897 18.2427 39.9897 17.728C39.9897 17.4513 40.8088 16.8398 42.4468 15.8936C43.9797 14.2777 44.7461 12.1305 44.7461 9.45215L44.439 9.30273H42.5962C42.2918 9.30273 42.1396 9.35254 42.1396 9.45215L41.3677 9.30273H39.0684C38.5592 9.09798 38.3047 8.73828 38.3047 8.22363C38.3047 8.02441 38.6118 7.82243 39.2261 7.61768C39.5692 7.61768 39.8237 7.66748 39.9897 7.76709L45.8169 7.45996ZM66.0337 0.75293H67.7188C67.8792 0.75293 68.084 0.957682 68.333 1.36719V1.82373C68.333 2.57633 68.2804 3.13802 68.1753 3.50879C68.2804 4.17839 68.333 4.83968 68.333 5.49268V7.17773C68.167 7.58724 67.8101 7.79199 67.2622 7.79199C66.6479 7.79199 66.3408 6.56624 66.3408 4.11475V3.35107L66.4985 2.5874L66.1914 2.43799H65.8843C65.7681 2.43799 65.2064 2.54036 64.1992 2.74512H63.7427C62.9237 2.66764 62.5142 2.31071 62.5142 1.67432C62.5142 1.29248 63.6873 0.985352 66.0337 0.75293ZM60.5303 1.36719C61.139 1.52767 61.4434 1.83203 61.4434 2.28027C61.958 5.58952 62.2153 7.52913 62.2153 8.09912C61.839 8.40348 61.4821 8.55566 61.1445 8.55566C60.4417 8.55566 60.0322 7.12793 59.916 4.27246L59.4595 3.20166L56.5542 3.50879C56.1336 3.36491 55.8265 3.11035 55.6328 2.74512V2.28027C55.6328 1.8763 57.2653 1.57194 60.5303 1.36719ZM68.1753 8.86279C69.8078 9.03988 70.624 9.39681 70.624 9.93359C70.5908 10.1715 70.2865 10.5285 69.7109 11.0044C69.1465 10.8993 68.737 10.8467 68.4824 10.8467C67.8073 10.8467 66.7365 11.0016 65.27 11.3115V11.9175C65.27 12.3657 65.3724 12.7752 65.5771 13.146C65.5771 13.2843 65.3724 13.6413 64.9629 14.2168V14.3662H65.4277C65.9092 14.3662 66.4183 14.3164 66.9551 14.2168C67.9733 14.3496 68.4824 14.8089 68.4824 15.5947L68.333 16.3584L68.4824 16.9727C68.4824 17.9909 67.514 18.5 65.5771 18.5C63.1312 18.7048 61.9082 18.9593 61.9082 19.2637C61.9082 19.8779 62.1102 20.1851 62.5142 20.1851C65.519 19.8807 67.1515 19.7285 67.4116 19.7285C68.048 19.9333 68.4049 20.1878 68.4824 20.4922V20.9487C68.4824 21.3029 67.9235 21.5575 66.8057 21.7124C66.7005 21.7124 66.6479 21.6626 66.6479 21.563C64.1688 21.8674 62.3343 22.0195 61.1445 22.0195C60.6299 21.6488 60.1706 20.4258 59.7666 18.3506C59.7666 17.7363 60.4805 17.4292 61.9082 17.4292C62.7217 17.2244 64.2518 16.9699 66.4985 16.6655V16.209C66.3879 16.209 66.2329 16.1564 66.0337 16.0513C63.9972 16.256 62.0604 16.3584 60.2231 16.3584C59.8136 15.9489 59.6089 15.6418 59.6089 15.437C59.6089 14.8283 60.9868 14.5239 63.7427 14.5239C63.9198 14.4188 64.1245 14.3662 64.3569 14.3662C63.8589 13.9014 63.502 12.9329 63.2861 11.4609H60.5303C59.9382 11.4609 59.1219 11.5135 58.0815 11.6187C57.8436 11.5799 57.4867 11.2728 57.0107 10.6973C57.0107 9.9834 58.5907 9.62646 61.7505 9.62646C63.5767 9.62646 65.7183 9.37191 68.1753 8.86279ZM86.4248 2.71191C88.262 3.08268 89.1807 3.48942 89.1807 3.93213C89.1807 4.51872 89.0783 5.13298 88.8735 5.7749H89.0312C88.8265 6.38916 88.7241 7.71729 88.7241 9.75928V12.6729C88.7241 13.2262 88.4668 13.6357 87.9521 13.9014C87.1387 13.9014 86.7319 13.4919 86.7319 12.6729V12.0586C86.7319 11.5218 86.7817 10.653 86.8813 9.45215L86.5742 9.30273C84.6318 9.30273 83.6606 9.50749 83.6606 9.91699C83.6606 12.6729 83.3037 14.0508 82.5898 14.0508C81.9756 14.0508 81.6187 13.6413 81.519 12.8223L82.1333 5.46777C80.4953 5.11361 79.6763 4.55192 79.6763 3.78271C79.6763 3.6333 79.8285 3.47835 80.1328 3.31787H80.4399C82.897 3.68311 84.1255 4.14518 84.1255 4.7041L83.8184 7.45996C84.012 7.5651 84.1642 7.61768 84.2749 7.61768C86.1121 7.61768 87.0308 7.41292 87.0308 7.00342C87.0308 6.75439 87.0833 5.98796 87.1885 4.7041C86.0651 4.36654 85.5034 3.80485 85.5034 3.01904C85.8354 2.81429 86.1426 2.71191 86.4248 2.71191ZM77.5347 4.85352C77.9552 4.9974 78.2596 5.25195 78.4478 5.61719C78.4478 6.53581 77.7837 8.01888 76.4556 10.0664C76.4556 10.3044 77.1196 11.021 78.4478 12.2163C78.5529 12.3934 78.6055 12.5954 78.6055 12.8223V13.1294C78.6055 13.2788 78.4505 13.4338 78.1406 13.5942C77.7367 13.5942 76.7682 12.9302 75.2354 11.6021H74.9282C73.4618 12.6203 72.4906 13.1294 72.0146 13.1294H71.7075C71.1707 12.8638 70.8636 12.5594 70.7861 12.2163C70.7861 11.8843 71.7573 11.27 73.6997 10.3735C75.1164 8.92367 75.8828 7.74772 75.999 6.8457C73.7357 6.95085 72.5099 7.00342 72.3218 7.00342C71.7075 6.79313 71.4004 6.38363 71.4004 5.7749V5.61719C71.5 5.31283 71.8071 5.16064 72.3218 5.16064H72.6289C74.859 5.16064 76.4943 5.05827 77.5347 4.85352ZM84.1255 15.5864C85.4536 15.7137 86.1177 16.2256 86.1177 17.1221V18.3423C86.1177 19.5929 86.0153 20.7689 85.8105 21.8701L85.96 22.6338C85.7552 23.1872 85.5007 23.4943 85.1963 23.5552C84.5322 23.3504 84.0729 23.248 83.8184 23.248C83.3148 23.248 81.8843 23.5552 79.5269 24.1694C78.3481 24.1694 77.6841 22.4318 77.5347 18.9565C77.4295 18.6411 77.377 18.0296 77.377 17.1221V16.8149C77.377 16.339 79.4715 15.9793 83.6606 15.7358C83.6606 15.6362 83.8156 15.5864 84.1255 15.5864ZM79.3691 18.3423C79.679 20.9985 79.9336 22.3267 80.1328 22.3267C81.3115 21.9227 82.3353 21.7207 83.2041 21.7207H83.6606C84.0701 21.7207 84.2749 20.4424 84.2749 17.8857C84.0259 17.681 83.8211 17.5786 83.6606 17.5786C80.7996 17.728 79.3691 17.9328 79.3691 18.1929V18.3423ZM103.849 3.35107C105.785 3.57796 106.754 3.98747 106.754 4.57959V8.09912C106.787 8.30387 106.889 8.40625 107.061 8.40625C107.31 8.40625 108.126 8.2513 109.51 7.94141C110.118 8.20703 110.423 8.56396 110.423 9.01221C110.423 9.54899 109.252 10.0609 106.912 10.5479C106.912 10.6475 106.859 10.6973 106.754 10.6973C106.859 11.0791 106.961 12.3547 107.061 14.5239C106.895 15.033 106.588 15.2876 106.14 15.2876C105.326 15.2876 104.919 13.6053 104.919 10.2407V9.93359C104.919 9.59049 104.867 9.33594 104.762 9.16992L104.919 8.24854V7.33545L104.762 6.41406C104.867 6.23698 104.919 6.03223 104.919 5.7998C104.919 5.55078 104.41 5.24642 103.392 4.88672L103.234 4.11475V3.81592C103.234 3.66097 103.439 3.50602 103.849 3.35107ZM101.707 5.7998C102.094 5.89388 102.399 6.25081 102.62 6.87061C102.521 8.22087 102.471 9.34424 102.471 10.2407C102.471 10.4842 102.521 11.2479 102.62 12.5317C102.249 12.8416 101.892 12.9966 101.549 12.9966C101.35 12.9966 101.25 12.944 101.25 12.8389L100.18 12.9966H97.4238L96.5024 13.146C95.2795 13.146 94.668 12.0226 94.668 9.77588V8.24854C94.668 6.8208 94.9751 6.10693 95.5894 6.10693C95.9214 6.31169 96.2257 6.41406 96.5024 6.41406C98.8101 6.00456 100.545 5.7998 101.707 5.7998ZM96.5024 8.70508L96.6602 10.5479V11.0044C96.6878 11.2091 96.7874 11.3115 96.959 11.3115H99.7148C99.9915 11.3115 100.299 11.2091 100.636 11.0044L100.479 10.2407V8.09912L100.329 7.79199C97.9551 8.17383 96.6795 8.47819 96.5024 8.70508ZM99.2583 14.6733H100.022C100.636 14.6733 100.943 15.7967 100.943 18.0435V18.5L101.093 18.8071C102.111 18.7075 102.877 18.6577 103.392 18.6577H105.069C105.583 18.6577 105.94 18.9123 106.14 19.4214V19.8779C106.14 20.387 104.814 20.6416 102.164 20.6416C102.164 20.8464 101.502 20.9487 100.18 20.9487C99.3607 20.9487 98.9512 19.7257 98.9512 17.2798C98.9512 17.0308 98.9014 16.2643 98.8018 14.9805L99.2583 14.6733ZM115.026 4.86182H117.475C118.028 4.86182 118.388 5.06657 118.554 5.47607V6.09033C118.554 6.24528 118.349 6.39746 117.939 6.54688L116.869 6.39746C116.166 6.49707 115.604 6.54688 115.184 6.54688C114.647 6.54688 114.188 6.24251 113.806 5.63379V5.32666C113.867 5.01676 114.273 4.86182 115.026 4.86182ZM123.302 5.7832H123.601C125.748 6.01009 126.821 6.36702 126.821 6.854C126.921 10.5783 127.023 12.7752 127.128 13.4448H128.656C128.816 13.4448 129.021 13.6496 129.27 14.0591V14.5156C129.27 14.8255 128.556 15.0801 127.128 15.2793V15.437C127.228 17.3185 127.278 18.9012 127.278 20.1851V20.791C127.278 20.9515 127.076 21.1562 126.672 21.4053C125.853 21.3278 125.443 20.9709 125.443 20.3345C125.239 11.757 125.034 7.46826 124.829 7.46826C124.076 7.46826 123.465 7.11133 122.995 6.39746V6.09033C123.022 5.88558 123.125 5.7832 123.302 5.7832ZM120.695 8.08252C121.31 8.32048 121.617 8.67741 121.617 9.15332C121.617 9.66243 120.186 9.91699 117.325 9.91699H111.813C110.994 9.79525 110.585 9.49089 110.585 9.00391C110.585 8.48926 111.606 8.23193 113.648 8.23193H119.774L120.695 8.08252ZM116.562 11.4526C119.212 11.8511 120.538 12.8195 120.538 14.3579C120.538 15.8133 119.569 16.8869 117.632 17.5786H117.475C117.475 18.8016 117.732 19.4131 118.247 19.4131C120.001 19.3135 121.022 19.2637 121.31 19.2637C121.774 19.4629 122.029 19.6676 122.073 19.8779V20.3345C122.073 20.9598 120.031 21.3167 115.947 21.4053C115.947 21.5104 115.181 21.563 113.648 21.563C112.597 21.563 111.83 21.2061 111.349 20.4922C111.493 19.9775 111.849 19.7202 112.419 19.7202H115.333L116.097 19.5708C116.097 18.0379 115.842 17.2715 115.333 17.2715C113.701 16.7126 112.884 15.7414 112.884 14.3579C112.884 13.1349 113.446 12.5234 114.569 12.5234C114.569 12.0475 115.233 11.6906 116.562 11.4526ZM114.569 14.5156V14.8228C114.569 15.2599 115.078 15.6169 116.097 15.8936H117.018C118.141 15.6611 118.703 15.0994 118.703 14.2085V13.9014C118.343 13.2871 117.884 12.98 117.325 12.98H116.711C116.036 12.98 115.322 13.4919 114.569 14.5156Z" fill="#222222"/>
</svg>
