<svg width="92" height="25" viewBox="0 0 92 25" fill="none" xmlns="http://www.w3.org/2000/svg">
<path d="M1.24805 0.880859C5.25586 1.39648 7.25977 1.71582 7.25977 1.83887L7.74316 1.60156H9.66797C11.9121 2.02344 13.0342 3.86621 13.0342 7.12988C12.7236 7.8623 12.4043 8.26367 12.0762 8.33398H11.5928C11.0127 8.33398 10.5322 6.89258 10.1514 4.00977C9.8291 4.00977 9.66797 3.92773 9.66797 3.76367L9.18457 4.00977H8.94727C8.7832 4.00977 8.70117 3.92773 8.70117 3.76367C7.74023 3.97461 7.25977 4.21484 7.25977 4.48438V7.37598C7.25977 8.33691 6.7793 8.81738 5.81836 8.81738C5.17969 8.2373 4.86035 7.5957 4.86035 6.89258V3.76367C1.97168 3.44727 0.527344 3.04883 0.527344 2.56836V1.11816C0.697266 1.11816 0.9375 1.03906 1.24805 0.880859ZM2.45215 9.78418C3.2959 9.94238 3.77637 10.0215 3.89355 10.0215C8.82129 9.86328 12.1904 9.78418 14.001 9.78418L14.7217 10.7422V11.4629C14.7217 11.6914 14.4814 11.9316 14.001 12.1836H9.43066V12.9043L9.66797 14.5918H11.1094C12.3926 14.5918 13.0342 15.3125 13.0342 16.7539V18.1953C13.0342 20.123 10.9512 21.0869 6.78516 21.0869V21.5615C8.60742 21.8838 9.8877 22.0449 10.626 22.0449H12.0762C12.3047 22.0449 12.5449 22.2852 12.7969 22.7656V23.0117C12.2988 23.9727 11.335 24.4531 9.90527 24.4531C7.11035 24.4531 5.18555 23.249 4.13086 20.8408C4.53516 19.5576 5.33789 18.916 6.53906 18.916C9.18164 18.7578 10.626 18.2773 10.8721 17.4746V16.7539C7.24512 16.918 4.99805 17 4.13086 17L3.41016 16.0332L3.65625 14.8291H6.30176L7.50586 14.5918L7.25977 14.1084V12.4297H5.09766C2.85352 12.4297 1.73145 11.8672 1.73145 10.7422L2.45215 9.78418ZM15.4443 2.33984H16.6396C17.2842 2.33984 17.6855 4.02148 17.8438 7.38477L19.5312 7.14746H22.1768L25.0596 6.90137V6.42676C25.0596 4.01855 25.3789 2.81445 26.0176 2.81445H26.501C27.1396 3.13672 27.459 3.62012 27.459 4.26465C27.459 10.6748 26.3369 13.8799 24.0928 13.8799V14.3545C23.7764 14.3545 23.6182 14.1963 23.6182 13.8799L23.1348 14.1172H22.8975C22.7334 14.1172 22.6514 14.0381 22.6514 13.8799L22.1768 14.1172H21.21L18.8105 14.3545V14.1172L18.3271 14.3545C16.7334 14.3545 15.8516 12.9131 15.6816 10.0303C15.5234 6.39746 15.2832 4.23535 14.9609 3.54395C15.2832 3.02246 15.4443 2.62109 15.4443 2.33984ZM22.1768 9.54688H19.5312L18.3271 9.79297C18.3271 9.62891 18.248 9.54688 18.0898 9.54688V10.2676L18.3271 11.9551C22.335 11.9551 24.3389 11.4746 24.3389 10.5137L24.5762 9.30957H24.3389L22.6514 9.54688V9.30957L22.1768 9.54688ZM21.6934 14.3545C22.4961 14.6123 22.8975 15.1748 22.8975 16.042C22.7334 16.8799 22.6514 17.6797 22.6514 18.4414H25.7803C26.7412 18.4414 27.2217 18.9219 27.2217 19.8828C27.0049 20.5273 26.2842 20.8496 25.0596 20.8496H17.3691C16.9766 20.5273 16.6543 20.3662 16.4023 20.3662V19.1621C16.4023 18.9336 16.6426 18.6934 17.123 18.4414H20.252L20.4893 15.5586V14.6006L21.6934 14.3545ZM35.626 4.49316C35.9482 5.01465 36.1094 5.49512 36.1094 5.93457V6.40918C35.8633 7.21191 33.8594 7.61328 30.0977 7.61328V9.53809C30.0977 12.2627 30.7393 13.625 32.0225 13.625H35.1426C35.3066 13.625 35.6289 13.9473 36.1094 14.5918C36.1094 15.875 35.6289 16.5166 34.668 16.5166C33.748 16.5166 33.1855 16.5957 32.9805 16.7539C29.9336 16.3789 28.4102 15.5791 28.4102 14.3545C27.9297 12.8545 27.6895 11.4893 27.6895 10.2588V5.93457L28.6475 4.73047L30.335 4.96777C33.3936 4.65137 35.1572 4.49316 35.626 4.49316ZM41.6377 4.49316C42.2822 5.29004 42.6045 6.89258 42.6045 9.30078H45.25L46.4541 9.53809V11.2256C46.29 11.7061 45.8066 11.9463 45.0039 11.9463H42.6045V15.7959C42.6045 16.915 42.042 17.4746 40.917 17.4746L40.1963 16.5166V9.78418C40.1963 8.85254 40.1172 7.56934 39.959 5.93457C40.2227 4.97363 40.7822 4.49316 41.6377 4.49316ZM60.1162 1.83887C62.5186 1.83887 63.7197 2.88184 63.7197 4.96777V5.21387C63.7197 10.0244 62.7588 12.4297 60.8369 12.4297C60.1748 12.4297 59.5332 12.5088 58.9121 12.667C58.6309 12.5088 58.3115 12.4297 57.9541 12.4297C57.6436 12.5879 57.4033 12.667 57.2334 12.667V12.4297L56.75 12.667H55.7832C54.793 12.667 53.832 9.54102 52.9004 3.28906C52.9004 2.32227 54.5029 1.83887 57.708 1.83887H60.1162ZM68.0527 2.56836H68.5361C69.3389 2.97852 69.7402 3.61719 69.7402 4.48438C69.7402 4.66016 69.6582 4.90332 69.4941 5.21387L69.7402 6.65527V7.12988H72.1396C72.4736 7.2002 72.7959 7.60156 73.1064 8.33398C72.7842 8.85547 72.623 9.25684 72.623 9.53809H71.9023L70.2148 9.78418C70.2148 9.62012 70.1357 9.53809 69.9775 9.53809V11.4629C69.9775 13.3848 69.6582 14.3457 69.0195 14.3457H67.8154C67.8154 14.0996 67.6543 13.7803 67.332 13.3877V7.85938L67.0947 6.65527H67.332L67.0947 6.17188V4.24707C67.0947 3.38574 67.4141 2.82617 68.0527 2.56836ZM55.5459 4.73047C56.3486 7.84766 56.75 9.61133 56.75 10.0215H57.708C59.7939 10.0215 60.8369 9.69922 60.8369 9.05469C60.9951 8.1875 61.0742 7.4668 61.0742 6.89258V4.48438H56.75L55.5459 4.73047ZM61.3203 15.3125H62.041C62.5215 15.9805 63.0811 17.3428 63.7197 19.3994C65.167 19.0771 66.5322 18.916 67.8154 18.916L68.29 19.6455V20.6035C68.29 21.2129 66.7666 21.6934 63.7197 22.0449C62.0322 22.0449 60.9102 20.5215 60.3535 17.4746C60.5527 16.0332 60.875 15.3125 61.3203 15.3125ZM77.916 3.04297H78.3994C78.3994 3.20703 78.3174 3.28906 78.1533 3.28906C78.4287 3.63477 78.6689 4.75684 78.874 6.65527C80.8018 6.65527 81.7656 7.05664 81.7656 7.85938V8.58008C81.7656 8.75 81.3643 9.06934 80.5615 9.53809C80.8838 10.0654 81.0449 10.5459 81.0449 10.9795V12.667C80.8457 13.9502 80.3652 14.5918 79.6035 14.5918V14.8291L79.8408 17.2373H80.5615L82.249 17.4746V18.916C82.249 19.5605 80.4824 19.8828 76.9492 19.8828H75.7539C75.2734 19.7246 75.0332 19.2441 75.0332 18.4414V18.1953C75.0332 17.8262 75.833 17.5068 77.4326 17.2373C77.4326 15.3096 76.791 14.3457 75.5078 14.3457C74.5469 13.4141 74.0664 12.5322 74.0664 11.7002C74.0664 11.46 74.2275 10.7393 74.5498 9.53809C73.8174 9.22754 73.416 8.9082 73.3457 8.58008V7.37598C74.5059 6.89551 75.4668 6.65527 76.2285 6.65527V4.00977C76.4922 3.36523 77.0547 3.04297 77.916 3.04297ZM86.5732 7.37598H87.0566C87.3789 8.34277 87.6191 9.78418 87.7773 11.7002H90.1855C91.0469 11.7002 91.5273 12.1016 91.627 12.9043C91.3047 13.4258 91.1436 13.8271 91.1436 14.1084H87.7773V14.3457C87.7773 15.0137 87.8564 15.8984 88.0146 17C88.0146 18.1191 87.5342 18.6787 86.5732 18.6787C85.7412 18.6787 85.2607 17.1553 85.1318 14.1084H85.3691L85.1318 13.625V11.9463C85.1318 11.0615 85.0527 9.93945 84.8945 8.58008C85.1172 7.77734 85.6768 7.37598 86.5732 7.37598ZM76.7119 10.2588V11.7002C76.7119 11.9346 76.9521 12.1777 77.4326 12.4297H78.3994L78.874 12.1836C78.874 11.1406 78.3936 10.4199 77.4326 10.0215C77.1221 10.1797 76.8818 10.2588 76.7119 10.2588Z" fill="#222222"/>
</svg>
