<svg width="160" height="22" viewBox="0 0 160 22" fill="none" xmlns="http://www.w3.org/2000/svg">
<path d="M14.1445 1.08984C15.9818 1.62109 16.9004 2.43734 16.9004 3.53857C16.7952 6.36637 16.7427 8.66569 16.7427 10.4365V11.5156C16.7427 12.2295 16.4383 12.5864 15.8296 12.5864C15.2153 12.5864 14.9082 11.4631 14.9082 9.21631C14.9082 8.82894 14.958 6.98893 15.0576 3.69629C15.0576 3.486 14.5983 3.0765 13.6797 2.46777C13.5801 2.29069 13.5303 2.08594 13.5303 1.85352V1.54639C13.5303 1.39697 13.735 1.24479 14.1445 1.08984ZM5.55322 2.01123C6.19515 2.01123 6.65723 2.26579 6.93945 2.7749V3.38916C6.93945 3.66585 5.45638 3.97298 2.49023 4.31055L2.34082 4.61768V5.83789C2.36849 6.04264 2.47087 6.14502 2.64795 6.14502H3.10449C3.59147 6.14502 4.10335 6.09521 4.64014 5.99561C6.06787 6.16715 6.78174 6.42171 6.78174 6.75928V7.22412C6.78174 7.57275 5.60579 7.82731 3.25391 7.98779C3.07682 7.88265 2.87484 7.83008 2.64795 7.83008L2.49023 8.13721V8.60205C2.49023 8.87874 2.59261 9.18587 2.79736 9.52344L4.33301 9.36572H5.71094C6.375 9.36572 6.83431 9.67285 7.08887 10.2871C6.85091 10.9014 6.49398 11.2085 6.01807 11.2085C5.90739 11.2085 5.75244 11.1559 5.55322 11.0508C3.56657 11.3607 2.18864 11.5156 1.41943 11.5156C0.904785 11.5156 0.647461 8.95898 0.647461 3.8457C0.647461 3.74056 0.597656 3.58838 0.498047 3.38916C0.498047 2.67529 1.1123 2.31836 2.34082 2.31836C4.08952 2.21322 5.16032 2.11084 5.55322 2.01123ZM10.6167 2.01123C12.1496 2.49821 12.916 2.95752 12.916 3.38916V11.665C12.916 11.8255 12.7113 12.0303 12.3018 12.2793H11.8452C11.3306 12.0192 11.0732 11.6097 11.0732 11.0508V7.98779L10.7661 7.52295L9.69531 7.68066C9.14193 7.68066 8.73242 7.42611 8.4668 6.91699V6.45215C8.60514 6.04264 9.06445 5.83789 9.84473 5.83789H10.7661C10.9709 5.83789 11.0732 5.73551 11.0732 5.53076V4.15283C10.2542 3.4777 9.84473 2.96859 9.84473 2.62549C9.94987 2.21598 10.2072 2.01123 10.6167 2.01123ZM7.396 13.3501C8.41423 13.3501 9.07829 14.7806 9.38818 17.6416L9.5459 17.9487C11.0788 17.8491 12.2021 17.7993 12.916 17.7993H13.6797C14.2386 17.7993 14.6481 18.0539 14.9082 18.563V19.0195C14.9082 19.1302 14.6536 19.335 14.1445 19.6338L13.8374 19.4844H12.3018L8.62451 20.0986C8.01025 20.0986 7.55094 18.4634 7.24658 15.1929C7.05843 15.1929 6.95605 14.681 6.93945 13.6572L7.396 13.3501ZM27.6377 1.39697C29.5801 1.93929 30.5513 2.65316 30.5513 3.53857V6.14502C30.5513 7.62256 30.5015 9.31038 30.4019 11.2085C30.5015 11.6125 30.5513 11.9694 30.5513 12.2793C30.3521 12.7441 30.1473 12.9987 29.937 13.043H29.3228C28.8136 12.8161 28.5591 12.307 28.5591 11.5156V9.51514C28.5591 9.31592 28.4567 9.21631 28.252 9.21631H25.9526C25.034 9.0835 24.5747 8.62142 24.5747 7.83008V7.68066C24.6079 7.47591 24.7103 7.37354 24.8818 7.37354H28.252C28.4014 7.37354 28.5535 7.22135 28.7085 6.91699V6.60986C28.7085 6.46045 28.5563 6.3055 28.252 6.14502C26.874 6.34977 26.0052 6.45215 25.6455 6.45215C25.236 6.02051 25.0312 5.611 25.0312 5.22363V5.07422C25.0312 4.74772 26.2072 4.54297 28.5591 4.45996L28.7085 4.15283V3.8457C27.6903 2.95475 27.1812 2.34326 27.1812 2.01123L27.6377 1.39697ZM20.7397 2.31836H21.0469C21.8659 2.31836 22.2754 3.03223 22.2754 4.45996L21.8105 7.52295C23.5482 8.8068 24.417 9.67562 24.417 10.1294C24.2454 10.644 23.9909 10.9014 23.6533 10.9014C23.3988 10.9014 22.4276 10.2871 20.7397 9.05859C19.229 10.0824 18.3104 10.5942 17.9839 10.5942H17.6768C17.5329 10.5887 17.3281 10.3314 17.0625 9.82227V9.36572C18.8001 7.94352 19.6689 7.17708 19.6689 7.06641C20.0785 6.31934 20.2832 5.50309 20.2832 4.61768V2.7749C20.2832 2.62549 20.4354 2.47331 20.7397 2.31836ZM22.1177 11.8145H22.2754C23.194 11.8145 23.6533 12.8382 23.6533 14.8857C23.6533 15.3451 23.7059 15.6522 23.811 15.8071C25.189 15.702 26.21 15.6494 26.874 15.6494H29.937C30.4295 15.6494 30.839 15.9067 31.1655 16.4214C30.9552 17.0301 30.7505 17.3345 30.5513 17.3345H27.9448C27.1812 17.3345 25.3937 17.5392 22.5825 17.9487C22.0679 17.5392 21.8105 17.0799 21.8105 16.5708V14.5786C21.8105 14.0142 21.7607 13.2975 21.6611 12.4287C21.8161 12.0192 21.9683 11.8145 22.1177 11.8145ZM47.9834 0.815918C48.2546 0.815918 48.5091 1.07048 48.7471 1.57959C48.5423 4.28011 48.4399 5.9126 48.4399 6.47705L48.5977 7.54785C48.1992 7.85221 47.8921 8.00439 47.6763 8.00439C46.8628 7.59489 46.4561 7.0332 46.4561 6.31934V6.16992C46.4561 5.45605 46.5059 4.33268 46.6055 2.7998L46.2983 2.65039C45.9608 2.65039 45.7062 2.7002 45.5347 2.7998C44.616 2.7998 43.952 2.44287 43.5425 1.729V1.42188C43.5425 1.27799 43.6974 1.12581 44.0073 0.965332C45.7173 0.865723 47.0426 0.815918 47.9834 0.815918ZM41.8657 1.27246C42.5796 1.41081 42.9365 1.61556 42.9365 1.88672C42.8314 3.21484 42.7788 4.28564 42.7788 5.09912C42.7788 5.19873 42.729 5.24854 42.6294 5.24854L42.7788 5.55566V6.62646C42.7788 7.17985 42.4744 7.53678 41.8657 7.69727C41.0467 7.3099 40.6372 6.80078 40.6372 6.16992V3.72119C40.6372 3.61605 40.6898 3.56348 40.7949 3.56348C40.6898 3.36979 40.6372 3.21761 40.6372 3.10693L39.1099 3.26465H38.0391C37.1204 3.13184 36.6611 2.67253 36.6611 1.88672C36.6611 1.7373 36.8133 1.58236 37.1177 1.42188C38.9992 1.32227 40.5819 1.27246 41.8657 1.27246ZM46.2983 8.91748C48.7498 8.91748 49.9756 9.12223 49.9756 9.53174C50.0752 9.70882 50.125 9.91357 50.125 10.146V10.2954L49.6685 10.9097L47.2197 10.7603C46.1904 10.7603 43.18 10.8101 38.1885 10.9097C37.5798 10.4504 37.2754 9.99105 37.2754 9.53174L37.5825 9.0752C41.4285 8.97005 44.3338 8.91748 46.2983 8.91748ZM41.1021 11.9805C45.59 12.1852 47.834 12.4924 47.834 12.9019C47.9336 13.0789 47.9834 13.2809 47.9834 13.5078C47.5739 15.5498 47.2668 16.5708 47.062 16.5708C45.7394 16.7756 44.3117 16.9277 42.7788 17.0273C42.5851 16.9277 42.4329 16.8779 42.3223 16.8779L42.1729 17.1851V17.4922C42.61 18.2946 42.967 18.7539 43.2437 18.8701C44.9702 18.5602 46.2956 18.2531 47.2197 17.9487C48.0332 18.0981 48.4399 18.5049 48.4399 19.1689V19.3267C48.4399 19.8081 46.5529 20.3172 42.7788 20.854C41.8989 20.854 40.7783 19.2741 39.417 16.1143C39.417 15.5 41.1491 15.1929 44.6133 15.1929C45.2275 14.9494 45.5347 14.7446 45.5347 14.5786V14.4292C45.5347 14.147 44.2591 13.9422 41.708 13.8149C40.9941 13.2284 40.6372 12.8216 40.6372 12.5947C40.7922 12.1852 40.9471 11.9805 41.1021 11.9805ZM62.3896 0.94873C64.736 1.3029 65.9092 1.91439 65.9092 2.7832V3.39746C65.4997 9.36296 65.2949 13.2948 65.2949 15.1929C65.2949 15.3534 65.0929 15.5581 64.689 15.8071H64.5312C63.7178 15.6799 63.311 15.3727 63.311 14.8857C63.311 12.5173 63.4106 10.2705 63.6099 8.14551L63.311 7.98779C62.077 8.19255 61.1058 8.29492 60.3975 8.29492C60.32 8.29492 60.0129 8.24512 59.4761 8.14551C59.4761 9.92741 58.4053 11.5101 56.2637 12.8936C55.8874 13.0983 55.4779 13.2007 55.0352 13.2007H54.5786C53.0291 13.2007 51.701 12.1797 50.5942 10.1377C50.3895 9.5179 50.2871 8.75146 50.2871 7.83838C50.2871 6.54899 51.3607 5.11849 53.5078 3.54688C54.4762 3.34212 55.0877 3.23975 55.3423 3.23975C57.9985 3.89274 59.3267 5.01611 59.3267 6.60986C59.5203 6.71501 59.6725 6.76758 59.7832 6.76758C62.5391 6.54622 63.917 6.18929 63.917 5.69678L64.0747 3.54688C64.0747 3.13737 63.4604 2.78044 62.2319 2.47607L61.7754 1.86182V1.55469C61.7754 1.45508 61.9801 1.25309 62.3896 0.94873ZM52.1216 8.45264C52.4702 9.1665 52.675 9.52344 52.7358 9.52344L52.5864 9.83057V10.2871C53.2671 11.1061 53.9312 11.5156 54.5786 11.5156H54.728C56.0506 11.5156 57.0218 10.2899 57.6416 7.83838V7.68896C57.6416 5.95133 57.0799 5.08252 55.9565 5.08252C55.9565 4.97738 55.8016 4.9248 55.4917 4.9248H55.3423C53.1951 5.43945 52.1216 6.6154 52.1216 8.45264ZM79.5146 0.334473C81.9661 0.898926 83.1919 2.0223 83.1919 3.70459V4.01172C83.1919 5.27344 82.1183 6.34424 79.9712 7.22412V8.14551C80.0044 8.85938 80.1068 9.21631 80.2783 9.21631L85.4912 9.06689C85.873 9.18864 86.23 9.4432 86.562 9.83057C86.562 10.312 86.2051 10.6689 85.4912 10.9014C85.3805 10.9014 85.2256 10.8516 85.0264 10.752C82.193 10.8516 80.508 10.9539 79.9712 11.0591L79.6641 10.9014L78.2861 11.0591L76.7588 10.9014C76.222 11.0065 75.7101 11.0591 75.2231 11.0591L74.1523 10.9014C74.0527 10.9014 74.0029 10.9539 74.0029 11.0591C72.2653 10.8543 71.3965 10.4946 71.3965 9.97998C71.5404 9.47087 71.8973 9.21631 72.4673 9.21631C73.1313 9.21631 74.1523 9.26888 75.5303 9.37402C77.1628 9.26888 77.979 9.1665 77.979 9.06689C78.0841 8.88428 78.1367 8.67952 78.1367 8.45264V8.14551C78.1367 7.51465 77.6248 7.10514 76.6011 6.91699C75.3781 5.9043 74.7666 4.98568 74.7666 4.16113C75.0488 4.16113 75.356 3.49707 75.688 2.16895C77.2264 0.945964 78.502 0.334473 79.5146 0.334473ZM76.6011 4.46826V4.62598C76.6011 4.96908 77.2153 5.32601 78.4438 5.69678C80.2811 5.25407 81.1997 4.74219 81.1997 4.16113C81.2993 4.16113 81.3491 4.11133 81.3491 4.01172V3.39746C81.3491 2.47884 80.7376 1.96696 79.5146 1.86182C77.9818 2.31006 77.2153 2.87174 77.2153 3.54688L76.6011 4.46826ZM81.3491 12.2793H81.9634C82.467 12.5505 82.7215 12.7552 82.7271 12.8936V14.728C82.7271 15.8514 82.1681 16.4131 81.0503 16.4131C80.5522 16.5182 79.8882 16.5708 79.0581 16.5708L77.6802 16.4131L77.5225 16.7202V17.0273C77.5225 17.7855 77.7272 18.195 78.1367 18.2559V18.0981C78.2363 18.0981 78.2861 18.1507 78.2861 18.2559C80.1732 18.1507 81.5539 18.0981 82.4282 18.0981H82.8848C83.4382 18.0981 83.8477 18.3555 84.1133 18.8701V19.1772C84.0635 19.3875 83.8062 19.5895 83.3413 19.7832C80.8289 19.8883 78.8395 19.9409 77.373 19.9409C76.2497 19.7694 75.688 19.2575 75.688 18.4053V17.791C75.688 17.2819 75.6354 16.5182 75.5303 15.5C75.9896 15.0905 76.3465 14.8857 76.6011 14.8857C78.4826 14.9854 79.6585 15.0352 80.1289 15.0352C80.5384 14.8857 80.7432 14.7336 80.7432 14.5786V13.9644C79.3597 14.0695 78.3387 14.1221 77.6802 14.1221H77.373C76.8086 14.1221 76.3493 13.8149 75.9951 13.2007V12.8936C75.9951 12.484 77.7798 12.2793 81.3491 12.2793ZM94.5352 2.65039C95.249 3.02669 95.606 3.99512 95.606 5.55566C95.8107 6.71224 95.9131 7.63086 95.9131 8.31152C95.9131 8.95898 94.5877 9.62028 91.937 10.2954C90.6089 10.3729 89.9448 10.4753 89.9448 10.6025C90.4429 12.152 90.952 13.0208 91.4722 13.209L95.2988 12.5947C96.0127 12.7275 96.3696 13.0845 96.3696 13.6655C96.3696 14.2853 94.5352 14.7446 90.8662 15.0435C89.9531 15.0435 88.7799 13.1564 87.3467 9.38232V9.22461C87.4463 8.92025 87.7507 8.76807 88.2598 8.76807C88.7467 8.76807 89.2586 8.81787 89.7954 8.91748C91.6659 8.91748 93.041 8.40837 93.9209 7.39014C93.7161 5.45329 93.5142 4.48486 93.3149 4.48486C92.8169 4.48486 91.1318 4.68962 88.2598 5.09912H87.8032C87.2554 5.09912 86.8984 4.89437 86.7324 4.48486V3.87061C87.0755 3.28402 89.6764 2.87728 94.5352 2.65039ZM100.811 2.65039C102.543 2.65039 103.409 3.41406 103.409 4.94141C103.613 8.38346 103.716 11.4437 103.716 14.1221C103.716 14.7363 103.359 15.0435 102.645 15.0435C102.031 14.8332 101.724 14.4237 101.724 13.8149V11.5239L101.417 11.0674L100.653 11.2168C98.6164 11.2168 97.5981 10.9097 97.5981 10.2954L97.7476 9.53174H98.6689C98.8958 9.53174 99.0978 9.48193 99.2749 9.38232C99.38 9.38232 99.4326 9.43213 99.4326 9.53174L100.196 9.38232H101.267C101.472 9.38232 101.574 9.27995 101.574 9.0752V8.15381C101.574 7.94906 101.472 7.84668 101.267 7.84668H98.5112C97.6978 7.77474 97.291 7.41781 97.291 6.77588C97.291 6.45492 97.6479 6.20036 98.3618 6.01221L98.6689 6.16992H101.267C101.472 6.16992 101.574 6.06755 101.574 5.86279V5.09912C101.574 4.38525 101.217 4.02832 100.503 4.02832L100.196 3.56348V3.10693C100.196 2.85238 100.401 2.7002 100.811 2.65039ZM108.319 1.7124H113.067C113.205 1.7124 113.46 1.96696 113.831 2.47607V2.7832C113.831 3.19824 113.474 3.96468 112.76 5.08252V5.23193C114.757 6.75928 115.778 7.73047 115.823 8.14551V8.29492C115.723 8.70443 115.419 8.90918 114.91 8.90918L111.996 6.76758H111.689C110.582 7.81901 109.664 8.53288 108.933 8.90918C108.114 8.64355 107.705 8.23682 107.705 7.68896C107.705 7.46761 108.319 6.90592 109.547 6.00391C110.566 4.74772 111.075 3.92871 111.075 3.54688H107.705C107.195 3.28678 106.941 2.88005 106.941 2.32666C107.079 1.91715 107.539 1.7124 108.319 1.7124ZM117.973 10.1377C118.354 10.1377 118.761 10.4448 119.193 11.0591V11.5156C119.193 11.6595 119.041 11.8117 118.736 11.9722H114.295C114.019 11.9722 113.761 12.6362 113.523 13.9644C113.119 14.0474 112.917 14.1497 112.917 14.2715C112.281 14.0667 111.924 13.8122 111.847 13.5078L111.996 12.437C111.791 12.437 111.689 12.3346 111.689 12.1299C110.671 12.2295 109.904 12.2793 109.39 12.2793H105.414C104.39 12.2793 103.878 11.9224 103.878 11.2085C103.978 10.799 104.285 10.5942 104.799 10.5942H104.949C106.083 10.5942 110.424 10.4421 117.973 10.1377ZM114.295 14.4292C115.009 14.6395 115.366 14.9438 115.366 15.3423C115.366 17.2847 114.805 18.2559 113.681 18.2559C110.925 18.4606 109.547 18.6654 109.547 18.8701C109.647 19.584 109.799 19.9409 110.004 19.9409C112.583 19.631 113.961 19.4761 114.138 19.4761C114.774 19.6864 115.131 19.9437 115.208 20.248V20.7046C114.998 21.1141 114.744 21.3188 114.445 21.3188C113.316 21.3188 111.479 21.5236 108.933 21.9331C108.014 21.9331 107.555 20.5524 107.555 17.791C107.555 17.3151 109.343 16.9582 112.917 16.7202L113.067 16.4131V16.2637C110.892 16.4684 109.362 16.5708 108.477 16.5708C107.862 16.4103 107.555 16.0534 107.555 15.5V15.3423C107.555 14.8332 109.495 14.5786 113.374 14.5786C113.374 14.479 113.681 14.4292 114.295 14.4292ZM133.869 0.351074C135.806 0.577962 136.774 0.987467 136.774 1.57959V5.09912C136.808 5.30387 136.91 5.40625 137.082 5.40625C137.331 5.40625 138.147 5.2513 139.53 4.94141C140.139 5.20703 140.443 5.56396 140.443 6.01221C140.443 6.54899 139.273 7.06087 136.932 7.54785C136.932 7.64746 136.88 7.69727 136.774 7.69727C136.88 8.0791 136.982 9.35465 137.082 11.5239C136.916 12.033 136.608 12.2876 136.16 12.2876C135.347 12.2876 134.94 10.6053 134.94 7.24072V6.93359C134.94 6.59049 134.887 6.33594 134.782 6.16992L134.94 5.24854V4.33545L134.782 3.41406C134.887 3.23698 134.94 3.03223 134.94 2.7998C134.94 2.55078 134.431 2.24642 133.413 1.88672L133.255 1.11475V0.815918C133.255 0.66097 133.46 0.506022 133.869 0.351074ZM131.728 2.7998C132.115 2.89388 132.419 3.25081 132.641 3.87061C132.541 5.22087 132.491 6.34424 132.491 7.24072C132.491 7.48421 132.541 8.24788 132.641 9.53174C132.27 9.84163 131.913 9.99658 131.57 9.99658C131.371 9.99658 131.271 9.94401 131.271 9.83887L130.2 9.99658H127.444L126.523 10.146C125.3 10.146 124.688 9.02262 124.688 6.77588V5.24854C124.688 3.8208 124.996 3.10693 125.61 3.10693C125.942 3.31169 126.246 3.41406 126.523 3.41406C128.831 3.00456 130.565 2.7998 131.728 2.7998ZM126.523 5.70508L126.681 7.54785V8.00439C126.708 8.20915 126.808 8.31152 126.979 8.31152H129.735C130.012 8.31152 130.319 8.20915 130.657 8.00439L130.499 7.24072V5.09912L130.35 4.79199C127.976 5.17383 126.7 5.47819 126.523 5.70508ZM129.279 11.6733H130.042C130.657 11.6733 130.964 12.7967 130.964 15.0435V15.5L131.113 15.8071C132.132 15.7075 132.898 15.6577 133.413 15.6577H135.089C135.604 15.6577 135.961 15.9123 136.16 16.4214V16.8779C136.16 17.387 134.835 17.6416 132.184 17.6416C132.184 17.8464 131.523 17.9487 130.2 17.9487C129.381 17.9487 128.972 16.7257 128.972 14.2798C128.972 14.0308 128.922 13.2643 128.822 11.9805L129.279 11.6733ZM145.046 1.86182H147.495C148.049 1.86182 148.408 2.06657 148.574 2.47607V3.09033C148.574 3.24528 148.369 3.39746 147.96 3.54688L146.889 3.39746C146.186 3.49707 145.625 3.54688 145.204 3.54688C144.667 3.54688 144.208 3.24251 143.826 2.63379V2.32666C143.887 2.01676 144.294 1.86182 145.046 1.86182ZM153.322 2.7832H153.621C155.768 3.01009 156.842 3.36702 156.842 3.854C156.941 7.57829 157.044 9.77523 157.149 10.4448H158.676C158.837 10.4448 159.042 10.6496 159.291 11.0591V11.5156C159.291 11.8255 158.577 12.0801 157.149 12.2793V12.437C157.249 14.3185 157.298 15.9012 157.298 17.1851V17.791C157.298 17.9515 157.096 18.1562 156.692 18.4053C155.873 18.3278 155.464 17.9709 155.464 17.3345C155.259 8.757 155.054 4.46826 154.85 4.46826C154.097 4.46826 153.486 4.11133 153.015 3.39746V3.09033C153.043 2.88558 153.145 2.7832 153.322 2.7832ZM150.716 5.08252C151.33 5.32048 151.637 5.67741 151.637 6.15332C151.637 6.66243 150.207 6.91699 147.346 6.91699H141.834C141.015 6.79525 140.605 6.49089 140.605 6.00391C140.605 5.48926 141.626 5.23193 143.668 5.23193H149.794L150.716 5.08252ZM146.582 8.45264C149.233 8.85107 150.558 9.8195 150.558 11.3579C150.558 12.8133 149.59 13.8869 147.653 14.5786H147.495C147.495 15.8016 147.752 16.4131 148.267 16.4131C150.021 16.3135 151.042 16.2637 151.33 16.2637C151.795 16.4629 152.049 16.6676 152.094 16.8779V17.3345C152.094 17.9598 150.052 18.3167 145.968 18.4053C145.968 18.5104 145.201 18.563 143.668 18.563C142.617 18.563 141.851 18.2061 141.369 17.4922C141.513 16.9775 141.87 16.7202 142.44 16.7202H145.354L146.117 16.5708C146.117 15.0379 145.863 14.2715 145.354 14.2715C143.721 13.7126 142.905 12.7414 142.905 11.3579C142.905 10.1349 143.466 9.52344 144.59 9.52344C144.59 9.04753 145.254 8.69059 146.582 8.45264ZM144.59 11.5156V11.8228C144.59 12.2599 145.099 12.6169 146.117 12.8936H147.039C148.162 12.6611 148.724 12.0994 148.724 11.2085V10.9014C148.364 10.2871 147.905 9.97998 147.346 9.97998H146.731C146.056 9.97998 145.342 10.4919 144.59 11.5156Z" fill="#222222"/>
</svg>
