<svg width="178" height="24" viewBox="0 0 178 24" fill="none" xmlns="http://www.w3.org/2000/svg">
<path d="M8.51562 0.859375C10.1198 0.859375 10.9219 1.52604 10.9219 2.85938C10.9219 4.65104 10.2552 5.97917 8.92188 6.84375H8.51562V6.45312C9.04688 5.92188 9.3125 4.45833 9.3125 2.0625L8.51562 1.65625L6.125 2.45312V2.0625C6.39583 1.26042 7.19271 0.859375 8.51562 0.859375ZM1.73438 1.65625H2.9375C4.96875 1.65625 6.16667 2.1875 6.53125 3.25C6.53125 4.65625 5.72917 5.98958 4.125 7.25H3.73438V6.84375L5.32812 4.0625V2.85938L2.53125 2.45312C2.0625 2.72396 1.53125 2.85938 0.9375 2.85938V2.45312C1.02083 1.92188 1.28646 1.65625 1.73438 1.65625ZM6.125 8.84375H13.7031L15.7031 9.25L15.3125 10.0469L13.3125 9.64062H11.7188C11.3333 9.64062 10.9323 10.0417 10.5156 10.8438V13.6406C12.224 13.6406 13.1562 14.0365 13.3125 14.8281C10.8854 17.7552 8.89062 19.2188 7.32812 19.2188V20.0156C7.32812 20.224 7.72396 20.625 8.51562 21.2188L10.5156 20.8125H13.3125C13.1458 21.6146 12.0833 22.0156 10.125 22.0156H7.71875C7.30208 22.0156 6.77083 21.4844 6.125 20.4219C6.125 18.9115 7.58854 17.7135 10.5156 16.8281L11.7188 15.2344V14.8281C11.1875 14.8281 10.9219 14.6979 10.9219 14.4375L10.125 14.8281H9.3125C8.71875 14.8281 8.1875 14.6979 7.71875 14.4375C7.26042 14.6979 6.72917 14.8281 6.125 14.8281V14.4375C6.20833 13.9062 6.47396 13.6406 6.92188 13.6406H9.71875L9.3125 11.6406V10.8438L9.71875 10.0469H3.32812L1.34375 10.4375V9.25L6.125 8.84375ZM30.5781 4.85938H31.7656C32.5677 8.97396 32.9688 11.2344 32.9688 11.6406C32.6979 13.0365 32.5625 13.8333 32.5625 14.0312C32.8333 14.5521 32.9688 14.9531 32.9688 15.2344C32.6979 15.7448 32.5625 16.1406 32.5625 16.4219H31.7656V16.0312C31.6302 12.5729 31.3646 10.8438 30.9688 10.8438C28.5729 11.6458 26.9792 12.0469 26.1875 12.0469H24.9844C24.9844 11.3385 27.1146 10.6719 31.375 10.0469C30.8438 7.39062 30.5781 5.66146 30.5781 4.85938ZM19 6.0625C20.2292 6.0625 22.224 6.59375 24.9844 7.65625V8.45312L19.4062 13.6406V14.4375C20.8333 14.9688 21.6302 15.2344 21.7969 15.2344C22.9115 15.2344 24.2396 14.9688 25.7812 14.4375V15.625C24.9896 15.625 24.0573 15.8906 22.9844 16.4219C19.7969 16.4219 18.2031 15.3594 18.2031 13.2344L23.7969 8.45312V8.04688C22.0677 7.51562 20.8698 7.25 20.2031 7.25L17.4062 7.65625C17.5938 6.85417 18.125 6.32292 19 6.0625ZM28.5781 17.2344C30.651 18.3594 31.849 19.2865 32.1719 20.0156C32.0469 22.151 30.9792 23.2188 28.9688 23.2188C27.1146 22.6562 26.1875 21.8542 26.1875 20.8125C26.6354 19.4896 27.2969 18.8281 28.1719 18.8281V18.4219H27.375C27.375 18.6927 27.2448 18.8281 26.9844 18.8281V18.4219C26.9844 18.026 27.5156 17.6302 28.5781 17.2344ZM28.9688 18.8281C27.9062 20.0052 27.375 20.6667 27.375 20.8125C27.6458 21.6146 28.4479 22.0156 29.7812 22.0156C30.1562 22.0156 30.5521 21.6146 30.9688 20.8125V20.0156C30.9688 19.4115 30.3021 19.0156 28.9688 18.8281ZM50.3281 0.859375C51.9323 0.859375 52.7344 1.52604 52.7344 2.85938C52.7344 4.65104 52.0677 5.97917 50.7344 6.84375H50.3281V6.45312C50.8594 5.92188 51.125 4.45833 51.125 2.0625L50.3281 1.65625L47.9375 2.45312V2.0625C48.2083 1.26042 49.0052 0.859375 50.3281 0.859375ZM43.5469 1.65625H44.75C46.7812 1.65625 47.9792 2.1875 48.3438 3.25C48.3438 4.65625 47.5417 5.98958 45.9375 7.25H45.5469V6.84375L47.1406 4.0625V2.85938L44.3438 2.45312C43.875 2.72396 43.3438 2.85938 42.75 2.85938V2.45312C42.8333 1.92188 43.099 1.65625 43.5469 1.65625ZM47.9375 8.84375H55.5156L57.5156 9.25L57.125 10.0469L55.125 9.64062H53.5312C53.1458 9.64062 52.7448 10.0417 52.3281 10.8438V13.6406C54.0365 13.6406 54.9688 14.0365 55.125 14.8281C52.6979 17.7552 50.7031 19.2188 49.1406 19.2188V20.0156C49.1406 20.224 49.5365 20.625 50.3281 21.2188L52.3281 20.8125H55.125C54.9583 21.6146 53.8958 22.0156 51.9375 22.0156H49.5312C49.1146 22.0156 48.5833 21.4844 47.9375 20.4219C47.9375 18.9115 49.401 17.7135 52.3281 16.8281L53.5312 15.2344V14.8281C53 14.8281 52.7344 14.6979 52.7344 14.4375L51.9375 14.8281H51.125C50.5312 14.8281 50 14.6979 49.5312 14.4375C49.0729 14.6979 48.5417 14.8281 47.9375 14.8281V14.4375C48.0208 13.9062 48.2865 13.6406 48.7344 13.6406H51.5312L51.125 11.6406V10.8438L51.5312 10.0469H45.1406L43.1562 10.4375V9.25L47.9375 8.84375ZM72.3906 4.85938H73.5781C74.3802 8.97396 74.7812 11.2344 74.7812 11.6406C74.5104 13.0365 74.375 13.8333 74.375 14.0312C74.6458 14.5521 74.7812 14.9531 74.7812 15.2344C74.5104 15.7448 74.375 16.1406 74.375 16.4219H73.5781V16.0312C73.4427 12.5729 73.1771 10.8438 72.7812 10.8438C70.3854 11.6458 68.7917 12.0469 68 12.0469H66.7969C66.7969 11.3385 68.9271 10.6719 73.1875 10.0469C72.6562 7.39062 72.3906 5.66146 72.3906 4.85938ZM60.8125 6.0625C62.0417 6.0625 64.0365 6.59375 66.7969 7.65625V8.45312L61.2188 13.6406V14.4375C62.6458 14.9688 63.4427 15.2344 63.6094 15.2344C64.724 15.2344 66.0521 14.9688 67.5938 14.4375V15.625C66.8021 15.625 65.8698 15.8906 64.7969 16.4219C61.6094 16.4219 60.0156 15.3594 60.0156 13.2344L65.6094 8.45312V8.04688C63.8802 7.51562 62.6823 7.25 62.0156 7.25L59.2188 7.65625C59.4062 6.85417 59.9375 6.32292 60.8125 6.0625ZM70.3906 17.2344C72.4635 18.3594 73.6615 19.2865 73.9844 20.0156C73.8594 22.151 72.7917 23.2188 70.7812 23.2188C68.9271 22.6562 68 21.8542 68 20.8125C68.4479 19.4896 69.1094 18.8281 69.9844 18.8281V18.4219H69.1875C69.1875 18.6927 69.0573 18.8281 68.7969 18.8281V18.4219C68.7969 18.026 69.3281 17.6302 70.3906 17.2344ZM70.7812 18.8281C69.7188 20.0052 69.1875 20.6667 69.1875 20.8125C69.4583 21.6146 70.2604 22.0156 71.5938 22.0156C71.9688 22.0156 72.3646 21.6146 72.7812 20.8125V20.0156C72.7812 19.4115 72.1146 19.0156 70.7812 18.8281ZM83.2656 2.03125V2.4375C83.2656 3.13542 81.2656 3.66667 77.2656 4.03125C77.2656 2.96875 79.2656 2.30208 83.2656 2.03125ZM90.4531 2.82812H90.8438C90.8438 3.35938 90.7135 3.625 90.4531 3.625L90.8438 6.42188V11.625L91.6406 11.2188H94.4375V12.0156L90.8438 12.4219V13.6094C90.8438 14.276 90.5781 15.474 90.0469 17.2031H88.8438C89.375 16.1719 89.6406 14.7083 89.6406 12.8125C89.6406 11.5417 89.5104 8.47917 89.25 3.625L90.4531 2.82812ZM84.8594 5.625L85.25 6.42188C81.2188 7.22396 78.6927 7.625 77.6719 7.625H77.2656C76.7344 7.625 76.4688 7.35938 76.4688 6.82812L84.8594 5.625ZM82.8594 8.82812C84.2865 9.35938 85.0833 10.026 85.25 10.8281C84.9167 12.9531 83.9844 14.0156 82.4531 14.0156C81.0677 14.0156 80.0052 13.2188 79.2656 11.625C79.9219 9.76042 81.1198 8.82812 82.8594 8.82812ZM81.2656 10.0156C81.2656 10.4531 81 10.8542 80.4688 11.2188C80.8646 12.2812 81.2604 12.8125 81.6562 12.8125C83.0417 12.8125 83.8438 12.4167 84.0625 11.625V10.4219L82.0625 10.0156H81.2656ZM84.8594 15.6094H85.6562L86.8594 19.6094H92.8438V20C92.8438 20.5417 92.5781 20.8125 92.0469 20.8125H86.0469C85.2552 18.75 84.8594 17.0156 84.8594 15.6094ZM117.797 3.23438C118.859 3.23438 119.391 6.03125 119.391 11.625C119.391 12.7188 119.26 13.7812 119 14.8125L119.391 16.8125C119.13 19.0833 119 20.8125 119 22H118.594C118.333 22 117.932 21.4688 117.391 20.4062L117.797 18.4062V12.0156C117.797 9.86979 117.661 7.34375 117.391 4.4375C117.661 3.91667 117.797 3.51562 117.797 3.23438ZM107.406 4.03125H108.609C108.776 6.16667 109.177 7.23438 109.812 7.23438H112.203V8.42188L110.609 10.8281V11.2188L113.797 12.0156V13.2188C111.401 12.875 110.203 12.2083 110.203 11.2188C109.995 11.2188 108.531 12.2865 105.812 14.4219H104.219V13.6094C106.323 13.099 108.453 11.3698 110.609 8.42188C107.943 8.42188 106.609 8.15625 106.609 7.625V7.23438H108.609C107.807 5.73438 107.406 4.66667 107.406 4.03125ZM110.609 14.0156V17.2031L109.406 19.2031C109.677 18.9427 111.807 18.6771 115.797 18.4062V19.6094C111.776 20.1406 108.583 20.4062 106.219 20.4062V20L105.422 20.4062H104.219V19.2031H106.219C108.344 19.2031 109.406 18.2708 109.406 16.4062V14.4219C109.688 14.4219 110.089 14.2865 110.609 14.0156ZM132.672 4.03125H133.469C133.74 5.5 133.875 6.56771 133.875 7.23438C133.875 10.8177 133.609 14.0104 133.078 16.8125C132.547 16.8125 132.281 16.5469 132.281 16.0156C132.542 11.276 132.672 7.41667 132.672 4.4375V4.03125ZM127.484 4.4375V5.23438C125.62 7.99479 124.688 9.45833 124.688 9.625L128.688 10.8281V12.0156C126.75 11.6198 125.281 11.0885 124.281 10.4219C122.698 11.7552 121.635 12.4219 121.094 12.4219V12.0156C122.271 10.849 124.135 8.32292 126.688 4.4375H127.484ZM128.688 16.0156C128.688 18.9427 130.151 20.4062 133.078 20.4062L134.672 20.8125V21.6094H134.266C129.745 21.6094 127.484 20.276 127.484 17.6094C127.88 16.5469 128.281 16.0156 128.688 16.0156ZM154.438 1.67188H155.234C155.766 4.88021 156.031 7.40625 156.031 9.25H158.828V10.0469C156.703 10.0469 155.641 10.8438 155.641 12.4375L155.234 14.4375H154.438L154.844 10.4375H154.047V9.64062H154.844C154.573 5.69271 154.438 3.03646 154.438 1.67188ZM145.672 3.65625V4.0625C145.672 4.59375 145.406 4.85938 144.875 4.85938C145.667 7.74479 146.062 9.47396 146.062 10.0469H146.859C148.724 10.0469 149.656 8.45312 149.656 5.26562L146.859 5.65625H145.672V4.85938L147.656 4.46875H150.453L150.859 6.0625C150.859 9.52083 149.526 11.25 146.859 11.25H145.266C144.734 9.41667 144.469 7.15625 144.469 4.46875L145.672 3.65625ZM149.656 14.0312C149.656 16.9583 151.12 18.4219 154.047 18.4219H154.438L156.438 18.0312V18.8281L153.641 19.625C150.453 19.2604 148.859 17.9271 148.859 15.625V14.8281C148.943 14.2969 149.208 14.0312 149.656 14.0312ZM162.922 2.03125C163.995 3.89583 165.062 4.82812 166.125 4.82812C167.719 4.82812 168.516 5.09375 168.516 5.625L161.328 6.42188H160.531V5.625C162 5.35417 163.068 5.21875 163.734 5.21875C163.193 4.34375 162.922 3.54688 162.922 2.82812V2.03125ZM172.516 4.82812H172.922V13.2188L172.516 14.0156C172.786 14.0156 172.922 14.1458 172.922 14.4062C173.891 13.875 174.953 13.6094 176.109 13.6094H177.719V14.4062C174.25 14.875 172.516 15.276 172.516 15.6094C172.255 17.974 172.125 19.4375 172.125 20H171.719L170.922 19.6094C171.453 15.974 171.719 11.1771 171.719 5.21875L172.516 4.82812ZM163.734 7.625H164.531C166.594 7.625 167.922 8.29167 168.516 9.625V10.4219C167.839 11.7552 166.776 12.4219 165.328 12.4219H164.922C163.547 12.4219 162.75 12.0208 162.531 11.2188V8.8125C162.531 8.4375 162.932 8.04167 163.734 7.625ZM163.328 9.21875V10.4219C163.411 10.9531 163.677 11.2188 164.125 11.2188H165.328L167.328 10.8125C167.328 9.66667 166.792 8.86979 165.719 8.42188V8.01562C164.125 8.36979 163.328 8.77083 163.328 9.21875ZM166.531 14.4062H166.922V14.8125L166.531 16.8125L167.328 17.2031H167.719L170.516 16.8125V17.2031C170.516 18.1198 167.589 18.6562 161.734 18.8125H161.328C161.328 18.1458 162.792 17.6094 165.719 17.2031V16.8125C165.458 16.3438 165.328 15.8125 165.328 15.2188L166.531 14.4062Z" fill="#222222"/>
<path d="M8.92188 6.84375V7.09375H8.99584L9.05789 7.05351L8.92188 6.84375ZM8.51562 6.84375H8.26562V7.09375H8.51562V6.84375ZM8.51562 6.45312L8.33885 6.27635L8.26562 6.34957V6.45312H8.51562ZM9.3125 2.0625H9.5625V1.90934L9.42605 1.83977L9.3125 2.0625ZM8.51562 1.65625L8.62917 1.43352L8.53589 1.38597L8.43657 1.41908L8.51562 1.65625ZM6.125 2.45312H5.875V2.79998L6.20406 2.6903L6.125 2.45312ZM6.125 2.0625L5.88814 1.98252L5.875 2.02143V2.0625H6.125ZM6.53125 3.25H6.78125V3.2083L6.76772 3.16886L6.53125 3.25ZM4.125 7.25V7.5H4.21147L4.27946 7.44658L4.125 7.25ZM3.73438 7.25H3.48438V7.5H3.73438V7.25ZM3.73438 6.84375L3.51746 6.71945L3.48438 6.7772V6.84375H3.73438ZM5.32812 4.0625L5.54504 4.1868L5.57812 4.12905V4.0625H5.32812ZM5.32812 2.85938H5.57812V2.64306L5.36406 2.61197L5.32812 2.85938ZM2.53125 2.45312L2.56719 2.20572L2.48131 2.19325L2.40618 2.23666L2.53125 2.45312ZM0.9375 2.85938H0.6875V3.10938H0.9375V2.85938ZM0.9375 2.45312L0.69052 2.41438L0.6875 2.43364V2.45312H0.9375ZM6.125 8.84375V8.59375H6.1144L6.10383 8.59465L6.125 8.84375ZM13.7031 8.84375L13.7529 8.59875L13.7283 8.59375H13.7031V8.84375ZM15.7031 9.25L15.9276 9.36004L16.0701 9.06943L15.7529 9.005L15.7031 9.25ZM15.3125 10.0469L15.2627 10.2919L15.452 10.3303L15.537 10.1569L15.3125 10.0469ZM13.3125 9.64062L13.3623 9.39563L13.3376 9.39062H13.3125V9.64062ZM10.5156 10.8438L10.2938 10.7285L10.2656 10.7827V10.8438H10.5156ZM10.5156 13.6406H10.2656V13.8906H10.5156V13.6406ZM13.3125 14.8281L13.5049 14.9877L13.5808 14.8963L13.5578 14.7797L13.3125 14.8281ZM7.32812 19.2188V18.9688H7.07812V19.2188H7.32812ZM8.51562 21.2188L8.36563 21.4188L8.45541 21.4861L8.56539 21.4637L8.51562 21.2188ZM10.5156 20.8125V20.5625H10.4905L10.4659 20.5675L10.5156 20.8125ZM13.3125 20.8125L13.5573 20.8634L13.6198 20.5625H13.3125V20.8125ZM6.125 20.4219H5.875V20.4919L5.91137 20.5517L6.125 20.4219ZM10.5156 16.8281L10.588 17.0674L10.666 17.0438L10.7152 16.9788L10.5156 16.8281ZM11.7188 15.2344L11.9183 15.385L11.9688 15.3181V15.2344H11.7188ZM11.7188 14.8281H11.9688V14.5781H11.7188V14.8281ZM10.9219 14.4375H11.1719V14.0365L10.8118 14.213L10.9219 14.4375ZM10.125 14.8281V15.0781H10.183L10.235 15.0526L10.125 14.8281ZM7.71875 14.4375L7.84016 14.219L7.71737 14.1507L7.59525 14.2201L7.71875 14.4375ZM6.125 14.8281H5.875V15.0781H6.125V14.8281ZM6.125 14.4375L5.87802 14.3988L5.875 14.418V14.4375H6.125ZM9.71875 13.6406V13.8906H10.0246L9.96375 13.5909L9.71875 13.6406ZM9.3125 11.6406H9.0625V11.6658L9.0675 11.6904L9.3125 11.6406ZM9.3125 10.8438L9.08977 10.7302L9.0625 10.7837V10.8438H9.3125ZM9.71875 10.0469L9.94148 10.1604L10.1268 9.79688H9.71875V10.0469ZM3.32812 10.0469V9.79688H3.30375L3.27984 9.80158L3.32812 10.0469ZM1.34375 10.4375H1.09375V10.7415L1.39204 10.6828L1.34375 10.4375ZM1.34375 9.25L1.32258 9.0009L1.09375 9.02034V9.25H1.34375ZM8.51562 1.10938C9.28927 1.10938 9.82298 1.27109 10.1605 1.55163C10.4892 1.82482 10.6719 2.24466 10.6719 2.85938H11.1719C11.1719 2.14076 10.9535 1.56059 10.4801 1.16712C10.0156 0.780997 9.34615 0.609375 8.51562 0.609375V1.10938ZM10.6719 2.85938C10.6719 4.57904 10.0381 5.82201 8.78586 6.63399L9.05789 7.05351C10.4724 6.13632 11.1719 4.72304 11.1719 2.85938H10.6719ZM8.92188 6.59375H8.51562V7.09375H8.92188V6.59375ZM8.76562 6.84375V6.45312H8.26562V6.84375H8.76562ZM8.6924 6.6299C9.01511 6.30719 9.22479 5.74262 9.35926 5.00168C9.49586 4.24905 9.5625 3.26752 9.5625 2.0625H9.0625C9.0625 3.25331 8.99633 4.20147 8.8673 4.91239C8.73615 5.63499 8.54739 6.06781 8.33885 6.27635L8.6924 6.6299ZM9.42605 1.83977L8.62917 1.43352L8.40208 1.87898L9.19895 2.28523L9.42605 1.83977ZM8.43657 1.41908L6.04594 2.21595L6.20406 2.6903L8.59468 1.89342L8.43657 1.41908ZM6.375 2.45312V2.0625H5.875V2.45312H6.375ZM6.36186 2.14248C6.58018 1.49593 7.22911 1.10938 8.51562 1.10938V0.609375C7.15631 0.609375 6.21149 1.02491 5.88814 1.98252L6.36186 2.14248ZM1.73438 1.90625H2.9375V1.40625H1.73438V1.90625ZM2.9375 1.90625C4.95616 1.90625 5.98782 2.43655 6.29478 3.33114L6.76772 3.16886C6.34552 1.93845 4.98134 1.40625 2.9375 1.40625V1.90625ZM6.28125 3.25C6.28125 4.54956 5.54272 5.81814 3.97054 7.05342L4.27946 7.44658C5.91562 6.16103 6.78125 4.76294 6.78125 3.25H6.28125ZM4.125 7H3.73438V7.5H4.125V7ZM3.98438 7.25V6.84375H3.48438V7.25H3.98438ZM3.95129 6.96805L5.54504 4.1868L5.11121 3.9382L3.51746 6.71945L3.95129 6.96805ZM5.57812 4.0625V2.85938H5.07812V4.0625H5.57812ZM5.36406 2.61197L2.56719 2.20572L2.49531 2.70053L5.29219 3.10678L5.36406 2.61197ZM2.40618 2.23666C1.97906 2.48344 1.49171 2.60938 0.9375 2.60938V3.10938C1.57079 3.10938 2.14594 2.96448 2.65632 2.66959L2.40618 2.23666ZM1.1875 2.85938V2.45312H0.6875V2.85938H1.1875ZM1.18448 2.49187C1.22136 2.25676 1.29364 2.1146 1.376 2.03225C1.45306 1.95518 1.56304 1.90625 1.73438 1.90625V1.40625C1.45779 1.40625 1.211 1.49014 1.02244 1.67869C0.839171 1.86196 0.736975 2.11824 0.69052 2.41438L1.18448 2.49187ZM6.125 9.09375H13.7031V8.59375H6.125V9.09375ZM13.6534 9.08875L15.6534 9.495L15.7529 9.005L13.7529 8.59875L13.6534 9.08875ZM15.4786 9.13996L15.088 9.93684L15.537 10.1569L15.9276 9.36004L15.4786 9.13996ZM15.3623 9.80188L13.3623 9.39563L13.2627 9.88562L15.2627 10.2919L15.3623 9.80188ZM13.3125 9.39062H11.7188V9.89062H13.3125V9.39062ZM11.7188 9.39062C11.434 9.39062 11.1775 9.53924 10.9521 9.76463C10.7261 9.99069 10.5078 10.3165 10.2938 10.7285L10.7375 10.959C10.9401 10.5689 11.1307 10.2932 11.3057 10.1182C11.4813 9.94253 11.6181 9.89062 11.7188 9.89062V9.39062ZM10.2656 10.8438V13.6406H10.7656V10.8438H10.2656ZM10.5156 13.8906C11.3561 13.8906 11.9773 13.9888 12.3984 14.1676C12.8102 14.3425 13.0093 14.5829 13.0672 14.8765L13.5578 14.7797C13.4595 14.2817 13.1142 13.9284 12.5938 13.7074C12.0826 13.4903 11.3834 13.3906 10.5156 13.3906V13.8906ZM13.1201 14.6686C11.9134 16.1238 10.8228 17.2045 9.84821 17.9195C8.87049 18.6369 8.03323 18.9688 7.32812 18.9688V19.4688C8.18552 19.4688 9.12691 19.0689 10.144 18.3227C11.1642 17.5741 12.2845 16.4595 13.5049 14.9877L13.1201 14.6686ZM7.07812 19.2188V20.0156H7.57812V19.2188H7.07812ZM7.07812 20.0156C7.07812 20.1401 7.1341 20.254 7.19269 20.3442C7.25496 20.4401 7.34196 20.5418 7.44707 20.6483C7.65781 20.8618 7.96609 21.1191 8.36563 21.4188L8.66562 21.0187C8.27349 20.7246 7.98802 20.4846 7.80293 20.297C7.71012 20.203 7.64868 20.1283 7.612 20.0718C7.57163 20.0097 7.57812 19.9953 7.57812 20.0156H7.07812ZM8.56539 21.4637L10.5654 21.0575L10.4659 20.5675L8.46586 20.9738L8.56539 21.4637ZM10.5156 21.0625H13.3125V20.5625H10.5156V21.0625ZM13.0677 20.7616C13.0081 21.0486 12.7876 21.2978 12.3023 21.481C11.8126 21.6658 11.0926 21.7656 10.125 21.7656V22.2656C11.1157 22.2656 11.9061 22.1649 12.4789 21.9487C13.0561 21.7309 13.4502 21.3785 13.5573 20.8634L13.0677 20.7616ZM10.125 21.7656H7.71875V22.2656H10.125V21.7656ZM7.71875 21.7656C7.61317 21.7656 7.43769 21.6935 7.18459 21.4404C6.93925 21.1951 6.65699 20.8158 6.33863 20.292L5.91137 20.5517C6.23885 21.0905 6.54513 21.5081 6.83104 21.794C7.10919 22.0721 7.40766 22.2656 7.71875 22.2656V21.7656ZM6.375 20.4219C6.375 19.7601 6.69128 19.1486 7.381 18.5841C8.07655 18.0148 9.13884 17.5058 10.588 17.0674L10.4432 16.5888C8.96533 17.0359 7.8323 17.5686 7.06431 18.1972C6.29049 18.8305 5.875 19.5733 5.875 20.4219H6.375ZM10.7152 16.9788L11.9183 15.385L11.5192 15.0837L10.3161 16.6775L10.7152 16.9788ZM11.9688 15.2344V14.8281H11.4688V15.2344H11.9688ZM11.7188 14.5781C11.4655 14.5781 11.3123 14.5458 11.2311 14.506C11.194 14.4878 11.1818 14.4728 11.1784 14.4678C11.1763 14.4647 11.1719 14.4578 11.1719 14.4375H10.6719C10.6719 14.5474 10.7007 14.6545 10.7649 14.749C10.828 14.8417 10.9154 14.9081 11.0111 14.9549C11.1955 15.0454 11.4407 15.0781 11.7188 15.0781V14.5781ZM10.8118 14.213L10.015 14.6036L10.235 15.0526L11.0319 14.662L10.8118 14.213ZM10.125 14.5781H9.3125V15.0781H10.125V14.5781ZM9.3125 14.5781C8.75658 14.5781 8.2679 14.4566 7.84016 14.219L7.59734 14.656C8.1071 14.9392 8.68092 15.0781 9.3125 15.0781V14.5781ZM7.59525 14.2201C7.17977 14.4562 6.69228 14.5781 6.125 14.5781V15.0781C6.76605 15.0781 7.34106 14.9396 7.84225 14.6549L7.59525 14.2201ZM6.375 14.8281V14.4375H5.875V14.8281H6.375ZM6.37198 14.4762C6.40886 14.2411 6.48114 14.099 6.5635 14.0166C6.64056 13.9396 6.75054 13.8906 6.92188 13.8906V13.3906C6.64529 13.3906 6.3985 13.4745 6.20994 13.6631C6.02667 13.8463 5.92447 14.1026 5.87802 14.3988L6.37198 14.4762ZM6.92188 13.8906H9.71875V13.3906H6.92188V13.8906ZM9.96375 13.5909L9.5575 11.5909L9.0675 11.6904L9.47375 13.6904L9.96375 13.5909ZM9.5625 11.6406V10.8438H9.0625V11.6406H9.5625ZM9.53523 10.9573L9.94148 10.1604L9.49602 9.93333L9.08977 10.7302L9.53523 10.9573ZM9.71875 9.79688H3.32812V10.2969H9.71875V9.79688ZM3.27984 9.80158L1.29546 10.1922L1.39204 10.6828L3.37641 10.2922L3.27984 9.80158ZM1.59375 10.4375V9.25H1.09375V10.4375H1.59375ZM1.36492 9.4991L6.14617 9.09285L6.10383 8.59465L1.32258 9.0009L1.36492 9.4991ZM30.5781 4.85938V4.60938H30.3281V4.85938H30.5781ZM31.7656 4.85938L32.011 4.81154L31.9716 4.60938H31.7656V4.85938ZM32.9688 11.6406L33.2142 11.6882L33.2188 11.6647V11.6406H32.9688ZM32.5625 14.0312H32.3125V14.0924L32.3407 14.1466L32.5625 14.0312ZM32.9688 15.2344L33.1896 15.3516L33.2188 15.2966V15.2344H32.9688ZM32.5625 16.4219V16.6719H32.8125V16.4219H32.5625ZM31.7656 16.4219H31.5156V16.6719H31.7656V16.4219ZM31.7656 16.0312H32.0158L32.0154 16.0215L31.7656 16.0312ZM30.9688 10.8438V10.5938H30.928L30.8894 10.6067L30.9688 10.8438ZM24.9844 12.0469H24.7344V12.2969H24.9844V12.0469ZM31.375 10.0469L31.4113 10.2942L31.6718 10.256L31.6201 9.99785L31.375 10.0469ZM19 6.0625V5.8125H18.9636L18.9287 5.82289L19 6.0625ZM24.9844 7.65625H25.2344V7.4846L25.0742 7.42294L24.9844 7.65625ZM24.9844 8.45312L25.1546 8.6362L25.2344 8.56203V8.45312H24.9844ZM19.4062 13.6406L19.236 13.4576L19.1562 13.5317V13.6406H19.4062ZM19.4062 14.4375H19.1562V14.6112L19.319 14.6718L19.4062 14.4375ZM25.7812 14.4375H26.0312V14.0869L25.6998 14.2011L25.7812 14.4375ZM25.7812 15.625V15.875H26.0312V15.625H25.7812ZM22.9844 16.4219V16.6719H23.0429L23.0953 16.6459L22.9844 16.4219ZM18.2031 13.2344L18.0407 13.0443L17.9531 13.1192V13.2344H18.2031ZM23.7969 8.45312L23.9593 8.64316L24.0469 8.56832V8.45312H23.7969ZM23.7969 8.04688H24.0469V7.86215L23.8703 7.8079L23.7969 8.04688ZM20.2031 7.25V7H20.1851L20.1672 7.0026L20.2031 7.25ZM17.4062 7.65625L17.1628 7.59934L17.0794 7.95636L17.4422 7.90365L17.4062 7.65625ZM28.5781 17.2344L28.6974 17.0146L28.5974 16.9604L28.4908 17.0001L28.5781 17.2344ZM32.1719 20.0156L32.4214 20.0302L32.425 19.9698L32.4005 19.9144L32.1719 20.0156ZM28.9688 23.2188L28.8962 23.458L28.9317 23.4688H28.9688V23.2188ZM26.1875 20.8125L25.9507 20.7323L25.9375 20.7713V20.8125H26.1875ZM28.1719 18.8281V19.0781H28.4219V18.8281H28.1719ZM28.1719 18.4219H28.4219V18.1719H28.1719V18.4219ZM27.375 18.4219V18.1719H27.125V18.4219H27.375ZM26.9844 18.8281H26.7344V19.0781H26.9844V18.8281ZM28.9688 18.8281L29.0036 18.5806L28.8721 18.5621L28.7832 18.6606L28.9688 18.8281ZM27.375 20.8125H27.125V20.8536L27.1381 20.8925L27.375 20.8125ZM30.9688 20.8125L31.1906 20.9277L31.2188 20.8736V20.8125H30.9688ZM30.5781 5.10938H31.7656V4.60938H30.5781V5.10938ZM31.5202 4.90721C31.9212 6.96404 32.2217 8.55617 32.4218 9.6843C32.5219 10.2485 32.5967 10.6953 32.6463 11.0255C32.6971 11.3633 32.7188 11.5613 32.7188 11.6406H33.2188C33.2188 11.5168 33.1902 11.2799 33.1408 10.9511C33.0902 10.6146 33.0145 10.1629 32.9141 9.59695C32.7132 8.46466 32.4121 6.86929 32.011 4.81154L31.5202 4.90721ZM32.7233 11.593C32.5878 12.2916 32.4858 12.842 32.4176 13.2433C32.3513 13.6336 32.3125 13.9063 32.3125 14.0312H32.8125C32.8125 13.9582 32.8414 13.7336 32.9105 13.327C32.9778 12.9314 33.0789 12.3854 33.2142 11.6882L32.7233 11.593ZM32.3407 14.1466C32.609 14.6625 32.7188 15.0175 32.7188 15.2344H33.2188C33.2188 14.8887 33.0577 14.4417 32.7843 13.9159L32.3407 14.1466ZM32.7479 15.1172C32.4741 15.6333 32.3125 16.0754 32.3125 16.4219H32.8125C32.8125 16.2058 32.9217 15.8563 33.1896 15.3516L32.7479 15.1172ZM32.5625 16.1719H31.7656V16.6719H32.5625V16.1719ZM32.0156 16.4219V16.0312H31.5156V16.4219H32.0156ZM32.0154 16.0215C31.9476 14.2901 31.847 12.9817 31.7119 12.1027C31.6448 11.6654 31.5671 11.3201 31.4747 11.0786C31.4289 10.959 31.3736 10.8486 31.3025 10.764C31.2306 10.6784 31.1194 10.5938 30.9688 10.5938V11.0938C30.917 11.0938 30.9008 11.0631 30.9197 11.0856C30.9394 11.1091 30.9708 11.1608 31.0077 11.2573C31.0807 11.4481 31.1521 11.7513 31.2177 12.1786C31.3483 13.0287 31.4482 14.3141 31.5158 16.041L32.0154 16.0215ZM30.8894 10.6067C29.6947 11.0066 28.7039 11.3053 27.9156 11.5037C27.1221 11.7033 26.5508 11.7969 26.1875 11.7969V12.2969C26.6159 12.2969 27.2373 12.1899 28.0376 11.9885C28.843 11.7859 29.847 11.4829 31.0481 11.0808L30.8894 10.6067ZM26.1875 11.7969H24.9844V12.2969H26.1875V11.7969ZM25.2344 12.0469C25.2344 12.0044 25.269 11.8951 25.5194 11.7335C25.7576 11.5797 26.132 11.4184 26.6567 11.2542C27.7025 10.9269 29.2845 10.6062 31.4113 10.2942L31.3387 9.79952C29.2051 10.1125 27.5917 10.4377 26.5074 10.777C25.967 10.9462 25.5425 11.1234 25.2482 11.3134C24.966 11.4955 24.7344 11.7352 24.7344 12.0469H25.2344ZM31.6201 9.99785C31.0876 7.33531 30.8281 5.63189 30.8281 4.85938H30.3281C30.3281 5.69103 30.5999 7.44594 31.1299 10.0959L31.6201 9.99785ZM19 6.3125C20.1779 6.3125 22.1336 6.82686 24.8946 7.88956L25.0742 7.42294C22.3143 6.36064 20.2805 5.8125 19 5.8125V6.3125ZM24.7344 7.65625V8.45312H25.2344V7.65625H24.7344ZM24.8141 8.27005L19.236 13.4576L19.5765 13.8237L25.1546 8.6362L24.8141 8.27005ZM19.1562 13.6406V14.4375H19.6562V13.6406H19.1562ZM19.319 14.6718C20.0335 14.9378 20.5926 15.1382 20.9952 15.2723C21.1962 15.3393 21.3607 15.3907 21.4873 15.4256C21.602 15.4572 21.7157 15.4844 21.7969 15.4844V14.9844C21.8022 14.9844 21.7918 14.9845 21.755 14.977C21.7219 14.9702 21.6774 14.9593 21.6202 14.9436C21.5058 14.912 21.3507 14.8638 21.1533 14.798C20.7589 14.6665 20.2061 14.4685 19.4935 14.2032L19.319 14.6718ZM21.7969 15.4844C22.9488 15.4844 24.3058 15.2104 25.8627 14.6739L25.6998 14.2011C24.1733 14.7271 22.8741 14.9844 21.7969 14.9844V15.4844ZM25.5312 14.4375V15.625H26.0312V14.4375H25.5312ZM25.7812 15.375C24.9364 15.375 23.9647 15.6575 22.8734 16.1978L23.0953 16.6459C24.1499 16.1238 25.0427 15.875 25.7812 15.875V15.375ZM22.9844 16.1719C21.4105 16.1719 20.2738 15.9081 19.5371 15.417C18.8183 14.9378 18.4531 14.224 18.4531 13.2344H17.9531C17.9531 14.3697 18.3848 15.2497 19.2598 15.833C20.1168 16.4044 21.3707 16.6719 22.9844 16.6719V16.1719ZM18.3656 13.4244L23.9593 8.64316L23.6344 8.26309L18.0407 13.0443L18.3656 13.4244ZM24.0469 8.45312V8.04688H23.5469V8.45312H24.0469ZM23.8703 7.8079C22.1447 7.27776 20.9126 7 20.2031 7V7.5C20.827 7.5 21.9907 7.75349 23.7235 8.28585L23.8703 7.8079ZM20.1672 7.0026L17.3703 7.40885L17.4422 7.90365L20.2391 7.4974L20.1672 7.0026ZM17.6497 7.71316C17.8142 7.00935 18.271 6.54029 19.0713 6.30211L18.9287 5.82289C17.979 6.10554 17.3733 6.69898 17.1628 7.59934L17.6497 7.71316ZM28.4589 17.4541C29.4892 18.0133 30.2941 18.5191 30.8782 18.9711C31.4689 19.4283 31.8078 19.811 31.9433 20.1169L32.4005 19.9144C32.213 19.4911 31.7915 19.0457 31.1843 18.5757C30.5705 18.1007 29.7399 17.5805 28.6974 17.0146L28.4589 17.4541ZM31.9223 20.001C31.8619 21.0329 31.576 21.7657 31.1006 22.2412C30.6275 22.7142 29.9304 22.9688 28.9688 22.9688V23.4688C30.0175 23.4688 30.8595 23.1894 31.4541 22.5947C32.0464 22.0025 32.3568 21.1338 32.4214 20.0302L31.9223 20.001ZM29.0413 22.9795C28.1304 22.7032 27.4725 22.3749 27.0464 22.0063C26.627 21.6434 26.4375 21.2477 26.4375 20.8125H25.9375C25.9375 21.419 26.2115 21.9451 26.7192 22.3844C27.2202 22.8178 27.9529 23.1718 28.8962 23.458L29.0413 22.9795ZM26.4243 20.8927C26.8617 19.6009 27.4631 19.0781 28.1719 19.0781V18.5781C27.1306 18.5781 26.4092 19.3782 25.9507 20.7323L26.4243 20.8927ZM28.4219 18.8281V18.4219H27.9219V18.8281H28.4219ZM28.1719 18.1719H27.375V18.6719H28.1719V18.1719ZM27.125 18.4219C27.125 18.5212 27.101 18.5493 27.0971 18.5533C27.095 18.5555 27.0735 18.5781 26.9844 18.5781V19.0781C27.1557 19.0781 27.3294 19.0331 27.4576 18.8998C27.5839 18.7684 27.625 18.5934 27.625 18.4219H27.125ZM27.2344 18.8281V18.4219H26.7344V18.8281H27.2344ZM27.2344 18.4219C27.2344 18.3439 27.2876 18.2108 27.5322 18.0286C27.77 17.8514 28.143 17.6633 28.6654 17.4686L28.4908 17.0001C27.9508 17.2013 27.5268 17.409 27.2334 17.6277C26.9467 17.8413 26.7344 18.1041 26.7344 18.4219H27.2344ZM28.7832 18.6606C28.2509 19.2502 27.8487 19.7141 27.5785 20.0505C27.4439 20.2182 27.3386 20.3584 27.2658 20.469C27.2296 20.524 27.1981 20.5766 27.1748 20.6248C27.1559 20.6639 27.125 20.7339 27.125 20.8125H27.625C27.625 20.8547 27.6107 20.8721 27.625 20.8424C27.6349 20.822 27.6532 20.7898 27.6834 20.7439C27.7435 20.6527 27.8374 20.5266 27.9684 20.3636C28.2294 20.0385 28.6241 19.5831 29.1543 18.9956L28.7832 18.6606ZM27.1381 20.8925C27.4618 21.8509 28.4128 22.2656 29.7812 22.2656V21.7656C28.483 21.7656 27.8299 21.3783 27.6119 20.7325L27.1381 20.8925ZM29.7812 22.2656C30.0628 22.2656 30.3158 22.1149 30.5373 21.8905C30.7601 21.6647 30.9768 21.3393 31.1906 20.9277L30.7469 20.6973C30.544 21.0878 30.3545 21.3639 30.1814 21.5392C30.0071 21.7158 29.8747 21.7656 29.7812 21.7656V22.2656ZM31.2188 20.8125V20.0156H30.7188V20.8125H31.2188ZM31.2188 20.0156C31.2188 19.6 30.9809 19.279 30.5964 19.0507C30.2209 18.8277 29.6824 18.676 29.0036 18.5806L28.9339 19.0757C29.5884 19.1677 30.0499 19.3077 30.3411 19.4806C30.6233 19.6481 30.7188 19.8271 30.7188 20.0156H31.2188ZM50.7344 6.84375V7.09375H50.8083L50.8704 7.05351L50.7344 6.84375ZM50.3281 6.84375H50.0781V7.09375H50.3281V6.84375ZM50.3281 6.45312L50.1513 6.27635L50.0781 6.34957V6.45312H50.3281ZM51.125 2.0625H51.375V1.90934L51.2385 1.83977L51.125 2.0625ZM50.3281 1.65625L50.4417 1.43352L50.3484 1.38597L50.2491 1.41908L50.3281 1.65625ZM47.9375 2.45312H47.6875V2.79998L48.0166 2.6903L47.9375 2.45312ZM47.9375 2.0625L47.7006 1.98252L47.6875 2.02143V2.0625H47.9375ZM48.3438 3.25H48.5938V3.2083L48.5802 3.16886L48.3438 3.25ZM45.9375 7.25V7.5H46.024L46.092 7.44658L45.9375 7.25ZM45.5469 7.25H45.2969V7.5H45.5469V7.25ZM45.5469 6.84375L45.33 6.71945L45.2969 6.7772V6.84375H45.5469ZM47.1406 4.0625L47.3575 4.1868L47.3906 4.12905V4.0625H47.1406ZM47.1406 2.85938H47.3906V2.64306L47.1766 2.61197L47.1406 2.85938ZM44.3438 2.45312L44.3797 2.20572L44.2938 2.19325L44.2187 2.23666L44.3438 2.45312ZM42.75 2.85938H42.5V3.10938H42.75V2.85938ZM42.75 2.45312L42.503 2.41438L42.5 2.43364V2.45312H42.75ZM47.9375 8.84375V8.59375H47.9269L47.9163 8.59465L47.9375 8.84375ZM55.5156 8.84375L55.5654 8.59875L55.5408 8.59375H55.5156V8.84375ZM57.5156 9.25L57.7401 9.36004L57.8826 9.06943L57.5654 9.005L57.5156 9.25ZM57.125 10.0469L57.0752 10.2919L57.2645 10.3303L57.3495 10.1569L57.125 10.0469ZM55.125 9.64062L55.1748 9.39563L55.1501 9.39062H55.125V9.64062ZM52.3281 10.8438L52.1063 10.7285L52.0781 10.7827V10.8438H52.3281ZM52.3281 13.6406H52.0781V13.8906H52.3281V13.6406ZM55.125 14.8281L55.3174 14.9877L55.3933 14.8963L55.3703 14.7797L55.125 14.8281ZM49.1406 19.2188V18.9688H48.8906V19.2188H49.1406ZM50.3281 21.2188L50.1781 21.4188L50.2679 21.4861L50.3779 21.4637L50.3281 21.2188ZM52.3281 20.8125V20.5625H52.303L52.2784 20.5675L52.3281 20.8125ZM55.125 20.8125L55.3698 20.8634L55.4323 20.5625H55.125V20.8125ZM47.9375 20.4219H47.6875V20.4919L47.7239 20.5517L47.9375 20.4219ZM52.3281 16.8281L52.4005 17.0674L52.4785 17.0438L52.5277 16.9788L52.3281 16.8281ZM53.5312 15.2344L53.7308 15.385L53.7812 15.3181V15.2344H53.5312ZM53.5312 14.8281H53.7812V14.5781H53.5312V14.8281ZM52.7344 14.4375H52.9844V14.0365L52.6243 14.213L52.7344 14.4375ZM51.9375 14.8281V15.0781H51.9955L52.0475 15.0526L51.9375 14.8281ZM49.5312 14.4375L49.6527 14.219L49.5299 14.1507L49.4077 14.2201L49.5312 14.4375ZM47.9375 14.8281H47.6875V15.0781H47.9375V14.8281ZM47.9375 14.4375L47.6905 14.3988L47.6875 14.418V14.4375H47.9375ZM51.5312 13.6406V13.8906H51.8371L51.7762 13.5909L51.5312 13.6406ZM51.125 11.6406H50.875V11.6658L50.88 11.6904L51.125 11.6406ZM51.125 10.8438L50.9023 10.7302L50.875 10.7837V10.8438H51.125ZM51.5312 10.0469L51.754 10.1604L51.9393 9.79688H51.5312V10.0469ZM45.1406 10.0469V9.79688H45.1163L45.0923 9.80158L45.1406 10.0469ZM43.1562 10.4375H42.9062V10.7415L43.2045 10.6828L43.1562 10.4375ZM43.1562 9.25L43.1351 9.0009L42.9062 9.02034V9.25H43.1562ZM50.3281 1.10938C51.1018 1.10938 51.6355 1.27109 51.973 1.55163C52.3017 1.82482 52.4844 2.24466 52.4844 2.85938H52.9844C52.9844 2.14076 52.766 1.56059 52.2926 1.16712C51.8281 0.780997 51.1586 0.609375 50.3281 0.609375V1.10938ZM52.4844 2.85938C52.4844 4.57904 51.8506 5.82201 50.5984 6.63399L50.8704 7.05351C52.2849 6.13632 52.9844 4.72304 52.9844 2.85938H52.4844ZM50.7344 6.59375H50.3281V7.09375H50.7344V6.59375ZM50.5781 6.84375V6.45312H50.0781V6.84375H50.5781ZM50.5049 6.6299C50.8276 6.30719 51.0373 5.74262 51.1718 5.00168C51.3084 4.24905 51.375 3.26752 51.375 2.0625H50.875C50.875 3.25331 50.8088 4.20147 50.6798 4.91239C50.5487 5.63499 50.3599 6.06781 50.1513 6.27635L50.5049 6.6299ZM51.2385 1.83977L50.4417 1.43352L50.2146 1.87898L51.0115 2.28523L51.2385 1.83977ZM50.2491 1.41908L47.8584 2.21595L48.0166 2.6903L50.4072 1.89342L50.2491 1.41908ZM48.1875 2.45312V2.0625H47.6875V2.45312H48.1875ZM48.1744 2.14248C48.3927 1.49593 49.0416 1.10938 50.3281 1.10938V0.609375C48.9688 0.609375 48.024 1.02491 47.7006 1.98252L48.1744 2.14248ZM43.5469 1.90625H44.75V1.40625H43.5469V1.90625ZM44.75 1.90625C46.7687 1.90625 47.8003 2.43655 48.1073 3.33114L48.5802 3.16886C48.158 1.93845 46.7938 1.40625 44.75 1.40625V1.90625ZM48.0938 3.25C48.0938 4.54956 47.3552 5.81814 45.783 7.05342L46.092 7.44658C47.7281 6.16103 48.5938 4.76294 48.5938 3.25H48.0938ZM45.9375 7H45.5469V7.5H45.9375V7ZM45.7969 7.25V6.84375H45.2969V7.25H45.7969ZM45.7638 6.96805L47.3575 4.1868L46.9237 3.9382L45.33 6.71945L45.7638 6.96805ZM47.3906 4.0625V2.85938H46.8906V4.0625H47.3906ZM47.1766 2.61197L44.3797 2.20572L44.3078 2.70053L47.1047 3.10678L47.1766 2.61197ZM44.2187 2.23666C43.7916 2.48344 43.3042 2.60938 42.75 2.60938V3.10938C43.3833 3.10938 43.9584 2.96448 44.4688 2.66959L44.2187 2.23666ZM43 2.85938V2.45312H42.5V2.85938H43ZM42.997 2.49187C43.0339 2.25676 43.1061 2.1146 43.1885 2.03225C43.2656 1.95518 43.3755 1.90625 43.5469 1.90625V1.40625C43.2703 1.40625 43.0235 1.49014 42.8349 1.67869C42.6517 1.86196 42.5495 2.11824 42.503 2.41438L42.997 2.49187ZM47.9375 9.09375H55.5156V8.59375H47.9375V9.09375ZM55.4659 9.08875L57.4659 9.495L57.5654 9.005L55.5654 8.59875L55.4659 9.08875ZM57.2911 9.13996L56.9005 9.93684L57.3495 10.1569L57.7401 9.36004L57.2911 9.13996ZM57.1748 9.80188L55.1748 9.39563L55.0752 9.88562L57.0752 10.2919L57.1748 9.80188ZM55.125 9.39062H53.5312V9.89062H55.125V9.39062ZM53.5312 9.39062C53.2465 9.39062 52.99 9.53924 52.7646 9.76463C52.5386 9.99069 52.3203 10.3165 52.1063 10.7285L52.55 10.959C52.7526 10.5689 52.9432 10.2932 53.1182 10.1182C53.2938 9.94253 53.4306 9.89062 53.5312 9.89062V9.39062ZM52.0781 10.8438V13.6406H52.5781V10.8438H52.0781ZM52.3281 13.8906C53.1686 13.8906 53.7898 13.9888 54.2109 14.1676C54.6227 14.3425 54.8218 14.5829 54.8797 14.8765L55.3703 14.7797C55.272 14.2817 54.9268 13.9284 54.4063 13.7074C53.8951 13.4903 53.1959 13.3906 52.3281 13.3906V13.8906ZM54.9326 14.6686C53.7259 16.1238 52.6353 17.2045 51.6607 17.9195C50.683 18.6369 49.8457 18.9688 49.1406 18.9688V19.4688C49.998 19.4688 50.9394 19.0689 51.9565 18.3227C52.9767 17.5741 54.097 16.4595 55.3174 14.9877L54.9326 14.6686ZM48.8906 19.2188V20.0156H49.3906V19.2188H48.8906ZM48.8906 20.0156C48.8906 20.1401 48.9466 20.254 49.0052 20.3442C49.0675 20.4401 49.1545 20.5418 49.2596 20.6483C49.4703 20.8618 49.7786 21.1191 50.1781 21.4188L50.4781 21.0187C50.086 20.7246 49.8005 20.4846 49.6154 20.297C49.5226 20.203 49.4612 20.1283 49.4245 20.0718C49.3841 20.0097 49.3906 19.9953 49.3906 20.0156H48.8906ZM50.3779 21.4637L52.3779 21.0575L52.2784 20.5675L50.2784 20.9738L50.3779 21.4637ZM52.3281 21.0625H55.125V20.5625H52.3281V21.0625ZM54.8802 20.7616C54.8206 21.0486 54.6001 21.2978 54.1148 21.481C53.6251 21.6658 52.9051 21.7656 51.9375 21.7656V22.2656C52.9282 22.2656 53.7186 22.1649 54.2914 21.9487C54.8686 21.7309 55.2627 21.3785 55.3698 20.8634L54.8802 20.7616ZM51.9375 21.7656H49.5312V22.2656H51.9375V21.7656ZM49.5312 21.7656C49.4257 21.7656 49.2502 21.6935 48.9971 21.4404C48.7517 21.1951 48.4695 20.8158 48.1511 20.292L47.7239 20.5517C48.0513 21.0905 48.3576 21.5081 48.6435 21.794C48.9217 22.0721 49.2202 22.2656 49.5312 22.2656V21.7656ZM48.1875 20.4219C48.1875 19.7601 48.5038 19.1486 49.1935 18.5841C49.889 18.0148 50.9513 17.5058 52.4005 17.0674L52.2557 16.5888C50.7778 17.0359 49.6448 17.5686 48.8768 18.1972C48.103 18.8305 47.6875 19.5733 47.6875 20.4219H48.1875ZM52.5277 16.9788L53.7308 15.385L53.3317 15.0837L52.1286 16.6775L52.5277 16.9788ZM53.7812 15.2344V14.8281H53.2812V15.2344H53.7812ZM53.5312 14.5781C53.278 14.5781 53.1248 14.5458 53.0436 14.506C53.0065 14.4878 52.9943 14.4728 52.9909 14.4678C52.9888 14.4647 52.9844 14.4578 52.9844 14.4375H52.4844C52.4844 14.5474 52.5132 14.6545 52.5774 14.749C52.6405 14.8417 52.7279 14.9081 52.8236 14.9549C53.008 15.0454 53.2532 15.0781 53.5312 15.0781V14.5781ZM52.6243 14.213L51.8275 14.6036L52.0475 15.0526L52.8444 14.662L52.6243 14.213ZM51.9375 14.5781H51.125V15.0781H51.9375V14.5781ZM51.125 14.5781C50.5691 14.5781 50.0804 14.4566 49.6527 14.219L49.4098 14.656C49.9196 14.9392 50.4934 15.0781 51.125 15.0781V14.5781ZM49.4077 14.2201C48.9923 14.4562 48.5048 14.5781 47.9375 14.5781V15.0781C48.5786 15.0781 49.1536 14.9396 49.6548 14.6549L49.4077 14.2201ZM48.1875 14.8281V14.4375H47.6875V14.8281H48.1875ZM48.1845 14.4762C48.2214 14.2411 48.2936 14.099 48.376 14.0166C48.4531 13.9396 48.563 13.8906 48.7344 13.8906V13.3906C48.4578 13.3906 48.211 13.4745 48.0224 13.6631C47.8392 13.8463 47.737 14.1026 47.6905 14.3988L48.1845 14.4762ZM48.7344 13.8906H51.5312V13.3906H48.7344V13.8906ZM51.7762 13.5909L51.37 11.5909L50.88 11.6904L51.2863 13.6904L51.7762 13.5909ZM51.375 11.6406V10.8438H50.875V11.6406H51.375ZM51.3477 10.9573L51.754 10.1604L51.3085 9.93333L50.9023 10.7302L51.3477 10.9573ZM51.5312 9.79688H45.1406V10.2969H51.5312V9.79688ZM45.0923 9.80158L43.108 10.1922L43.2045 10.6828L45.1889 10.2922L45.0923 9.80158ZM43.4062 10.4375V9.25H42.9062V10.4375H43.4062ZM43.1774 9.4991L47.9587 9.09285L47.9163 8.59465L43.1351 9.0009L43.1774 9.4991ZM72.3906 4.85938V4.60938H72.1406V4.85938H72.3906ZM73.5781 4.85938L73.8235 4.81154L73.7841 4.60938H73.5781V4.85938ZM74.7812 11.6406L75.0267 11.6882L75.0312 11.6647V11.6406H74.7812ZM74.375 14.0312H74.125V14.0924L74.1532 14.1466L74.375 14.0312ZM74.7812 15.2344L75.0021 15.3516L75.0312 15.2966V15.2344H74.7812ZM74.375 16.4219V16.6719H74.625V16.4219H74.375ZM73.5781 16.4219H73.3281V16.6719H73.5781V16.4219ZM73.5781 16.0312H73.8283L73.8279 16.0215L73.5781 16.0312ZM72.7812 10.8438V10.5938H72.7405L72.7019 10.6067L72.7812 10.8438ZM66.7969 12.0469H66.5469V12.2969H66.7969V12.0469ZM73.1875 10.0469L73.2238 10.2942L73.4843 10.256L73.4326 9.99785L73.1875 10.0469ZM60.8125 6.0625V5.8125H60.7761L60.7412 5.82289L60.8125 6.0625ZM66.7969 7.65625H67.0469V7.4846L66.8867 7.42294L66.7969 7.65625ZM66.7969 8.45312L66.9671 8.6362L67.0469 8.56203V8.45312H66.7969ZM61.2188 13.6406L61.0485 13.4576L60.9688 13.5317V13.6406H61.2188ZM61.2188 14.4375H60.9688V14.6112L61.1315 14.6718L61.2188 14.4375ZM67.5938 14.4375H67.8438V14.0869L67.5123 14.2011L67.5938 14.4375ZM67.5938 15.625V15.875H67.8438V15.625H67.5938ZM64.7969 16.4219V16.6719H64.8554L64.9078 16.6459L64.7969 16.4219ZM60.0156 13.2344L59.8532 13.0443L59.7656 13.1192V13.2344H60.0156ZM65.6094 8.45312L65.7718 8.64316L65.8594 8.56832V8.45312H65.6094ZM65.6094 8.04688H65.8594V7.86215L65.6828 7.8079L65.6094 8.04688ZM62.0156 7.25V7H61.9976L61.9797 7.0026L62.0156 7.25ZM59.2188 7.65625L58.9753 7.59934L58.8919 7.95636L59.2547 7.90365L59.2188 7.65625ZM70.3906 17.2344L70.5099 17.0146L70.4099 16.9604L70.3033 17.0001L70.3906 17.2344ZM73.9844 20.0156L74.2339 20.0302L74.2375 19.9698L74.213 19.9144L73.9844 20.0156ZM70.7812 23.2188L70.7087 23.458L70.7442 23.4688H70.7812V23.2188ZM68 20.8125L67.7632 20.7323L67.75 20.7713V20.8125H68ZM69.9844 18.8281V19.0781H70.2344V18.8281H69.9844ZM69.9844 18.4219H70.2344V18.1719H69.9844V18.4219ZM69.1875 18.4219V18.1719H68.9375V18.4219H69.1875ZM68.7969 18.8281H68.5469V19.0781H68.7969V18.8281ZM70.7812 18.8281L70.8161 18.5806L70.6846 18.5621L70.5957 18.6606L70.7812 18.8281ZM69.1875 20.8125H68.9375V20.8536L68.9506 20.8925L69.1875 20.8125ZM72.7812 20.8125L73.0031 20.9277L73.0312 20.8736V20.8125H72.7812ZM72.3906 5.10938H73.5781V4.60938H72.3906V5.10938ZM73.3327 4.90721C73.7337 6.96404 74.0342 8.55617 74.2343 9.6843C74.3344 10.2485 74.4092 10.6953 74.4588 11.0255C74.5096 11.3633 74.5312 11.5613 74.5312 11.6406H75.0312C75.0312 11.5168 75.0027 11.2799 74.9533 10.9511C74.9027 10.6146 74.827 10.1629 74.7266 9.59695C74.5257 8.46466 74.2246 6.86929 73.8235 4.81154L73.3327 4.90721ZM74.5358 11.593C74.4003 12.2916 74.2983 12.842 74.2301 13.2433C74.1638 13.6336 74.125 13.9063 74.125 14.0312H74.625C74.625 13.9582 74.6539 13.7336 74.723 13.327C74.7903 12.9314 74.8914 12.3854 75.0267 11.6882L74.5358 11.593ZM74.1532 14.1466C74.4215 14.6625 74.5312 15.0175 74.5312 15.2344H75.0312C75.0312 14.8887 74.8702 14.4417 74.5968 13.9159L74.1532 14.1466ZM74.5604 15.1172C74.2866 15.6333 74.125 16.0754 74.125 16.4219H74.625C74.625 16.2058 74.7342 15.8563 75.0021 15.3516L74.5604 15.1172ZM74.375 16.1719H73.5781V16.6719H74.375V16.1719ZM73.8281 16.4219V16.0312H73.3281V16.4219H73.8281ZM73.8279 16.0215C73.7601 14.2901 73.6595 12.9817 73.5244 12.1027C73.4573 11.6654 73.3796 11.3201 73.2872 11.0786C73.2414 10.959 73.1861 10.8486 73.115 10.764C73.0431 10.6784 72.9319 10.5938 72.7812 10.5938V11.0938C72.7295 11.0938 72.7133 11.0631 72.7322 11.0856C72.7519 11.1091 72.7833 11.1608 72.8202 11.2573C72.8932 11.4481 72.9646 11.7513 73.0302 12.1786C73.1608 13.0287 73.2607 14.3141 73.3283 16.041L73.8279 16.0215ZM72.7019 10.6067C71.5072 11.0066 70.5164 11.3053 69.7281 11.5037C68.9346 11.7033 68.3633 11.7969 68 11.7969V12.2969C68.4284 12.2969 69.0498 12.1899 69.8501 11.9885C70.6555 11.7859 71.6595 11.4829 72.8606 11.0808L72.7019 10.6067ZM68 11.7969H66.7969V12.2969H68V11.7969ZM67.0469 12.0469C67.0469 12.0044 67.0815 11.8951 67.3319 11.7335C67.5701 11.5797 67.9445 11.4184 68.4692 11.2542C69.515 10.9269 71.097 10.6062 73.2238 10.2942L73.1512 9.79952C71.0176 10.1125 69.4042 10.4377 68.3199 10.777C67.7795 10.9462 67.355 11.1234 67.0607 11.3134C66.7785 11.4955 66.5469 11.7352 66.5469 12.0469H67.0469ZM73.4326 9.99785C72.9001 7.33531 72.6406 5.63189 72.6406 4.85938H72.1406C72.1406 5.69103 72.4124 7.44594 72.9424 10.0959L73.4326 9.99785ZM60.8125 6.3125C61.9904 6.3125 63.9461 6.82686 66.7071 7.88956L66.8867 7.42294C64.1268 6.36064 62.093 5.8125 60.8125 5.8125V6.3125ZM66.5469 7.65625V8.45312H67.0469V7.65625H66.5469ZM66.6266 8.27005L61.0485 13.4576L61.389 13.8237L66.9671 8.6362L66.6266 8.27005ZM60.9688 13.6406V14.4375H61.4688V13.6406H60.9688ZM61.1315 14.6718C61.846 14.9378 62.4051 15.1382 62.8077 15.2723C63.0087 15.3393 63.1732 15.3907 63.2998 15.4256C63.4145 15.4572 63.5282 15.4844 63.6094 15.4844V14.9844C63.6147 14.9844 63.6043 14.9845 63.5675 14.977C63.5344 14.9702 63.4899 14.9593 63.4327 14.9436C63.3183 14.912 63.1632 14.8638 62.9658 14.798C62.5714 14.6665 62.0186 14.4685 61.306 14.2032L61.1315 14.6718ZM63.6094 15.4844C64.7613 15.4844 66.1183 15.2104 67.6752 14.6739L67.5123 14.2011C65.9858 14.7271 64.6866 14.9844 63.6094 14.9844V15.4844ZM67.3438 14.4375V15.625H67.8438V14.4375H67.3438ZM67.5938 15.375C66.7489 15.375 65.7772 15.6575 64.6859 16.1978L64.9078 16.6459C65.9623 16.1238 66.8552 15.875 67.5938 15.875V15.375ZM64.7969 16.1719C63.223 16.1719 62.0863 15.9081 61.3496 15.417C60.6308 14.9378 60.2656 14.224 60.2656 13.2344H59.7656C59.7656 14.3697 60.1973 15.2497 61.0723 15.833C61.9293 16.4044 63.1832 16.6719 64.7969 16.6719V16.1719ZM60.1781 13.4244L65.7718 8.64316L65.4469 8.26309L59.8532 13.0443L60.1781 13.4244ZM65.8594 8.45312V8.04688H65.3594V8.45312H65.8594ZM65.6828 7.8079C63.9572 7.27776 62.7251 7 62.0156 7V7.5C62.6395 7.5 63.8032 7.75349 65.536 8.28585L65.6828 7.8079ZM61.9797 7.0026L59.1828 7.40885L59.2547 7.90365L62.0516 7.4974L61.9797 7.0026ZM59.4622 7.71316C59.6267 7.00935 60.0835 6.54029 60.8838 6.30211L60.7412 5.82289C59.7915 6.10554 59.1858 6.69898 58.9753 7.59934L59.4622 7.71316ZM70.2714 17.4541C71.3018 18.0133 72.1066 18.5191 72.6907 18.9711C73.2814 19.4283 73.6203 19.811 73.7558 20.1169L74.213 19.9144C74.0255 19.4911 73.604 19.0457 72.9968 18.5757C72.383 18.1007 71.5524 17.5805 70.5099 17.0146L70.2714 17.4541ZM73.7348 20.001C73.6744 21.0329 73.3885 21.7657 72.9131 22.2412C72.44 22.7142 71.7429 22.9688 70.7812 22.9688V23.4688C71.83 23.4688 72.672 23.1894 73.2666 22.5947C73.8589 22.0025 74.1693 21.1338 74.2339 20.0302L73.7348 20.001ZM70.8538 22.9795C69.9429 22.7032 69.285 22.3749 68.8589 22.0063C68.4395 21.6434 68.25 21.2477 68.25 20.8125H67.75C67.75 21.419 68.024 21.9451 68.5317 22.3844C69.0327 22.8178 69.7654 23.1718 70.7087 23.458L70.8538 22.9795ZM68.2368 20.8927C68.6742 19.6009 69.2756 19.0781 69.9844 19.0781V18.5781C68.9431 18.5781 68.2217 19.3782 67.7632 20.7323L68.2368 20.8927ZM70.2344 18.8281V18.4219H69.7344V18.8281H70.2344ZM69.9844 18.1719H69.1875V18.6719H69.9844V18.1719ZM68.9375 18.4219C68.9375 18.5212 68.9135 18.5493 68.9096 18.5533C68.9075 18.5555 68.886 18.5781 68.7969 18.5781V19.0781C68.9682 19.0781 69.1419 19.0331 69.2701 18.8998C69.3964 18.7684 69.4375 18.5934 69.4375 18.4219H68.9375ZM69.0469 18.8281V18.4219H68.5469V18.8281H69.0469ZM69.0469 18.4219C69.0469 18.3439 69.1001 18.2108 69.3447 18.0286C69.5825 17.8514 69.9555 17.6633 70.4779 17.4686L70.3033 17.0001C69.7633 17.2013 69.3393 17.409 69.0459 17.6277C68.7592 17.8413 68.5469 18.1041 68.5469 18.4219H69.0469ZM70.5957 18.6606C70.0635 19.2502 69.6612 19.7141 69.391 20.0505C69.2564 20.2182 69.1511 20.3584 69.0783 20.469C69.0421 20.524 69.0106 20.5766 68.9873 20.6248C68.9684 20.6639 68.9375 20.7339 68.9375 20.8125H69.4375C69.4375 20.8547 69.4232 20.8721 69.4375 20.8424C69.4474 20.822 69.4657 20.7898 69.4959 20.7439C69.556 20.6527 69.6499 20.5266 69.7809 20.3636C70.0419 20.0385 70.4365 19.5831 70.9668 18.9956L70.5957 18.6606ZM68.9506 20.8925C69.2743 21.8509 70.2253 22.2656 71.5938 22.2656V21.7656C70.2955 21.7656 69.6424 21.3783 69.4244 20.7325L68.9506 20.8925ZM71.5938 22.2656C71.8753 22.2656 72.1283 22.1149 72.3498 21.8905C72.5726 21.6647 72.7893 21.3393 73.0031 20.9277L72.5594 20.6973C72.3565 21.0878 72.167 21.3639 71.9939 21.5392C71.8196 21.7158 71.6872 21.7656 71.5938 21.7656V22.2656ZM73.0312 20.8125V20.0156H72.5312V20.8125H73.0312ZM73.0312 20.0156C73.0312 19.6 72.7934 19.279 72.4089 19.0507C72.0334 18.8277 71.4949 18.676 70.8161 18.5806L70.7464 19.0757C71.4009 19.1677 71.8624 19.3077 72.1536 19.4806C72.4358 19.6481 72.5312 19.8271 72.5312 20.0156H73.0312ZM83.2656 2.03125H83.5156V1.76375L83.2487 1.78182L83.2656 2.03125ZM77.2656 4.03125H77.0156V4.30507L77.2883 4.28022L77.2656 4.03125ZM90.4531 2.82812V2.57812H90.3778L90.3151 2.6197L90.4531 2.82812ZM90.8438 2.82812H91.0938V2.57812H90.8438V2.82812ZM90.4531 3.625V3.375H90.1658L90.2055 3.65958L90.4531 3.625ZM90.8438 6.42188H91.0938V6.4045L91.0913 6.38729L90.8438 6.42188ZM90.8438 11.625H90.5938V12.0331L90.9573 11.8477L90.8438 11.625ZM91.6406 11.2188V10.9688H91.5806L91.5271 10.996L91.6406 11.2188ZM94.4375 11.2188H94.6875V10.9688H94.4375V11.2188ZM94.4375 12.0156L94.4656 12.264L94.6875 12.239V12.0156H94.4375ZM90.8438 12.4219L90.8157 12.1735L90.5938 12.1985V12.4219H90.8438ZM90.0469 17.2031V17.4531H90.2316L90.2859 17.2765L90.0469 17.2031ZM88.8438 17.2031L88.6215 17.0886L88.4337 17.4531H88.8438V17.2031ZM89.25 3.625L89.112 3.41657L88.9927 3.49556L89.0004 3.63839L89.25 3.625ZM84.8594 5.625L85.0839 5.51496L85.0038 5.35173L84.8239 5.37753L84.8594 5.625ZM85.25 6.42188L85.2988 6.66707L85.6175 6.60365L85.4745 6.31184L85.25 6.42188ZM76.4688 6.82812L76.4333 6.58066L76.2188 6.61142V6.82812H76.4688ZM82.8594 8.82812L82.9466 8.59383L82.9044 8.57812H82.8594V8.82812ZM85.25 10.8281L85.497 10.8669L85.504 10.8219L85.4948 10.7773L85.25 10.8281ZM79.2656 11.625L79.0298 11.542L78.996 11.638L79.0388 11.7302L79.2656 11.625ZM81.2656 10.0156V9.76562H81.0156V10.0156H81.2656ZM80.4688 11.2188L80.3273 11.0126L80.1663 11.1231L80.2345 11.306L80.4688 11.2188ZM84.0625 11.625L84.3035 11.6916L84.3125 11.6589V11.625H84.0625ZM84.0625 10.4219H84.3125V10.2176L84.1123 10.1769L84.0625 10.4219ZM82.0625 10.0156L82.1123 9.77063L82.0876 9.76562H82.0625V10.0156ZM84.8594 15.6094V15.3594H84.6094V15.6094H84.8594ZM85.6562 15.6094L85.8957 15.5374L85.8421 15.3594H85.6562V15.6094ZM86.8594 19.6094L86.62 19.6814L86.6735 19.8594H86.8594V19.6094ZM92.8438 19.6094H93.0938V19.3594H92.8438V19.6094ZM86.0469 20.8125L85.8135 20.9021L85.8751 21.0625H86.0469V20.8125ZM83.0156 2.03125V2.4375H83.5156V2.03125H83.0156ZM83.0156 2.4375C83.0156 2.47816 82.9873 2.57683 82.7597 2.7167C82.5405 2.85145 82.1929 2.9872 81.7014 3.11775C80.7224 3.37782 79.2394 3.60031 77.2429 3.78228L77.2883 4.28022C79.2919 4.0976 80.8089 3.87218 81.8298 3.601C82.3383 3.46592 82.7408 3.31522 83.0215 3.14268C83.2939 2.97525 83.5156 2.7458 83.5156 2.4375H83.0156ZM77.5156 4.03125C77.5156 3.85546 77.5945 3.67893 77.8041 3.49771C78.0191 3.31188 78.3594 3.13331 78.8447 2.97155C79.8139 2.64848 81.2883 2.4157 83.2825 2.28068L83.2487 1.78182C81.2429 1.91763 79.7174 2.1536 78.6866 2.4972C78.1718 2.66878 77.7622 2.87302 77.4771 3.11948C77.1867 3.37055 77.0156 3.67579 77.0156 4.03125H77.5156ZM90.4531 3.07812H90.8438V2.57812H90.4531V3.07812ZM90.5938 2.82812C90.5938 3.08135 90.5614 3.23454 90.5216 3.31574C90.5034 3.35288 90.4884 3.36509 90.4834 3.36846C90.4803 3.3706 90.4735 3.375 90.4531 3.375V3.875C90.563 3.875 90.6701 3.8462 90.7646 3.78193C90.8573 3.71889 90.9237 3.63149 90.9706 3.53582C91.061 3.35139 91.0938 3.10615 91.0938 2.82812H90.5938ZM90.2055 3.65958L90.5962 6.45646L91.0913 6.38729L90.7007 3.59042L90.2055 3.65958ZM90.5938 6.42188V11.625H91.0938V6.42188H90.5938ZM90.9573 11.8477L91.7542 11.4415L91.5271 10.996L90.7302 11.4023L90.9573 11.8477ZM91.6406 11.4688H94.4375V10.9688H91.6406V11.4688ZM94.1875 11.2188V12.0156H94.6875V11.2188H94.1875ZM94.4094 11.7672L90.8157 12.1735L90.8718 12.6703L94.4656 12.264L94.4094 11.7672ZM90.5938 12.4219V13.6094H91.0938V12.4219H90.5938ZM90.5938 13.6094C90.5938 14.2332 90.3403 15.3969 89.8079 17.1297L90.2859 17.2765C90.816 15.551 91.0938 14.3189 91.0938 13.6094H90.5938ZM90.0469 16.9531H88.8438V17.4531H90.0469V16.9531ZM89.066 17.3176C89.6235 16.2353 89.8906 14.7258 89.8906 12.8125H89.3906C89.3906 14.6909 89.1265 16.1084 88.6215 17.0886L89.066 17.3176ZM89.8906 12.8125C89.8906 11.5335 89.7599 8.46348 89.4996 3.61161L89.0004 3.63839C89.2609 8.49485 89.3906 11.5498 89.3906 12.8125H89.8906ZM89.388 3.83343L90.5912 3.03655L90.3151 2.6197L89.112 3.41657L89.388 3.83343ZM84.6349 5.73504L85.0255 6.53191L85.4745 6.31184L85.0839 5.51496L84.6349 5.73504ZM85.2012 6.17668C81.1607 6.9806 78.6625 7.375 77.6719 7.375V7.875C78.723 7.875 81.2768 7.46731 85.2988 6.66707L85.2012 6.17668ZM77.6719 7.375H77.2656V7.875H77.6719V7.375ZM77.2656 7.375C77.0385 7.375 76.9141 7.3184 76.8447 7.249C76.7754 7.17961 76.7188 7.05521 76.7188 6.82812H76.2188C76.2188 7.13229 76.295 7.40633 76.4912 7.60256C76.6874 7.79879 76.9615 7.875 77.2656 7.875V7.375ZM76.5042 7.07559L84.8949 5.87247L84.8239 5.37753L76.4333 6.58066L76.5042 7.07559ZM82.7722 9.06242C84.1858 9.58868 84.8668 10.213 85.0052 10.879L85.4948 10.7773C85.2998 9.83907 84.3871 9.13007 82.9466 8.59383L82.7722 9.06242ZM85.003 10.7894C84.8401 11.8278 84.5355 12.5722 84.1129 13.0539C83.6985 13.5261 83.1535 13.7656 82.4531 13.7656V14.2656C83.284 14.2656 83.9708 13.9739 84.4887 13.3836C84.9984 12.8028 85.3265 11.9535 85.497 10.8669L85.003 10.7894ZM82.4531 13.7656C81.812 13.7656 81.2532 13.5825 80.7672 13.218C80.2779 12.851 79.8502 12.2908 79.4924 11.5198L79.0388 11.7302C79.4206 12.5529 79.894 13.1881 80.4672 13.618C81.0437 14.0503 81.7088 14.2656 82.4531 14.2656V13.7656ZM79.5014 11.708C79.8184 10.8075 80.2585 10.1537 80.8098 9.72464C81.3586 9.29753 82.0367 9.07812 82.8594 9.07812V8.57812C81.9425 8.57812 81.1518 8.82486 80.5027 9.33005C79.8561 9.8333 79.3691 10.578 79.0298 11.542L79.5014 11.708ZM81.0156 10.0156C81.0156 10.3366 80.8247 10.6713 80.3273 11.0126L80.6102 11.4249C81.1753 11.0371 81.5156 10.5697 81.5156 10.0156H81.0156ZM80.2345 11.306C80.4357 11.8461 80.6434 12.27 80.862 12.5634C81.0757 12.8501 81.3384 13.0625 81.6562 13.0625V12.5625C81.5782 12.5625 81.4452 12.5092 81.263 12.2647C81.0858 12.0268 80.8977 11.6539 80.703 11.1315L80.2345 11.306ZM81.6562 13.0625C82.3683 13.0625 82.9583 12.9615 83.4075 12.7398C83.8661 12.5135 84.1733 12.1627 84.3035 11.6916L83.8215 11.5584C83.733 11.879 83.5297 12.1219 83.1862 12.2914C82.8334 12.4656 82.3296 12.5625 81.6562 12.5625V13.0625ZM84.3125 11.625V10.4219H83.8125V11.625H84.3125ZM84.1123 10.1769L82.1123 9.77063L82.0127 10.2606L84.0127 10.6669L84.1123 10.1769ZM82.0625 9.76562H81.2656V10.2656H82.0625V9.76562ZM84.8594 15.8594H85.6562V15.3594H84.8594V15.8594ZM85.4168 15.6814L86.62 19.6814L87.0988 19.5374L85.8957 15.5374L85.4168 15.6814ZM86.8594 19.8594H92.8438V19.3594H86.8594V19.8594ZM92.5938 19.6094V20H93.0938V19.6094H92.5938ZM92.5938 20C92.5938 20.2335 92.5365 20.3625 92.466 20.4343C92.3965 20.5053 92.2727 20.5625 92.0469 20.5625V21.0625C92.3523 21.0625 92.627 20.9843 92.823 20.7844C93.0182 20.5854 93.0938 20.3082 93.0938 20H92.5938ZM92.0469 20.5625H86.0469V21.0625H92.0469V20.5625ZM86.2803 20.7229C85.494 18.6745 85.1094 16.9726 85.1094 15.6094H84.6094C84.6094 17.0586 85.0164 18.8255 85.8135 20.9021L86.2803 20.7229ZM117.797 3.23438V2.98438H117.547V3.23438H117.797ZM119 14.8125L118.758 14.7513L118.744 14.8055L118.755 14.8604L119 14.8125ZM119.391 16.8125L119.639 16.841L119.643 16.8025L119.636 16.7646L119.391 16.8125ZM119 22V22.25H119.25V22H119ZM117.391 20.4062L117.146 20.3565L117.128 20.442L117.168 20.5198L117.391 20.4062ZM117.797 18.4062L118.042 18.456L118.047 18.4314V18.4062H117.797ZM117.391 4.4375L117.169 4.32216L117.135 4.38744L117.142 4.4607L117.391 4.4375ZM107.406 4.03125V3.78125H107.156V4.03125H107.406ZM108.609 4.03125L108.859 4.0118L108.841 3.78125H108.609V4.03125ZM112.203 7.23438H112.453V6.98438H112.203V7.23438ZM112.203 8.42188L112.412 8.55993L112.453 8.49716V8.42188H112.203ZM110.609 10.8281L110.401 10.6901L110.359 10.7528V10.8281H110.609ZM110.609 11.2188H110.359V11.4139L110.549 11.4613L110.609 11.2188ZM113.797 12.0156H114.047V11.8204L113.858 11.7731L113.797 12.0156ZM113.797 13.2188L113.761 13.4662L114.047 13.5072V13.2188H113.797ZM110.203 11.2188H110.453V10.9688H110.203V11.2188ZM105.812 14.4219V14.6719H105.899L105.967 14.6185L105.812 14.4219ZM104.219 14.4219H103.969V14.6719H104.219V14.4219ZM104.219 13.6094L104.16 13.3664L103.969 13.4128V13.6094H104.219ZM110.609 8.42188L110.811 8.56947L111.102 8.17188H110.609V8.42188ZM106.609 7.23438V6.98438H106.359V7.23438H106.609ZM108.609 7.23438V7.48438H109.027L108.83 7.11649L108.609 7.23438ZM110.609 14.0156H110.859V13.6038L110.494 13.7938L110.609 14.0156ZM110.609 17.2031L110.824 17.332L110.859 17.2725V17.2031H110.609ZM109.406 19.2031L109.192 19.0743L109.58 19.3833L109.406 19.2031ZM115.797 18.4062H116.047V18.1387L115.78 18.1568L115.797 18.4062ZM115.797 19.6094L115.83 19.8572L116.047 19.8285V19.6094H115.797ZM106.219 20.4062H105.969V20.6562H106.219V20.4062ZM106.219 20H106.469V19.5919L106.105 19.7773L106.219 20ZM105.422 20.4062V20.6562H105.482L105.535 20.629L105.422 20.4062ZM104.219 20.4062H103.969V20.6562H104.219V20.4062ZM104.219 19.2031V18.9531H103.969V19.2031H104.219ZM109.406 14.4219V14.1719H109.156V14.4219H109.406ZM117.797 3.48438C117.932 3.48438 118.097 3.56738 118.277 3.88256C118.456 4.19652 118.616 4.68909 118.747 5.37868C119.008 6.75331 119.141 8.83186 119.141 11.625H119.641C119.641 8.82439 119.508 6.70763 119.238 5.28538C119.103 4.57654 118.931 4.02028 118.711 3.63502C118.493 3.25098 118.193 2.98438 117.797 2.98438V3.48438ZM119.141 11.625C119.141 12.6987 119.013 13.7406 118.758 14.7513L119.242 14.8737C119.508 13.8219 119.641 12.7388 119.641 11.625H119.141ZM118.755 14.8604L119.145 16.8604L119.636 16.7646L119.245 14.7646L118.755 14.8604ZM119.142 16.784C118.882 19.0574 118.75 20.7979 118.75 22H119.25C119.25 20.8271 119.379 19.1093 119.639 16.841L119.142 16.784ZM119 21.75H118.594V22.25H119V21.75ZM118.594 21.75C118.612 21.75 118.593 21.757 118.529 21.7055C118.468 21.6572 118.391 21.5755 118.297 21.4509C118.11 21.2027 117.882 20.8194 117.613 20.2927L117.168 20.5198C117.441 21.0556 117.685 21.4692 117.898 21.7522C118.005 21.8933 118.11 22.0108 118.216 22.0953C118.317 22.1766 118.446 22.25 118.594 22.25V21.75ZM117.636 20.456L118.042 18.456L117.552 18.3565L117.146 20.3565L117.636 20.456ZM118.047 18.4062V12.0156H117.547V18.4062H118.047ZM118.047 12.0156C118.047 9.85986 117.911 7.32573 117.64 4.4143L117.142 4.4607C117.412 7.36177 117.547 9.87972 117.547 12.0156H118.047ZM117.612 4.55284C117.886 4.02709 118.047 3.58004 118.047 3.23438H117.547C117.547 3.45121 117.437 3.80625 117.169 4.32216L117.612 4.55284ZM107.406 4.28125H108.609V3.78125H107.406V4.28125ZM108.36 4.0507C108.444 5.12513 108.588 5.95412 108.801 6.5215C109.007 7.06917 109.323 7.48438 109.812 7.48438V6.98438C109.666 6.98438 109.465 6.86573 109.269 6.34569C109.081 5.84536 108.941 5.07279 108.859 4.0118L108.36 4.0507ZM109.812 7.48438H112.203V6.98438H109.812V7.48438ZM111.953 7.23438V8.42188H112.453V7.23438H111.953ZM111.995 8.28382L110.401 10.6901L110.818 10.9662L112.412 8.55993L111.995 8.28382ZM110.359 10.8281V11.2188H110.859V10.8281H110.359ZM110.549 11.4613L113.736 12.2582L113.858 11.7731L110.67 10.9762L110.549 11.4613ZM113.547 12.0156V13.2188H114.047V12.0156H113.547ZM113.832 12.9713C112.645 12.8009 111.782 12.5537 111.223 12.2425C110.669 11.9341 110.453 11.5892 110.453 11.2188H109.953C109.953 11.8379 110.336 12.3211 110.98 12.6794C111.619 13.0348 112.553 13.2928 113.761 13.4662L113.832 12.9713ZM110.203 10.9688C110.145 10.9688 110.094 10.9852 110.064 10.9964C110.028 11.0096 109.99 11.027 109.952 11.0462C109.877 11.0848 109.784 11.1397 109.677 11.2082C109.461 11.3459 109.169 11.5496 108.802 11.8176C108.066 12.3541 107.018 13.1571 105.658 14.2253L105.967 14.6185C107.326 13.5513 108.368 12.7527 109.097 12.2215C109.461 11.9556 109.744 11.7589 109.946 11.6296C110.048 11.5647 110.125 11.5195 110.18 11.4914C110.208 11.4773 110.225 11.4696 110.235 11.4661C110.25 11.4606 110.235 11.4688 110.203 11.4688V10.9688ZM105.812 14.1719H104.219V14.6719H105.812V14.1719ZM104.469 14.4219V13.6094H103.969V14.4219H104.469ZM104.278 13.8523C106.467 13.3212 108.642 11.535 110.811 8.56947L110.408 8.27428C108.264 11.2046 106.179 12.8767 104.16 13.3664L104.278 13.8523ZM110.609 8.17188C109.28 8.17188 108.3 8.10533 107.658 7.97747C107.335 7.91312 107.118 7.83693 106.988 7.75904C106.858 7.6818 106.859 7.63307 106.859 7.625H106.359C106.359 7.88255 106.527 8.06625 106.731 8.18823C106.934 8.30955 107.217 8.39938 107.561 8.46784C108.252 8.60561 109.272 8.67188 110.609 8.67188V8.17188ZM106.859 7.625V7.23438H106.359V7.625H106.859ZM106.609 7.48438H108.609V6.98438H106.609V7.48438ZM108.83 7.11649C108.432 6.37196 108.136 5.74059 107.941 5.22069C107.744 4.69625 107.656 4.30394 107.656 4.03125H107.156C107.156 4.39397 107.269 4.85323 107.473 5.3965C107.679 5.9443 107.985 6.59679 108.389 7.35226L108.83 7.11649ZM110.359 14.0156V17.2031H110.859V14.0156H110.359ZM110.395 17.0743L109.192 19.0743L109.62 19.332L110.824 17.332L110.395 17.0743ZM109.58 19.3833C109.573 19.39 109.592 19.3717 109.679 19.3408C109.757 19.313 109.867 19.2828 110.012 19.251C110.301 19.1877 110.708 19.1227 111.238 19.0567C112.296 18.9247 113.82 18.791 115.814 18.6557L115.78 18.1568C113.784 18.2923 112.248 18.4268 111.176 18.5605C110.641 18.6273 110.216 18.6945 109.905 18.7626C109.749 18.7966 109.617 18.832 109.511 18.8697C109.414 18.9042 109.308 18.9511 109.233 19.0229L109.58 19.3833ZM115.547 18.4062V19.6094H116.047V18.4062H115.547ZM115.764 19.3615C111.748 19.8922 108.567 20.1562 106.219 20.1562V20.6562C108.599 20.6562 111.804 20.389 115.83 19.8572L115.764 19.3615ZM106.469 20.4062V20H105.969V20.4062H106.469ZM106.105 19.7773L105.308 20.1835L105.535 20.629L106.332 20.2227L106.105 19.7773ZM105.422 20.1562H104.219V20.6562H105.422V20.1562ZM104.469 20.4062V19.2031H103.969V20.4062H104.469ZM104.219 19.4531H106.219V18.9531H104.219V19.4531ZM106.219 19.4531C107.312 19.4531 108.179 19.2139 108.774 18.6918C109.376 18.1642 109.656 17.3862 109.656 16.4062H109.156C109.156 17.2909 108.906 17.9113 108.444 18.316C107.977 18.7262 107.25 18.9531 106.219 18.9531V19.4531ZM109.656 16.4062V14.4219H109.156V16.4062H109.656ZM109.406 14.6719C109.752 14.6719 110.199 14.5108 110.725 14.2374L110.494 13.7938C109.978 14.0621 109.623 14.1719 109.406 14.1719V14.6719ZM132.672 4.03125V3.78125H132.422V4.03125H132.672ZM133.469 4.03125L133.715 3.98592L133.677 3.78125H133.469V4.03125ZM133.078 16.8125V17.0625H133.285L133.324 16.8591L133.078 16.8125ZM132.281 16.0156L132.031 16.0019V16.0156H132.281ZM127.484 4.4375H127.734V4.1875H127.484V4.4375ZM127.484 5.23438L127.692 5.37431L127.734 5.3109V5.23438H127.484ZM124.688 9.625H124.438V9.81087L124.615 9.8644L124.688 9.625ZM128.688 10.8281H128.938V10.6423L128.76 10.5887L128.688 10.8281ZM128.688 12.0156L128.637 12.2606L128.938 12.3219V12.0156H128.688ZM124.281 10.4219L124.42 10.2139L124.264 10.1098L124.12 10.2306L124.281 10.4219ZM121.094 12.4219H120.844V12.6719H121.094V12.4219ZM121.094 12.0156L120.918 11.8381L120.844 11.9114V12.0156H121.094ZM126.688 4.4375V4.1875H126.553L126.479 4.30025L126.688 4.4375ZM128.688 16.0156H128.938V15.7656H128.688V16.0156ZM133.078 20.4062L133.14 20.164L133.109 20.1562H133.078V20.4062ZM134.672 20.8125H134.922V20.6182L134.734 20.5702L134.672 20.8125ZM134.672 21.6094V21.8594H134.922V21.6094H134.672ZM127.484 17.6094L127.25 17.5221L127.234 17.5643V17.6094H127.484ZM132.672 4.28125H133.469V3.78125H132.672V4.28125ZM133.223 4.07658C133.493 5.5441 133.625 6.59238 133.625 7.23438H134.125C134.125 6.54304 133.986 5.4559 133.715 3.98592L133.223 4.07658ZM133.625 7.23438C133.625 10.8059 133.36 13.9825 132.833 16.7659L133.324 16.8591C133.859 14.0383 134.125 10.8296 134.125 7.23438H133.625ZM133.078 16.5625C132.851 16.5625 132.727 16.5059 132.657 16.4365C132.588 16.3671 132.531 16.2427 132.531 16.0156H132.031C132.031 16.3198 132.107 16.5938 132.304 16.7901C132.5 16.9863 132.774 17.0625 133.078 17.0625V16.5625ZM132.531 16.0293C132.791 11.2875 132.922 7.4231 132.922 4.4375H132.422C132.422 7.41024 132.292 11.2646 132.032 16.0019L132.531 16.0293ZM132.922 4.4375V4.03125H132.422V4.4375H132.922ZM127.234 4.4375V5.23438H127.734V4.4375H127.234ZM127.277 5.09444C126.345 6.47515 125.644 7.53336 125.176 8.26803C124.942 8.63497 124.765 8.92375 124.645 9.13273C124.586 9.23679 124.538 9.32473 124.505 9.39448C124.489 9.42914 124.474 9.46328 124.463 9.49503C124.454 9.51965 124.438 9.56923 124.438 9.625H124.938C124.938 9.65993 124.928 9.67855 124.934 9.66207C124.937 9.65273 124.944 9.63563 124.957 9.60894C124.982 9.55597 125.022 9.48066 125.079 9.38095C125.193 9.18237 125.365 8.90149 125.598 8.53666C126.062 7.80778 126.76 6.75402 127.692 5.37431L127.277 5.09444ZM124.615 9.8644L128.615 11.0675L128.76 10.5887L124.76 9.3856L124.615 9.8644ZM128.438 10.8281V12.0156H128.938V10.8281H128.438ZM128.738 11.7707C126.814 11.3777 125.381 10.8547 124.42 10.2139L124.143 10.6299C125.181 11.3224 126.686 11.8619 128.637 12.2606L128.738 11.7707ZM124.12 10.2306C123.333 10.894 122.681 11.3856 122.164 11.7101C121.905 11.8723 121.685 11.9898 121.502 12.066C121.315 12.1434 121.182 12.1719 121.094 12.1719V12.6719C121.276 12.6719 121.479 12.617 121.694 12.5277C121.911 12.4373 122.157 12.3047 122.43 12.1336C122.975 11.7915 123.647 11.2831 124.442 10.6131L124.12 10.2306ZM121.344 12.4219V12.0156H120.844V12.4219H121.344ZM121.27 12.1932C122.468 11.0053 124.346 8.45752 126.896 4.57475L126.479 4.30025C123.925 8.18831 122.073 10.6926 120.918 11.8381L121.27 12.1932ZM126.688 4.6875H127.484V4.1875H126.688V4.6875ZM128.438 16.0156C128.438 17.5177 128.813 18.6902 129.608 19.4854C130.404 20.2806 131.576 20.6562 133.078 20.6562V20.1562C131.653 20.1562 130.63 19.8002 129.962 19.1318C129.294 18.4635 128.938 17.4406 128.938 16.0156H128.438ZM133.016 20.6485L134.61 21.0548L134.734 20.5702L133.14 20.164L133.016 20.6485ZM134.422 20.8125V21.6094H134.922V20.8125H134.422ZM134.672 21.3594H134.266V21.8594H134.672V21.3594ZM134.266 21.3594C132.022 21.3594 130.38 21.027 129.307 20.394C128.254 19.7732 127.734 18.856 127.734 17.6094H127.234C127.234 19.0294 127.845 20.1122 129.053 20.8247C130.24 21.5251 131.989 21.8594 134.266 21.8594V21.3594ZM127.719 17.6967C127.913 17.1745 128.102 16.8021 128.282 16.5647C128.465 16.3218 128.602 16.2656 128.688 16.2656V15.7656C128.367 15.7656 128.1 15.9751 127.882 16.2634C127.661 16.5573 127.451 16.9817 127.25 17.5221L127.719 17.6967ZM154.438 1.67188V1.42188H154.188V1.67188H154.438ZM155.234 1.67188L155.481 1.63104L155.446 1.42188H155.234V1.67188ZM156.031 9.25H155.781V9.5H156.031V9.25ZM158.828 9.25H159.078V9H158.828V9.25ZM158.828 10.0469V10.2969H159.078V10.0469H158.828ZM155.641 12.4375L155.886 12.4873L155.891 12.4626V12.4375H155.641ZM155.234 14.4375V14.6875H155.439L155.479 14.4873L155.234 14.4375ZM154.438 14.4375L154.189 14.4122L154.161 14.6875H154.438V14.4375ZM154.844 10.4375L155.092 10.4628L155.12 10.1875H154.844V10.4375ZM154.047 10.4375H153.797V10.6875H154.047V10.4375ZM154.047 9.64062V9.39062H153.797V9.64062H154.047ZM154.844 9.64062V9.89062H155.111L155.093 9.62352L154.844 9.64062ZM145.672 3.65625H145.922V3.18575L145.532 3.44907L145.672 3.65625ZM144.875 4.85938V4.60938H144.547L144.634 4.92552L144.875 4.85938ZM146.062 10.0469H145.812V10.2969H146.062V10.0469ZM149.656 5.26562H149.906V4.97828L149.622 5.01803L149.656 5.26562ZM146.859 5.65625V5.90625H146.877L146.894 5.90385L146.859 5.65625ZM145.672 5.65625H145.422V5.90625H145.672V5.65625ZM145.672 4.85938L145.624 4.61408L145.422 4.65379V4.85938H145.672ZM147.656 4.46875V4.21875H147.632L147.608 4.22346L147.656 4.46875ZM150.453 4.46875L150.695 4.407L150.647 4.21875H150.453V4.46875ZM150.859 6.0625H151.109V6.03114L151.102 6.00075L150.859 6.0625ZM145.266 11.25L145.025 11.3196L145.078 11.5H145.266V11.25ZM144.469 4.46875L144.329 4.26157L144.219 4.33591V4.46875H144.469ZM149.656 14.0312H149.906V13.7812H149.656V14.0312ZM154.438 18.4219V18.6719H154.462L154.485 18.6672L154.438 18.4219ZM156.438 18.0312H156.688V17.7277L156.39 17.7859L156.438 18.0312ZM156.438 18.8281L156.506 19.0686L156.688 19.0168V18.8281H156.438ZM153.641 19.625L153.612 19.8734L153.661 19.879L153.709 19.8654L153.641 19.625ZM148.859 14.8281L148.612 14.7894L148.609 14.8086V14.8281H148.859ZM154.438 1.92188H155.234V1.42188H154.438V1.92188ZM154.988 1.71271C155.518 4.91608 155.781 7.42648 155.781 9.25H156.281C156.281 7.38602 156.013 4.84433 155.481 1.63104L154.988 1.71271ZM156.031 9.5H158.828V9H156.031V9.5ZM158.578 9.25V10.0469H159.078V9.25H158.578ZM158.828 9.79688C157.742 9.79688 156.881 9.99933 156.288 10.4445C155.68 10.8999 155.391 11.5796 155.391 12.4375H155.891C155.891 11.7016 156.132 11.1861 156.587 10.8445C157.056 10.4929 157.79 10.2969 158.828 10.2969V9.79688ZM155.396 12.3877L154.989 14.3877L155.479 14.4873L155.886 12.4873L155.396 12.3877ZM155.234 14.1875H154.438V14.6875H155.234V14.1875ZM154.686 14.4628L155.092 10.4628L154.595 10.4122L154.189 14.4122L154.686 14.4628ZM154.844 10.1875H154.047V10.6875H154.844V10.1875ZM154.297 10.4375V9.64062H153.797V10.4375H154.297ZM154.047 9.89062H154.844V9.39062H154.047V9.89062ZM155.093 9.62352C154.822 5.67439 154.688 3.02654 154.688 1.67188H154.188C154.188 3.04638 154.324 5.71103 154.594 9.65773L155.093 9.62352ZM145.422 3.65625V4.0625H145.922V3.65625H145.422ZM145.422 4.0625C145.422 4.28959 145.365 4.41399 145.296 4.48338C145.226 4.55277 145.102 4.60938 144.875 4.60938V5.10938C145.179 5.10938 145.453 5.03317 145.649 4.83693C145.846 4.6407 145.922 4.36666 145.922 4.0625H145.422ZM144.634 4.92552C145.029 6.36678 145.325 7.51654 145.522 8.3761C145.721 9.24609 145.812 9.7936 145.812 10.0469H146.312C146.312 9.72723 146.206 9.12371 146.009 8.26453C145.81 7.39492 145.512 6.23739 145.116 4.79323L144.634 4.92552ZM146.062 10.2969H146.859V9.79688H146.062V10.2969ZM146.859 10.2969C147.879 10.2969 148.661 9.85225 149.173 8.97779C149.672 8.12401 149.906 6.87556 149.906 5.26562H149.406C149.406 6.84319 149.174 7.98536 148.741 8.72533C148.32 9.44462 147.704 9.79688 146.859 9.79688V10.2969ZM149.622 5.01803L146.825 5.40865L146.894 5.90385L149.691 5.51322L149.622 5.01803ZM146.859 5.40625H145.672V5.90625H146.859V5.40625ZM145.922 5.65625V4.85938H145.422V5.65625H145.922ZM145.72 5.10467L147.705 4.71404L147.608 4.22346L145.624 4.61408L145.72 5.10467ZM147.656 4.71875H150.453V4.21875H147.656V4.71875ZM150.211 4.5305L150.617 6.12425L151.102 6.00075L150.695 4.407L150.211 4.5305ZM150.609 6.0625C150.609 7.76652 150.28 8.99862 149.661 9.80047C149.053 10.59 148.134 11 146.859 11V11.5C148.251 11.5 149.333 11.0454 150.057 10.1058C150.772 9.17846 151.109 7.81682 151.109 6.0625H150.609ZM146.859 11H145.266V11.5H146.859V11ZM145.506 11.1804C144.983 9.37682 144.719 7.14149 144.719 4.46875H144.219C144.219 7.17101 144.486 9.45652 145.025 11.3196L145.506 11.1804ZM144.609 4.67593L145.812 3.86343L145.532 3.44907L144.329 4.26157L144.609 4.67593ZM149.406 14.0312C149.406 15.5333 149.782 16.7058 150.577 17.501C151.372 18.2962 152.545 18.6719 154.047 18.6719V18.1719C152.622 18.1719 151.599 17.8158 150.931 17.1474C150.262 16.4791 149.906 15.4563 149.906 14.0312H149.406ZM154.047 18.6719H154.438V18.1719H154.047V18.6719ZM154.485 18.6672L156.485 18.2766L156.39 17.7859L154.39 18.1765L154.485 18.6672ZM156.188 18.0312V18.8281H156.688V18.0312H156.188ZM156.369 18.5877L153.572 19.3846L153.709 19.8654L156.506 19.0686L156.369 18.5877ZM153.669 19.3766C152.099 19.1971 150.959 18.7823 150.215 18.1598C149.482 17.5461 149.109 16.711 149.109 15.625H148.609C148.609 16.841 149.034 17.8236 149.894 18.5433C150.744 19.2541 151.994 19.6883 153.612 19.8734L153.669 19.3766ZM149.109 15.625V14.8281H148.609V15.625H149.109ZM149.106 14.8669C149.143 14.6318 149.216 14.4896 149.298 14.4072C149.375 14.3302 149.485 14.2812 149.656 14.2812V13.7812C149.38 13.7812 149.133 13.8651 148.944 14.0537C148.761 14.237 148.659 14.4932 148.612 14.7894L149.106 14.8669ZM162.922 2.03125L163.139 1.90656L162.672 1.09552V2.03125H162.922ZM168.516 5.625L168.543 5.87348L168.766 5.84881V5.625H168.516ZM161.328 6.42188V6.67188H161.342L161.356 6.67035L161.328 6.42188ZM160.531 6.42188H160.281V6.67188H160.531V6.42188ZM160.531 5.625L160.486 5.37914L160.281 5.41688V5.625H160.531ZM163.734 5.21875V5.46875H164.183L163.947 5.08716L163.734 5.21875ZM172.516 4.82812V4.57812H172.458L172.406 4.60364L172.516 4.82812ZM172.922 4.82812H173.172V4.57812H172.922V4.82812ZM172.922 13.2188L173.145 13.3323L173.172 13.2788V13.2188H172.922ZM172.516 14.0156L172.293 13.9021L172.108 14.2656H172.516V14.0156ZM172.922 14.4062H172.672V14.8285L173.042 14.6255L172.922 14.4062ZM177.719 13.6094H177.969V13.3594H177.719V13.6094ZM177.719 14.4062L177.752 14.654L177.969 14.6247V14.4062H177.719ZM172.516 15.6094L172.764 15.6367L172.766 15.6231V15.6094H172.516ZM172.125 20V20.25H172.375V20H172.125ZM171.719 20L171.609 20.2245L171.661 20.25H171.719V20ZM170.922 19.6094L170.674 19.5732L170.648 19.7536L170.812 19.8339L170.922 19.6094ZM171.719 5.21875L171.609 4.99427L171.469 5.06288V5.21875H171.719ZM163.734 7.625V7.375H163.673L163.619 7.40315L163.734 7.625ZM168.516 9.625H168.766V9.57185L168.744 9.5233L168.516 9.625ZM168.516 10.4219L168.739 10.5351L168.766 10.4817V10.4219H168.516ZM162.531 11.2188H162.281V11.2522L162.29 11.2845L162.531 11.2188ZM163.328 10.4219H163.078V10.4414L163.081 10.4606L163.328 10.4219ZM165.328 11.2188V11.4688H165.353L165.378 11.4637L165.328 11.2188ZM167.328 10.8125L167.378 11.0575L167.578 11.0168V10.8125H167.328ZM165.719 8.42188H165.469V8.58842L165.622 8.65258L165.719 8.42188ZM165.719 8.01562H165.969V7.70397L165.665 7.77158L165.719 8.01562ZM166.531 14.4062V14.1562H166.455L166.391 14.1991L166.531 14.4062ZM166.922 14.4062H167.172V14.1562H166.922V14.4062ZM166.922 14.8125L167.167 14.8604L167.172 14.8367V14.8125H166.922ZM166.531 16.8125L166.286 16.7646L166.249 16.9526L166.421 17.037L166.531 16.8125ZM167.328 17.2031L167.218 17.4276L167.27 17.4531H167.328V17.2031ZM167.719 17.2031V17.4531H167.736L167.753 17.4507L167.719 17.2031ZM170.516 16.8125H170.766V16.5252L170.481 16.5649L170.516 16.8125ZM161.734 18.8125V19.0626L161.741 19.0624L161.734 18.8125ZM161.328 18.8125H161.078V19.0625H161.328V18.8125ZM165.719 17.2031L165.753 17.4508L165.969 17.4208V17.2031H165.719ZM165.719 16.8125H165.969V16.7477L165.937 16.6911L165.719 16.8125ZM165.328 15.2188L165.188 15.0116L165.078 15.0859V15.2188H165.328ZM162.705 2.15594C163.249 3.1011 163.8 3.82606 164.363 4.31722C164.927 4.80968 165.516 5.07812 166.125 5.07812V4.57812C165.672 4.57812 165.195 4.38042 164.692 3.94059C164.187 3.49946 163.668 2.82599 163.139 1.90656L162.705 2.15594ZM166.125 5.07812C166.915 5.07812 167.48 5.14473 167.839 5.26451C168.205 5.38644 168.266 5.52544 168.266 5.625H168.766C168.766 5.19331 168.428 4.93387 167.997 4.79017C167.56 4.64433 166.929 4.57812 166.125 4.57812V5.07812ZM168.488 5.37652L161.301 6.1734L161.356 6.67035L168.543 5.87348L168.488 5.37652ZM161.328 6.17188H160.531V6.67188H161.328V6.17188ZM160.781 6.42188V5.625H160.281V6.42188H160.781ZM160.577 5.87086C162.044 5.60025 163.092 5.46875 163.734 5.46875V4.96875C163.043 4.96875 161.956 5.10808 160.486 5.37914L160.577 5.87086ZM163.947 5.08716C163.42 4.23551 163.172 3.48445 163.172 2.82812H162.672C162.672 3.6093 162.966 4.45199 163.522 5.35034L163.947 5.08716ZM163.172 2.82812V2.03125H162.672V2.82812H163.172ZM172.516 5.07812H172.922V4.57812H172.516V5.07812ZM172.672 4.82812V13.2188H173.172V4.82812H172.672ZM172.699 13.1052L172.293 13.9021L172.738 14.1292L173.145 13.3323L172.699 13.1052ZM172.516 14.2656C172.615 14.2656 172.643 14.2896 172.647 14.2935C172.649 14.2956 172.672 14.3171 172.672 14.4062H173.172C173.172 14.235 173.127 14.0612 172.994 13.9331C172.862 13.8067 172.687 13.7656 172.516 13.7656V14.2656ZM173.042 14.6255C173.972 14.1154 174.993 13.8594 176.109 13.8594V13.3594C174.913 13.3594 173.809 13.6346 172.802 14.187L173.042 14.6255ZM176.109 13.8594H177.719V13.3594H176.109V13.8594ZM177.469 13.6094V14.4062H177.969V13.6094H177.469ZM177.685 14.1585C175.949 14.3931 174.639 14.6118 173.76 14.815C173.322 14.9162 172.98 15.0161 172.743 15.1165C172.626 15.1661 172.52 15.2217 172.44 15.2867C172.365 15.3468 172.266 15.4536 172.266 15.6094H172.766C172.766 15.6818 172.72 15.7032 172.754 15.6757C172.782 15.6532 172.839 15.619 172.938 15.5769C173.135 15.4937 173.443 15.4015 173.873 15.3022C174.728 15.1043 176.02 14.8881 177.752 14.654L177.685 14.1585ZM172.267 15.582C172.007 17.941 171.875 19.4205 171.875 20H172.375C172.375 19.4545 172.503 18.007 172.764 15.6367L172.267 15.582ZM172.125 19.75H171.719V20.25H172.125V19.75ZM171.829 19.7755L171.032 19.3849L170.812 19.8339L171.609 20.2245L171.829 19.7755ZM171.169 19.6455C171.703 15.9931 171.969 11.1827 171.969 5.21875H171.469C171.469 11.1714 171.203 15.9548 170.674 19.5732L171.169 19.6455ZM171.829 5.44323L172.626 5.05261L172.406 4.60364L171.609 4.99427L171.829 5.44323ZM163.734 7.875H164.531V7.375H163.734V7.875ZM164.531 7.875C166.543 7.875 167.75 8.52025 168.287 9.7267L168.744 9.5233C168.094 8.06308 166.645 7.375 164.531 7.375V7.875ZM168.266 9.625V10.4219H168.766V9.625H168.266ZM168.293 10.3087C167.971 10.9428 167.564 11.4051 167.078 11.7101C166.592 12.0148 166.012 12.1719 165.328 12.1719V12.6719C166.092 12.6719 166.767 12.4956 167.344 12.1336C167.92 11.772 168.383 11.2343 168.739 10.5351L168.293 10.3087ZM165.328 12.1719H164.922V12.6719H165.328V12.1719ZM164.922 12.1719C164.254 12.1719 163.755 12.0738 163.405 11.8978C163.065 11.7265 162.862 11.4802 162.772 11.153L162.29 11.2845C162.42 11.7594 162.724 12.1146 163.181 12.3444C163.628 12.5694 164.214 12.6719 164.922 12.6719V12.1719ZM162.781 11.2188V8.8125H162.281V11.2188H162.781ZM162.781 8.8125C162.781 8.71907 162.831 8.58661 163.008 8.4123C163.183 8.2393 163.459 8.04972 163.85 7.84685L163.619 7.40315C163.208 7.61695 162.882 7.83362 162.656 8.05645C162.432 8.27798 162.281 8.53093 162.281 8.8125H162.781ZM163.078 9.21875V10.4219H163.578V9.21875H163.078ZM163.081 10.4606C163.128 10.7568 163.23 11.013 163.413 11.1963C163.602 11.3849 163.848 11.4688 164.125 11.4688V10.9688C163.954 10.9688 163.844 10.9198 163.767 10.8428C163.684 10.7604 163.612 10.6182 163.575 10.3831L163.081 10.4606ZM164.125 11.4688H165.328V10.9688H164.125V11.4688ZM165.378 11.4637L167.378 11.0575L167.278 10.5675L165.278 10.9738L165.378 11.4637ZM167.578 10.8125C167.578 10.1996 167.434 9.66297 167.133 9.21586C166.832 8.769 166.387 8.42997 165.815 8.19117L165.622 8.65258C166.123 8.8617 166.483 9.14506 166.718 9.49508C166.954 9.84484 167.078 10.2796 167.078 10.8125H167.578ZM165.969 8.42188V8.01562H165.469V8.42188H165.969ZM165.665 7.77158C164.861 7.9501 164.24 8.14421 163.813 8.35872C163.6 8.46589 163.423 8.58479 163.295 8.7205C163.166 8.85863 163.078 9.02594 163.078 9.21875H163.578C163.578 9.18761 163.59 9.13681 163.66 9.0627C163.732 8.98617 163.853 8.89869 164.038 8.80535C164.409 8.61881 164.983 8.43532 165.773 8.25967L165.665 7.77158ZM166.531 14.6562H166.922V14.1562H166.531V14.6562ZM166.672 14.4062V14.8125H167.172V14.4062H166.672ZM166.677 14.7646L166.286 16.7646L166.777 16.8604L167.167 14.8604L166.677 14.7646ZM166.421 17.037L167.218 17.4276L167.438 16.9786L166.641 16.588L166.421 17.037ZM167.328 17.4531H167.719V16.9531H167.328V17.4531ZM167.753 17.4507L170.55 17.0601L170.481 16.5649L167.684 16.9555L167.753 17.4507ZM170.266 16.8125V17.2031H170.766V16.8125H170.266ZM170.266 17.2031C170.266 17.2794 170.205 17.4219 169.856 17.5954C169.521 17.7614 169 17.9143 168.275 18.0471C166.831 18.3117 164.652 18.4845 161.728 18.5626L161.741 19.0624C164.671 18.9842 166.882 18.8107 168.365 18.5389C169.105 18.4034 169.681 18.2405 170.078 18.0433C170.46 17.8535 170.766 17.5852 170.766 17.2031H170.266ZM161.734 18.5625H161.328V19.0625H161.734V18.5625ZM161.578 18.8125C161.578 18.7482 161.611 18.6538 161.761 18.53C161.913 18.4053 162.158 18.2747 162.512 18.1449C163.218 17.886 164.295 17.6532 165.753 17.4508L165.684 16.9555C164.216 17.1593 163.097 17.3978 162.34 17.6754C161.962 17.8138 161.658 17.9677 161.444 18.1438C161.228 18.3208 161.078 18.5435 161.078 18.8125H161.578ZM165.969 17.2031V16.8125H165.469V17.2031H165.969ZM165.937 16.6911C165.7 16.2633 165.578 15.7747 165.578 15.2188H165.078C165.078 15.8503 165.217 16.4242 165.5 16.9339L165.937 16.6911ZM165.468 15.4259L166.671 14.6134L166.391 14.1991L165.188 15.0116L165.468 15.4259Z" fill="#222222"/>
</svg>
