<svg width="146" height="25" viewBox="0 0 146 25" fill="none" xmlns="http://www.w3.org/2000/svg">
<path d="M10.8989 0.75293H12.584C12.7445 0.75293 12.9492 0.957682 13.1982 1.36719V1.82373C13.1982 2.57633 13.1457 3.13802 13.0405 3.50879C13.1457 4.17839 13.1982 4.83968 13.1982 5.49268V7.17773C13.0322 7.58724 12.6753 7.79199 12.1274 7.79199C11.5132 7.79199 11.2061 6.56624 11.2061 4.11475V3.35107L11.3638 2.5874L11.0566 2.43799H10.7495C10.6333 2.43799 10.0716 2.54036 9.06445 2.74512H8.60791C7.7889 2.66764 7.37939 2.31071 7.37939 1.67432C7.37939 1.29248 8.55257 0.985352 10.8989 0.75293ZM5.39551 1.36719C6.00423 1.52767 6.30859 1.83203 6.30859 2.28027C6.82324 5.58952 7.08057 7.52913 7.08057 8.09912C6.70426 8.40348 6.34733 8.55566 6.00977 8.55566C5.30697 8.55566 4.89746 7.12793 4.78125 4.27246L4.32471 3.20166L1.41943 3.50879C0.998861 3.36491 0.691732 3.11035 0.498047 2.74512V2.28027C0.498047 1.8763 2.13053 1.57194 5.39551 1.36719ZM13.0405 8.86279C14.673 9.03988 15.4893 9.39681 15.4893 9.93359C15.4561 10.1715 15.1517 10.5285 14.5762 11.0044C14.0117 10.8993 13.6022 10.8467 13.3477 10.8467C12.6725 10.8467 11.6017 11.0016 10.1353 11.3115V11.9175C10.1353 12.3657 10.2376 12.7752 10.4424 13.146C10.4424 13.2843 10.2376 13.6413 9.82812 14.2168V14.3662H10.293C10.7744 14.3662 11.2835 14.3164 11.8203 14.2168C12.8385 14.3496 13.3477 14.8089 13.3477 15.5947L13.1982 16.3584L13.3477 16.9727C13.3477 17.9909 12.3792 18.5 10.4424 18.5C7.99642 18.7048 6.77344 18.9593 6.77344 19.2637C6.77344 19.8779 6.97542 20.1851 7.37939 20.1851C10.3843 19.8807 12.0168 19.7285 12.2769 19.7285C12.9132 19.9333 13.2702 20.1878 13.3477 20.4922V20.9487C13.3477 21.3029 12.7887 21.5575 11.6709 21.7124C11.5658 21.7124 11.5132 21.6626 11.5132 21.563C9.03402 21.8674 7.19954 22.0195 6.00977 22.0195C5.49512 21.6488 5.03581 20.4258 4.63184 18.3506C4.63184 17.7363 5.3457 17.4292 6.77344 17.4292C7.58691 17.2244 9.11702 16.9699 11.3638 16.6655V16.209C11.2531 16.209 11.0981 16.1564 10.8989 16.0513C8.86247 16.256 6.92562 16.3584 5.08838 16.3584C4.67887 15.9489 4.47412 15.6418 4.47412 15.437C4.47412 14.8283 5.85205 14.5239 8.60791 14.5239C8.78499 14.4188 8.98975 14.3662 9.22217 14.3662C8.72412 13.9014 8.36719 12.9329 8.15137 11.4609H5.39551C4.80339 11.4609 3.98714 11.5135 2.94678 11.6187C2.70882 11.5799 2.35189 11.2728 1.87598 10.6973C1.87598 9.9834 3.45589 9.62646 6.61572 9.62646C8.44189 9.62646 10.5835 9.37191 13.0405 8.86279ZM26.9985 4.23926H27.6128C29.6548 5.36816 30.6758 6.18717 30.6758 6.69629C30.7809 9.14779 30.9857 10.3735 31.29 10.3735C31.9928 10.2739 32.5573 10.2241 32.9834 10.2241C33.5423 10.2241 33.9491 10.5312 34.2036 11.1455C33.9989 11.7542 33.7941 12.0586 33.5894 12.0586H32.8257C31.7023 12.0586 31.1406 12.2135 31.1406 12.5234C31.2402 14.7204 31.29 16.2533 31.29 17.1221C31.0853 17.1221 30.9829 17.2743 30.9829 17.5786H30.2192C29.5054 17.5786 29.1484 15.5339 29.1484 11.4443C28.9714 8.37858 28.714 6.8457 28.3765 6.8457C27.1535 6.13184 26.542 5.41797 26.542 4.7041C26.542 4.55469 26.6942 4.39974 26.9985 4.23926ZM22.707 5.31006C23.4209 5.31006 23.7778 6.07926 23.7778 7.61768C23.9826 9.31104 24.085 10.6392 24.085 11.6021C23.8857 12.0669 23.681 12.3215 23.4707 12.3657C22.4469 12.3657 21.9351 10.985 21.9351 8.22363C21.9351 7.61491 21.7829 7.31055 21.4785 7.31055C19.2871 7.5153 17.959 7.61768 17.4941 7.61768C16.8522 7.61768 16.4925 7.20817 16.415 6.38916C16.415 5.86344 18.5124 5.50374 22.707 5.31006ZM19.3286 10.2241C20.0203 10.2241 20.4824 11.2977 20.7148 13.4448C20.9583 14.1587 21.2129 14.5156 21.4785 14.5156C23.3324 14.3109 24.9178 14.2085 26.2349 14.2085H26.6914C27.2393 14.2085 27.5962 14.4132 27.7622 14.8228V14.9722C27.7622 15.6916 27.1507 16.0513 25.9277 16.0513C23.7031 16.3556 20.6872 16.6102 16.8799 16.8149C16.2214 16.8149 15.8118 16.3556 15.6514 15.437C16.0941 15.0275 16.9131 14.8228 18.1084 14.8228H18.8721C19.0768 14.8228 19.1792 14.6678 19.1792 14.3579C18.8693 13.3618 18.6147 12.2384 18.4155 10.9878C18.5815 10.4787 18.8859 10.2241 19.3286 10.2241ZM25.0063 18.8071H25.3135C27.6654 19.0119 28.8413 20.0356 28.8413 21.8784C28.8413 23.2231 28.0223 24.2441 26.3843 24.9414H25.0063C23.064 24.3548 22.0928 23.5884 22.0928 22.6421C22.4137 20.6942 22.873 19.6732 23.4707 19.5791C23.4707 19.319 23.9826 19.0617 25.0063 18.8071ZM24.085 22.335V22.4927C24.1624 22.797 24.5194 23.0516 25.1558 23.2563C26.3843 22.8413 26.9985 22.3294 26.9985 21.7207C26.9985 20.8021 26.589 20.3428 25.77 20.3428C24.6466 20.3428 24.085 21.0068 24.085 22.335ZM43.8618 5.49268C46.5125 6.01839 47.8379 6.4777 47.8379 6.87061V9.93359L47.6885 11.0044C47.8822 11.104 48.0343 11.1538 48.145 11.1538C49.5672 10.9491 50.4858 10.8467 50.9009 10.8467C51.5096 11.0072 51.814 11.3641 51.814 11.9175V12.0752C51.814 12.4847 50.4388 12.8914 47.6885 13.2954V17.4292C47.6885 17.5786 47.4312 17.7834 46.9165 18.0435C46.0034 17.8387 45.5469 17.3794 45.5469 16.6655V16.5078C45.5469 14.5488 45.5967 11.6436 45.6963 7.79199C44.1357 7.33822 43.2697 6.87891 43.0981 6.41406V5.65039L43.8618 5.49268ZM35.1377 7.17773H35.5942C36.4132 7.17773 36.8228 7.68685 36.8228 8.70508V9.77588L36.665 10.083H36.8228C36.7176 10.2822 36.665 10.4372 36.665 10.5479C36.665 10.8024 36.6152 12.1278 36.5156 14.5239L36.8228 14.6733C39.2244 14.5737 41.0091 14.5239 42.1768 14.5239C42.6416 14.7231 42.8962 14.9279 42.9404 15.1382V15.7441C42.9404 16.2533 41.106 16.5078 37.437 16.5078C37.437 16.613 36.8228 16.7153 35.5942 16.8149C34.9191 16.8149 34.5124 16.1011 34.374 14.6733C34.5788 10.9048 34.6812 8.50863 34.6812 7.48486L35.1377 7.17773ZM54.7402 4.42188C55.4541 4.42188 55.811 5.49268 55.811 7.63428C55.811 7.82243 55.9134 8.23193 56.1182 8.86279C60.0251 8.55843 62.0643 8.40625 62.2358 8.40625C62.4019 8.50586 62.6564 8.55566 62.9995 8.55566L63.9209 8.40625C64.43 8.93197 64.6846 9.38851 64.6846 9.77588C64.4023 10.2905 63.9928 10.5479 63.4561 10.5479C63.2402 10.5479 62.6813 10.4953 61.7793 10.3901C61.3643 10.3901 59.1203 10.5949 55.0474 11.0044C54.3335 10.606 53.9766 9.43278 53.9766 7.48486C53.8714 6.91488 53.8188 5.99626 53.8188 4.729C54.1564 4.52425 54.4635 4.42188 54.7402 4.42188ZM62.8501 11.9175H64.6846C66.5218 12.0226 67.4404 12.3298 67.4404 12.8389V13.2954C67.2744 13.7049 66.9175 13.9097 66.3696 13.9097H64.0703L53.2046 14.5239C52.3911 14.2472 51.9844 13.7381 51.9844 12.9966C51.9844 12.6867 55.6063 12.327 62.8501 11.9175ZM56.8818 15.2876H57.6455C58.2487 15.2876 58.6056 16.8177 58.7163 19.8779C58.8768 20.2874 59.0815 20.4922 59.3306 20.4922C59.8507 20.4922 61.4832 20.4396 64.228 20.3345L64.9917 21.2559V21.563C64.6818 22.0721 64.3249 22.3267 63.9209 22.3267C62.958 22.3267 60.9686 22.429 57.9526 22.6338C56.9344 22.6338 56.4253 20.2874 56.4253 15.5947L56.8818 15.2876ZM83.4863 3.19336H83.644C85.9904 3.625 87.1636 4.08431 87.1636 4.57129V4.7207C87.1636 5.60059 87.111 7.33545 87.0059 9.92529C87.111 12.1167 87.1636 13.6468 87.1636 14.5156C86.9976 15.0247 86.6904 15.2793 86.2422 15.2793C85.6611 15.2793 85.3042 14.7204 85.1714 13.6025V9.46875C85.1714 8.60547 85.224 7.32992 85.3291 5.64209C83.9954 5.0887 83.229 4.57682 83.0298 4.10645V3.6499C83.0298 3.50049 83.182 3.34831 83.4863 3.19336ZM77.9746 3.6499C78.5889 3.79932 78.896 4.20882 78.896 4.87842V5.7915C78.896 6.20101 78.7936 6.86507 78.5889 7.78369C79.6126 8.80192 80.8882 9.82292 82.4155 10.8467C82.6203 11.1787 82.7227 11.4333 82.7227 11.6104C82.5677 12.0199 82.4155 12.2246 82.2661 12.2246H81.959C81.2839 12.2246 79.8561 11.2534 77.6758 9.31104H77.5181C76.8872 9.73714 75.7666 10.606 74.1562 11.9175H73.542C73.2708 11.9175 73.0661 11.5605 72.9277 10.8467C72.9277 10.6309 73.8962 9.76204 75.833 8.24023C76.8568 7.37142 77.3687 6.30062 77.3687 5.02783V4.26416C77.3687 4.15902 77.5706 3.95426 77.9746 3.6499ZM77.2109 14.6733H77.8252C78.2734 14.6733 78.6829 16.1509 79.0537 19.106H79.2031C83.8516 18.8016 86.3003 18.6494 86.5493 18.6494C86.8537 19.0202 87.0059 19.3771 87.0059 19.7202V20.0273C87.0059 20.2044 86.7015 20.459 86.0928 20.791C85.9876 20.791 85.9351 20.7412 85.9351 20.6416C81.3143 21.0456 78.611 21.2476 77.8252 21.2476C77.377 21.2476 77.02 19.2083 76.7544 15.1299C76.7544 14.9805 76.9066 14.8283 77.2109 14.6733ZM98.6812 3.31787C100.596 4.24202 101.667 4.7041 101.894 4.7041C102.303 5.05827 102.508 5.4152 102.508 5.7749V7.76709C102.541 7.97184 102.643 8.07422 102.815 8.07422H104.5C105.319 8.15169 105.729 8.50863 105.729 9.14502C105.574 9.55452 105.421 9.75928 105.272 9.75928H103.122L102.358 9.91699C102.292 13.7962 102.035 15.7358 101.586 15.7358H100.98C100.466 15.5034 100.208 15.0441 100.208 14.3579C100.208 11.7183 100.311 9.93083 100.516 8.99561C100.516 8.89046 100.466 8.83789 100.366 8.83789L100.516 7.76709V6.23145C100.516 6.1263 99.7492 5.66699 98.2163 4.85352L97.9092 4.39697V3.47559L98.6812 3.31787ZM94.3813 5.61719C94.5197 5.61719 94.777 5.87451 95.1533 6.38916C95.1533 6.96468 94.3343 8.49756 92.6963 10.9878L96.3818 13.4365L96.5312 13.7437L96.3818 14.5156H95.6099C95.1063 14.5156 93.7782 13.799 91.6255 12.3657H91.4761C89.9543 13.5942 88.8807 14.2085 88.2554 14.2085C87.8459 14.2085 87.5387 14.0037 87.334 13.5942V13.4365C87.334 12.8555 87.9482 12.3464 89.1768 11.9092C91.4235 9.59603 92.5469 8.06315 92.5469 7.31055H92.3892C92.1125 7.31055 90.9393 7.41292 88.8696 7.61768C88.5985 7.58447 88.3411 7.32715 88.0977 6.8457C88.0977 6.02669 89.6831 5.61719 92.854 5.61719H94.3813ZM99.2871 16.9644C100.007 17.2189 100.366 17.6284 100.366 18.1929V23.4058C100.366 23.9315 100.211 24.2358 99.9014 24.3188H99.1377C98.6286 24.0588 98.374 23.652 98.374 23.0986V19.2637L98.2163 18.9565C96.5285 19.0617 95.2502 19.1143 94.3813 19.1143H91.3184C90.7096 19.1143 90.3001 18.8071 90.0898 18.1929C90.2337 17.6782 90.5934 17.4209 91.1689 17.4209C93.1003 17.4209 95.8063 17.2687 99.2871 16.9644ZM120.396 3.35107C122.333 3.57796 123.302 3.98747 123.302 4.57959V8.09912C123.335 8.30387 123.437 8.40625 123.609 8.40625C123.858 8.40625 124.674 8.2513 126.058 7.94141C126.666 8.20703 126.971 8.56396 126.971 9.01221C126.971 9.54899 125.8 10.0609 123.459 10.5479C123.459 10.6475 123.407 10.6973 123.302 10.6973C123.407 11.0791 123.509 12.3547 123.609 14.5239C123.443 15.033 123.136 15.2876 122.688 15.2876C121.874 15.2876 121.467 13.6053 121.467 10.2407V9.93359C121.467 9.59049 121.415 9.33594 121.31 9.16992L121.467 8.24854V7.33545L121.31 6.41406C121.415 6.23698 121.467 6.03223 121.467 5.7998C121.467 5.55078 120.958 5.24642 119.94 4.88672L119.782 4.11475V3.81592C119.782 3.66097 119.987 3.50602 120.396 3.35107ZM118.255 5.7998C118.642 5.89388 118.947 6.25081 119.168 6.87061C119.068 8.22087 119.019 9.34424 119.019 10.2407C119.019 10.4842 119.068 11.2479 119.168 12.5317C118.797 12.8416 118.44 12.9966 118.097 12.9966C117.898 12.9966 117.798 12.944 117.798 12.8389L116.728 12.9966H113.972L113.05 13.146C111.827 13.146 111.216 12.0226 111.216 9.77588V8.24854C111.216 6.8208 111.523 6.10693 112.137 6.10693C112.469 6.31169 112.774 6.41406 113.05 6.41406C115.358 6.00456 117.093 5.7998 118.255 5.7998ZM113.05 8.70508L113.208 10.5479V11.0044C113.236 11.2091 113.335 11.3115 113.507 11.3115H116.263C116.539 11.3115 116.847 11.2091 117.184 11.0044L117.026 10.2407V8.09912L116.877 7.79199C114.503 8.17383 113.227 8.47819 113.05 8.70508ZM115.806 14.6733H116.57C117.184 14.6733 117.491 15.7967 117.491 18.0435V18.5L117.641 18.8071C118.659 18.7075 119.425 18.6577 119.94 18.6577H121.617C122.131 18.6577 122.488 18.9123 122.688 19.4214V19.8779C122.688 20.387 121.362 20.6416 118.711 20.6416C118.711 20.8464 118.05 20.9487 116.728 20.9487C115.909 20.9487 115.499 19.7257 115.499 17.2798C115.499 17.0308 115.449 16.2643 115.35 14.9805L115.806 14.6733ZM131.574 4.86182H134.022C134.576 4.86182 134.936 5.06657 135.102 5.47607V6.09033C135.102 6.24528 134.897 6.39746 134.487 6.54688L133.417 6.39746C132.714 6.49707 132.152 6.54688 131.731 6.54688C131.195 6.54688 130.735 6.24251 130.354 5.63379V5.32666C130.414 5.01676 130.821 4.86182 131.574 4.86182ZM139.85 5.7832H140.148C142.296 6.01009 143.369 6.36702 143.369 6.854C143.469 10.5783 143.571 12.7752 143.676 13.4448H145.204C145.364 13.4448 145.569 13.6496 145.818 14.0591V14.5156C145.818 14.8255 145.104 15.0801 143.676 15.2793V15.437C143.776 17.3185 143.826 18.9012 143.826 20.1851V20.791C143.826 20.9515 143.624 21.1562 143.22 21.4053C142.401 21.3278 141.991 20.9709 141.991 20.3345C141.786 11.757 141.582 7.46826 141.377 7.46826C140.624 7.46826 140.013 7.11133 139.542 6.39746V6.09033C139.57 5.88558 139.673 5.7832 139.85 5.7832ZM137.243 8.08252C137.857 8.32048 138.165 8.67741 138.165 9.15332C138.165 9.66243 136.734 9.91699 133.873 9.91699H128.361C127.542 9.79525 127.133 9.49089 127.133 9.00391C127.133 8.48926 128.154 8.23193 130.196 8.23193H136.322L137.243 8.08252ZM133.109 11.4526C135.76 11.8511 137.085 12.8195 137.085 14.3579C137.085 15.8133 136.117 16.8869 134.18 17.5786H134.022C134.022 18.8016 134.28 19.4131 134.794 19.4131C136.549 19.3135 137.57 19.2637 137.857 19.2637C138.322 19.4629 138.577 19.6676 138.621 19.8779V20.3345C138.621 20.9598 136.579 21.3167 132.495 21.4053C132.495 21.5104 131.729 21.563 130.196 21.563C129.144 21.563 128.378 21.2061 127.896 20.4922C128.04 19.9775 128.397 19.7202 128.967 19.7202H131.881L132.645 19.5708C132.645 18.0379 132.39 17.2715 131.881 17.2715C130.248 16.7126 129.432 15.7414 129.432 14.3579C129.432 13.1349 129.994 12.5234 131.117 12.5234C131.117 12.0475 131.781 11.6906 133.109 11.4526ZM131.117 14.5156V14.8228C131.117 15.2599 131.626 15.6169 132.645 15.8936H133.566C134.689 15.6611 135.251 15.0994 135.251 14.2085V13.9014C134.891 13.2871 134.432 12.98 133.873 12.98H133.259C132.584 12.98 131.87 13.4919 131.117 14.5156Z" fill="#222222"/>
</svg>
