<svg width="102" height="24" viewBox="0 0 102 24" fill="none" xmlns="http://www.w3.org/2000/svg">
<path d="M7.27441 2.54199L8.31543 3.16406C10.7529 2.88477 12.2256 2.74512 12.7334 2.74512L13.1523 3.37988C13.0085 4.81022 12.9365 5.92741 12.9365 6.73145C12.9365 7.15462 13.0085 7.36621 13.1523 7.36621L12.9365 8.41992V10.9336C12.9365 11.069 12.6572 11.3483 12.0986 11.7715L11.2607 11.3525L11.4639 9.87988V4.63672C11.4639 4.35742 11.3242 4.21777 11.0449 4.21777C8.94596 4.21777 7.89648 4.77637 7.89648 5.89355L7.69336 6.94727C7.82878 7.86979 7.89648 8.77962 7.89648 9.67676V10.5146C7.89648 11.2679 7.61719 11.7588 7.05859 11.9873C6.85547 11.9873 6.64388 11.7757 6.42383 11.3525V4.4209H6.2207C5.03581 4.4209 3.35579 4.63249 1.18066 5.05566L0.761719 4.4209V4.21777C0.761719 3.61686 2.86068 3.12598 7.05859 2.74512C7.05859 2.6097 7.13053 2.54199 7.27441 2.54199ZM14.6123 12.8252C15.1709 12.9606 15.4502 13.2399 15.4502 13.6631L14.8281 14.7168L13.7744 14.501H11.2607C11.1169 15.4997 11.0449 16.0583 11.0449 16.1768L11.4639 16.3926H13.5713C13.8506 16.4349 13.9902 16.5745 13.9902 16.8115V17.6494L13.7744 18.9062L13.9902 19.3252C13.9902 20.6286 12.2383 21.3988 8.73438 21.6357V22.0547H10.207C10.3509 22.0547 10.4229 22.1266 10.4229 22.2705L14.6123 21.6357C14.8831 21.7796 15.0947 21.8516 15.2471 21.8516V22.0547C15.2471 22.901 14.7562 23.3242 13.7744 23.3242C12.0986 23.4258 11.2607 23.5654 11.2607 23.7432C11.1169 23.7432 11.0449 23.6712 11.0449 23.5273L8.53125 23.7432H8.1123C7.58757 23.7432 7.16862 22.973 6.85547 21.4326C6.85547 20.6032 8.32389 20.1123 11.2607 19.96C11.9548 19.6045 12.3018 19.3252 12.3018 19.1221V18.2842L12.0986 17.8652L7.05859 18.7031L6.85547 18.2842V17.4463C8.81055 17.0231 9.78809 16.6719 9.78809 16.3926V14.7168C9.22949 14.7168 8.9502 14.6449 8.9502 14.501C5.33626 15.0596 3.30501 15.3389 2.85645 15.3389C2.57715 15.3389 2.4375 15.1992 2.4375 14.9199V14.7168C2.4375 13.7604 6.49577 13.1299 14.6123 12.8252ZM24.6318 0.43457C25.055 0.578451 25.2666 0.718099 25.2666 0.853516C24.9873 5.29688 24.8477 8.23796 24.8477 9.67676V10.0957C24.8477 10.5612 24.6361 11.0521 24.2129 11.5684C23.2565 11.4245 22.4863 11.3525 21.9023 11.3525C21.2845 11.3525 19.6764 11.5641 17.0781 11.9873C16.5195 11.0479 16.2402 9.2959 16.2402 6.73145L16.4561 5.69043L16.2402 4.21777C16.528 1.97493 17.5098 0.853516 19.1855 0.853516C21.2337 0.718099 23.0492 0.650391 24.6318 0.650391V0.43457ZM27.7803 0.853516H27.9961C28.1061 0.853516 28.3177 1.0651 28.6309 1.48828C28.2077 3.26562 27.9242 5.08529 27.7803 6.94727C29.0413 7.125 29.6719 7.47201 29.6719 7.98828C29.6719 8.55534 29.0413 8.83887 27.7803 8.83887V10.9336C27.7803 11.7715 27.4333 12.1904 26.7393 12.1904L26.3203 11.5684C26.3203 4.42513 26.807 0.853516 27.7803 0.853516ZM17.7129 7.56934C17.7129 8.7627 17.8525 9.67253 18.1318 10.2988C19.9515 10.0195 21.6315 9.87988 23.1719 9.87988V9.67676L24.0098 2.32617L23.5908 2.11035H22.334C19.2533 2.11035 17.7129 2.88053 17.7129 4.4209V7.56934ZM25.2666 12.6094H25.6855V13.6631C27.6491 15.3135 28.6309 16.2233 28.6309 16.3926C28.3516 17.1458 28.0003 17.5648 27.5771 17.6494C25.7575 15.8467 24.8477 14.8691 24.8477 14.7168H24.6318C24.1748 14.9284 23.6882 15.9059 23.1719 17.6494L22.5371 18.0684C22.334 18.0684 22.1224 17.861 21.9023 17.4463V17.0146C22.901 14.0778 24.0225 12.6094 25.2666 12.6094ZM43.4492 2.35156H43.8682C44.1475 2.39388 44.2871 2.53353 44.2871 2.77051C43.7285 5.65658 43.4492 7.4043 43.4492 8.01367V12C43.4492 12.3132 43.5169 12.5924 43.6523 12.8379C43.5677 13.5319 43.1488 13.8789 42.3955 13.8789L41.9766 13.2568V10.9463C41.9766 10.0745 42.1882 7.48893 42.6113 3.18945C42.6113 2.9694 42.8906 2.6901 43.4492 2.35156ZM36.5303 2.98633C38.3923 2.98633 39.7887 4.66211 40.7197 8.01367C40.7197 9.92643 39.8818 11.6022 38.2061 13.041C37.1481 13.5996 36.3102 13.9508 35.6924 14.0947C32.7555 13.5107 31.2871 12.6729 31.2871 11.5811C30.8724 11.5811 30.5931 10.5993 30.4492 8.63574V8.2168C30.4492 5.67773 32.2646 3.93424 35.8955 2.98633H36.5303ZM31.7061 8.2168C31.9515 11.0182 33.2083 12.4189 35.4766 12.4189H35.6924C37.639 12.4189 38.8281 10.8786 39.2598 7.79785C38.5911 5.56348 37.4697 4.44629 35.8955 4.44629C34.2197 4.44629 32.8232 5.70312 31.7061 8.2168ZM56.8076 5.06836H57.8613C57.8613 5.21224 57.9333 5.4196 58.0771 5.69043C57.9333 6.65527 57.8613 7.42546 57.8613 8.00098L58.0771 9.25781C57.9333 9.49479 57.8613 9.84603 57.8613 10.3115L58.2803 10.5146H60.375C60.6543 10.5654 60.7939 10.7093 60.7939 10.9463L60.5908 11.9873H59.1182L58.0771 12.2031V13.041C58.0771 13.4557 58.0052 13.6631 57.8613 13.6631L58.0771 14.7168V16.8115C58.0771 17.0316 57.7936 17.3109 57.2266 17.6494C57.0319 17.6494 56.8245 17.4421 56.6045 17.0273V12.8252C56.6045 12.055 56.5326 11.0775 56.3887 9.89258L56.6045 9.47363L56.3887 8.2168V8.00098C56.3887 7.09538 56.5283 6.11784 56.8076 5.06836ZM46.5371 5.69043C47.5273 5.83431 48.0859 5.90625 48.2129 5.90625L49.4697 5.69043V5.90625L49.8887 5.69043H54.0908C54.0908 5.96973 54.1585 6.10938 54.2939 6.10938C53.9639 7.09115 53.6846 7.58203 53.4561 7.58203C53.3376 7.58203 52.779 7.44238 51.7803 7.16309C51.2979 7.16309 49.8294 7.23503 47.375 7.37891V7.58203C47.375 8.00521 47.3031 8.49609 47.1592 9.05469C47.3031 11.526 47.6543 13.4811 48.2129 14.9199H50.7266C51.429 14.9199 52.4785 14.8522 53.875 14.7168L54.2939 15.3516V15.5547C54.0062 16.1133 53.6549 16.3926 53.2402 16.3926C50.9043 16.3926 49.0169 16.5322 47.5781 16.8115C46.6048 16.3883 46.1182 14.6406 46.1182 11.5684C45.8643 11.5684 45.7246 10.7305 45.6992 9.05469V7.58203C45.276 7.04036 45.0645 6.62142 45.0645 6.3252C45.6823 5.90202 46.1732 5.69043 46.5371 5.69043ZM63.6787 4.66211L63.8945 5.08105C63.8945 5.60579 63.6152 7.07422 63.0566 9.48633C63.0566 9.62174 63.1243 9.68945 63.2598 9.68945L63.0566 11.1621V12.8379L63.2598 14.0947C63.1667 14.4671 62.8197 14.8141 62.2188 15.1357C62.0156 15.1357 61.804 14.9284 61.584 14.5137C61.584 7.94596 62.2145 4.66211 63.4756 4.66211H63.6787ZM62.4219 16.8115H62.8408C63.1201 16.8623 63.2598 17.0062 63.2598 17.2432V17.8652C63.2598 17.9753 63.0524 18.1868 62.6377 18.5C62.2145 18.3984 61.9352 18.1191 61.7998 17.6621C62.0029 17.0951 62.2103 16.8115 62.4219 16.8115ZM82.7021 2.5293H83.1338L83.5527 2.74512C83.4089 4.63249 83.3369 6.0332 83.3369 6.94727V8.2041C83.3792 8.4834 83.5189 8.62305 83.7559 8.62305H83.9717L85.0127 8.40723C85.292 8.75423 85.4316 9.03776 85.4316 9.25781C85.4316 9.81641 84.7334 10.1634 83.3369 10.2988L83.5527 11.3525V12.6094L82.918 13.4473C82.3594 13.3118 82.0801 12.8929 82.0801 12.1904V6.3125C82.0801 5.81315 82.0081 5.18262 81.8643 4.4209C82.0674 3.15983 82.3467 2.5293 82.7021 2.5293ZM72 2.96094H72.4189C72.6982 2.96094 72.8379 3.24023 72.8379 3.79883L80.1885 2.96094C80.2308 3.24023 80.3704 3.37988 80.6074 3.37988C80.3281 4.77637 80.1885 6.0332 80.1885 7.15039V10.9336C80.1885 12.0085 79.9092 12.639 79.3506 12.8252C78.1064 12.6813 77.3363 12.6094 77.04 12.6094C74.5771 12.8887 73.0368 13.168 72.4189 13.4473C71.5811 13.4473 71.1621 11.5599 71.1621 7.78516V5.05566C71.3314 3.65918 71.6107 2.96094 72 2.96094ZM74.1074 5.47461C73.972 5.47461 73.5488 5.19531 72.8379 4.63672H72.6348C72.4909 5.86393 72.4189 6.56217 72.4189 6.73145C72.5628 9.18587 72.6348 10.7262 72.6348 11.3525C72.9056 11.4964 73.113 11.5684 73.2568 11.5684C76.7607 11.3145 78.5127 10.9632 78.5127 10.5146C78.6481 10.5146 78.7878 8.55534 78.9316 4.63672L78.5127 4.4209C75.5758 4.7002 74.1074 5.05143 74.1074 5.47461ZM77.6748 13.4473H78.2969C78.5762 13.498 78.7158 13.6377 78.7158 13.8662C78.7158 14.2217 78.6481 14.7845 78.5127 15.5547C78.6143 17.2305 78.8216 18.0684 79.1348 18.0684C80.2266 18.0684 81.8389 17.7891 83.9717 17.2305C84.014 17.5098 84.1536 17.6494 84.3906 17.6494C84.3906 18.6312 83.8997 19.1221 82.918 19.1221C82.3763 19.1221 80.7682 19.4014 78.0938 19.96C77.5352 19.8161 77.2559 19.3971 77.2559 18.7031V14.9199L77.6748 13.4473ZM91.249 1.91992H91.668C91.668 2.19922 91.7357 2.33887 91.8711 2.33887L91.668 3.39258V5.06836C91.7103 5.34766 91.8499 5.4873 92.0869 5.4873H92.9248C93.6611 5.4873 94.8503 5.41536 96.4922 5.27148C96.4922 5.55078 96.5599 5.69043 96.6953 5.69043C96.6953 5.82585 96.416 6.24902 95.8574 6.95996C95.7559 6.95996 95.3369 6.88802 94.6006 6.74414C93.1195 6.74414 90.3942 7.09538 86.4248 7.79785L86.209 7.37891V6.95996C86.209 6.54525 87.5378 6.05436 90.1953 5.4873V3.5957C90.1953 2.83398 90.5465 2.27539 91.249 1.91992ZM98.5869 7.37891C99.0101 7.51432 99.2217 7.65397 99.2217 7.79785C98.9339 9.99837 98.79 11.4668 98.79 12.2031V12.4062L99.0059 12.8252C99.7168 12.5459 100.208 12.4062 100.479 12.4062C101.037 12.5501 101.316 12.9014 101.316 13.46C101.173 13.7308 101.101 13.9382 101.101 14.082H100.479C99.446 14.082 98.8831 14.2936 98.79 14.7168V17.4463C98.79 18.1403 98.5107 18.5592 97.9521 18.7031L97.3301 17.8652V14.2979C97.3301 9.68522 97.749 7.37891 98.5869 7.37891ZM92.0869 7.79785C94.3805 8.55957 95.6374 9.18587 95.8574 9.67676V10.3115C95.8574 11.2171 94.8799 12.474 92.9248 14.082C93.3395 14.082 93.5469 14.2217 93.5469 14.501L93.3438 16.3926C93.4792 16.3926 93.5469 16.4645 93.5469 16.6084C94.1816 16.3291 95.0915 16.1895 96.2764 16.1895L96.6953 16.8115V17.2305C96.6953 17.5521 94.5286 18.1107 90.1953 18.9062L89.7764 18.2842V18.0684C89.7933 17.7637 90.4915 17.3447 91.8711 16.8115C91.8711 16.583 91.943 15.7451 92.0869 14.2979H91.8711C91.0078 14.5771 90.4492 14.7168 90.1953 14.7168C89.0781 14.7168 88.3799 13.9466 88.1006 12.4062C88.1006 10.3581 89.4294 8.82194 92.0869 7.79785ZM89.5605 12.4062C89.7044 12.8633 89.9837 13.1426 90.3984 13.2441C91.6257 13.2441 92.9544 12.4062 94.3848 10.7305V10.3115C94.3848 9.96452 94.1055 9.75293 93.5469 9.67676C93.1829 9.67676 92.6963 9.88835 92.0869 10.3115H91.668C91.668 9.88835 91.5283 9.67676 91.249 9.67676H91.0332C90.0514 10.3369 89.5605 11.2467 89.5605 12.4062Z" fill="#222222"/>
</svg>
