<svg width="177" height="24" viewBox="0 0 177 24" fill="none" xmlns="http://www.w3.org/2000/svg">
<path d="M10.8989 0.75293H12.584C12.7445 0.75293 12.9492 0.957682 13.1982 1.36719V1.82373C13.1982 2.57633 13.1457 3.13802 13.0405 3.50879C13.1457 4.17839 13.1982 4.83968 13.1982 5.49268V7.17773C13.0322 7.58724 12.6753 7.79199 12.1274 7.79199C11.5132 7.79199 11.2061 6.56624 11.2061 4.11475V3.35107L11.3638 2.5874L11.0566 2.43799H10.7495C10.6333 2.43799 10.0716 2.54036 9.06445 2.74512H8.60791C7.7889 2.66764 7.37939 2.31071 7.37939 1.67432C7.37939 1.29248 8.55257 0.985352 10.8989 0.75293ZM5.39551 1.36719C6.00423 1.52767 6.30859 1.83203 6.30859 2.28027C6.82324 5.58952 7.08057 7.52913 7.08057 8.09912C6.70426 8.40348 6.34733 8.55566 6.00977 8.55566C5.30697 8.55566 4.89746 7.12793 4.78125 4.27246L4.32471 3.20166L1.41943 3.50879C0.998861 3.36491 0.691732 3.11035 0.498047 2.74512V2.28027C0.498047 1.8763 2.13053 1.57194 5.39551 1.36719ZM13.0405 8.86279C14.673 9.03988 15.4893 9.39681 15.4893 9.93359C15.4561 10.1715 15.1517 10.5285 14.5762 11.0044C14.0117 10.8993 13.6022 10.8467 13.3477 10.8467C12.6725 10.8467 11.6017 11.0016 10.1353 11.3115V11.9175C10.1353 12.3657 10.2376 12.7752 10.4424 13.146C10.4424 13.2843 10.2376 13.6413 9.82812 14.2168V14.3662H10.293C10.7744 14.3662 11.2835 14.3164 11.8203 14.2168C12.8385 14.3496 13.3477 14.8089 13.3477 15.5947L13.1982 16.3584L13.3477 16.9727C13.3477 17.9909 12.3792 18.5 10.4424 18.5C7.99642 18.7048 6.77344 18.9593 6.77344 19.2637C6.77344 19.8779 6.97542 20.1851 7.37939 20.1851C10.3843 19.8807 12.0168 19.7285 12.2769 19.7285C12.9132 19.9333 13.2702 20.1878 13.3477 20.4922V20.9487C13.3477 21.3029 12.7887 21.5575 11.6709 21.7124C11.5658 21.7124 11.5132 21.6626 11.5132 21.563C9.03402 21.8674 7.19954 22.0195 6.00977 22.0195C5.49512 21.6488 5.03581 20.4258 4.63184 18.3506C4.63184 17.7363 5.3457 17.4292 6.77344 17.4292C7.58691 17.2244 9.11702 16.9699 11.3638 16.6655V16.209C11.2531 16.209 11.0981 16.1564 10.8989 16.0513C8.86247 16.256 6.92562 16.3584 5.08838 16.3584C4.67887 15.9489 4.47412 15.6418 4.47412 15.437C4.47412 14.8283 5.85205 14.5239 8.60791 14.5239C8.78499 14.4188 8.98975 14.3662 9.22217 14.3662C8.72412 13.9014 8.36719 12.9329 8.15137 11.4609H5.39551C4.80339 11.4609 3.98714 11.5135 2.94678 11.6187C2.70882 11.5799 2.35189 11.2728 1.87598 10.6973C1.87598 9.9834 3.45589 9.62646 6.61572 9.62646C8.44189 9.62646 10.5835 9.37191 13.0405 8.86279ZM29.5718 2.43799C31.3094 3.71631 32.1782 4.68473 32.1782 5.34326V6.26465C32.1782 6.97852 32.1257 7.38525 32.0205 7.48486C32.1257 8.18213 32.1782 8.74382 32.1782 9.16992V13.6025C32.1782 13.7077 32.1257 13.7603 32.0205 13.7603C32.0205 13.8599 32.0731 13.9097 32.1782 13.9097C32.1782 17.0695 31.6663 18.6494 30.6426 18.6494C30.0339 18.4281 29.7295 18.1237 29.7295 17.7363C30.0339 16.8564 30.186 15.5311 30.186 13.7603V12.3823H27.4302C27.1258 12.3823 26.9736 13.3009 26.9736 15.1382V16.3584C26.9736 16.9727 26.6665 17.2798 26.0522 17.2798H25.9028C25.2886 16.9976 24.9814 16.3335 24.9814 15.2876C25.1862 13.5555 25.2886 11.7708 25.2886 9.93359V8.40625C25.2886 6.15951 24.9316 5.03613 24.2178 5.03613C23.5039 4.33333 23.147 3.77165 23.147 3.35107L23.3047 2.74512H23.6035C24.1956 2.74512 25.319 3.55859 26.9736 5.18555C26.9736 5.77767 27.0234 6.59391 27.123 7.63428C27.123 7.73942 27.0732 7.79199 26.9736 7.79199L27.2808 10.5479H29.4224L30.186 10.6973V6.41406C30.186 6.18164 30.2358 5.97689 30.3354 5.7998C30.3354 5.57845 29.8263 4.81478 28.8081 3.50879C28.7085 3.30957 28.6587 3.15462 28.6587 3.04395C28.7583 2.63997 29.0627 2.43799 29.5718 2.43799ZM16.1079 5.95752H16.415C17.3337 5.95752 17.793 8.30387 17.793 12.9966C17.8926 12.9966 17.9424 13.0464 17.9424 13.146C19.1432 13.0464 20.012 12.9966 20.5488 12.9966H21.6196C22.5382 12.9966 22.9976 13.3535 22.9976 14.0674V14.2168C22.9976 14.499 22.4857 14.7536 21.4619 14.9805L21.1631 14.8311C18.5566 15.1354 17.0265 15.2876 16.5728 15.2876C16.2352 14.7785 16.0304 14.5239 15.9585 14.5239C16.0581 13.6219 16.1079 13.0602 16.1079 12.8389C15.8035 8.85449 15.6514 6.66309 15.6514 6.26465L16.1079 5.95752ZM42.1519 2.88623H42.4507C45.0073 3.87126 46.2856 4.7373 46.2856 5.48438V9.61816L46.4351 10.3818H50.5688C51.078 10.5866 51.3325 10.9463 51.3325 11.4609C51.3325 11.721 51.0282 12.0254 50.4194 12.374L49.6475 12.2246C47.5059 12.2246 46.4351 12.3768 46.4351 12.6812C46.3354 15.6196 46.2856 17.5094 46.2856 18.3506C46.3853 19.0755 46.4351 19.4823 46.4351 19.5708C46.2967 19.9914 46.0422 20.2985 45.6714 20.4922H45.5137C44.7002 20.4922 44.2935 19.8281 44.2935 18.5C44.2935 17.681 44.3433 16.2007 44.4429 14.0591C44.3433 10.8993 44.2935 8.19596 44.2935 5.94922C42.4562 5.04167 41.5376 4.17285 41.5376 3.34277L42.1519 2.88623ZM33.4194 7.32715H34.4902C35.6634 7.32715 37.4508 7.37695 39.8525 7.47656C40.262 7.96908 40.4668 8.37858 40.4668 8.70508C39.7751 10.7581 39.2632 13.1571 38.9312 15.9019C38.5936 17.2244 38.1868 17.8857 37.7109 17.8857C36.9915 17.5869 36.6318 17.1276 36.6318 16.5078C37.0413 15.069 37.5532 12.6701 38.1675 9.31104L37.8604 9.16162H36.4824C35.9954 9.16162 35.4863 9.10905 34.9551 9.00391C34.5732 9.10905 34.1139 9.16162 33.5771 9.16162C32.7581 9.08415 32.3486 8.67464 32.3486 7.93311C32.5146 7.52913 32.8716 7.32715 33.4194 7.32715ZM64.3403 3.16846H64.4897C65.104 3.23486 65.4111 3.38704 65.4111 3.625V4.08984L64.9546 5.61719C68.4299 7.29948 70.1675 8.22087 70.1675 8.38135C70.2671 8.58057 70.3169 8.73275 70.3169 8.83789C70.173 9.35254 69.8161 9.60986 69.2461 9.60986C66.6064 8.2762 64.9186 7.35482 64.1826 6.8457H64.0332C64.0332 7.59277 62.8573 8.56396 60.5054 9.75928H60.356C59.7417 9.75928 59.4346 9.45215 59.4346 8.83789C59.7002 8.42839 60.4141 7.91927 61.5762 7.31055C62.8766 5.94368 63.6956 4.61279 64.0332 3.31787L64.3403 3.16846ZM65.104 9.60986H65.876C66.0199 9.60986 66.172 9.76204 66.3325 10.0664V12.0586C66.3657 12.2633 66.4681 12.3657 66.6396 12.3657C70.4193 12.3657 72.3091 12.6729 72.3091 13.2871V13.7437C72.1431 14.1532 71.7861 14.3579 71.2383 14.3579H68.7812C68.5544 14.3579 68.3524 14.3081 68.1753 14.2085C67.9927 14.3081 67.7879 14.3579 67.561 14.3579C67.3286 14.3579 67.1239 14.3081 66.9468 14.2085L66.0254 14.3579H65.876C65.7708 14.3579 65.7183 14.3081 65.7183 14.2085C65.1925 14.4132 64.0166 14.5156 62.1904 14.5156H58.2061C57.6969 14.5156 57.2376 14.2085 56.8281 13.5942C56.8281 13.0796 57.7993 12.8223 59.7417 12.8223C60.2785 12.7227 61.709 12.6729 64.0332 12.6729C64.4427 12.6729 64.6475 11.9064 64.6475 10.3735C64.7747 9.86442 64.9269 9.60986 65.104 9.60986ZM62.6553 15.7358C62.9928 15.7358 63.2474 15.7884 63.4189 15.8936C63.9723 15.7884 64.4316 15.7358 64.7969 15.7358H67.4033C68.4271 15.8631 68.939 16.0679 68.939 16.3501C68.8338 17.7391 68.7812 18.7103 68.7812 19.2637L68.1753 19.8779H66.7891C64.238 20.0107 62.9624 20.2155 62.9624 20.4922V20.9487L63.1118 21.2559L68.939 20.4922C69.758 20.7633 70.1675 21.0179 70.1675 21.2559V21.563C70.1675 22.1053 68.4299 22.4622 64.9546 22.6338C64.9546 22.7389 64.0332 22.8939 62.1904 23.0986C61.377 23.0986 60.9702 21.9725 60.9702 19.7202C60.9702 18.9787 62.4505 18.5719 65.4111 18.5C66.4349 18.3229 66.9468 18.1182 66.9468 17.8857C66.9468 17.7363 66.6895 17.5814 66.1748 17.4209L65.104 17.5786H62.8047C61.9691 17.5786 61.4074 17.2217 61.1196 16.5078C61.2746 15.9932 61.7865 15.7358 62.6553 15.7358ZM79.9917 3.16846H80.1411C80.7554 3.23486 81.0625 3.38704 81.0625 3.625V4.08984L80.606 5.61719C84.0812 7.29948 85.8188 8.22087 85.8188 8.38135C85.9185 8.58057 85.9683 8.73275 85.9683 8.83789C85.8244 9.35254 85.4674 9.60986 84.8975 9.60986C82.2578 8.2762 80.57 7.35482 79.834 6.8457H79.6846C79.6846 7.59277 78.5086 8.56396 76.1567 9.75928H76.0073C75.3931 9.75928 75.0859 9.45215 75.0859 8.83789C75.3516 8.42839 76.0654 7.91927 77.2275 7.31055C78.528 5.94368 79.347 4.61279 79.6846 3.31787L79.9917 3.16846ZM80.7554 9.60986H81.5273C81.6712 9.60986 81.8234 9.76204 81.9839 10.0664V12.0586C82.0171 12.2633 82.1195 12.3657 82.291 12.3657C86.0706 12.3657 87.9604 12.6729 87.9604 13.2871V13.7437C87.7944 14.1532 87.4375 14.3579 86.8896 14.3579H84.4326C84.2057 14.3579 84.0037 14.3081 83.8267 14.2085C83.644 14.3081 83.4393 14.3579 83.2124 14.3579C82.98 14.3579 82.7752 14.3081 82.5981 14.2085L81.6768 14.3579H81.5273C81.4222 14.3579 81.3696 14.3081 81.3696 14.2085C80.8439 14.4132 79.668 14.5156 77.8418 14.5156H73.8574C73.3483 14.5156 72.889 14.2085 72.4795 13.5942C72.4795 13.0796 73.4507 12.8223 75.3931 12.8223C75.9299 12.7227 77.3604 12.6729 79.6846 12.6729C80.0941 12.6729 80.2988 11.9064 80.2988 10.3735C80.4261 9.86442 80.5783 9.60986 80.7554 9.60986ZM78.3066 15.7358C78.6442 15.7358 78.8988 15.7884 79.0703 15.8936C79.6237 15.7884 80.083 15.7358 80.4482 15.7358H83.0547C84.0785 15.8631 84.5903 16.0679 84.5903 16.3501C84.4852 17.7391 84.4326 18.7103 84.4326 19.2637L83.8267 19.8779H82.4404C79.8893 20.0107 78.6138 20.2155 78.6138 20.4922V20.9487L78.7632 21.2559L84.5903 20.4922C85.4093 20.7633 85.8188 21.0179 85.8188 21.2559V21.563C85.8188 22.1053 84.0812 22.4622 80.606 22.6338C80.606 22.7389 79.6846 22.8939 77.8418 23.0986C77.0283 23.0986 76.6216 21.9725 76.6216 19.7202C76.6216 18.9787 78.1019 18.5719 81.0625 18.5C82.0863 18.3229 82.5981 18.1182 82.5981 17.8857C82.5981 17.7363 82.3408 17.5814 81.8262 17.4209L80.7554 17.5786H78.4561C77.6204 17.5786 77.0588 17.2217 76.771 16.5078C76.9259 15.9932 77.4378 15.7358 78.3066 15.7358ZM91.6504 9.77588C94.1019 10.0194 95.3276 10.8356 95.3276 12.2246C95.3276 14.7812 96.0913 16.209 97.6187 16.5078C99.0464 16.0374 99.7603 15.271 99.7603 14.2085C99.965 13.3065 100.067 12.695 100.067 12.374C100.067 12.2633 100.018 12.1112 99.918 11.9175L100.067 11.6104C99.9678 11.4111 99.918 11.259 99.918 11.1538C100.09 10.6392 100.344 10.3818 100.682 10.3818C101.218 10.3818 101.526 10.9435 101.603 12.0669C101.603 14.7287 100.939 16.5161 99.6108 17.4292C98.7199 17.8332 98.1582 18.0352 97.9258 18.0352H97.6187C95.9972 18.0352 94.8766 17.1691 94.2568 15.437C94.0078 12.7808 93.4461 11.4526 92.5718 11.4526C92.4002 11.353 92.1457 11.3032 91.8081 11.3032C90.3748 11.5024 89.6582 12.4211 89.6582 14.0591C89.6582 14.1698 89.8132 14.6291 90.123 15.437C90.0179 15.769 89.8132 15.9738 89.5088 16.0513C88.8558 16.0513 88.3965 15.1825 88.1309 13.4448C88.1309 11.8787 89.0993 10.7056 91.0361 9.92529C91.2686 9.92529 91.4733 9.87549 91.6504 9.77588ZM110.469 3.93213H111.241C111.778 3.93213 112.082 5.21045 112.154 7.76709C112.259 7.76709 112.312 7.81966 112.312 7.9248L113.075 7.76709H113.847C114.002 7.76709 114.204 7.97184 114.453 8.38135V8.83789C114.453 9.10905 114.096 9.92806 113.382 11.2949C115.618 12.446 116.794 13.1598 116.91 13.4365V14.0508C116.805 14.3607 116.498 14.5156 115.989 14.5156C113.814 13.3867 112.638 12.8223 112.461 12.8223C110.69 14.9694 109.464 16.043 108.784 16.043C108.275 16.043 108.02 15.7358 108.02 15.1216C108.02 14.8117 108.939 13.7907 110.776 12.0586C111.39 10.8633 111.697 10.1992 111.697 10.0664H111.548C110.004 10.2712 108.775 10.3735 107.862 10.3735C107.353 9.9751 107.099 9.56559 107.099 9.14502C107.099 8.78532 108.172 8.48096 110.319 8.23193V8.07422C110.214 6.23145 110.112 5.10807 110.012 4.7041C110.145 4.18945 110.297 3.93213 110.469 3.93213ZM118.745 5.62549H119.052L121.816 7.9248C122.021 7.9248 122.123 8.17936 122.123 8.68848V11.2949C122.123 11.887 122.173 12.7033 122.272 13.7437C122.173 13.8765 122.123 14.2362 122.123 14.8228C122.223 14.8228 122.272 14.8726 122.272 14.9722H122.123C122.123 15.0718 122.173 15.1216 122.272 15.1216C122.173 17.0142 122.123 18.3949 122.123 19.2637V21.2559C122.123 21.4053 121.866 21.61 121.351 21.8701C120.538 21.8701 120.131 21.1037 120.131 19.5708C120.23 17.717 120.28 16.4912 120.28 15.8936C120.28 15.473 120.23 13.0713 120.131 8.68848C118.803 7.81966 118.139 6.95085 118.139 6.08203L118.745 5.62549ZM112.312 15.2793C113.025 15.2793 113.435 16.4552 113.54 18.8071H113.689C115.184 18.6024 116.003 18.5 116.146 18.5H117.524C117.624 18.5 117.674 18.4474 117.674 18.3423C118.31 18.5526 118.667 18.8099 118.745 19.1143V19.5708C118.745 20.0135 117.01 20.423 113.54 20.7993C112.776 21.1037 111.445 21.2559 109.547 21.2559H109.398C108.789 21.2559 108.38 20.9487 108.169 20.3345C108.169 19.7756 109.296 19.4186 111.548 19.2637V19.1143C111.443 17.3213 111.39 16.2477 111.39 15.8936C111.495 15.484 111.802 15.2793 112.312 15.2793ZM132.993 3.19336H133.151C135.497 3.625 136.67 4.08431 136.67 4.57129V4.7207C136.67 5.60059 136.618 7.33545 136.513 9.92529C136.618 12.1167 136.67 13.6468 136.67 14.5156C136.504 15.0247 136.197 15.2793 135.749 15.2793C135.168 15.2793 134.811 14.7204 134.678 13.6025V9.46875C134.678 8.60547 134.731 7.32992 134.836 5.64209C133.502 5.0887 132.736 4.57682 132.537 4.10645V3.6499C132.537 3.50049 132.689 3.34831 132.993 3.19336ZM127.481 3.6499C128.096 3.79932 128.403 4.20882 128.403 4.87842V5.7915C128.403 6.20101 128.3 6.86507 128.096 7.78369C129.119 8.80192 130.395 9.82292 131.922 10.8467C132.127 11.1787 132.229 11.4333 132.229 11.6104C132.075 12.0199 131.922 12.2246 131.773 12.2246H131.466C130.791 12.2246 129.363 11.2534 127.183 9.31104H127.025C126.394 9.73714 125.273 10.606 123.663 11.9175H123.049C122.778 11.9175 122.573 11.5605 122.435 10.8467C122.435 10.6309 123.403 9.76204 125.34 8.24023C126.364 7.37142 126.875 6.30062 126.875 5.02783V4.26416C126.875 4.15902 127.077 3.95426 127.481 3.6499ZM126.718 14.6733H127.332C127.78 14.6733 128.19 16.1509 128.561 19.106H128.71C133.358 18.8016 135.807 18.6494 136.056 18.6494C136.361 19.0202 136.513 19.3771 136.513 19.7202V20.0273C136.513 20.2044 136.208 20.459 135.6 20.791C135.494 20.791 135.442 20.7412 135.442 20.6416C130.821 21.0456 128.118 21.2476 127.332 21.2476C126.884 21.2476 126.527 19.2083 126.261 15.1299C126.261 14.9805 126.413 14.8283 126.718 14.6733ZM151.347 3.35107C153.284 3.57796 154.252 3.98747 154.252 4.57959V8.09912C154.285 8.30387 154.388 8.40625 154.559 8.40625C154.808 8.40625 155.624 8.2513 157.008 7.94141C157.617 8.20703 157.921 8.56396 157.921 9.01221C157.921 9.54899 156.75 10.0609 154.41 10.5479C154.41 10.6475 154.357 10.6973 154.252 10.6973C154.357 11.0791 154.459 12.3547 154.559 14.5239C154.393 15.033 154.086 15.2876 153.638 15.2876C152.824 15.2876 152.417 13.6053 152.417 10.2407V9.93359C152.417 9.59049 152.365 9.33594 152.26 9.16992L152.417 8.24854V7.33545L152.26 6.41406C152.365 6.23698 152.417 6.03223 152.417 5.7998C152.417 5.55078 151.908 5.24642 150.89 4.88672L150.732 4.11475V3.81592C150.732 3.66097 150.937 3.50602 151.347 3.35107ZM149.205 5.7998C149.592 5.89388 149.897 6.25081 150.118 6.87061C150.019 8.22087 149.969 9.34424 149.969 10.2407C149.969 10.4842 150.019 11.2479 150.118 12.5317C149.747 12.8416 149.39 12.9966 149.047 12.9966C148.848 12.9966 148.749 12.944 148.749 12.8389L147.678 12.9966H144.922L144 13.146C142.778 13.146 142.166 12.0226 142.166 9.77588V8.24854C142.166 6.8208 142.473 6.10693 143.087 6.10693C143.419 6.31169 143.724 6.41406 144 6.41406C146.308 6.00456 148.043 5.7998 149.205 5.7998ZM144 8.70508L144.158 10.5479V11.0044C144.186 11.2091 144.285 11.3115 144.457 11.3115H147.213C147.49 11.3115 147.797 11.2091 148.134 11.0044L147.977 10.2407V8.09912L147.827 7.79199C145.453 8.17383 144.178 8.47819 144 8.70508ZM146.756 14.6733H147.52C148.134 14.6733 148.441 15.7967 148.441 18.0435V18.5L148.591 18.8071C149.609 18.7075 150.375 18.6577 150.89 18.6577H152.567C153.082 18.6577 153.438 18.9123 153.638 19.4214V19.8779C153.638 20.387 152.312 20.6416 149.662 20.6416C149.662 20.8464 149 20.9487 147.678 20.9487C146.859 20.9487 146.449 19.7257 146.449 17.2798C146.449 17.0308 146.399 16.2643 146.3 14.9805L146.756 14.6733ZM162.524 4.86182H164.973C165.526 4.86182 165.886 5.06657 166.052 5.47607V6.09033C166.052 6.24528 165.847 6.39746 165.438 6.54688L164.367 6.39746C163.664 6.49707 163.102 6.54688 162.682 6.54688C162.145 6.54688 161.686 6.24251 161.304 5.63379V5.32666C161.365 5.01676 161.771 4.86182 162.524 4.86182ZM170.8 5.7832H171.099C173.246 6.01009 174.319 6.36702 174.319 6.854C174.419 10.5783 174.521 12.7752 174.626 13.4448H176.154C176.314 13.4448 176.519 13.6496 176.768 14.0591V14.5156C176.768 14.8255 176.054 15.0801 174.626 15.2793V15.437C174.726 17.3185 174.776 18.9012 174.776 20.1851V20.791C174.776 20.9515 174.574 21.1562 174.17 21.4053C173.351 21.3278 172.941 20.9709 172.941 20.3345C172.737 11.757 172.532 7.46826 172.327 7.46826C171.575 7.46826 170.963 7.11133 170.493 6.39746V6.09033C170.52 5.88558 170.623 5.7832 170.8 5.7832ZM168.193 8.08252C168.808 8.32048 169.115 8.67741 169.115 9.15332C169.115 9.66243 167.684 9.91699 164.823 9.91699H159.312C158.493 9.79525 158.083 9.49089 158.083 9.00391C158.083 8.48926 159.104 8.23193 161.146 8.23193H167.272L168.193 8.08252ZM164.06 11.4526C166.71 11.8511 168.036 12.8195 168.036 14.3579C168.036 15.8133 167.067 16.8869 165.13 17.5786H164.973C164.973 18.8016 165.23 19.4131 165.745 19.4131C167.499 19.3135 168.52 19.2637 168.808 19.2637C169.272 19.4629 169.527 19.6676 169.571 19.8779V20.3345C169.571 20.9598 167.529 21.3167 163.445 21.4053C163.445 21.5104 162.679 21.563 161.146 21.563C160.095 21.563 159.328 21.2061 158.847 20.4922C158.991 19.9775 159.347 19.7202 159.917 19.7202H162.831L163.595 19.5708C163.595 18.0379 163.34 17.2715 162.831 17.2715C161.199 16.7126 160.382 15.7414 160.382 14.3579C160.382 13.1349 160.944 12.5234 162.067 12.5234C162.067 12.0475 162.731 11.6906 164.06 11.4526ZM162.067 14.5156V14.8228C162.067 15.2599 162.576 15.6169 163.595 15.8936H164.516C165.639 15.6611 166.201 15.0994 166.201 14.2085V13.9014C165.841 13.2871 165.382 12.98 164.823 12.98H164.209C163.534 12.98 162.82 13.4919 162.067 14.5156Z" fill="#222222"/>
</svg>
