<svg width="131" height="25" viewBox="0 0 131 25" fill="none" xmlns="http://www.w3.org/2000/svg">
<path d="M10.8989 0.75293H12.584C12.7445 0.75293 12.9492 0.957682 13.1982 1.36719V1.82373C13.1982 2.57633 13.1457 3.13802 13.0405 3.50879C13.1457 4.17839 13.1982 4.83968 13.1982 5.49268V7.17773C13.0322 7.58724 12.6753 7.79199 12.1274 7.79199C11.5132 7.79199 11.2061 6.56624 11.2061 4.11475V3.35107L11.3638 2.5874L11.0566 2.43799H10.7495C10.6333 2.43799 10.0716 2.54036 9.06445 2.74512H8.60791C7.7889 2.66764 7.37939 2.31071 7.37939 1.67432C7.37939 1.29248 8.55257 0.985352 10.8989 0.75293ZM5.39551 1.36719C6.00423 1.52767 6.30859 1.83203 6.30859 2.28027C6.82324 5.58952 7.08057 7.52913 7.08057 8.09912C6.70426 8.40348 6.34733 8.55566 6.00977 8.55566C5.30697 8.55566 4.89746 7.12793 4.78125 4.27246L4.32471 3.20166L1.41943 3.50879C0.998861 3.36491 0.691732 3.11035 0.498047 2.74512V2.28027C0.498047 1.8763 2.13053 1.57194 5.39551 1.36719ZM13.0405 8.86279C14.673 9.03988 15.4893 9.39681 15.4893 9.93359C15.4561 10.1715 15.1517 10.5285 14.5762 11.0044C14.0117 10.8993 13.6022 10.8467 13.3477 10.8467C12.6725 10.8467 11.6017 11.0016 10.1353 11.3115V11.9175C10.1353 12.3657 10.2376 12.7752 10.4424 13.146C10.4424 13.2843 10.2376 13.6413 9.82812 14.2168V14.3662H10.293C10.7744 14.3662 11.2835 14.3164 11.8203 14.2168C12.8385 14.3496 13.3477 14.8089 13.3477 15.5947L13.1982 16.3584L13.3477 16.9727C13.3477 17.9909 12.3792 18.5 10.4424 18.5C7.99642 18.7048 6.77344 18.9593 6.77344 19.2637C6.77344 19.8779 6.97542 20.1851 7.37939 20.1851C10.3843 19.8807 12.0168 19.7285 12.2769 19.7285C12.9132 19.9333 13.2702 20.1878 13.3477 20.4922V20.9487C13.3477 21.3029 12.7887 21.5575 11.6709 21.7124C11.5658 21.7124 11.5132 21.6626 11.5132 21.563C9.03402 21.8674 7.19954 22.0195 6.00977 22.0195C5.49512 21.6488 5.03581 20.4258 4.63184 18.3506C4.63184 17.7363 5.3457 17.4292 6.77344 17.4292C7.58691 17.2244 9.11702 16.9699 11.3638 16.6655V16.209C11.2531 16.209 11.0981 16.1564 10.8989 16.0513C8.86247 16.256 6.92562 16.3584 5.08838 16.3584C4.67887 15.9489 4.47412 15.6418 4.47412 15.437C4.47412 14.8283 5.85205 14.5239 8.60791 14.5239C8.78499 14.4188 8.98975 14.3662 9.22217 14.3662C8.72412 13.9014 8.36719 12.9329 8.15137 11.4609H5.39551C4.80339 11.4609 3.98714 11.5135 2.94678 11.6187C2.70882 11.5799 2.35189 11.2728 1.87598 10.6973C1.87598 9.9834 3.45589 9.62646 6.61572 9.62646C8.44189 9.62646 10.5835 9.37191 13.0405 8.86279ZM26.9985 3.31787C28.9132 4.24202 29.984 4.7041 30.2109 4.7041C30.6204 5.05827 30.8252 5.4152 30.8252 5.7749V7.76709C30.8584 7.97184 30.9608 8.07422 31.1323 8.07422H32.8174C33.6364 8.15169 34.0459 8.50863 34.0459 9.14502C33.891 9.55452 33.7388 9.75928 33.5894 9.75928H31.4395L30.6758 9.91699C30.6094 13.7962 30.3521 15.7358 29.9038 15.7358H29.2979C28.7832 15.5034 28.5259 15.0441 28.5259 14.3579C28.5259 11.7183 28.6283 9.93083 28.833 8.99561C28.833 8.89046 28.7832 8.83789 28.6836 8.83789L28.833 7.76709V6.23145C28.833 6.1263 28.0666 5.66699 26.5337 4.85352L26.2266 4.39697V3.47559L26.9985 3.31787ZM22.6987 5.61719C22.8371 5.61719 23.0944 5.87451 23.4707 6.38916C23.4707 6.96468 22.6517 8.49756 21.0137 10.9878L24.6992 13.4365L24.8486 13.7437L24.6992 14.5156H23.9272C23.4237 14.5156 22.0955 13.799 19.9429 12.3657H19.7935C18.2716 13.5942 17.1981 14.2085 16.5728 14.2085C16.1632 14.2085 15.8561 14.0037 15.6514 13.5942V13.4365C15.6514 12.8555 16.2656 12.3464 17.4941 11.9092C19.7409 9.59603 20.8643 8.06315 20.8643 7.31055H20.7065C20.4299 7.31055 19.2567 7.41292 17.187 7.61768C16.9159 7.58447 16.6585 7.32715 16.415 6.8457C16.415 6.02669 18.0005 5.61719 21.1714 5.61719H22.6987ZM27.6045 16.9644C28.3239 17.2189 28.6836 17.6284 28.6836 18.1929V23.4058C28.6836 23.9315 28.5286 24.2358 28.2188 24.3188H27.4551C26.946 24.0588 26.6914 23.652 26.6914 23.0986V19.2637L26.5337 18.9565C24.8459 19.0617 23.5675 19.1143 22.6987 19.1143H19.6357C19.027 19.1143 18.6175 18.8071 18.4072 18.1929C18.5511 17.6782 18.9108 17.4209 19.4863 17.4209C21.4176 17.4209 24.1237 17.2687 27.6045 16.9644ZM52.2583 4.54639H52.4077C53.3595 5.13851 54.3307 5.59782 55.3213 5.92432C55.7308 6.4445 55.9355 6.75163 55.9355 6.8457L55.479 12.2163L55.6284 12.8223L55.3213 17.8857C55.4264 18.0628 55.479 18.2676 55.479 18.5C55.3462 19.0091 55.1912 19.2637 55.0142 19.2637H54.3999C53.7856 18.915 53.4785 18.3534 53.4785 17.5786C53.5837 16.5327 53.6362 15.7137 53.6362 15.1216V12.3657C52.0148 12.6701 51.0436 12.8223 50.7227 12.8223H50.2661C50.0226 12.8223 49.5605 12.6203 48.8799 12.2163V11.6021C48.8799 11.2922 49.9036 11.0348 51.9512 10.8301C53.1742 10.6253 53.7856 10.3708 53.7856 10.0664C53.8908 8.83789 53.9434 7.91927 53.9434 7.31055C52.2057 6.51921 51.3369 5.80257 51.3369 5.16064C51.4365 4.75114 51.7437 4.54639 52.2583 4.54639ZM43.3682 6.8457H46.7383C47.4521 6.8457 47.8091 7.20264 47.8091 7.9165C47.8091 8.78532 47.0952 10.5755 45.6675 13.2871V13.5942C47.6099 15.0496 48.5811 15.8659 48.5811 16.043V16.5078C48.5811 16.707 48.2739 16.9118 47.6597 17.1221C47.0565 16.8232 45.9303 16.0568 44.2812 14.8228C42.4551 16.0457 41.2293 16.6572 40.604 16.6572C39.8901 16.458 39.5332 16.1011 39.5332 15.5864C41.0938 14.7397 42.3195 13.9733 43.2104 13.2871C44.0295 12.4847 44.8485 11.0016 45.6675 8.83789L45.2026 8.53076C43.1938 8.6359 41.8657 8.68848 41.2183 8.68848C40.8088 8.22917 40.604 7.87223 40.604 7.61768C40.604 7.10303 41.5254 6.8457 43.3682 6.8457ZM66.6729 3.01904H67.1377C68.2334 3.2736 69.2018 3.88509 70.043 4.85352V8.38135H70.8149C71.4071 8.38135 72.2233 8.32878 73.2637 8.22363C73.7783 8.38965 74.0356 8.69678 74.0356 9.14502C73.77 9.75928 73.4103 10.0664 72.9565 10.0664C72.8514 10.0664 72.6992 10.0166 72.5 9.91699C70.862 10.1162 70.043 10.3182 70.043 10.5229C70.043 10.866 70.0955 11.7349 70.2007 13.1294C70.2007 14.9722 69.9461 15.8936 69.437 15.8936C68.618 15.6667 68.2085 15.1548 68.2085 14.3579C68.2085 12.6646 68.1559 9.90592 68.0508 6.08203L68.2085 5.7749C68.2085 5.3654 67.7492 4.95589 66.8306 4.54639C66.4211 4.11475 66.2163 3.70524 66.2163 3.31787L66.6729 3.01904ZM62.8462 5.31836C63.2502 5.77214 63.4521 6.02669 63.4521 6.08203C63.4521 7.05046 62.8905 8.42839 61.7671 10.2158V10.5229C63.5047 11.6685 64.3735 12.3353 64.3735 12.5234C64.4787 12.7005 64.5312 12.9025 64.5312 13.1294C64.3265 13.1294 64.2241 13.2843 64.2241 13.5942H63.6099C63.2059 13.5942 62.1849 12.98 60.5469 11.7515C60.3255 11.7515 59.252 12.3132 57.3262 13.4365H57.1685C56.7479 13.2982 56.4408 13.0436 56.2471 12.6729V12.2163C56.2471 12.1112 57.1685 11.4443 59.0112 10.2158C60.3394 8.99284 61.0034 8.07422 61.0034 7.45996L60.8457 7.15283L60.5469 7.31055H60.3892C59.5148 7.31055 58.5962 7.36035 57.6333 7.45996C56.9637 7.45996 56.4518 7.15283 56.0977 6.53857C56.0977 5.92432 56.557 5.61719 57.4756 5.61719C60.2536 5.41797 62.0438 5.31836 62.8462 5.31836ZM65.4443 14.9722C66.6618 14.9722 67.7354 15.841 68.665 17.5786C68.7702 17.7446 68.8228 17.9992 68.8228 18.3423V19.1143C68.8228 20.2985 67.799 21.3693 65.7515 22.3267H65.2949C63.3138 22.3267 61.9331 21.4578 61.1528 19.7202V18.6494C61.1528 17.3158 61.9718 16.1924 63.6099 15.2793C63.7095 15.1742 64.321 15.0718 65.4443 14.9722ZM62.8462 19.5708C63.4549 20.1851 64.119 20.4922 64.8384 20.4922C65.9839 20.4922 66.7503 19.6732 67.1377 18.0352C66.7337 17.0169 66.1693 16.5078 65.4443 16.5078C63.7122 16.8564 62.8462 17.8774 62.8462 19.5708ZM81.2534 4.39697H81.8677C82.3104 4.39697 82.5677 5.11084 82.6396 6.53857V7.15283C82.6396 7.67301 82.5373 8.28727 82.3325 8.99561C85.8078 10.3901 87.5454 11.5633 87.5454 12.5151V12.6729C87.5011 12.8831 87.2438 13.0879 86.7734 13.2871C85.6888 12.5511 83.9014 11.5799 81.4111 10.3735C80.2269 12.1665 79.1035 13.1377 78.041 13.2871H77.4268C77.2773 13.2871 77.1224 13.1322 76.9619 12.8223V12.6729C76.9619 12.1416 77.626 11.4775 78.9541 10.6807C80.2878 9.04264 80.9546 7.76432 80.9546 6.8457V6.23145L80.7969 4.7041L81.2534 4.39697ZM82.3325 13.7437C82.9468 13.7437 83.3037 14.1532 83.4033 14.9722V18.8071H83.5527C85.7718 18.8071 87.8166 18.7048 89.687 18.5C90.1076 18.6383 90.4147 18.8929 90.6084 19.2637V19.7202C90.6084 19.8807 90.4036 20.0854 89.9941 20.3345C83.7077 20.744 79.1616 20.9487 76.356 20.9487C74.9227 20.8159 74.2061 20.5088 74.2061 20.0273V19.5708C74.2061 19.4214 74.3582 19.2692 74.6626 19.1143H78.8047C80.6419 19.1143 81.5605 18.9095 81.5605 18.5C81.6657 17.9632 81.7183 17.4513 81.7183 16.9644V14.3579C81.7183 14.2528 81.923 14.048 82.3325 13.7437ZM105.276 3.35107C107.213 3.57796 108.182 3.98747 108.182 4.57959V8.09912C108.215 8.30387 108.317 8.40625 108.489 8.40625C108.738 8.40625 109.554 8.2513 110.938 7.94141C111.546 8.20703 111.851 8.56396 111.851 9.01221C111.851 9.54899 110.68 10.0609 108.339 10.5479C108.339 10.6475 108.287 10.6973 108.182 10.6973C108.287 11.0791 108.389 12.3547 108.489 14.5239C108.323 15.033 108.016 15.2876 107.567 15.2876C106.754 15.2876 106.347 13.6053 106.347 10.2407V9.93359C106.347 9.59049 106.295 9.33594 106.189 9.16992L106.347 8.24854V7.33545L106.189 6.41406C106.295 6.23698 106.347 6.03223 106.347 5.7998C106.347 5.55078 105.838 5.24642 104.82 4.88672L104.662 4.11475V3.81592C104.662 3.66097 104.867 3.50602 105.276 3.35107ZM103.135 5.7998C103.522 5.89388 103.826 6.25081 104.048 6.87061C103.948 8.22087 103.898 9.34424 103.898 10.2407C103.898 10.4842 103.948 11.2479 104.048 12.5317C103.677 12.8416 103.32 12.9966 102.977 12.9966C102.778 12.9966 102.678 12.944 102.678 12.8389L101.607 12.9966H98.8516L97.9302 13.146C96.7072 13.146 96.0957 12.0226 96.0957 9.77588V8.24854C96.0957 6.8208 96.4028 6.10693 97.0171 6.10693C97.3491 6.31169 97.6535 6.41406 97.9302 6.41406C100.238 6.00456 101.973 5.7998 103.135 5.7998ZM97.9302 8.70508L98.0879 10.5479V11.0044C98.1156 11.2091 98.2152 11.3115 98.3867 11.3115H101.143C101.419 11.3115 101.726 11.2091 102.064 11.0044L101.906 10.2407V8.09912L101.757 7.79199C99.3828 8.17383 98.1073 8.47819 97.9302 8.70508ZM100.686 14.6733H101.45C102.064 14.6733 102.371 15.7967 102.371 18.0435V18.5L102.521 18.8071C103.539 18.7075 104.305 18.6577 104.82 18.6577H106.497C107.011 18.6577 107.368 18.9123 107.567 19.4214V19.8779C107.567 20.387 106.242 20.6416 103.591 20.6416C103.591 20.8464 102.93 20.9487 101.607 20.9487C100.788 20.9487 100.379 19.7257 100.379 17.2798C100.379 17.0308 100.329 16.2643 100.229 14.9805L100.686 14.6733ZM116.454 4.86182H118.902C119.456 4.86182 119.815 5.06657 119.981 5.47607V6.09033C119.981 6.24528 119.777 6.39746 119.367 6.54688L118.296 6.39746C117.594 6.49707 117.032 6.54688 116.611 6.54688C116.075 6.54688 115.615 6.24251 115.233 5.63379V5.32666C115.294 5.01676 115.701 4.86182 116.454 4.86182ZM124.729 5.7832H125.028C127.175 6.01009 128.249 6.36702 128.249 6.854C128.349 10.5783 128.451 12.7752 128.556 13.4448H130.083C130.244 13.4448 130.449 13.6496 130.698 14.0591V14.5156C130.698 14.8255 129.984 15.0801 128.556 15.2793V15.437C128.656 17.3185 128.706 18.9012 128.706 20.1851V20.791C128.706 20.9515 128.504 21.1562 128.1 21.4053C127.281 21.3278 126.871 20.9709 126.871 20.3345C126.666 11.757 126.462 7.46826 126.257 7.46826C125.504 7.46826 124.893 7.11133 124.422 6.39746V6.09033C124.45 5.88558 124.552 5.7832 124.729 5.7832ZM122.123 8.08252C122.737 8.32048 123.044 8.67741 123.044 9.15332C123.044 9.66243 121.614 9.91699 118.753 9.91699H113.241C112.422 9.79525 112.013 9.49089 112.013 9.00391C112.013 8.48926 113.034 8.23193 115.076 8.23193H121.202L122.123 8.08252ZM117.989 11.4526C120.64 11.8511 121.965 12.8195 121.965 14.3579C121.965 15.8133 120.997 16.8869 119.06 17.5786H118.902C118.902 18.8016 119.16 19.4131 119.674 19.4131C121.429 19.3135 122.45 19.2637 122.737 19.2637C123.202 19.4629 123.457 19.6676 123.501 19.8779V20.3345C123.501 20.9598 121.459 21.3167 117.375 21.4053C117.375 21.5104 116.609 21.563 115.076 21.563C114.024 21.563 113.258 21.2061 112.776 20.4922C112.92 19.9775 113.277 19.7202 113.847 19.7202H116.761L117.524 19.5708C117.524 18.0379 117.27 17.2715 116.761 17.2715C115.128 16.7126 114.312 15.7414 114.312 14.3579C114.312 13.1349 114.874 12.5234 115.997 12.5234C115.997 12.0475 116.661 11.6906 117.989 11.4526ZM115.997 14.5156V14.8228C115.997 15.2599 116.506 15.6169 117.524 15.8936H118.446C119.569 15.6611 120.131 15.0994 120.131 14.2085V13.9014C119.771 13.2871 119.312 12.98 118.753 12.98H118.139C117.464 12.98 116.75 13.4919 115.997 14.5156Z" fill="#222222"/>
</svg>
