<svg width="144" height="26" viewBox="0 0 144 26" fill="none" xmlns="http://www.w3.org/2000/svg">
<path d="M10.8989 0.75293H12.584C12.7445 0.75293 12.9492 0.957682 13.1982 1.36719V1.82373C13.1982 2.57633 13.1457 3.13802 13.0405 3.50879C13.1457 4.17839 13.1982 4.83968 13.1982 5.49268V7.17773C13.0322 7.58724 12.6753 7.79199 12.1274 7.79199C11.5132 7.79199 11.2061 6.56624 11.2061 4.11475V3.35107L11.3638 2.5874L11.0566 2.43799H10.7495C10.6333 2.43799 10.0716 2.54036 9.06445 2.74512H8.60791C7.7889 2.66764 7.37939 2.31071 7.37939 1.67432C7.37939 1.29248 8.55257 0.985352 10.8989 0.75293ZM5.39551 1.36719C6.00423 1.52767 6.30859 1.83203 6.30859 2.28027C6.82324 5.58952 7.08057 7.52913 7.08057 8.09912C6.70426 8.40348 6.34733 8.55566 6.00977 8.55566C5.30697 8.55566 4.89746 7.12793 4.78125 4.27246L4.32471 3.20166L1.41943 3.50879C0.998861 3.36491 0.691732 3.11035 0.498047 2.74512V2.28027C0.498047 1.8763 2.13053 1.57194 5.39551 1.36719ZM13.0405 8.86279C14.673 9.03988 15.4893 9.39681 15.4893 9.93359C15.4561 10.1715 15.1517 10.5285 14.5762 11.0044C14.0117 10.8993 13.6022 10.8467 13.3477 10.8467C12.6725 10.8467 11.6017 11.0016 10.1353 11.3115V11.9175C10.1353 12.3657 10.2376 12.7752 10.4424 13.146C10.4424 13.2843 10.2376 13.6413 9.82812 14.2168V14.3662H10.293C10.7744 14.3662 11.2835 14.3164 11.8203 14.2168C12.8385 14.3496 13.3477 14.8089 13.3477 15.5947L13.1982 16.3584L13.3477 16.9727C13.3477 17.9909 12.3792 18.5 10.4424 18.5C7.99642 18.7048 6.77344 18.9593 6.77344 19.2637C6.77344 19.8779 6.97542 20.1851 7.37939 20.1851C10.3843 19.8807 12.0168 19.7285 12.2769 19.7285C12.9132 19.9333 13.2702 20.1878 13.3477 20.4922V20.9487C13.3477 21.3029 12.7887 21.5575 11.6709 21.7124C11.5658 21.7124 11.5132 21.6626 11.5132 21.563C9.03402 21.8674 7.19954 22.0195 6.00977 22.0195C5.49512 21.6488 5.03581 20.4258 4.63184 18.3506C4.63184 17.7363 5.3457 17.4292 6.77344 17.4292C7.58691 17.2244 9.11702 16.9699 11.3638 16.6655V16.209C11.2531 16.209 11.0981 16.1564 10.8989 16.0513C8.86247 16.256 6.92562 16.3584 5.08838 16.3584C4.67887 15.9489 4.47412 15.6418 4.47412 15.437C4.47412 14.8283 5.85205 14.5239 8.60791 14.5239C8.78499 14.4188 8.98975 14.3662 9.22217 14.3662C8.72412 13.9014 8.36719 12.9329 8.15137 11.4609H5.39551C4.80339 11.4609 3.98714 11.5135 2.94678 11.6187C2.70882 11.5799 2.35189 11.2728 1.87598 10.6973C1.87598 9.9834 3.45589 9.62646 6.61572 9.62646C8.44189 9.62646 10.5835 9.37191 13.0405 8.86279ZM25.1558 4.7041C25.6206 4.90332 25.8752 5.10807 25.9194 5.31836V6.08203C25.8198 6.38639 25.5127 6.53857 24.998 6.53857H22.6987C20.3524 6.53857 19.1792 6.7959 19.1792 7.31055C19.2124 8.12402 19.3148 8.53076 19.4863 8.53076C22.4857 8.43115 24.2233 8.38135 24.6992 8.38135C25.1032 8.83512 25.3052 9.08968 25.3052 9.14502V9.60986C25.3052 9.75374 25.153 9.90592 24.8486 10.0664H23.6201C20.8643 10.0664 19.4863 10.2712 19.4863 10.6807L19.7935 11.9092C21.9074 11.804 23.5426 11.6491 24.6992 11.4443C25.1641 11.6436 25.4186 11.8483 25.4629 12.0586V12.8223C25.4629 13.1322 23.8276 13.3895 20.5571 13.5942C20.5571 13.716 20.0452 13.8682 19.0215 14.0508C18.3076 14.0508 17.9507 12.825 17.9507 10.3735C17.8068 10.3735 17.7044 9.14779 17.6436 6.69629C17.9867 5.57292 18.7033 5.01123 19.7935 5.01123L25.1558 4.7041ZM27.7622 14.9722C27.9006 14.9722 28.1551 15.2267 28.5259 15.7358V16.2007C28.5259 16.505 28.3211 16.6572 27.9116 16.6572C26.506 16.6572 25.0257 16.8122 23.4707 17.1221C23.4707 17.6589 23.5731 18.7297 23.7778 20.3345C23.5675 20.9487 23.3628 21.2559 23.1636 21.2559H22.8564C22.3473 20.9958 22.0928 20.5863 22.0928 20.0273V18.5C22.0928 17.7474 21.9378 17.3379 21.6279 17.2715H21.4785C17.5938 17.2715 15.6514 16.9146 15.6514 16.2007V15.8936C15.7122 15.5837 16.0692 15.4287 16.7222 15.4287C17.8898 15.4287 18.9634 15.4813 19.9429 15.5864L27.7622 14.9722ZM18.7144 18.9565H19.0215C19.6357 18.9565 19.9429 20.4894 19.9429 23.5552C20.1476 23.5884 20.25 23.6908 20.25 23.8623L25.6123 23.248H27.1479C27.5575 23.4141 27.7622 23.771 27.7622 24.3188C27.7622 24.8556 25.0534 25.2651 19.6357 25.5474H19.4863C18.6673 25.5474 18.2578 23.9647 18.2578 20.7993V19.4214C18.2578 19.272 18.41 19.117 18.7144 18.9565ZM44.5967 2.71191H45.0615C47.6126 3.38151 48.8882 3.993 48.8882 4.54639V5.31836C48.8882 7.1722 48.8384 9.77588 48.7388 13.1294C48.7388 13.2954 48.4842 13.5527 47.9751 13.9014C47.1561 13.752 46.7466 13.3424 46.7466 12.6729V12.5151C46.9513 8.45882 47.0537 6.26188 47.0537 5.92432C47.0537 5.16618 46.2347 4.60449 44.5967 4.23926L44.1401 3.625V3.16846C44.1401 3.01904 44.2923 2.86686 44.5967 2.71191ZM39.3838 3.93213C42.04 4.3693 43.3682 5.49544 43.3682 7.31055C43.3682 9.52409 42.6543 11.057 41.2266 11.9092C40.391 12.5788 39.5221 12.9357 38.6201 12.98C35.5544 12.7199 34.0215 11.6463 34.0215 9.75928V8.22363C34.0215 7.17773 34.6855 6.10693 36.0137 5.01123C36.9932 4.29183 38.1165 3.93213 39.3838 3.93213ZM35.7065 9.30273C35.7065 10.5257 36.3706 11.1372 37.6987 11.1372H38.1636C39.9455 11.1372 41.0688 9.96403 41.5337 7.61768V7.15283C41.3953 6.12907 40.8835 5.61719 39.998 5.61719H39.0767C37.339 5.61719 36.2157 6.8457 35.7065 9.30273ZM38.1636 14.665H38.7695C39.2842 14.8698 39.5415 15.2267 39.5415 15.7358V16.5078C39.5415 18.6494 39.7961 19.7202 40.3052 19.7202C41.008 19.7202 43.3073 19.5182 47.2031 19.1143C48.1217 19.2305 48.5811 19.6372 48.5811 20.3345V20.4922C48.3486 21.1064 46.5114 21.4136 43.0693 21.4136C43.0693 21.4634 41.7384 21.6156 39.0767 21.8701C38.158 21.8701 37.6987 20.4396 37.6987 17.5786V15.1216C37.6987 14.9777 37.8537 14.8255 38.1636 14.665ZM58.563 4.39697C61.02 4.97803 62.2485 5.48714 62.2485 5.92432C62.5529 9.18929 62.7051 10.9297 62.7051 11.1455C62.5003 13.7077 62.3979 15.2406 62.3979 15.7441C62.5031 16.862 62.5557 17.8332 62.5557 18.6577C62.5557 19.189 62.2983 19.5985 61.7837 19.8862H61.6343C61.0754 19.8862 60.6659 19.5791 60.4058 18.9648C60.4058 18.4336 60.356 17.4098 60.2563 15.8936C60.356 14.3607 60.4583 13.5444 60.5635 13.4448L60.4058 13.1377C60.5109 11.8483 60.5635 11.0819 60.5635 10.8384C60.5635 7.97184 60.3062 6.53857 59.7915 6.53857C58.4634 6.14567 57.7993 5.63656 57.7993 5.01123C57.8436 4.79541 58.0981 4.59066 58.563 4.39697ZM55.3423 7.76709C55.9842 7.76709 56.3439 8.27897 56.4214 9.30273C56.4214 13.6136 55.1929 16.4248 52.7358 17.7363C52.354 17.6146 51.9971 17.36 51.665 16.9727C51.7923 16.3695 52.2516 15.6528 53.043 14.8228C53.862 13.7824 54.2715 12.1471 54.2715 9.91699H54.1221C54.0169 9.91699 53.9644 9.86442 53.9644 9.75928C53.3501 9.96403 52.022 10.0664 49.98 10.0664C49.5705 10.0664 49.2633 9.86165 49.0586 9.45215V8.83789C49.0586 8.44499 50.644 8.19043 53.8149 8.07422C53.8149 7.95247 54.3241 7.8501 55.3423 7.76709ZM79.8218 6.24805C80.436 6.45833 80.7432 6.66309 80.7432 6.8623V7.16943C80.7432 7.65088 80.591 8.00781 80.2866 8.24023C79.7996 8.24023 79.2878 8.19043 78.751 8.09082C77.3343 8.19043 76.3659 8.29281 75.8457 8.39795C76.0505 9.71501 76.2552 13.8986 76.46 20.9487L75.9951 21.2476H75.3892C74.7749 21.2476 74.4678 19.9222 74.4678 17.2715C74.4014 17.2715 74.299 15.2821 74.1606 11.3032H74.3184C74.1136 9.58773 73.8563 8.56673 73.5464 8.24023L73.2393 8.39795H72.4756C71.6012 8.39795 70.6826 8.44775 69.7197 8.54736C69.0557 8.54736 68.5465 8.24023 68.1924 7.62598V7.47656C68.1924 6.90104 70.4889 6.54411 75.082 6.40576C76.3604 6.40576 77.9403 6.35319 79.8218 6.24805ZM86.5664 6.24805H87.0312C88.5033 6.24805 90.1357 7.4738 91.9287 9.92529C92.3327 10.938 92.5872 12.0614 92.6924 13.2954C92.6924 15.271 91.8761 17.0059 90.2437 18.5C89.3748 19.0091 88.0467 19.2637 86.2593 19.2637H86.1099C84.3944 19.2637 82.8117 17.9355 81.3618 15.2793C81.1239 13.5472 80.9717 12.6812 80.9053 12.6812C81.3424 9.72054 81.9041 8.24023 82.5903 8.24023C84.2726 6.91211 85.598 6.24805 86.5664 6.24805ZM82.8975 12.374V13.2954C83.5394 16.1509 84.8149 17.5786 86.7241 17.5786H87.3301C89.3499 17.5786 90.5259 15.9959 90.8579 12.8306C90.8579 10.9601 89.7843 9.32764 87.6372 7.93311C87.4712 7.8335 87.2166 7.78369 86.8735 7.78369H86.5664C84.2201 8.5363 83.0469 9.75928 83.0469 11.4526C82.9473 11.4526 82.8975 11.7598 82.8975 12.374ZM96.8306 5.17725H97.9014C101.576 6.15674 103.413 7.99398 103.413 10.689C102.788 14.3634 100.951 16.2007 97.9014 16.2007H95.3032C95.3032 16.4054 95.2534 16.5078 95.1538 16.5078L95.3032 16.8149V20.1768L95.4526 21.0981C95.2756 21.812 95.0736 22.1689 94.8467 22.1689H94.083C93.5684 21.9421 93.311 21.4329 93.311 20.6416V20.4839C93.311 19.4878 93.1589 15.5615 92.8545 8.70508V7.47656C93.347 7.02832 93.7565 6.51921 94.083 5.94922C94.974 5.43457 95.8898 5.17725 96.8306 5.17725ZM94.689 7.93311C94.7554 12.3215 94.9601 14.5156 95.3032 14.5156L96.2246 14.6733H96.9883C99.1963 14.6733 100.677 13.55 101.429 11.3032C101.429 9.52686 100.815 8.35368 99.5864 7.78369C98.4741 7.16943 97.5555 6.8623 96.8306 6.8623C95.4028 6.92871 94.689 7.28564 94.689 7.93311ZM118.081 3.35107C120.018 3.57796 120.986 3.98747 120.986 4.57959V8.09912C121.02 8.30387 121.122 8.40625 121.293 8.40625C121.542 8.40625 122.359 8.2513 123.742 7.94141C124.351 8.20703 124.655 8.56396 124.655 9.01221C124.655 9.54899 123.485 10.0609 121.144 10.5479C121.144 10.6475 121.091 10.6973 120.986 10.6973C121.091 11.0791 121.194 12.3547 121.293 14.5239C121.127 15.033 120.82 15.2876 120.372 15.2876C119.559 15.2876 119.152 13.6053 119.152 10.2407V9.93359C119.152 9.59049 119.099 9.33594 118.994 9.16992L119.152 8.24854V7.33545L118.994 6.41406C119.099 6.23698 119.152 6.03223 119.152 5.7998C119.152 5.55078 118.643 5.24642 117.625 4.88672L117.467 4.11475V3.81592C117.467 3.66097 117.672 3.50602 118.081 3.35107ZM115.939 5.7998C116.327 5.89388 116.631 6.25081 116.853 6.87061C116.753 8.22087 116.703 9.34424 116.703 10.2407C116.703 10.4842 116.753 11.2479 116.853 12.5317C116.482 12.8416 116.125 12.9966 115.782 12.9966C115.583 12.9966 115.483 12.944 115.483 12.8389L114.412 12.9966H111.656L110.735 13.146C109.512 13.146 108.9 12.0226 108.9 9.77588V8.24854C108.9 6.8208 109.208 6.10693 109.822 6.10693C110.154 6.31169 110.458 6.41406 110.735 6.41406C113.042 6.00456 114.777 5.7998 115.939 5.7998ZM110.735 8.70508L110.893 10.5479V11.0044C110.92 11.2091 111.02 11.3115 111.191 11.3115H113.947C114.224 11.3115 114.531 11.2091 114.869 11.0044L114.711 10.2407V8.09912L114.562 7.79199C112.188 8.17383 110.912 8.47819 110.735 8.70508ZM113.491 14.6733H114.254C114.869 14.6733 115.176 15.7967 115.176 18.0435V18.5L115.325 18.8071C116.343 18.7075 117.11 18.6577 117.625 18.6577H119.301C119.816 18.6577 120.173 18.9123 120.372 19.4214V19.8779C120.372 20.387 119.047 20.6416 116.396 20.6416C116.396 20.8464 115.735 20.9487 114.412 20.9487C113.593 20.9487 113.184 19.7257 113.184 17.2798C113.184 17.0308 113.134 16.2643 113.034 14.9805L113.491 14.6733ZM129.258 4.86182H131.707C132.26 4.86182 132.62 5.06657 132.786 5.47607V6.09033C132.786 6.24528 132.581 6.39746 132.172 6.54688L131.101 6.39746C130.398 6.49707 129.837 6.54688 129.416 6.54688C128.879 6.54688 128.42 6.24251 128.038 5.63379V5.32666C128.099 5.01676 128.506 4.86182 129.258 4.86182ZM137.534 5.7832H137.833C139.98 6.01009 141.054 6.36702 141.054 6.854C141.153 10.5783 141.256 12.7752 141.361 13.4448H142.888C143.049 13.4448 143.253 13.6496 143.502 14.0591V14.5156C143.502 14.8255 142.789 15.0801 141.361 15.2793V15.437C141.46 17.3185 141.51 18.9012 141.51 20.1851V20.791C141.51 20.9515 141.308 21.1562 140.904 21.4053C140.085 21.3278 139.676 20.9709 139.676 20.3345C139.471 11.757 139.266 7.46826 139.062 7.46826C138.309 7.46826 137.697 7.11133 137.227 6.39746V6.09033C137.255 5.88558 137.357 5.7832 137.534 5.7832ZM134.928 8.08252C135.542 8.32048 135.849 8.67741 135.849 9.15332C135.849 9.66243 134.419 9.91699 131.558 9.91699H126.046C125.227 9.79525 124.817 9.49089 124.817 9.00391C124.817 8.48926 125.838 8.23193 127.88 8.23193H134.006L134.928 8.08252ZM130.794 11.4526C133.445 11.8511 134.77 12.8195 134.77 14.3579C134.77 15.8133 133.802 16.8869 131.865 17.5786H131.707C131.707 18.8016 131.964 19.4131 132.479 19.4131C134.233 19.3135 135.254 19.2637 135.542 19.2637C136.007 19.4629 136.261 19.6676 136.306 19.8779V20.3345C136.306 20.9598 134.264 21.3167 130.18 21.4053C130.18 21.5104 129.413 21.563 127.88 21.563C126.829 21.563 126.062 21.2061 125.581 20.4922C125.725 19.9775 126.082 19.7202 126.652 19.7202H129.565L130.329 19.5708C130.329 18.0379 130.075 17.2715 129.565 17.2715C127.933 16.7126 127.117 15.7414 127.117 14.3579C127.117 13.1349 127.678 12.5234 128.802 12.5234C128.802 12.0475 129.466 11.6906 130.794 11.4526ZM128.802 14.5156V14.8228C128.802 15.2599 129.311 15.6169 130.329 15.8936H131.25C132.374 15.6611 132.936 15.0994 132.936 14.2085V13.9014C132.576 13.2871 132.117 12.98 131.558 12.98H130.943C130.268 12.98 129.554 13.4919 128.802 14.5156Z" fill="#222222"/>
</svg>
