<svg width="124" height="23" viewBox="0 0 124 23" fill="none" xmlns="http://www.w3.org/2000/svg">
<path d="M9.521 1.27246H10.1353C12.2769 1.85352 13.3477 2.56738 13.3477 3.41406V3.72119L13.1982 5.24854C15.3398 5.51969 16.4106 5.77425 16.4106 6.01221C16.5324 6.01221 16.6348 6.21696 16.7178 6.62646C16.7178 6.89209 16.3608 7.14665 15.647 7.39014L14.5762 7.24072H13.1982V9.0752C13.1982 9.30208 13.1457 9.50684 13.0405 9.68945L13.1982 9.99658C13.1982 10.8101 12.8413 11.2168 12.1274 11.2168C11.6958 11.0342 11.3389 10.6772 11.0566 10.146C11.1562 8.94515 11.2061 8.0791 11.2061 7.54785V5.24854L11.3638 3.72119C9.91943 2.86898 9.15299 2.30729 9.06445 2.03613V1.729C9.06445 1.58512 9.21663 1.43294 9.521 1.27246ZM5.70264 2.49268C6.31136 2.49268 6.61572 2.84961 6.61572 3.56348V3.72119C6.61572 3.97575 5.29036 4.28011 2.63965 4.63428L2.49023 4.94141V5.55566C2.70605 7.69727 3.01042 8.76807 3.40332 8.76807C5.74967 8.64632 6.92285 8.54395 6.92285 8.46094C7.84147 8.77637 8.30078 9.1333 8.30078 9.53174C8.30078 10.146 7.94385 10.4531 7.22998 10.4531C7.02523 10.4531 6.92285 10.4006 6.92285 10.2954C6.59635 10.4006 5.16862 10.5029 2.63965 10.6025C1.58822 10.6025 0.874349 8.87044 0.498047 5.40625V4.02832C0.498047 3.20931 1.46647 2.7998 3.40332 2.7998C3.91797 2.59505 4.68441 2.49268 5.70264 2.49268ZM9.67871 11.9805C11.1064 12.0856 11.8203 12.4425 11.8203 13.0513C11.6156 15.5028 11.2088 16.7285 10.6001 16.7285C9.61507 17.0329 8.5415 17.2349 7.37939 17.3345V17.7993C7.58415 18.0428 7.68652 18.2448 7.68652 18.4053H7.84424C8.30355 18.4053 9.52653 18.0483 11.5132 17.3345C12.2271 17.3345 12.584 17.6914 12.584 18.4053C12.584 19.014 11.0539 19.7279 7.99365 20.5469C6.93115 20.5469 5.91292 19.3239 4.93896 16.8779V16.2637C4.93896 16.1198 5.09115 15.9676 5.39551 15.8071H5.70264C7.89958 15.8071 9.17236 15.4502 9.521 14.7363V13.8149C7.48454 13.9201 5.95719 13.9727 4.93896 13.9727C4.02035 13.7236 3.56104 13.2643 3.56104 12.5947C3.9318 12.2904 4.28874 12.1382 4.63184 12.1382H5.08838C5.18799 12.1382 5.23779 12.188 5.23779 12.2876L5.54492 12.1382C5.81055 12.1382 7.18848 12.0856 9.67871 11.9805ZM24.5415 0.0273438C24.6411 0.0273438 24.6909 0.0771484 24.6909 0.176758L25.7617 0.0273438H27.2974C27.9116 0.0273438 28.2188 0.334473 28.2188 0.94873V6.30273C28.2188 6.85612 28.014 7.21582 27.6045 7.38184H27.2974C26.6831 7.38184 26.376 7.07471 26.376 6.46045V5.23193C25.9167 5.23193 24.2316 5.38688 21.3208 5.69678C20.6069 5.5529 20.25 5.34814 20.25 5.08252V4.62598C20.25 4.17773 22.2422 3.76823 26.2266 3.39746L26.376 3.09033V2.01953L26.2266 1.7124L20.5571 2.32666C19.7381 2.16064 19.3286 1.95589 19.3286 1.7124V1.09814C19.3286 0.655436 21.0662 0.298503 24.5415 0.0273438ZM23.0059 8.29492H23.6201C24.0075 8.29492 24.3146 9.26611 24.5415 11.2085C24.6411 11.2085 24.6909 11.2583 24.6909 11.3579C27.5464 10.9539 29.4362 10.752 30.3604 10.752C30.7699 10.752 31.077 10.9539 31.2817 11.3579V11.665C31.2817 12.3291 28.6255 12.841 23.313 13.2007C21.4868 13.6102 19.9041 13.8149 18.5649 13.8149H17.9507C17.2368 13.8149 16.8799 13.5576 16.8799 13.043C16.8799 12.3291 18.2578 11.9722 21.0137 11.9722C22.137 11.7176 22.6987 11.5129 22.6987 11.3579C22.5991 10.3175 22.5493 9.5013 22.5493 8.90918V8.75977C22.5493 8.61035 22.7015 8.4554 23.0059 8.29492ZM26.5337 15.0352H26.6831C27.2642 15.0352 27.7235 16.7202 28.061 20.0903C28.061 20.5054 26.5282 21.0173 23.4624 21.626C23.4624 21.7256 23.2078 21.828 22.6987 21.9331C21.6805 21.9331 21.1714 21.0643 21.1714 19.3267C20.9998 19.3267 20.7951 18.408 20.5571 16.5708C20.7121 16.1613 20.8643 15.9565 21.0137 15.9565H21.6279L22.5493 16.4131C24.6909 16.2083 25.7617 15.8514 25.7617 15.3423C25.7617 15.1652 26.019 15.0628 26.5337 15.0352ZM22.6987 18.2559C22.9035 19.1247 23.0059 19.6864 23.0059 19.9409H23.1636L26.0688 19.3267V18.4053C26.0688 18.1286 25.9665 17.8242 25.7617 17.4922C23.7197 17.6748 22.6987 17.9294 22.6987 18.2559ZM37.4287 1.40527C38.0374 1.40527 38.3418 1.76221 38.3418 2.47607C38.3418 3.09033 36.9639 3.39746 34.208 3.39746H34.0586C33.7874 3.39746 33.5301 3.1429 33.2866 2.63379C33.2866 1.93652 34.6673 1.52702 37.4287 1.40527ZM42.6333 2.16895C44.6753 2.53418 45.6963 3.04606 45.6963 3.70459C45.5967 4.75049 45.5469 5.56673 45.5469 6.15332L46.0034 6.46045H47.3813C47.8905 6.46045 48.3498 6.71501 48.7593 7.22412V7.83838C48.7593 7.94906 48.5047 8.15381 47.9956 8.45264L46.9248 8.30322H45.8457C45.5413 8.40283 45.3892 8.70719 45.3892 9.21631V12.2793C45.3892 13.0208 45.082 13.4303 44.4678 13.5078C43.859 13.3307 43.5547 12.8714 43.5547 12.1299C43.5547 10.7188 43.6045 8.0625 43.7041 4.16113C42.8132 4.16113 42.1491 3.70182 41.7119 2.7832C41.8171 2.3737 42.1242 2.16895 42.6333 2.16895ZM38.8066 5.23193C39.7253 5.38688 40.1846 5.74658 40.1846 6.31104C39.9798 6.91976 39.4181 7.22412 38.4995 7.22412H37.5781C36.2389 7.22412 34.5041 7.3265 32.3735 7.53125C31.953 7.3929 31.6458 7.13835 31.4521 6.76758V6.15332C31.4521 5.73828 33.9036 5.43115 38.8066 5.23193ZM36.2002 8.30322H36.6567C37.7192 8.30322 38.4359 9.06689 38.8066 10.5942V11.2085C38.3252 12.9461 37.4066 13.8149 36.0508 13.8149C34.5456 13.8149 33.5246 12.9987 32.9878 11.3662V10.4448C32.9878 9.01709 34.0586 8.30322 36.2002 8.30322ZM34.5151 11.0591V11.2085C34.7752 11.7176 35.1847 11.9722 35.7437 11.9722C36.5184 11.9722 36.9777 11.4631 37.1216 10.4448C37.1216 9.93571 36.8643 9.68115 36.3496 9.68115C35.1266 9.68115 34.5151 10.1405 34.5151 11.0591ZM37.8853 14.8857H38.6489C39.0363 14.8857 39.3932 16.0589 39.7197 18.4053L45.082 18.0981C45.6963 18.3638 46.0034 18.7235 46.0034 19.1772C46.0034 19.8302 43.8065 20.237 39.4126 20.3975C39.4126 20.5026 39.1082 20.5552 38.4995 20.5552C37.7856 20.2508 37.4287 18.4634 37.4287 15.1929L37.8853 14.8857ZM61.4517 1.40527C64.0083 1.40527 65.2866 1.81478 65.2866 2.63379V2.94092C64.3625 4.21924 63.9004 4.98291 63.9004 5.23193C65.2728 6.06755 66.1942 6.83398 66.6646 7.53125V7.99609C66.6646 8.0957 66.4598 8.29769 66.0503 8.60205C65.7293 8.60205 65.0127 8.14274 63.9004 7.22412C63.2917 6.81462 62.8324 6.60986 62.5225 6.60986C62.5225 6.75928 61.8612 7.42334 60.5386 8.60205H60.2314C59.4124 8.60205 59.0029 8.19531 59.0029 7.38184C61.1501 4.98014 62.2236 3.70182 62.2236 3.54688V3.39746H59.6172C58.5934 3.12077 58.0815 2.76383 58.0815 2.32666V2.01953C58.0815 1.87012 58.2365 1.71794 58.5464 1.56299C58.8618 1.56299 59.8302 1.51042 61.4517 1.40527ZM68.8062 9.97998C69.7026 9.97998 70.2643 10.2373 70.4912 10.752V11.3579C70.4912 11.5073 70.339 11.6623 70.0347 11.8228H68.6567C68.5516 11.8228 68.499 11.8726 68.499 11.9722C68.3994 11.9722 68.3496 11.9224 68.3496 11.8228C66.7448 11.9224 65.2617 12.0745 63.9004 12.2793V13.2007L63.751 14.1221C63.8506 14.2881 63.9004 14.5426 63.9004 14.8857L63.751 15.6494C65.2562 15.6494 66.3796 16.5182 67.1211 18.2559V18.4053C67.1211 20.4307 66.2025 21.7588 64.3652 22.3896C63.4577 22.5944 62.8434 22.6968 62.5225 22.6968C60.7074 22.6968 59.584 21.5236 59.1523 19.1772V18.7124C59.1523 17.34 60.0212 16.3716 61.7588 15.8071C62.1683 15.8071 62.373 15.7048 62.373 15.5C62.0687 15.1237 61.9165 14.7668 61.9165 14.4292V12.437C60.7765 12.437 59.7555 12.5394 58.8535 12.7441C58.7484 12.7441 58.6958 12.6916 58.6958 12.5864C57.6776 12.6916 56.9111 12.7441 56.3965 12.7441H55.4834C54.6644 12.7441 54.2549 12.3844 54.2549 11.665V11.5156C54.2549 11.3662 54.4071 11.214 54.7114 11.0591C62.8905 10.3397 67.5887 9.97998 68.8062 9.97998ZM60.9951 19.1772C61.3659 20.4002 61.7754 21.0117 62.2236 21.0117C64.1605 20.6022 65.1289 19.6836 65.1289 18.2559C64.8965 17.542 64.4372 17.1851 63.751 17.1851C62.4505 17.1851 61.5319 17.7965 60.9951 19.0195V19.1772ZM78.2983 1.43018C78.7078 1.92269 78.9126 2.32943 78.9126 2.65039C77.3631 3.32552 75.6283 3.88721 73.708 4.33545V4.64258C73.708 6.26953 73.9653 7.08301 74.48 7.08301L79.5269 6.62646H79.6763C80.4897 6.62646 80.8965 7.0332 80.8965 7.84668C80.8965 8.0791 80.5396 8.28385 79.8257 8.46094L79.2197 8.31152C77.6868 8.58268 76.9204 8.78467 76.9204 8.91748C77.1252 9.58154 77.2275 10.0409 77.2275 10.2954V11.3662C77.2275 11.6706 77.4323 11.8228 77.8418 11.8228C78.9928 11.8228 80.4206 11.7231 82.125 11.5239C82.7337 11.7619 83.0381 12.1188 83.0381 12.5947C83.0381 13.2035 82.0199 13.5078 79.9834 13.5078C76.7461 13.613 74.0428 13.8177 71.8735 14.1221C71.0601 14.0169 70.6533 13.6074 70.6533 12.8936C70.6533 12.4896 72.2858 12.1326 75.5508 11.8228V11.2168C75.5508 10.7907 75.4982 10.229 75.3931 9.53174C75.4982 9.33252 75.5508 9.18034 75.5508 9.0752C75.346 9.0752 75.2437 9.02262 75.2437 8.91748L74.9365 9.0752C73.0993 9.0752 72.1807 8.4637 72.1807 7.24072L71.7241 3.10693C72.034 2.85791 73.4618 2.50098 76.0073 2.03613C76.0073 1.76497 76.771 1.56299 78.2983 1.43018ZM79.8257 14.728C79.9751 14.7391 80.2324 14.9438 80.5977 15.3423L80.2905 18.5547L80.4399 18.8618C80.2352 19.4705 80.0304 19.7749 79.8257 19.7749H79.062C78.8849 19.7749 78.6304 19.4705 78.2983 18.8618L78.4561 17.791V16.8696C78.4561 16.6704 78.3537 16.5708 78.1489 16.5708H77.9912C77.8529 16.5708 77.0394 16.6704 75.5508 16.8696H74.0151C73.8602 16.8696 73.6582 16.6676 73.4092 16.2637V15.7988C73.4092 15.3118 75.548 14.9549 79.8257 14.728ZM97.7061 0.351074C99.6429 0.577962 100.611 0.987467 100.611 1.57959V5.09912C100.645 5.30387 100.747 5.40625 100.918 5.40625C101.167 5.40625 101.984 5.2513 103.367 4.94141C103.976 5.20703 104.28 5.56396 104.28 6.01221C104.28 6.54899 103.11 7.06087 100.769 7.54785C100.769 7.64746 100.716 7.69727 100.611 7.69727C100.716 8.0791 100.819 9.35465 100.918 11.5239C100.752 12.033 100.445 12.2876 99.9971 12.2876C99.1836 12.2876 98.7769 10.6053 98.7769 7.24072V6.93359C98.7769 6.59049 98.7243 6.33594 98.6191 6.16992L98.7769 5.24854V4.33545L98.6191 3.41406C98.7243 3.23698 98.7769 3.03223 98.7769 2.7998C98.7769 2.55078 98.2677 2.24642 97.2495 1.88672L97.0918 1.11475V0.815918C97.0918 0.66097 97.2965 0.506022 97.7061 0.351074ZM95.5645 2.7998C95.9518 2.89388 96.2562 3.25081 96.4775 3.87061C96.3779 5.22087 96.3281 6.34424 96.3281 7.24072C96.3281 7.48421 96.3779 8.24788 96.4775 9.53174C96.1068 9.84163 95.7498 9.99658 95.4067 9.99658C95.2075 9.99658 95.1079 9.94401 95.1079 9.83887L94.0371 9.99658H91.2812L90.3599 10.146C89.1369 10.146 88.5254 9.02262 88.5254 6.77588V5.24854C88.5254 3.8208 88.8325 3.10693 89.4468 3.10693C89.7788 3.31169 90.0832 3.41406 90.3599 3.41406C92.6675 3.00456 94.4023 2.7998 95.5645 2.7998ZM90.3599 5.70508L90.5176 7.54785V8.00439C90.5452 8.20915 90.6449 8.31152 90.8164 8.31152H93.5723C93.849 8.31152 94.1561 8.20915 94.4937 8.00439L94.3359 7.24072V5.09912L94.1865 4.79199C91.8125 5.17383 90.5369 5.47819 90.3599 5.70508ZM93.1157 11.6733H93.8794C94.4937 11.6733 94.8008 12.7967 94.8008 15.0435V15.5L94.9502 15.8071C95.9684 15.7075 96.7349 15.6577 97.2495 15.6577H98.9263C99.4409 15.6577 99.7979 15.9123 99.9971 16.4214V16.8779C99.9971 17.387 98.6717 17.6416 96.021 17.6416C96.021 17.8464 95.3597 17.9487 94.0371 17.9487C93.2181 17.9487 92.8086 16.7257 92.8086 14.2798C92.8086 14.0308 92.7588 13.2643 92.6592 11.9805L93.1157 11.6733ZM108.883 1.86182H111.332C111.885 1.86182 112.245 2.06657 112.411 2.47607V3.09033C112.411 3.24528 112.206 3.39746 111.797 3.54688L110.726 3.39746C110.023 3.49707 109.462 3.54688 109.041 3.54688C108.504 3.54688 108.045 3.24251 107.663 2.63379V2.32666C107.724 2.01676 108.131 1.86182 108.883 1.86182ZM117.159 2.7832H117.458C119.605 3.01009 120.679 3.36702 120.679 3.854C120.778 7.57829 120.881 9.77523 120.986 10.4448H122.513C122.674 10.4448 122.878 10.6496 123.127 11.0591V11.5156C123.127 11.8255 122.414 12.0801 120.986 12.2793V12.437C121.085 14.3185 121.135 15.9012 121.135 17.1851V17.791C121.135 17.9515 120.933 18.1562 120.529 18.4053C119.71 18.3278 119.301 17.9709 119.301 17.3345C119.096 8.757 118.891 4.46826 118.687 4.46826C117.934 4.46826 117.322 4.11133 116.852 3.39746V3.09033C116.88 2.88558 116.982 2.7832 117.159 2.7832ZM114.553 5.08252C115.167 5.32048 115.474 5.67741 115.474 6.15332C115.474 6.66243 114.044 6.91699 111.183 6.91699H105.671C104.852 6.79525 104.442 6.49089 104.442 6.00391C104.442 5.48926 105.463 5.23193 107.505 5.23193H113.631L114.553 5.08252ZM110.419 8.45264C113.07 8.85107 114.395 9.8195 114.395 11.3579C114.395 12.8133 113.427 13.8869 111.49 14.5786H111.332C111.332 15.8016 111.589 16.4131 112.104 16.4131C113.858 16.3135 114.879 16.2637 115.167 16.2637C115.632 16.4629 115.886 16.6676 115.931 16.8779V17.3345C115.931 17.9598 113.889 18.3167 109.805 18.4053C109.805 18.5104 109.038 18.563 107.505 18.563C106.454 18.563 105.688 18.2061 105.206 17.4922C105.35 16.9775 105.707 16.7202 106.277 16.7202H109.19L109.954 16.5708C109.954 15.0379 109.7 14.2715 109.19 14.2715C107.558 13.7126 106.742 12.7414 106.742 11.3579C106.742 10.1349 107.303 9.52344 108.427 9.52344C108.427 9.04753 109.091 8.69059 110.419 8.45264ZM108.427 11.5156V11.8228C108.427 12.2599 108.936 12.6169 109.954 12.8936H110.875C111.999 12.6611 112.561 12.0994 112.561 11.2085V10.9014C112.201 10.2871 111.742 9.97998 111.183 9.97998H110.568C109.893 9.97998 109.179 10.4919 108.427 11.5156Z" fill="#222222"/>
</svg>
