<svg width="126" height="22" viewBox="0 0 126 22" fill="none" xmlns="http://www.w3.org/2000/svg">
<path d="M7.3877 1.09814H8.15967C10.091 1.09814 11.6211 2.06934 12.75 4.01172V5.08252C12.75 7.43994 11.4219 9.07243 8.76562 9.97998H8.15967C6.04574 9.97998 4.30811 9.11393 2.94678 7.38184C2.94678 6.76758 2.8444 6.35807 2.63965 6.15332V5.69678C2.63965 3.89827 3.81559 2.41797 6.16748 1.25586C6.56038 1.15072 6.96712 1.09814 7.3877 1.09814ZM4.48242 5.84619C4.90299 7.47868 6.07617 8.29492 8.00195 8.29492C8.99251 8.29492 9.9637 7.42887 10.9155 5.69678L11.0649 4.62598C11.0649 3.60221 10.1989 2.93815 8.4668 2.63379H8.00195C6.43587 2.63379 5.2627 3.60221 4.48242 5.53906V5.84619ZM8.30908 11.665H8.61621C9.23047 12.0247 9.5376 12.2821 9.5376 12.437V13.2007C9.5376 14.8332 9.68978 15.6494 9.99414 15.6494H13.8208C14.0532 15.6494 14.258 15.5996 14.4351 15.5L14.7422 15.6494C15.5059 15.4447 15.9652 15.3423 16.1201 15.3423C16.7344 15.5028 17.0415 15.8597 17.0415 16.4131V16.5708C17.0415 17.2847 13.7212 17.6416 7.08057 17.6416C6.99756 17.6416 5.77458 17.5918 3.41162 17.4922V17.3345C3.30648 17.3345 3.25391 17.387 3.25391 17.4922C1.41667 17.4313 0.498047 17.0716 0.498047 16.4131C0.498047 16.2249 0.752604 15.9206 1.26172 15.5L2.79736 15.6494H7.08057C7.18571 15.6494 7.23828 15.702 7.23828 15.8071C7.4375 15.702 7.58968 15.6494 7.69482 15.6494V12.2793C7.69482 12.1188 7.89958 11.9141 8.30908 11.665ZM19.5029 1.88672H19.6606C20.6789 1.88672 21.188 2.85514 21.188 4.79199C21.188 5.10189 21.2406 5.45882 21.3457 5.86279C22.5742 5.65804 23.5426 5.55566 24.251 5.55566H25.6289C25.8558 5.55566 26.0578 5.50586 26.2349 5.40625C26.4175 5.50586 26.6222 5.55566 26.8491 5.55566C26.8989 5.55566 27.1037 5.50586 27.4634 5.40625C28.1219 5.40625 28.5286 5.86279 28.6836 6.77588C28.6836 6.93636 28.4816 7.14111 28.0776 7.39014H25.6289C24.7656 7.39014 23.0308 7.59489 20.4243 8.00439C19.6385 8.00439 19.1792 6.11735 19.0464 2.34326V2.18555L19.5029 1.88672ZM29.4556 9.0752C30.1694 9.32975 30.5264 9.73649 30.5264 10.2954C30.5264 10.8101 30.2192 11.0674 29.605 11.0674H28.8413C28.7362 11.0674 28.6836 11.0148 28.6836 10.9097L28.3848 11.0674H27.1562C26.9294 11.0674 26.7246 11.1172 26.542 11.2168C26.4424 11.2168 26.3926 11.167 26.3926 11.0674L17.9756 11.5239L17.2119 10.6025V10.146C17.2119 9.53174 19.6081 9.22461 24.4004 9.22461L24.7075 9.38232C26.2238 9.17757 27.8065 9.0752 29.4556 9.0752ZM26.8491 11.8311C27.5298 12.1077 27.9393 12.4121 28.0776 12.7441V12.9019C27.9172 15.2482 27.61 16.4214 27.1562 16.4214L23.1802 17.1851V17.3345L23.3296 18.0981H23.4873L27.7705 17.0273C28.3792 17.2874 28.6836 17.6969 28.6836 18.2559V18.4053C28.6836 18.7484 27.1535 19.3101 24.0933 20.0903C24.0933 20.2951 23.8387 20.3975 23.3296 20.3975H23.1802C22.3058 20.3975 21.592 19.1219 21.0386 16.5708V15.9565C24.3035 15.2759 25.936 14.7668 25.936 14.4292V13.9727L25.7783 13.6655C22.8841 14.1746 21.2516 14.4292 20.8809 14.4292C20.2721 14.1746 19.9678 13.7153 19.9678 13.0513C19.9678 12.6418 22.007 12.235 26.0854 11.8311H26.8491ZM45.1943 0.351074C47.1312 0.577962 48.0996 0.987467 48.0996 1.57959V5.09912C48.1328 5.30387 48.2352 5.40625 48.4067 5.40625C48.6558 5.40625 49.472 5.2513 50.8555 4.94141C51.4642 5.20703 51.7686 5.56396 51.7686 6.01221C51.7686 6.54899 50.5981 7.06087 48.2573 7.54785C48.2573 7.64746 48.2048 7.69727 48.0996 7.69727C48.2048 8.0791 48.3071 9.35465 48.4067 11.5239C48.2407 12.033 47.9336 12.2876 47.4854 12.2876C46.6719 12.2876 46.2651 10.6053 46.2651 7.24072V6.93359C46.2651 6.59049 46.2126 6.33594 46.1074 6.16992L46.2651 5.24854V4.33545L46.1074 3.41406C46.2126 3.23698 46.2651 3.03223 46.2651 2.7998C46.2651 2.55078 45.756 2.24642 44.7378 1.88672L44.5801 1.11475V0.815918C44.5801 0.66097 44.7848 0.506022 45.1943 0.351074ZM43.0527 2.7998C43.4401 2.89388 43.7445 3.25081 43.9658 3.87061C43.8662 5.22087 43.8164 6.34424 43.8164 7.24072C43.8164 7.48421 43.8662 8.24788 43.9658 9.53174C43.5951 9.84163 43.2381 9.99658 42.895 9.99658C42.6958 9.99658 42.5962 9.94401 42.5962 9.83887L41.5254 9.99658H38.7695L37.8481 10.146C36.6252 10.146 36.0137 9.02262 36.0137 6.77588V5.24854C36.0137 3.8208 36.3208 3.10693 36.9351 3.10693C37.2671 3.31169 37.5715 3.41406 37.8481 3.41406C40.1558 3.00456 41.8906 2.7998 43.0527 2.7998ZM37.8481 5.70508L38.0059 7.54785V8.00439C38.0335 8.20915 38.1331 8.31152 38.3047 8.31152H41.0605C41.3372 8.31152 41.6444 8.20915 41.9819 8.00439L41.8242 7.24072V5.09912L41.6748 4.79199C39.3008 5.17383 38.0252 5.47819 37.8481 5.70508ZM40.604 11.6733H41.3677C41.9819 11.6733 42.2891 12.7967 42.2891 15.0435V15.5L42.4385 15.8071C43.4567 15.7075 44.2231 15.6577 44.7378 15.6577H46.4146C46.9292 15.6577 47.2861 15.9123 47.4854 16.4214V16.8779C47.4854 17.387 46.16 17.6416 43.5093 17.6416C43.5093 17.8464 42.848 17.9487 41.5254 17.9487C40.7064 17.9487 40.2969 16.7257 40.2969 14.2798C40.2969 14.0308 40.2471 13.2643 40.1475 11.9805L40.604 11.6733ZM56.3716 1.86182H58.8203C59.3737 1.86182 59.7334 2.06657 59.8994 2.47607V3.09033C59.8994 3.24528 59.6947 3.39746 59.2852 3.54688L58.2144 3.39746C57.5116 3.49707 56.9499 3.54688 56.5293 3.54688C55.9925 3.54688 55.5332 3.24251 55.1514 2.63379V2.32666C55.2122 2.01676 55.619 1.86182 56.3716 1.86182ZM64.6475 2.7832H64.9463C67.0934 3.01009 68.167 3.36702 68.167 3.854C68.2666 7.57829 68.369 9.77523 68.4741 10.4448H70.0015C70.1619 10.4448 70.3667 10.6496 70.6157 11.0591V11.5156C70.6157 11.8255 69.9019 12.0801 68.4741 12.2793V12.437C68.5737 14.3185 68.6235 15.9012 68.6235 17.1851V17.791C68.6235 17.9515 68.4215 18.1562 68.0176 18.4053C67.1986 18.3278 66.7891 17.9709 66.7891 17.3345C66.5843 8.757 66.3796 4.46826 66.1748 4.46826C65.4222 4.46826 64.8107 4.11133 64.3403 3.39746V3.09033C64.368 2.88558 64.4704 2.7832 64.6475 2.7832ZM62.041 5.08252C62.6553 5.32048 62.9624 5.67741 62.9624 6.15332C62.9624 6.66243 61.5319 6.91699 58.6709 6.91699H53.1592C52.3402 6.79525 51.9307 6.49089 51.9307 6.00391C51.9307 5.48926 52.9517 5.23193 54.9937 5.23193H61.1196L62.041 5.08252ZM57.9072 8.45264C60.5579 8.85107 61.8833 9.8195 61.8833 11.3579C61.8833 12.8133 60.9149 13.8869 58.978 14.5786H58.8203C58.8203 15.8016 59.0776 16.4131 59.5923 16.4131C61.3465 16.3135 62.3675 16.2637 62.6553 16.2637C63.1201 16.4629 63.3747 16.6676 63.4189 16.8779V17.3345C63.4189 17.9598 61.377 18.3167 57.293 18.4053C57.293 18.5104 56.5265 18.563 54.9937 18.563C53.9422 18.563 53.1758 18.2061 52.6943 17.4922C52.8382 16.9775 53.1951 16.7202 53.7651 16.7202H56.6787L57.4424 16.5708C57.4424 15.0379 57.1878 14.2715 56.6787 14.2715C55.0462 13.7126 54.23 12.7414 54.23 11.3579C54.23 10.1349 54.7917 9.52344 55.915 9.52344C55.915 9.04753 56.5791 8.69059 57.9072 8.45264ZM55.915 11.5156V11.8228C55.915 12.2599 56.4242 12.6169 57.4424 12.8936H58.3638C59.4871 12.6611 60.0488 12.0994 60.0488 11.2085V10.9014C59.6891 10.2871 59.2298 9.97998 58.6709 9.97998H58.0566C57.3815 9.97998 56.6676 10.4919 55.915 11.5156ZM83.3535 0.019043C84.001 0.019043 84.7176 0.683105 85.5034 2.01123C86.5272 2.34326 87.0391 3.05713 87.0391 4.15283C87.2383 6.6486 87.3379 8.0293 87.3379 8.29492C87.1387 11.5654 87.0391 14.4264 87.0391 16.8779V17.1851C87.0391 17.3455 86.8343 17.5503 86.4248 17.7993H86.2671C85.7137 17.7993 85.3042 17.542 85.0386 17.0273C85.0386 16.1696 85.141 13.1038 85.3457 7.83008C85.3457 5.01888 84.939 3.4362 84.1255 3.08203C83.2013 2.10254 82.7393 1.3361 82.7393 0.782715V0.475586C82.7393 0.221029 82.944 0.0688477 83.3535 0.019043ZM77.2275 2.01123C78.7936 2.01123 80.0194 2.92985 80.9048 4.76709V5.83789C80.9048 7.91309 79.8312 9.29378 77.6841 9.97998H76.9204C75.2769 9.97998 73.6914 9.26335 72.1641 7.83008C71.9593 7.45931 71.8569 7.05257 71.8569 6.60986C72.0617 5.32601 72.6759 4.19987 73.6997 3.23145C74.8231 2.41797 75.999 2.01123 77.2275 2.01123ZM73.8491 6.91699C74.1424 7.43164 75.1662 7.89095 76.9204 8.29492C78.3481 7.80794 79.062 6.88656 79.062 5.53076V5.22363C79.062 4.33268 78.3979 3.82357 77.0698 3.69629C74.9227 4.10026 73.8491 5.17383 73.8491 6.91699ZM83.8184 11.3579C84.2832 11.5571 84.5378 11.7619 84.582 11.9722V12.4287C84.582 13.0762 82.897 13.4359 79.5269 13.5078C78.8628 13.5078 77.839 13.4552 76.4556 13.3501C73.7163 13.5549 72.0312 13.6572 71.4004 13.6572C71.4004 13.6019 71.1956 13.3473 70.7861 12.8936V12.4287C70.7861 11.9915 72.4214 11.6872 75.6919 11.5156C76.9425 11.6152 78.1683 11.665 79.3691 11.665H79.6763C80.4731 11.665 81.8538 11.5627 83.8184 11.3579ZM103.384 0.193359H103.542C105.888 0.625 107.061 1.08431 107.061 1.57129V1.7207C107.061 2.60059 107.008 4.33545 106.903 6.92529C107.008 9.1167 107.061 10.6468 107.061 11.5156C106.895 12.0247 106.588 12.2793 106.14 12.2793C105.559 12.2793 105.202 11.7204 105.069 10.6025V6.46875C105.069 5.60547 105.121 4.32992 105.227 2.64209C103.893 2.0887 103.126 1.57682 102.927 1.10645V0.649902C102.927 0.500488 103.079 0.348307 103.384 0.193359ZM97.8721 0.649902C98.4863 0.799316 98.7935 1.20882 98.7935 1.87842V2.7915C98.7935 3.20101 98.6911 3.86507 98.4863 4.78369C99.5101 5.80192 100.786 6.82292 102.313 7.84668C102.518 8.17871 102.62 8.43327 102.62 8.61035C102.465 9.01986 102.313 9.22461 102.164 9.22461H101.856C101.181 9.22461 99.7536 8.25342 97.5732 6.31104H97.4155C96.7847 6.73714 95.6641 7.60596 94.0537 8.91748H93.4395C93.1683 8.91748 92.9635 8.56055 92.8252 7.84668C92.8252 7.63086 93.7936 6.76204 95.7305 5.24023C96.7542 4.37142 97.2661 3.30062 97.2661 2.02783V1.26416C97.2661 1.15902 97.4681 0.954264 97.8721 0.649902ZM97.1084 11.6733H97.7227C98.1709 11.6733 98.5804 13.1509 98.9512 16.106H99.1006C103.749 15.8016 106.198 15.6494 106.447 15.6494C106.751 16.0202 106.903 16.3771 106.903 16.7202V17.0273C106.903 17.2044 106.599 17.459 105.99 17.791C105.885 17.791 105.833 17.7412 105.833 17.6416C101.212 18.0456 98.5085 18.2476 97.7227 18.2476C97.2744 18.2476 96.9175 16.2083 96.6519 12.1299C96.6519 11.9805 96.804 11.8283 97.1084 11.6733ZM118.579 0.317871C120.493 1.24202 121.564 1.7041 121.791 1.7041C122.201 2.05827 122.405 2.4152 122.405 2.7749V4.76709C122.438 4.97184 122.541 5.07422 122.712 5.07422H124.397C125.216 5.15169 125.626 5.50863 125.626 6.14502C125.471 6.55452 125.319 6.75928 125.169 6.75928H123.02L122.256 6.91699C122.189 10.7962 121.932 12.7358 121.484 12.7358H120.878C120.363 12.5034 120.106 12.0441 120.106 11.3579C120.106 8.71826 120.208 6.93083 120.413 5.99561C120.413 5.89046 120.363 5.83789 120.264 5.83789L120.413 4.76709V3.23145C120.413 3.1263 119.647 2.66699 118.114 1.85352L117.807 1.39697V0.475586L118.579 0.317871ZM114.279 2.61719C114.417 2.61719 114.674 2.87451 115.051 3.38916C115.051 3.96468 114.232 5.49756 112.594 7.98779L116.279 10.4365L116.429 10.7437L116.279 11.5156H115.507C115.004 11.5156 113.676 10.799 111.523 9.36572H111.374C109.852 10.5942 108.778 11.2085 108.153 11.2085C107.743 11.2085 107.436 11.0037 107.231 10.5942V10.4365C107.231 9.85547 107.846 9.34635 109.074 8.90918C111.321 6.59603 112.444 5.06315 112.444 4.31055H112.287C112.01 4.31055 110.837 4.41292 108.767 4.61768C108.496 4.58447 108.239 4.32715 107.995 3.8457C107.995 3.02669 109.581 2.61719 112.751 2.61719H114.279ZM119.185 13.9644C119.904 14.2189 120.264 14.6284 120.264 15.1929V20.4058C120.264 20.9315 120.109 21.2358 119.799 21.3188H119.035C118.526 21.0588 118.271 20.652 118.271 20.0986V16.2637L118.114 15.9565C116.426 16.0617 115.148 16.1143 114.279 16.1143H111.216C110.607 16.1143 110.198 15.8071 109.987 15.1929C110.131 14.6782 110.491 14.4209 111.066 14.4209C112.998 14.4209 115.704 14.2687 119.185 13.9644Z" fill="#222222"/>
</svg>
