<svg width="143" height="24" viewBox="0 0 143 24" fill="none" xmlns="http://www.w3.org/2000/svg">
    <g clip-path="url(#clip0_3298_77301)">
        <path d="M4.32999 5.025H5.76999C7.36999 5.025 8.16999 5.985 8.16999 7.915C8.32999 7.915 8.41999 8.475 8.41999 9.595V13.685C8.41999 13.935 8.09999 14.255 7.44999 14.655H6.72999C5.92999 14.245 5.52999 13.605 5.52999 12.735V11.045C5.52999 10.885 5.60999 10.805 5.77999 10.805C5.61999 10.495 5.52999 10.255 5.52999 10.085C5.52999 9.925 5.60999 9.845 5.77999 9.845L5.52999 8.645V7.925H5.28999C3.12999 8.245 1.76999 8.395 1.19999 8.395H0.94999C0.46999 8.395 0.14999 7.755 -0.0100098 6.475C0.14999 6.475 0.22999 6.395 0.22999 6.235C0.0699902 6.235 -0.0100098 6.155 -0.0100098 5.995C2.25999 5.355 3.69999 5.025 4.31999 5.025H4.32999ZM13.22 4.555C14.34 4.555 14.91 6.075 14.91 9.125C15.07 9.125 15.15 9.205 15.15 9.365L16.35 9.125H17.55V7.675C17.55 7.315 17.47 6.995 17.3 6.715C17.3 5.755 17.78 5.275 18.75 5.275H19.22C19.55 5.345 19.88 5.745 20.19 6.475C20.19 6.635 20.11 6.725 19.94 6.725C20.74 10.995 21.14 13.635 21.14 14.665C20.92 15.785 20.6 16.355 20.18 16.355H19.21C18.73 16.355 18.33 14.835 18.01 11.785L16.81 12.025H15.36C15.36 12.425 15.52 13.465 15.84 15.155H15.6L15.84 15.625V15.875C15.42 16.715 14.94 17.195 14.4 17.315C13.3 17.315 12.66 15.075 12.48 10.585C12.32 10.275 12.24 10.035 12.24 9.865H12.48C12.16 9.055 12 7.605 12 5.535C12.16 4.895 12.57 4.575 13.2 4.575L13.22 4.555Z"
              fill="#222222"/>
        <path d="M22.94 0.215C26.95 0.735 28.95 1.045 28.95 1.175L29.43 0.935H31.35C33.59 1.355 34.72 3.195 34.72 6.465C34.41 7.195 34.09 7.595 33.76 7.665H33.28C32.7 7.665 32.22 6.225 31.84 3.345C31.52 3.345 31.36 3.265 31.36 3.095L30.88 3.345H30.64C30.48 3.345 30.39 3.265 30.39 3.095C29.43 3.305 28.95 3.545 28.95 3.815V6.705C28.95 7.665 28.47 8.145 27.51 8.145C26.87 7.565 26.55 6.925 26.55 6.225V3.095C23.66 2.775 22.22 2.385 22.22 1.895V0.455C22.39 0.455 22.63 0.375 22.94 0.215ZM24.14 9.115C24.98 9.275 25.46 9.355 25.58 9.355C30.51 9.195 33.88 9.115 35.69 9.115L36.41 10.075V10.795C36.41 11.025 36.17 11.265 35.69 11.515H31.12V12.235L31.36 13.925H32.8C34.08 13.925 34.72 14.645 34.72 16.085V17.525C34.72 19.455 32.64 20.415 28.47 20.415V20.885C30.29 21.205 31.57 21.365 32.31 21.365H33.76C33.99 21.365 34.23 21.605 34.48 22.085V22.335C33.98 23.295 33.02 23.775 31.59 23.775C28.8 23.775 26.87 22.575 25.82 20.165C26.22 18.885 27.03 18.235 28.23 18.235C30.87 18.075 32.32 17.595 32.56 16.795V16.075C28.93 16.235 26.69 16.325 25.82 16.325L25.1 15.355L25.35 14.155H28L29.2 13.915L28.95 13.435V11.755H26.79C24.55 11.755 23.42 11.195 23.42 10.065L24.14 9.105V9.115Z"
              fill="#222222"/>
        <path d="M38.9 1.445H43.7C43.95 1.445 44.27 1.765 44.67 2.405V3.605C44.67 4.405 44.51 4.805 44.19 4.805L44.43 5.285V6.005L44.19 6.475C45.33 7.165 46.53 7.965 47.79 8.885V9.125L47.54 10.325L47.07 10.075V10.555H45.87C44.36 9.435 43.56 8.875 43.47 8.875C42.85 10.315 42.3 11.115 41.79 11.275H40.82C40.35 11.115 40.11 10.635 40.11 9.835C41.23 8.145 41.95 6.225 42.26 4.065L41.79 3.825H41.07C40.53 3.825 40.13 3.905 39.87 4.065L37.47 3.595V2.875C37.47 1.915 37.95 1.435 38.91 1.435L38.9 1.445ZM50.67 13.925H53.07C54.35 13.925 54.99 15.045 54.99 17.295V17.535C54.99 20.365 54.51 21.965 53.55 22.345C52.13 22.665 50.53 22.905 48.75 23.065C46.83 22.295 45.87 20.855 45.87 18.745C45.39 17.435 45.15 16.315 45.15 15.375C45.63 14.755 45.87 14.365 45.87 14.175C48.03 14.015 49.63 13.925 50.68 13.925H50.67ZM47.79 16.575V16.815C48.43 19.375 48.91 20.655 49.23 20.655C51.31 20.295 52.35 19.975 52.35 19.695V16.575L51.15 16.335C49.79 16.495 48.67 16.575 47.79 16.575ZM55.23 1.445H55.95C56.81 1.445 57.61 4.325 58.35 10.085V10.805C58.19 11.445 57.71 11.775 56.91 11.775H56.19C55.87 10.595 55.63 9.155 55.47 7.455H54.51L52.82 7.695L53.07 8.895V10.335C53.07 10.585 52.75 10.905 52.11 11.295C50.99 11.295 50.42 10.175 50.42 7.925L49.46 2.885C49.77 2.155 50.09 1.755 50.42 1.685C51.19 1.685 51.91 2.885 52.58 5.285C52.58 5.125 53.46 5.045 55.23 5.045C54.75 3.535 54.51 2.655 54.51 2.395C54.75 1.755 54.99 1.435 55.23 1.435V1.445Z"
              fill="#222222"/>
        <path d="M62.29 2.855H63.73C64.53 2.855 65.25 4.055 65.89 6.465C65.89 7.745 64.85 9.195 62.76 10.795V13.685C62.6 13.685 62.52 13.845 62.52 14.155H61.55C61.02 14.155 60.62 12.955 60.35 10.555C60.35 9.855 61.39 8.725 63.47 7.175L63.72 6.705C63.51 5.255 63.11 4.535 62.52 4.535C61.68 4.765 60.88 5.245 60.11 5.975C59.88 5.975 59.64 5.735 59.39 5.255V5.015C59.39 4.325 60.35 3.595 62.28 2.845L62.29 2.855ZM63.01 15.615C64.62 15.615 65.42 16.255 65.42 17.535V18.495C65 19.465 64.12 19.945 62.77 19.945C61.81 19.495 61.33 18.855 61.33 18.015V17.775C61.33 16.805 61.89 16.085 63.02 15.615H63.01Z"
              fill="#222222"/>
        <path d="M71.92 3.115C73.29 3.275 74.41 3.355 75.29 3.355H75.54C75.7 3.355 75.78 3.435 75.78 3.605L76.26 3.355C77.22 3.685 77.7 4.005 77.7 4.325C77.7 5.335 77.38 6.785 76.73 8.645C78.22 9.815 79.03 10.615 79.14 11.055C78.82 11.455 78.66 11.855 78.66 12.255H77.7C77.54 12.255 76.73 11.615 75.29 10.335C74.63 11.615 73.83 12.255 72.89 12.255C72.89 12.095 72.81 12.015 72.64 12.015C72.64 12.175 72.56 12.255 72.4 12.255L71.92 10.575C74.11 8.135 75.23 6.455 75.29 5.525H75.05C72.33 5.425 70.96 5.025 70.96 4.325V3.845C70.96 3.605 71.28 3.365 71.92 3.125V3.115ZM81.54 3.595H82.99C83.56 3.595 83.96 5.195 84.19 8.405V9.125C84.49 9.125 85.46 8.965 87.07 8.645C87.73 8.965 88.21 9.125 88.52 9.125V9.845C88.52 10.425 87.24 10.905 84.67 11.285C84.51 11.525 84.43 12.005 84.43 12.725L83.95 12.485V12.955H84.43V13.205H83.95V13.675L84.67 13.205V15.125L84.19 16.815C83.42 16.815 82.7 16.415 82.03 15.615C82.03 15.445 82.11 15.205 82.27 14.895C82.11 10.655 81.87 6.895 81.55 3.605L81.54 3.595Z"
              fill="#222222"/>
        <path d="M92.45 1.435H92.93C93.57 1.755 93.89 2.235 93.89 2.875C93.57 4.075 93.42 4.795 93.42 5.035C95 6.145 96.52 7.665 97.98 9.595C97.66 10.565 97.34 11.045 97.02 11.045H96.54C96.21 11.045 95.01 9.845 92.94 7.435H92.7C92.11 9.665 91.63 10.785 91.25 10.805H91.01C90.05 10.805 89.57 10.485 89.57 9.845C90.91 4.235 91.87 1.435 92.45 1.435ZM95.82 14.175C96.52 14.175 97.08 15.295 97.51 17.545C97.83 17.545 97.98 17.625 97.98 17.785L98.46 17.545C98.62 17.545 98.7 17.625 98.7 17.785L99.18 17.545H101.83C102.31 17.705 102.55 18.185 102.55 18.985C102.39 19.465 102.23 19.705 102.07 19.705C101.59 19.705 100.55 19.865 98.95 20.185C96.23 20.185 94.86 19.145 94.86 17.055V15.615C94.86 14.655 95.18 14.175 95.82 14.175ZM102.07 3.115H102.55C103.19 3.115 103.59 4.555 103.75 7.435C103.59 7.745 103.5 7.985 103.5 8.155C103.66 8.465 103.75 8.705 103.75 8.875H103.5C103.62 9.235 103.78 10.285 103.98 12.005C103.66 12.525 103.5 12.925 103.5 13.205H103.03C101.91 13.205 101.34 12.245 101.34 10.315V5.505C101.34 5.145 101.26 4.825 101.1 4.545C101.48 3.585 101.79 3.105 102.06 3.105L102.07 3.115Z"
              fill="#222222"/>
        <path d="M108.41 0.234998C108.57 0.234998 108.65 0.314998 108.65 0.474998L109.13 0.234998H109.37C112.09 1.385 113.46 3.065 113.46 5.275H113.22L113.46 5.755V5.995C113.46 7.755 112.18 8.805 109.62 9.125C107.25 9.125 105.73 7.525 105.05 4.315V3.345C105.05 1.935 106.17 0.894998 108.42 0.224998L108.41 0.234998ZM107.45 4.325C107.45 5.125 108.25 5.925 109.85 6.725C110.65 6.465 111.05 5.985 111.05 5.285C110.62 3.525 109.82 2.635 108.64 2.635C107.84 2.855 107.44 3.425 107.44 4.325H107.45ZM118.26 13.455H118.74C118.74 14.415 120.18 16.335 123.06 19.215C123.22 19.495 123.31 19.815 123.31 20.185V20.665C123.31 20.985 123.15 21.135 122.83 21.135H121.63L118.75 18.485C118.54 20.575 118.23 21.615 117.79 21.615H116.34C116.02 21.615 115.87 21.135 115.87 20.175L115.15 20.655H113.95L111.54 18.005C111.54 18.645 111.46 18.965 111.3 18.965C111.46 19.275 111.54 19.515 111.54 19.685C111.32 20.485 110.76 20.885 109.86 20.885H109.38C109.06 20.885 108.91 20.645 108.91 20.165C108.91 15.995 109.31 13.915 110.11 13.915H111.31C111.31 14.235 112.03 14.955 113.47 16.075C114.91 17.775 115.63 18.975 115.63 19.675C116.03 19.675 116.43 17.755 116.83 13.905C117.36 13.585 117.84 13.425 118.27 13.425L118.26 13.455ZM120.18 1.195C120.66 1.195 121.22 3.755 121.87 8.885V9.605C121.87 9.925 121.71 10.085 121.39 10.085H120.67C119.55 10.085 118.98 8.965 118.98 6.715C118.66 4.785 118.51 3.265 118.51 2.155C118.77 1.515 119.33 1.185 120.19 1.185L120.18 1.195Z"
              fill="#222222"/>
        <path d="M127.49 5.765C127.49 6.085 128.37 6.325 130.13 6.485C131.21 7.425 131.94 8.865 132.3 10.805C131.66 12.725 130.69 13.685 129.41 13.685H128.69C125.81 13.085 124.37 11.475 124.37 8.875C124.79 7.455 125.43 6.575 126.29 6.235C126.81 5.915 127.21 5.755 127.49 5.755V5.765ZM126.77 8.645V9.125C126.98 10.565 127.7 11.285 128.93 11.285H129.4L130.12 10.805C129.75 9.205 128.95 8.405 127.72 8.405L126.76 8.645H126.77ZM137.34 5.045C138.14 5.495 138.54 6.135 138.54 6.965C138.54 7.125 138.46 7.205 138.29 7.205C138.45 8.205 138.69 11.165 139.01 16.095C138.85 16.405 138.77 16.645 138.77 16.815H138.05L136.85 16.575C136.69 13.565 136.53 11.725 136.38 11.045H132.53V10.075C132.53 9.115 133.17 8.635 134.45 8.635H136.37L136.12 6.955V6.235C136.12 6.015 136.52 5.615 137.32 5.035L137.34 5.045Z"
              fill="#222222"/>
        <path d="M140.79 1.655H141.51C141.83 1.985 142.15 4.865 142.48 10.315L141.51 11.035H141.27C140.85 11.035 140.53 10.395 140.3 9.115V6.715L140.06 5.265C140.06 5.105 140.14 5.025 140.3 5.025L140.06 3.825V2.385C140.06 2.155 140.3 1.915 140.78 1.665L140.79 1.655ZM142.23 12.725C142.72 13.655 142.96 14.215 142.96 14.415C142.72 15.055 142.48 15.375 142.23 15.375C141.27 15.375 140.79 14.895 140.79 13.935C140.89 13.455 141.37 13.055 142.23 12.735V12.725Z"
              fill="#222222"/>
    </g>
    <defs>
        <clipPath id="clip0_3298_77301">
            <rect width="142.97" height="23.57" fill="white" transform="translate(0 0.215)"/>
        </clipPath>
    </defs>
</svg>
