<svg width="144" height="24" viewBox="0 0 144 24" fill="none" xmlns="http://www.w3.org/2000/svg">
    <g clip-path="url(#clip0_3298_77311)">
        <path d="M6.85004 9.02498V8.56498C6.85004 6.61498 6.82004 6.16498 6.80004 6.00498C6.76004 5.65498 6.55004 5.41498 6.21004 5.32498H6.13004C5.88004 5.25498 5.13004 5.17498 2.15004 5.19498C1.43004 5.21498 0.99004 5.22498 0.83004 5.24498C0.63004 5.26498 0.45004 5.35498 0.30004 5.50498C-0.0599599 5.86498 -0.0999599 6.27498 0.19004 6.63498C0.32004 6.79498 0.57004 6.87498 0.99004 6.91498C1.34004 6.94498 2.07004 6.97498 3.23004 7.01498C4.22004 7.04498 4.61004 7.07498 4.76004 7.09498C4.81004 7.32498 4.89004 8.10498 4.89004 10.775C4.89004 15.105 5.04004 15.385 5.11004 15.525C5.21004 15.715 5.43004 15.925 5.87004 15.925C5.92004 15.925 5.97004 15.925 6.02004 15.925C6.55004 15.875 6.80004 15.605 6.91004 15.395C7.00004 15.245 7.08004 14.905 6.90004 12.815C6.85004 12.315 6.84004 11.045 6.85004 9.02498Z"
              fill="#222222"/>
        <path d="M15.11 5.585C15.15 4.985 15.13 4.775 15.05 4.665C14.99 4.555 14.87 4.435 14.61 4.405C14.44 4.385 14.28 4.405 14.14 4.445C13.79 4.585 13.55 4.925 13.43 5.435C13.32 5.885 13.24 6.705 13.17 7.925C13.15 8.355 13.13 8.585 13.12 8.705C12.95 8.745 12.57 8.815 11.7 8.965C11.17 9.055 10.91 9.075 10.79 9.085C10.77 8.875 10.75 8.365 10.72 7.145C10.68 5.485 10.63 5.115 10.58 4.955C10.52 4.795 10.36 4.605 9.93999 4.605C9.53999 4.605 9.23999 4.785 9.04999 5.135C8.88999 5.435 8.78999 5.885 8.75999 6.535C8.73999 7.025 8.75999 7.805 8.77999 8.855C8.80999 9.925 8.84999 10.655 8.89999 11.075C8.94999 11.475 8.98999 11.925 9.01999 12.415C9.11999 13.775 9.22999 14.635 9.35999 15.015C9.54999 15.615 9.95999 15.745 10.26 15.745C10.5 15.745 10.72 15.655 10.89 15.475C11.05 15.315 11.13 15.135 11.14 14.915C11.14 14.815 11.14 14.495 11.03 12.945C10.92 11.625 10.92 11.145 10.93 10.975C11.03 10.945 11.26 10.875 11.79 10.775C12.55 10.625 12.81 10.615 12.92 10.625H13.03L13.06 10.995C13.09 11.385 13.11 11.755 13.11 12.115C13.24 15.225 13.47 15.945 13.63 16.215C13.85 16.575 14.11 16.675 14.32 16.675C14.48 16.675 14.62 16.615 14.7 16.575C15.03 16.415 15.22 16.195 15.28 15.935C15.31 15.805 15.34 15.505 15.28 14.505C15.04 11.715 14.99 8.715 15.14 5.595L15.11 5.585Z"
              fill="#222222"/>
        <path d="M28.6501 7.415C28.4701 7.385 28.1601 7.395 27.7101 7.415C27.1801 7.445 26.7701 7.475 26.4801 7.515C26.4601 7.515 26.4201 7.515 26.3801 7.525C26.7701 7.265 26.9601 6.635 26.9601 5.665C26.9601 5.245 26.9901 4.845 27.0501 4.455C27.1601 3.745 27.2301 3.275 27.2701 3.035C27.3501 2.515 27.4201 2.145 27.4801 1.945C27.6201 1.525 27.6001 1.195 27.4301 0.964998C27.2601 0.734998 26.9501 0.604998 26.5101 0.584998C26.0301 0.564998 25.9301 0.574998 25.8601 0.594998C25.7501 0.604998 25.2601 0.634998 23.0701 0.654998C21.5101 0.654998 20.6101 0.674998 20.3301 0.704998C19.8601 0.764998 19.6801 1.015 19.6201 1.195C19.5001 1.485 19.5601 1.695 19.6201 1.815C19.7501 2.045 20.0201 2.195 20.4701 2.265C20.6301 2.285 20.8801 2.325 21.2201 2.385C21.5201 2.435 22.2801 2.445 23.5301 2.425C24.7001 2.405 25.1401 2.405 25.2801 2.415C25.2801 2.465 25.2901 2.535 25.2801 2.665C25.2801 2.915 25.2401 3.195 25.1801 3.485C25.1001 3.855 25.0901 3.985 25.1101 4.085C25.1101 4.085 25.1301 4.325 25.0301 5.395C24.9401 6.595 24.9901 6.965 25.0301 7.135C25.0701 7.275 25.1601 7.475 25.4001 7.595C25.0301 7.605 24.5401 7.625 23.8901 7.635C22.3501 7.685 21.3001 7.735 20.7601 7.775C20.1401 7.825 19.4701 7.825 18.7801 7.775C18.1001 7.725 17.6301 7.745 17.3501 7.845C17.0001 7.965 16.8101 8.245 16.8101 8.625C16.8101 9.455 18.1401 9.565 18.5701 9.605C19.6001 9.695 21.3901 9.645 23.8801 9.475C24.0201 9.475 24.1101 9.475 24.1701 9.475C24.1601 9.555 24.1401 9.675 24.1001 9.875C24.0001 10.325 23.9701 10.805 24.0201 11.295C24.0501 11.595 24.0601 11.775 24.0701 11.875C23.9401 11.895 23.6801 11.925 23.1701 11.955C22.4101 12.005 21.8401 12.065 21.4401 12.155C21.1101 12.215 20.8201 12.265 20.5501 12.295C20.1201 12.375 19.8301 12.645 19.7301 13.065C19.6201 13.505 19.8001 13.865 20.2401 14.045C20.3401 14.075 20.5401 14.105 21.2801 14.075C21.8301 14.055 22.2201 14.015 22.4701 13.945C22.9001 13.825 23.4701 13.745 24.1601 13.705C24.6701 13.675 24.9201 13.685 25.0301 13.705C25.0201 13.765 24.9901 13.855 24.9501 13.995C24.8701 14.255 24.8001 14.485 24.7501 14.675C24.7201 14.785 24.6901 14.815 24.6501 14.825C24.6001 14.845 24.4001 14.905 23.7401 14.965C23.2401 15.005 22.8601 15.015 22.6201 15.005C21.6801 14.905 21.0201 14.895 20.5901 14.955C19.9401 15.045 19.5201 15.285 19.3401 15.675C19.2201 15.925 19.1301 16.405 19.8301 16.795L20.0101 16.895V18.015C20.0101 18.355 20.0101 18.625 20.0201 18.815C20.0201 19.015 20.0501 19.225 20.0801 19.435C20.1201 19.655 20.1501 19.815 20.1901 19.915C20.2301 20.045 20.3101 20.175 20.4401 20.305C20.5601 20.425 20.7001 20.515 20.8401 20.555C20.9601 20.595 21.1301 20.625 21.3301 20.645C21.4801 20.665 21.6401 20.675 21.7901 20.675C21.8401 20.675 21.8901 20.675 21.9401 20.675C22.1301 20.675 22.3901 20.655 22.7101 20.635C23.4201 20.605 24.1401 20.515 24.8501 20.395C25.6001 20.265 26.1101 20.175 26.3701 20.125C26.4501 20.105 26.5501 20.085 26.6801 20.065C26.7901 20.045 26.8501 20.035 26.9001 20.035C27.0701 20.005 27.2401 19.905 27.4001 19.725C27.5601 19.535 27.6401 19.365 27.6401 19.185C27.6401 18.935 27.5401 18.725 27.3601 18.575C26.9601 18.255 26.1801 18.235 24.9201 18.515C24.3501 18.625 23.6501 18.705 22.8301 18.745C22.2201 18.755 21.9701 18.735 21.8801 18.715C21.8701 18.625 21.8601 18.395 21.9301 17.825C21.9301 17.765 21.9301 17.685 21.9501 17.565C22.0001 17.035 22.0801 16.925 22.0701 16.925C22.0701 16.925 22.2101 16.855 22.8301 16.835H23.1501C23.9701 16.805 24.4801 16.765 24.6801 16.715C24.8101 16.695 25.1201 16.645 25.6101 16.545C26.1801 16.435 26.5601 16.235 26.7801 15.935C26.9501 15.695 27.0901 15.315 26.7501 14.815C26.6601 14.675 26.6501 14.615 26.6501 14.615C26.6501 14.595 26.6601 14.495 26.8001 14.075C27.0701 13.305 27.1001 12.755 26.8901 12.375C26.7501 12.125 26.5201 11.975 26.2001 11.895C26.0201 11.865 25.9201 11.835 25.8801 11.815C25.8701 11.745 25.8501 11.585 25.8301 11.225C25.8301 10.875 25.8601 10.485 25.9201 10.065C25.9801 9.685 26.0201 9.525 26.0401 9.465C26.1001 9.455 26.2401 9.425 26.5101 9.405C26.8701 9.365 27.2101 9.345 27.5001 9.345C28.0701 9.345 28.5501 9.185 28.9101 8.865C29.5001 8.345 29.2501 7.875 29.0901 7.675C28.9601 7.545 28.7801 7.455 28.5701 7.425L28.6501 7.415Z"
              fill="#222222"/>
        <path d="M36.66 9.02498V8.56498C36.66 6.61498 36.63 6.16498 36.61 6.00498C36.57 5.65498 36.36 5.41498 36.02 5.32498H35.94C35.69 5.25498 34.94 5.17498 31.96 5.19498C31.24 5.21498 30.8 5.22498 30.64 5.24498C30.44 5.26498 30.26 5.35498 30.11 5.50498C29.75 5.86498 29.71 6.27498 30 6.63498C30.13 6.79498 30.38 6.87498 30.8 6.91498C31.15 6.94498 31.88 6.97498 33.04 7.01498C34.03 7.04498 34.42 7.07498 34.57 7.09498C34.62 7.32498 34.7 8.10498 34.7 10.775C34.7 15.105 34.85 15.385 34.92 15.525C35.02 15.715 35.24 15.925 35.68 15.925C35.73 15.925 35.78 15.925 35.83 15.925C36.36 15.875 36.61 15.605 36.72 15.395C36.81 15.245 36.89 14.905 36.71 12.815C36.66 12.315 36.65 11.045 36.66 9.02498Z"
              fill="#222222"/>
        <path d="M44.91 5.585C44.95 4.985 44.93 4.775 44.85 4.665C44.79 4.555 44.67 4.435 44.41 4.405C44.24 4.385 44.08 4.405 43.94 4.445C43.59 4.585 43.35 4.925 43.23 5.435C43.12 5.885 43.04 6.705 42.97 7.925C42.95 8.355 42.93 8.585 42.92 8.705C42.75 8.745 42.37 8.815 41.5 8.965C40.97 9.055 40.71 9.075 40.59 9.085C40.57 8.875 40.55 8.365 40.52 7.145C40.48 5.485 40.43 5.115 40.38 4.955C40.32 4.795 40.16 4.605 39.74 4.605C39.34 4.605 39.04 4.785 38.85 5.135C38.69 5.435 38.59 5.885 38.56 6.535C38.54 7.025 38.56 7.805 38.58 8.855C38.61 9.925 38.65 10.655 38.7 11.075C38.75 11.475 38.79 11.925 38.82 12.415C38.92 13.775 39.03 14.635 39.16 15.015C39.35 15.615 39.76 15.745 40.06 15.745C40.3 15.745 40.52 15.655 40.69 15.475C40.85 15.315 40.93 15.135 40.94 14.915C40.94 14.815 40.94 14.495 40.83 12.945C40.72 11.625 40.72 11.145 40.73 10.975C40.83 10.945 41.06 10.875 41.59 10.775C42.35 10.625 42.61 10.615 42.72 10.625H42.83L42.86 10.995C42.89 11.385 42.91 11.755 42.91 12.115C43.04 15.225 43.27 15.945 43.43 16.215C43.65 16.575 43.91 16.675 44.12 16.675C44.28 16.675 44.42 16.615 44.5 16.575C44.83 16.415 45.02 16.195 45.08 15.935C45.11 15.805 45.14 15.505 45.08 14.505C44.84 11.715 44.79 8.715 44.94 5.595L44.91 5.585Z"
              fill="#222222"/>
        <path d="M58.45 7.415C58.27 7.385 57.96 7.395 57.51 7.415C56.98 7.445 56.57 7.475 56.28 7.515C56.26 7.515 56.22 7.515 56.18 7.525C56.57 7.265 56.76 6.635 56.76 5.665C56.76 5.245 56.79 4.845 56.85 4.455C56.96 3.745 57.03 3.275 57.07 3.035C57.15 2.515 57.22 2.145 57.28 1.945C57.42 1.525 57.4 1.195 57.23 0.964998C57.06 0.734998 56.75 0.604998 56.31 0.584998C55.83 0.564998 55.73 0.574998 55.66 0.594998C55.55 0.604998 55.06 0.634998 52.87 0.654998C51.31 0.654998 50.41 0.674998 50.13 0.704998C49.66 0.764998 49.48 1.015 49.42 1.195C49.3 1.485 49.36 1.695 49.42 1.815C49.55 2.045 49.82 2.195 50.27 2.265C50.43 2.285 50.68 2.325 51.02 2.385C51.32 2.435 52.08 2.445 53.33 2.425C54.5 2.405 54.94 2.405 55.08 2.415C55.08 2.465 55.09 2.535 55.08 2.665C55.08 2.915 55.04 3.195 54.98 3.485C54.9 3.855 54.89 3.985 54.91 4.085C54.91 4.085 54.93 4.325 54.83 5.395C54.74 6.595 54.79 6.965 54.83 7.135C54.87 7.275 54.96 7.475 55.2 7.595C54.83 7.605 54.34 7.625 53.69 7.635C52.15 7.685 51.1 7.735 50.56 7.775C49.94 7.825 49.27 7.825 48.58 7.775C47.9 7.725 47.43 7.745 47.15 7.845C46.8 7.965 46.61 8.245 46.61 8.625C46.61 9.455 47.94 9.565 48.37 9.605C49.4 9.695 51.19 9.645 53.68 9.475C53.82 9.475 53.91 9.475 53.97 9.475C53.96 9.555 53.94 9.675 53.9 9.875C53.8 10.325 53.77 10.805 53.82 11.295C53.85 11.595 53.86 11.775 53.87 11.875C53.74 11.895 53.48 11.925 52.97 11.955C52.21 12.005 51.64 12.065 51.24 12.155C50.91 12.215 50.62 12.265 50.35 12.295C49.92 12.375 49.63 12.645 49.53 13.065C49.42 13.505 49.6 13.865 50.04 14.045C50.14 14.075 50.34 14.105 51.08 14.075C51.63 14.055 52.02 14.015 52.27 13.945C52.7 13.825 53.27 13.745 53.96 13.705C54.47 13.675 54.72 13.685 54.83 13.705C54.82 13.765 54.79 13.855 54.75 13.995C54.67 14.255 54.6 14.485 54.55 14.675C54.52 14.785 54.49 14.815 54.45 14.825C54.4 14.845 54.2 14.905 53.54 14.965C53.04 15.005 52.66 15.015 52.42 15.005C51.48 14.905 50.82 14.895 50.39 14.955C49.74 15.045 49.32 15.285 49.14 15.675C49.02 15.925 48.93 16.405 49.63 16.795L49.81 16.895V18.015C49.81 18.355 49.81 18.625 49.82 18.815C49.82 19.015 49.85 19.225 49.88 19.435C49.92 19.655 49.95 19.815 49.99 19.915C50.03 20.045 50.11 20.175 50.24 20.305C50.36 20.425 50.5 20.515 50.64 20.555C50.76 20.595 50.93 20.625 51.13 20.645C51.28 20.665 51.44 20.675 51.59 20.675C51.64 20.675 51.69 20.675 51.74 20.675C51.93 20.675 52.19 20.655 52.51 20.635C53.22 20.605 53.94 20.515 54.65 20.395C55.4 20.265 55.91 20.175 56.17 20.125C56.25 20.105 56.35 20.085 56.48 20.065C56.59 20.045 56.65 20.035 56.7 20.035C56.87 20.005 57.04 19.905 57.2 19.725C57.36 19.535 57.44 19.365 57.44 19.185C57.44 18.935 57.34 18.725 57.16 18.575C56.76 18.255 55.98 18.235 54.72 18.515C54.15 18.625 53.45 18.705 52.63 18.745C52.02 18.755 51.77 18.735 51.68 18.715C51.67 18.625 51.66 18.395 51.73 17.825C51.73 17.765 51.73 17.685 51.75 17.565C51.8 17.035 51.88 16.925 51.87 16.925C51.87 16.925 52.01 16.855 52.63 16.835H52.95C53.77 16.805 54.28 16.765 54.48 16.715C54.61 16.695 54.92 16.645 55.41 16.545C55.97 16.435 56.36 16.235 56.58 15.935C56.75 15.695 56.89 15.315 56.55 14.815C56.46 14.675 56.45 14.615 56.45 14.615C56.45 14.595 56.46 14.495 56.6 14.075C56.87 13.305 56.9 12.755 56.69 12.375C56.55 12.125 56.32 11.975 56 11.895C55.82 11.865 55.72 11.835 55.68 11.815C55.67 11.745 55.65 11.585 55.63 11.225C55.63 10.875 55.66 10.485 55.72 10.065C55.78 9.685 55.82 9.525 55.84 9.465C55.9 9.455 56.04 9.425 56.31 9.405C56.67 9.365 57.01 9.345 57.3 9.345C57.87 9.345 58.35 9.185 58.71 8.865C59.3 8.345 59.05 7.875 58.89 7.675C58.76 7.545 58.58 7.455 58.37 7.425L58.45 7.415Z"
              fill="#222222"/>
        <path d="M65.49 15.925C65.33 15.595 65.07 15.335 64.74 15.165C64.63 15.095 64.54 15.035 64.49 14.985C64.47 14.975 64.41 14.905 64.22 14.615C64.11 14.445 63.93 14.305 63.67 14.215C63.41 14.125 63.17 14.115 62.98 14.215C62.93 14.235 62.87 14.245 62.75 14.245C62.59 14.265 62.42 14.325 62.27 14.405C62.13 14.465 61.95 14.535 61.74 14.615C60.95 14.875 60.45 15.135 60.18 15.435C59.91 15.765 59.73 16.275 59.66 17.005C59.58 17.725 59.63 18.295 59.81 18.765C60.02 19.265 60.15 19.395 60.24 19.465C60.29 19.505 60.41 19.585 61.49 19.915C61.92 20.035 62.41 19.875 62.96 19.415C63.02 19.365 63.11 19.305 63.21 19.215C63.34 19.115 63.42 19.045 63.43 19.025C63.6 18.895 63.76 18.695 63.92 18.405C64.07 18.135 64.16 17.875 64.2 17.655C64.21 17.585 64.23 17.525 64.24 17.475C64.24 17.545 64.25 17.615 64.26 17.695C64.3 18.125 64.29 18.295 64.27 18.365C64.26 18.435 64.2 18.655 63.98 19.325C63.63 20.405 63.02 21.365 62.18 22.195C61.69 22.635 61.59 22.825 61.59 22.985C61.59 23.225 61.72 23.415 61.95 23.545C62.06 23.605 62.17 23.635 62.28 23.635C62.4 23.635 62.52 23.605 62.65 23.535C62.69 23.505 62.77 23.465 62.9 23.415C63.09 23.335 63.43 23.115 64.29 22.155C65.2 21.135 65.28 20.875 65.27 20.745C65.27 20.735 65.29 20.655 65.44 20.365C65.63 19.985 65.66 19.835 65.66 19.745C65.66 19.715 65.66 19.655 65.71 19.525C65.79 19.335 65.83 19.015 65.86 18.555C65.88 18.115 65.88 17.725 65.85 17.405C65.75 16.715 65.63 16.235 65.48 15.925H65.49Z"
              fill="#222222"/>
        <path d="M72.7 2.02498C73.05 2.02498 73.49 2.04498 74.01 2.09498C74.37 2.12498 74.56 2.15498 74.67 2.16498C74.69 2.38498 74.71 2.99498 74.71 4.62498C74.71 5.92498 74.71 6.69498 74.72 6.92498C74.73 7.24498 74.82 7.45498 74.96 7.54498C75.29 7.83498 75.68 7.89498 76.07 7.70498C76.32 7.59498 76.48 7.38498 76.55 7.11498C76.58 6.97498 76.62 6.67498 76.58 5.71498C76.56 5.17498 76.58 4.57498 76.6 3.92498C76.63 3.30498 76.65 3.03498 76.67 2.92498C76.84 2.90498 77.57 2.90498 78.57 2.80498C78.99 2.75498 79.22 2.74498 79.34 2.73498C79.35 2.86498 79.36 3.11498 79.34 3.59498C79.32 4.31498 79.29 4.86498 79.25 5.19498C79.2 5.43498 79.16 5.86498 79.12 6.48498C79.1 7.23498 79.14 7.45498 79.19 7.55498C79.25 7.70498 79.42 7.89498 79.85 7.89498C80.37 7.89498 80.61 7.64498 80.73 7.44498C80.87 7.19498 80.95 6.73498 80.99 6.02498C81.02 5.36498 81.06 4.93498 81.11 4.71498C81.21 4.16498 81.27 3.53498 81.29 2.84498C81.32 1.88498 81.25 1.60498 81.18 1.46498C80.95 0.994977 80.39 0.864977 79.52 1.07498C79.33 1.12498 78.89 1.17498 77.87 1.11498C76.73 1.05498 76.52 0.944977 76.48 0.914977C76.15 0.704978 75.81 0.564977 75.46 0.494977C75.12 0.424977 74.5 0.384977 73.57 0.374977C72.64 0.344977 72.35 0.434977 72.21 0.494977C71.48 0.834977 71.45 1.22498 71.54 1.48498C71.67 1.84498 72.06 2.02498 72.7 2.02498Z"
              fill="#222222"/>
        <path d="M82.72 7.955C82.49 7.865 82.1 7.855 81.48 7.905C81.4 7.925 81.22 7.935 80.92 7.965C80.6 7.985 80.37 8.005 80.23 8.025C79.67 8.075 78.95 8.125 78.06 8.165C77.04 8.195 76.28 8.245 75.81 8.315C75.68 8.335 75.44 8.365 75.1 8.415C74.76 8.465 74.52 8.495 74.37 8.515C73.9 8.575 73.21 8.595 72.32 8.585C71.38 8.565 71.15 8.585 71.06 8.585C70.88 8.605 70.72 8.685 70.6 8.805C70.23 9.195 70.27 9.565 70.37 9.815C70.47 10.065 70.7 10.355 71.21 10.355C71.41 10.355 71.67 10.375 71.97 10.405C72.74 10.505 74.42 10.405 77.15 10.085C77.17 10.085 77.23 10.065 77.39 10.065C78.01 9.975 78.28 9.965 78.39 9.965C78.39 9.965 78.39 10.055 78.37 10.125C78.34 10.205 78.33 10.255 78.34 10.255C78.22 10.875 78.22 11.465 78.32 12.005C78.34 12.125 78.35 12.205 78.35 12.245C78.29 12.265 78.17 12.285 77.95 12.305C74.92 12.545 74.35 12.955 74.19 13.325C74.07 13.625 74.13 13.905 74.34 14.125C74.76 14.545 75.56 14.625 76.83 14.355C76.92 14.325 77.12 14.275 77.42 14.215C78.84 13.945 79.13 13.965 79.13 13.935C79.13 13.935 79.16 14.015 79.07 14.265C78.99 14.555 78.93 14.765 78.9 14.915C78.9 14.955 78.88 15.055 78.62 15.105C78.43 15.145 77.94 15.185 76.68 15.185C75.6 15.185 74.91 15.235 74.55 15.355C74.13 15.485 73.88 15.785 73.84 16.195C73.82 16.365 73.83 16.485 73.88 16.575C73.91 16.625 73.96 16.715 74.17 16.915C74.32 17.045 74.33 17.105 74.33 17.115C74.33 17.145 74.34 17.285 74.28 17.905C74.21 18.775 74.31 19.445 74.57 19.955C74.85 20.495 75.31 20.785 75.89 20.785C75.95 20.785 76.02 20.785 76.08 20.785C77.01 20.785 78.02 20.675 79.09 20.465C79.84 20.305 80.35 20.205 80.62 20.155C81.07 20.115 81.39 19.855 81.52 19.415C81.66 18.945 81.5 18.585 81.09 18.435C80.97 18.375 80.74 18.315 80.05 18.415C79.57 18.485 79.14 18.575 78.78 18.685C78.65 18.725 78.29 18.785 77.32 18.845C76.31 18.905 76.1 18.875 76.07 18.815C76.07 18.735 76.09 18.505 76.16 17.925C76.25 17.185 76.36 17.055 76.35 17.055C76.38 17.045 76.56 16.985 77.51 17.055C77.95 17.075 78.34 17.055 78.7 16.975C78.99 16.915 79.35 16.845 79.79 16.765C80.32 16.675 80.69 16.485 80.91 16.205C81.07 15.995 81.22 15.635 80.98 15.105C80.89 14.935 80.87 14.835 80.88 14.785C80.88 14.725 80.91 14.575 81.05 14.235C81.26 13.675 81.31 13.235 81.2 12.865C81.11 12.585 80.89 12.245 80.32 12.165C80.23 12.155 80.15 12.145 80.09 12.135C80.08 12.045 80.07 11.855 80.07 11.505C80.07 10.985 80.11 10.555 80.17 10.255C80.23 9.965 80.28 9.875 80.27 9.875C80.31 9.865 80.49 9.825 81.19 9.785C81.69 9.755 83.2 9.655 83.2 8.675C83.2 8.195 82.92 8.015 82.75 7.945L82.72 7.955Z"
              fill="#222222"/>
        <path d="M87.48 3.175C87.82 3.205 88.08 3.235 88.28 3.275C88.33 3.275 88.37 3.275 88.42 3.275C88.66 3.275 88.9 3.235 89.12 3.155C89.86 2.895 90.58 2.765 91.27 2.765C91.7 2.765 92.04 2.745 92.3 2.715C92.52 2.675 92.82 2.645 93.19 2.645C93.63 2.645 94 2.595 94.3 2.505C94.65 2.395 94.86 2.225 94.96 2.005C95.06 1.775 95.01 1.505 94.81 1.215C94.65 1.015 94.36 0.894996 93.91 0.854996C93.53 0.824996 92.7 0.814996 91.39 0.854996C90.41 0.874996 89.8 0.904996 89.53 0.954996C89.23 1.035 88.91 1.115 88.58 1.195C88.05 1.305 87.79 1.335 87.67 1.335C87.21 1.335 86.84 1.505 86.55 1.845C86.1 2.385 86.39 2.765 86.53 2.885C86.69 3.045 86.99 3.135 87.48 3.175Z"
              fill="#222222"/>
        <path d="M87.19 9.82499C87.19 9.82499 87.29 9.82499 87.34 9.82499C87.52 9.80499 88.06 9.71499 89.08 9.50499C90.05 9.31499 90.78 9.15499 91.26 9.04499C92.06 8.85499 92.36 8.90499 92.45 8.94499C92.95 9.22499 93.43 9.15499 93.81 8.74499C94.2 8.32499 94.2 7.84499 93.81 7.42499C93.58 7.19499 93.13 7.08499 92.41 7.08499C91.76 7.08499 91.03 7.17499 90.27 7.35499C89.19 7.60499 88.48 7.72499 88.12 7.65499C88.12 7.55499 88.14 7.30499 88.29 6.70499C88.44 6.20499 88.5 6.09499 88.5 6.09499C88.5 6.09499 88.56 6.04499 88.82 5.99499C89.23 5.86499 89.3 5.81499 89.33 5.78499C89.35 5.77499 89.51 5.69499 90.31 5.55499C90.92 5.45499 91.4 5.40499 91.72 5.40499C92.14 5.40499 92.45 5.20499 92.61 4.83499C92.77 4.45499 92.69 4.10499 92.39 3.82499C92.04 3.51499 91.49 3.43499 90.77 3.59499C90.44 3.68499 90.27 3.70499 90.19 3.70499C90.04 3.70499 89.82 3.73499 89.51 3.80499C89.02 3.91499 88.7 3.97499 88.56 3.99499C88.44 4.01499 88.29 3.99499 88.12 3.93499C87.52 3.76499 87.04 3.81499 86.69 4.07499C86.43 4.27499 86.17 4.65499 86.48 5.34499C86.55 5.48499 86.56 5.67499 86.51 5.93499C86.23 7.41499 86.13 8.39499 86.22 8.93499C86.31 9.52499 86.66 9.83499 87.21 9.83499L87.19 9.82499Z"
              fill="#222222"/>
        <path d="M87.72 12.435C88.29 12.375 88.66 12.345 88.82 12.345C89.02 12.345 89.24 12.325 89.49 12.295L90.27 12.155C90.52 12.125 90.65 12.125 90.7 12.125C90.7 12.155 90.68 12.205 90.65 12.285C90.61 12.375 90.55 12.575 90.49 13.235C90.46 13.745 90.43 14.225 90.39 14.665C90.32 15.325 90.35 15.545 90.39 15.665C90.45 15.875 90.59 16.045 90.8 16.175C90.98 16.285 91.15 16.335 91.3 16.335C91.33 16.335 91.35 16.335 91.38 16.335C91.98 16.295 92.29 15.445 92.38 13.585V13.385C92.44 12.455 92.5 12.265 92.51 12.235C92.51 12.235 92.58 12.165 92.89 12.135H93.01C93.35 12.095 93.6 12.035 93.77 11.935C93.97 11.825 94.1 11.635 94.16 11.395C94.22 11.195 94.22 11.005 94.16 10.805C94.09 10.595 93.96 10.445 93.81 10.375C93.71 10.295 93.54 10.255 92.97 10.225C92.51 10.205 92.33 10.225 92.22 10.255C92.19 10.255 92.02 10.285 91 10.345C90.01 10.415 89.39 10.455 89.12 10.485C88.07 10.585 86.88 10.655 85.61 10.695C84.7 10.715 84.12 10.875 83.83 11.195C83.53 11.575 83.58 11.895 83.68 12.095C83.78 12.295 84 12.535 84.51 12.535C84.7 12.535 84.94 12.555 85.24 12.575C85.59 12.625 86.39 12.575 87.7 12.435H87.72Z"
              fill="#222222"/>
        <path d="M94.11 17.845C93.64 17.925 92.93 17.985 92 18.035C91.22 18.085 90.75 18.115 90.63 18.135C90.46 18.145 90.28 18.135 90.1 18.115C89.86 18.065 89.24 18.025 88.23 18.015C86.97 17.995 86.73 17.915 86.69 17.905C86.69 17.905 86.62 17.815 86.69 17.425C86.74 17.135 86.77 16.635 86.79 15.895C86.79 14.985 86.83 14.645 86.85 14.535C86.94 14.265 86.93 14.055 86.85 13.905C86.76 13.745 86.58 13.635 86.28 13.545C86.08 13.505 85.96 13.495 85.91 13.495C85.82 13.495 85.72 13.535 85.55 13.625C85.11 13.905 84.88 14.745 84.82 16.275C84.76 17.735 84.9 18.775 85.24 19.445C85.42 19.805 85.83 20.065 86.51 20.265C86.95 20.395 87.39 20.455 87.83 20.455C88.03 20.455 88.23 20.445 88.43 20.415C89.13 20.315 89.75 20.375 90.48 20.195C90.85 20.085 91.24 20.015 91.66 19.985C92.14 19.935 92.56 19.875 92.92 19.815C93.31 19.755 93.69 19.735 94.03 19.745C94.48 19.745 94.8 19.685 95 19.565C95.17 19.465 95.38 19.265 95.38 18.845C95.38 18.495 95.25 18.215 94.99 18.025C94.74 17.835 94.43 17.785 94.1 17.855L94.11 17.845Z"
              fill="#222222"/>
        <path d="M102.68 8.555C102.81 8.555 102.95 8.55501 103.09 8.525C104.19 8.385 105.11 7.755 105.84 6.635C106.15 6.16501 106.32 5.795 106.35 5.505C106.38 5.205 106.27 4.825 106.02 4.345C105.83 3.975 105.59 3.685 105.31 3.475C105.04 3.265 104.54 3.005 103.79 2.655C103.79 2.655 103.72 2.615 103.59 2.365C103.42 2.015 103.19 1.815 102.88 1.765C102.61 1.725 102.27 1.815 101.83 2.025C101.44 2.215 101.16 2.385 100.97 2.555C100.78 2.735 100.61 2.96501 100.49 3.24501C100.14 3.945 99.95 4.655 99.95 5.355C99.95 6.065 100.11 6.705 100.46 7.255C101 8.11501 101.74 8.54501 102.67 8.54501L102.68 8.555ZM101.82 5.415C102.26 4.53501 102.46 4.275 102.54 4.205C102.58 4.165 102.64 4.125 102.75 4.125C102.81 4.125 102.89 4.135 102.99 4.165C103.15 4.215 103.39 4.275 103.72 4.335C104.01 4.385 104.19 4.495 104.27 4.645C104.31 4.765 104.39 4.915 104.52 5.095C104.65 5.275 104.65 5.435 104.52 5.655C104.36 5.915 104.04 6.16501 103.55 6.405C102.91 6.735 102.4 6.755 101.99 6.485C101.74 6.315 101.49 6.045 101.82 5.395V5.415Z"
              fill="#222222"/>
        <path d="M108.74 10.185C108.58 10.135 108.25 10.065 107.27 10.135C106.22 10.185 104.78 10.185 102.97 10.155C101.88 10.145 100.85 10.155 99.93 10.205C99.32 10.235 98.61 10.245 97.84 10.225C96.9 10.205 96.69 10.155 96.64 10.145L96.59 10.105H96.51C96.45 10.105 96.38 10.125 96.2 10.185C96.01 10.285 95.8 10.525 95.87 11.065C95.93 11.605 96.22 11.795 96.43 11.855C96.89 12.025 97.51 12.135 98.34 12.185C98.64 12.205 98.94 12.215 99.24 12.215C99.74 12.215 100.24 12.195 100.74 12.135C101.25 12.085 101.79 12.075 102.33 12.085C102.88 12.115 103.7 12.105 104.83 12.035C105.91 11.975 106.61 11.935 106.93 11.935C107.5 11.935 108.02 11.845 108.46 11.675C108.65 11.595 109.24 11.375 109.24 10.885C109.24 10.525 109.06 10.265 108.74 10.155V10.185Z"
              fill="#222222"/>
        <path d="M108.37 16.965C108.27 16.935 108.09 16.915 107.49 16.965C106.23 17.095 104.71 17.185 102.99 17.245C101.27 17.305 100.65 17.285 100.43 17.265C100.41 17.115 100.38 16.745 100.38 15.845C100.38 14.585 100.42 14.095 100.46 13.905C100.56 13.445 100.48 13.065 100.25 12.805C99.99 12.515 99.63 12.455 99.24 12.655C98.94 12.815 98.71 13.125 98.57 13.595C98.51 13.775 98.44 14.215 98.46 15.935C98.48 17.655 98.56 18.105 98.62 18.305C98.82 18.915 99.16 19.285 99.6 19.405C99.7 19.435 99.9 19.475 100.44 19.475C100.72 19.475 101.08 19.475 101.56 19.445C102.64 19.395 103.31 19.335 103.63 19.245C103.77 19.205 104.07 19.155 104.51 19.115C104.91 19.085 105.34 19.045 105.79 18.995C106.15 18.945 106.6 18.905 107.12 18.875C107.82 18.835 108.01 18.795 108.12 18.755C108.93 18.405 108.87 17.825 108.77 17.535C108.7 17.235 108.57 17.055 108.37 16.995V16.965Z"
              fill="#222222"/>
        <path d="M120.49 9.02498V8.56498C120.49 6.61498 120.46 6.16498 120.44 6.00498C120.4 5.65498 120.19 5.41498 119.85 5.32498H119.77C119.52 5.25498 118.77 5.17498 115.79 5.19498C115.07 5.21498 114.63 5.22498 114.47 5.24498C114.27 5.26498 114.09 5.35498 113.94 5.50498C113.58 5.86498 113.54 6.27498 113.83 6.63498C113.96 6.79498 114.21 6.87498 114.63 6.91498C114.98 6.94498 115.71 6.97498 116.87 7.01498C117.86 7.04498 118.25 7.07498 118.4 7.09498C118.45 7.32498 118.53 8.10498 118.53 10.775C118.53 15.105 118.68 15.385 118.75 15.525C118.85 15.715 119.07 15.925 119.51 15.925C119.56 15.925 119.61 15.925 119.66 15.925C120.19 15.875 120.44 15.605 120.55 15.395C120.64 15.245 120.72 14.905 120.54 12.815C120.49 12.315 120.48 11.045 120.49 9.02498Z"
              fill="#222222"/>
        <path d="M128.74 5.585C128.78 4.985 128.76 4.775 128.68 4.665C128.62 4.555 128.5 4.435 128.24 4.405C128.07 4.385 127.91 4.405 127.77 4.445C127.42 4.585 127.18 4.925 127.06 5.435C126.95 5.885 126.87 6.705 126.8 7.925C126.78 8.355 126.76 8.585 126.75 8.705C126.58 8.745 126.2 8.815 125.33 8.965C124.8 9.055 124.54 9.075 124.42 9.085C124.4 8.875 124.38 8.365 124.35 7.145C124.31 5.485 124.26 5.115 124.21 4.955C124.15 4.795 123.99 4.605 123.57 4.605C123.17 4.605 122.87 4.785 122.68 5.135C122.52 5.435 122.42 5.885 122.39 6.535C122.37 7.025 122.39 7.805 122.41 8.855C122.44 9.925 122.48 10.655 122.53 11.075C122.58 11.475 122.62 11.925 122.65 12.415C122.75 13.775 122.86 14.635 122.99 15.015C123.18 15.615 123.59 15.745 123.89 15.745C124.13 15.745 124.35 15.655 124.52 15.475C124.68 15.315 124.76 15.135 124.77 14.915C124.77 14.815 124.77 14.495 124.66 12.945C124.55 11.625 124.55 11.145 124.56 10.975C124.66 10.945 124.89 10.875 125.42 10.775C126.18 10.625 126.44 10.615 126.55 10.625H126.66L126.69 10.995C126.72 11.385 126.74 11.755 126.74 12.115C126.87 15.225 127.1 15.945 127.26 16.215C127.48 16.575 127.74 16.675 127.95 16.675C128.11 16.675 128.25 16.615 128.33 16.575C128.66 16.415 128.85 16.195 128.91 15.935C128.94 15.805 128.97 15.505 128.91 14.505C128.67 11.715 128.62 8.715 128.77 5.595L128.74 5.585Z"
              fill="#222222"/>
        <path d="M132.86 2.02498C133.21 2.02498 133.65 2.04498 134.17 2.09498C134.53 2.12498 134.72 2.15498 134.83 2.16498C134.85 2.38498 134.87 2.99498 134.87 4.62498C134.87 5.92498 134.87 6.69498 134.88 6.92498C134.89 7.24498 134.98 7.45498 135.12 7.54498C135.45 7.83498 135.84 7.89498 136.23 7.70498C136.48 7.59498 136.64 7.38498 136.71 7.11498C136.74 6.97498 136.78 6.67498 136.74 5.71498C136.72 5.17498 136.74 4.57498 136.76 3.92498C136.79 3.30498 136.81 3.03498 136.83 2.92498C137 2.90498 137.73 2.90498 138.73 2.80498C139.15 2.75498 139.38 2.74498 139.5 2.73498C139.51 2.86498 139.52 3.11498 139.5 3.59498C139.48 4.31498 139.45 4.86498 139.41 5.19498C139.36 5.43498 139.32 5.86498 139.28 6.48498C139.26 7.23498 139.3 7.45498 139.35 7.55498C139.41 7.70498 139.58 7.89498 140.01 7.89498C140.53 7.89498 140.77 7.64498 140.89 7.44498C141.03 7.19498 141.11 6.73498 141.15 6.02498C141.18 5.36498 141.22 4.93498 141.27 4.71498C141.37 4.16498 141.43 3.53498 141.45 2.84498C141.48 1.88498 141.41 1.60498 141.34 1.46498C141.1 0.994977 140.55 0.864977 139.68 1.07498C139.49 1.12498 139.05 1.17498 138.03 1.11498C136.89 1.05498 136.68 0.944977 136.64 0.914977C136.31 0.704978 135.97 0.564977 135.62 0.494977C135.28 0.424977 134.66 0.384977 133.73 0.374977C132.8 0.344977 132.51 0.434977 132.37 0.494977C131.64 0.834977 131.61 1.22498 131.7 1.48498C131.83 1.84498 132.22 2.02498 132.86 2.02498Z"
              fill="#222222"/>
        <path d="M140.31 10.265C140.37 9.975 140.42 9.885 140.41 9.885C140.45 9.875 140.63 9.835 141.33 9.795C141.83 9.765 143.34 9.665 143.34 8.685C143.34 8.205 143.06 8.025 142.89 7.955C142.66 7.865 142.27 7.855 141.65 7.905C141.57 7.925 141.39 7.935 141.09 7.965C140.77 7.985 140.54 8.005 140.4 8.025C139.84 8.075 139.12 8.125 138.23 8.165C137.21 8.195 136.45 8.245 135.98 8.315C135.85 8.335 135.61 8.365 135.27 8.415C134.93 8.465 134.69 8.495 134.54 8.515C134.07 8.575 133.38 8.595 132.49 8.585C131.55 8.565 131.32 8.585 131.23 8.585C131.05 8.605 130.89 8.685 130.77 8.805C130.4 9.195 130.44 9.565 130.54 9.815C130.64 10.065 130.87 10.355 131.38 10.355C131.58 10.355 131.84 10.375 132.14 10.405C132.9 10.505 134.59 10.405 137.32 10.085C137.34 10.085 137.4 10.065 137.56 10.065C138.18 9.975 138.45 9.965 138.56 9.965C138.56 9.965 138.56 10.055 138.54 10.125C138.51 10.205 138.5 10.255 138.51 10.255C138.39 10.875 138.39 11.465 138.49 12.005C138.51 12.125 138.52 12.205 138.52 12.245C138.46 12.265 138.34 12.285 138.12 12.305C135.09 12.545 134.52 12.955 134.36 13.325C134.24 13.625 134.3 13.905 134.51 14.125C134.93 14.545 135.73 14.625 137 14.355C137.09 14.325 137.29 14.275 137.59 14.215C139.01 13.945 139.3 13.965 139.3 13.935C139.3 13.935 139.33 14.015 139.24 14.265C139.16 14.555 139.1 14.765 139.07 14.915C139.07 14.955 139.05 15.055 138.79 15.105C138.6 15.145 138.11 15.185 136.85 15.185C135.77 15.185 135.08 15.235 134.72 15.355C134.3 15.485 134.05 15.785 134.01 16.195C133.99 16.365 134 16.485 134.05 16.575C134.08 16.625 134.13 16.715 134.34 16.915C134.49 17.045 134.5 17.105 134.5 17.115C134.5 17.145 134.51 17.285 134.45 17.905C134.38 18.775 134.48 19.445 134.74 19.955C135.02 20.495 135.48 20.785 136.06 20.785C136.12 20.785 136.19 20.785 136.25 20.785C137.18 20.785 138.19 20.675 139.26 20.465C140.01 20.305 140.52 20.205 140.79 20.155C141.24 20.115 141.56 19.855 141.69 19.415C141.83 18.945 141.67 18.585 141.26 18.435C141.14 18.375 140.91 18.315 140.22 18.415C139.74 18.485 139.31 18.575 138.95 18.685C138.82 18.725 138.46 18.785 137.49 18.845C136.48 18.905 136.27 18.875 136.24 18.815C136.24 18.735 136.26 18.505 136.33 17.925C136.42 17.185 136.53 17.055 136.52 17.055C136.55 17.045 136.73 16.985 137.68 17.055C138.12 17.075 138.51 17.055 138.87 16.975C139.16 16.915 139.52 16.845 139.96 16.765C140.49 16.675 140.86 16.485 141.08 16.205C141.24 15.995 141.39 15.635 141.15 15.105C141.06 14.935 141.04 14.835 141.05 14.785C141.05 14.725 141.08 14.575 141.22 14.235C141.43 13.675 141.48 13.235 141.37 12.865C141.28 12.585 141.06 12.245 140.49 12.165C140.4 12.155 140.32 12.145 140.26 12.135C140.25 12.045 140.24 11.855 140.24 11.505C140.24 10.985 140.28 10.555 140.34 10.255L140.31 10.265Z"
              fill="#222222"/>
    </g>
    <defs>
        <clipPath id="clip0_3298_77311">
            <rect width="143.34" height="23.27" fill="white" transform="translate(0 0.36499)"/>
        </clipPath>
    </defs>
</svg>
