<svg width="142" height="20" viewBox="0 0 142 20" fill="none" xmlns="http://www.w3.org/2000/svg">
    <g clip-path="url(#clip0_3298_77352)">
        <path d="M4.31001 4.825C4.49001 4.875 4.73001 4.915 5.01001 4.945C5.69001 5.065 6.23001 5.465 6.63001 6.155C7.03001 6.845 7.11001 7.535 6.88001 8.215C6.68001 8.785 6.44001 9.285 6.17001 9.725C5.90001 10.165 5.64001 10.425 5.41001 10.515C5.21001 10.595 5.11001 10.645 5.11001 10.665C5.08001 10.885 5.07001 11.335 5.08001 12.015C5.10001 12.695 5.13001 13.065 5.18001 13.115C5.26001 13.185 6.06001 13.225 7.58001 13.235C8.73001 13.235 9.41001 13.235 9.62001 13.255C9.83001 13.275 9.98001 13.335 10.08 13.435C10.2 13.565 10.27 13.755 10.31 14.005C10.34 14.255 10.31 14.465 10.23 14.625C10.15 14.795 9.93001 14.925 9.59001 15.035C9.25001 15.145 8.96 15.165 8.73001 15.095C8.43001 15.015 7.55001 15.005 6.08001 15.085C4.61001 15.165 3.34001 15.275 2.26001 15.425C1.01001 15.595 0.270006 15.285 0.030006 14.495C-0.069994 14.145 0.030006 13.905 0.310006 13.775C0.590006 13.645 1.26001 13.545 2.31001 13.475C2.76001 13.445 3.02001 13.385 3.08001 13.305C3.15001 13.225 3.16001 12.975 3.11001 12.555C3.06001 12.085 3.04001 11.675 3.06001 11.325C3.09001 10.995 3.09001 10.785 3.05001 10.715C3.01001 10.635 2.84001 10.525 2.54001 10.375C2.11001 10.155 1.78001 9.925 1.57001 9.675C1.35001 9.425 1.15001 9.045 0.950006 8.525C0.650006 7.795 0.720006 7.025 1.15001 6.235C1.58001 5.445 2.21001 4.935 3.03001 4.725C3.31001 4.645 3.75001 4.665 4.33001 4.805L4.31001 4.825ZM2.71001 7.445C2.61001 7.665 2.56001 7.865 2.56001 8.045C2.56001 8.225 2.60001 8.355 2.68001 8.425C3.08001 8.745 3.52001 8.855 3.99001 8.765C4.46001 8.675 4.80001 8.415 5.00001 7.975C5.12001 7.695 5.13001 7.475 5.05001 7.325C4.97001 7.175 4.72001 7.005 4.32001 6.825C3.59001 6.475 3.05001 6.685 2.70001 7.445H2.71001Z"
              fill="#222222"/>
        <path d="M21.06 8.30499C21.31 8.28499 21.53 8.40499 21.71 8.64499C21.89 8.88499 21.97 9.15499 21.93 9.45499C21.9 9.78499 21.76 10.045 21.53 10.215C21.3 10.395 21.02 10.435 20.7 10.355C20.43 10.305 20 10.295 19.4 10.335C17.78 10.415 16.47 10.465 15.46 10.475C14.45 10.475 13.63 10.445 13 10.365C12.37 10.285 11.93 10.165 11.69 10.005C11.45 9.84499 11.33 9.62499 11.33 9.34499C11.33 8.97499 11.51 8.73499 11.88 8.60499C12.25 8.47499 12.97 8.41499 14.05 8.41499C14.5 8.41499 15.79 8.39499 17.93 8.36499C19.98 8.33499 21.02 8.31499 21.05 8.31499L21.06 8.30499ZM13.51 0.904994C13.71 0.984994 13.84 1.09499 13.91 1.21499C13.98 1.33499 14.03 1.57499 14.08 1.92499C14.13 2.37499 14.19 2.76499 14.25 3.09499C14.33 3.44499 14.37 3.71499 14.37 3.92499C14.37 4.22499 14.42 4.43499 14.52 4.54499C14.62 4.66499 14.81 4.75499 15.1 4.82499C15.22 4.84499 15.43 4.89499 15.75 4.97499C15.95 5.02499 16.27 5.05499 16.7 5.05499C17.13 5.05499 17.4 5.02499 17.5 4.97499C17.62 4.90499 17.86 4.87499 18.23 4.88499C18.6 4.88499 18.84 4.93499 18.95 4.99499C19.3 5.19499 19.42 5.59499 19.33 6.19499C19.28 6.54499 19.18 6.78499 19.02 6.90499C18.86 7.02499 18.6 7.09499 18.23 7.09499C18 7.09499 17.61 7.12499 17.05 7.17499C16.42 7.22499 15.74 7.19499 15.03 7.07499C14.31 6.95499 13.78 6.79499 13.43 6.57499C13.1 6.35499 12.83 5.95499 12.63 5.36499C12.43 4.77499 12.36 4.15499 12.41 3.50499C12.44 3.12499 12.41 2.79499 12.33 2.52499C12.25 2.22499 12.24 1.92499 12.3 1.63499C12.37 1.34499 12.5 1.11499 12.7 0.944994C12.92 0.764994 13.18 0.744994 13.5 0.894994L13.51 0.904994ZM18.37 11.865C19.4 11.905 19.99 11.965 20.16 12.055C20.54 12.255 20.79 12.635 20.9 13.175C21.01 13.715 20.96 14.275 20.76 14.835C20.56 15.395 20.25 15.785 19.84 15.995C19.62 16.115 19.2 16.185 18.56 16.215C17.39 16.265 16.66 16.465 16.36 16.815C16.18 17.035 16.31 17.225 16.76 17.385C16.96 17.455 17.5 17.485 18.38 17.475C19.26 17.475 19.98 17.425 20.53 17.365C21.23 17.265 21.72 17.275 21.99 17.385C22.27 17.505 22.4 17.755 22.4 18.135C22.4 18.515 22.23 18.775 21.9 18.945C21.57 19.115 21.03 19.225 20.3 19.255C19.5 19.305 18.91 19.345 18.53 19.375C16.48 19.575 15.15 19.085 14.53 17.895C14.06 17.015 13.92 16.275 14.09 15.695C14.26 15.115 14.72 14.815 15.45 14.815C15.67 14.815 15.94 14.785 16.28 14.715C16.65 14.645 17.03 14.595 17.43 14.545C17.8 14.495 18.04 14.445 18.17 14.385C18.29 14.325 18.39 14.215 18.46 14.045C18.63 13.695 18.5 13.515 18.08 13.495C17.68 13.465 16.82 13.545 15.5 13.745C14.9 13.845 14.48 13.855 14.24 13.785C14 13.705 13.84 13.525 13.75 13.225C13.63 12.775 13.64 12.445 13.78 12.245C13.91 12.045 14.2 11.935 14.66 11.925C15.09 11.895 15.5 11.865 15.88 11.845C16.51 11.795 17.34 11.795 18.37 11.835V11.865Z"
              fill="#222222"/>
        <path d="M29.91 4.40499C30.23 4.53499 30.38 4.83499 30.36 5.30499C30.36 5.73499 30.23 6.02499 29.96 6.18499C29.69 6.34499 29.19 6.39499 28.46 6.35499C27.89 6.32499 27.45 6.33499 27.13 6.38499C26.2 6.55499 25.7 6.67499 25.63 6.76499C25.55 6.88499 25.52 7.18499 25.56 7.67499C25.59 8.16499 25.67 8.525 25.78 8.765C25.88 8.96499 26.2 9.09499 26.74 9.15499C27.28 9.21499 27.87 9.19499 28.5 9.095C28.73 9.04499 29.05 8.98499 29.45 8.91499C30.18 8.76499 30.77 8.795 31.2 9.015C31.63 9.23499 31.85 9.58499 31.85 10.065C31.85 10.795 31.69 11.315 31.37 11.605C31.05 11.895 30.65 11.905 30.15 11.645C30.12 11.625 30.05 11.595 29.95 11.545C29.85 11.495 29.78 11.465 29.73 11.445C29.61 11.375 29.44 11.345 29.22 11.335C29 11.325 28.85 11.355 28.78 11.425C28.7 11.495 28.66 11.805 28.67 12.375C28.67 12.945 28.73 13.265 28.83 13.355C28.9 13.435 29.64 13.475 31.06 13.475C32.23 13.495 32.94 13.525 33.2 13.565C33.46 13.605 33.65 13.735 33.79 13.955C34.02 14.375 34 14.725 33.71 15.015C33.43 15.305 32.99 15.435 32.41 15.405C31.61 15.355 30.6 15.355 29.37 15.405C28.14 15.455 27.25 15.525 26.68 15.625C25.56 15.825 24.85 15.845 24.53 15.675C24.21 15.495 24 15.215 23.88 14.835C23.76 14.455 23.81 14.195 24.03 14.045C24.1 13.975 24.38 13.905 24.88 13.825C25.38 13.745 25.77 13.705 26.06 13.705C26.38 13.705 26.58 13.655 26.67 13.555C26.76 13.455 26.77 13.245 26.71 12.935C26.68 12.705 26.66 12.365 26.66 11.935C26.68 11.565 26.66 11.355 26.61 11.285C26.56 11.215 26.34 11.145 25.96 11.055C25.19 10.875 24.65 10.555 24.34 10.095C24.03 9.63499 23.83 8.91499 23.76 7.93499C23.71 7.11499 23.64 6.63499 23.56 6.48499C23.31 6.01499 23.35 5.62499 23.68 5.29499C24.01 4.96499 24.56 4.79499 25.3 4.78499C25.62 4.78499 25.93 4.74499 26.25 4.66499C26.7 4.54499 27.48 4.45499 28.6 4.38499C29.27 4.35499 29.7 4.36499 29.9 4.43499L29.91 4.40499Z"
              fill="#222222"/>
        <path d="M40.1499 0.554996C41.3199 0.654996 42.2199 0.834996 42.8399 1.085C43.1099 1.205 43.2699 1.255 43.3399 1.245C43.4099 1.245 43.4799 1.145 43.5599 0.984996C43.6799 0.784996 43.7999 0.654996 43.9399 0.604996C44.0699 0.554996 44.3199 0.554996 44.6599 0.604996C45.1099 0.634996 45.5099 0.654996 45.8599 0.654996C46.7299 0.654996 47.7899 0.794996 49.0599 1.085C49.8899 1.255 50.4799 1.635 50.8099 2.245C51.1399 2.855 51.2999 3.795 51.2799 5.055C51.2599 5.825 51.2299 6.315 51.1799 6.545C51.1299 6.775 50.9999 6.975 50.7799 7.155L50.5099 7.435L50.7799 7.465C50.9999 7.495 51.2099 7.525 51.4299 7.535C51.7599 7.565 52.0099 7.705 52.1799 7.945C52.3499 8.185 52.3899 8.455 52.2999 8.755C52.2199 9.055 52.0199 9.275 51.7199 9.425C51.5899 9.505 50.9599 9.545 49.8399 9.545H49.5899C48.7699 9.545 48.2999 9.565 48.1799 9.605C48.0599 9.645 48.0199 9.795 48.0699 10.045V10.125C48.1199 10.395 48.1399 10.715 48.1399 11.095C48.1399 11.475 48.1799 11.665 48.2599 11.695C48.3799 11.725 48.7999 11.805 49.5399 11.915C50.0899 11.995 50.4199 12.365 50.5399 13.025C50.6599 13.685 50.5099 14.375 50.1199 15.115C49.9199 15.495 49.6899 15.765 49.4199 15.915C49.1499 16.065 48.7199 16.165 48.1199 16.215C47.3699 16.285 46.8099 16.395 46.4299 16.555C46.0499 16.715 45.8999 16.905 45.9699 17.145C45.9999 17.325 46.1799 17.445 46.5099 17.485C46.8299 17.525 47.4599 17.535 48.3999 17.525C49.3199 17.495 49.9299 17.455 50.2299 17.405C50.8799 17.285 51.3699 17.305 51.7099 17.445C52.0399 17.585 52.1799 17.855 52.1099 18.255C52.0399 18.605 51.8899 18.855 51.6399 19.005C51.3899 19.155 50.9699 19.245 50.3899 19.285C49.7899 19.335 49.1099 19.395 48.3399 19.455C46.9199 19.585 45.8799 19.455 45.2199 19.075C44.5499 18.695 44.0699 17.945 43.7699 16.825C43.6199 16.245 43.6699 15.765 43.9199 15.395C44.1699 15.025 44.5599 14.845 45.0999 14.845C45.4799 14.845 45.9699 14.755 46.5499 14.575C46.6699 14.545 46.8499 14.495 47.0999 14.455C47.4799 14.405 47.7499 14.345 47.8999 14.265C48.0499 14.185 48.1699 14.065 48.2499 13.875C48.3299 13.705 48.3699 13.595 48.3699 13.525C48.3699 13.455 48.3099 13.405 48.1999 13.375C48.0999 13.345 47.7299 13.365 47.0799 13.435C46.4299 13.505 45.7899 13.605 45.1599 13.725C44.6299 13.825 44.2499 13.895 44.0399 13.925C43.7099 13.955 43.4399 13.815 43.2399 13.485C43.0399 13.155 43.0099 12.835 43.1399 12.495C43.2099 12.325 43.2899 12.225 43.3799 12.185C43.4699 12.145 43.6899 12.115 44.0399 12.095C44.4099 12.065 44.8099 12.005 45.2499 11.935C45.6899 11.865 45.9399 11.795 45.9899 11.745C46.0399 11.695 46.0199 11.475 45.9399 11.095C45.8399 10.715 45.7899 10.395 45.7899 10.145C45.7899 9.895 45.7599 9.755 45.6899 9.725C45.6399 9.675 45.2599 9.665 44.5499 9.705C43.8399 9.735 43.2899 9.785 42.8899 9.855C41.5699 10.055 40.9199 9.725 40.9199 8.855C40.9199 8.455 41.0399 8.205 41.2999 8.105C41.4999 8.025 42.0899 7.935 43.0699 7.855C44.0499 7.775 45.0599 7.715 46.0999 7.685C48.4999 7.635 49.7199 7.535 49.7699 7.385C49.7899 7.355 49.7699 7.305 49.6899 7.235C49.2399 6.805 49.0999 6.115 49.2699 5.185C49.4499 4.115 49.3699 3.485 49.0199 3.285C48.6699 3.065 48.2799 2.925 47.8599 2.845C47.4399 2.775 46.8499 2.735 46.0999 2.735C45.1699 2.755 44.5899 2.735 44.3799 2.685C44.1599 2.655 44.0299 2.665 43.9899 2.725C43.9499 2.785 43.9399 2.945 43.9799 3.215C44.0299 3.495 44.0499 3.935 44.0399 4.525C44.0399 5.115 44.0099 5.545 43.9799 5.815C43.9299 6.095 43.8599 6.295 43.7599 6.405C43.6599 6.515 43.4799 6.575 43.2099 6.595C42.7399 6.625 42.4399 6.515 42.2999 6.245C42.1599 5.975 42.0699 5.345 42.0399 4.345C42.0199 3.665 41.9899 3.245 41.9499 3.105C41.9099 2.965 41.7699 2.825 41.5399 2.695C41.0399 2.375 40.0499 2.225 38.5699 2.225C38.0899 2.225 37.7699 2.205 37.6199 2.165C37.4699 2.125 37.3599 2.015 37.2899 1.855C37.2099 1.655 37.2299 1.435 37.3499 1.205C37.4699 0.974996 37.6499 0.794996 37.8899 0.674996C38.2599 0.504996 39.0299 0.474996 40.1999 0.574996L40.1499 0.554996Z"
              fill="#222222"/>
        <path d="M62.41 10.575C62.79 10.655 63.04 10.865 63.16 11.195C63.29 11.595 63.19 11.905 62.85 12.135C62.51 12.355 61.99 12.465 61.29 12.445C60.67 12.445 60.33 12.475 60.25 12.535C60.18 12.595 60.18 12.875 60.26 13.375C60.36 14.125 60.36 14.635 60.26 14.915C60.16 15.195 59.88 15.405 59.41 15.555C58.94 15.685 58.63 15.625 58.49 15.355C58.34 15.085 58.26 14.465 58.26 13.475C58.24 12.975 58.19 12.695 58.11 12.635C58.03 12.575 57.64 12.535 56.96 12.495C55.49 12.425 54.56 12.355 54.17 12.285C53.78 12.205 53.52 12.055 53.41 11.825C53.08 11.105 53.77 10.705 55.49 10.625C55.92 10.605 56.42 10.605 56.99 10.625C58.24 10.675 59.32 10.655 60.24 10.575C61.31 10.495 62.03 10.495 62.41 10.575ZM59.12 1.485C60.01 1.515 60.52 1.535 60.63 1.575C60.95 1.675 61.18 1.875 61.33 2.175C61.61 2.745 61.59 3.145 61.25 3.395C60.91 3.645 60.35 3.685 59.55 3.515C59.2 3.445 58.68 3.395 58 3.355C57.32 3.315 56.87 3.315 56.65 3.365C56.5 3.395 56.41 3.435 56.39 3.465C56.36 3.495 56.36 3.625 56.38 3.845V4.015C56.38 4.315 56.45 4.485 56.58 4.525C56.71 4.565 57.18 4.575 57.98 4.565C58.2 4.545 58.36 4.535 58.48 4.535C59.6 4.505 60.26 4.515 60.48 4.585C60.7 4.655 60.77 4.865 60.72 5.225C60.66 5.585 60.52 5.845 60.31 6.005C60.1 6.165 59.77 6.255 59.34 6.265C58.02 6.265 57.21 6.385 56.89 6.645C56.77 6.745 56.83 6.835 57.06 6.925C57.28 6.995 57.44 7.045 57.56 7.095C57.71 7.165 58.36 7.205 59.51 7.215C59.78 7.235 59.99 7.245 60.15 7.245C60.31 7.245 60.47 7.245 60.64 7.255C60.81 7.255 60.94 7.275 61.03 7.295L61.31 7.345C61.4 7.365 61.47 7.385 61.51 7.425C61.55 7.455 61.59 7.495 61.63 7.525C61.67 7.555 61.7 7.605 61.71 7.665C61.71 7.725 61.73 7.775 61.74 7.825C61.74 7.875 61.75 7.945 61.75 8.025C61.75 8.525 61.63 8.835 61.39 8.965C61.15 9.085 60.54 9.155 59.58 9.155C58 9.175 56.89 9.035 56.27 8.745C55.65 8.455 55.18 7.855 54.88 6.955C54.8 6.725 54.74 6.475 54.72 6.225C54.7 5.975 54.66 5.345 54.61 4.345C54.58 3.865 54.54 3.595 54.51 3.535C54.48 3.475 54.3 3.415 53.98 3.345C53.6 3.265 53.42 3.005 53.44 2.585C53.46 2.165 53.67 1.835 54.05 1.625C54.22 1.555 54.88 1.525 56.02 1.525C57.16 1.525 57.73 1.505 57.75 1.475C57.78 1.455 58.25 1.465 59.14 1.485H59.12ZM55.42 14.125C55.76 14.205 55.99 14.305 56.11 14.425C56.21 14.525 56.26 14.755 56.26 15.125C56.26 15.545 56.32 15.835 56.45 16.015C56.57 16.185 56.8 16.315 57.14 16.375C57.72 16.455 58.39 16.495 59.14 16.485C59.89 16.485 60.42 16.415 60.74 16.295C61.32 16.095 61.82 16.115 62.23 16.355C62.64 16.595 62.82 16.985 62.77 17.515C62.72 17.945 62.5 18.205 62.12 18.295C61.74 18.375 60.53 18.465 58.5 18.545C57.22 18.575 56.3 18.485 55.76 18.265C55.22 18.045 54.77 17.595 54.42 16.885C54.15 16.365 54.04 15.775 54.08 15.115C54.12 14.455 54.29 14.085 54.59 14.035C54.81 14.005 55.09 14.035 55.43 14.115L55.42 14.125Z"
              fill="#222222"/>
        <path d="M75.39 6.55499C75.61 6.98499 75.75 7.58499 75.81 8.35499C76.01 10.605 76.3 12.385 76.69 13.705C76.79 14.025 76.76 14.285 76.6 14.495C76.44 14.705 76.19 14.805 75.84 14.805C75.39 14.805 75.04 14.525 74.79 13.965C74.54 13.405 74.34 12.445 74.19 11.075C74.19 11.045 74.19 10.995 74.17 10.925C74.12 10.445 74.04 10.165 73.93 10.085C73.82 10.015 73.44 9.98499 72.79 10.025C72.69 10.045 72.62 10.055 72.56 10.055C71.73 10.105 71.18 10.135 70.94 10.135C70.71 10.135 70.56 10.135 70.52 10.155C70.47 10.175 70.43 10.225 70.4 10.305C69.9 11.325 69.47 12.025 69.11 12.415C68.75 12.805 68.28 13.075 67.7 13.225C66.92 13.425 66.23 13.355 65.63 13.025C65.03 12.695 64.61 12.145 64.38 11.375C64.2 10.805 64.18 10.075 64.33 9.16499C64.48 8.25499 64.73 7.61499 65.08 7.25499C65.55 6.75499 66.28 6.56499 67.27 6.67499C68.26 6.79499 69.02 7.16499 69.53 7.79499C69.8 8.11499 69.97 8.27499 70.06 8.29499C70.36 8.37499 70.93 8.37499 71.76 8.26499C72.16 8.21499 72.55 8.21499 72.93 8.26499C73.38 8.31499 73.65 8.30499 73.73 8.22499C73.81 8.14499 73.86 7.87499 73.88 7.41499C73.91 6.99499 73.95 6.72499 73.98 6.60499C74.01 6.48499 74.1 6.34499 74.23 6.19499C74.66 5.72499 75.06 5.84499 75.4 6.54499L75.39 6.55499ZM66.87 8.74499C66.75 8.74499 66.64 8.82499 66.54 8.95499C66.26 9.27499 66.08 9.66499 66.01 10.145C65.94 10.615 66.01 10.955 66.21 11.155C66.51 11.475 66.88 11.495 67.31 11.235C67.74 10.975 68.02 10.555 68.14 9.98499C68.21 9.71499 68.18 9.50499 68.06 9.34499C67.94 9.18499 67.72 9.03499 67.39 8.88499C67.16 8.78499 66.98 8.73499 66.87 8.74499ZM78.69 4.79499C79.04 5.00499 79.26 5.30499 79.34 5.70499C79.59 7.05499 79.78 8.80499 79.92 10.955C79.97 11.705 80.03 12.395 80.09 13.025C80.21 14.075 80.22 14.765 80.13 15.085C80.04 15.415 79.79 15.575 79.39 15.575C78.96 15.575 78.64 15.415 78.45 15.095C78.26 14.775 78.16 14.265 78.16 13.575C78.16 12.375 78.03 10.845 77.76 8.99499C77.71 8.59499 77.66 8.18499 77.61 7.76499C77.54 7.24499 77.47 6.80499 77.38 6.44499C77.15 5.54499 77.25 4.96499 77.68 4.71499C78 4.54499 78.33 4.56499 78.68 4.77499L78.69 4.79499Z"
              fill="#222222"/>
        <path d="M92.04 5.01499C92.24 5.01499 92.41 5.10499 92.54 5.25499C92.69 5.38499 92.78 5.53499 92.8 5.69499C92.83 5.85499 92.85 6.25499 92.86 6.90499C92.89 7.58499 92.94 8.10499 93.01 8.45499C93.09 8.82499 93.13 9.45499 93.13 10.345C93.13 11.235 93.09 11.815 93.01 12.085C92.91 12.455 92.7 12.825 92.39 13.205C92.07 13.585 91.79 13.815 91.54 13.875C90.11 14.255 89.04 14.345 88.33 14.125C87.62 13.905 87.15 13.345 86.92 12.425C86.75 11.725 86.67 10.345 86.67 8.27499C86.67 7.65499 86.65 7.16499 86.6 6.80499C86.52 6.20499 86.61 5.74499 86.89 5.41499C87.17 5.08499 87.5 5.04499 87.9 5.27499C88.05 5.37499 88.16 5.51499 88.23 5.70499C88.3 5.88499 88.36 6.25499 88.43 6.80499C88.51 7.38499 88.57 7.73499 88.59 7.85499C88.61 7.97499 88.67 8.04499 88.75 8.08499C88.83 8.13499 89.08 8.16499 89.48 8.18499C89.88 8.20499 90.2 8.18499 90.43 8.15499L90.81 8.13499L90.86 7.28499C90.91 6.20499 91.13 5.51499 91.51 5.21499C91.68 5.08499 91.86 5.01499 92.06 5.02499L92.04 5.01499ZM89.94 10.005C89.22 10.025 88.83 10.065 88.77 10.125C88.65 10.225 88.64 10.525 88.72 11.035C88.8 11.545 88.93 11.835 89.1 11.925C89.52 12.155 89.94 12.235 90.36 12.145C90.79 12.065 91.09 11.855 91.27 11.525C91.34 11.375 91.37 11.105 91.36 10.705C91.36 10.305 91.31 10.095 91.25 10.085C91.1 10.015 90.67 9.99499 89.95 10.005H89.94ZM95.97 4.88499C96.15 5.03499 96.27 5.20499 96.32 5.38499C96.37 5.56499 96.41 5.96499 96.44 6.55499C96.46 7.23499 96.5 7.63499 96.58 7.74499C96.66 7.85499 96.91 7.89499 97.34 7.88499C97.79 7.85499 98.07 7.79499 98.18 7.71499C98.29 7.63499 98.33 7.43499 98.29 7.11499C98.27 6.79499 98.24 6.57499 98.19 6.44499C97.99 5.92499 98.05 5.55499 98.36 5.32499C98.67 5.09499 99.08 5.12499 99.56 5.42499C99.99 5.72499 100.27 6.17499 100.39 6.78499C100.51 7.39499 100.55 8.58499 100.51 10.375C100.48 11.355 100.41 12.075 100.31 12.515C100.21 12.955 100.03 13.295 99.77 13.515C99.51 13.735 99.09 13.925 98.51 14.075C98.06 14.195 97.53 14.155 96.91 13.955C96.29 13.755 95.86 13.485 95.6 13.145C95.34 12.805 95.12 12.125 94.94 11.105C94.76 10.085 94.65 8.89499 94.61 7.52499C94.58 6.64499 94.53 6.07499 94.46 5.82499C94.36 5.39499 94.46 5.02499 94.73 4.72499C95.05 4.40499 95.46 4.46499 95.96 4.89499L95.97 4.88499ZM97.46 9.49499C97.13 9.49499 96.92 9.53499 96.82 9.63499C96.69 9.75499 96.62 10.215 96.61 11.015C96.61 11.815 96.66 12.255 96.77 12.345C96.89 12.425 97.09 12.395 97.37 12.255C97.65 12.115 97.85 11.945 97.95 11.745C98.15 11.425 98.29 10.865 98.37 10.075C98.39 9.92499 98.39 9.82499 98.37 9.78499C98.35 9.74499 98.3 9.69499 98.22 9.64499C98.04 9.56499 97.78 9.51499 97.46 9.50499V9.49499ZM103.86 4.14499C103.98 4.16499 104.16 4.26499 104.37 4.43499C104.6 4.61499 104.76 4.86499 104.83 5.18499C104.9 5.50499 104.97 6.13499 105.02 7.08499C105.07 7.88499 105.14 8.34499 105.24 8.47499C105.34 8.59499 105.69 8.68499 106.29 8.71499C107.02 8.74499 107.56 8.82499 107.89 8.93499C108.22 9.05499 108.47 9.26499 108.64 9.58499C108.86 9.93499 108.81 10.245 108.49 10.505C108.17 10.765 107.75 10.855 107.22 10.755C106 10.555 105.38 10.605 105.34 10.905C105.27 11.355 105.36 12.155 105.59 13.305C105.72 13.955 105.8 14.385 105.83 14.585C105.85 14.785 105.83 14.995 105.77 15.205C105.65 15.735 105.36 16.015 104.88 16.045C104.41 16.075 104.04 15.835 103.79 15.335C103.54 14.835 103.38 13.085 103.32 10.085C103.3 9.68499 103.27 9.40499 103.22 9.25499C103.17 9.10499 103.14 8.58499 103.12 7.70499C103.09 6.68499 103.04 5.98499 103 5.60499C102.95 5.15499 102.95 4.83499 103.01 4.65499C103.07 4.47499 103.2 4.33499 103.4 4.23499C103.58 4.15499 103.74 4.12499 103.86 4.14499Z"
              fill="#222222"/>
        <path d="M110.59 4.075C110.74 4.095 111.51 4.125 112.92 4.175C114.29 4.225 115.05 4.265 115.22 4.295C116 4.515 116.19 5.205 115.8 6.375C115.7 6.725 115.66 6.955 115.68 7.065C115.7 7.175 115.81 7.265 116.03 7.355C116.55 7.605 117.13 8.025 117.78 8.605C117.86 8.675 117.99 8.785 118.16 8.945C118.33 9.105 118.44 9.205 118.49 9.255C118.76 9.475 118.84 9.725 118.74 10.015C118.64 10.305 118.45 10.505 118.16 10.605C117.88 10.705 117.57 10.685 117.24 10.525C117.01 10.395 116.83 10.295 116.71 10.225C116.44 10.075 115.97 9.755 115.29 9.255C114.91 8.955 114.6 8.835 114.37 8.905C114.3 8.925 114.06 9.105 113.64 9.455C113.22 9.805 112.91 10.085 112.7 10.305C112.49 10.525 112.25 10.665 111.99 10.745C111.73 10.825 111.48 10.805 111.26 10.705C110.93 10.555 110.75 10.275 110.74 9.855C110.72 9.435 110.87 9.085 111.19 8.805C111.66 8.375 112.12 7.845 112.59 7.225C112.76 6.995 112.93 6.805 113.12 6.645C113.45 6.365 113.54 6.185 113.39 6.125C113.26 6.055 112.87 6.005 112.24 5.975C111.24 5.945 110.61 5.875 110.35 5.785C110.09 5.695 109.92 5.485 109.84 5.145C109.74 4.745 109.87 4.415 110.24 4.145C110.34 4.075 110.46 4.055 110.62 4.075H110.59ZM115.25 12.265C115.58 12.555 115.74 12.905 115.74 13.305C115.74 13.635 115.81 14.035 115.95 14.505C116.09 14.975 116.22 15.225 116.34 15.275C116.66 15.395 117.11 15.465 117.72 15.485C118.32 15.515 118.86 15.485 119.34 15.425C120.22 15.275 120.85 15.235 121.23 15.305C121.61 15.375 121.88 15.575 122.04 15.905C122.26 16.335 122.24 16.685 122 16.955C121.76 17.225 121.35 17.335 120.76 17.305C120.34 17.275 119.84 17.305 119.26 17.385C116.84 17.785 115.18 17.305 114.26 15.935C113.94 15.455 113.79 15.005 113.79 14.585C113.79 14.435 113.75 14.215 113.67 13.935C113.54 13.535 113.53 13.145 113.66 12.765C113.79 12.385 114.01 12.135 114.32 12.015C114.62 11.895 114.93 11.985 115.26 12.275L115.25 12.265ZM121.46 2.755C121.68 2.875 121.83 3.025 121.92 3.225C122.01 3.425 122.09 3.785 122.16 4.305C122.18 4.575 122.23 5.135 122.33 5.975C122.4 6.405 122.45 6.855 122.48 7.325C122.5 7.725 122.54 8.135 122.6 8.545C122.77 9.615 122.83 10.295 122.8 10.595C122.78 10.845 122.74 11.035 122.66 11.155C122.59 11.275 122.44 11.405 122.22 11.515C121.94 11.645 121.65 11.665 121.36 11.575C121.07 11.485 120.92 11.325 120.92 11.085C120.92 10.965 120.88 10.765 120.8 10.485C120.72 10.205 120.67 9.795 120.65 9.255C120.63 8.775 120.6 8.285 120.55 7.785C120.5 7.285 120.46 6.765 120.43 6.235C120.4 5.715 120.34 5.265 120.26 4.885C120.01 3.665 120.13 2.935 120.61 2.685C120.86 2.565 121.14 2.585 121.46 2.735V2.755Z"
              fill="#222222"/>
        <path d="M130.15 6.175C130.84 6.175 131.34 6.195 131.64 6.225C132.12 6.295 132.36 6.555 132.34 7.025C132.34 7.475 132.2 7.775 131.93 7.925C131.65 8.075 131.13 8.145 130.34 8.145C129.26 8.145 128.43 8.235 127.87 8.425C127.5 8.545 127.49 9.265 127.84 10.595C128.01 11.265 128.14 11.695 128.25 11.885C128.36 12.075 128.54 12.225 128.79 12.325C128.81 12.345 128.92 12.395 129.13 12.475C129.34 12.555 129.5 12.625 129.62 12.675C129.92 12.805 130.15 12.885 130.31 12.915C130.47 12.945 130.89 12.965 131.57 12.975C132.42 12.995 132.97 13.055 133.21 13.145C133.45 13.245 133.65 13.505 133.8 13.925C133.97 14.405 133.95 14.735 133.75 14.895C133.55 15.065 133.15 15.095 132.55 14.995C132.13 14.925 131.55 14.885 130.8 14.875C129.08 14.855 127.88 14.495 127.2 13.795C126.77 13.375 126.4 12.725 126.09 11.835C125.78 10.945 125.63 10.095 125.63 9.295C125.63 8.915 125.58 8.675 125.48 8.595C125.21 8.365 125.06 8.215 125.03 8.155C125 8.095 124.98 7.975 124.98 7.795C124.98 7.415 125.12 7.125 125.4 6.915C125.53 6.835 125.97 6.725 126.7 6.585C127.05 6.535 127.43 6.465 127.85 6.385C128.37 6.285 128.69 6.225 128.82 6.215C129.02 6.185 129.47 6.165 130.16 6.165L130.15 6.175ZM137.41 4.525C137.64 4.675 137.8 4.875 137.87 5.115C137.95 5.355 138.05 5.945 138.18 6.875C138.3 7.795 138.39 8.275 138.46 8.325C138.51 8.375 138.86 8.405 139.51 8.425C140.21 8.455 140.65 8.495 140.84 8.525C141.02 8.555 141.17 8.635 141.26 8.755C141.64 9.185 141.71 9.625 141.47 10.065C141.23 10.505 140.82 10.665 140.26 10.555C140.03 10.505 139.7 10.485 139.29 10.505L138.67 10.525L138.64 10.855C138.59 11.575 138.72 12.435 139.02 13.455C139.24 14.255 139.31 14.835 139.23 15.205C139.15 15.575 138.91 15.785 138.49 15.855C137.94 15.975 137.53 15.755 137.26 15.195C136.99 14.635 136.81 13.635 136.71 12.185C136.69 11.765 136.65 11.305 136.59 10.785C136.57 10.615 136.55 10.405 136.51 10.145C136.48 9.885 136.46 9.745 136.46 9.705C136.44 9.555 136.38 9.155 136.29 8.505C136.19 7.825 136.13 7.235 136.12 6.755C136.07 6.185 136.02 5.765 135.97 5.475C135.85 4.945 136.01 4.565 136.44 4.355C136.71 4.205 137.03 4.265 137.42 4.525H137.41Z"
              fill="#222222"/>
    </g>
    <defs>
        <clipPath id="clip0_3298_77352">
            <rect width="141.61" height="19.01" fill="white" transform="translate(0 0.494995)"/>
        </clipPath>
    </defs>
</svg>
