<svg width="130" height="22" viewBox="0 0 130 22" fill="none" xmlns="http://www.w3.org/2000/svg">
    <g clip-path="url(#clip0_3298_77216)">
        <path d="M1.34 5.61H5.32C6.16 5.61 6.61 6.11 6.66 7.11C6.66 7.47 6.27 8.52 5.48 10.25C7.69 11.62 8.97 12.57 9.3 13.09V13.75C9.3 13.92 9.08 14.14 8.64 14.41H8.32C8.05 14.41 6.78 13.64 4.5 12.09H4.32C3.51 13.74 2.73 14.57 2 14.57C1.49 14.36 1.21 14.14 1.16 13.91V13.59C1.16 13.31 2.11 11.64 4 8.59L4.32 7.77H1.66C0.81 7.77 0.25 7.49 0 6.93V6.43C0.29 5.88 0.74 5.61 1.34 5.61ZM15.44 3.05C16.16 3.05 16.52 5.28 16.52 9.73V16.21C16.52 17.17 16.16 17.65 15.44 17.65C14.83 17.65 14.52 17.32 14.52 16.65V10.59H14.06C13.79 10.59 13.35 10.64 12.72 10.73V15.79C12.72 16.31 12.47 16.69 11.96 16.93H11.34C11.13 16.93 10.93 16.62 10.76 15.99C10.75 15.1 10.74 14.55 10.74 14.35L10.58 4.49C10.78 4.05 10.99 3.81 11.2 3.77C11.43 3.69 11.68 3.69 11.96 3.77C12.37 3.89 12.58 4.32 12.58 5.05V8.79C12.61 8.84 12.71 8.87 12.88 8.87C13.53 8.78 14.03 8.73 14.38 8.73L14.52 8.71C14.52 8.36 14.47 6.76 14.38 3.91C14.42 3.34 14.77 3.05 15.44 3.05Z"
              fill="#222222"/>
        <path d="M24.48 4.97C25.16 4.97 25.68 5.28 26.04 5.91V12.73C26.04 13.64 25.37 14.16 24.02 14.29L21.06 14.37C19.37 14.32 18.52 13.61 18.52 12.25C18.32 9.1 18.17 7.29 18.06 6.81C18.06 5.32 20.2 4.7 24.48 4.97ZM20.26 7.27C20.41 10.59 20.62 12.25 20.9 12.25H24.1V6.89C21.54 6.82 20.26 6.95 20.26 7.27ZM30.2 3.47C30.57 3.38 30.9 3.4 31.18 3.53C32.02 3.53 32.26 7.84 31.9 16.45C31.9 16.88 31.64 17.2 31.12 17.41H30.8C30.07 17.41 29.7 16.98 29.7 16.13C29.83 9.77 29.81 5.89 29.62 4.49C29.62 3.85 29.81 3.51 30.2 3.47Z"
              fill="#222222"/>
        <path d="M47.62 10.43C48.19 10.43 48.54 10.68 48.66 11.17C48.74 11.41 48.74 11.64 48.66 11.85C48.46 12.49 47.91 12.75 47.02 12.63L42.84 12.61H36.06C34.93 12.61 34.36 12.26 34.36 11.55C34.36 10.79 34.76 10.41 35.56 10.41C38.73 10.42 40.87 10.43 41.96 10.43H47.62ZM45.62 3.07V4.43C45.7 5.34 44.54 5.86 42.14 5.99C40.91 6.1 39.93 6.16 39.18 6.17V7.01L40.06 7.17H40.78C42.25 7.17 43.63 7.12 44.92 7.01C45.49 7.01 45.89 7.33 46.12 7.97C46.05 8.66 45.73 9.06 45.16 9.15L39.74 9.17C37.85 9.21 36.9 8.68 36.9 7.57V6.09C36.9 4.8 37.45 4.15 38.56 4.15C40.75 4.14 42.4 4.04 43.52 3.85V2.81C41.35 2.89 39.55 2.92 38.14 2.89C37.47 2.92 37.12 2.68 37.08 2.19V1.73C37.12 1.12 37.69 0.82 38.8 0.85C40.76 0.81 42.56 0.81 44.2 0.85C45.15 0.85 45.62 1.59 45.62 3.07ZM46 15.67V16.83C46.08 17.74 44.92 18.26 42.52 18.39C41.16 18.5 40.11 18.56 39.36 18.57V19.21L40.24 19.37H40.96C42.56 19.37 44.01 19.32 45.3 19.21C45.87 19.21 46.27 19.53 46.5 20.17C46.43 20.86 46.11 21.26 45.54 21.35L39.92 21.37C38.03 21.41 37.08 20.88 37.08 19.77V18.49C37.08 17.2 37.63 16.55 38.74 16.55C41.06 16.54 42.78 16.44 43.9 16.25V15.41C41.59 15.49 39.73 15.52 38.32 15.49C37.65 15.52 37.3 15.28 37.26 14.79V14.33C37.3 13.72 37.87 13.42 38.98 13.45C41.07 13.41 42.94 13.41 44.58 13.45C45.53 13.45 46 14.19 46 15.67Z"
              fill="#222222"/>
        <path d="M56.06 1.75H60.1C60.98 1.75 61.42 2.24 61.42 3.23L61.4 5.91C61.67 7.87 61.31 8.85 60.34 8.85C59.67 8.76 59.35 8.32 59.36 7.55L59.28 6.41L59.3 3.87H58.8C58.09 3.87 57.08 3.86 55.76 3.83C55.19 3.76 54.89 3.55 54.86 3.19V2.73C54.99 2.14 55.39 1.82 56.06 1.75ZM69.16 9.41C69.73 9.41 70.08 9.64 70.2 10.09C70.28 10.3 70.28 10.51 70.2 10.71C70 11.3 69.45 11.54 68.56 11.43L64.38 11.41V11.59L64.36 12.87C64.48 13.79 64.25 14.29 63.68 14.37H63.5C62.67 14.37 62.26 13.96 62.26 13.13V11.41H57.6C56.47 11.41 55.9 11.09 55.9 10.45C55.9 9.74 56.3 9.39 57.1 9.39C60.27 9.4 62.41 9.41 63.5 9.41H69.16ZM67.52 15.67V16.83C67.6 17.74 66.44 18.26 64.04 18.39C62.68 18.5 61.63 18.56 60.88 18.57V19.21L61.76 19.37H62.48C64.08 19.37 65.53 19.32 66.82 19.21C67.39 19.21 67.79 19.53 68.02 20.17C67.95 20.86 67.63 21.26 67.06 21.35L61.44 21.37C59.55 21.41 58.6 20.88 58.6 19.77V18.49C58.6 17.2 59.15 16.55 60.26 16.55C62.58 16.54 64.3 16.44 65.42 16.25V15.41C63.11 15.49 61.25 15.52 59.84 15.49C59.17 15.52 58.82 15.28 58.78 14.79V14.33C58.82 13.72 59.39 13.42 60.5 13.45C62.59 13.41 64.46 13.41 66.1 13.45C67.05 13.45 67.52 14.19 67.52 15.67ZM67.96 2.69C68.03 4.5 68.06 5.87 68.06 6.79C68.07 8.16 67.74 8.85 67.06 8.85C66.41 8.93 66.01 8.64 65.86 7.99L65.82 6.79L65.84 4.01C65.84 3.78 65.73 3.67 65.5 3.67H62.76C62.11 3.58 61.78 3.18 61.78 2.47C61.93 1.95 62.46 1.62 63.38 1.49C64.3 1.45 65.01 1.43 65.52 1.43C67.11 1.43 67.92 1.85 67.96 2.69Z"
              fill="#222222"/>
        <path d="M79.82 4.55C80.55 4.67 80.91 5.06 80.88 5.73C80.91 7.24 80.83 8.26 80.66 8.79C80.25 10.55 79.7 11.52 79.02 11.69C78.81 11.78 78.57 11.77 78.32 11.65C77.93 11.42 77.79 11.03 77.9 10.47C78.74 9.24 79.12 7.91 79.04 6.47C78.15 6.44 77.57 6.46 77.32 6.51L76.9 6.49L76.64 6.19C76.65 7.24 76.55 8.09 76.34 8.73C75.7 10.82 75.07 11.86 74.46 11.83H74.32C73.81 11.79 73.5 11.58 73.38 11.21C73.37 10.97 73.38 10.74 73.42 10.51C74.3 9.19 74.71 7.85 74.66 6.49L72.3 6.37C71.71 6.32 71.39 6.1 71.32 5.71C71.24 5.47 71.26 5.23 71.38 4.99C71.41 4.56 72.87 4.43 75.76 4.59C76.19 4.64 76.45 4.8 76.56 5.07C76.76 4.62 77.85 4.44 79.82 4.55ZM77.36 14.07L82.68 14.05C84.39 14 85.24 14.62 85.24 15.93V18.61C85.29 20.24 84.87 21.02 83.98 20.97C83.25 20.74 82.93 20.34 83.04 19.77V16.51C83.04 16.27 82.92 16.15 82.68 16.15L76.48 16.17C75.83 16.16 75.42 15.94 75.26 15.53C75.22 15.32 75.22 15.1 75.26 14.87C75.33 14.28 76.03 14.02 77.36 14.07ZM85.76 3.21C86.49 3.21 86.86 3.9 86.86 5.27C87.07 7.14 87.18 9.03 87.18 10.95V12.23C86.86 12.75 86.49 13.01 86.08 13.01C85.64 12.86 85.32 12.6 85.12 12.23V8.95H82.92C82.12 8.95 81.65 8.74 81.5 8.31V7.53C81.67 7.1 82.04 6.89 82.6 6.89H84.98L84.82 4.63C84.95 3.68 85.27 3.21 85.76 3.21Z"
              fill="#222222"/>
        <path d="M91.86 15.81C92.61 16.21 92.87 16.98 92.64 18.11C92.32 19.42 91.57 20.08 90.4 20.09C90.11 20.02 90.03 19.86 90.18 19.59C90.65 19.46 90.91 18.99 90.96 18.19C90.01 17.71 89.84 17.01 90.44 16.09C90.95 15.65 91.42 15.56 91.86 15.81Z"
              fill="#222222"/>
        <path d="M99.84 1.75H103.88C104.76 1.75 105.2 2.24 105.2 3.23L105.18 5.91C105.45 7.87 105.09 8.85 104.12 8.85C103.45 8.76 103.13 8.32 103.14 7.55L103.06 6.41L103.08 3.87H102.58C101.87 3.87 100.86 3.86 99.54 3.83C98.97 3.76 98.67 3.55 98.64 3.19V2.73C98.77 2.14 99.17 1.82 99.84 1.75ZM112.94 9.41C113.51 9.41 113.86 9.64 113.98 10.09C114.06 10.3 114.06 10.51 113.98 10.71C113.78 11.3 113.23 11.54 112.34 11.43L108.16 11.41V11.59L108.14 12.87C108.26 13.79 108.03 14.29 107.46 14.37H107.28C106.45 14.37 106.04 13.96 106.04 13.13V11.41H101.38C100.25 11.41 99.68 11.09 99.68 10.45C99.68 9.74 100.08 9.39 100.88 9.39C104.05 9.4 106.19 9.41 107.28 9.41H112.94ZM111.3 15.67V16.83C111.38 17.74 110.22 18.26 107.82 18.39C106.46 18.5 105.41 18.56 104.66 18.57V19.21L105.54 19.37H106.26C107.86 19.37 109.31 19.32 110.6 19.21C111.17 19.21 111.57 19.53 111.8 20.17C111.73 20.86 111.41 21.26 110.84 21.35L105.22 21.37C103.33 21.41 102.38 20.88 102.38 19.77V18.49C102.38 17.2 102.93 16.55 104.04 16.55C106.36 16.54 108.08 16.44 109.2 16.25V15.41C106.89 15.49 105.03 15.52 103.62 15.49C102.95 15.52 102.6 15.28 102.56 14.79V14.33C102.6 13.72 103.17 13.42 104.28 13.45C106.37 13.41 108.24 13.41 109.88 13.45C110.83 13.45 111.3 14.19 111.3 15.67ZM111.74 2.69C111.81 4.5 111.84 5.87 111.84 6.79C111.85 8.16 111.52 8.85 110.84 8.85C110.19 8.93 109.79 8.64 109.64 7.99L109.6 6.79L109.62 4.01C109.62 3.78 109.51 3.67 109.28 3.67H106.54C105.89 3.58 105.56 3.18 105.56 2.47C105.71 1.95 106.24 1.62 107.16 1.49C108.08 1.45 108.79 1.43 109.3 1.43C110.89 1.43 111.7 1.85 111.74 2.69Z"
              fill="#222222"/>
        <path d="M128.78 10.61C129.35 10.61 129.7 10.84 129.82 11.29C129.9 11.5 129.9 11.71 129.82 11.91C129.62 12.5 129.07 12.74 128.18 12.63L124 12.61V12.79L123.98 14.07C124.1 14.99 123.87 15.49 123.3 15.57H123.12C122.29 15.57 121.88 15.16 121.88 14.33V12.61H117.22C116.09 12.61 115.52 12.29 115.52 11.65C115.52 10.94 115.92 10.59 116.72 10.59C119.89 10.6 122.03 10.61 123.12 10.61H128.78ZM117.98 14.43C118.37 14.38 118.63 14.38 118.76 14.43C119.11 14.44 119.36 14.7 119.52 15.21V16.57C119.43 17.93 119.62 18.6 120.1 18.57C120.31 18.69 120.64 18.75 121.08 18.75H127.54C128.3 18.75 128.68 19.14 128.68 19.91C128.68 20.55 128.17 20.87 127.16 20.87C124.83 20.95 122.55 20.98 120.34 20.95C118.43 20.86 117.45 20.38 117.4 19.53C117.27 18.84 117.2 18.26 117.2 17.79V15.79C117.2 15.1 117.46 14.64 117.98 14.43ZM125.98 0.630001C126.59 0.760001 126.89 1.14 126.86 1.77C126.73 2.44 126.11 2.75 125.02 2.71L119.62 2.87C119.61 3.11 119.63 3.46 119.7 3.93C120.14 3.98 122.19 3.93 125.84 3.77C126.45 3.81 126.78 4.18 126.82 4.89C126.66 5.54 126.07 5.88 125.04 5.91L120.02 6.01C119.97 6.7 120.52 7.08 121.68 7.15C123 7.18 124.57 7.18 126.4 7.15C126.72 7.18 126.95 7.34 127.1 7.65L127.08 8.17C127.04 8.85 126.45 9.16 125.32 9.11L120.58 9.29C119.21 8.98 118.37 8.15 118.08 6.79C117.69 4.79 117.53 3.49 117.58 2.89L117.64 1.95C117.68 1.14 118.47 0.770001 120.02 0.850001C121.18 0.730001 123.17 0.660001 125.98 0.630001Z"
              fill="#222222"/>
    </g>
    <defs>
        <clipPath id="clip0_3298_77216">
            <rect width="129.88" height="20.74" fill="white" transform="translate(0 0.630001)"/>
        </clipPath>
    </defs>
</svg>
