<svg width="123" height="20" viewBox="0 0 123 20" fill="none" xmlns="http://www.w3.org/2000/svg">
    <g clip-path="url(#clip0_3298_77225)">
        <path d="M7.28 2.105C7.52 2.155 7.97 2.195 8.65 2.245L10.09 2.285L10.01 4.345C9.97 5.435 9.96 6.095 10.01 6.345C10.06 6.685 10.27 6.895 10.6 6.935C10.63 6.935 10.67 6.935 10.7 6.935C10.99 6.935 11.2 6.745 11.28 6.395C11.33 6.125 11.4 5.355 11.47 4.025C11.58 1.145 11.39 0.995003 11.22 0.895003C11 0.755003 10.43 0.655003 8.03 0.925003C7.43 0.985003 6.75 1.125 6.75 1.615C6.75 1.755 6.82 2.015 7.29 2.105H7.28Z"
              fill="#222222"/>
        <path d="M12.51 7.61501C12.1 7.51501 11.78 7.56501 11.58 7.74501C11.37 7.79501 10.34 7.86501 6.08002 7.86501C3.48002 7.86501 1.89002 7.88501 1.35002 7.92501C1.10002 7.94501 0.330017 7.99501 0.330017 8.53501C0.330017 8.71501 0.420017 9.02501 1.00002 9.12501C1.32002 9.17501 2.15002 9.22501 3.54002 9.27501C6.19002 9.33501 6.68002 9.40501 6.72002 9.41501C6.73002 9.43501 6.83002 9.59501 6.77002 10.495L6.73002 11.535L4.10002 11.595C1.05002 11.765 1.05002 11.845 1.05002 12.135V12.505C1.05002 12.795 1.29002 12.865 2.58002 12.925C3.45002 12.965 4.41002 12.965 5.46002 12.935C6.53002 12.905 7.28002 12.855 7.75002 12.775C8.36002 12.675 8.97002 12.655 9.58002 12.715C9.99002 12.755 10.12 12.785 10.16 12.795C10.19 12.795 10.22 12.825 10.26 12.905C10.26 12.905 10.3 13.005 10.22 13.275V13.345C10.22 13.495 10.2 13.615 10.17 13.695C10.15 13.745 10.1 13.805 10.01 13.865C9.89002 13.935 9.77002 13.985 9.64002 14.015C9.49002 14.045 9.22002 14.085 8.85002 14.105C8.47002 14.135 8.07002 14.155 7.65002 14.155C7.23002 14.155 6.65002 14.155 5.91002 14.145C4.98002 14.145 4.26002 14.145 3.75002 14.155C3.22002 14.155 2.80002 14.195 2.46002 14.255C2.09002 14.325 1.85002 14.415 1.72002 14.535C1.57002 14.675 1.50002 14.855 1.50002 15.075C1.50002 15.495 1.62002 16.175 1.87002 17.155C2.23002 18.555 2.38002 18.765 2.50002 18.855C2.60002 18.925 2.74002 19.035 4.70002 19.035C5.36002 19.035 6.23002 19.025 7.37002 18.995C11.07 18.905 11.42 18.815 11.53 18.795C11.93 18.705 12.03 18.415 11.99 18.205C11.98 17.995 11.85 17.625 11.18 17.575C10.79 17.545 9.59002 17.535 7.58002 17.555C5.63002 17.595 4.44002 17.605 4.05002 17.565C3.73002 17.535 3.53002 17.445 3.45002 17.315C3.31002 17.055 3.27002 16.685 3.32002 16.195L3.37002 15.625L7.01002 15.565C11 15.515 11.18 15.285 11.27 15.175C11.4 15.055 11.55 14.805 11.73 13.255C11.83 12.245 11.82 11.975 11.79 11.865C11.74 11.625 11.55 11.445 11.21 11.345C10.85 11.255 10.29 11.205 9.52002 11.205C8.61002 11.205 8.43002 11.065 8.40002 11.035C8.35002 10.985 8.25002 10.825 8.22002 10.315C8.19002 9.81501 8.27002 9.61501 8.31002 9.55501C8.35002 9.52501 8.62002 9.36501 10.33 9.27501C11.53 9.18501 12.29 9.09501 12.65 9.00501C13.33 8.83501 13.3 8.37501 13.26 8.19501C13.19 7.79501 12.68 7.67501 12.51 7.63501V7.61501Z"
              fill="#222222"/>
        <path d="M2.43999 2.43501L4.36999 2.37501L4.23999 6.96501H4.99999C5.50999 6.96501 5.66999 6.67501 5.70999 6.50501C5.74999 6.37501 5.79999 6.03501 5.81999 4.66501C5.81999 2.93501 5.90999 2.61501 5.94999 2.53501C6.04999 2.33501 6.05999 2.04501 5.96999 1.61501C5.90999 1.38501 5.82999 1.22501 5.68999 1.11501C5.54999 1.01501 5.24999 0.915008 3.27999 0.935008C1.13999 0.955008 0.69999 1.00501 0.54999 1.05501C0.38999 1.10501 0.25999 1.19501 0.14999 1.34501C0.0499902 1.49501 -0.0100098 1.65501 -0.0100098 1.82501C-0.0100098 1.94501 -9.76771e-06 2.09501 0.0899902 2.17501C0.21999 2.33501 0.46999 2.46501 2.42999 2.42501L2.43999 2.43501Z"
              fill="#222222"/>
        <path d="M25.43 15.725C25.12 15.685 24.26 15.665 22.87 15.665H20.1L20.02 14.935C19.92 14.285 19.9 13.575 19.96 12.825C19.98 12.285 19.96 11.925 19.92 11.725C19.85 11.345 19.61 11.245 19.48 11.215H19.44C19.07 11.185 18.82 11.355 18.68 11.685C18.62 11.865 18.53 12.295 18.53 14.015C18.53 14.185 18.53 14.385 18.55 14.605V14.975C18.55 15.045 18.55 15.135 18.55 15.245C18.55 15.345 18.54 15.415 18.54 15.425C18.54 15.425 18.54 15.445 18.49 15.505L18.41 15.615C18.41 15.615 18.36 15.635 18.33 15.645C18.22 15.685 18.18 15.685 18.18 15.685C18.13 15.685 18.01 15.685 17.84 15.695C17.68 15.695 17.55 15.705 17.45 15.705C17.34 15.705 17.16 15.705 16.92 15.725H16.08C15.74 15.725 15.42 15.745 15.16 15.795C14.31 15.855 13.86 16.015 13.72 16.315C13.66 16.435 13.62 16.625 13.78 16.865C13.89 17.035 13.99 17.205 18.81 17.205C19.09 17.205 19.39 17.205 19.71 17.205C25.29 17.185 25.54 17.115 25.69 17.065C25.87 16.975 26.09 16.765 26.09 16.315C26.09 16.165 26.03 15.795 25.43 15.725Z"
              fill="#222222"/>
        <path d="M15.52 9.105C15.56 9.565 15.62 9.955 15.72 10.235C15.83 10.575 15.98 10.795 16.18 10.885C16.29 10.935 16.4 10.965 16.53 10.965C16.63 10.965 16.74 10.945 16.86 10.915C17.25 10.815 18.4 10.735 20.28 10.685C20.73 10.675 21.21 10.655 21.72 10.655C22.23 10.655 22.62 10.635 22.89 10.625L23.29 10.605C23.58 10.605 23.66 10.605 23.8 7.535C23.9 5.735 24 4.485 24.08 3.815C24.16 3.225 24.15 3.045 24.12 2.945C24.08 2.795 23.94 2.625 23.53 2.625C23.12 2.625 22.85 2.805 22.72 3.155C22.64 3.425 22.6 3.775 22.6 4.215C22.6 4.615 22.56 5.105 22.47 5.675L22.37 6.255H16.88L16.92 4.845C16.98 3.795 16.95 3.515 16.92 3.395C16.89 3.265 16.77 2.955 16.31 2.955C15.89 2.955 15.62 3.295 15.51 3.965C15.42 4.515 15.39 5.585 15.42 7.215C15.45 8.025 15.48 8.655 15.52 9.105ZM16.94 7.825C16.94 7.825 16.99 7.775 17.15 7.755C17.53 7.685 18.2 7.645 19.16 7.645C20.12 7.645 20.87 7.675 21.38 7.735C21.98 7.825 22.09 7.895 22.1 7.885C22.1 7.895 22.16 8.005 22.16 8.435V8.645C22.17 8.905 22.12 8.985 22.1 8.985C22.06 9.005 21.81 9.075 20.6 9.135C20.35 9.135 20.16 9.135 20.05 9.155C19.9 9.155 19.57 9.175 19.06 9.215C18.57 9.255 18.22 9.265 18.01 9.265L16.98 9.315L16.93 8.595C16.89 7.995 16.93 7.845 16.93 7.825H16.94Z"
              fill="#222222"/>
        <path d="M40.74 10.035C40.44 9.92501 39.87 9.87501 39 9.87501H37.87L37.93 7.18501C37.99 5.25501 37.96 4.79501 37.93 4.61501C37.86 4.10501 37.52 3.98501 37.35 3.96501C36.93 3.87501 36.75 4.06501 36.68 4.17501C36.62 4.28501 36.54 4.49501 36.5 5.23501C36.43 6.12501 36.4 8.15501 36.42 11.435C36.45 16.385 36.51 16.455 36.63 16.595C36.73 16.685 36.85 16.725 36.99 16.725C37.1 16.725 37.23 16.695 37.36 16.645C37.61 16.555 37.77 16.295 37.83 15.875C37.87 15.535 37.91 14.855 37.92 13.805L38 11.555L39.44 11.495C40.18 11.465 40.62 11.425 40.83 11.375C41.13 11.305 41.31 11.085 41.31 10.775C41.31 10.415 41.11 10.155 40.74 10.025V10.035Z"
              fill="#222222"/>
        <path d="M30.34 4.68502C27.9 4.58502 27.34 4.68502 27.12 4.77502C26.6 4.99502 26.38 5.43502 26.49 6.03502C26.52 6.14502 26.57 6.76502 26.59 9.62502C26.63 11.935 26.76 13.465 26.98 14.295L27.41 15.615H30.31C30.38 15.615 30.45 15.605 30.53 15.575H30.85C32.43 15.575 32.79 15.545 32.92 15.515C33.23 15.455 33.41 15.245 33.41 14.955V14.845C33.41 14.525 33.24 14.295 32.93 14.225C32.8 14.195 32.49 14.155 31.42 14.135H30.81C29.18 14.115 28.75 14.045 28.64 14.005C28.58 13.985 28.42 13.875 28.31 13.325C28.29 13.245 28.27 13.175 28.24 13.125C28.16 12.625 28.12 11.465 28.12 9.68502C28.12 7.38502 28.19 6.60502 28.24 6.36502C28.3 6.16502 28.41 6.07502 28.6 6.04502C28.79 6.02502 29.41 6.03502 31.25 6.21502C32.12 6.29502 32.65 6.31502 32.88 6.30502C33.19 6.28502 33.42 6.12502 33.49 5.88502C33.72 5.42502 33.53 5.17502 33.41 5.08502C33.3 4.98502 33.12 4.82502 30.34 4.71502V4.68502Z"
              fill="#222222"/>
        <path d="M62.14 5.57502C62.02 5.52502 61.76 5.45502 60.92 5.41502L59.74 5.32502L59.7 3.43502C59.66 2.45502 59.61 1.87502 59.56 1.65502C59.49 1.33502 59.27 1.14502 58.94 1.14502C58.84 1.14502 58.76 1.15502 58.69 1.17502C58.59 1.20502 58.5 1.26502 58.44 1.34502C58.37 1.42502 58.33 1.53502 58.32 1.65502C58.32 1.73502 58.31 1.83502 58.31 1.96502C58.21 8.57502 58.27 9.63502 58.31 9.84502C58.34 9.97502 58.44 10.265 58.89 10.265C59.18 10.265 59.39 10.105 59.46 9.83502C59.5 9.70502 59.53 9.43502 59.49 8.49502C59.41 7.30502 59.57 7.02502 59.63 6.97502C59.68 6.92502 59.91 6.75502 61.01 6.80502C61.78 6.84502 62.03 6.80502 62.15 6.77502C62.3 6.73502 62.55 6.59502 62.55 6.16502C62.55 5.88502 62.41 5.67502 62.15 5.57502H62.14Z"
              fill="#222222"/>
        <path d="M54.03 9.18502C54.37 9.11502 54.53 8.84502 54.47 8.50502C54.44 8.33502 54.33 8.03502 53.9 7.92502C53.65 7.86502 53.05 7.80502 52.04 7.74502L51.95 7.76502C51.9 7.73502 51.84 7.72502 51.76 7.72502C51.42 7.71502 51.18 7.70502 51.03 7.70502C50.91 7.70502 50.76 7.68502 50.58 7.64502C50.4 7.60502 50.27 7.57502 50.22 7.55502C50.22 7.55502 50.17 7.52502 50.08 7.40502C49.98 7.27502 49.97 7.22502 49.97 7.22502C49.97 7.15502 49.94 6.98502 49.9 6.72502C49.87 6.48502 49.85 6.27502 49.85 6.11502V5.23502C49.85 5.04502 49.85 4.89502 49.83 4.83502V3.12502H52.57C53.2 3.12502 53.71 3.12502 54.09 3.10502C54.47 3.09502 54.77 3.07502 55 3.06502C55.27 3.04502 55.44 3.01502 55.55 2.96502C55.71 2.88502 55.8 2.74502 55.8 2.57502C55.8 2.44502 55.8 2.06502 55.55 1.98502C55.45 1.92502 55.32 1.84502 52.15 1.66502C50.87 1.62502 50.02 1.60502 49.56 1.63502C49.04 1.65502 48.71 1.74502 48.49 1.90502C48.15 2.18502 48.03 2.55502 48.12 2.97502C48.23 3.37502 48.33 4.25502 48.4 5.58502C48.49 7.06502 48.59 7.99502 48.72 8.41502L48.97 9.25502H51.75C53.05 9.25502 53.79 9.23502 54.05 9.20502L54.03 9.18502Z"
              fill="#222222"/>
        <path d="M58.82 17.875C58.55 17.825 57.78 17.785 56.46 17.755C54.51 17.745 53.17 17.695 52.48 17.605L51.4 17.495L51.31 15.525H54.63C58.27 15.525 58.5 15.365 58.6 15.295C58.89 15.135 59.02 14.675 59.02 13.725C58.99 12.985 59.01 12.385 59.06 11.955L59.16 11.065L55.01 11.045C52.54 11.015 51.05 11.045 50.46 11.115C50.15 11.135 49.93 11.205 49.78 11.325C49.67 11.415 49.54 11.595 49.54 11.885C49.54 12.055 49.61 12.445 50.26 12.505C50.6 12.535 51.67 12.525 53.53 12.485C55.23 12.455 56.29 12.455 56.69 12.495C57.16 12.535 57.26 12.655 57.27 12.665C57.39 12.865 57.43 13.135 57.39 13.445C57.37 13.595 57.32 13.705 57.24 13.785C57.18 13.845 57.04 13.925 56.72 13.995C56.15 14.125 55.15 14.105 53.6 14.025C53.02 14.015 52.61 13.995 52.38 13.985C52.14 13.975 51.83 13.975 51.47 13.985C51.11 14.005 50.89 14.015 50.78 14.015C50.64 14.025 50.47 14.095 50.26 14.215C50.02 14.365 49.9 14.495 49.87 14.645C49.86 14.715 49.83 14.865 49.79 15.065C49.75 15.285 49.73 15.495 49.74 15.685L49.77 16.445C49.87 18.185 50.08 18.585 50.26 18.735C50.39 18.865 50.62 19.095 54.55 19.115C55.66 19.135 56.49 19.135 57.12 19.135C58.9 19.135 59.04 19.075 59.13 19.035C59.31 18.945 59.4 18.745 59.4 18.435C59.4 18.285 59.34 17.925 58.81 17.835L58.82 17.875Z"
              fill="#222222"/>
        <path d="M71.22 4.55501H68.27C67.42 4.55501 66.76 4.55501 66.29 4.57501C65.81 4.59501 65.43 4.62501 65.14 4.69501C64.78 4.77501 64.58 4.87501 64.48 5.01501C64.37 5.17501 64.36 5.37501 64.47 5.67501C64.58 5.88501 64.82 6.00501 65.18 6.04501C65.47 6.07501 66.13 6.04501 67.19 5.98501C68.55 5.89501 69.65 5.89501 70.45 5.98501L71.23 6.12501L71.12 7.26501C71.07 7.81501 71.06 8.17501 71.08 8.38501C71.11 8.74501 71.29 8.90501 71.46 8.97501C71.54 9.00501 71.63 9.02501 71.71 9.02501C71.91 9.02501 72.1 8.92501 72.27 8.72501C72.32 8.64501 72.39 8.54501 72.57 6.79501C72.69 5.66501 72.78 4.52501 72.85 3.40501C72.95 1.62501 72.88 1.51501 72.8 1.40501C72.69 1.27501 72.59 1.16501 68.54 1.16501C66.4 1.16501 65.2 1.18501 64.89 1.23501H64.87C64.47 1.32501 64.37 1.59501 64.41 1.80501C64.44 1.95501 64.51 2.07501 64.62 2.16501C64.69 2.21501 64.82 2.27501 65.24 2.33501C65.53 2.37501 65.87 2.39501 66.27 2.40501C66.66 2.40501 67.25 2.43501 68.06 2.46501L71.2 2.50501L71.3 3.05501C71.39 3.48501 71.39 3.86501 71.3 4.19501L71.21 4.57501L71.22 4.55501Z"
              fill="#222222"/>
        <path d="M71.45 9.70501C70.9 9.73501 70.51 9.76501 70.28 9.78501C70.07 9.80501 69.8 9.80501 69.48 9.78501C69.14 9.76501 68.92 9.75501 68.83 9.75501C68.83 9.75501 68.76 9.75501 68.59 9.64501C68.51 9.59501 68.47 9.55501 68.45 9.53501C68.44 9.46501 68.42 9.35501 68.39 9.17501C68.35 8.94501 68.36 8.81501 68.37 8.74501C68.39 8.60501 68.41 8.37501 68.43 8.00501C68.51 7.14501 68.49 6.87501 68.47 6.74501C68.42 6.44501 68.23 6.26501 67.96 6.26501C67.65 6.26501 67.41 6.39501 67.28 6.62501C67.18 6.74501 67.07 7.01501 66.96 8.56501L66.87 9.89501H65.12C63.79 9.89501 63.46 9.94501 63.33 9.98501C63.02 10.075 62.87 10.315 62.92 10.615C62.95 10.825 63.08 11.175 63.71 11.235C63.92 11.255 64.35 11.265 65.03 11.265C65.56 11.265 66.25 11.265 67.09 11.245C69.8 11.185 71.24 11.145 71.48 11.135C72.06 11.095 72.65 11.065 73.25 11.065C74.23 11.025 74.7 10.875 74.84 10.525C74.98 10.095 74.8 9.86501 74.67 9.75501C74.55 9.65501 74.4 9.52501 71.44 9.70501H71.45Z"
              fill="#222222"/>
        <path d="M69.31 12.535C66.66 12.465 65.15 12.485 64.71 12.605C64.46 12.695 64.3 12.935 64.23 13.315C64.18 13.615 64.15 14.295 64.15 15.395C64.15 16.645 64.21 17.495 64.33 17.995C64.41 18.405 64.55 18.665 64.77 18.785C64.84 18.825 64.94 18.865 65.07 18.865C65.15 18.865 65.24 18.855 65.34 18.815C65.46 18.775 66.14 18.695 69.34 18.615L73.3 18.565L73.38 16.735C73.39 15.705 73.49 14.895 73.66 14.305C73.85 13.585 73.83 13.135 73.59 12.875C73.48 12.765 73.34 12.625 69.33 12.525L69.31 12.535ZM72.1 14.045L72.01 15.365C71.91 16.555 71.83 16.915 71.8 17.015C71.64 17.065 71.02 17.155 68.67 17.155H67.15C66.97 17.155 66.74 17.145 66.48 17.115L66.28 17.095C66.12 17.075 66.01 17.065 65.96 17.065C65.96 17.065 65.9 17.065 65.74 16.965C65.67 16.925 65.63 16.895 65.62 16.895C65.6 16.835 65.58 16.735 65.55 16.585C65.52 16.445 65.5 16.315 65.5 16.225V14.035L67.03 13.945C67.49 13.945 68.33 13.915 69.55 13.855C70.08 13.825 70.67 13.855 71.31 13.945L72.09 14.045H72.1Z"
              fill="#222222"/>
        <path d="M76.52 3.58499C77.05 3.64499 77.82 3.68499 78.8 3.69499C79.51 3.72499 80.05 3.73499 80.43 3.73499C80.81 3.73499 81.12 3.73499 81.35 3.71499C81.64 3.69499 81.8 3.66499 81.9 3.60499C82.03 3.52499 82.11 3.38499 82.11 3.22499C82.11 3.11499 82.11 2.76499 81.86 2.59499C81.77 2.53499 81.63 2.45499 79.51 2.33499C77.63 2.23499 77.19 2.27499 77.01 2.32499C76.96 2.34499 76.65 2.41499 76.13 2.53499C76 2.55499 75.88 2.58499 75.79 2.64499C75.69 2.70499 75.61 2.76499 75.56 2.84499C75.5 2.93499 75.47 3.02499 75.47 3.13499L75.49 3.22499C75.56 3.39499 75.73 3.49499 76.53 3.57499L76.52 3.58499Z"
              fill="#222222"/>
        <path d="M79.08 13.165C80.05 13.165 80.94 12.715 81.74 11.795C82.12 11.265 82.32 10.765 82.32 10.305C82.32 10.065 82.27 9.775 82.18 9.425C82.09 9.085 81.96 8.775 81.81 8.485C81.64 8.175 81.49 7.965 81.33 7.845C81.05 7.615 80.62 7.495 80 7.455C79.43 7.425 78.84 7.475 78.27 7.615C76.66 8.075 75.84 9.025 75.84 10.455C75.84 10.755 75.88 11.025 75.95 11.255C76.02 11.485 76.13 11.695 76.27 11.895C76.41 12.095 76.6 12.275 76.83 12.435C77.05 12.585 77.33 12.725 77.64 12.845C78.14 13.055 78.62 13.155 79.09 13.155L79.08 13.165ZM79.5 8.935C79.59 8.935 79.68 8.935 79.78 8.945C80.16 8.975 80.44 9.085 80.61 9.255C80.94 9.585 81.03 9.945 80.89 10.385C80.74 10.845 80.37 11.235 79.77 11.535C79.26 11.805 78.71 11.785 78.1 11.455C77.5 11.145 77.21 10.735 77.21 10.215C77.21 9.995 77.33 9.795 77.58 9.585C77.86 9.355 78.2 9.175 78.58 9.065C78.88 8.975 79.19 8.935 79.5 8.935Z"
              fill="#222222"/>
        <path d="M83.85 17.365C81.48 17.465 80.07 17.575 79.52 17.705C79.39 17.735 79.3 17.725 79.22 17.555C79.14 17.395 79.03 17.005 78.94 16.025C78.91 15.735 78.87 15.485 78.82 15.275C78.7 14.745 78.54 14.475 78.29 14.405C78.17 14.375 77.98 14.375 77.78 14.575C77.67 14.685 77.55 14.915 77.55 16.225C77.55 17.135 77.6 17.805 77.71 18.245C77.77 18.605 77.89 19.095 78.28 19.215C78.35 19.225 78.45 19.245 78.65 19.245C78.96 19.245 79.5 19.215 80.51 19.135C82.18 18.995 83.67 18.885 84.95 18.805C87.41 18.675 87.71 18.425 87.81 18.175C87.95 17.765 87.77 17.525 87.68 17.445C87.57 17.315 87.47 17.195 83.86 17.355L83.85 17.365Z"
              fill="#222222"/>
        <path d="M76.95 7.025C77.62 7.005 78.57 6.995 79.76 6.995C81.68 6.985 82.77 6.945 83.08 6.885C83.29 6.845 83.42 6.765 83.5 6.635C83.54 6.565 83.59 6.445 83.55 6.325C83.53 6.145 83.43 5.915 83.03 5.795C82.8 5.725 82.38 5.655 81.76 5.595C80.76 5.505 79.64 5.465 78.43 5.465C77.22 5.465 76.4 5.515 76.01 5.605C75.67 5.715 75.43 5.985 75.29 6.425C75.27 6.635 75.31 6.795 75.42 6.905C75.51 7.005 75.65 7.055 75.8 7.055C75.82 7.055 75.83 7.055 75.85 7.055C75.91 7.055 76.28 7.045 76.96 7.025H76.95Z"
              fill="#222222"/>
        <path d="M89.37 8.375C89.26 8.335 89.04 8.275 88.3 8.275H87.36L87.38 5.715C87.43 4.365 87.43 3.555 87.38 3.255C87.3 2.685 86.94 2.625 86.79 2.625C86.5 2.625 86.29 2.785 86.19 3.085C86.14 3.215 86.07 3.515 85.97 4.485C85.88 5.525 85.82 7.385 85.79 10.005C85.79 11.695 85.81 12.745 85.85 13.215C85.88 13.545 85.92 14.145 86.33 14.145C86.51 14.145 86.75 14.045 86.85 13.545C86.9 13.265 86.95 12.725 86.98 11.925C86.99 11.355 87.02 10.915 87.06 10.625C87.1 10.365 87.17 10.145 87.27 9.995C87.37 9.835 87.48 9.795 87.55 9.785C87.71 9.755 87.97 9.755 88.31 9.765C88.71 9.795 89 9.795 89.21 9.775C89.38 9.755 89.62 9.705 89.73 9.515C89.8 9.385 89.8 9.215 89.75 8.975C89.71 8.665 89.58 8.455 89.37 8.365V8.375Z"
              fill="#222222"/>
        <path d="M103.83 2.105C104.07 2.155 104.52 2.195 105.2 2.245L106.64 2.285L106.56 4.345C106.52 5.435 106.51 6.095 106.56 6.345C106.61 6.685 106.82 6.895 107.15 6.935C107.18 6.935 107.22 6.935 107.25 6.935C107.54 6.935 107.75 6.745 107.83 6.395C107.88 6.125 107.95 5.355 108.02 4.025C108.13 1.145 107.94 0.995003 107.77 0.895003C107.55 0.755003 106.98 0.655003 104.58 0.925003C103.98 0.985003 103.3 1.125 103.3 1.615C103.3 1.755 103.37 2.015 103.84 2.105H103.83Z"
              fill="#222222"/>
        <path d="M109.06 7.61501C108.65 7.51501 108.33 7.56501 108.13 7.74501C107.92 7.79501 106.89 7.86501 102.63 7.86501C100.03 7.86501 98.44 7.88501 97.9 7.92501C97.65 7.94501 96.88 7.99501 96.88 8.53501C96.88 8.71501 96.97 9.02501 97.55 9.12501C97.87 9.17501 98.7 9.22501 100.09 9.27501C102.74 9.33501 103.23 9.40501 103.27 9.41501C103.28 9.43501 103.38 9.59501 103.32 10.495L103.28 11.535L100.65 11.595C97.6 11.765 97.6 11.845 97.6 12.135V12.505C97.6 12.795 97.84 12.865 99.13 12.925C100 12.965 100.96 12.965 102.01 12.935C103.08 12.905 103.83 12.855 104.3 12.775C104.91 12.675 105.52 12.655 106.13 12.715C106.54 12.755 106.67 12.785 106.71 12.795C106.74 12.795 106.77 12.825 106.81 12.905C106.81 12.905 106.85 13.005 106.77 13.275V13.345C106.77 13.495 106.75 13.615 106.72 13.695C106.7 13.745 106.65 13.805 106.56 13.865C106.44 13.935 106.32 13.985 106.19 14.015C106.04 14.045 105.77 14.085 105.4 14.105C105.02 14.135 104.62 14.155 104.2 14.155C103.78 14.155 103.2 14.155 102.46 14.145C101.53 14.145 100.81 14.145 100.3 14.155C99.77 14.155 99.35 14.195 99.01 14.255C98.64 14.325 98.4 14.415 98.27 14.535C98.12 14.675 98.05 14.855 98.05 15.075C98.05 15.495 98.17 16.175 98.42 17.155C98.78 18.555 98.93 18.765 99.05 18.855C99.15 18.925 99.29 19.035 101.25 19.035C101.91 19.035 102.78 19.025 103.92 18.995C107.62 18.905 107.97 18.815 108.08 18.795C108.48 18.705 108.58 18.415 108.54 18.205C108.53 17.995 108.4 17.625 107.73 17.575C107.34 17.545 106.13 17.535 104.13 17.555C102.18 17.595 100.99 17.605 100.6 17.565C100.28 17.535 100.08 17.445 100 17.315C99.86 17.055 99.82 16.685 99.87 16.195L99.92 15.625L103.56 15.565C107.55 15.515 107.73 15.285 107.82 15.175C107.95 15.055 108.1 14.805 108.28 13.255C108.38 12.245 108.37 11.975 108.34 11.865C108.29 11.625 108.1 11.445 107.76 11.345C107.4 11.255 106.84 11.205 106.07 11.205C105.16 11.205 104.98 11.065 104.95 11.035C104.9 10.985 104.8 10.825 104.77 10.315C104.74 9.81501 104.82 9.61501 104.86 9.55501C104.9 9.52501 105.17 9.36501 106.88 9.27501C108.08 9.18501 108.84 9.09501 109.2 9.00501C109.88 8.83501 109.85 8.37501 109.81 8.19501C109.74 7.79501 109.23 7.67501 109.06 7.63501V7.61501Z"
              fill="#222222"/>
        <path d="M98.99 2.43501L100.92 2.37501L100.79 6.96501H101.55C102.06 6.96501 102.22 6.67501 102.26 6.50501C102.3 6.37501 102.35 6.03501 102.37 4.66501C102.37 2.93501 102.46 2.61501 102.5 2.53501C102.6 2.33501 102.61 2.04501 102.52 1.61501C102.46 1.38501 102.38 1.22501 102.24 1.11501C102.1 1.01501 101.8 0.915008 99.83 0.935008C97.69 0.955008 97.25 1.00501 97.1 1.05501C96.94 1.10501 96.81 1.19501 96.7 1.34501C96.6 1.49501 96.54 1.65501 96.54 1.82501C96.54 1.94501 96.55 2.09501 96.64 2.17501C96.77 2.33501 97.02 2.46501 98.98 2.42501L98.99 2.43501Z"
              fill="#222222"/>
        <path d="M111.32 5.49501C111.35 6.43501 111.41 7.20501 111.51 7.78501C111.61 8.39501 111.73 8.82501 111.86 9.10501C112.06 9.51501 112.33 9.59501 112.52 9.59501C112.55 9.59501 112.58 9.59501 112.61 9.59501C113 9.55501 113.51 9.46501 114.12 9.35501C115 9.19501 116.33 9.09501 118.09 9.05501C120.84 8.99501 121.09 8.88501 121.2 8.76501C121.44 8.56501 121.33 8.17501 121.28 8.02501C121.16 7.73501 120.75 7.60501 119.87 7.57501C119.15 7.55501 117.65 7.60501 115.43 7.74501C113.69 7.83501 113.2 7.78501 113.06 7.74501C112.91 7.70501 112.83 7.50501 112.83 7.15501C112.83 7.00501 112.88 6.83501 113.26 6.74501C113.66 6.65501 114.85 6.54501 116.79 6.43501C118.3 6.34501 119.29 6.25501 119.84 6.14501C120.11 6.09501 120.83 5.95501 120.83 5.45501C120.83 5.17501 120.59 5.00501 120.11 4.96501C119.77 4.93501 119.04 4.94501 117.89 4.98501C116.26 5.05501 114.9 5.09501 113.85 5.09501H112.7L112.65 4.44501C112.62 4.02501 112.65 3.51501 112.94 3.40501C113.16 3.32501 113.99 3.21501 116.69 3.13501C116.74 3.12501 116.79 3.11501 116.82 3.11501C121.04 3.00501 121.1 2.91501 121.17 2.80501C121.24 2.73501 121.28 2.67501 121.31 2.60501C121.35 2.52501 121.37 2.44501 121.37 2.37501C121.37 2.32501 121.37 2.27501 121.36 2.20501C121.34 2.10501 121.3 2.02501 121.23 1.95501C121.19 1.91501 121.14 1.87501 121.1 1.83501C121.05 1.79501 120.99 1.75501 120.91 1.71501C120.83 1.67501 120.76 1.64501 120.68 1.63501C120.6 1.62501 120.52 1.60501 120.43 1.60501H120.21C119.31 1.64501 117.86 1.68501 115.91 1.71501H115.29C114.69 1.72501 114.26 1.73501 114 1.73501C113.74 1.73501 113.4 1.75501 113.03 1.80501C112.65 1.85501 112.41 1.88501 112.3 1.90501C112.15 1.93501 111.99 2.03501 111.77 2.21501C111.55 2.40501 111.43 2.54501 111.39 2.68501C111.37 2.76501 111.33 2.95501 111.29 3.24501C111.24 3.54501 111.22 3.79501 111.23 3.99501C111.23 4.18501 111.26 4.51501 111.29 4.97501C111.3 5.18501 111.31 5.35501 111.31 5.49501H111.32Z"
              fill="#222222"/>
        <path d="M122 11.635C121.89 11.545 121.8 11.465 116.83 11.355C113.53 11.285 111.62 11.275 110.97 11.335C110.68 11.385 110.51 11.455 110.4 11.535C110.26 11.645 110.2 11.835 110.23 12.145C110.3 12.425 110.55 12.605 110.97 12.675C111.3 12.725 112.15 12.765 113.59 12.795C115.63 12.835 116.3 12.895 116.52 12.925C116.55 13.075 116.61 13.425 116.71 14.305C116.81 15.695 116.9 15.915 116.98 16.015C117.04 16.095 117.13 16.165 117.28 16.165C117.38 16.165 117.5 16.135 117.65 16.065C117.92 15.975 118.08 15.775 118.12 15.495C118.14 15.285 118.12 14.905 118.04 14.335C117.93 13.205 118.1 12.965 118.15 12.915C118.21 12.865 118.51 12.705 119.88 12.845C120.55 12.905 121 12.925 121.25 12.885C121.54 12.845 121.78 12.735 121.95 12.545C122.21 12.265 122.24 11.945 121.99 11.635H122Z"
              fill="#222222"/>
        <path d="M120.96 17.575C120.46 17.535 119.25 17.525 117.35 17.545L113.22 17.605L113.04 17.105C112.9 16.645 112.83 16.065 112.83 15.375C112.83 15.075 112.83 14.825 112.81 14.625C112.78 14.355 112.71 13.985 112.43 13.865C112.32 13.815 112.13 13.785 111.89 13.955C111.4 14.305 111.27 15.155 111.48 16.695C111.51 16.785 111.53 16.935 111.56 17.125C111.71 18.145 111.97 18.715 112.37 18.895C112.59 18.995 113.17 19.135 115.59 19.135H116.54C117.62 19.135 118.52 19.125 119.2 19.095C119.88 19.065 120.41 19.025 120.8 18.975C121.26 18.915 121.56 18.825 121.72 18.695C121.93 18.535 122.01 18.295 121.94 18.055C121.87 17.695 121.37 17.605 120.94 17.575H120.96Z"
              fill="#222222"/>
    </g>
    <defs>
        <clipPath id="clip0_3298_77225">
            <rect width="122.17" height="18.49" fill="white" transform="translate(0 0.755005)"/>
        </clipPath>
    </defs>
</svg>
