<svg width="111" height="22" viewBox="0 0 111 22" fill="none" xmlns="http://www.w3.org/2000/svg">
    <g clip-path="url(#clip0_3298_77281)">
        <path d="M7.89998 2.97H10.64C10.87 2.97 10.98 3.08 10.98 3.31L10.96 6.09L11 7.29C11.15 7.94 11.55 8.23 12.2 8.15C12.88 8.15 13.21 7.46 13.2 6.09C13.2 5.17 13.17 3.8 13.1 1.99C13.06 1.15 12.25 0.73 10.66 0.73C10.15 0.73 9.43998 0.75 8.51998 0.79C7.59998 0.92 7.06998 1.25 6.91998 1.77C6.91998 2.48 7.24998 2.88 7.89998 2.97Z"
              fill="#222222"/>
        <path d="M14.3 8.71H8.63998C7.54998 8.71 5.40998 8.71 2.23998 8.69C1.43998 8.69 1.03998 9.04 1.03998 9.75C1.03998 10.39 1.60998 10.71 2.73998 10.71H7.39998V12.43C7.39998 12.54 7.42998 12.63 7.43998 12.73C6.85998 12.73 6.25998 12.74 5.63998 12.75C4.52998 12.72 3.95998 13.02 3.91998 13.63V14.09C3.95998 14.58 4.30998 14.82 4.97998 14.79C6.38998 14.82 8.24998 14.79 10.56 14.71V15.55C9.43998 15.74 7.71998 15.84 5.39998 15.85C4.28998 15.85 3.73998 16.5 3.73998 17.79V19.07C3.73998 20.18 4.68998 20.71 6.57998 20.67L12.2 20.65C12.77 20.56 13.09 20.16 13.16 19.47C12.93 18.83 12.53 18.51 11.96 18.51C10.67 18.62 9.21998 18.67 7.61998 18.67H6.89998L6.01998 18.51V17.87C6.76998 17.86 7.81998 17.8 9.17998 17.69C11.58 17.56 12.74 17.04 12.66 16.13V14.97C12.66 13.49 12.19 12.75 11.24 12.75C10.7 12.74 10.12 12.73 9.51998 12.73C9.51998 12.56 9.51998 12.38 9.49998 12.17L9.51998 10.89V10.71L13.7 10.73C14.59 10.84 15.14 10.6 15.34 10.01C15.42 9.81 15.42 9.6 15.34 9.39C15.22 8.94 14.87 8.71 14.3 8.71Z"
              fill="#222222"/>
        <path d="M4.44 3.17L4.42 5.71L4.5 6.85C4.49 7.62 4.81 8.06 5.48 8.15C6.45 8.15 6.81 7.17 6.54 5.21L6.56 2.53C6.56 1.54 6.12 1.05 5.24 1.05H1.2C0.53 1.12 0.13 1.44 0 2.03V2.49C0.03 2.85 0.33 3.06 0.9 3.13C2.22 3.16 3.23 3.17 3.94 3.17H4.44Z"
              fill="#222222"/>
        <path d="M32.14 2.13C31.42 2.13 31.02 2.58 30.94 3.49V6.25C30.94 6.49 30.83 6.61 30.6 6.61H28.94V4.37C28.86 3.24 28.52 2.67 27.92 2.67C27.12 2.67 26.72 3.07 26.72 3.87V10.71C26.72 11.34 27.06 11.79 27.74 12.07H28.26C28.71 11.88 28.94 11.48 28.94 10.87V8.83H30.94C30.94 9.78 30.88 10.56 30.76 11.19C30.76 12.32 31.16 12.89 31.96 12.89H32.14C32.82 12.89 33.16 11.14 33.16 7.63V3.49C33.16 2.82 32.82 2.37 32.14 2.13Z"
              fill="#222222"/>
        <path d="M24.42 11.15L24.9 11.33C25.63 11.2 25.99 10.72 25.98 9.91C25.83 9.36 24.69 8.51 22.56 7.35V7.17C23.24 5.66 23.62 4.73 23.7 4.37C23.81 3.9 23.52 3.58 22.84 3.39C20.52 3.27 18.86 3.22 17.86 3.23C17.21 3.24 16.85 3.56 16.78 4.17C16.71 4.62 16.95 4.93 17.5 5.09C18.47 5.2 19.65 5.24 21.04 5.23V5.41C20.19 6.64 18.85 8.24 17.04 10.23C16.97 11.07 17.39 11.47 18.3 11.43H18.46C20.1 10 21.04 9.17 21.28 8.93C21.51 9.05 22.55 9.79 24.42 11.15Z"
              fill="#222222"/>
        <path d="M28.04 13.35H21.1C20.15 13.64 19.77 14.36 19.94 15.49V17.45C19.95 18.61 20.07 19.38 20.28 19.77C20.28 20.42 22.15 20.75 25.88 20.75H27.54C28.75 20.75 29.36 19.74 29.36 17.71V14.67C29.36 13.79 28.92 13.35 28.04 13.35ZM27.12 18.35C27.09 18.5 27.03 18.63 26.94 18.75C26.87 18.75 26.78 18.75 26.66 18.73C25.25 18.65 24.22 18.61 23.58 18.61L22.78 18.59C22.43 18.58 22.22 18.36 22.14 17.95V15.79C22.34 15.43 22.6 15.28 22.92 15.33H27.04C27.24 15.4 27.35 15.5 27.36 15.63C27.37 16.38 27.29 17.28 27.12 18.35Z"
              fill="#222222"/>
        <path d="M39.5 4.63C36.85 4.62 35.36 6.04 35.04 8.89V10.25C35.04 12.46 36.61 13.57 39.76 13.57C42.29 13.26 43.56 12.03 43.56 9.87V7.91C43.49 6.26 42.14 5.16 39.5 4.63ZM40.16 11.25L38.84 11.23C37.84 11.1 37.23 10.74 37.02 10.17L36.94 9.69C36.99 8.81 37.18 8.1 37.5 7.57C37.82 7.02 38.32 6.75 39 6.75H39.4C41.01 6.84 41.81 7.62 41.78 9.09C41.78 10.24 41.24 10.96 40.16 11.25Z"
              fill="#222222"/>
        <path d="M48.38 2.83C48.1 2.7 47.77 2.68 47.4 2.77C47.01 2.81 46.82 3.15 46.82 3.79C47.01 5.19 47.03 9.07 46.9 15.43C46.9 16.28 47.27 16.71 48 16.71H48.32C48.84 16.5 49.1 16.18 49.1 15.75C49.46 7.14 49.22 2.83 48.38 2.83Z"
              fill="#222222"/>
        <path d="M68.7 2.51C68.21 2.51 67.89 2.98 67.76 3.93L67.92 6.19H65.54C64.98 6.19 64.61 6.4 64.44 6.83V7.61C64.59 8.04 65.06 8.25 65.86 8.25H68.06V11.53C68.26 11.9 68.58 12.16 69.02 12.31C69.43 12.31 69.8 12.05 70.12 11.53V10.25C70.12 8.33 70.01 6.44 69.8 4.57C69.8 3.2 69.43 2.51 68.7 2.51Z"
              fill="#222222"/>
        <path d="M63.8 12.93C63.23 12.8 62.42 13.04 61.37 13.65C60.32 14.26 59.71 15.5 59.54 17.37C59.93 19.84 61.17 21.14 63.28 21.27H64.74C66.87 20.94 67.91 19.39 67.86 16.63C67.86 14.58 66.51 13.34 63.8 12.93ZM65.82 17.65C65.7 18.5 65.11 18.93 64.04 18.93C62.57 18.93 61.84 18.4 61.84 17.33V16.73C61.97 15.85 62.51 15.32 63.44 15.13H64.04C64.76 15.13 65.29 15.46 65.64 16.13C65.85 16.65 65.91 17.16 65.82 17.65Z"
              fill="#222222"/>
        <path d="M63.34 9.71C63.34 9.39 63.12 9.12 62.68 8.89L58.34 8.91C58.02 8.91 57.89 7.67 57.96 5.19V5.03L61.48 5.01C62.43 5.01 62.88 4.67 62.84 3.99C62.84 3.42 62.47 3.1 61.74 3.05C61.02 3.02 60.47 3.01 60.08 3.01H57.48C56.4 3.01 55.86 3.44 55.86 4.31L55.78 4.97C55.7 6.05 55.77 7.2 55.98 8.41C56.22 10.1 57.12 10.95 58.68 10.95H62.44C63.13 10.95 63.43 10.54 63.34 9.71Z"
              fill="#222222"/>
        <path d="M85.76 8.71H80.1C79.01 8.71 76.87 8.71 73.7 8.69C72.9 8.69 72.5 9.04 72.5 9.75C72.5 10.39 73.07 10.71 74.2 10.71H78.86V12.43C78.86 12.54 78.89 12.63 78.9 12.73C78.32 12.73 77.72 12.74 77.1 12.75C75.99 12.72 75.42 13.02 75.38 13.63V14.09C75.42 14.58 75.77 14.82 76.44 14.79C77.85 14.82 79.71 14.79 82.02 14.71V15.55C80.9 15.74 79.18 15.84 76.86 15.85C75.75 15.85 75.2 16.5 75.2 17.79V19.07C75.2 20.18 76.15 20.71 78.04 20.67L83.66 20.65C84.23 20.56 84.55 20.16 84.62 19.47C84.39 18.83 83.99 18.51 83.42 18.51C82.13 18.62 80.68 18.67 79.08 18.67H78.36L77.48 18.51V17.87C78.23 17.86 79.28 17.8 80.64 17.69C83.04 17.56 84.2 17.04 84.12 16.13V14.97C84.12 13.49 83.65 12.75 82.7 12.75C82.16 12.74 81.58 12.73 80.98 12.73C80.98 12.56 80.98 12.38 80.96 12.17L80.98 10.89V10.71L85.16 10.73C86.05 10.84 86.6 10.6 86.8 10.01C86.88 9.81 86.88 9.6 86.8 9.39C86.68 8.94 86.33 8.71 85.76 8.71Z"
              fill="#222222"/>
        <path d="M79.36 2.97H82.1C82.33 2.97 82.44 3.08 82.44 3.31L82.42 6.09L82.46 7.29C82.61 7.94 83.01 8.23 83.66 8.15C84.34 8.15 84.67 7.46 84.66 6.09C84.66 5.17 84.63 3.8 84.56 1.99C84.52 1.15 83.71 0.73 82.12 0.73C81.61 0.73 80.9 0.75 79.98 0.79C79.06 0.92 78.53 1.25 78.38 1.77C78.38 2.48 78.71 2.88 79.36 2.97Z"
              fill="#222222"/>
        <path d="M75.9 3.17L75.88 5.71L75.96 6.85C75.95 7.62 76.27 8.06 76.94 8.15C77.91 8.15 78.27 7.17 78 5.21L78.02 2.53C78.02 1.54 77.58 1.05 76.7 1.05H72.66C71.99 1.12 71.59 1.44 71.46 2.03V2.49C71.49 2.85 71.79 3.06 72.36 3.13C73.68 3.16 74.69 3.17 75.4 3.17H75.9Z"
              fill="#222222"/>
        <path d="M103.28 2.35C102.61 2.35 102.26 2.64 102.22 3.21C102.31 6.06 102.36 7.66 102.36 8.01L102.22 8.03C101.87 8.03 101.37 8.08 100.72 8.17C100.55 8.17 100.45 8.14 100.42 8.09V4.35C100.42 3.62 100.21 3.19 99.8 3.07C99.52 2.99 99.27 2.99 99.04 3.07C98.83 3.11 98.62 3.35 98.42 3.79L98.58 13.65C98.58 13.85 98.58 14.4 98.6 15.29C98.77 15.92 98.97 16.23 99.18 16.23H99.8C100.31 15.99 100.56 15.61 100.56 15.09V10.03C101.19 9.94 101.63 9.89 101.9 9.89H102.36V15.95C102.36 16.62 102.67 16.95 103.28 16.95C104 16.95 104.36 16.47 104.36 15.51V9.03C104.36 4.58 104 2.35 103.28 2.35Z"
              fill="#222222"/>
        <path d="M89.92 4.09L93.22 5.15C93.83 5.08 94.17 4.9 94.24 4.61L94.44 3.97C94.44 3.58 94.24 3.3 93.84 3.11C92.87 2.88 91.85 2.62 90.8 2.31L90.02 2.07C89.55 2.08 89.28 2.23 89.2 2.51L89.02 3.13C89.06 3.6 89.36 3.92 89.92 4.09Z"
              fill="#222222"/>
        <path d="M93.86 10.11C94.9 8.59 95.42 7.65 95.42 7.29C95.37 6.29 94.92 5.79 94.08 5.79H89.7C89.1 5.79 88.65 6.06 88.36 6.61V7.11C88.61 7.67 89.17 7.95 90.02 7.95H92.68L92.38 8.53C89.73 11.08 88.4 12.49 88.4 12.77V13.09C88.55 13.76 88.87 14.11 89.36 14.15C89.91 14.2 91.01 13.31 92.66 11.47L92.88 11.67C94.88 13.35 96.01 14.19 96.28 14.19H96.6C97.04 13.92 97.28 13.65 97.32 13.37L97.26 12.87C96.93 12.35 95.79 11.43 93.86 10.11Z"
              fill="#222222"/>
        <path d="M107.9 12.05L107.86 13.69C107.85 14.2 108.13 14.58 108.7 14.85C109.25 14.86 109.59 14.5 109.74 13.75L109.8 11.85C109.87 10.05 109.88 8.36 109.84 6.79C109.91 4.7 109.56 3.64 108.8 3.61C108.35 3.6 108 3.96 107.76 4.71C107.97 6.02 108.02 8.46 107.9 12.05Z"
              fill="#222222"/>
        <path d="M108.9 16.49C108.09 16.46 107.61 16.92 107.46 17.85C107.45 18.57 107.86 19 108.7 19.15C109.62 19.1 110.09 18.77 110.12 18.17C110.01 17.08 109.61 16.52 108.9 16.49Z"
              fill="#222222"/>
    </g>
    <defs>
        <clipPath id="clip0_3298_77281">
            <rect width="110.12" height="20.54" fill="white" transform="translate(0 0.73)"/>
        </clipPath>
    </defs>
</svg>
