<svg width="151" height="22" viewBox="0 0 151 22" fill="none" xmlns="http://www.w3.org/2000/svg">
    <g clip-path="url(#clip0_3298_77250)">
        <path d="M1.3 16.955C1.08 16.975 0.88 16.955 0.72 16.885C0.56 16.825 0.43 16.735 0.32 16.635C0.22 16.535 0.14 16.415 0.08 16.285C0.02 16.155 0 16.025 0 15.905C0 15.635 0.11 15.365 0.32 15.085C0.54 14.815 0.87 14.655 1.32 14.605C2.73 14.475 4.16 14.345 5.63 14.205C7.09 14.065 8.51 13.975 9.89 13.925C11.01 13.875 11.59 14.205 11.64 14.905C11.67 15.245 11.56 15.525 11.3 15.765C11.04 16.005 10.64 16.145 10.1 16.195C9.57 16.245 8.92 16.305 8.13 16.375C7.35 16.445 6.53 16.515 5.69 16.595C4.85 16.665 4.04 16.735 3.25 16.795C2.47 16.855 1.81 16.905 1.28 16.935L1.3 16.955ZM5.64 6.54501C5.08 6.43501 4.54 6.425 4.01 6.535C3.48 6.635 2.98 6.80501 2.5 7.02501C2.16 7.18501 1.88 7.215 1.64 7.12501C1.4 7.02501 1.24 6.86501 1.16 6.645C1.08 6.455 1.08 6.24501 1.17 6.00501C1.26 5.76501 1.45 5.54501 1.73 5.32501C1.97 5.14501 2.25 4.99501 2.58 4.85501C2.91 4.71501 3.26 4.60501 3.64 4.50501C4.02 4.40501 4.4 4.345 4.8 4.305C5.2 4.265 5.59 4.26501 5.98 4.29501C6.7 4.34501 7.29 4.465 7.74 4.665C8.2 4.86501 8.58 5.145 8.9 5.495C9.22 5.865 9.47 6.30501 9.66 6.82501C9.84 7.34501 9.94 7.95501 9.96 8.66501C9.98 9.19501 9.92 9.72501 9.79 10.245C9.66 10.775 9.49 11.265 9.29 11.705C9.16 11.975 9.01 12.215 8.82 12.415C8.64 12.615 8.43 12.765 8.2 12.875C7.97 12.975 7.72 13.025 7.46 13.005C7.2 12.985 6.94 12.905 6.68 12.745C6.06 12.345 5.97 11.615 6.42 10.565C6.6 10.185 6.75 9.80501 6.88 9.43501C7.01 9.06501 7.06 8.675 7.05 8.255C7 7.275 6.54 6.715 5.66 6.555L5.64 6.54501Z"
              fill="#222222"/>
        <path d="M13.94 9.185C13.57 9.155 13.31 9.045 13.16 8.875C13.01 8.695 12.93 8.525 12.93 8.345C12.93 8.155 13.01 7.985 13.18 7.825C13.35 7.675 13.57 7.565 13.84 7.505C14.5 7.375 15.13 7.305 15.75 7.285C16.37 7.265 17 7.265 17.66 7.285C17.93 7.285 18.14 7.245 18.27 7.155C18.41 7.065 18.47 6.885 18.47 6.615C18.47 6.345 18.38 6.145 18.19 6.025C18.01 5.905 17.73 5.815 17.36 5.745C17.1 5.695 16.82 5.675 16.51 5.675C16.2 5.675 15.89 5.675 15.59 5.695C15.29 5.715 15 5.735 14.73 5.765C14.46 5.795 14.23 5.825 14.03 5.865C13.65 5.925 13.36 5.875 13.19 5.705C13.02 5.535 12.91 5.355 12.88 5.165C12.85 4.955 12.9 4.765 13.04 4.575C13.18 4.395 13.38 4.235 13.65 4.105C13.86 4.005 14.12 3.925 14.44 3.865C14.76 3.805 15.1 3.755 15.46 3.725C15.82 3.695 16.18 3.675 16.55 3.675C16.92 3.675 17.26 3.695 17.58 3.725C18.65 3.855 19.46 4.155 20.02 4.625C20.57 5.095 20.85 5.795 20.85 6.725C20.87 7.095 20.81 7.425 20.69 7.705C20.57 7.995 20.42 8.235 20.25 8.425C19.87 8.805 19.35 9.005 18.69 9.025H17.37C17.1 9.025 16.83 9.025 16.57 9.035C16.31 9.035 16.09 9.055 15.91 9.075C15.86 9.655 15.99 10.095 16.31 10.405C16.62 10.715 17.05 10.875 17.59 10.875C18.01 10.875 18.39 10.815 18.75 10.695C19.11 10.575 19.42 10.445 19.67 10.295C20.07 10.075 20.44 9.995 20.79 10.065C21.13 10.135 21.39 10.305 21.55 10.585C21.74 10.935 21.78 11.305 21.67 11.675C21.56 12.055 21.28 12.355 20.83 12.595C20.29 12.885 19.79 13.085 19.33 13.195C18.87 13.305 18.37 13.365 17.81 13.365C16.4 13.365 15.39 12.985 14.76 12.235C14.14 11.485 13.86 10.455 13.94 9.165V9.185ZM19.41 18.835C19.31 18.115 19.25 17.415 19.22 16.745C19.19 16.075 19.13 15.415 19.05 14.775C19.02 14.505 19.07 14.275 19.21 14.095C19.35 13.915 19.52 13.805 19.73 13.775C19.95 13.745 20.19 13.775 20.44 13.855C20.69 13.935 20.85 14.095 20.93 14.325L21.6 14.225C22.13 14.145 22.68 14.085 23.26 14.045C23.84 14.005 24.38 13.965 24.89 13.935C25.39 13.915 25.71 14.045 25.86 14.305C26.01 14.565 26.08 14.865 26.06 15.185C26.06 15.375 26.06 15.595 26.04 15.845C26.02 16.095 26.01 16.345 25.99 16.615C25.97 16.885 25.95 17.135 25.93 17.385C25.91 17.635 25.88 17.835 25.85 17.995C25.77 18.505 25.67 18.915 25.54 19.215C25.41 19.515 25.15 19.665 24.75 19.645C24.08 19.625 23.43 19.645 22.79 19.685C22.16 19.725 21.58 19.775 21.05 19.845C20.71 19.875 20.45 19.875 20.25 19.845C20.05 19.815 19.89 19.755 19.77 19.665C19.65 19.575 19.57 19.465 19.52 19.315C19.47 19.165 19.44 19.015 19.42 18.835H19.41ZM23.9 18.095C23.93 17.805 23.96 17.465 23.97 17.075C23.99 16.685 24 16.355 24.02 16.075C24.04 15.895 24.01 15.755 23.94 15.645C23.87 15.535 23.72 15.495 23.5 15.525C23.36 15.545 23.22 15.555 23.1 15.565C22.98 15.565 22.84 15.585 22.67 15.615C22.5 15.645 22.3 15.665 22.06 15.685C21.82 15.705 21.52 15.745 21.15 15.795C21.2 16.215 21.23 16.625 21.25 17.035C21.27 17.445 21.29 17.855 21.32 18.275C21.69 18.195 22.11 18.135 22.59 18.105C23.07 18.075 23.51 18.075 23.91 18.105L23.9 18.095ZM23.35 2.375C23.62 2.295 23.93 2.315 24.29 2.445C24.64 2.575 24.94 2.775 25.18 3.045C25.42 3.315 25.62 3.615 25.78 3.935C25.86 4.095 25.93 4.295 26 4.525C26.06 4.755 26.12 4.995 26.17 5.235C26.22 5.475 26.26 5.715 26.3 5.945C26.34 6.175 26.37 6.375 26.38 6.535C26.43 7.065 26.46 7.575 26.48 8.055C26.5 8.545 26.5 9.035 26.48 9.535C26.46 9.985 26.45 10.365 26.44 10.675C26.43 10.985 26.4 11.345 26.33 11.745C26.2 12.655 25.61 13.115 24.55 13.115C23.99 13.115 23.58 12.975 23.31 12.695C23.05 12.415 22.96 12.025 23.06 11.535C23.33 10.115 23.49 8.695 23.53 7.275C23.57 5.855 23.45 4.485 23.18 3.155C23.08 2.695 23.14 2.435 23.35 2.385V2.375Z"
              fill="#222222"/>
        <path d="M29.16 16.665C28.84 16.635 28.56 16.555 28.33 16.425C28.1 16.295 27.97 16.045 27.96 15.685C27.94 15.335 28.08 15.085 28.37 14.945C28.66 14.805 28.99 14.715 29.35 14.685C30.52 14.555 31.61 14.445 32.61 14.335C33.61 14.225 34.7 14.135 35.85 14.035C36.15 14.005 36.43 13.995 36.68 14.015C36.93 14.035 37.16 14.105 37.39 14.235C37.53 14.315 37.64 14.425 37.7 14.555C37.76 14.695 37.79 14.835 37.78 14.995C37.78 15.155 37.73 15.305 37.66 15.455C37.59 15.605 37.49 15.705 37.36 15.765C37.02 15.955 36.68 16.065 36.33 16.075L31.6 16.505C31.22 16.535 30.81 16.585 30.39 16.635C29.97 16.695 29.55 16.705 29.15 16.675L29.16 16.665ZM32.28 12.395C31.72 12.395 31.23 12.295 30.8 12.095C30.37 11.895 30.02 11.635 29.73 11.315C29.44 10.995 29.22 10.635 29.07 10.225C28.92 9.815 28.84 9.385 28.84 8.945C28.82 8.415 28.89 7.915 29.03 7.445C29.17 6.975 29.39 6.555 29.69 6.195C29.99 5.835 30.35 5.555 30.78 5.345C31.21 5.135 31.71 5.025 32.27 5.005C32.8 4.985 33.29 5.065 33.75 5.245C34.21 5.425 34.6 5.675 34.93 6.005C35.26 6.335 35.51 6.735 35.7 7.215C35.88 7.695 35.97 8.235 35.95 8.845C35.92 9.995 35.57 10.885 34.91 11.495C34.25 12.115 33.37 12.415 32.28 12.395ZM30.82 8.815C30.8 9.295 30.93 9.695 31.2 10.015C31.47 10.335 31.84 10.495 32.3 10.495C32.57 10.495 32.81 10.445 33.02 10.335C33.23 10.235 33.4 10.095 33.54 9.915C33.68 9.735 33.77 9.535 33.83 9.305C33.89 9.075 33.91 8.835 33.89 8.595C33.87 8.135 33.75 7.735 33.51 7.415C33.27 7.095 32.9 6.925 32.41 6.915C31.88 6.885 31.49 7.055 31.22 7.445C30.96 7.825 30.82 8.285 30.82 8.815ZM42.05 13.665C42.03 14.085 42.01 14.505 41.98 14.945C41.95 15.385 41.89 15.835 41.81 16.305C41.57 17.455 40.87 17.935 39.72 17.745C39.11 17.635 38.72 17.395 38.56 17.035C38.4 16.675 38.34 16.185 38.4 15.555C38.45 15.235 38.5 14.905 38.57 14.555C38.63 14.215 38.69 13.875 38.74 13.555C38.8 13.105 38.85 12.605 38.88 12.055C38.91 11.505 38.93 10.935 38.93 10.365C38.93 9.795 38.91 9.225 38.88 8.675C38.85 8.125 38.8 7.615 38.74 7.155C38.68 6.755 38.62 6.375 38.56 6.005C38.5 5.635 38.42 5.265 38.31 4.905C38.26 4.715 38.22 4.535 38.19 4.365C38.16 4.195 38.15 4.055 38.17 3.935C38.19 3.815 38.24 3.715 38.33 3.645C38.42 3.575 38.56 3.545 38.75 3.565C39.36 3.595 39.87 3.845 40.29 4.295C40.71 4.755 41.03 5.305 41.25 5.965C41.47 6.585 41.65 7.225 41.78 7.885C41.91 8.545 42 9.195 42.04 9.845C42.09 10.495 42.11 11.135 42.1 11.775C42.1 12.415 42.08 13.045 42.06 13.675L42.05 13.665Z"
              fill="#222222"/>
        <path d="M48.9 11.225C48.42 11.255 48.04 11.195 47.76 11.045C47.48 10.895 47.33 10.685 47.32 10.405C47.3 10.135 47.4 9.86501 47.6 9.61501C47.8 9.35501 48.15 9.20501 48.64 9.15501C50.16 9.01501 51.64 8.87501 53.09 8.75501C54.54 8.63501 55.86 8.53501 57.06 8.45501C57.52 8.42501 57.89 8.49501 58.16 8.68501C58.43 8.86501 58.58 9.10501 58.59 9.39501C58.61 9.66501 58.54 9.91501 58.4 10.155C58.26 10.385 57.92 10.515 57.39 10.555C56.85 10.585 56.32 10.625 55.82 10.675C55.32 10.725 54.82 10.765 54.32 10.795C54.32 11.065 54.32 11.335 54.31 11.585C54.3 11.835 54.29 12.065 54.27 12.255C54.22 12.625 54.12 12.895 53.96 13.055C53.8 13.225 53.61 13.315 53.38 13.335C53.16 13.355 52.95 13.275 52.76 13.115C52.57 12.955 52.46 12.715 52.45 12.395C52.43 12.215 52.43 11.995 52.43 11.735C52.43 11.475 52.43 11.205 52.45 10.935L48.9 11.225ZM52.72 3.47501C52.75 3.98501 52.72 4.54501 52.61 5.15501C52.51 5.76501 52.33 6.29501 52.09 6.76501C51.83 7.26501 51.53 7.58501 51.19 7.74501C50.85 7.90501 50.5 7.92501 50.15 7.79501C49.78 7.66501 49.56 7.42501 49.48 7.07501C49.4 6.72501 49.45 6.38501 49.62 6.06501C49.84 5.66501 50.02 5.24501 50.15 4.80501C50.28 4.36501 50.32 3.91501 50.27 3.44501C50.22 2.99501 50.02 2.71501 49.67 2.60501C49.46 2.52501 49.26 2.51501 49.07 2.56501C48.88 2.62501 48.69 2.68501 48.52 2.76501C48.34 2.84501 48.16 2.88501 47.96 2.87501C47.76 2.87501 47.6 2.78501 47.49 2.62501C47.35 2.41501 47.32 2.19501 47.41 1.95501C47.5 1.71501 47.68 1.50501 47.95 1.33501C48.62 0.885008 49.43 0.735008 50.37 0.875008C51.07 0.985008 51.63 1.25501 52.03 1.69501C52.43 2.12501 52.66 2.71501 52.73 3.47501H52.72ZM53.82 15.285C53.37 15.255 52.91 15.275 52.44 15.345C51.97 15.415 51.52 15.505 51.11 15.595C50.89 15.645 50.69 15.615 50.53 15.515C50.37 15.415 50.27 15.285 50.22 15.145C50.17 14.985 50.18 14.805 50.24 14.615C50.3 14.425 50.48 14.275 50.77 14.155C51.68 13.805 52.66 13.625 53.7 13.625C54.64 13.625 55.38 13.845 55.9 14.285C56.42 14.725 56.68 15.285 56.68 15.955C56.68 16.695 56.48 17.235 56.08 17.575C55.68 17.915 55.18 18.105 54.57 18.135L52.31 18.205C52.2 18.645 52.2 18.985 52.31 19.225C52.39 19.395 52.53 19.555 52.74 19.685C52.95 19.815 53.2 19.885 53.51 19.885C53.78 19.885 54.02 19.855 54.22 19.785C54.42 19.725 54.67 19.585 54.98 19.375C55.08 19.315 55.2 19.265 55.34 19.235C55.48 19.205 55.63 19.195 55.77 19.215C55.91 19.235 56.05 19.275 56.18 19.345C56.31 19.415 56.4 19.525 56.47 19.665C56.6 19.935 56.61 20.225 56.49 20.535C56.38 20.845 56.21 21.085 55.99 21.265C55.67 21.525 55.27 21.705 54.79 21.805C54.31 21.915 53.85 21.945 53.4 21.915C52.55 21.865 51.9 21.615 51.44 21.145C50.98 20.675 50.74 20.045 50.71 19.225C50.69 19.045 50.69 18.895 50.7 18.765C50.71 18.635 50.73 18.465 50.76 18.235C50.55 18.215 50.39 18.145 50.28 18.005C50.17 17.865 50.11 17.715 50.11 17.535C50.11 17.355 50.17 17.195 50.29 17.035C50.41 16.875 50.58 16.775 50.81 16.745C51.02 16.715 51.26 16.685 51.54 16.665C51.82 16.645 52.1 16.625 52.39 16.605C52.68 16.585 52.97 16.575 53.25 16.555C53.54 16.535 53.79 16.535 54.02 16.535C54.21 16.535 54.37 16.475 54.5 16.365C54.63 16.255 54.69 16.105 54.69 15.935C54.69 15.695 54.61 15.535 54.44 15.445C54.27 15.355 54.07 15.295 53.83 15.265L53.82 15.285ZM53.15 0.695008C53.42 0.505008 53.79 0.335008 54.24 0.205008C54.7 0.0650077 55.24 0.0450077 55.86 0.125008C56.6 0.205008 57.22 0.475008 57.72 0.945008C58.22 1.40501 58.52 2.09501 58.62 3.00501C58.68 3.46501 58.68 4.00501 58.61 4.62501C58.54 5.24501 58.37 5.83501 58.12 6.41501C57.91 6.87501 57.62 7.23501 57.26 7.47501C56.89 7.71501 56.49 7.76501 56.06 7.61501C55.69 7.48501 55.42 7.25501 55.26 6.91501C55.1 6.57501 55.1 6.18501 55.3 5.73501C55.54 5.17501 55.72 4.68501 55.84 4.25501C55.96 3.82501 56 3.41501 55.97 2.99501C55.94 2.51501 55.74 2.19501 55.37 2.03501C55.15 1.93501 54.89 1.91501 54.6 1.96501C54.31 2.01501 54.04 2.10501 53.78 2.22501C53.56 2.35501 53.33 2.38501 53.11 2.33501C52.89 2.27501 52.73 2.15501 52.65 1.96501C52.57 1.75501 52.57 1.54501 52.64 1.31501C52.71 1.09501 52.88 0.885008 53.16 0.695008H53.15Z"
              fill="#222222"/>
        <path d="M64.79 8.12501C64.81 7.64501 64.87 7.175 64.97 6.70501C65.07 6.24501 65.17 5.86501 65.25 5.57501C65.04 5.52501 64.91 5.41501 64.84 5.25501C64.78 5.08501 64.74 4.93501 64.74 4.78501C64.74 4.60501 64.8 4.43501 64.91 4.26501C65.02 4.09501 65.24 3.96501 65.56 3.86501C65.78 3.80501 66.06 3.74501 66.4 3.70501C66.74 3.66501 67.08 3.63501 67.44 3.62501C67.8 3.60501 68.15 3.60501 68.5 3.60501C68.85 3.60501 69.14 3.60501 69.38 3.62501C69.86 3.70501 70.18 3.86501 70.35 4.09501C70.52 4.32501 70.59 4.57501 70.55 4.85501C70.47 5.39501 69.96 5.67501 69.01 5.67501C68.91 5.67501 68.79 5.67501 68.63 5.66501C68.47 5.66501 68.29 5.65501 68.1 5.65501C67.91 5.65501 67.72 5.65501 67.52 5.64501C67.33 5.64501 67.16 5.63501 67.02 5.63501C66.86 6.08501 66.74 6.48501 66.67 6.83501C66.6 7.18501 66.56 7.55501 66.56 7.93501C66.56 8.60501 66.62 9.19501 66.73 9.68501C66.84 10.185 67.14 10.515 67.62 10.695C67.87 10.805 68.11 10.825 68.32 10.745C68.53 10.665 68.72 10.595 68.9 10.525C69.32 10.425 69.66 10.435 69.92 10.545C70.18 10.655 70.35 10.845 70.41 11.125C70.49 11.445 70.45 11.735 70.3 11.985C70.15 12.245 69.88 12.455 69.5 12.635C69.26 12.735 69 12.815 68.73 12.875C68.46 12.935 68.17 12.955 67.87 12.925C67.1 12.875 66.46 12.585 65.95 12.035C65.92 12.255 65.82 12.455 65.66 12.625C65.5 12.795 65.32 12.915 65.11 12.995C64.89 13.105 64.64 13.205 64.37 13.285C64.1 13.365 63.84 13.405 63.6 13.405C62.46 13.435 61.64 13.045 61.12 12.215C60.6 11.395 60.36 10.215 60.39 8.69501C60.39 8.50501 60.41 8.28501 60.45 8.04501C60.49 7.80501 60.53 7.56501 60.58 7.33501C60.63 7.10501 60.68 6.885 60.74 6.68501C60.8 6.48501 60.85 6.32501 60.9 6.19501C60.71 6.19501 60.53 6.12501 60.36 5.99501C60.19 5.85501 60.12 5.65501 60.16 5.38501C60.18 5.20501 60.24 5.03501 60.36 4.86501C60.48 4.69501 60.7 4.56501 61.02 4.46501C61.39 4.35501 61.76 4.29501 62.15 4.28501C62.53 4.28501 62.93 4.28501 63.35 4.32501C63.65 4.34501 63.91 4.42501 64.13 4.57501C64.35 4.72501 64.47 4.93501 64.5 5.21501C64.52 5.45501 64.45 5.67501 64.3 5.88501C64.15 6.09501 63.94 6.19501 63.69 6.19501C63.45 6.19501 63.23 6.195 63.04 6.20501C62.85 6.20501 62.66 6.22501 62.49 6.24501C62.38 6.56501 62.28 6.90501 62.19 7.25501C62.1 7.60501 62.05 8.06501 62.03 8.62501C62.01 9.16501 62.05 9.63501 62.13 10.025C62.21 10.415 62.33 10.745 62.49 11.025C62.62 11.235 62.78 11.365 62.97 11.435C63.16 11.495 63.36 11.515 63.57 11.485C63.75 11.455 63.91 11.405 64.07 11.345C64.23 11.285 64.4 11.225 64.57 11.175C64.7 11.145 64.83 11.125 64.97 11.115C65.11 11.115 65.24 11.115 65.37 11.155C64.99 10.405 64.8 9.39501 64.82 8.135L64.79 8.12501ZM73.98 19.745C73.76 20.015 73.47 20.205 73.12 20.295C72.77 20.395 72.45 20.345 72.16 20.175C71.97 20.075 71.83 19.955 71.75 19.805C71.67 19.655 71.63 19.495 71.63 19.325C71.63 19.155 71.66 18.985 71.71 18.805C71.77 18.625 71.84 18.465 71.94 18.325C72.16 17.925 72.33 17.545 72.44 17.175C72.55 16.805 72.54 16.495 72.42 16.235C72.34 16.055 72.18 15.915 71.95 15.815C71.72 15.715 71.39 15.665 70.98 15.685C70.79 15.705 70.55 15.745 70.27 15.815C69.99 15.885 69.74 15.955 69.51 16.015C68.9 16.175 68.53 16.055 68.41 15.655C68.35 15.475 68.36 15.295 68.45 15.115C68.54 14.935 68.71 14.775 68.97 14.645C69.24 14.485 69.57 14.355 69.94 14.245C70.32 14.145 70.71 14.075 71.13 14.045C71.5 14.015 71.87 14.005 72.23 14.035C72.59 14.065 72.93 14.125 73.24 14.235C73.8 14.425 74.22 14.725 74.5 15.135C74.78 15.545 74.94 16.005 74.99 16.515C75.05 17.055 74.99 17.615 74.81 18.185C74.63 18.755 74.35 19.265 73.98 19.735V19.745ZM75.56 11.365C75.46 12.055 75.24 12.545 74.88 12.845C74.52 13.145 74.13 13.275 73.72 13.245C73.5 13.225 73.28 13.165 73.08 13.065C72.88 12.965 72.71 12.825 72.58 12.645C72.44 12.465 72.35 12.255 72.29 12.005C72.23 11.755 72.23 11.485 72.28 11.175C72.36 10.755 72.42 10.375 72.47 10.015C72.52 9.655 72.56 9.295 72.59 8.925C72.11 8.735 71.64 8.66501 71.19 8.70501C70.73 8.75501 70.27 8.84501 69.81 8.965C69.52 9.025 69.29 9.01501 69.1 8.925C68.92 8.835 68.8 8.695 68.75 8.505C68.7 8.32501 68.73 8.13501 68.85 7.92501C68.96 7.71501 69.15 7.54501 69.4 7.42501C69.94 7.16501 70.51 7.02501 71.09 6.99501C71.67 6.965 72.22 7.02501 72.73 7.18501C72.76 6.48501 72.75 5.77501 72.71 5.07501C72.67 4.37501 72.57 3.58501 72.45 2.72501C72.42 2.51501 72.45 2.35501 72.57 2.23501C72.69 2.11501 72.83 2.06501 73.03 2.07501C73.56 2.12501 74.04 2.47501 74.47 3.13501C74.76 3.58501 74.99 4.18501 75.18 4.93501C75.36 5.68501 75.51 6.54501 75.62 7.50501C75.64 7.76501 75.65 8.05501 75.67 8.39501C75.69 8.73501 75.69 9.07501 75.69 9.425C75.69 9.775 75.68 10.125 75.65 10.465C75.63 10.805 75.6 11.105 75.57 11.365H75.56Z"
              fill="#222222"/>
        <path d="M88.76 9.515C88.63 9.965 88.43 10.395 88.16 10.825C87.89 11.245 87.58 11.645 87.22 12.015C86.87 12.385 86.49 12.725 86.09 13.035C85.69 13.345 85.3 13.605 84.91 13.815C84.27 14.185 83.75 14.335 83.36 14.275C82.97 14.215 82.65 14.045 82.41 13.775C82.28 13.635 82.19 13.465 82.15 13.285C82.1 13.105 82.1 12.915 82.14 12.735C82.18 12.555 82.25 12.375 82.34 12.205C82.44 12.035 82.56 11.905 82.72 11.805C83.44 11.325 84.09 10.845 84.66 10.355C85.24 9.86501 85.65 9.355 85.91 8.805C86.41 7.715 86.09 7.125 84.97 7.025C84.49 6.975 84 7.005 83.51 7.125C83.02 7.245 82.52 7.355 82.02 7.485C81.72 7.565 81.46 7.55501 81.25 7.465C81.04 7.36501 80.9 7.205 80.82 6.985C80.74 6.795 80.75 6.565 80.84 6.315C80.94 6.055 81.15 5.85501 81.49 5.695C82.11 5.37501 82.74 5.165 83.36 5.055C83.98 4.945 84.67 4.915 85.42 4.945C86.11 4.965 86.7 5.08501 87.21 5.32501C87.71 5.56501 88.11 5.885 88.4 6.295C88.69 6.705 88.86 7.185 88.92 7.735C88.98 8.28501 88.92 8.885 88.74 9.525L88.76 9.515ZM91.86 20.005C91.44 19.985 90.97 19.985 90.43 20.005C89.89 20.025 89.42 20.065 89 20.145C88.38 20.275 87.9 20.175 87.57 19.845C87.24 19.515 87.05 19.085 86.98 18.565C86.9 17.945 86.84 17.345 86.79 16.765C86.74 16.185 86.72 15.575 86.72 14.915C86.72 14.615 86.81 14.385 86.98 14.235C87.16 14.085 87.33 13.995 87.51 13.955C87.7 13.925 87.88 13.955 88.05 14.075C88.22 14.195 88.36 14.335 88.47 14.505C88.93 14.425 89.44 14.355 89.99 14.305C90.54 14.255 91.06 14.205 91.54 14.175C93.01 14.065 93.77 14.625 93.82 15.855C93.84 16.305 93.82 16.755 93.77 17.195C93.72 17.645 93.68 18.095 93.65 18.535C93.62 18.995 93.46 19.365 93.17 19.625C92.88 19.885 92.44 20.015 91.85 19.995L91.86 20.005ZM91.6 18.225C91.63 17.925 91.65 17.615 91.66 17.305C91.66 16.995 91.69 16.665 91.72 16.335C91.74 16.155 91.7 16.035 91.62 15.975C91.54 15.915 91.44 15.875 91.33 15.875C90.91 15.875 90.45 15.915 89.95 15.985C89.45 16.055 89.03 16.125 88.69 16.185L88.86 18.415C89.21 18.365 89.65 18.315 90.17 18.245C90.69 18.175 91.17 18.175 91.6 18.225ZM94.53 11.315C94.51 11.655 94.44 11.955 94.3 12.215C94.16 12.475 93.99 12.695 93.78 12.865C93.57 13.035 93.34 13.155 93.08 13.235C92.82 13.315 92.57 13.355 92.31 13.355C92.07 13.355 91.83 13.315 91.6 13.225C91.37 13.135 91.17 13.005 91.01 12.825C90.85 12.645 90.73 12.425 90.66 12.165C90.59 11.905 90.58 11.595 90.62 11.245C90.76 10.525 90.87 9.80501 90.94 9.07501C91.01 8.34501 91.05 7.705 91.05 7.145C91.08 6.365 91.05 5.625 90.97 4.935C90.88 4.245 90.69 3.515 90.41 2.75501C90.33 2.53501 90.35 2.36501 90.46 2.25501C90.59 2.15501 90.76 2.115 90.99 2.135C91.44 2.185 91.83 2.315 92.15 2.545C92.47 2.775 92.76 3.045 93 3.385C93.3 3.785 93.55 4.245 93.74 4.765C93.93 5.285 94.08 5.82501 94.2 6.385C94.66 6.24501 95.17 6.185 95.71 6.215C96.06 6.24501 96.41 6.30501 96.77 6.385C97.12 6.465 97.46 6.595 97.78 6.765C97.97 6.875 98.1 7.005 98.18 7.165C98.25 7.315 98.26 7.455 98.22 7.585C98.17 7.715 98.08 7.805 97.94 7.875C97.8 7.935 97.62 7.945 97.4 7.895C97.16 7.835 96.9 7.775 96.63 7.735C96.36 7.695 96.08 7.675 95.79 7.675C95.57 7.675 95.34 7.695 95.11 7.735C94.88 7.775 94.65 7.845 94.43 7.935C94.49 8.555 94.53 9.195 94.54 9.845C94.55 10.495 94.54 10.985 94.53 11.325V11.315Z"
              fill="#222222"/>
        <path d="M100.59 12.445C100.3 12.665 99.94 12.825 99.5 12.905C99.06 12.985 98.69 12.885 98.38 12.615C98.16 12.435 98.04 12.185 98.02 11.855C98 11.525 98.08 11.275 98.26 11.095C98.48 10.875 98.7 10.655 98.92 10.445C99.14 10.235 99.36 10.005 99.58 9.745C100.06 9.215 100.52 8.605 100.96 7.905C101.4 7.205 101.79 6.385 102.12 5.445C102.2 5.235 102.26 5.015 102.31 4.775C102.36 4.535 102.4 4.305 102.43 4.075C102.46 3.915 102.5 3.795 102.54 3.715C102.58 3.635 102.69 3.605 102.86 3.615C103.04 3.645 103.21 3.715 103.39 3.815C103.57 3.915 103.69 4.065 103.77 4.255C103.9 4.525 103.97 4.795 104 5.045C104.02 5.305 104.03 5.565 104.01 5.835C103.98 6.265 103.91 6.685 103.81 7.095C103.71 7.505 103.57 7.905 103.39 8.305C104.21 8.575 104.87 8.895 105.39 9.265C105.91 9.635 106.36 10.095 106.75 10.655C106.99 10.995 107.09 11.365 107.05 11.785C107.01 12.205 106.86 12.485 106.61 12.645C106.13 12.915 105.73 12.965 105.42 12.805C105.11 12.635 104.84 12.325 104.62 11.855C104.38 11.325 104.12 10.845 103.85 10.415C103.58 9.985 103.25 9.655 102.87 9.435C102.65 9.895 102.33 10.415 101.92 10.995C101.51 11.575 101.07 12.045 100.59 12.415V12.445ZM104.96 16.405C104.99 15.975 105.1 15.585 105.27 15.255C105.45 14.915 105.67 14.635 105.94 14.405C106.21 14.175 106.52 13.995 106.86 13.865C107.2 13.735 107.57 13.675 107.95 13.675C108.43 13.675 108.85 13.755 109.2 13.915C109.55 14.075 109.84 14.285 110.08 14.555C110.31 14.815 110.48 15.135 110.6 15.495C110.71 15.855 110.77 16.235 110.77 16.635C110.74 17.655 110.45 18.415 109.91 18.915C109.37 19.415 108.67 19.655 107.82 19.655C107.31 19.655 106.87 19.575 106.5 19.405C106.13 19.235 105.83 19.005 105.59 18.705C105.35 18.405 105.18 18.065 105.07 17.675C104.97 17.285 104.93 16.865 104.96 16.415V16.405ZM107.67 17.895C108.09 17.925 108.4 17.825 108.62 17.595C108.84 17.365 108.95 17.085 108.97 16.765C108.99 15.945 108.66 15.515 107.99 15.465C107.62 15.435 107.32 15.525 107.09 15.725C106.86 15.935 106.73 16.245 106.69 16.665C106.67 16.935 106.74 17.205 106.89 17.455C107.04 17.715 107.3 17.855 107.67 17.885V17.895ZM111.44 6.805C112.05 6.625 112.62 6.545 113.14 6.545C113.52 6.545 113.9 6.595 114.28 6.705C114.66 6.805 114.96 6.985 115.2 7.245C115.41 7.455 115.47 7.705 115.39 8.015C115.36 8.155 115.28 8.265 115.15 8.325C115.02 8.385 114.89 8.405 114.77 8.375C114.45 8.295 114.17 8.225 113.93 8.175C113.69 8.115 113.43 8.095 113.14 8.095C112.92 8.075 112.68 8.095 112.43 8.155C112.18 8.215 111.91 8.285 111.63 8.385C111.65 8.895 111.63 9.435 111.61 10.005C111.58 10.575 111.53 11.115 111.47 11.625C111.39 12.235 111.18 12.675 110.85 12.945C110.51 13.215 110.04 13.305 109.43 13.205C108.98 13.125 108.67 12.905 108.49 12.555C108.31 12.205 108.29 11.765 108.42 11.235C108.47 11.015 108.51 10.745 108.55 10.435C108.59 10.125 108.63 9.805 108.68 9.485C108.86 8.475 108.96 7.445 108.98 6.385C109 5.325 108.9 4.325 108.66 3.385C108.63 3.225 108.61 3.065 108.6 2.915C108.6 2.765 108.67 2.675 108.83 2.635C109.05 2.605 109.28 2.635 109.5 2.705C109.72 2.785 109.91 2.895 110.05 3.045C110.51 3.495 110.85 4.025 111.06 4.655C111.27 5.275 111.4 5.995 111.44 6.815V6.805Z"
              fill="#222222"/>
        <path d="M122.84 7.355C123.77 7.545 124.2 7.975 124.14 8.625C124.11 8.945 123.95 9.165 123.66 9.295C123.37 9.425 122.99 9.475 122.51 9.435C121.42 9.375 120.39 9.365 119.4 9.425C118.41 9.485 117.42 9.615 116.41 9.825C115.72 9.955 115.33 9.785 115.23 9.325C115.18 9.115 115.21 8.915 115.33 8.715C115.44 8.515 115.65 8.335 115.95 8.175C116.3 7.995 116.71 7.845 117.16 7.705C117.62 7.565 118.1 7.465 118.61 7.385C118.64 7.245 118.66 7.105 118.66 6.975V6.595C118.63 6.225 118.57 5.835 118.49 5.415C118.43 5.075 118.47 4.825 118.61 4.655C118.75 4.485 118.94 4.385 119.16 4.355C119.37 4.325 119.58 4.365 119.8 4.485C120.02 4.605 120.18 4.795 120.29 5.045C120.45 5.365 120.57 5.745 120.65 6.195C120.68 6.375 120.71 6.535 120.72 6.695C120.74 6.855 120.74 7.015 120.74 7.175C121.12 7.175 121.49 7.185 121.84 7.215C122.19 7.235 122.52 7.285 122.82 7.345L122.84 7.355ZM119.86 10.065C120.44 10.045 120.94 10.125 121.37 10.305C121.8 10.485 122.16 10.725 122.46 11.025C122.76 11.325 122.98 11.675 123.13 12.055C123.28 12.435 123.36 12.835 123.36 13.235C123.38 14.225 123.06 15.035 122.42 15.645C121.78 16.265 120.92 16.565 119.85 16.565C118.86 16.565 118.05 16.285 117.43 15.715C116.81 15.145 116.49 14.405 116.49 13.495C116.49 12.435 116.81 11.615 117.45 11.015C118.09 10.415 118.89 10.095 119.85 10.065H119.86ZM121.25 13.285C121.23 12.865 121.11 12.545 120.89 12.305C120.67 12.065 120.33 11.945 119.88 11.945C119.43 11.945 119.07 12.075 118.79 12.345C118.51 12.605 118.37 12.975 118.37 13.435C118.37 13.805 118.49 14.115 118.72 14.355C118.95 14.605 119.28 14.745 119.69 14.775C120.15 14.805 120.53 14.685 120.83 14.415C121.13 14.145 121.27 13.765 121.25 13.285ZM128.38 15.585C128.28 16.275 128.06 16.775 127.71 17.085C127.36 17.395 126.9 17.555 126.34 17.555C125.83 17.555 125.44 17.375 125.19 17.025C124.93 16.675 124.85 16.195 124.95 15.585C125.11 14.595 125.24 13.655 125.35 12.775C125.45 11.895 125.52 11.045 125.55 10.235C125.58 9.335 125.56 8.475 125.49 7.655C125.42 6.835 125.29 5.985 125.12 5.125C125.04 4.805 125 4.525 124.99 4.275C124.98 4.025 125.07 3.895 125.24 3.875C125.45 3.855 125.66 3.875 125.86 3.945C126.07 4.005 126.28 4.125 126.5 4.295C126.72 4.465 126.93 4.695 127.14 4.975C127.35 5.255 127.55 5.635 127.74 6.075C127.96 6.585 128.13 7.095 128.23 7.595C128.33 8.095 128.42 8.605 128.48 9.115C128.72 9.035 128.97 8.975 129.24 8.945C129.5 8.915 129.77 8.905 130.03 8.905C130.29 8.905 130.55 8.935 130.8 8.975C131.05 9.015 131.26 9.075 131.44 9.155C131.87 9.345 132.14 9.535 132.24 9.705C132.34 9.885 132.37 10.065 132.32 10.255C132.27 10.415 132.15 10.535 131.96 10.625C131.77 10.715 131.5 10.705 131.17 10.585C130.8 10.475 130.39 10.425 129.92 10.445C129.46 10.465 129.02 10.555 128.6 10.735C128.66 12.255 128.6 13.865 128.38 15.555V15.585Z"
              fill="#222222"/>
        <path d="M133.61 8.385C133.34 8.405 133.07 8.355 132.81 8.245C132.55 8.135 132.41 7.915 132.39 7.595C132.37 7.335 132.48 7.135 132.71 6.985C132.94 6.835 133.19 6.725 133.44 6.665C135.15 6.215 136.9 6.105 138.67 6.325C138.89 6.355 139.12 6.395 139.35 6.445C139.58 6.495 139.81 6.555 140.03 6.635C140.33 6.735 140.57 6.915 140.73 7.175C140.89 7.435 140.95 7.715 140.92 8.005C140.87 8.275 140.76 8.475 140.57 8.605C140.39 8.735 140.18 8.785 139.96 8.775C139.54 8.745 139.14 8.705 138.75 8.655C138.36 8.605 137.97 8.565 137.59 8.535C137.64 9.555 137.49 10.625 137.16 11.725C137.91 11.995 138.6 12.325 139.21 12.695C139.83 13.075 140.29 13.615 140.61 14.315C140.72 14.585 140.75 14.875 140.68 15.175C140.62 15.475 140.47 15.695 140.25 15.825C139.95 16.005 139.65 16.045 139.35 15.965C139.05 15.885 138.84 15.705 138.71 15.435C138.45 14.895 138.17 14.415 137.86 14.005C137.55 13.595 137.16 13.255 136.7 12.985C136.48 13.415 136.22 13.835 135.92 14.235C135.62 14.635 135.32 14.995 135.02 15.315C134.88 15.475 134.71 15.615 134.52 15.745C134.33 15.875 134.14 15.965 133.94 16.035C133.75 16.095 133.56 16.115 133.36 16.095C133.17 16.075 133 15.985 132.86 15.845C132.54 15.555 132.43 15.245 132.54 14.895C132.64 14.555 132.85 14.225 133.15 13.925C133.87 13.205 134.45 12.365 134.9 11.405C135.35 10.445 135.61 9.445 135.69 8.405C135.31 8.385 134.93 8.385 134.56 8.385H133.6H133.61ZM150.03 9.395C150.14 9.525 150.19 9.675 150.19 9.855C150.19 10.035 150.14 10.175 150.06 10.285C149.84 10.525 149.55 10.585 149.2 10.475C148.98 10.425 148.75 10.385 148.53 10.345C148.31 10.305 148.06 10.285 147.79 10.285C147.53 10.265 147.27 10.285 146.99 10.345C146.71 10.405 146.47 10.505 146.26 10.645C146.28 11.045 146.28 11.475 146.28 11.925C146.28 12.375 146.28 12.845 146.26 13.315C146.24 13.785 146.21 14.245 146.16 14.695C146.11 15.145 146.05 15.555 145.97 15.945C145.86 16.505 145.63 16.945 145.27 17.255C144.92 17.565 144.44 17.685 143.83 17.605C143.38 17.555 143.03 17.335 142.77 16.945C142.51 16.555 142.44 15.995 142.55 15.275C142.6 14.985 142.65 14.615 142.72 14.145C142.78 13.685 142.85 13.195 142.92 12.685C142.99 12.175 143.06 11.665 143.11 11.175C143.17 10.675 143.2 10.265 143.22 9.925C143.25 9.095 143.27 8.215 143.28 7.295C143.28 6.375 143.2 5.505 143.03 4.695C142.98 4.455 142.95 4.255 142.93 4.085C142.91 3.915 142.97 3.805 143.1 3.735C143.21 3.655 143.33 3.625 143.46 3.655C143.59 3.675 143.7 3.715 143.8 3.765C144.22 3.985 144.54 4.265 144.77 4.585C145 4.905 145.2 5.265 145.36 5.665C145.42 5.845 145.49 6.065 145.56 6.325C145.63 6.585 145.7 6.865 145.76 7.165C145.82 7.465 145.88 7.755 145.94 8.045C146 8.335 146.05 8.595 146.1 8.835C146.37 8.735 146.64 8.675 146.92 8.645C147.19 8.615 147.46 8.605 147.74 8.625C148.12 8.645 148.54 8.705 148.98 8.805C149.42 8.905 149.78 9.115 150.05 9.415L150.03 9.395Z"
              fill="#222222"/>
    </g>
    <defs>
        <clipPath id="clip0_3298_77250">
            <rect width="150.19" height="21.87" fill="white" transform="translate(0 0.0650024)"/>
        </clipPath>
    </defs>
</svg>
