<svg width="107" height="24" viewBox="0 0 107 24" fill="none" xmlns="http://www.w3.org/2000/svg">
    <g clip-path="url(#clip0_3298_77332)">
        <path d="M12.97 15.1C12.8601 15.13 12.66 15.16 12.4 15.17C12.08 15.17 11.75 15.19 11.41 15.23C10.78 15.32 10.29 15.39 9.93005 15.42C8.76005 15.57 8.01005 15.68 7.62005 15.76C7.33005 15.82 7.03005 15.86 6.73005 15.9C6.42005 15.94 6.11005 15.98 5.81005 16.04C5.70005 16.06 5.43005 16.12 5.04005 16.21C4.85005 16.23 4.60005 16.27 4.26005 16.34C4.22005 16.35 4.14005 16.37 4.03005 16.39C3.87005 16.42 3.69005 16.45 3.49005 16.49C3.30005 16.53 3.13005 16.55 2.94005 16.57C1.73005 16.8 0.940049 17.02 0.530049 17.24C0.0300494 17.51 -0.119951 17.93 0.0900494 18.39C0.220049 18.72 0.500049 18.9 0.880049 18.9C0.890049 18.9 0.910049 18.9 0.920049 18.9C1.24005 18.89 1.97005 18.73 3.13005 18.4C3.90005 18.2 4.51005 18.06 4.96005 17.98C5.64005 17.85 6.02005 17.77 6.07005 17.76C6.31005 17.72 6.59005 17.68 6.89005 17.62C6.98005 17.6 7.16005 17.58 7.44005 17.54C7.73005 17.5 7.92005 17.47 8.04005 17.45C9.63005 17.17 10.71 17.03 11.25 17.03C11.48 17.03 11.74 17.01 12.04 16.97C12.22 16.93 12.43 16.94 12.66 17.02C13.41 17.27 13.89 16.98 14.16 16.69C14.57 16.25 14.5601 15.75 14.13 15.28C13.9001 15.02 13.51 14.95 12.98 15.09L12.97 15.1Z"
              fill="#222222"/>
        <path d="M1.91998 7.89001C2.09998 7.95001 2.36998 7.94001 2.81998 7.86001C3.93998 7.60001 5.30998 7.40001 6.87998 7.25001C8.53998 7.09001 9.04998 7.13001 9.20998 7.16001C9.22998 7.27001 9.26999 7.57001 9.25998 8.36001C9.25998 9.17001 9.19998 9.97001 9.10998 10.75C9.02998 11.37 8.99998 11.9 8.99998 12.32C8.99998 12.74 8.96999 13.08 8.91998 13.37C8.85998 13.72 8.84998 13.96 8.89998 14.14C8.93998 14.29 9.05999 14.5 9.34999 14.6C9.47999 14.66 9.58998 14.68 9.68998 14.68C9.82998 14.68 9.93999 14.64 10.02 14.6C10.2 14.5 10.35 14.32 10.48 14.05C10.69 13.58 10.8 12.9 10.82 11.97C10.82 11.44 10.86 10.92 10.93 10.4C10.99 9.90001 11.04 9.03001 11.09 7.81001C11.16 5.91001 11.09 5.73001 11.06 5.65001C11 5.47001 10.85 5.24001 10.48 5.18001C10.23 5.14001 9.93999 5.18001 9.59999 5.30001C9.24999 5.42001 8.58998 5.51001 7.64998 5.57001C6.87998 5.63001 6.25998 5.67001 5.75998 5.71001C5.27998 5.77001 4.72998 5.81001 4.11998 5.85001C2.99998 5.95001 2.32998 6.07001 1.99998 6.22001C1.71998 6.35001 1.41998 6.65001 1.53998 7.31001C1.60998 7.71001 1.79998 7.86001 1.95998 7.91001L1.91998 7.89001Z"
              fill="#222222"/>
        <path d="M17.4899 12.71C17.4899 12.71 17.5799 12.71 17.6299 12.71C17.7999 12.69 18.0899 12.61 18.5399 12.48C19.5899 12.15 20.6199 11.9 21.6199 11.73C22.0299 11.65 22.2899 11.61 22.4399 11.58C22.5799 11.53 22.7099 11.51 22.8099 11.51C22.9999 11.51 23.1899 11.43 23.3599 11.28C23.5399 11.13 23.6399 10.95 23.6699 10.78C23.7599 10.31 23.5599 10.03 23.3699 9.88001C23.1099 9.67001 22.7899 9.61001 22.4399 9.70001C22.2699 9.74001 21.9899 9.79001 21.5799 9.87001C21.2399 9.93001 20.8399 10.02 20.3999 10.16C19.8899 10.32 19.3899 10.44 18.8999 10.5C18.4499 10.56 18.2699 10.55 18.1999 10.53C18.1999 10.49 18.1999 10.39 18.2299 10.21C18.2899 9.87001 18.3199 9.49001 18.3399 9.09001C18.3899 8.39001 18.4199 8.24001 18.4299 8.23001C18.4299 8.23001 18.4799 8.17001 18.7099 8.08001L19.2899 7.86001C19.2899 7.86001 19.5199 7.81001 20.3799 7.72001C20.3799 7.72001 20.4399 7.70001 20.5699 7.70001C20.8899 7.68001 21.1099 7.67001 21.2299 7.66001C21.3699 7.65001 21.5399 7.61001 21.7399 7.55001C21.9499 7.49001 22.0799 7.44001 22.1399 7.41001C22.2399 7.36001 22.3399 7.26001 22.4699 7.08001C22.5899 6.91001 22.6699 6.77001 22.6999 6.65001C22.7199 6.57001 22.7499 6.37001 22.7999 6.08001C22.8499 5.78001 22.8799 5.53001 22.8899 5.32001L22.9299 4.34001C22.9499 4.16001 22.9599 4.01001 22.9599 3.91001C22.9999 3.28001 23.0099 2.87001 22.9899 2.68001C22.9699 2.45001 22.8599 2.23001 22.6599 2.01001C22.4799 1.83001 22.2299 1.69001 21.8999 1.59001C21.7599 1.54001 21.3199 1.40001 21.1199 1.62001C21.0699 1.64001 20.8099 1.72001 19.3499 1.83001L18.0199 1.97001C17.6299 2.02001 17.1299 2.09001 16.5199 2.16001C15.7499 2.24001 15.5599 2.28001 15.4699 2.32001C15.3099 2.38001 15.1899 2.53001 15.0799 2.76001C14.9099 3.18001 14.9999 3.56001 15.3499 3.89001C15.4599 3.97001 15.6599 4.06001 16.3799 4.07001C16.8899 4.07001 17.3099 4.06001 17.6499 4.00001L18.4099 3.86001C18.4999 3.84001 18.6199 3.82001 18.7699 3.80001C20.4099 3.48001 20.7299 3.52001 20.7899 3.54001C20.7899 3.54001 20.9399 3.64001 20.9399 4.40001V4.60001C20.9399 5.28001 20.9199 5.56001 20.8999 5.67001C20.7599 5.71001 20.3999 5.78001 19.4499 5.89001C18.8099 5.97001 18.0499 6.11001 17.1999 6.32001C16.7399 6.45001 16.4699 6.52001 16.3799 6.54001C16.1299 6.59001 15.7199 6.77001 15.7399 7.48001C15.7499 8.03001 15.9999 8.29001 16.2499 8.43001C16.2699 8.57001 16.3099 8.98001 16.3399 10.1C16.3699 11.48 16.4099 11.84 16.4399 11.99C16.4799 12.21 16.6299 12.5 17.0499 12.65C17.1799 12.7 17.3199 12.73 17.4599 12.73L17.4899 12.71Z"
              fill="#222222"/>
        <path d="M25.6899 0.840012C25.4499 0.790012 25.2199 0.820012 24.9999 0.930012C24.6099 1.17001 24.4599 1.70001 24.5199 2.54001C24.5699 2.98001 24.5999 3.95001 24.5999 5.44001C24.5999 6.93001 24.5699 8.04001 24.5199 8.77001C24.4599 9.62001 24.4299 10.78 24.4099 12.2C24.4099 14.21 24.3199 14.72 24.2799 14.85C24.1899 14.89 23.8899 14.98 22.8799 15.15C21.9799 15.3 21.0899 15.4 20.2399 15.46C19.6399 15.52 19.2299 15.56 19.0399 15.6C18.8399 15.62 18.6299 15.6 18.3899 15.55C17.4899 15.34 17.1899 15.79 17.0899 16.07C16.9399 16.49 16.9599 17.29 17.1299 18.54C17.3299 19.94 17.6099 20.79 17.9899 21.15L18.1099 21.27L18.0199 21.38C17.5499 21.99 17.4699 22.49 17.7799 22.88C17.9099 23.04 18.1099 23.19 18.4299 23.19C18.6499 23.19 18.9199 23.12 19.2499 22.94C19.4999 22.81 19.8599 22.68 20.3399 22.53C20.8099 22.36 21.0899 22.26 21.1999 22.21C21.8799 21.91 22.9299 21.69 24.3099 21.56C24.9099 21.5 25.3099 21.44 25.5199 21.37C25.7699 21.28 25.9499 21.13 26.0499 20.93C26.2199 20.62 26.2499 20.35 26.1399 20.14C26.0199 19.92 25.7699 19.78 25.3799 19.73C25.3199 19.73 25.2799 19.72 25.2499 19.71C25.2499 19.67 25.2799 19.59 25.3299 19.47C25.5299 19.07 25.6799 18.44 25.7799 17.54C25.8799 16.64 25.8599 15.99 25.7399 15.57C25.7099 15.49 25.7199 15.32 25.8599 15.03C25.9899 14.78 26.0599 14.54 26.0899 14.31C26.1199 14.1 26.1499 13.52 26.1899 12.49C26.2399 11.11 26.2899 10.2 26.3299 9.78001C26.4599 8.01001 26.5299 6.17001 26.5299 4.33001C26.5299 1.46001 26.3499 1.28001 26.2499 1.17001C26.1199 1.01001 25.9299 0.910012 25.6899 0.860012V0.840012ZM23.8399 19.7C23.8399 19.7 23.6899 19.78 23.1899 19.88C21.3899 20.2 20.1399 20.48 19.4499 20.73C19.3699 20.76 19.2999 20.78 19.2399 20.8C19.2799 20.65 19.3099 20.52 19.3199 20.39C19.3199 20.2 19.2999 19.91 19.2199 19.52C19.1299 19.01 19.0799 18.58 19.0799 18.22C19.0799 18 19.0899 17.89 19.1099 17.84C19.1699 17.82 19.3299 17.77 19.6999 17.71C20.0399 17.63 20.4299 17.53 20.8399 17.4C21.5399 17.2 22.0399 17.07 22.2999 17.01C22.5599 16.96 22.9199 16.92 23.3799 16.9C23.7099 16.9 23.8699 16.92 23.9399 16.93C23.9599 17.1 23.9899 17.58 23.9099 18.95C23.8699 19.54 23.8199 19.69 23.8399 19.69V19.7Z"
              fill="#222222"/>
        <path d="M40.48 4.85C40.2 4.6 39.85 4.55 39.5 4.73C39.01 4.99 38.8 5.51 38.86 6.27C38.86 6.33 38.86 6.44 38.89 6.56C38.91 6.98 38.93 7.27 38.95 7.43C38.97 7.57 38.96 7.74 38.94 7.93C38.92 8.12 38.9 8.24 38.89 8.26C38.89 8.26 38.86 8.29 38.76 8.36C38.65 8.43 38.55 8.47 38.47 8.5C38.36 8.53 38.18 8.57 37.91 8.62C37.83 8.64 37.8 8.64 37.75 8.65C37.41 8.72 37.12 8.8 36.9 8.88C36.39 9.02 36.21 9.04 36.15 9.04C35.81 9.04 35.57 9.14 35.41 9.33C35.25 9.54 35.22 9.84 35.32 10.22C35.41 10.55 35.54 10.76 35.72 10.87C35.89 10.98 36.16 11.01 36.55 10.96C37 10.94 37.57 10.76 38.29 10.41C38.76 10.2 38.93 10.17 38.98 10.2C39.05 10.44 39.12 11.68 39.02 16.25C38.96 18.56 39.02 18.67 39.07 18.74C39.13 18.89 39.3 19.13 39.71 19.13C39.73 19.13 39.74 19.13 39.76 19.13C40.05 19.12 40.31 18.99 40.53 18.75C40.66 18.6 40.87 18.34 40.85 11.77C40.84 5.19 40.63 4.99 40.47 4.85H40.48Z"
              fill="#222222"/>
        <path d="M36.69 12.8C36.63 12.78 36.48 12.72 36.14 12.5C35.85 12.3 35.6 12.16 35.39 12.07C35.08 11.91 34.77 11.71 34.46 11.47C34.16 11.25 34.1 11.15 34.07 11.16C34.07 11.11 34.13 10.96 34.35 10.49C35.9 7.30001 36.13 6.59001 36.17 6.32001C36.19 6.12001 36.13 5.83001 35.71 5.61001C35.32 5.41001 35.07 5.51001 34.93 5.61001C34.82 5.64001 34.48 5.70001 33.55 5.87001C32.24 6.10001 31.97 6.16001 31.89 6.19001C31.78 6.23001 31.46 6.31001 30.55 6.49001C29.53 6.69001 29.34 6.71001 29.31 6.71001C28.93 6.71001 28.63 6.93001 28.49 7.34001C28.35 7.74001 28.41 8.10001 28.67 8.38001C28.81 8.55001 28.97 8.64001 29.15 8.65001C29.24 8.65001 29.41 8.65001 29.9 8.55001C30.59 8.40001 31.23 8.24001 31.79 8.07001C32.25 7.94001 32.63 7.84001 32.96 7.77001C33.27 7.70001 33.51 7.66001 33.67 7.65001C33.62 7.83001 33.5 8.12001 33.21 8.62001C33.02 8.93001 32.73 9.44001 32.36 10.15C31.97 10.89 31.52 11.66 31.03 12.42C30.49 13.23 30.14 13.75 29.98 14.01C29.86 14.24 29.69 14.48 29.51 14.72C29.15 15.14 28.98 15.55 29 15.95C29.03 16.39 29.27 16.68 29.69 16.78C29.74 16.79 29.79 16.8 29.85 16.8C29.99 16.8 30.18 16.75 30.37 16.59C30.55 16.44 30.79 16.16 31.1 15.72C31.56 15.03 31.87 14.59 32.02 14.39C32.25 14.09 32.44 13.79 32.6 13.52C32.86 13.02 32.98 12.95 32.96 12.95C32.96 12.95 33.09 12.95 33.45 13.24C33.87 13.58 34.43 13.95 35.11 14.33C35.26 14.41 35.48 14.5 35.8 14.6C36.25 14.74 36.41 14.74 36.48 14.72C36.73 14.71 37.15 14.57 37.22 13.82C37.28 13.08 36.9 12.86 36.68 12.8H36.69Z"
              fill="#222222"/>
        <path d="M43.25 6.10001C43.21 5.76001 43.19 5.31001 43.17 4.72001C43.15 4.12001 43.03 3.73001 42.8 3.51001C42.64 3.36001 42.29 3.17001 41.75 3.61001C41.21 4.07001 41.07 4.85001 41.36 5.94001C41.52 6.57001 41.64 8.03001 41.7 10.29C41.76 12.56 41.75 14.52 41.66 16.1C41.6 16.91 41.58 17.95 41.58 19.28C41.58 21.31 41.64 21.42 41.7 21.5C41.85 21.76 42.08 21.89 42.37 21.89C42.44 21.89 42.51 21.89 42.58 21.87C42.96 21.8 43.2 21.56 43.28 21.2C43.41 20.58 43.5 17.68 43.54 12.33C43.56 10.61 43.55 9.48001 43.53 8.87001C43.5 8.25001 43.41 7.33001 43.26 6.08001L43.25 6.10001Z"
              fill="#222222"/>
        <path d="M30.36 4.3C30.75 4.54 31.25 4.72 31.84 4.86C32.21 4.93 32.55 5.01 32.87 5.08C33.25 5.17 33.57 5.22 33.82 5.22C34.03 5.22 34.2 5.19 34.34 5.12C34.66 4.97 34.85 4.61 34.91 4.03C34.96 3.65 34.88 3.38 34.67 3.25C34.5 3.14 34.21 3.12 33.74 3.16C33.28 3.21 32.82 3.19 32.35 3.08C31.89 2.98 31.52 2.82 31.25 2.62C30.53 2.1 30.1 2.27 29.86 2.5C29.49 2.86 29.5 3.22 29.57 3.45C29.67 3.76 29.92 4.03 30.35 4.29L30.36 4.3Z"
              fill="#222222"/>
        <path d="M53.0501 3.05001C53.0501 3.05001 53.1601 3.04001 53.2101 3.02001C53.3001 3.00001 53.3601 3.00001 53.4001 3.00001C53.4501 3.00001 53.4701 3.00001 53.4701 3.00001C53.4901 3.07001 53.5201 3.38001 53.5001 4.76001V5.12001C53.4501 6.83001 53.5001 7.25001 53.5401 7.41001C53.5901 7.61001 53.7601 7.95001 54.3701 7.95001C54.8001 7.95001 55.1001 7.73001 55.2101 7.33001C55.2701 7.13001 55.3501 6.67001 55.3901 4.98001C55.4101 4.89001 55.4301 4.77001 55.4301 4.62001C55.4801 3.49001 55.5301 3.24001 55.5501 3.18001C55.5601 3.15001 55.6601 3.10001 55.8201 3.09001H55.9601C56.2601 3.05001 56.6101 3.00001 56.9601 2.95001C57.0201 2.95001 57.1201 2.95001 57.2501 2.92001C57.6801 2.86001 57.9401 2.84001 58.1001 2.84001C58.2701 2.84001 58.3201 2.87001 58.3301 2.85001C58.3501 2.88001 58.4401 3.07001 58.4201 4.03001C58.4001 4.16001 58.3901 4.26001 58.3901 4.32001C58.3701 5.49001 58.3701 6.17001 58.3801 6.39001C58.3901 6.68001 58.4701 6.89001 58.6401 7.01001C58.9201 7.21001 59.2401 7.24001 59.5501 7.09001C59.7701 6.99001 60.0401 6.76001 60.1001 6.29001C60.2101 5.57001 60.2701 4.68001 60.2701 3.66001C60.2701 2.25001 60.1801 1.84001 60.1101 1.64001C60.0101 1.41001 59.7901 1.22001 59.4301 1.05001C59.1701 0.930013 58.7901 0.790013 58.5901 1.00001C58.4901 1.05001 57.9601 1.15001 55.0901 1.18001C52.5901 1.21001 52.3901 1.27001 52.3101 1.30001C52.2201 1.33001 51.9501 1.37001 51.2101 1.37001C50.6001 1.37001 50.1801 1.43001 49.9301 1.57001C49.6201 1.73001 49.4801 2.03001 49.5301 2.43001C49.6001 2.75001 49.8401 3.16001 50.6001 3.26001C51.1301 3.33001 51.9501 3.26001 53.0601 3.02001L53.0501 3.05001Z"
              fill="#222222"/>
        <path d="M60.59 19.7C60.08 19.79 59.16 20.04 57.83 20.45C57.07 20.69 56.51 20.86 56.19 20.95C55.91 20.99 55.69 21.04 55.52 21.11C54.94 21.35 54.75 21.14 54.64 20.88C54.47 20.47 54.56 19.9 54.91 19.18C55.14 18.7 55.28 18.37 55.31 18.2C55.4 17.94 55.65 17.71 56.07 17.54C56.54 17.34 57.38 17.13 58.57 16.91C59.24 16.79 59.66 16.65 59.88 16.47C60.07 16.32 60.26 16.04 60.14 15.53C60.12 15.42 60.14 15.11 60.39 14.15C60.59 13.43 60.52 12.93 60.18 12.65C59.86 12.38 59.31 12.33 58.5 12.5C58.36 12.53 58.27 12.54 58.2 12.55C58.2 12.45 58.19 12.29 58.2 12.03C58.2 11.53 58.24 11.08 58.29 10.68C58.37 10.2 58.39 9.82001 58.35 9.53001C58.35 9.40001 58.35 9.32001 58.35 9.28001C58.43 9.26001 58.62 9.23001 59.03 9.18001C59.52 9.12001 59.83 9.07001 60 9.03001C60.16 8.98001 60.3 8.96001 60.4 8.96001C60.87 8.96001 61.22 8.74001 61.43 8.31001C61.63 7.88001 61.57 7.48001 61.24 7.17001C61.1 7.05001 60.95 6.98001 60.81 6.94001C60.59 6.89001 60.45 6.94001 60.36 7.01001C60.25 7.04001 59.81 7.15001 58.2 7.46001C57.95 7.52001 57.76 7.56001 57.61 7.60001C57.48 7.63001 57.15 7.68001 56.63 7.73001L55.38 7.87001C55.12 7.92001 54.88 7.95001 54.67 7.95001C54.43 7.95001 54.1 8.03001 53.68 8.18001C53.11 8.34001 52.49 8.47001 51.82 8.56001C50.85 8.67001 50.65 9.17001 50.65 9.56001C50.65 10.01 50.89 10.32 51.32 10.42C51.68 10.5 52.24 10.45 53.03 10.25C53.32 10.18 53.68 10.1 54.09 10.03C54.59 9.97001 55.26 9.84001 56.16 9.63001C56.37 9.58001 56.51 9.57001 56.59 9.56001C56.59 9.66001 56.55 9.85001 56.48 10.18C56.38 10.68 56.32 11.28 56.28 11.98C56.26 12.78 56.19 12.94 56.18 12.97C56.18 12.98 56.11 13.03 55.91 13.03C55.75 13.03 55.58 13.07 55.45 13.12C55.04 13.23 54.64 13.33 54.26 13.42C53.97 13.48 53.71 13.55 53.5 13.63C53.32 13.7 53.09 13.74 52.81 13.76C52.55 13.78 52.4 13.82 52.3 13.88C52.22 13.94 52.12 14.04 52 14.22C51.62 14.91 51.84 15.35 52.08 15.59C52.32 15.83 52.76 16.05 53.47 15.71C54.21 15.37 55.13 15.08 56.19 14.86L57.43 14.61C57.64 14.56 57.92 14.53 58.28 14.53H58.56L58.57 14.8C58.58 15.08 58.54 15.28 58.46 15.34C58.38 15.39 58.08 15.53 57.01 15.83C56.93 15.83 56.74 15.89 56.01 16.12C55.93 16.14 55.55 16.25 54.85 16.46C54.05 16.72 53.78 16.78 53.68 16.79C53.01 16.91 52.8 17.28 52.74 17.57C52.7 17.79 52.67 18.3 53.4 18.48C53.41 18.48 53.42 18.48 53.43 18.48C53.39 18.53 53.34 18.6 53.27 18.7C52.84 19.3 52.7 20.06 52.86 20.98C53.02 21.91 53.41 22.53 54.01 22.83C54.31 22.97 54.66 23.04 55.03 23.04C55.58 23.04 56.21 22.89 56.9 22.58C57.35 22.4 57.9 22.21 58.59 22C59.79 21.62 60.55 21.36 60.91 21.22C61.32 21.06 61.59 20.9 61.75 20.72C61.91 20.53 61.98 20.41 61.98 20.29C61.98 20.19 61.93 20.07 61.8 19.89C61.59 19.65 61.2 19.58 60.61 19.68L60.59 19.7Z"
              fill="#222222"/>
        <path d="M65.42 4.30001C65.42 4.30001 65.51 4.27001 65.97 4.21001C66.3 4.16001 66.55 4.13001 66.72 4.11001C67.46 4.01001 67.88 3.99001 68.11 3.99001C68.32 3.99001 68.38 4.00001 68.38 3.99001C68.41 4.05001 68.49 4.43001 68.42 6.59001C68.39 7.30001 68.43 7.51001 68.48 7.63001C68.54 7.79001 68.7 7.97001 69.12 7.97001C69.51 7.97001 70.04 7.76001 70.3 6.76001C70.48 6.05001 70.51 5.11001 70.38 3.96001C70.28 3.16001 70.12 2.63001 69.89 2.36001C69.63 2.05001 69.21 1.97001 68.66 2.13001C68.23 2.25001 67.48 2.34001 66.43 2.37001C64.92 2.41001 63.96 2.49001 63.5 2.62001C62.8 2.81001 62.66 3.23001 62.66 3.55001C62.66 3.76001 62.74 3.94001 62.9 4.07001C63.27 4.39001 64.05 4.47001 65.42 4.29001V4.30001Z"
              fill="#222222"/>
        <path d="M76.34 9.38001C75.95 9.24001 75.45 9.23001 74.79 9.37001C74.74 9.39001 74.67 9.40001 74.56 9.42001C74.31 9.48001 74.17 9.49001 74.1 9.49001C74.06 9.49001 74.03 9.49001 74.03 9.49001C74 9.44001 73.93 9.18001 73.86 7.98001C73.86 7.74001 73.85 7.55001 73.83 7.44001C73.75 5.88001 73.68 4.93001 73.62 4.53001C73.54 4.05001 73.37 3.75001 73.11 3.62001C72.79 3.46001 72.48 3.43001 72.18 3.53001C71.75 3.70001 71.73 4.36001 71.73 4.57001C71.73 5.05001 71.8 5.85001 71.97 7.02001C72.08 7.82001 72.12 9.43001 72.08 11.8C72.04 14.62 71.93 15.38 71.87 15.6C71.84 15.6 71.77 15.6 71.66 15.59C71.37 15.55 70.99 15.52 70.51 15.5C70.34 15.5 70.1 15.5 69.77 15.49C69.44 15.49 69.26 15.48 69.23 15.48C68.58 15.45 68.16 15.65 68.02 16.04C67.99 16.09 67.91 16.22 67.62 16.53C66.94 17.19 66.57 18.02 66.52 18.99C66.47 19.97 66.75 20.78 67.36 21.39C67.7 21.76 68.2 21.95 68.84 21.96C68.87 21.96 68.89 21.96 68.92 21.96C69.49 21.96 70.08 21.85 70.66 21.63C71.26 21.41 71.85 21.07 72.41 20.63C72.98 20.18 73.4 19.68 73.65 19.15C73.88 18.72 73.97 18.2 73.92 17.63C73.87 17.05 73.69 16.58 73.4 16.24C73.33 16.16 73.3 16.11 73.29 16.11C73.3 16.07 73.34 15.95 73.49 15.6C73.67 15.16 73.79 14.28 73.87 12.91C73.92 12.01 73.97 11.78 73.99 11.72C74.02 11.63 74.12 11.55 74.27 11.47C74.63 11.32 75.09 11.22 75.65 11.18C76.12 11.14 76.44 11.06 76.65 10.95C76.9 10.81 77.03 10.58 77.03 10.28C77.03 9.98001 76.91 9.58001 76.35 9.39001L76.34 9.38001ZM72.11 18.24C71.96 18.68 71.54 19.13 70.86 19.58C70.34 19.92 69.87 20.1 69.45 20.11C69.04 20.11 68.78 20.02 68.61 19.82C68.44 19.61 68.37 19.3 68.43 18.9C68.49 18.46 68.71 17.99 69.1 17.5C69.22 17.33 69.56 17.12 70.44 17.01C70.66 16.98 70.84 16.97 71 16.97C71.5 16.97 71.7 17.08 71.78 17.17C72.14 17.5 72.24 17.83 72.1 18.24H72.11Z"
              fill="#222222"/>
        <path d="M68.67 12.04L69.4101 11.86C69.9701 11.73 70.37 11.67 70.62 11.67C71.01 11.67 71.34 11.57 71.59 11.36C71.85 11.14 71.99 10.86 71.99 10.52C71.99 10.01 71.69 9.86 71.5 9.81C71.26 9.75 70.9 9.78 70.36 9.91C69.82 10.04 69.4001 10.13 69.0501 10.2C68.9901 10.22 68.76 10.27 68.35 10.36C68.09 10.41 67.85 10.45 67.61 10.47L67.47 10.49V9.41C67.49 8.6 67.4701 8.08 67.4101 7.82C67.3401 7.52 67.16 7.28 66.88 7.12C66.31 6.76 65.97 6.99 65.82 7.16C65.73 7.25 65.61 7.37 65.58 9.24V9.68C65.55 10.61 65.51 10.8 65.5 10.83C65.49 10.86 65.42 10.92 65.24 10.98C65.16 11 65.14 11 65.13 11H65.0501C64.2801 11.26 63.66 11.56 63.21 11.89C62.73 12.24 62.52 12.55 62.55 12.85C62.57 13.08 62.72 13.26 63.01 13.41C63.14 13.47 63.26 13.49 63.39 13.49C63.43 13.49 63.47 13.49 63.52 13.49C63.61 13.47 63.82 13.42 64.61 13.11C65.27 12.85 66.3501 12.56 67.8001 12.23C67.9601 12.21 68.25 12.15 68.68 12.04H68.67Z"
              fill="#222222"/>
        <path d="M84.26 17.87C84.05 17.91 83.81 17.95 83.52 18.01C82.74 18.18 82.08 18.33 81.58 18.46C80.6 18.72 80.25 18.77 80.12 18.77C80.12 18.74 80.1 18.69 80.09 18.61C80.06 18.4 80.04 17.89 80.02 17.09C79.96 15.52 79.92 15.44 79.88 15.36C79.79 15.17 79.58 15.05 79.24 14.99C78.93 14.93 78.68 14.95 78.49 15.06C78.22 15.22 78.08 15.65 78.05 16.44C78.02 17.13 78.08 17.94 78.23 18.84C78.35 19.69 78.51 20.21 78.72 20.46C78.92 20.7 79.24 20.82 79.69 20.82C79.76 20.82 79.83 20.82 79.91 20.82C80.38 20.76 81.24 20.53 82.57 20.11C83.28 19.86 84.07 19.66 84.95 19.53C85.02 19.51 85.16 19.49 85.37 19.45C85.56 19.42 85.69 19.4 85.81 19.39C86.63 19.24 87.24 19.17 87.61 19.17C88.18 19.17 88.57 19.04 88.8 18.76C88.95 18.58 89.13 18.2 88.73 17.7C88.48 17.38 87.74 17.15 84.26 17.86V17.87Z"
              fill="#222222"/>
        <path d="M88.65 8.40001C88.56 8.38001 88.37 8.37001 87.64 8.42001C87.52 8.42001 87.36 8.42001 87.15 8.45001C86.9 8.46001 86.72 8.47001 86.57 8.47001C86.2 8.47001 86.11 8.43001 86.12 8.44001C86.12 8.44001 86.03 8.33001 86.01 7.80001V7.45001C85.84 4.14001 85.73 3.95001 85.65 3.81001C85.49 3.60001 85.27 3.46001 85 3.39001C84.61 3.29001 84.38 3.44001 84.25 3.58001C84.12 3.74001 84.05 4.00001 84.05 4.39001C84.06 6.06001 84.08 7.53001 84.1 8.79001C83.98 8.67001 83.83 8.58001 83.64 8.54001C83.34 8.47001 83.04 8.53001 82.74 8.71001C82.5 8.85001 81.87 9.09001 80.87 9.42001C80.59 9.52001 80.19 9.60001 79.66 9.66001L79.55 9.68001L79.53 8.95001C79.49 8.18001 79.46 7.49001 79.42 6.88001C79.39 6.08001 79.35 5.84001 79.31 5.72001C79.24 5.50001 79.09 5.34001 78.85 5.23001C78.64 5.14001 78.48 5.09001 78.34 5.11001C78.2 5.13001 78.05 5.21001 77.94 5.33001C77.76 5.45001 77.66 5.67001 77.65 5.99001C77.65 6.22001 77.64 6.92001 77.64 8.26001C77.66 9.67001 77.69 10.52 77.72 10.87C77.76 11.28 77.9 11.58 78.13 11.76C78.41 11.97 78.77 11.97 79.19 11.79C79.38 11.7 79.62 11.62 79.91 11.55C80.27 11.46 80.57 11.37 80.81 11.29C81.06 11.18 81.36 11.09 81.72 11C82.04 10.92 82.36 10.84 82.64 10.75C82.98 10.67 83.22 10.62 83.37 10.58C83.7 10.5 83.95 10.34 84.12 10.11C84.15 11.69 84.19 12.83 84.24 13.54C84.29 14.65 84.28 14.87 84.28 14.89C84.23 15.08 84.24 15.24 84.32 15.39C84.41 15.55 84.57 15.66 84.8 15.72C84.91 15.75 85.02 15.76 85.12 15.76C85.38 15.76 85.62 15.66 85.81 15.47C85.96 15.32 86.05 15.1 86.08 14.82C86.1 14.59 86.11 13.89 86.11 12.74C86.11 11.17 86.14 10.64 86.16 10.47C86.31 10.42 86.77 10.32 88.25 10.25C88.76 10.23 89.13 10.06 89.32 9.74001C89.44 9.54001 89.58 9.13001 89.09 8.67001C88.94 8.52001 88.79 8.43001 88.64 8.41001L88.65 8.40001Z"
              fill="#222222"/>
        <path d="M96.0799 12.1C95.5999 12.18 95.0599 12.34 94.4699 12.6C94.0999 12.78 93.7199 12.91 93.3599 13C93.1399 13.06 92.9799 13.11 92.8899 13.15C92.6999 13.22 92.4299 13.28 92.0899 13.33L92.1099 12.84C92.1999 10.79 92.2699 9.54001 92.3199 9.12001C92.3699 8.71001 92.4399 8.61001 92.4299 8.61001C92.9199 8.43001 93.5599 8.24001 94.3299 8.06C95.6099 7.77 96.2399 7.44001 96.3899 7.00001C96.5899 6.37001 96.2899 6.09 96.0899 5.98C95.7799 5.81 95.3899 5.83001 94.8899 6.05001C94.5999 6.16001 94.1799 6.26001 93.6099 6.35001L92.2599 6.64001C92.1599 6.68001 91.9299 6.74001 91.3999 6.85001C90.8099 6.98001 90.3999 7.23001 90.1999 7.60001C89.9899 7.98001 90.0199 8.44001 90.2799 8.96001C90.3899 9.19001 90.4499 9.43 90.4599 9.68C90.4599 9.96 90.4299 10.51 90.3399 11.33C90.2099 12.35 90.1499 13.17 90.1699 13.78C90.2199 14.68 90.4399 15.24 90.8399 15.48C90.9799 15.57 91.1399 15.61 91.3199 15.61C91.5199 15.61 91.7399 15.55 91.9899 15.44C92.2399 15.32 92.4899 15.22 92.7599 15.15C93.1099 15.04 93.2199 14.99 93.2599 14.96C93.3199 14.93 93.7099 14.77 95.2399 14.19C95.8599 13.94 96.1099 13.9 96.2099 13.9C96.6299 13.9 96.9699 13.71 97.1899 13.36C97.4799 12.9 97.3599 12.53 97.1899 12.29C96.9599 11.98 96.4499 12.02 96.0799 12.08V12.1Z"
              fill="#222222"/>
        <path d="M102.86 12.12C102.75 12.07 102.55 11.98 100.49 12.18C100.16 12.22 99.97 12.23 99.87 12.23C99.85 11.91 99.83 11.02 99.85 8.59001C99.85 6.74001 99.85 5.62001 99.84 5.24001C99.83 4.81001 99.78 4.52001 99.69 4.34001C99.55 4.03001 99.31 3.83001 99 3.74001C98.57 3.63001 98.31 3.80001 98.17 3.96001C98.04 4.09001 97.96 4.20001 97.96 4.32001C97.92 5.29001 97.91 8.01001 97.93 12.42C97.96 19.11 98 19.31 98.02 19.38C98.1 19.84 98.26 20.13 98.52 20.27C98.62 20.32 98.72 20.34 98.84 20.34C98.99 20.34 99.15 20.3 99.32 20.21C99.62 20.09 99.8 19.91 99.86 19.68C99.89 19.57 99.92 19.33 99.86 18.62C99.8 18.06 99.76 17.18 99.72 16C99.68 14.59 99.69 14.21 99.72 14.09C99.79 14.08 99.95 14.06 100.33 14.02C102.06 13.94 102.46 13.89 102.61 13.86C102.91 13.8 103.14 13.62 103.26 13.34L103.28 13.25C103.34 13.08 103.34 12.87 103.28 12.65C103.2 12.39 103.08 12.21 102.89 12.11L102.86 12.12Z"
              fill="#222222"/>
        <path d="M104.63 7.99001C104.69 9.13001 104.74 9.89001 104.8 10.29C104.85 10.93 104.89 11.84 104.9 13C104.91 14.42 104.86 14.96 104.81 15.18C104.69 15.81 104.68 16.26 104.77 16.57C104.88 16.94 105.15 17.16 105.56 17.21C105.61 17.21 105.66 17.21 105.71 17.21C106.1 17.21 106.44 17.05 106.7 16.74C107.1 16.27 106.96 15.87 106.82 15.65C106.79 15.48 106.74 14.68 106.7 11.44C106.68 8.62001 106.63 7.06001 106.56 6.69001C106.49 6.34001 106.45 5.78001 106.45 5.03001C106.45 4.14001 106.39 3.86001 106.34 3.71001C106.24 3.42001 106 3.26001 105.67 3.26001C105.6 3.26001 105.52 3.26001 105.4 3.23001C105.24 3.20001 105.11 3.23001 105 3.30001C104.84 3.40001 104.71 3.65001 104.6 4.50001C104.51 5.13001 104.49 5.64001 104.53 6.06001C104.57 6.39001 104.6 7.03001 104.64 7.98001L104.63 7.99001Z"
              fill="#222222"/>
        <path d="M106.39 18.36C105.84 17.6 105.23 17.65 104.83 17.82C104.67 17.87 104.51 18 104.33 18.22C104.16 18.43 104.05 18.61 104.01 18.76C103.85 19.18 103.85 19.55 104.01 19.85C104.15 20.13 104.35 20.36 104.6 20.52C104.79 20.64 105 20.7 105.23 20.7C105.33 20.7 105.44 20.69 105.55 20.66C105.9 20.58 106.2 20.37 106.43 20.05C106.71 19.69 106.93 19.1 106.39 18.35V18.36Z"
              fill="#222222"/>
    </g>
    <defs>
        <clipPath id="clip0_3298_77332">
            <rect width="106.96" height="22.36" fill="white" transform="translate(0 0.820007)"/>
        </clipPath>
    </defs>
</svg>
