<svg width="98" height="22" viewBox="0 0 98 22" fill="none" xmlns="http://www.w3.org/2000/svg">
    <g clip-path="url(#clip0_3298_77174)">
        <path d="M7.64 12.215C9.96 12.035 10.99 11.645 10.99 10.935C10.99 10.565 10.77 10.465 10.67 10.445C10.58 10.425 10.43 10.405 10.01 10.475C9.48 10.585 8.46 10.715 6.99 10.855C5.31999 10.995 4.03 11.175 3.14 11.365C2.21 11.555 1.87 11.615 1.74 11.635C1.7 11.565 1.64 11.385 1.56 10.935C1.47 10.335 1.42 9.575 1.42 8.685C1.42 6.045 1.76 5.145 2.04 4.855C2.15 4.755 2.52 4.555 3.81 4.335C4.84 4.155 6.12 4.025 7.62 3.945C10 3.835 10.49 3.605 10.66 3.375C10.85 3.135 11.03 2.855 10.9 2.605C10.77 2.365 10.42 2.355 10.15 2.365C10.12 2.365 9.87999 2.375 9.43999 2.405C9.00999 2.425 8.67 2.445 8.42 2.465C7.46 2.545 5.88 2.715 3.72 2.985C0.449995 3.365 0.299995 3.445 0.179995 3.505C0.00999524 3.635 -0.130005 3.905 0.209995 4.405C0.369995 4.685 0.389995 5.005 0.279995 5.395C0.109995 6.095 0.0499952 7.285 0.0799952 9.035C0.119995 11.395 0.319995 12.035 0.459995 12.295C0.699995 12.875 0.849995 13.015 0.969995 13.075C1.04 13.115 1.16 13.145 1.43 13.145C1.58 13.145 1.77 13.145 2.02 13.115C2.78 13.015 3.59 12.865 4.44 12.655C5.43 12.435 6.50999 12.285 7.64 12.205V12.215Z"
              fill="#222222"/>
        <path d="M16.67 7.355C16.56 7.325 16.35 7.305 15.52 7.375C14.77 7.435 14.25 7.525 13.95 7.635C13.87 7.425 13.77 6.535 14.4 2.665C14.52 2.105 14.5 1.915 14.46 1.815C14.39 1.605 14.19 1.505 13.86 1.505C13.72 1.505 13.28 1.505 13.11 1.815C13.07 1.885 13.02 1.995 12.68 4.705C12.45 6.505 12.34 7.555 12.3 7.935C12.23 7.985 12.15 8.035 12.08 8.065C11.79 8.135 11.49 8.295 11.19 8.535C10.84 8.815 10.69 9.025 10.69 9.225C10.69 9.315 10.73 9.405 10.8 9.475C10.93 9.595 11.14 9.635 11.54 9.625C11.61 9.625 11.66 9.625 11.7 9.625C11.77 9.625 11.81 9.625 11.82 9.625C11.82 9.625 11.82 9.645 11.82 9.665C11.8 9.825 11.74 10.535 11.63 11.785C11.54 12.945 11.55 13.245 11.57 13.375C11.61 13.675 11.82 13.855 12.14 13.855C12.97 13.855 13.06 12.525 13.06 11.515C13.06 11.055 13.13 10.585 13.28 10.095C13.46 9.485 13.61 9.295 13.7 9.225C13.77 9.155 14.07 8.985 15.26 8.905C15.7 8.855 16.01 8.815 16.21 8.765C16.44 8.715 16.61 8.635 16.72 8.525C16.83 8.415 16.9 8.275 16.94 8.075C17.04 7.565 16.81 7.425 16.67 7.375V7.355Z"
              fill="#222222"/>
        <path d="M11.26 14.365C11.06 14.255 10.72 14.195 10.23 14.185C9.55001 14.155 8.78001 14.275 7.95001 14.565C7.08001 14.895 6.37001 15.125 5.83001 15.255C5.00001 15.495 4.32001 15.925 3.80001 16.535C3.27001 17.155 3.01001 17.865 3.01001 18.645C3.01001 19.215 3.11001 19.645 3.31001 19.955C3.51001 20.265 3.86001 20.555 4.39001 20.835C4.96001 21.125 5.65001 21.275 6.44001 21.275C6.65001 21.275 6.87001 21.265 7.09001 21.245C8.14001 21.145 9.22001 20.835 10.33 20.305C10.62 20.155 10.85 20.005 11.04 19.865C11.23 19.715 11.4 19.555 11.54 19.375C11.67 19.205 11.81 18.995 11.95 18.725C12.25 18.085 12.41 17.435 12.41 16.795C12.41 16.155 12.23 15.555 11.89 15.055C11.67 14.705 11.46 14.485 11.26 14.375V14.365ZM11.08 16.535C11.09 16.645 11.08 16.785 11.06 16.945C10.94 17.455 10.8 17.855 10.64 18.105C10.22 18.715 9.32001 19.165 7.98001 19.445C6.64001 19.715 5.69001 19.645 5.14001 19.225C4.76001 18.955 4.58001 18.665 4.58001 18.345C4.58001 18.015 4.80001 17.655 5.20001 17.295C5.81001 16.765 6.08001 16.705 6.16001 16.705C6.47001 16.705 6.89001 16.575 7.45001 16.325C8.51001 15.815 9.25001 15.525 9.66001 15.485C9.70001 15.485 9.74001 15.485 9.78001 15.485C10.1 15.485 10.4 15.625 10.69 15.925C10.87 16.105 10.95 16.215 10.98 16.275C11.03 16.355 11.06 16.455 11.07 16.555L11.08 16.535Z"
              fill="#222222"/>
        <path d="M18.39 3.405C18.47 3.455 18.55 3.475 18.63 3.475C18.68 3.475 18.74 3.465 18.79 3.445C18.97 3.415 19.59 3.345 21.44 3.195C23.01 3.085 24.2 2.955 24.98 2.805C25.75 2.655 26.39 2.615 26.88 2.685C27.45 2.785 27.66 2.735 27.77 2.685C27.91 2.625 28.09 2.485 28.15 2.155C28.28 1.665 28.21 1.345 27.94 1.185L27.88 1.155C27.75 1.125 27.49 1.045 23.96 1.505C22.18 1.725 20.84 1.855 19.96 1.885C18.88 1.885 18.56 2.015 18.43 2.105C18.34 2.145 18.23 2.235 18.16 2.425C18.12 2.535 18.1 2.655 18.1 2.765C18.1 2.865 18.12 2.975 18.15 3.075C18.19 3.215 18.27 3.325 18.39 3.395V3.405Z"
              fill="#222222"/>
        <path d="M30.17 12.025C30.09 11.915 29.97 11.835 29.8 11.785C29.66 11.735 29.47 11.705 29.21 11.685C28.72 11.675 27.94 11.755 26.87 11.955C25.89 12.175 24.72 12.345 23.37 12.455C21.21 12.695 19.74 12.935 18.88 13.185C18.52 13.285 17.44 13.595 17.44 14.385C17.44 14.755 17.66 14.995 18.03 15.015C18.31 15.035 18.76 14.935 19.42 14.695C19.65 14.615 20.14 14.505 20.88 14.365C21.63 14.225 22.39 14.095 23.15 13.985C23.84 13.885 24.33 13.825 24.62 13.825C24.65 13.905 24.69 14.135 24.66 14.715C24.62 15.455 24.55 15.655 24.53 15.715C24.51 15.755 24.43 15.885 24.02 16.085C23.58 16.285 23.15 16.395 22.75 16.425C22.27 16.425 21.66 16.615 20.86 17.005C20.13 17.395 19.93 17.585 19.84 17.685C19.69 17.875 19.59 18.155 19.55 18.565C19.48 19.345 19.76 20.035 20.4 20.625C21.02 21.195 21.79 21.485 22.68 21.485C23.16 21.485 23.83 21.365 24.74 21.115C25.63 20.875 26.3 20.645 26.77 20.415C27.1 20.215 27.4 19.865 27.69 19.355C27.97 18.845 28.12 18.355 28.12 17.905C28.12 17.425 27.96 16.955 27.66 16.515C27.35 16.075 26.98 15.765 26.55 15.615C26.3 15.515 26.15 15.385 26.09 15.205C26.05 15.065 26.03 14.795 26.2 14.265C26.33 13.855 26.56 13.585 26.89 13.435C27.26 13.275 27.91 13.195 28.83 13.195C29.69 13.195 29.93 13.155 30.03 13.125C30.15 13.085 30.43 12.945 30.32 12.425C30.3 12.275 30.25 12.145 30.18 12.045L30.17 12.025ZM26.16 17.115C26.43 17.215 26.59 17.385 26.65 17.645C26.71 17.915 26.65 18.185 26.45 18.465C26.22 18.775 25.71 19.105 24.93 19.435C24.14 19.775 23.47 19.945 22.95 19.945C22.77 19.945 22.57 19.915 22.37 19.855C22.17 19.795 21.98 19.725 21.81 19.625C21.64 19.535 21.5 19.425 21.38 19.315C21.27 19.215 21.18 19.095 21.12 18.975C21.07 18.885 21.06 18.795 21.08 18.685C21.09 18.605 21.18 18.365 21.82 18.005C22.33 17.725 22.79 17.575 23.2 17.555C23.7 17.535 24.17 17.405 24.55 17.165C24.87 17.005 25.13 16.925 25.35 16.915C25.36 16.915 25.37 16.915 25.38 16.915C25.59 16.915 25.84 16.975 26.15 17.105L26.16 17.115Z"
              fill="#222222"/>
        <path d="M18.29 6.905C18.41 6.955 18.57 6.935 19.14 6.705C19.42 6.615 19.89 6.485 20.49 6.335C20.68 6.315 21.05 6.245 21.66 6.115C22.24 5.985 22.66 5.905 22.91 5.855C24.14 5.635 24.95 5.485 25.32 5.425C25.49 5.405 25.61 5.385 25.7 5.375C25.55 5.565 25.08 6.075 23.62 7.525C22.29 8.845 21.18 9.885 20.34 10.615C19.36 11.465 19.23 11.825 19.33 12.085C19.4 12.275 19.59 12.375 19.88 12.375C20.1 12.375 20.49 12.255 21.71 11.345C22.6 10.685 23.34 10.025 23.92 9.395C24.56 8.735 24.74 8.625 24.79 8.615C24.87 8.585 25 8.605 25.16 8.675C25.72 8.965 26.26 9.335 26.76 9.755C27.25 10.165 27.58 10.505 27.72 10.785C27.96 11.255 28.22 11.505 28.52 11.535C28.77 11.565 29.01 11.435 29.23 11.175C29.57 10.805 29.16 10.195 28.77 9.695C28.29 9.085 27.7 8.545 27.03 8.085C26.33 7.585 26.22 7.415 26.22 7.435C26.22 7.385 26.32 7.135 27.16 6.175C27.28 6.065 27.4 5.945 27.52 5.785C27.63 5.645 27.72 5.515 27.81 5.395C27.9 5.265 27.98 5.155 28.05 5.045C28.12 4.925 28.17 4.825 28.21 4.735C28.25 4.625 28.28 4.535 28.28 4.445C28.28 4.275 28.24 4.135 28.16 4.025C28.06 3.895 27.88 3.835 27.56 3.815C27.33 3.815 27.03 3.815 26.7 3.855C26.37 3.885 25.87 3.955 25.2 4.045C24.49 4.105 23.66 4.225 22.73 4.395C21.81 4.565 20.97 4.735 20.23 4.905C19.23 5.135 18.93 5.255 18.79 5.325C18.38 5.535 18.14 5.855 18.09 6.245C18.06 6.415 17.97 6.815 18.27 6.925L18.29 6.905Z"
              fill="#222222"/>
        <path d="M44.43 3.565L44.41 3.585C44.24 3.725 44.04 4.045 43.86 5.405C43.71 6.735 43.58 6.955 43.56 6.985C43.53 7.015 43.32 7.155 42.02 7.395C40.96 7.605 40.25 7.825 39.84 8.045C39.28 8.335 38.85 8.665 38.53 9.055C38.35 9.285 38.17 9.575 38.3 9.835C38.38 9.995 38.55 10.085 38.8 10.085C38.89 10.085 39.07 10.085 40.56 9.435C41.41 9.035 42.17 8.785 42.81 8.685L43.42 8.605L43.34 8.965C43.24 9.565 43.15 10.705 43.07 12.425C43.02 13.785 43.01 14.585 43.03 14.845C43.08 15.395 43.48 15.445 43.6 15.445C44 15.445 44.28 15.235 44.39 14.845C44.48 14.535 44.52 13.895 44.52 12.865C44.52 12.095 44.63 10.685 44.85 8.685C45.07 6.675 45.28 5.215 45.47 4.325C45.52 4.035 45.56 3.625 45.31 3.425C45.03 3.205 44.66 3.405 44.4 3.565H44.43Z"
              fill="#222222"/>
        <path d="M44 17.085C43.91 17.065 43.74 17.045 43.3 17.115C43.08 17.145 42.55 17.195 41.72 17.255C40.88 17.315 39.99 17.375 39.05 17.425C38.1 17.475 37.36 17.515 36.82 17.545C36.76 17.545 36.71 17.545 36.67 17.545C36.45 17.545 36.39 17.515 36.39 17.525C36.39 17.515 36.33 17.415 36.29 17.035C36.26 16.595 36.34 16.125 36.54 15.625C36.84 14.835 36.84 14.755 36.84 14.695C36.84 14.565 36.77 14.345 36.33 14.345C36.03 14.345 35.73 14.525 35.48 14.855C35.05 15.285 34.8 16.015 34.74 17.065C34.67 18.125 34.81 18.845 35.15 19.285L35.63 19.895L36.79 19.355C37.32 19.115 38.43 18.915 40.07 18.765C42.11 18.585 42.85 18.655 43.08 18.725C43.33 18.855 43.52 18.895 43.68 18.855C43.85 18.815 44 18.675 44.14 18.415C44.28 18.105 44.36 17.825 44.36 17.565C44.36 17.305 44.23 17.125 44.01 17.065L44 17.085Z"
              fill="#222222"/>
        <path d="M35.88 10.695C36.04 10.465 36.14 10.365 36.19 10.325C36.35 10.435 36.83 10.835 38.26 12.175C40.19 14.015 40.57 14.185 40.78 14.185C40.8 14.185 40.82 14.185 40.84 14.185C41.13 14.115 41.33 13.855 41.41 13.385C41.43 13.105 41.32 12.825 41.07 12.555C40.86 12.325 40.44 11.935 39.8 11.395C38.75 10.595 38.05 9.995 37.73 9.605C37.47 9.295 37.39 9.065 37.51 8.875C37.56 8.755 37.87 8.285 39.41 6.445C39.8 5.975 40.12 5.575 40.38 5.235C41.08 4.315 41.3 3.775 41.13 3.435C41.07 3.305 40.92 3.155 40.59 3.155C40.26 3.155 40.07 3.205 39.98 3.295C39.85 3.335 39.36 3.425 37.51 3.665C35.11 3.985 33.44 4.255 32.54 4.465C31.52 4.705 31.01 4.965 30.88 5.295C30.65 5.785 30.92 6.055 31.05 6.145C31.23 6.265 31.52 6.375 31.89 6.145C32.09 6.045 32.77 5.855 34.85 5.505C36.53 5.225 37.6 5.105 38.05 5.135L38.47 5.155L37.84 5.925C35.04 9.415 33.48 11.435 33.07 12.095C32.88 12.415 32.77 12.645 32.74 12.815C32.71 12.965 32.73 13.195 32.92 13.385C33 13.495 33.26 13.825 33.6 13.765C33.95 13.715 34.1 13.305 34.14 13.185C34.26 12.905 34.51 12.515 34.88 12.015C35.31 11.425 35.64 10.985 35.87 10.695H35.88Z"
              fill="#222222"/>
        <path d="M54.92 16.925C50.52 17.505 49.45 17.355 49.17 17.205C49.06 17.165 49.05 17.115 49.05 17.085C49.04 17.015 49.03 16.835 49.09 16.365C49.17 15.785 49.11 15.425 48.9 15.245C48.81 15.165 48.7 15.125 48.57 15.135C48.37 15.145 48.17 15.285 47.92 15.585C47.71 15.865 47.6 16.375 47.58 17.145C47.58 17.505 47.6 17.755 47.63 17.925C47.67 18.115 47.73 18.265 47.82 18.385C47.92 18.515 48.08 18.625 48.32 18.715C48.61 18.855 48.97 18.915 49.39 18.915C49.41 18.915 49.44 18.915 49.46 18.915C49.88 18.915 50.8 18.825 52.17 18.685C54.28 18.465 55.64 18.395 56.21 18.465C56.88 18.575 57.09 18.555 57.22 18.485C57.39 18.395 57.49 18.175 57.55 17.755C57.64 17.175 57.6 16.915 57.39 16.745C57.29 16.695 57.18 16.645 54.92 16.915V16.925Z"
              fill="#222222"/>
        <path d="M57.94 12.145C57.83 12.115 57.58 12.075 56.58 12.075C55.42 12.105 54.38 12.185 53.49 12.295C52.53 12.395 51.73 12.475 51.12 12.555C49.7 12.685 48.8 12.765 48.44 12.795C46.64 12.935 46.4 13.005 46.31 13.075C46.05 13.215 46.02 13.565 46.02 13.815C46.02 14.155 46.23 14.375 46.58 14.405C46.63 14.405 46.7 14.405 46.78 14.405C47.11 14.405 47.71 14.375 48.61 14.325C50 14.245 51.63 14.095 53.47 13.895C55.04 13.705 56.22 13.605 56.99 13.605C57.27 13.605 57.47 13.605 57.61 13.595C57.77 13.585 57.91 13.555 58.02 13.505C58.23 13.415 58.29 13.275 58.31 13.165C58.31 13.105 58.32 12.995 58.32 12.835C58.32 12.365 58.11 12.205 57.94 12.155V12.145Z"
              fill="#222222"/>
        <path d="M47.33 8.895C47.71 9.655 48.27 10.205 49 10.525C49.71 10.845 50.71 11.005 51.97 11.005C52.74 11.005 53.3 10.975 53.66 10.905C54.03 10.835 54.39 10.705 54.75 10.525C55.33 10.225 55.93 9.755 56.52 9.135C57.13 8.495 57.49 7.955 57.63 7.485C57.89 6.735 57.86 5.865 57.56 4.915C57.26 3.975 56.78 3.215 56.13 2.675C55.8 2.415 55.52 2.255 55.27 2.185C55.03 2.125 54.65 2.105 54.08 2.145C53.64 2.175 53.2 2.275 52.77 2.435C52.33 2.595 51.96 2.805 51.67 3.045C51.34 3.325 51.19 3.585 51.19 3.855C51.19 4.025 51.21 4.145 51.25 4.225C51.3 4.355 51.45 4.485 51.69 4.435C51.8 4.415 51.93 4.365 52.1 4.275C52.24 4.195 52.45 4.075 52.69 3.895C53.38 3.505 53.75 3.425 53.94 3.425C54.25 3.425 54.64 3.595 55.09 3.925C55.55 4.265 55.88 4.635 56.07 5.005C56.5 5.915 56.49 6.735 56.03 7.525C55.57 8.325 54.73 8.915 53.53 9.295C53.07 9.445 52.71 9.525 52.45 9.535C52.19 9.535 51.76 9.495 51.19 9.385C50.56 9.255 50.08 9.145 49.76 9.035C49.46 8.935 49.22 8.805 49.06 8.655C48.9 8.505 48.75 8.275 48.61 7.965C48.22 7.115 48.2 6.285 48.55 5.445C48.9 4.605 49.54 3.975 50.47 3.575C51 3.355 51.35 3.155 51.57 2.965C52 2.585 51.8 2.255 51.73 2.165C51.57 1.935 51.27 1.855 50.82 1.925C50.45 1.985 50.05 2.125 49.64 2.345C49.44 2.435 49.22 2.595 48.96 2.815C48.72 3.035 48.48 3.265 48.26 3.505C48.03 3.745 47.81 4.015 47.61 4.295C47.41 4.565 47.24 4.825 47.1 5.075C46.89 5.505 46.81 6.105 46.87 6.905C46.93 7.685 47.08 8.355 47.34 8.885L47.33 8.895Z"
              fill="#222222"/>
        <path d="M79.7 8.755H79.36L79.45 8.035C79.57 7.195 79.75 6.095 80 4.685C80.34 2.875 80.49 1.735 80.46 1.205C80.43 0.875 80.31 0.665 80.12 0.565C79.92 0.465 79.68 0.505 79.38 0.685C79.29 0.745 79 0.865 78.05 1.005C77.26 1.105 76.44 1.275 75.63 1.515C74.93 1.735 74.69 1.775 74.61 1.775C74.55 1.775 74.52 1.775 74.48 1.705C74.38 1.525 74.14 1.245 73.58 1.365C72.31 1.665 70.85 2.025 69.2 2.445C66.96 3.005 66.53 3.145 66.4 3.205C66 3.405 65.78 3.765 65.76 4.245C65.76 4.475 65.83 4.635 65.97 4.735C66.11 4.835 66.29 4.845 66.53 4.755C66.71 4.675 67.27 4.465 68.93 3.975C70.27 3.575 71.33 3.285 72.07 3.115C72.56 2.995 72.84 2.975 73 2.975C73.14 2.975 73.17 2.995 73.17 2.985C73.2 3.045 73.25 3.385 72.96 5.055C72.75 6.235 72.63 7.365 72.6 8.435C72.58 9.655 72.47 10.035 72.41 10.155C72.4 10.175 72.24 10.385 70.94 10.575C69.75 10.765 68.92 10.935 68.48 11.085C68.28 11.155 67.66 11.355 67.66 11.855C67.66 12.405 67.89 12.565 68.08 12.595C68.2 12.615 68.46 12.615 69.37 12.435C70.84 12.115 72.27 11.835 73.61 11.605C74.72 11.415 75.22 11.345 75.44 11.325C75.42 11.445 75.36 11.665 75.22 12.065C74.92 12.915 74.76 13.095 74.75 13.105C74.68 13.155 74.36 13.285 72.98 13.475C72 13.605 71.16 13.815 70.47 14.095C69.67 14.425 69.31 14.725 69.31 15.095C69.31 15.435 69.49 15.675 69.81 15.765C70.09 15.845 70.4 15.805 70.7 15.625C70.91 15.515 71.61 15.295 73.73 14.885L76.85 14.275C76.85 14.275 76.93 14.255 76.96 14.245C76.96 14.315 76.98 14.445 76.98 14.685C76.98 15.285 76.9 15.555 76.86 15.645C76.83 15.675 76.62 15.845 75.29 16.095C75 16.145 73.98 16.325 71.99 16.695C70.52 17.005 70.15 17.235 70 17.395C69.75 17.655 69.7 18.155 69.83 18.995C69.96 19.525 70.28 19.895 70.77 20.105C71.29 20.305 72.1 20.445 73.19 20.505C73.56 20.525 73.9 20.535 74.21 20.535C74.84 20.535 75.37 20.495 75.81 20.405L78.19 19.925C78.88 19.785 79.3 19.615 79.52 19.405C79.78 19.155 79.84 18.805 79.67 18.285C79.6 18.165 79.42 17.975 79.01 18.055C78.8 18.095 78.41 18.225 77.81 18.435C77.32 18.605 76.73 18.745 76.06 18.855C74.39 19.075 72.99 19.035 71.91 18.745C71.55 18.655 71.44 18.565 71.41 18.565C71.43 18.535 71.51 18.445 71.78 18.315C71.95 18.215 72.85 17.935 76.9 17.195C77.55 17.105 78.01 16.735 78.25 16.105C78.47 15.525 78.56 14.625 78.53 13.365L78.5 12.415L76.54 12.675L76.64 12.225C76.77 11.645 77.02 11.245 77.42 10.985C77.84 10.715 78.65 10.445 79.84 10.175C80.16 10.095 80.39 9.955 80.53 9.745C80.7 9.495 80.68 9.225 80.48 9.015C80.31 8.835 80.05 8.745 79.71 8.745L79.7 8.755ZM78.83 2.385C78.83 2.565 78.78 3.135 78.53 4.845C78.33 6.235 78.14 7.385 77.97 8.265C77.92 8.535 77.88 8.725 77.85 8.855C77.83 8.945 77.79 9.025 77.73 9.095C77.66 9.185 77.6 9.225 77.57 9.235C77.53 9.255 77.44 9.295 77.21 9.345C75.56 9.755 74.47 9.995 73.98 10.065C73.96 9.925 73.94 9.625 73.93 9.025C73.93 8.165 73.96 7.505 74.04 7.035C74.04 7.015 74.06 6.845 74.25 5.505C74.37 4.625 74.58 4.005 74.86 3.665C75.14 3.325 75.69 3.035 76.52 2.815C77.5 2.535 78.05 2.375 78.21 2.305C78.42 2.235 78.55 2.215 78.64 2.215C78.73 2.215 78.76 2.235 78.77 2.245C78.81 2.275 78.81 2.365 78.81 2.405L78.83 2.385Z"
              fill="#222222"/>
        <path d="M82.17 3.985C82.28 4.025 82.45 4.045 82.93 3.955C83.05 3.945 83.16 3.925 83.27 3.915C83.19 4.155 83.04 4.585 82.78 5.305C82.15 7.065 81.92 8.325 82.09 9.185C82.26 10.095 82.91 10.655 84 10.875C84.67 11.025 85.31 11.095 85.9 11.095C85.96 11.095 86.02 11.095 86.08 11.095C86.72 11.075 87.68 10.955 88.99 10.705C90.9 10.395 91.55 10.375 91.75 10.415C92.16 10.515 92.48 10.455 92.7 10.225C92.9 10.015 93 9.685 93 9.215C93 8.985 92.98 8.745 92.79 8.635C92.67 8.565 92.5 8.565 92.16 8.635C91.76 8.695 90.7 8.885 88.99 9.185C87.01 9.515 85.55 9.595 84.65 9.435C83.58 9.245 83.45 8.735 83.45 8.375C83.45 7.965 83.57 7.405 84.63 7.175C85.48 6.975 86.84 6.745 88.66 6.495C90.92 6.195 91.7 6.155 91.98 6.175C92.51 6.195 92.68 6.175 92.78 6.145C92.9 6.115 93.1 6.005 93.17 5.665C93.23 5.305 93.18 5.055 93.02 4.875C92.86 4.705 92.56 4.625 92.04 4.605C91.59 4.585 91.02 4.625 90.31 4.715C89.61 4.805 88.61 4.955 87.34 5.165C85.15 5.515 84.38 5.665 84.1 5.745C84.1 5.295 84.22 4.855 84.48 4.435C84.7 4.045 85.04 3.805 85.49 3.695C85.99 3.585 87.02 3.435 88.55 3.255C90.08 3.075 91.19 2.975 91.84 2.955C92.53 2.955 92.73 2.895 92.83 2.845C93.12 2.695 93.12 2.305 93.12 2.185C93.12 1.925 93.06 1.735 92.93 1.595C92.81 1.455 92.62 1.385 92.37 1.365C91.98 1.305 91.71 1.335 91.53 1.445H91.52C91.39 1.495 90.73 1.635 87.54 1.955C86.31 2.065 85.36 2.165 84.72 2.255C84.07 2.345 83.53 2.435 83.11 2.535C82.65 2.645 82.36 2.745 82.2 2.865C82.01 3.005 81.91 3.205 81.91 3.445C81.91 3.745 82 3.945 82.19 4.015L82.17 3.985Z"
              fill="#222222"/>
        <path d="M91.2 17.455C90.75 17.575 90.12 17.685 89.33 17.755C88.36 17.835 87.37 17.945 86.41 18.095C85.16 18.265 84.62 18.175 84.41 18.075C84.12 17.915 84.06 17.805 84.05 17.775C84.04 17.735 83.99 17.575 84.01 17.015C84.07 16.225 84.01 16.005 83.91 15.885L83.8 15.785H83.69C83.56 15.785 83.45 15.825 82.91 16.385C82.53 16.765 82.33 17.215 82.33 17.705C82.33 18.195 82.53 18.645 82.93 19.045C83.25 19.385 83.54 19.555 83.83 19.585C83.87 19.585 83.94 19.585 84.04 19.585C84.29 19.585 84.77 19.565 85.76 19.465C87.38 19.365 88.77 19.285 89.94 19.205C90.88 19.155 91.44 19.095 91.72 19.025C92.16 18.915 92.3 18.675 92.34 18.485C92.42 18.025 92.36 17.715 92.17 17.525C91.97 17.335 91.66 17.305 91.21 17.435L91.2 17.455Z"
              fill="#222222"/>
        <path d="M93.19 12.225C93.11 12.125 92.99 12.055 92.85 11.995C92.72 11.945 92.52 11.915 92.2 11.895C91.3 11.895 91.09 11.925 91.03 11.945C89.79 12.185 88.36 12.395 86.81 12.565C82.76 12.915 81.89 13.175 81.59 13.335C81.26 13.485 81.09 13.755 81.09 14.115C81.09 14.365 81.23 14.545 81.47 14.585C81.56 14.605 81.76 14.625 82.35 14.555C82.49 14.535 82.92 14.485 83.64 14.395C84.36 14.305 84.91 14.225 85.3 14.165C86.55 14.065 87.31 13.965 87.62 13.875C87.96 13.795 88.01 13.925 88.03 13.975C88.08 14.085 88.16 14.415 88.08 15.365C88.06 15.725 88.06 16.025 88.06 16.265C88.06 16.635 88.1 17.085 88.41 17.235C88.47 17.265 88.53 17.275 88.59 17.275C88.74 17.275 88.9 17.205 89.07 17.065C89.32 16.865 89.43 16.415 89.43 15.615C89.42 14.975 89.49 14.455 89.65 14.065C89.72 13.905 89.8 13.795 89.9 13.705C90.01 13.615 90.17 13.535 90.37 13.475C90.79 13.345 91.41 13.365 92.14 13.425C92.92 13.545 93.08 13.515 93.18 13.465C93.46 13.325 93.41 12.915 93.39 12.755C93.37 12.505 93.32 12.335 93.22 12.225H93.19Z"
              fill="#222222"/>
        <path d="M97.17 3.505C97.13 3.395 97.03 3.255 96.74 3.255C96.45 3.255 96.28 3.385 96.19 3.485C96.07 3.625 95.9 3.925 95.7 5.025C95.55 5.815 95.46 6.655 95.41 7.525C95.32 8.665 95.27 8.925 95.25 8.975C95.16 9.235 95.03 9.915 94.88 12.855C94.8 14.165 94.74 14.465 94.72 14.535C94.66 14.785 94.7 15.055 94.84 15.325C95.04 15.705 95.29 15.785 95.47 15.785C95.77 15.785 95.93 15.655 96.02 15.555C96.11 15.445 96.2 15.225 96.25 13.815C96.36 10.805 96.47 10.245 96.51 10.145C96.55 10.065 96.63 9.905 96.73 8.325C96.84 6.715 96.95 5.585 97.05 5.025C97.09 4.925 97.14 4.735 97.19 4.095C97.21 3.655 97.19 3.565 97.18 3.505H97.17Z"
              fill="#222222"/>
        <path d="M94.12 19.695L94.1 19.715C93.95 19.885 93.87 20.135 93.85 20.465C93.83 20.815 93.9 21.065 94.06 21.225C94.22 21.395 94.39 21.485 94.57 21.485C94.71 21.485 94.85 21.435 94.98 21.325C95.24 21.115 95.37 20.785 95.37 20.335C95.37 19.925 95.24 19.635 94.99 19.495C94.8 19.385 94.5 19.335 94.11 19.695H94.12Z"
              fill="#222222"/>
    </g>
    <defs>
        <clipPath id="clip0_3298_77174">
            <rect width="97.19" height="20.97" fill="white" transform="translate(0 0.514999)"/>
        </clipPath>
    </defs>
</svg>
