<svg width="121" height="24" viewBox="0 0 121 24" fill="none" xmlns="http://www.w3.org/2000/svg">
    <g clip-path="url(#clip0_3298_77166)">
        <path d="M7.88 1.975C10.03 1.975 11.1 4.125 11.1 8.425C10.32 8.905 9.6 9.145 8.95 9.145L8.59 7.705L9.31 7.345L8.95 4.845V4.125C8.47 4.125 8.24 4.005 8.24 3.765C6.81 4.325 6.09 4.805 6.09 5.205V8.425C6.09 8.905 5.85 9.145 5.37 9.145H5.02C4.54 9.145 4.18 7.835 3.95 5.195C1.32 5.195 0 4.355 0 2.685L0.71 2.335C2.21 2.565 3.64 2.925 5.02 3.405C5.02 2.785 5.97 2.305 7.88 1.965V1.975ZM2.86 9.855C4.42 10.335 5.49 10.565 6.09 10.565C6.45 10.565 8.12 10.445 11.1 10.215L11.46 10.925V12.365C10.74 12.365 9.9 12.485 8.95 12.725C10.38 15.195 11.1 17.345 11.1 19.175C9.25 20.365 7.58 20.965 6.09 20.965V21.325H6.8C8.09 21.085 9.16 20.965 10.02 20.965L10.38 21.685V23.115L8.94 23.475V23.115L8.23 23.475H6.08C4.79 23.475 3.95 22.995 3.57 22.035V21.325C3.57 19.415 5.24 18.455 8.58 18.455C8.58 18.225 8.82 18.105 9.3 18.105V17.385C9.3 16.905 8.94 16.675 8.23 16.675C8.02 16.675 7.06 16.795 5.36 17.035L4.65 15.965V15.245L7.51 14.535L7.16 12.745H5.72C3.33 12.445 2.14 11.965 2.14 11.305V10.585C2.22 10.105 2.46 9.875 2.85 9.875L2.86 9.855Z"
              fill="#222222"/>
        <path d="M13.71 11.655C15.74 12.135 17.05 12.365 17.65 12.365L22.66 12.005C22.89 12.465 23.01 12.825 23.01 13.075C23.01 13.795 22.53 14.145 21.58 14.145L21.93 15.935C21.93 16.415 21.69 16.645 21.22 16.645H20.15L19.44 14.505H16.94C14.08 14.505 12.64 14.025 12.64 13.065V12.705C12.64 12.365 13 12.015 13.71 11.645V11.655ZM15.85 0.925003C19.46 1.645 21.36 1.995 21.57 1.995V3.785C21.09 3.785 20.85 3.905 20.85 4.135C19.06 3.655 17.39 3.425 15.85 3.425V4.495L16.2 5.205L16.92 4.855H20.13C20.47 4.855 20.83 5.215 21.2 5.925V7.355H16.19V7.715L19.05 8.425H21.91L22.27 9.135C21.91 10.095 21.55 10.575 21.2 10.575H17.26C15.12 10.095 14.05 9.495 14.05 8.785V4.135C14.05 1.995 14.65 0.925003 15.84 0.925003H15.85ZM15.49 15.235H16.56V15.585L16.2 18.095C16.44 18.095 16.56 18.215 16.56 18.445C16.8 18.445 16.92 18.325 16.92 18.095C17.17 18.095 17.52 18.215 17.98 18.445C19.27 18.215 20.34 18.095 21.2 18.095H21.91C21.91 18.345 22.03 18.705 22.27 19.165C22.27 20.115 20.96 20.595 18.33 20.595H16.54C14.87 20.595 14.04 19.645 14.04 17.735C14.6 16.065 15.08 15.235 15.47 15.235H15.49Z"
              fill="#222222"/>
        <path d="M34.42 1.255C37.04 1.975 38.36 3.165 38.36 4.835V6.265C38.36 8.595 36.45 10.385 32.63 11.635C30.72 11.635 29.77 10.205 29.77 7.335C29.77 3.945 30.84 2.035 32.99 1.605C33.41 1.375 33.89 1.255 34.43 1.255H34.42ZM31.91 7.705V8.415C31.99 8.895 32.23 9.135 32.62 9.135C35.25 8.585 36.57 7.275 36.57 5.185V4.835C36.33 4.115 35.61 3.755 34.42 3.755H33.71C32.88 3.755 32.28 5.065 31.91 7.705ZM42.66 0.535004H43.01C43.35 0.535004 43.71 0.895004 44.08 1.605V4.115C44.08 5.775 44.32 8.045 44.8 10.925L43.73 11.635C42.53 11.635 41.93 9.125 41.93 4.115V1.255C42.01 0.775004 42.25 0.535004 42.65 0.535004H42.66Z"
              fill="#222222"/>
        <path d="M46.69 3.75501H52.07C53.98 3.75501 54.93 5.42501 54.93 8.77501C57.32 11.555 58.51 13.465 58.51 14.505V14.865C58.51 15.345 58.27 15.575 57.8 15.575C57.33 15.575 56.14 14.145 54.22 11.275H53.86C53.13 13.895 52.53 15.215 52.07 15.215C51.73 15.215 51.37 14.855 51 14.145V13.795L52.43 7.33501V5.90501H52.08C51.5 5.90501 49.71 6.02501 46.7 6.25501C46.22 5.47501 45.99 4.75501 45.99 4.10501L46.7 3.74501L46.69 3.75501ZM48.84 18.095L53.15 18.445H56.37C57.8 18.445 58.52 19.165 58.52 20.605L57.81 20.955H53.15C50.04 20.955 48.49 20.115 48.49 18.445C48.72 18.445 48.84 18.325 48.84 18.095Z"
              fill="#222222"/>
        <path d="M65.64 7.35501C70.65 7.49501 73.15 8.08501 73.15 9.14501C73.15 9.68501 73.27 10.165 73.51 10.585C73.08 15.835 72.6 18.455 72.07 18.455H71.72C71.26 18.225 70.9 18.105 70.65 18.105V15.955C70.65 14.695 70.77 12.675 71 9.87501H69.94C66.83 9.87501 65.28 9.39501 65.28 8.43501C65.52 7.97501 65.64 7.61501 65.64 7.36501V7.35501ZM78.17 8.06501C79.06 8.06501 79.65 9.37501 79.96 12.015L82.46 11.655H83.18V9.14501C83.25 8.66501 83.49 8.43501 83.89 8.43501H84.6C84.97 8.43501 85.57 11.175 86.4 16.665V17.025C86.16 17.485 86.04 17.845 86.04 18.095H84.97C84.19 18.095 83.71 16.665 83.53 13.795H81.74C80.31 13.945 79.59 14.305 79.59 14.865V16.655H77.8L77.44 14.865V8.78501C77.52 8.30501 77.76 8.06501 78.16 8.06501H78.17Z"
              fill="#222222"/>
        <path d="M95.45 1.975C97.6 1.975 98.67 4.125 98.67 8.425C97.89 8.905 97.17 9.145 96.52 9.145L96.16 7.705L96.88 7.345L96.52 4.845V4.125C96.04 4.125 95.81 4.005 95.81 3.765C94.38 4.325 93.66 4.805 93.66 5.205V8.425C93.66 8.905 93.42 9.145 92.94 9.145H92.59C92.11 9.145 91.75 7.835 91.52 5.195C88.89 5.195 87.57 4.355 87.57 2.685L88.28 2.335C89.78 2.565 91.21 2.925 92.59 3.405C92.59 2.785 93.54 2.305 95.45 1.965V1.975ZM90.43 9.855C91.99 10.335 93.06 10.565 93.66 10.565C94.02 10.565 95.69 10.445 98.67 10.215L99.03 10.925V12.365C98.31 12.365 97.47 12.485 96.52 12.725C97.95 15.195 98.67 17.345 98.67 19.175C96.82 20.365 95.15 20.965 93.66 20.965V21.325H94.37C95.66 21.085 96.73 20.965 97.59 20.965L97.95 21.685V23.115L96.51 23.475V23.115L95.8 23.475H93.65C92.36 23.475 91.52 22.995 91.14 22.035V21.325C91.14 19.415 92.81 18.455 96.15 18.455C96.15 18.225 96.39 18.105 96.87 18.105V17.385C96.87 16.905 96.51 16.675 95.8 16.675C95.59 16.675 94.63 16.795 92.93 17.035L92.22 15.965V15.245L95.08 14.535L94.73 12.745H93.29C90.9 12.445 89.71 11.965 89.71 11.305V10.585C89.79 10.105 90.03 9.875 90.42 9.875L90.43 9.855Z"
              fill="#222222"/>
        <path d="M100.91 4.12501C105.21 4.27501 107.36 4.87501 107.36 5.92501C106.88 6.90501 106.65 7.61501 106.65 8.06501L109.15 9.50501C109.39 9.92501 109.51 10.405 109.51 10.945C108.93 11.425 108.45 11.655 108.07 11.655L105.57 10.215C104.85 11.435 104.5 12.155 104.5 12.365H103.06C102.58 12.365 102.35 12.125 102.35 11.655V10.945C102.83 10.465 103.42 8.91501 104.14 6.28501H103.07C101.31 6.28501 100.36 5.92501 100.21 5.21501L100.92 4.14501L100.91 4.12501ZM111.65 13.435H112.01C112.49 13.515 112.72 13.755 112.72 14.155C113.79 13.675 115.34 13.435 117.37 13.435C117.71 13.435 118.07 13.795 118.44 14.505L118.09 19.515C118.32 19.975 118.44 20.335 118.44 20.585L117.73 20.945C112.72 20.575 110.21 19.735 110.21 18.435V16.295C110.5 14.515 110.98 13.555 111.65 13.425V13.435ZM112.72 3.05501H113.79C114.51 3.29501 114.86 4.01501 114.86 5.20501H117.01L118.44 3.05501H118.8L120.24 4.12501L119.88 7.70501V8.05501L120.24 10.205C120.09 11.405 119.37 12.005 118.09 12.005H117.73L117.02 11.645L117.37 9.85501V7.34501L115.58 7.70501C115.58 7.46501 115.46 7.34501 115.22 7.34501C114.57 9.01501 114.09 9.85501 113.79 9.85501H112.72C112.24 9.85501 112.01 9.61501 112.01 9.13501V3.77501C112.08 3.29501 112.32 3.05501 112.72 3.05501ZM112.36 17.015V17.365C112.36 17.845 113.55 18.085 115.94 18.085L116.29 15.935V15.575H115.94C113.55 15.865 112.36 16.345 112.36 17.015Z"
              fill="#222222"/>
    </g>
    <defs>
        <clipPath id="clip0_3298_77166">
            <rect width="120.25" height="22.93" fill="white" transform="translate(0 0.535004)"/>
        </clipPath>
    </defs>
</svg>
