<svg width="119" height="24" viewBox="0 0 119 24" fill="none" xmlns="http://www.w3.org/2000/svg">
    <g clip-path="url(#clip0_3298_77157)">
        <path d="M0.72 0.330017C4.73 0.850017 6.73 1.16002 6.73 1.29002L7.21 1.05002H9.13C11.37 1.47002 12.5 3.31002 12.5 6.58002C12.19 7.31002 11.87 7.71002 11.54 7.78002H11.06C10.48 7.78002 10 6.34002 9.62 3.46002C9.3 3.46002 9.14 3.38002 9.14 3.21002L8.66 3.46002H8.42C8.26 3.46002 8.17 3.38002 8.17 3.21002C7.21 3.42002 6.73 3.66002 6.73 3.93002V6.82002C6.73 7.78002 6.25 8.26002 5.29 8.26002C4.65 7.68002 4.33 7.04002 4.33 6.34002V3.21002C1.44 2.89002 0 2.50002 0 2.02002V0.570017C0.17 0.570017 0.41 0.490017 0.72 0.330017ZM1.92 9.23002C2.76 9.39002 3.24 9.47002 3.36 9.47002C8.29 9.31002 11.66 9.23002 13.47 9.23002L14.19 10.19V10.91C14.19 11.14 13.95 11.38 13.47 11.63H8.9V12.35L9.14 14.04H10.58C11.86 14.04 12.5 14.76 12.5 16.2V17.64C12.5 19.57 10.42 20.53 6.25 20.53V21C8.07 21.32 9.35 21.48 10.09 21.48H11.54C11.77 21.48 12.01 21.72 12.26 22.2V22.45C11.76 23.41 10.8 23.89 9.37 23.89C6.58 23.89 4.65 22.69 3.6 20.28C4 19 4.81 18.35 6.01 18.35C8.65 18.19 10.1 17.71 10.34 16.91V16.19C6.71 16.35 4.47 16.44 3.6 16.44L2.88 15.47L3.13 14.27H5.78L6.98 14.03L6.73 13.55V11.87H4.57C2.33 11.87 1.2 11.31 1.2 10.18L1.92 9.22002V9.23002Z"
              fill="#222222"/>
        <path d="M21.25 1.56C22.37 1.84 22.93 2.56 22.93 3.72V3.96C22.93 4.99 22.69 5.79 22.21 6.36C22.21 6.57 23.41 7.77 25.81 9.96V10.68C25.74 11.01 25.34 11.33 24.61 11.64L21.49 9.24L21.25 9.72V11.4C20.93 11.4 20.77 11.56 20.77 11.88H19.33C19.01 11.88 18.86 11.72 18.86 11.4V10.2C18.86 9.12 19.34 7.12 20.3 4.2C18.42 4.36 17.06 4.45 16.21 4.45H15.74C15.42 4.45 15.26 4.29 15.26 3.97V2.77C15.26 2.49 17.26 2.09 21.26 1.57L21.25 1.56ZM30.61 16.2C31.49 16.2 32.13 17.88 32.53 21.24C32.31 22.04 31.75 22.45 30.85 22.45H30.37C30.1 21.4 29.86 20.11 29.65 18.6L27.73 19.08C27.45 18.92 27.13 18.84 26.76 18.84L26.29 19.08L25.81 18.84L24.61 19.08C23.65 19.08 23.18 18.52 23.18 17.4C23.18 17.17 23.42 16.93 23.9 16.68H26.54C27.98 16.68 29.34 16.52 30.62 16.2H30.61ZM31.58 2.03C32.62 2.03 33.34 3.15 33.74 5.4V7.08L33.49 7.56H33.97C33.97 7.72 33.89 7.8 33.73 7.8C34.05 9.04 34.29 10.56 34.45 12.36C34.2 12.36 33.88 12.52 33.48 12.84H32.76C32.16 12.84 31.68 11 31.32 7.31H28.45L27.01 7.56C26.05 7.23 25.57 6.91 25.57 6.59V5.88C25.57 5.35 26.85 5.02 29.41 4.91V5.16L29.89 4.91H30.6L31.08 5.16V4.91L30.84 2.51L31.56 2.03H31.58Z"
              fill="#222222"/>
        <path d="M38.87 1.55002H39.11C40.23 1.55002 40.79 2.67002 40.79 4.92002C40.95 4.92002 41.04 5.40002 41.04 6.36002H42.96C44.47 6.36002 45.59 6.68002 46.33 7.32002C46.33 8.44002 45.85 9.00002 44.89 9.00002H43.45C43.81 9.51002 44.13 10.31 44.41 11.41C44.23 13.65 43.19 14.78 41.29 14.78H40.81C39.53 14.78 38.41 13.9 37.45 12.13V10.45L37.69 9.25002H36.73L35.53 9.00002V8.28002C35.53 7.16002 36.57 6.60002 38.65 6.60002C38.33 4.84002 38.18 3.64002 38.18 3.00002C38.34 2.04002 38.58 1.56002 38.9 1.56002L38.87 1.55002ZM39.83 9.96002C39.67 10.27 39.59 10.51 39.59 10.68C39.91 11.55 40.39 12.11 41.03 12.36C41.51 12.2 41.75 12.04 41.75 11.89C41.63 10.61 40.99 9.97002 39.83 9.97002V9.96002ZM45.36 16.21H46.08C46.78 16.21 47.18 17.57 47.28 20.29C47.68 20.29 48.88 20.13 50.88 19.82C51.68 20.14 52.08 20.38 52.08 20.54C52.08 21.98 50.4 22.7 47.04 22.7H46.56C45.28 22.7 44.64 21.18 44.64 18.13V17.89C44.75 16.77 44.99 16.21 45.36 16.21ZM49.92 4.20002H50.64C51.28 4.20002 51.68 5.56002 51.84 8.28002L54 7.81002C55.12 7.97002 55.68 8.21002 55.68 8.53002V9.25002C55.68 9.99002 54.48 10.47 52.08 10.69C52.2 10.98 52.36 12.1 52.56 14.06C52.25 14.79 51.93 15.18 51.59 15.26H50.39C49.91 13.9 49.67 12.94 49.67 12.38H49.91C49.75 11.85 49.43 9.61002 48.95 5.66002C49.27 4.70002 49.59 4.22002 49.91 4.22002L49.92 4.20002Z"
              fill="#222222"/>
        <path d="M66.08 3.95001C68.8 4.92001 70.17 6.84001 70.17 9.72001V9.97001C70.17 12.21 69.05 13.34 66.8 13.34H66.08C63.2 12.86 61.76 10.93 61.76 7.57001V7.10001C61.76 5.82001 63.2 4.77001 66.08 3.97001V3.95001ZM64.16 7.08001V7.55001C64.16 9.44001 64.88 10.56 66.32 10.92H66.56C67.36 10.8 67.76 10.56 67.76 10.2V9.48001C67.44 7.56001 66.8 6.60001 65.84 6.60001L64.16 7.08001ZM75.94 3.95001C76.48 3.95001 77.04 7.40001 77.62 14.29C77.46 14.6 77.38 14.84 77.38 15.01H75.69C75.21 15.01 74.73 11.73 74.25 5.16001C74.25 4.62001 74.81 4.21001 75.94 3.96001V3.95001Z"
              fill="#222222"/>
        <path d="M84.65 4.17999H84.9C85.26 4.17999 85.58 4.25999 85.86 4.41999C86.02 4.41999 86.11 4.33999 86.11 4.17999L87.31 4.41999H90.92C92.36 4.41999 93.16 5.45999 93.33 7.54999C93.17 12.07 92.93 14.79 92.61 15.72H92.13C91.49 15.72 90.93 15.32 90.44 14.52C90.76 12.35 90.92 10.03 90.92 7.53999V6.81999L89.72 7.05999V6.81999C89.56 6.81999 89.48 6.89999 89.48 7.05999C89.31 7.05999 89.07 6.97999 88.76 6.81999C87.66 6.97999 86.78 7.05999 86.11 7.05999V6.81999L85.63 7.05999H84.91L84.43 6.81999C84.43 6.97999 84.35 7.05999 84.19 7.05999L83.71 5.85999C83.93 4.73999 84.25 4.17999 84.67 4.17999H84.65ZM98.36 4.41999H99.08C100.05 5.94999 100.53 9.63999 100.53 15.49L99.81 15.97H98.84C98.36 15.55 98.04 13.22 97.88 8.98999C97.88 8.48999 97.72 7.35999 97.4 5.61999C97.71 4.88999 98.03 4.48999 98.36 4.41999Z"
              fill="#222222"/>
        <path d="M102.54 0.100006C103.51 0.100006 103.99 1.14001 103.99 3.23001H106.39L107.59 2.99001V3.23001L108.06 2.99001H109.26C109.26 2.67001 109.34 2.51001 109.51 2.51001L109.26 2.03001L109.74 0.350006H111.18L111.66 3.00001C111.4 3.62001 111.16 5.22001 110.94 7.81001C110.94 8.93001 108.94 9.49001 104.93 9.49001C103.01 9.16001 102.05 7.72001 102.05 5.17001C101.73 3.00001 101.57 1.64001 101.57 1.08001C101.73 0.440006 102.05 0.110006 102.53 0.110006L102.54 0.100006ZM103.02 10.68L103.5 10.92H111.43C111.66 10.92 111.9 11.16 112.15 11.64V12.61C111.89 13.25 111.33 13.57 110.47 13.57H108.79L109.03 14.77V16.45C108.7 17.09 108.29 17.42 107.83 17.42C107.03 17.1 106.63 16.62 106.63 15.98C106.79 15.67 106.88 15.43 106.88 15.25C106.72 14.94 106.63 14.7 106.63 14.53H106.88C106.72 14.25 106.63 13.94 106.63 13.57H105.43C103.34 13.57 102.3 13.09 102.3 12.13C102.78 11.39 103.02 10.91 103.02 10.69V10.68ZM103.5 16.69H104.22C104.46 16.69 104.94 17.65 105.66 19.57C106.19 19.89 106.67 20.04 107.1 20.04H108.79L110.23 19.8C110.51 19.96 110.82 20.04 111.19 20.04V21.01C110.8 22.13 109.84 22.69 108.31 22.69C104.78 22.69 103.02 21.41 103.02 18.85C103.02 18.49 102.94 18.16 102.78 17.88C102.99 17.08 103.23 16.69 103.5 16.69ZM104.46 5.62001V6.59001L105.66 6.83001H108.54C108.86 6.83001 109.02 6.67001 109.02 6.35001V5.63001H106.86L105.42 5.88001C105.14 5.72001 104.82 5.63001 104.45 5.63001L104.46 5.62001Z"
              fill="#222222"/>
        <path d="M114.17 19.33H114.64C114.87 19.33 115.11 19.57 115.36 20.06V21.02C115.36 21.27 115.04 21.59 114.4 21.99H113.92C113.69 21.99 113.45 21.75 113.2 21.26V20.06C113.44 20.06 113.76 19.82 114.17 19.33Z"
              fill="#222222"/>
        <path d="M117.38 19.33H117.85C118.08 19.33 118.32 19.57 118.57 20.06V21.02C118.57 21.27 118.25 21.59 117.61 21.99H117.13C116.9 21.99 116.66 21.75 116.41 21.26V20.06C116.65 20.06 116.97 19.82 117.38 19.33Z"
              fill="#222222"/>
    </g>
    <defs>
        <clipPath id="clip0_3298_77157">
            <rect width="118.58" height="23.8" fill="white" transform="translate(0 0.100006)"/>
        </clipPath>
    </defs>
</svg>
