<svg width="135" height="22" viewBox="0 0 135 22" fill="none" xmlns="http://www.w3.org/2000/svg">
    <g clip-path="url(#clip0_3298_77380)">
        <path d="M15.19 7.44C14.57 7.17 14.31 7.44 14.22 7.61C14.14 7.75 14.05 8.07 14.07 9.13C14.07 9.94 14.01 10.12 14.02 10.12C14.02 10.12 13.83 10.21 12.98 10.25C12.54 10.27 12.31 10.28 12.19 10.27C12.17 10.14 12.15 9.87 12.11 9.35C12 7.64 11.82 7.24 11.65 7.08C11.47 6.9 11.26 6.79 11.01 6.75C10.75 6.7 10.52 6.75 10.34 6.89C10.15 7.03 10.04 7.29 10.01 7.68C9.97997 8 9.96997 9.07 9.96997 10.95V11.24C9.98997 13.05 10.01 14.09 10.04 14.42C10.08 14.82 10.25 15.1 10.53 15.25L10.63 15.28C10.78 15.36 10.88 15.4 10.96 15.41C10.98 15.41 11 15.41 11.01 15.41C11.11 15.41 11.23 15.38 11.42 15.31C11.77 15.19 11.98 15 12.07 14.76C12.11 14.63 12.17 14.35 12.17 13.37V13.03C12.17 12.57 12.19 12.38 12.21 12.31C12.25 12.3 12.35 12.29 12.55 12.3H12.74C13.26 12.3 13.65 12.27 13.94 12.2C14.04 12.17 14.1 12.16 14.15 12.16C14.16 12.28 14.18 12.55 14.18 13.14C14.18 14.07 14.22 14.34 14.25 14.47C14.3 14.7 14.43 14.9 14.66 15.08C14.88 15.23 15.25 15.35 15.75 15.08C16.02 14.95 16.18 14.71 16.22 14.4C16.25 14.15 16.27 13.49 16.27 12.38C16.25 10.68 16.18 9.53 16.04 8.85C15.89 8.11 15.61 7.65 15.19 7.45V7.44Z"
              fill="#222222"/>
        <path d="M7.52005 11.61C7.26005 11.52 6.85005 11.34 6.30005 11.08C5.59005 10.75 5.36005 10.6 5.29005 10.55C5.27005 10.53 5.24005 10.51 5.24005 10.48C5.24005 10.45 5.22005 10.33 5.20005 9.8C5.15004 8.85 4.91005 8.23 4.47005 7.93C4.31005 7.82 4.03005 7.76 3.56005 7.75C3.14005 7.74 2.78005 7.77 2.48005 7.84C2.11005 7.94 1.84005 8.01 1.69005 8.06C1.24005 8.18 1.10005 8.19 1.06005 8.19C0.610045 8.19 0.280045 8.39 0.100045 8.78C-0.0799546 9.17 4.54187e-05 9.55 0.320045 9.85C0.530045 10.04 0.840045 10.11 1.24005 10.12C1.60005 10.12 2.12005 10.01 2.84005 9.81C3.00005 9.77 3.11005 9.75 3.18005 9.74C3.13005 9.92 3.01005 10.28 2.75005 11.04C2.31005 12.34 2.23005 12.55 2.21005 12.58C1.95005 13.09 1.96005 13.59 2.26005 14.03C2.46005 14.32 2.71005 14.47 2.99005 14.47C3.16005 14.47 3.34005 14.41 3.53005 14.3C3.63005 14.23 3.77005 14.09 4.09005 13.49C4.31005 13.08 4.47005 12.74 4.57005 12.42C4.64005 12.46 4.73005 12.52 4.87005 12.62C5.63004 13.17 6.36005 13.5 7.02005 13.6C7.96005 13.75 8.32005 13.36 8.47005 13.02C8.62005 12.66 8.61005 12.37 8.44005 12.14C8.29005 11.94 8.00005 11.78 7.53005 11.63L7.52005 11.61Z"
              fill="#222222"/>
        <path d="M24.1 7.75C23.82 7.33 23.59 7.09 23.37 6.99C23.24 6.93 23.05 6.89 22.77 6.87C22.48 6.85 22.3 6.87 22.18 6.91C22.13 6.93 21.97 6.96 21.69 7.02C21.38 7.1 20.97 7.22 20.45 7.39C19.96 7.56 19.54 7.66 19.21 7.69C18.63 7.75 18.23 7.94 18.01 8.26C17.81 8.56 17.77 8.95 17.91 9.44C17.95 9.56 18.01 9.94 17.95 11.15C17.92 12.09 17.91 12.71 17.91 12.98C17.91 13.27 17.97 13.53 18.06 13.74C18.27 14.35 18.79 14.7 19.62 14.77C19.74 14.78 19.87 14.79 20.01 14.79C20.76 14.79 21.83 14.64 23.27 14.34C23.65 14.26 23.91 14.19 24.06 14.14C24.77 13.9 24.99 13.43 25.04 13.08C25.12 12.58 24.98 11.19 24.58 8.82C24.53 8.51 24.37 8.16 24.1 7.76V7.75ZM22.86 11.92C22.86 12.25 22.83 12.35 22.83 12.36C22.81 12.37 22.71 12.43 22.32 12.5C22.29 12.5 22.15 12.54 21.55 12.66C21.3 12.71 20.96 12.75 20.56 12.78C20.31 12.8 20.16 12.8 20.08 12.8C20.06 12.63 20.04 12.23 20.03 11.28C20.02 10.28 20.03 9.89 20.04 9.74C20.11 9.72 20.24 9.68 20.47 9.61C20.83 9.51 21.15 9.41 21.42 9.32C22.31 8.97 22.53 9 22.52 8.97C22.54 9 22.61 9.19 22.72 10.05C22.81 10.74 22.85 11.37 22.85 11.92H22.86Z"
              fill="#222222"/>
        <path d="M31.01 7.86C30.92 7.38 30.74 7.01 30.48 6.76C30.18 6.48 29.83 6.42 29.48 6.56C29.22 6.66 28.93 6.91 29.01 7.59C29.04 7.84 29.06 8.24 29.08 8.77C29.3 14.63 29.35 14.84 29.38 14.92C29.49 15.34 29.79 15.48 30.01 15.52C30.07 15.53 30.13 15.54 30.19 15.54C30.42 15.54 30.64 15.46 30.86 15.31C31.13 15.12 31.29 14.85 31.33 14.53C31.38 14.19 31.36 13.14 31.27 11.31C31.18 9.49 31.1 8.36 31.01 7.84V7.86Z"
              fill="#222222"/>
        <path d="M44.7 8.29C44.59 8.06 44.38 7.89 44.1 7.81C43.79 7.7 43.5 7.75 43.29 7.97C43.11 8.16 43.01 8.47 42.97 8.93V8.97C42.97 9.04 42.93 9.21 42.86 9.23C42.79 9.26 42.5 9.32 41.33 9.42C41.25 9.43 41.2 9.44 41.14 9.44C40.39 9.5 39.87 9.56 39.61 9.61C39.29 9.66 39.21 9.63 39.21 9.62C39.21 9.62 39.15 9.58 39.08 9.32C38.9 8.75 38.62 8.34 38.23 8.09C37.85 7.85 37.31 7.72 36.57 7.7C35.94 7.66 35.75 7.68 35.67 7.7C35.59 7.72 35.44 7.77 34.88 8.06C34.46 8.28 34.16 8.45 33.98 8.58C33.39 8.97 33.04 9.58 32.94 10.38C32.84 11.15 32.99 11.97 33.4 12.81C33.7 13.44 34.25 13.85 35.02 14.05C35.77 14.24 36.55 14.16 37.35 13.82C38.45 13.34 39.1 12.57 39.3 11.52C39.31 11.45 39.32 11.4 39.33 11.37C39.39 11.37 39.51 11.37 39.75 11.41C40.3 11.46 41.13 11.39 42.29 11.19C42.65 11.13 42.84 11.12 42.91 11.11C42.92 11.18 42.93 11.32 42.93 11.57C42.93 12.69 42.98 13.41 43.08 13.77C43.21 14.21 43.51 14.46 43.94 14.46C44.37 14.46 44.68 14.22 44.78 13.78C44.86 13.43 44.91 12.62 44.93 11.31C44.93 10.3 44.92 9.61 44.89 9.21C44.86 8.77 44.8 8.46 44.71 8.27L44.7 8.29ZM37.16 11.04C37.02 11.45 36.82 11.75 36.57 11.92C36.3 12.09 36.06 12.19 35.88 12.22C35.71 12.24 35.5 12.2 35.29 12.1C35.06 11.98 34.94 11.79 34.92 11.5C34.89 11.17 34.96 10.84 35.11 10.53C35.27 10.21 35.49 9.95 35.77 9.76C35.93 9.65 36.08 9.6 36.23 9.6C36.32 9.6 36.4 9.62 36.49 9.65C36.82 9.79 37.07 9.98 37.21 10.19C37.31 10.36 37.3 10.65 37.16 11.04Z"
              fill="#222222"/>
        <path d="M47.86 8.69C47.72 8.15 47.66 8 47.62 7.94C47.51 7.72 47.32 7.56 47.05 7.48C46.7 7.37 46.47 7.46 46.34 7.56C46.05 7.76 45.93 8.14 45.99 8.7C46.02 9.05 46.05 9.38 46.09 9.66C46.12 10.08 46.17 10.49 46.24 10.86C46.3 11.23 46.32 11.81 46.31 12.59C46.29 13.16 46.29 13.51 46.3 13.66C46.31 13.83 46.36 14 46.44 14.15C46.63 14.46 46.9 14.62 47.22 14.62C47.29 14.62 47.36 14.62 47.43 14.6C47.7 14.54 48.06 14.36 48.24 13.81C48.36 13.42 48.38 12.67 48.29 11.52C48.2 10.4 48.06 9.45 47.86 8.71V8.69Z"
              fill="#222222"/>
        <path d="M55.8 10.73C55.89 10.78 56.05 10.85 58.51 10.86C58.7 10.86 58.88 10.86 59.04 10.86C61 10.86 61.17 10.79 61.26 10.75C61.8 10.52 62.14 9.91 62.3 8.88C62.45 7.93 62.41 6.8 62.18 5.51C61.93 3.97 61.72 3.54 61.58 3.35C61.33 3.01 60.87 2.87 60.2 2.92C59.64 2.97 58.92 3.1 58.01 3.33C57.52 3.44 57.19 3.51 57.03 3.54C56.85 3.58 56.63 3.66 56.36 3.79C55.96 3.98 55.9 4.04 55.86 4.09C55.82 4.14 55.78 4.22 55.67 4.5C55.58 4.74 55.53 4.93 55.55 5.09C55.55 5.21 55.56 5.45 55.56 5.8C55.54 6.98 55.45 7.91 55.28 8.57C55.17 8.97 55.16 9.39 55.25 9.81C55.35 10.28 55.52 10.57 55.79 10.7L55.8 10.73ZM57.6 6.16C57.56 5.73 57.59 5.62 57.58 5.62C57.58 5.62 57.63 5.58 57.79 5.54C58.01 5.51 58.27 5.44 58.59 5.34C59.77 4.98 60.01 5.06 59.99 5.03C60.01 5.07 60.08 5.26 60.26 6.25C60.35 6.78 60.4 7.36 60.39 7.98C60.39 8.59 60.34 8.81 60.32 8.88C60.21 8.9 59.87 8.93 58.9 8.93C58.05 8.93 57.7 8.91 57.55 8.89C57.55 8.82 57.55 8.71 57.58 8.51C57.66 7.81 57.66 7.02 57.58 6.16H57.6Z"
              fill="#222222"/>
        <path d="M59.97 13.88C59.11 13.96 58.42 14.02 57.91 14.05C57.01 14.12 56.92 14.14 56.87 14.17C56.83 14.17 56.7 14.2 56.29 14.25C55.48 14.34 55.25 14.43 55.13 14.51C54.93 14.64 54.84 14.9 54.84 15.29C54.84 15.74 55.08 16.05 55.5 16.17C55.85 16.27 56.48 16.27 57.41 16.19C58.14 16.12 58.49 16.1 58.64 16.09C58.64 16.19 58.61 16.4 58.55 16.84C58.37 18.08 58.44 18.47 58.52 18.66C58.66 19.01 59.02 19.19 59.59 19.19C59.83 19.19 60 19.16 60.13 19.09C60.28 19.01 60.39 18.84 60.5 18.55C60.59 18.31 60.65 18.01 60.68 17.65C60.71 17.31 60.75 16.79 60.8 16.08C60.8 15.87 60.83 15.77 60.84 15.72C60.93 15.7 61.16 15.67 61.73 15.62C62.36 15.59 62.78 15.54 63 15.48C63.24 15.41 63.47 15.28 63.7 15.07C63.95 14.82 64.06 14.61 64.06 14.41C64.06 14.28 64 14.16 63.9 14.06C63.64 13.83 62.96 13.6 59.95 13.9L59.97 13.88Z"
              fill="#222222"/>
        <path d="M66.34 8.55C66.77 8.81 67.32 8.95 68 8.95C68.45 8.95 68.95 8.89 69.52 8.78C70.35 8.62 70.94 8.48 71.27 8.36C71.61 8.24 71.9 8.06 72.13 7.83C72.24 7.7 72.34 7.53 72.41 7.34C72.49 7.14 72.52 6.95 72.51 6.79C72.49 6.48 72.28 6.37 72.13 6.37C71.52 6.32 71.01 6.4 70.61 6.61C69.92 6.95 69.02 7.06 67.91 6.92C67.55 6.88 67.46 6.84 67.45 6.84C67.45 6.84 67.43 6.8 67.44 6.65C67.47 5.97 68.3 5.62 69.93 5.62C70.93 5.62 71.54 5.49 71.87 5.21C72.2 4.93 72.39 4.35 72.46 3.44C72.55 2.18 72.41 1.43 72.02 1.07C71.64 0.709999 70.85 0.619999 69.54 0.779999C69.06 0.849999 68.71 0.889999 68.48 0.929999C68.42 0.939999 68.34 0.959999 68.23 0.969999C68.11 0.989999 67.95 1.01 67.77 1.04C67.6 1.07 67.46 1.09 67.34 1.11C66.79 1.22 66.44 1.35 66.24 1.51C66.1 1.63 65.89 1.91 66.1 2.38C66.23 2.71 66.66 2.82 66.96 2.87C67.38 2.94 67.81 2.93 68.24 2.84C69.14 2.68 69.79 2.6 70.19 2.6C70.29 2.6 70.35 2.6 70.4 2.61C70.4 2.7 70.4 2.87 70.38 3.2C70.37 3.45 70.35 3.58 70.34 3.63C70.29 3.63 70.18 3.65 69.96 3.65C68.35 3.65 67 4.03 65.95 4.78C65.72 4.95 65.57 5.12 65.49 5.29C65.41 5.46 65.37 5.71 65.35 6.09C65.28 7.26 65.62 8.08 66.36 8.53L66.34 8.55Z"
              fill="#222222"/>
        <path d="M66.52 12.8C66.99 12.8 67.62 12.76 68.41 12.69C69.44 12.59 70.16 12.52 70.56 12.47C71.46 12.41 72.33 12.23 73.17 11.95C74.1 11.64 74.56 11.35 74.65 11C74.74 10.61 74.58 10.29 74.2 10.14C73.89 10.01 73.47 9.99 72.93 10.1C72.51 10.19 71.77 10.31 70.67 10.46C69.29 10.63 68.06 10.74 67.03 10.77C65.7 10.79 65.33 10.86 65.17 10.91C64.85 11.01 64.64 11.24 64.55 11.59C64.49 11.88 64.51 12.12 64.63 12.31C64.75 12.51 64.98 12.65 65.34 12.72C65.6 12.77 65.93 12.8 66.34 12.8C66.4 12.8 66.46 12.8 66.51 12.8H66.52Z"
              fill="#222222"/>
        <path d="M74.37 18.67C74.22 18.73 73.95 18.81 73.55 18.91C73.33 18.97 73.17 19 73.07 19.02C73.21 18.47 73.19 17.68 73.01 16.63C72.96 16.3 72.95 16.14 72.95 16.07C72.98 16.07 73.04 16.06 73.13 16.06C73.46 16.06 73.74 15.93 73.94 15.68C74.14 15.43 74.21 15.15 74.16 14.85C74.11 14.53 73.91 14.3 73.61 14.18C73.51 14.13 73.32 14.08 72.6 14.05C72.07 14.03 71.65 14.03 71.32 14.06C70.94 14.09 70.54 14.15 70.13 14.23C69.37 14.35 68.72 14.39 68.2 14.32C66.94 14.19 66.55 14.22 66.38 14.25C66.01 14.32 65.79 14.6 65.79 15.02C65.79 15.4 65.97 15.7 66.31 15.91C66.61 16.09 67.08 16.22 67.76 16.3C67.96 16.33 68.07 16.35 68.13 16.36C68.13 16.41 68.11 16.51 68.08 16.65C67.86 17.82 67.91 18.69 68.23 19.31C68.23 19.31 68.23 19.33 68.24 19.34C68.15 19.34 68.03 19.33 67.84 19.3C67.31 19.25 67.12 19.27 67.03 19.3C66.88 19.33 66.68 19.42 66.56 19.7C66.46 19.93 66.45 20.14 66.53 20.34C66.64 20.6 66.9 20.81 67.32 20.97C67.93 21.2 68.73 21.31 69.73 21.31C70.78 21.31 72.06 21.18 73.57 20.93C75.1 20.68 75.45 20.39 75.59 20.18C75.99 19.58 75.84 19.16 75.63 18.91C75.43 18.66 75.05 18.43 74.4 18.68L74.37 18.67ZM70.97 16.14C71 16.25 71.06 16.61 71.05 17.77C71.05 18.7 71 19.04 70.97 19.17C70.9 19.18 70.76 19.2 70.49 19.21C70.34 19.21 70.24 19.22 70.16 19.23C70.12 18.85 70.12 18.29 70.16 17.56C70.2 16.62 70.25 16.3 70.28 16.19C70.32 16.17 70.43 16.14 70.67 16.13C70.84 16.12 70.93 16.13 70.98 16.13L70.97 16.14Z"
              fill="#222222"/>
        <path d="M80.44 6.99C80.49 6.99 80.55 6.99 80.6 6.99C81.41 6.92 82.06 6.65 82.55 6.18C83.04 5.7 83.31 5.06 83.35 4.25C83.37 3.4 83.12 2.78 82.63 2.39C82.14 2.01 81.44 1.91 80.56 2.08C79.62 2.26 79 2.43 78.68 2.59C78.33 2.77 78.07 3.06 77.93 3.46C77.63 4.26 77.78 5.07 78.38 5.87C78.94 6.62 79.64 6.99 80.44 6.99ZM79.92 4.28C80.03 4.09 80.14 3.99 80.28 3.98C80.4 3.96 80.54 3.95 80.71 3.95C80.8 3.95 80.89 3.95 81 3.95C81.3 3.96 81.38 3.99 81.4 3.99C81.4 4 81.43 4.07 81.37 4.27C81.31 4.48 81.2 4.64 81.05 4.76C80.83 4.93 80.57 5 80.26 4.98C80 4.96 79.85 4.89 79.81 4.78C79.77 4.64 79.81 4.47 79.92 4.27V4.28Z"
              fill="#222222"/>
        <path d="M84.94 17.15C84.69 17.15 84.36 17.24 83.87 17.47C83.14 17.8 82.56 17.95 82.17 17.92C81.84 17.89 81.67 17.74 81.63 17.43C81.59 17.18 81.68 17.01 81.9 16.87C82.09 16.75 82.55 16.57 83.64 16.36C84.1 16.27 84.49 16.08 84.78 15.78C85.17 15.37 85.31 14.77 85.21 13.98C85.1 13.18 84.8 12.67 84.31 12.47C84.17 12.42 83.9 12.36 83.07 12.43C82.71 12.46 82.3 12.54 81.88 12.65C81.41 12.76 80.91 12.85 80.38 12.91C79.65 12.98 79.44 13.05 79.34 13.11C79.19 13.19 79.02 13.38 79.08 13.8C79.12 14.08 79.29 14.45 79.83 14.6C80 14.65 80.34 14.69 81.4 14.51C82.59 14.31 82.96 14.33 83.07 14.35C83.1 14.43 83.07 14.46 83.04 14.5C82.97 14.57 82.81 14.68 82.43 14.76C82.09 14.84 81.8 14.91 81.57 14.98C81.31 15.04 81.13 15.08 81.01 15.1C80.51 15.24 80.15 15.46 79.93 15.76C79.71 16.06 79.6 16.48 79.6 17.05C79.6 18.38 80.07 19.29 81.04 19.78C81.38 19.9 81.76 19.96 82.17 19.96C82.45 19.96 82.75 19.93 83.06 19.87C83.81 19.73 84.48 19.45 85.06 19.04C85.88 18.44 85.84 17.94 85.65 17.61C85.46 17.32 85.22 17.16 84.95 17.15H84.94Z"
              fill="#222222"/>
        <path d="M84.42 8.74C83.97 8.83 83.34 8.93 82.54 9.03C82.14 9.08 81.69 9.13 81.2 9.2C80.9 9.23 80.09 9.26 78.78 9.3H78.7C77.27 9.34 76.92 9.39 76.79 9.43C76.59 9.48 76.34 9.65 76.26 10.19C76.22 10.45 76.26 10.94 77 11.19C77.33 11.31 77.76 11.37 78.28 11.37C78.49 11.37 78.72 11.37 78.96 11.34C79.03 11.34 79.27 11.34 80.63 11.24C84.17 11.07 85.81 10.51 85.81 9.48C85.81 9.15 85.67 8.96 85.55 8.87C85.31 8.68 84.95 8.64 84.43 8.76L84.42 8.74Z"
              fill="#222222"/>
        <path d="M93.53 3.76C93.53 4.12 93.49 4.26 93.47 4.34C93.27 5.03 93.28 5.57 93.49 5.98C93.65 6.3 93.89 6.46 94.19 6.46C94.34 6.46 94.51 6.42 94.69 6.33C95.25 6.04 95.52 5.25 95.52 3.92C95.52 3.82 95.52 3.78 95.52 3.77C95.55 3.75 95.63 3.72 95.82 3.66C96.06 3.61 96.44 3.49 96.98 3.29C97.72 3.04 97.91 3.05 97.91 3.03C97.91 3.05 97.97 3.15 97.94 3.51C97.81 5.11 97.86 5.48 97.94 5.64C98.03 5.88 98.27 6.16 98.86 6.16C99.45 6.16 99.69 5.89 99.82 5.66C99.87 5.56 99.92 5.36 99.98 4.55C100.02 3.96 100.03 3.48 100.02 3.12C99.98 2.32 99.7 1.74 99.19 1.4C98.68 1.06 97.99 0.999999 97.14 1.21C96.62 1.34 95.97 1.53 95.2 1.79C94.97 1.87 94.9 1.86 94.9 1.86C94.9 1.86 94.81 1.85 94.54 1.73C93.92 1.45 93.05 1.42 91.97 1.64L91.33 1.76C91.12 1.8 90.99 1.82 90.92 1.83C90.71 1.86 90.43 1.99 90.29 2.39C90.18 2.7 90.23 3 90.43 3.24C90.6 3.46 91.01 3.66 92.71 3.48C93.33 3.43 93.5 3.45 93.5 3.43C93.5 3.45 93.54 3.53 93.54 3.76H93.53Z"
              fill="#222222"/>
        <path d="M98.71 11.53C98.71 11.05 98.73 10.86 98.74 10.78C98.79 10.76 98.93 10.71 99.25 10.64C100.1 10.46 100.69 10.25 101.05 10.02C101.62 9.64 101.56 9.2 101.46 8.95C101.38 8.77 101.19 8.55 100.76 8.5C100.49 8.47 100.06 8.52 99.45 8.64C98.48 8.86 97.1 8.95 95.36 8.9C93.6 8.85 93.55 8.88 93.46 8.94C93.24 9.1 93.11 9.34 93.08 9.66C93.05 9.98 93.12 10.24 93.29 10.43C93.44 10.62 93.68 10.75 93.99 10.81C94.26 10.86 94.76 10.89 95.52 10.91L96.56 10.95L96.58 11.73C96.62 12.37 96.68 12.78 96.8 13C96.87 13.13 97 13.29 97.24 13.37C97.01 13.42 96.73 13.46 96.41 13.48C95.83 13.52 95.47 13.61 95.28 13.77C95.14 13.89 94.95 14.16 95.22 14.67C95.36 14.93 95.53 15.1 95.72 15.19C95.9 15.27 96.18 15.3 96.58 15.28C98.65 15.16 98.79 15.08 98.87 15.03C98.94 14.99 99.02 14.98 99.1 14.98C99.12 14.98 99.14 14.98 99.15 14.98C99.17 15.05 99.15 15.1 99.13 15.13C99.1 15.17 99.05 15.23 98.89 15.26C98.26 15.37 97.64 15.53 97.05 15.74C96.22 16.03 95.99 16.23 95.9 16.37C95.66 16.71 95.55 17.22 95.58 17.93C95.61 18.61 95.74 19.21 95.98 19.7C96.3 20.33 96.8 20.71 97.44 20.83C97.59 20.86 97.75 20.87 97.93 20.87C98.46 20.87 99.09 20.74 99.84 20.47C101.13 20 101.68 19.39 101.49 18.64C101.42 18.37 101.29 18.19 101.09 18.09C100.83 17.97 100.49 18 100.07 18.21C99.42 18.5 98.87 18.67 98.43 18.72C98.07 18.76 97.85 18.7 97.78 18.54C97.7 18.38 97.68 18.19 97.72 17.95C97.77 17.7 97.83 17.63 97.87 17.62C98.58 17.34 99.2 17.13 99.73 17.01C100.33 16.87 100.76 16.62 101.01 16.28C101.26 15.94 101.37 15.44 101.33 14.81C101.28 13.93 101.04 13.37 100.6 13.1C100.18 12.84 99.5 12.82 98.53 13.04C98.49 13.04 98.45 13.06 98.41 13.07C98.44 13.03 98.47 12.98 98.49 12.93C98.64 12.64 98.71 12.19 98.71 11.53Z"
              fill="#222222"/>
        <path d="M107.78 10.18C107.87 10.01 107.97 9.73 108.07 9.37C108.2 8.92 108.23 8.73 108.24 8.61C108.32 8.6 108.51 8.58 108.95 8.57C109.47 8.57 109.99 8.55 110.5 8.5C110.93 8.44 111.29 8.41 111.54 8.41H111.7V9.36C111.7 10.33 111.78 10.63 111.84 10.77C111.92 10.96 112.13 11.2 112.65 11.2C113.03 11.2 113.51 11.04 113.7 10.25C113.83 9.72 113.84 8.79 113.74 7.42C113.66 6.35 113.49 5.59 113.23 5.1C112.86 4.4 112.32 4.35 111.93 4.43C111.7 4.47 111.59 4.72 111.52 4.89C111.44 5.11 111.42 5.35 111.46 5.56C111.52 6.1 111.52 6.32 111.52 6.39C111.47 6.41 111.35 6.43 111.11 6.46C110.88 6.48 110.48 6.52 109.89 6.58C109.43 6.64 108.98 6.68 108.56 6.7H108L107.83 6.3C107.37 5.25 106.69 4.7 105.78 4.67C104.92 4.63 104 5.12 103.07 6.08C102.51 6.67 102.16 7.35 102.03 8.09C101.9 8.84 102.02 9.54 102.37 10.17C102.72 10.8 103.27 11.26 103.99 11.54C104.2 11.63 104.44 11.67 104.7 11.67C105.1 11.67 105.55 11.57 106.08 11.37C106.95 11.04 107.5 10.65 107.76 10.17L107.78 10.18ZM104.61 7.5C105.02 6.93 105.21 6.76 105.29 6.71C105.31 6.7 105.34 6.68 105.41 6.68C105.46 6.68 105.53 6.69 105.62 6.74C105.95 6.91 106.14 7.19 106.21 7.6C106.28 8.04 106.19 8.52 105.94 9.05C105.93 9.08 105.84 9.2 105.45 9.47C105.04 9.74 104.92 9.75 104.92 9.75C104.69 9.75 104.48 9.65 104.29 9.44C104.09 9.23 104 9.01 104 8.75C104 8.57 104.11 8.21 104.62 7.5H104.61Z"
              fill="#222222"/>
        <path d="M114.23 14.45C113.79 14.4 113.32 14.27 112.8 14.03C112.67 13.98 112.48 13.92 112.24 13.84C111.96 13.75 111.9 13.69 111.89 13.69C111.89 13.69 111.85 13.63 111.85 13.43C111.85 12.99 111.74 12.63 111.52 12.35C111.26 12.03 110.93 11.94 110.6 12.1C110.11 12.35 109.84 12.93 109.77 13.87C109.75 14.36 109.71 14.58 109.68 14.68C109.57 14.65 109.34 14.57 108.86 14.33C108.19 14 108.07 13.9 108.06 13.89C108.06 13.89 108.01 13.81 108.01 13.5C108.01 13.08 107.88 12.74 107.61 12.51C107.32 12.25 106.97 12.23 106.66 12.46C106.49 12.59 106.2 12.92 105.6 14.3C105.14 15.34 104.92 16.03 104.92 16.4C104.92 17.13 105.32 17.54 106.06 17.54C106.34 17.54 106.6 17.37 106.84 17.03C107.05 16.74 107.23 16.34 107.38 15.85C107.38 15.83 107.39 15.81 107.39 15.8C107.46 15.83 107.57 15.89 107.75 16C108.1 16.2 108.47 16.35 108.83 16.45C109.09 16.54 109.22 16.59 109.29 16.62C109.26 16.78 109.29 17 109.57 17.22C109.79 17.4 110.07 17.5 110.43 17.52C110.73 17.52 110.98 17.39 111.16 17.15C111.31 16.94 111.46 16.55 111.63 15.91C111.64 15.85 111.66 15.81 111.67 15.77C111.71 15.79 111.77 15.81 111.85 15.86C112.22 16.04 112.61 16.19 113.03 16.29C113.46 16.39 113.81 16.43 114.11 16.39C114.47 16.33 114.74 16.16 114.92 15.88C115.1 15.59 115.13 15.29 115 15C114.91 14.8 114.7 14.54 114.22 14.46L114.23 14.45Z"
              fill="#222222"/>
        <path d="M134.13 10.54C134.01 10.45 133.76 10.35 132.97 10.38C132.42 10.4 131.91 10.48 131.41 10.63C131.41 10.63 131.39 10.64 131.31 10.66C131.21 10.69 131.15 10.7 131.11 10.7C131.09 10.6 131.05 10.35 131.01 9.76C131 9.63 130.99 9.53 130.99 9.44C130.84 7.15 130.67 6.68 130.51 6.49C130.38 6.36 130.17 6.3 129.88 6.3C129.61 6.3 129.4 6.34 129.24 6.43C129.06 6.54 128.94 6.7 128.87 6.89C128.83 7.01 128.78 7.26 128.81 8.23C128.83 8.93 128.86 9.54 128.91 10.02C128.97 10.69 129.05 11.93 129.15 13.73C129.22 14.8 129.31 15.12 129.38 15.27C129.47 15.48 129.69 15.72 130.24 15.72C130.79 15.72 131.01 15.47 131.1 15.26C131.16 15.11 131.23 14.79 131.19 13.78C131.17 12.97 131.19 12.79 131.21 12.76C131.21 12.75 131.25 12.7 131.38 12.66C131.48 12.63 131.7 12.58 132.2 12.53C132.58 12.49 132.72 12.49 132.77 12.49C132.91 12.56 133.11 12.55 133.47 12.46C133.83 12.37 134.03 12.28 134.14 12.18C134.39 11.97 134.52 11.69 134.52 11.34C134.52 10.99 134.4 10.72 134.16 10.52L134.13 10.54Z"
              fill="#222222"/>
        <path d="M124.01 12.08C123.66 11.82 123.02 11.89 122 12.31C121.44 12.55 121.03 12.73 120.73 12.83C120.44 12.93 120.16 13 119.91 13.02C119.61 13.05 119.48 13 119.44 12.98C119.4 12.95 119.31 12.88 119.2 12.63C119.1 12.41 119.04 12.16 119 11.88C118.96 11.58 118.92 11.16 118.89 10.62C118.83 9.67 118.84 9.48 118.83 9.48C118.83 9.48 118.85 9.48 118.91 9.48C119.1 9.48 119.44 9.46 119.94 9.4C120.19 9.35 120.58 9.3 121.1 9.23C121.92 9.13 122.48 8.97 122.83 8.73C123.21 8.48 123.41 8.08 123.41 7.56C123.41 7.3 123.33 7.11 123.16 7C123.03 6.92 122.83 6.87 122.5 6.85H122.48C121.94 6.85 121.9 6.87 121.84 6.9H121.81C121.74 6.94 121.44 7.01 120.23 7.19C119.82 7.25 119.4 7.35 118.99 7.46C118.63 7.55 118.35 7.57 118.16 7.53C117.59 7.42 117.15 7.52 116.85 7.83C116.62 8.06 116.44 8.47 116.82 9.09C116.86 9.14 116.87 9.19 116.87 9.24C116.87 9.33 116.85 9.57 116.82 9.94C116.75 10.68 116.78 11.42 116.91 12.14C117.03 12.88 117.25 13.47 117.53 13.89C118 14.63 118.68 15.03 119.54 15.09C119.6 15.09 119.67 15.09 119.73 15.09C120.52 15.09 121.5 14.81 122.65 14.27C123.09 14.06 123.36 13.94 123.44 13.9C123.58 13.88 123.71 13.76 123.91 13.51C124.1 13.27 124.2 13.09 124.23 12.9L124.25 12.82C124.3 12.4 124.13 12.18 123.99 12.07L124.01 12.08Z"
              fill="#222222"/>
    </g>
    <defs>
        <clipPath id="clip0_3298_77380">
            <rect width="134.49" height="20.6" fill="white" transform="translate(0 0.700001)"/>
        </clipPath>
    </defs>
</svg>
