<svg width="127" height="20" viewBox="0 0 127 20" fill="none" xmlns="http://www.w3.org/2000/svg">
    <g clip-path="url(#clip0_3298_77260)">
        <path d="M10.96 13.28C10.28 13.28 9.6 13.27 8.91 13.25C8.29 13.23 7.67 13.22 7.03 13.21C7.03 12.74 7.03 12.31 7.02 11.9C7.02 11.44 6.99 11.05 6.96 10.74C7.36 10.63 7.74 10.46 8.07 10.23C8.47 9.95 8.82 9.61 9.08 9.22C9.43 8.71 9.65 8.12 9.73 7.47C9.81 6.81 9.69 6.15 9.37 5.5C9.28 5.33 9.14 5.16 8.95 4.96C8.76 4.77 8.55 4.59 8.32 4.44C8.09 4.28 7.83 4.16 7.57 4.06C7.37 3.99 7.16 3.94 7 3.96C6.91 3.73 6.7 3.5 6.25 3.39H6.2H6.15C5.73 3.46 5.39 3.53 5.09 3.62C4.79 3.7 4.51 3.82 4.26 3.95C4.01 4.09 3.76 4.27 3.53 4.5C3.31 4.72 3.07 5.02 2.82 5.37C2.44 5.91 2.26 6.49 2.26 7.11C2.26 7.71 2.41 8.29 2.68 8.83C2.92 9.33 3.27 9.76 3.72 10.13C4.11 10.45 4.54 10.67 5 10.79V10.81C5.03 11.13 5.05 11.4 5.07 11.62C5.09 11.84 5.1 12.03 5.11 12.22C5.11 12.4 5.11 12.59 5.11 12.78V13.24C4.42 13.24 3.73 13.27 3.05 13.31C2.29 13.36 1.55 13.45 0.840002 13.59C0.550002 13.66 0.330002 13.79 0.190002 13.99C0.0400024 14.19 -0.0299976 14.41 -0.0199976 14.63C-0.0199976 14.86 0.0800024 15.07 0.250002 15.24C0.420002 15.41 0.660002 15.5 1 15.5C1 15.5 1.01 15.5 1.02 15.5C1.77 15.37 2.56 15.28 3.37 15.23C4.19 15.18 5.03 15.16 5.87 15.17C6.72 15.17 7.57 15.19 8.4 15.22C9.24 15.25 10.06 15.26 10.82 15.26C11.12 15.24 11.37 15.14 11.55 14.95C11.72 14.77 11.82 14.56 11.84 14.34C11.86 14.11 11.79 13.9 11.65 13.7C11.5 13.5 11.27 13.37 10.93 13.32L10.96 13.28ZM6.35 8.96C5.87 9 5.39 8.87 4.95 8.6C4.71 8.45 4.53 8.26 4.41 8.03C4.29 7.79 4.22 7.53 4.21 7.27C4.2 7.01 4.25 6.75 4.35 6.5C4.46 6.25 4.61 6.02 4.81 5.84C4.94 5.72 5.07 5.62 5.17 5.56C5.27 5.5 5.37 5.45 5.46 5.43C5.55 5.4 5.66 5.39 5.77 5.38C5.86 5.38 5.96 5.37 6.07 5.36C6.15 5.5 6.27 5.61 6.43 5.66C6.57 5.71 6.74 5.77 6.94 5.85C7.18 6.03 7.39 6.19 7.58 6.36C7.73 6.49 7.82 6.67 7.86 6.91C7.93 7.41 7.81 7.86 7.48 8.3C7.19 8.73 6.82 8.96 6.36 8.99L6.35 8.96Z"
              fill="#222222"/>
        <path d="M15.67 2.79C15.74 3.09 15.8 3.4 15.86 3.71C15.91 4.02 15.96 4.33 16 4.63C16.04 4.94 16.09 5.23 16.14 5.47C16.23 5.83 16.37 6.1 16.56 6.28C16.81 6.56 17.22 6.75 17.78 6.82C18.15 6.87 18.54 6.89 18.94 6.89C19.1 6.89 19.27 6.89 19.43 6.88C19.72 6.87 20.05 6.83 20.43 6.78C20.81 6.73 21.18 6.66 21.55 6.59C21.91 6.52 22.25 6.44 22.56 6.36C22.89 6.27 23.13 6.19 23.29 6.1C23.52 5.98 23.66 5.8 23.71 5.56C23.75 5.34 23.71 5.14 23.6 4.95C23.49 4.76 23.32 4.62 23.09 4.53C22.86 4.44 22.59 4.45 22.28 4.57C22.21 4.59 22.09 4.62 21.92 4.65L21.32 4.76C21.11 4.8 20.91 4.84 20.71 4.87C20.52 4.9 20.38 4.93 20.28 4.94C20.14 4.97 19.94 4.99 19.69 5.01C19.43 5.03 19.16 5.04 18.89 5.05C18.62 5.05 18.39 5.05 18.17 5.05C18.08 5.05 18.02 5.04 17.98 5.03L17.93 4.58C17.89 4.31 17.84 4.02 17.78 3.71C17.72 3.4 17.65 3.09 17.58 2.78C17.5 2.47 17.42 2.17 17.32 1.88C17.22 1.58 17.12 1.33 17.01 1.09C16.86 0.78 16.65 0.6 16.4 0.53C16.16 0.47 15.93 0.5 15.72 0.62C15.52 0.74 15.38 0.93 15.3 1.18C15.22 1.44 15.26 1.73 15.42 2C15.52 2.25 15.61 2.53 15.68 2.82L15.67 2.79Z"
              fill="#222222"/>
        <path d="M23.48 17.48C23.32 17.39 23.07 17.32 22.73 17.45C22.36 17.58 22 17.71 21.66 17.84C21.34 17.96 21 18.04 20.67 18.07C20.24 18.09 19.94 18.02 19.77 17.88C19.67 17.8 19.58 17.69 19.52 17.57C19.44 17.42 19.38 17.25 19.31 17.05C19.26 16.91 19.21 16.76 19.17 16.61C19.15 16.55 19.13 16.49 19.12 16.44C19.35 16.43 19.57 16.42 19.78 16.4C20.09 16.38 20.4 16.36 20.73 16.33C21.06 16.3 21.4 16.28 21.78 16.25C22.15 16.22 22.58 16.19 23.02 16.15C23.29 16.15 23.51 16.04 23.66 15.82C23.77 15.66 23.83 15.48 23.85 15.29C23.91 15.21 23.93 15.11 23.93 15.01L24.01 12.18C24.01 11.85 23.95 11.55 23.83 11.27C23.68 10.92 23.37 10.76 22.95 10.81C22.54 10.85 22.14 10.92 21.74 11C21.35 11.09 20.97 11.17 20.58 11.25C20.2 11.33 19.81 11.4 19.42 11.47C19.04 11.53 18.64 11.57 18.25 11.59C17.99 11.59 17.73 11.59 17.48 11.57C17.22 11.56 16.94 11.55 16.68 11.55C16.28 11.5 16.06 11.67 15.95 11.82C15.8 12.01 15.74 12.23 15.76 12.46C15.78 12.68 15.86 12.89 16 13.08C16.16 13.3 16.39 13.43 16.68 13.44L17.63 13.48C17.96 13.49 18.29 13.49 18.61 13.48C19.26 13.44 19.9 13.35 20.53 13.23C21.04 13.12 21.56 13.02 22.07 12.92L22.1 14.29C21.73 14.32 21.39 14.34 21.07 14.36L19.96 14.42C19.6 14.44 19.22 14.46 18.82 14.48L17.45 14.55C17.21 14.57 17 14.68 16.85 14.86C16.72 15.03 16.63 15.21 16.6 15.42C16.57 15.63 16.59 15.83 16.67 16.01C16.74 16.19 16.87 16.32 17.05 16.4C17.17 16.66 17.26 16.94 17.33 17.24C17.41 17.6 17.51 17.93 17.62 18.27C17.8 18.65 18.03 18.97 18.32 19.21C18.78 19.62 19.34 19.85 19.98 19.89C20.12 19.9 20.27 19.91 20.41 19.91C20.87 19.91 21.34 19.84 21.82 19.71C22.42 19.54 23 19.35 23.52 19.13C23.85 18.99 23.96 18.75 24 18.58C24.04 18.36 24.02 18.14 23.92 17.94C23.82 17.74 23.67 17.58 23.46 17.47L23.48 17.48Z"
              fill="#222222"/>
        <path d="M26.35 7.39C26.13 7.22 25.83 7.18001 25.47 7.27001C25.09 7.37001 24.63 7.48 24.09 7.57C23.55 7.67 22.97 7.77001 22.37 7.86001C21.77 7.95001 21.16 8.04 20.55 8.11C19.94 8.18 19.38 8.24 18.87 8.28C18.3 8.31 17.79 8.33001 17.33 8.34001C16.88 8.35001 16.49 8.34001 16.13 8.30001C15.78 8.26001 15.46 8.20001 15.17 8.10001C14.88 8.01001 14.6 7.87 14.36 7.72C14.17 7.55 13.93 7.48001 13.68 7.54001C13.47 7.59001 13.28 7.70001 13.13 7.86001C12.97 8.03001 12.88 8.24 12.86 8.48C12.84 8.74 12.94 8.98 13.15 9.19L13.17 9.21001C13.51 9.49001 13.92 9.72001 14.39 9.88001C14.85 10.03 15.34 10.14 15.86 10.21C16.33 10.27 16.83 10.3 17.35 10.3C17.4 10.3 17.46 10.3 17.51 10.3C18.08 10.3 18.65 10.26 19.23 10.21L21.11 9.95C21.69 9.87 22.24 9.79 22.77 9.7C23.3 9.61 23.83 9.52001 24.35 9.43001C24.88 9.34001 25.43 9.24001 26.02 9.13001C26.4 9.06001 26.59 8.85001 26.67 8.67001C26.78 8.44001 26.81 8.2 26.75 7.97C26.69 7.73 26.55 7.54001 26.35 7.38001V7.39Z"
              fill="#222222"/>
        <path d="M41.11 12.67C41.1 11.71 41.09 10.76 41.08 9.82C41.08 8.88 41.06 8.06 41.03 7.37C41.02 6.74 40.98 6.14 40.91 5.58C40.84 5.02 40.71 4.49 40.53 4.01C40.35 3.53 40.09 3.08 39.76 2.67C39.43 2.27 39 1.9 38.48 1.57C38.11 1.36 37.8 1.3 37.53 1.38C37.26 1.46 37.07 1.64 36.98 1.88C36.89 2.11 36.89 2.35 36.96 2.61C37.04 2.88 37.22 3.1 37.48 3.24C37.82 3.44 38.09 3.7 38.28 4.01C38.48 4.33 38.63 4.68 38.73 5.05C38.83 5.42 38.9 5.84 38.94 6.24C38.98 6.66 39.01 7.05 39.04 7.42C39.08 8.09 39.11 8.89 39.13 9.81C39.15 10.74 39.17 11.7 39.2 12.68C39.23 13.66 39.25 14.6 39.27 15.49C39.29 16.38 39.32 17.12 39.36 17.72C39.4 18.08 39.6 18.27 39.75 18.36C39.92 18.47 40.11 18.52 40.3 18.52C40.32 18.52 40.35 18.52 40.38 18.52C40.59 18.5 40.79 18.42 40.96 18.27C41.15 18.1 41.25 17.87 41.23 17.59C41.19 17.03 41.16 16.3 41.15 15.42L41.11 12.66V12.67Z"
              fill="#222222"/>
        <path d="M38.04 12.86C37.83 12.7 37.56 12.66 37.2 12.73C37.02 12.79 36.8 12.83 36.55 12.86C36.29 12.89 36.02 12.91 35.74 12.92L34.91 12.96C34.64 12.97 34.39 12.99 34.17 13C33.63 13.05 33.17 13.11 32.78 13.16C32.4 13.21 32.03 13.25 31.69 13.28C31.35 13.31 30.98 13.31 30.62 13.3C30.26 13.29 29.82 13.23 29.34 13.13C28.94 13.04 28.72 13.17 28.6 13.29C28.45 13.45 28.37 13.65 28.36 13.88C28.36 14.09 28.39 14.3 28.48 14.49C28.6 14.76 28.79 14.87 28.94 14.92C29.16 15.05 29.42 15.14 29.72 15.19C30.01 15.24 30.28 15.26 30.52 15.26C30.68 15.26 30.84 15.26 30.98 15.26C31.21 15.26 31.41 15.26 31.59 15.24C31.88 15.22 32.16 15.19 32.42 15.16C32.68 15.13 32.96 15.09 33.25 15.04C33.53 14.99 33.89 14.94 34.31 14.89C34.55 14.86 34.81 14.84 35.09 14.82C35.37 14.8 35.66 14.78 35.96 14.77C36.26 14.76 36.56 14.74 36.86 14.71C37.17 14.68 37.44 14.64 37.68 14.58C37.99 14.49 38.21 14.33 38.33 14.09C38.44 13.86 38.47 13.63 38.42 13.41C38.37 13.19 38.24 13 38.04 12.85V12.86Z"
              fill="#222222"/>
        <path d="M30.7 10.79C31.01 10.92 31.38 10.99 31.8 10.99C32.22 10.99 32.68 10.92 33.19 10.79C33.91 10.63 34.42 10.29 34.69 9.79001C34.95 9.31001 35.06 8.78001 35 8.21001C34.94 7.66001 34.76 7.13001 34.46 6.62001C34.15 6.10001 33.77 5.72001 33.36 5.49001C33.13 5.32001 32.93 5.22001 32.74 5.16001C32.3 5.03001 31.75 5.05001 31.32 5.30001C31.09 5.44001 30.86 5.62001 30.62 5.84001C30.04 6.39001 29.65 7.00001 29.44 7.67001C29.23 8.35001 29.23 8.97 29.42 9.52C29.62 10.09 30.05 10.51 30.69 10.79H30.7ZM31.17 8.37001C31.22 8.18001 31.32 7.97001 31.46 7.77001C31.61 7.55001 31.77 7.35001 31.91 7.19001C31.96 7.14001 32.01 7.10001 32.06 7.07001C32.06 7.07001 32.08 7.06001 32.09 7.05001C32.14 7.09001 32.2 7.12001 32.25 7.16001C32.33 7.21001 32.41 7.28001 32.49 7.38001C32.66 7.56001 32.83 7.79001 32.99 8.04001C33.13 8.26001 33.19 8.45001 33.17 8.59001C33.14 8.69001 33.09 8.77001 32.99 8.83001C32.86 8.91001 32.71 8.98001 32.54 9.02C32.36 9.06 32.17 9.09001 31.99 9.09001C31.81 9.09001 31.66 9.09001 31.56 9.07001C31.41 9.03001 31.22 8.96001 31.17 8.83001C31.12 8.69001 31.12 8.54001 31.17 8.37001Z"
              fill="#222222"/>
        <path d="M53.87 2.82L56.82 2.59L56.85 2.65C56.92 3.02 56.96 3.49 56.97 4.04C56.97 4.63 56.95 5.26 56.88 5.92C56.83 6.32 56.98 6.55 57.11 6.66C57.28 6.81 57.49 6.9 57.72 6.9C57.73 6.9 57.75 6.9 57.76 6.9C57.97 6.9 58.16 6.84 58.35 6.73C58.57 6.6 58.7 6.39 58.74 6.13C58.79 5.69 58.83 5.23 58.86 4.77C58.89 4.31 58.89 3.85 58.86 3.41C58.83 2.97 58.77 2.54 58.68 2.13C58.59 1.72 58.46 1.34 58.27 0.960003C58.16 0.820003 58.06 0.730003 57.94 0.670003C57.86 0.630003 57.74 0.590003 57.57 0.550003H57.5C57.38 0.550003 57.25 0.570003 57.11 0.620003C57.01 0.660003 56.9 0.690003 56.83 0.710003L53.9 0.910003C53.58 0.950003 53.35 1.08 53.2 1.3C53.07 1.5 53 1.72 53 1.94C53 2.16 53.07 2.38 53.21 2.56C53.32 2.7 53.53 2.86 53.87 2.81V2.82Z"
              fill="#222222"/>
        <path d="M59.9 7.46C58.95 7.53 58.03 7.58 57.13 7.63C56.23 7.68 55.33 7.73 54.45 7.79C53.56 7.85 52.68 7.92 51.8 7.99C50.92 8.06 50.01 8.16 49.09 8.28C48.72 8.33 48.54 8.51 48.46 8.66C48.34 8.86 48.3 9.07 48.34 9.3C48.38 9.53 48.5 9.73 48.7 9.89C48.91 10.06 49.18 10.13 49.51 10.1C50.31 10.03 51.09 9.96 51.84 9.88C52.51 9.81 53.17 9.75 53.82 9.7L53.94 11.11V11.48C53.78 11.51 53.62 11.53 53.46 11.55C53.01 11.61 52.47 11.6 51.99 11.58C51.74 11.57 51.45 11.56 51.18 11.56C50.77 11.51 50.57 11.68 50.46 11.83C50.33 12.02 50.27 12.23 50.27 12.45C50.27 12.67 50.35 12.89 50.5 13.08C50.66 13.3 50.89 13.43 51.18 13.45L52.15 13.49C52.48 13.5 52.81 13.5 53.13 13.49C53.78 13.45 54.42 13.36 55.05 13.24C55.56 13.13 56.07 13.03 56.58 12.93L56.61 14.3C56.24 14.33 55.89 14.35 55.58 14.37L54.47 14.43C54.11 14.45 53.73 14.47 53.33 14.49L51.96 14.56C51.73 14.58 51.53 14.69 51.39 14.87C51.26 15.04 51.17 15.22 51.14 15.43C51.11 15.64 51.13 15.84 51.21 16.03C51.28 16.21 51.41 16.34 51.59 16.41C51.7 16.67 51.79 16.95 51.85 17.25C51.93 17.61 52.04 17.95 52.17 18.28C52.36 18.69 52.59 19 52.85 19.22C53.31 19.63 53.87 19.86 54.52 19.9C54.66 19.91 54.81 19.92 54.96 19.92C55.42 19.92 55.9 19.85 56.38 19.72C56.98 19.55 57.56 19.36 58.08 19.14C58.41 19 58.52 18.76 58.56 18.59C58.6 18.37 58.57 18.15 58.47 17.95C58.37 17.75 58.21 17.6 58.01 17.49C57.78 17.37 57.53 17.36 57.27 17.46C56.89 17.59 56.54 17.72 56.2 17.85C55.88 17.97 55.54 18.05 55.21 18.08C54.67 18.1 54.44 17.99 54.33 17.89C54.22 17.81 54.13 17.7 54.07 17.57C53.99 17.42 53.92 17.25 53.85 17.06C53.8 16.92 53.76 16.78 53.72 16.62C53.71 16.56 53.69 16.5 53.67 16.44C53.91 16.43 54.13 16.42 54.34 16.4C54.66 16.38 54.98 16.36 55.3 16.33C55.63 16.3 55.97 16.28 56.33 16.25C56.69 16.22 57.11 16.19 57.55 16.15C57.91 16.15 58.1 15.97 58.2 15.81C58.3 15.65 58.36 15.47 58.38 15.29C58.43 15.21 58.46 15.11 58.46 15.01L58.54 12.18C58.54 11.85 58.48 11.55 58.36 11.27C58.21 10.92 57.89 10.75 57.48 10.81C57.17 10.85 56.86 10.9 56.57 10.95L56 11.05C56 10.79 55.99 10.52 55.95 10.26L55.85 9.53C56.48 9.49 57.13 9.45 57.79 9.41C58.53 9.36 59.31 9.31 60.09 9.27C60.37 9.27 60.59 9.16 60.75 8.96C60.89 8.77 60.96 8.56 60.95 8.33C60.95 8.1 60.86 7.89 60.7 7.71C60.53 7.52 60.28 7.43 59.96 7.45L59.9 7.46Z"
              fill="#222222"/>
        <path d="M51.08 3.69L51.1 3.72C51.2 4.08 51.24 4.54 51.21 5.1C51.2 5.4 51.19 5.67 51.18 5.92C51.18 6.16 51.16 6.39 51.13 6.6C51.08 6.99 51.23 7.21 51.36 7.33C51.53 7.48 51.73 7.56 51.97 7.57C51.98 7.57 52 7.57 52.01 7.57C52.22 7.57 52.41 7.51 52.59 7.4C52.81 7.27 52.94 7.06 52.98 6.8C53.1 5.89 53.13 5.04 53.07 4.26C53.01 3.46 52.8 2.72 52.45 2.05L52.41 2C52.23 1.8 52 1.67 51.69 1.62C51.58 1.62 51.45 1.64 51.3 1.68C51.18 1.71 51.07 1.74 51.01 1.76L48.72 1.96C48.39 1.99 48.15 2.13 48 2.35C47.86 2.55 47.8 2.77 47.81 3C47.81 3.23 47.9 3.44 48.05 3.61C48.22 3.81 48.45 3.89 48.72 3.86L51.08 3.69Z"
              fill="#222222"/>
        <path d="M74.86 16.66C74.67 16.6 74.39 16.58 74.07 16.83C73.67 17.14 73.19 17.37 72.63 17.51C72.08 17.65 71.52 17.68 70.98 17.6C70.58 17.53 70.19 17.42 69.82 17.27C69.47 17.13 69.16 16.9 68.91 16.61C68.76 16.42 68.62 16.22 68.5 16.02C68.37 15.8 68.24 15.59 68.1 15.38C67.96 15.16 67.8 14.95 67.62 14.77C67.44 14.58 67.22 14.4 66.97 14.23C66.62 14.03 66.33 14.07 66.16 14.15C65.92 14.24 65.74 14.39 65.62 14.59C65.5 14.79 65.45 15.02 65.48 15.27C65.51 15.46 65.61 15.72 65.94 15.92C66.08 16 66.21 16.11 66.32 16.26C66.45 16.42 66.58 16.59 66.7 16.78L67.08 17.36C67.22 17.57 67.36 17.75 67.52 17.91C67.93 18.33 68.37 18.66 68.82 18.89C69.27 19.13 69.74 19.29 70.24 19.38C70.56 19.44 70.9 19.46 71.23 19.46C71.4 19.46 71.56 19.46 71.73 19.44C72.23 19.4 72.75 19.32 73.27 19.2C73.6 19.13 73.94 19.03 74.26 18.92C74.6 18.8 74.91 18.65 75.2 18.46C75.54 18.24 75.62 17.96 75.62 17.76C75.62 17.5 75.56 17.27 75.41 17.07C75.27 16.88 75.07 16.74 74.83 16.66H74.86Z"
              fill="#222222"/>
        <path d="M76.36 7.62C75.49 7.63 74.58 7.7 73.65 7.82V6.07C73.65 5.41 73.61 4.75 73.52 4.13C73.43 3.49 73.26 2.86 73.02 2.26C72.78 1.65 72.42 1.05 71.94 0.44C71.47 -0.0299999 70.93 0.0100001 70.58 0.34C70.41 0.5 70.31 0.7 70.27 0.95C70.23 1.2 70.3 1.45 70.48 1.68C70.87 2.18 71.17 2.69 71.36 3.19C71.55 3.7 71.68 4.23 71.74 4.77C71.8 5.31 71.82 5.88 71.81 6.46C71.8 7.05 71.79 7.65 71.79 8.28C71.8 8.63 71.83 9.1 71.86 9.68C71.89 10.27 71.93 10.87 71.97 11.5C72.01 12.13 72.05 12.72 72.09 13.27C72.13 13.83 72.16 14.24 72.19 14.52C72.21 14.88 72.4 15.06 72.56 15.14C72.71 15.22 72.86 15.26 73.03 15.26C73.08 15.26 73.14 15.26 73.19 15.25C73.41 15.21 73.6 15.11 73.77 14.95C73.95 14.77 74.03 14.54 74.01 14.22C74 14.17 73.99 14.07 73.98 13.9C73.97 13.71 73.95 13.44 73.93 13.07L73.85 11.64C73.82 11.11 73.79 10.47 73.75 9.73C74.15 9.68 74.56 9.64 74.95 9.62C75.42 9.59 75.89 9.57 76.33 9.56C76.75 9.59 76.98 9.41 77.1 9.25C77.26 9.05 77.33 8.83 77.33 8.59C77.33 8.35 77.25 8.12 77.1 7.93C76.98 7.78 76.75 7.61 76.36 7.62Z"
              fill="#222222"/>
        <path d="M65.75 12.3C66.01 12.27 66.34 12.21 66.73 12.11C67.11 12.02 67.5 11.91 67.89 11.79C68.28 11.67 68.64 11.55 68.97 11.43C69.3 11.31 69.55 11.21 69.71 11.15C69.95 11.05 70.1 10.86 70.15 10.61C70.19 10.39 70.18 10.18 70.1 9.98C70.02 9.77 69.88 9.6 69.68 9.47C69.53 9.37 69.27 9.28 68.9 9.42C68.74 9.49 68.48 9.58 68.13 9.72C67.77 9.85 67.4 9.98 67 10.1C66.61 10.22 66.24 10.31 65.89 10.37C65.57 10.43 65.4 10.42 65.31 10.4C65.31 10.38 65.29 10.35 65.27 10.29C65.23 10.14 65.19 9.98 65.17 9.8C65.14 9.61 65.12 9.43 65.1 9.26C65.08 9.1 65.07 9.01 65.07 8.93C64.99 8.41 64.94 7.85 64.91 7.26C64.89 6.75 64.82 6.25 64.71 5.76C64.93 5.74 65.16 5.72 65.41 5.7C65.78 5.66 66.14 5.62 66.5 5.57C66.86 5.52 67.19 5.47 67.49 5.42C67.81 5.36 68.05 5.3 68.24 5.22C68.45 5.12 68.6 4.95 68.67 4.72C68.73 4.52 68.74 4.32 68.69 4.12C68.65 3.91 68.54 3.73 68.39 3.58C68.26 3.46 68.04 3.34 67.7 3.41C67.46 3.46 67.16 3.51 66.77 3.57C66.38 3.62 65.97 3.68 65.53 3.73C65.1 3.78 64.68 3.83 64.26 3.86C63.84 3.89 63.49 3.92 63.17 3.93C62.96 3.96 62.79 4.04 62.66 4.16C62.53 4.28 62.43 4.41 62.38 4.56C62.32 4.72 62.31 4.88 62.35 5.05C62.38 5.19 62.44 5.32 62.52 5.43C62.52 5.47 62.55 5.53 62.57 5.6C62.82 6.1 62.97 6.66 63 7.25L63.12 9.16C63.15 9.6 63.2 10.01 63.27 10.38C63.35 10.77 63.48 11.12 63.66 11.42C63.85 11.73 64.11 11.97 64.44 12.13C64.71 12.26 65.06 12.33 65.48 12.33C65.56 12.33 65.64 12.33 65.72 12.33L65.75 12.3Z"
              fill="#222222"/>
        <path d="M90.22 12.52C90.17 11.5 90.11 10.49 90.04 9.46C89.97 8.44 89.86 7.41 89.71 6.39C89.66 6.01 89.58 5.56 89.49 5.01C89.4 4.47 89.27 3.91 89.1 3.35C88.93 2.79 88.71 2.26 88.45 1.79C88.17 1.3 87.82 0.920001 87.42 0.680001C87.18 0.510001 86.92 0.400001 86.65 0.350001C86.41 0.300001 86.19 0.260001 85.94 0.200001C85.67 0.180001 85.44 0.240001 85.25 0.380001C85.06 0.510001 84.94 0.680001 84.88 0.890001C84.83 1.08 84.84 1.29 84.9 1.5C84.97 1.72 85.12 1.91 85.35 2.05L85.41 2.08C85.61 2.14 85.81 2.18 86 2.2C86.13 2.21 86.24 2.26 86.35 2.35C86.58 2.51 86.78 2.77 86.95 3.11C87.13 3.48 87.28 3.88 87.39 4.31C87.51 4.74 87.6 5.18 87.67 5.61C87.74 6.05 87.8 6.41 87.84 6.68C87.99 7.69 88.09 8.71 88.16 9.7C88.23 10.71 88.28 11.72 88.32 12.72L88.44 15.76C88.48 16.78 88.55 17.81 88.67 18.85C88.72 19.1 88.87 19.31 89.1 19.43C89.28 19.53 89.46 19.58 89.67 19.58C89.71 19.58 89.75 19.58 89.79 19.58C90.01 19.53 90.2 19.42 90.36 19.24C90.53 19.05 90.6 18.83 90.56 18.61C90.45 17.61 90.38 16.59 90.34 15.58C90.3 14.56 90.26 13.54 90.21 12.53L90.22 12.52Z"
              fill="#222222"/>
        <path d="M85.81 12.68C85.55 12.39 85.27 12.12 84.97 11.86C84.67 11.6 84.34 11.37 84 11.17C83.73 11.01 83.44 10.89 83.15 10.81C83.19 10.62 83.23 10.43 83.27 10.25L83.4 9.51C83.48 8.92 83.5 8.37 83.45 7.86C83.41 7.46 83.35 7.07 83.26 6.7C83.99 6.64 84.69 6.61 85.36 6.61C85.67 6.58 85.91 6.45 86.08 6.24C86.24 6.04 86.33 5.83 86.34 5.6C86.36 5.37 86.3 5.15 86.16 4.97C86.05 4.82 85.83 4.66 85.44 4.68C84.32 4.72 83.14 4.79 81.93 4.9C80.71 5.01 79.53 5.23 78.42 5.56C78.18 5.65 78.02 5.8 77.92 6.01C77.83 6.21 77.81 6.41 77.85 6.62C77.89 6.82 78 7 78.15 7.15C78.32 7.31 78.55 7.39 78.84 7.37H78.89C79.29 7.26 79.72 7.16 80.17 7.08C80.54 7.01 80.94 6.95 81.34 6.9C81.42 7.29 81.48 7.66 81.52 7.99C81.56 8.37 81.57 8.8 81.53 9.28C81.48 9.72 81.4 10.16 81.29 10.59C81.18 11.02 81.03 11.46 80.85 11.9C80.51 12.75 80.01 13.41 79.39 13.86C79.14 14.02 78.99 14.25 78.97 14.51C78.94 14.77 79 15 79.15 15.19C79.3 15.39 79.51 15.52 79.79 15.55C79.82 15.55 79.86 15.55 79.89 15.55C80.14 15.55 80.41 15.43 80.71 15.19C81.13 14.84 81.5 14.43 81.81 13.96C82.08 13.55 82.32 13.11 82.52 12.64C82.75 12.72 82.97 12.83 83.18 12.98C83.46 13.18 83.74 13.41 83.99 13.66C84.25 13.92 84.49 14.18 84.72 14.44C84.96 14.71 85.19 14.95 85.45 15.17C85.65 15.29 85.87 15.31 86.09 15.23C86.29 15.16 86.46 15.03 86.59 14.85C86.72 14.67 86.79 14.46 86.8 14.22C86.8 13.97 86.72 13.74 86.55 13.53C86.32 13.26 86.08 12.99 85.83 12.7L85.81 12.68Z"
              fill="#222222"/>
        <path d="M99.84 3.67C100.37 3.78 100.88 3.85 101.35 3.87C101.81 3.89 102.28 3.89 102.72 3.87C103.16 3.85 103.62 3.81 104.08 3.76C104.45 3.72 104.84 3.68 105.25 3.66L105.33 7.5C105.31 7.82 105.4 8.07 105.59 8.24C105.76 8.41 105.97 8.5 106.2 8.52C106.23 8.52 106.25 8.52 106.28 8.52C106.49 8.52 106.68 8.45 106.86 8.32C107.01 8.21 107.19 8 107.21 7.59L107.13 2.56C107.12 2.32 107.06 2.12 106.96 1.97C106.85 1.81 106.68 1.7 106.42 1.63C106.09 1.56 105.75 1.56 105.4 1.64C105.1 1.71 104.8 1.77 104.52 1.81C103.73 1.9 102.99 1.96 102.32 1.99C101.67 2.02 100.97 1.93 100.2 1.73C99.89 1.7 99.63 1.77 99.44 1.95C99.27 2.11 99.16 2.31 99.12 2.53C99.08 2.76 99.12 2.99 99.22 3.21C99.3 3.38 99.48 3.59 99.86 3.68L99.84 3.67Z"
              fill="#222222"/>
        <path d="M109.08 9.3C108.06 9.39 107.04 9.5 106.05 9.62C105.13 9.73 104.2 9.82 103.25 9.9L103.15 8.47C103.11 7.91 103.07 7.38 103.03 6.86C103 6.54 102.88 6.3 102.69 6.14C102.5 5.99 102.29 5.92 102.06 5.93C101.84 5.95 101.64 6.05 101.46 6.22C101.28 6.39 101.17 6.63 101.13 6.98C101.17 7.49 101.21 8.02 101.26 8.58C101.3 9.06 101.33 9.53 101.34 10C101.13 10 100.92 10.01 100.71 10.02C100.26 10.03 99.77 10.05 99.34 10.02C99.17 10.01 98.99 10 98.8 10C98.43 10 98.15 10.11 97.94 10.33C97.74 10.54 97.65 10.78 97.65 11.03C97.65 11.24 97.73 11.43 97.88 11.61C98.03 11.79 98.24 11.9 98.49 11.94H98.51C98.79 11.96 99.06 11.97 99.31 11.97C99.56 11.97 99.82 11.97 100.08 11.97C100.86 11.97 101.64 11.94 102.4 11.88C103.16 11.82 103.93 11.75 104.69 11.67C105.45 11.59 106.21 11.51 106.97 11.42C107.72 11.33 108.5 11.27 109.3 11.23C109.6 11.18 109.77 11.02 109.85 10.9C109.96 10.74 110.01 10.56 110.01 10.36C110.01 10.08 109.94 9.84 109.79 9.63C109.63 9.41 109.39 9.29 109.08 9.29V9.3Z"
              fill="#222222"/>
        <path d="M106.98 14.37C106.79 14.09 106.56 13.83 106.29 13.61C106.02 13.39 105.73 13.21 105.43 13.1C105.14 12.99 104.84 12.96 104.54 13.03C104.46 12.99 104.36 12.97 104.26 12.97H104.2C103.4 13.16 102.77 13.44 102.31 13.83C101.84 14.22 101.48 14.85 101.26 15.7C101.13 16.19 101.15 16.68 101.33 17.15C101.5 17.61 101.77 18.02 102.11 18.35C102.45 18.69 102.86 18.94 103.33 19.11C103.6 19.21 103.87 19.25 104.15 19.25C104.36 19.25 104.58 19.22 104.79 19.16C105.21 19.05 105.61 18.87 105.99 18.62C106.37 18.37 106.68 18.07 106.93 17.73C107.18 17.38 107.36 17 107.45 16.58C107.55 16.15 107.52 15.69 107.38 15.22C107.31 14.95 107.17 14.68 106.98 14.39V14.37ZM105.61 16.14C105.59 16.35 105.53 16.52 105.43 16.67C105.33 16.83 105.21 16.95 105.06 17.04C104.91 17.14 104.73 17.21 104.53 17.25C104.33 17.29 104.13 17.29 103.94 17.26C103.71 17.2 103.53 17.1 103.39 16.95C103.25 16.79 103.15 16.61 103.11 16.41C103.07 16.21 103.08 16.02 103.14 15.81C103.21 15.6 103.32 15.42 103.5 15.26C103.7 15.06 103.95 14.94 104.26 14.89C104.34 14.87 104.42 14.86 104.49 14.86C104.66 14.86 104.8 14.91 104.91 15.02L104.93 15.04C105.14 15.2 105.32 15.37 105.47 15.54C105.59 15.68 105.63 15.87 105.61 16.13V16.14Z"
              fill="#222222"/>
        <path d="M116 5.98C115.37 6.07 114.79 6.13 114.28 6.16C113.79 6.18 113.24 6.11 112.59 5.94C112.31 5.92 112.07 5.98 111.89 6.12C111.71 6.25 111.59 6.43 111.54 6.64C111.49 6.84 111.5 7.05 111.57 7.24C111.65 7.46 111.8 7.63 112.04 7.74H112.07C112.4 7.86 112.73 7.94 113.04 7.99C113.35 8.04 113.65 8.07 113.95 8.08C114.24 8.09 114.56 8.08 114.87 8.06C115.08 8.04 115.3 8.02 115.53 8C115.37 8.91 115.18 9.81 114.95 10.67C114.7 11.63 114.37 12.57 113.96 13.47C113.84 13.75 113.83 14.01 113.93 14.25C114.03 14.49 114.21 14.66 114.42 14.72C114.54 14.78 114.67 14.81 114.79 14.81C114.85 14.81 114.92 14.81 114.98 14.78C115.14 14.74 115.28 14.66 115.4 14.55C115.5 14.46 115.59 14.34 115.68 14.21C115.76 14.08 115.83 13.95 115.87 13.83C115.97 13.59 116.09 13.22 116.24 12.74C116.39 12.26 116.54 11.75 116.69 11.2C116.84 10.66 116.98 10.09 117.11 9.51C117.24 8.92 117.32 8.4 117.36 7.98C117.4 7.73 117.43 7.44 117.43 7.13C117.43 6.76 117.32 6.45 117.11 6.27C116.89 5.97 116.51 5.88 116.01 5.97L116 5.98Z"
              fill="#222222"/>
        <path d="M125.98 16.12C125.93 15.47 125.89 14.8 125.85 14.1C125.81 13.4 125.77 12.73 125.74 12.1C125.71 11.46 125.68 10.98 125.65 10.66C125.64 10 125.63 9.29 125.65 8.54C125.65 7.79 125.64 7.03 125.59 6.28C125.54 5.53 125.44 4.79001 125.27 4.11001C125.1 3.40001 124.83 2.77 124.45 2.22001C124.14 1.79 123.76 1.4 123.31 1.08C122.85 0.750005 122.34 0.560005 121.81 0.510005C121.48 0.480005 121.22 0.550005 121.03 0.730005C120.85 0.900005 120.75 1.1 120.73 1.33C120.71 1.55 120.77 1.77 120.9 1.96C121.04 2.17 121.26 2.29 121.54 2.33C121.8 2.36 122.02 2.46 122.21 2.61C122.42 2.78 122.6 2.97 122.75 3.17C122.97 3.47 123.15 3.79001 123.28 4.13001C123.41 4.48001 123.5 4.84 123.57 5.2C123.63 5.57 123.68 5.95 123.71 6.33C123.74 6.72 123.75 7.11 123.75 7.5V7.73C123.42 7.73 123.09 7.75 122.78 7.77C122.48 7.79 122.15 7.8 121.82 7.81C121.8 7.47 121.77 7.14 121.72 6.8C121.66 6.4 121.6 6.01 121.53 5.63C121.43 5.11 121.29 4.62001 121.09 4.19001C120.88 3.73001 120.52 3.35 120.03 3.08C119.76 2.93 119.5 2.88001 119.26 2.96001C119.04 3.03 118.86 3.17 118.74 3.36C118.62 3.55 118.58 3.77 118.62 4.03C118.66 4.29 118.79 4.51 119.01 4.7C119.27 4.91 119.44 5.16 119.51 5.45C119.59 5.78 119.66 6.12 119.69 6.46C119.84 7.53 119.92 8.68 119.94 9.87C119.96 11.06 119.96 12.23 119.94 13.38C119.96 13.69 120.07 13.91 120.27 14.05C120.45 14.18 120.65 14.23 120.87 14.21C121.08 14.19 121.28 14.11 121.46 13.95C121.65 13.79 121.76 13.58 121.8 13.28C121.8 12.72 121.81 12.13 121.84 11.49C121.86 10.94 121.88 10.35 121.88 9.75C122.22 9.75 122.55 9.72 122.87 9.69C123.17 9.66 123.49 9.65 123.82 9.66C123.84 10.09 123.85 10.52 123.86 10.96C123.86 11.48 123.88 12.01 123.89 12.56C123.9 12.7 123.92 12.92 123.93 13.2C123.94 13.49 123.96 13.81 123.99 14.18L124.07 15.31C124.1 15.7 124.12 16.08 124.15 16.43C124.18 16.78 124.2 17.1 124.22 17.39C124.24 17.7 124.27 17.91 124.29 18.05C124.36 18.41 124.57 18.56 124.73 18.62C124.85 18.67 124.98 18.69 125.1 18.69C125.18 18.69 125.27 18.68 125.35 18.66C125.57 18.61 125.76 18.49 125.92 18.32C126.1 18.13 126.17 17.88 126.13 17.6C126.08 17.25 126.03 16.75 125.98 16.11V16.12Z"
              fill="#222222"/>
    </g>
    <defs>
        <clipPath id="clip0_3298_77260">
            <rect width="126.14" height="19.84" fill="white" transform="translate(0 0.0800018)"/>
        </clipPath>
    </defs>
</svg>
