<svg width="125" height="20" viewBox="0 0 125 20" fill="none" xmlns="http://www.w3.org/2000/svg">
    <g clip-path="url(#clip0_3298_77193)">
        <path d="M8.13001 10.775C8.04001 10.585 7.91001 10.415 7.73001 10.275C7.52001 10.115 7.26001 10.065 6.97001 10.135C6.35001 10.255 5.74001 10.365 5.15001 10.455L3.33001 10.755C3.24001 10.755 3.08001 10.765 2.84001 10.795C2.79001 10.795 2.75001 10.795 2.72001 10.795C2.68001 10.795 2.67001 10.795 2.66001 10.795C2.66001 10.785 2.64001 10.725 2.62001 10.595C2.60001 10.445 2.58001 10.355 2.58001 10.285L2.42001 9.065C2.37001 8.665 2.30001 8.255 2.21001 7.875C2.12001 7.485 2.01001 7.095 1.90001 6.735C1.82001 6.345 1.60001 6.025 1.25001 5.775L1.21001 5.755C1.21001 5.755 1.09001 5.705 0.990011 5.675C0.760011 5.605 0.480011 5.605 0.260011 5.725C0.160011 5.785 0.020011 5.905 -0.00998901 6.155C-0.029989 6.305 -0.019989 6.485 0.020011 6.715C0.060011 6.935 0.090011 7.095 0.120011 7.175L0.300011 8.205C0.350011 8.605 0.410011 8.955 0.460011 9.245C0.510011 9.525 0.550011 9.865 0.590011 10.255C0.660011 10.825 0.800011 11.415 0.990011 12.025C1.10001 12.325 1.31001 12.565 1.64001 12.745C1.92001 12.895 2.20001 12.975 2.48001 12.975C2.51001 12.975 2.55001 12.975 2.58001 12.975H2.84001C3.01001 12.975 3.12001 12.965 3.16001 12.945C3.61001 12.875 4.10001 12.805 4.63001 12.725C5.16001 12.645 5.67001 12.565 6.16001 12.475C6.37001 12.435 6.59001 12.395 6.81001 12.345C7.04001 12.285 7.27001 12.215 7.47001 12.135C7.79001 12.035 7.99001 11.905 8.10001 11.745C8.22001 11.575 8.25001 11.325 8.17001 10.925L8.11001 10.785L8.13001 10.775Z"
              fill="#222222"/>
        <path d="M12.08 8.905C12.08 8.615 12.06 8.325 12.03 8.055C12 7.625 11.95 7.185 11.89 6.765C11.83 6.355 11.78 5.925 11.75 5.505C11.71 5.095 11.66 4.695 11.58 4.295C11.5 3.905 11.4 3.505 11.27 3.075C11.18 2.825 11.08 2.595 10.98 2.405C10.87 2.195 10.7 1.995 10.51 1.835C10.37 1.705 10.17 1.635 9.90001 1.635C9.63001 1.635 9.43001 1.705 9.28001 1.855C9.13001 2.035 9.07001 2.275 9.12001 2.585C9.16001 2.825 9.22001 3.135 9.31001 3.505C9.35001 3.655 9.40001 3.835 9.49001 4.075C9.56001 4.275 9.61001 4.445 9.62001 4.585C9.69001 4.945 9.74001 5.315 9.79001 5.685C9.83001 6.005 9.86001 6.315 9.89001 6.635C9.75001 6.545 9.60001 6.495 9.43001 6.485C9.30001 6.485 9.18001 6.465 9.00001 6.475C8.72001 6.495 8.37001 6.505 7.93001 6.525C7.47001 6.545 7.11001 6.565 6.83001 6.605C6.60001 6.635 6.40001 6.655 6.25001 6.665C6.08001 6.665 5.90001 6.695 5.69001 6.735L4.72001 6.945C4.47001 6.985 4.34001 7.115 4.28001 7.225C4.20001 7.365 4.17001 7.515 4.20001 7.695C4.23001 7.805 4.24001 7.875 4.24001 7.905C4.24001 7.975 4.26001 8.055 4.34001 8.275C4.47001 8.595 4.74001 8.955 5.42001 8.895C5.67001 8.875 5.88001 8.855 6.05001 8.845C6.23001 8.825 6.44001 8.805 6.67001 8.765L8.78001 8.555C8.83001 8.555 8.94001 8.555 9.09001 8.545L9.56001 8.515C9.73001 8.515 9.87001 8.495 10.01 8.485C10.02 8.485 10.04 8.485 10.05 8.485C10.11 9.095 10.16 9.625 10.17 10.085C10.19 10.545 10.19 11.095 10.17 11.735C10.15 12.355 10.12 12.955 10.07 13.505C10.02 14.055 9.93001 14.645 9.82001 15.245C9.76001 15.465 9.73001 15.715 9.74001 15.955C9.71001 16.255 9.86001 16.495 10.15 16.605C10.35 16.685 10.53 16.725 10.72 16.755C10.84 16.755 10.99 16.725 11.2 16.655C11.53 16.545 11.65 16.355 11.67 16.255C11.74 16.115 11.77 15.975 11.77 15.885C11.84 15.565 11.89 15.275 11.93 15.005C11.97 14.745 12 14.445 12.03 14.125C12.07 13.895 12.1 13.575 12.12 13.165C12.15 12.765 12.17 12.355 12.19 11.925C12.21 11.495 12.21 11.085 12.2 10.685C12.2 10.295 12.18 9.975 12.16 9.715C12.13 9.455 12.11 9.185 12.11 8.915L12.08 8.905Z"
              fill="#222222"/>
        <path d="M24.27 7.355C24.25 7.015 24.22 6.635 24.16 6.245C24.11 5.845 24.06 5.475 24 5.115C23.93 4.765 23.88 4.485 23.83 4.245C23.78 3.975 23.65 3.685 23.44 3.385L23.37 3.315C23.31 3.275 23.24 3.235 23.17 3.205L22.97 3.095C22.85 3.035 22.69 3.025 22.47 3.075C22.12 3.155 22.04 3.385 22.02 3.515C21.98 3.735 21.97 3.965 21.98 4.205C21.98 4.425 22 4.645 22.02 4.895C22.06 5.155 22.11 5.515 22.18 5.965C22.25 6.395 22.28 6.785 22.28 7.125V7.295L20.07 7.575L19.78 7.625C19.68 7.375 19.55 7.155 19.4 6.975C19.26 6.785 19.08 6.595 18.87 6.425C18.66 6.265 18.45 6.115 18.23 5.985C18.01 5.855 17.79 5.755 17.58 5.675C17.36 5.595 17.19 5.555 17.05 5.535C16.74 5.495 16.45 5.495 16.21 5.525C15.95 5.555 15.68 5.645 15.43 5.795C15.03 5.985 14.71 6.235 14.47 6.545C14.25 6.825 14.03 7.155 13.83 7.535C13.74 7.745 13.67 7.935 13.62 8.125C13.58 8.305 13.54 8.495 13.5 8.715C13.48 9.065 13.5 9.395 13.57 9.675C13.63 9.955 13.71 10.225 13.8 10.505C14.01 11.055 14.34 11.475 14.77 11.745C15.19 12.005 15.67 12.175 16.22 12.245C16.68 12.285 17.1 12.265 17.47 12.185C17.84 12.115 18.22 12.005 18.61 11.865C18.89 11.765 19.14 11.605 19.36 11.395C19.58 11.185 19.74 10.965 19.84 10.745C19.93 10.535 20.01 10.325 20.05 10.125C20.08 9.985 20.11 9.855 20.12 9.715L20.99 9.565C21.29 9.525 21.58 9.485 21.84 9.435C22.01 9.405 22.17 9.365 22.35 9.335C22.35 9.675 22.35 10.055 22.34 10.485C22.34 11.005 22.32 11.455 22.3 11.845C22.3 12.015 22.3 12.175 22.33 12.315C22.35 12.495 22.43 12.675 22.54 12.825C22.62 12.965 22.78 13.075 23.02 13.175C23.18 13.245 23.33 13.275 23.46 13.275C23.53 13.275 23.59 13.275 23.65 13.245C23.78 13.205 23.97 13.105 24.08 12.845C24.15 12.685 24.19 12.515 24.21 12.335C24.25 12.085 24.27 11.785 24.27 11.445C24.27 11.125 24.27 10.845 24.3 10.605C24.34 10.015 24.34 9.455 24.31 8.955C24.28 8.465 24.26 7.935 24.24 7.355H24.27ZM18.38 8.965C18.4 9.075 18.38 9.175 18.3 9.305C18.17 9.625 17.95 9.845 17.63 9.975C17.39 10.075 17.09 10.135 16.73 10.175C16.38 10.215 16.04 10.195 15.72 10.115C15.67 10.105 15.61 10.075 15.58 9.975C15.53 9.845 15.5 9.715 15.5 9.605C15.5 9.475 15.5 9.305 15.52 9.095C15.53 8.915 15.57 8.765 15.62 8.665C15.69 8.545 15.77 8.425 15.86 8.295C15.94 8.175 16.04 8.075 16.16 7.985C16.37 7.825 16.59 7.735 16.86 7.715C16.89 7.715 16.92 7.715 16.95 7.715C17.19 7.715 17.46 7.785 17.74 7.925C17.83 7.985 17.92 8.055 18.01 8.135C18.06 8.175 18.13 8.275 18.22 8.495C18.3 8.665 18.35 8.825 18.37 8.975L18.38 8.965Z"
              fill="#222222"/>
        <path d="M27.55 7.515C27.53 7.145 27.51 6.765 27.48 6.365L27.39 5.005C27.35 4.655 27.31 4.335 27.27 4.035C27.23 3.735 27.16 3.405 27.07 3.055C27 2.745 26.92 2.475 26.84 2.255C26.75 1.985 26.57 1.745 26.32 1.535C26.24 1.455 26.12 1.415 25.88 1.365C25.64 1.315 25.42 1.365 25.23 1.475L25.19 1.515C25.03 1.675 24.96 1.925 24.97 2.295C24.97 2.605 25.02 2.905 25.1 3.165C25.18 3.445 25.23 3.735 25.25 4.045C25.35 4.755 25.43 5.385 25.48 5.915C25.53 6.455 25.56 7.085 25.56 7.805V9.915C25.56 10.205 25.56 10.515 25.55 10.835C25.55 11.155 25.53 11.545 25.51 11.985C25.49 12.385 25.47 12.815 25.43 13.295C25.39 13.765 25.34 14.195 25.28 14.595C25.22 15.005 25.38 15.245 25.52 15.365C25.66 15.485 25.78 15.595 25.9 15.685C26.05 15.805 26.23 15.865 26.44 15.865C26.49 15.865 26.54 15.865 26.59 15.865C26.99 15.815 27.12 15.565 27.16 15.455C27.22 15.335 27.27 15.195 27.3 15.045C27.33 14.915 27.35 14.785 27.37 14.645L27.51 12.985C27.54 12.675 27.56 12.365 27.58 12.065C27.6 11.765 27.61 11.505 27.61 11.295V9.735C27.61 9.355 27.61 8.985 27.6 8.635C27.6 8.285 27.58 7.935 27.56 7.565L27.55 7.515Z"
              fill="#222222"/>
        <path d="M39.23 5.225C39.18 4.895 39.02 4.595 38.75 4.305C38.69 4.245 38.6 4.195 38.49 4.155C38.43 4.135 38.38 4.115 38.35 4.105C38.23 4.045 38.06 4.035 37.85 4.085C37.5 4.165 37.41 4.395 37.4 4.525C37.36 4.755 37.35 4.985 37.36 5.215C37.36 5.435 37.38 5.655 37.4 5.885C37.42 6.145 37.44 6.505 37.48 6.965C37.51 7.335 37.51 7.675 37.48 7.965C37.46 7.965 37.44 7.965 37.42 7.965C37.3 7.965 37.17 7.965 37.07 7.975L35.03 8.135H34.92C34.92 7.885 34.89 7.645 34.83 7.425C34.75 7.125 34.59 6.815 34.35 6.505C34.3 6.425 34.23 6.355 34.18 6.325L34.01 6.125C33.66 5.775 33.29 5.525 32.92 5.375C32.58 5.245 32.19 5.125 31.77 5.035C31.39 4.965 31 4.935 30.62 4.955C30.25 4.975 29.91 4.995 29.61 5.035C29.06 5.105 29 5.485 29 5.645C29 5.715 29 5.785 29 5.825C28.99 5.915 29 6.015 29.01 6.115C29.07 6.585 29.22 6.875 29.47 7.005C29.68 7.115 29.94 7.155 30.25 7.105C30.52 7.045 30.78 7.015 31.04 7.035C31.31 7.055 31.59 7.075 31.88 7.115C32.1 7.145 32.3 7.195 32.47 7.265C32.64 7.335 32.82 7.435 32.99 7.535C33.11 7.625 33.13 7.705 33.1 7.805C33.07 7.975 33.03 8.105 32.99 8.195C32.94 8.305 32.86 8.445 32.74 8.625C32.51 9.005 32.2 9.415 31.83 9.835L30.41 11.415C30.36 11.485 30.3 11.565 30.25 11.645C30.17 11.765 30.13 11.885 30.13 11.985C30.09 12.475 30.24 12.905 30.59 13.245C30.67 13.335 30.79 13.395 30.94 13.425C31.09 13.465 31.24 13.455 31.4 13.395C31.48 13.355 31.58 13.295 31.68 13.215C31.77 13.145 31.87 13.055 31.97 12.955C32.27 12.635 32.58 12.275 32.91 11.875L34.22 10.255C34.31 10.255 34.49 10.255 34.54 10.225L36.89 10.045C37.02 10.025 37.15 10.015 37.27 10.005C37.33 10.005 37.4 10.005 37.49 10.005C37.49 10.055 37.49 10.095 37.49 10.125C37.47 10.505 37.45 10.945 37.44 11.425C37.42 11.905 37.4 12.335 37.36 12.735C37.36 13.135 37.45 13.465 37.63 13.725C37.72 13.865 37.88 13.975 38.16 14.065C38.33 14.115 38.47 14.145 38.6 14.145C38.67 14.145 38.74 14.145 38.8 14.115C38.94 14.075 39.12 13.975 39.24 13.695C39.31 13.515 39.35 13.365 39.35 13.255C39.39 13.005 39.41 12.725 39.42 12.425C39.42 12.135 39.44 11.865 39.46 11.615V8.185C39.46 7.515 39.43 6.835 39.38 6.155C39.34 5.805 39.31 5.485 39.26 5.205L39.23 5.225Z"
              fill="#222222"/>
        <path d="M42.22 4.155C42.22 3.835 42.17 3.495 42.1 3.145C42.05 2.845 41.98 2.565 41.91 2.335C41.83 2.065 41.66 1.825 41.42 1.605L41.36 1.565C41.36 1.565 41.28 1.525 40.97 1.455C40.72 1.395 40.5 1.415 40.31 1.515L40.26 1.545C40.08 1.705 39.99 1.965 40 2.335C40 2.645 40.04 2.925 40.1 3.205C40.18 3.475 40.23 3.765 40.25 4.065C40.3 4.805 40.34 5.525 40.38 6.215C40.42 6.895 40.42 7.615 40.38 8.345L40.2 12.685C40.18 13.085 40.15 13.515 40.11 13.985C40.07 14.455 40 14.885 39.92 15.265C39.83 15.685 39.97 15.915 40.11 16.045C40.24 16.165 40.36 16.275 40.47 16.365C40.63 16.505 40.83 16.575 41.04 16.575C41.08 16.575 41.13 16.575 41.17 16.575C41.57 16.525 41.7 16.275 41.74 16.165C41.8 16.055 41.85 15.935 41.9 15.815C41.96 15.675 42 15.525 42.02 15.395C42.05 15.185 42.09 14.935 42.12 14.645C42.16 14.355 42.19 14.065 42.21 13.765C42.24 13.465 42.26 13.175 42.28 12.885C42.3 12.595 42.31 12.345 42.31 12.135C42.35 10.975 42.37 9.835 42.38 8.735C42.38 7.635 42.35 6.415 42.26 5.115C42.24 4.775 42.23 4.445 42.22 4.145V4.155Z"
              fill="#222222"/>
        <path d="M55.02 5.605C54.81 5.455 54.54 5.325 54.23 5.225C53.94 5.135 53.68 5.075 53.45 5.035C52.86 4.965 52.36 4.985 51.96 5.095C51.58 5.205 51.15 5.355 50.67 5.555C50.51 5.645 50.41 5.705 50.37 5.725C50.31 5.765 50.24 5.825 50.09 5.995C49.96 6.095 49.87 6.245 49.81 6.425C49.76 6.575 49.73 6.735 49.7 6.915C49.67 7.095 49.67 7.275 49.69 7.455C49.71 7.635 49.76 7.785 49.82 7.885C49.83 7.915 49.85 7.985 49.87 8.075C49.9 8.205 49.93 8.345 49.96 8.495C49.99 8.635 50.02 8.785 50.05 8.925L50.12 9.295C50.21 9.635 50.33 9.955 50.46 10.235C50.6 10.515 50.8 10.825 51.06 11.135C51.4 11.515 51.82 11.775 52.3 11.915C52.75 12.045 53.2 12.105 53.64 12.105C54.15 12.105 54.69 12.005 55.26 11.795C55.49 11.685 55.69 11.555 55.85 11.415C56.03 11.265 56.19 11.065 56.34 10.825C56.47 10.615 56.58 10.375 56.66 10.105C56.73 9.855 56.78 9.625 56.82 9.435V9.395C56.84 8.525 56.71 7.795 56.44 7.205C56.16 6.615 55.69 6.075 55.03 5.605H55.02ZM53.11 7.075C53.32 7.075 53.57 7.125 53.84 7.215C54.12 7.285 54.35 7.425 54.53 7.645C54.71 7.855 54.81 8.095 54.82 8.385C54.86 8.705 54.83 8.995 54.72 9.255C54.61 9.505 54.41 9.715 54.14 9.865C53.98 9.935 53.82 9.985 53.66 10.025C53.53 10.055 53.39 10.065 53.2 10.025C52.74 10.015 52.41 9.835 52.19 9.505C52.07 9.285 51.98 9.065 51.93 8.835C51.88 8.585 51.84 8.335 51.8 8.085C51.77 7.895 51.78 7.725 51.83 7.565C51.87 7.425 51.95 7.385 52.05 7.355C52.32 7.225 52.6 7.135 52.88 7.085C52.95 7.075 53.02 7.065 53.09 7.065L53.11 7.075Z"
              fill="#222222"/>
        <path d="M61.17 6.515C61.17 6.345 61.15 6.185 61.13 6.045C61.11 5.905 61.09 5.735 61.04 5.515L60.92 4.915C60.88 4.745 60.86 4.585 60.83 4.435C60.8 4.285 60.77 4.115 60.72 3.935C60.68 3.765 60.62 3.545 60.55 3.285C60.4 2.805 60.21 2.445 59.96 2.175C59.75 1.995 59.54 1.905 59.32 1.915C59.13 1.925 58.96 1.975 58.81 2.065C58.66 2.165 58.54 2.285 58.47 2.445C58.39 2.615 58.38 2.765 58.43 2.905L58.5 3.225C58.52 3.305 58.54 3.385 58.55 3.455C58.57 3.535 58.59 3.615 58.62 3.695C58.64 3.775 58.68 3.895 58.74 4.065C58.86 4.445 58.95 4.935 59.02 5.505C59.09 6.085 59.14 6.635 59.18 7.125L59.22 7.775C59.22 7.925 59.23 8.065 59.23 8.185C59.23 8.305 59.23 8.455 59.22 8.615C59.22 8.785 59.21 9.005 59.21 9.275C59.19 9.605 59.17 9.895 59.16 10.145L59.11 10.885C59.09 11.125 59.07 11.365 59.03 11.615C59 11.865 58.95 12.155 58.9 12.465C58.81 12.845 58.74 13.195 58.68 13.515C58.62 13.815 58.53 14.125 58.39 14.465C58.28 14.765 58.31 15.065 58.47 15.345C58.64 15.625 58.85 15.785 59.07 15.835C59.23 15.875 59.39 15.905 59.54 15.905C59.59 15.905 59.64 15.905 59.69 15.905C59.86 15.885 60.09 15.795 60.27 15.475C60.42 15.225 60.53 14.975 60.58 14.715C60.62 14.495 60.67 14.285 60.72 14.085C60.77 13.885 60.83 13.615 60.89 13.255C60.95 12.905 61 12.575 61.03 12.285L61.11 11.755C61.18 11.135 61.23 10.505 61.27 9.885C61.31 9.245 61.31 8.575 61.27 7.895C61.25 7.585 61.23 7.315 61.22 7.095C61.2 6.885 61.19 6.695 61.18 6.525L61.17 6.515Z"
              fill="#222222"/>
        <path d="M68.54 2.265C68.69 2.375 68.87 2.415 69.08 2.385C69.2 2.365 69.3 2.345 69.4 2.315C69.48 2.295 69.56 2.275 69.67 2.255C69.96 2.185 70.3 2.155 70.67 2.145C71.03 2.145 71.34 2.185 71.59 2.265C71.67 2.295 71.73 2.335 71.76 2.385C71.82 2.455 71.88 2.545 71.93 2.625C72.03 2.805 72.07 3.075 72.06 3.415C72.06 3.495 72.04 3.625 72.01 3.815C71.97 4.025 71.94 4.245 71.89 4.475C71.85 4.705 71.8 4.925 71.75 5.135C71.69 5.405 71.65 5.485 71.64 5.505V5.535C71.57 5.695 71.53 5.885 71.5 6.115C71.46 6.415 71.59 6.675 71.86 6.845C72 6.935 72.16 6.995 72.38 7.025C72.45 7.035 72.52 7.045 72.59 7.045C72.73 7.045 72.89 7.025 73.05 6.985L73.12 6.965L73.17 6.915C73.17 6.915 73.26 6.825 73.31 6.755C73.38 6.675 73.42 6.615 73.44 6.585C73.54 6.425 73.63 6.185 73.73 5.855C73.82 5.545 73.89 5.205 73.96 4.845C74.02 4.475 74.07 4.125 74.09 3.795C74.12 3.455 74.12 3.185 74.1 2.965C74.04 2.505 73.9 2.045 73.68 1.605C73.49 1.255 73.21 0.974998 72.87 0.784998C72.55 0.604998 72.22 0.454998 71.88 0.324998C71.72 0.264998 71.52 0.224998 71.28 0.204998C70.83 0.164998 70.29 0.164998 69.79 0.214998C69.53 0.244998 69.31 0.284998 69.11 0.344998C69 0.384998 68.88 0.424998 68.74 0.474998C68.57 0.534998 68.43 0.624998 68.31 0.744998C68.18 0.874998 68.11 1.035 68.11 1.155C68.09 1.275 68.09 1.405 68.11 1.535C68.13 1.675 68.18 1.815 68.24 1.935C68.31 2.065 68.41 2.175 68.53 2.265H68.54Z"
              fill="#222222"/>
        <path d="M64.99 2.835C65.23 2.855 65.5 2.875 65.81 2.915C66.11 2.945 66.39 3.005 66.62 3.075C66.79 3.155 66.91 3.225 66.98 3.295C67.03 3.335 67.1 3.435 67.19 3.635V3.685L67.17 3.745C66.97 4.105 66.84 4.265 66.77 4.345L66.17 4.945C66.09 5.025 65.99 5.125 65.88 5.225C65.75 5.345 65.65 5.455 65.61 5.535C65.41 5.775 65.32 5.975 65.32 6.145C65.32 6.295 65.38 6.495 65.51 6.775C65.61 6.945 65.78 7.085 66.04 7.185C66.17 7.235 66.29 7.255 66.4 7.255C66.56 7.255 66.68 7.205 66.75 7.155L66.89 7.085C67.23 6.835 67.58 6.515 67.92 6.145C68.26 5.775 68.53 5.415 68.72 5.105C68.94 4.795 69.06 4.385 69.08 3.905C69.1 3.425 69.01 3.015 68.81 2.665C68.62 2.365 68.35 2.075 67.99 1.785C67.68 1.565 67.33 1.385 66.96 1.255C66.6 1.125 66.21 1.025 65.78 0.955C65.59 0.935 65.42 0.925 65.28 0.905C65.11 0.885 64.92 0.905 64.75 0.935C64.5 0.985 64.31 1.135 64.2 1.385C64.07 1.745 64.08 2.075 64.23 2.345C64.38 2.635 64.65 2.805 64.99 2.835Z"
              fill="#222222"/>
        <path d="M74.7 7.765C74.48 7.745 74.3 7.735 74.17 7.715C74.03 7.695 73.84 7.675 73.61 7.665C73.05 7.635 72.49 7.605 71.93 7.585L70.23 7.535C69.63 7.495 68.7 7.495 67.77 7.545C67.31 7.575 66.86 7.605 66.42 7.645C65.98 7.685 65.61 7.735 65.32 7.785C64.93 7.835 64.58 7.895 64.28 7.955C63.97 8.015 63.64 8.095 63.27 8.185C62.99 8.285 62.9 8.475 62.87 8.605C62.84 8.735 62.82 8.855 62.83 8.985C62.86 9.245 62.89 9.355 62.91 9.415C62.93 9.475 62.97 9.575 63.01 9.695C63.11 10.135 63.44 10.355 63.94 10.275C64.02 10.255 64.08 10.235 64.14 10.215C64.21 10.195 64.26 10.175 64.27 10.165C64.59 10.065 64.89 9.985 65.17 9.925C65.45 9.865 65.72 9.815 65.99 9.785C66.26 9.755 66.55 9.725 66.85 9.695C67.15 9.665 67.48 9.635 67.83 9.605C68.12 9.575 68.3 9.565 68.57 9.605V9.635C68.57 9.755 68.57 9.895 68.55 10.035C68.53 10.195 68.52 10.345 68.51 10.475C68.5 10.635 68.48 10.685 68.48 10.685V10.755C68.48 10.755 68.45 10.875 68.43 11.045L68.38 11.425C68.27 11.395 68.16 11.375 68.07 11.355C67.89 11.315 67.73 11.295 67.59 11.275C67.45 11.255 67.3 11.265 67.14 11.305C67 11.345 66.81 11.465 66.7 11.805C66.62 12.165 66.63 12.505 66.73 12.815C66.81 13.075 67.03 13.405 67.62 13.455C67.81 13.475 68.01 13.495 68.24 13.515C68.46 13.535 68.68 13.575 68.91 13.615C69.14 13.655 69.35 13.705 69.55 13.765C69.74 13.825 69.91 13.885 70.01 13.935C70.08 13.995 70.1 14.055 70.1 14.095C70.1 14.095 70.08 14.125 70.03 14.155C69.89 14.245 69.7 14.345 69.48 14.425C69.25 14.515 69 14.595 68.75 14.665C68.5 14.735 68.25 14.785 68 14.815C67.75 14.845 67.53 14.865 67.33 14.865H67.3C67.13 14.885 66.97 14.945 66.81 15.025C66.48 15.205 66.5 15.695 66.51 15.855C66.53 16.225 66.55 16.555 66.58 16.855C66.61 17.155 66.65 17.485 66.7 17.865C66.8 18.475 67.07 18.925 67.52 19.195C67.94 19.455 68.47 19.585 69.15 19.585H69.16L69.8 19.505C70.17 19.465 70.57 19.425 71 19.375C71.43 19.325 71.78 19.275 72.02 19.215C72.4 19.155 72.67 19.085 72.87 18.985C73.1 18.865 73.26 18.625 73.35 18.235C73.37 17.955 73.29 17.705 73.09 17.485C72.84 17.205 72.57 17.165 72.39 17.185C72.25 17.205 72.1 17.225 71.93 17.255C71.77 17.285 71.62 17.305 71.49 17.315C71.04 17.365 70.56 17.415 70.06 17.475C69.56 17.525 69.17 17.555 68.89 17.555C68.63 17.555 68.53 17.505 68.54 17.525C68.53 17.455 68.52 17.355 68.52 17.235C68.52 17.145 68.52 17.045 68.51 16.935C68.51 16.845 68.51 16.815 68.51 16.785C68.51 16.765 68.51 16.755 68.51 16.745C68.53 16.745 68.56 16.745 68.6 16.735L69.14 16.655C69.38 16.615 69.68 16.555 70.02 16.465C70.34 16.375 70.67 16.205 71.02 15.975C71.39 15.725 71.66 15.375 71.82 14.935C71.92 14.675 71.95 14.385 71.91 14.095C71.87 13.815 71.78 13.545 71.65 13.295C71.52 13.045 71.34 12.815 71.14 12.615C70.93 12.405 70.7 12.235 70.44 12.095L70.38 12.065L70.46 11.405C70.51 11.105 70.54 10.745 70.56 10.315C70.56 10.015 70.56 9.755 70.56 9.525C70.6 9.525 70.63 9.535 70.65 9.525C71.05 9.545 71.52 9.565 72.07 9.575C72.61 9.595 73.07 9.615 73.46 9.655L75.01 9.735C75.15 9.735 75.27 9.735 75.38 9.705C75.49 9.685 75.69 9.605 75.78 9.225C75.78 8.815 75.69 8.465 75.48 8.145C75.28 7.925 75.03 7.795 74.72 7.755L74.7 7.765Z"
              fill="#222222"/>
        <path d="M85.47 2.545C85.55 2.855 85.64 3.215 85.74 3.625C85.83 4.025 85.9 4.395 85.93 4.745C86 5.285 86.04 5.775 86.05 6.205C86.05 6.635 86.06 7.145 86.06 7.735C86.06 7.805 86.06 7.955 86.03 8.195C86.01 8.445 86 8.715 85.98 9.005L85.93 9.805C85.91 10.065 85.9 10.225 85.9 10.255C85.88 10.465 85.86 10.685 85.85 10.925C85.83 11.195 85.85 11.395 85.88 11.495C85.94 11.875 86.17 12.025 86.36 12.095C86.56 12.165 86.77 12.195 87 12.195C87.23 12.175 87.54 12.065 87.67 11.645C87.74 11.515 87.78 11.305 87.81 10.995C87.84 10.725 87.86 10.435 87.88 10.135L87.93 9.275C87.95 9.005 87.96 8.815 87.98 8.675C88 8.255 88.01 7.825 88.02 7.385C88.02 6.935 88.02 6.505 87.98 6.125C87.95 5.655 87.91 5.195 87.86 4.745C87.82 4.295 87.75 3.815 87.66 3.315C87.59 2.965 87.51 2.625 87.42 2.305C87.33 1.975 87.2 1.655 87.04 1.355C86.97 1.225 86.89 1.105 86.78 1.005C86.69 0.924998 86.6 0.844998 86.52 0.784998C86.33 0.624998 86.11 0.574998 85.88 0.644998C85.69 0.704998 85.55 0.774998 85.45 0.874998C85.34 0.984998 85.27 1.135 85.23 1.335C85.18 1.535 85.23 1.805 85.34 2.145L85.47 2.555V2.545Z"
              fill="#222222"/>
        <path d="M83.82 10.125C84.01 10.045 84.18 9.965 84.34 9.875C84.49 9.785 84.64 9.685 84.78 9.575C85.02 9.405 85.15 9.155 85.13 8.865C85.12 8.595 85.02 8.365 84.82 8.165L84.52 7.925C84.34 7.745 84.05 7.785 83.8 7.845C83.44 8.005 83.03 8.165 82.58 8.345C82.13 8.525 81.71 8.685 81.32 8.815C80.89 8.955 80.5 9.065 80.14 9.165C79.85 9.245 79.52 9.335 79.16 9.435L79.04 8.645L78.81 7.815L78.91 7.765C79.16 7.645 79.44 7.475 79.79 7.255C80.12 7.045 80.39 6.865 80.58 6.725C80.82 6.565 81.05 6.375 81.28 6.175C81.52 5.965 81.72 5.725 81.87 5.485C82.07 5.185 82.17 4.795 82.16 4.345C82.16 3.895 82.05 3.525 81.87 3.235C81.75 3.065 81.61 2.895 81.43 2.755C81.27 2.625 81.12 2.505 80.98 2.405C80.78 2.245 80.57 2.135 80.34 2.065C80.13 2.005 79.92 1.955 79.69 1.915C79.45 1.875 79.23 1.855 79 1.845C78.79 1.845 78.57 1.825 78.33 1.805C78.02 1.805 77.92 1.825 77.88 1.835C77.64 1.895 77.49 2.065 77.46 2.305C77.44 2.445 77.44 2.615 77.46 2.805C77.48 3.005 77.51 3.155 77.54 3.235C77.62 3.755 77.96 3.775 78.07 3.775C78.2 3.775 78.35 3.775 78.56 3.815H79.18C79.18 3.815 79.28 3.815 79.34 3.835C79.53 3.865 79.71 3.905 79.88 3.935C80.01 3.965 80.14 4.025 80.31 4.155C80.31 4.155 80.31 4.185 80.29 4.225C80.03 4.595 79.63 4.955 79.1 5.285C78.56 5.625 78 5.875 77.42 6.015C77.14 6.075 76.9 6.155 76.7 6.265C76.5 6.375 76.3 6.635 76.48 7.225C76.6 7.565 76.7 7.885 76.77 8.195C76.85 8.505 76.92 8.855 76.99 9.245C77.06 9.585 77.11 9.895 77.16 10.175C77.21 10.475 77.32 10.815 77.5 11.205C77.64 11.505 77.91 11.695 78.27 11.735C78.36 11.745 78.45 11.755 78.54 11.755C78.76 11.755 78.97 11.715 79.16 11.655C79.89 11.425 80.66 11.195 81.49 10.945C82.32 10.695 83.09 10.415 83.78 10.115L83.82 10.125Z"
              fill="#222222"/>
        <path d="M87.96 13.695C87.81 13.495 87.64 13.295 87.44 13.125C87.23 12.935 87.01 12.805 86.77 12.725C86.44 12.615 86.06 12.545 85.64 12.515C85.23 12.485 84.83 12.495 84.45 12.525C84.12 12.565 83.76 12.595 83.38 12.645C83.05 12.685 82.75 12.755 82.47 12.865L82.23 12.555C82.1 12.425 81.94 12.355 81.75 12.325C81.57 12.305 81.42 12.325 81.29 12.365L81.23 12.395C81.02 12.555 80.9 12.725 80.87 12.935V13.275C80.87 13.345 80.87 13.405 80.89 13.475C80.89 13.535 80.91 13.595 80.93 13.645L81.14 15.285C81.19 15.615 81.26 15.975 81.34 16.355C81.42 16.725 81.48 17.075 81.53 17.405C81.57 17.645 81.7 17.875 81.92 18.075C82.14 18.285 82.39 18.395 82.68 18.385C82.8 18.405 82.93 18.415 83.07 18.415C83.23 18.415 83.37 18.395 83.44 18.355C83.83 18.285 84.29 18.235 84.8 18.205C85.34 18.165 85.82 18.105 86.24 18.015C86.37 17.985 86.51 17.955 86.64 17.925C86.8 17.895 86.95 17.855 87.08 17.795C87.48 17.625 87.73 17.385 87.84 17.065C87.92 16.815 88.02 16.575 88.13 16.325C88.24 16.005 88.32 15.645 88.38 15.255C88.44 14.835 88.41 14.485 88.28 14.185C88.18 13.995 88.08 13.825 87.97 13.705L87.96 13.695ZM86.46 14.635C86.45 14.865 86.4 15.115 86.32 15.365C86.24 15.625 86.1 15.865 85.9 16.065C85.77 16.105 85.61 16.135 85.44 16.165C85.23 16.195 85.01 16.225 84.78 16.255C84.55 16.285 84.32 16.305 84.1 16.315C83.86 16.335 83.65 16.365 83.46 16.395C83.44 16.395 83.39 16.415 83.37 16.395C83.34 16.365 83.3 16.325 83.29 16.265C83.22 15.975 83.17 15.675 83.13 15.355L83.04 14.705C83.14 14.675 83.25 14.645 83.35 14.615C83.5 14.565 83.64 14.535 83.78 14.525C83.93 14.505 84.13 14.495 84.37 14.475C84.61 14.455 84.86 14.445 85.11 14.435C85.36 14.435 85.6 14.435 85.84 14.445C86.04 14.455 86.21 14.485 86.34 14.525L86.47 14.625L86.46 14.635Z"
              fill="#222222"/>
        <path d="M91.77 13.785C91.64 13.675 91.46 13.595 91.26 13.555C91 13.505 90.77 13.585 90.59 13.795C90.42 13.995 90.35 14.225 90.4 14.465C90.44 14.665 90.5 14.825 90.58 14.945L90.85 15.405C91.08 15.735 91.01 15.955 90.94 16.075C90.78 16.365 90.62 16.595 90.47 16.755C90.3 16.935 90.1 17.155 89.89 17.405C89.76 17.535 89.68 17.715 89.66 17.945C89.64 18.185 89.71 18.415 89.86 18.585C90.02 18.805 90.23 18.925 90.47 18.925C90.52 18.925 90.58 18.925 90.63 18.905C90.88 18.855 91.1 18.745 91.31 18.585C91.77 18.225 92.13 17.825 92.39 17.405C92.66 16.975 92.82 16.625 92.88 16.335V16.315C92.9 16.145 92.91 15.985 92.9 15.855C92.9 15.725 92.88 15.605 92.85 15.485C92.64 14.795 92.28 14.235 91.76 13.805L91.77 13.785Z"
              fill="#222222"/>
        <path d="M104 2.265C104.14 2.375 104.33 2.415 104.54 2.385C104.66 2.365 104.76 2.345 104.86 2.315C104.94 2.295 105.02 2.275 105.13 2.255C105.42 2.185 105.76 2.155 106.13 2.145C106.48 2.145 106.8 2.185 107.05 2.265C107.13 2.295 107.19 2.335 107.22 2.385C107.28 2.455 107.34 2.545 107.39 2.625C107.49 2.805 107.53 3.075 107.52 3.415C107.52 3.495 107.5 3.625 107.47 3.815C107.43 4.025 107.4 4.245 107.35 4.475C107.31 4.705 107.26 4.925 107.21 5.135C107.15 5.405 107.11 5.485 107.1 5.505V5.535C107.03 5.695 106.99 5.885 106.96 6.115C106.92 6.415 107.05 6.675 107.32 6.845C107.46 6.935 107.62 6.995 107.84 7.025C107.91 7.035 107.98 7.045 108.05 7.045C108.19 7.045 108.35 7.025 108.51 6.985L108.58 6.965L108.63 6.915C108.63 6.915 108.72 6.825 108.77 6.755C108.84 6.675 108.88 6.615 108.9 6.585C109 6.425 109.09 6.185 109.19 5.855C109.28 5.545 109.35 5.205 109.42 4.845C109.48 4.475 109.53 4.125 109.55 3.795C109.58 3.455 109.58 3.185 109.56 2.965C109.5 2.505 109.36 2.045 109.14 1.605C108.95 1.255 108.67 0.974998 108.33 0.784998C108.01 0.604998 107.68 0.454998 107.34 0.324998C107.18 0.264998 106.98 0.224998 106.74 0.204998C106.29 0.164998 105.75 0.164998 105.25 0.214998C104.99 0.244998 104.77 0.284998 104.57 0.344998C104.46 0.384998 104.34 0.424998 104.2 0.474998C104.03 0.534998 103.89 0.624998 103.77 0.744998C103.64 0.874998 103.57 1.035 103.57 1.155C103.55 1.275 103.55 1.405 103.57 1.535C103.59 1.675 103.64 1.815 103.7 1.935C103.77 2.065 103.87 2.175 103.99 2.265H104Z"
              fill="#222222"/>
        <path d="M100.45 2.835C100.69 2.855 100.96 2.875 101.27 2.915C101.57 2.945 101.85 3.005 102.08 3.075C102.25 3.155 102.37 3.225 102.44 3.295C102.49 3.335 102.56 3.435 102.65 3.635V3.685L102.63 3.745C102.43 4.105 102.3 4.265 102.23 4.345L101.63 4.945C101.55 5.025 101.45 5.125 101.34 5.225C101.21 5.345 101.11 5.455 101.07 5.535C100.87 5.775 100.78 5.975 100.78 6.145C100.78 6.295 100.84 6.495 100.97 6.775C101.07 6.945 101.24 7.085 101.5 7.185C101.63 7.235 101.75 7.255 101.86 7.255C102.02 7.255 102.14 7.205 102.21 7.155L102.35 7.085C102.69 6.835 103.04 6.515 103.38 6.145C103.72 5.775 103.99 5.415 104.18 5.105C104.4 4.795 104.52 4.385 104.54 3.905C104.56 3.425 104.47 3.015 104.27 2.665C104.08 2.365 103.81 2.075 103.45 1.785C103.14 1.565 102.79 1.385 102.42 1.255C102.06 1.125 101.67 1.025 101.24 0.955C101.05 0.935 100.88 0.925 100.74 0.905C100.56 0.885 100.38 0.905 100.21 0.935C99.96 0.985 99.77 1.135 99.66 1.385C99.53 1.745 99.54 2.075 99.69 2.345C99.84 2.635 100.11 2.805 100.45 2.835Z"
              fill="#222222"/>
        <path d="M110.16 7.765C109.94 7.745 109.76 7.735 109.63 7.715C109.49 7.695 109.3 7.675 109.07 7.665C108.51 7.635 107.95 7.605 107.39 7.585L105.69 7.535C105.09 7.495 104.16 7.495 103.23 7.545C102.77 7.575 102.32 7.605 101.88 7.645C101.44 7.685 101.07 7.735 100.78 7.785C100.39 7.835 100.04 7.895 99.74 7.955C99.43 8.015 99.1 8.095 98.73 8.185C98.45 8.285 98.36 8.475 98.33 8.605C98.3 8.735 98.28 8.855 98.29 8.985C98.32 9.245 98.35 9.355 98.37 9.415C98.39 9.475 98.43 9.575 98.47 9.695C98.57 10.135 98.9 10.355 99.4 10.275C99.48 10.255 99.54 10.235 99.6 10.215C99.67 10.195 99.72 10.175 99.73 10.165C100.05 10.065 100.35 9.985 100.63 9.925C100.91 9.865 101.18 9.815 101.45 9.785C101.72 9.755 102.01 9.725 102.31 9.695C102.61 9.665 102.94 9.635 103.29 9.605C103.58 9.575 103.76 9.565 104.03 9.605V9.635C104.03 9.755 104.03 9.895 104.01 10.035C103.99 10.195 103.98 10.345 103.97 10.475C103.96 10.635 103.94 10.685 103.94 10.685V10.755C103.94 10.755 103.91 10.875 103.89 11.045L103.84 11.425C103.73 11.395 103.62 11.375 103.53 11.355C103.35 11.315 103.19 11.295 103.05 11.275C102.91 11.255 102.76 11.265 102.6 11.305C102.46 11.345 102.27 11.465 102.16 11.805C102.08 12.165 102.09 12.505 102.19 12.815C102.27 13.075 102.49 13.405 103.08 13.455C103.27 13.475 103.47 13.495 103.7 13.515C103.92 13.535 104.14 13.575 104.37 13.615C104.6 13.655 104.81 13.705 105.01 13.765C105.2 13.825 105.37 13.885 105.47 13.935C105.54 13.995 105.56 14.055 105.56 14.095C105.56 14.095 105.54 14.125 105.49 14.155C105.35 14.245 105.16 14.345 104.94 14.425C104.71 14.515 104.46 14.595 104.21 14.665C103.96 14.735 103.71 14.785 103.46 14.815C103.21 14.845 102.99 14.865 102.79 14.865H102.76C102.59 14.885 102.43 14.945 102.27 15.025C101.94 15.205 101.96 15.695 101.97 15.855C101.99 16.225 102.01 16.555 102.04 16.855C102.07 17.155 102.11 17.485 102.16 17.865C102.26 18.475 102.53 18.925 102.98 19.195C103.4 19.455 103.93 19.585 104.61 19.585H104.62L105.26 19.505C105.63 19.465 106.03 19.425 106.46 19.375C106.89 19.325 107.24 19.275 107.48 19.215C107.86 19.155 108.13 19.085 108.33 18.985C108.56 18.865 108.72 18.625 108.81 18.235C108.83 17.955 108.75 17.705 108.55 17.485C108.3 17.205 108.03 17.165 107.85 17.185C107.71 17.205 107.56 17.225 107.39 17.255C107.23 17.285 107.08 17.305 106.95 17.315C106.5 17.365 106.02 17.415 105.52 17.475C105.02 17.525 104.63 17.555 104.35 17.555C104.09 17.555 103.99 17.505 104 17.525C103.99 17.455 103.98 17.355 103.98 17.235C103.98 17.145 103.98 17.045 103.97 16.935C103.97 16.845 103.97 16.815 103.97 16.785C103.97 16.765 103.97 16.755 103.97 16.745C103.99 16.745 104.02 16.745 104.06 16.735L104.6 16.655C104.84 16.615 105.14 16.555 105.48 16.465C105.8 16.375 106.13 16.205 106.48 15.975C106.85 15.725 107.12 15.375 107.28 14.935C107.38 14.675 107.41 14.385 107.37 14.095C107.33 13.815 107.24 13.545 107.11 13.295C106.98 13.045 106.8 12.815 106.6 12.615C106.39 12.405 106.16 12.235 105.9 12.095L105.84 12.065L105.92 11.405C105.97 11.105 106 10.745 106.02 10.315C106.02 10.015 106.02 9.755 106.02 9.525C106.06 9.525 106.09 9.535 106.11 9.525C106.51 9.545 106.98 9.565 107.53 9.575C108.07 9.595 108.53 9.615 108.92 9.655L110.47 9.735C110.61 9.735 110.73 9.735 110.84 9.705C110.95 9.685 111.15 9.605 111.24 9.225C111.24 8.815 111.15 8.465 110.94 8.145C110.74 7.925 110.49 7.795 110.18 7.755L110.16 7.765Z"
              fill="#222222"/>
        <path d="M116.16 1.965C116.32 2.125 116.59 2.265 116.98 2.375C117.5 2.535 118.04 2.645 118.6 2.705C119.15 2.765 119.7 2.805 120.22 2.825H120.67C120.67 2.825 120.8 2.805 120.98 2.815C121.18 2.815 121.34 2.815 121.47 2.755C121.66 2.675 121.79 2.515 121.85 2.305C121.9 2.095 121.87 1.895 121.75 1.705C121.67 1.565 121.6 1.465 121.54 1.395C121.48 1.335 121.41 1.255 121.31 1.155C121.03 0.895 120.69 0.745 120.33 0.705C120.13 0.665 119.91 0.645 119.66 0.635C119.43 0.635 119.22 0.615 119.04 0.595C118.67 0.565 118.29 0.515 117.92 0.445C117.56 0.385 117.21 0.275 116.88 0.125C116.35 -0.0949997 116.11 0.0750003 116.01 0.255C115.91 0.435 115.86 0.635 115.86 0.845V1.075C115.9 1.505 116.01 1.795 116.18 1.965H116.16Z"
              fill="#222222"/>
        <path d="M122.82 18.505C122.78 18.385 122.72 18.275 122.64 18.165C122.42 17.875 122.12 17.725 121.77 17.725C121.33 17.725 120.94 17.735 120.61 17.765C120.28 17.795 119.9 17.815 119.45 17.835C119.34 17.855 119.24 17.855 119.16 17.855H118.29C118.29 17.855 118.18 17.855 118.06 17.805C118.04 17.805 118.01 17.785 117.97 17.625C117.87 17.435 117.84 17.315 117.82 17.255L117.49 15.915C117.44 15.675 117.37 15.465 117.3 15.275C117.22 15.075 117.09 14.885 116.93 14.725H116.92C116.75 14.565 116.46 14.415 116.01 14.565C115.84 14.635 115.73 14.815 115.69 15.085C115.66 15.285 115.66 15.475 115.68 15.625L115.72 16.005C115.72 16.125 115.74 16.225 115.76 16.315C115.78 16.395 115.79 16.475 115.81 16.565C115.83 16.665 115.85 16.795 115.89 16.955C115.94 17.155 115.98 17.325 116 17.465C116.03 17.605 116.05 17.735 116.08 17.855C116.11 17.975 116.15 18.105 116.19 18.235C116.23 18.365 116.29 18.505 116.36 18.665C116.52 19.045 116.78 19.345 117.14 19.565C117.48 19.775 117.86 19.895 118.26 19.935C118.47 19.955 118.69 19.965 118.92 19.975C119 19.975 119.07 19.975 119.15 19.975C119.3 19.975 119.45 19.975 119.59 19.955L121.81 19.855C121.91 19.855 122.03 19.845 122.18 19.815C122.33 19.785 122.45 19.745 122.56 19.695C122.76 19.575 122.88 19.415 122.92 19.245C122.96 19.085 122.95 18.935 122.9 18.825L122.81 18.505H122.82Z"
              fill="#222222"/>
        <path d="M114.95 5.075C115.04 5.145 115.18 5.205 115.4 5.255L115.21 5.625C115 6.075 114.91 6.625 114.92 7.265C114.92 7.895 115.02 8.445 115.18 8.875C115.28 9.205 115.56 9.615 116.28 9.745C116.46 9.785 116.69 9.805 116.94 9.815C117.06 9.815 117.19 9.815 117.32 9.815C117.45 9.815 117.58 9.815 117.71 9.815C117.97 9.815 118.23 9.795 118.49 9.775C118.75 9.755 118.97 9.735 119.17 9.695C119.51 9.655 119.92 9.585 120.4 9.485C120.89 9.375 121.34 9.245 121.75 9.085C122.01 8.975 122.18 8.825 122.25 8.625C122.32 8.435 122.29 8.215 122.16 7.985C122.13 7.915 122.09 7.835 122.03 7.785L121.96 7.695C121.74 7.385 121.34 7.075 120.65 7.315C120.44 7.395 120.17 7.475 119.83 7.535C119.49 7.605 119.13 7.655 118.77 7.705C118.4 7.745 118.05 7.785 117.7 7.805C117.36 7.835 117.06 7.835 116.85 7.845C116.85 7.675 116.86 7.495 116.89 7.295C116.92 7.035 116.95 6.965 116.97 6.935C117.04 6.735 117.1 6.535 117.15 6.335C117.18 6.205 117.3 6.045 117.5 5.875C117.57 5.815 117.67 5.785 117.79 5.765C117.97 5.735 118.14 5.705 118.25 5.675C118.4 5.655 118.6 5.645 118.85 5.625C119.1 5.605 119.37 5.585 119.65 5.555C119.93 5.525 120.18 5.505 120.42 5.495C120.67 5.475 120.87 5.455 121.05 5.435C121.37 5.365 121.68 5.395 122 5.335C122.41 5.265 122.54 5.015 122.58 4.865C122.64 4.655 122.61 4.415 122.49 4.155C122.39 3.965 122.29 3.845 122.2 3.765C122.13 3.705 122.04 3.625 121.95 3.555C121.78 3.385 121.54 3.305 121.21 3.305C120.49 3.395 119.75 3.445 119 3.455C118.25 3.475 117.5 3.475 116.77 3.455C116.25 3.455 115.76 3.375 115.31 3.205C115.06 3.125 114.9 3.215 114.82 3.275C114.72 3.355 114.66 3.445 114.62 3.565C114.52 4.005 114.53 4.345 114.64 4.605C114.75 4.835 114.84 4.985 114.95 5.065V5.075Z"
              fill="#222222"/>
        <path d="M124.72 11.695C124.69 11.555 124.64 11.435 124.57 11.315C124.46 11.135 124.29 10.995 124.08 10.905C123.89 10.825 123.67 10.795 123.5 10.785C122.7 10.715 121.98 10.745 121.19 10.705C121.09 10.705 120.87 10.705 120.55 10.715C120.23 10.715 119.88 10.735 119.49 10.755C119.11 10.775 118.73 10.795 118.37 10.815C117.99 10.845 117.72 10.875 117.56 10.905C116.67 10.995 115.82 11.125 115.04 11.285C114.27 11.445 113.43 11.595 112.52 11.735C112.35 11.765 112.23 11.835 112.15 11.955C112.1 12.025 112.05 12.155 112.08 12.315C112.1 12.505 112.11 12.655 112.12 12.765C112.13 12.915 112.19 13.075 112.3 13.255C112.44 13.485 112.63 13.635 112.85 13.685C113.04 13.725 113.24 13.725 113.48 13.685C114.21 13.515 114.98 13.375 115.74 13.275C116.52 13.175 117.3 13.055 118.1 12.935C118.24 12.905 118.38 12.885 118.5 12.875C118.58 12.875 118.67 12.875 118.77 12.865C118.78 12.945 118.8 13.045 118.81 13.155C118.84 13.395 118.86 13.565 118.86 13.685C118.86 13.755 118.86 13.875 118.87 14.045L118.9 14.615C118.9 14.825 118.91 15.045 118.91 15.255C118.91 15.465 118.91 15.655 118.88 15.815C118.82 16.355 119.04 16.605 119.23 16.725C119.42 16.845 119.62 16.905 119.84 16.905C119.9 16.905 119.95 16.905 120.01 16.895C120.35 16.895 120.62 16.645 120.82 16.165C120.86 16.055 120.9 15.895 120.91 15.675C120.93 15.475 120.94 15.265 120.94 15.025C120.94 14.785 120.94 14.565 120.93 14.315C120.93 14.075 120.92 13.865 120.92 13.675C120.92 13.605 120.92 13.505 120.91 13.375L120.86 12.715H122.36C122.56 12.705 122.76 12.715 122.93 12.715C123.11 12.715 123.35 12.745 123.68 12.785C123.73 12.785 123.8 12.785 123.89 12.795C124.03 12.805 124.14 12.795 124.18 12.775C124.35 12.745 124.49 12.655 124.59 12.515C124.68 12.395 124.73 12.245 124.74 12.095C124.75 11.955 124.74 11.815 124.71 11.685L124.72 11.695Z"
              fill="#222222"/>
    </g>
    <defs>
        <clipPath id="clip0_3298_77193">
            <rect width="124.76" height="19.97" fill="white" transform="translate(0 0.0149994)"/>
        </clipPath>
    </defs>
</svg>
