<svg width="146" height="18" viewBox="0 0 146 18" fill="none" xmlns="http://www.w3.org/2000/svg">
    <g clip-path="url(#clip0_3298_77362)">
        <path d="M12.36 7.405C11.82 7.335 11.03 7.375 9.97004 7.535C8.58004 7.745 7.29004 7.835 6.10004 7.825C5.43004 7.825 5.05003 7.785 4.97004 7.695C4.89004 7.605 5.00004 7.375 5.31004 6.995C5.85004 6.325 6.24004 5.745 6.48004 5.275C6.61004 5.035 6.93004 5.035 7.43004 5.265C7.93004 5.495 8.47004 5.895 9.06004 6.465C9.43004 6.815 9.72003 7.015 9.94003 7.045C10.16 7.085 10.4 6.965 10.64 6.705C11.01 6.275 11.02 5.805 10.68 5.285C10.34 4.765 9.69004 4.265 8.72004 3.795C8.24004 3.565 7.96004 3.395 7.89004 3.295C7.82003 3.205 7.83004 2.985 7.90004 2.645C8.06004 1.855 7.90004 1.275 7.44004 0.905C7.34004 0.835 7.06004 0.775 6.61004 0.725C6.16004 0.675 5.76004 0.685 5.41004 0.725C5.25004 0.735 5.04004 0.765 4.77004 0.815C4.73004 0.825 4.63003 0.855 4.49004 0.885C4.35004 0.915 4.21004 0.945 4.07004 0.975C3.93004 1.005 3.81004 1.025 3.71004 1.045C3.27004 1.145 2.93004 1.215 2.70004 1.245C2.24004 1.285 1.95004 1.485 1.82004 1.835C1.69004 2.185 1.81004 2.475 2.17004 2.695C2.32004 2.785 2.65004 2.815 3.16004 2.785C3.67004 2.755 4.17004 2.675 4.66004 2.545C4.89004 2.485 5.08004 2.455 5.22004 2.435C5.36003 2.425 5.46004 2.435 5.52004 2.465C5.58004 2.505 5.60004 2.565 5.57004 2.665C5.55004 2.765 5.49004 2.885 5.38004 3.025C5.23004 3.235 5.09004 3.485 4.94004 3.795C4.79004 4.105 4.66004 4.335 4.54004 4.475C4.33004 4.735 4.19004 4.935 4.10004 5.065C3.98004 5.255 3.82004 5.465 3.62004 5.705C2.87004 6.515 2.85004 7.105 3.55004 7.485C3.87004 7.645 3.94004 7.755 3.75004 7.815C3.65004 7.845 3.30004 7.855 2.71004 7.845C2.12004 7.845 1.67004 7.815 1.38004 7.785C0.790035 7.715 0.380035 7.825 0.150035 8.125C-0.0799648 8.425 -0.0599649 8.795 0.240035 9.235C0.420035 9.515 0.760035 9.705 1.26004 9.795C1.77004 9.885 2.37004 9.885 3.07004 9.785C3.35004 9.755 4.07003 9.735 5.24004 9.715C6.41004 9.695 7.01004 9.715 7.06004 9.735C7.10004 9.765 7.13004 10.315 7.15004 11.385C7.15004 12.445 7.15004 13.035 7.17004 13.165C7.20004 13.265 7.19004 13.825 7.15004 14.835C7.12004 15.715 7.12004 16.255 7.15004 16.455C7.18004 16.655 7.29004 16.845 7.48004 17.035C7.67004 17.225 7.84004 17.345 8.00004 17.385C8.15003 17.425 8.33004 17.415 8.54004 17.345C8.86003 17.225 9.07003 17.065 9.16004 16.865C9.25004 16.665 9.28004 16.285 9.27004 15.745C9.23004 14.865 9.19003 13.805 9.16004 12.555C9.13004 11.305 9.12004 10.575 9.14004 10.355C9.17004 9.905 9.24004 9.625 9.36003 9.545C9.48003 9.455 9.82004 9.385 10.39 9.325C10.77 9.295 11.05 9.285 11.22 9.305C11.39 9.325 11.7 9.385 12.16 9.505C12.67 9.635 13.07 9.535 13.34 9.195C13.61 8.855 13.64 8.455 13.42 7.985C13.26 7.665 12.91 7.465 12.38 7.395L12.36 7.405Z"
              fill="#222222"/>
        <path d="M27.24 4.505C27.17 4.495 27.06 4.465 26.91 4.415C26.81 4.385 26.55 4.355 26.14 4.325C25.71 4.295 25.47 4.215 25.39 4.075C25.32 3.935 25.27 3.485 25.26 2.725C25.26 1.965 25.2 1.465 25.08 1.225C25.02 1.095 24.87 0.985001 24.62 0.905001C24.37 0.825001 24.16 0.815001 23.98 0.875001C23.7 0.945001 23.52 1.095 23.43 1.325C23.34 1.555 23.32 1.935 23.36 2.475C23.39 3.195 23.4 3.795 23.4 4.275C23.4 4.875 23.42 5.325 23.47 5.615C23.51 5.925 23.55 6.225 23.58 6.515C23.61 6.865 23.68 7.215 23.78 7.575C23.97 8.275 24.06 8.695 24.04 8.825C24.02 8.955 23.88 9.055 23.6 9.115C23.31 9.155 22.9 9.235 22.37 9.355C22.14 9.415 21.73 9.475 21.16 9.535C20.6 9.605 20.16 9.665 19.84 9.715C19.59 9.775 19.24 9.835 18.78 9.895C18.49 9.925 18.3 9.975 18.21 10.035C18.12 10.105 18.05 10.225 17.99 10.415C17.9 10.735 17.92 10.995 18.03 11.175C18.15 11.355 18.4 11.505 18.78 11.625C19.12 11.725 20.06 11.585 21.62 11.185C23.2 10.775 24.01 10.725 24.04 11.055C24.07 11.295 23.82 11.495 23.29 11.665C22.76 11.835 22.12 11.915 21.35 11.915C19.65 11.915 18.63 12.255 18.29 12.945C18.01 13.515 17.92 14.275 18.01 15.225C18.11 16.175 18.34 16.765 18.7 16.995C18.88 17.125 19.13 17.225 19.46 17.295C19.79 17.365 20.06 17.375 20.27 17.325C20.48 17.285 20.76 17.235 21.1 17.195C21.85 17.105 22.79 16.975 23.92 16.795C24.13 16.755 24.49 16.725 25.02 16.725C25.52 16.725 25.86 16.675 26.05 16.585C26.24 16.495 26.42 16.275 26.58 15.935C26.68 15.745 26.7 15.505 26.62 15.235C26.55 14.955 26.41 14.725 26.2 14.555C26.02 14.425 25.41 14.465 24.37 14.665C23.14 14.945 21.96 15.115 20.85 15.175C20.34 15.185 20.03 15.175 19.93 15.125C19.83 15.075 19.79 14.905 19.82 14.605C19.86 14.265 19.95 14.025 20.09 13.895C20.23 13.755 20.47 13.665 20.83 13.605C21.18 13.555 21.8 13.525 22.68 13.525C23.71 13.525 24.4 13.485 24.75 13.405C25.1 13.325 25.39 13.125 25.61 12.825C25.95 12.385 26.11 11.775 26.09 10.995C26.07 10.215 25.9 9.665 25.56 9.325C25.41 9.195 25.33 9.105 25.32 9.065C25.3 9.025 25.33 8.945 25.41 8.825C25.51 8.615 25.58 8.415 25.61 8.205C25.64 7.995 25.65 7.655 25.63 7.175C25.63 6.755 25.63 6.485 25.64 6.385C25.64 6.285 25.68 6.215 25.74 6.185C25.95 6.025 26.29 6.005 26.77 6.115C27.36 6.265 27.73 6.115 27.89 5.655C27.95 5.435 27.9 5.195 27.76 4.955C27.61 4.705 27.43 4.555 27.21 4.515L27.24 4.505Z"
              fill="#222222"/>
        <path d="M20.48 7.385C20.89 7.165 21.17 6.555 21.32 5.555C21.47 4.555 21.43 3.595 21.21 2.675C21.06 2.085 20.83 1.735 20.51 1.605C20.19 1.485 19.51 1.465 18.46 1.575C17.99 1.635 17.67 1.685 17.49 1.725C17.09 1.815 16.74 1.905 16.43 2.015C16.22 2.085 16.08 2.125 16 2.115C15.92 2.115 15.86 2.055 15.81 1.975C15.69 1.765 15.5 1.665 15.23 1.645C14.96 1.635 14.76 1.715 14.62 1.885C14.52 2.035 14.45 2.625 14.41 3.655C14.37 4.685 14.4 5.495 14.49 6.065C14.53 6.345 14.63 6.695 14.77 7.135C14.91 7.565 15.02 7.855 15.11 8.005C15.26 8.215 15.47 8.355 15.74 8.435C16.01 8.515 16.25 8.495 16.45 8.385C16.58 8.315 16.82 8.275 17.18 8.275C17.54 8.275 17.74 8.255 17.84 8.205C17.93 8.175 18.19 8.105 18.63 8.005C19.42 7.825 20.04 7.625 20.48 7.385ZM16.59 6.355C16.37 6.135 16.27 5.555 16.28 4.615L16.3 3.865L16.56 3.795C16.71 3.755 16.97 3.675 17.35 3.555C18.48 3.215 19.15 3.135 19.35 3.295C19.39 3.335 19.42 3.735 19.42 4.495C19.42 5.255 19.39 5.695 19.33 5.825C19.21 6.085 18.78 6.295 18.02 6.445C17.26 6.595 16.78 6.565 16.58 6.355H16.59Z"
              fill="#222222"/>
        <path d="M40.71 10.265C40.67 9.755 40.64 8.685 40.61 7.055C40.58 4.975 40.55 3.895 40.52 3.825C40.39 3.595 40.18 3.425 39.88 3.345C39.59 3.255 39.36 3.275 39.2 3.415C39.07 3.535 38.98 3.685 38.95 3.875C38.91 4.065 38.89 4.525 38.87 5.265C38.86 6.105 38.82 6.545 38.76 6.585C38.66 6.705 38.08 6.775 37.02 6.805C36.36 6.835 35.98 6.835 35.86 6.795C35.75 6.755 35.68 6.625 35.65 6.385C35.62 6.045 35.48 5.685 35.23 5.295C34.98 4.905 34.75 4.665 34.53 4.585C34.4 4.525 34.27 4.475 34.16 4.435C34.1 4.395 33.98 4.315 33.79 4.215C33.61 4.125 33.39 4.095 33.11 4.105C32.9 4.115 32.77 4.115 32.7 4.095C32.63 4.075 32.55 4.015 32.45 3.925C32.14 3.665 31.65 3.715 30.99 4.105C30.32 4.485 29.85 4.975 29.57 5.575C29 6.795 28.75 7.985 28.83 9.165C28.91 10.335 29.29 11.235 29.96 11.845C30.24 12.095 30.53 12.295 30.84 12.435C31.15 12.585 31.39 12.645 31.57 12.615C33.12 12.385 34.23 11.825 34.89 10.945C35.07 10.715 35.24 10.385 35.42 9.965C35.6 9.545 35.68 9.245 35.68 9.055C35.68 8.845 35.72 8.725 35.8 8.685C35.88 8.645 36.12 8.615 36.51 8.615C36.98 8.615 37.38 8.555 37.72 8.435C38.28 8.255 38.6 8.225 38.7 8.325C38.79 8.425 38.83 8.855 38.82 9.605C38.81 10.895 38.91 11.915 39.13 12.665C39.35 13.415 39.66 13.785 40.05 13.785C40.47 13.785 40.77 13.615 40.93 13.265C41.09 12.915 41.1 12.435 40.95 11.825C40.82 11.315 40.73 10.795 40.7 10.285L40.71 10.265ZM33.97 8.325C33.9 8.535 33.85 8.725 33.84 8.895C33.8 9.215 33.66 9.515 33.42 9.785C33.18 10.055 32.92 10.265 32.64 10.415C32.36 10.565 32.05 10.635 31.74 10.625C31.42 10.625 31.17 10.515 30.98 10.305C30.82 10.125 30.72 9.785 30.67 9.275C30.63 8.765 30.67 8.285 30.8 7.845C30.84 7.635 30.9 7.365 30.98 7.035C31.07 6.445 31.22 6.055 31.44 5.845C31.66 5.635 31.91 5.645 32.19 5.865C32.42 6.075 32.69 6.155 32.98 6.105C33.52 6.045 33.79 6.255 33.79 6.745C33.79 6.875 33.84 7.045 33.94 7.255C34.1 7.595 34.11 7.955 33.96 8.335L33.97 8.325Z"
              fill="#222222"/>
        <path d="M43.72 6.905C43.68 5.705 43.61 4.875 43.52 4.415C43.42 3.945 43.37 3.695 43.37 3.665C43.37 3.635 43.3 3.555 43.17 3.425C42.88 3.115 42.57 3.065 42.25 3.275C42.02 3.405 41.85 3.595 41.74 3.845C41.68 4.005 41.67 4.725 41.72 6.005C41.77 7.285 41.84 8.395 41.96 9.345C41.99 9.695 42.02 10.105 42.05 10.575C42.21 13.055 42.41 14.405 42.64 14.645C42.8 14.835 42.99 14.945 43.21 14.985C43.43 15.025 43.63 14.985 43.8 14.865C44.03 14.685 44.17 14.505 44.22 14.325C44.27 14.145 44.25 13.775 44.18 13.215C43.94 11.395 43.79 9.295 43.72 6.905Z"
              fill="#222222"/>
        <path d="M52.49 3.855C52.49 4.065 52.51 4.295 52.55 4.535C52.59 4.775 52.62 4.955 52.65 5.075C52.68 5.195 52.74 5.315 52.84 5.445C52.94 5.575 53.02 5.665 53.1 5.705C53.18 5.745 53.32 5.795 53.51 5.835C53.7 5.875 53.87 5.895 54.03 5.895C54.18 5.895 54.42 5.865 54.73 5.825C55.05 5.785 55.34 5.745 55.61 5.705C55.88 5.665 56.25 5.605 56.72 5.525C56.97 5.485 57.38 5.405 57.95 5.285C58.82 5.125 59.52 5.045 60.06 5.045C60.63 5.055 61.03 4.915 61.25 4.615C61.47 4.315 61.46 3.945 61.21 3.505C61.03 3.215 60.74 3.045 60.33 2.995C59.92 2.955 59.24 3.035 58.28 3.235C57.66 3.355 57.33 3.415 57.29 3.435C56.64 3.555 56.18 3.625 55.9 3.655C55.65 3.695 55.39 3.755 55.13 3.805C54.78 3.875 54.56 3.885 54.49 3.825C54.42 3.765 54.37 3.555 54.34 3.185C54.25 1.955 54.13 1.215 53.97 0.964999C53.85 0.754999 53.65 0.634999 53.36 0.594999C53.07 0.554999 52.86 0.604999 52.71 0.774999C52.56 0.924999 52.48 1.085 52.47 1.275C52.46 1.465 52.46 2.025 52.47 2.985C52.48 3.355 52.49 3.645 52.49 3.855Z"
              fill="#222222"/>
        <path d="M63.8699 7.345C63.8699 7.345 63.5999 7.305 63.1899 7.305C62.7799 7.305 62.4399 7.305 62.1799 7.325C61.2999 7.395 60.4699 7.505 59.6899 7.635C58.9099 7.755 58.2199 7.815 57.6199 7.815C57.0899 7.815 55.9799 7.885 54.2799 8.015C53.5499 8.075 53.1399 8.095 53.0699 8.085H51.9699C51.4099 8.095 51.0399 8.155 50.8599 8.235C50.6799 8.315 50.5599 8.495 50.5199 8.765C50.4299 9.295 50.6799 9.665 51.2699 9.875C51.8599 10.085 52.6499 10.095 53.6499 9.905C53.9399 9.845 54.4299 9.815 55.0999 9.795C55.7699 9.765 56.3499 9.725 56.8399 9.665C57.3999 9.625 57.7099 9.615 57.7799 9.655C57.8499 9.695 57.8699 9.895 57.8599 10.265C57.8299 10.665 57.8199 10.925 57.8199 11.055C57.8199 11.125 57.8299 11.635 57.8599 12.575C57.8699 13.485 57.8599 14.375 57.8199 15.235C57.7799 16.015 57.7799 16.495 57.8299 16.685C57.8799 16.875 58.0399 17.065 58.2999 17.235C58.4499 17.325 58.6299 17.375 58.8399 17.395C59.0499 17.415 59.1999 17.395 59.2699 17.315C59.3099 17.275 59.3699 17.245 59.4199 17.245C59.5799 17.245 59.7199 17.135 59.8299 16.915C59.9399 16.695 59.9899 16.445 59.9699 16.165C59.9599 15.735 59.9299 14.945 59.8799 13.785C59.8699 13.125 59.8399 12.275 59.8099 11.235C59.7699 10.165 59.8999 9.565 60.2099 9.455C60.4199 9.365 60.8899 9.335 61.6399 9.345C62.3899 9.355 62.9399 9.415 63.2899 9.495C63.5199 9.555 63.7699 9.495 64.0399 9.345C64.2999 9.185 64.4599 8.985 64.4999 8.755C64.5299 8.535 64.4699 8.265 64.3299 7.955C64.1899 7.645 64.0399 7.435 63.8799 7.345H63.8699Z"
              fill="#222222"/>
        <path d="M80.59 13.015C80.55 12.535 80.49 12.095 80.44 11.715C80.38 11.365 80.34 10.765 80.31 9.935C80.3 9.155 80.27 8.585 80.22 8.215C80.18 7.925 80.15 7.275 80.15 6.275C80.14 5.175 80.11 4.445 80.06 4.085C80.01 3.725 79.92 3.495 79.77 3.395C79.7 3.355 79.55 3.315 79.33 3.295C79.11 3.275 78.96 3.275 78.87 3.305C78.72 3.375 78.58 3.535 78.45 3.775C78.32 4.015 78.25 4.245 78.25 4.465V5.455C78.23 6.965 78.27 7.915 78.36 8.315C78.52 9.255 78.54 9.785 78.43 9.925C78.24 10.115 76.9 10.315 74.4 10.515C74.11 10.525 73.91 10.555 73.81 10.605C73.71 10.655 73.6 10.745 73.48 10.895C73.38 11.015 73.31 11.075 73.28 11.085C73.25 11.085 73.21 11.065 73.15 11.005C73.09 10.945 73.03 10.795 72.97 10.565C72.91 10.335 72.9 10.175 72.93 10.105C72.97 9.985 73.53 9.855 74.6 9.705C75.32 9.605 75.81 9.455 76.06 9.275C76.31 9.095 76.41 8.825 76.34 8.475C76.27 8.075 76.04 7.845 75.65 7.755C75.26 7.675 74.63 7.725 73.75 7.925C73.15 8.055 72.47 8.165 71.73 8.235C70.64 8.365 69.35 8.435 67.86 8.435C66.79 8.445 66.15 8.475 65.96 8.505C65.77 8.535 65.6 8.625 65.49 8.795C65.34 9.025 65.34 9.315 65.47 9.655C65.6 9.995 65.82 10.215 66.13 10.335C66.28 10.405 66.57 10.455 67.02 10.465C67.47 10.475 67.86 10.465 68.2 10.395C68.58 10.335 68.9 10.305 69.17 10.305C69.46 10.305 69.75 10.275 70.03 10.215H70.12C70.59 10.125 70.86 10.135 70.95 10.245C71.03 10.355 71.09 10.795 71.14 11.555V11.685C71.26 13.665 71.34 14.735 71.38 14.895C71.41 15.015 71.44 15.185 71.47 15.425C71.5 15.735 71.63 15.985 71.87 16.175C72.11 16.365 72.36 16.445 72.63 16.415C72.9 16.385 73.1 16.235 73.23 15.975C73.42 15.575 73.47 15.175 73.38 14.765C73.13 13.435 73.09 12.685 73.27 12.525C73.33 12.465 73.63 12.415 74.17 12.375C74.74 12.335 75.17 12.285 75.45 12.225C75.54 12.215 75.67 12.185 75.84 12.145C76.01 12.105 76.11 12.085 76.14 12.085C76.36 12.045 76.7 11.985 77.15 11.905C77.63 11.845 77.93 11.795 78.05 11.755C78.34 11.635 78.51 11.645 78.57 11.765C78.62 11.885 78.66 12.365 78.69 13.205C78.7 14.045 78.74 14.575 78.8 14.815C78.87 15.125 78.93 15.375 78.98 15.585C79.08 16.175 79.34 16.515 79.75 16.615C80.16 16.715 80.55 16.545 80.92 16.085C81.18 15.745 81.21 15.295 81.01 14.725C80.86 14.325 80.74 13.755 80.64 13.005L80.59 13.015Z"
              fill="#222222"/>
        <path d="M67.66 6.655C68.03 6.965 68.47 7.215 68.97 7.425C69.39 7.605 70.04 7.575 70.91 7.335C70.95 7.325 71.03 7.295 71.13 7.265C71.23 7.235 71.31 7.225 71.35 7.225C72.51 6.965 73.26 6.725 73.59 6.525C73.93 6.315 74.24 5.905 74.54 5.295C74.75 4.855 74.79 4.335 74.68 3.735C74.57 3.135 74.33 2.655 73.97 2.305C73.72 2.075 73.29 1.895 72.68 1.765C72.07 1.645 71.53 1.625 71.06 1.715C70.9 1.755 70.73 1.725 70.55 1.625C70.27 1.475 69.95 1.475 69.58 1.605C69.37 1.675 69.14 1.795 68.88 1.955C68.5 2.175 68.23 2.325 68.09 2.395C67.49 2.715 67.08 3.185 66.87 3.805C66.66 4.425 66.68 5.075 66.95 5.765C67.05 6.055 67.29 6.355 67.66 6.665V6.655ZM69.15 3.975C69.5 3.695 69.87 3.615 70.25 3.735C70.48 3.795 70.66 3.815 70.77 3.805C70.88 3.795 71.11 3.715 71.46 3.585C71.58 3.525 71.75 3.505 71.97 3.505C72.19 3.505 72.35 3.545 72.45 3.605C72.66 3.695 72.78 3.835 72.82 4.035C72.86 4.235 72.82 4.415 72.67 4.595C72.48 4.855 72.34 4.995 72.25 4.995C72.22 4.995 72.04 5.065 71.72 5.215C71.29 5.425 71.01 5.545 70.85 5.585C70.69 5.625 70.41 5.665 69.98 5.695C69.39 5.725 69.02 5.695 68.86 5.615C68.7 5.535 68.62 5.335 68.62 5.005C68.62 4.595 68.8 4.255 69.15 3.975Z"
              fill="#222222"/>
        <path d="M96.19 12.265C96.16 11.855 96.11 11.295 96.04 10.575C95.95 9.735 95.87 8.165 95.8 5.845C95.74 4.235 95.64 3.315 95.49 3.095C95.39 2.935 95.2 2.805 94.93 2.725C94.66 2.645 94.44 2.635 94.28 2.705C93.84 2.885 93.64 3.405 93.69 4.265C93.7 4.415 93.72 4.605 93.73 4.835C93.77 5.615 93.79 6.065 93.79 6.195C93.79 6.325 93.74 6.405 93.67 6.415L93.63 6.435C93.47 6.495 93.12 6.545 92.6 6.585C91.72 6.655 90.94 6.735 90.27 6.825C89.99 6.855 89.65 6.865 89.26 6.865C88.87 6.865 88.6 6.895 88.52 6.965C88.44 7.035 88.4 7.235 88.4 7.575C88.4 7.915 88.45 8.185 88.54 8.355C88.63 8.525 88.81 8.635 89.06 8.695C89.19 8.725 89.49 8.725 89.96 8.685C90.43 8.645 90.8 8.605 91.08 8.545C91.3 8.485 91.5 8.445 91.67 8.415C91.96 8.375 92.44 8.295 93.1 8.175C93.51 8.105 93.75 8.085 93.83 8.135C93.9 8.175 93.95 8.385 93.98 8.755C94.05 9.675 94.13 10.565 94.22 11.415C94.28 11.955 94.31 12.315 94.31 12.495C94.3 12.815 94.31 13.295 94.35 13.925C94.39 14.555 94.44 14.915 94.48 15.005C94.58 15.215 94.79 15.355 95.11 15.435C95.43 15.515 95.69 15.495 95.89 15.355C96.18 15.165 96.37 14.935 96.44 14.675C96.51 14.415 96.49 14.035 96.37 13.555C96.28 13.275 96.22 12.855 96.19 12.275V12.265Z"
              fill="#222222"/>
        <path d="M88.91 9.235C88.56 8.645 88.29 8.245 88.11 8.035C87.93 7.825 87.67 7.635 87.35 7.475C87.19 7.385 87.09 7.305 87.06 7.245C87.03 7.175 87.04 7.045 87.08 6.835C87.12 6.605 87.2 6.245 87.3 5.755C87.4 5.275 87.5 4.925 87.59 4.725C87.81 4.245 87.78 3.805 87.5 3.415C87.22 3.025 86.88 2.955 86.47 3.205C86.31 3.305 86.14 3.495 85.96 3.775C85.78 4.055 85.7 4.285 85.7 4.455C85.7 4.555 85.63 4.775 85.5 5.095C85.28 5.625 85.05 6.255 84.82 6.985C84.72 7.325 84.42 8.135 83.94 9.425C83.76 9.865 83.62 10.265 83.5 10.635C83.38 11.015 83.27 11.305 83.17 11.515C82.99 11.995 82.95 12.405 83.03 12.735C83.11 13.065 83.31 13.275 83.62 13.355C83.94 13.435 84.27 13.325 84.62 13.035C84.81 12.855 84.98 12.485 85.13 11.915C85.23 11.575 85.36 11.225 85.5 10.855C85.68 10.475 85.82 10.045 85.94 9.555C85.98 9.365 86.04 9.255 86.09 9.225C86.21 9.165 86.48 9.425 86.9 9.995C87.35 10.615 87.86 11.165 88.43 11.645C88.99 12.125 89.41 12.375 89.67 12.375C90.05 12.375 90.31 12.235 90.45 11.955C90.59 11.675 90.53 11.405 90.28 11.145C89.8 10.645 89.33 10.005 88.89 9.235H88.91Z"
              fill="#222222"/>
        <path d="M117.33 7.255C117.3 5.755 117.27 4.805 117.25 4.395C117.23 3.985 117.17 3.725 117.08 3.605C116.93 3.385 116.72 3.235 116.45 3.165C116.18 3.095 115.95 3.115 115.78 3.235C115.54 3.395 115.38 3.625 115.28 3.925C115.18 4.225 115.17 4.525 115.25 4.815C115.31 5.035 115.35 5.565 115.37 6.415C115.39 7.255 115.38 7.705 115.34 7.745C115.3 7.785 115.08 7.855 114.68 7.955C114.28 8.055 114.01 8.095 113.84 8.095C113.66 8.095 113.56 8.025 113.53 7.885C113.5 7.745 113.49 7.255 113.49 6.395V6.305C113.5 5.085 113.45 4.285 113.32 3.905C113.2 3.525 112.92 3.285 112.49 3.175C112.14 3.105 111.89 3.235 111.73 3.575C111.58 3.915 111.5 4.485 111.5 5.295C111.51 6.075 111.51 7.255 111.5 8.835C111.5 10.845 111.5 12.025 111.51 12.375C111.51 12.725 111.54 12.965 111.59 13.075C111.69 13.285 111.89 13.415 112.18 13.485C112.47 13.555 112.76 13.515 113.04 13.385C113.2 13.295 113.31 13.205 113.36 13.125C113.41 13.035 113.44 12.905 113.46 12.715C113.47 12.535 113.48 12.135 113.48 11.515C113.47 10.705 113.48 10.235 113.51 10.085C113.55 9.935 113.65 9.855 113.83 9.825C114.01 9.795 114.22 9.745 114.47 9.675C115.01 9.525 115.31 9.495 115.37 9.585C115.4 9.625 115.41 10.205 115.41 11.305C115.42 12.425 115.45 13.055 115.48 13.215C115.48 13.245 115.52 13.505 115.61 13.985C115.67 14.335 115.77 14.585 115.92 14.735C116.07 14.885 116.29 14.955 116.58 14.955C117.01 14.955 117.31 14.795 117.48 14.475C117.66 14.155 117.69 13.705 117.57 13.135C117.45 12.655 117.36 10.695 117.31 7.265L117.33 7.255Z"
              fill="#222222"/>
        <path d="M108.42 3.935C108.32 3.895 108.2 3.865 108.06 3.845C107.92 3.825 107.84 3.845 107.81 3.885C107.78 3.915 107.49 3.935 106.93 3.955C106.26 3.995 105.64 4.085 105.08 4.215C104.84 4.275 104.48 4.335 103.98 4.395C103.45 4.465 103.11 4.565 102.96 4.695C102.81 4.815 102.73 5.055 102.73 5.405C102.73 5.825 102.9 6.095 103.23 6.195C103.56 6.295 104.11 6.255 104.87 6.065C105.27 5.965 105.57 5.885 105.79 5.845C106.08 5.805 106.27 5.765 106.36 5.735C106.49 5.695 106.65 5.675 106.84 5.675C107.03 5.675 107.13 5.705 107.15 5.735C107.18 5.795 107.16 6.035 107.1 6.465C107.03 6.895 106.96 7.275 106.87 7.605C106.78 8.015 106.72 8.305 106.69 8.465C106.63 8.755 106.54 9.235 106.43 9.895C106.36 10.205 106.31 10.625 106.28 11.145C106.25 11.675 106.22 11.995 106.19 12.115C106.07 12.425 106.05 12.745 106.12 13.085C106.19 13.425 106.33 13.625 106.54 13.705C107.04 13.895 107.45 13.775 107.76 13.335C108.08 12.895 108.23 12.235 108.23 11.355C108.23 10.905 108.26 10.495 108.31 10.135C108.36 9.775 108.48 9.175 108.67 8.345C108.99 6.985 109.13 5.945 109.09 5.245C109.05 4.545 108.83 4.105 108.43 3.945L108.42 3.935Z"
              fill="#222222"/>
        <path d="M131.01 6.215C130.64 6.225 130.42 6.225 130.33 6.215C130.24 6.215 130.23 6.205 130.29 6.175C130.52 6.045 130.68 5.925 130.75 5.825C130.82 5.725 130.87 5.485 130.9 5.095C130.93 4.715 130.91 4.165 130.86 3.445C130.83 2.575 130.8 1.985 130.76 1.675C130.72 1.355 130.66 1.125 130.58 0.984998C130.5 0.834998 130.36 0.714998 130.15 0.614998C129.99 0.544998 129.79 0.494998 129.55 0.474998C129.31 0.454998 129.13 0.474998 129.03 0.524998C128.97 0.554998 128.72 0.594998 128.28 0.634998C127.65 0.704998 127.28 0.754998 127.18 0.764998C126.65 0.834998 126.31 0.874998 126.17 0.864998C126.02 0.864998 125.86 0.804998 125.69 0.694998C125.38 0.514998 125.08 0.414998 124.79 0.384998C124.5 0.354998 123.95 0.374998 123.14 0.424998C122.55 0.464998 122.03 0.524998 121.58 0.604998C121.46 0.614998 121.29 0.644998 121.07 0.684998C120.85 0.724998 120.71 0.744998 120.65 0.744998C120.28 0.804998 120.01 0.954998 119.84 1.195C119.66 1.435 119.64 1.695 119.77 1.975C119.87 2.185 120.06 2.295 120.32 2.315C120.58 2.335 121.09 2.295 121.84 2.195C121.91 2.185 122.16 2.135 122.59 2.065C122.91 2.025 123.15 1.985 123.3 1.965C123.45 1.945 123.61 1.955 123.76 1.985C123.91 2.025 124.02 2.075 124.07 2.135C124.12 2.205 124.16 2.335 124.19 2.535C124.22 2.735 124.23 2.935 124.22 3.135C124.22 3.345 124.19 3.645 124.14 4.055C124.07 5.025 124.08 5.695 124.18 6.065C124.28 6.435 124.52 6.655 124.88 6.715C125 6.735 125.06 6.755 125.06 6.785C125.06 6.845 124.88 6.905 124.51 6.965C124.38 6.975 124.09 7.025 123.65 7.095C123.47 7.135 122.84 7.185 121.75 7.225C120.66 7.265 120.07 7.315 119.98 7.355C119.67 7.515 119.52 7.745 119.52 8.045C119.52 8.345 119.68 8.575 120 8.735C120.18 8.835 120.66 8.915 121.45 8.975C122.24 9.035 122.7 9.035 122.81 8.975C122.82 8.945 123.12 8.905 123.69 8.845C124.22 8.785 124.68 8.725 125.08 8.665C125.14 8.665 125.22 8.665 125.32 8.645C126.11 8.525 126.58 8.485 126.72 8.515C126.86 8.545 126.94 8.725 126.97 9.045V9.135C127 9.395 127.02 9.565 127.04 9.615C127.06 9.665 127.04 9.735 126.97 9.815C126.91 9.875 126.62 9.955 126.09 10.055C126.02 10.055 125.92 10.065 125.79 10.085C125.67 10.105 125.56 10.125 125.46 10.155C125.36 10.185 125.29 10.185 125.25 10.185C125.09 10.215 124.85 10.255 124.55 10.295C124.27 10.335 123.89 10.415 123.39 10.535C122.9 10.655 122.51 10.715 122.21 10.735C121.93 10.745 121.73 10.805 121.62 10.885C121.51 10.965 121.41 11.145 121.33 11.395C121.18 11.875 121.27 12.195 121.59 12.345C121.91 12.495 122.46 12.465 123.22 12.275C123.68 12.155 124.07 12.065 124.41 12.015C124.7 11.985 124.94 11.945 125.11 11.905C125.15 11.905 125.41 11.865 125.88 11.775C125.94 11.765 126.1 11.725 126.36 11.675C126.62 11.625 126.81 11.585 126.93 11.555C127.87 11.375 128.51 11.315 128.87 11.355C129.1 11.395 129.24 11.435 129.28 11.455C129.32 11.475 129.33 11.525 129.33 11.595C129.33 11.815 129.21 11.975 128.98 12.075C128.74 12.175 128.26 12.275 127.53 12.365C127.06 12.435 126.79 12.485 126.72 12.495C126.51 12.525 126.23 12.535 125.86 12.535C125.21 12.535 124.54 12.575 123.82 12.645C123.11 12.715 122.7 12.795 122.6 12.865C122.59 12.895 122.46 12.965 122.23 13.085C121.99 13.235 121.85 13.375 121.8 13.525C121.75 13.675 121.72 14.065 121.7 14.715C121.69 15.995 121.85 16.815 122.21 17.185C122.56 17.565 123.29 17.685 124.39 17.545C124.95 17.485 125.48 17.425 126 17.365C126.54 17.325 126.98 17.265 127.32 17.185C128.73 16.955 129.67 16.855 130.14 16.895C130.51 16.935 130.77 16.945 130.93 16.925C131.09 16.905 131.27 16.845 131.48 16.765C131.85 16.605 132.07 16.435 132.14 16.265C132.21 16.095 132.18 15.875 132.05 15.595C131.87 15.215 131.65 14.985 131.38 14.905C131.11 14.825 130.64 14.845 129.96 14.985C129.77 15.015 129.34 15.085 128.68 15.205C127.35 15.455 126.04 15.605 124.76 15.645C124.23 15.675 123.92 15.665 123.81 15.625C123.71 15.585 123.67 15.455 123.7 15.255C123.74 14.855 123.81 14.595 123.9 14.465C123.99 14.335 124.16 14.255 124.41 14.245C124.44 14.235 124.61 14.205 124.92 14.175C125.23 14.145 125.47 14.125 125.65 14.105C126.24 14.045 127.01 14.015 127.96 14.015C128.5 14.015 128.94 14.015 129.26 13.995C129.58 13.975 129.89 13.945 130.17 13.895C130.46 13.845 130.67 13.785 130.8 13.705C130.93 13.625 131.06 13.515 131.17 13.345C131.29 13.175 131.37 13.005 131.41 12.815C131.45 12.635 131.49 12.375 131.52 12.055C131.68 10.755 131.52 9.925 131.04 9.565C130.89 9.445 130.42 9.425 129.61 9.495C129.27 9.525 129.07 9.515 129 9.465C128.93 9.415 128.9 9.245 128.9 8.965C128.9 8.455 128.98 8.175 129.14 8.125C129.52 8.025 130.23 7.975 131.25 7.975C131.79 7.975 132.16 7.915 132.34 7.805C132.52 7.695 132.62 7.485 132.62 7.175C132.62 6.765 132.5 6.485 132.27 6.335C132.04 6.185 131.61 6.125 130.99 6.155L131.01 6.215ZM127.97 6.585C126.71 6.705 126 6.765 125.84 6.765C125.71 6.765 125.69 6.725 125.77 6.635C125.9 6.485 125.99 6.315 126.02 6.105C126.06 5.895 126.08 5.435 126.1 4.695C126.13 3.505 126.21 2.865 126.34 2.755C126.47 2.655 126.94 2.535 127.75 2.405C128.07 2.365 128.34 2.365 128.56 2.405C128.74 2.445 128.84 2.505 128.87 2.555C129 2.905 129.07 3.435 129.07 4.135C129.07 4.535 129.1 4.815 129.16 4.995C129.2 5.125 129.26 5.315 129.31 5.565C129.35 5.715 129.43 5.845 129.53 5.975C129.63 6.095 129.74 6.165 129.84 6.185C129.88 6.195 129.91 6.215 129.91 6.225C129.9 6.345 129.25 6.455 127.97 6.575V6.585Z"
              fill="#222222"/>
        <path d="M145.6 14.755C145.35 14.375 145.05 14.235 144.7 14.335C144.49 14.395 144.23 14.435 143.91 14.465C143.59 14.475 143.35 14.505 143.21 14.555C143.02 14.615 142.75 14.675 142.4 14.755C141.99 14.855 141.71 14.925 141.56 14.955C141.21 15.045 140.54 15.125 139.57 15.195C138.6 15.265 138.07 15.285 138 15.235C137.87 15.145 137.74 14.615 137.63 13.625C137.62 13.435 137.58 13.275 137.52 13.145C137.45 12.985 137.26 12.845 136.96 12.725C136.66 12.605 136.46 12.595 136.36 12.685C136.05 12.935 135.9 13.465 135.9 14.265C135.9 15.065 136.06 15.795 136.38 16.425C136.57 16.845 136.81 17.095 137.09 17.175C137.38 17.245 138 17.245 138.97 17.155C139.63 17.115 140.1 17.055 140.38 16.975C140.92 16.855 141.39 16.775 141.79 16.735C142.08 16.695 142.46 16.635 142.93 16.555C143.43 16.485 143.88 16.445 144.29 16.445C144.95 16.445 145.41 16.275 145.68 15.935C145.94 15.595 145.92 15.205 145.61 14.745L145.6 14.755Z"
              fill="#222222"/>
        <path d="M136.26 3.075C136.26 3.225 136.22 3.505 136.12 3.915C136.08 4.135 136.04 4.615 136.02 5.365C136 6.115 136.01 6.565 136.05 6.705C136.14 7.025 136.29 7.315 136.5 7.565C136.71 7.815 136.93 7.965 137.15 8.025C137.27 8.055 137.57 8.055 138.05 8.035C138.53 8.015 138.84 7.975 138.97 7.935C139.13 7.905 139.26 7.875 139.37 7.845C139.55 7.815 139.79 7.775 140.12 7.715C140.41 7.645 140.93 7.605 141.66 7.605L142.78 7.585L143 7.325C143.23 7.095 143.36 6.805 143.38 6.455C143.4 6.105 143.31 5.845 143.1 5.655C142.95 5.525 142.58 5.475 141.98 5.515C141.38 5.555 140.82 5.655 140.31 5.835C139.68 6.045 139.08 6.145 138.51 6.145C138.16 6.145 137.93 6.125 137.84 6.095C137.74 6.055 137.7 5.965 137.7 5.815C137.7 5.665 137.73 5.575 137.8 5.525C137.87 5.485 138.02 5.455 138.27 5.435C138.58 5.405 138.88 5.355 139.17 5.285C139.51 5.215 139.83 5.155 140.14 5.105C140.57 5.065 140.84 4.985 140.97 4.875C141.09 4.765 141.16 4.545 141.18 4.205C141.22 3.825 141.2 3.565 141.1 3.435C141 3.305 140.82 3.275 140.56 3.345C140.38 3.405 140.17 3.455 139.92 3.495C139.66 3.555 139.48 3.595 139.39 3.625C139.14 3.695 138.92 3.745 138.73 3.755C138.2 3.815 137.97 3.725 138.03 3.495C138.1 3.125 138.17 2.905 138.24 2.825C138.31 2.745 138.48 2.685 138.76 2.655C139.1 2.595 139.34 2.555 139.49 2.525C139.84 2.465 140.19 2.475 140.55 2.545C140.93 2.635 141.25 2.595 141.5 2.435C141.75 2.275 141.86 2.035 141.83 1.735C141.8 1.365 141.65 1.115 141.39 0.965C141.29 0.925 140.82 0.885 139.99 0.865C139.16 0.845 138.73 0.855 138.68 0.895C138.67 0.915 138.39 0.945 137.84 1.005C136.67 1.125 136.03 1.245 135.93 1.375C135.64 1.715 135.69 2.135 136.08 2.625C136.2 2.775 136.26 2.915 136.27 3.065L136.26 3.075Z"
              fill="#222222"/>
        <path d="M138.57 11.115C139.68 11.065 140.25 11.055 140.3 11.105C140.39 11.195 140.45 11.875 140.48 13.155C140.49 13.475 140.52 13.675 140.56 13.755C140.6 13.835 140.7 13.925 140.86 14.005C141.42 14.285 141.78 14.325 141.95 14.135C142.12 13.945 142.22 13.365 142.25 12.395C142.28 11.555 142.35 11.055 142.46 10.875C142.57 10.695 142.89 10.565 143.42 10.475C144.09 10.375 144.43 9.995 144.43 9.335C144.43 8.925 144.32 8.655 144.11 8.535C143.9 8.415 143.5 8.395 142.91 8.485C142.69 8.515 142.37 8.605 141.94 8.745C141.27 8.975 140.5 9.145 139.65 9.225C139.36 9.255 139.06 9.295 138.77 9.335C138.45 9.375 137.52 9.455 136 9.555C135.15 9.615 134.56 9.685 134.24 9.765C133.92 9.845 133.71 9.965 133.62 10.125C133.44 10.465 133.49 10.795 133.76 11.135C134.03 11.475 134.35 11.595 134.72 11.505C134.88 11.475 135.2 11.435 135.69 11.395C136.18 11.355 136.47 11.305 136.59 11.265C136.81 11.205 137.47 11.155 138.58 11.095L138.57 11.115Z"
              fill="#222222"/>
    </g>
    <defs>
        <clipPath id="clip0_3298_77362">
            <rect width="145.85" height="17.25" fill="white" transform="translate(0 0.375)"/>
        </clipPath>
    </defs>
</svg>
