<svg width="120" height="26" viewBox="0 0 120 26" fill="none" xmlns="http://www.w3.org/2000/svg">
<g clip-path="url(#clip0_3213_24025)">
<path d="M0.492576 0.57312C4.37845 0.731231 6.56768 0.974478 7.06634 1.30286L8.52582 1.05961H9.0184C11.2563 1.05961 12.5576 2.44004 12.9225 5.2009V7.39013C12.6549 8.03473 12.0833 8.36312 11.2137 8.36312C10.6238 8.09555 10.1373 6.63606 9.75422 3.97858H7.80216C7.47986 4.02723 7.32175 4.19142 7.32175 4.47116V7.15296C7.32175 7.99216 7.07242 8.47866 6.57984 8.61245H6.09943C5.21157 8.61245 4.64602 8.12595 4.39061 7.15296C4.55481 5.76645 4.63994 4.62927 4.63994 3.74142C1.54462 3.44952 0 2.95694 0 2.27585V1.0657C0.0547307 0.737312 0.218923 0.57312 0.492576 0.57312ZM2.19531 9.34827L3.90412 9.59152H6.09335C7.38864 9.59152 9.09137 9.51246 11.2076 9.34827L11.7002 9.59152C11.986 9.4334 12.3083 9.34827 12.6732 9.34827H12.9225C14.2178 9.34827 14.8624 9.91382 14.8624 11.051C14.5401 11.8659 14.0536 12.2733 13.4029 12.2733C13.2448 12.2733 13.1597 12.1943 13.1597 12.0301L11.9374 12.2733H9.50489V13.7328C9.50489 14.0612 10.3988 14.3044 12.1867 14.4625C12.8313 15.3322 13.1597 16.0619 13.1597 16.6518V18.1113C13.1597 19.8018 11.3718 20.8599 7.79608 21.2796V21.5228L9.0184 21.7721H11.4509C12.1502 21.7721 12.6428 22.0944 12.9225 22.7451C12.4421 23.8823 11.7063 24.4478 10.7211 24.4478H9.51097C5.77713 24.1073 3.9102 22.8911 3.9102 20.7931C3.9102 19.1694 5.69199 18.3606 9.26164 18.3606C10.0765 17.8072 10.484 17.3998 10.484 17.1383L9.99139 16.895C7.04201 17.0531 5.17509 17.1383 4.39061 17.1383C3.41763 16.7612 2.93113 16.1896 2.93113 15.4295C3.17438 14.7848 3.41763 14.4565 3.66087 14.4565H6.82917C6.82917 14.1281 6.90823 13.9639 7.07242 13.9639C6.91431 13.7206 6.82917 13.2341 6.82917 12.5044H5.36969C2.76694 12.401 1.46557 11.9145 1.46557 11.0449V10.0719C1.46557 9.94422 1.70881 9.6949 2.19531 9.34219V9.34827Z" fill="#222222"/>
<path d="M16.5956 0.57312C20.4814 0.731231 22.6707 0.974478 23.1693 1.30286L24.6288 1.05961H25.1214C27.3593 1.05961 28.6606 2.44004 29.0255 5.2009V7.39013C28.7579 8.03473 28.1863 8.36312 27.3167 8.36312C26.7268 8.09555 26.2403 6.63606 25.8572 3.97858H23.9051C23.5828 4.02723 23.4247 4.19142 23.4247 4.47116V7.15296C23.4247 7.99216 23.1754 8.47866 22.6828 8.61245H22.2024C21.3146 8.61245 20.749 8.12595 20.4936 7.15296C20.6578 5.76645 20.7429 4.62927 20.7429 3.74142C17.6537 3.44344 16.1091 2.95694 16.1091 2.26977V1.0657C16.1638 0.737312 16.328 0.57312 16.6016 0.57312H16.5956ZM18.2983 9.34827L20.0071 9.59152H22.1963C23.4916 9.59152 25.1944 9.51246 27.3106 9.34827L27.8032 9.59152C28.089 9.4334 28.4113 9.34827 28.7762 9.34827H29.0255C30.3208 9.34827 30.9654 9.91382 30.9654 11.051C30.6431 11.8659 30.1566 12.2733 29.5059 12.2733C29.3478 12.2733 29.2627 12.1943 29.2627 12.0301L28.0404 12.2733H25.6079V13.7328C25.6079 14.0612 26.5018 14.3044 28.2897 14.4625C28.9343 15.3322 29.2627 16.0619 29.2627 16.6518V18.1113C29.2627 19.8018 27.4748 20.8599 23.8991 21.2796V21.5228L25.1214 21.7721H27.5539C28.2532 21.7721 28.7458 22.0944 29.0255 22.7451C28.5451 23.8823 27.8093 24.4478 26.8241 24.4478H25.614C21.8801 24.1073 20.0132 22.8911 20.0132 20.7931C20.0132 19.1694 21.795 18.3606 25.3646 18.3606C26.1795 17.8072 26.587 17.3998 26.587 17.1383L26.0944 16.895C23.145 17.0531 21.2781 17.1383 20.4936 17.1383C19.5206 16.7612 19.0341 16.1896 19.0341 15.4295C19.2774 14.7848 19.5206 14.4565 19.7639 14.4565H22.9322C22.9322 14.1281 23.0112 13.9639 23.1754 13.9639C23.0173 13.7206 22.9322 13.2341 22.9322 12.5044H21.4727C18.8699 12.401 17.5686 11.9145 17.5686 11.0449V10.0719C17.5686 9.94422 17.8118 9.6949 18.2983 9.34219V9.34827Z" fill="#222222"/>
<path d="M36.104 0.822388C36.6999 0.822388 37.1864 2.03862 37.5635 4.47718C39.8378 4.47718 40.975 4.79948 40.975 5.45017V6.17991C40.3304 6.90357 40.002 7.31101 40.002 7.40223C40.1723 7.61507 40.5797 8.34481 41.2122 9.59146C40.9385 12.6807 39.8865 14.2253 38.05 14.2253H37.077C35.0458 14.2253 33.8296 12.8449 33.4222 10.084V8.62455L33.6654 8.13197C32.6924 7.87656 32.2059 7.31101 32.2059 6.42924C32.2059 5.54747 33.0147 4.95759 34.6384 4.72043C34.6384 4.56232 34.7235 4.47718 34.8877 4.47718L34.6384 3.9846V2.77445C34.8391 1.47307 35.3256 0.822388 36.0979 0.822388H36.104ZM36.104 9.09888V10.3212C36.3715 10.9719 36.9432 11.3003 37.8128 11.3003C38.1351 11.3003 38.2932 11.1361 38.2932 10.8077V10.5644C38.2932 9.42118 37.8067 8.85563 36.8337 8.85563C36.5175 9.01374 36.2742 9.09888 36.104 9.09888ZM42.4406 14.2192H46.8251C48.2846 14.2192 49.0143 15.4355 49.0143 17.874C49.0143 19.3153 47.6339 20.2092 44.873 20.5437V20.793H45.1224L48.0413 20.5437C48.5278 20.5437 49.0143 21.0302 49.5008 22.0032C49.5008 22.818 48.1204 23.4687 45.3595 23.9552C42.9271 23.9552 41.7047 23.1464 41.7047 21.5227V20.793C41.7047 19.0963 42.921 18.0382 45.3595 17.6247H45.8521V16.895H45.6028C45.1345 16.895 43.3467 17.0591 40.2513 17.3875L39.7588 16.6578V15.6848C39.7588 15.1253 40.6527 14.6388 42.4406 14.2253V14.2192ZM46.3325 3.50419H47.3116C47.6947 3.50419 48.1021 4.64137 48.5218 6.90965H51.4529C51.684 6.90965 51.9272 7.1529 52.1826 7.6394V8.61847C52.1826 9.2205 51.0454 9.62794 48.7711 9.84078V10.084L49.0143 12.2733C48.7589 13.2462 48.1934 13.7327 47.3116 13.7327H47.0623C46.0893 13.4287 45.6028 11.0753 45.6028 6.66641C45.4447 6.66641 45.2805 6.10086 45.1224 4.96367C45.3413 4.29474 45.7427 3.80825 46.3325 3.50419Z" fill="#222222"/>
<path d="M62.6787 1.03528H66.3396C67.0694 1.03528 67.7991 1.52785 68.5288 2.50692H68.7782C71.8674 2.50692 73.412 2.99342 73.412 3.96641V4.9394C73.412 5.2617 72.9255 5.584 71.9525 5.91847L70.4809 5.67522C70.1586 6.06442 70.0005 6.3928 70.0005 6.64821C70.0005 7.2016 70.9735 7.77323 72.9195 8.35702L73.1627 9.57934V10.0719C73.1627 10.3212 72.8404 10.6435 72.1897 11.0449H71.2106C70.0674 11.0449 69.0153 10.6375 68.0423 9.82259H67.7991L67.0694 10.3152C63.1652 10.3152 61.2193 8.60635 61.2193 5.19481C61.2193 3.89344 61.0551 3.24275 60.7267 3.24275C60.8483 1.77718 61.4929 1.04136 62.6787 1.04136V1.03528ZM64.1382 4.69615C64.1382 6.16172 64.6308 6.89754 65.6099 6.89754L67.0694 7.14079V5.18873C67.0694 5.02454 67.1484 4.9394 67.3126 4.9394C67.1545 4.62318 67.0694 4.37993 67.0694 4.20966H64.6308C64.3024 4.26439 64.1382 4.42858 64.1382 4.70223V4.69615ZM70.4809 13.2281C71.7823 13.2281 72.433 13.9639 72.433 15.4294V17.1383C72.433 17.7281 73.8195 18.1295 76.5864 18.3484C77.0729 18.768 77.3162 19.2606 77.3162 19.8201V20.5498C77.0912 21.1944 76.4405 21.5228 75.3641 21.5228C71.46 21.1944 69.514 19.893 69.514 17.6187C69.514 17.3572 69.4289 16.3842 69.2647 14.6997C69.4897 14.0308 69.8971 13.5382 70.487 13.2281H70.4809ZM77.0729 1.52785C78.0094 1.52785 78.581 2.91436 78.7756 5.6813L79.998 5.92455C80.1622 3.486 80.6486 2.26368 81.4574 2.26368C82.7649 2.26368 83.4156 4.21574 83.4156 8.11378L83.1663 9.58542C83.1663 9.74353 83.2514 9.82867 83.4156 9.82867C83.1967 11.9449 82.625 12.997 81.7068 12.997C80.7338 12.6625 80.2473 12.0118 80.2473 11.0449V9.09285H78.7756V10.8017C78.7756 11.6774 78.4533 12.2429 77.8027 12.5044H77.5533C76.2519 12.3828 75.6013 11.8172 75.6013 10.8017C75.6013 10.3942 75.6864 9.74353 75.8506 8.8496L75.358 2.98734C75.358 2.01435 75.9296 1.52785 77.0668 1.52785H77.0729Z" fill="#222222"/>
<path d="M92.4462 0.57312C96.332 0.731231 98.5213 0.974478 99.0199 1.30286L100.479 1.05961H100.972C103.21 1.05961 104.511 2.44004 104.876 5.2009V7.39013C104.609 8.03473 104.037 8.36312 103.167 8.36312C102.577 8.09555 102.091 6.63606 101.708 3.97858H99.7557C99.4334 4.02723 99.2753 4.19142 99.2753 4.47116V7.15296C99.2753 7.99216 99.026 8.47866 98.5334 8.61245H98.053C97.1652 8.61245 96.5996 8.12595 96.3442 7.15296C96.5084 5.76645 96.5935 4.62927 96.5935 3.74142C93.5043 3.44344 91.9597 2.95694 91.9597 2.26977V1.0657C92.0144 0.737312 92.1786 0.57312 92.4522 0.57312H92.4462ZM94.1489 9.34827L95.8577 9.59152H98.0469C99.3422 9.59152 101.045 9.51246 103.161 9.34827L103.654 9.59152C103.94 9.4334 104.262 9.34827 104.627 9.34827H104.876C106.171 9.34827 106.816 9.91382 106.816 11.051C106.494 11.8659 106.007 12.2733 105.357 12.2733C105.198 12.2733 105.113 12.1943 105.113 12.0301L103.891 12.2733H101.458V13.7328C101.458 14.0612 102.352 14.3044 104.14 14.4625C104.785 15.3322 105.113 16.0619 105.113 16.6518V18.1113C105.113 19.8018 103.325 20.8599 99.7497 21.2796V21.5228L100.972 21.7721H103.404C104.104 21.7721 104.596 22.0944 104.876 22.7451C104.396 23.8823 103.66 24.4478 102.675 24.4478H101.465C97.7307 24.1073 95.8638 22.8911 95.8638 20.7931C95.8638 19.1694 97.6456 18.3606 101.215 18.3606C102.03 17.8072 102.438 17.3998 102.438 17.1383L101.945 16.895C98.9956 17.0531 97.1287 17.1383 96.3442 17.1383C95.3712 16.7612 94.8847 16.1896 94.8847 15.4295C95.128 14.7848 95.3712 14.4565 95.6144 14.4565H98.7827C98.7827 14.1281 98.8618 13.9639 99.026 13.9639C98.8679 13.7206 98.7827 13.2341 98.7827 12.5044H97.3233C94.7205 12.401 93.4191 11.9145 93.4191 11.0449V10.0719C93.4191 9.94422 93.6624 9.6949 94.1489 9.34219V9.34827Z" fill="#222222"/>
<path d="M111.717 1.06567H116.108C116.339 1.06567 116.582 1.30892 116.838 1.79542V2.03866C116.838 2.91435 116.509 3.4799 115.859 3.74748H113.426L110.988 3.99072V4.72047L111.237 5.21304L112.94 4.96371H116.351C116.607 4.96371 116.929 5.2921 117.324 5.94278V6.67252C116.99 7.31713 116.588 7.64551 116.114 7.64551C114.594 7.64551 113.049 7.80971 111.48 8.13809V8.86783C111.809 8.86783 111.973 8.94689 111.973 9.11108C112.289 8.95297 112.532 8.86783 112.703 8.86783C113.359 8.86783 114.825 8.78878 117.087 8.62458L117.817 9.83474C117.817 11.1361 115.95 11.7868 112.216 11.7868C112.216 11.951 111.973 12.0361 111.486 12.0361C109.54 12.0361 108.567 10.4125 108.567 7.1651C108.567 6.259 108.403 5.03669 108.075 3.50423C108.452 2.04474 109.182 1.315 110.264 1.315C110.264 1.15689 110.751 1.07176 111.724 1.07176L111.717 1.06567ZM118.784 12.2733C119.599 12.3767 120.006 12.8632 120.006 13.7328C120.006 14.87 119.033 15.4355 117.087 15.4355L117.33 18.3666C117.069 19.0112 116.503 19.3396 115.628 19.3396C115.105 19.2363 114.533 18.02 113.919 15.6848H111C110.744 15.6848 110.422 15.3565 110.027 14.7058V13.976C110.027 13.7267 110.349 13.4044 111 13.003H111.979C112.867 13.003 115.141 12.7598 118.796 12.2733H118.784ZM112.94 18.6099H113.183C113.597 18.6099 114.168 19.8261 114.892 22.2647L115.865 22.7573C117.154 22.4289 118.127 22.2647 118.784 22.2647L119.514 23.487C119.076 24.7884 117.695 25.4391 115.378 25.4391H114.636C112.897 25.4391 111.76 23.6512 111.231 20.0755C111.48 19.1025 112.046 18.616 112.934 18.616L112.94 18.6099Z" fill="#222222"/>
</g>
<defs>
<clipPath id="clip0_3213_24025">
<rect width="120" height="24.8538" fill="white" transform="translate(0 0.57312)"/>
</clipPath>
</defs>
</svg>
