<svg width="129" height="25" viewBox="0 0 129 25" fill="none" xmlns="http://www.w3.org/2000/svg">
<path d="M1.23535 3.77637L1.81543 4.07715C2.01595 4.07715 2.11621 3.97689 2.11621 3.77637L3.58789 4.07715H6.52051C7.16504 4.07715 7.55534 5.34831 7.69141 7.89062V10.2432L7.11133 11.124L5.04883 10.834H3.87793L2.40625 11.124C2.87174 14.6546 3.26562 16.4199 3.58789 16.4199H3.87793C5.611 16.2194 6.6888 16.1191 7.11133 16.1191L7.69141 17C7.69141 17.6589 6.02637 18.0527 2.69629 18.1816C1.52181 18.1816 0.93457 16.3197 0.93457 12.5957C0.741211 11.5358 0.644531 10.6549 0.644531 9.95312C1.63281 9.55924 3.39453 9.3623 5.92969 9.3623V7.31055C5.92969 6.29362 5.63607 5.70638 5.04883 5.54883H3.28711L1.23535 5.24805V3.77637ZM15.0391 4.65723H15.9199C16.5072 4.65723 16.9977 6.32227 17.3916 9.65234H17.1016L17.3916 10.2432V19.0625H16.2207C15.6335 19.0625 15.3398 17.0036 15.3398 12.8857H15.6299L15.3398 12.3057C15.3398 12.098 15.4365 11.8044 15.6299 11.4248C15.236 8.51725 15.0391 6.26139 15.0391 4.65723ZM11.5156 5.83887H12.6865C13.0804 10.5081 13.2773 14.0352 13.2773 16.4199L12.3965 17H12.1064C11.82 17 11.5264 16.7064 11.2256 16.1191V15.5283C11.2256 15.335 11.3223 15.2383 11.5156 15.2383C11.3223 14.916 11.2256 14.4255 11.2256 13.7666C8.76204 13.9671 7.29036 14.0674 6.81055 14.0674L6.23047 13.1865C6.23047 12.7926 7.89551 12.3988 11.2256 12.0049V11.124C11.2256 10.0999 11.1253 8.4349 10.9248 6.12891L11.5156 5.83887ZM22.2998 1.77832C25.6156 1.77832 27.2734 3.53646 27.2734 7.05273C27.2734 8.80013 26.0059 10.1644 23.4707 11.1455H22.8799C20.0941 11.1455 18.4362 9.39095 17.9062 5.88184C18.5007 3.14616 19.9652 1.77832 22.2998 1.77832ZM30.2061 2.36914C31.5739 2.36914 32.2578 3.54004 32.2578 5.88184C32.5729 6.40462 33.0599 6.79492 33.7188 7.05273L34.2988 6.75195L35.7705 7.05273V7.63281C35.7705 7.91211 35.4769 8.20573 34.8896 8.51367H32.8379V10.2754L32.2578 12.3164C32.7949 12.3164 33.1852 13.2939 33.4287 15.249V16.71C33.4287 17.1038 33.2318 17.3008 32.8379 17.3008C32.1862 17.3008 31.6992 17.2005 31.377 17C29.5221 17.3939 28.3512 17.5908 27.8643 17.5908V18.1709C27.9144 19.152 28.1077 19.6426 28.4443 19.6426C29.4541 19.6426 31.4056 19.5423 34.2988 19.3418L34.5996 19.9326V20.2227C34.5996 20.8672 33.3285 21.2575 30.7861 21.3936H26.9834C26.2028 21.3936 25.8125 20.2227 25.8125 17.8809V17C25.8125 16.6133 26.5931 16.3232 28.1543 16.1299V16.4199C28.5052 16.2266 29.4827 16.0296 31.0869 15.8291C31.0869 16.0296 31.1836 16.1299 31.377 16.1299V15.5391L31.0869 14.0781H28.7451C28.0433 14.0781 27.1624 14.1748 26.1025 14.3682C25.1286 14.1175 24.6416 13.8239 24.6416 13.4873V12.9072C26.3245 12.5133 28.473 12.2197 31.0869 12.0264L29.6152 2.65918L30.2061 2.36914ZM21.4189 3.23926C20.445 4.02702 19.958 4.71094 19.958 5.29102C20.3018 8.02669 21.2757 9.39453 22.8799 9.39453C24.4411 9.39453 25.2217 8.51367 25.2217 6.75195V6.46191C25.2217 4.31348 23.9541 3.23926 21.4189 3.23926ZM54.1377 4.81836H54.7285C55.724 4.86849 56.2217 5.06543 56.2217 5.40918C56.2217 5.84603 56.4186 7.33203 56.8125 9.86719H58.2949L59.7881 9.57715C59.7881 9.77051 59.8848 9.86719 60.0781 9.86719C59.6842 9.0651 59.387 7.48242 59.1865 5.11914L59.7881 4.81836C60.9482 4.81836 61.8398 7.79036 62.4629 13.7344V17.6016C62.4629 17.9954 62.2624 18.1924 61.8613 18.1924H61.2705C60.6761 17.9919 60.3789 17.3975 60.3789 16.4092V11.9512C60.3789 11.5573 60.182 11.3604 59.7881 11.3604H57.1133L57.4033 14.9268V15.5176L57.1133 17H55.9209C55.4769 17 54.8825 12.9395 54.1377 4.81836ZM43.4385 5.11914H44.3301C44.9245 5.11914 45.2217 5.21582 45.2217 5.40918L46.7148 5.11914H49.6797C50.6895 5.11914 51.3841 8.88249 51.7637 16.4092C51.1191 16.8031 50.625 17 50.2812 17C49.9375 17 49.54 13.9313 49.0889 7.79395C48.695 6.99902 48.3978 6.60156 48.1973 6.60156C48.0469 6.60156 47.4525 6.70182 46.4141 6.90234C44.237 6.74479 43.1484 6.54427 43.1484 6.30078C42.9479 5.92122 42.8477 5.62402 42.8477 5.40918L43.4385 5.11914ZM68.9072 0.360352C69.6019 0.560872 70.5938 0.661133 71.8828 0.661133L72.4736 0.360352C74.2568 0.360352 75.1484 1.25195 75.1484 3.03516C75.349 3.82292 75.4492 4.51758 75.4492 5.11914L75.1484 8.08398H73.9668C73.5658 8.08398 73.3652 7.88704 73.3652 7.49316V5.11914L73.0752 2.14355H69.5088C69.7021 4.47103 69.7988 6.15397 69.7988 7.19238L68.9072 7.79395C67.9189 7.79395 67.4248 5.91048 67.4248 2.14355H67.124C66.415 2.14355 65.5234 2.24382 64.4492 2.44434C63.4609 2.18652 62.9668 1.88932 62.9668 1.55273V0.951172L68.9072 0.360352ZM64.1592 9.86719C66.6299 10.2682 68.7103 10.4688 70.4004 10.4688H72.1836C72.6276 10.4688 73.0215 10.3685 73.3652 10.168C75.1484 10.4043 76.04 10.7015 76.04 11.0596V11.3604C76.04 11.7542 75.8431 11.9512 75.4492 11.9512H73.0752L72.7744 13.4336V14.0352C72.8389 14.429 73.0358 14.626 73.3652 14.626H75.1484C75.5495 16.3232 75.75 17.8092 75.75 19.084C75.0195 19.6784 74.3249 19.9756 73.666 19.9756H73.0752C72.0296 19.9756 70.3431 19.8753 68.0156 19.6748L68.6172 22.3496H70.0996C70.3001 22.3496 70.4004 22.4499 70.4004 22.6504L70.9912 22.3496H74.5576V23.832L72.4736 24.1328H70.4004C67.8223 24.1328 66.5332 23.4382 66.5332 22.0488C66.3327 21.3327 66.2324 20.2441 66.2324 18.7832L66.834 18.4824C68.2161 18.4824 70.3932 18.5827 73.3652 18.7832L73.666 18.1924V16.4092H73.0752C68.5778 16.4092 66.2002 15.915 65.9424 14.9268V14.626L68.0156 14.3252L70.9912 14.626V11.9512C70.5472 11.9512 70.1497 12.0514 69.7988 12.252C65.638 12.0085 63.5576 11.5107 63.5576 10.7588V10.4688C63.6221 10.0677 63.8226 9.86719 64.1592 9.86719ZM91.1855 2.36914C91.9661 2.36914 92.3564 5.00456 92.3564 10.2754V13.1973C92.3564 13.584 92.1631 13.7773 91.7764 13.7773H91.4756C91.0889 13.7773 90.8955 13.584 90.8955 13.1973V11.7363L90.6055 8.80371H88.8438C88.8438 9.68457 88.7471 10.2718 88.5537 10.5654C88.7471 10.945 88.8438 11.2386 88.8438 11.4463L88.2637 11.7363H87.3828C87.1895 10.0033 87.0928 8.92904 87.0928 8.51367H87.3828L87.0928 7.93359V7.63281C87.0928 6.65885 86.9925 5.19792 86.792 3.25L87.3828 2.95996H87.6729C88.1956 2.95996 88.5859 4.51758 88.8438 7.63281H89.1338L89.7246 7.34277C90.1042 7.53613 90.3978 7.63281 90.6055 7.63281V2.95996C90.6628 2.56608 90.8561 2.36914 91.1855 2.36914ZM76.8447 2.65918C79.1364 2.8597 80.7943 2.95996 81.8184 2.95996H82.6992C83.0931 2.95996 83.29 3.25 83.29 3.83008C83.29 4.46745 82.7995 5.44499 81.8184 6.7627V7.34277L84.751 11.1455C84.751 11.5394 84.554 11.7363 84.1602 11.7363H83.8701C82.1156 10.3542 81.2383 9.37663 81.2383 8.80371H80.6475L78.3057 11.1455H77.7256C77.3317 11.1455 77.1348 10.9521 77.1348 10.5654C79.0397 8.57454 80.4076 6.71973 81.2383 5.00098V4.13086C78.1159 4.13086 76.5547 3.83724 76.5547 3.25L76.8447 2.65918ZM83.5801 13.4873L85.041 13.7773H86.502C86.9388 13.7773 87.3291 13.6807 87.6729 13.4873C90.0146 13.4873 91.1855 14.7549 91.1855 17.29V19.6318C91.1855 20.4124 89.0407 20.8027 84.751 20.8027L83.29 19.9326L83.5801 18.4609C83.3867 18.0885 83.29 17.7985 83.29 17.5908H83.5801C83.4297 17.0752 83.2327 15.9043 82.9893 14.0781C83.3831 14.0781 83.5801 13.8812 83.5801 13.4873ZM84.751 14.9482L85.041 17.8809V19.3418H89.1338C89.2913 19.3418 89.585 19.0482 90.0146 18.4609C89.5062 15.9258 89.0192 14.6582 88.5537 14.6582H86.2119L84.751 14.9482ZM104.117 1.48828H104.697C105.055 1.48828 105.546 2.36914 106.169 4.13086C107.1 4.13086 108.464 5.39844 110.262 7.93359V8.22363C110.262 8.50293 109.968 8.79655 109.381 9.10449H109.091C107.265 7.0778 105.8 5.80664 104.697 5.29102C103.286 8.80729 102.312 10.5654 101.775 10.5654H101.185C100.798 10.5654 100.604 10.3685 100.604 9.97461V9.68457L103.827 1.78906C103.827 1.58854 103.924 1.48828 104.117 1.48828ZM105.868 9.68457H106.459C106.738 9.68457 107.032 9.97819 107.34 10.5654V15.5391C109.968 15.3457 111.916 15.249 113.184 15.249C113.577 15.3063 113.774 15.4997 113.774 15.8291C113.774 17.0036 109.481 17.5908 100.895 17.5908H100.014C99.627 17.5908 99.4336 17.3939 99.4336 17V16.71C99.4336 16.1227 100.995 15.8291 104.117 15.8291H104.697L105.288 15.5391L104.998 14.9482L105.288 13.7773L104.998 13.1973L105.288 12.6172L104.998 10.8555V10.5654C104.998 10.2861 105.288 9.99251 105.868 9.68457ZM118.973 0.317383C119.359 0.797201 119.553 1.1875 119.553 1.48828C119.166 3.05664 118.973 4.32422 118.973 5.29102C121.121 7.86198 122.195 9.62012 122.195 10.5654L121.604 10.8555H120.724C120.265 9.60938 119.291 8.3418 117.802 7.05273C117.014 8.88607 116.137 10.057 115.17 10.5654C114.79 10.3721 114.497 10.2754 114.289 10.2754V9.97461C114.289 9.63802 114.873 8.37044 116.04 6.17188L118.092 0.618164C118.471 0.417643 118.765 0.317383 118.973 0.317383ZM125.998 0.908203H126.578C127.044 0.908203 127.434 1.6888 127.749 3.25H127.459C127.846 4.1237 128.039 5.39128 128.039 7.05273V10.5654C128.039 11.611 127.649 12.2949 126.868 12.6172C126.589 12.6172 126.299 12.3236 125.998 11.7363V7.34277H123.355C121.866 7.34277 120.989 6.95247 120.724 6.17188L121.604 5.5918C123.552 5.78516 125.017 5.88184 125.998 5.88184V5.5918C125.798 5.39128 125.601 3.92676 125.407 1.19824L125.998 0.908203ZM120.724 12.6172H124.526C126.088 12.6172 126.968 13.6878 127.169 15.8291C126.968 16.8031 126.675 17.487 126.288 17.8809L123.355 17.5908H122.485L121.024 17.8809V19.6318H127.169V20.5127C127.169 20.971 126.485 21.2646 125.117 21.3936L124.526 21.1035L122.775 21.3936C120.24 21.3936 118.973 21.0033 118.973 20.2227V17.29C118.973 16.9033 119.266 16.71 119.854 16.71C120.505 16.71 122.163 16.6133 124.827 16.4199V14.3682H123.355L121.604 14.0781C121.261 14.2715 120.87 14.3682 120.434 14.3682V14.0781L119.854 14.3682H118.382C117.995 14.3682 117.802 14.1712 117.802 13.7773V12.9072L120.724 12.6172Z" fill="#222222"/>
</svg>
