<svg width="118" height="25" viewBox="0 0 118 25" fill="none" xmlns="http://www.w3.org/2000/svg">
<path d="M6.58496 0.360352C7.27962 0.560872 8.27148 0.661133 9.56055 0.661133L10.1514 0.360352C11.9346 0.360352 12.8262 1.25195 12.8262 3.03516C13.0267 3.82292 13.127 4.51758 13.127 5.11914L12.8262 8.08398H11.6445C11.2435 8.08398 11.043 7.88704 11.043 7.49316V5.11914L10.7529 2.14355H7.18652C7.37988 4.47103 7.47656 6.15397 7.47656 7.19238L6.58496 7.79395C5.59668 7.79395 5.10254 5.91048 5.10254 2.14355H4.80176C4.09277 2.14355 3.20117 2.24382 2.12695 2.44434C1.13867 2.18652 0.644531 1.88932 0.644531 1.55273V0.951172L6.58496 0.360352ZM1.83691 9.86719C4.30762 10.2682 6.38802 10.4688 8.07812 10.4688H9.86133C10.3053 10.4688 10.6992 10.3685 11.043 10.168C12.8262 10.4043 13.7178 10.7015 13.7178 11.0596V11.3604C13.7178 11.7542 13.5208 11.9512 13.127 11.9512H10.7529L10.4521 13.4336V14.0352C10.5166 14.429 10.7135 14.626 11.043 14.626H12.8262C13.2272 16.3232 13.4277 17.8092 13.4277 19.084C12.6973 19.6784 12.0026 19.9756 11.3438 19.9756H10.7529C9.70736 19.9756 8.02083 19.8753 5.69336 19.6748L6.29492 22.3496H7.77734C7.97786 22.3496 8.07812 22.4499 8.07812 22.6504L8.66895 22.3496H12.2354V23.832L10.1514 24.1328H8.07812C5.5 24.1328 4.21094 23.4382 4.21094 22.0488C4.01042 21.3327 3.91016 20.2441 3.91016 18.7832L4.51172 18.4824C5.89388 18.4824 8.07096 18.5827 11.043 18.7832L11.3438 18.1924V16.4092H10.7529C6.25553 16.4092 3.87793 15.915 3.62012 14.9268V14.626L5.69336 14.3252L8.66895 14.626V11.9512C8.22493 11.9512 7.82747 12.0514 7.47656 12.252C3.31576 12.0085 1.23535 11.5107 1.23535 10.7588V10.4688C1.2998 10.0677 1.50033 9.86719 1.83691 9.86719ZM24.4697 2.0791H24.7705C25.2074 2.0791 25.5977 3.24642 25.9414 5.58105C26.7005 5.97493 27.7712 6.17188 29.1533 6.17188V7.34277H27.4023L25.9414 7.05273L26.2314 10.5654V12.3164L24.7705 12.0264C24.7705 10.9951 24.5736 8.84668 24.1797 5.58105H24.4697L24.1797 5.00098C24.1797 4.80762 24.2764 4.71094 24.4697 4.71094C24.083 3.70833 23.8896 2.92773 23.8896 2.36914L24.4697 2.0791ZM14.2324 2.36914H19.7969L21.2578 2.65918C21.2578 3.61165 20.7708 5.36621 19.7969 7.92285C21.5514 9.08301 22.4287 10.3542 22.4287 11.7363H22.1387L18.916 9.09375C17.5124 10.8555 16.6351 11.7363 16.2842 11.7363C15.6969 11.5358 15.4033 11.3389 15.4033 11.1455C18.1318 7.57194 19.4961 5.13346 19.4961 3.83008V3.54004H14.8125C14.4258 3.54004 14.2324 3.3431 14.2324 2.94922V2.36914ZM18.626 14.0674H25.6406C26.5788 14.2464 27.166 16.1012 27.4023 19.6318H27.1123L27.4023 20.2227V20.8027H26.5215C26.013 20.8027 25.526 19.0482 25.0605 15.5391L23.5996 15.2383H20.0869L18.626 14.9482V14.0674ZM48.2295 4.13086C48.5088 4.13086 48.8024 4.4209 49.1104 5.00098C48.9098 6.71257 48.8096 7.6901 48.8096 7.93359C48.8096 8.63542 49.1999 11.6576 49.9805 17L49.4004 17.29H48.8096C48.5016 17.29 48.0146 15.4388 47.3486 11.7363L45.5977 11.4463L45.0068 11.7363C43.8395 11.3353 43.2559 10.945 43.2559 10.5654L43.8359 10.2754H46.7686L47.3486 9.97461L47.0586 9.39453V7.63281C47.0586 7.43945 47.1553 7.34277 47.3486 7.34277L47.0586 6.7627C47.252 5.00814 47.6423 4.13086 48.2295 4.13086ZM39.4531 4.4209H42.085C43.2523 4.4209 43.8359 4.8112 43.8359 5.5918C42.6686 8.69271 42.085 10.4473 42.085 10.8555L44.7168 14.6582V15.8291H44.1367C42.1816 13.9958 41.2041 12.8249 41.2041 12.3164C40.9749 12.3164 40.001 13.3906 38.2822 15.5391H37.9814C37.5947 15.5391 37.4014 15.3421 37.4014 14.9482V14.3682C39.3994 12.1768 40.9606 9.34798 42.085 5.88184H37.6914L36.2305 5.5918V5.29102C36.2305 4.71094 37.3047 4.4209 39.4531 4.4209ZM62.7734 2.0791H63.0635C63.7725 2.30111 64.263 4.15234 64.5352 7.63281H67.457V8.22363C67.457 8.57454 66.5798 8.86458 64.8252 9.09375C64.4313 9.86003 64.2344 10.9342 64.2344 12.3164V12.6064H63.6543C63.3607 12.6064 63.0671 12.2161 62.7734 11.4355L63.0635 8.80371L62.1934 2.36914L62.7734 2.0791ZM50.4844 3.25H54.2871L56.0488 3.54004C56.2422 3.54004 56.3389 3.44336 56.3389 3.25L57.7998 3.54004H59.2607V4.12012C59.2607 4.86491 58.7738 5.93913 57.7998 7.34277C59.361 9.2334 60.1416 10.3076 60.1416 10.5654V10.8555L59.8516 11.4355C59.5078 11.4284 58.5303 10.5511 56.9189 8.80371C55.7516 9.56999 55.168 10.2539 55.168 10.8555H53.9971V9.68457C55.4508 8.18066 56.6217 6.52279 57.5098 4.71094H57.2197C55.1071 4.71094 52.862 4.514 50.4844 4.12012V3.25ZM60.1416 14.3682C62.6051 15.292 63.9694 16.1693 64.2344 17V18.751C64.2344 21.1429 62.6732 22.6074 59.5508 23.1445C57.2161 22.2493 56.0488 20.9818 56.0488 19.3418V18.1709C56.0488 16.2588 57.4131 14.9912 60.1416 14.3682ZM57.7998 17.5801V19.0518C58.0505 20.8063 58.9277 21.6836 60.4316 21.6836C61.9928 20.903 62.7734 19.8288 62.7734 18.4609C62.7734 16.7064 61.6992 15.8291 59.5508 15.8291C59.1283 15.8649 58.5446 16.4486 57.7998 17.5801ZM72.6445 1.48828H73.2246C73.5827 1.48828 74.0732 2.36914 74.6963 4.13086C75.6273 4.13086 76.9915 5.39844 78.7891 7.93359V8.22363C78.7891 8.50293 78.4954 8.79655 77.9082 9.10449H77.6182C75.792 7.0778 74.3275 5.80664 73.2246 5.29102C71.8138 8.80729 70.8398 10.5654 70.3027 10.5654H69.7119C69.3252 10.5654 69.1318 10.3685 69.1318 9.97461V9.68457L72.3545 1.78906C72.3545 1.58854 72.4512 1.48828 72.6445 1.48828ZM74.3955 9.68457H74.9863C75.2656 9.68457 75.5592 9.97819 75.8672 10.5654V15.5391C78.4954 15.3457 80.4434 15.249 81.7109 15.249C82.1048 15.3063 82.3018 15.4997 82.3018 15.8291C82.3018 17.0036 78.0085 17.5908 69.4219 17.5908H68.541C68.1543 17.5908 67.9609 17.3939 67.9609 17V16.71C67.9609 16.1227 69.5221 15.8291 72.6445 15.8291H73.2246L73.8154 15.5391L73.5254 14.9482L73.8154 13.7773L73.5254 13.1973L73.8154 12.6172L73.5254 10.8555V10.5654C73.5254 10.2861 73.8154 9.99251 74.3955 9.68457ZM94.0625 1.48828H94.6426C95.0007 1.48828 95.4912 2.36914 96.1143 4.13086C97.0452 4.13086 98.4095 5.39844 100.207 7.93359V8.22363C100.207 8.50293 99.9134 8.79655 99.3262 9.10449H99.0361C97.21 7.0778 95.7454 5.80664 94.6426 5.29102C93.2318 8.80729 92.2578 10.5654 91.7207 10.5654H91.1299C90.7432 10.5654 90.5498 10.3685 90.5498 9.97461V9.68457L93.7725 1.78906C93.7725 1.58854 93.8691 1.48828 94.0625 1.48828ZM95.8135 9.68457H96.4043C96.6836 9.68457 96.9772 9.97819 97.2852 10.5654V15.5391C99.9134 15.3457 101.861 15.249 103.129 15.249C103.523 15.3063 103.72 15.4997 103.72 15.8291C103.72 17.0036 99.4264 17.5908 90.8398 17.5908H89.959C89.5723 17.5908 89.3789 17.3939 89.3789 17V16.71C89.3789 16.1227 90.9401 15.8291 94.0625 15.8291H94.6426L95.2334 15.5391L94.9434 14.9482L95.2334 13.7773L94.9434 13.1973L95.2334 12.6172L94.9434 10.8555V10.5654C94.9434 10.2861 95.2334 9.99251 95.8135 9.68457ZM108.918 0.317383C109.305 0.797201 109.498 1.1875 109.498 1.48828C109.111 3.05664 108.918 4.32422 108.918 5.29102C111.066 7.86198 112.141 9.62012 112.141 10.5654L111.55 10.8555H110.669C110.211 9.60938 109.237 8.3418 107.747 7.05273C106.959 8.88607 106.082 10.057 105.115 10.5654C104.736 10.3721 104.442 10.2754 104.234 10.2754V9.97461C104.234 9.63802 104.818 8.37044 105.985 6.17188L108.037 0.618164C108.417 0.417643 108.71 0.317383 108.918 0.317383ZM115.943 0.908203H116.523C116.989 0.908203 117.379 1.6888 117.694 3.25H117.404C117.791 4.1237 117.984 5.39128 117.984 7.05273V10.5654C117.984 11.611 117.594 12.2949 116.813 12.6172C116.534 12.6172 116.244 12.3236 115.943 11.7363V7.34277H113.301C111.811 7.34277 110.934 6.95247 110.669 6.17188L111.55 5.5918C113.498 5.78516 114.962 5.88184 115.943 5.88184V5.5918C115.743 5.39128 115.546 3.92676 115.353 1.19824L115.943 0.908203ZM110.669 12.6172H114.472C116.033 12.6172 116.914 13.6878 117.114 15.8291C116.914 16.8031 116.62 17.487 116.233 17.8809L113.301 17.5908H112.431L110.97 17.8809V19.6318H117.114V20.5127C117.114 20.971 116.43 21.2646 115.062 21.3936L114.472 21.1035L112.721 21.3936C110.186 21.3936 108.918 21.0033 108.918 20.2227V17.29C108.918 16.9033 109.212 16.71 109.799 16.71C110.451 16.71 112.108 16.6133 114.772 16.4199V14.3682H113.301L111.55 14.0781C111.206 14.2715 110.816 14.3682 110.379 14.3682V14.0781L109.799 14.3682H108.327C107.94 14.3682 107.747 14.1712 107.747 13.7773V12.9072L110.669 12.6172Z" fill="#222222"/>
</svg>
