<svg width="150" height="25" viewBox="0 0 150 25" fill="none" xmlns="http://www.w3.org/2000/svg">
<path d="M11.5479 0.307617C12.0205 0.379232 12.2568 0.855469 12.2568 1.73633V5.85059C12.2568 6.02962 12.0205 6.20866 11.5479 6.3877L11.1934 5.85059V1.55371C11.1934 1.31738 11.0716 1.19922 10.8281 1.19922H10.1191C9.56771 1.19922 8.61523 1.31738 7.26172 1.55371L7.0791 1.19922V1.0166C7.0791 0.543945 8.56868 0.307617 11.5479 0.307617ZM4.22168 0.844727H4.75879C5.58952 0.844727 6.00488 1.2028 6.00488 1.91895C5.8903 2.92871 5.83301 3.76302 5.83301 4.42188V6.3877C5.83301 6.55957 5.65397 6.73861 5.2959 6.9248C5.05957 6.80306 4.88053 6.74219 4.75879 6.74219C4.87337 4.54362 4.93066 2.93587 4.93066 1.91895C4.39355 1.91895 4.03548 1.85807 3.85645 1.73633C3.17611 1.85807 2.28451 2.09798 1.18164 2.45605C0.952474 2.33431 0.773438 2.27344 0.644531 2.27344V1.38184C2.32747 1.02376 3.51986 0.844727 4.22168 0.844727ZM14.4053 9.9541L14.5879 10.3193C14.5879 10.9137 13.2773 11.2109 10.6562 11.2109L10.291 11.748C10.4128 13.9395 10.5918 15.25 10.8281 15.6797L10.4736 16.3887H12.7939C13.3167 16.3887 13.6175 17.5238 13.6963 19.7939C13.3883 20.2236 11.3617 20.818 7.61621 21.5771C7.61621 21.6989 7.49805 21.7598 7.26172 21.7598V21.9316C7.54102 23.2422 8.07454 23.8975 8.8623 23.8975H10.8281C13.2559 23.8975 14.8063 23.7184 15.4795 23.3604L15.834 23.8975C15.6693 24.4919 15.2539 24.7891 14.5879 24.7891C14.4661 24.7891 14.4053 24.7318 14.4053 24.6172C13.0732 24.8535 11.5264 24.9717 9.76465 24.9717C7.73796 24.9717 6.72461 24.4346 6.72461 23.3604C6.48828 23.3389 6.30924 22.9235 6.1875 22.1143V21.5771C6.1875 21.1117 8.27148 20.3955 12.4395 19.4287C12.5612 19.1995 12.6221 19.0205 12.6221 18.8916C12.6221 18.376 12.5003 17.8424 12.2568 17.291C11.1182 17.5273 9.09505 17.6455 6.1875 17.6455C6.1875 17.5238 6.12663 17.4629 6.00488 17.4629C6.09798 16.8685 7.40853 16.5713 9.93652 16.5713V16.3887C9.72884 16.3887 9.49251 14.7809 9.22754 11.5654C7.3584 11.6872 5.98698 11.748 5.11328 11.748C4.6263 11.748 3.91016 11.6299 2.96484 11.3936V10.8564L3.14746 10.4912L5.65039 10.6738C8.65104 10.4375 11.5693 10.1403 14.4053 9.78223V9.9541ZM25.2754 2.27344C25.5046 2.39518 25.6836 2.45605 25.8125 2.45605V5.66797L25.9844 6.02246L28.4873 5.66797V3.88477C28.4873 3.61263 28.4264 3.37272 28.3047 3.16504C28.4264 2.93587 28.4873 2.75684 28.4873 2.62793H29.0244C29.2607 2.62793 29.3789 2.80697 29.3789 3.16504C29.3789 4.34668 29.4398 5.77539 29.5615 7.45117C29.4398 8.79753 29.3789 10.0508 29.3789 11.2109L28.8418 11.5654L28.3047 11.2109L28.6699 7.63379C28.5482 7.43327 28.4873 7.13607 28.4873 6.74219H27.7676C26.8509 6.74219 26.2565 7.03939 25.9844 7.63379V9.24512C25.9844 9.3597 25.9271 9.41699 25.8125 9.41699L26.167 11.5654C26.0452 11.7946 25.9844 11.9736 25.9844 12.1025H25.6299C25.458 12.1025 25.279 11.9235 25.0928 11.5654C24.971 7.3903 24.9102 4.5293 24.9102 2.98242C24.9388 2.50977 25.0605 2.27344 25.2754 2.27344ZM22.7725 3.51953L22.9443 3.88477V4.05664C21.1611 5.58919 20.2695 6.48438 20.2695 6.74219C21.8952 7.71615 22.7868 8.37142 22.9443 8.70801C22.9443 8.94434 22.8262 9.0625 22.5898 9.0625H22.0527C20.9857 8.23177 20.0941 7.69466 19.3779 7.45117C18.1748 8.76172 17.5195 9.41699 17.4121 9.41699H17.2295C16.9932 9.41699 16.875 9.29883 16.875 9.0625C16.875 8.72591 18.1247 7.2972 20.624 4.77637L16.6924 5.13086L16.3379 4.59375C16.3379 4.30013 16.5778 4.12109 17.0576 4.05664C17.7738 4.05664 19.6787 3.8776 22.7725 3.51953ZM28.6699 12.9941L29.3789 13.5312C28.8418 16.3887 28.3047 17.8174 27.7676 17.8174H27.4131C27.2985 17.8174 27.2412 17.7565 27.2412 17.6348L26.876 17.8174H26.167L24.373 18C24.0508 18 23.7536 16.4495 23.4814 13.3486L23.8467 13.166H25.2754C26.235 13.166 27.3665 13.1087 28.6699 12.9941ZM26.7041 14.0684H24.9102C24.6738 14.1042 24.5557 14.2223 24.5557 14.4229C24.5557 14.8597 24.6738 15.694 24.9102 16.9258L26.7041 16.7432H27.5957C27.9538 15.9769 28.1328 15.2035 28.1328 14.4229V14.2402L27.9502 13.8857L26.7041 14.0684ZM49.4756 0.479492H49.8301C50.1882 0.594076 50.3672 0.952148 50.3672 1.55371V1.72559C50.3672 3.55892 50.4281 6.06185 50.5498 9.23438C50.6644 9.23438 50.7217 9.29525 50.7217 9.41699C53.4574 9.05892 55.1868 8.76172 55.9102 8.52539L56.2646 9.0625V9.77148C56.2646 10.015 56.1465 10.1367 55.9102 10.1367C55.5091 10.1367 55.2119 10.0758 55.0186 9.9541C52.154 10.2191 50.7217 10.5163 50.7217 10.8457V11.0283C50.7217 13.2126 51.0225 16.1344 51.624 19.7939C51.1442 20.0303 50.9043 20.2093 50.9043 20.3311C50.6751 20.2093 50.4961 20.1484 50.3672 20.1484V19.7939L49.1104 0.651367L49.4756 0.479492ZM43.75 4.76562C43.8717 5.1237 43.9899 5.30273 44.1045 5.30273C43.0303 8.16016 42.4932 10.6058 42.4932 12.6396C42.7367 13.7855 42.8584 14.6198 42.8584 15.1426L42.4932 15.3252H41.9561L41.4297 14.96C41.6374 10.1117 42.0527 7.13249 42.6758 6.02246H42.4932C42.3786 6.02246 42.3213 5.96159 42.3213 5.83984C39.8434 6.31966 37.9958 6.73861 36.7783 7.09668L36.5957 6.73145V6.19434C36.5957 5.72168 38.9805 5.24544 43.75 4.76562ZM63.751 1.38184H64.8252C65.0615 1.41764 65.1797 1.53581 65.1797 1.73633C65.1797 2.14453 64.7035 2.44173 63.751 2.62793C63.6579 2.62793 63.2998 2.57064 62.6768 2.45605C60.8219 2.92871 59.5114 3.16504 58.7451 3.16504L58.5625 2.81055V2.27344C61.2552 1.67904 62.9847 1.38184 63.751 1.38184ZM59.0996 3.51953H59.2822C59.4971 3.51953 59.7943 4.71191 60.1738 7.09668L60.5283 7.2793C61.0368 7.2793 62.7663 7.16113 65.7168 6.9248L65.8994 7.2793V7.63379C65.8994 7.80566 65.7204 7.9847 65.3623 8.1709H65.1797C63.9909 8.1709 62.2041 8.23177 59.8193 8.35352C59.1032 7.4082 58.7451 6.21582 58.7451 4.77637V3.88477C58.7809 3.64128 58.8991 3.51953 59.0996 3.51953ZM67.8652 10.8564C68.3379 11.0355 68.5742 11.2145 68.5742 11.3936V11.748C68.5742 11.9844 68.4561 12.1025 68.2197 12.1025H66.6084C61.3089 12.9404 58.1507 13.3594 57.1338 13.3594L56.7793 12.8223C56.901 12.5859 56.9619 12.4069 56.9619 12.2852C61.0439 12.0417 64.6784 11.5654 67.8652 10.8564ZM66.6084 15.4971C67.4463 15.7692 67.8652 17.4378 67.8652 20.5029C67.9798 20.5029 68.0371 20.861 68.0371 21.5771L67.6826 21.7598H67.3281C67.0846 21.7598 66.7839 20.0911 66.4258 16.7539L66.0713 16.5713C63.4502 16.8076 61.3053 17.1048 59.6367 17.4629C59.1641 17.2839 58.9277 17.1048 58.9277 16.9258V16.7539C58.9277 16.3958 61.488 15.9769 66.6084 15.4971ZM72.8271 2.98242L73.1924 3.51953V5.85059C73.1924 6.08691 73.3678 6.20508 73.7188 6.20508C73.8691 6.20508 74.4671 6.14421 75.5127 6.02246L75.6846 6.37695V6.74219C75.6846 6.91406 75.5091 7.0931 75.1582 7.2793H70.6895L69.4326 7.45117L69.0781 6.91406C69.0781 6.55599 70.0915 6.25879 72.1182 6.02246L72.29 4.23926V3.16504C72.4189 3.16504 72.598 3.10417 72.8271 2.98242ZM81.4102 3.34766H81.9473V7.63379L81.7646 8.70801C81.8864 9.30241 82.0046 9.59961 82.1191 9.59961C83.7448 9.47786 84.7581 9.41699 85.1592 9.41699L85.3418 9.77148V10.3086C85.3418 10.5521 85.2201 10.6738 84.9766 10.6738L83.7305 10.4912C82.5417 10.5843 81.9473 10.7633 81.9473 11.0283V11.3828C81.9473 12.0417 82.0046 12.876 82.1191 13.8857C82.1191 14.3656 81.8219 14.7236 81.2275 14.96L80.873 14.4229C80.873 13.3057 80.9303 12.1742 81.0449 11.0283C81.0449 10.8421 80.9876 9.88965 80.873 8.1709C80.9876 6.41634 81.0449 4.86589 81.0449 3.51953L81.4102 3.34766ZM73.1924 8.70801C74.2881 8.70801 75.0007 9.48145 75.3301 11.0283V11.3828C75.3301 12.3353 74.6748 12.9297 73.3643 13.166H73.1924C71.8818 13.166 71.2266 12.6325 71.2266 11.5654V10.4912C71.2266 9.57454 71.8818 8.98014 73.1924 8.70801ZM72.1182 11.3828C72.154 11.6979 72.4512 11.9951 73.0098 12.2744C73.9622 11.9593 74.4385 11.6621 74.4385 11.3828V11.2109C74.4385 10.2513 74.0231 9.77148 73.1924 9.77148H73.0098C72.6803 9.77148 72.3831 10.3086 72.1182 11.3828ZM76.9414 15.1318C77.1348 15.3252 77.3711 16.5176 77.6504 18.709H78.0156C81.1452 18.5872 82.9893 18.5264 83.5479 18.5264L83.7305 18.8916V19.2461C83.7305 19.4824 83.5514 19.6006 83.1934 19.6006C79.9492 19.7223 77.9834 19.7832 77.2959 19.7832V19.9658C76.7015 19.7939 76.4043 19.375 76.4043 18.709V15.3145C76.5332 15.3145 76.7122 15.2536 76.9414 15.1318ZM101.84 1.55371C102.012 1.55371 102.191 1.73275 102.377 2.09082C102.613 5.49251 102.731 8.29264 102.731 10.4912V11.2109C102.731 11.5046 102.85 12.0417 103.086 12.8223L102.549 13.1768H102.012L101.84 12.2852V11.0283C101.84 7.39746 101.661 4.47917 101.303 2.27344C101.482 1.79362 101.661 1.55371 101.84 1.55371ZM93.4395 4.77637C96.7767 5.09147 98.4453 5.92578 98.4453 7.2793V7.45117C97.543 8.64714 96.5296 9.24512 95.4053 9.24512H95.0508C93.2604 9.0446 92.3652 8.32845 92.3652 7.09668V6.74219C92.7233 5.43164 93.0814 4.77637 93.4395 4.77637ZM93.9766 5.66797L93.2568 6.9248C93.2568 7.87728 93.9121 8.35352 95.2227 8.35352C96.1751 8.35352 96.9521 7.93457 97.5537 7.09668C96.8161 6.14421 95.6237 5.66797 93.9766 5.66797ZM96.834 12.457L97.0166 12.8223V12.9941C97.0166 13.3522 96.9557 13.5312 96.834 13.5312C96.9915 16.0378 97.3496 17.291 97.9082 17.291C100.207 17.291 102.409 17.112 104.515 16.7539L104.88 17.291V17.6455C104.88 17.8174 104.701 17.9964 104.343 18.1826C103.627 18.0967 103.269 17.9785 103.269 17.8281C102.431 18.0645 100.347 18.2399 97.0166 18.3545C96.3005 17.4163 95.9424 15.5723 95.9424 12.8223C96.3291 12.5788 96.6263 12.457 96.834 12.457ZM114.515 3.88477H115.041C115.285 3.88477 115.406 4.0638 115.406 4.42188C115.406 8.34635 115.703 12.5143 116.298 16.9258C116.298 17.1693 116.18 17.291 115.943 17.291H115.224C115.145 17.291 114.966 17.112 114.687 16.7539L114.869 16.3887V16.0342L114.149 4.05664L114.515 3.88477ZM106.114 5.48535C106.931 5.6071 107.464 5.72884 107.715 5.85059C109.742 5.68587 110.873 5.56413 111.109 5.48535C111.503 5.6071 111.743 5.84701 111.829 6.20508C111.091 7.82357 110.436 10.2083 109.863 13.3594C109.469 13.5957 109.111 13.7139 108.789 13.7139L108.435 13.1768C109.623 9.33822 110.218 7.31152 110.218 7.09668V6.9248L108.435 6.74219C107.246 6.86393 106.351 6.9248 105.749 6.9248L105.395 6.3877V6.02246C105.395 5.84342 105.634 5.66439 106.114 5.48535ZM127.983 0.125H128.155C128.399 0.125 128.521 0.304036 128.521 0.662109C127.561 1.97266 127.081 2.86784 127.081 3.34766C130.662 5.07357 132.452 6.02604 132.452 6.20508V6.55957C132.452 6.73145 132.273 6.91048 131.915 7.09668C130.97 6.32324 129.061 5.37077 126.189 4.23926C125.294 6.62402 124.582 7.81641 124.052 7.81641L123.687 7.2793C125.269 3.84896 126.701 1.46419 127.983 0.125ZM127.446 8.89062H127.983V9.0625C128.263 13.9466 128.56 16.3887 128.875 16.3887H129.047C132.628 16.3887 135.073 16.1523 136.384 15.6797L136.738 16.2168V16.5713C136.738 16.779 136.441 16.958 135.847 17.1084C135.718 17.1084 135.539 17.0475 135.31 16.9258C130.024 17.5202 126.211 17.8174 123.869 17.8174C123.64 17.7028 123.461 17.6455 123.332 17.6455V17.1084C123.368 16.8721 123.486 16.7539 123.687 16.7539H125.652L127.446 16.5713C127.446 16.0986 127.325 13.8356 127.081 9.78223H126.909C127.06 9.18783 127.239 8.89062 127.446 8.89062ZM146.889 2.09082C147.526 2.09082 148.006 4.17839 148.328 8.35352L149.037 11.0283V11.2109C149.037 11.3828 148.858 11.5618 148.5 11.748C148.02 11.748 147.544 9.78223 147.071 5.85059L142.603 6.20508V5.66797C142.603 5.28125 143.974 4.98405 146.717 4.77637C146.717 4.65462 146.774 4.59375 146.889 4.59375C146.889 4.47917 146.713 3.7666 146.362 2.45605C146.362 2.21257 146.538 2.09082 146.889 2.09082ZM140.991 2.45605H141.528V2.62793C141.528 2.91439 141.052 3.98861 140.1 5.85059C141.568 6.59538 142.878 7.42969 144.031 8.35352V8.89062H143.859C143.566 8.89062 142.194 8.23535 139.745 6.9248H139.391C138.488 8.70801 137.951 9.59961 137.779 9.59961C137.55 9.47786 137.371 9.41699 137.242 9.41699V9.0625C137.242 8.86914 138.016 7.37956 139.562 4.59375C140.314 3.16862 140.791 2.45605 140.991 2.45605ZM147.426 12.9941L148.5 17.1084C148.342 17.266 147.748 17.445 146.717 17.6455L145.825 17.4629H145.288C144.794 17.4629 144.139 17.5238 143.322 17.6455C143.086 17.5238 142.907 17.4629 142.785 17.4629L142.431 18V19.2568C142.431 19.3714 142.667 19.5505 143.14 19.7939C143.261 19.7939 143.322 19.7331 143.322 19.6113L144.214 19.7939L145.46 19.6113C146.276 19.7331 146.932 19.7939 147.426 19.7939L148.683 19.6113L149.037 20.1484V20.5029C149.037 20.596 148.858 20.7751 148.5 21.04C148.035 20.8037 147.379 20.6855 146.534 20.6855H145.825C145.396 20.6855 144.858 20.7428 144.214 20.8574L143.859 20.6855L143.14 20.8574C141.951 20.8574 141.356 20.3812 141.356 19.4287C141.356 17.6455 141.654 16.7539 142.248 16.7539C143.093 16.7539 144.701 16.693 147.071 16.5713L147.254 16.2168C146.817 14.6628 146.459 13.8857 146.18 13.8857C144.396 14.1292 142.907 14.251 141.711 14.251C141.475 14.251 141.356 14.1292 141.356 13.8857V13.3594L142.248 13.1768C145.306 13.055 147.032 12.9941 147.426 12.9941Z" fill="#222222"/>
<path d="M11.5479 0.307617L11.5853 0.0604383L11.5667 0.0576172H11.5479V0.307617ZM11.5479 6.3877L11.3392 6.52541L11.4494 6.69233L11.6364 6.62149L11.5479 6.3877ZM11.1934 5.85059H10.9434V5.92565L10.9847 5.9883L11.1934 5.85059ZM7.26172 1.55371L7.03947 1.6682L7.12365 1.8316L7.30472 1.79999L7.26172 1.55371ZM7.0791 1.19922H6.8291V1.25983L6.85686 1.31371L7.0791 1.19922ZM6.00488 1.91895L6.25329 1.94713L6.25488 1.93308V1.91895H6.00488ZM5.2959 6.9248L5.18141 7.14705L5.29644 7.20631L5.41124 7.14661L5.2959 6.9248ZM4.75879 6.74219L4.50913 6.72918L4.49542 6.99219H4.75879V6.74219ZM4.93066 1.91895H5.18066V1.66895H4.93066V1.91895ZM3.85645 1.73633L3.99702 1.5296L3.91274 1.47228L3.81241 1.49024L3.85645 1.73633ZM1.18164 2.45605L1.06435 2.67683L1.15799 2.72658L1.25884 2.69384L1.18164 2.45605ZM0.644531 2.27344H0.394531V2.52344H0.644531V2.27344ZM0.644531 1.38184L0.592504 1.13731L0.394531 1.17943V1.38184H0.644531ZM14.4053 9.9541H14.1553V10.0131L14.1817 10.0659L14.4053 9.9541ZM14.5879 10.3193H14.8379V10.2603L14.8115 10.2075L14.5879 10.3193ZM10.6562 11.2109V10.9609H10.5239L10.4495 11.0704L10.6562 11.2109ZM10.291 11.748L10.0843 11.6075L10.0367 11.6774L10.0414 11.7619L10.291 11.748ZM10.8281 15.6797L11.0517 15.7915L11.1104 15.6742L11.0472 15.5592L10.8281 15.6797ZM10.4736 16.3887L10.25 16.2769L10.0691 16.6387H10.4736V16.3887ZM13.6963 19.7939L13.8995 19.9396L13.9491 19.8704L13.9461 19.7853L13.6963 19.7939ZM7.61621 21.5771L7.56655 21.3321L7.36621 21.3727V21.5771H7.61621ZM7.26172 21.7598V21.5098H7.01172V21.7598H7.26172ZM7.26172 21.9316H7.01172V21.958L7.01721 21.9837L7.26172 21.9316ZM15.4795 23.3604L15.6881 23.2226L15.5629 23.0328L15.3621 23.1396L15.4795 23.3604ZM15.834 23.8975L16.0749 23.9642L16.1053 23.8546L16.0426 23.7598L15.834 23.8975ZM14.4053 24.6172H14.6553V24.3189L14.3616 24.371L14.4053 24.6172ZM6.72461 23.3604H6.97461V23.132L6.74724 23.1114L6.72461 23.3604ZM6.1875 22.1143H5.9375V22.133L5.94028 22.1514L6.1875 22.1143ZM12.4395 19.4287L12.4959 19.6722L12.6068 19.6465L12.6602 19.546L12.4395 19.4287ZM12.2568 17.291L12.4855 17.19L12.4039 17.0052L12.206 17.0462L12.2568 17.291ZM6.1875 17.6455H5.9375V17.8955H6.1875V17.6455ZM6.00488 17.4629L5.75789 17.4242L5.71268 17.7129H6.00488V17.4629ZM9.93652 16.5713V16.8213H10.1865V16.5713H9.93652ZM9.93652 16.3887H10.1865V16.1387H9.93652V16.3887ZM9.22754 11.5654L9.47669 11.5449L9.45651 11.3L9.21129 11.316L9.22754 11.5654ZM2.96484 11.3936H2.71484V11.5887L2.90421 11.6361L2.96484 11.3936ZM2.96484 10.8564L2.74124 10.7446L2.71484 10.7974V10.8564H2.96484ZM3.14746 10.4912L3.16565 10.2419L2.99871 10.2297L2.92385 10.3794L3.14746 10.4912ZM5.65039 10.6738L5.6322 10.9232L5.65111 10.9245L5.67002 10.9231L5.65039 10.6738ZM14.4053 9.78223H14.6553V9.49868L14.374 9.5342L14.4053 9.78223ZM11.5104 0.554796C11.6561 0.576873 11.769 0.655026 11.8556 0.829635C11.949 1.01766 12.0068 1.31219 12.0068 1.73633H12.5068C12.5068 1.2796 12.4466 0.89559 12.3035 0.607376C12.1539 0.305748 11.9123 0.109976 11.5853 0.0604383L11.5104 0.554796ZM12.0068 1.73633V5.85059H12.5068V1.73633H12.0068ZM12.0068 5.85059C12.0068 5.82207 12.025 5.84685 11.9286 5.91987C11.8383 5.98832 11.6866 6.06779 11.4593 6.15391L11.6364 6.62149C11.8817 6.52856 12.0846 6.429 12.2306 6.31841C12.3705 6.21239 12.5068 6.05814 12.5068 5.85059H12.0068ZM11.7565 6.24998L11.402 5.71288L10.9847 5.9883L11.3392 6.52541L11.7565 6.24998ZM11.4434 5.85059V1.55371H10.9434V5.85059H11.4434ZM11.4434 1.55371C11.4434 1.39508 11.4021 1.23064 11.2762 1.10845C11.1517 0.987595 10.9866 0.949219 10.8281 0.949219V1.44922C10.8695 1.44922 10.8958 1.45433 10.911 1.45924C10.9183 1.4616 10.9226 1.46379 10.9249 1.46511C10.927 1.46636 10.9278 1.46712 10.9279 1.46724C10.928 1.46734 10.9285 1.46778 10.9293 1.46915C10.9302 1.4706 10.932 1.47387 10.9341 1.47982C10.9383 1.4922 10.9434 1.51537 10.9434 1.55371H11.4434ZM10.8281 0.949219H10.1191V1.44922H10.8281V0.949219ZM10.1191 0.949219C9.54356 0.949219 8.57164 1.07121 7.21872 1.30744L7.30472 1.79999C8.65883 1.56355 9.59186 1.44922 10.1191 1.44922V0.949219ZM7.48396 1.43922L7.30135 1.08473L6.85686 1.31371L7.03947 1.6682L7.48396 1.43922ZM7.3291 1.19922V1.0166H6.8291V1.19922H7.3291ZM7.3291 1.0166C7.3291 1.05252 7.29848 1.01181 7.46584 0.932156C7.61944 0.859048 7.8706 0.789662 8.23546 0.731775C8.96017 0.616798 10.0613 0.557617 11.5479 0.557617V0.0576172C10.0552 0.0576172 8.922 0.1166 8.15712 0.237951C7.77718 0.298229 7.46975 0.376548 7.25096 0.480686C7.04592 0.578273 6.8291 0.744358 6.8291 1.0166H7.3291ZM4.22168 1.09473H4.75879V0.594727H4.22168V1.09473ZM4.75879 1.09473C5.14396 1.09473 5.38617 1.17853 5.53012 1.30263C5.66698 1.42062 5.75488 1.60989 5.75488 1.91895H6.25488C6.25488 1.51186 6.1351 1.16402 5.85659 0.923929C5.58519 0.689958 5.20435 0.594727 4.75879 0.594727V1.09473ZM5.75648 1.89076C5.64133 2.90545 5.58301 3.75 5.58301 4.42188H6.08301C6.08301 3.77604 6.13926 2.95197 6.25329 1.94713L5.75648 1.89076ZM5.58301 4.42188V6.3877H6.08301V4.42188H5.58301ZM5.58301 6.3877C5.58301 6.38155 5.58667 6.40939 5.52195 6.4741C5.45794 6.53811 5.3487 6.61557 5.18056 6.703L5.41124 7.14661C5.60117 7.04784 5.76048 6.94268 5.87551 6.82766C5.98983 6.71333 6.08301 6.56572 6.08301 6.3877H5.58301ZM5.41039 6.70256C5.1711 6.57929 4.94544 6.49219 4.75879 6.49219V6.99219C4.81563 6.99219 4.94804 7.02683 5.18141 7.14705L5.41039 6.70256ZM5.00845 6.7552C5.12306 4.55608 5.18066 2.94282 5.18066 1.91895H4.68066C4.68066 2.92893 4.62368 4.53116 4.50913 6.72918L5.00845 6.7552ZM4.93066 1.66895C4.67017 1.66895 4.46151 1.65408 4.30118 1.62683C4.13666 1.59886 4.04332 1.56108 3.99702 1.5296L3.71587 1.94306C3.84861 2.03332 4.02382 2.08685 4.21738 2.11976C4.41511 2.15337 4.65405 2.16895 4.93066 2.16895V1.66895ZM3.81241 1.49024C3.11586 1.61488 2.21195 1.85869 1.10444 2.21827L1.25884 2.69384C2.35706 2.33727 3.23636 2.10126 3.90048 1.98242L3.81241 1.49024ZM1.29893 2.23528C1.06322 2.11005 0.838198 2.02344 0.644531 2.02344V2.52344C0.708677 2.52344 0.841729 2.55857 1.06435 2.67683L1.29893 2.23528ZM0.894531 2.27344V1.38184H0.394531V2.27344H0.894531ZM0.696558 1.62636C2.37993 1.2682 3.54904 1.09473 4.22168 1.09473V0.594727C3.49067 0.594727 2.27501 0.779329 0.592504 1.13731L0.696558 1.62636ZM14.1817 10.0659L14.3643 10.4311L14.8115 10.2075L14.6289 9.8423L14.1817 10.0659ZM14.3379 10.3193C14.3379 10.3588 14.3221 10.4207 14.2015 10.5027C14.0755 10.5884 13.865 10.6727 13.5497 10.7442C12.9225 10.8865 11.9622 10.9609 10.6562 10.9609V11.4609C11.9714 11.4609 12.977 11.3868 13.6603 11.2318C14.0002 11.1548 14.2812 11.0533 14.4828 10.9161C14.6898 10.7752 14.8379 10.5771 14.8379 10.3193H14.3379ZM10.4495 11.0704L10.0843 11.6075L10.4977 11.8886L10.863 11.3515L10.4495 11.0704ZM10.0414 11.7619C10.1024 12.8606 10.1781 13.7436 10.2689 14.4083C10.3143 14.7407 10.364 15.022 10.4185 15.2503C10.4721 15.4749 10.5337 15.6632 10.6091 15.8002L11.0472 15.5592C11.0044 15.4813 10.955 15.3447 10.9048 15.1342C10.8554 14.9275 10.8084 14.6636 10.7643 14.3407C10.6761 13.6949 10.6013 12.8269 10.5406 11.7342L10.0414 11.7619ZM10.6045 15.5679L10.25 16.2769L10.6972 16.5005L11.0517 15.7915L10.6045 15.5679ZM10.4736 16.6387H12.7939V16.1387H10.4736V16.6387ZM12.7939 16.6387C12.8188 16.6387 12.8687 16.6472 12.9421 16.7483C13.0187 16.854 13.0981 17.0327 13.17 17.304C13.313 17.8437 13.4072 18.6723 13.4464 19.8026L13.9461 19.7853C13.9066 18.6454 13.8111 17.7714 13.6533 17.176C13.5748 16.8797 13.476 16.6328 13.3468 16.4547C13.2143 16.2721 13.0304 16.1387 12.7939 16.1387V16.6387ZM13.4931 19.6483C13.4814 19.6647 13.4464 19.7006 13.3657 19.7521C13.2881 19.8016 13.1816 19.8572 13.0426 19.9182C12.7648 20.04 12.3771 20.1748 11.875 20.3221C10.8718 20.6163 9.4369 20.9531 7.56655 21.3321L7.66587 21.8222C9.54096 21.4421 10.9921 21.1021 12.0157 20.8019C12.5269 20.652 12.9376 20.5102 13.2435 20.376C13.3964 20.309 13.528 20.2417 13.6348 20.1735C13.7385 20.1073 13.8342 20.0307 13.8995 19.9396L13.4931 19.6483ZM7.36621 21.5771C7.36621 21.5653 7.3697 21.5436 7.38416 21.5212C7.39784 21.5001 7.41241 21.4922 7.4131 21.4919C7.41327 21.4918 7.41056 21.4932 7.40391 21.4952C7.39728 21.4973 7.38767 21.4997 7.3745 21.502C7.34772 21.5066 7.31075 21.5098 7.26172 21.5098V22.0098C7.39323 22.0098 7.52982 21.9942 7.64208 21.9364C7.70184 21.9056 7.76072 21.8597 7.80395 21.7929C7.84795 21.7249 7.86621 21.6498 7.86621 21.5771H7.36621ZM7.01172 21.7598V21.9316H7.51172V21.7598H7.01172ZM7.01721 21.9837C7.16078 22.6574 7.37521 23.1926 7.67747 23.5639C7.98776 23.9449 8.38719 24.1475 8.8623 24.1475V23.6475C8.54966 23.6475 8.28844 23.5223 8.0652 23.2482C7.83394 22.9641 7.64196 22.5164 7.50623 21.8795L7.01721 21.9837ZM8.8623 24.1475H10.8281V23.6475H8.8623V24.1475ZM10.8281 24.1475C12.0469 24.1475 13.052 24.1026 13.8404 24.0115C14.6211 23.9214 15.2166 23.7833 15.5969 23.5811L15.3621 23.1396C15.0692 23.2954 14.5529 23.4259 13.7831 23.5148C13.0211 23.6028 12.037 23.6475 10.8281 23.6475V24.1475ZM15.2708 23.4981L15.6253 24.0352L16.0426 23.7598L15.6881 23.2226L15.2708 23.4981ZM15.5931 23.8307C15.5227 24.0847 15.4055 24.254 15.2535 24.3628C15.0995 24.473 14.8845 24.5391 14.5879 24.5391V25.0391C14.9573 25.0391 15.283 24.9565 15.5444 24.7695C15.8077 24.5811 15.9806 24.3047 16.0749 23.9642L15.5931 23.8307ZM14.5879 24.5391C14.5619 24.5391 14.5889 24.5327 14.6223 24.564C14.6585 24.5981 14.6553 24.6319 14.6553 24.6172H14.1553C14.1553 24.717 14.1825 24.8368 14.2796 24.9281C14.3738 25.0168 14.4921 25.0391 14.5879 25.0391V24.5391ZM14.3616 24.371C13.0475 24.6042 11.5158 24.7217 9.76465 24.7217V25.2217C11.5369 25.2217 13.0989 25.1029 14.4489 24.8633L14.3616 24.371ZM9.76465 24.7217C8.76523 24.7217 8.05433 24.5879 7.6017 24.348C7.3791 24.23 7.22527 24.0897 7.12624 23.9322C7.02776 23.7756 6.97461 23.588 6.97461 23.3604H6.47461C6.47461 23.6698 6.54812 23.9522 6.70298 24.1984C6.85729 24.4438 7.08347 24.6392 7.36754 24.7897C7.92826 25.0869 8.73737 25.2217 9.76465 25.2217V24.7217ZM6.74724 23.1114C6.77988 23.1143 6.72823 23.1323 6.64267 22.9338C6.56591 22.7557 6.49452 22.4746 6.43472 22.0771L5.94028 22.1514C6.00222 22.5632 6.08123 22.8944 6.18351 23.1317C6.27698 23.3485 6.43301 23.5849 6.70198 23.6093L6.74724 23.1114ZM6.4375 22.1143V21.5771H5.9375V22.1143H6.4375ZM6.4375 21.5771C6.4375 21.6145 6.41783 21.6124 6.46317 21.5664C6.50527 21.5237 6.58069 21.467 6.70156 21.3985C6.94185 21.2623 7.31536 21.1048 7.83174 20.9273C8.86123 20.5736 10.4141 20.1551 12.4959 19.6722L12.383 19.1852C10.2968 19.6691 8.72374 20.0921 7.66924 20.4545C7.14362 20.6351 6.73564 20.8044 6.45494 20.9636C6.31531 21.0427 6.19535 21.1259 6.10721 21.2153C6.02229 21.3014 5.9375 21.4234 5.9375 21.5771H6.4375ZM12.6602 19.546C12.7855 19.3103 12.8721 19.0853 12.8721 18.8916H12.3721C12.3721 18.9557 12.3369 19.0888 12.2187 19.3114L12.6602 19.546ZM12.8721 18.8916C12.8721 18.3358 12.7407 17.768 12.4855 17.19L12.0281 17.392C12.2599 17.9169 12.3721 18.4161 12.3721 18.8916H12.8721ZM12.206 17.0462C11.0954 17.2767 9.09587 17.3955 6.1875 17.3955V17.8955C9.09423 17.8955 11.1409 17.7779 12.3076 17.5358L12.206 17.0462ZM6.4375 17.6455C6.4375 17.5461 6.41248 17.4256 6.31862 17.3318C6.22477 17.2379 6.10429 17.2129 6.00488 17.2129V17.7129C6.02722 17.7129 5.99805 17.7183 5.96507 17.6853C5.93209 17.6523 5.9375 17.6232 5.9375 17.6455H6.4375ZM6.25187 17.5016C6.26026 17.448 6.29811 17.3721 6.43702 17.2838C6.57803 17.1943 6.79818 17.1094 7.11291 17.038C7.74055 16.8957 8.67789 16.8213 9.93652 16.8213V16.3213C8.66716 16.3213 7.68523 16.3955 7.00233 16.5504C6.66178 16.6276 6.37884 16.7285 6.16893 16.8618C5.95693 16.9965 5.79606 17.1805 5.75789 17.4242L6.25187 17.5016ZM10.1865 16.5713V16.3887H9.68652V16.5713H10.1865ZM9.93652 16.1387C10.0097 16.1387 10.0552 16.175 10.0696 16.1887C10.0834 16.2019 10.0849 16.2087 10.0778 16.1955C10.064 16.1697 10.0425 16.1154 10.0164 16.0207C9.96509 15.835 9.90956 15.5459 9.85086 15.1465C9.73389 14.3508 9.60908 13.1514 9.47669 11.5449L8.97838 11.586C9.11097 13.1949 9.23681 14.4072 9.35617 15.2192C9.41563 15.6237 9.47469 15.9375 9.53441 16.1538C9.56374 16.26 9.59686 16.3564 9.63682 16.4312C9.65658 16.4681 9.6847 16.5127 9.72494 16.551C9.76573 16.5898 9.83736 16.6387 9.93652 16.6387V16.1387ZM9.21129 11.316C7.3429 11.4377 5.97833 11.498 5.11328 11.498V11.998C5.99563 11.998 7.37389 11.9367 9.24379 11.8149L9.21129 11.316ZM5.11328 11.498C4.65822 11.498 3.96656 11.3863 3.02548 11.151L2.90421 11.6361C3.85376 11.8735 4.59438 11.998 5.11328 11.998V11.498ZM3.21484 11.3936V10.8564H2.71484V11.3936H3.21484ZM3.18845 10.9682L3.37107 10.603L2.92385 10.3794L2.74124 10.7446L3.18845 10.9682ZM3.12927 10.7405L5.6322 10.9232L5.66858 10.4245L3.16565 10.2419L3.12927 10.7405ZM5.67002 10.9231C8.67437 10.6864 11.5966 10.3888 14.4366 10.0303L14.374 9.5342C11.5421 9.89175 8.62771 10.1886 5.63076 10.4246L5.67002 10.9231ZM14.1553 9.78223V9.9541H14.6553V9.78223H14.1553ZM25.2754 2.27344L25.3927 2.05266L25.3377 2.02344H25.2754V2.27344ZM25.8125 2.45605H26.0625V2.20605H25.8125V2.45605ZM25.8125 5.66797H25.5625V5.72538L25.5875 5.77704L25.8125 5.66797ZM25.9844 6.02246L25.7594 6.13153L25.8389 6.29555L26.0194 6.26999L25.9844 6.02246ZM28.4873 5.66797L28.5224 5.9155L28.7373 5.88506V5.66797H28.4873ZM28.3047 3.16504L28.0839 3.04775L28.0184 3.17103L28.089 3.29147L28.3047 3.16504ZM28.4873 2.62793V2.37793H28.2373V2.62793H28.4873ZM29.5615 7.45117L29.8105 7.47369L29.8123 7.45339L29.8109 7.43306L29.5615 7.45117ZM29.3789 11.2109L29.5166 11.4196L29.6289 11.3455V11.2109H29.3789ZM28.8418 11.5654L28.7041 11.7741L28.8418 11.865L28.9795 11.7741L28.8418 11.5654ZM28.3047 11.2109L28.056 11.1855L28.0406 11.3362L28.167 11.4196L28.3047 11.2109ZM28.6699 7.63379L28.9186 7.65918L28.9271 7.57574L28.8836 7.50404L28.6699 7.63379ZM28.4873 6.74219H28.7373V6.49219H28.4873V6.74219ZM25.9844 7.63379L25.7571 7.52972L25.7344 7.57928V7.63379H25.9844ZM25.8125 9.41699V9.16699H25.5179L25.5658 9.45769L25.8125 9.41699ZM26.167 11.5654L26.3878 11.6827L26.4274 11.6081L26.4137 11.5247L26.167 11.5654ZM25.9844 12.1025V12.3525H26.2344V12.1025H25.9844ZM25.0928 11.5654L24.8429 11.5727L24.8445 11.63L24.871 11.6808L25.0928 11.5654ZM24.9102 2.98242L24.6606 2.9673L24.6602 2.97485V2.98242H24.9102ZM22.7725 3.51953L22.9987 3.41308L22.9222 3.25053L22.7437 3.27119L22.7725 3.51953ZM22.9443 3.88477H23.1943V3.82888L23.1705 3.77832L22.9443 3.88477ZM22.9443 4.05664L23.1073 4.24624L23.1943 4.17142V4.05664H22.9443ZM20.2695 6.74219H20.0195V6.88384L20.141 6.95664L20.2695 6.74219ZM22.9443 8.70801H23.1943V8.65239L23.1708 8.60202L22.9443 8.70801ZM22.0527 9.0625L21.8992 9.25977L21.9669 9.3125H22.0527V9.0625ZM19.3779 7.45117L19.4584 7.21448L19.304 7.16199L19.1938 7.2821L19.3779 7.45117ZM20.624 4.77637L20.8016 4.95239L21.2839 4.46585L20.6016 4.52738L20.624 4.77637ZM16.6924 5.13086L16.4837 5.26857L16.566 5.39327L16.7148 5.37985L16.6924 5.13086ZM16.3379 4.59375H16.0879V4.66881L16.1292 4.73146L16.3379 4.59375ZM17.0576 4.05664V3.80664H17.0409L17.0243 3.80887L17.0576 4.05664ZM28.6699 12.9941L28.8209 12.7949L28.7441 12.7367L28.648 12.7451L28.6699 12.9941ZM29.3789 13.5312L29.6246 13.5774L29.6532 13.4254L29.5299 13.332L29.3789 13.5312ZM27.2412 17.6348H27.4912V17.2303L27.1294 17.4112L27.2412 17.6348ZM26.876 17.8174V18.0674H26.935L26.9878 18.041L26.876 17.8174ZM26.167 17.8174V17.5674H26.1543L26.1417 17.5687L26.167 17.8174ZM24.373 18V18.25H24.3857L24.3984 18.2487L24.373 18ZM23.4814 13.3486L23.3696 13.125L23.2175 13.2011L23.2324 13.3705L23.4814 13.3486ZM23.8467 13.166V12.916H23.7877L23.7349 12.9424L23.8467 13.166ZM26.7041 14.0684V14.3184H26.7223L26.7404 14.3157L26.7041 14.0684ZM24.9102 14.0684V13.8184H24.8913L24.8727 13.8212L24.9102 14.0684ZM24.9102 16.9258L24.6646 16.9729L24.7078 17.1977L24.9355 17.1745L24.9102 16.9258ZM26.7041 16.7432V16.4932H26.6914L26.6788 16.4944L26.7041 16.7432ZM27.5957 16.7432V16.9932H27.7548L27.8222 16.849L27.5957 16.7432ZM28.1328 14.2402H28.3828V14.1796L28.3551 14.1257L28.1328 14.2402ZM27.9502 13.8857L28.1724 13.7713L28.0907 13.6125L27.9139 13.6384L27.9502 13.8857ZM25.1581 2.49422C25.3938 2.61944 25.6188 2.70605 25.8125 2.70605V2.20605C25.7484 2.20605 25.6153 2.17093 25.3927 2.05266L25.1581 2.49422ZM25.5625 2.45605V5.66797H26.0625V2.45605H25.5625ZM25.5875 5.77704L25.7594 6.13153L26.2093 5.91339L26.0375 5.5589L25.5875 5.77704ZM26.0194 6.26999L28.5224 5.9155L28.4522 5.42044L25.9493 5.77493L26.0194 6.26999ZM28.7373 5.66797V3.88477H28.2373V5.66797H28.7373ZM28.7373 3.88477C28.7373 3.5741 28.6674 3.28943 28.5204 3.03861L28.089 3.29147C28.1855 3.45601 28.2373 3.65116 28.2373 3.88477H28.7373ZM28.5255 3.28233C28.6507 3.04662 28.7373 2.8216 28.7373 2.62793H28.2373C28.2373 2.69208 28.2022 2.82513 28.0839 3.04775L28.5255 3.28233ZM28.4873 2.87793H29.0244V2.37793H28.4873V2.87793ZM29.0244 2.87793C29.0517 2.87793 29.0635 2.88298 29.0668 2.88465C29.0691 2.88583 29.0741 2.8885 29.0816 2.89992C29.1012 2.9295 29.1289 3.00557 29.1289 3.16504H29.6289C29.6289 2.96644 29.5976 2.77395 29.4989 2.6245C29.3883 2.45685 29.2165 2.37793 29.0244 2.37793V2.87793ZM29.1289 3.16504C29.1289 4.35465 29.1902 5.78976 29.3122 7.46929L29.8109 7.43306C29.6894 5.76102 29.6289 4.33871 29.6289 3.16504H29.1289ZM29.3125 7.42866C29.1902 8.78131 29.1289 10.0422 29.1289 11.2109H29.6289C29.6289 10.0594 29.6893 8.81374 29.8105 7.47369L29.3125 7.42866ZM29.2412 11.0023L28.7041 11.3568L28.9795 11.7741L29.5166 11.4196L29.2412 11.0023ZM28.9795 11.3568L28.4424 11.0023L28.167 11.4196L28.7041 11.7741L28.9795 11.3568ZM28.5534 11.2363L28.9186 7.65918L28.4212 7.6084L28.056 11.1855L28.5534 11.2363ZM28.8836 7.50404C28.7967 7.36092 28.7373 7.1179 28.7373 6.74219H28.2373C28.2373 7.15424 28.2996 7.50562 28.4562 7.76353L28.8836 7.50404ZM28.4873 6.49219H27.7676V6.99219H28.4873V6.49219ZM27.7676 6.49219C26.799 6.49219 26.0861 6.81113 25.7571 7.52972L26.2117 7.73786C26.427 7.26765 26.9028 6.99219 27.7676 6.99219V6.49219ZM25.7344 7.63379V9.24512H26.2344V7.63379H25.7344ZM25.7344 9.24512C25.7344 9.26387 25.7299 9.23202 25.7646 9.19725C25.7994 9.16247 25.8313 9.16699 25.8125 9.16699V9.66699C25.9083 9.66699 26.0261 9.64287 26.1182 9.5508C26.2102 9.45873 26.2344 9.34095 26.2344 9.24512H25.7344ZM25.5658 9.45769L25.9203 11.6061L26.4137 11.5247L26.0592 9.37629L25.5658 9.45769ZM25.9462 11.4481C25.821 11.6839 25.7344 11.9089 25.7344 12.1025H26.2344C26.2344 12.0384 26.2695 11.9053 26.3878 11.6827L25.9462 11.4481ZM25.9844 11.8525H25.6299V12.3525H25.9844V11.8525ZM25.6299 11.8525C25.636 11.8525 25.6082 11.8562 25.5435 11.7915C25.4795 11.7275 25.402 11.6182 25.3146 11.4501L24.871 11.6808C24.9697 11.8707 25.0749 12.03 25.1899 12.145C25.3042 12.2594 25.4519 12.3525 25.6299 12.3525V11.8525ZM25.3427 11.5581C25.2209 7.3827 25.1602 4.52515 25.1602 2.98242H24.6602C24.6602 4.53345 24.7211 7.3979 24.8429 11.5727L25.3427 11.5581ZM25.1597 2.99755C25.1733 2.77298 25.2081 2.6371 25.2452 2.56517C25.2624 2.53184 25.2747 2.52285 25.2754 2.52235C25.2756 2.52221 25.2745 2.5229 25.2729 2.52341C25.2713 2.5239 25.2717 2.52344 25.2754 2.52344V2.02344C25.0505 2.02344 24.8923 2.15841 24.8007 2.33619C24.716 2.5006 24.6756 2.71921 24.6606 2.9673L25.1597 2.99755ZM22.5463 3.62598L22.7181 3.99121L23.1705 3.77832L22.9987 3.41308L22.5463 3.62598ZM22.6943 3.88477V4.05664H23.1943V3.88477H22.6943ZM22.7814 3.86704C21.8883 4.63461 21.2138 5.24651 20.7611 5.70102C20.5353 5.92769 20.3597 6.12017 20.2389 6.27639C20.1787 6.35427 20.1278 6.42864 20.0908 6.49781C20.0573 6.56065 20.0195 6.64731 20.0195 6.74219H20.5195C20.5195 6.77261 20.5097 6.7749 20.5318 6.73345C20.5506 6.69833 20.5832 6.6485 20.6345 6.58225C20.7366 6.45023 20.8953 6.27478 21.1154 6.05386C21.5543 5.61319 22.2172 5.01122 23.1073 4.24624L22.7814 3.86704ZM20.141 6.95664C20.9512 7.44199 21.5728 7.84468 22.0094 8.16556C22.2279 8.32612 22.396 8.46324 22.5168 8.57748C22.6425 8.69632 22.6992 8.77397 22.7179 8.81399L23.1708 8.60202C23.1107 8.47375 22.9969 8.34327 22.8603 8.21415C22.7188 8.08042 22.5329 7.92974 22.3055 7.76266C21.8505 7.42827 21.2136 7.01634 20.398 6.52773L20.141 6.95664ZM22.6943 8.70801C22.6943 8.747 22.6894 8.77095 22.685 8.78404C22.6829 8.79034 22.6811 8.79384 22.6801 8.7954C22.6796 8.79621 22.6793 8.79666 22.6791 8.79685C22.6791 8.79695 22.679 8.79702 22.679 8.79705C22.679 8.79708 22.6789 8.79709 22.6789 8.7971C22.6789 8.79711 22.6789 8.79712 22.6789 8.79715C22.6789 8.79718 22.6788 8.79723 22.6787 8.79731C22.6785 8.79746 22.678 8.79779 22.6772 8.79828C22.6757 8.79922 22.6722 8.80107 22.6659 8.80317C22.6528 8.80754 22.6288 8.8125 22.5898 8.8125V9.3125C22.7465 9.3125 22.91 9.27316 23.0325 9.15065C23.155 9.02815 23.1943 8.86471 23.1943 8.70801H22.6943ZM22.5898 8.8125H22.0527V9.3125H22.5898V8.8125ZM22.2063 8.86523C21.1317 8.02865 20.214 7.47139 19.4584 7.21448L19.2975 7.68787C19.9741 7.91794 20.8396 8.4349 21.8992 9.25977L22.2063 8.86523ZM19.1938 7.2821C18.5929 7.93667 18.1311 8.42498 17.8074 8.74876C17.645 8.91116 17.5206 9.02878 17.4325 9.1045C17.3879 9.14282 17.3574 9.1662 17.3389 9.17862C17.3294 9.18493 17.3281 9.18502 17.3331 9.18268C17.3359 9.1814 17.3433 9.17811 17.3544 9.17491C17.3647 9.17191 17.3851 9.16699 17.4121 9.16699V9.66699C17.4738 9.66699 17.5226 9.64599 17.5442 9.63595C17.5712 9.62337 17.5962 9.6081 17.6173 9.59394C17.6598 9.5654 17.7076 9.52734 17.7583 9.48375C17.8608 9.39566 17.9957 9.26755 18.1609 9.10231C18.4924 8.77082 18.9599 8.27622 19.5621 7.62024L19.1938 7.2821ZM17.4121 9.16699H17.2295V9.66699H17.4121V9.16699ZM17.2295 9.16699C17.1905 9.16699 17.1666 9.16203 17.1535 9.15767C17.1472 9.15557 17.1437 9.15371 17.1421 9.15277C17.1413 9.15229 17.1408 9.15195 17.1406 9.1518C17.1405 9.15172 17.1405 9.15167 17.1405 9.15164C17.1404 9.15161 17.1404 9.1516 17.1404 9.15159C17.1404 9.15159 17.1404 9.15157 17.1404 9.15154C17.1403 9.15151 17.1403 9.15145 17.1402 9.15134C17.14 9.15115 17.1397 9.1507 17.1392 9.14989C17.1383 9.14833 17.1364 9.14483 17.1343 9.13853C17.13 9.12544 17.125 9.10149 17.125 9.0625H16.625C16.625 9.2192 16.6643 9.38264 16.7868 9.50515C16.9093 9.62765 17.0728 9.66699 17.2295 9.66699V9.16699ZM17.125 9.0625C17.125 9.08342 17.1201 9.06931 17.1561 8.99911C17.1875 8.9377 17.2387 8.85523 17.3134 8.74973C17.4623 8.53936 17.6901 8.25788 18.0004 7.90312C18.6201 7.1947 19.553 6.21169 20.8016 4.95239L20.4465 4.60035C19.1957 5.86188 18.2541 6.85364 17.6241 7.57393C17.3095 7.93353 17.0688 8.22988 16.9053 8.46084C16.8237 8.57601 16.7577 8.68007 16.7111 8.77107C16.669 8.85326 16.625 8.95744 16.625 9.0625H17.125ZM20.6016 4.52738L16.6699 4.88187L16.7148 5.37985L20.6465 5.02536L20.6016 4.52738ZM16.901 4.99315L16.5465 4.45604L16.1292 4.73146L16.4837 5.26857L16.901 4.99315ZM16.5879 4.59375C16.5879 4.52764 16.6092 4.48303 16.6673 4.43962C16.7383 4.38663 16.8698 4.33411 17.0909 4.30442L17.0243 3.80887C16.7656 3.84363 16.5372 3.91285 16.3683 4.0389C16.1866 4.17452 16.0879 4.36624 16.0879 4.59375H16.5879ZM17.0576 4.30664C17.7916 4.30664 19.7136 4.12523 22.8012 3.76787L22.7437 3.27119C19.6438 3.62998 17.7559 3.80664 17.0576 3.80664V4.30664ZM28.519 13.1934L29.2279 13.7305L29.5299 13.332L28.8209 12.7949L28.519 13.1934ZM29.1332 13.4851C28.8654 14.9098 28.6 15.9643 28.3392 16.6579C28.2083 17.0061 28.084 17.2485 27.9706 17.3993C27.8525 17.5564 27.783 17.5674 27.7676 17.5674V18.0674C28.0207 18.0674 28.2198 17.8998 28.3702 17.6997C28.5254 17.4934 28.6696 17.1999 28.8073 16.8338C29.0836 16.0987 29.3553 15.0101 29.6246 13.5774L29.1332 13.4851ZM27.7676 17.5674H27.4131V18.0674H27.7676V17.5674ZM27.4131 17.5674C27.3983 17.5674 27.4322 17.5642 27.4662 17.6004C27.4976 17.6337 27.4912 17.6607 27.4912 17.6348H26.9912C26.9912 17.7305 27.0135 17.8489 27.1021 17.9431C27.1935 18.0401 27.3133 18.0674 27.4131 18.0674V17.5674ZM27.1294 17.4112L26.7642 17.5938L26.9878 18.041L27.353 17.8584L27.1294 17.4112ZM26.876 17.5674H26.167V18.0674H26.876V17.5674ZM26.1417 17.5687L24.3477 17.7513L24.3984 18.2487L26.1923 18.0661L26.1417 17.5687ZM24.373 17.75C24.4415 17.75 24.4656 17.7919 24.4471 17.7694C24.4308 17.7493 24.4029 17.7034 24.3682 17.6165C24.2998 17.4452 24.2274 17.1733 24.154 16.7901C24.0079 16.0278 23.8664 14.8752 23.7305 13.3268L23.2324 13.3705C23.3686 14.923 23.5118 16.0961 23.6629 16.8842C23.7381 17.2763 23.8175 17.5857 23.9039 17.802C23.9466 17.909 23.9969 18.0084 24.0596 18.0853C24.1202 18.1596 24.224 18.25 24.373 18.25V17.75ZM23.5932 13.5722L23.9585 13.3896L23.7349 12.9424L23.3696 13.125L23.5932 13.5722ZM23.8467 13.416H25.2754V12.916H23.8467V13.416ZM25.2754 13.416C26.2444 13.416 27.3836 13.3582 28.6918 13.2432L28.648 12.7451C27.3495 12.8593 26.2256 12.916 25.2754 12.916V13.416ZM26.7041 13.8184H24.9102V14.3184H26.7041V13.8184ZM24.8727 13.8212C24.7237 13.8438 24.5775 13.8971 24.4675 14.0071C24.3524 14.1222 24.3057 14.2705 24.3057 14.4229H24.8057C24.8057 14.3747 24.818 14.3637 24.8211 14.3606C24.8293 14.3524 24.8603 14.3288 24.9476 14.3155L24.8727 13.8212ZM24.3057 14.4229C24.3057 14.8872 24.4289 15.7443 24.6646 16.9729L25.1557 16.8787C24.9187 15.6437 24.8057 14.8322 24.8057 14.4229H24.3057ZM24.9355 17.1745L26.7294 16.9919L26.6788 16.4944L24.8848 16.6771L24.9355 17.1745ZM26.7041 16.9932H27.5957V16.4932H26.7041V16.9932ZM27.8222 16.849C28.1944 16.0524 28.3828 15.243 28.3828 14.4229H27.8828C27.8828 15.1639 27.7131 15.9014 27.3692 16.6373L27.8222 16.849ZM28.3828 14.4229V14.2402H27.8828V14.4229H28.3828ZM28.3551 14.1257L28.1724 13.7713L27.728 14.0002L27.9106 14.3547L28.3551 14.1257ZM27.9139 13.6384L26.6679 13.821L26.7404 14.3157L27.9864 14.1331L27.9139 13.6384ZM49.4756 0.479492V0.229492H49.4197L49.3691 0.253287L49.4756 0.479492ZM49.8301 0.479492L49.9063 0.241386L49.8691 0.229492H49.8301V0.479492ZM50.5498 9.23438L50.3 9.24396L50.3092 9.48438H50.5498V9.23438ZM50.7217 9.41699H50.4717V9.70185L50.7541 9.66488L50.7217 9.41699ZM55.9102 8.52539L56.1188 8.38768L56.0138 8.22853L55.8325 8.28775L55.9102 8.52539ZM56.2646 9.0625H56.5146V8.98744L56.4733 8.92479L56.2646 9.0625ZM55.0186 9.9541L55.1518 9.74254L55.08 9.69735L54.9955 9.70516L55.0186 9.9541ZM51.624 19.7939L51.7345 20.0182L51.9008 19.9363L51.8707 19.7534L51.624 19.7939ZM50.9043 20.3311L50.787 20.5518L51.1543 20.747V20.3311H50.9043ZM50.3672 20.1484H50.1172V20.3984H50.3672V20.1484ZM50.3672 19.7939H50.6172V19.7857L50.6166 19.7776L50.3672 19.7939ZM49.1104 0.651367L49.0039 0.425162L48.8497 0.497716L48.8609 0.667746L49.1104 0.651367ZM43.75 4.76562L43.9867 4.68515L43.9227 4.49699L43.725 4.51688L43.75 4.76562ZM44.1045 5.30273L44.3385 5.39071L44.4656 5.05273H44.1045V5.30273ZM42.4932 12.6396H42.2432V12.6659L42.2486 12.6916L42.4932 12.6396ZM42.8584 15.1426L42.9702 15.3662L43.1084 15.2971V15.1426H42.8584ZM42.4932 15.3252V15.5752H42.5522L42.605 15.5488L42.4932 15.3252ZM41.9561 15.3252L41.8135 15.5306L41.8778 15.5752H41.9561V15.3252ZM41.4297 14.96L41.1799 14.9493L41.174 15.0868L41.2872 15.1654L41.4297 14.96ZM42.6758 6.02246L42.8938 6.14483L43.1028 5.77246H42.6758V6.02246ZM42.3213 5.83984H42.5713V5.53679L42.2738 5.5944L42.3213 5.83984ZM36.7783 7.09668L36.5547 7.20848L36.6482 7.39553L36.8489 7.33652L36.7783 7.09668ZM36.5957 6.73145H36.3457V6.79046L36.3721 6.84325L36.5957 6.73145ZM49.4756 0.729492H49.8301V0.229492H49.4756V0.729492ZM49.7539 0.717598C49.9506 0.780547 50.1172 0.984451 50.1172 1.55371H50.6172C50.6172 0.919846 50.4257 0.407605 49.9063 0.241386L49.7539 0.717598ZM50.1172 1.55371V1.72559H50.6172V1.55371H50.1172ZM50.1172 1.72559C50.1172 3.5636 50.1782 6.07018 50.3 9.24396L50.7996 9.22479C50.6779 6.05352 50.6172 3.55424 50.6172 1.72559H50.1172ZM50.5498 9.48438C50.5646 9.48438 50.5307 9.48756 50.4967 9.45137C50.4653 9.41802 50.4717 9.39101 50.4717 9.41699H50.9717C50.9717 9.32123 50.9494 9.20291 50.8608 9.10869C50.7694 9.01162 50.6496 8.98438 50.5498 8.98438V9.48438ZM50.7541 9.66488C53.4827 9.30774 55.2377 9.00809 55.9878 8.76303L55.8325 8.28775C55.136 8.51534 53.432 8.8101 50.6892 9.16911L50.7541 9.66488ZM55.7015 8.6631L56.056 9.20021L56.4733 8.92479L56.1188 8.38768L55.7015 8.6631ZM56.0146 9.0625V9.77148H56.5146V9.0625H56.0146ZM56.0146 9.77148C56.0146 9.8129 56.0095 9.83916 56.0046 9.85432C56.0023 9.86164 56.0001 9.86599 55.9988 9.86824C55.9975 9.8704 55.9967 9.87117 55.9966 9.87129C55.9965 9.8714 55.9961 9.87186 55.9947 9.87271C55.9933 9.87361 55.99 9.8754 55.984 9.87745C55.9717 9.8817 55.9485 9.88672 55.9102 9.88672V10.3867C56.0688 10.3867 56.2332 10.3454 56.3554 10.2195C56.4763 10.095 56.5146 9.92993 56.5146 9.77148H56.0146ZM55.9102 9.88672C55.5252 9.88672 55.2852 9.82659 55.1518 9.74254L54.8854 10.1657C55.1386 10.3251 55.4931 10.3867 55.9102 10.3867V9.88672ZM54.9955 9.70516C53.561 9.83786 52.4754 9.9794 51.7451 10.1309C51.382 10.2063 51.0932 10.2868 50.89 10.3756C50.7893 10.4197 50.6949 10.4721 50.6218 10.5376C50.549 10.603 50.4717 10.706 50.4717 10.8457H50.9717C50.9717 10.9031 50.9392 10.9247 50.9558 10.9097C50.9723 10.895 51.0121 10.868 51.0904 10.8337C51.2454 10.7659 51.4936 10.6938 51.8467 10.6205C52.5487 10.4749 53.6115 10.3353 55.0416 10.203L54.9955 9.70516ZM50.4717 10.8457V11.0283H50.9717V10.8457H50.4717ZM50.4717 11.0283C50.4717 13.2323 50.7749 16.1695 51.3773 19.8345L51.8707 19.7534C51.2701 16.0994 50.9717 13.1928 50.9717 11.0283H50.4717ZM51.5136 19.5697C51.2688 19.6902 51.0729 19.802 50.9347 19.9051C50.866 19.9564 50.8024 20.0122 50.7538 20.0731C50.7077 20.1309 50.6543 20.2194 50.6543 20.3311H51.1543C51.1543 20.3819 51.1308 20.4023 51.1447 20.3849C51.1561 20.3706 51.1825 20.344 51.2337 20.3058C51.3355 20.2299 51.4994 20.134 51.7345 20.0182L51.5136 19.5697ZM51.0216 20.1103C50.7859 19.9851 50.5609 19.8984 50.3672 19.8984V20.3984C50.4313 20.3984 50.5644 20.4336 50.787 20.5518L51.0216 20.1103ZM50.6172 20.1484V19.7939H50.1172V20.1484H50.6172ZM50.6166 19.7776L49.3598 0.634988L48.8609 0.667746L50.1177 19.8103L50.6166 19.7776ZM49.2168 0.877572L49.582 0.705697L49.3691 0.253287L49.0039 0.425162L49.2168 0.877572ZM43.5133 4.8461C43.5767 5.03249 43.6448 5.19027 43.7213 5.30617C43.7879 5.40715 43.9114 5.55273 44.1045 5.55273V5.05273C44.183 5.05273 44.1901 5.1088 44.1386 5.03075C44.0969 4.96761 44.0451 4.85683 43.9867 4.68515L43.5133 4.8461ZM43.8705 5.21476C42.7905 8.08762 42.2432 10.5647 42.2432 12.6396H42.7432C42.7432 10.6469 43.2701 8.2327 44.3385 5.39071L43.8705 5.21476ZM42.2486 12.6916C42.4918 13.8361 42.6084 14.6482 42.6084 15.1426H43.1084C43.1084 14.5914 42.9815 13.7349 42.7377 12.5877L42.2486 12.6916ZM42.7466 14.919L42.3814 15.1016L42.605 15.5488L42.9702 15.3662L42.7466 14.919ZM42.4932 15.0752H41.9561V15.5752H42.4932V15.0752ZM42.0986 15.1198L41.5722 14.7546L41.2872 15.1654L41.8135 15.5306L42.0986 15.1198ZM41.6795 14.9707C41.7831 12.5503 41.9385 10.6023 42.1446 9.12388C42.3522 7.63437 42.6076 6.65467 42.8938 6.14483L42.4578 5.9001C42.1209 6.50028 41.8571 7.56518 41.6494 9.05483C41.4401 10.5556 41.2839 12.5213 41.1799 14.9493L41.6795 14.9707ZM42.6758 5.77246H42.4932V6.27246H42.6758V5.77246ZM42.4932 5.77246C42.4784 5.77246 42.5122 5.76927 42.5463 5.80547C42.5777 5.83881 42.5713 5.86583 42.5713 5.83984H42.0713C42.0713 5.9356 42.0935 6.05393 42.1822 6.14815C42.2736 6.24521 42.3933 6.27246 42.4932 6.27246V5.77246ZM42.2738 5.5944C39.7941 6.07456 37.937 6.4953 36.7078 6.85684L36.8489 7.33652C38.0545 6.98191 39.8927 6.56476 42.3688 6.08528L42.2738 5.5944ZM37.0019 6.98488L36.8193 6.61964L36.3721 6.84325L36.5547 7.20848L37.0019 6.98488ZM36.8457 6.73145V6.19434H36.3457V6.73145H36.8457ZM36.8457 6.19434C36.8457 6.24821 36.8118 6.2533 36.863 6.21268C36.9097 6.17555 36.9957 6.12701 37.1353 6.07146C37.4119 5.96139 37.8412 5.84605 38.4332 5.72783C39.6134 5.49215 41.3922 5.25409 43.775 5.01437L43.725 4.51688C41.3383 4.75698 39.54 4.99694 38.3353 5.23751C37.7349 5.3574 37.27 5.47973 36.9504 5.60689C36.7919 5.66994 36.6543 5.73991 36.552 5.82116C36.4541 5.89893 36.3457 6.0223 36.3457 6.19434H36.8457ZM64.8252 1.38184L64.8626 1.13466L64.844 1.13184H64.8252V1.38184ZM63.751 2.62793V2.87793H63.7752L63.7989 2.87329L63.751 2.62793ZM62.6768 2.45605L62.722 2.21018L62.6681 2.20027L62.615 2.2138L62.6768 2.45605ZM58.7451 3.16504L58.5229 3.27953L58.5927 3.41504H58.7451V3.16504ZM58.5625 2.81055H58.3125V2.87116L58.3403 2.92504L58.5625 2.81055ZM58.5625 2.27344L58.5086 2.02931L58.3125 2.07261V2.27344H58.5625ZM60.1738 7.09668L59.9269 7.13597L59.9468 7.26096L60.0593 7.31892L60.1738 7.09668ZM60.5283 7.2793L60.4138 7.50154L60.4677 7.5293H60.5283V7.2793ZM65.7168 6.9248L65.939 6.81032L65.8628 6.66231L65.6968 6.6756L65.7168 6.9248ZM65.8994 7.2793H66.1494V7.21869L66.1217 7.16481L65.8994 7.2793ZM65.3623 8.1709V8.4209H65.4234L65.4776 8.3927L65.3623 8.1709ZM59.8193 8.35352L59.6201 8.50448L59.7 8.60994L59.8321 8.60319L59.8193 8.35352ZM58.7451 3.88477L58.4978 3.84839L58.4951 3.86648V3.88477H58.7451ZM67.8652 10.8564L67.9538 10.6227L67.8839 10.5962L67.8109 10.6124L67.8652 10.8564ZM66.6084 12.1025V11.8525H66.5888L66.5694 11.8556L66.6084 12.1025ZM57.1338 13.3594L56.9251 13.4971L56.9992 13.6094H57.1338V13.3594ZM56.7793 12.8223L56.5571 12.7078L56.49 12.8379L56.5706 12.96L56.7793 12.8223ZM56.9619 12.2852L56.947 12.0356L56.7119 12.0496V12.2852H56.9619ZM66.6084 15.4971L66.6856 15.2593L66.6365 15.2433L66.5851 15.2482L66.6084 15.4971ZM67.8652 20.5029H67.6152V20.7529H67.8652V20.5029ZM68.0371 21.5771L68.1516 21.7994L68.2871 21.7296V21.5771H68.0371ZM67.6826 21.7598V22.0098H67.7432L67.7971 21.982L67.6826 21.7598ZM66.4258 16.7539L66.6744 16.7272L66.66 16.5933L66.5403 16.5317L66.4258 16.7539ZM66.0713 16.5713L66.1858 16.349L66.1212 16.3158L66.0488 16.3223L66.0713 16.5713ZM59.6367 17.4629L59.5482 17.6967L59.6171 17.7228L59.6892 17.7073L59.6367 17.4629ZM63.751 1.63184H64.8252V1.13184H63.751V1.63184ZM64.7877 1.62901C64.8751 1.64225 64.9061 1.66588 64.9143 1.67409C64.9173 1.67713 64.9297 1.68818 64.9297 1.73633H65.4297C65.4297 1.58395 65.383 1.43567 65.2678 1.32054C65.1579 1.21058 65.0116 1.15723 64.8626 1.13466L64.7877 1.62901ZM64.9297 1.73633C64.9297 1.82352 64.8855 1.93135 64.6902 2.05329C64.4902 2.1781 64.1679 2.2917 63.703 2.38257L63.7989 2.87329C64.2865 2.77796 64.6786 2.64987 64.9549 2.47747C65.2357 2.30221 65.4297 2.05734 65.4297 1.73633H64.9297ZM63.751 2.37793C63.7512 2.37793 63.7493 2.37793 63.7446 2.37766C63.74 2.3774 63.7339 2.37696 63.726 2.37625C63.7101 2.37482 63.6893 2.37252 63.663 2.36918C63.6103 2.3625 63.5403 2.35222 63.4521 2.3381C63.2759 2.3099 63.0328 2.26734 62.722 2.21018L62.6315 2.70193C62.9438 2.75936 63.1913 2.80273 63.3731 2.83182C63.5451 2.85934 63.6801 2.87793 63.751 2.87793V2.37793ZM62.615 2.2138C60.7592 2.68671 59.4764 2.91504 58.7451 2.91504V3.41504C59.5464 3.41504 60.8847 3.17071 62.7385 2.69831L62.615 2.2138ZM58.9674 3.05055L58.7847 2.69606L58.3403 2.92504L58.5229 3.27953L58.9674 3.05055ZM58.8125 2.81055V2.27344H58.3125V2.81055H58.8125ZM58.6164 2.51756C61.3172 1.92136 63.0176 1.63184 63.751 1.63184V1.13184C62.9518 1.13184 61.1932 1.43671 58.5086 2.02931L58.6164 2.51756ZM59.0996 3.76953H59.2822V3.26953H59.0996V3.76953ZM59.2822 3.76953C59.1901 3.76953 59.1536 3.70907 59.1705 3.73037C59.18 3.7425 59.2006 3.77531 59.2291 3.84175C59.285 3.97195 59.3503 4.17989 59.4237 4.47428C59.5696 5.05967 59.7374 5.94531 59.9269 7.13597L60.4207 7.05738C60.2307 5.86328 60.0601 4.96035 59.9088 4.35336C59.8336 4.05156 59.7606 3.81235 59.6885 3.64446C59.653 3.56184 59.6121 3.48288 59.5628 3.42048C59.5208 3.36726 59.4281 3.26953 59.2822 3.26953V3.76953ZM60.0593 7.31892L60.4138 7.50154L60.6428 7.05705L60.2883 6.87444L60.0593 7.31892ZM60.5283 7.5293C61.0495 7.5293 62.7923 7.40985 65.7368 7.17401L65.6968 6.6756C62.7402 6.91242 61.024 7.0293 60.5283 7.0293V7.5293ZM65.4946 7.03929L65.6772 7.39379L66.1217 7.16481L65.939 6.81032L65.4946 7.03929ZM65.6494 7.2793V7.63379H66.1494V7.2793H65.6494ZM65.6494 7.63379C65.6494 7.62764 65.6531 7.65548 65.5884 7.7202C65.5244 7.78421 65.4151 7.86166 65.247 7.94909L65.4776 8.3927C65.6676 8.29394 65.8269 8.18878 65.9419 8.07375C66.0562 7.95943 66.1494 7.81181 66.1494 7.63379H65.6494ZM65.3623 7.9209H65.1797V8.4209H65.3623V7.9209ZM65.1797 7.9209C63.9843 7.9209 62.1923 7.98205 59.8066 8.10384L59.8321 8.60319C62.2159 8.48149 63.9975 8.4209 65.1797 8.4209V7.9209ZM60.0186 8.20255C59.3419 7.30934 58.9951 6.17327 58.9951 4.77637H58.4951C58.4951 6.25837 58.8644 7.50707 59.6201 8.50448L60.0186 8.20255ZM58.9951 4.77637V3.88477H58.4951V4.77637H58.9951ZM58.9925 3.92114C59.006 3.82888 59.0306 3.79466 59.04 3.78496C59.0435 3.78136 59.0537 3.76953 59.0996 3.76953V3.26953C58.945 3.26953 58.7959 3.31857 58.6812 3.43672C58.5725 3.54877 58.52 3.69716 58.4978 3.84839L58.9925 3.92114ZM67.7767 11.0902C68.004 11.1763 68.1556 11.2558 68.246 11.3243C68.3424 11.3973 68.3242 11.4221 68.3242 11.3936H68.8242C68.8242 11.186 68.6879 11.0318 68.5479 10.9257C68.402 10.8151 68.1991 10.7156 67.9538 10.6227L67.7767 11.0902ZM68.3242 11.3936V11.748H68.8242V11.3936H68.3242ZM68.3242 11.748C68.3242 11.787 68.3193 11.811 68.3149 11.8241C68.3128 11.8304 68.3109 11.8339 68.31 11.8354C68.3095 11.8362 68.3092 11.8367 68.309 11.8369C68.3089 11.837 68.3089 11.8371 68.3089 11.8371C68.3088 11.8371 68.3088 11.8371 68.3088 11.8371C68.3088 11.8371 68.3088 11.8372 68.3088 11.8372C68.3087 11.8372 68.3087 11.8373 68.3086 11.8373C68.3084 11.8375 68.3079 11.8378 68.3071 11.8383C68.3056 11.8393 68.3021 11.8411 68.2958 11.8432C68.2827 11.8476 68.2587 11.8525 68.2197 11.8525V12.3525C68.3764 12.3525 68.5399 12.3132 68.6624 12.1907C68.7849 12.0682 68.8242 11.9047 68.8242 11.748H68.3242ZM68.2197 11.8525H66.6084V12.3525H68.2197V11.8525ZM66.5694 11.8556C63.9205 12.2744 61.8084 12.5883 60.2323 12.7973C58.6499 13.0072 57.6228 13.1094 57.1338 13.1094V13.6094C57.6617 13.6094 58.7222 13.502 60.298 13.293C61.8801 13.0831 63.9968 12.7686 66.6474 12.3495L66.5694 11.8556ZM57.3424 13.2217L56.9879 12.6846L56.5706 12.96L56.9251 13.4971L57.3424 13.2217ZM57.0015 12.9368C57.1248 12.6975 57.2119 12.4718 57.2119 12.2852H56.7119C56.7119 12.342 56.6773 12.4744 56.5571 12.7078L57.0015 12.9368ZM56.9768 12.5347C61.0689 12.2906 64.7169 11.813 67.9195 11.1005L67.8109 10.6124C64.6398 11.3179 61.019 11.7927 56.947 12.0356L56.9768 12.5347ZM66.5312 15.7348C66.8148 15.827 67.1011 16.1873 67.3085 17.0135C67.5106 17.8182 67.6152 18.9776 67.6152 20.5029H68.1152C68.1152 18.9632 68.0104 17.7557 67.7935 16.8918C67.582 16.0493 67.2399 15.4393 66.6856 15.2593L66.5312 15.7348ZM67.8652 20.7529C67.7409 20.7529 67.703 20.6532 67.715 20.6783C67.7208 20.6903 67.7342 20.7291 67.7473 20.811C67.7727 20.9698 67.7871 21.2222 67.7871 21.5771H68.2871C68.2871 21.216 68.2729 20.9313 68.241 20.732C68.2255 20.6348 68.203 20.5394 68.1658 20.4619C68.1349 20.3974 68.0468 20.2529 67.8652 20.2529V20.7529ZM67.9226 21.3549L67.5681 21.5375L67.7971 21.982L68.1516 21.7994L67.9226 21.3549ZM67.6826 21.5098H67.3281V22.0098H67.6826V21.5098ZM67.3281 21.5098C67.3885 21.5098 67.4278 21.5364 67.4417 21.548C67.4544 21.5586 67.4551 21.5636 67.4468 21.5501C67.4302 21.5232 67.4043 21.4671 67.3724 21.3694C67.3098 21.1775 67.2406 20.8782 67.166 20.464C67.0172 19.6387 66.8532 18.3945 66.6744 16.7272L66.1772 16.7806C66.3564 18.4506 66.5219 19.7093 66.6739 20.5527C66.7496 20.9727 66.8236 21.2992 66.8971 21.5244C66.9333 21.6353 66.9737 21.7356 67.0215 21.813C67.0454 21.8516 67.0778 21.8957 67.1219 21.9324C67.1672 21.9701 67.2373 22.0098 67.3281 22.0098V21.5098ZM66.5403 16.5317L66.1858 16.349L65.9568 16.7935L66.3113 16.9761L66.5403 16.5317ZM66.0488 16.3223C63.4224 16.5591 61.2666 16.8574 59.5843 17.2185L59.6892 17.7073C61.3441 17.3522 63.478 17.0561 66.0937 16.8203L66.0488 16.3223ZM59.7253 17.2291C59.4979 17.143 59.3463 17.0635 59.2559 16.9951C59.1596 16.9221 59.1777 16.8973 59.1777 16.9258H58.6777C58.6777 17.1333 58.8141 17.2876 58.954 17.3936C59.1 17.5042 59.3028 17.6038 59.5482 17.6967L59.7253 17.2291ZM59.1777 16.9258V16.7539H58.6777V16.9258H59.1777ZM59.1777 16.7539C59.1777 16.8108 59.1514 16.8444 59.1459 16.8507C59.1413 16.8559 59.1461 16.8488 59.1737 16.8327C59.2285 16.8007 59.3266 16.7598 59.4804 16.7132C59.7841 16.621 60.251 16.5221 60.8883 16.4179C62.1596 16.2098 64.0728 15.9858 66.6317 15.746L66.5851 15.2482C64.0235 15.4882 62.0964 15.7135 60.8075 15.9244C60.1647 16.0296 59.6715 16.1327 59.3352 16.2347C59.1689 16.2852 59.027 16.3395 58.9218 16.4008C58.8694 16.4314 58.8142 16.4705 58.7696 16.5214C58.7241 16.5735 58.6777 16.6523 58.6777 16.7539H59.1777ZM72.8271 2.98242L73.0339 2.84184L72.9078 2.65647L72.7099 2.76164L72.8271 2.98242ZM73.1924 3.51953H73.4424V3.44258L73.3991 3.37895L73.1924 3.51953ZM75.5127 6.02246L75.7376 5.91339L75.6602 5.7536L75.4838 5.77414L75.5127 6.02246ZM75.6846 6.37695H75.9346V6.31954L75.9095 6.26788L75.6846 6.37695ZM75.1582 7.2793V7.5293H75.2204L75.2754 7.50013L75.1582 7.2793ZM70.6895 7.2793V7.0293H70.6724L70.6556 7.0316L70.6895 7.2793ZM69.4326 7.45117L69.224 7.58888L69.3106 7.72018L69.4665 7.69887L69.4326 7.45117ZM69.0781 6.91406H68.8281V6.98913L68.8695 7.05177L69.0781 6.91406ZM72.1182 6.02246L72.1471 6.27078L72.3476 6.2474L72.367 6.04645L72.1182 6.02246ZM72.29 4.23926L72.5389 4.26324L72.54 4.25128V4.23926H72.29ZM72.29 3.16504V2.91504H72.04V3.16504H72.29ZM81.4102 3.34766V3.09766H81.3543L81.3037 3.12145L81.4102 3.34766ZM81.9473 3.34766H82.1973V3.09766H81.9473V3.34766ZM81.9473 7.63379L82.1937 7.67569L82.1973 7.65489V7.63379H81.9473ZM81.7646 8.70801L81.5182 8.66611L81.5103 8.71229L81.5197 8.75817L81.7646 8.70801ZM82.1191 9.59961V9.84961H82.1285L82.1378 9.84891L82.1191 9.59961ZM85.1592 9.41699L85.3814 9.3025L85.3116 9.16699H85.1592V9.41699ZM85.3418 9.77148H85.5918V9.71088L85.564 9.65699L85.3418 9.77148ZM84.9766 10.6738L84.9403 10.9212L84.9583 10.9238H84.9766V10.6738ZM83.7305 10.4912L83.7667 10.2439L83.7389 10.2398L83.711 10.242L83.7305 10.4912ZM82.1191 13.8857H82.3691V13.8716L82.3675 13.8576L82.1191 13.8857ZM81.2275 14.96L81.0189 15.0977L81.1309 15.2674L81.3199 15.1923L81.2275 14.96ZM80.873 14.4229H80.623V14.4979L80.6644 14.5606L80.873 14.4229ZM81.0449 11.0283L81.2937 11.0532L81.2949 11.0408V11.0283H81.0449ZM80.873 8.1709L80.6236 8.15461L80.6225 8.17107L80.6236 8.18753L80.873 8.1709ZM81.0449 3.51953L80.9385 3.29333L80.7949 3.36088V3.51953H81.0449ZM73.1924 8.70801V8.45801H73.1667L73.1416 8.46323L73.1924 8.70801ZM75.3301 11.0283H75.5801V11.002L75.5746 10.9762L75.3301 11.0283ZM73.3643 13.166V13.416H73.3866L73.4086 13.412L73.3643 13.166ZM72.1182 11.3828L71.8754 11.3229L71.8647 11.3665L71.8698 11.411L72.1182 11.3828ZM73.0098 12.2744L72.898 12.498L72.9903 12.5442L73.0883 12.5118L73.0098 12.2744ZM76.9414 15.1318L77.1182 14.9551L76.9874 14.8243L76.8241 14.9111L76.9414 15.1318ZM77.6504 18.709L77.4024 18.7406L77.4302 18.959H77.6504V18.709ZM78.0156 18.709V18.9592L78.0253 18.9588L78.0156 18.709ZM83.5479 18.5264L83.7715 18.4146L83.7024 18.2764H83.5479V18.5264ZM83.7305 18.8916H83.9805V18.8326L83.9541 18.7798L83.7305 18.8916ZM83.1934 19.6006V19.3504L83.184 19.3508L83.1934 19.6006ZM77.2959 19.7832V19.5332H77.0459V19.7832H77.2959ZM77.2959 19.9658L77.2265 20.206L77.5459 20.2984V19.9658H77.2959ZM76.4043 15.3145V15.0645H76.1543V15.3145H76.4043ZM72.6204 3.123L72.9856 3.66011L73.3991 3.37895L73.0339 2.84184L72.6204 3.123ZM72.9424 3.51953V5.85059H73.4424V3.51953H72.9424ZM72.9424 5.85059C72.9424 6.0405 73.0186 6.21223 73.1843 6.32381C73.3324 6.42356 73.5231 6.45508 73.7188 6.45508V5.95508C73.5635 5.95508 73.491 5.92751 73.4636 5.9091C73.4532 5.90208 73.4507 5.89744 73.4493 5.89478C73.4475 5.89104 73.4424 5.87863 73.4424 5.85059H72.9424ZM73.7188 6.45508C73.8879 6.45508 74.5063 6.39134 75.5416 6.27078L75.4838 5.77414C74.428 5.89707 73.8504 5.95508 73.7188 5.95508V6.45508ZM75.2877 6.13153L75.4596 6.48602L75.9095 6.26788L75.7376 5.91339L75.2877 6.13153ZM75.4346 6.37695V6.74219H75.9346V6.37695H75.4346ZM75.4346 6.74219C75.4346 6.74227 75.4346 6.74252 75.4345 6.74301C75.4344 6.74352 75.4343 6.74441 75.434 6.74575C75.4333 6.74841 75.4317 6.75332 75.4281 6.76063C75.4205 6.77579 75.4049 6.79932 75.3744 6.83039C75.312 6.89407 75.2054 6.97123 75.041 7.05846L75.2754 7.50013C75.4619 7.40116 75.6185 7.29571 75.7315 7.18035C75.8441 7.06545 75.9346 6.91835 75.9346 6.74219H75.4346ZM75.1582 7.0293H70.6895V7.5293H75.1582V7.0293ZM70.6556 7.0316L69.3987 7.20348L69.4665 7.69887L70.7233 7.52699L70.6556 7.0316ZM69.6413 7.31346L69.2868 6.77635L68.8695 7.05177L69.224 7.58888L69.6413 7.31346ZM69.3281 6.91406C69.3281 6.95494 69.299 6.93464 69.4039 6.86685C69.5006 6.80429 69.6637 6.73429 69.9085 6.6625C70.3943 6.52001 71.1374 6.38852 72.1471 6.27078L72.0892 5.77414C71.0722 5.89273 70.2953 6.02801 69.7678 6.18271C69.5059 6.25953 69.289 6.34573 69.1324 6.44699C68.9839 6.54302 68.8281 6.69415 68.8281 6.91406H69.3281ZM72.367 6.04645L72.5389 4.26324L72.0412 4.21527L71.8693 5.99848L72.367 6.04645ZM72.54 4.23926V3.16504H72.04V4.23926H72.54ZM72.29 3.41504C72.4837 3.41504 72.7087 3.32842 72.9444 3.2032L72.7099 2.76164C72.4872 2.87991 72.3542 2.91504 72.29 2.91504V3.41504ZM81.4102 3.59766H81.9473V3.09766H81.4102V3.59766ZM81.6973 3.34766V7.63379H82.1973V3.34766H81.6973ZM81.7008 7.59189L81.5182 8.66611L82.0111 8.74991L82.1937 7.67569L81.7008 7.59189ZM81.5197 8.75817C81.5814 9.05942 81.6449 9.29961 81.7123 9.46907C81.7454 9.55246 81.7852 9.63352 81.8357 9.69803C81.8819 9.75696 81.9751 9.84961 82.1191 9.84961V9.34961C82.2058 9.34961 82.2414 9.4051 82.2294 9.38974C82.2217 9.37995 82.2028 9.34956 82.1769 9.28434C82.1261 9.15661 82.0696 8.951 82.0096 8.65784L81.5197 8.75817ZM82.1378 9.84891C83.7671 9.7269 84.7696 9.66699 85.1592 9.66699V9.16699C84.7466 9.16699 83.7225 9.22883 82.1005 9.35031L82.1378 9.84891ZM84.9369 9.53148L85.1196 9.88597L85.564 9.65699L85.3814 9.3025L84.9369 9.53148ZM85.0918 9.77148V10.3086H85.5918V9.77148H85.0918ZM85.0918 10.3086C85.0918 10.3494 85.0866 10.3749 85.0818 10.3893C85.0795 10.3963 85.0773 10.4004 85.0761 10.4025C85.0748 10.4046 85.074 10.4054 85.0737 10.4057C85.0734 10.4061 85.0725 10.4069 85.0705 10.4081C85.0684 10.4094 85.0643 10.4115 85.0573 10.4138C85.0429 10.4186 85.0173 10.4238 84.9766 10.4238V10.9238C85.1368 10.9238 85.303 10.8836 85.4273 10.7593C85.5516 10.635 85.5918 10.4689 85.5918 10.3086H85.0918ZM85.0128 10.4265L83.7667 10.2439L83.6942 10.7386L84.9403 10.9212L85.0128 10.4265ZM83.711 10.242C83.1118 10.2889 82.6445 10.3585 82.321 10.4559C82.1606 10.5042 82.0173 10.5646 81.9091 10.6454C81.7986 10.728 81.6973 10.8548 81.6973 11.0283H82.1973C82.1973 11.0694 82.1703 11.0744 82.2083 11.046C82.2488 11.0158 82.3283 10.9759 82.4652 10.9347C82.7361 10.8531 83.1603 10.7866 83.75 10.7404L83.711 10.242ZM81.6973 11.0283V11.3828H82.1973V11.0283H81.6973ZM81.6973 11.3828C81.6973 12.0547 81.7556 12.8992 81.8707 13.9139L82.3675 13.8576C82.2535 12.8527 82.1973 12.0286 82.1973 11.3828H81.6973ZM81.8691 13.8857C81.8691 14.0693 81.814 14.2218 81.7039 14.3545C81.5901 14.4915 81.4074 14.6194 81.1352 14.7276L81.3199 15.1923C81.6421 15.0642 81.9051 14.8949 82.0886 14.6738C82.2757 14.4484 82.3691 14.182 82.3691 13.8857H81.8691ZM81.4362 14.8223L81.0817 14.2851L80.6644 14.5606L81.0189 15.0977L81.4362 14.8223ZM81.123 14.4229C81.123 13.3142 81.1799 12.191 81.2937 11.0532L80.7962 11.0034C80.6808 12.1573 80.623 13.2971 80.623 14.4229H81.123ZM81.2949 11.0283C81.2949 10.8312 81.2366 9.86605 81.1225 8.15427L80.6236 8.18753C80.7386 9.91325 80.7949 10.853 80.7949 11.0283H81.2949ZM81.1225 8.18719C81.2374 6.42875 81.2949 4.87267 81.2949 3.51953H80.7949C80.7949 4.8591 80.7379 6.40394 80.6236 8.15461L81.1225 8.18719ZM81.1514 3.74574L81.5166 3.57386L81.3037 3.12145L80.9385 3.29333L81.1514 3.74574ZM73.1924 8.95801C73.6737 8.95801 74.058 9.12452 74.3647 9.45748C74.679 9.79865 74.9258 10.3303 75.0856 11.0804L75.5746 10.9762C75.4049 10.1794 75.1307 9.55096 74.7324 9.11869C74.3266 8.67821 73.8068 8.45801 73.1924 8.45801V8.95801ZM75.0801 11.0283V11.3828H75.5801V11.0283H75.0801ZM75.0801 11.3828C75.0801 11.7946 74.9417 12.1119 74.6707 12.3578C74.391 12.6114 73.9508 12.8062 73.3199 12.92L73.4086 13.412C74.0883 13.2895 74.6309 13.0689 75.0066 12.7281C75.3908 12.3796 75.5801 11.9235 75.5801 11.3828H75.0801ZM73.3643 12.916H73.1924V13.416H73.3643V12.916ZM73.1924 12.916C72.5646 12.916 72.1402 12.7872 71.8759 12.572C71.6214 12.3648 71.4766 12.0453 71.4766 11.5654H70.9766C70.9766 12.1526 71.1594 12.6334 71.5602 12.9597C71.9511 13.2781 72.5096 13.416 73.1924 13.416V12.916ZM71.4766 11.5654V10.4912H70.9766V11.5654H71.4766ZM71.4766 10.4912C71.4766 10.1005 71.6127 9.79098 71.886 9.54308C72.1678 9.28741 72.6109 9.08409 73.2432 8.95279L73.1416 8.46323C72.4633 8.60407 71.9235 8.834 71.55 9.17274C71.1681 9.51924 70.9766 9.96524 70.9766 10.4912H71.4766ZM71.8698 11.411C71.9214 11.8652 72.3324 12.2153 72.898 12.498L73.1216 12.0508C72.5699 11.775 72.3866 11.5306 72.3666 11.3546L71.8698 11.411ZM73.0883 12.5118C73.5711 12.352 73.9504 12.1916 74.2137 12.0273C74.3453 11.9451 74.4589 11.8553 74.5419 11.7549C74.6259 11.6532 74.6885 11.5278 74.6885 11.3828H74.1885C74.1885 11.3774 74.1915 11.3939 74.1564 11.4364C74.1204 11.4801 74.0554 11.5366 73.9489 11.6031C73.736 11.736 73.4009 11.8817 72.9312 12.0371L73.0883 12.5118ZM74.6885 11.3828V11.2109H74.1885V11.3828H74.6885ZM74.6885 11.2109C74.6885 10.7007 74.5788 10.2714 74.316 9.96772C74.0471 9.65718 73.6564 9.52148 73.1924 9.52148V10.0215C73.5591 10.0215 73.7914 10.1257 73.9379 10.295C74.0904 10.4711 74.1885 10.7615 74.1885 11.2109H74.6885ZM73.1924 9.52148H73.0098V10.0215H73.1924V9.52148ZM73.0098 9.52148C72.6965 9.52148 72.476 9.77327 72.3211 10.0533C72.1565 10.3506 72.0097 10.7786 71.8754 11.3229L72.3609 11.4427C72.4916 10.9128 72.6259 10.5351 72.7585 10.2954C72.9008 10.0383 72.9936 10.0215 73.0098 10.0215V9.52148ZM76.7646 15.3086C76.7576 15.3015 76.7676 15.3096 76.7889 15.3558C76.8082 15.3977 76.8307 15.4575 76.8557 15.5382C76.9057 15.6994 76.9601 15.9253 77.0184 16.2197C77.1349 16.8075 77.263 17.6468 77.4024 18.7406L77.8984 18.6774C77.7585 17.5798 77.6287 16.7272 77.5089 16.1225C77.4491 15.8208 77.3907 15.5754 77.3333 15.3901C77.3046 15.2976 77.2747 15.2154 77.243 15.1466C77.2132 15.082 77.1736 15.0105 77.1182 14.9551L76.7646 15.3086ZM77.6504 18.959H78.0156V18.459H77.6504V18.959ZM78.0253 18.9588C81.1578 18.8369 82.9954 18.7764 83.5479 18.7764V18.2764C82.9831 18.2764 81.1326 18.3375 78.0059 18.4592L78.0253 18.9588ZM83.3242 18.6382L83.5069 19.0034L83.9541 18.7798L83.7715 18.4146L83.3242 18.6382ZM83.4805 18.8916V19.2461H83.9805V18.8916H83.4805ZM83.4805 19.2461C83.4805 19.2734 83.4754 19.2852 83.4737 19.2885C83.4726 19.2908 83.4699 19.2958 83.4585 19.3033C83.4289 19.3228 83.3528 19.3506 83.1934 19.3506V19.8506C83.392 19.8506 83.5844 19.8193 83.7339 19.7206C83.9016 19.61 83.9805 19.4382 83.9805 19.2461H83.4805ZM83.184 19.3508C79.9376 19.4726 77.9775 19.5332 77.2959 19.5332V20.0332C77.9893 20.0332 79.9609 19.9721 83.2027 19.8504L83.184 19.3508ZM77.0459 19.7832V19.9658H77.5459V19.7832H77.0459ZM77.3653 19.7257C77.111 19.6521 76.9407 19.5325 76.8311 19.3781C76.7203 19.2218 76.6543 19.0055 76.6543 18.709H76.1543C76.1543 19.0785 76.2369 19.4046 76.4233 19.6674C76.6109 19.9319 76.8864 20.1077 77.2265 20.206L77.3653 19.7257ZM76.6543 18.709V15.3145H76.1543V18.709H76.6543ZM76.4043 15.5645C76.598 15.5645 76.823 15.4778 77.0587 15.3526L76.8241 14.9111C76.6015 15.0293 76.4684 15.0645 76.4043 15.0645V15.5645ZM102.377 2.09082L102.626 2.07349L102.623 2.02162L102.599 1.97548L102.377 2.09082ZM103.086 12.8223L103.224 13.0309L103.379 12.9282L103.325 12.7498L103.086 12.8223ZM102.549 13.1768V13.4268H102.624L102.687 13.3854L102.549 13.1768ZM102.012 13.1768L101.766 13.2241L101.805 13.4268H102.012V13.1768ZM101.84 12.2852H101.59V12.309L101.594 12.3325L101.84 12.2852ZM101.303 2.27344L101.069 2.18604L101.045 2.24811L101.056 2.3135L101.303 2.27344ZM93.4395 4.77637L93.463 4.52747L93.4512 4.52637H93.4395V4.77637ZM98.4453 7.45117L98.6449 7.60174L98.6953 7.5349V7.45117H98.4453ZM95.0508 9.24512L95.023 9.49356L95.0368 9.49512H95.0508V9.24512ZM92.3652 6.74219L92.1241 6.6763L92.1152 6.70865V6.74219H92.3652ZM93.9766 5.66797V5.41797H93.8316L93.7596 5.54373L93.9766 5.66797ZM93.2568 6.9248L93.0399 6.80057L93.0068 6.85829V6.9248H93.2568ZM97.5537 7.09668L97.7568 7.24248L97.8655 7.09102L97.7514 6.94361L97.5537 7.09668ZM96.834 12.457L97.0576 12.3452L96.9885 12.207H96.834V12.457ZM97.0166 12.8223H97.2666V12.7632L97.2402 12.7105L97.0166 12.8223ZM96.834 13.5312V13.2812H96.5678L96.5845 13.5469L96.834 13.5312ZM104.515 16.7539L104.721 16.6133L104.631 16.4805L104.473 16.5074L104.515 16.7539ZM104.88 17.291H105.13V17.2141L105.087 17.1504L104.88 17.291ZM104.343 18.1826L104.313 18.4308L104.39 18.44L104.458 18.4044L104.343 18.1826ZM103.269 17.8281H103.519V17.4979L103.201 17.5875L103.269 17.8281ZM97.0166 18.3545L96.8179 18.5062L96.8962 18.6088L97.0252 18.6043L97.0166 18.3545ZM95.9424 12.8223L95.8092 12.6107L95.6924 12.6842V12.8223H95.9424ZM101.84 1.80371C101.834 1.80371 101.862 1.80005 101.926 1.86476C101.99 1.92877 102.068 2.03802 102.155 2.20616L102.599 1.97548C102.5 1.78555 102.395 1.62624 102.28 1.51121C102.165 1.39689 102.018 1.30371 101.84 1.30371V1.80371ZM102.128 2.10815C102.364 5.50684 102.481 8.30065 102.481 10.4912H102.981C102.981 8.28463 102.863 5.47819 102.626 2.07349L102.128 2.10815ZM102.481 10.4912V11.2109H102.981V10.4912H102.481ZM102.481 11.2109C102.481 11.547 102.612 12.1183 102.847 12.8947L103.325 12.7498C103.088 11.965 102.981 11.4621 102.981 11.2109H102.481ZM102.948 12.6136L102.411 12.9681L102.687 13.3854L103.224 13.0309L102.948 12.6136ZM102.549 12.9268H102.012V13.4268H102.549V12.9268ZM102.257 13.1294L102.085 12.2378L101.594 12.3325L101.766 13.2241L102.257 13.1294ZM102.09 12.2852V11.0283H101.59V12.2852H102.09ZM102.09 11.0283C102.09 7.39122 101.911 4.45793 101.55 2.23338L101.056 2.3135C101.411 4.5004 101.59 7.4037 101.59 11.0283H102.09ZM101.537 2.36084C101.623 2.12977 101.703 1.97534 101.772 1.88316C101.845 1.78436 101.87 1.80371 101.84 1.80371V1.30371C101.631 1.30371 101.476 1.44302 101.371 1.58412C101.261 1.73186 101.161 1.93729 101.069 2.18604L101.537 2.36084ZM93.416 5.02526C95.0743 5.18185 96.2892 5.4656 97.082 5.86203C97.8687 6.25535 98.1953 6.73253 98.1953 7.2793H98.6953C98.6953 6.47255 98.1876 5.85582 97.3056 5.41482C96.4299 4.97694 95.1418 4.68599 93.463 4.52747L93.416 5.02526ZM98.1953 7.2793V7.45117H98.6953V7.2793H98.1953ZM98.2457 7.3006C97.3736 8.45651 96.4267 8.99512 95.4053 8.99512V9.49512C96.6326 9.49512 97.7123 8.83776 98.6449 7.60174L98.2457 7.3006ZM95.4053 8.99512H95.0508V9.49512H95.4053V8.99512ZM95.0786 8.99667C94.2058 8.89892 93.588 8.67859 93.1928 8.3624C92.8094 8.05568 92.6152 7.64311 92.6152 7.09668H92.1152C92.1152 7.78202 92.3687 8.3434 92.8804 8.75283C93.3804 9.15279 94.1054 9.3908 95.023 9.49356L95.0786 8.99667ZM92.6152 7.09668V6.74219H92.1152V7.09668H92.6152ZM92.6064 6.80808C92.7838 6.15896 92.9567 5.68968 93.1217 5.3877C93.2044 5.23648 93.2783 5.1398 93.3397 5.08367C93.3997 5.02874 93.4318 5.02637 93.4395 5.02637V4.52637C93.2681 4.52637 93.1211 4.6059 93.0021 4.71479C92.8844 4.82248 92.7794 4.97153 92.683 5.14794C92.4899 5.50124 92.3048 6.01486 92.1241 6.6763L92.6064 6.80808ZM93.7596 5.54373L93.0399 6.80057L93.4738 7.04904L94.1935 5.7922L93.7596 5.54373ZM93.0068 6.9248C93.0068 7.46505 93.197 7.90473 93.6013 8.19857C93.9908 8.48164 94.5445 8.60352 95.2227 8.60352V8.10352C94.5902 8.10352 94.1611 7.98728 93.8953 7.79411C93.6443 7.61171 93.5068 7.33704 93.5068 6.9248H93.0068ZM95.2227 8.60352C96.2632 8.60352 97.1128 8.13944 97.7568 7.24248L97.3506 6.95088C96.7915 7.7297 96.0871 8.10352 95.2227 8.10352V8.60352ZM97.7514 6.94361C96.9505 5.90945 95.6707 5.41797 93.9766 5.41797V5.91797C95.5767 5.91797 96.6817 6.37896 97.3561 7.24975L97.7514 6.94361ZM96.6104 12.5688L96.793 12.9341L97.2402 12.7105L97.0576 12.3452L96.6104 12.5688ZM96.7666 12.8223V12.9941H97.2666V12.8223H96.7666ZM96.7666 12.9941C96.7666 13.1657 96.7512 13.2667 96.7343 13.3165C96.7261 13.3405 96.7236 13.3341 96.7389 13.3192C96.7602 13.2983 96.7954 13.2812 96.834 13.2812V13.7812C97.058 13.7812 97.1652 13.6024 97.2076 13.4774C97.2516 13.3482 97.2666 13.1807 97.2666 12.9941H96.7666ZM96.5845 13.5469C96.6635 14.8049 96.7937 15.7666 96.9803 16.4198C97.0732 16.7449 97.1852 17.0124 97.3251 17.2036C97.467 17.3977 97.6605 17.541 97.9082 17.541V17.041C97.8766 17.041 97.8158 17.0277 97.7286 16.9084C97.6394 16.7864 97.5472 16.5839 97.4611 16.2824C97.2896 15.6823 97.162 14.7641 97.0835 13.5156L96.5845 13.5469ZM97.9082 17.541C100.22 17.541 102.436 17.361 104.557 17.0004L104.473 16.5074C102.382 16.863 100.194 17.041 97.9082 17.041V17.541ZM104.308 16.8945L104.673 17.4316L105.087 17.1504L104.721 16.6133L104.308 16.8945ZM104.63 17.291V17.6455H105.13V17.291H104.63ZM104.63 17.6455C104.63 17.6394 104.634 17.6672 104.569 17.7319C104.505 17.7959 104.396 17.8734 104.227 17.9608L104.458 18.4044C104.648 18.3057 104.807 18.2005 104.922 18.0855C105.037 17.9711 105.13 17.8235 105.13 17.6455H104.63ZM104.373 17.9344C104.019 17.892 103.77 17.8432 103.615 17.7921C103.537 17.7661 103.499 17.7448 103.486 17.7349C103.472 17.7246 103.519 17.7542 103.519 17.8281H103.019C103.019 17.9772 103.11 18.0781 103.186 18.1349C103.262 18.1921 103.359 18.2339 103.459 18.2669C103.662 18.334 103.95 18.3873 104.313 18.4308L104.373 17.9344ZM103.201 17.5875C102.807 17.6985 102.098 17.8001 101.056 17.8878C100.02 17.9751 98.671 18.0474 97.008 18.1046L97.0252 18.6043C98.6923 18.547 100.05 18.4743 101.098 18.3861C102.14 18.2984 102.892 18.1941 103.336 18.0687L103.201 17.5875ZM97.2153 18.2028C96.8904 17.7772 96.6319 17.1244 96.4564 16.2202C96.2814 15.3192 96.1924 14.1879 96.1924 12.8223H95.6924C95.6924 14.2066 95.7824 15.3723 95.9655 16.3155C96.148 17.2553 96.4266 17.9936 96.8179 18.5062L97.2153 18.2028ZM96.0756 13.0338C96.4599 12.7918 96.7038 12.707 96.834 12.707V12.207C96.5488 12.207 96.1983 12.3657 95.8092 12.6107L96.0756 13.0338ZM114.515 3.88477V3.63477H114.459L114.408 3.65856L114.515 3.88477ZM116.298 16.9258H116.548V16.909L116.546 16.8924L116.298 16.9258ZM114.687 16.7539L114.463 16.6421L114.392 16.7832L114.489 16.9077L114.687 16.7539ZM114.869 16.3887L115.093 16.5005L115.119 16.4477V16.3887H114.869ZM114.869 16.0342H115.119V16.0267L115.119 16.0192L114.869 16.0342ZM114.149 4.05664L114.043 3.83044L113.89 3.90256L113.9 4.07164L114.149 4.05664ZM106.114 5.48535L106.151 5.23809L106.087 5.22857L106.027 5.25113L106.114 5.48535ZM107.715 5.85059L107.606 6.07546L107.667 6.1053L107.735 6.09976L107.715 5.85059ZM111.109 5.48535L111.183 5.2465L111.106 5.22279L111.03 5.24818L111.109 5.48535ZM111.829 6.20508L112.057 6.30876L112.092 6.23043L112.072 6.14673L111.829 6.20508ZM109.863 13.3594L109.992 13.5737L110.089 13.5155L110.109 13.4041L109.863 13.3594ZM108.789 13.7139L108.58 13.8516L108.655 13.9639H108.789V13.7139ZM108.435 13.1768L108.196 13.1028L108.161 13.2158L108.226 13.3145L108.435 13.1768ZM110.218 6.9248H110.468V6.6991L110.243 6.67611L110.218 6.9248ZM108.435 6.74219L108.46 6.49349L108.435 6.49088L108.409 6.49349L108.435 6.74219ZM105.749 6.9248L105.54 7.06252L105.614 7.1748H105.749V6.9248ZM105.395 6.3877H105.145V6.46276L105.186 6.52541L105.395 6.3877ZM114.515 4.13477H115.041V3.63477H114.515V4.13477ZM115.041 4.13477C115.071 4.13477 115.085 4.14022 115.091 4.14282C115.095 4.14486 115.101 4.14835 115.108 4.15962C115.128 4.18855 115.156 4.26336 115.156 4.42188H115.656C115.656 4.22232 115.624 4.02857 115.522 3.87847C115.408 3.7111 115.233 3.63477 115.041 3.63477V4.13477ZM115.156 4.42188C115.156 8.35888 115.454 12.5381 116.05 16.9592L116.546 16.8924C115.953 12.4906 115.656 8.33382 115.656 4.42188H115.156ZM116.048 16.9258C116.048 16.9672 116.043 16.9935 116.038 17.0086C116.035 17.0159 116.033 17.0203 116.032 17.0225C116.031 17.0247 116.03 17.0255 116.03 17.0256C116.03 17.0257 116.029 17.0262 116.028 17.027C116.026 17.0279 116.023 17.0297 116.017 17.0317C116.005 17.036 115.982 17.041 115.943 17.041V17.541C116.102 17.541 116.266 17.4997 116.389 17.3738C116.509 17.2493 116.548 17.0842 116.548 16.9258H116.048ZM115.943 17.041H115.224V17.541H115.943V17.041ZM115.224 17.041C115.285 17.041 115.313 17.0694 115.288 17.0521C115.273 17.0417 115.247 17.0198 115.207 16.98C115.128 16.9012 115.021 16.7764 114.884 16.6001L114.489 16.9077C114.631 17.0895 114.753 17.2332 114.854 17.3335C114.903 17.3832 114.954 17.4284 115.003 17.4628C115.043 17.4903 115.123 17.541 115.224 17.541V17.041ZM114.91 16.8657L115.093 16.5005L114.646 16.2769L114.463 16.6421L114.91 16.8657ZM115.119 16.3887V16.0342H114.619V16.3887H115.119ZM115.119 16.0192L114.399 4.04165L113.9 4.07164L114.62 16.0492L115.119 16.0192ZM114.256 4.28285L114.621 4.11097L114.408 3.65856L114.043 3.83044L114.256 4.28285ZM106.077 5.73262C106.9 5.85531 107.395 5.9732 107.606 6.07546L107.824 5.62571C107.533 5.48448 106.961 5.35888 106.151 5.23809L106.077 5.73262ZM107.735 6.09976C108.749 6.01734 109.541 5.94553 110.11 5.88431C110.395 5.85372 110.625 5.82557 110.801 5.79985C110.969 5.77514 111.105 5.75022 111.188 5.72252L111.03 5.24818C110.995 5.25987 110.901 5.27971 110.728 5.30513C110.562 5.32954 110.338 5.35689 110.057 5.38718C109.494 5.4477 108.707 5.51911 107.695 5.60141L107.735 6.09976ZM111.036 5.7242C111.357 5.82362 111.523 6.00282 111.586 6.26342L112.072 6.14673C111.963 5.69119 111.649 5.39057 111.183 5.2465L111.036 5.7242ZM111.602 6.1014C110.851 7.74802 110.191 10.1567 109.617 13.3147L110.109 13.4041C110.681 10.26 111.332 7.89911 112.057 6.30876L111.602 6.1014ZM109.735 13.145C109.364 13.3674 109.051 13.4639 108.789 13.4639V13.9639C109.172 13.9639 109.575 13.824 109.992 13.5737L109.735 13.145ZM108.998 13.5762L108.643 13.039L108.226 13.3145L108.58 13.8516L108.998 13.5762ZM108.673 13.2507C109.268 11.3311 109.714 9.86337 110.012 8.84819C110.161 8.34082 110.273 7.94495 110.348 7.66161C110.385 7.52016 110.414 7.4047 110.434 7.31648C110.451 7.23882 110.468 7.156 110.468 7.09668H109.968C109.968 7.09107 109.966 7.11859 109.946 7.20787C109.928 7.2866 109.901 7.39471 109.865 7.53345C109.791 7.8105 109.68 8.20149 109.532 8.70747C109.235 9.71899 108.79 11.1839 108.196 13.1028L108.673 13.2507ZM110.468 7.09668V6.9248H109.968V7.09668H110.468ZM110.243 6.67611L108.46 6.49349L108.409 6.99089L110.192 7.1735L110.243 6.67611ZM108.409 6.49349C107.222 6.61503 106.337 6.6748 105.749 6.6748V7.1748C106.364 7.1748 107.269 7.11283 108.46 6.99089L108.409 6.49349ZM105.958 6.78709L105.603 6.24998L105.186 6.52541L105.54 7.06252L105.958 6.78709ZM105.645 6.3877V6.02246H105.145V6.3877H105.645ZM105.645 6.02246C105.645 6.05266 105.625 6.028 105.724 5.95426C105.816 5.88548 105.971 5.8058 106.202 5.71958L106.027 5.25113C105.778 5.34394 105.573 5.4433 105.425 5.55355C105.284 5.65885 105.145 5.81322 105.145 6.02246H105.645ZM127.983 0.125V-0.125H127.877L127.803 -0.0478715L127.983 0.125ZM128.521 0.662109L128.722 0.809807L128.771 0.743854V0.662109H128.521ZM127.081 3.34766H126.831V3.50468L126.973 3.57286L127.081 3.34766ZM131.915 7.09668L131.757 7.29017L131.884 7.39448L132.03 7.31848L131.915 7.09668ZM126.189 4.23926L126.281 4.00666L126.045 3.91352L125.955 4.1514L126.189 4.23926ZM124.052 7.81641L123.845 7.95698L123.919 8.06641H124.052V7.81641ZM123.687 7.2793L123.46 7.17456L123.4 7.30295L123.48 7.41987L123.687 7.2793ZM127.983 8.89062H128.233V8.64062H127.983V8.89062ZM127.983 9.0625H127.733V9.06964L127.734 9.07677L127.983 9.0625ZM136.384 15.6797L136.592 15.542L136.484 15.3778L136.299 15.4445L136.384 15.6797ZM136.738 16.2168H136.988V16.1417L136.947 16.0791L136.738 16.2168ZM135.847 17.1084V17.3584H135.878L135.908 17.3508L135.847 17.1084ZM135.31 16.9258L135.427 16.705L135.359 16.6687L135.282 16.6773L135.31 16.9258ZM123.869 17.8174L123.757 18.041L123.81 18.0674H123.869V17.8174ZM123.332 17.6455H123.082V17.8955H123.332V17.6455ZM123.332 17.1084L123.085 17.0709L123.082 17.0896V17.1084H123.332ZM125.652 16.7539V17.0039H125.665L125.678 17.0026L125.652 16.7539ZM127.446 16.5713L127.472 16.82L127.696 16.7971V16.5713H127.446ZM127.081 9.78223L127.331 9.76724L127.316 9.53223H127.081V9.78223ZM126.909 9.78223L126.667 9.72091L126.588 10.0322H126.909V9.78223ZM127.983 0.375H128.155V-0.125H127.983V0.375ZM128.155 0.375C128.185 0.375 128.2 0.380454 128.205 0.383049C128.209 0.38509 128.215 0.388583 128.222 0.399855C128.242 0.428788 128.271 0.503594 128.271 0.662109H128.771C128.771 0.462551 128.738 0.268804 128.636 0.1187C128.522 -0.0486622 128.348 -0.125 128.155 -0.125V0.375ZM128.319 0.514412C127.836 1.17424 127.468 1.73621 127.221 2.1983C126.978 2.65022 126.831 3.04125 126.831 3.34766H127.331C127.331 3.17425 127.424 2.87778 127.661 2.43451C127.893 2.00142 128.246 1.46052 128.722 0.809807L128.319 0.514412ZM126.973 3.57286C128.762 4.43546 130.101 5.10332 130.992 5.57716C131.438 5.81448 131.767 6.00076 131.983 6.13711C132.092 6.2059 132.165 6.25773 132.208 6.29387C132.231 6.31243 132.238 6.32081 132.237 6.32C132.237 6.31939 132.23 6.31131 132.223 6.29642C132.216 6.28252 132.202 6.25027 132.202 6.20508H132.702C132.702 6.10218 132.645 6.02954 132.625 6.00489C132.597 5.96962 132.562 5.93749 132.528 5.9095C132.46 5.85254 132.365 5.7871 132.25 5.71445C132.018 5.56792 131.676 5.37465 131.227 5.13574C130.327 4.65709 128.981 3.98576 127.19 3.12245L126.973 3.57286ZM132.202 6.20508V6.55957H132.702V6.20508H132.202ZM132.202 6.55957C132.202 6.55342 132.206 6.58126 132.141 6.64598C132.077 6.70999 131.968 6.78744 131.8 6.87488L132.03 7.31848C132.22 7.21972 132.38 7.11456 132.495 6.99953C132.609 6.88521 132.702 6.73759 132.702 6.55957H132.202ZM132.073 6.90319C131.094 6.10202 129.151 5.13751 126.281 4.00666L126.098 4.47185C128.971 5.60403 130.845 6.54446 131.757 7.29017L132.073 6.90319ZM125.955 4.1514C125.509 5.33928 125.114 6.21702 124.769 6.79387C124.596 7.08299 124.443 7.28534 124.31 7.41246C124.174 7.54335 124.09 7.56641 124.052 7.56641V8.06641C124.279 8.06641 124.482 7.94041 124.657 7.77321C124.835 7.60223 125.015 7.35744 125.198 7.05036C125.566 6.43483 125.974 5.524 126.424 4.32712L125.955 4.1514ZM124.258 7.67583L123.893 7.13872L123.48 7.41987L123.845 7.95698L124.258 7.67583ZM123.914 7.38403C125.494 3.95833 126.912 1.60553 128.164 0.297871L127.803 -0.0478715C126.491 1.32285 125.044 3.73958 123.46 7.17456L123.914 7.38403ZM127.446 9.14062H127.983V8.64062H127.446V9.14062ZM127.733 8.89062V9.0625H128.233V8.89062H127.733ZM127.734 9.07677C127.874 11.52 128.018 13.3581 128.168 14.5873C128.242 15.2004 128.319 15.6708 128.4 15.9916C128.439 16.15 128.483 16.286 128.535 16.3876C128.56 16.4379 128.595 16.4932 128.642 16.539C128.689 16.5857 128.768 16.6387 128.875 16.6387V16.1387C128.942 16.1387 128.982 16.1725 128.991 16.1811C128.999 16.1888 128.994 16.1868 128.98 16.1608C128.954 16.1097 128.921 16.0169 128.885 15.87C128.812 15.5803 128.738 15.1349 128.664 14.5269C128.516 13.3141 128.373 11.4891 128.233 9.04823L127.734 9.07677ZM128.875 16.6387H129.047V16.1387H128.875V16.6387ZM129.047 16.6387C132.625 16.6387 135.112 16.4042 136.469 15.9149L136.299 15.4445C135.035 15.9005 132.63 16.1387 129.047 16.1387V16.6387ZM136.175 15.8174L136.53 16.3545L136.947 16.0791L136.592 15.542L136.175 15.8174ZM136.488 16.2168V16.5713H136.988V16.2168H136.488ZM136.488 16.5713C136.488 16.5404 136.512 16.5717 136.386 16.6472C136.269 16.7179 136.074 16.793 135.785 16.866L135.908 17.3508C136.214 17.2734 136.465 17.1838 136.644 17.0755C136.816 16.9719 136.988 16.8099 136.988 16.5713H136.488ZM135.847 16.8584C135.783 16.8584 135.649 16.8233 135.427 16.705L135.192 17.1466C135.428 17.2718 135.653 17.3584 135.847 17.3584V16.8584ZM135.282 16.6773C129.997 17.2717 126.196 17.5674 123.869 17.5674V18.0674C126.226 18.0674 130.052 17.7687 135.338 17.1742L135.282 16.6773ZM123.981 17.5938C123.745 17.4757 123.522 17.3955 123.332 17.3955V17.8955C123.4 17.8955 123.535 17.9299 123.757 18.041L123.981 17.5938ZM123.582 17.6455V17.1084H123.082V17.6455H123.582ZM123.579 17.1458C123.592 17.0585 123.616 17.0275 123.624 17.0193C123.627 17.0163 123.638 17.0039 123.687 17.0039V16.5039C123.534 16.5039 123.386 16.5506 123.271 16.6658C123.161 16.7757 123.107 16.922 123.085 17.0709L123.579 17.1458ZM123.687 17.0039H125.652V16.5039H123.687V17.0039ZM125.678 17.0026L127.472 16.82L127.421 16.3226L125.627 16.5052L125.678 17.0026ZM127.696 16.5713C127.696 16.0888 127.574 13.8146 127.331 9.76724L126.832 9.79722C127.075 13.8566 127.196 16.1084 127.196 16.5713H127.696ZM127.081 9.53223H126.909V10.0322H127.081V9.53223ZM127.152 9.84355C127.225 9.5549 127.3 9.35987 127.37 9.24253C127.446 9.11719 127.477 9.14062 127.446 9.14062V8.64062C127.208 8.64062 127.046 8.81266 126.942 8.98452C126.834 9.16439 126.744 9.41516 126.667 9.72091L127.152 9.84355ZM148.328 8.35352L148.079 8.37276L148.081 8.39551L148.086 8.41757L148.328 8.35352ZM149.037 11.0283H149.287V10.9958L149.279 10.9643L149.037 11.0283ZM148.5 11.748V11.998H148.561L148.615 11.9699L148.5 11.748ZM147.071 5.85059L147.32 5.82075L147.291 5.58238L147.052 5.60137L147.071 5.85059ZM142.603 6.20508H142.353V6.4757L142.622 6.4543L142.603 6.20508ZM146.717 4.77637L146.736 5.02565L146.967 5.00815V4.77637H146.717ZM146.889 4.59375V4.84375H147.139V4.59375H146.889ZM146.362 2.45605H146.112V2.48895L146.121 2.52072L146.362 2.45605ZM141.528 2.45605H141.778V2.20605H141.528V2.45605ZM140.1 5.85059L139.877 5.73673L139.763 5.96005L139.986 6.07354L140.1 5.85059ZM144.031 8.35352H144.281V8.23348L144.188 8.15842L144.031 8.35352ZM144.031 8.89062V9.14062H144.281V8.89062H144.031ZM139.745 6.9248L139.863 6.70438L139.808 6.6748H139.745V6.9248ZM139.391 6.9248V6.6748H139.237L139.168 6.81193L139.391 6.9248ZM137.779 9.59961L137.662 9.82039L137.717 9.84961H137.779V9.59961ZM137.242 9.41699H136.992V9.66699H137.242V9.41699ZM139.562 4.59375L139.781 4.71514L139.784 4.71042L139.562 4.59375ZM147.426 12.9941L147.668 12.931L147.619 12.7441H147.426V12.9941ZM148.5 17.1084L148.677 17.2852L148.778 17.1839L148.742 17.0452L148.5 17.1084ZM146.717 17.6455L146.667 17.8904L146.716 17.9004L146.765 17.8909L146.717 17.6455ZM145.825 17.4629L145.875 17.218L145.851 17.2129H145.825V17.4629ZM143.322 17.6455L143.208 17.8678L143.279 17.9047L143.359 17.8928L143.322 17.6455ZM142.785 17.4629V17.2129H142.651L142.577 17.3252L142.785 17.4629ZM142.431 18L142.222 17.8623L142.181 17.9249V18H142.431ZM143.14 19.7939L143.025 20.0162L143.079 20.0439H143.14V19.7939ZM143.322 19.6113L143.372 19.3664L143.072 19.3049V19.6113H143.322ZM144.214 19.7939L144.164 20.0389L144.207 20.0477L144.25 20.0413L144.214 19.7939ZM145.46 19.6113L145.497 19.3641L145.46 19.3586L145.424 19.364L145.46 19.6113ZM147.426 19.7939V20.0439H147.444L147.462 20.0413L147.426 19.7939ZM148.683 19.6113L148.891 19.4736L148.804 19.3411L148.647 19.3639L148.683 19.6113ZM149.037 20.1484H149.287V20.0734L149.246 20.0107L149.037 20.1484ZM148.5 21.04L148.387 21.263L148.525 21.3329L148.649 21.241L148.5 21.04ZM144.214 20.8574L144.105 21.0824L144.178 21.1178L144.258 21.1036L144.214 20.8574ZM143.859 20.6855L143.968 20.4606L143.888 20.4217L143.801 20.4424L143.859 20.6855ZM143.14 20.8574V21.1074H143.169L143.198 21.1006L143.14 20.8574ZM147.071 16.5713L147.084 16.821L147.228 16.8136L147.294 16.6858L147.071 16.5713ZM147.254 16.2168L147.476 16.3313L147.521 16.2438L147.495 16.1491L147.254 16.2168ZM146.18 13.8857V13.6357H146.163L146.146 13.638L146.18 13.8857ZM141.356 13.3594L141.306 13.1145L141.106 13.1554V13.3594H141.356ZM142.248 13.1768L142.238 12.927L142.218 12.9278L142.198 12.9318L142.248 13.1768ZM146.889 2.34082C146.897 2.34082 146.983 2.35092 147.117 2.6002C147.241 2.83186 147.365 3.19778 147.483 3.7125C147.719 4.7376 147.918 6.28824 148.079 8.37276L148.577 8.33428C148.416 6.24366 148.214 4.66295 147.97 3.60049C147.849 3.07142 147.713 2.65451 147.558 2.36428C147.412 2.09167 147.199 1.84082 146.889 1.84082V2.34082ZM148.086 8.41757L148.795 11.0924L149.279 10.9643L148.57 8.28946L148.086 8.41757ZM148.787 11.0283V11.2109H149.287V11.0283H148.787ZM148.787 11.2109C148.787 11.2048 148.791 11.2326 148.726 11.2973C148.662 11.3614 148.553 11.4388 148.385 11.5262L148.615 11.9699C148.805 11.8711 148.965 11.7659 149.08 11.6509C149.194 11.5366 149.287 11.389 149.287 11.2109H148.787ZM148.5 11.498C148.532 11.498 148.533 11.5156 148.499 11.4814C148.466 11.447 148.42 11.3814 148.366 11.2701C148.258 11.0488 148.144 10.7009 148.026 10.2148C147.791 9.24667 147.556 7.78417 147.32 5.82075L146.823 5.88043C147.06 7.84865 147.298 9.33487 147.54 10.3325C147.66 10.8294 147.785 11.2187 147.916 11.4888C147.981 11.6232 148.055 11.7419 148.141 11.8304C148.228 11.9191 148.348 11.998 148.5 11.998V11.498ZM147.052 5.60137L142.583 5.95586L142.622 6.4543L147.091 6.0998L147.052 5.60137ZM142.853 6.20508V5.66797H142.353V6.20508H142.853ZM142.853 5.66797C142.853 5.70033 142.836 5.71173 142.849 5.69847C142.864 5.68268 142.899 5.65427 142.971 5.61844C143.115 5.54693 143.348 5.47225 143.684 5.39936C144.352 5.25452 145.367 5.12928 146.736 5.02565L146.698 4.52708C145.324 4.63113 144.281 4.75834 143.578 4.9107C143.229 4.98641 142.948 5.07152 142.748 5.17099C142.649 5.22065 142.556 5.28052 142.485 5.35582C142.412 5.43364 142.353 5.53893 142.353 5.66797H142.853ZM146.967 4.77637C146.967 4.75038 146.973 4.7774 146.942 4.81075C146.908 4.84694 146.874 4.84375 146.889 4.84375V4.34375C146.789 4.34375 146.669 4.371 146.578 4.46806C146.489 4.56228 146.467 4.68061 146.467 4.77637H146.967ZM147.139 4.59375C147.139 4.53331 147.121 4.43893 147.1 4.34381C147.078 4.23655 147.044 4.09278 147 3.91362C146.911 3.55487 146.779 3.04718 146.604 2.39139L146.121 2.52072C146.296 3.17548 146.427 3.67934 146.514 4.03316C146.558 4.21028 146.59 4.34805 146.611 4.44757C146.635 4.55924 146.639 4.5969 146.639 4.59375H147.139ZM146.612 2.45605C146.612 2.4252 146.618 2.41026 146.621 2.40452C146.623 2.4 146.626 2.39468 146.636 2.38753C146.663 2.36898 146.734 2.34082 146.889 2.34082V1.84082C146.692 1.84082 146.5 1.87354 146.351 1.97673C146.186 2.09142 146.112 2.26567 146.112 2.45605H146.612ZM140.991 2.70605H141.528V2.20605H140.991V2.70605ZM141.278 2.45605V2.62793H141.778V2.45605H141.278ZM141.278 2.62793C141.278 2.65203 141.263 2.736 141.203 2.90789C141.147 3.06896 141.06 3.2814 140.943 3.54712C140.707 4.07795 140.353 4.80723 139.877 5.73673L140.322 5.96444C140.799 5.03197 141.159 4.29314 141.4 3.74976C141.52 3.47836 141.612 3.25217 141.675 3.07307C141.734 2.90478 141.778 2.74706 141.778 2.62793H141.278ZM139.986 6.07354C141.441 6.81142 142.737 7.63667 143.875 8.54861L144.188 8.15842C143.02 7.22271 141.694 6.37933 140.213 5.62764L139.986 6.07354ZM143.781 8.35352V8.89062H144.281V8.35352H143.781ZM144.031 8.64062H143.859V9.14062H144.031V8.64062ZM143.859 8.64062C143.86 8.64062 143.834 8.63893 143.769 8.61986C143.708 8.60232 143.629 8.57457 143.529 8.53513C143.328 8.45636 143.059 8.33636 142.718 8.1736C142.038 7.84842 141.087 7.35906 139.863 6.70438L139.627 7.14523C140.853 7.80109 141.812 8.29465 142.503 8.62474C142.848 8.78962 143.129 8.91535 143.346 9.00039C143.453 9.04286 143.548 9.07654 143.629 9.09996C143.704 9.12184 143.786 9.14062 143.859 9.14062V8.64062ZM139.745 6.6748H139.391V7.1748H139.745V6.6748ZM139.168 6.81193C138.717 7.70205 138.361 8.36417 138.097 8.80191C137.964 9.02178 137.86 9.17808 137.781 9.27684C137.741 9.32687 137.714 9.35435 137.699 9.36704C137.673 9.38928 137.706 9.34961 137.779 9.34961V9.84961C137.896 9.84961 137.983 9.78208 138.022 9.74859C138.073 9.70555 138.124 9.64945 138.172 9.58803C138.271 9.46389 138.389 9.28584 138.525 9.05991C138.799 8.60605 139.162 7.93076 139.614 7.03768L139.168 6.81193ZM137.897 9.37883C137.661 9.25361 137.436 9.16699 137.242 9.16699V9.66699C137.306 9.66699 137.439 9.70212 137.662 9.82039L137.897 9.37883ZM137.492 9.41699V9.0625H136.992V9.41699H137.492ZM137.492 9.0625C137.492 9.08439 137.488 9.09309 137.492 9.07668C137.496 9.06454 137.502 9.04506 137.513 9.01674C137.534 8.9603 137.567 8.88164 137.614 8.77884C137.709 8.57391 137.851 8.28669 138.044 7.9155C138.429 7.17386 139.008 6.10744 139.781 4.71511L139.344 4.47239C138.57 5.86587 137.989 6.93715 137.6 7.68509C137.406 8.05869 137.259 8.35423 137.16 8.57004C137.111 8.67761 137.072 8.7688 137.044 8.84172C137.031 8.87807 137.019 8.91315 137.01 8.94543C137.002 8.97344 136.992 9.01644 136.992 9.0625H137.492ZM139.784 4.71042C140.158 4.0001 140.461 3.47477 140.691 3.12939C140.808 2.95575 140.9 2.83573 140.97 2.76182C141.006 2.7247 141.029 2.70592 141.041 2.698C141.057 2.68773 141.037 2.70605 140.991 2.70605V2.20605C140.896 2.20605 140.817 2.24665 140.765 2.28091C140.71 2.31753 140.657 2.36555 140.608 2.4175C140.509 2.52173 140.398 2.66892 140.276 2.85156C140.03 3.21875 139.719 3.76227 139.341 4.47708L139.784 4.71042ZM147.184 13.0573L148.258 17.1716L148.742 17.0452L147.668 12.931L147.184 13.0573ZM148.323 16.9316C148.317 16.9383 148.283 16.9641 148.198 17.0024C148.117 17.0385 148.007 17.0784 147.864 17.1215C147.578 17.2075 147.181 17.3005 146.669 17.4001L146.765 17.8909C147.284 17.79 147.699 17.6932 148.008 17.6002C148.162 17.5538 148.295 17.5068 148.402 17.4588C148.504 17.413 148.605 17.3573 148.677 17.2852L148.323 16.9316ZM146.767 17.4006L145.875 17.218L145.775 17.7078L146.667 17.8904L146.767 17.4006ZM145.825 17.2129H145.288V17.7129H145.825V17.2129ZM145.288 17.2129C144.776 17.2129 144.107 17.2757 143.285 17.3982L143.359 17.8928C144.17 17.7718 144.812 17.7129 145.288 17.7129V17.2129ZM143.437 17.4233C143.197 17.3 142.972 17.2129 142.785 17.2129V17.7129C142.842 17.7129 142.974 17.7475 143.208 17.8678L143.437 17.4233ZM142.577 17.3252L142.222 17.8623L142.639 18.1377L142.994 17.6006L142.577 17.3252ZM142.181 18V19.2568H142.681V18H142.181ZM142.181 19.2568C142.181 19.3691 142.236 19.4569 142.28 19.5116C142.328 19.5706 142.39 19.6254 142.457 19.6763C142.592 19.7788 142.784 19.8922 143.025 20.0162L143.254 19.5717C143.022 19.4523 142.86 19.3543 142.759 19.2778C142.708 19.2392 142.681 19.2125 142.67 19.1981C142.655 19.1794 142.681 19.2019 142.681 19.2568H142.181ZM143.14 20.0439C143.239 20.0439 143.36 20.0189 143.453 19.9251C143.547 19.8312 143.572 19.7107 143.572 19.6113H143.072C143.072 19.6337 143.067 19.6045 143.1 19.5715C143.133 19.5385 143.162 19.5439 143.14 19.5439V20.0439ZM143.272 19.8562L144.164 20.0389L144.264 19.549L143.372 19.3664L143.272 19.8562ZM144.25 20.0413L145.496 19.8587L145.424 19.364L144.178 19.5466L144.25 20.0413ZM145.423 19.8586C146.245 19.9811 146.914 20.0439 147.426 20.0439V19.5439C146.949 19.5439 146.308 19.485 145.497 19.3641L145.423 19.8586ZM147.462 20.0413L148.719 19.8587L148.647 19.3639L147.39 19.5465L147.462 20.0413ZM148.474 19.749L148.828 20.2861L149.246 20.0107L148.891 19.4736L148.474 19.749ZM148.787 20.1484V20.5029H149.287V20.1484H148.787ZM148.787 20.5029C148.787 20.4529 148.808 20.4314 148.795 20.4515C148.785 20.4658 148.765 20.4917 148.726 20.5303C148.649 20.6069 148.527 20.7093 148.351 20.8391L148.649 21.241C148.831 21.1058 148.977 20.9862 149.08 20.8838C149.131 20.8329 149.177 20.78 149.212 20.7263C149.244 20.6783 149.287 20.5995 149.287 20.5029H148.787ZM148.613 20.8171C148.097 20.5553 147.397 20.4355 146.534 20.4355V20.9355C147.362 20.9355 147.972 21.0522 148.387 21.263L148.613 20.8171ZM146.534 20.4355H145.825V20.9355H146.534V20.4355ZM145.825 20.4355C145.375 20.4355 144.822 20.4953 144.17 20.6113L144.258 21.1036C144.894 20.9904 145.416 20.9355 145.825 20.9355V20.4355ZM144.323 20.6325L143.968 20.4606L143.75 20.9105L144.105 21.0824L144.323 20.6325ZM143.801 20.4424L143.082 20.6143L143.198 21.1006L143.917 20.9287L143.801 20.4424ZM143.14 20.6074C142.572 20.6074 142.193 20.4926 141.959 20.3051C141.735 20.1261 141.606 19.8499 141.606 19.4287H141.106C141.106 19.96 141.275 20.3981 141.646 20.6953C142.006 20.9841 142.518 21.1074 143.14 21.1074V20.6074ZM141.606 19.4287C141.606 18.5444 141.681 17.9084 141.817 17.5017C141.954 17.0885 142.117 17.0039 142.248 17.0039V16.5039C141.785 16.5039 141.502 16.8651 141.342 17.3435C141.181 17.8284 141.106 18.5298 141.106 19.4287H141.606ZM142.248 17.0039C143.1 17.0039 144.714 16.9427 147.084 16.821L147.058 16.3216C144.687 16.4434 143.086 16.5039 142.248 16.5039V17.0039ZM147.294 16.6858L147.476 16.3313L147.032 16.1023L146.849 16.4568L147.294 16.6858ZM147.495 16.1491C147.275 15.3685 147.072 14.7706 146.885 14.3639C146.792 14.1618 146.697 13.994 146.597 13.8729C146.506 13.7615 146.367 13.6357 146.18 13.6357V14.1357C146.132 14.1357 146.143 14.1072 146.211 14.19C146.271 14.2631 146.345 14.3867 146.431 14.5731C146.601 14.9435 146.796 15.5111 147.013 16.2845L147.495 16.1491ZM146.146 13.638C144.369 13.8807 142.891 14.001 141.711 14.001V14.501C142.922 14.501 144.424 14.3778 146.214 14.1334L146.146 13.638ZM141.711 14.001C141.673 14.001 141.649 13.996 141.637 13.9917C141.631 13.9897 141.628 13.9879 141.626 13.987C141.625 13.9861 141.625 13.9857 141.624 13.9855C141.624 13.9854 141.624 13.9847 141.622 13.9825C141.621 13.9802 141.619 13.9759 141.616 13.9686C141.612 13.9534 141.606 13.9272 141.606 13.8857H141.106C141.106 14.0442 141.145 14.2093 141.266 14.3338C141.388 14.4597 141.552 14.501 141.711 14.501V14.001ZM141.606 13.8857V13.3594H141.106V13.8857H141.606ZM141.407 13.6043L142.298 13.4217L142.198 12.9318L141.306 13.1145L141.407 13.6043ZM142.258 13.4266C145.32 13.3047 147.038 13.2441 147.426 13.2441V12.7441C147.025 12.7441 145.292 12.8054 142.238 12.927L142.258 13.4266Z" fill="#222222"/>
</svg>
