<svg width="167" height="25" viewBox="0 0 167 25" fill="none" xmlns="http://www.w3.org/2000/svg">
<path d="M1.24805 0.880859C5.25586 1.39648 7.25977 1.71582 7.25977 1.83887L7.74316 1.60156H9.66797C11.9121 2.02344 13.0342 3.86621 13.0342 7.12988C12.7236 7.8623 12.4043 8.26367 12.0762 8.33398H11.5928C11.0127 8.33398 10.5322 6.89258 10.1514 4.00977C9.8291 4.00977 9.66797 3.92773 9.66797 3.76367L9.18457 4.00977H8.94727C8.7832 4.00977 8.70117 3.92773 8.70117 3.76367C7.74023 3.97461 7.25977 4.21484 7.25977 4.48438V7.37598C7.25977 8.33691 6.7793 8.81738 5.81836 8.81738C5.17969 8.2373 4.86035 7.5957 4.86035 6.89258V3.76367C1.97168 3.44727 0.527344 3.04883 0.527344 2.56836V1.11816C0.697266 1.11816 0.9375 1.03906 1.24805 0.880859ZM2.45215 9.78418C3.2959 9.94238 3.77637 10.0215 3.89355 10.0215C8.82129 9.86328 12.1904 9.78418 14.001 9.78418L14.7217 10.7422V11.4629C14.7217 11.6914 14.4814 11.9316 14.001 12.1836H9.43066V12.9043L9.66797 14.5918H11.1094C12.3926 14.5918 13.0342 15.3125 13.0342 16.7539V18.1953C13.0342 20.123 10.9512 21.0869 6.78516 21.0869V21.5615C8.60742 21.8838 9.8877 22.0449 10.626 22.0449H12.0762C12.3047 22.0449 12.5449 22.2852 12.7969 22.7656V23.0117C12.2988 23.9727 11.335 24.4531 9.90527 24.4531C7.11035 24.4531 5.18555 23.249 4.13086 20.8408C4.53516 19.5576 5.33789 18.916 6.53906 18.916C9.18164 18.7578 10.626 18.2773 10.8721 17.4746V16.7539C7.24512 16.918 4.99805 17 4.13086 17L3.41016 16.0332L3.65625 14.8291H6.30176L7.50586 14.5918L7.25977 14.1084V12.4297H5.09766C2.85352 12.4297 1.73145 11.8672 1.73145 10.7422L2.45215 9.78418ZM20.4893 1.61914C22.4111 1.61914 23.5332 3.78125 23.8555 8.10547C23.8555 9.28906 22.7334 10.0098 20.4893 10.2676H19.7686V11.709H21.4473L22.8975 11.4717C23.1729 11.6299 23.8936 11.791 25.0596 11.9551C25.0596 13.7188 23.6973 14.6006 20.9727 14.6006H20.4893C18.4092 14.6006 17.3691 13.3174 17.3691 10.751V10.2676C17.3691 8.3457 18.7285 7.38477 21.4473 7.38477C21.4473 5.30469 20.7266 4.26465 19.2852 4.26465L15.9189 4.98535C15.2803 4.82129 14.9609 4.34082 14.9609 3.54395C14.9609 2.26074 16.8037 1.61914 20.4893 1.61914ZM29.6211 3.29785H31.0713C31.3877 4.3584 31.707 7.56348 32.0293 12.9131C31.7891 13.5576 31.5488 13.8799 31.3086 13.8799H30.5879C30.1074 13.8799 29.7061 12.5176 29.3838 9.79297L25.5342 10.2676C24.8955 10.0273 24.5762 9.78711 24.5762 9.54688V9.07227C24.5762 7.78906 25.6982 7.14746 27.9424 7.14746H29.3838L29.1465 6.66406V4.98535L29.6211 3.29785ZM26.9844 14.6006C29.0645 16.1533 30.1045 17.4336 30.1045 18.4414V20.1289C29.3486 21.8926 28.1475 22.7744 26.501 22.7744C24.0986 22.0889 22.8975 20.4043 22.8975 17.7207C22.8975 16.2734 24.2598 15.2334 26.9844 14.6006ZM25.2969 17.7207V17.9668C25.2969 18.834 25.6982 19.4727 26.501 19.8828H26.9844C27.4648 19.8828 27.7051 19.5635 27.7051 18.9248C27.6641 18.4268 27.1016 17.9463 26.0176 17.4834C25.707 17.6416 25.4668 17.7207 25.2969 17.7207ZM39.1875 0.880859C43.1953 1.39648 45.1992 1.71582 45.1992 1.83887L45.6826 1.60156H47.6074C49.8516 2.02344 50.9736 3.86621 50.9736 7.12988C50.6631 7.8623 50.3438 8.26367 50.0156 8.33398H49.5322C48.9521 8.33398 48.4717 6.89258 48.0908 4.00977C47.7686 4.00977 47.6074 3.92773 47.6074 3.76367L47.124 4.00977H46.8867C46.7227 4.00977 46.6406 3.92773 46.6406 3.76367C45.6797 3.97461 45.1992 4.21484 45.1992 4.48438V7.37598C45.1992 8.33691 44.7188 8.81738 43.7578 8.81738C43.1191 8.2373 42.7998 7.5957 42.7998 6.89258V3.76367C39.9111 3.44727 38.4668 3.04883 38.4668 2.56836V1.11816C38.6367 1.11816 38.877 1.03906 39.1875 0.880859ZM40.3916 9.78418C41.2354 9.94238 41.7158 10.0215 41.833 10.0215C46.7607 9.86328 50.1299 9.78418 51.9404 9.78418L52.6611 10.7422V11.4629C52.6611 11.6914 52.4209 11.9316 51.9404 12.1836H47.3701V12.9043L47.6074 14.5918H49.0488C50.332 14.5918 50.9736 15.3125 50.9736 16.7539V18.1953C50.9736 20.123 48.8906 21.0869 44.7246 21.0869V21.5615C46.5469 21.8838 47.8271 22.0449 48.5654 22.0449H50.0156C50.2441 22.0449 50.4844 22.2852 50.7363 22.7656V23.0117C50.2383 23.9727 49.2744 24.4531 47.8447 24.4531C45.0498 24.4531 43.125 23.249 42.0703 20.8408C42.4746 19.5576 43.2773 18.916 44.4785 18.916C47.1211 18.7578 48.5654 18.2773 48.8115 17.4746V16.7539C45.1846 16.918 42.9375 17 42.0703 17L41.3496 16.0332L41.5957 14.8291H44.2412L45.4453 14.5918L45.1992 14.1084V12.4297H43.0371C40.793 12.4297 39.6709 11.8672 39.6709 10.7422L40.3916 9.78418ZM58.4287 1.61914C60.3506 1.61914 61.4727 3.78125 61.7949 8.10547C61.7949 9.28906 60.6729 10.0098 58.4287 10.2676H57.708V11.709H59.3867L60.8369 11.4717C61.1123 11.6299 61.833 11.791 62.999 11.9551C62.999 13.7188 61.6367 14.6006 58.9121 14.6006H58.4287C56.3486 14.6006 55.3086 13.3174 55.3086 10.751V10.2676C55.3086 8.3457 56.668 7.38477 59.3867 7.38477C59.3867 5.30469 58.666 4.26465 57.2246 4.26465L53.8584 4.98535C53.2197 4.82129 52.9004 4.34082 52.9004 3.54395C52.9004 2.26074 54.7432 1.61914 58.4287 1.61914ZM67.5605 3.29785H69.0107C69.3271 4.3584 69.6465 7.56348 69.9688 12.9131C69.7285 13.5576 69.4883 13.8799 69.248 13.8799H68.5273C68.0469 13.8799 67.6455 12.5176 67.3232 9.79297L63.4736 10.2676C62.835 10.0273 62.5156 9.78711 62.5156 9.54688V9.07227C62.5156 7.78906 63.6377 7.14746 65.8818 7.14746H67.3232L67.0859 6.66406V4.98535L67.5605 3.29785ZM64.9238 14.6006C67.0039 16.1533 68.0439 17.4336 68.0439 18.4414V20.1289C67.2881 21.8926 66.0869 22.7744 64.4404 22.7744C62.0381 22.0889 60.8369 20.4043 60.8369 17.7207C60.8369 16.2734 62.1992 15.2334 64.9238 14.6006ZM63.2363 17.7207V17.9668C63.2363 18.834 63.6377 19.4727 64.4404 19.8828H64.9238C65.4043 19.8828 65.6445 19.5635 65.6445 18.9248C65.6035 18.4268 65.041 17.9463 63.957 17.4834C63.6465 17.6416 63.4062 17.7207 63.2363 17.7207ZM73.5654 2.10254H73.8027C74.9219 2.10254 75.4814 3.22461 75.4814 5.46875C75.6455 5.46875 75.7275 5.94922 75.7275 6.91016H77.6436C79.1553 6.91016 80.2773 7.22949 81.0098 7.86816C81.0098 8.9873 80.5293 9.54688 79.5684 9.54688H78.127C78.4844 10.0566 78.8037 10.8594 79.085 11.9551C78.9092 14.1992 77.8691 15.3213 75.9648 15.3213H75.4814C74.2041 15.3213 73.085 14.4395 72.124 12.6758V10.9971L72.3613 9.79297H71.4033L70.1992 9.54688V8.82617C70.1992 7.70703 71.2393 7.14746 73.3193 7.14746C73.0029 5.38965 72.8447 4.18848 72.8447 3.54395C73.0029 2.58301 73.2432 2.10254 73.5654 2.10254ZM84.6133 4.74805H85.334C85.9727 4.74805 86.374 6.10742 86.5381 8.82617L88.7002 8.35156C89.8193 8.50977 90.3789 8.75 90.3789 9.07227V9.79297C90.3789 10.5371 89.1777 11.0176 86.7754 11.2344C86.8926 11.5215 87.0537 12.6436 87.2588 14.6006C86.9482 15.3271 86.626 15.7256 86.292 15.7959H85.0967C84.6162 14.4365 84.376 13.4756 84.376 12.9131H84.6133C84.4551 12.3799 84.1357 10.1387 83.6553 6.18945C83.9775 5.22852 84.2969 4.74805 84.6133 4.74805ZM74.5234 10.5137C74.3652 10.8242 74.2861 11.0645 74.2861 11.2344C74.6025 12.1016 75.083 12.6611 75.7275 12.9131C76.208 12.7549 76.4482 12.5967 76.4482 12.4385C76.3311 11.1553 75.6895 10.5137 74.5234 10.5137ZM80.0518 16.7627H80.7725C81.4697 16.7627 81.8682 18.1221 81.9678 20.8408C82.3662 20.8408 83.5674 20.6826 85.5713 20.3662C86.374 20.6826 86.7754 20.9229 86.7754 21.0869C86.7754 22.5283 85.0938 23.249 81.7305 23.249H81.2471C79.9697 23.249 79.3311 21.7256 79.3311 18.6787V18.4414C79.4365 17.3223 79.6768 16.7627 80.0518 16.7627ZM102.345 2.33984L103.065 3.30664V3.78125C103.065 3.94531 102.983 4.02734 102.819 4.02734L103.065 4.50195V7.38477L104.507 7.86816V9.79297C104.507 9.95703 105.787 10.7568 108.348 12.1924C107.996 13.1533 107.196 13.6338 105.948 13.6338L104.507 12.9131L104.023 13.1592C103.742 12.9951 103.423 12.9131 103.065 12.9131C103.065 14.0029 102.503 14.8848 101.378 15.5586H100.903C100.669 15.5586 100.429 15.3184 100.183 14.8379V14.6006C100.183 14.1084 100.742 12.5059 101.861 9.79297H101.624C101.261 9.91016 100.218 10.0713 98.4951 10.2764V10.0303L98.0205 10.2764H97.7744C97.1357 9.9541 96.8164 9.71094 96.8164 9.54688C96.8164 8.42773 97.376 7.86816 98.4951 7.86816H100.183C100.499 7.86816 100.657 7.70703 100.657 7.38477C100.499 5.79102 100.42 4.58984 100.42 3.78125C100.625 3.78125 101.026 3.38281 101.624 2.58594C101.935 2.42187 102.175 2.33984 102.345 2.33984ZM114.834 7.63086C115.602 7.63086 116.322 10.833 116.996 17.2373C117.16 17.2373 117.242 17.5596 117.242 18.2041C117.242 19.165 116.601 19.7246 115.317 19.8828H115.08C114.4 19.8828 113.759 16.1973 113.155 8.82617C113.378 8.0293 113.938 7.63086 114.834 7.63086ZM105.465 14.6006C105.945 15.4092 106.347 16.7686 106.669 18.6787C106.827 18.6787 106.906 18.7607 106.906 18.9248L107.39 18.6787H110.51C110.51 18.9307 110.671 19.2529 110.993 19.6455L110.51 20.3662C110.668 20.3662 110.747 20.4453 110.747 20.6035C110.501 20.6035 110.182 20.7646 109.789 21.0869H109.068C108.172 21.0869 105.608 21.2451 101.378 21.5615L101.141 21.0869V20.8408C101.141 19.7217 102.102 19.1621 104.023 19.1621L103.54 16.042C103.786 15.0811 104.428 14.6006 105.465 14.6006ZM120.355 2.10254H120.839C121.478 2.41895 121.797 2.89941 121.797 3.54395C121.48 4.74512 121.322 5.46582 121.322 5.70605C122.904 6.81934 124.425 8.33984 125.884 10.2676C125.562 11.2344 125.242 11.7178 124.926 11.7178H124.442C124.114 11.7178 122.913 10.5137 120.839 8.10547H120.602C120.016 10.3379 119.532 11.46 119.151 11.4717H118.914C117.953 11.4717 117.473 11.1523 117.473 10.5137C118.814 4.90625 119.775 2.10254 120.355 2.10254ZM129.971 3.78125H130.454C131.093 3.78125 131.494 5.22266 131.658 8.10547C131.494 8.41602 131.412 8.65625 131.412 8.82617C131.576 9.13672 131.658 9.37695 131.658 9.54688H131.412C131.535 9.91016 131.696 10.9531 131.896 12.6758C131.573 13.1973 131.412 13.5986 131.412 13.8799H130.938C129.812 13.8799 129.25 12.916 129.25 10.9883V6.18066C129.25 5.82324 129.171 5.50391 129.013 5.22266C129.388 4.26172 129.707 3.78125 129.971 3.78125ZM123.722 14.8379C124.419 14.8379 124.981 15.96 125.409 18.2041C125.726 18.2041 125.884 18.2832 125.884 18.4414L126.367 18.2041C126.525 18.2041 126.604 18.2832 126.604 18.4414L127.088 18.2041H129.733C130.214 18.3623 130.454 18.8428 130.454 19.6455C130.296 20.126 130.135 20.3662 129.971 20.3662C129.49 20.3662 128.45 20.5273 126.851 20.8496C124.126 20.8496 122.764 19.8066 122.764 17.7207V16.2793C122.764 15.3184 123.083 14.8379 123.722 14.8379ZM140.987 1.85645C141.79 1.95605 142.191 2.43652 142.191 3.29785L141.945 4.98535C145.473 6.93652 147.236 8.1377 147.236 8.58887V9.07227C147.078 9.55273 146.598 9.79297 145.795 9.79297C145.256 9.79297 143.732 8.99023 141.225 7.38477C141.225 9.30664 140.665 10.2676 139.546 10.2676H138.825C138.503 10.2676 138.342 10.1094 138.342 9.79297C138.342 8.50391 138.901 6.09863 140.021 2.57715C139.862 2.57715 139.783 2.49805 139.783 2.33984C140.064 2.33984 140.466 2.17871 140.987 1.85645ZM143.87 11.4717H144.591C144.948 11.4717 145.271 12.2744 145.558 13.8799H145.312C145.312 16.124 145.713 17.2461 146.516 17.2461C147.148 17.4043 147.708 17.4834 148.194 17.4834C148.276 17.4834 148.599 17.4043 149.161 17.2461C150.122 17.4453 150.603 18.166 150.603 19.4082C150.075 19.7246 149.595 19.8828 149.161 19.8828H145.074C144.91 19.8828 144.828 19.8037 144.828 19.6455L144.354 19.8828H140.021C139.194 19.8828 138.714 19.6426 138.579 19.1621V18.2041C138.579 17.9521 138.901 17.6328 139.546 17.2461H143.387C143.229 16.3672 143.149 14.6035 143.149 11.9551L143.87 11.4717ZM154.208 1.61914C155.169 1.71875 155.649 1.95898 155.649 2.33984V2.82324C155.169 4.24707 154.929 5.04688 154.929 5.22266C157.173 7.5957 158.295 9.11914 158.295 9.79297C157.973 10.5898 157.492 10.9883 156.854 10.9883C156.584 10.9883 155.541 9.86914 153.725 7.63086C153.215 9.55273 152.734 10.5137 152.283 10.5137H151.079L150.842 9.30957C152.342 4.18262 153.464 1.61914 154.208 1.61914ZM165.985 2.57715C166.513 2.57715 166.832 3.62012 166.943 5.70605V10.2676C166.943 11.3926 166.463 11.9551 165.502 11.9551C164.863 11.7969 164.544 11.3164 164.544 10.5137V8.10547C164.544 7.78906 164.383 7.63086 164.061 7.63086H163.586C162.578 7.63086 161.374 7.70996 159.974 7.86816C158.696 7.7627 158.058 7.60156 158.058 7.38477L157.574 6.66406C157.574 5.76758 157.976 5.20801 158.778 4.98535C160.056 5.09082 160.694 5.24902 160.694 5.45996L161.178 5.22266H164.061L164.544 5.45996C164.544 3.53809 164.945 2.57715 165.748 2.57715H165.985ZM157.812 13.3965H163.34C164.465 13.3965 165.027 14.5186 165.027 16.7627V17.9668C165.027 19.0039 163.185 19.6426 159.499 19.8828C159.499 20.1348 159.818 20.457 160.457 20.8496H164.544C164.866 20.8965 165.027 21.0576 165.027 21.333C165.027 22.7744 163.823 23.4951 161.415 23.4951C158.532 23.4951 157.091 22.1328 157.091 19.4082C157.735 17.9668 159.177 17.2461 161.415 17.2461C162.218 17.2461 162.619 17.085 162.619 16.7627V16.2793C162.619 15.957 162.458 15.7959 162.136 15.7959H161.898C160.973 15.7959 159.692 15.8779 158.058 16.042C157.325 15.7314 156.924 15.4092 156.854 15.0752V14.3545C156.854 14.1084 157.173 13.7891 157.812 13.3965Z" fill="#222222"/>
</svg>
