<svg width="146" height="25" viewBox="0 0 146 25" fill="none" xmlns="http://www.w3.org/2000/svg">
<path d="M4.7373 0.0273438C5.13118 0.0917969 5.32812 0.288737 5.32812 0.618164V5.5918H4.7373V5.88184H5.32812V5.5918C5.52148 5.5918 5.61816 5.68848 5.61816 5.88184C5.75423 5.88184 7.11849 5.58822 9.71094 5.00098L10.0117 5.5918V6.17188C6.93945 6.95247 4.79102 7.34277 3.56641 7.34277C1.61849 7.10645 0.644531 6.71615 0.644531 6.17188V5.88184C1.03125 5.88184 1.22461 5.78516 1.22461 5.5918L2.69629 5.88184H3.86719L4.44727 5.5918L4.15723 5.00098V0.618164C4.21452 0.224284 4.40788 0.0273438 4.7373 0.0273438ZM11.7627 2.0791C12.5433 2.0791 12.9336 4.12728 12.9336 8.22363V9.39453C12.9336 9.78125 13.9111 10.0749 15.8662 10.2754V10.5654C15.8662 10.8447 15.5726 11.1383 14.9854 11.4463C14.6058 11.2458 14.3122 11.1455 14.1045 11.1455C13.3239 11.346 12.9336 11.9333 12.9336 12.9072V14.3682H12.3535C11.9596 14.3682 11.7627 14.1748 11.7627 13.7881V9.10449L11.4727 7.05273H11.7627L11.4727 6.46191V4.4209L11.1826 2.36914L11.7627 2.0791ZM3.27637 10.2754H5.61816C6.10514 10.2754 6.59212 11.2493 7.0791 13.1973V14.3682C6.45605 15.736 5.57878 16.4199 4.44727 16.4199C2.88607 16.4199 2.00879 15.4424 1.81543 13.4873C1.81543 12.807 2.30241 11.7363 3.27637 10.2754ZM3.27637 13.7881C3.56999 14.5615 3.86361 14.9482 4.15723 14.9482H4.7373C5.00944 14.9411 5.39974 14.4541 5.9082 13.4873C5.9082 12.9072 5.61816 12.1266 5.03809 11.1455C3.86361 11.1455 3.27637 12.0264 3.27637 13.7881ZM8.25 15.249C9.0306 15.249 9.4209 16.71 9.4209 19.6318V20.5127H9.71094C12.8262 20.126 14.7777 19.9326 15.5654 19.9326V21.1035C15.0641 21.1035 14.0902 21.2969 12.6436 21.6836V21.3936L11.1826 21.9736L10.5918 21.6836L8.84082 21.9736C8.37533 21.9736 8.08171 21.193 7.95996 19.6318C7.95996 19.4385 8.05664 19.3418 8.25 19.3418C7.86328 17.2936 7.66992 16.026 7.66992 15.5391L8.25 15.249ZM37.5527 4.77539C38.9492 4.77539 39.6475 8.1556 39.6475 14.916V18.1924H38.1543C37.5527 18.1924 37.1553 16.8997 36.9619 14.3145C37.1553 14.3145 37.252 14.2142 37.252 14.0137L34.2764 14.3145H33.6748C33.3883 14.3145 33.0911 14.0173 32.7832 13.4229V12.8213C34.681 12.4274 36.1706 12.2305 37.252 12.2305V10.7373C37.252 10.3363 37.055 10.1357 36.6611 10.1357H35.168L33.3848 10.4365C32.5898 10.236 32.1924 9.73828 32.1924 8.94336L32.7832 8.65332H33.9756L36.9619 8.35254L36.3604 5.36621L37.5527 4.77539ZM26.8213 6.55859C29.4639 6.55859 31.2542 8.84668 32.1924 13.4229C30.6598 15.8076 29.0664 17 27.4121 17H26.5205C24.8877 17 23.6953 15.6071 22.9434 12.8213C23.3444 9.94238 24.2396 7.85482 25.6289 6.55859H26.8213ZM27.1221 8.05176C26.2484 8.62467 25.6504 10.3148 25.3281 13.1221V13.7129C25.8509 14.7012 26.2484 15.1989 26.5205 15.2061H26.8213C29.0055 14.7477 30.0977 13.8525 30.0977 12.5205C29.224 10.0928 28.2321 8.60319 27.1221 8.05176ZM46.0381 1.43457H46.6182C46.8187 1.43457 46.9189 1.53125 46.9189 1.72461L47.499 1.43457H48.0898C50.0449 1.43457 51.0225 2.60905 51.0225 4.95801V7.00977C51.0225 7.40365 50.8291 7.60059 50.4424 7.60059H49.5615C49.1175 7.60059 48.7236 7.50391 48.3799 7.31055C48.0433 7.50391 47.653 7.60059 47.209 7.60059H45.4473V9.66309L45.7373 10.2432L50.7324 9.66309C51.112 9.85645 51.4056 9.95312 51.6133 9.95312V10.834C51.6133 11.6146 49.1676 12.0049 44.2764 12.0049C43.6891 11.3245 43.3955 9.85645 43.3955 7.60059C43.3955 6.61947 44.7633 6.12891 47.499 6.12891H48.9707V3.78711C48.9707 3.39323 48.7738 3.19629 48.3799 3.19629H43.3955C43.0016 3.19629 42.8047 2.99935 42.8047 2.60547V2.31543C42.8047 1.72819 43.8825 1.43457 46.0381 1.43457ZM55.4268 13.1865C55.7705 13.3799 56.1644 13.4766 56.6084 13.4766V14.3574C56.6084 15.3385 51.9105 15.8291 42.5146 15.8291C40.9463 15.471 40.1621 15.0771 40.1621 14.6475C40.2266 14.2607 40.4235 14.0674 40.7529 14.0674H44.5664L47.499 13.7666V14.0674C47.8786 13.8669 48.1722 13.7666 48.3799 13.7666C51.0225 13.7666 53.3714 13.5732 55.4268 13.1865ZM46.9189 17H51.0225C52.0036 17.0501 52.4941 17.2471 52.4941 17.5908C52.888 20.3193 53.085 22.0811 53.085 22.876C52.4834 23.4632 50.6214 23.7568 47.499 23.7568H46.6182C45.5153 23.7568 44.8314 23.1696 44.5664 21.9951L44.8564 20.5234V17.29L46.9189 17ZM46.9189 18.7617V20.5234L46.6182 21.9951C46.8187 21.9951 46.9189 22.0918 46.9189 22.2852C47.2699 22.1419 48.6377 21.945 51.0225 21.6943C50.8291 19.9613 50.7324 18.887 50.7324 18.4717H49.8516L46.9189 18.7617ZM63.8584 3.54004C65.9997 3.54004 67.0703 5.00456 67.0703 7.93359C65.4518 10.2754 63.9909 11.4463 62.6875 11.4463C59.9518 10.8949 58.584 9.82064 58.584 8.22363V7.34277C59.1068 5.2015 60.0843 4.13086 61.5166 4.13086C61.5166 3.73698 62.2972 3.54004 63.8584 3.54004ZM71.4639 4.13086H72.0439C72.4951 4.13086 73.2757 7.15299 74.3857 13.1973C74.3857 13.3906 74.2891 13.4873 74.0957 13.4873C74.4824 15.5355 74.6758 16.8031 74.6758 17.29C74.2891 18.0921 74.0957 18.6794 74.0957 19.0518H72.9248C72.5309 13.5518 71.847 8.6748 70.873 4.4209L71.4639 4.13086ZM60.0449 8.22363C60.1595 8.81087 60.8434 9.39453 62.0967 9.97461C64.0446 9.97461 65.2155 8.90397 65.6094 6.7627C65.6094 5.58822 64.8288 4.9043 63.2676 4.71094C61.1191 5.51302 60.0449 6.68392 60.0449 8.22363ZM57.4131 14.959C59.7048 15.1523 61.3626 15.249 62.3867 15.249H63.8584C64.2952 15.249 64.682 15.1523 65.0186 14.959L65.6094 15.249C66.9414 15.0557 68.0156 14.959 68.832 14.959H69.1221C69.5088 15.0163 69.7021 15.2096 69.7021 15.5391C69.5088 15.9186 69.4121 16.2122 69.4121 16.4199C66.1895 16.6133 63.751 16.71 62.0967 16.71C58.7809 16.71 57.123 16.223 57.123 15.249C57.3164 15.249 57.4131 15.1523 57.4131 14.959ZM87.6826 0.360352C88.3773 0.560872 89.3691 0.661133 90.6582 0.661133L91.249 0.360352C93.0322 0.360352 93.9238 1.25195 93.9238 3.03516C94.1243 3.82292 94.2246 4.51758 94.2246 5.11914L93.9238 8.08398H92.7422C92.3411 8.08398 92.1406 7.88704 92.1406 7.49316V5.11914L91.8506 2.14355H88.2842C88.4775 4.47103 88.5742 6.15397 88.5742 7.19238L87.6826 7.79395C86.6943 7.79395 86.2002 5.91048 86.2002 2.14355H85.8994C85.1904 2.14355 84.2988 2.24382 83.2246 2.44434C82.2363 2.18652 81.7422 1.88932 81.7422 1.55273V0.951172L87.6826 0.360352ZM82.9346 9.86719C85.4053 10.2682 87.4857 10.4688 89.1758 10.4688H90.959C91.403 10.4688 91.7969 10.3685 92.1406 10.168C93.9238 10.4043 94.8154 10.7015 94.8154 11.0596V11.3604C94.8154 11.7542 94.6185 11.9512 94.2246 11.9512H91.8506L91.5498 13.4336V14.0352C91.6143 14.429 91.8112 14.626 92.1406 14.626H93.9238C94.3249 16.3232 94.5254 17.8092 94.5254 19.084C93.7949 19.6784 93.1003 19.9756 92.4414 19.9756H91.8506C90.805 19.9756 89.1185 19.8753 86.791 19.6748L87.3926 22.3496H88.875C89.0755 22.3496 89.1758 22.4499 89.1758 22.6504L89.7666 22.3496H93.333V23.832L91.249 24.1328H89.1758C86.5977 24.1328 85.3086 23.4382 85.3086 22.0488C85.1081 21.3327 85.0078 20.2441 85.0078 18.7832L85.6094 18.4824C86.9915 18.4824 89.1686 18.5827 92.1406 18.7832L92.4414 18.1924V16.4092H91.8506C87.3532 16.4092 84.9756 15.915 84.7178 14.9268V14.626L86.791 14.3252L89.7666 14.626V11.9512C89.3226 11.9512 88.9251 12.0514 88.5742 12.252C84.4134 12.0085 82.333 11.5107 82.333 10.7588V10.4688C82.3975 10.0677 82.598 9.86719 82.9346 9.86719ZM105.567 2.0791H105.868C106.305 2.0791 106.695 3.24642 107.039 5.58105C107.798 5.97493 108.869 6.17188 110.251 6.17188V7.34277H108.5L107.039 7.05273L107.329 10.5654V12.3164L105.868 12.0264C105.868 10.9951 105.671 8.84668 105.277 5.58105H105.567L105.277 5.00098C105.277 4.80762 105.374 4.71094 105.567 4.71094C105.181 3.70833 104.987 2.92773 104.987 2.36914L105.567 2.0791ZM95.3301 2.36914H100.895L102.355 2.65918C102.355 3.61165 101.868 5.36621 100.895 7.92285C102.649 9.08301 103.526 10.3542 103.526 11.7363H103.236L100.014 9.09375C98.61 10.8555 97.7327 11.7363 97.3818 11.7363C96.7946 11.5358 96.501 11.3389 96.501 11.1455C99.2295 7.57194 100.594 5.13346 100.594 3.83008V3.54004H95.9102C95.5234 3.54004 95.3301 3.3431 95.3301 2.94922V2.36914ZM99.7236 14.0674H106.738C107.676 14.2464 108.264 16.1012 108.5 19.6318H108.21L108.5 20.2227V20.8027H107.619C107.111 20.8027 106.624 19.0482 106.158 15.5391L104.697 15.2383H101.185L99.7236 14.9482V14.0674ZM122.012 1.48828H122.592C122.95 1.48828 123.44 2.36914 124.063 4.13086C124.994 4.13086 126.359 5.39844 128.156 7.93359V8.22363C128.156 8.50293 127.863 8.79655 127.275 9.10449H126.985C125.159 7.0778 123.695 5.80664 122.592 5.29102C121.181 8.80729 120.207 10.5654 119.67 10.5654H119.079C118.692 10.5654 118.499 10.3685 118.499 9.97461V9.68457L121.722 1.78906C121.722 1.58854 121.818 1.48828 122.012 1.48828ZM123.763 9.68457H124.354C124.633 9.68457 124.926 9.97819 125.234 10.5654V15.5391C127.863 15.3457 129.811 15.249 131.078 15.249C131.472 15.3063 131.669 15.4997 131.669 15.8291C131.669 17.0036 127.376 17.5908 118.789 17.5908H117.908C117.521 17.5908 117.328 17.3939 117.328 17V16.71C117.328 16.1227 118.889 15.8291 122.012 15.8291H122.592L123.183 15.5391L122.893 14.9482L123.183 13.7773L122.893 13.1973L123.183 12.6172L122.893 10.8555V10.5654C122.893 10.2861 123.183 9.99251 123.763 9.68457ZM136.867 0.317383C137.254 0.797201 137.447 1.1875 137.447 1.48828C137.061 3.05664 136.867 4.32422 136.867 5.29102C139.016 7.86198 140.09 9.62012 140.09 10.5654L139.499 10.8555H138.618C138.16 9.60938 137.186 8.3418 135.696 7.05273C134.909 8.88607 134.031 10.057 133.064 10.5654C132.685 10.3721 132.391 10.2754 132.184 10.2754V9.97461C132.184 9.63802 132.767 8.37044 133.935 6.17188L135.986 0.618164C136.366 0.417643 136.66 0.317383 136.867 0.317383ZM143.893 0.908203H144.473C144.938 0.908203 145.328 1.6888 145.644 3.25H145.354C145.74 4.1237 145.934 5.39128 145.934 7.05273V10.5654C145.934 11.611 145.543 12.2949 144.763 12.6172C144.483 12.6172 144.193 12.3236 143.893 11.7363V7.34277H141.25C139.76 7.34277 138.883 6.95247 138.618 6.17188L139.499 5.5918C141.447 5.78516 142.911 5.88184 143.893 5.88184V5.5918C143.692 5.39128 143.495 3.92676 143.302 1.19824L143.893 0.908203ZM138.618 12.6172H142.421C143.982 12.6172 144.863 13.6878 145.063 15.8291C144.863 16.8031 144.569 17.487 144.183 17.8809L141.25 17.5908H140.38L138.919 17.8809V19.6318H145.063V20.5127C145.063 20.971 144.38 21.2646 143.012 21.3936L142.421 21.1035L140.67 21.3936C138.135 21.3936 136.867 21.0033 136.867 20.2227V17.29C136.867 16.9033 137.161 16.71 137.748 16.71C138.4 16.71 140.058 16.6133 142.722 16.4199V14.3682H141.25L139.499 14.0781C139.155 14.2715 138.765 14.3682 138.328 14.3682V14.0781L137.748 14.3682H136.276C135.89 14.3682 135.696 14.1712 135.696 13.7773V12.9072L138.618 12.6172Z" fill="#222222"/>
</svg>
