<svg width="118" height="25" viewBox="0 0 118 25" fill="none" xmlns="http://www.w3.org/2000/svg">
<path d="M1.24805 0.880859C5.25586 1.39648 7.25977 1.71582 7.25977 1.83887L7.74316 1.60156H9.66797C11.9121 2.02344 13.0342 3.86621 13.0342 7.12988C12.7236 7.8623 12.4043 8.26367 12.0762 8.33398H11.5928C11.0127 8.33398 10.5322 6.89258 10.1514 4.00977C9.8291 4.00977 9.66797 3.92773 9.66797 3.76367L9.18457 4.00977H8.94727C8.7832 4.00977 8.70117 3.92773 8.70117 3.76367C7.74023 3.97461 7.25977 4.21484 7.25977 4.48438V7.37598C7.25977 8.33691 6.7793 8.81738 5.81836 8.81738C5.17969 8.2373 4.86035 7.5957 4.86035 6.89258V3.76367C1.97168 3.44727 0.527344 3.04883 0.527344 2.56836V1.11816C0.697266 1.11816 0.9375 1.03906 1.24805 0.880859ZM2.45215 9.78418C3.2959 9.94238 3.77637 10.0215 3.89355 10.0215C8.82129 9.86328 12.1904 9.78418 14.001 9.78418L14.7217 10.7422V11.4629C14.7217 11.6914 14.4814 11.9316 14.001 12.1836H9.43066V12.9043L9.66797 14.5918H11.1094C12.3926 14.5918 13.0342 15.3125 13.0342 16.7539V18.1953C13.0342 20.123 10.9512 21.0869 6.78516 21.0869V21.5615C8.60742 21.8838 9.8877 22.0449 10.626 22.0449H12.0762C12.3047 22.0449 12.5449 22.2852 12.7969 22.7656V23.0117C12.2988 23.9727 11.335 24.4531 9.90527 24.4531C7.11035 24.4531 5.18555 23.249 4.13086 20.8408C4.53516 19.5576 5.33789 18.916 6.53906 18.916C9.18164 18.7578 10.626 18.2773 10.8721 17.4746V16.7539C7.24512 16.918 4.99805 17 4.13086 17L3.41016 16.0332L3.65625 14.8291H6.30176L7.50586 14.5918L7.25977 14.1084V12.4297H5.09766C2.85352 12.4297 1.73145 11.8672 1.73145 10.7422L2.45215 9.78418ZM21.6934 4.73926C23.7734 4.73926 24.8135 5.46289 24.8135 6.91016C24.8135 7.26758 24.8955 7.58691 25.0596 7.86816C24.8955 8.14941 24.8135 8.46875 24.8135 8.82617V9.07227C25.376 8.42773 25.9385 8.10547 26.501 8.10547H30.1045V7.86816C30.1045 7.50488 30.0254 7.18555 29.8672 6.91016C30.2598 5.62695 30.7402 4.98535 31.3086 4.98535C31.5371 4.99121 31.9385 5.31055 32.5127 5.94336C32.3486 7.54297 32.2666 8.74414 32.2666 9.54688V14.1172C32.2666 14.2754 32.1875 14.3545 32.0293 14.3545L32.2666 14.8379V16.042C32.2666 17.4834 31.625 18.2041 30.3418 18.2041C30.0254 17.5654 29.7852 17.2461 29.6211 17.2461L29.8672 15.5586V14.6006C26.498 14.6006 24.8135 14.1201 24.8135 13.1592C25.1416 12.1982 25.4639 11.7178 25.7803 11.7178C26.7998 11.7178 28.1621 11.876 29.8672 12.1924V10.5137L29.3838 10.751C28.8506 10.751 28.4492 10.6719 28.1797 10.5137L26.7383 10.751H25.7803L24.8135 10.0303C24.8135 12.4326 24.6553 13.6338 24.3389 13.6338C24.3389 13.7979 24.418 13.8799 24.5762 13.8799C24.5762 15.4795 23.1348 16.2793 20.252 16.2793V16.042L19.7686 16.2793H18.3271C18.3271 15.9102 17.8467 15.6699 16.8857 15.5586C16.083 13.6602 15.4414 10.7773 14.9609 6.91016V6.42676C14.9609 5.30176 17.2051 4.73926 21.6934 4.73926ZM17.3691 7.63086C18.084 11.6328 18.7227 13.6338 19.2852 13.6338C19.6074 13.6338 19.7686 13.7158 19.7686 13.8799L20.252 13.6338H22.1768C22.4932 11.2314 22.6514 9.14844 22.6514 7.38477H17.8438L17.3691 7.63086ZM39.2471 1.60156C39.8857 1.75977 40.4453 1.83887 40.9258 1.83887C41.2363 1.68066 41.4795 1.60156 41.6553 1.60156C41.6553 1.85352 41.8135 2.17578 42.1299 2.56836V3.76367C42.1299 4.08594 41.3301 4.32617 39.7305 4.48438L39.2471 4.24707C39.0771 4.24707 38.8369 4.32617 38.5264 4.48438L37.5596 4.24707C36.1182 4.37598 35.3975 4.61621 35.3975 4.96777V5.93457C35.3975 6.21582 36.1182 6.53516 37.5596 6.89258C37.7236 6.89258 37.8057 6.81348 37.8057 6.65527L39.0098 6.89258L41.4092 6.65527L42.1299 7.61328V8.81738C41.7607 8.81738 41.2803 9.05762 40.6885 9.53809L39.4844 9.30078H37.5596C34.6768 9.30078 33.2354 8.09668 33.2354 5.68848V4.24707H32.752C32.752 4.08887 32.8311 4.00977 32.9893 4.00977L32.752 3.52637C32.752 2.66504 33.0713 2.10254 33.71 1.83887H33.9561C34.1143 1.83887 34.1934 1.9209 34.1934 2.08496L34.6768 1.83887H36.8389C37.6006 1.83887 38.4033 1.75977 39.2471 1.60156ZM33.4727 10.2588L35.8809 10.5049H42.376C42.8564 10.6631 43.0967 11.1436 43.0967 11.9463V12.667C43.0967 12.9893 42.9355 13.1504 42.6133 13.1504H40.4512C39.9707 13.1504 39.7305 13.2295 39.7305 13.3877L38.5264 13.1504H36.8389C36.0361 13.1504 34.835 13.0684 33.2354 12.9043C33.2354 12.5879 33.0742 12.4297 32.752 12.4297V11.7002C32.752 11.1201 32.9922 10.6396 33.4727 10.2588ZM34.4395 14.1084H39.9678C41.251 14.1084 41.8926 15.0723 41.8926 17C41.8926 18.3242 40.208 19.2061 36.8389 19.6455C36.8389 19.9619 37.0791 20.1201 37.5596 20.1201C37.7236 20.1201 37.8057 20.041 37.8057 19.8828L39.0098 20.1201C40.2344 20.1201 41.6758 19.9619 43.334 19.6455L43.5713 20.1201V20.8408C43.5713 22.124 42.291 22.7656 39.7305 22.7656L39.2471 22.5283L38.7637 22.7656L38.2803 22.5283C38.1221 22.5283 38.043 22.6074 38.043 22.7656C35.3184 22.3965 33.9561 21.4355 33.9561 19.8828V19.6455C33.9561 18.1104 35.5586 17.1465 38.7637 16.7539V16.5166H34.6768C34.4014 16.5166 34.1611 16.1152 33.9561 15.3125C34.2783 14.791 34.4395 14.3896 34.4395 14.1084ZM47.6602 0.652344C49.4004 0.652344 50.7627 1.93555 51.7471 4.50195H53.4258L55.1045 4.26465C55.1045 4.42285 55.1865 4.50195 55.3506 4.50195V1.37305C55.3506 1.14453 55.5908 0.904297 56.0713 0.652344C57.1904 0.652344 57.75 1.61621 57.75 3.54395C58.0723 6.57324 58.2334 8.81445 58.2334 10.2676L57.5127 10.751H57.2754C56.3145 10.751 55.834 10.0303 55.834 8.58887C55.6699 7.70996 55.5879 7.06836 55.5879 6.66406H51.7471C50.8389 8.26953 49.5557 9.07227 47.8975 9.07227C47.8975 9.23047 47.8184 9.30957 47.6602 9.30957C45.0938 8.58301 43.8105 7.1416 43.8105 4.98535V4.50195C43.8105 2.72656 44.7715 1.52539 46.6934 0.898438L47.6602 0.652344ZM45.9727 4.50195C46.1953 6.10742 46.916 6.91016 48.1348 6.91016C48.8379 6.91016 49.3184 6.50879 49.5762 5.70605C49.0371 3.78418 48.4775 2.82324 47.8975 2.82324C46.6143 2.94043 45.9727 3.5 45.9727 4.50195ZM56.3086 13.1592C59.1973 16.4521 60.6416 18.6143 60.6416 19.6455L60.3955 20.8496H59.4375C58.8984 20.8496 58.0166 19.6484 56.792 17.2461H56.5547C56.1738 19.6484 55.6904 20.8496 55.1045 20.8496H54.3838C53.9854 20.8496 53.7451 20.5273 53.6631 19.8828C54.3955 15.5586 54.958 13.3965 55.3506 13.3965C55.4268 13.3965 55.7461 13.3174 56.3086 13.1592ZM48.6182 13.6338H49.8223C50.9941 14.3193 52.1953 15.7637 53.4258 17.9668V18.9248C53.1035 19.3174 52.9424 19.6367 52.9424 19.8828C51.8291 19.8828 50.8682 18.9219 50.0596 17H49.5762C49.5762 19.0859 48.9375 20.1289 47.6602 20.1289C47.2676 19.8066 46.9453 19.6455 46.6934 19.6455C47.1738 17.2314 47.8154 15.2275 48.6182 13.6338ZM68.8174 4.49316C69.1396 5.01465 69.3008 5.49512 69.3008 5.93457V6.40918C69.0547 7.21191 67.0508 7.61328 63.2891 7.61328V9.53809C63.2891 12.2627 63.9307 13.625 65.2139 13.625H68.334C68.498 13.625 68.8203 13.9473 69.3008 14.5918C69.3008 15.875 68.8203 16.5166 67.8594 16.5166C66.9395 16.5166 66.377 16.5957 66.1719 16.7539C63.125 16.3789 61.6016 15.5791 61.6016 14.3545C61.1211 12.8545 60.8809 11.4893 60.8809 10.2588V5.93457L61.8389 4.73047L63.5264 4.96777C66.585 4.65137 68.3486 4.49316 68.8174 4.49316ZM74.8291 4.49316C75.4736 5.29004 75.7959 6.89258 75.7959 9.30078H78.4414L79.6455 9.53809V11.2256C79.4814 11.7061 78.998 11.9463 78.1953 11.9463H75.7959V15.7959C75.7959 16.915 75.2334 17.4746 74.1084 17.4746L73.3877 16.5166V9.78418C73.3877 8.85254 73.3086 7.56934 73.1504 5.93457C73.4141 4.97363 73.9736 4.49316 74.8291 4.49316ZM80.6055 2.32227H81.3262C81.6484 2.65039 81.9707 5.53613 82.293 10.9795L81.3262 11.7002H81.0889C80.667 11.7002 80.3447 11.0586 80.1221 9.77539V7.37598L79.8848 5.92578C79.8848 5.76758 79.9639 5.68848 80.1221 5.68848L79.8848 4.48438V3.04297C79.8848 2.80859 80.125 2.56836 80.6055 2.32227ZM82.0469 13.3877C82.5332 14.3135 82.7764 14.876 82.7764 15.0752C82.5361 15.7139 82.293 16.0332 82.0469 16.0332C81.0859 16.0332 80.6055 15.5527 80.6055 14.5918C80.7051 14.1113 81.1855 13.71 82.0469 13.3877ZM91.8682 1.85645C92.6709 1.95605 93.0723 2.43652 93.0723 3.29785L92.8262 4.98535C96.3535 6.93652 98.1172 8.1377 98.1172 8.58887V9.07227C97.959 9.55273 97.4785 9.79297 96.6758 9.79297C96.1367 9.79297 94.6133 8.99023 92.1055 7.38477C92.1055 9.30664 91.5459 10.2676 90.4268 10.2676H89.7061C89.3838 10.2676 89.2227 10.1094 89.2227 9.79297C89.2227 8.50391 89.7822 6.09863 90.9014 2.57715C90.7432 2.57715 90.6641 2.49805 90.6641 2.33984C90.9453 2.33984 91.3467 2.17871 91.8682 1.85645ZM94.751 11.4717H95.4717C95.8291 11.4717 96.1514 12.2744 96.4385 13.8799H96.1924C96.1924 16.124 96.5938 17.2461 97.3965 17.2461C98.0293 17.4043 98.5889 17.4834 99.0752 17.4834C99.1572 17.4834 99.4795 17.4043 100.042 17.2461C101.003 17.4453 101.483 18.166 101.483 19.4082C100.956 19.7246 100.476 19.8828 100.042 19.8828H95.9551C95.791 19.8828 95.709 19.8037 95.709 19.6455L95.2344 19.8828H90.9014C90.0752 19.8828 89.5947 19.6426 89.46 19.1621V18.2041C89.46 17.9521 89.7822 17.6328 90.4268 17.2461H94.2676C94.1094 16.3672 94.0303 14.6035 94.0303 11.9551L94.751 11.4717ZM105.089 1.61914C106.05 1.71875 106.53 1.95898 106.53 2.33984V2.82324C106.05 4.24707 105.81 5.04688 105.81 5.22266C108.054 7.5957 109.176 9.11914 109.176 9.79297C108.854 10.5898 108.373 10.9883 107.734 10.9883C107.465 10.9883 106.422 9.86914 104.605 7.63086C104.096 9.55273 103.615 10.5137 103.164 10.5137H101.96L101.723 9.30957C103.223 4.18262 104.345 1.61914 105.089 1.61914ZM116.866 2.57715C117.394 2.57715 117.713 3.62012 117.824 5.70605V10.2676C117.824 11.3926 117.344 11.9551 116.383 11.9551C115.744 11.7969 115.425 11.3164 115.425 10.5137V8.10547C115.425 7.78906 115.264 7.63086 114.941 7.63086H114.467C113.459 7.63086 112.255 7.70996 110.854 7.86816C109.577 7.7627 108.938 7.60156 108.938 7.38477L108.455 6.66406C108.455 5.76758 108.856 5.20801 109.659 4.98535C110.937 5.09082 111.575 5.24902 111.575 5.45996L112.059 5.22266H114.941L115.425 5.45996C115.425 3.53809 115.826 2.57715 116.629 2.57715H116.866ZM108.692 13.3965H114.221C115.346 13.3965 115.908 14.5186 115.908 16.7627V17.9668C115.908 19.0039 114.065 19.6426 110.38 19.8828C110.38 20.1348 110.699 20.457 111.338 20.8496H115.425C115.747 20.8965 115.908 21.0576 115.908 21.333C115.908 22.7744 114.704 23.4951 112.296 23.4951C109.413 23.4951 107.972 22.1328 107.972 19.4082C108.616 17.9668 110.058 17.2461 112.296 17.2461C113.099 17.2461 113.5 17.085 113.5 16.7627V16.2793C113.5 15.957 113.339 15.7959 113.017 15.7959H112.779C111.854 15.7959 110.573 15.8779 108.938 16.042C108.206 15.7314 107.805 15.4092 107.734 15.0752V14.3545C107.734 14.1084 108.054 13.7891 108.692 13.3965Z" fill="#222222"/>
</svg>
