<svg width="178" height="24" viewBox="0 0 178 24" fill="none" xmlns="http://www.w3.org/2000/svg">
<path d="M6.85547 2.48828L11.2607 4.16406C11.6839 5.55208 11.8955 6.53385 11.8955 7.10938C13.292 7.10938 13.9902 6.26725 13.9902 4.58301C13.9902 3.82975 14.2695 3.33887 14.8281 3.11035H15.2471C15.5264 3.16113 15.666 3.30078 15.666 3.5293C15.3867 4.5026 15.2471 5.34473 15.2471 6.05566C15.2471 6.83431 15.319 7.60449 15.4629 8.36621C15.3529 11.8617 15.0736 13.6094 14.625 13.6094H14.2061C14.0029 13.6094 13.7913 13.2624 13.5713 12.5684L13.7871 12.1494V10.042L13.5713 8.56934H12.9365L11.8955 8.36621C11.8955 11.8701 10.4948 13.8294 7.69336 14.2441H6.2207C2.72526 13.6009 0.977539 12.0605 0.977539 9.62305C0.833659 9.62305 0.761719 9.2041 0.761719 8.36621C0.761719 6.28418 2.02279 4.46452 4.54492 2.90723C5.83138 2.62793 6.60156 2.48828 6.85547 2.48828ZM2.4375 7.73145V9.41992C2.4375 11.265 3.91016 12.3822 6.85547 12.7715C9.23372 12.7715 10.4229 11.2311 10.4229 8.15039V7.73145C10.4229 5.77637 9.86426 4.79883 8.74707 4.79883C7.83301 4.79883 7.13053 4.58724 6.63965 4.16406H6.43652C4.57454 4.16406 3.31348 5.07389 2.65332 6.89355C2.50944 7.139 2.4375 7.41829 2.4375 7.73145ZM9.78809 14.8789H10.0039L10.626 15.501L10.4229 17.6084V19.0811H10.8418C10.8418 17.7607 11.4723 16.4997 12.7334 15.2979H13.5713C13.5713 15.5771 13.6432 15.7168 13.7871 15.7168C13.4993 16.2754 13.3555 16.7663 13.3555 17.1895C15.1836 19.6016 16.0977 20.9303 16.0977 21.1758C15.8861 21.7344 15.6745 22.0137 15.4629 22.0137H15.0439C14.79 21.9036 14.0199 20.7145 12.7334 18.4463H12.3145L10.8418 22.4326L8.31543 22.2295C6.86816 22.3649 6.03027 22.4326 5.80176 22.4326C5.52246 22.0602 5.24316 21.0107 4.96387 19.2842C5.09928 16.6266 5.45052 15.2979 6.01758 15.2979H6.2207C6.43229 15.2979 6.64388 15.5771 6.85547 16.1357C6.71159 16.889 6.63965 17.5195 6.63965 18.0273V18.2305H6.85547C8.39583 18.2305 9.16602 18.0231 9.16602 17.6084V15.501C9.16602 15.3063 9.37337 15.099 9.78809 14.8789ZM6.43652 19.9189C6.63965 20.4775 6.84701 20.7568 7.05859 20.7568H8.31543C8.63704 20.7568 8.84863 20.4056 8.9502 19.7031C8.67936 19.5677 8.46777 19.5 8.31543 19.5C7.70605 19.5 7.07975 19.6396 6.43652 19.9189ZM20.2266 4.5957L21.0645 5.23047C20.6497 5.92448 20.4424 6.48307 20.4424 6.90625V10.6768C20.4424 11.2861 20.582 11.849 20.8613 12.3652C21.513 12.2214 23.8913 12.0098 27.9961 11.7305C28.2754 12.069 28.415 12.3483 28.415 12.5684C28.2035 13.127 27.9919 13.4062 27.7803 13.4062C24.3695 13.4062 21.7839 13.6178 20.0234 14.041H19.6045C19.1813 12.0267 18.9697 9.50879 18.9697 6.4873C19.1813 5.22624 19.6003 4.5957 20.2266 4.5957ZM29.6719 14.8789C30.3743 15.0566 30.7256 15.264 30.7256 15.501C30.7256 15.7464 30.5859 16.1696 30.3066 16.7705L27.7803 16.5547H26.7393C23.6247 16.5547 20.4762 16.834 17.2939 17.3926L16.875 16.7705V16.5547C17.2389 15.5729 20.874 15.082 27.7803 15.082H28.834C29.1471 15.082 29.4264 15.0143 29.6719 14.8789ZM22.9561 17.3926C22.9984 17.6719 23.138 17.8115 23.375 17.8115L23.1719 20.3379V21.7979C27.6745 21.3831 30.0527 21.1758 30.3066 21.1758C30.4421 21.5905 30.5817 21.7979 30.7256 21.7979C30.3955 22.6357 30.1162 23.0547 29.8877 23.0547H29.4561C28.9906 23.0547 28.6436 22.987 28.415 22.8516L22.5371 23.6895C21.9785 23.0039 21.6992 22.0264 21.6992 20.7568C21.6992 18.514 22.1182 17.3926 22.9561 17.3926ZM46.001 5.4209C46.2803 5.7679 46.4199 6.0472 46.4199 6.25879C45.4382 8.9248 44.9473 12.0055 44.9473 15.501C45.0911 15.7295 45.1631 16.0807 45.1631 16.5547L44.1094 17.3926C43.9062 17.3926 43.6989 17.181 43.4873 16.7578C43.4873 16.4954 43.627 14.6758 43.9062 11.2988L43.4873 11.0957C42.4886 11.375 41.7184 11.5146 41.1768 11.5146C40.9059 11.3708 40.6943 11.2988 40.542 11.2988C40.4066 13.3978 40.3389 14.9382 40.3389 15.9199L39.7041 16.3389H39.2852C39.0059 16.3389 38.8662 16.1992 38.8662 15.9199V15.7168C38.8662 14.5911 39.0059 13.3301 39.2852 11.9336H39.0693L39.2852 11.5146V8.15039L39.4883 7.73145L39.0693 7.52832C38.223 7.52832 35.8447 7.66797 31.9346 7.94727L31.5156 7.3125V7.10938C31.7441 6.54232 32.235 6.25879 32.9883 6.25879C33.9023 6.25879 36.5599 6.19108 40.9609 6.05566C41.1048 6.3265 41.1768 6.53809 41.1768 6.69043C40.8975 8.28158 40.7578 9.39876 40.7578 10.042V10.4609H40.9609C42.222 9.90234 43.2715 9.55111 44.1094 9.40723C44.3294 6.74967 44.96 5.4209 46.001 5.4209ZM55.3633 5.4209C55.5072 5.84408 55.6468 6.05566 55.7822 6.05566C55.5029 6.68197 55.3633 7.5918 55.3633 8.78516V10.2578C55.3633 10.571 55.2956 10.8503 55.1602 11.0957C55.2956 11.3073 55.3633 11.7262 55.3633 12.3525H57.8896L58.3086 12.1494L58.0928 10.2578C58.0928 8.01497 58.6556 6.89355 59.7812 6.89355L59.9844 7.3125C59.7051 9.54688 59.5654 10.736 59.5654 10.8799H59.7812L59.5654 11.3115V11.7305C59.6077 12.0098 59.7474 12.1494 59.9844 12.1494C61.5247 12.0394 62.2949 11.8278 62.2949 11.5146C62.4388 8.93327 62.5107 7.3252 62.5107 6.69043L63.1328 6.27148H63.3486C63.5518 6.27148 63.7633 6.47884 63.9834 6.89355C63.9834 14.3161 63.4925 18.0273 62.5107 18.0273H62.2949C60.7715 18.0273 58.3213 18.2347 54.9443 18.6494V18.4463C54.2503 16.8382 53.9033 14.5277 53.9033 11.5146V11.0957C53.9033 10.7826 53.8314 10.5033 53.6875 10.2578C53.6875 7.0332 54.2461 5.4209 55.3633 5.4209ZM66.0781 6.05566H67.1318C67.1318 6.20801 67.1995 6.4196 67.335 6.69043C67.0557 8.4847 66.916 10.1647 66.916 11.7305L67.335 11.9336C68.4606 11.7982 69.0234 11.5908 69.0234 11.3115V9.62305C69.1165 7.66797 69.4635 6.69043 70.0645 6.69043H70.2803C70.4834 6.69043 70.6908 6.89779 70.9023 7.3125L70.2803 12.3525L70.4834 13.4062V16.9736C70.4834 17.7269 70.2041 18.2178 69.6455 18.4463H69.4424C69.2393 18.4463 69.0277 18.2347 68.8076 17.8115V13.6094C68.8076 13.3301 68.668 13.1904 68.3887 13.1904C67.4069 13.3851 66.916 13.5967 66.916 13.8252C66.916 14.9424 67.0557 16.1315 67.335 17.3926C67.1995 17.8496 66.9202 18.1289 66.4971 18.2305C66.0146 18.2305 65.6634 17.6042 65.4434 16.3516V10.4609C65.4434 8.57357 65.6549 7.10514 66.0781 6.05566ZM59.9844 13.6094C59.9844 13.8971 59.9167 14.041 59.7812 14.041C59.9167 15.7168 60.196 16.5547 60.6191 16.5547H60.8223C61.5501 16.5547 61.9733 16.3431 62.0918 15.9199V13.6094H59.9844ZM55.5791 14.041V15.082C55.7484 16.1315 56.0277 16.6943 56.417 16.7705H58.0928C58.3721 16.7705 58.5117 16.6309 58.5117 16.3516V14.2441C58.5117 13.9648 58.3721 13.8252 58.0928 13.8252L55.5791 14.041ZM81.5439 3.96094L81.7598 4.37988C81.3366 7.11361 81.125 8.93327 81.125 9.83887V12.3525C80.7949 13.055 80.376 13.4062 79.8682 13.4062C79.8682 13.127 79.7285 12.9873 79.4492 12.9873C79.5846 9.43262 79.792 6.98242 80.0713 5.63672L79.6523 5.4209C78.2982 5.4209 75.7126 5.63249 71.8955 6.05566L71.6797 5.63672V5.21777C71.6797 4.5153 74.4769 4.16406 80.0713 4.16406C80.0713 4.02865 80.5622 3.96094 81.5439 3.96094ZM76.5039 10.042H76.9229C77.2021 10.0843 77.3418 10.224 77.3418 10.4609C77.0625 11.722 76.9229 12.6318 76.9229 13.1904V14.6631H81.3408L82.5977 14.8662C82.8262 14.7308 83.1774 14.6631 83.6514 14.6631L83.8545 15.082V15.2852C83.8545 16.013 83.6429 16.4362 83.2197 16.5547C81.7301 16.2754 80.4014 16.1357 79.2334 16.1357C78.2432 16.1357 76.0765 16.3431 72.7334 16.7578L72.5176 16.3389V15.9199C72.5176 15.4036 73.4993 15.0524 75.4629 14.8662V14.2441C75.4629 11.4427 75.8099 10.042 76.5039 10.042ZM102.878 6.06836H103.932C103.932 6.21224 104.004 6.4196 104.147 6.69043C104.004 7.65527 103.932 8.42546 103.932 9.00098L104.147 10.2578C104.004 10.4948 103.932 10.846 103.932 11.3115L104.351 11.5146H106.445C106.725 11.5654 106.864 11.7093 106.864 11.9463L106.661 12.9873H105.188L104.147 13.2031V14.041C104.147 14.4557 104.076 14.6631 103.932 14.6631L104.147 15.7168V17.8115C104.147 18.0316 103.864 18.3109 103.297 18.6494C103.102 18.6494 102.895 18.4421 102.675 18.0273V13.8252C102.675 13.055 102.603 12.0775 102.459 10.8926L102.675 10.4736L102.459 9.2168V9.00098C102.459 8.09538 102.599 7.11784 102.878 6.06836ZM92.6074 6.69043C93.5977 6.83431 94.1562 6.90625 94.2832 6.90625L95.54 6.69043V6.90625L95.959 6.69043H100.161C100.161 6.96973 100.229 7.10938 100.364 7.10938C100.034 8.09115 99.7549 8.58203 99.5264 8.58203C99.4079 8.58203 98.8493 8.44238 97.8506 8.16309C97.3682 8.16309 95.8997 8.23503 93.4453 8.37891V8.58203C93.4453 9.00521 93.3734 9.49609 93.2295 10.0547C93.3734 12.526 93.7246 14.4811 94.2832 15.9199H96.7969C97.4993 15.9199 98.5488 15.8522 99.9453 15.7168L100.364 16.3516V16.5547C100.076 17.1133 99.7253 17.3926 99.3105 17.3926C96.9746 17.3926 95.0872 17.5322 93.6484 17.8115C92.6751 17.3883 92.1885 15.6406 92.1885 12.5684C91.9346 12.5684 91.7949 11.7305 91.7695 10.0547V8.58203C91.3464 8.04036 91.1348 7.62142 91.1348 7.3252C91.7526 6.90202 92.2435 6.69043 92.6074 6.69043ZM120.848 0.418945C121.093 0.554362 121.372 0.62207 121.686 0.62207H121.901C122.037 0.62207 122.104 0.554362 122.104 0.418945C122.578 0.418945 122.93 0.909831 123.158 1.8916C124.055 1.8916 124.965 3.42773 125.888 6.5C125.888 9.47917 124.419 11.7135 121.482 13.2031C121.381 13.2031 120.962 13.2751 120.226 13.4189C117.323 13.4189 115.368 11.8786 114.36 8.79785C114.36 8.17155 114.288 7.7526 114.145 7.54102C114.949 2.92839 117.115 0.62207 120.645 0.62207C120.645 0.486654 120.712 0.418945 120.848 0.418945ZM115.617 7.33789C116.15 10.1309 117.196 11.5273 118.753 11.5273C118.753 11.6712 119.312 11.8109 120.429 11.9463C121.884 11.9463 123.213 10.4779 124.415 7.54102V6.91895C123.797 3.9821 122.82 2.51367 121.482 2.51367L121.063 2.09473C118.694 2.09473 117.018 3.28385 116.036 5.66211C115.757 6.51693 115.617 7.07552 115.617 7.33789ZM128.401 1.8916L128.82 2.51367V3.14844C128.397 4.84961 127.978 7.92188 127.563 12.3652H126.929C126.734 12.3652 126.527 12.1579 126.307 11.7432C126.628 8.08691 126.908 5.56901 127.145 4.18945L126.929 2.93262C127.352 2.23861 127.843 1.8916 128.401 1.8916ZM127.348 13.8379L127.563 14.2568V14.6758L127.145 15.2979V15.7168C127.779 16.6055 128.829 17.6549 130.293 18.8652C130.107 19.5677 129.895 19.9189 129.658 19.9189H129.239L126.307 17.1895C126.027 17.1895 125.329 18.5182 124.212 21.1758H123.158C123.158 21.0234 123.09 20.8118 122.955 20.541C123.09 20.3633 123.158 20.0163 123.158 19.5C122.743 19.5 122.045 19.0811 121.063 18.2432H120.848C120.145 19.9189 119.519 20.7568 118.969 20.7568L118.55 20.1221V19.7031L121.267 14.8789C121.478 14.3203 121.69 14.041 121.901 14.041H122.536C122.815 14.041 122.955 14.2526 122.955 14.6758C122.253 15.6152 121.901 16.3135 121.901 16.7705C122.308 17.4814 123.006 18.04 123.996 18.4463C125.173 15.374 126.29 13.8379 127.348 13.8379ZM134.422 4.5957L135.26 5.23047C134.845 5.92448 134.638 6.48307 134.638 6.90625V10.6768C134.638 11.2861 134.777 11.849 135.057 12.3652C135.708 12.2214 138.087 12.0098 142.191 11.7305C142.471 12.069 142.61 12.3483 142.61 12.5684C142.399 13.127 142.187 13.4062 141.976 13.4062C138.565 13.4062 135.979 13.6178 134.219 14.041H133.8C133.377 12.0267 133.165 9.50879 133.165 6.4873C133.377 5.22624 133.796 4.5957 134.422 4.5957ZM143.867 14.8789C144.57 15.0566 144.921 15.264 144.921 15.501C144.921 15.7464 144.781 16.1696 144.502 16.7705L141.976 16.5547H140.935C137.82 16.5547 134.672 16.834 131.489 17.3926L131.07 16.7705V16.5547C131.434 15.5729 135.069 15.082 141.976 15.082H143.029C143.342 15.082 143.622 15.0143 143.867 14.8789ZM137.151 17.3926C137.194 17.6719 137.333 17.8115 137.57 17.8115L137.367 20.3379V21.7979C141.87 21.3831 144.248 21.1758 144.502 21.1758C144.637 21.5905 144.777 21.7979 144.921 21.7979C144.591 22.6357 144.312 23.0547 144.083 23.0547H143.651C143.186 23.0547 142.839 22.987 142.61 22.8516L136.732 23.6895C136.174 23.0039 135.895 22.0264 135.895 20.7568C135.895 18.514 136.313 17.3926 137.151 17.3926ZM157.229 2.52637H157.444C157.639 2.52637 157.846 2.73796 158.066 3.16113L157.863 4.41797C158.659 5.21354 160.263 6.19108 162.675 7.35059L163.094 8.18848C162.823 8.82324 162.544 9.17025 162.256 9.22949C161.562 8.3916 160.237 7.55371 158.282 6.71582C158.282 6.63118 157.863 6.28418 157.025 5.6748H156.81C155.455 7.64681 154.199 10.0885 153.039 13H152.836C152.633 13 152.421 12.7926 152.201 12.3779V11.959C152.201 11.3665 153.251 9.13216 155.35 5.25586C155.35 4.57878 155.976 3.66895 157.229 2.52637ZM158.701 9.64844H159.12C159.399 9.69922 159.539 9.83887 159.539 10.0674C159.26 12.9873 159.12 14.807 159.12 15.5264C159.256 15.5264 159.323 15.5941 159.323 15.7295L161.418 15.5264H163.094C163.373 15.5687 163.513 15.7083 163.513 15.9453V16.7832C163.513 16.9779 163.305 17.1852 162.891 17.4053L161.837 16.9863C161.515 16.9863 160.47 17.126 158.701 17.4053L157.647 17.2021L154.715 17.4053L154.512 16.9863V16.1484L155.553 15.9453H157.444C157.724 15.9453 157.863 15.8057 157.863 15.5264V13.6348C157.863 10.9772 158.143 9.64844 158.701 9.64844ZM170.803 3.36426H171.006L171.641 3.99902C171.548 4.41374 170.989 5.25163 169.965 6.5127C169.017 7.69759 168.458 8.67513 168.289 9.44531L172.682 13.6348C172.682 13.8548 172.402 14.1341 171.844 14.4727C171.37 14.4727 169.973 13.2835 167.654 10.9053H167.451C167.121 10.9814 166.423 12.1029 165.356 14.2695H164.938C164.726 14.2695 164.514 13.986 164.303 13.4189C166.757 8.73014 168.784 5.45052 170.384 3.58008L170.803 3.36426ZM175.83 3.7832H176.668L177.087 3.99902C177.087 4.94694 176.875 8.2985 176.452 14.0537V14.4727C176.452 14.6758 176.245 14.8874 175.83 15.1074H175.614C175.301 15.1074 175.094 14.7562 174.992 14.0537C175.128 11.9463 175.195 10.4779 175.195 9.64844L174.776 9.44531C173.465 9.72461 172.419 9.86426 171.641 9.86426L171.222 9.22949V9.02637C171.222 8.66243 172.618 8.24349 175.411 7.76953V5.6748C175.411 5.31934 175.551 4.6888 175.83 3.7832ZM174.573 15.3105C175.547 15.5052 176.033 15.7845 176.033 16.1484C175.644 18.806 175.157 20.1348 174.573 20.1348H170.803V20.9727L171.006 21.3916C172.648 21.2477 173.837 21.1758 174.573 21.1758H175.411C175.538 21.1758 176.097 21.0361 177.087 20.7568L177.506 21.3916C177.362 22.2295 177.15 22.6484 176.871 22.6484C176.008 22.6484 173.706 22.7881 169.965 23.0674C169.542 22.5511 169.19 21.5736 168.911 20.1348C169.199 19.2969 169.757 18.8779 170.587 18.8779H172.897C173.735 18.8779 174.154 18.459 174.154 17.6211V16.7832H173.938C172.356 17.0625 171.239 17.2021 170.587 17.2021H168.911C168.632 17.2021 168.492 17.0625 168.492 16.7832V16.3643C168.492 15.9411 170.519 15.5898 174.573 15.3105Z" fill="#222222"/>
</svg>
