<svg width="155" height="26" viewBox="0 0 155 26" fill="none" xmlns="http://www.w3.org/2000/svg">
<path d="M1.24805 0.880859C5.25586 1.39648 7.25977 1.71582 7.25977 1.83887L7.74316 1.60156H9.66797C11.9121 2.02344 13.0342 3.86621 13.0342 7.12988C12.7236 7.8623 12.4043 8.26367 12.0762 8.33398H11.5928C11.0127 8.33398 10.5322 6.89258 10.1514 4.00977C9.8291 4.00977 9.66797 3.92773 9.66797 3.76367L9.18457 4.00977H8.94727C8.7832 4.00977 8.70117 3.92773 8.70117 3.76367C7.74023 3.97461 7.25977 4.21484 7.25977 4.48438V7.37598C7.25977 8.33691 6.7793 8.81738 5.81836 8.81738C5.17969 8.2373 4.86035 7.5957 4.86035 6.89258V3.76367C1.97168 3.44727 0.527344 3.04883 0.527344 2.56836V1.11816C0.697266 1.11816 0.9375 1.03906 1.24805 0.880859ZM2.45215 9.78418C3.2959 9.94238 3.77637 10.0215 3.89355 10.0215C8.82129 9.86328 12.1904 9.78418 14.001 9.78418L14.7217 10.7422V11.4629C14.7217 11.6914 14.4814 11.9316 14.001 12.1836H9.43066V12.9043L9.66797 14.5918H11.1094C12.3926 14.5918 13.0342 15.3125 13.0342 16.7539V18.1953C13.0342 20.123 10.9512 21.0869 6.78516 21.0869V21.5615C8.60742 21.8838 9.8877 22.0449 10.626 22.0449H12.0762C12.3047 22.0449 12.5449 22.2852 12.7969 22.7656V23.0117C12.2988 23.9727 11.335 24.4531 9.90527 24.4531C7.11035 24.4531 5.18555 23.249 4.13086 20.8408C4.53516 19.5576 5.33789 18.916 6.53906 18.916C9.18164 18.7578 10.626 18.2773 10.8721 17.4746V16.7539C7.24512 16.918 4.99805 17 4.13086 17L3.41016 16.0332L3.65625 14.8291H6.30176L7.50586 14.5918L7.25977 14.1084V12.4297H5.09766C2.85352 12.4297 1.73145 11.8672 1.73145 10.7422L2.45215 9.78418ZM15.6816 0.880859C19.6895 1.39648 21.6934 1.71582 21.6934 1.83887L22.1768 1.60156H24.1016C26.3457 2.02344 27.4678 3.86621 27.4678 7.12988C27.1572 7.8623 26.8379 8.26367 26.5098 8.33398H26.0264C25.4463 8.33398 24.9658 6.89258 24.585 4.00977C24.2627 4.00977 24.1016 3.92773 24.1016 3.76367L23.6182 4.00977H23.3809C23.2168 4.00977 23.1348 3.92773 23.1348 3.76367C22.1738 3.97461 21.6934 4.21484 21.6934 4.48438V7.37598C21.6934 8.33691 21.2129 8.81738 20.252 8.81738C19.6133 8.2373 19.2939 7.5957 19.2939 6.89258V3.76367C16.4053 3.44727 14.9609 3.04883 14.9609 2.56836V1.11816C15.1309 1.11816 15.3711 1.03906 15.6816 0.880859ZM16.8857 9.78418C17.7295 9.94238 18.21 10.0215 18.3271 10.0215C23.2549 9.86328 26.624 9.78418 28.4346 9.78418L29.1553 10.7422V11.4629C29.1553 11.6914 28.915 11.9316 28.4346 12.1836H23.8643V12.9043L24.1016 14.5918H25.543C26.8262 14.5918 27.4678 15.3125 27.4678 16.7539V18.1953C27.4678 20.123 25.3848 21.0869 21.2188 21.0869V21.5615C23.041 21.8838 24.3213 22.0449 25.0596 22.0449H26.5098C26.7383 22.0449 26.9785 22.2852 27.2305 22.7656V23.0117C26.7324 23.9727 25.7686 24.4531 24.3389 24.4531C21.5439 24.4531 19.6191 23.249 18.5645 20.8408C18.9688 19.5576 19.7715 18.916 20.9727 18.916C23.6152 18.7578 25.0596 18.2773 25.3057 17.4746V16.7539C21.6787 16.918 19.4316 17 18.5645 17L17.8438 16.0332L18.0898 14.8291H20.7354L21.9395 14.5918L21.6934 14.1084V12.4297H19.5312C17.2871 12.4297 16.165 11.8672 16.165 10.7422L16.8857 9.78418ZM36.8057 3.52637H38.4844C38.6484 3.52637 38.7305 3.60547 38.7305 3.76367L39.2051 3.52637C39.3691 3.52637 39.4512 3.60547 39.4512 3.76367L41.1299 3.52637H43.0547C43.5352 3.68457 43.7754 4.16504 43.7754 4.96777V5.45117C43.7754 5.97852 42.6533 6.29785 40.4092 6.40918V6.17188L37.7637 6.65527C38.3496 8.57715 38.9121 9.53809 39.4512 9.53809C40.2129 9.53809 41.0156 9.45898 41.8594 9.30078C42.4512 9.45898 43.1719 9.53809 44.0215 9.53809L44.2588 10.7422V11.2256C44.2588 11.7061 43.6172 12.0254 42.334 12.1836V11.9463C42.0234 12.1045 41.7832 12.1836 41.6133 12.1836V12.667L41.8594 13.8711H41.6133C41.6133 15.3594 42.1758 16.1592 43.3008 16.2705L43.7754 16.0332H45.4629C45.7383 16.0332 45.9785 16.4346 46.1836 17.2373C45.8613 18.1982 45.542 18.6787 45.2256 18.6787H43.5381C38.8857 18.6787 36.5596 18.1982 36.5596 17.2373V16.2705C36.5596 16.042 36.8027 15.8018 37.2891 15.5498L39.4512 15.7959V15.5498C39.2871 14.1904 39.2051 13.0684 39.2051 12.1836C36.8027 11.3984 35.6016 9.875 35.6016 7.61328C35.6016 4.88867 36.0029 3.52637 36.8057 3.52637ZM47.1504 5.68848C48.2695 5.68848 48.8291 7.21191 48.8291 10.2588H50.9912C50.6748 9.35645 50.5166 8.07324 50.5166 6.40918C50.833 6.40918 50.9912 6.16895 50.9912 5.68848H51.4746C52.4355 5.68848 52.916 6.33008 52.916 7.61328C53.0801 7.61328 53.1621 7.85352 53.1621 8.33398H52.916C53.1973 8.33398 53.4375 10.6602 53.6367 15.3125C53.4492 16.5957 53.1299 17.2373 52.6787 17.2373H51.958C51.7295 17.2373 51.4893 16.9971 51.2373 16.5166V12.9043H49.0752L49.5498 16.7539C48.9639 17.2344 48.4043 17.4746 47.8711 17.4746C47.2266 17.3164 46.9043 16.9971 46.9043 16.5166C46.9043 15.0342 46.6641 11.8262 46.1836 6.89258C46.4941 6.16016 46.8164 5.75879 47.1504 5.68848ZM56.9873 4.98535C60.8311 4.98535 62.7529 5.46582 62.7529 6.42676V6.66406C62.7529 7.14453 62.5947 8.1875 62.2783 9.79297C64.8389 11.9844 66.1191 13.7451 66.1191 15.0752V16.2793L64.915 16.5166C64.5635 16.4404 63.8428 15.4004 62.7529 13.3965L61.3115 12.1924C61.3115 13.2705 60.6729 14.7939 59.3955 16.7627C58.4346 16.3525 57.9541 15.79 57.9541 15.0752C59.3955 11.1494 60.1162 8.74707 60.1162 7.86816L59.6328 7.63086H54.8252C54.1865 7.36719 53.8672 6.80469 53.8672 5.94336C54.5703 5.30469 55.6104 4.98535 56.9873 4.98535ZM69.2393 5.46875H69.96C70.4404 5.46875 70.8418 6.34766 71.1641 8.10547H70.9268L72.6055 17C72.5176 17.8027 71.876 18.2041 70.6807 18.2041C70.2412 18.2041 69.4414 14.2783 68.2812 6.42676L69.2393 5.46875ZM73.5566 2.32227H74.2773C74.5996 2.65039 74.9219 5.53613 75.2441 10.9795L74.2773 11.7002H74.04C73.6182 11.7002 73.2959 11.0586 73.0732 9.77539V7.37598L72.8359 5.92578C72.8359 5.76758 72.915 5.68848 73.0732 5.68848L72.8359 4.48438V3.04297C72.8359 2.80859 73.0762 2.56836 73.5566 2.32227ZM74.998 13.3877C75.4844 14.3135 75.7275 14.876 75.7275 15.0752C75.4873 15.7139 75.2441 16.0332 74.998 16.0332C74.0371 16.0332 73.5566 15.5527 73.5566 14.5918C73.6562 14.1113 74.1367 13.71 74.998 13.3877ZM82.8945 0.880859C86.9023 1.39648 88.9062 1.71582 88.9062 1.83887L89.3896 1.60156H91.3145C93.5586 2.02344 94.6807 3.86621 94.6807 7.12988C94.3701 7.8623 94.0508 8.26367 93.7227 8.33398H93.2393C92.6592 8.33398 92.1787 6.89258 91.7979 4.00977C91.4756 4.00977 91.3145 3.92773 91.3145 3.76367L90.8311 4.00977H90.5938C90.4297 4.00977 90.3477 3.92773 90.3477 3.76367C89.3867 3.97461 88.9062 4.21484 88.9062 4.48438V7.37598C88.9062 8.33691 88.4258 8.81738 87.4648 8.81738C86.8262 8.2373 86.5068 7.5957 86.5068 6.89258V3.76367C83.6182 3.44727 82.1738 3.04883 82.1738 2.56836V1.11816C82.3438 1.11816 82.584 1.03906 82.8945 0.880859ZM84.0986 9.78418C84.9424 9.94238 85.4229 10.0215 85.54 10.0215C90.4678 9.86328 93.8369 9.78418 95.6475 9.78418L96.3682 10.7422V11.4629C96.3682 11.6914 96.1279 11.9316 95.6475 12.1836H91.0771V12.9043L91.3145 14.5918H92.7559C94.0391 14.5918 94.6807 15.3125 94.6807 16.7539V18.1953C94.6807 20.123 92.5977 21.0869 88.4316 21.0869V21.5615C90.2539 21.8838 91.5342 22.0449 92.2725 22.0449H93.7227C93.9512 22.0449 94.1914 22.2852 94.4434 22.7656V23.0117C93.9453 23.9727 92.9814 24.4531 91.5518 24.4531C88.7568 24.4531 86.832 23.249 85.7773 20.8408C86.1816 19.5576 86.9844 18.916 88.1855 18.916C90.8281 18.7578 92.2725 18.2773 92.5186 17.4746V16.7539C88.8916 16.918 86.6445 17 85.7773 17L85.0566 16.0332L85.3027 14.8291H87.9482L89.1523 14.5918L88.9062 14.1084V12.4297H86.7441C84.5 12.4297 83.3779 11.8672 83.3779 10.7422L84.0986 9.78418ZM99.0156 1.85645H104.298C104.62 1.90918 104.781 2.07031 104.781 2.33984C104.781 3.45898 104.462 4.01855 103.823 4.01855C103.647 4.01855 103.404 4.10059 103.094 4.26465C102.936 4.26465 102.856 4.18262 102.856 4.01855L101.178 4.26465H98.7695L99.0156 4.73926V5.94336L103.577 5.45996C104.702 5.84082 105.265 6.16309 105.265 6.42676C105.265 7.5459 104.541 8.10547 103.094 8.10547V7.86816C102.754 8.02637 101.553 8.1875 99.4902 8.35156V9.07227C99.543 9.38867 99.7041 9.54688 99.9736 9.54688C101.093 9.54688 102.856 9.46777 105.265 9.30957L105.739 10.0303C105.739 11.3135 104.377 11.9551 101.652 11.9551C101.512 11.9551 100.873 12.0342 99.7363 12.1924C98.1309 12.1924 97.3281 11.2314 97.3281 9.30957L96.6074 4.01855C96.8887 2.57715 97.6914 1.85645 99.0156 1.85645ZM107.181 12.9131C107.491 13.0771 107.731 13.1592 107.901 13.1592V13.8799C107.901 14.999 107.421 15.5586 106.46 15.5586V15.3213C106.22 15.4795 105.739 15.5586 105.019 15.5586L105.265 18.9248L104.544 19.4082H103.823C103.401 19.4082 102.918 18.2041 102.373 15.7959H102.136C101.966 15.7959 101.726 15.8779 101.415 16.042C99.4932 15.8779 98.5322 15.5557 98.5322 15.0752V14.3545C98.79 13.7158 99.3496 13.3965 100.211 13.3965H101.415C102.276 13.3965 104.198 13.2354 107.181 12.9131ZM100.211 19.1621H101.898C102.379 21.8867 103.021 23.249 103.823 23.249C105.101 22.9326 106.141 22.7744 106.943 22.7744C107.266 23.1611 107.427 23.4805 107.427 23.7324C107.427 24.5352 106.226 25.1768 103.823 25.6572V25.4111C103.659 25.4111 103.577 25.4932 103.577 25.6572C101.497 25.499 100.457 24.5381 100.457 22.7744C100.176 22.7744 99.9355 21.8105 99.7363 19.8828C100.053 19.8828 100.211 19.6426 100.211 19.1621ZM111.744 0.898438C112.547 0.898438 112.948 1.05664 112.948 1.37305L113.432 1.13574C115.512 1.79785 116.552 2.91992 116.552 4.50195V6.18066C116.552 7.61621 115.752 8.73828 114.152 9.54688H113.186C110.754 9.54688 109.072 8.10547 108.141 5.22266V4.26465C108.141 2.99316 108.7 2.0293 109.819 1.37305H110.065L110.549 1.61914V1.37305C110.385 1.37305 110.303 1.29395 110.303 1.13574C110.426 1.13574 110.906 1.05664 111.744 0.898438ZM110.549 4.01855V4.26465C110.549 5.62402 111.428 6.58496 113.186 7.14746C113.865 7.14746 114.267 6.42676 114.39 4.98535C114.39 4.02441 113.35 3.54395 111.27 3.54395H111.023C110.707 3.59082 110.549 3.74902 110.549 4.01855ZM109.345 11.4717C112.896 11.6357 114.817 11.7178 115.11 11.7178L115.594 11.4717C117.996 11.4717 119.197 12.1133 119.197 13.3965V13.6338C119.197 13.7627 118.957 14.0029 118.477 14.3545C111.586 14.1377 108.141 13.8184 108.141 13.3965V11.9551L109.345 11.4717ZM110.303 16.7627H110.549C110.795 16.7627 111.114 17.082 111.507 17.7207C111.507 17.8848 111.428 17.9668 111.27 17.9668C111.27 19.8887 111.668 20.8496 112.465 20.8496L114.152 21.0869C114.785 20.9287 115.345 20.8496 115.831 20.8496V21.0869L116.314 20.8496C116.566 20.8496 116.886 21.1689 117.272 21.8076V23.0117L115.594 23.4951H113.432C110.543 23.4951 109.099 22.8535 109.099 21.5703V17.7207C109.11 17.5039 109.512 17.1846 110.303 16.7627ZM128.28 1.85645C129.083 1.95605 129.484 2.43652 129.484 3.29785L129.238 4.98535C132.766 6.93652 134.529 8.1377 134.529 8.58887V9.07227C134.371 9.55273 133.891 9.79297 133.088 9.79297C132.549 9.79297 131.025 8.99023 128.518 7.38477C128.518 9.30664 127.958 10.2676 126.839 10.2676H126.118C125.796 10.2676 125.635 10.1094 125.635 9.79297C125.635 8.50391 126.194 6.09863 127.313 2.57715C127.155 2.57715 127.076 2.49805 127.076 2.33984C127.357 2.33984 127.759 2.17871 128.28 1.85645ZM131.163 11.4717H131.884C132.241 11.4717 132.563 12.2744 132.851 13.8799H132.604C132.604 16.124 133.006 17.2461 133.809 17.2461C134.441 17.4043 135.001 17.4834 135.487 17.4834C135.569 17.4834 135.892 17.4043 136.454 17.2461C137.415 17.4453 137.896 18.166 137.896 19.4082C137.368 19.7246 136.888 19.8828 136.454 19.8828H132.367C132.203 19.8828 132.121 19.8037 132.121 19.6455L131.646 19.8828H127.313C126.487 19.8828 126.007 19.6426 125.872 19.1621V18.2041C125.872 17.9521 126.194 17.6328 126.839 17.2461H130.68C130.521 16.3672 130.442 14.6035 130.442 11.9551L131.163 11.4717ZM141.501 1.61914C142.462 1.71875 142.942 1.95898 142.942 2.33984V2.82324C142.462 4.24707 142.222 5.04688 142.222 5.22266C144.466 7.5957 145.588 9.11914 145.588 9.79297C145.266 10.5898 144.785 10.9883 144.146 10.9883C143.877 10.9883 142.834 9.86914 141.018 7.63086C140.508 9.55273 140.027 10.5137 139.576 10.5137H138.372L138.135 9.30957C139.635 4.18262 140.757 1.61914 141.501 1.61914ZM153.278 2.57715C153.806 2.57715 154.125 3.62012 154.236 5.70605V10.2676C154.236 11.3926 153.756 11.9551 152.795 11.9551C152.156 11.7969 151.837 11.3164 151.837 10.5137V8.10547C151.837 7.78906 151.676 7.63086 151.354 7.63086H150.879C149.871 7.63086 148.667 7.70996 147.267 7.86816C145.989 7.7627 145.351 7.60156 145.351 7.38477L144.867 6.66406C144.867 5.76758 145.269 5.20801 146.071 4.98535C147.349 5.09082 147.987 5.24902 147.987 5.45996L148.471 5.22266H151.354L151.837 5.45996C151.837 3.53809 152.238 2.57715 153.041 2.57715H153.278ZM145.104 13.3965H150.633C151.758 13.3965 152.32 14.5186 152.32 16.7627V17.9668C152.32 19.0039 150.478 19.6426 146.792 19.8828C146.792 20.1348 147.111 20.457 147.75 20.8496H151.837C152.159 20.8965 152.32 21.0576 152.32 21.333C152.32 22.7744 151.116 23.4951 148.708 23.4951C145.825 23.4951 144.384 22.1328 144.384 19.4082C145.028 17.9668 146.47 17.2461 148.708 17.2461C149.511 17.2461 149.912 17.085 149.912 16.7627V16.2793C149.912 15.957 149.751 15.7959 149.429 15.7959H149.191C148.266 15.7959 146.985 15.8779 145.351 16.042C144.618 15.7314 144.217 15.4092 144.146 15.0752V14.3545C144.146 14.1084 144.466 13.7891 145.104 13.3965Z" fill="#222222"/>
</svg>
