<svg width="152" height="26" viewBox="0 0 152 26" fill="none" xmlns="http://www.w3.org/2000/svg">
<path d="M6.53906 2.09375C6.84961 2.25781 7.08984 2.33984 7.25977 2.33984V3.78125C6.9375 4.17383 6.77637 4.49316 6.77637 4.73926L2.93555 4.98535V5.94336C2.98242 6.26563 3.14062 6.42676 3.41016 6.42676H5.33496L7.01367 6.18066C7.06641 6.50293 7.22754 6.66406 7.49707 6.66406C7.49707 8.26953 6.2959 9.07227 3.89355 9.07227H3.65625C3.76758 10.0332 3.92578 10.5137 4.13086 10.5137H8.21777C8.38184 10.8242 8.46387 11.0645 8.46387 11.2344C8.46387 12.3535 7.5 12.9131 5.57227 12.9131C5.41406 13.0771 4.77539 13.1592 3.65625 13.1592C2.23242 13.1592 1.42969 11.7969 1.24805 9.07227C0.767578 6.58203 0.527344 5.05859 0.527344 4.50195V3.29785C0.527344 2.98145 1.00781 2.66211 1.96875 2.33984C2.83594 2.33984 4.35938 2.25781 6.53906 2.09375ZM13.2715 2.57715C14.1562 2.57715 14.7949 5.78223 15.1875 12.1924L13.9922 13.1592C13.3477 12.8369 13.0254 12.5967 13.0254 12.4385C12.709 10.2822 12.5508 8.91992 12.5508 8.35156V8.10547H12.3047C10.8867 8.26953 10.0049 8.35156 9.65918 8.35156L9.18457 7.63086V6.66406C9.84668 5.86133 10.8076 5.45996 12.0674 5.45996C12.0674 5.34277 11.9854 4.8623 11.8213 4.01855C12.0498 3.05762 12.5332 2.57715 13.2715 2.57715ZM18.0791 3.29785C18.6709 3.29785 19.2305 6.2627 19.7578 12.1924V12.6758C19.7578 12.9043 19.5176 13.1445 19.0371 13.3965H18.0791C17.417 13.3965 16.8545 10.1914 16.3916 3.78125C16.8311 3.45898 17.3936 3.29785 18.0791 3.29785ZM10.3799 16.042C10.7021 16.6396 11.1035 18.002 11.584 20.1289H12.0674C12.2139 20.1289 13.415 19.8887 15.6709 19.4082C16.3154 19.6484 16.6377 19.8887 16.6377 20.1289V20.3662C16.6377 21.6494 15.4336 22.291 13.0254 22.291C13.0254 22.6133 12.8672 22.7744 12.5508 22.7744H11.584C10.125 22.7744 9.08496 21.0898 8.46387 17.7207C8.46387 16.6016 9.10254 16.042 10.3799 16.042ZM22.3965 2.57715H23.3545C23.3545 2.94043 23.4336 3.2627 23.5918 3.54395C23.4336 4.63965 23.3545 5.51855 23.3545 6.18066C25.7451 8.65918 26.9463 10.1035 26.958 10.5137C26.8584 11.3164 26.3779 11.7178 25.5166 11.7178H24.7959C24.7959 11.29 24.0752 10.4082 22.6338 9.07227H22.3965V10.2676C22.0742 10.6602 21.9131 10.9824 21.9131 11.2344H20.4717C20.1494 11.2344 19.9883 11.0732 19.9883 10.751C20.8438 5.30176 21.6465 2.57715 22.3965 2.57715ZM32.4863 3.06055H33.207C34.2031 3.06055 34.8447 6.42676 35.1318 13.1592V13.3965C34.9736 14.0352 34.4932 14.3545 33.6904 14.3545C32.8877 14.1143 32.4863 13.3145 32.4863 11.9551V10.2676H28.3994C28.083 10.2676 27.8428 9.78711 27.6787 8.82617L28.6455 8.10547H31.7656C32.0879 8.10547 32.249 7.94727 32.249 7.63086C32.0908 7.32031 32.0117 7.08008 32.0117 6.91016C30.9688 6.91016 29.3662 6.98926 27.2041 7.14746L26.7207 6.42676V5.70605C26.7207 4.99707 28.4023 4.5957 31.7656 4.50195C31.7656 3.54102 32.0059 3.06055 32.4863 3.06055ZM25.2793 15.7959H25.5166C26.1436 15.7959 26.7852 16.918 27.4414 19.1621L29.8408 19.4082C30.708 19.2441 31.4316 19.1621 32.0117 19.1621L32.7324 20.3662C32.2695 21.4912 31.4668 22.0537 30.3242 22.0537C26.6387 22.0537 24.7959 21.1719 24.7959 19.4082C24.4736 18.2949 24.3125 17.334 24.3125 16.5254L25.2793 15.7959ZM42.5361 1.83887C42.7119 1.83887 42.9551 1.9209 43.2656 2.08496L44.707 1.83887C45.9902 1.83887 46.9512 2.08203 47.5898 2.56836H51.4395C53.3613 2.56836 54.3223 4.41113 54.3223 8.09668C54.0117 8.8291 53.6924 9.23047 53.3643 9.30078H53.127C52.1602 9.30078 51.6768 8.57715 51.6768 7.12988L51.4395 4.96777H48.7939V7.61328C48.7939 8.79688 48.5537 9.43848 48.0732 9.53809H47.3525C46.708 9.28027 46.3857 8.7207 46.3857 7.85938C46.3857 7.75977 46.4678 6.7168 46.6318 4.73047C45.9873 4.60156 45.665 4.44043 45.665 4.24707C45.3311 4.37012 44.4492 4.53125 43.0195 4.73047C42.3398 4.73047 41.8594 4.00977 41.5781 2.56836C41.8184 2.56836 42.1377 2.3252 42.5361 1.83887ZM54.5684 10.7422C55.207 10.9824 55.5264 11.2227 55.5264 11.4629V12.4297C55.5264 13.0859 52.2393 13.5664 45.665 13.8711V13.625L45.1816 13.8711C44.5254 13.6484 44.0449 13.2471 43.7402 12.667V11.4629L44.9443 11.2256H47.5898L49.2773 10.9795V11.2256C50.4785 10.9033 52.2422 10.7422 54.5684 10.7422ZM52.1602 14.8291C53.1211 14.8291 53.8418 15.6318 54.3223 17.2373C54.3223 18.9541 52.7988 20.2373 49.752 21.0869V21.5615H54.5684C54.8906 21.6143 55.0518 21.7754 55.0518 22.0449V22.5283C55.0518 23.4893 54.5684 23.9697 53.6016 23.9697H50.4814C48.3955 23.624 47.3525 22.5811 47.3525 20.8408C47.5225 19.8682 48.8057 18.9072 51.2021 17.958L51.4395 17.4746H51.2021C49.0342 17.6387 47.4287 17.7207 46.3857 17.7207C45.9053 17.1348 45.665 16.5723 45.665 16.0332V15.3125L46.8691 15.0752C47.0273 15.0752 47.1064 15.1543 47.1064 15.3125C47.417 15.1543 47.6602 15.0752 47.8359 15.0752C48.4863 15.0752 49.9277 14.9932 52.1602 14.8291ZM68.7471 5.70605C69.5498 6.15137 69.9512 6.79297 69.9512 7.63086C69.9512 7.78906 69.8691 7.86816 69.7051 7.86816C69.8691 8.86426 70.1094 11.8291 70.4258 16.7627C70.2676 17.0732 70.1885 17.3135 70.1885 17.4834H69.4678L68.2637 17.2461C68.1055 14.2344 67.9473 12.3916 67.7891 11.7178H63.9395V10.751C63.9395 9.79004 64.5811 9.30957 65.8643 9.30957H67.7891L67.543 7.63086V6.91016C67.543 6.69336 67.9443 6.29199 68.7471 5.70605ZM58.8945 6.42676C58.8945 6.74902 59.7734 6.98926 61.5312 7.14746C62.6152 8.09082 63.3389 9.53223 63.7021 11.4717C63.0576 13.3936 62.0938 14.3545 60.8105 14.3545H60.0898C57.207 13.751 55.7656 12.1484 55.7656 9.54688C56.1875 8.12891 56.8291 7.25 57.6904 6.91016C58.2119 6.58789 58.6133 6.42676 58.8945 6.42676ZM58.1738 9.30957V9.79297C58.3789 11.2344 59.0996 11.9551 60.3359 11.9551H60.8105L61.5312 11.4717C61.1621 9.87207 60.3623 9.07227 59.1318 9.07227L58.1738 9.30957ZM81.4248 0.898438C83.8271 1.50781 85.0283 3.03125 85.0283 5.46875V5.94336C85.0283 7.66602 84.2285 8.70898 82.6289 9.07227L82.8662 9.55566V11.2344H84.3076C85.749 11.2344 86.4697 11.9551 86.4697 13.3965C85.9893 13.3965 85.749 13.5576 85.749 13.8799C84.1494 13.7158 82.9482 13.6338 82.1455 13.6338H78.542C77.6807 13.6338 77.1211 13.3145 76.8633 12.6758V11.9551C76.8633 11.4219 78.0645 11.1025 80.4668 10.9971V10.5137C80.4668 10.1504 80.3877 9.83105 80.2295 9.55566C80.3877 9.24512 80.4668 9.00488 80.4668 8.83496C78.5449 7.99707 77.584 6.39453 77.584 4.02734C78.1992 1.94141 79.2393 0.898438 80.7041 0.898438H81.4248ZM79.9834 3.78125V4.02734C79.9834 5.28125 80.4639 6.16016 81.4248 6.66406H82.1455C82.4678 6.66406 82.6289 6.50586 82.6289 6.18945V4.02734L81.4248 3.78125H79.9834ZM79.0254 15.0752H82.3916C83.751 15.0752 84.9521 15.3154 85.9951 15.7959V16.7627L86.2324 17.958H85.9951L86.2324 18.4414V19.3994C86.2324 20.8408 84.9521 21.5615 82.3916 21.5615L80.7041 21.3242V22.7656H83.3496C83.748 22.7656 84.4688 22.9268 85.5117 23.249V24.207C85.5117 25.0098 84.1494 25.4111 81.4248 25.4111C79.3447 24.9658 78.3047 24.084 78.3047 22.7656V20.8408C78.3047 19.5635 78.9463 18.9248 80.2295 18.9248H81.4248C81.7881 18.9248 82.1104 19.0039 82.3916 19.1621C82.6553 19.0039 83.0537 18.9248 83.5869 18.9248V17.7207H79.7461C78.7852 17.7207 78.3047 17.2402 78.3047 16.2793V15.7959C78.3047 15.5674 78.5449 15.3271 79.0254 15.0752ZM91.2793 3.78125H92.7207C93.5234 3.78125 94.2441 5.54492 94.8828 9.07227C94.8828 10.4902 93.5205 11.29 90.7959 11.4717L90.5586 11.9551V12.1924C90.5586 12.6318 90.7168 13.1123 91.0332 13.6338L93.9248 13.3965H94.3994C95.5244 13.3965 96.0869 13.9561 96.0869 15.0752C96.0869 15.7197 94.4844 16.1211 91.2793 16.2793C89.1934 15.6875 88.1504 14.6475 88.1504 13.1592V11.709C88.1504 10.0801 89.5127 9.11914 92.2373 8.82617C91.8096 6.58203 91.4082 5.45996 91.0332 5.45996C88.7949 6.10449 87.5146 6.42676 87.1924 6.42676L86.709 5.70605V5.45996C87.6758 4.34082 89.1992 3.78125 91.2793 3.78125ZM101.853 4.50195H102.573C103.534 4.76562 104.015 7.00977 104.015 11.2344C104.126 11.2344 104.448 12.5146 104.981 15.0752C104.653 16.042 104.331 16.5254 104.015 16.5254C102.573 16.5254 101.853 15.4033 101.853 13.1592L101.369 13.3965H97.7656C96.9043 13.3965 96.4238 12.9951 96.3242 12.1924C96.3242 11.2314 98.0879 10.751 101.615 10.751C101.498 9.79004 101.337 9.30957 101.132 9.30957C100.54 9.30957 99.1777 9.5498 97.0449 10.0303C96.3125 9.71973 95.9111 9.40039 95.8408 9.07227V8.35156C95.8408 7.63672 97.5254 7.15332 100.895 6.90137H101.132V5.22266C101.132 4.99414 101.372 4.75391 101.853 4.50195ZM106.899 2.10254H111.944C112.313 2.10254 112.554 2.50391 112.665 3.30664C112.665 3.58203 112.507 4.0625 112.19 4.74805C114.136 5.76758 115.255 6.56738 115.548 7.14746V7.86816C115.548 8.09668 115.308 8.33691 114.827 8.58887H113.869C112.34 7.46973 111.379 6.91016 110.986 6.91016C110.406 8.50977 109.524 9.30957 108.341 9.30957L107.866 8.58887V8.10547C107.866 7.54883 108.505 6.34766 109.782 4.50195V4.26465H105.941C105.701 4.26465 105.461 3.94531 105.221 3.30664C105.584 3.30664 105.824 2.98437 105.941 2.33984C106.223 2.18164 106.542 2.10254 106.899 2.10254ZM115.073 10.2764C116.192 10.5518 116.752 10.8711 116.752 11.2344V11.9551C116.752 12.4355 116.11 12.7549 114.827 12.9131V12.6758C114.563 12.834 114.165 12.9131 113.632 12.9131L113.869 14.1172V15.3213H114.353C115.472 15.3213 116.031 15.6406 116.031 16.2793C116.189 16.877 116.269 17.5977 116.269 18.4414V19.3994C115.765 20.3604 114.886 20.8408 113.632 20.8408H112.19C111.868 20.8936 111.707 21.0547 111.707 21.3242V22.0449C111.959 22.0449 112.278 22.2061 112.665 22.5283C112.929 22.5283 113.89 22.4463 115.548 22.2822L116.752 22.5283V23.4863C116.752 24.125 115.551 24.6055 113.148 24.9277C110.588 24.6875 109.308 23.5654 109.308 21.5615C109.308 19.6396 110.828 18.6787 113.869 18.6787V17.958L113.632 17.4834L111.224 17.7207H109.308C109.073 17.7207 108.833 17.4805 108.587 17V16.2793C108.587 15.7578 109.548 15.4385 111.47 15.3213V12.9131H108.587C107.755 12.9131 107.274 12.6729 107.146 12.1924V11.4717C107.462 11.085 107.62 10.7656 107.62 10.5137H111.224C112.149 10.5137 113.433 10.4346 115.073 10.2764ZM125.835 1.85645C126.638 1.95605 127.039 2.43652 127.039 3.29785L126.793 4.98535C130.32 6.93652 132.084 8.1377 132.084 8.58887V9.07227C131.926 9.55273 131.445 9.79297 130.643 9.79297C130.104 9.79297 128.58 8.99023 126.072 7.38477C126.072 9.30664 125.513 10.2676 124.394 10.2676H123.673C123.351 10.2676 123.189 10.1094 123.189 9.79297C123.189 8.50391 123.749 6.09863 124.868 2.57715C124.71 2.57715 124.631 2.49805 124.631 2.33984C124.912 2.33984 125.313 2.17871 125.835 1.85645ZM128.718 11.4717H129.438C129.796 11.4717 130.118 12.2744 130.405 13.8799H130.159C130.159 16.124 130.561 17.2461 131.363 17.2461C131.996 17.4043 132.556 17.4834 133.042 17.4834C133.124 17.4834 133.446 17.4043 134.009 17.2461C134.97 17.4453 135.45 18.166 135.45 19.4082C134.923 19.7246 134.442 19.8828 134.009 19.8828H129.922C129.758 19.8828 129.676 19.8037 129.676 19.6455L129.201 19.8828H124.868C124.042 19.8828 123.562 19.6426 123.427 19.1621V18.2041C123.427 17.9521 123.749 17.6328 124.394 17.2461H128.234C128.076 16.3672 127.997 14.6035 127.997 11.9551L128.718 11.4717ZM139.056 1.61914C140.017 1.71875 140.497 1.95898 140.497 2.33984V2.82324C140.017 4.24707 139.776 5.04688 139.776 5.22266C142.021 7.5957 143.143 9.11914 143.143 9.79297C142.82 10.5898 142.34 10.9883 141.701 10.9883C141.432 10.9883 140.389 9.86914 138.572 7.63086C138.062 9.55273 137.582 10.5137 137.131 10.5137H135.927L135.689 9.30957C137.189 4.18262 138.312 1.61914 139.056 1.61914ZM150.833 2.57715C151.36 2.57715 151.68 3.62012 151.791 5.70605V10.2676C151.791 11.3926 151.311 11.9551 150.35 11.9551C149.711 11.7969 149.392 11.3164 149.392 10.5137V8.10547C149.392 7.78906 149.23 7.63086 148.908 7.63086H148.434C147.426 7.63086 146.222 7.70996 144.821 7.86816C143.544 7.7627 142.905 7.60156 142.905 7.38477L142.422 6.66406C142.422 5.76758 142.823 5.20801 143.626 4.98535C144.903 5.09082 145.542 5.24902 145.542 5.45996L146.025 5.22266H148.908L149.392 5.45996C149.392 3.53809 149.793 2.57715 150.596 2.57715H150.833ZM142.659 13.3965H148.188C149.312 13.3965 149.875 14.5186 149.875 16.7627V17.9668C149.875 19.0039 148.032 19.6426 144.347 19.8828C144.347 20.1348 144.666 20.457 145.305 20.8496H149.392C149.714 20.8965 149.875 21.0576 149.875 21.333C149.875 22.7744 148.671 23.4951 146.263 23.4951C143.38 23.4951 141.938 22.1328 141.938 19.4082C142.583 17.9668 144.024 17.2461 146.263 17.2461C147.065 17.2461 147.467 17.085 147.467 16.7627V16.2793C147.467 15.957 147.306 15.7959 146.983 15.7959H146.746C145.82 15.7959 144.54 15.8779 142.905 16.042C142.173 15.7314 141.771 15.4092 141.701 15.0752V14.3545C141.701 14.1084 142.021 13.7891 142.659 13.3965Z" fill="#222222"/>
</svg>
