<svg width="119" height="22" viewBox="0 0 119 22" fill="none" xmlns="http://www.w3.org/2000/svg">
<path d="M4.52246 2.68066C8.49707 3.01009 10.4844 4.40299 10.4844 6.85938V8.35254C9.80404 10.7373 8.61165 11.9297 6.90723 11.9297H6.60645C3.03288 11.9297 1.24609 10.7373 1.24609 8.35254C0.909505 8.35254 0.708984 7.65788 0.644531 6.26855C0.644531 4.47819 1.93717 3.28223 4.52246 2.68066ZM3.0293 6.55859V7.16016C3.0293 9.14388 4.32194 10.1357 6.90723 10.1357C7.90267 9.11165 8.40039 8.22005 8.40039 7.46094V6.55859C8.40039 5.16927 7.10775 4.47461 4.52246 4.47461C3.52702 4.75391 3.0293 5.44857 3.0293 6.55859ZM6.90723 13.7129L7.49805 14.6152V15.5068L7.79883 19.084C11.4225 18.6901 13.6104 18.4932 14.3623 18.4932L14.6631 19.084V19.6855C14.6631 20.4805 11.9775 20.8779 6.60645 20.8779H1.53613C1.14225 20.8779 0.945312 20.3802 0.945312 19.3848C1.28906 19.1842 1.68652 19.084 2.1377 19.084H5.41406V14.0137L6.90723 13.7129ZM17.5303 0.25293C18.3109 0.546549 18.7012 0.840169 18.7012 1.13379V2.60547C18.7012 4.76107 19.0951 5.83887 19.8828 5.83887C21.8379 5.44499 23.5996 5.24805 25.168 5.24805H26.0488V6.12891C26.0488 6.52279 25.8519 6.71973 25.458 6.71973C25.2646 6.71973 25.168 6.62305 25.168 6.42969C23.75 7.01693 21.7913 7.31055 19.292 7.31055H19.002C17.8203 7.31055 17.1328 5.64551 16.9395 2.31543L17.2295 1.72461C17.0361 1.38086 16.9395 0.99056 16.9395 0.553711L17.5303 0.25293ZM27.5205 9.3623L27.8105 9.95312V10.2432C27.8105 10.5225 27.5169 10.8161 26.9297 11.124H24.2871L22.2246 11.4248V11.124L21.6445 11.4248H17.2295L15.1777 11.124V9.95312C17.2904 9.95312 21.4046 9.75618 27.5205 9.3623ZM25.168 12.8857C25.9486 14.1605 26.3389 15.3385 26.3389 16.4199C26.1455 16.7923 26.0488 17.0859 26.0488 17.3008L24.5771 17C21.4476 17.1361 19.8828 17.4297 19.8828 17.8809V19.6426L23.4062 19.3525H25.458C25.7445 19.3525 26.0381 19.6462 26.3389 20.2334C26.3389 20.6774 25.0677 20.971 22.5254 21.1143V20.8242L21.9346 21.1143H21.3438C19.3887 21.1143 18.4111 20.8206 18.4111 20.2334L18.1211 19.0625C18.1211 17.1003 18.805 16.1191 20.1729 16.1191H24.5771C24.5771 15.1022 24.2835 14.515 23.6963 14.3574C20.8389 14.7513 19.2741 14.9482 19.002 14.9482L17.8203 14.6475V13.4766C18.3145 13.4766 20.7637 13.2796 25.168 12.8857ZM39.5605 1.48828H40.1406C40.4987 1.48828 40.9893 2.36914 41.6123 4.13086C42.5433 4.13086 43.9076 5.39844 45.7051 7.93359V8.22363C45.7051 8.50293 45.4115 8.79655 44.8242 9.10449H44.5342C42.708 7.0778 41.2435 5.80664 40.1406 5.29102C38.7298 8.80729 37.7559 10.5654 37.2188 10.5654H36.6279C36.2412 10.5654 36.0479 10.3685 36.0479 9.97461V9.68457L39.2705 1.78906C39.2705 1.58854 39.3672 1.48828 39.5605 1.48828ZM41.3115 9.68457H41.9023C42.1816 9.68457 42.4753 9.97819 42.7832 10.5654V15.5391C45.4115 15.3457 47.3594 15.249 48.627 15.249C49.0208 15.3063 49.2178 15.4997 49.2178 15.8291C49.2178 17.0036 44.9245 17.5908 36.3379 17.5908H35.457C35.0703 17.5908 34.877 17.3939 34.877 17V16.71C34.877 16.1227 36.4382 15.8291 39.5605 15.8291H40.1406L40.7314 15.5391L40.4414 14.9482L40.7314 13.7773L40.4414 13.1973L40.7314 12.6172L40.4414 10.8555V10.5654C40.4414 10.2861 40.7314 9.99251 41.3115 9.68457ZM54.416 0.317383C54.8027 0.797201 54.9961 1.1875 54.9961 1.48828C54.6094 3.05664 54.416 4.32422 54.416 5.29102C56.5645 7.86198 57.6387 9.62012 57.6387 10.5654L57.0479 10.8555H56.167C55.7087 9.60938 54.7347 8.3418 53.2451 7.05273C52.4574 8.88607 51.5801 10.057 50.6133 10.5654C50.2337 10.3721 49.9401 10.2754 49.7324 10.2754V9.97461C49.7324 9.63802 50.3161 8.37044 51.4834 6.17188L53.5352 0.618164C53.9147 0.417643 54.2083 0.317383 54.416 0.317383ZM61.4414 0.908203H62.0215C62.487 0.908203 62.8773 1.6888 63.1924 3.25H62.9023C63.2891 4.1237 63.4824 5.39128 63.4824 7.05273V10.5654C63.4824 11.611 63.0921 12.2949 62.3115 12.6172C62.0322 12.6172 61.7422 12.3236 61.4414 11.7363V7.34277H58.7988C57.3092 7.34277 56.432 6.95247 56.167 6.17188L57.0479 5.5918C58.9958 5.78516 60.4603 5.88184 61.4414 5.88184V5.5918C61.2409 5.39128 61.0439 3.92676 60.8506 1.19824L61.4414 0.908203ZM56.167 12.6172H59.9697C61.5309 12.6172 62.4118 13.6878 62.6123 15.8291C62.4118 16.8031 62.1182 17.487 61.7314 17.8809L58.7988 17.5908H57.9287L56.4678 17.8809V19.6318H62.6123V20.5127C62.6123 20.971 61.9284 21.2646 60.5605 21.3936L59.9697 21.1035L58.2188 21.3936C55.6836 21.3936 54.416 21.0033 54.416 20.2227V17.29C54.416 16.9033 54.7096 16.71 55.2969 16.71C55.9486 16.71 57.6064 16.6133 60.2705 16.4199V14.3682H58.7988L57.0479 14.0781C56.7041 14.2715 56.3138 14.3682 55.877 14.3682V14.0781L55.2969 14.3682H53.8252C53.4385 14.3682 53.2451 14.1712 53.2451 13.7773V12.9072L56.167 12.6172ZM70.7217 3.54004C72.863 3.54004 73.9336 5.00456 73.9336 7.93359C72.3151 10.2754 70.8542 11.4463 69.5508 11.4463C66.8151 10.8949 65.4473 9.82064 65.4473 8.22363V7.34277C65.9701 5.2015 66.9476 4.13086 68.3799 4.13086C68.3799 3.73698 69.1605 3.54004 70.7217 3.54004ZM78.3271 4.13086H78.9072C79.3584 4.13086 80.139 7.15299 81.249 13.1973C81.249 13.3906 81.1523 13.4873 80.959 13.4873C81.3457 15.5355 81.5391 16.8031 81.5391 17.29C81.1523 18.0921 80.959 18.6794 80.959 19.0518H79.7881C79.3942 13.5518 78.7103 8.6748 77.7363 4.4209L78.3271 4.13086ZM66.9082 8.22363C67.0228 8.81087 67.7067 9.39453 68.96 9.97461C70.9079 9.97461 72.0788 8.90397 72.4727 6.7627C72.4727 5.58822 71.6921 4.9043 70.1309 4.71094C67.9824 5.51302 66.9082 6.68392 66.9082 8.22363ZM64.2764 14.959C66.568 15.1523 68.2259 15.249 69.25 15.249H70.7217C71.1585 15.249 71.5452 15.1523 71.8818 14.959L72.4727 15.249C73.8047 15.0557 74.8789 14.959 75.6953 14.959H75.9854C76.3721 15.0163 76.5654 15.2096 76.5654 15.5391C76.3721 15.9186 76.2754 16.2122 76.2754 16.4199C73.0527 16.6133 70.6143 16.71 68.96 16.71C65.6442 16.71 63.9863 16.223 63.9863 15.249C64.1797 15.249 64.2764 15.1523 64.2764 14.959ZM92.999 1.19824C93.3857 1.25553 93.5791 1.44889 93.5791 1.77832V2.94922C93.5791 3.41471 93.2891 4.29199 92.709 5.58105C95.2871 7.14225 97.0417 8.51009 97.9727 9.68457C97.9727 9.96387 97.679 10.2575 97.0918 10.5654C95.8171 10.0641 94.1592 8.98991 92.1182 7.34277C91.0798 9.48405 90.2992 10.6549 89.7764 10.8555H89.4863C89.207 10.8555 88.9134 10.5618 88.6055 9.97461V9.68457C89.9733 7.60059 91.1442 4.77181 92.1182 1.19824H92.999ZM100.615 1.19824H101.485C102.66 1.986 103.344 6.18262 103.537 13.7881H102.076C101.489 9.44108 100.805 5.34115 100.024 1.48828L100.615 1.19824ZM94.1699 13.1973C95.5378 13.9635 96.2217 16.0117 96.2217 19.3418H102.656C102.943 19.3418 103.236 19.6354 103.537 20.2227V20.8135L98.8535 21.3936L97.3926 21.1035L95.9209 21.3936C94.5602 21.3936 93.8799 19.5387 93.8799 15.8291C93.5505 15.8291 93.3535 15.1488 93.2891 13.7881V13.4873C93.4967 13.4873 93.7904 13.3906 94.1699 13.1973ZM114.278 2.0791H114.579C115.016 2.0791 115.406 3.24642 115.75 5.58105C116.509 5.97493 117.58 6.17188 118.962 6.17188V7.34277H117.211L115.75 7.05273L116.04 10.5654V12.3164L114.579 12.0264C114.579 10.9951 114.382 8.84668 113.988 5.58105H114.278L113.988 5.00098C113.988 4.80762 114.085 4.71094 114.278 4.71094C113.892 3.70833 113.698 2.92773 113.698 2.36914L114.278 2.0791ZM104.041 2.36914H109.605L111.066 2.65918C111.066 3.61165 110.579 5.36621 109.605 7.92285C111.36 9.08301 112.237 10.3542 112.237 11.7363H111.947L108.725 9.09375C107.321 10.8555 106.444 11.7363 106.093 11.7363C105.506 11.5358 105.212 11.3389 105.212 11.1455C107.94 7.57194 109.305 5.13346 109.305 3.83008V3.54004H104.621C104.234 3.54004 104.041 3.3431 104.041 2.94922V2.36914ZM108.435 14.0674H115.449C116.387 14.2464 116.975 16.1012 117.211 19.6318H116.921L117.211 20.2227V20.8027H116.33C115.822 20.8027 115.335 19.0482 114.869 15.5391L113.408 15.2383H109.896L108.435 14.9482V14.0674Z" fill="#222222"/>
</svg>
