<svg width="129" height="25" viewBox="0 0 129 25" fill="none" xmlns="http://www.w3.org/2000/svg">
<path d="M1.24805 0.880859C5.25586 1.39648 7.25977 1.71582 7.25977 1.83887L7.74316 1.60156H9.66797C11.9121 2.02344 13.0342 3.86621 13.0342 7.12988C12.7236 7.8623 12.4043 8.26367 12.0762 8.33398H11.5928C11.0127 8.33398 10.5322 6.89258 10.1514 4.00977C9.8291 4.00977 9.66797 3.92773 9.66797 3.76367L9.18457 4.00977H8.94727C8.7832 4.00977 8.70117 3.92773 8.70117 3.76367C7.74023 3.97461 7.25977 4.21484 7.25977 4.48438V7.37598C7.25977 8.33691 6.7793 8.81738 5.81836 8.81738C5.17969 8.2373 4.86035 7.5957 4.86035 6.89258V3.76367C1.97168 3.44727 0.527344 3.04883 0.527344 2.56836V1.11816C0.697266 1.11816 0.9375 1.03906 1.24805 0.880859ZM2.45215 9.78418C3.2959 9.94238 3.77637 10.0215 3.89355 10.0215C8.82129 9.86328 12.1904 9.78418 14.001 9.78418L14.7217 10.7422V11.4629C14.7217 11.6914 14.4814 11.9316 14.001 12.1836H9.43066V12.9043L9.66797 14.5918H11.1094C12.3926 14.5918 13.0342 15.3125 13.0342 16.7539V18.1953C13.0342 20.123 10.9512 21.0869 6.78516 21.0869V21.5615C8.60742 21.8838 9.8877 22.0449 10.626 22.0449H12.0762C12.3047 22.0449 12.5449 22.2852 12.7969 22.7656V23.0117C12.2988 23.9727 11.335 24.4531 9.90527 24.4531C7.11035 24.4531 5.18555 23.249 4.13086 20.8408C4.53516 19.5576 5.33789 18.916 6.53906 18.916C9.18164 18.7578 10.626 18.2773 10.8721 17.4746V16.7539C7.24512 16.918 4.99805 17 4.13086 17L3.41016 16.0332L3.65625 14.8291H6.30176L7.50586 14.5918L7.25977 14.1084V12.4297H5.09766C2.85352 12.4297 1.73145 11.8672 1.73145 10.7422L2.45215 9.78418ZM19.2852 2.58594L20.0059 3.79004V4.51074L19.7598 4.99414H20.0059C20.5918 4.67187 21.2305 4.51074 21.9219 4.51074H22.4053C22.5635 4.51074 22.6426 4.58984 22.6426 4.74805L23.126 4.51074H23.8467C24.4854 4.85645 24.8047 5.57715 24.8047 6.67285L26.0088 5.46875H28.4082L28.1709 3.79004L29.1289 3.06934H29.6123C30.4092 3.06934 30.9688 5.71191 31.291 10.9971V11.2344C31.291 12.0371 30.9688 12.5176 30.3242 12.6758C29.5273 12.6758 29.1289 12.5146 29.1289 12.1924C29.1289 11.6943 29.0498 10.1738 28.8916 7.63086H25.7627L24.8047 6.91016V7.14746C26.4043 8.59473 27.2041 9.47656 27.2041 9.79297C26.9932 10.5312 26.6738 10.9326 26.2461 10.9971C25.7832 10.9033 25.1416 10.502 24.3213 9.79297C24.1045 10.9121 23.7852 11.4717 23.3633 11.4717H22.168C21.8457 11.4717 21.6846 11.2314 21.6846 10.751L22.6426 6.67285H20.2432L19.7598 6.43555V6.67285C20.8848 7.46387 21.4473 8.4248 21.4473 9.55566L20.7266 10.0303H19.7598L18.8018 9.07227H18.5645C18.5645 10.0332 18.3242 10.5137 17.8438 10.5137H16.8857C16.6455 10.5137 16.4053 10.1943 16.165 9.55566C17.126 7.05371 17.6064 5.5332 17.6064 4.99414V4.74805H16.8857C16.5225 4.74805 16.2002 4.83008 15.9189 4.99414C15.6377 4.83008 15.3184 4.74805 14.9609 4.74805V4.27344C14.9609 3.14844 16.0801 2.58594 18.3184 2.58594H19.2852ZM28.1709 13.1504C28.6514 13.9531 28.8916 14.5947 28.8916 15.0752V19.1533C28.7275 19.6338 28.2471 19.874 27.4502 19.874H26.9668L26.7295 18.6787V15.7959L26.4834 15.3125C24.3447 15.793 22.8242 16.0332 21.9219 16.0332L21.4473 15.3125V14.5918C21.4473 13.9121 23.6885 13.4316 28.1709 13.1504ZM34.8877 2.10254H35.125C36.2441 2.10254 36.8037 3.22461 36.8037 5.46875C36.9678 5.46875 37.0498 5.94922 37.0498 6.91016H38.9658C40.4775 6.91016 41.5996 7.22949 42.332 7.86816C42.332 8.9873 41.8516 9.54688 40.8906 9.54688H39.4492C39.8066 10.0566 40.126 10.8594 40.4072 11.9551C40.2314 14.1992 39.1914 15.3213 37.2871 15.3213H36.8037C35.5264 15.3213 34.4072 14.4395 33.4463 12.6758V10.9971L33.6836 9.79297H32.7256L31.5215 9.54688V8.82617C31.5215 7.70703 32.5615 7.14746 34.6416 7.14746C34.3252 5.38965 34.167 4.18848 34.167 3.54395C34.3252 2.58301 34.5654 2.10254 34.8877 2.10254ZM45.9355 4.74805H46.6562C47.2949 4.74805 47.6963 6.10742 47.8604 8.82617L50.0225 8.35156C51.1416 8.50977 51.7012 8.75 51.7012 9.07227V9.79297C51.7012 10.5371 50.5 11.0176 48.0977 11.2344C48.2148 11.5215 48.376 12.6436 48.5811 14.6006C48.2705 15.3271 47.9482 15.7256 47.6143 15.7959H46.4189C45.9385 14.4365 45.6982 13.4756 45.6982 12.9131H45.9355C45.7773 12.3799 45.458 10.1387 44.9775 6.18945C45.2998 5.22852 45.6191 4.74805 45.9355 4.74805ZM35.8457 10.5137C35.6875 10.8242 35.6084 11.0645 35.6084 11.2344C35.9248 12.1016 36.4053 12.6611 37.0498 12.9131C37.5303 12.7549 37.7705 12.5967 37.7705 12.4385C37.6533 11.1553 37.0117 10.5137 35.8457 10.5137ZM41.374 16.7627H42.0947C42.792 16.7627 43.1904 18.1221 43.29 20.8408C43.6885 20.8408 44.8896 20.6826 46.8936 20.3662C47.6963 20.6826 48.0977 20.9229 48.0977 21.0869C48.0977 22.5283 46.416 23.249 43.0527 23.249H42.5693C41.292 23.249 40.6533 21.7256 40.6533 18.6787V18.4414C40.7588 17.3223 40.999 16.7627 41.374 16.7627ZM63.667 2.33984L64.3877 3.30664V3.78125C64.3877 3.94531 64.3057 4.02734 64.1416 4.02734L64.3877 4.50195V7.38477L65.8291 7.86816V9.79297C65.8291 9.95703 67.1094 10.7568 69.6699 12.1924C69.3184 13.1533 68.5186 13.6338 67.2705 13.6338L65.8291 12.9131L65.3457 13.1592C65.0645 12.9951 64.7451 12.9131 64.3877 12.9131C64.3877 14.0029 63.8252 14.8848 62.7002 15.5586H62.2256C61.9912 15.5586 61.751 15.3184 61.5049 14.8379V14.6006C61.5049 14.1084 62.0645 12.5059 63.1836 9.79297H62.9463C62.583 9.91016 61.54 10.0713 59.8174 10.2764V10.0303L59.3428 10.2764H59.0967C58.458 9.9541 58.1387 9.71094 58.1387 9.54688C58.1387 8.42773 58.6982 7.86816 59.8174 7.86816H61.5049C61.8213 7.86816 61.9795 7.70703 61.9795 7.38477C61.8213 5.79102 61.7422 4.58984 61.7422 3.78125C61.9473 3.78125 62.3486 3.38281 62.9463 2.58594C63.2568 2.42187 63.4971 2.33984 63.667 2.33984ZM76.1562 7.63086C76.9238 7.63086 77.6445 10.833 78.3184 17.2373C78.4824 17.2373 78.5645 17.5596 78.5645 18.2041C78.5645 19.165 77.9229 19.7246 76.6396 19.8828H76.4023C75.7227 19.8828 75.0811 16.1973 74.4775 8.82617C74.7002 8.0293 75.2598 7.63086 76.1562 7.63086ZM66.7871 14.6006C67.2676 15.4092 67.6689 16.7686 67.9912 18.6787C68.1494 18.6787 68.2285 18.7607 68.2285 18.9248L68.7119 18.6787H71.832C71.832 18.9307 71.9932 19.2529 72.3154 19.6455L71.832 20.3662C71.9902 20.3662 72.0693 20.4453 72.0693 20.6035C71.8232 20.6035 71.5039 20.7646 71.1113 21.0869H70.3906C69.4941 21.0869 66.9307 21.2451 62.7002 21.5615L62.4629 21.0869V20.8408C62.4629 19.7217 63.4238 19.1621 65.3457 19.1621L64.8623 16.042C65.1084 15.0811 65.75 14.6006 66.7871 14.6006ZM81.6777 2.10254H82.1611C82.7998 2.41895 83.1191 2.89941 83.1191 3.54395C82.8027 4.74512 82.6445 5.46582 82.6445 5.70605C84.2266 6.81934 85.7471 8.33984 87.2061 10.2676C86.8838 11.2344 86.5645 11.7178 86.248 11.7178H85.7646C85.4365 11.7178 84.2354 10.5137 82.1611 8.10547H81.9238C81.3379 10.3379 80.8545 11.46 80.4736 11.4717H80.2363C79.2754 11.4717 78.7949 11.1523 78.7949 10.5137C80.1367 4.90625 81.0977 2.10254 81.6777 2.10254ZM91.293 3.78125H91.7764C92.415 3.78125 92.8164 5.22266 92.9805 8.10547C92.8164 8.41602 92.7344 8.65625 92.7344 8.82617C92.8984 9.13672 92.9805 9.37695 92.9805 9.54688H92.7344C92.8574 9.91016 93.0186 10.9531 93.2178 12.6758C92.8955 13.1973 92.7344 13.5986 92.7344 13.8799H92.2598C91.1348 13.8799 90.5723 12.916 90.5723 10.9883V6.18066C90.5723 5.82324 90.4932 5.50391 90.335 5.22266C90.71 4.26172 91.0293 3.78125 91.293 3.78125ZM85.0439 14.8379C85.7412 14.8379 86.3037 15.96 86.7314 18.2041C87.0479 18.2041 87.2061 18.2832 87.2061 18.4414L87.6895 18.2041C87.8477 18.2041 87.9268 18.2832 87.9268 18.4414L88.4102 18.2041H91.0557C91.5361 18.3623 91.7764 18.8428 91.7764 19.6455C91.6182 20.126 91.457 20.3662 91.293 20.3662C90.8125 20.3662 89.7725 20.5273 88.1729 20.8496C85.4482 20.8496 84.0859 19.8066 84.0859 17.7207V16.2793C84.0859 15.3184 84.4053 14.8379 85.0439 14.8379ZM102.31 1.85645C103.112 1.95605 103.514 2.43652 103.514 3.29785L103.268 4.98535C106.795 6.93652 108.559 8.1377 108.559 8.58887V9.07227C108.4 9.55273 107.92 9.79297 107.117 9.79297C106.578 9.79297 105.055 8.99023 102.547 7.38477C102.547 9.30664 101.987 10.2676 100.868 10.2676H100.147C99.8252 10.2676 99.6641 10.1094 99.6641 9.79297C99.6641 8.50391 100.224 6.09863 101.343 2.57715C101.185 2.57715 101.105 2.49805 101.105 2.33984C101.387 2.33984 101.788 2.17871 102.31 1.85645ZM105.192 11.4717H105.913C106.271 11.4717 106.593 12.2744 106.88 13.8799H106.634C106.634 16.124 107.035 17.2461 107.838 17.2461C108.471 17.4043 109.03 17.4834 109.517 17.4834C109.599 17.4834 109.921 17.4043 110.483 17.2461C111.444 17.4453 111.925 18.166 111.925 19.4082C111.397 19.7246 110.917 19.8828 110.483 19.8828H106.396C106.232 19.8828 106.15 19.8037 106.15 19.6455L105.676 19.8828H101.343C100.517 19.8828 100.036 19.6426 99.9014 19.1621V18.2041C99.9014 17.9521 100.224 17.6328 100.868 17.2461H104.709C104.551 16.3672 104.472 14.6035 104.472 11.9551L105.192 11.4717ZM115.53 1.61914C116.491 1.71875 116.972 1.95898 116.972 2.33984V2.82324C116.491 4.24707 116.251 5.04688 116.251 5.22266C118.495 7.5957 119.617 9.11914 119.617 9.79297C119.295 10.5898 118.814 10.9883 118.176 10.9883C117.906 10.9883 116.863 9.86914 115.047 7.63086C114.537 9.55273 114.057 10.5137 113.605 10.5137H112.401L112.164 9.30957C113.664 4.18262 114.786 1.61914 115.53 1.61914ZM127.308 2.57715C127.835 2.57715 128.154 3.62012 128.266 5.70605V10.2676C128.266 11.3926 127.785 11.9551 126.824 11.9551C126.186 11.7969 125.866 11.3164 125.866 10.5137V8.10547C125.866 7.78906 125.705 7.63086 125.383 7.63086H124.908C123.9 7.63086 122.696 7.70996 121.296 7.86816C120.019 7.7627 119.38 7.60156 119.38 7.38477L118.896 6.66406C118.896 5.76758 119.298 5.20801 120.101 4.98535C121.378 5.09082 122.017 5.24902 122.017 5.45996L122.5 5.22266H125.383L125.866 5.45996C125.866 3.53809 126.268 2.57715 127.07 2.57715H127.308ZM119.134 13.3965H124.662C125.787 13.3965 126.35 14.5186 126.35 16.7627V17.9668C126.35 19.0039 124.507 19.6426 120.821 19.8828C120.821 20.1348 121.141 20.457 121.779 20.8496H125.866C126.188 20.8965 126.35 21.0576 126.35 21.333C126.35 22.7744 125.146 23.4951 122.737 23.4951C119.854 23.4951 118.413 22.1328 118.413 19.4082C119.058 17.9668 120.499 17.2461 122.737 17.2461C123.54 17.2461 123.941 17.085 123.941 16.7627V16.2793C123.941 15.957 123.78 15.7959 123.458 15.7959H123.221C122.295 15.7959 121.015 15.8779 119.38 16.042C118.647 15.7314 118.246 15.4092 118.176 15.0752V14.3545C118.176 14.1084 118.495 13.7891 119.134 13.3965Z" fill="#222222"/>
</svg>
