<svg width="114" height="26" viewBox="0 0 114 26" fill="none" xmlns="http://www.w3.org/2000/svg">
<path d="M1.24805 1.88086C5.25586 2.39648 7.25977 2.71582 7.25977 2.83887L7.74316 2.60156H9.66797C11.9121 3.02344 13.0342 4.86621 13.0342 8.12988C12.7236 8.8623 12.4043 9.26367 12.0762 9.33398H11.5928C11.0127 9.33398 10.5322 7.89258 10.1514 5.00977C9.8291 5.00977 9.66797 4.92773 9.66797 4.76367L9.18457 5.00977H8.94727C8.7832 5.00977 8.70117 4.92773 8.70117 4.76367C7.74023 4.97461 7.25977 5.21484 7.25977 5.48438V8.37598C7.25977 9.33691 6.7793 9.81738 5.81836 9.81738C5.17969 9.2373 4.86035 8.5957 4.86035 7.89258V4.76367C1.97168 4.44727 0.527344 4.04883 0.527344 3.56836V2.11816C0.697266 2.11816 0.9375 2.03906 1.24805 1.88086ZM2.45215 10.7842C3.2959 10.9424 3.77637 11.0215 3.89355 11.0215C8.82129 10.8633 12.1904 10.7842 14.001 10.7842L14.7217 11.7422V12.4629C14.7217 12.6914 14.4814 12.9316 14.001 13.1836H9.43066V13.9043L9.66797 15.5918H11.1094C12.3926 15.5918 13.0342 16.3125 13.0342 17.7539V19.1953C13.0342 21.123 10.9512 22.0869 6.78516 22.0869V22.5615C8.60742 22.8838 9.8877 23.0449 10.626 23.0449H12.0762C12.3047 23.0449 12.5449 23.2852 12.7969 23.7656V24.0117C12.2988 24.9727 11.335 25.4531 9.90527 25.4531C7.11035 25.4531 5.18555 24.249 4.13086 21.8408C4.53516 20.5576 5.33789 19.916 6.53906 19.916C9.18164 19.7578 10.626 19.2773 10.8721 18.4746V17.7539C7.24512 17.918 4.99805 18 4.13086 18L3.41016 17.0332L3.65625 15.8291H6.30176L7.50586 15.5918L7.25977 15.1084V13.4297H5.09766C2.85352 13.4297 1.73145 12.8672 1.73145 11.7422L2.45215 10.7842ZM16.165 2.60156L17.3691 3.32227C19.2852 3 20.7266 2.83887 21.6934 2.83887C23.6211 3.10254 24.585 4.38574 24.585 6.68848C24.585 10.5381 23.8613 12.4629 22.4141 12.4629C21.4121 12.6211 20.29 12.7002 19.0479 12.7002C17.126 12.7002 16.165 11.5781 16.165 9.33398C15.3623 6.82617 14.9609 4.82227 14.9609 3.32227V2.83887L16.165 2.60156ZM29.3926 2.83887C29.8203 2.8916 30.2217 3.29297 30.5967 4.04297L30.3506 5.24707V7.65527C31.124 7.65527 32.4072 7.81348 34.2002 8.12988V9.81738L32.9961 10.0547H30.3506V10.3008C30.5146 11.4434 30.5967 12.085 30.5967 12.2256C30.4326 12.5361 30.3506 12.7764 30.3506 12.9463C30.5146 13.2568 30.5967 13.4971 30.5967 13.667C30.374 14.4697 29.8115 14.8711 28.9092 14.8711C28.5811 14.8008 28.2617 14.3994 27.9512 13.667C28.1094 12.7998 28.1885 12.0791 28.1885 11.5049V11.2588L27.9512 10.0547H28.1885L27.9512 9.58008V5.96777C27.9512 3.88184 28.2705 2.83887 28.9092 2.83887H29.3926ZM17.6064 5.73047V5.96777C18.1455 8.04199 18.5469 9.4043 18.8105 10.0547L19.7686 10.3008C21.2158 10.2012 21.9395 10.04 21.9395 9.81738C21.9395 9.43066 22.0186 8.22949 22.1768 6.21387L21.6934 5.24707C19.8418 5.56934 18.4795 5.73047 17.6064 5.73047ZM24.8223 15.3457C25.4609 15.5098 25.7803 15.9932 25.7803 16.7959L25.543 18C28.1094 19.7637 29.3926 20.9648 29.3926 21.6035L28.4346 22.8076C27.5029 22.8076 26.2988 22.0049 24.8223 20.3994C24.5 20.3994 24.3389 20.4814 24.3389 20.6455C24.0225 22.2451 23.6211 23.0449 23.1348 23.0449H22.1768C21.6963 22.8867 21.4561 22.4062 21.4561 21.6035C22.7861 17.9648 23.668 15.8789 24.1016 15.3457H24.8223ZM46.166 0.949219C46.6465 1.42969 47.0479 2.54883 47.3701 4.30664C48.3311 4.48828 48.8115 4.88965 48.8115 5.51074C48.4893 6.8291 48.3281 7.70801 48.3281 8.14746C48.5449 8.14746 49.4268 9.0293 50.9736 10.793C50.9736 11.7539 50.2529 12.2344 48.8115 12.2344H48.5742C48.5742 12 48.0117 11.4404 46.8867 10.5557H46.6494C46.374 11.9971 45.6533 12.7178 44.4873 12.7178H43.7666L43.5293 11.751C44.0449 10.5205 44.8447 8.9209 45.9287 6.95215H45.6914C45.2754 6.95215 43.834 7.27148 41.3672 7.91016L40.6465 6.95215V6.71484C40.6465 5.88281 41.9268 5.24121 44.4873 4.79004V3.34863C44.4873 1.74902 45.0469 0.949219 46.166 0.949219ZM54.3311 3.11133H55.2979C55.8838 3.11133 56.3613 4.15137 56.7305 6.23145H56.4932C56.6514 6.5127 56.7305 6.83203 56.7305 7.18945H59.376C60.4951 7.18945 61.0547 7.66992 61.0547 8.63086C60.3633 9.26953 59.083 9.58887 57.2139 9.58887H56.9766V10.5557L57.2139 13.4385C56.5459 14.0771 55.7461 14.3965 54.8145 14.3965L53.8564 3.83203C54.1729 3.83203 54.3311 3.5918 54.3311 3.11133ZM54.5771 14.8711V15.1172L55.0518 14.8711H55.2979C55.5088 14.8711 55.9072 15.2725 56.4932 16.0752L56.2559 17.7539C58.4941 19.3594 59.6133 20.6396 59.6133 21.5947C59.2266 21.917 58.4268 22.1572 57.2139 22.3154C57.2139 22.1572 56.5752 21.5186 55.2979 20.3994C54.2959 21.8408 53.6543 22.5615 53.373 22.5615H51.9316C51.9316 22.3916 51.8525 22.1514 51.6943 21.8408L53.8564 17.5166H53.6104L49.2949 18.2373L48.8115 17.5166C48.8115 16.0107 50.7334 15.1289 54.5771 14.8711ZM72.8252 5.73926C73.9443 5.73926 74.5039 6.70313 74.5039 8.63086V10.3096C76.9121 10.3096 78.1162 10.79 78.1162 11.751V12.2344C77.4717 12.5566 77.1494 12.7969 77.1494 12.9551L75.9453 12.7178H74.75L74.9873 13.9131V17.042C74.9873 17.2705 74.7471 17.5107 74.2666 17.7627H73.3086C72.7051 17.7627 72.3037 14.3174 72.1045 7.42676C71.9404 7.42676 71.8584 7.34473 71.8584 7.18066C72.1865 6.21973 72.5088 5.73926 72.8252 5.73926ZM64.6514 6.70605C65.0088 6.70605 65.3281 6.78516 65.6094 6.94336C65.8906 6.78516 66.2129 6.70605 66.5762 6.70605C68.1113 6.70605 69.2334 7.90723 69.9424 10.3096V11.5137C69.7373 14.2383 68.6943 15.6006 66.8135 15.6006H65.3721C62.6475 14.5811 61.2852 13.1367 61.2852 11.2676C61.2852 8.70703 62.2461 7.18652 64.168 6.70605H64.6514ZM63.6934 10.3096V10.793C63.6934 12.1113 64.5723 12.9932 66.3301 13.4385C67.0625 13.1279 67.4639 12.8057 67.5342 12.4717V10.0723C67.5342 9.52148 66.6523 9.04102 64.8887 8.63086C64.0918 8.85352 63.6934 9.41309 63.6934 10.3096ZM87.208 2.85645C88.0107 2.95605 88.4121 3.43652 88.4121 4.29785L88.166 5.98535C91.6934 7.93652 93.457 9.1377 93.457 9.58887V10.0723C93.2988 10.5527 92.8184 10.793 92.0156 10.793C91.4766 10.793 89.9531 9.99023 87.4453 8.38477C87.4453 10.3066 86.8857 11.2676 85.7666 11.2676H85.0459C84.7236 11.2676 84.5625 11.1094 84.5625 10.793C84.5625 9.50391 85.1221 7.09863 86.2412 3.57715C86.083 3.57715 86.0039 3.49805 86.0039 3.33984C86.2852 3.33984 86.6865 3.17871 87.208 2.85645ZM90.0908 12.4717H90.8115C91.1689 12.4717 91.4912 13.2744 91.7783 14.8799H91.5322C91.5322 17.124 91.9336 18.2461 92.7363 18.2461C93.3691 18.4043 93.9287 18.4834 94.415 18.4834C94.4971 18.4834 94.8193 18.4043 95.3818 18.2461C96.3428 18.4453 96.8232 19.166 96.8232 20.4082C96.2959 20.7246 95.8154 20.8828 95.3818 20.8828H91.2949C91.1309 20.8828 91.0488 20.8037 91.0488 20.6455L90.5742 20.8828H86.2412C85.415 20.8828 84.9346 20.6426 84.7998 20.1621V19.2041C84.7998 18.9521 85.1221 18.6328 85.7666 18.2461H89.6074C89.4492 17.3672 89.3701 15.6035 89.3701 12.9551L90.0908 12.4717ZM100.429 2.61914C101.39 2.71875 101.87 2.95898 101.87 3.33984V3.82324C101.39 5.24707 101.149 6.04688 101.149 6.22266C103.394 8.5957 104.516 10.1191 104.516 10.793C104.193 11.5898 103.713 11.9883 103.074 11.9883C102.805 11.9883 101.762 10.8691 99.9453 8.63086C99.4355 10.5527 98.9551 11.5137 98.5039 11.5137H97.2998L97.0625 10.3096C98.5625 5.18262 99.6846 2.61914 100.429 2.61914ZM112.206 3.57715C112.733 3.57715 113.053 4.62012 113.164 6.70605V11.2676C113.164 12.3926 112.684 12.9551 111.723 12.9551C111.084 12.7969 110.765 12.3164 110.765 11.5137V9.10547C110.765 8.78906 110.604 8.63086 110.281 8.63086H109.807C108.799 8.63086 107.595 8.70996 106.194 8.86816C104.917 8.7627 104.278 8.60156 104.278 8.38477L103.795 7.66406C103.795 6.76758 104.196 6.20801 104.999 5.98535C106.276 6.09082 106.915 6.24902 106.915 6.45996L107.398 6.22266H110.281L110.765 6.45996C110.765 4.53809 111.166 3.57715 111.969 3.57715H112.206ZM104.032 14.3965H109.561C110.686 14.3965 111.248 15.5186 111.248 17.7627V18.9668C111.248 20.0039 109.405 20.6426 105.72 20.8828C105.72 21.1348 106.039 21.457 106.678 21.8496H110.765C111.087 21.8965 111.248 22.0576 111.248 22.333C111.248 23.7744 110.044 24.4951 107.636 24.4951C104.753 24.4951 103.312 23.1328 103.312 20.4082C103.956 18.9668 105.397 18.2461 107.636 18.2461C108.438 18.2461 108.84 18.085 108.84 17.7627V17.2793C108.84 16.957 108.679 16.7959 108.356 16.7959H108.119C107.193 16.7959 105.913 16.8779 104.278 17.042C103.546 16.7314 103.145 16.4092 103.074 16.0752V15.3545C103.074 15.1084 103.394 14.7891 104.032 14.3965Z" fill="#222222"/>
</svg>
