<svg width="130" height="25" viewBox="0 0 130 25" fill="none" xmlns="http://www.w3.org/2000/svg">
<path d="M1.24805 0.880859C5.25586 1.39648 7.25977 1.71582 7.25977 1.83887L7.74316 1.60156H9.66797C11.9121 2.02344 13.0342 3.86621 13.0342 7.12988C12.7236 7.8623 12.4043 8.26367 12.0762 8.33398H11.5928C11.0127 8.33398 10.5322 6.89258 10.1514 4.00977C9.8291 4.00977 9.66797 3.92773 9.66797 3.76367L9.18457 4.00977H8.94727C8.7832 4.00977 8.70117 3.92773 8.70117 3.76367C7.74023 3.97461 7.25977 4.21484 7.25977 4.48438V7.37598C7.25977 8.33691 6.7793 8.81738 5.81836 8.81738C5.17969 8.2373 4.86035 7.5957 4.86035 6.89258V3.76367C1.97168 3.44727 0.527344 3.04883 0.527344 2.56836V1.11816C0.697266 1.11816 0.9375 1.03906 1.24805 0.880859ZM2.45215 9.78418C3.2959 9.94238 3.77637 10.0215 3.89355 10.0215C8.82129 9.86328 12.1904 9.78418 14.001 9.78418L14.7217 10.7422V11.4629C14.7217 11.6914 14.4814 11.9316 14.001 12.1836H9.43066V12.9043L9.66797 14.5918H11.1094C12.3926 14.5918 13.0342 15.3125 13.0342 16.7539V18.1953C13.0342 20.123 10.9512 21.0869 6.78516 21.0869V21.5615C8.60742 21.8838 9.8877 22.0449 10.626 22.0449H12.0762C12.3047 22.0449 12.5449 22.2852 12.7969 22.7656V23.0117C12.2988 23.9727 11.335 24.4531 9.90527 24.4531C7.11035 24.4531 5.18555 23.249 4.13086 20.8408C4.53516 19.5576 5.33789 18.916 6.53906 18.916C9.18164 18.7578 10.626 18.2773 10.8721 17.4746V16.7539C7.24512 16.918 4.99805 17 4.13086 17L3.41016 16.0332L3.65625 14.8291H6.30176L7.50586 14.5918L7.25977 14.1084V12.4297H5.09766C2.85352 12.4297 1.73145 11.8672 1.73145 10.7422L2.45215 9.78418ZM20.2432 1.14453C21.2041 1.30859 21.6846 1.70996 21.6846 2.34863C21.2041 3.40918 20.9639 4.12988 20.9639 4.51074V4.74805C22.7275 5.75 23.6094 6.71094 23.6094 7.63086V7.86816C23.5039 8.34863 22.8623 8.58887 21.6846 8.58887C21.6846 8.36621 21.2041 7.88574 20.2432 7.14746C20.2432 7.9502 19.7627 8.6709 18.8018 9.30957H18.3184C18.0078 9.30957 17.6885 8.8291 17.3604 7.86816C18.1631 5.43066 18.5645 3.99219 18.5645 3.55273H18.3184L15.6816 4.27344C15.6113 3.4707 15.3711 3.06934 14.9609 3.06934C14.9609 2.03223 16.7217 1.39062 20.2432 1.14453ZM26.7295 1.39062H27.2041C27.6846 1.54883 27.9248 2.0293 27.9248 2.83203C27.6084 3.35352 27.4502 3.83398 27.4502 4.27344V4.51074C30.1689 5.36621 31.5283 6.32715 31.5283 7.39355L30.3242 8.11426H30.0869C29.7002 8.11426 28.6602 7.71289 26.9668 6.91016C26.9668 7.90625 26.5654 8.54785 25.7627 8.83496H25.2881C24.7666 8.83496 24.4443 7.95313 24.3213 6.18945C24.3213 5.94922 24.4824 5.22852 24.8047 4.02734C23.8965 4.19141 23.0967 4.27344 22.4053 4.27344C22.4053 4.10937 22.2441 4.02734 21.9219 4.02734C21.9219 3.86914 22.0039 3.79004 22.168 3.79004L21.9219 3.30664C22.5137 2.0293 24.1162 1.39062 26.7295 1.39062ZM29.8496 11.7178V12.1924H30.0869V11.4717C31.5283 11.4717 32.249 12.0312 32.249 13.1504C31.6631 13.6309 31.1035 13.8711 30.5703 13.8711H27.4502C27.7666 15.2363 27.9248 16.0391 27.9248 16.2793C27.251 16.918 26.6123 17.2373 26.0088 17.2373C25.5283 16.2061 25.2881 15.4062 25.2881 14.8379V14.3545C24.8076 14.3545 24.5674 14.2754 24.5674 14.1172L24.084 14.3545H20.9639C20.7354 14.3545 20.4951 14.1143 20.2432 13.6338V12.9131C20.2432 12.4912 20.8027 12.1719 21.9219 11.9551V12.1924C22.2324 12.0342 22.4727 11.9551 22.6426 11.9551C24.582 11.7969 26.9844 11.7178 29.8496 11.7178ZM28.1709 17.958C29.6064 17.958 30.3242 19.7188 30.3242 23.2402L28.8916 24.1982H28.4082C27.9277 23.1377 27.6084 21.9365 27.4502 20.5947C26.8057 20.5947 26.4834 20.5156 26.4834 20.3574C26.3252 20.5156 25.2852 20.6768 23.3633 20.8408C23.0469 20.1846 22.8887 19.7041 22.8887 19.3994C22.8887 18.9189 24.6494 18.4385 28.1709 17.958ZM35.8545 2.10254H36.0918C37.2109 2.10254 37.7705 3.22461 37.7705 5.46875C37.9346 5.46875 38.0166 5.94922 38.0166 6.91016H39.9326C41.4443 6.91016 42.5664 7.22949 43.2988 7.86816C43.2988 8.9873 42.8184 9.54688 41.8574 9.54688H40.416C40.7734 10.0566 41.0928 10.8594 41.374 11.9551C41.1982 14.1992 40.1582 15.3213 38.2539 15.3213H37.7705C36.4932 15.3213 35.374 14.4395 34.4131 12.6758V10.9971L34.6504 9.79297H33.6924L32.4883 9.54688V8.82617C32.4883 7.70703 33.5283 7.14746 35.6084 7.14746C35.292 5.38965 35.1338 4.18848 35.1338 3.54395C35.292 2.58301 35.5322 2.10254 35.8545 2.10254ZM46.9023 4.74805H47.623C48.2617 4.74805 48.6631 6.10742 48.8271 8.82617L50.9893 8.35156C52.1084 8.50977 52.668 8.75 52.668 9.07227V9.79297C52.668 10.5371 51.4668 11.0176 49.0645 11.2344C49.1816 11.5215 49.3428 12.6436 49.5479 14.6006C49.2373 15.3271 48.915 15.7256 48.5811 15.7959H47.3857C46.9053 14.4365 46.665 13.4756 46.665 12.9131H46.9023C46.7441 12.3799 46.4248 10.1387 45.9443 6.18945C46.2666 5.22852 46.5859 4.74805 46.9023 4.74805ZM36.8125 10.5137C36.6543 10.8242 36.5752 11.0645 36.5752 11.2344C36.8916 12.1016 37.3721 12.6611 38.0166 12.9131C38.4971 12.7549 38.7373 12.5967 38.7373 12.4385C38.6201 11.1553 37.9785 10.5137 36.8125 10.5137ZM42.3408 16.7627H43.0615C43.7588 16.7627 44.1572 18.1221 44.2568 20.8408C44.6553 20.8408 45.8564 20.6826 47.8604 20.3662C48.6631 20.6826 49.0645 20.9229 49.0645 21.0869C49.0645 22.5283 47.3828 23.249 44.0195 23.249H43.5361C42.2588 23.249 41.6201 21.7256 41.6201 18.6787V18.4414C41.7256 17.3223 41.9658 16.7627 42.3408 16.7627ZM64.6338 2.33984L65.3545 3.30664V3.78125C65.3545 3.94531 65.2725 4.02734 65.1084 4.02734L65.3545 4.50195V7.38477L66.7959 7.86816V9.79297C66.7959 9.95703 68.0762 10.7568 70.6367 12.1924C70.2852 13.1533 69.4854 13.6338 68.2373 13.6338L66.7959 12.9131L66.3125 13.1592C66.0312 12.9951 65.7119 12.9131 65.3545 12.9131C65.3545 14.0029 64.792 14.8848 63.667 15.5586H63.1924C62.958 15.5586 62.7178 15.3184 62.4717 14.8379V14.6006C62.4717 14.1084 63.0312 12.5059 64.1504 9.79297H63.9131C63.5498 9.91016 62.5068 10.0713 60.7842 10.2764V10.0303L60.3096 10.2764H60.0635C59.4248 9.9541 59.1055 9.71094 59.1055 9.54688C59.1055 8.42773 59.665 7.86816 60.7842 7.86816H62.4717C62.7881 7.86816 62.9463 7.70703 62.9463 7.38477C62.7881 5.79102 62.709 4.58984 62.709 3.78125C62.9141 3.78125 63.3154 3.38281 63.9131 2.58594C64.2236 2.42187 64.4639 2.33984 64.6338 2.33984ZM77.123 7.63086C77.8906 7.63086 78.6113 10.833 79.2852 17.2373C79.4492 17.2373 79.5312 17.5596 79.5312 18.2041C79.5312 19.165 78.8896 19.7246 77.6064 19.8828H77.3691C76.6895 19.8828 76.0479 16.1973 75.4443 8.82617C75.667 8.0293 76.2266 7.63086 77.123 7.63086ZM67.7539 14.6006C68.2344 15.4092 68.6357 16.7686 68.958 18.6787C69.1162 18.6787 69.1953 18.7607 69.1953 18.9248L69.6787 18.6787H72.7988C72.7988 18.9307 72.96 19.2529 73.2822 19.6455L72.7988 20.3662C72.957 20.3662 73.0361 20.4453 73.0361 20.6035C72.79 20.6035 72.4707 20.7646 72.0781 21.0869H71.3574C70.4609 21.0869 67.8975 21.2451 63.667 21.5615L63.4297 21.0869V20.8408C63.4297 19.7217 64.3906 19.1621 66.3125 19.1621L65.8291 16.042C66.0752 15.0811 66.7168 14.6006 67.7539 14.6006ZM82.6445 2.10254H83.1279C83.7666 2.41895 84.0859 2.89941 84.0859 3.54395C83.7695 4.74512 83.6113 5.46582 83.6113 5.70605C85.1934 6.81934 86.7139 8.33984 88.1729 10.2676C87.8506 11.2344 87.5312 11.7178 87.2148 11.7178H86.7314C86.4033 11.7178 85.2021 10.5137 83.1279 8.10547H82.8906C82.3047 10.3379 81.8213 11.46 81.4404 11.4717H81.2031C80.2422 11.4717 79.7617 11.1523 79.7617 10.5137C81.1035 4.90625 82.0645 2.10254 82.6445 2.10254ZM92.2598 3.78125H92.7432C93.3818 3.78125 93.7832 5.22266 93.9473 8.10547C93.7832 8.41602 93.7012 8.65625 93.7012 8.82617C93.8652 9.13672 93.9473 9.37695 93.9473 9.54688H93.7012C93.8242 9.91016 93.9854 10.9531 94.1846 12.6758C93.8623 13.1973 93.7012 13.5986 93.7012 13.8799H93.2266C92.1016 13.8799 91.5391 12.916 91.5391 10.9883V6.18066C91.5391 5.82324 91.46 5.50391 91.3018 5.22266C91.6768 4.26172 91.9961 3.78125 92.2598 3.78125ZM86.0107 14.8379C86.708 14.8379 87.2705 15.96 87.6982 18.2041C88.0146 18.2041 88.1729 18.2832 88.1729 18.4414L88.6562 18.2041C88.8145 18.2041 88.8936 18.2832 88.8936 18.4414L89.377 18.2041H92.0225C92.5029 18.3623 92.7432 18.8428 92.7432 19.6455C92.585 20.126 92.4238 20.3662 92.2598 20.3662C91.7793 20.3662 90.7393 20.5273 89.1396 20.8496C86.415 20.8496 85.0527 19.8066 85.0527 17.7207V16.2793C85.0527 15.3184 85.3721 14.8379 86.0107 14.8379ZM103.276 1.85645C104.079 1.95605 104.48 2.43652 104.48 3.29785L104.234 4.98535C107.762 6.93652 109.525 8.1377 109.525 8.58887V9.07227C109.367 9.55273 108.887 9.79297 108.084 9.79297C107.545 9.79297 106.021 8.99023 103.514 7.38477C103.514 9.30664 102.954 10.2676 101.835 10.2676H101.114C100.792 10.2676 100.631 10.1094 100.631 9.79297C100.631 8.50391 101.19 6.09863 102.31 2.57715C102.151 2.57715 102.072 2.49805 102.072 2.33984C102.354 2.33984 102.755 2.17871 103.276 1.85645ZM106.159 11.4717H106.88C107.237 11.4717 107.56 12.2744 107.847 13.8799H107.601C107.601 16.124 108.002 17.2461 108.805 17.2461C109.438 17.4043 109.997 17.4834 110.483 17.4834C110.565 17.4834 110.888 17.4043 111.45 17.2461C112.411 17.4453 112.892 18.166 112.892 19.4082C112.364 19.7246 111.884 19.8828 111.45 19.8828H107.363C107.199 19.8828 107.117 19.8037 107.117 19.6455L106.643 19.8828H102.31C101.483 19.8828 101.003 19.6426 100.868 19.1621V18.2041C100.868 17.9521 101.19 17.6328 101.835 17.2461H105.676C105.518 16.3672 105.438 14.6035 105.438 11.9551L106.159 11.4717ZM116.497 1.61914C117.458 1.71875 117.938 1.95898 117.938 2.33984V2.82324C117.458 4.24707 117.218 5.04688 117.218 5.22266C119.462 7.5957 120.584 9.11914 120.584 9.79297C120.262 10.5898 119.781 10.9883 119.143 10.9883C118.873 10.9883 117.83 9.86914 116.014 7.63086C115.504 9.55273 115.023 10.5137 114.572 10.5137H113.368L113.131 9.30957C114.631 4.18262 115.753 1.61914 116.497 1.61914ZM128.274 2.57715C128.802 2.57715 129.121 3.62012 129.232 5.70605V10.2676C129.232 11.3926 128.752 11.9551 127.791 11.9551C127.152 11.7969 126.833 11.3164 126.833 10.5137V8.10547C126.833 7.78906 126.672 7.63086 126.35 7.63086H125.875C124.867 7.63086 123.663 7.70996 122.263 7.86816C120.985 7.7627 120.347 7.60156 120.347 7.38477L119.863 6.66406C119.863 5.76758 120.265 5.20801 121.067 4.98535C122.345 5.09082 122.983 5.24902 122.983 5.45996L123.467 5.22266H126.35L126.833 5.45996C126.833 3.53809 127.234 2.57715 128.037 2.57715H128.274ZM120.101 13.3965H125.629C126.754 13.3965 127.316 14.5186 127.316 16.7627V17.9668C127.316 19.0039 125.474 19.6426 121.788 19.8828C121.788 20.1348 122.107 20.457 122.746 20.8496H126.833C127.155 20.8965 127.316 21.0576 127.316 21.333C127.316 22.7744 126.112 23.4951 123.704 23.4951C120.821 23.4951 119.38 22.1328 119.38 19.4082C120.024 17.9668 121.466 17.2461 123.704 17.2461C124.507 17.2461 124.908 17.085 124.908 16.7627V16.2793C124.908 15.957 124.747 15.7959 124.425 15.7959H124.188C123.262 15.7959 121.981 15.8779 120.347 16.042C119.614 15.7314 119.213 15.4092 119.143 15.0752V14.3545C119.143 14.1084 119.462 13.7891 120.101 13.3965Z" fill="#222222"/>
</svg>
