<svg width="176" height="29" viewBox="0 0 176 29" fill="none" xmlns="http://www.w3.org/2000/svg">
<path d="M6.58496 4.36035C7.27962 4.56087 8.27148 4.66113 9.56055 4.66113L10.1514 4.36035C11.9346 4.36035 12.8262 5.25195 12.8262 7.03516C13.0267 7.82292 13.127 8.51758 13.127 9.11914L12.8262 12.084H11.6445C11.2435 12.084 11.043 11.887 11.043 11.4932V9.11914L10.7529 6.14355H7.18652C7.37988 8.47103 7.47656 10.154 7.47656 11.1924L6.58496 11.7939C5.59668 11.7939 5.10254 9.91048 5.10254 6.14355H4.80176C4.09277 6.14355 3.20117 6.24382 2.12695 6.44434C1.13867 6.18652 0.644531 5.88932 0.644531 5.55273V4.95117L6.58496 4.36035ZM1.83691 13.8672C4.30762 14.2682 6.38802 14.4688 8.07812 14.4688H9.86133C10.3053 14.4688 10.6992 14.3685 11.043 14.168C12.8262 14.4043 13.7178 14.7015 13.7178 15.0596V15.3604C13.7178 15.7542 13.5208 15.9512 13.127 15.9512H10.7529L10.4521 17.4336V18.0352C10.5166 18.429 10.7135 18.626 11.043 18.626H12.8262C13.2272 20.3232 13.4277 21.8092 13.4277 23.084C12.6973 23.6784 12.0026 23.9756 11.3438 23.9756H10.7529C9.70736 23.9756 8.02083 23.8753 5.69336 23.6748L6.29492 26.3496H7.77734C7.97786 26.3496 8.07812 26.4499 8.07812 26.6504L8.66895 26.3496H12.2354V27.832L10.1514 28.1328H8.07812C5.5 28.1328 4.21094 27.4382 4.21094 26.0488C4.01042 25.3327 3.91016 24.2441 3.91016 22.7832L4.51172 22.4824C5.89388 22.4824 8.07096 22.5827 11.043 22.7832L11.3438 22.1924V20.4092H10.7529C6.25553 20.4092 3.87793 19.915 3.62012 18.9268V18.626L5.69336 18.3252L8.66895 18.626V15.9512C8.22493 15.9512 7.82747 16.0514 7.47656 16.252C3.31576 16.0085 1.23535 15.5107 1.23535 14.7588V14.4688C1.2998 14.0677 1.50033 13.8672 1.83691 13.8672ZM25.8232 7.03516C26.6182 7.30013 27.0156 8.19173 27.0156 9.70996V13.5771H30.8721C31.266 13.5771 31.4629 13.3766 31.4629 12.9756V8.81836C31.5273 8.42448 31.7279 8.22754 32.0645 8.22754H32.3545C32.641 8.22754 32.9382 8.52474 33.2461 9.11914V11.4932C33.2461 12.7822 33.3464 14.7624 33.5469 17.4336H33.2461L33.5469 18.0352V22.4824C33.5469 22.8835 33.3499 23.084 32.9561 23.084C32.1611 22.8835 31.7637 22.2891 31.7637 21.3008V20.4092C31.7637 19.3708 31.6634 17.6878 31.4629 15.3604H27.6064L27.0156 15.0596C26.8151 18.0029 26.7148 19.9831 26.7148 21L26.124 21.3008H25.8232L24.9316 20.6992C25.1322 16.4453 25.2324 13.2764 25.2324 11.1924V9.11914L24.9316 7.62598L25.8232 7.03516ZM14.5332 8.22754H15.124C15.5179 8.22754 15.8151 9.01888 16.0156 10.6016C15.8151 11.9551 15.7148 13.0436 15.7148 13.8672V15.3604L16.0156 15.9512C16.3522 15.8008 17.541 15.6038 19.582 15.3604V15.6504L20.1729 15.3604H22.2568C22.5433 15.3604 22.8405 15.6576 23.1484 16.252V16.542C23.1484 16.943 20.8711 17.3405 16.3164 17.7344C14.9271 17.3835 14.2324 16.986 14.2324 16.542V9.70996L14.5332 8.22754ZM46.0928 6.90625C46.6012 6.90625 47.1885 8.66797 47.8545 12.1914C48.3271 12.1914 49.7952 12.0947 52.2588 11.9014C52.6455 12.5316 52.8389 13.0186 52.8389 13.3623L52.2588 13.6631H48.4346C48.0479 13.6631 47.8545 13.9567 47.8545 14.5439C48.0479 17.3727 48.1445 18.9375 48.1445 19.2383H47.2637C46.6764 19.0449 46.3828 18.4577 46.3828 17.4766V16.5957C46.3828 16.4023 46.4795 16.3057 46.6729 16.3057C46.3363 14.7445 45.946 11.708 45.502 7.19629L46.0928 6.90625ZM34.0508 8.07715H40.5068C40.9007 9.73145 41.0977 11.887 41.0977 14.5439V19.2383C41.0977 19.6322 40.9007 19.8291 40.5068 19.8291C40.2275 19.8291 39.9339 19.5355 39.626 18.9482V13.3623L39.3359 11.6006L39.626 11.0205C39.4326 10.7269 39.3359 10.1361 39.3359 9.24805L38.7451 9.54883H36.4033C34.9567 9.54883 34.1725 9.25521 34.0508 8.66797V8.07715ZM63.1387 0.804688H63.7188C67.1706 3.46159 69.4157 5.61003 70.4541 7.25C70.4541 7.55078 70.0638 7.94108 69.2832 8.4209C69.0612 8.4209 68.3773 7.73698 67.2314 6.36914L64.3096 3.7373C63.5146 7.43978 62.5371 9.29102 61.377 9.29102C60.9974 9.09766 60.7038 9.00098 60.4961 9.00098C61.8639 4.97624 62.5479 2.3444 62.5479 1.10547L63.1387 0.804688ZM65.4805 8.71094H66.6514C67.2887 8.71094 67.679 10.0752 67.8223 12.8037C67.6217 12.8037 67.5215 12.904 67.5215 13.1045H68.6924C69.3942 13.1045 70.2715 13.0042 71.3242 12.8037C71.7038 13.0042 71.9974 13.1045 72.2051 13.1045V13.9746C72.2051 14.5618 71.8148 14.8555 71.0342 14.8555C68.6064 14.8555 65.681 15.0524 62.2578 15.4463C60.6966 15.2458 59.916 14.9521 59.916 14.5654V14.2754C59.916 13.6882 61.7708 13.3945 65.4805 13.3945V8.71094ZM67.5215 16.9072V17.1973L68.1123 16.9072H68.9824C69.763 17.165 70.1533 18.0423 70.1533 19.5391V21C66.4508 21 64.5996 21.7806 64.5996 23.3418V24.2227H64.8896C66.8734 24.2227 69.2152 24.0257 71.915 23.6318C72.2588 23.8324 72.6491 23.9326 73.0859 23.9326L72.7959 25.3936C69.0433 25.7803 66.4079 25.9736 64.8896 25.9736H64.5996C63.6758 25.9736 62.9919 25.6836 62.5479 25.1035C62.5479 21.9811 63.0348 20.4199 64.0088 20.4199C65.0257 20.4199 66.3936 20.223 68.1123 19.8291C67.9189 19.4854 67.8223 19.0951 67.8223 18.6582L63.7188 19.249V18.9482L63.1387 19.249H62.5479C62.2686 19.249 61.9749 18.9554 61.667 18.3682V18.0781C61.667 17.6842 63.6185 17.2939 67.5215 16.9072ZM76.8125 0.804688H77.3926C80.8444 3.46159 83.0895 5.61003 84.1279 7.25C84.1279 7.55078 83.7376 7.94108 82.957 8.4209C82.735 8.4209 82.0511 7.73698 80.9053 6.36914L77.9834 3.7373C77.1885 7.43978 76.2109 9.29102 75.0508 9.29102C74.6712 9.09766 74.3776 9.00098 74.1699 9.00098C75.5378 4.97624 76.2217 2.3444 76.2217 1.10547L76.8125 0.804688ZM79.1543 8.71094H80.3252C80.9626 8.71094 81.3529 10.0752 81.4961 12.8037C81.2956 12.8037 81.1953 12.904 81.1953 13.1045H82.3662C83.068 13.1045 83.9453 13.0042 84.998 12.8037C85.3776 13.0042 85.6712 13.1045 85.8789 13.1045V13.9746C85.8789 14.5618 85.4886 14.8555 84.708 14.8555C82.2803 14.8555 79.3548 15.0524 75.9316 15.4463C74.3704 15.2458 73.5898 14.9521 73.5898 14.5654V14.2754C73.5898 13.6882 75.4447 13.3945 79.1543 13.3945V8.71094ZM81.1953 16.9072V17.1973L81.7861 16.9072H82.6562C83.4368 17.165 83.8271 18.0423 83.8271 19.5391V21C80.1247 21 78.2734 21.7806 78.2734 23.3418V24.2227H78.5635C80.5472 24.2227 82.889 24.0257 85.5889 23.6318C85.9326 23.8324 86.3229 23.9326 86.7598 23.9326L86.4697 25.3936C82.7171 25.7803 80.0817 25.9736 78.5635 25.9736H78.2734C77.3496 25.9736 76.6657 25.6836 76.2217 25.1035C76.2217 21.9811 76.7087 20.4199 77.6826 20.4199C78.6995 20.4199 80.0674 20.223 81.7861 19.8291C81.5928 19.4854 81.4961 19.0951 81.4961 18.6582L77.3926 19.249V18.9482L76.8125 19.249H76.2217C75.9424 19.249 75.6488 18.9554 75.3408 18.3682V18.0781C75.3408 17.6842 77.2923 17.2939 81.1953 16.9072ZM97.5332 13.6631H98.124C98.5107 13.6631 98.8044 14.4437 99.0049 16.0049C98.3031 17.96 97.1286 18.9375 95.4814 18.9375L90.4971 16.0049C89.1292 16.0049 88.1481 16.9824 87.5537 18.9375H87.2637V17.4766C87.2637 15.8366 88.4382 14.859 90.7871 14.5439C91.0592 14.5439 92.624 15.5215 95.4814 17.4766C96.8493 16.7962 97.5332 16.1123 97.5332 15.4248L97.2432 14.834C97.4365 14.4902 97.5332 14.0999 97.5332 13.6631ZM112.345 5.1875L112.946 6.0791V9.06543H115.03C115.431 9.12988 115.632 9.3304 115.632 9.66699C115.231 10.7555 115.03 11.8477 115.03 12.9434C116.878 13.7383 118.074 14.5332 118.618 15.3281V15.9297C118.403 15.9297 118.103 16.0299 117.716 16.2305L113.537 14.1357C112.499 16.5277 111.407 17.7236 110.261 17.7236L109.659 16.8213V16.5312C111.851 13.6595 112.946 11.7689 112.946 10.8594H107.876C106.845 10.8594 106.247 10.5586 106.082 9.95703V9.36621C106.297 9.36621 106.594 9.26595 106.974 9.06543C108.334 9.26595 109.43 9.36621 110.261 9.36621H110.562L111.152 9.06543C111.152 8.86491 111.052 8.76465 110.852 8.76465L111.152 6.68066V5.48828C111.253 5.48828 111.65 5.38802 112.345 5.1875ZM121.003 7.57227C121.69 7.57227 122.188 9.96061 122.496 14.7373C122.84 15.1742 123.334 17.8597 123.979 22.7939L123.388 23.0947H122.496C121.651 23.0947 120.656 18.0208 119.51 7.87305L121.003 7.57227ZM115.331 15.6289L115.632 16.2305V16.5312C115.632 16.9753 115.532 17.3727 115.331 17.7236L115.632 18.3145L115.331 18.916C115.532 19.2454 115.632 19.7432 115.632 20.4092H118.618C119.012 20.4665 119.209 20.6634 119.209 21V21.8916C117.44 22.2926 115.052 22.4932 112.044 22.4932H110.562L109.068 22.1924V21L112.044 20.6992V21C112.903 20.8711 113.501 20.4736 113.838 19.8076L113.537 19.2061V18.916C113.537 16.7246 114.035 15.6289 115.03 15.6289H115.331ZM128.876 5.19824C129.263 5.25553 129.456 5.44889 129.456 5.77832V6.94922C129.456 7.41471 129.166 8.29199 128.586 9.58105C131.164 11.1423 132.919 12.5101 133.85 13.6846C133.85 13.9639 133.556 14.2575 132.969 14.5654C131.694 14.0641 130.036 12.9899 127.995 11.3428C126.957 13.484 126.176 14.6549 125.653 14.8555H125.363C125.084 14.8555 124.79 14.5618 124.482 13.9746V13.6846C125.85 11.6006 127.021 8.77181 127.995 5.19824H128.876ZM136.492 5.19824H137.362C138.537 5.986 139.221 10.1826 139.414 17.7881H137.953C137.366 13.4411 136.682 9.34115 135.901 5.48828L136.492 5.19824ZM130.047 17.1973C131.415 17.9635 132.099 20.0117 132.099 23.3418H138.533C138.82 23.3418 139.113 23.6354 139.414 24.2227V24.8135L134.73 25.3936L133.27 25.1035L131.798 25.3936C130.437 25.3936 129.757 23.5387 129.757 19.8291C129.427 19.8291 129.23 19.1488 129.166 17.7881V17.4873C129.374 17.4873 129.667 17.3906 130.047 17.1973ZM151.164 5.48828H151.744C152.102 5.48828 152.593 6.36914 153.216 8.13086C154.147 8.13086 155.511 9.39844 157.309 11.9336V12.2236C157.309 12.5029 157.015 12.7965 156.428 13.1045H156.138C154.312 11.0778 152.847 9.80664 151.744 9.29102C150.333 12.8073 149.359 14.5654 148.822 14.5654H148.231C147.845 14.5654 147.651 14.3685 147.651 13.9746V13.6846L150.874 5.78906C150.874 5.58854 150.971 5.48828 151.164 5.48828ZM152.915 13.6846H153.506C153.785 13.6846 154.079 13.9782 154.387 14.5654V19.5391C157.015 19.3457 158.963 19.249 160.23 19.249C160.624 19.3063 160.821 19.4997 160.821 19.8291C160.821 21.0036 156.528 21.5908 147.941 21.5908H147.061C146.674 21.5908 146.48 21.3939 146.48 21V20.71C146.48 20.1227 148.042 19.8291 151.164 19.8291H151.744L152.335 19.5391L152.045 18.9482L152.335 17.7773L152.045 17.1973L152.335 16.6172L152.045 14.8555V14.5654C152.045 14.2861 152.335 13.9925 152.915 13.6846ZM166.02 4.31738C166.406 4.7972 166.6 5.1875 166.6 5.48828C166.213 7.05664 166.02 8.32422 166.02 9.29102C168.168 11.862 169.242 13.6201 169.242 14.5654L168.651 14.8555H167.771C167.312 13.6094 166.338 12.3418 164.849 11.0527C164.061 12.8861 163.184 14.057 162.217 14.5654C161.837 14.3721 161.544 14.2754 161.336 14.2754V13.9746C161.336 13.638 161.92 12.3704 163.087 10.1719L165.139 4.61816C165.518 4.41764 165.812 4.31738 166.02 4.31738ZM173.045 4.9082H173.625C174.09 4.9082 174.481 5.6888 174.796 7.25H174.506C174.893 8.1237 175.086 9.39128 175.086 11.0527V14.5654C175.086 15.611 174.696 16.2949 173.915 16.6172C173.636 16.6172 173.346 16.3236 173.045 15.7363V11.3428H170.402C168.913 11.3428 168.035 10.9525 167.771 10.1719L168.651 9.5918C170.599 9.78516 172.064 9.88184 173.045 9.88184V9.5918C172.844 9.39128 172.647 7.92676 172.454 5.19824L173.045 4.9082ZM167.771 16.6172H171.573C173.134 16.6172 174.015 17.6878 174.216 19.8291C174.015 20.8031 173.722 21.487 173.335 21.8809L170.402 21.5908H169.532L168.071 21.8809V23.6318H174.216V24.5127C174.216 24.971 173.532 25.2646 172.164 25.3936L171.573 25.1035L169.822 25.3936C167.287 25.3936 166.02 25.0033 166.02 24.2227V21.29C166.02 20.9033 166.313 20.71 166.9 20.71C167.552 20.71 169.21 20.6133 171.874 20.4199V18.3682H170.402L168.651 18.0781C168.308 18.2715 167.917 18.3682 167.48 18.3682V18.0781L166.9 18.3682H165.429C165.042 18.3682 164.849 18.1712 164.849 17.7773V16.9072L167.771 16.6172Z" fill="#222222"/>
</svg>
