<svg width="140" height="26" viewBox="0 0 140 26" fill="none" xmlns="http://www.w3.org/2000/svg">
<path d="M6.58496 1.36035C7.27962 1.56087 8.27148 1.66113 9.56055 1.66113L10.1514 1.36035C11.9346 1.36035 12.8262 2.25195 12.8262 4.03516C13.0267 4.82292 13.127 5.51758 13.127 6.11914L12.8262 9.08398H11.6445C11.2435 9.08398 11.043 8.88704 11.043 8.49316V6.11914L10.7529 3.14355H7.18652C7.37988 5.47103 7.47656 7.15397 7.47656 8.19238L6.58496 8.79395C5.59668 8.79395 5.10254 6.91048 5.10254 3.14355H4.80176C4.09277 3.14355 3.20117 3.24382 2.12695 3.44434C1.13867 3.18652 0.644531 2.88932 0.644531 2.55273V1.95117L6.58496 1.36035ZM1.83691 10.8672C4.30762 11.2682 6.38802 11.4688 8.07812 11.4688H9.86133C10.3053 11.4688 10.6992 11.3685 11.043 11.168C12.8262 11.4043 13.7178 11.7015 13.7178 12.0596V12.3604C13.7178 12.7542 13.5208 12.9512 13.127 12.9512H10.7529L10.4521 14.4336V15.0352C10.5166 15.429 10.7135 15.626 11.043 15.626H12.8262C13.2272 17.3232 13.4277 18.8092 13.4277 20.084C12.6973 20.6784 12.0026 20.9756 11.3438 20.9756H10.7529C9.70736 20.9756 8.02083 20.8753 5.69336 20.6748L6.29492 23.3496H7.77734C7.97786 23.3496 8.07812 23.4499 8.07812 23.6504L8.66895 23.3496H12.2354V24.832L10.1514 25.1328H8.07812C5.5 25.1328 4.21094 24.4382 4.21094 23.0488C4.01042 22.3327 3.91016 21.2441 3.91016 19.7832L4.51172 19.4824C5.89388 19.4824 8.07096 19.5827 11.043 19.7832L11.3438 19.1924V17.4092H10.7529C6.25553 17.4092 3.87793 16.915 3.62012 15.9268V15.626L5.69336 15.3252L8.66895 15.626V12.9512C8.22493 12.9512 7.82747 13.0514 7.47656 13.252C3.31576 13.0085 1.23535 12.5107 1.23535 11.7588V11.4688C1.2998 11.0677 1.50033 10.8672 1.83691 10.8672ZM16.0156 0.46875C21.3652 0.46875 24.04 0.962891 24.04 1.95117C24.4339 4.3431 24.6309 6.22656 24.6309 7.60156L24.3408 9.08398H23.1484C22.5111 9.08398 22.1136 6.80664 21.9561 2.25195C19.0199 2.05143 17.0397 1.95117 16.0156 1.95117L15.4248 1.05957C15.4821 0.66569 15.679 0.46875 16.0156 0.46875ZM27.0156 0.769531C27.9753 0.769531 28.6663 2.64941 29.0889 6.40918L33.5469 7.30078V8.19238C33.1029 8.19238 32.7054 8.29264 32.3545 8.49316C30.8577 8.29264 29.8695 8.0957 29.3896 7.90234V10.5771C29.3896 11.2861 29.4899 12.1777 29.6904 13.252C29.4899 13.6315 29.3896 13.9251 29.3896 14.1328H28.1973C27.6029 14.1328 27.1087 10.9639 26.7148 4.62598C26.4714 4.62598 26.2744 3.43717 26.124 1.05957C26.5036 0.866211 26.8008 0.769531 27.0156 0.769531ZM18.6904 5.81836H19.582C19.9759 5.81836 20.3734 7.7985 20.7744 11.7588H21.0645C22.819 11.5654 23.9111 11.4688 24.3408 11.4688C24.7204 11.6621 25.0176 11.7588 25.2324 11.7588V12.3604C25.2324 12.9548 23.9434 13.252 21.3652 13.252H17.208C15.2243 13.0013 14.2324 12.6038 14.2324 12.0596C14.2324 11.6657 14.5296 11.4688 15.124 11.4688L17.7988 11.7588C18.1855 11.5654 18.4827 11.4688 18.6904 11.4688C18.2965 10.4661 18.0996 8.68294 18.0996 6.11914L18.6904 5.81836ZM21.9561 16.5176H23.1484C23.5924 16.5176 23.9899 16.6143 24.3408 16.8076C24.5342 16.8076 24.6309 16.7109 24.6309 16.5176C27.4095 16.5176 28.7988 18.0036 28.7988 20.9756C28.7988 23.1527 27.2126 24.5384 24.04 25.1328C20.4736 24.6243 18.6904 22.9414 18.6904 20.084C19.3063 17.7064 20.3949 16.5176 21.9561 16.5176ZM22.5576 18.5908C22.1709 18.3975 21.8737 18.3008 21.666 18.3008C21.265 18.9453 21.0645 19.4395 21.0645 19.7832C21.0645 21.638 21.8594 22.9271 23.4492 23.6504C25.4258 23.6504 26.4141 22.5583 26.4141 20.374V20.084C26.4141 19.0885 25.9199 18.3939 24.9316 18C23.4421 18.3939 22.6507 18.5908 22.5576 18.5908ZM47.124 1.95117C48.1839 1.95117 48.8786 4.5293 49.208 9.68555V10.2764H49.7988C50.6224 10.2764 51.7109 10.1761 53.0645 9.97559C53.4512 10.1761 53.7484 10.2764 53.9561 10.2764V10.8672C53.9561 11.6621 52.4701 12.0596 49.498 12.0596H49.208L48.9072 15.626V18H47.7256C47.1312 17.7995 46.834 17.2051 46.834 16.2168V13.542L47.124 11.7588C47.124 11.5654 47.0273 11.4688 46.834 11.4688L47.124 10.2764C47.124 9.1735 46.8268 6.4987 46.2324 2.25195C46.4473 2.25195 46.7445 2.15169 47.124 1.95117ZM34.0508 4.92676H35.2432C35.8161 4.92676 36.21 7.30436 36.4248 12.0596H39.9912L41.7744 11.7588C42.5693 12.0596 42.9668 12.3568 42.9668 12.6504V12.9512C42.9668 13.5456 40.8864 13.8428 36.7256 13.8428H36.4248C35.3649 13.8428 34.6738 13.4453 34.3516 12.6504C34.151 9.32747 34.0508 6.75293 34.0508 4.92676ZM57.4141 3.31543H58.2949C58.9466 3.31543 59.4336 4.98047 59.7559 8.31055C59.9564 8.31055 60.0566 8.21029 60.0566 8.00977L62.1084 8.31055H64.751C65.1449 8.36784 65.3418 8.5612 65.3418 8.89062V9.77148H59.4658L57.9941 9.48145C57.9941 8.55046 57.8008 6.49512 57.4141 3.31543ZM62.6992 12.124C62.8926 12.124 62.9893 12.2243 62.9893 12.4248L64.4609 12.124H66.8135V13.0049C66.8135 13.3988 66.6165 13.5957 66.2227 13.5957C61.804 13.7891 59.3548 13.986 58.875 14.1865V13.8857L58.2949 14.1865C57.8008 14.1865 56.526 13.9896 54.4707 13.5957V13.0049C54.5352 12.6182 54.7321 12.4248 55.0615 12.4248H61.5176C61.9616 12.4248 62.3555 12.3245 62.6992 12.124ZM57.9941 15.3574H59.1758C59.6198 15.3574 59.9134 16.8255 60.0566 19.7617L62.6992 19.4717V19.7617L63.29 19.4717H64.1709C64.5576 19.5361 64.751 19.7331 64.751 20.0625V20.3525C64.751 20.5459 64.3607 20.8395 63.5801 21.2334C60.0566 21.2334 58.2949 20.6462 58.2949 19.4717L57.9941 15.3574ZM78.2842 2.19824C78.6709 2.25553 78.8643 2.44889 78.8643 2.77832V3.94922C78.8643 4.41471 78.5742 5.29199 77.9941 6.58105C80.5723 8.14225 82.3268 9.51009 83.2578 10.6846C83.2578 10.9639 82.9642 11.2575 82.377 11.5654C81.1022 11.0641 79.4443 9.98991 77.4033 8.34277C76.3649 10.484 75.5843 11.6549 75.0615 11.8555H74.7715C74.4922 11.8555 74.1986 11.5618 73.8906 10.9746V10.6846C75.2585 8.60059 76.4294 5.77181 77.4033 2.19824H78.2842ZM85.9004 2.19824H86.7705C87.945 2.986 88.6289 7.18262 88.8223 14.7881H87.3613C86.7741 10.4411 86.0902 6.34115 85.3096 2.48828L85.9004 2.19824ZM79.4551 14.1973C80.8229 14.9635 81.5068 17.0117 81.5068 20.3418H87.9414C88.2279 20.3418 88.5215 20.6354 88.8223 21.2227V21.8135L84.1387 22.3936L82.6777 22.1035L81.2061 22.3936C79.8454 22.3936 79.165 20.5387 79.165 16.8291C78.8356 16.8291 78.6387 16.1488 78.5742 14.7881V14.4873C78.7819 14.4873 79.0755 14.3906 79.4551 14.1973ZM99.5635 3.0791H99.8643C100.301 3.0791 100.691 4.24642 101.035 6.58105C101.794 6.97493 102.865 7.17188 104.247 7.17188V8.34277H102.496L101.035 8.05273L101.325 11.5654V13.3164L99.8643 13.0264C99.8643 11.9951 99.6673 9.84668 99.2734 6.58105H99.5635L99.2734 6.00098C99.2734 5.80762 99.3701 5.71094 99.5635 5.71094C99.1768 4.70833 98.9834 3.92773 98.9834 3.36914L99.5635 3.0791ZM89.3262 3.36914H94.8906L96.3516 3.65918C96.3516 4.61165 95.8646 6.36621 94.8906 8.92285C96.6452 10.083 97.5225 11.3542 97.5225 12.7363H97.2324L94.0098 10.0938C92.6061 11.8555 91.7288 12.7363 91.3779 12.7363C90.7907 12.5358 90.4971 12.3389 90.4971 12.1455C93.2256 8.57194 94.5898 6.13346 94.5898 4.83008V4.54004H89.9062C89.5195 4.54004 89.3262 4.3431 89.3262 3.94922V3.36914ZM93.7197 15.0674H100.734C101.673 15.2464 102.26 17.1012 102.496 20.6318H102.206L102.496 21.2227V21.8027H101.615C101.107 21.8027 100.62 20.0482 100.154 16.5391L98.6934 16.2383H95.1807L93.7197 15.9482V15.0674ZM116.008 2.48828H116.588C116.946 2.48828 117.437 3.36914 118.06 5.13086C118.991 5.13086 120.355 6.39844 122.152 8.93359V9.22363C122.152 9.50293 121.859 9.79655 121.271 10.1045H120.981C119.155 8.0778 117.691 6.80664 116.588 6.29102C115.177 9.80729 114.203 11.5654 113.666 11.5654H113.075C112.688 11.5654 112.495 11.3685 112.495 10.9746V10.6846L115.718 2.78906C115.718 2.58854 115.814 2.48828 116.008 2.48828ZM117.759 10.6846H118.35C118.629 10.6846 118.923 10.9782 119.23 11.5654V16.5391C121.859 16.3457 123.807 16.249 125.074 16.249C125.468 16.3063 125.665 16.4997 125.665 16.8291C125.665 18.0036 121.372 18.5908 112.785 18.5908H111.904C111.518 18.5908 111.324 18.3939 111.324 18V17.71C111.324 17.1227 112.885 16.8291 116.008 16.8291H116.588L117.179 16.5391L116.889 15.9482L117.179 14.7773L116.889 14.1973L117.179 13.6172L116.889 11.8555V11.5654C116.889 11.2861 117.179 10.9925 117.759 10.6846ZM130.863 1.31738C131.25 1.7972 131.443 2.1875 131.443 2.48828C131.057 4.05664 130.863 5.32422 130.863 6.29102C133.012 8.86198 134.086 10.6201 134.086 11.5654L133.495 11.8555H132.614C132.156 10.6094 131.182 9.3418 129.692 8.05273C128.905 9.88607 128.027 11.057 127.061 11.5654C126.681 11.3721 126.387 11.2754 126.18 11.2754V10.9746C126.18 10.638 126.763 9.37044 127.931 7.17188L129.982 1.61816C130.362 1.41764 130.656 1.31738 130.863 1.31738ZM137.889 1.9082H138.469C138.934 1.9082 139.325 2.6888 139.64 4.25H139.35C139.736 5.1237 139.93 6.39128 139.93 8.05273V11.5654C139.93 12.611 139.539 13.2949 138.759 13.6172C138.479 13.6172 138.189 13.3236 137.889 12.7363V8.34277H135.246C133.757 8.34277 132.879 7.95247 132.614 7.17188L133.495 6.5918C135.443 6.78516 136.908 6.88184 137.889 6.88184V6.5918C137.688 6.39128 137.491 4.92676 137.298 2.19824L137.889 1.9082ZM132.614 13.6172H136.417C137.978 13.6172 138.859 14.6878 139.06 16.8291C138.859 17.8031 138.565 18.487 138.179 18.8809L135.246 18.5908H134.376L132.915 18.8809V20.6318H139.06V21.5127C139.06 21.971 138.376 22.2646 137.008 22.3936L136.417 22.1035L134.666 22.3936C132.131 22.3936 130.863 22.0033 130.863 21.2227V18.29C130.863 17.9033 131.157 17.71 131.744 17.71C132.396 17.71 134.054 17.6133 136.718 17.4199V15.3682H135.246L133.495 15.0781C133.151 15.2715 132.761 15.3682 132.324 15.3682V15.0781L131.744 15.3682H130.272C129.886 15.3682 129.692 15.1712 129.692 14.7773V13.9072L132.614 13.6172Z" fill="#222222"/>
</svg>
