<svg width="168" height="26" viewBox="0 0 168 26" fill="none" xmlns="http://www.w3.org/2000/svg">
<path d="M4.13086 3.10254C7.01367 3.88184 8.45508 5.32324 8.45508 7.42676V8.14746C8.45508 10.0166 7.33301 11.0596 5.08887 11.2764H4.85156C2.52539 11.2764 1.08398 9.67383 0.527344 6.46875V5.50195C0.527344 4.70508 1.72852 3.90527 4.13086 3.10254ZM15.4248 3.33984C16.415 3.33984 17.0537 5.66309 17.3408 10.3096L17.5869 13.1924C17.2764 14.3174 16.7139 14.8799 15.8994 14.8799C15.2607 14.5342 14.9414 13.5732 14.9414 11.9971V11.5137L14.458 11.751C12.8584 11.751 11.2588 11.5107 9.65918 11.0303V10.0723C9.65918 9.9082 9.97852 9.58594 10.6172 9.10547L14.9414 9.58887L14.7041 8.38477V7.66406C14.4404 7.66406 13.4795 7.58496 11.8213 7.42676L10.8545 7.66406C10.333 7.34766 9.85254 7.18945 9.41309 7.18945C9.41309 7.02539 9.49512 6.94336 9.65918 6.94336L9.41309 6.46875C9.7002 5.66602 10.4209 5.26465 11.5752 5.26465H13.7373L14.2207 5.50195C14.2207 4.06055 14.6221 3.33984 15.4248 3.33984ZM2.92676 5.98535V6.46875C2.92676 7.31836 3.56836 8.19727 4.85156 9.10547H5.57227C5.89453 9.10547 6.05566 8.94727 6.05566 8.63086V7.66406C6.05566 6.61523 5.33496 5.81543 3.89355 5.26465C3.24902 5.50488 2.92676 5.74512 2.92676 5.98535ZM9.65918 16.3213H14.2207C15.6621 16.3213 16.3828 17.6016 16.3828 20.1621H16.1455C16.1455 20.3203 16.2246 20.3994 16.3828 20.3994C16.0605 22.6436 15.4189 23.7656 14.458 23.7656C13.8193 23.6074 13.5 23.2881 13.5 22.8076C13.8223 21.3662 13.9834 20.3232 13.9834 19.6787V19.2041C13.9834 18.8818 13.8223 18.7207 13.5 18.7207H9.65918L7.97168 18.2373V17.2793C8.23535 16.6406 8.79785 16.3213 9.65918 16.3213ZM24.084 6.68848C24.9512 6.68848 25.5107 7.17188 25.7627 8.13867C25.7627 8.39648 25.3613 8.79492 24.5586 9.33398L23.3545 9.09668H20.2344V9.81738C20.2344 13.0225 20.7939 14.625 21.9131 14.625H22.3965C22.7598 14.625 23.0791 14.5459 23.3545 14.3877C23.6357 14.5459 23.958 14.625 24.3213 14.625H25.7627C25.7627 14.9062 25.9238 15.3076 26.2461 15.8291C26.2461 16.1338 25.8447 16.6143 25.042 17.2705L23.3545 17.0332H19.2676C18.7871 16.043 18.3066 13.4766 17.8262 9.33398C17.8262 7.57031 18.708 6.68848 20.4717 6.68848H24.084ZM29.8496 7.40918H30.333C30.7139 10.2979 31.0332 11.7422 31.291 11.7422H33.2158C33.2158 11.3789 33.1367 11.0596 32.9785 10.7842L33.2158 10.3008L32.9785 9.81738C33.1719 8.37598 33.4912 7.65527 33.9365 7.65527C35.0615 7.65527 35.624 10.1396 35.624 15.1084C35.7822 15.1084 35.8613 15.9902 35.8613 17.7539C35.6387 18.5566 35.0791 18.958 34.1826 18.958C33.7021 18.7998 33.4619 18.3193 33.4619 17.5166V14.625C33.4619 14.3086 33.3008 14.1504 32.9785 14.1504H31.0537C31.376 16.4355 31.5371 17.7188 31.5371 18C30.9746 18.6387 30.4121 18.958 29.8496 18.958C29.2109 18.7998 28.8916 18.3193 28.8916 17.5166H29.1289L28.8916 17.0332V15.3545L28.6455 14.1504H28.8916C28.7275 13.8398 28.6455 13.5996 28.6455 13.4297C28.6455 12.7734 28.5664 11.3291 28.4082 9.09668H28.6455C28.4873 8.78613 28.4082 8.5459 28.4082 8.37598C28.5664 7.73145 29.0469 7.40918 29.8496 7.40918ZM43.0195 1.88086C47.0273 2.39648 49.0312 2.71582 49.0312 2.83887L49.5146 2.60156H51.4395C53.6836 3.02344 54.8057 4.86621 54.8057 8.12988C54.4951 8.8623 54.1758 9.26367 53.8477 9.33398H53.3643C52.7842 9.33398 52.3037 7.89258 51.9229 5.00977C51.6006 5.00977 51.4395 4.92773 51.4395 4.76367L50.9561 5.00977H50.7188C50.5547 5.00977 50.4727 4.92773 50.4727 4.76367C49.5117 4.97461 49.0312 5.21484 49.0312 5.48438V8.37598C49.0312 9.33691 48.5508 9.81738 47.5898 9.81738C46.9512 9.2373 46.6318 8.5957 46.6318 7.89258V4.76367C43.7432 4.44727 42.2988 4.04883 42.2988 3.56836V2.11816C42.4688 2.11816 42.709 2.03906 43.0195 1.88086ZM44.2236 10.7842C45.0674 10.9424 45.5479 11.0215 45.665 11.0215C50.5928 10.8633 53.9619 10.7842 55.7725 10.7842L56.4932 11.7422V12.4629C56.4932 12.6914 56.2529 12.9316 55.7725 13.1836H51.2021V13.9043L51.4395 15.5918H52.8809C54.1641 15.5918 54.8057 16.3125 54.8057 17.7539V19.1953C54.8057 21.123 52.7227 22.0869 48.5566 22.0869V22.5615C50.3789 22.8838 51.6592 23.0449 52.3975 23.0449H53.8477C54.0762 23.0449 54.3164 23.2852 54.5684 23.7656V24.0117C54.0703 24.9727 53.1064 25.4531 51.6768 25.4531C48.8818 25.4531 46.957 24.249 45.9023 21.8408C46.3066 20.5576 47.1094 19.916 48.3105 19.916C50.9531 19.7578 52.3975 19.2773 52.6436 18.4746V17.7539C49.0166 17.918 46.7695 18 45.9023 18L45.1816 17.0332L45.4277 15.8291H48.0732L49.2773 15.5918L49.0312 15.1084V13.4297H46.8691C44.625 13.4297 43.5029 12.8672 43.5029 11.7422L44.2236 10.7842ZM60.5732 2.62793H62.9727C64.0977 2.62793 64.6602 3.34863 64.6602 4.79004C64.4961 6.24902 64.1738 7.28906 63.6934 7.91016C65.6152 9.1582 66.5762 10.1982 66.5762 11.0303V11.5137C66.5762 11.8359 66.415 11.9971 66.0928 11.9971H65.6182C64.9209 11.9971 63.96 11.3555 62.7354 10.0723H62.498C61.6426 11.9941 60.9219 12.9551 60.3359 12.9551C59.375 12.9551 58.8945 12.5537 58.8945 11.751C60.7109 8.86816 61.8301 6.62695 62.252 5.02734V4.55273H61.0566C60.1602 4.55273 58.959 4.71094 57.4531 5.02734C57.4531 4.71094 57.2129 4.55273 56.7324 4.55273V3.83203C56.7324 3.13477 58.0127 2.7334 60.5732 2.62793ZM71.1377 2.86523H71.8584C72.3975 2.86523 72.7168 4.30664 72.8164 7.18945L73.2998 6.95215H76.4199C76.9004 7.11035 77.1406 7.59082 77.1406 8.39355C77.1406 9.03223 76.1797 9.35156 74.2578 9.35156H73.0625C73.2207 10.2305 73.2998 11.9912 73.2998 14.6338L72.3418 15.1172C71.3809 15.1172 70.9004 13.9951 70.9004 11.751C70.5781 8.15332 70.417 5.51367 70.417 3.83203V3.58594C70.417 3.35742 70.6572 3.11719 71.1377 2.86523ZM69.9424 15.8379H71.1377C71.583 15.8379 71.9023 16.6377 72.0957 18.2373V20.3994C72.0957 22.3213 71.6973 23.2822 70.9004 23.2822C70.0977 23.2822 69.6172 22.8809 69.459 22.0781C69.7812 20.0449 69.9424 18.7646 69.9424 18.2373C69.5791 18.2373 69.2568 18.1582 68.9756 18C68.5771 18 67.2969 18.3193 65.1348 18.958C65.1348 18.7998 65.0557 18.7207 64.8975 18.7207C64.8975 18.8789 64.8184 18.958 64.6602 18.958C64.6602 18.6357 64.499 18.4746 64.1768 18.4746V17.2793C65.1904 16.3184 67.1123 15.8379 69.9424 15.8379ZM86.9443 1.17773H88.623V1.42383C88.623 2.25586 88.7842 3.375 89.1064 4.78125H90.0645C91.5059 4.78125 92.2266 5.34375 92.2266 6.46875V7.91016C93.7559 8.87109 94.6377 9.35156 94.8721 9.35156V10.793C94.708 11.2734 94.2275 11.5137 93.4307 11.5137C92.4346 11.0742 91.6318 10.5938 91.0225 10.0723H90.7852L88.623 12.2344H87.4189L86.9443 10.5469C88.3857 8.84766 89.1064 7.72852 89.1064 7.18945H88.8604C88.8604 7.34766 87.2607 7.50586 84.0615 7.66406L83.5781 6.94336V6.22266C83.5781 5.72461 84.6182 5.32617 86.6982 5.02734C86.3818 4.16016 86.2236 3.03809 86.2236 1.66113L86.9443 1.17773ZM91.2686 11.5137H92.2266L92.4639 14.3965H94.3887L96.7881 14.6338V16.0752C96.7881 16.667 93.7471 17.0684 87.665 17.2793H86.9443C86.4639 17.1211 86.2236 16.6406 86.2236 15.8379C86.2236 15.5859 86.543 15.2666 87.1816 14.8799H89.5811L90.0645 14.6338L89.8271 13.4385V12.2344C89.9854 11.7539 90.4658 11.5137 91.2686 11.5137ZM91.5059 18.2373C94.3887 18.835 95.8301 19.957 95.8301 21.6035V22.8076C95.8301 24.3135 94.708 25.1924 92.4639 25.4443H91.7432C90.4131 25.4443 89.373 24.2432 88.623 21.8408C88.8926 19.4385 89.8535 18.2373 91.5059 18.2373ZM91.2686 21.1201V21.3662C91.2686 22.4854 91.8281 23.0449 92.9473 23.0449L93.1846 21.8408C92.5049 21.3604 91.8662 21.1201 91.2686 21.1201ZM103.03 2.61914L103.751 3.58594L103.514 5.98535C105.436 7.67285 106.396 8.95312 106.396 9.82617V10.3096L105.192 10.5557C103.751 9.74121 103.03 8.93848 103.03 8.14746H102.556C102.187 9.75293 101.624 10.5557 100.868 10.5557C100.446 10.5557 100.048 10.1543 99.6729 9.35156C100.792 6.97852 101.352 5.53711 101.352 5.02734V4.54395C101.059 4.70215 99.9365 4.94238 97.9854 5.26465C97.71 5.10645 97.3906 5.02734 97.0273 5.02734V4.06055C97.0273 3.33984 99.0283 2.85937 103.03 2.61914ZM110.237 4.06055H110.483C111.673 4.06055 112.394 5.34375 112.646 7.91016C112.646 8.39648 112.725 8.95605 112.883 9.58887H112.646C112.962 10.5732 113.12 11.2148 113.12 11.5137C112.88 12.1523 112.64 12.4717 112.399 12.4717H111.441C110.768 12.4717 110.287 9.9082 110 4.78125C110.158 4.4707 110.237 4.23047 110.237 4.06055ZM109.517 13.6758C110.126 13.6758 110.606 14.4756 110.958 16.0752V18.2373C110.958 20.8037 110.158 22.0869 108.559 22.0869L108.796 21.6035C107.8 22.084 107.079 22.3242 106.634 22.3242C105.515 22.3242 104.955 22.084 104.955 21.6035L104.472 21.8408H104.234L104.472 21.3662L103.997 21.6035H103.751L102.793 15.6006C103.115 15.0791 103.276 14.6777 103.276 14.3965H104.234C104.738 14.3965 105.14 15.3574 105.438 17.2793C105.597 17.1211 106.798 16.96 109.042 16.7959L108.796 15.1172C108.96 14.1562 109.2 13.6758 109.517 13.6758ZM105.676 19.2041V19.4414C105.676 19.6699 105.916 19.9102 106.396 20.1621H107.601L108.796 19.9248V18.4834H108.075L108.321 18.958H107.838V18.4834L105.676 19.2041ZM117.446 0.703125C117.874 0.703125 118.272 1.82227 118.642 4.06055C118.806 4.06055 118.888 4.14258 118.888 4.30664L119.362 4.06055C121.765 4.33008 122.966 4.73145 122.966 5.26465V5.50195C122.966 6.46289 122.406 6.94336 121.287 6.94336H121.05L122.008 8.38477V10.3096C121.463 12.3955 120.502 13.4385 119.125 13.4385H118.167C116.081 13.4385 115.038 11.9941 115.038 9.10547C115.038 8.41406 115.199 7.77539 115.521 7.18945H115.284L113.843 7.42676H113.597L113.359 6.22266V5.26465C114.59 4.78418 115.472 4.54395 116.005 4.54395V2.61914C116.005 1.3418 116.485 0.703125 117.446 0.703125ZM126.815 3.10254H127.536C128.175 4.16895 128.494 5.44922 128.494 6.94336H128.731L132.098 6.70605C132.098 7.18652 132.338 7.42676 132.818 7.42676C132.596 8.86816 131.315 9.58887 128.978 9.58887L129.215 11.2764V12.7178C129.215 13.0869 128.975 13.6465 128.494 14.3965H127.536C126.927 14.3965 126.364 11.0332 125.849 4.30664C126.159 3.57422 126.481 3.17285 126.815 3.10254ZM117.446 8.38477V8.86816C117.446 10.1514 118.006 10.793 119.125 10.793L119.608 10.0723V9.58887C119.198 8.78613 118.557 8.38477 117.684 8.38477H117.446ZM119.125 15.8379H120.083C120.335 15.8379 120.657 16.1572 121.05 16.7959C121.05 16.96 120.968 17.042 120.804 17.042C120.968 17.2822 121.05 17.7627 121.05 18.4834H121.771C122.128 18.4834 122.447 18.4014 122.729 18.2373L123.212 18.4834C123.493 18.3193 123.812 18.2373 124.17 18.2373L124.653 18.4834C124.653 16.7197 124.973 15.8379 125.611 15.8379H126.332C126.596 15.8379 126.915 16.3184 127.29 17.2793C127.021 21.6035 126.3 23.7656 125.128 23.7656L124.653 24.0029C124.489 24.0029 124.407 23.9238 124.407 23.7656L123.212 24.0029H121.287C120.004 24.0029 119.122 22.4033 118.642 19.2041C118.642 18.542 118.562 17.9004 118.404 17.2793C118.885 16.5352 119.125 16.0547 119.125 15.8379ZM123.933 20.8828H121.771V21.3662C122.251 21.3662 122.491 21.4453 122.491 21.6035L122.966 21.3662H124.407V20.6455L123.933 20.8828ZM141.901 2.85645C142.704 2.95605 143.105 3.43652 143.105 4.29785L142.859 5.98535C146.387 7.93652 148.15 9.1377 148.15 9.58887V10.0723C147.992 10.5527 147.512 10.793 146.709 10.793C146.17 10.793 144.646 9.99023 142.139 8.38477C142.139 10.3066 141.579 11.2676 140.46 11.2676H139.739C139.417 11.2676 139.256 11.1094 139.256 10.793C139.256 9.50391 139.815 7.09863 140.935 3.57715C140.776 3.57715 140.697 3.49805 140.697 3.33984C140.979 3.33984 141.38 3.17871 141.901 2.85645ZM144.784 12.4717H145.505C145.862 12.4717 146.185 13.2744 146.472 14.8799H146.226C146.226 17.124 146.627 18.2461 147.43 18.2461C148.062 18.4043 148.622 18.4834 149.108 18.4834C149.19 18.4834 149.513 18.4043 150.075 18.2461C151.036 18.4453 151.517 19.166 151.517 20.4082C150.989 20.7246 150.509 20.8828 150.075 20.8828H145.988C145.824 20.8828 145.742 20.8037 145.742 20.6455L145.268 20.8828H140.935C140.108 20.8828 139.628 20.6426 139.493 20.1621V19.2041C139.493 18.9521 139.815 18.6328 140.46 18.2461H144.301C144.143 17.3672 144.063 15.6035 144.063 12.9551L144.784 12.4717ZM155.122 2.61914C156.083 2.71875 156.563 2.95898 156.563 3.33984V3.82324C156.083 5.24707 155.843 6.04688 155.843 6.22266C158.087 8.5957 159.209 10.1191 159.209 10.793C158.887 11.5898 158.406 11.9883 157.768 11.9883C157.498 11.9883 156.455 10.8691 154.639 8.63086C154.129 10.5527 153.648 11.5137 153.197 11.5137H151.993L151.756 10.3096C153.256 5.18262 154.378 2.61914 155.122 2.61914ZM166.899 3.57715C167.427 3.57715 167.746 4.62012 167.857 6.70605V11.2676C167.857 12.3926 167.377 12.9551 166.416 12.9551C165.777 12.7969 165.458 12.3164 165.458 11.5137V9.10547C165.458 8.78906 165.297 8.63086 164.975 8.63086H164.5C163.492 8.63086 162.288 8.70996 160.888 8.86816C159.61 8.7627 158.972 8.60156 158.972 8.38477L158.488 7.66406C158.488 6.76758 158.89 6.20801 159.692 5.98535C160.97 6.09082 161.608 6.24902 161.608 6.45996L162.092 6.22266H164.975L165.458 6.45996C165.458 4.53809 165.859 3.57715 166.662 3.57715H166.899ZM158.726 14.3965H164.254C165.379 14.3965 165.941 15.5186 165.941 17.7627V18.9668C165.941 20.0039 164.099 20.6426 160.413 20.8828C160.413 21.1348 160.732 21.457 161.371 21.8496H165.458C165.78 21.8965 165.941 22.0576 165.941 22.333C165.941 23.7744 164.737 24.4951 162.329 24.4951C159.446 24.4951 158.005 23.1328 158.005 20.4082C158.649 18.9668 160.091 18.2461 162.329 18.2461C163.132 18.2461 163.533 18.085 163.533 17.7627V17.2793C163.533 16.957 163.372 16.7959 163.05 16.7959H162.812C161.887 16.7959 160.606 16.8779 158.972 17.042C158.239 16.7314 157.838 16.4092 157.768 16.0752V15.3545C157.768 15.1084 158.087 14.7891 158.726 14.3965Z" fill="#222222"/>
</svg>
