<svg width="153" height="24" viewBox="0 0 153 24" fill="none" xmlns="http://www.w3.org/2000/svg">
<path d="M7.74316 2.08496C8.7041 2.08496 9.18457 3.20703 9.18457 5.45117C9.50684 7.4375 9.66797 9.20117 9.66797 10.7422L8.22656 11.4629C7.10156 11.4629 6.53906 9.37988 6.53906 5.21387V4.96777L1.24805 5.45117L0.527344 4.48438V3.28906C1.125 2.71484 3.53027 2.31348 7.74316 2.08496ZM16.1631 2.08496C16.5205 2.08496 16.8398 2.64453 17.1211 3.76367L16.8838 4.24707L17.1211 5.45117H16.8838C17.042 5.71484 17.1211 6.11621 17.1211 6.65527C18.1816 6.1748 19.3037 5.93457 20.4873 5.93457H20.7334C20.9854 5.93457 21.3047 6.25391 21.6914 6.89258C21.6914 8.1582 20.25 8.96094 17.3672 9.30078C17.3672 9.78125 17.5254 10.4229 17.8418 11.2256C17.7773 12.8252 17.1357 13.625 15.917 13.625C15.1201 13.2207 14.7217 12.5 14.7217 11.4629H14.959C14.8008 11.1816 14.5605 9.5791 14.2383 6.65527H14.4756L14.2383 6.17188V4.73047C14.2383 2.9668 14.8799 2.08496 16.1631 2.08496ZM11.1094 14.3457H12.0762C12.3926 14.3984 12.5508 14.5596 12.5508 14.8291V16.5166L17.3672 19.3994V20.6035C17.1035 21.2422 16.541 21.5615 15.6797 21.5615H15.4424C13.7373 20.6592 12.4541 19.8594 11.5928 19.1621C11.5928 20.7559 11.1914 21.7168 10.3887 22.0449H9.43066C8.94434 21.8867 8.70117 21.4062 8.70117 20.6035V20.3662C9.55078 16.3525 10.3535 14.3457 11.1094 14.3457ZM23.6006 2.33984H24.5674C24.7256 2.33984 24.8047 2.41895 24.8047 2.57715L25.2881 2.33984H27.6875C28.332 2.59766 28.6543 3.15723 28.6543 4.01855C28.4141 4.66309 28.1738 4.98535 27.9336 4.98535H25.5254L24.3301 5.22266V5.94336C24.3301 7.54883 25.291 8.35156 27.2129 8.35156H28.4082L28.1709 6.66406V5.94336C28.1709 4.50195 29.1318 3.78125 31.0537 3.78125L32.0205 4.01855C32.3311 3.86035 32.5713 3.78125 32.7412 3.78125C33.3799 4.02148 33.6992 4.26172 33.6992 4.50195V5.70605C33.6992 5.93457 33.459 6.1748 32.9785 6.42676H31.7744C31.6162 6.42676 31.5371 6.34473 31.5371 6.18066C31.2559 6.34473 30.9365 6.42676 30.5791 6.42676V6.66406C30.5791 8.58594 31.7012 9.54688 33.9453 9.54688L34.1826 10.751C33.8721 11.4834 33.5498 11.8848 33.2158 11.9551H32.7412C30.1748 11.791 28.8916 11.1494 28.8916 10.0303H28.6543C28.6543 10.6689 28.4141 10.9883 27.9336 10.9883H25.2881C23.0439 10.1035 21.9219 8.34277 21.9219 5.70605V4.98535C21.9219 4.00684 22.4814 3.125 23.6006 2.33984ZM38.9902 3.06055C39.793 3.85742 40.1943 6.82227 40.1943 11.9551V12.1924C40.1943 12.7373 39.6318 13.1387 38.5068 13.3965C38.0264 12.8691 37.7861 12.4678 37.7861 12.1924C37.7861 9.9834 37.625 7.58105 37.3027 4.98535H37.5488L37.3027 4.50195C37.7188 3.54102 38.2812 3.06055 38.9902 3.06055ZM33.2158 14.3545C35.2959 14.3545 36.8193 15.2363 37.7861 17C37.9502 17 38.1113 17.7207 38.2695 19.1621C37.7715 22.0508 36.4883 23.4951 34.4199 23.4951H34.1826C31.1357 22.9033 29.6123 21.1396 29.6123 18.2041V17.4834C29.6123 15.79 30.8135 14.7471 33.2158 14.3545ZM32.0205 17.7207V18.9248C32.3662 19.6338 33.0869 20.2754 34.1826 20.8496C34.9854 20.8496 35.5449 20.208 35.8613 18.9248C35.6211 18.3213 35.0615 17.6797 34.1826 17H32.7412C32.5068 17 32.2666 17.2402 32.0205 17.7207ZM44.2744 1.62793H46.6738C47.7988 1.62793 48.3613 2.34863 48.3613 3.79004C48.1973 5.24902 47.875 6.28906 47.3945 6.91016C49.3164 8.1582 50.2773 9.19824 50.2773 10.0303V10.5137C50.2773 10.8359 50.1162 10.9971 49.7939 10.9971H49.3193C48.6221 10.9971 47.6611 10.3555 46.4365 9.07227H46.1992C45.3438 10.9941 44.623 11.9551 44.0371 11.9551C43.0762 11.9551 42.5957 11.5537 42.5957 10.751C44.4121 7.86816 45.5312 5.62695 45.9531 4.02734V3.55273H44.7578C43.8613 3.55273 42.6602 3.71094 41.1543 4.02734C41.1543 3.71094 40.9141 3.55273 40.4336 3.55273V2.83203C40.4336 2.13477 41.7139 1.7334 44.2744 1.62793ZM54.8389 1.86523H55.5596C56.0986 1.86523 56.418 3.30664 56.5176 6.18945L57.001 5.95215H60.1211C60.6016 6.11035 60.8418 6.59082 60.8418 7.39355C60.8418 8.03223 59.8809 8.35156 57.959 8.35156H56.7637C56.9219 9.23047 57.001 10.9912 57.001 13.6338L56.043 14.1172C55.082 14.1172 54.6016 12.9951 54.6016 10.751C54.2793 7.15332 54.1182 4.51367 54.1182 2.83203V2.58594C54.1182 2.35742 54.3584 2.11719 54.8389 1.86523ZM53.6436 14.8379H54.8389C55.2842 14.8379 55.6035 15.6377 55.7969 17.2373V19.3994C55.7969 21.3213 55.3984 22.2822 54.6016 22.2822C53.7988 22.2822 53.3184 21.8809 53.1602 21.0781C53.4824 19.0449 53.6436 17.7646 53.6436 17.2373C53.2803 17.2373 52.958 17.1582 52.6768 17C52.2783 17 50.998 17.3193 48.8359 17.958C48.8359 17.7998 48.7568 17.7207 48.5986 17.7207C48.5986 17.8789 48.5195 17.958 48.3613 17.958C48.3613 17.6357 48.2002 17.4746 47.8779 17.4746V16.2793C48.8916 15.3184 50.8135 14.8379 53.6436 14.8379ZM72.3242 4.02734H73.7656C74.7266 4.02734 75.207 4.50781 75.207 5.46875V5.71484C74.8848 8.02344 74.7236 9.22168 74.7236 9.30957C76.0303 10.2529 77.3896 11.7734 78.8018 13.8711V14.5918L77.3604 15.0752C77.1729 15.0752 76.0537 13.9561 74.0029 11.7178C73.751 13.6338 73.3496 14.5918 72.7988 14.5918H71.8408C71.4775 14.5918 71.2373 14.1934 71.1201 13.3965C71.1201 12.0254 71.6006 9.70508 72.5615 6.43555V6.18945L68.2373 6.67285C67.5986 6.51465 67.2793 6.03418 67.2793 5.23145C67.2793 4.42871 68.9609 4.02734 72.3242 4.02734ZM82.8887 4.99414H83.6094C84.248 4.99414 84.9688 8.03516 85.7715 14.1172C85.9297 14.1172 86.0088 14.2754 86.0088 14.5918H85.7715L86.0088 15.0752V16.0332C86.0088 16.3555 85.8477 16.5166 85.5254 16.5166H84.3301C83.9609 16.5166 83.4805 14.6768 82.8887 10.9971L82.4053 10.751H78.5645C78.3359 10.751 78.0957 10.5107 77.8438 10.0303V9.07227C77.8438 8.5918 78.9658 8.35156 81.21 8.35156L82.6426 8.58887L82.168 5.46875L82.8887 4.99414ZM91.7676 0.907227C92.5703 1.12988 92.9717 1.68945 92.9717 2.58594V3.55273L92.7344 5.23145C94.1875 6.11035 94.9873 6.74902 95.1338 7.14746V7.86816C95.1338 8.10254 94.8936 8.34277 94.4131 8.58887H92.9717C92.9717 8.22559 92.6523 7.90625 92.0137 7.63086C92.0137 8.20508 91.5332 8.84668 90.5723 9.55566H89.6055C89.377 9.55566 89.1396 9.31543 88.8936 8.83496C90.0127 5.68848 90.5723 3.8457 90.5723 3.30664H90.3262C89.6875 3.30664 88.6475 3.46777 87.2061 3.79004C86.5674 3.63184 86.248 3.3125 86.248 2.83203C86.248 1.71289 87.209 1.15332 89.1309 1.15332C90.2266 0.989258 91.1055 0.907227 91.7676 0.907227ZM100.653 1.62793C101.31 2.22559 101.711 3.58789 101.857 5.71484H104.74C104.74 5.96094 104.898 6.28027 105.215 6.67285V7.14746C105.215 7.38184 104.975 7.62207 104.494 7.86816H102.095V11.7178C101.937 12.1982 101.456 12.4385 100.653 12.4385H100.179C99.6982 12.333 99.458 11.6914 99.458 10.5137V7.63086L99.2119 6.43555H99.458L99.2119 5.95215V2.34863C99.376 1.86816 99.8564 1.62793 100.653 1.62793ZM96.3291 13.8711H96.5752C99.2939 14.4395 100.653 15.8018 100.653 17.958V18.1953C100.05 20.4395 98.9307 21.5615 97.2959 21.5615H95.6084C93.6924 20.2549 92.7344 18.9746 92.7344 17.7207C92.9746 15.1543 94.1729 13.8711 96.3291 13.8711ZM95.3711 16.2793C95.3711 16.7598 95.292 17 95.1338 17C95.5322 18.4355 96.0127 19.1533 96.5752 19.1533C97.4365 19.1533 97.9961 18.834 98.2539 18.1953V17.4746C98.2539 17.2637 97.8525 16.8652 97.0498 16.2793H95.3711ZM108.091 1.85645C108.894 1.95605 109.295 2.43652 109.295 3.29785L109.049 4.98535C112.576 6.93652 114.34 8.1377 114.34 8.58887V9.07227C114.182 9.55273 113.701 9.79297 112.898 9.79297C112.359 9.79297 110.836 8.99023 108.328 7.38477C108.328 9.30664 107.769 10.2676 106.649 10.2676H105.929C105.606 10.2676 105.445 10.1094 105.445 9.79297C105.445 8.50391 106.005 6.09863 107.124 2.57715C106.966 2.57715 106.887 2.49805 106.887 2.33984C107.168 2.33984 107.569 2.17871 108.091 1.85645ZM110.974 11.4717H111.694C112.052 11.4717 112.374 12.2744 112.661 13.8799H112.415C112.415 16.124 112.816 17.2461 113.619 17.2461C114.252 17.4043 114.812 17.4834 115.298 17.4834C115.38 17.4834 115.702 17.4043 116.265 17.2461C117.226 17.4453 117.706 18.166 117.706 19.4082C117.179 19.7246 116.698 19.8828 116.265 19.8828H112.178C112.014 19.8828 111.932 19.8037 111.932 19.6455L111.457 19.8828H107.124C106.298 19.8828 105.817 19.6426 105.683 19.1621V18.2041C105.683 17.9521 106.005 17.6328 106.649 17.2461H110.49C110.332 16.3672 110.253 14.6035 110.253 11.9551L110.974 11.4717ZM126.798 1.85645C127.601 1.95605 128.002 2.43652 128.002 3.29785L127.756 4.98535C131.283 6.93652 133.047 8.1377 133.047 8.58887V9.07227C132.889 9.55273 132.408 9.79297 131.605 9.79297C131.066 9.79297 129.543 8.99023 127.035 7.38477C127.035 9.30664 126.476 10.2676 125.356 10.2676H124.636C124.313 10.2676 124.152 10.1094 124.152 9.79297C124.152 8.50391 124.712 6.09863 125.831 2.57715C125.673 2.57715 125.594 2.49805 125.594 2.33984C125.875 2.33984 126.276 2.17871 126.798 1.85645ZM129.681 11.4717H130.401C130.759 11.4717 131.081 12.2744 131.368 13.8799H131.122C131.122 16.124 131.523 17.2461 132.326 17.2461C132.959 17.4043 133.519 17.4834 134.005 17.4834C134.087 17.4834 134.409 17.4043 134.972 17.2461C135.933 17.4453 136.413 18.166 136.413 19.4082C135.886 19.7246 135.405 19.8828 134.972 19.8828H130.885C130.721 19.8828 130.639 19.8037 130.639 19.6455L130.164 19.8828H125.831C125.005 19.8828 124.524 19.6426 124.39 19.1621V18.2041C124.39 17.9521 124.712 17.6328 125.356 17.2461H129.197C129.039 16.3672 128.96 14.6035 128.96 11.9551L129.681 11.4717ZM140.019 1.61914C140.979 1.71875 141.46 1.95898 141.46 2.33984V2.82324C140.979 4.24707 140.739 5.04688 140.739 5.22266C142.983 7.5957 144.105 9.11914 144.105 9.79297C143.783 10.5898 143.303 10.9883 142.664 10.9883C142.395 10.9883 141.352 9.86914 139.535 7.63086C139.025 9.55273 138.545 10.5137 138.094 10.5137H136.89L136.652 9.30957C138.152 4.18262 139.274 1.61914 140.019 1.61914ZM151.796 2.57715C152.323 2.57715 152.643 3.62012 152.754 5.70605V10.2676C152.754 11.3926 152.273 11.9551 151.312 11.9551C150.674 11.7969 150.354 11.3164 150.354 10.5137V8.10547C150.354 7.78906 150.193 7.63086 149.871 7.63086H149.396C148.389 7.63086 147.185 7.70996 145.784 7.86816C144.507 7.7627 143.868 7.60156 143.868 7.38477L143.385 6.66406C143.385 5.76758 143.786 5.20801 144.589 4.98535C145.866 5.09082 146.505 5.24902 146.505 5.45996L146.988 5.22266H149.871L150.354 5.45996C150.354 3.53809 150.756 2.57715 151.559 2.57715H151.796ZM143.622 13.3965H149.15C150.275 13.3965 150.838 14.5186 150.838 16.7627V17.9668C150.838 19.0039 148.995 19.6426 145.31 19.8828C145.31 20.1348 145.629 20.457 146.268 20.8496H150.354C150.677 20.8965 150.838 21.0576 150.838 21.333C150.838 22.7744 149.634 23.4951 147.226 23.4951C144.343 23.4951 142.901 22.1328 142.901 19.4082C143.546 17.9668 144.987 17.2461 147.226 17.2461C148.028 17.2461 148.43 17.085 148.43 16.7627V16.2793C148.43 15.957 148.269 15.7959 147.946 15.7959H147.709C146.783 15.7959 145.503 15.8779 143.868 16.042C143.136 15.7314 142.734 15.4092 142.664 15.0752V14.3545C142.664 14.1084 142.983 13.7891 143.622 13.3965Z" fill="#222222"/>
</svg>
