<svg width="151" height="25" viewBox="0 0 151 25" fill="none" xmlns="http://www.w3.org/2000/svg">
<path d="M1.24805 0.880859C5.25586 1.39648 7.25977 1.71582 7.25977 1.83887L7.74316 1.60156H9.66797C11.9121 2.02344 13.0342 3.86621 13.0342 7.12988C12.7236 7.8623 12.4043 8.26367 12.0762 8.33398H11.5928C11.0127 8.33398 10.5322 6.89258 10.1514 4.00977C9.8291 4.00977 9.66797 3.92773 9.66797 3.76367L9.18457 4.00977H8.94727C8.7832 4.00977 8.70117 3.92773 8.70117 3.76367C7.74023 3.97461 7.25977 4.21484 7.25977 4.48438V7.37598C7.25977 8.33691 6.7793 8.81738 5.81836 8.81738C5.17969 8.2373 4.86035 7.5957 4.86035 6.89258V3.76367C1.97168 3.44727 0.527344 3.04883 0.527344 2.56836V1.11816C0.697266 1.11816 0.9375 1.03906 1.24805 0.880859ZM2.45215 9.78418C3.2959 9.94238 3.77637 10.0215 3.89355 10.0215C8.82129 9.86328 12.1904 9.78418 14.001 9.78418L14.7217 10.7422V11.4629C14.7217 11.6914 14.4814 11.9316 14.001 12.1836H9.43066V12.9043L9.66797 14.5918H11.1094C12.3926 14.5918 13.0342 15.3125 13.0342 16.7539V18.1953C13.0342 20.123 10.9512 21.0869 6.78516 21.0869V21.5615C8.60742 21.8838 9.8877 22.0449 10.626 22.0449H12.0762C12.3047 22.0449 12.5449 22.2852 12.7969 22.7656V23.0117C12.2988 23.9727 11.335 24.4531 9.90527 24.4531C7.11035 24.4531 5.18555 23.249 4.13086 20.8408C4.53516 19.5576 5.33789 18.916 6.53906 18.916C9.18164 18.7578 10.626 18.2773 10.8721 17.4746V16.7539C7.24512 16.918 4.99805 17 4.13086 17L3.41016 16.0332L3.65625 14.8291H6.30176L7.50586 14.5918L7.25977 14.1084V12.4297H5.09766C2.85352 12.4297 1.73145 11.8672 1.73145 10.7422L2.45215 9.78418ZM16.4023 2.11133H21.2012C21.4531 2.11133 21.7754 2.43066 22.168 3.06934V4.27344C22.168 5.07031 22.0068 5.46875 21.6846 5.46875L21.9219 5.95215V6.67285L21.6846 7.14746C22.8213 7.83887 24.0225 8.6416 25.2881 9.55566V9.79297L25.042 10.9971L24.5674 10.751V11.2344H23.3633C21.8516 10.1152 21.0518 9.55566 20.9639 9.55566C20.3486 10.9912 19.7891 11.791 19.2852 11.9551H18.3184C17.8438 11.7969 17.6064 11.3164 17.6064 10.5137C18.7314 8.82617 19.4492 6.9043 19.7598 4.74805L19.2852 4.51074H18.5645C18.0254 4.51074 17.624 4.58984 17.3604 4.74805L14.9609 4.27344V3.55273C14.9609 2.5918 15.4414 2.11133 16.4023 2.11133ZM32.7324 2.11133H33.4531C34.3086 2.11133 35.1084 4.99121 35.8525 10.751V11.4717C35.6943 12.1162 35.2139 12.4385 34.4111 12.4385H33.6904C33.3682 11.2549 33.1279 9.81348 32.9697 8.11426H32.0117L30.3242 8.35156L30.5703 9.55566V10.9971C30.5703 11.2432 30.251 11.5625 29.6123 11.9551C28.4873 11.9551 27.9248 10.833 27.9248 8.58887L26.9668 3.55273C27.2773 2.82031 27.5967 2.41895 27.9248 2.34863C28.6982 2.34863 29.4189 3.5498 30.0869 5.95215C30.0869 5.79395 30.9688 5.71484 32.7324 5.71484C32.252 4.20312 32.0117 3.32129 32.0117 3.06934C32.252 2.43066 32.4922 2.11133 32.7324 2.11133ZM28.1709 14.5918H30.5703C31.8477 14.5918 32.4863 15.7139 32.4863 17.958V18.1953C32.4863 21.0254 32.0059 22.6279 31.0449 23.0029C29.627 23.3193 28.0273 23.5596 26.2461 23.7236C24.3242 22.9502 23.3633 21.5088 23.3633 19.3994C22.8828 18.0928 22.6426 16.9707 22.6426 16.0332C23.123 15.418 23.3633 15.0195 23.3633 14.8379C25.5254 14.6738 27.1279 14.5918 28.1709 14.5918ZM25.2881 17.2373V17.4746C25.9268 20.0352 26.4072 21.3154 26.7295 21.3154C28.8096 20.9521 29.8496 20.6328 29.8496 20.3574V17.2373L28.6455 17C27.2861 17.1582 26.167 17.2373 25.2881 17.2373ZM36.5752 2.33984H37.7705C38.415 2.33984 38.8164 4.02148 38.9746 7.38477L40.6621 7.14746H43.3076L46.1904 6.90137V6.42676C46.1904 4.01855 46.5098 2.81445 47.1484 2.81445H47.6318C48.2705 3.13672 48.5898 3.62012 48.5898 4.26465C48.5898 10.6748 47.4678 13.8799 45.2236 13.8799V14.3545C44.9072 14.3545 44.749 14.1963 44.749 13.8799L44.2656 14.1172H44.0283C43.8643 14.1172 43.7822 14.0381 43.7822 13.8799L43.3076 14.1172H42.3408L39.9414 14.3545V14.1172L39.458 14.3545C37.8643 14.3545 36.9824 12.9131 36.8125 10.0303C36.6543 6.39746 36.4141 4.23535 36.0918 3.54395C36.4141 3.02246 36.5752 2.62109 36.5752 2.33984ZM43.3076 9.54688H40.6621L39.458 9.79297C39.458 9.62891 39.3789 9.54688 39.2207 9.54688V10.2676L39.458 11.9551C43.4658 11.9551 45.4697 11.4746 45.4697 10.5137L45.707 9.30957H45.4697L43.7822 9.54688V9.30957L43.3076 9.54688ZM42.8242 14.3545C43.627 14.6123 44.0283 15.1748 44.0283 16.042C43.8643 16.8799 43.7822 17.6797 43.7822 18.4414H46.9111C47.8721 18.4414 48.3525 18.9219 48.3525 19.8828C48.1357 20.5273 47.415 20.8496 46.1904 20.8496H38.5C38.1074 20.5273 37.7852 20.3662 37.5332 20.3662V19.1621C37.5332 18.9336 37.7734 18.6934 38.2539 18.4414H41.3828L41.6201 15.5586V14.6006L42.8242 14.3545ZM54.3398 0.907227C55.1426 1.12988 55.5439 1.68945 55.5439 2.58594V3.55273L55.3066 5.23145C56.7598 6.11035 57.5596 6.74902 57.7061 7.14746V7.86816C57.7061 8.10254 57.4658 8.34277 56.9854 8.58887H55.5439C55.5439 8.22559 55.2246 7.90625 54.5859 7.63086C54.5859 8.20508 54.1055 8.84668 53.1445 9.55566H52.1777C51.9492 9.55566 51.7119 9.31543 51.4658 8.83496C52.585 5.68848 53.1445 3.8457 53.1445 3.30664H52.8984C52.2598 3.30664 51.2197 3.46777 49.7783 3.79004C49.1396 3.63184 48.8203 3.3125 48.8203 2.83203C48.8203 1.71289 49.7812 1.15332 51.7031 1.15332C52.7988 0.989258 53.6777 0.907227 54.3398 0.907227ZM63.2256 1.62793C63.8818 2.22559 64.2832 3.58789 64.4297 5.71484H67.3125C67.3125 5.96094 67.4707 6.28027 67.7871 6.67285V7.14746C67.7871 7.38184 67.5469 7.62207 67.0664 7.86816H64.667V11.7178C64.5088 12.1982 64.0283 12.4385 63.2256 12.4385H62.751C62.2705 12.333 62.0303 11.6914 62.0303 10.5137V7.63086L61.7842 6.43555H62.0303L61.7842 5.95215V2.34863C61.9482 1.86816 62.4287 1.62793 63.2256 1.62793ZM58.9014 13.8711H59.1475C61.8662 14.4395 63.2256 15.8018 63.2256 17.958V18.1953C62.6221 20.4395 61.5029 21.5615 59.8682 21.5615H58.1807C56.2646 20.2549 55.3066 18.9746 55.3066 17.7207C55.5469 15.1543 56.7451 13.8711 58.9014 13.8711ZM57.9434 16.2793C57.9434 16.7598 57.8643 17 57.7061 17C58.1045 18.4355 58.585 19.1533 59.1475 19.1533C60.0088 19.1533 60.5684 18.834 60.8262 18.1953V17.4746C60.8262 17.2637 60.4248 16.8652 59.6221 16.2793H57.9434ZM68.7383 2.32227H69.459C69.7812 2.65039 70.1035 5.53613 70.4258 10.9795L69.459 11.7002H69.2217C68.7998 11.7002 68.4775 11.0586 68.2549 9.77539V7.37598L68.0176 5.92578C68.0176 5.76758 68.0967 5.68848 68.2549 5.68848L68.0176 4.48438V3.04297C68.0176 2.80859 68.2578 2.56836 68.7383 2.32227ZM70.1797 13.3877C70.666 14.3135 70.9092 14.876 70.9092 15.0752C70.6689 15.7139 70.4258 16.0332 70.1797 16.0332C69.2188 16.0332 68.7383 15.5527 68.7383 14.5918C68.8379 14.1113 69.3184 13.71 70.1797 13.3877ZM80.001 1.85645C80.8037 1.95605 81.2051 2.43652 81.2051 3.29785L80.959 4.98535C84.4863 6.93652 86.25 8.1377 86.25 8.58887V9.07227C86.0918 9.55273 85.6113 9.79297 84.8086 9.79297C84.2695 9.79297 82.7461 8.99023 80.2383 7.38477C80.2383 9.30664 79.6787 10.2676 78.5596 10.2676H77.8389C77.5166 10.2676 77.3555 10.1094 77.3555 9.79297C77.3555 8.50391 77.915 6.09863 79.0342 2.57715C78.876 2.57715 78.7969 2.49805 78.7969 2.33984C79.0781 2.33984 79.4795 2.17871 80.001 1.85645ZM82.8838 11.4717H83.6045C83.9619 11.4717 84.2842 12.2744 84.5713 13.8799H84.3252C84.3252 16.124 84.7266 17.2461 85.5293 17.2461C86.1621 17.4043 86.7217 17.4834 87.208 17.4834C87.29 17.4834 87.6123 17.4043 88.1748 17.2461C89.1357 17.4453 89.6162 18.166 89.6162 19.4082C89.0889 19.7246 88.6084 19.8828 88.1748 19.8828H84.0879C83.9238 19.8828 83.8418 19.8037 83.8418 19.6455L83.3672 19.8828H79.0342C78.208 19.8828 77.7275 19.6426 77.5928 19.1621V18.2041C77.5928 17.9521 77.915 17.6328 78.5596 17.2461H82.4004C82.2422 16.3672 82.1631 14.6035 82.1631 11.9551L82.8838 11.4717ZM93.2217 1.61914C94.1826 1.71875 94.6631 1.95898 94.6631 2.33984V2.82324C94.1826 4.24707 93.9424 5.04688 93.9424 5.22266C96.1865 7.5957 97.3086 9.11914 97.3086 9.79297C96.9863 10.5898 96.5059 10.9883 95.8672 10.9883C95.5977 10.9883 94.5547 9.86914 92.7383 7.63086C92.2285 9.55273 91.748 10.5137 91.2969 10.5137H90.0928L89.8555 9.30957C91.3555 4.18262 92.4775 1.61914 93.2217 1.61914ZM104.999 2.57715C105.526 2.57715 105.846 3.62012 105.957 5.70605V10.2676C105.957 11.3926 105.477 11.9551 104.516 11.9551C103.877 11.7969 103.558 11.3164 103.558 10.5137V8.10547C103.558 7.78906 103.396 7.63086 103.074 7.63086H102.6C101.592 7.63086 100.388 7.70996 98.9873 7.86816C97.71 7.7627 97.0713 7.60156 97.0713 7.38477L96.5879 6.66406C96.5879 5.76758 96.9893 5.20801 97.792 4.98535C99.0693 5.09082 99.708 5.24902 99.708 5.45996L100.191 5.22266H103.074L103.558 5.45996C103.558 3.53809 103.959 2.57715 104.762 2.57715H104.999ZM96.8252 13.3965H102.354C103.479 13.3965 104.041 14.5186 104.041 16.7627V17.9668C104.041 19.0039 102.198 19.6426 98.5127 19.8828C98.5127 20.1348 98.832 20.457 99.4707 20.8496H103.558C103.88 20.8965 104.041 21.0576 104.041 21.333C104.041 22.7744 102.837 23.4951 100.429 23.4951C97.5459 23.4951 96.1045 22.1328 96.1045 19.4082C96.749 17.9668 98.1904 17.2461 100.429 17.2461C101.231 17.2461 101.633 17.085 101.633 16.7627V16.2793C101.633 15.957 101.472 15.7959 101.149 15.7959H100.912C99.9863 15.7959 98.7061 15.8779 97.0713 16.042C96.3389 15.7314 95.9375 15.4092 95.8672 15.0752V14.3545C95.8672 14.1084 96.1865 13.7891 96.8252 13.3965ZM120.085 4.26465V4.50195C120.396 4.34375 120.636 4.26465 120.806 4.26465C121.931 4.48145 122.493 4.80078 122.493 5.22266V5.45996C122.493 6.2627 122.171 6.74316 121.526 6.90137C121.849 10.2588 122.01 12.2627 122.01 12.9131H122.968L124.172 13.1592V14.3545C123.75 15.1455 123.431 15.5469 123.214 15.5586C123.05 15.5586 122.968 15.4795 122.968 15.3213L122.493 15.5586H115.998C115.77 15.5586 115.529 15.3184 115.277 14.8379V13.8799C115.277 13.6455 115.518 13.4053 115.998 13.1592C115.682 9.52637 115.362 7.52246 115.04 7.14746L114.557 7.38477H113.353C113.106 7.38477 112.787 7.06543 112.395 6.42676V5.70605C112.395 4.90332 114.8 4.50195 119.61 4.50195C119.61 4.34375 119.769 4.26465 120.085 4.26465ZM128.021 4.73926C128.982 4.73926 129.463 6.10156 129.463 8.82617H130.904C132.088 8.82617 132.729 9.06641 132.829 9.54688V9.79297C132.829 10.7539 132.267 11.2344 131.142 11.2344C131.024 11.2344 130.544 11.3135 129.7 11.4717C130.022 14.2021 130.184 15.8047 130.184 16.2793C129.926 17.082 129.445 17.4834 128.742 17.4834C127.939 17.4834 127.538 16.7627 127.538 15.3213H127.775C127.617 15.0107 127.538 14.7705 127.538 14.6006C127.216 11.4189 127.055 8.21387 127.055 4.98535C127.336 4.82129 127.658 4.73926 128.021 4.73926ZM117.686 7.14746L118.406 13.1592H119.61C119.61 11.3955 119.449 9.30957 119.127 6.90137H118.881L117.686 7.14746ZM139.801 4.26465L141.005 4.50195V5.94336C141.005 6.58203 139.162 6.90137 135.477 6.90137V7.14746C135.635 8.01465 135.714 8.73535 135.714 9.30957V9.79297C137.384 9.3125 139.065 9.07227 140.759 9.07227C141.562 9.18359 141.963 9.42383 141.963 9.79297C141.963 11.0703 140.68 11.709 138.113 11.709C136.836 11.9902 136.197 12.2334 136.197 12.4385C136.203 12.667 136.522 13.0654 137.155 13.6338C138.808 13.3174 140.249 13.1592 141.479 13.1592C141.79 13.3174 142.03 13.3965 142.2 13.3965V14.1172C142.2 15.2363 141.16 15.7959 139.08 15.7959C139.08 15.96 138.518 16.042 137.393 16.042H137.155C135.409 16.042 134.287 15.0811 133.789 13.1592C133.309 9.35059 133.068 6.86621 133.068 5.70605V5.45996C133.396 4.82129 133.798 4.50195 134.272 4.50195C135.005 4.50195 136.848 4.42285 139.801 4.26465ZM147.491 4.98535H148.212C149.044 4.98535 149.847 8.19043 150.62 14.6006V15.7959L148.933 16.2793C148.452 16.2793 147.731 12.7549 146.771 5.70605C146.771 5.47168 147.011 5.23145 147.491 4.98535Z" fill="#222222"/>
</svg>
