<svg width="134" height="26" viewBox="0 0 134 26" fill="none" xmlns="http://www.w3.org/2000/svg">
<path d="M3.17285 0.661133H4.36816C5.0127 0.661133 5.41406 1.7832 5.57227 4.02734L6.05566 3.78125H6.53027C6.69434 3.78125 6.77637 3.86328 6.77637 4.02734L7.25098 3.78125C7.89551 4.02148 8.21777 4.26172 8.21777 4.50195C8.21777 5.05273 7.89551 5.85547 7.25098 6.91016C7.50879 6.91016 8.55176 7.54883 10.3799 8.82617C10.0576 10.1094 9.73535 10.751 9.41309 10.751H9.17578C8.8125 10.751 7.61133 10.1914 5.57227 9.07227V9.30957C4.81055 10.751 4.33008 11.4717 4.13086 11.4717H3.41016C2.92969 11.3135 2.68945 10.833 2.68945 10.0303V9.54688C2.68945 9.45898 3.24902 8.58008 4.36816 6.91016V6.66406L1.24805 7.14746C0.9375 6.98926 0.697266 6.91016 0.527344 6.91016V5.22266C0.527344 4.7832 1.32715 4.46387 2.92676 4.26465V1.86523L3.17285 0.661133ZM10.1338 11.9551C10.9482 12.2773 11.5107 12.4385 11.8213 12.4385V13.3965C11.3994 14.1875 11.0771 14.5889 10.8545 14.6006H8.45508C8.45508 15.7197 8.77441 16.2793 9.41309 16.2793C10.3037 16.543 10.9453 16.9443 11.3379 17.4834V18.9248C11.3379 21.0049 10.2979 22.0449 8.21777 22.0449C7.7373 22.4141 7.49707 22.6543 7.49707 22.7656C7.65527 22.7656 7.73438 22.8447 7.73438 23.0029C9.30469 22.5225 10.3447 22.2822 10.8545 22.2822C11.0947 22.2822 11.335 22.6045 11.5752 23.249C10.9717 24.6904 9.53027 25.4111 7.25098 25.4111C6.17871 25.0889 5.54004 24.6084 5.33496 23.9697V22.5283C5.33496 21.4209 6.4541 20.3779 8.69238 19.3994L8.93848 18.9248H8.45508C7.95703 18.9248 6.43652 19.0039 3.89355 19.1621L3.64746 17.958C3.64746 16.9971 4.36816 16.5166 5.80957 16.5166H6.29297L6.05566 16.042V14.8379C3.50684 14.9961 1.9834 15.0752 1.48535 15.0752C0.84668 14.917 0.527344 14.4365 0.527344 13.6338C0.685547 12.8369 1.08691 12.4385 1.73145 12.4385C6.01465 12.2744 8.65723 12.1924 9.65918 12.1924L10.1338 11.9551ZM18.3096 3.29785C18.5908 3.46191 18.9131 3.54395 19.2764 3.54395V4.98535C19.2764 5.65918 17.6738 6.05762 14.4688 6.18066V7.86816C17.2754 7.70996 18.957 7.63086 19.5137 7.63086C20.041 7.78906 20.3604 8.1084 20.4717 8.58887C20.4717 9.70801 18.79 10.2676 15.4268 10.2676H14.9434V10.5137L15.1895 11.709L18.3096 11.2344C19.915 11.4336 20.7178 11.7529 20.7178 12.1924V12.6758C20.3955 13.4785 19.833 13.8799 19.0303 13.8799C19.2998 16.4404 19.6221 17.7207 19.9971 17.7207C20.167 17.7207 20.4072 17.6416 20.7178 17.4834L22.8799 17.9668V18.2041C22.8799 19.3232 21.9189 19.8828 19.9971 19.8828C19.335 19.8828 18.6934 19.9648 18.0723 20.1289V19.8828L17.5889 20.1289H17.1055C16.748 20.1289 16.4287 20.0469 16.1475 19.8828L15.6641 20.1289C15.0254 19.8887 14.7061 19.6484 14.7061 19.4082V18.4414C14.7061 18.002 15.5879 17.6826 17.3516 17.4834C17.1875 17.3252 17.0264 16.2822 16.8682 14.3545C17.0264 14.0439 17.1055 13.8037 17.1055 13.6338C16.3848 13.9561 15.3447 14.1172 13.9854 14.1172H13.7393C13.083 14.1172 12.5234 10.9912 12.0605 4.73926C12.0605 3.77832 14.1436 3.29785 18.3096 3.29785ZM26.9668 7.63086H27.2041C28.0068 7.66602 28.4082 7.82422 28.4082 8.10547C29.0469 12.4355 29.3662 15.8809 29.3662 18.4414L28.4082 19.1621H27.6875C27.1074 19.1621 26.627 15.8779 26.2461 9.30957C26.082 9.30957 26 9.23047 26 9.07227C26.3281 8.11133 26.6504 7.63086 26.9668 7.63086ZM37.542 1.60156H38.2627C40.3486 1.85937 41.3916 2.82031 41.3916 4.48438V9.30078C41.3916 9.66406 40.9902 9.9043 40.1875 10.0215C39.2266 10.0215 38.7461 8.89941 38.7461 6.65527L38.9834 5.45117C38.8252 4.32617 38.585 3.76367 38.2627 3.76367H36.8213L35.6172 4.00977V3.76367C35.2832 3.89258 34.4014 4.05371 32.9717 4.24707V4.00977C32.6611 4.16797 32.4209 4.24707 32.251 4.24707L31.7676 4.00977C31.4863 4.16797 31.167 4.24707 30.8096 4.24707C30.2822 3.7666 29.8809 3.52637 29.6055 3.52637C29.6055 3.36816 29.6846 3.28906 29.8428 3.28906L29.6055 2.80566V2.56836C29.7051 2.08203 30.3467 1.83887 31.5303 1.83887V2.08496L32.0137 1.83887C32.1719 1.83887 32.251 1.9209 32.251 2.08496L32.7344 1.83887H32.9717C33.1299 1.83887 33.209 1.9209 33.209 2.08496C34.0234 1.7627 35.4678 1.60156 37.542 1.60156ZM31.293 12.1836C33.5254 12.3477 34.9668 12.4297 35.6172 12.4297C36.6367 12.4297 38.7227 12.3477 41.875 12.1836V12.4297L42.3496 12.1836C42.9941 12.4473 43.3164 13.0098 43.3164 13.8711C43.3164 14.1875 43.1553 14.3457 42.833 14.3457C38.9834 14.5098 37.0586 14.6709 37.0586 14.8291C33.0508 14.8291 31.0469 14.1875 31.0469 12.9043C31.2109 12.5938 31.293 12.3535 31.293 12.1836ZM34.1758 16.2705C34.8145 16.2705 35.2949 17.3135 35.6172 19.3994C37.3809 19.5283 38.2627 19.6895 38.2627 19.8828L38.7461 19.6455C40.0293 19.6455 40.6709 20.126 40.6709 21.0869V21.5615C40.6709 21.8076 40.3486 22.0508 39.7041 22.291C37.0146 21.9688 35.4912 21.8076 35.1338 21.8076C35.1338 21.5439 34.6533 21.2217 33.6924 20.8408C33.2119 20.2666 32.8926 18.9043 32.7344 16.7539C33.2617 16.4316 33.7422 16.2705 34.1758 16.2705ZM50.7119 5.94336C51.2979 6.26563 51.9395 6.42676 52.6367 6.42676H55.2822C55.4404 6.42676 55.5195 6.50586 55.5195 6.66406L56.0029 6.42676C56.8701 6.58496 57.5908 6.66406 58.165 6.66406H58.4111C58.8916 7.70117 59.1318 8.74414 59.1318 9.79297V10.751H62.0146C62.3955 7.86816 62.876 6.42676 63.4561 6.42676H63.9395C64.1855 6.42676 64.5049 6.74609 64.8975 7.38477C64.2588 10.8652 63.9395 13.8301 63.9395 16.2793C63.9395 17.1113 63.6992 17.5918 63.2188 17.7207H62.252L61.2939 17L61.7773 13.3965L60.5732 13.1592H59.1318C58.8564 13.1592 58.4551 14.1992 57.9277 16.2793C57.0781 16.7598 56.1963 17 55.2822 17C53.2021 17 52.001 16.5986 51.6787 15.7959C50.8467 15.7959 50.3662 14.3545 50.2373 11.4717C49.915 10.7393 49.7539 9.21875 49.7539 6.91016C49.8711 6.42383 50.1904 6.10156 50.7119 5.94336ZM66.8223 6.91016C67.625 7.13281 68.0264 7.69238 68.0264 8.58887C68.0264 14.6768 67.5459 17.7207 66.585 17.7207C65.9639 17.7207 65.4014 17.4014 64.8975 16.7627C65.3779 12.8428 65.6973 9.7168 65.8555 7.38477L66.8223 6.91016ZM52.1621 9.07227C52.748 12.5938 53.2285 14.3545 53.6035 14.3545H56.2402C56.5625 12.7197 56.7236 10.959 56.7236 9.07227H54.5615C54.4033 9.07227 54.3242 8.99023 54.3242 8.82617C54.2188 8.99023 53.498 9.07227 52.1621 9.07227ZM72.5898 4.50195C75.3145 5.46875 76.6768 7.39063 76.6768 10.2676V10.5137C76.6768 12.7578 75.5547 13.8799 73.3105 13.8799H72.5898C69.707 13.3994 68.2656 11.4746 68.2656 8.10547V7.63086C68.2656 6.34766 69.707 5.30469 72.5898 4.50195ZM82.4512 4.50195C82.9961 4.50195 83.5557 7.94727 84.1299 14.8379C83.9717 15.1484 83.8926 15.3887 83.8926 15.5586H82.2051C81.7246 15.5586 81.2441 12.2744 80.7637 5.70605C80.7637 5.16113 81.3262 4.75977 82.4512 4.50195ZM70.6738 7.63086V8.10547C70.6738 9.99219 71.3945 11.1143 72.8359 11.4717H73.0732C73.876 11.3545 74.2773 11.1143 74.2773 10.751V10.0303C73.9551 8.1084 73.3135 7.14746 72.3525 7.14746L70.6738 7.63086ZM89.8975 3.29785H93.7471L93.9844 4.98535V5.45996L92.7803 5.70605H89.6602L87.252 5.94336V7.38477H87.498L89.1768 7.14746V7.38477L89.6602 7.14746H91.585L93.2637 6.90137V7.14746C93.4219 7.14746 93.501 7.06543 93.501 6.90137L94.7051 7.14746H95.4258L95.6631 8.35156V8.82617C95.6631 9.06641 95.3438 9.30664 94.7051 9.54688C94.3477 9.54688 94.0283 9.46777 93.7471 9.30957C90.7705 9.63184 88.8457 9.79297 87.9727 9.79297C87.9727 10.3145 88.2949 11.0352 88.9395 11.9551C90.9961 11.6328 92.918 11.4717 94.7051 11.4717L95.1885 12.1924V13.6338C94.2568 13.9561 91.9336 14.2783 88.2188 14.6006C86.5371 14.6006 85.2539 11.2344 84.3691 4.50195H84.6064C84.9287 4.50195 85.0898 4.18262 85.0898 3.54395C87.252 3.37988 88.8545 3.29785 89.8975 3.29785ZM97.3506 16.2793C97.6611 16.4434 97.9014 16.5254 98.0713 16.5254V18.4414C97.0928 18.7637 95.0889 19.0859 92.0596 19.4082V19.1621C91.9482 19.3262 90.5859 19.4873 87.9727 19.6455L87.498 18.9248C87.498 17.4834 89.1006 16.7627 92.3057 16.7627C92.3057 16.6045 93.9873 16.4434 97.3506 16.2793ZM107.163 1.85645C107.966 1.95605 108.367 2.43652 108.367 3.29785L108.121 4.98535C111.648 6.93652 113.412 8.1377 113.412 8.58887V9.07227C113.254 9.55273 112.773 9.79297 111.971 9.79297C111.432 9.79297 109.908 8.99023 107.4 7.38477C107.4 9.30664 106.841 10.2676 105.722 10.2676H105.001C104.679 10.2676 104.518 10.1094 104.518 9.79297C104.518 8.50391 105.077 6.09863 106.196 2.57715C106.038 2.57715 105.959 2.49805 105.959 2.33984C106.24 2.33984 106.642 2.17871 107.163 1.85645ZM110.046 11.4717H110.767C111.124 11.4717 111.446 12.2744 111.733 13.8799H111.487C111.487 16.124 111.889 17.2461 112.691 17.2461C113.324 17.4043 113.884 17.4834 114.37 17.4834C114.452 17.4834 114.774 17.4043 115.337 17.2461C116.298 17.4453 116.778 18.166 116.778 19.4082C116.251 19.7246 115.771 19.8828 115.337 19.8828H111.25C111.086 19.8828 111.004 19.8037 111.004 19.6455L110.529 19.8828H106.196C105.37 19.8828 104.89 19.6426 104.755 19.1621V18.2041C104.755 17.9521 105.077 17.6328 105.722 17.2461H109.562C109.404 16.3672 109.325 14.6035 109.325 11.9551L110.046 11.4717ZM120.384 1.61914C121.345 1.71875 121.825 1.95898 121.825 2.33984V2.82324C121.345 4.24707 121.104 5.04688 121.104 5.22266C123.349 7.5957 124.471 9.11914 124.471 9.79297C124.148 10.5898 123.668 10.9883 123.029 10.9883C122.76 10.9883 121.717 9.86914 119.9 7.63086C119.391 9.55273 118.91 10.5137 118.459 10.5137H117.255L117.018 9.30957C118.518 4.18262 119.64 1.61914 120.384 1.61914ZM132.161 2.57715C132.688 2.57715 133.008 3.62012 133.119 5.70605V10.2676C133.119 11.3926 132.639 11.9551 131.678 11.9551C131.039 11.7969 130.72 11.3164 130.72 10.5137V8.10547C130.72 7.78906 130.559 7.63086 130.236 7.63086H129.762C128.754 7.63086 127.55 7.70996 126.149 7.86816C124.872 7.7627 124.233 7.60156 124.233 7.38477L123.75 6.66406C123.75 5.76758 124.151 5.20801 124.954 4.98535C126.231 5.09082 126.87 5.24902 126.87 5.45996L127.354 5.22266H130.236L130.72 5.45996C130.72 3.53809 131.121 2.57715 131.924 2.57715H132.161ZM123.987 13.3965H129.516C130.641 13.3965 131.203 14.5186 131.203 16.7627V17.9668C131.203 19.0039 129.36 19.6426 125.675 19.8828C125.675 20.1348 125.994 20.457 126.633 20.8496H130.72C131.042 20.8965 131.203 21.0576 131.203 21.333C131.203 22.7744 129.999 23.4951 127.591 23.4951C124.708 23.4951 123.267 22.1328 123.267 19.4082C123.911 17.9668 125.353 17.2461 127.591 17.2461C128.394 17.2461 128.795 17.085 128.795 16.7627V16.2793C128.795 15.957 128.634 15.7959 128.312 15.7959H128.074C127.148 15.7959 125.868 15.8779 124.233 16.042C123.501 15.7314 123.1 15.4092 123.029 15.0752V14.3545C123.029 14.1084 123.349 13.7891 123.987 13.3965Z" fill="#222222"/>
</svg>
