<svg width="82" height="25" viewBox="0 0 82 25" fill="none" xmlns="http://www.w3.org/2000/svg">
<path d="M1.24805 0.880859C5.25586 1.39648 7.25977 1.71582 7.25977 1.83887L7.74316 1.60156H9.66797C11.9121 2.02344 13.0342 3.86621 13.0342 7.12988C12.7236 7.8623 12.4043 8.26367 12.0762 8.33398H11.5928C11.0127 8.33398 10.5322 6.89258 10.1514 4.00977C9.8291 4.00977 9.66797 3.92773 9.66797 3.76367L9.18457 4.00977H8.94727C8.7832 4.00977 8.70117 3.92773 8.70117 3.76367C7.74023 3.97461 7.25977 4.21484 7.25977 4.48438V7.37598C7.25977 8.33691 6.7793 8.81738 5.81836 8.81738C5.17969 8.2373 4.86035 7.5957 4.86035 6.89258V3.76367C1.97168 3.44727 0.527344 3.04883 0.527344 2.56836V1.11816C0.697266 1.11816 0.9375 1.03906 1.24805 0.880859ZM2.45215 9.78418C3.2959 9.94238 3.77637 10.0215 3.89355 10.0215C8.82129 9.86328 12.1904 9.78418 14.001 9.78418L14.7217 10.7422V11.4629C14.7217 11.6914 14.4814 11.9316 14.001 12.1836H9.43066V12.9043L9.66797 14.5918H11.1094C12.3926 14.5918 13.0342 15.3125 13.0342 16.7539V18.1953C13.0342 20.123 10.9512 21.0869 6.78516 21.0869V21.5615C8.60742 21.8838 9.8877 22.0449 10.626 22.0449H12.0762C12.3047 22.0449 12.5449 22.2852 12.7969 22.7656V23.0117C12.2988 23.9727 11.335 24.4531 9.90527 24.4531C7.11035 24.4531 5.18555 23.249 4.13086 20.8408C4.53516 19.5576 5.33789 18.916 6.53906 18.916C9.18164 18.7578 10.626 18.2773 10.8721 17.4746V16.7539C7.24512 16.918 4.99805 17 4.13086 17L3.41016 16.0332L3.65625 14.8291H6.30176L7.50586 14.5918L7.25977 14.1084V12.4297H5.09766C2.85352 12.4297 1.73145 11.8672 1.73145 10.7422L2.45215 9.78418ZM15.4443 2.33984H16.6396C17.2842 2.33984 17.6855 4.02148 17.8438 7.38477L19.5312 7.14746H22.1768L25.0596 6.90137V6.42676C25.0596 4.01855 25.3789 2.81445 26.0176 2.81445H26.501C27.1396 3.13672 27.459 3.62012 27.459 4.26465C27.459 10.6748 26.3369 13.8799 24.0928 13.8799V14.3545C23.7764 14.3545 23.6182 14.1963 23.6182 13.8799L23.1348 14.1172H22.8975C22.7334 14.1172 22.6514 14.0381 22.6514 13.8799L22.1768 14.1172H21.21L18.8105 14.3545V14.1172L18.3271 14.3545C16.7334 14.3545 15.8516 12.9131 15.6816 10.0303C15.5234 6.39746 15.2832 4.23535 14.9609 3.54395C15.2832 3.02246 15.4443 2.62109 15.4443 2.33984ZM22.1768 9.54688H19.5312L18.3271 9.79297C18.3271 9.62891 18.248 9.54688 18.0898 9.54688V10.2676L18.3271 11.9551C22.335 11.9551 24.3389 11.4746 24.3389 10.5137L24.5762 9.30957H24.3389L22.6514 9.54688V9.30957L22.1768 9.54688ZM21.6934 14.3545C22.4961 14.6123 22.8975 15.1748 22.8975 16.042C22.7334 16.8799 22.6514 17.6797 22.6514 18.4414H25.7803C26.7412 18.4414 27.2217 18.9219 27.2217 19.8828C27.0049 20.5273 26.2842 20.8496 25.0596 20.8496H17.3691C16.9766 20.5273 16.6543 20.3662 16.4023 20.3662V19.1621C16.4023 18.9336 16.6426 18.6934 17.123 18.4414H20.252L20.4893 15.5586V14.6006L21.6934 14.3545ZM35.626 4.49316C35.9482 5.01465 36.1094 5.49512 36.1094 5.93457V6.40918C35.8633 7.21191 33.8594 7.61328 30.0977 7.61328V9.53809C30.0977 12.2627 30.7393 13.625 32.0225 13.625H35.1426C35.3066 13.625 35.6289 13.9473 36.1094 14.5918C36.1094 15.875 35.6289 16.5166 34.668 16.5166C33.748 16.5166 33.1855 16.5957 32.9805 16.7539C29.9336 16.3789 28.4102 15.5791 28.4102 14.3545C27.9297 12.8545 27.6895 11.4893 27.6895 10.2588V5.93457L28.6475 4.73047L30.335 4.96777C33.3936 4.65137 35.1572 4.49316 35.626 4.49316ZM41.6377 4.49316C42.2822 5.29004 42.6045 6.89258 42.6045 9.30078H45.25L46.4541 9.53809V11.2256C46.29 11.7061 45.8066 11.9463 45.0039 11.9463H42.6045V15.7959C42.6045 16.915 42.042 17.4746 40.917 17.4746L40.1963 16.5166V9.78418C40.1963 8.85254 40.1172 7.56934 39.959 5.93457C40.2227 4.97363 40.7822 4.49316 41.6377 4.49316ZM55.5459 1.85645C56.3486 1.95605 56.75 2.43652 56.75 3.29785L56.5039 4.98535C60.0312 6.93652 61.7949 8.1377 61.7949 8.58887V9.07227C61.6367 9.55273 61.1562 9.79297 60.3535 9.79297C59.8145 9.79297 58.291 8.99023 55.7832 7.38477C55.7832 9.30664 55.2236 10.2676 54.1045 10.2676H53.3838C53.0615 10.2676 52.9004 10.1094 52.9004 9.79297C52.9004 8.50391 53.46 6.09863 54.5791 2.57715C54.4209 2.57715 54.3418 2.49805 54.3418 2.33984C54.623 2.33984 55.0244 2.17871 55.5459 1.85645ZM58.4287 11.4717H59.1494C59.5068 11.4717 59.8291 12.2744 60.1162 13.8799H59.8701C59.8701 16.124 60.2715 17.2461 61.0742 17.2461C61.707 17.4043 62.2666 17.4834 62.7529 17.4834C62.835 17.4834 63.1572 17.4043 63.7197 17.2461C64.6807 17.4453 65.1611 18.166 65.1611 19.4082C64.6338 19.7246 64.1533 19.8828 63.7197 19.8828H59.6328C59.4688 19.8828 59.3867 19.8037 59.3867 19.6455L58.9121 19.8828H54.5791C53.7529 19.8828 53.2725 19.6426 53.1377 19.1621V18.2041C53.1377 17.9521 53.46 17.6328 54.1045 17.2461H57.9453C57.7871 16.3672 57.708 14.6035 57.708 11.9551L58.4287 11.4717ZM68.7666 1.61914C69.7275 1.71875 70.208 1.95898 70.208 2.33984V2.82324C69.7275 4.24707 69.4873 5.04688 69.4873 5.22266C71.7314 7.5957 72.8535 9.11914 72.8535 9.79297C72.5312 10.5898 72.0508 10.9883 71.4121 10.9883C71.1426 10.9883 70.0996 9.86914 68.2832 7.63086C67.7734 9.55273 67.293 10.5137 66.8418 10.5137H65.6377L65.4004 9.30957C66.9004 4.18262 68.0225 1.61914 68.7666 1.61914ZM80.5439 2.57715C81.0713 2.57715 81.3906 3.62012 81.502 5.70605V10.2676C81.502 11.3926 81.0215 11.9551 80.0605 11.9551C79.4219 11.7969 79.1025 11.3164 79.1025 10.5137V8.10547C79.1025 7.78906 78.9414 7.63086 78.6191 7.63086H78.1445C77.1367 7.63086 75.9326 7.70996 74.5322 7.86816C73.2549 7.7627 72.6162 7.60156 72.6162 7.38477L72.1328 6.66406C72.1328 5.76758 72.5342 5.20801 73.3369 4.98535C74.6143 5.09082 75.2529 5.24902 75.2529 5.45996L75.7363 5.22266H78.6191L79.1025 5.45996C79.1025 3.53809 79.5039 2.57715 80.3066 2.57715H80.5439ZM72.3701 13.3965H77.8984C79.0234 13.3965 79.5859 14.5186 79.5859 16.7627V17.9668C79.5859 19.0039 77.7432 19.6426 74.0576 19.8828C74.0576 20.1348 74.377 20.457 75.0156 20.8496H79.1025C79.4248 20.8965 79.5859 21.0576 79.5859 21.333C79.5859 22.7744 78.3818 23.4951 75.9736 23.4951C73.0908 23.4951 71.6494 22.1328 71.6494 19.4082C72.2939 17.9668 73.7354 17.2461 75.9736 17.2461C76.7764 17.2461 77.1777 17.085 77.1777 16.7627V16.2793C77.1777 15.957 77.0166 15.7959 76.6943 15.7959H76.457C75.5312 15.7959 74.251 15.8779 72.6162 16.042C71.8838 15.7314 71.4824 15.4092 71.4121 15.0752V14.3545C71.4121 14.1084 71.7314 13.7891 72.3701 13.3965Z" fill="#222222"/>
</svg>
