<svg width="108" height="25" viewBox="0 0 108 25" fill="none" xmlns="http://www.w3.org/2000/svg">
<path d="M1.24805 0.880859C5.25586 1.39648 7.25977 1.71582 7.25977 1.83887L7.74316 1.60156H9.66797C11.9121 2.02344 13.0342 3.86621 13.0342 7.12988C12.7236 7.8623 12.4043 8.26367 12.0762 8.33398H11.5928C11.0127 8.33398 10.5322 6.89258 10.1514 4.00977C9.8291 4.00977 9.66797 3.92773 9.66797 3.76367L9.18457 4.00977H8.94727C8.7832 4.00977 8.70117 3.92773 8.70117 3.76367C7.74023 3.97461 7.25977 4.21484 7.25977 4.48438V7.37598C7.25977 8.33691 6.7793 8.81738 5.81836 8.81738C5.17969 8.2373 4.86035 7.5957 4.86035 6.89258V3.76367C1.97168 3.44727 0.527344 3.04883 0.527344 2.56836V1.11816C0.697266 1.11816 0.9375 1.03906 1.24805 0.880859ZM2.45215 9.78418C3.2959 9.94238 3.77637 10.0215 3.89355 10.0215C8.82129 9.86328 12.1904 9.78418 14.001 9.78418L14.7217 10.7422V11.4629C14.7217 11.6914 14.4814 11.9316 14.001 12.1836H9.43066V12.9043L9.66797 14.5918H11.1094C12.3926 14.5918 13.0342 15.3125 13.0342 16.7539V18.1953C13.0342 20.123 10.9512 21.0869 6.78516 21.0869V21.5615C8.60742 21.8838 9.8877 22.0449 10.626 22.0449H12.0762C12.3047 22.0449 12.5449 22.2852 12.7969 22.7656V23.0117C12.2988 23.9727 11.335 24.4531 9.90527 24.4531C7.11035 24.4531 5.18555 23.249 4.13086 20.8408C4.53516 19.5576 5.33789 18.916 6.53906 18.916C9.18164 18.7578 10.626 18.2773 10.8721 17.4746V16.7539C7.24512 16.918 4.99805 17 4.13086 17L3.41016 16.0332L3.65625 14.8291H6.30176L7.50586 14.5918L7.25977 14.1084V12.4297H5.09766C2.85352 12.4297 1.73145 11.8672 1.73145 10.7422L2.45215 9.78418ZM16.165 1.60156L17.3691 2.32227C19.2852 2 20.7266 1.83887 21.6934 1.83887C23.6211 2.10254 24.585 3.38574 24.585 5.68848C24.585 9.53809 23.8613 11.4629 22.4141 11.4629C21.4121 11.6211 20.29 11.7002 19.0479 11.7002C17.126 11.7002 16.165 10.5781 16.165 8.33398C15.3623 5.82617 14.9609 3.82227 14.9609 2.32227V1.83887L16.165 1.60156ZM29.3926 1.83887C29.8203 1.8916 30.2217 2.29297 30.5967 3.04297L30.3506 4.24707V6.65527C31.124 6.65527 32.4072 6.81348 34.2002 7.12988V8.81738L32.9961 9.05469H30.3506V9.30078C30.5146 10.4434 30.5967 11.085 30.5967 11.2256C30.4326 11.5361 30.3506 11.7764 30.3506 11.9463C30.5146 12.2568 30.5967 12.4971 30.5967 12.667C30.374 13.4697 29.8115 13.8711 28.9092 13.8711C28.5811 13.8008 28.2617 13.3994 27.9512 12.667C28.1094 11.7998 28.1885 11.0791 28.1885 10.5049V10.2588L27.9512 9.05469H28.1885L27.9512 8.58008V4.96777C27.9512 2.88184 28.2705 1.83887 28.9092 1.83887H29.3926ZM17.6064 4.73047V4.96777C18.1455 7.04199 18.5469 8.4043 18.8105 9.05469L19.7686 9.30078C21.2158 9.20117 21.9395 9.04004 21.9395 8.81738C21.9395 8.43066 22.0186 7.22949 22.1768 5.21387L21.6934 4.24707C19.8418 4.56934 18.4795 4.73047 17.6064 4.73047ZM24.8223 14.3457C25.4609 14.5098 25.7803 14.9932 25.7803 15.7959L25.543 17C28.1094 18.7637 29.3926 19.9648 29.3926 20.6035L28.4346 21.8076C27.5029 21.8076 26.2988 21.0049 24.8223 19.3994C24.5 19.3994 24.3389 19.4814 24.3389 19.6455C24.0225 21.2451 23.6211 22.0449 23.1348 22.0449H22.1768C21.6963 21.8867 21.4561 21.4062 21.4561 20.6035C22.7861 16.9648 23.668 14.8789 24.1016 14.3457H24.8223ZM38.7637 4.50195C41.4883 5.46875 42.8506 7.39063 42.8506 10.2676V10.5137C42.8506 12.7578 41.7285 13.8799 39.4844 13.8799H38.7637C35.8809 13.3994 34.4395 11.4746 34.4395 8.10547V7.63086C34.4395 6.34766 35.8809 5.30469 38.7637 4.50195ZM48.625 4.50195C49.1699 4.50195 49.7295 7.94727 50.3037 14.8379C50.1455 15.1484 50.0664 15.3887 50.0664 15.5586H48.3789C47.8984 15.5586 47.418 12.2744 46.9375 5.70605C46.9375 5.16113 47.5 4.75977 48.625 4.50195ZM36.8477 7.63086V8.10547C36.8477 9.99219 37.5684 11.1143 39.0098 11.4717H39.2471C40.0498 11.3545 40.4512 11.1143 40.4512 10.751V10.0303C40.1289 8.1084 39.4873 7.14746 38.5264 7.14746L36.8477 7.63086ZM58.4795 4.49316C58.8018 5.01465 58.9629 5.49512 58.9629 5.93457V6.40918C58.7168 7.21191 56.7129 7.61328 52.9512 7.61328V9.53809C52.9512 12.2627 53.5928 13.625 54.876 13.625H57.9961C58.1602 13.625 58.4824 13.9473 58.9629 14.5918C58.9629 15.875 58.4824 16.5166 57.5215 16.5166C56.6016 16.5166 56.0391 16.5957 55.834 16.7539C52.7871 16.3789 51.2637 15.5791 51.2637 14.3545C50.7832 12.8545 50.543 11.4893 50.543 10.2588V5.93457L51.501 4.73047L53.1885 4.96777C56.2471 4.65137 58.0107 4.49316 58.4795 4.49316ZM64.4912 4.49316C65.1357 5.29004 65.458 6.89258 65.458 9.30078H68.1035L69.3076 9.53809V11.2256C69.1436 11.7061 68.6602 11.9463 67.8574 11.9463H65.458V15.7959C65.458 16.915 64.8955 17.4746 63.7705 17.4746L63.0498 16.5166V9.78418C63.0498 8.85254 62.9707 7.56934 62.8125 5.93457C63.0762 4.97363 63.6357 4.49316 64.4912 4.49316ZM70.2676 2.32227H70.9883C71.3105 2.65039 71.6328 5.53613 71.9551 10.9795L70.9883 11.7002H70.751C70.3291 11.7002 70.0068 11.0586 69.7842 9.77539V7.37598L69.5469 5.92578C69.5469 5.76758 69.626 5.68848 69.7842 5.68848L69.5469 4.48438V3.04297C69.5469 2.80859 69.7871 2.56836 70.2676 2.32227ZM71.709 13.3877C72.1953 14.3135 72.4385 14.876 72.4385 15.0752C72.1982 15.7139 71.9551 16.0332 71.709 16.0332C70.748 16.0332 70.2676 15.5527 70.2676 14.5918C70.3672 14.1113 70.8477 13.71 71.709 13.3877ZM81.5303 1.85645C82.333 1.95605 82.7344 2.43652 82.7344 3.29785L82.4883 4.98535C86.0156 6.93652 87.7793 8.1377 87.7793 8.58887V9.07227C87.6211 9.55273 87.1406 9.79297 86.3379 9.79297C85.7988 9.79297 84.2754 8.99023 81.7676 7.38477C81.7676 9.30664 81.208 10.2676 80.0889 10.2676H79.3682C79.0459 10.2676 78.8848 10.1094 78.8848 9.79297C78.8848 8.50391 79.4443 6.09863 80.5635 2.57715C80.4053 2.57715 80.3262 2.49805 80.3262 2.33984C80.6074 2.33984 81.0088 2.17871 81.5303 1.85645ZM84.4131 11.4717H85.1338C85.4912 11.4717 85.8135 12.2744 86.1006 13.8799H85.8545C85.8545 16.124 86.2559 17.2461 87.0586 17.2461C87.6914 17.4043 88.251 17.4834 88.7373 17.4834C88.8193 17.4834 89.1416 17.4043 89.7041 17.2461C90.665 17.4453 91.1455 18.166 91.1455 19.4082C90.6182 19.7246 90.1377 19.8828 89.7041 19.8828H85.6172C85.4531 19.8828 85.3711 19.8037 85.3711 19.6455L84.8965 19.8828H80.5635C79.7373 19.8828 79.2568 19.6426 79.1221 19.1621V18.2041C79.1221 17.9521 79.4443 17.6328 80.0889 17.2461H83.9297C83.7715 16.3672 83.6924 14.6035 83.6924 11.9551L84.4131 11.4717ZM94.751 1.61914C95.7119 1.71875 96.1924 1.95898 96.1924 2.33984V2.82324C95.7119 4.24707 95.4717 5.04688 95.4717 5.22266C97.7158 7.5957 98.8379 9.11914 98.8379 9.79297C98.5156 10.5898 98.0352 10.9883 97.3965 10.9883C97.127 10.9883 96.084 9.86914 94.2676 7.63086C93.7578 9.55273 93.2773 10.5137 92.8262 10.5137H91.6221L91.3848 9.30957C92.8848 4.18262 94.0068 1.61914 94.751 1.61914ZM106.528 2.57715C107.056 2.57715 107.375 3.62012 107.486 5.70605V10.2676C107.486 11.3926 107.006 11.9551 106.045 11.9551C105.406 11.7969 105.087 11.3164 105.087 10.5137V8.10547C105.087 7.78906 104.926 7.63086 104.604 7.63086H104.129C103.121 7.63086 101.917 7.70996 100.517 7.86816C99.2393 7.7627 98.6006 7.60156 98.6006 7.38477L98.1172 6.66406C98.1172 5.76758 98.5186 5.20801 99.3213 4.98535C100.599 5.09082 101.237 5.24902 101.237 5.45996L101.721 5.22266H104.604L105.087 5.45996C105.087 3.53809 105.488 2.57715 106.291 2.57715H106.528ZM98.3545 13.3965H103.883C105.008 13.3965 105.57 14.5186 105.57 16.7627V17.9668C105.57 19.0039 103.728 19.6426 100.042 19.8828C100.042 20.1348 100.361 20.457 101 20.8496H105.087C105.409 20.8965 105.57 21.0576 105.57 21.333C105.57 22.7744 104.366 23.4951 101.958 23.4951C99.0752 23.4951 97.6338 22.1328 97.6338 19.4082C98.2783 17.9668 99.7197 17.2461 101.958 17.2461C102.761 17.2461 103.162 17.085 103.162 16.7627V16.2793C103.162 15.957 103.001 15.7959 102.679 15.7959H102.441C101.516 15.7959 100.235 15.8779 98.6006 16.042C97.8682 15.7314 97.4668 15.4092 97.3965 15.0752V14.3545C97.3965 14.1084 97.7158 13.7891 98.3545 13.3965Z" fill="#222222"/>
</svg>
