<svg width="149" height="25" viewBox="0 0 149 25" fill="none" xmlns="http://www.w3.org/2000/svg">
<path d="M1.24805 0.880859C5.25586 1.39648 7.25977 1.71582 7.25977 1.83887L7.74316 1.60156H9.66797C11.9121 2.02344 13.0342 3.86621 13.0342 7.12988C12.7236 7.8623 12.4043 8.26367 12.0762 8.33398H11.5928C11.0127 8.33398 10.5322 6.89258 10.1514 4.00977C9.8291 4.00977 9.66797 3.92773 9.66797 3.76367L9.18457 4.00977H8.94727C8.7832 4.00977 8.70117 3.92773 8.70117 3.76367C7.74023 3.97461 7.25977 4.21484 7.25977 4.48438V7.37598C7.25977 8.33691 6.7793 8.81738 5.81836 8.81738C5.17969 8.2373 4.86035 7.5957 4.86035 6.89258V3.76367C1.97168 3.44727 0.527344 3.04883 0.527344 2.56836V1.11816C0.697266 1.11816 0.9375 1.03906 1.24805 0.880859ZM2.45215 9.78418C3.2959 9.94238 3.77637 10.0215 3.89355 10.0215C8.82129 9.86328 12.1904 9.78418 14.001 9.78418L14.7217 10.7422V11.4629C14.7217 11.6914 14.4814 11.9316 14.001 12.1836H9.43066V12.9043L9.66797 14.5918H11.1094C12.3926 14.5918 13.0342 15.3125 13.0342 16.7539V18.1953C13.0342 20.123 10.9512 21.0869 6.78516 21.0869V21.5615C8.60742 21.8838 9.8877 22.0449 10.626 22.0449H12.0762C12.3047 22.0449 12.5449 22.2852 12.7969 22.7656V23.0117C12.2988 23.9727 11.335 24.4531 9.90527 24.4531C7.11035 24.4531 5.18555 23.249 4.13086 20.8408C4.53516 19.5576 5.33789 18.916 6.53906 18.916C9.18164 18.7578 10.626 18.2773 10.8721 17.4746V16.7539C7.24512 16.918 4.99805 17 4.13086 17L3.41016 16.0332L3.65625 14.8291H6.30176L7.50586 14.5918L7.25977 14.1084V12.4297H5.09766C2.85352 12.4297 1.73145 11.8672 1.73145 10.7422L2.45215 9.78418ZM22.6514 0.898438C22.6514 1.14453 22.8125 1.46387 23.1348 1.85645C22.877 2.98145 22.4756 3.54395 21.9307 3.54395C18.8896 3.54395 17.3691 3.78418 17.3691 4.26465V5.45996H17.6064C18.1689 4.97949 19.1299 4.73926 20.4893 4.73926H21.6934L22.6514 5.45996C22.458 6.74316 22.1387 7.38477 21.6934 7.38477H19.7686C18.585 7.38477 17.9434 7.625 17.8438 8.10547V8.35156L20.252 8.58887C20.4512 8.58887 21.251 8.50977 22.6514 8.35156L23.1348 9.07227C23.1348 10.3496 22.4141 10.9883 20.9727 10.9883L21.21 12.4385H22.6514L25.0596 12.1924L25.2969 13.3965C25.2969 14.5156 23.6152 15.0752 20.252 15.0752H16.8857C16.4814 14.5947 16.1592 14.3545 15.9189 14.3545C15.9189 13.0771 16.8828 12.4385 18.8105 12.4385V11.709C18.8105 11.4688 17.8467 10.9883 15.9189 10.2676C15.6025 9.3418 15.2832 7.41992 14.9609 4.50195L15.1982 4.01855L14.9609 2.57715V2.33984C14.9609 1.37891 17.5244 0.898438 22.6514 0.898438ZM21.9307 16.5254C23.4482 16.5254 24.5703 17.8057 25.2969 20.3662C24.6582 23.0908 23.5361 24.4531 21.9307 24.4531H21.6934C19.127 24.4531 17.8438 22.7715 17.8438 19.4082C17.8438 17.4863 19.2061 16.5254 21.9307 16.5254ZM20.252 18.9248V19.1621C20.457 20.9258 21.0166 21.8076 21.9307 21.8076C22.2412 21.6494 22.4814 21.5703 22.6514 21.5703V20.3662C22.6514 20.1436 22.1709 19.6631 21.21 18.9248H20.252ZM26.0107 2.33984H27.2061C27.8506 2.33984 28.252 4.02148 28.4102 7.38477L30.0977 7.14746H32.7432L35.626 6.90137V6.42676C35.626 4.01855 35.9453 2.81445 36.584 2.81445H37.0674C37.7061 3.13672 38.0254 3.62012 38.0254 4.26465C38.0254 10.6748 36.9033 13.8799 34.6592 13.8799V14.3545C34.3428 14.3545 34.1846 14.1963 34.1846 13.8799L33.7012 14.1172H33.4639C33.2998 14.1172 33.2178 14.0381 33.2178 13.8799L32.7432 14.1172H31.7764L29.377 14.3545V14.1172L28.8936 14.3545C27.2998 14.3545 26.418 12.9131 26.248 10.0303C26.0898 6.39746 25.8496 4.23535 25.5273 3.54395C25.8496 3.02246 26.0107 2.62109 26.0107 2.33984ZM32.7432 9.54688H30.0977L28.8936 9.79297C28.8936 9.62891 28.8145 9.54688 28.6562 9.54688V10.2676L28.8936 11.9551C32.9014 11.9551 34.9053 11.4746 34.9053 10.5137L35.1426 9.30957H34.9053L33.2178 9.54688V9.30957L32.7432 9.54688ZM32.2598 14.3545C33.0625 14.6123 33.4639 15.1748 33.4639 16.042C33.2998 16.8799 33.2178 17.6797 33.2178 18.4414H36.3467C37.3076 18.4414 37.7881 18.9219 37.7881 19.8828C37.5713 20.5273 36.8506 20.8496 35.626 20.8496H27.9355C27.543 20.5273 27.2207 20.3662 26.9688 20.3662V19.1621C26.9688 18.9336 27.209 18.6934 27.6895 18.4414H30.8184L31.0557 15.5586V14.6006L32.2598 14.3545ZM46.1924 4.49316C46.5146 5.01465 46.6758 5.49512 46.6758 5.93457V6.40918C46.4297 7.21191 44.4258 7.61328 40.6641 7.61328V9.53809C40.6641 12.2627 41.3057 13.625 42.5889 13.625H45.709C45.873 13.625 46.1953 13.9473 46.6758 14.5918C46.6758 15.875 46.1953 16.5166 45.2344 16.5166C44.3145 16.5166 43.752 16.5957 43.5469 16.7539C40.5 16.3789 38.9766 15.5791 38.9766 14.3545C38.4961 12.8545 38.2559 11.4893 38.2559 10.2588V5.93457L39.2139 4.73047L40.9014 4.96777C43.96 4.65137 45.7236 4.49316 46.1924 4.49316ZM52.2041 4.49316C52.8486 5.29004 53.1709 6.89258 53.1709 9.30078H55.8164L57.0205 9.53809V11.2256C56.8564 11.7061 56.373 11.9463 55.5703 11.9463H53.1709V15.7959C53.1709 16.915 52.6084 17.4746 51.4834 17.4746L50.7627 16.5166V9.78418C50.7627 8.85254 50.6836 7.56934 50.5254 5.93457C50.7891 4.97363 51.3486 4.49316 52.2041 4.49316ZM64.6709 1.11816C69.4814 1.11816 71.8867 1.60156 71.8867 2.56836V3.04297C71.8867 3.62891 71.6465 4.1123 71.166 4.49316C68.3652 4.1709 66.6016 4.00977 65.875 4.00977V5.45117C65.875 6.73438 67.1582 7.37598 69.7246 7.37598H70.1992L70.4453 8.58008V9.30078C70.123 9.93945 69.6396 10.2588 68.9951 10.2588C65.4678 10.2588 63.7041 8.89648 63.7041 6.17188L63.4668 4.49316H63.7041L63.4668 4.00977V3.52637C63.4668 3.16309 63.8682 2.36035 64.6709 1.11816ZM76.2109 1.36426C76.8555 2.41309 77.1777 3.61426 77.1777 4.96777C79.4219 5.08496 80.5439 5.24609 80.5439 5.45117C80.8662 5.97852 81.0273 6.45898 81.0273 6.89258V7.13867C81.0273 7.36719 80.7871 7.60742 80.3066 7.85938H77.415V10.0215L77.6611 11.2256L76.6943 11.9463H75.7363C75.2559 11.7881 75.0156 11.3076 75.0156 10.5049V6.65527C75.0156 5.91113 74.8545 4.62793 74.5322 2.80566C74.8193 1.84473 75.3789 1.36426 76.2109 1.36426ZM68.5205 12.667C73.3311 12.667 75.7363 13.4697 75.7363 15.0752V16.2705C75.1797 18.6787 73.7354 19.8828 71.4033 19.8828V20.1201L72.8447 20.3662C73.0439 20.3662 73.8467 20.2842 75.2529 20.1201L75.9736 21.0869C75.9736 22.0479 75.0918 22.7686 73.3281 23.249C70.123 23.249 68.5205 22.2881 68.5205 20.3662V20.1201C68.5205 18.374 70.0439 17.1729 73.0908 16.5166L73.3281 16.0332V15.7959H72.8447C69.1592 15.7959 67.3164 15.4736 67.3164 14.8291V14.3545C67.3164 13.4521 67.7178 12.8896 68.5205 12.667ZM86.7861 0.661133H88.7021C89.7041 0.661133 90.3457 1.54297 90.627 3.30664C90.7266 3.30664 90.9668 4.98828 91.3477 8.35156C91.0957 9.3125 90.5361 9.79297 89.6689 9.79297H88.9482L88.7021 8.58887V6.91016L83.6572 7.63086C83.0186 7.39063 82.6992 7.15039 82.6992 6.91016V5.46875C83.7832 5.02344 85.7051 4.62207 88.4648 4.26465C88.2598 3.46191 88.0195 3.06055 87.7441 3.06055H87.5068C86.8154 3.06055 85.0518 3.22168 82.2158 3.54395C81.5771 3.30371 81.2578 3.06348 81.2578 2.82324V1.86523C81.2578 1.0625 83.1006 0.661133 86.7861 0.661133ZM86.54 8.35156C87.1846 8.35156 87.5068 9.3125 87.5068 11.2344V11.9551H87.7441C89.5664 11.6328 90.8467 11.4717 91.585 11.4717H92.3057C92.54 11.4717 92.7803 11.7119 93.0264 12.1924V12.9131C93.0264 13.6807 90.9463 14.2432 86.7861 14.6006C86.7861 14.8174 85.5029 15.0576 82.9365 15.3213C82.21 15.0107 81.8115 14.6885 81.7412 14.3545V13.1592C83.1006 12.6787 84.2197 12.4385 85.0986 12.4385V11.9551L84.8613 9.07227C85.4473 8.5918 86.0068 8.35156 86.54 8.35156ZM92.0684 15.5586C92.5488 16.1445 92.7891 16.7041 92.7891 17.2373V17.7207C92.7891 21.2422 92.0684 23.0029 90.627 23.0029C90.627 23.1318 90.3076 23.293 89.6689 23.4863L88.4648 23.249H86.7861C86.6221 23.249 86.54 23.167 86.54 23.0029C86.2295 23.167 85.9893 23.249 85.8193 23.249C85.1807 23.0088 84.8613 22.7686 84.8613 22.5283V22.2822C84.8613 20.0908 84.6211 18.7314 84.1406 18.2041V17.2373C84.1406 16.5986 86.7832 16.0391 92.0684 15.5586ZM87.0234 18.6787V19.1621L87.2607 20.8408H89.9062C90.2285 19.2939 90.3896 18.415 90.3896 18.2041C88.2568 18.5205 87.1348 18.6787 87.0234 18.6787ZM96.6318 2.10254H96.8691C97.9883 2.10254 98.5479 3.22461 98.5479 5.46875C98.7119 5.46875 98.7939 5.94922 98.7939 6.91016H100.71C102.222 6.91016 103.344 7.22949 104.076 7.86816C104.076 8.9873 103.596 9.54688 102.635 9.54688H101.193C101.551 10.0566 101.87 10.8594 102.151 11.9551C101.976 14.1992 100.936 15.3213 99.0312 15.3213H98.5479C97.2705 15.3213 96.1514 14.4395 95.1904 12.6758V10.9971L95.4277 9.79297H94.4697L93.2656 9.54688V8.82617C93.2656 7.70703 94.3057 7.14746 96.3857 7.14746C96.0693 5.38965 95.9111 4.18848 95.9111 3.54395C96.0693 2.58301 96.3096 2.10254 96.6318 2.10254ZM107.68 4.74805H108.4C109.039 4.74805 109.44 6.10742 109.604 8.82617L111.767 8.35156C112.886 8.50977 113.445 8.75 113.445 9.07227V9.79297C113.445 10.5371 112.244 11.0176 109.842 11.2344C109.959 11.5215 110.12 12.6436 110.325 14.6006C110.015 15.3271 109.692 15.7256 109.358 15.7959H108.163C107.683 14.4365 107.442 13.4756 107.442 12.9131H107.68C107.521 12.3799 107.202 10.1387 106.722 6.18945C107.044 5.22852 107.363 4.74805 107.68 4.74805ZM97.5898 10.5137C97.4316 10.8242 97.3525 11.0645 97.3525 11.2344C97.6689 12.1016 98.1494 12.6611 98.7939 12.9131C99.2744 12.7549 99.5146 12.5967 99.5146 12.4385C99.3975 11.1553 98.7559 10.5137 97.5898 10.5137ZM103.118 16.7627H103.839C104.536 16.7627 104.935 18.1221 105.034 20.8408C105.433 20.8408 106.634 20.6826 108.638 20.3662C109.44 20.6826 109.842 20.9229 109.842 21.0869C109.842 22.5283 108.16 23.249 104.797 23.249H104.313C103.036 23.249 102.397 21.7256 102.397 18.6787V18.4414C102.503 17.3223 102.743 16.7627 103.118 16.7627ZM122.528 1.85645C123.331 1.95605 123.732 2.43652 123.732 3.29785L123.486 4.98535C127.014 6.93652 128.777 8.1377 128.777 8.58887V9.07227C128.619 9.55273 128.139 9.79297 127.336 9.79297C126.797 9.79297 125.273 8.99023 122.766 7.38477C122.766 9.30664 122.206 10.2676 121.087 10.2676H120.366C120.044 10.2676 119.883 10.1094 119.883 9.79297C119.883 8.50391 120.442 6.09863 121.562 2.57715C121.403 2.57715 121.324 2.49805 121.324 2.33984C121.605 2.33984 122.007 2.17871 122.528 1.85645ZM125.411 11.4717H126.132C126.489 11.4717 126.812 12.2744 127.099 13.8799H126.853C126.853 16.124 127.254 17.2461 128.057 17.2461C128.689 17.4043 129.249 17.4834 129.735 17.4834C129.817 17.4834 130.14 17.4043 130.702 17.2461C131.663 17.4453 132.144 18.166 132.144 19.4082C131.616 19.7246 131.136 19.8828 130.702 19.8828H126.615C126.451 19.8828 126.369 19.8037 126.369 19.6455L125.895 19.8828H121.562C120.735 19.8828 120.255 19.6426 120.12 19.1621V18.2041C120.12 17.9521 120.442 17.6328 121.087 17.2461H124.928C124.77 16.3672 124.69 14.6035 124.69 11.9551L125.411 11.4717ZM135.749 1.61914C136.71 1.71875 137.19 1.95898 137.19 2.33984V2.82324C136.71 4.24707 136.47 5.04688 136.47 5.22266C138.714 7.5957 139.836 9.11914 139.836 9.79297C139.514 10.5898 139.033 10.9883 138.395 10.9883C138.125 10.9883 137.082 9.86914 135.266 7.63086C134.756 9.55273 134.275 10.5137 133.824 10.5137H132.62L132.383 9.30957C133.883 4.18262 135.005 1.61914 135.749 1.61914ZM147.526 2.57715C148.054 2.57715 148.373 3.62012 148.484 5.70605V10.2676C148.484 11.3926 148.004 11.9551 147.043 11.9551C146.404 11.7969 146.085 11.3164 146.085 10.5137V8.10547C146.085 7.78906 145.924 7.63086 145.602 7.63086H145.127C144.119 7.63086 142.915 7.70996 141.515 7.86816C140.237 7.7627 139.599 7.60156 139.599 7.38477L139.115 6.66406C139.115 5.76758 139.517 5.20801 140.319 4.98535C141.597 5.09082 142.235 5.24902 142.235 5.45996L142.719 5.22266H145.602L146.085 5.45996C146.085 3.53809 146.486 2.57715 147.289 2.57715H147.526ZM139.353 13.3965H144.881C146.006 13.3965 146.568 14.5186 146.568 16.7627V17.9668C146.568 19.0039 144.726 19.6426 141.04 19.8828C141.04 20.1348 141.359 20.457 141.998 20.8496H146.085C146.407 20.8965 146.568 21.0576 146.568 21.333C146.568 22.7744 145.364 23.4951 142.956 23.4951C140.073 23.4951 138.632 22.1328 138.632 19.4082C139.276 17.9668 140.718 17.2461 142.956 17.2461C143.759 17.2461 144.16 17.085 144.16 16.7627V16.2793C144.16 15.957 143.999 15.7959 143.677 15.7959H143.439C142.514 15.7959 141.233 15.8779 139.599 16.042C138.866 15.7314 138.465 15.4092 138.395 15.0752V14.3545C138.395 14.1084 138.714 13.7891 139.353 13.3965Z" fill="#222222"/>
</svg>
