<svg width="148" height="26" viewBox="0 0 148 26" fill="none" xmlns="http://www.w3.org/2000/svg">
<path d="M1.01074 5.73047C1.28613 5.73047 1.7666 5.8916 2.45215 6.21387C2.59277 6.21387 3.23438 6.13184 4.37695 5.96777C8.0625 5.96777 9.90527 6.84961 9.90527 8.61328C9.90527 9.27539 9.9873 9.91699 10.1514 10.5381C10.1514 14.3877 9.26953 16.3125 7.50586 16.3125H6.05566C3.00879 16.3125 1.48535 15.3516 1.48535 13.4297C0.84668 10.1016 0.527344 7.93652 0.527344 6.93457C0.849609 6.41309 1.01074 6.01172 1.01074 5.73047ZM13.5176 5.73047H14.4756C14.4756 5.9707 14.7158 6.29004 15.1963 6.68848V10.7842C17.9268 11.042 19.292 11.5225 19.292 12.2256V12.9463C19.292 13.1748 19.0488 13.415 18.5625 13.667C17.2031 13.667 16.1631 13.5059 15.4424 13.1836C15.4424 13.3477 15.3604 13.4297 15.1963 13.4297L15.4424 13.9043V16.0752C15.4424 16.2334 15.3604 16.3125 15.1963 16.3125L15.4424 16.7959V17.5166C15.4424 17.7334 15.041 18.1348 14.2383 18.7207C13.2773 18.3867 12.7969 17.7451 12.7969 16.7959V7.17188C12.8965 6.21094 13.1367 5.73047 13.5176 5.73047ZM3.17285 8.61328C3.55957 11.9824 3.96094 13.667 4.37695 13.667C5.79492 13.8252 6.67676 13.9043 7.02246 13.9043C7.34473 13.2773 7.50586 12.3955 7.50586 11.2588V11.0215L7.25977 8.61328C7.10156 8.61328 7.02246 8.69531 7.02246 8.85938L5.81836 8.61328H3.17285ZM23.3809 1.17773C24.8516 1.17773 26.1318 1.89844 27.2217 3.33984C27.3857 4.21875 27.4678 4.86035 27.4678 5.26465C27.0518 7.50879 26.1699 8.63086 24.8223 8.63086H23.8555C20.9727 7.66406 19.5312 5.97949 19.5312 3.57715C19.5312 2.61621 20.8145 1.81641 23.3809 1.17773ZM21.9395 3.82324V4.29785C22.8477 5.58105 23.7266 6.22266 24.5762 6.22266C24.8984 5.58398 25.0596 5.02441 25.0596 4.54395C24.3857 3.89941 23.7441 3.57715 23.1348 3.57715L21.9395 3.82324ZM23.1348 10.793V11.0303L23.6182 10.793H28.9092C29.3896 10.9512 29.6299 11.4316 29.6299 12.2344V12.4717C29.6299 12.7236 29.3076 13.0459 28.6631 13.4385H24.3389C23.4131 13.4385 22.1299 13.5176 20.4893 13.6758C19.8506 13.5469 19.5312 12.9053 19.5312 11.751C20.3223 11.2705 21.5234 10.9512 23.1348 10.793ZM27.7051 15.3545C28.666 15.3545 29.1465 17.5195 29.1465 21.8496C28.7715 22.9688 28.0508 23.5283 26.9844 23.5283H26.2637C23.0586 23.335 21.4561 22.6934 21.4561 21.6035V16.5586C21.4561 15.7559 23.5391 15.3545 27.7051 15.3545ZM23.8555 18.4834V20.8828H26.501V17.7627C24.7373 17.9209 23.8555 18.1611 23.8555 18.4834ZM34.4395 0.694336C37 1.66699 38.2803 3.1084 38.2803 5.01855C37.6768 7.2627 36.6367 8.38477 35.1602 8.38477C31.9551 8.00977 30.3525 6.40723 30.3525 3.57715C30.3525 2.08887 31.7148 1.12793 34.4395 0.694336ZM32.998 3.57715V4.06055C33.1562 5.34375 33.877 5.98535 35.1602 5.98535C35.4766 5.45801 35.6348 4.97754 35.6348 4.54395C35.377 3.74121 34.8965 3.33984 34.1934 3.33984L32.998 3.57715ZM30.8271 9.82617H39.2471C39.4756 9.82617 39.7158 10.0664 39.9678 10.5469V11.5137C39.9678 11.7422 39.5664 12.0615 38.7637 12.4717C37.8848 12.3135 37.2432 12.2344 36.8389 12.2344C35.79 12.2344 34.4277 12.3135 32.752 12.4717L29.8691 11.9883V11.751C29.8691 11.5928 29.9482 11.5137 30.1064 11.5137L29.8691 11.0303V10.3096C30.1211 10.3096 30.4404 10.1484 30.8271 9.82617ZM33.4727 14.6338L34.6768 14.8799H38.043C38.8457 15.2607 39.2471 16.7021 39.2471 19.2041C39.2471 20.3232 38.4443 20.8828 36.8389 20.8828V20.6455C36.5049 20.8037 35.623 20.9648 34.1934 21.1289V21.3662C34.1934 21.5947 34.4336 21.835 34.9141 22.0869C35.5059 22.0869 36.6279 21.9258 38.2803 21.6035C38.9248 21.7676 39.2471 22.251 39.2471 23.0537C38.9248 24.0146 38.043 24.4951 36.6016 24.4951H35.1602C32.752 24.4951 31.5479 23.291 31.5479 20.8828C31.5479 19.6289 32.8311 18.8291 35.3975 18.4834H36.6016V17.5254C32.5938 17.5254 30.5898 17.2031 30.5898 16.5586L30.3525 15.6006C30.9443 15.1611 31.9844 14.8389 33.4727 14.6338ZM47.1348 1.88086C51.1426 2.39648 53.1465 2.71582 53.1465 2.83887L53.6299 2.60156H55.5547C57.7988 3.02344 58.9209 4.86621 58.9209 8.12988C58.6104 8.8623 58.291 9.26367 57.9629 9.33398H57.4795C56.8994 9.33398 56.4189 7.89258 56.0381 5.00977C55.7158 5.00977 55.5547 4.92773 55.5547 4.76367L55.0713 5.00977H54.834C54.6699 5.00977 54.5879 4.92773 54.5879 4.76367C53.627 4.97461 53.1465 5.21484 53.1465 5.48438V8.37598C53.1465 9.33691 52.666 9.81738 51.7051 9.81738C51.0664 9.2373 50.7471 8.5957 50.7471 7.89258V4.76367C47.8584 4.44727 46.4141 4.04883 46.4141 3.56836V2.11816C46.584 2.11816 46.8242 2.03906 47.1348 1.88086ZM48.3389 10.7842C49.1826 10.9424 49.6631 11.0215 49.7803 11.0215C54.708 10.8633 58.0771 10.7842 59.8877 10.7842L60.6084 11.7422V12.4629C60.6084 12.6914 60.3682 12.9316 59.8877 13.1836H55.3174V13.9043L55.5547 15.5918H56.9961C58.2793 15.5918 58.9209 16.3125 58.9209 17.7539V19.1953C58.9209 21.123 56.8379 22.0869 52.6719 22.0869V22.5615C54.4941 22.8838 55.7744 23.0449 56.5127 23.0449H57.9629C58.1914 23.0449 58.4316 23.2852 58.6836 23.7656V24.0117C58.1855 24.9727 57.2217 25.4531 55.792 25.4531C52.9971 25.4531 51.0723 24.249 50.0176 21.8408C50.4219 20.5576 51.2246 19.916 52.4258 19.916C55.0684 19.7578 56.5127 19.2773 56.7588 18.4746V17.7539C53.1318 17.918 50.8848 18 50.0176 18L49.2969 17.0332L49.543 15.8291H52.1885L53.3926 15.5918L53.1465 15.1084V13.4297H50.9844C48.7402 13.4297 47.6182 12.8672 47.6182 11.7422L48.3389 10.7842ZM61.5684 3.56836C61.7266 3.56836 61.8057 3.64746 61.8057 3.80566L63.4932 3.56836H65.418C67.0234 3.67969 67.8262 4.23926 67.8262 5.24707H70.2256C71.4561 5.24707 72.2588 6.12891 72.6338 7.89258L73.1172 7.65527C73.2754 7.65527 73.3545 7.73438 73.3545 7.89258L73.8379 7.65527H76C76 7.55566 75.9209 6.5127 75.7627 4.52637L76.4834 4.04297H77.2041C77.7549 4.04297 78.1562 5.00684 78.4082 6.93457H78.1621C78.6426 8.21777 78.8828 9.58008 78.8828 11.0215V12.7002C78.8828 13.667 78.4023 14.1504 77.4414 14.1504C76.8027 13.9102 76.4834 13.6699 76.4834 13.4297V12.9463C76.4834 12.583 76.5625 12.2607 76.7207 11.9795C76.5625 11.6982 76.4834 11.3789 76.4834 11.0215V10.3008H75.2793L72.3965 10.5381V12.2256C72.3965 12.4541 72.1533 12.6943 71.667 12.9463H70.709C70.709 12.6943 70.5479 12.3721 70.2256 11.9795V8.85938L69.9883 7.65527H68.7842C68.4619 7.70215 68.3008 7.86035 68.3008 8.12988V11.2588C68.3008 11.4932 68.0605 11.7334 67.5801 11.9795H66.376L65.9014 10.3008V7.89258L65.6553 6.21387H64.9346C64.0557 6.21387 62.9336 6.29297 61.5684 6.45117C61.2578 6.29297 61.0176 6.21387 60.8477 6.21387V5.24707C60.8477 4.87793 61.0879 4.31836 61.5684 3.56836ZM75.2793 15.5918C76.8848 15.9141 77.6875 16.7959 77.6875 18.2373V20.6455C77.3652 21.0322 77.2041 21.3516 77.2041 21.6035H76C75.7363 21.6035 75.4961 21.041 75.2793 19.916C75.4375 19.6406 75.5166 19.3213 75.5166 18.958L75.042 18.2373C74.415 18.5596 73.5332 18.7207 72.3965 18.7207H69.5049C69.5049 18.5977 69.3438 18.1963 69.0215 17.5166C69.0215 16.5557 70.627 16.0752 73.8379 16.0752L75.2793 15.5918ZM82.7168 4.54395H83.6748C84.1553 4.54395 84.7178 6.30469 85.3623 9.82617H87.2783C87.6416 9.82617 87.9639 9.74707 88.2451 9.58887C89.2061 9.91699 89.6865 10.2363 89.6865 10.5469C89.6865 11.6719 89.0449 12.2344 87.7617 12.2344C88.5645 13.1543 88.9658 13.9541 88.9658 14.6338V15.3545C88.7666 17.9209 87.5654 19.2041 85.3623 19.2041C83.2705 19.2041 81.8291 18.0029 81.0381 15.6006L81.5127 12.4717C80.6748 12.6357 80.1943 12.7178 80.0713 12.7178C79.4326 12.4775 79.1133 12.2373 79.1133 11.9971V11.5137C79.1133 10.5527 79.834 10.0723 81.2754 10.0723C81.3984 10.0723 81.8789 9.99023 82.7168 9.82617C82.2363 7.86914 81.9961 6.66797 81.9961 6.22266C82.1543 5.10352 82.3945 4.54395 82.7168 4.54395ZM93.5273 6.94336C94.6465 6.94336 95.2061 7.9043 95.2061 9.82617L95.4521 11.5137L97.8516 11.2764H99.0557C99.4424 11.5928 99.7617 11.751 100.014 11.751V12.4717C99.6035 13.4326 98.7246 13.9131 97.377 13.9131H95.9268C95.9268 14.3057 96.0879 15.668 96.4102 18C96.1289 19.1191 95.8096 19.6787 95.4521 19.6787H94.4854C93.9287 19.6787 93.5303 17.5986 93.29 13.4385C93.0322 13.4385 92.792 11.7539 92.5693 8.38477C92.8916 7.42383 93.2109 6.94336 93.5273 6.94336ZM83.9209 13.4385L83.4375 14.3965C83.625 15.8379 84.2666 16.5586 85.3623 16.5586H85.8369C85.8369 16.459 85.998 15.9785 86.3203 15.1172C85.793 13.998 84.9932 13.4385 83.9209 13.4385ZM101.686 2.36426C102.646 2.36426 103.127 4.20703 103.127 7.89258C105.195 8.21484 106.561 8.37598 107.223 8.37598L109.622 8.13867V8.37598L110.105 8.13867H110.589C110.835 8.13867 111.154 8.45801 111.547 9.09668V10.3008C111.547 10.5293 111.307 10.7695 110.826 11.0215H108.664C108.125 11.0215 107.724 11.1006 107.46 11.2588C102.808 11.2588 100.481 9.81738 100.481 6.93457V6.45117H100.728L100.481 5.96777V3.08496C100.481 2.71582 100.883 2.47559 101.686 2.36426ZM100.965 12.9463H101.686C101.85 12.9463 101.932 13.0254 101.932 13.1836L102.406 12.9463H102.652C102.811 12.9463 102.89 13.0254 102.89 13.1836C103.048 13.1836 103.127 13.1045 103.127 12.9463L104.331 13.1836C104.501 13.1836 104.741 13.1045 105.052 12.9463L105.535 13.1836C105.857 13.1836 106.019 13.1045 106.019 12.9463L108.418 13.1836H111.063C111.456 13.5059 111.778 13.667 112.03 13.667V15.1084C112.03 15.5479 111.069 15.8701 109.147 16.0752L107.943 15.8291H101.932C101.064 15.8291 100.502 15.5098 100.244 14.8711V13.9043C100.725 13.5059 100.965 13.1865 100.965 12.9463ZM103.373 17.0332C104.117 17.0332 104.598 18.2373 104.814 20.6455C106.695 20.8037 108.058 20.8828 108.901 20.8828H110.589L110.826 21.8408C110.826 23.124 110.185 23.7656 108.901 23.7656C104.571 23.7656 102.406 22.9658 102.406 21.3662C102.248 20.7686 102.169 20.0449 102.169 19.1953V18.2373C102.169 18.0205 102.57 17.6191 103.373 17.0332ZM121.122 2.85645C121.925 2.95605 122.326 3.43652 122.326 4.29785L122.08 5.98535C125.607 7.93652 127.371 9.1377 127.371 9.58887V10.0723C127.213 10.5527 126.732 10.793 125.93 10.793C125.391 10.793 123.867 9.99023 121.359 8.38477C121.359 10.3066 120.8 11.2676 119.681 11.2676H118.96C118.638 11.2676 118.477 11.1094 118.477 10.793C118.477 9.50391 119.036 7.09863 120.155 3.57715C119.997 3.57715 119.918 3.49805 119.918 3.33984C120.199 3.33984 120.601 3.17871 121.122 2.85645ZM124.005 12.4717H124.726C125.083 12.4717 125.405 13.2744 125.692 14.8799H125.446C125.446 17.124 125.848 18.2461 126.65 18.2461C127.283 18.4043 127.843 18.4834 128.329 18.4834C128.411 18.4834 128.733 18.4043 129.296 18.2461C130.257 18.4453 130.737 19.166 130.737 20.4082C130.21 20.7246 129.729 20.8828 129.296 20.8828H125.209C125.045 20.8828 124.963 20.8037 124.963 20.6455L124.488 20.8828H120.155C119.329 20.8828 118.849 20.6426 118.714 20.1621V19.2041C118.714 18.9521 119.036 18.6328 119.681 18.2461H123.521C123.363 17.3672 123.284 15.6035 123.284 12.9551L124.005 12.4717ZM134.343 2.61914C135.304 2.71875 135.784 2.95898 135.784 3.33984V3.82324C135.304 5.24707 135.063 6.04688 135.063 6.22266C137.308 8.5957 138.43 10.1191 138.43 10.793C138.107 11.5898 137.627 11.9883 136.988 11.9883C136.719 11.9883 135.676 10.8691 133.859 8.63086C133.35 10.5527 132.869 11.5137 132.418 11.5137H131.214L130.977 10.3096C132.477 5.18262 133.599 2.61914 134.343 2.61914ZM146.12 3.57715C146.647 3.57715 146.967 4.62012 147.078 6.70605V11.2676C147.078 12.3926 146.598 12.9551 145.637 12.9551C144.998 12.7969 144.679 12.3164 144.679 11.5137V9.10547C144.679 8.78906 144.518 8.63086 144.195 8.63086H143.721C142.713 8.63086 141.509 8.70996 140.108 8.86816C138.831 8.7627 138.192 8.60156 138.192 8.38477L137.709 7.66406C137.709 6.76758 138.11 6.20801 138.913 5.98535C140.19 6.09082 140.829 6.24902 140.829 6.45996L141.312 6.22266H144.195L144.679 6.45996C144.679 4.53809 145.08 3.57715 145.883 3.57715H146.12ZM137.946 14.3965H143.475C144.6 14.3965 145.162 15.5186 145.162 17.7627V18.9668C145.162 20.0039 143.319 20.6426 139.634 20.8828C139.634 21.1348 139.953 21.457 140.592 21.8496H144.679C145.001 21.8965 145.162 22.0576 145.162 22.333C145.162 23.7744 143.958 24.4951 141.55 24.4951C138.667 24.4951 137.226 23.1328 137.226 20.4082C137.87 18.9668 139.312 18.2461 141.55 18.2461C142.353 18.2461 142.754 18.085 142.754 17.7627V17.2793C142.754 16.957 142.593 16.7959 142.271 16.7959H142.033C141.107 16.7959 139.827 16.8779 138.192 17.042C137.46 16.7314 137.059 16.4092 136.988 16.0752V15.3545C136.988 15.1084 137.308 14.7891 137.946 14.3965Z" fill="#222222"/>
</svg>
