<svg width="144" height="25" viewBox="0 0 144 25" fill="none" xmlns="http://www.w3.org/2000/svg">
<path d="M6.58496 0.360352C7.27962 0.560872 8.27148 0.661133 9.56055 0.661133L10.1514 0.360352C11.9346 0.360352 12.8262 1.25195 12.8262 3.03516C13.0267 3.82292 13.127 4.51758 13.127 5.11914L12.8262 8.08398H11.6445C11.2435 8.08398 11.043 7.88704 11.043 7.49316V5.11914L10.7529 2.14355H7.18652C7.37988 4.47103 7.47656 6.15397 7.47656 7.19238L6.58496 7.79395C5.59668 7.79395 5.10254 5.91048 5.10254 2.14355H4.80176C4.09277 2.14355 3.20117 2.24382 2.12695 2.44434C1.13867 2.18652 0.644531 1.88932 0.644531 1.55273V0.951172L6.58496 0.360352ZM1.83691 9.86719C4.30762 10.2682 6.38802 10.4688 8.07812 10.4688H9.86133C10.3053 10.4688 10.6992 10.3685 11.043 10.168C12.8262 10.4043 13.7178 10.7015 13.7178 11.0596V11.3604C13.7178 11.7542 13.5208 11.9512 13.127 11.9512H10.7529L10.4521 13.4336V14.0352C10.5166 14.429 10.7135 14.626 11.043 14.626H12.8262C13.2272 16.3232 13.4277 17.8092 13.4277 19.084C12.6973 19.6784 12.0026 19.9756 11.3438 19.9756H10.7529C9.70736 19.9756 8.02083 19.8753 5.69336 19.6748L6.29492 22.3496H7.77734C7.97786 22.3496 8.07812 22.4499 8.07812 22.6504L8.66895 22.3496H12.2354V23.832L10.1514 24.1328H8.07812C5.5 24.1328 4.21094 23.4382 4.21094 22.0488C4.01042 21.3327 3.91016 20.2441 3.91016 18.7832L4.51172 18.4824C5.89388 18.4824 8.07096 18.5827 11.043 18.7832L11.3438 18.1924V16.4092H10.7529C6.25553 16.4092 3.87793 15.915 3.62012 14.9268V14.626L5.69336 14.3252L8.66895 14.626V11.9512C8.22493 11.9512 7.82747 12.0514 7.47656 12.252C3.31576 12.0085 1.23535 11.5107 1.23535 10.7588V10.4688C1.2998 10.0677 1.50033 9.86719 1.83691 9.86719ZM16.5742 1.48828H16.8643C17.0648 1.48828 17.165 1.58496 17.165 1.77832C17.3584 1.77832 17.4551 1.68164 17.4551 1.48828C17.6628 1.48828 17.9564 1.58496 18.3359 1.77832C19.3887 1.58496 20.266 1.48828 20.9678 1.48828V1.77832C21.3473 1.58496 21.641 1.48828 21.8486 1.48828C22.2282 1.68164 22.5182 1.77832 22.7188 1.77832V2.06836C22.7188 2.34766 22.4287 2.64128 21.8486 2.94922H17.4551C16.4382 2.94922 15.8509 2.6556 15.6934 2.06836L16.5742 1.48828ZM23.8896 4.41016L24.1904 5.00098C24.1904 5.78158 21.8486 6.17188 17.165 6.17188V8.22363C17.165 8.51725 17.5553 8.80729 18.3359 9.09375C21.4154 8.70703 23.1699 8.51367 23.5996 8.51367L23.8896 9.09375C23.8896 9.87435 21.8415 10.2646 17.7451 10.2646C16.9645 10.2646 16.2806 9.77767 15.6934 8.80371V8.51367C15.6934 8.32031 15.7936 8.22363 15.9941 8.22363L15.6934 7.63281V7.34277L15.9941 5.88184C15.2135 5.88184 14.8232 5.6849 14.8232 5.29102C14.8232 4.9043 15.1133 4.71094 15.6934 4.71094C17.2188 4.71094 19.9508 4.61068 23.8896 4.41016ZM26.5322 11.4463V12.0264C26.5322 12.6136 25.458 12.9072 23.3096 12.9072H22.7188C22.5254 15.0557 22.2354 16.1299 21.8486 16.1299C21.5693 16.1299 21.2757 15.8363 20.9678 15.249V14.959C20.9678 14.7585 21.0645 14.6582 21.2578 14.6582C21.0645 14.3359 20.9678 13.849 20.9678 13.1973H20.6777C18.028 13.1973 15.8796 13.0039 14.2324 12.6172V12.3164C14.2324 11.9297 14.526 11.7363 15.1133 11.7363C21.6947 11.543 25.501 11.4463 26.5322 11.4463ZM17.7451 15.249C18.1247 15.4424 18.4183 15.5391 18.626 15.5391V18.1709C18.626 18.4574 18.9196 18.751 19.5068 19.0518H21.2578C22.2389 19.0518 23.7035 18.9551 25.6514 18.7617V19.3418C25.6514 19.929 23.9935 20.4196 20.6777 20.8135C18.916 20.8135 17.7451 20.1296 17.165 18.7617V15.8291C17.2223 15.4424 17.4157 15.249 17.7451 15.249ZM45.8984 1.78906H46.4893C47.0693 1.78906 47.653 4.32422 48.2402 9.39453H47.9502L48.2402 9.97461V11.1455L48.5303 14.0781L47.9502 14.3682H47.3594C46.3854 14.3682 45.8984 11.2458 45.8984 5.00098C45.6263 5.00098 45.4329 4.02702 45.3184 2.0791L45.8984 1.78906ZM37.4121 2.95996C37.6055 2.95996 37.7021 3.05664 37.7021 3.25L38.293 2.95996H38.583C41.7054 2.95996 43.2666 4.8112 43.2666 8.51367C41.3903 10.6621 39.7324 11.7363 38.293 11.7363H38.0029C35.0739 11.4355 33.6094 9.97103 33.6094 7.34277V7.05273C33.6094 4.32422 34.877 2.95996 37.4121 2.95996ZM36.5312 4.4209C35.7507 5.58822 35.3604 6.75911 35.3604 7.93359C36.1123 9.49479 36.9932 10.2754 38.0029 10.2754C40.3376 9.32292 41.5049 8.2487 41.5049 7.05273C41.1182 5.29818 40.2409 4.4209 38.873 4.4209H38.583L37.7021 5.00098L36.5312 4.4209ZM40.0439 13.4873C40.8245 13.4873 41.4118 15.3421 41.8057 19.0518L42.3857 18.7617H48.2402C48.627 18.819 48.8203 19.0124 48.8203 19.3418V20.2227H47.3594C45.8053 20.2227 43.7572 20.3193 41.2148 20.5127C40.0977 20.5127 39.4173 18.2712 39.1738 13.7881C39.3815 13.7881 39.6715 13.6878 40.0439 13.4873ZM63.2891 1.55273C63.8835 2.2832 64.1807 3.66895 64.1807 5.70996V8.68555L64.4814 10.168H64.1807L64.4814 10.7588V11.3604C64.4814 15.514 64.1842 17.5908 63.5898 17.5908C63.3034 17.5837 62.8092 17.1898 62.1074 16.4092C62.3008 14.0817 62.3975 12.3988 62.3975 11.3604V8.97559L62.1074 6.90234H62.3975L62.1074 6.30078V1.84277C62.2005 1.84277 62.5944 1.74609 63.2891 1.55273ZM49.915 3.62598C54.0758 3.62598 56.1562 4.32064 56.1562 5.70996V11.6504L55.8662 13.4336L56.1562 14.0244C55.9629 14.4111 55.8662 14.7083 55.8662 14.916H55.5654L54.083 14.626V12.542C54.083 10.9665 54.1797 8.88607 54.373 6.30078C54.1797 5.92122 54.083 5.62402 54.083 5.40918H51.4082L49.3242 4.81836V3.92676C49.7181 3.92676 49.915 3.8265 49.915 3.62598ZM76.543 2.32617C76.8867 2.51953 77.2806 2.61621 77.7246 2.61621L79.1855 2.32617V2.61621L79.7764 2.32617H83.2998C83.6865 2.38346 83.8799 2.57682 83.8799 2.90625V3.78711H82.709L79.1855 4.08789V3.78711C78.5983 3.98763 78.3047 4.18457 78.3047 4.37793C79.0924 6.87728 79.6797 10.6908 80.0664 15.8184C80.0664 16.0189 79.9697 16.1191 79.7764 16.1191C80.1702 18.1745 80.3672 19.4456 80.3672 19.9326L79.7764 20.2227H79.1855C78.5983 20.2227 78.3047 19.1484 78.3047 17V14.3574C78.3047 14.1569 78.4049 14.0566 78.6055 14.0566C77.5599 7.41081 76.7757 4.08789 76.2529 4.08789H72.4395C72.1602 4.08789 71.8665 3.79427 71.5586 3.20703C71.623 2.81315 71.82 2.61621 72.1494 2.61621H75.3721C75.8161 2.61621 76.2064 2.51953 76.543 2.32617ZM88.7988 4.37793C91.9785 4.37793 94.9111 6.03939 97.5967 9.3623C97.9906 11.124 98.1875 12.3952 98.1875 13.1758C96.5046 18.2676 94.0589 20.8135 90.8506 20.8135C88.4801 20.8135 86.4248 19.0518 84.6846 15.5283C84.4912 15.1846 84.3945 14.7943 84.3945 14.3574C84.3945 9.05794 85.3721 5.92839 87.3271 4.96875C87.9645 4.57487 88.4551 4.37793 88.7988 4.37793ZM85.8662 12.5957C86.6683 16.8997 88.1328 19.0518 90.2598 19.0518C93.3249 19.0518 95.3802 17.0931 96.4258 13.1758V11.4248C96.4258 8.96126 94.4707 7.19954 90.5605 6.13965H89.0889C86.9404 6.13965 85.8662 8.29167 85.8662 12.5957ZM99.8623 2.90625L100.163 3.49707C101.517 2.90983 102.788 2.61621 103.977 2.61621C106.519 3.56152 107.79 5.1263 107.79 7.31055V7.90137C107.79 10.0498 106.125 11.4176 102.795 12.0049H101.334V20.2227H100.743C100.464 20.2227 100.17 19.929 99.8623 19.3418V14.6475C99.8623 14.4541 99.9626 14.3574 100.163 14.3574L98.6914 5.54883V2.90625H99.8623ZM100.163 4.96875L101.044 10.5439H101.925C104.66 10.5439 106.028 9.46615 106.028 7.31055C106.028 5.92122 105.344 4.84701 103.977 4.08789C103.504 4.08789 102.233 4.38151 100.163 4.96875ZM119.551 1.48828H120.131C120.489 1.48828 120.979 2.36914 121.603 4.13086C122.534 4.13086 123.898 5.39844 125.695 7.93359V8.22363C125.695 8.50293 125.402 8.79655 124.814 9.10449H124.524C122.698 7.0778 121.234 5.80664 120.131 5.29102C118.72 8.80729 117.746 10.5654 117.209 10.5654H116.618C116.231 10.5654 116.038 10.3685 116.038 9.97461V9.68457L119.261 1.78906C119.261 1.58854 119.357 1.48828 119.551 1.48828ZM121.302 9.68457H121.893C122.172 9.68457 122.465 9.97819 122.773 10.5654V15.5391C125.402 15.3457 127.35 15.249 128.617 15.249C129.011 15.3063 129.208 15.4997 129.208 15.8291C129.208 17.0036 124.915 17.5908 116.328 17.5908H115.447C115.061 17.5908 114.867 17.3939 114.867 17V16.71C114.867 16.1227 116.428 15.8291 119.551 15.8291H120.131L120.722 15.5391L120.432 14.9482L120.722 13.7773L120.432 13.1973L120.722 12.6172L120.432 10.8555V10.5654C120.432 10.2861 120.722 9.99251 121.302 9.68457ZM134.406 0.317383C134.793 0.797201 134.986 1.1875 134.986 1.48828C134.6 3.05664 134.406 4.32422 134.406 5.29102C136.555 7.86198 137.629 9.62012 137.629 10.5654L137.038 10.8555H136.157C135.699 9.60938 134.725 8.3418 133.235 7.05273C132.448 8.88607 131.57 10.057 130.604 10.5654C130.224 10.3721 129.93 10.2754 129.723 10.2754V9.97461C129.723 9.63802 130.306 8.37044 131.474 6.17188L133.525 0.618164C133.905 0.417643 134.199 0.317383 134.406 0.317383ZM141.432 0.908203H142.012C142.477 0.908203 142.868 1.6888 143.183 3.25H142.893C143.279 4.1237 143.473 5.39128 143.473 7.05273V10.5654C143.473 11.611 143.082 12.2949 142.302 12.6172C142.022 12.6172 141.732 12.3236 141.432 11.7363V7.34277H138.789C137.299 7.34277 136.422 6.95247 136.157 6.17188L137.038 5.5918C138.986 5.78516 140.451 5.88184 141.432 5.88184V5.5918C141.231 5.39128 141.034 3.92676 140.841 1.19824L141.432 0.908203ZM136.157 12.6172H139.96C141.521 12.6172 142.402 13.6878 142.603 15.8291C142.402 16.8031 142.108 17.487 141.722 17.8809L138.789 17.5908H137.919L136.458 17.8809V19.6318H142.603V20.5127C142.603 20.971 141.919 21.2646 140.551 21.3936L139.96 21.1035L138.209 21.3936C135.674 21.3936 134.406 21.0033 134.406 20.2227V17.29C134.406 16.9033 134.7 16.71 135.287 16.71C135.939 16.71 137.597 16.6133 140.261 16.4199V14.3682H138.789L137.038 14.0781C136.694 14.2715 136.304 14.3682 135.867 14.3682V14.0781L135.287 14.3682H133.815C133.429 14.3682 133.235 14.1712 133.235 13.7773V12.9072L136.157 12.6172Z" fill="#222222"/>
</svg>
