<svg width="154" height="25" viewBox="0 0 154 25" fill="none" xmlns="http://www.w3.org/2000/svg">
<path d="M4.13086 0.177734C7.10742 0.177734 8.9502 1.54004 9.65918 4.26465V5.45996C9.02051 7.86816 7.74023 9.07227 5.81836 9.07227H5.33496C2.12988 8.51562 0.527344 7.07129 0.527344 4.73926V4.01855C0.527344 2.25488 1.72852 0.974609 4.13086 0.177734ZM2.93555 3.78125V4.50195C2.93555 5.78516 3.57422 6.42676 4.85156 6.42676H5.57227C6.69727 6.42676 7.25977 5.86426 7.25977 4.73926C7.25977 3.29785 6.29883 2.57715 4.37695 2.57715C3.71484 2.7998 3.23438 3.20117 2.93555 3.78125ZM1.48535 10.2676C7.89551 10.5723 11.1006 11.1348 11.1006 11.9551V12.6758C11.1006 12.9277 10.7812 13.2471 10.1426 13.6338C9.75 13.6338 8.54883 13.4756 6.53906 13.1592C6.53906 13.3174 6.45703 13.3965 6.29297 13.3965L6.53906 13.8799C6.53906 14.0381 6.45703 14.1172 6.29297 14.1172C6.45703 14.4277 6.53906 14.668 6.53906 14.8379C6.375 15.1484 6.29297 15.3887 6.29297 15.5586H7.25977C8.70117 15.5586 9.42188 16.2793 9.42188 17.7207C9.58008 18.8633 9.65918 19.5049 9.65918 19.6455C9.65918 20.501 8.21777 21.2217 5.33496 21.8076V22.291C5.83887 22.291 6.96094 22.1299 8.70117 21.8076C9.33984 21.9717 9.65918 22.2939 9.65918 22.7744C9.65918 24.2158 8.37891 24.9365 5.81836 24.9365C3.73242 24.9365 2.68945 23.8936 2.68945 21.8076V21.5703C2.68945 19.8066 3.97266 18.9248 6.53906 18.9248C6.53906 18.7666 6.69727 18.6875 7.01367 18.6875V18.2041C3.49219 18.0811 1.73145 17.6797 1.73145 17V16.2793C1.73145 16.0273 2.05078 15.708 2.68945 15.3213H4.13086V15.0752L3.89355 12.9131C1.64941 12.9131 0.527344 12.5938 0.527344 11.9551V11.7178C0.527344 10.915 0.84668 10.4316 1.48535 10.2676ZM16.8682 3.29785H20.7178L20.9551 4.98535V5.45996L19.751 5.70605H16.6309L14.2227 5.94336V7.38477H14.4688L16.1475 7.14746V7.38477L16.6309 7.14746H18.5557L20.2344 6.90137V7.14746C20.3926 7.14746 20.4717 7.06543 20.4717 6.90137L21.6758 7.14746H22.3965L22.6338 8.35156V8.82617C22.6338 9.06641 22.3145 9.30664 21.6758 9.54688C21.3184 9.54688 20.999 9.46777 20.7178 9.30957C17.7412 9.63184 15.8164 9.79297 14.9434 9.79297C14.9434 10.3145 15.2656 11.0352 15.9102 11.9551C17.9668 11.6328 19.8887 11.4717 21.6758 11.4717L22.1592 12.1924V13.6338C21.2275 13.9561 18.9043 14.2783 15.1895 14.6006C13.5078 14.6006 12.2246 11.2344 11.3398 4.50195H11.5771C11.8994 4.50195 12.0605 4.18262 12.0605 3.54395C14.2227 3.37988 15.8252 3.29785 16.8682 3.29785ZM24.3213 16.2793C24.6318 16.4434 24.8721 16.5254 25.042 16.5254V18.4414C24.0635 18.7637 22.0596 19.0859 19.0303 19.4082V19.1621C18.9189 19.3262 17.5566 19.4873 14.9434 19.6455L14.4688 18.9248C14.4688 17.4834 16.0713 16.7627 19.2764 16.7627C19.2764 16.6045 20.958 16.4434 24.3213 16.2793ZM29.3682 4.73926V4.98535C29.6787 4.82129 29.9189 4.73926 30.0889 4.73926C32.4912 4.73926 33.6924 6.66406 33.6924 10.5137V10.9883C33.6924 11.4688 32.1719 12.0312 29.1309 12.6758L28.6475 13.3965V13.6338C28.6475 13.8506 29.0488 14.252 29.8516 14.8379H32.7344C33.6309 14.8379 34.1904 15.2393 34.4131 16.042C34.4131 17.0029 33.4521 17.4834 31.5303 17.4834H31.293C27.9238 17.4834 26.2393 16.1211 26.2393 13.3965C26.2393 11.1934 27.8418 9.91016 31.0469 9.54688C31.2109 9.54688 31.293 9.46777 31.293 9.30957C31.1934 8.02637 30.9531 7.38477 30.5723 7.38477H29.8516C29.0078 7.38477 27.6455 7.4668 25.7646 7.63086L25.2812 6.90137V5.70605C25.2812 5.47168 25.5215 5.23145 26.002 4.98535H28.1641L29.3682 4.73926ZM38.0254 6.18066H39.2207C39.7012 7.46387 39.9414 8.74707 39.9414 10.0303H42.3496C43.1523 10.0303 43.6328 10.3496 43.791 10.9883C43.668 12.1133 43.1084 12.6758 42.1123 12.6758H40.1875V12.9131C40.3457 15.0986 40.4248 16.4609 40.4248 17C39.8037 17.6445 39.2441 17.9668 38.7461 17.9668L37.7793 16.5254C37.7793 16.3496 37.8613 16.1064 38.0254 15.7959C37.8613 11.6885 37.5391 8.9668 37.0586 7.63086C37.3867 6.66406 37.709 6.18066 38.0254 6.18066ZM48.8291 1.38184C51.5479 1.38184 52.9072 2.42187 52.9072 4.50195C52.9072 5.89648 53.0684 7.90039 53.3906 10.5137C53.0156 11.4746 52.6963 11.9551 52.4326 11.9551H51.2285C50.9062 10.9121 50.7451 10.1914 50.7451 9.79297V8.58887C50.1943 8.58887 48.7529 8.8291 46.4209 9.30957C45.7822 9.06934 45.4629 8.8291 45.4629 8.58887V7.86816C45.4629 6.59082 46.8252 5.95215 49.5498 5.95215C49.8311 5.78809 50.1504 5.70605 50.5078 5.70605V4.26465H48.8291C48.6064 4.26465 47.3232 4.42578 44.9795 4.74805H44.7422C44.502 4.74805 44.2617 4.42578 44.0215 3.78125C44.0215 2.33984 45.542 1.61914 48.583 1.61914C48.583 1.46094 48.665 1.38184 48.8291 1.38184ZM61.8018 1.86523H62.2764C63.4014 2.16406 63.9639 3.8457 63.9639 6.91016L64.9219 11.4717C64.4414 12.2744 64.2012 12.8369 64.2012 13.1592H62.5225L61.5557 8.35156L58.6729 8.83496C58.6729 9.50293 58.834 10.3027 59.1562 11.2344C59.1562 11.3516 58.8369 11.9932 58.1982 13.1592H57.4775C56.6455 13.1592 55.8428 9.9541 55.0693 3.54395C55.3975 2.58301 55.7197 2.10254 56.0361 2.10254H56.5107C57.1963 2.10254 57.7588 3.38574 58.1982 5.95215C59.3584 5.95215 60.3984 5.79102 61.3184 5.46875C61.1602 5.1875 60.999 4.4668 60.835 3.30664C61.2158 2.3457 61.5381 1.86523 61.8018 1.86523ZM60.1143 14.1172H60.3604C61.3213 14.1172 61.8018 15.8779 61.8018 19.3994C61.96 19.3994 62.0391 19.5605 62.0391 19.8828C61.6289 22.2852 60.8291 23.4863 59.6396 23.4863L59.1562 23.249C58.8457 23.4072 58.6055 23.4863 58.4355 23.4863V23.249L57.9521 23.4863H56.7568C53.874 23.4863 52.4326 22.2061 52.4326 19.6455L51.9492 16.5166C52.2773 15.5557 52.5967 15.0752 52.9072 15.0752H53.3906C54.1934 15.3975 54.5947 15.96 54.5947 16.7627V17.4834H58.6729C58.9951 17.4834 59.2354 16.5225 59.3936 14.6006L60.1143 14.1172ZM58.9189 19.6455V20.1201H55.79C55.4736 20.1729 55.3154 20.334 55.3154 20.6035L56.9941 20.8408H57.2314L58.9189 20.6035C58.9189 20.7617 58.998 20.8408 59.1562 20.8408V19.6455H58.9189ZM70.1973 0.898438C70.2617 1.4082 71.7852 2.44824 74.7676 4.01855L75.251 4.73926V5.70605C75.251 6.06934 74.8496 6.30957 74.0469 6.42676C72.0488 5.38965 70.6074 4.50781 69.7227 3.78125H69.4766C69.0078 5.05273 68.2871 6.0957 67.3145 6.91016V7.14746C66.3535 6.89551 65.873 6.33301 65.873 5.45996C67.2207 2.41895 68.6621 0.898438 70.1973 0.898438ZM69.2393 8.10547H69.4766C69.957 8.26953 70.1973 8.75 70.1973 9.54688V11.9551H71.1641V9.79297C71.1641 8.93164 71.4834 8.36914 72.1221 8.10547H72.6055C73.2441 8.36914 73.5635 8.93164 73.5635 9.79297V12.1924H75.0049C75.9658 12.1924 76.4463 12.6729 76.4463 13.6338C76.2881 14.2783 75.8076 14.6006 75.0049 14.6006H66.5938C65.6328 14.6006 65.1523 14.1201 65.1523 13.1592V12.9131C65.2227 12.585 65.624 12.2656 66.3564 11.9551L66.8311 12.1924C67.1123 12.0342 67.4346 11.9551 67.7979 11.9551V9.54688C67.7979 8.58594 68.2783 8.10547 69.2393 8.10547ZM70.1973 15.7959H71.4014C72.6494 16.8213 73.4521 17.9434 73.8096 19.1621C73.3174 21.5703 72.4355 22.7744 71.1641 22.7744C68.5977 22.0479 67.3145 20.7646 67.3145 18.9248V17.9668C68.1172 16.5195 69.0781 15.7959 70.1973 15.7959ZM69.7227 18.2041V19.1621C69.9805 19.8066 70.54 20.1289 71.4014 20.1289V19.6455C71.4014 19.083 71.082 18.5234 70.4434 17.9668C70.1328 18.125 69.8926 18.2041 69.7227 18.2041ZM83.6133 0.880859C87.6211 1.39648 89.625 1.71582 89.625 1.83887L90.1084 1.60156H92.0332C94.2773 2.02344 95.3994 3.86621 95.3994 7.12988C95.0889 7.8623 94.7695 8.26367 94.4414 8.33398H93.958C93.3779 8.33398 92.8975 6.89258 92.5166 4.00977C92.1943 4.00977 92.0332 3.92773 92.0332 3.76367L91.5498 4.00977H91.3125C91.1484 4.00977 91.0664 3.92773 91.0664 3.76367C90.1055 3.97461 89.625 4.21484 89.625 4.48438V7.37598C89.625 8.33691 89.1445 8.81738 88.1836 8.81738C87.5449 8.2373 87.2256 7.5957 87.2256 6.89258V3.76367C84.3369 3.44727 82.8926 3.04883 82.8926 2.56836V1.11816C83.0625 1.11816 83.3027 1.03906 83.6133 0.880859ZM84.8174 9.78418C85.6611 9.94238 86.1416 10.0215 86.2588 10.0215C91.1865 9.86328 94.5557 9.78418 96.3662 9.78418L97.0869 10.7422V11.4629C97.0869 11.6914 96.8467 11.9316 96.3662 12.1836H91.7959V12.9043L92.0332 14.5918H93.4746C94.7578 14.5918 95.3994 15.3125 95.3994 16.7539V18.1953C95.3994 20.123 93.3164 21.0869 89.1504 21.0869V21.5615C90.9727 21.8838 92.2529 22.0449 92.9912 22.0449H94.4414C94.6699 22.0449 94.9102 22.2852 95.1621 22.7656V23.0117C94.6641 23.9727 93.7002 24.4531 92.2705 24.4531C89.4756 24.4531 87.5508 23.249 86.4961 20.8408C86.9004 19.5576 87.7031 18.916 88.9043 18.916C91.5469 18.7578 92.9912 18.2773 93.2373 17.4746V16.7539C89.6104 16.918 87.3633 17 86.4961 17L85.7754 16.0332L86.0215 14.8291H88.667L89.8711 14.5918L89.625 14.1084V12.4297H87.4629C85.2188 12.4297 84.0967 11.8672 84.0967 10.7422L84.8174 9.78418ZM98.7676 2.11133H103.566C103.818 2.11133 104.141 2.43066 104.533 3.06934V4.27344C104.533 5.07031 104.372 5.46875 104.05 5.46875L104.287 5.95215V6.67285L104.05 7.14746C105.187 7.83887 106.388 8.6416 107.653 9.55566V9.79297L107.407 10.9971L106.933 10.751V11.2344H105.729C104.217 10.1152 103.417 9.55566 103.329 9.55566C102.714 10.9912 102.154 11.791 101.65 11.9551H100.684C100.209 11.7969 99.9717 11.3164 99.9717 10.5137C101.097 8.82617 101.814 6.9043 102.125 4.74805L101.65 4.51074H100.93C100.391 4.51074 99.9893 4.58984 99.7256 4.74805L97.3262 4.27344V3.55273C97.3262 2.5918 97.8066 2.11133 98.7676 2.11133ZM115.098 2.11133H115.818C116.674 2.11133 117.474 4.99121 118.218 10.751V11.4717C118.06 12.1162 117.579 12.4385 116.776 12.4385H116.056C115.733 11.2549 115.493 9.81348 115.335 8.11426H114.377L112.689 8.35156L112.936 9.55566V10.9971C112.936 11.2432 112.616 11.5625 111.978 11.9551C110.853 11.9551 110.29 10.833 110.29 8.58887L109.332 3.55273C109.643 2.82031 109.962 2.41895 110.29 2.34863C111.063 2.34863 111.784 3.5498 112.452 5.95215C112.452 5.79395 113.334 5.71484 115.098 5.71484C114.617 4.20312 114.377 3.32129 114.377 3.06934C114.617 2.43066 114.857 2.11133 115.098 2.11133ZM110.536 14.5918H112.936C114.213 14.5918 114.852 15.7139 114.852 17.958V18.1953C114.852 21.0254 114.371 22.6279 113.41 23.0029C111.992 23.3193 110.393 23.5596 108.611 23.7236C106.689 22.9502 105.729 21.5088 105.729 19.3994C105.248 18.0928 105.008 16.9707 105.008 16.0332C105.488 15.418 105.729 15.0195 105.729 14.8379C107.891 14.6738 109.493 14.5918 110.536 14.5918ZM107.653 17.2373V17.4746C108.292 20.0352 108.772 21.3154 109.095 21.3154C111.175 20.9521 112.215 20.6328 112.215 20.3574V17.2373L111.011 17C109.651 17.1582 108.532 17.2373 107.653 17.2373ZM127.31 1.85645C128.112 1.95605 128.514 2.43652 128.514 3.29785L128.268 4.98535C131.795 6.93652 133.559 8.1377 133.559 8.58887V9.07227C133.4 9.55273 132.92 9.79297 132.117 9.79297C131.578 9.79297 130.055 8.99023 127.547 7.38477C127.547 9.30664 126.987 10.2676 125.868 10.2676H125.147C124.825 10.2676 124.664 10.1094 124.664 9.79297C124.664 8.50391 125.224 6.09863 126.343 2.57715C126.185 2.57715 126.105 2.49805 126.105 2.33984C126.387 2.33984 126.788 2.17871 127.31 1.85645ZM130.192 11.4717H130.913C131.271 11.4717 131.593 12.2744 131.88 13.8799H131.634C131.634 16.124 132.035 17.2461 132.838 17.2461C133.471 17.4043 134.03 17.4834 134.517 17.4834C134.599 17.4834 134.921 17.4043 135.483 17.2461C136.444 17.4453 136.925 18.166 136.925 19.4082C136.397 19.7246 135.917 19.8828 135.483 19.8828H131.396C131.232 19.8828 131.15 19.8037 131.15 19.6455L130.676 19.8828H126.343C125.517 19.8828 125.036 19.6426 124.901 19.1621V18.2041C124.901 17.9521 125.224 17.6328 125.868 17.2461H129.709C129.551 16.3672 129.472 14.6035 129.472 11.9551L130.192 11.4717ZM140.53 1.61914C141.491 1.71875 141.972 1.95898 141.972 2.33984V2.82324C141.491 4.24707 141.251 5.04688 141.251 5.22266C143.495 7.5957 144.617 9.11914 144.617 9.79297C144.295 10.5898 143.814 10.9883 143.176 10.9883C142.906 10.9883 141.863 9.86914 140.047 7.63086C139.537 9.55273 139.057 10.5137 138.605 10.5137H137.401L137.164 9.30957C138.664 4.18262 139.786 1.61914 140.53 1.61914ZM152.308 2.57715C152.835 2.57715 153.154 3.62012 153.266 5.70605V10.2676C153.266 11.3926 152.785 11.9551 151.824 11.9551C151.186 11.7969 150.866 11.3164 150.866 10.5137V8.10547C150.866 7.78906 150.705 7.63086 150.383 7.63086H149.908C148.9 7.63086 147.696 7.70996 146.296 7.86816C145.019 7.7627 144.38 7.60156 144.38 7.38477L143.896 6.66406C143.896 5.76758 144.298 5.20801 145.101 4.98535C146.378 5.09082 147.017 5.24902 147.017 5.45996L147.5 5.22266H150.383L150.866 5.45996C150.866 3.53809 151.268 2.57715 152.07 2.57715H152.308ZM144.134 13.3965H149.662C150.787 13.3965 151.35 14.5186 151.35 16.7627V17.9668C151.35 19.0039 149.507 19.6426 145.821 19.8828C145.821 20.1348 146.141 20.457 146.779 20.8496H150.866C151.188 20.8965 151.35 21.0576 151.35 21.333C151.35 22.7744 150.146 23.4951 147.737 23.4951C144.854 23.4951 143.413 22.1328 143.413 19.4082C144.058 17.9668 145.499 17.2461 147.737 17.2461C148.54 17.2461 148.941 17.085 148.941 16.7627V16.2793C148.941 15.957 148.78 15.7959 148.458 15.7959H148.221C147.295 15.7959 146.015 15.8779 144.38 16.042C143.647 15.7314 143.246 15.4092 143.176 15.0752V14.3545C143.176 14.1084 143.495 13.7891 144.134 13.3965Z" fill="#222222"/>
</svg>
