<svg width="170" height="25" viewBox="0 0 170 25" fill="none" xmlns="http://www.w3.org/2000/svg">
<path d="M14.9414 5.98535H16.1455C16.8076 6.53027 17.4463 10.1338 18.0615 16.7959C17.7803 17.7568 17.2207 18.2373 16.3828 18.2373C15.7441 18.0791 15.4248 17.5986 15.4248 16.7959V14.8799C15.4248 14.5576 15.2637 14.3965 14.9414 14.3965V14.8799C12.832 14.7158 11.0713 14.4756 9.65918 14.1592V13.6758C9.65918 13.2422 9.81738 12.7617 10.1338 12.2344L13.0166 12.4717H14.7041L15.1787 12.7178V12.4717C15.0205 11.376 14.9414 10.4971 14.9414 9.83496H14.458V10.3096L13.9834 10.0723H10.8545C10.0283 10.0723 9.54785 9.83203 9.41309 9.35156C9.61816 8.39062 10.3389 7.91016 11.5752 7.91016H13.9834L14.458 8.14746V6.46875C14.7803 6.46875 14.9414 6.30762 14.9414 5.98535ZM3.17285 6.46875C3.53027 6.46875 3.84961 6.54785 4.13086 6.70605C4.44141 6.54785 4.68164 6.46875 4.85156 6.46875C7.41211 7.20703 8.69238 8.64844 8.69238 10.793V11.0303C8.69238 11.1943 8.61328 11.2764 8.45508 11.2764L8.69238 11.751C8.00098 13.6729 7.04004 14.6338 5.80957 14.6338H5.08887C2.04785 14.0947 0.527344 12.5742 0.527344 10.0723V8.38477C1.33594 7.10742 2.21777 6.46875 3.17285 6.46875ZM3.41016 8.14746C3.41016 8.27637 3.16992 8.5166 2.68945 8.86816C2.68945 11.2705 3.81152 12.4717 6.05566 12.4717C6.21387 11.5107 6.37207 11.0303 6.53027 11.0303C6.53027 10.2334 5.56934 9.27246 3.64746 8.14746H3.41016ZM19.0215 2.60156C20.9082 2.75977 22.2705 2.83887 23.1084 2.83887H24.7959C26.4014 3.40723 27.2041 5.33203 27.2041 8.61328V9.33398C27.2041 10.1953 26.8818 10.7578 26.2373 11.0215H25.2793C24.957 9.89648 24.7168 9.33398 24.5586 9.33398L24.7959 8.12988V6.93457C24.7959 5.80957 24.2334 5.24707 23.1084 5.24707L22.6338 5.48438H19.2588C18.6201 5.15625 18.3008 4.75781 18.3008 4.28906C18.3008 3.87305 18.541 3.31055 19.0215 2.60156ZM32.4951 2.60156H32.9697C33.6787 2.60156 34.1621 4.0459 34.4199 6.93457H34.1738C34.4961 7.62598 34.6572 8.90918 34.6572 10.7842V11.9795C34.499 12.46 34.0186 12.7002 33.2158 12.7002C32.4131 12.7002 32.0117 10.4561 32.0117 5.96777C31.8535 5.96777 31.7744 5.16797 31.7744 3.56836C32.0146 2.92383 32.2549 2.60156 32.4951 2.60156ZM24.0752 13.667C24.7373 13.8896 25.2178 14.291 25.5166 14.8711V15.8291L25.2793 16.3125C27.043 17.8184 27.9248 18.9404 27.9248 19.6787C27.7607 20.3232 27.3594 20.6455 26.7207 20.6455C26.0059 20.3701 25.2031 19.8076 24.3125 18.958H24.0752C23.4307 19.9424 23.1084 20.5049 23.1084 20.6455H21.9043C21.541 20.6455 21.3008 20.2441 21.1836 19.4414C21.1836 18.9961 21.667 18.1143 22.6338 16.7959C23.1553 14.71 23.6357 13.667 24.0752 13.667ZM29.8496 14.1504H30.5703C31.373 14.5605 31.7744 15.2021 31.7744 16.0752V16.3125L31.5283 16.7959C33.6143 18.5068 34.6572 19.708 34.6572 20.3994C34.499 21.0439 34.0977 21.3662 33.4531 21.3662C33.2129 21.3662 32.4102 20.8037 31.0449 19.6787H30.8076C30.8076 20.2529 30.5674 21.0557 30.0869 22.0869H28.8828C28.5078 22.0869 28.2676 21.5244 28.1621 20.3994L29.8496 14.1504ZM42.833 5.49316C43.1553 6.01465 43.3164 6.49512 43.3164 6.93457V7.40918C43.0703 8.21191 41.0664 8.61328 37.3047 8.61328V10.5381C37.3047 13.2627 37.9463 14.625 39.2295 14.625H42.3496C42.5137 14.625 42.8359 14.9473 43.3164 15.5918C43.3164 16.875 42.8359 17.5166 41.875 17.5166C40.9551 17.5166 40.3926 17.5957 40.1875 17.7539C37.1406 17.3789 35.6172 16.5791 35.6172 15.3545C35.1367 13.8545 34.8965 12.4893 34.8965 11.2588V6.93457L35.8545 5.73047L37.542 5.96777C40.6006 5.65137 42.3643 5.49316 42.833 5.49316ZM48.8447 5.49316C49.4893 6.29004 49.8115 7.89258 49.8115 10.3008H52.457L53.6611 10.5381V12.2256C53.4971 12.7061 53.0137 12.9463 52.2109 12.9463H49.8115V16.7959C49.8115 17.915 49.249 18.4746 48.124 18.4746L47.4033 17.5166V10.7842C47.4033 9.85254 47.3242 8.56934 47.166 6.93457C47.4297 5.97363 47.9893 5.49316 48.8447 5.49316ZM61.3115 5.96777C61.9502 5.96777 62.4307 6.69141 62.7529 8.13867H62.5156L62.7529 8.61328V11.2588C62.7529 12.542 63.2334 13.1836 64.1943 13.1836C67.4053 13.1836 69.0107 13.6641 69.0107 14.625V15.3545C69.0107 15.835 68.6885 16.0752 68.0439 16.0752C63.2334 16.0752 60.8281 15.3516 60.8281 13.9043C60.3477 9.85547 60.1074 7.69043 60.1074 7.40918C60.4297 6.54785 60.8311 6.06738 61.3115 5.96777ZM73.5723 6.68848C75.0195 7.32715 75.7432 9.89355 75.7432 14.3877H75.4971L75.7432 14.8711V17.2705C75.7432 18.2373 75.2627 18.7207 74.3018 18.7207H74.0557C73.5752 18.5566 73.335 18.0732 73.335 17.2705V13.667C73.335 12.5479 73.0947 10.5439 72.6143 7.65527C72.7725 7.01074 73.0918 6.68848 73.5723 6.68848ZM89.4473 4.54395H90.4053C90.9971 4.54395 91.3984 6.38672 91.6094 10.0723C91.8262 10.0723 92.708 9.91113 94.2549 9.58887C94.9814 9.89941 95.3799 10.2188 95.4502 10.5469V11.2676C95.4502 12.0703 94.249 12.4717 91.8467 12.4717V12.7178C91.8467 13.5908 92.0078 15.5127 92.3301 18.4834C92.0195 19.2158 91.6973 19.6172 91.3633 19.6875H90.6426C89.8516 19.6875 89.3711 17.042 89.2012 11.751C89.002 11.751 88.8438 9.50684 88.7266 5.01855L89.4473 4.54395ZM82.2314 7.66406C83.1924 7.66406 83.6729 8.22656 83.6729 9.35156V15.1172C83.6729 15.3457 83.4326 15.5859 82.9521 15.8379H81.9941C81.7598 15.8379 81.5195 15.5977 81.2734 15.1172V10.3096C78.707 10.4678 77.3447 10.6289 77.1865 10.793C76.4541 10.4824 76.0527 10.1602 75.9824 9.82617V8.86816C75.9824 8.30566 78.0654 7.9043 82.2314 7.66406ZM107.416 0.949219C107.896 1.42969 108.298 2.54883 108.62 4.30664C109.581 4.48828 110.062 4.88965 110.062 5.51074C109.739 6.8291 109.578 7.70801 109.578 8.14746C109.795 8.14746 110.677 9.0293 112.224 10.793C112.224 11.7539 111.503 12.2344 110.062 12.2344H109.824C109.824 12 109.262 11.4404 108.137 10.5557H107.899C107.624 11.9971 106.903 12.7178 105.737 12.7178H105.017L104.779 11.751C105.295 10.5205 106.095 8.9209 107.179 6.95215H106.941C106.525 6.95215 105.084 7.27148 102.617 7.91016L101.896 6.95215V6.71484C101.896 5.88281 103.177 5.24121 105.737 4.79004V3.34863C105.737 1.74902 106.297 0.949219 107.416 0.949219ZM115.581 3.11133H116.548C117.134 3.11133 117.611 4.15137 117.98 6.23145H117.743C117.901 6.5127 117.98 6.83203 117.98 7.18945H120.626C121.745 7.18945 122.305 7.66992 122.305 8.63086C121.613 9.26953 120.333 9.58887 118.464 9.58887H118.227V10.5557L118.464 13.4385C117.796 14.0771 116.996 14.3965 116.064 14.3965L115.106 3.83203C115.423 3.83203 115.581 3.5918 115.581 3.11133ZM115.827 14.8711V15.1172L116.302 14.8711H116.548C116.759 14.8711 117.157 15.2725 117.743 16.0752L117.506 17.7539C119.744 19.3594 120.863 20.6396 120.863 21.5947C120.477 21.917 119.677 22.1572 118.464 22.3154C118.464 22.1572 117.825 21.5186 116.548 20.3994C115.546 21.8408 114.904 22.5615 114.623 22.5615H113.182C113.182 22.3916 113.103 22.1514 112.944 21.8408L115.106 17.5166H114.86L110.545 18.2373L110.062 17.5166C110.062 16.0107 111.983 15.1289 115.827 14.8711ZM123.977 2.36426C124.938 2.36426 125.418 4.20703 125.418 7.89258C127.486 8.21484 128.852 8.37598 129.514 8.37598L131.913 8.13867V8.37598L132.396 8.13867H132.88C133.126 8.13867 133.445 8.45801 133.838 9.09668V10.3008C133.838 10.5293 133.598 10.7695 133.117 11.0215H130.955C130.416 11.0215 130.015 11.1006 129.751 11.2588C125.099 11.2588 122.772 9.81738 122.772 6.93457V6.45117H123.019L122.772 5.96777V3.08496C122.772 2.71582 123.174 2.47559 123.977 2.36426ZM123.256 12.9463H123.977C124.141 12.9463 124.223 13.0254 124.223 13.1836L124.697 12.9463H124.943C125.102 12.9463 125.181 13.0254 125.181 13.1836C125.339 13.1836 125.418 13.1045 125.418 12.9463L126.622 13.1836C126.792 13.1836 127.032 13.1045 127.343 12.9463L127.826 13.1836C128.148 13.1836 128.31 13.1045 128.31 12.9463L130.709 13.1836H133.354C133.747 13.5059 134.069 13.667 134.321 13.667V15.1084C134.321 15.5479 133.36 15.8701 131.438 16.0752L130.234 15.8291H124.223C123.355 15.8291 122.793 15.5098 122.535 14.8711V13.9043C123.016 13.5059 123.256 13.1865 123.256 12.9463ZM125.664 17.0332C126.408 17.0332 126.889 18.2373 127.105 20.6455C128.986 20.8037 130.349 20.8828 131.192 20.8828H132.88L133.117 21.8408C133.117 23.124 132.476 23.7656 131.192 23.7656C126.862 23.7656 124.697 22.9658 124.697 21.3662C124.539 20.7686 124.46 20.0449 124.46 19.1953V18.2373C124.46 18.0205 124.861 17.6191 125.664 17.0332ZM143.413 2.85645C144.216 2.95605 144.617 3.43652 144.617 4.29785L144.371 5.98535C147.898 7.93652 149.662 9.1377 149.662 9.58887V10.0723C149.504 10.5527 149.023 10.793 148.221 10.793C147.682 10.793 146.158 9.99023 143.65 8.38477C143.65 10.3066 143.091 11.2676 141.972 11.2676H141.251C140.929 11.2676 140.768 11.1094 140.768 10.793C140.768 9.50391 141.327 7.09863 142.446 3.57715C142.288 3.57715 142.209 3.49805 142.209 3.33984C142.49 3.33984 142.892 3.17871 143.413 2.85645ZM146.296 12.4717H147.017C147.374 12.4717 147.696 13.2744 147.983 14.8799H147.737C147.737 17.124 148.139 18.2461 148.941 18.2461C149.574 18.4043 150.134 18.4834 150.62 18.4834C150.702 18.4834 151.024 18.4043 151.587 18.2461C152.548 18.4453 153.028 19.166 153.028 20.4082C152.501 20.7246 152.021 20.8828 151.587 20.8828H147.5C147.336 20.8828 147.254 20.8037 147.254 20.6455L146.779 20.8828H142.446C141.62 20.8828 141.14 20.6426 141.005 20.1621V19.2041C141.005 18.9521 141.327 18.6328 141.972 18.2461H145.812C145.654 17.3672 145.575 15.6035 145.575 12.9551L146.296 12.4717ZM156.634 2.61914C157.595 2.71875 158.075 2.95898 158.075 3.33984V3.82324C157.595 5.24707 157.354 6.04688 157.354 6.22266C159.599 8.5957 160.721 10.1191 160.721 10.793C160.398 11.5898 159.918 11.9883 159.279 11.9883C159.01 11.9883 157.967 10.8691 156.15 8.63086C155.641 10.5527 155.16 11.5137 154.709 11.5137H153.505L153.268 10.3096C154.768 5.18262 155.89 2.61914 156.634 2.61914ZM168.411 3.57715C168.938 3.57715 169.258 4.62012 169.369 6.70605V11.2676C169.369 12.3926 168.889 12.9551 167.928 12.9551C167.289 12.7969 166.97 12.3164 166.97 11.5137V9.10547C166.97 8.78906 166.809 8.63086 166.486 8.63086H166.012C165.004 8.63086 163.8 8.70996 162.399 8.86816C161.122 8.7627 160.483 8.60156 160.483 8.38477L160 7.66406C160 6.76758 160.401 6.20801 161.204 5.98535C162.481 6.09082 163.12 6.24902 163.12 6.45996L163.604 6.22266H166.486L166.97 6.45996C166.97 4.53809 167.371 3.57715 168.174 3.57715H168.411ZM160.237 14.3965H165.766C166.891 14.3965 167.453 15.5186 167.453 17.7627V18.9668C167.453 20.0039 165.61 20.6426 161.925 20.8828C161.925 21.1348 162.244 21.457 162.883 21.8496H166.97C167.292 21.8965 167.453 22.0576 167.453 22.333C167.453 23.7744 166.249 24.4951 163.841 24.4951C160.958 24.4951 159.517 23.1328 159.517 20.4082C160.161 18.9668 161.603 18.2461 163.841 18.2461C164.644 18.2461 165.045 18.085 165.045 17.7627V17.2793C165.045 16.957 164.884 16.7959 164.562 16.7959H164.324C163.398 16.7959 162.118 16.8779 160.483 17.042C159.751 16.7314 159.35 16.4092 159.279 16.0752V15.3545C159.279 15.1084 159.599 14.7891 160.237 14.3965Z" fill="#222222"/>
</svg>
