<svg width="107" height="23" viewBox="0 0 107 23" fill="none" xmlns="http://www.w3.org/2000/svg">
<path d="M5.32812 1.48828H5.9082C6.26628 1.48828 6.75684 2.36914 7.37988 4.13086C8.31087 4.13086 9.67513 5.39844 11.4727 7.93359V8.22363C11.4727 8.50293 11.179 8.79655 10.5918 9.10449H10.3018C8.47559 7.0778 7.01107 5.80664 5.9082 5.29102C4.4974 8.80729 3.52344 10.5654 2.98633 10.5654H2.39551C2.00879 10.5654 1.81543 10.3685 1.81543 9.97461V9.68457L5.03809 1.78906C5.03809 1.58854 5.13477 1.48828 5.32812 1.48828ZM7.0791 9.68457H7.66992C7.94922 9.68457 8.24284 9.97819 8.55078 10.5654V15.5391C11.179 15.3457 13.127 15.249 14.3945 15.249C14.7884 15.3063 14.9854 15.4997 14.9854 15.8291C14.9854 17.0036 10.6921 17.5908 2.10547 17.5908H1.22461C0.837891 17.5908 0.644531 17.3939 0.644531 17V16.71C0.644531 16.1227 2.20573 15.8291 5.32812 15.8291H5.9082L6.49902 15.5391L6.20898 14.9482L6.49902 13.7773L6.20898 13.1973L6.49902 12.6172L6.20898 10.8555V10.5654C6.20898 10.2861 6.49902 9.99251 7.0791 9.68457ZM20.1836 0.317383C20.5703 0.797201 20.7637 1.1875 20.7637 1.48828C20.377 3.05664 20.1836 4.32422 20.1836 5.29102C22.332 7.86198 23.4062 9.62012 23.4062 10.5654L22.8154 10.8555H21.9346C21.4762 9.60938 20.5023 8.3418 19.0127 7.05273C18.2249 8.88607 17.3477 10.057 16.3809 10.5654C16.0013 10.3721 15.7077 10.2754 15.5 10.2754V9.97461C15.5 9.63802 16.0837 8.37044 17.251 6.17188L19.3027 0.618164C19.6823 0.417643 19.9759 0.317383 20.1836 0.317383ZM27.209 0.908203H27.7891C28.2546 0.908203 28.6449 1.6888 28.96 3.25H28.6699C29.0566 4.1237 29.25 5.39128 29.25 7.05273V10.5654C29.25 11.611 28.8597 12.2949 28.0791 12.6172C27.7998 12.6172 27.5098 12.3236 27.209 11.7363V7.34277H24.5664C23.0768 7.34277 22.1995 6.95247 21.9346 6.17188L22.8154 5.5918C24.7633 5.78516 26.2279 5.88184 27.209 5.88184V5.5918C27.0085 5.39128 26.8115 3.92676 26.6182 1.19824L27.209 0.908203ZM21.9346 12.6172H25.7373C27.2985 12.6172 28.1794 13.6878 28.3799 15.8291C28.1794 16.8031 27.8857 17.487 27.499 17.8809L24.5664 17.5908H23.6963L22.2354 17.8809V19.6318H28.3799V20.5127C28.3799 20.971 27.696 21.2646 26.3281 21.3936L25.7373 21.1035L23.9863 21.3936C21.4512 21.3936 20.1836 21.0033 20.1836 20.2227V17.29C20.1836 16.9033 20.4772 16.71 21.0645 16.71C21.7161 16.71 23.374 16.6133 26.0381 16.4199V14.3682H24.5664L22.8154 14.0781C22.4717 14.2715 22.0814 14.3682 21.6445 14.3682V14.0781L21.0645 14.3682H19.5928C19.2061 14.3682 19.0127 14.1712 19.0127 13.7773V12.9072L21.9346 12.6172ZM46.8545 0.317383L47.1445 0.897461V1.77832C46.944 1.77832 46.654 1.875 46.2744 2.06836C46.0739 2.06836 45.9736 1.97168 45.9736 1.77832C45.2002 1.97168 44.5199 2.06836 43.9326 2.06836L44.2227 4.12012V5.58105C44.2227 6.03223 43.7357 6.32585 42.7617 6.46191L42.4609 5.88184V5.29102C42.4609 5.09766 42.5612 5.00098 42.7617 5.00098C42.5612 3.0459 42.2676 2.06836 41.8809 2.06836H41C40.6133 2.13281 40.4199 2.32975 40.4199 2.65918V3.23926C40.4199 3.68327 40.5166 4.07357 40.71 4.41016C40.5166 4.75391 40.4199 5.14421 40.4199 5.58105V7.05273L44.8027 6.46191V6.75195C45.9271 6.36523 47.1982 6.17188 48.6162 6.17188L48.9062 6.75195V7.05273C48.9062 7.43945 47.7354 7.82975 45.3936 8.22363C45.2002 9.65592 45.1035 10.6299 45.1035 11.1455C45.5046 11.1455 46.8688 10.9521 49.1963 10.5654L49.4971 11.1455V11.4463C48.8239 12.4202 45.8949 12.9072 40.71 12.9072H38.3682C38.3682 12.6995 38.2715 12.4059 38.0781 12.0264C38.8372 11.6396 39.9079 11.4463 41.29 11.4463H42.7617C43.3418 11.3245 43.6318 10.5439 43.6318 9.10449V8.80371C43.6318 8.41699 43.4385 8.22363 43.0518 8.22363C42.6722 8.41699 42.3786 8.51367 42.1709 8.51367V8.22363C41.7913 8.41699 41.4977 8.51367 41.29 8.51367C39.7288 8.51367 38.071 8.31673 36.3164 7.92285V6.75195H36.9072L38.9482 7.05273C38.9482 6.60872 38.8516 6.21842 38.6582 5.88184C38.6582 5.68132 38.7549 5.58105 38.9482 5.58105L38.6582 4.41016L38.9482 2.36914L38.3682 2.06836L37.7773 2.36914C36.9967 2.07552 36.6064 1.7819 36.6064 1.48828V0.897461L46.8545 0.317383ZM42.7617 13.4873H44.2227C45.4473 13.4873 46.8151 13.7809 48.3262 14.3682L48.6162 18.4717C48.6162 19.8395 48.029 20.5234 46.8545 20.5234C45.7445 20.7168 44.1833 20.8135 42.1709 20.8135H41.5908C40.8102 20.8135 40.4199 19.349 40.4199 16.4199V15.249C40.4199 14.0745 41.2005 13.4873 42.7617 13.4873ZM42.1709 14.959V17.3008L42.4609 19.3525H44.8027L46.8545 19.0518V16.71C46.8545 15.3421 45.5869 14.6582 43.0518 14.6582C42.6722 14.8587 42.3786 14.959 42.1709 14.959ZM69.4756 4.09863C70.2848 4.09863 70.9723 6.93457 71.5381 12.6064C71.3376 12.986 71.2373 13.2796 71.2373 13.4873C71.4378 13.8669 71.5381 14.1605 71.5381 14.3682H71.2373C71.4378 14.7406 71.5381 15.0306 71.5381 15.2383C71.3376 17.666 71.2373 18.9372 71.2373 19.0518L70.0664 19.3525L69.4756 18.4717V17.5908C69.4756 17.3975 69.5758 17.3008 69.7764 17.3008L69.4756 16.71V14.9482C69.4756 10.6299 69.182 7.21029 68.5947 4.68945L69.4756 4.09863ZM57.165 5.26953H57.4551L58.626 6.15039C60.6742 5.95703 62.3356 5.86035 63.6104 5.86035C64.3981 5.86035 64.9854 7.71875 65.3721 11.4355H65.082C65.082 11.6289 65.1787 11.7256 65.3721 11.7256L64.792 15.8291L63.3203 15.5391C63.127 15.5391 63.0303 15.6357 63.0303 15.8291C59.3135 15.8291 57.4551 15.2419 57.4551 14.0674L56.5742 5.55957L57.165 5.26953ZM60.0977 7.62207H58.626C58.8193 9.91374 58.916 11.5752 58.916 12.6064V13.4873C58.916 13.8382 59.7969 14.1318 61.5586 14.3682C61.8522 14.1676 62.4395 14.0674 63.3203 14.0674V8.79297L63.0303 7.32129L60.0977 7.62207ZM77.123 0.59668H77.7246C78.2617 0.59668 78.6592 1.986 78.917 4.76465C79.2607 4.76465 79.7585 4.96517 80.4102 5.36621C80.1094 7.00618 79.7119 8.09831 79.2178 8.64258C79.2178 9.49479 80.113 10.791 81.9033 12.5312V12.8213C81.9033 13.2223 81.7028 13.4229 81.3018 13.4229C80.5785 13.4229 79.3861 12.5277 77.7246 10.7373C77.5241 11.3317 76.8258 12.2269 75.6299 13.4229H74.7383C74.3372 13.4229 74.1367 13.1257 74.1367 12.5312C76.5286 9.44466 77.7246 7.55404 77.7246 6.85938H75.0391C73.0482 6.60872 72.0527 6.21126 72.0527 5.66699V5.36621L72.3535 4.76465L75.9307 5.06543H76.8223V4.76465C76.8223 4.6429 76.7256 3.35026 76.5322 0.886719L77.123 0.59668ZM86.0713 1.48828H86.6729C87.4678 1.78906 87.9655 3.67969 88.166 7.16016V9.8457L87.8652 13.4229H86.6729C86.2718 13.4229 86.0713 13.2223 86.0713 12.8213V10.1357H83.3857C82.3545 10.1357 81.7601 9.83854 81.6025 9.24414V8.35254C82.4189 8.35254 83.2139 8.44922 83.9873 8.64258C84.7751 8.44922 85.4697 8.35254 86.0713 8.35254V6.85938C85.8278 6.85938 84.8359 6.95964 83.0957 7.16016C82.709 6.95964 82.4082 6.85938 82.1934 6.85938V5.66699L86.0713 5.06543C85.6774 3.23926 85.4805 2.14714 85.4805 1.78906L86.0713 1.48828ZM85.7812 13.7236C86.5762 14.0173 86.9736 14.3145 86.9736 14.6152V17C88.9144 18.4108 90.0065 19.4062 90.25 19.9863V20.8779H89.6592C88.9717 20.8779 87.7757 20.1833 86.0713 18.7939C86.0713 19.0303 85.6738 20.2227 84.8789 22.3711H83.6865C83.2926 22.3711 83.0957 22.0739 83.0957 21.4795C83.2891 21.0928 83.3857 20.792 83.3857 20.5771C82.8701 20.1833 81.5775 19.6891 79.5078 19.0947V20.5771C79.5078 20.8636 79.2106 21.1644 78.6162 21.4795H78.0146C77.6208 21.4795 77.4238 21.1787 77.4238 20.5771C77.6243 17.0251 78.2223 15.138 79.2178 14.916C79.8695 15.1094 80.2669 15.5068 80.4102 16.1084C80.2096 16.4951 80.1094 16.7923 80.1094 17C81.778 17.9954 83.0706 18.4932 83.9873 18.4932C84.5101 15.3135 85.1081 13.7236 85.7812 13.7236ZM101.335 4.07715H101.625C102.212 4.07715 102.506 5.34831 102.506 7.89062V11.4248H105.449C105.836 11.4821 106.029 11.6755 106.029 12.0049C106.029 12.5921 104.758 12.986 102.216 13.1865V18.1816C102.216 18.5684 102.019 18.7617 101.625 18.7617H101.034C100.647 18.7617 100.454 18.5684 100.454 18.1816C100.647 13.0684 100.744 9.05078 100.744 6.12891V4.65723C100.801 4.27051 100.998 4.07715 101.335 4.07715ZM97.8008 4.95801L98.1016 6.12891L97.2207 6.71973H96.3398C93.7904 6.71973 92.5156 7.01335 92.5156 7.60059V8.48145L92.8057 12.0049H92.5156L92.8057 12.5957V14.3574H93.3965C94.3776 14.3574 95.8457 14.2607 97.8008 14.0674L98.1016 14.6475V15.2383C98.1016 15.6322 97.8079 15.8291 97.2207 15.8291C96.4258 15.8291 94.6605 15.9258 91.9248 16.1191C91.3376 15.403 91.0439 14.7191 91.0439 14.0674L91.3447 12.8857C91.1442 12.5635 91.0439 12.0765 91.0439 11.4248H91.3447L91.0439 10.834V7.89062L90.7539 5.83887C91.1335 5.64551 91.4271 5.54883 91.6348 5.54883C93.0312 5.54883 95.0866 5.35189 97.8008 4.95801Z" fill="#222222"/>
</svg>
