<svg width="139" height="25" viewBox="0 0 139 25" fill="none" xmlns="http://www.w3.org/2000/svg">
<path d="M1.24805 0.880859C5.25586 1.39648 7.25977 1.71582 7.25977 1.83887L7.74316 1.60156H9.66797C11.9121 2.02344 13.0342 3.86621 13.0342 7.12988C12.7236 7.8623 12.4043 8.26367 12.0762 8.33398H11.5928C11.0127 8.33398 10.5322 6.89258 10.1514 4.00977C9.8291 4.00977 9.66797 3.92773 9.66797 3.76367L9.18457 4.00977H8.94727C8.7832 4.00977 8.70117 3.92773 8.70117 3.76367C7.74023 3.97461 7.25977 4.21484 7.25977 4.48438V7.37598C7.25977 8.33691 6.7793 8.81738 5.81836 8.81738C5.17969 8.2373 4.86035 7.5957 4.86035 6.89258V3.76367C1.97168 3.44727 0.527344 3.04883 0.527344 2.56836V1.11816C0.697266 1.11816 0.9375 1.03906 1.24805 0.880859ZM2.45215 9.78418C3.2959 9.94238 3.77637 10.0215 3.89355 10.0215C8.82129 9.86328 12.1904 9.78418 14.001 9.78418L14.7217 10.7422V11.4629C14.7217 11.6914 14.4814 11.9316 14.001 12.1836H9.43066V12.9043L9.66797 14.5918H11.1094C12.3926 14.5918 13.0342 15.3125 13.0342 16.7539V18.1953C13.0342 20.123 10.9512 21.0869 6.78516 21.0869V21.5615C8.60742 21.8838 9.8877 22.0449 10.626 22.0449H12.0762C12.3047 22.0449 12.5449 22.2852 12.7969 22.7656V23.0117C12.2988 23.9727 11.335 24.4531 9.90527 24.4531C7.11035 24.4531 5.18555 23.249 4.13086 20.8408C4.53516 19.5576 5.33789 18.916 6.53906 18.916C9.18164 18.7578 10.626 18.2773 10.8721 17.4746V16.7539C7.24512 16.918 4.99805 17 4.13086 17L3.41016 16.0332L3.65625 14.8291H6.30176L7.50586 14.5918L7.25977 14.1084V12.4297H5.09766C2.85352 12.4297 1.73145 11.8672 1.73145 10.7422L2.45215 9.78418ZM16.4023 2.11133H21.2012C21.4531 2.11133 21.7754 2.43066 22.168 3.06934V4.27344C22.168 5.07031 22.0068 5.46875 21.6846 5.46875L21.9219 5.95215V6.67285L21.6846 7.14746C22.8213 7.83887 24.0225 8.6416 25.2881 9.55566V9.79297L25.042 10.9971L24.5674 10.751V11.2344H23.3633C21.8516 10.1152 21.0518 9.55566 20.9639 9.55566C20.3486 10.9912 19.7891 11.791 19.2852 11.9551H18.3184C17.8438 11.7969 17.6064 11.3164 17.6064 10.5137C18.7314 8.82617 19.4492 6.9043 19.7598 4.74805L19.2852 4.51074H18.5645C18.0254 4.51074 17.624 4.58984 17.3604 4.74805L14.9609 4.27344V3.55273C14.9609 2.5918 15.4414 2.11133 16.4023 2.11133ZM32.7324 2.11133H33.4531C34.3086 2.11133 35.1084 4.99121 35.8525 10.751V11.4717C35.6943 12.1162 35.2139 12.4385 34.4111 12.4385H33.6904C33.3682 11.2549 33.1279 9.81348 32.9697 8.11426H32.0117L30.3242 8.35156L30.5703 9.55566V10.9971C30.5703 11.2432 30.251 11.5625 29.6123 11.9551C28.4873 11.9551 27.9248 10.833 27.9248 8.58887L26.9668 3.55273C27.2773 2.82031 27.5967 2.41895 27.9248 2.34863C28.6982 2.34863 29.4189 3.5498 30.0869 5.95215C30.0869 5.79395 30.9688 5.71484 32.7324 5.71484C32.252 4.20312 32.0117 3.32129 32.0117 3.06934C32.252 2.43066 32.4922 2.11133 32.7324 2.11133ZM28.1709 14.5918H30.5703C31.8477 14.5918 32.4863 15.7139 32.4863 17.958V18.1953C32.4863 21.0254 32.0059 22.6279 31.0449 23.0029C29.627 23.3193 28.0273 23.5596 26.2461 23.7236C24.3242 22.9502 23.3633 21.5088 23.3633 19.3994C22.8828 18.0928 22.6426 16.9707 22.6426 16.0332C23.123 15.418 23.3633 15.0195 23.3633 14.8379C25.5254 14.6738 27.1279 14.5918 28.1709 14.5918ZM25.2881 17.2373V17.4746C25.9268 20.0352 26.4072 21.3154 26.7295 21.3154C28.8096 20.9521 29.8496 20.6328 29.8496 20.3574V17.2373L28.6455 17C27.2861 17.1582 26.167 17.2373 25.2881 17.2373ZM49.998 3.04297C51.0703 3.04297 51.7119 4.72754 51.9229 8.09668H51.6768L51.9229 8.58008V12.4297C51.9229 12.6582 51.6826 12.8984 51.2021 13.1504H50.9561C50.1533 13.1504 49.5938 12.749 49.2773 11.9463V6.65527L49.0312 4.96777L46.6318 5.21387H43.7402C42.9082 5.21387 42.4277 4.9707 42.2988 4.48438V3.52637L43.5029 3.28906C44.6338 3.28906 46.7988 3.20703 49.998 3.04297ZM43.2568 16.5166C43.5674 16.6748 43.8105 16.7539 43.9863 16.7539C44.7832 16.7539 47.748 16.6748 52.8809 16.5166V16.7539L53.3643 16.5166C53.5225 16.5166 53.6016 16.5957 53.6016 16.7539L54.085 16.5166C55.0869 16.8389 55.6494 17.2402 55.7725 17.7207V18.1953C55.7725 18.3594 55.4502 18.5996 54.8057 18.916L53.6016 18.6787H52.1602C48.082 18.6787 45.5977 18.8398 44.707 19.1621C43.4238 18.7578 42.7822 18.1953 42.7822 17.4746C43.0986 17.4746 43.2568 17.1553 43.2568 16.5166ZM67.2637 1.62793H67.9844C68.6875 1.62793 69.2471 2.0293 69.6631 2.83203C69.6631 3.3418 69.4229 4.38184 68.9424 5.95215C68.9424 6.16309 69.9824 7.20312 72.0625 9.07227V10.0303C71.8809 10.0303 71.4824 10.2705 70.8672 10.751C70.252 10.5576 69.291 9.75781 67.9844 8.35156C66.918 10.1152 66.1973 10.9971 65.8223 10.9971H65.3389C65.1104 10.9971 64.8701 10.7568 64.6182 10.2764V9.79297C64.6182 9.49414 65.3389 7.97363 66.7803 5.23145V4.27344C66.6221 4.27344 66.543 4.19141 66.543 4.02734L66.0596 4.27344H65.1016L62.7021 4.51074L62.2188 3.79004V2.83203C62.2188 2.0293 63.9004 1.62793 67.2637 1.62793ZM76.624 2.11133H76.8701C77.5498 2.11133 78.1094 3.3125 78.5488 5.71484H81.9062C82.2285 6.39453 82.3896 6.79297 82.3896 6.91016C82.0791 7.64258 81.7598 8.04395 81.4316 8.11426H78.7861C79.1084 10.165 79.2695 11.3662 79.2695 11.7178C79.0469 12.5146 78.4844 12.9131 77.582 12.9131C77.3359 12.9131 77.0166 12.5938 76.624 11.9551V10.9971C76.624 10.833 76.7061 10.751 76.8701 10.751L75.666 3.30664C75.9766 2.58008 76.2959 2.18164 76.624 2.11133ZM75.9033 13.8711C76.5479 14.4336 76.8701 14.9961 76.8701 15.5586V18.1953C76.7061 20.5977 76.2256 21.7988 75.4287 21.7988H71.5791C70.085 21.7988 69.2061 19.959 68.9424 16.2793V15.3125L69.9004 14.5918H70.3838C71.1807 15.6465 71.5791 16.3672 71.5791 16.7539L73.2666 16.5166H74.4619V15.3125C74.4619 14.3516 74.9424 13.8711 75.9033 13.8711ZM72.0625 18.916V19.3994H73.2666C73.4248 19.3994 73.5039 19.4785 73.5039 19.6367C73.7852 19.4785 74.1045 19.3994 74.4619 19.3994V18.6787H73.7412L72.0625 18.916ZM87.4277 2.11133C87.9082 2.81445 88.1484 3.37402 88.1484 3.79004H87.9111C87.9111 5.55371 88.3125 6.43555 89.1152 6.43555C89.6309 6.43555 90.2695 6.67285 91.0312 7.14746C90.873 8.33691 90.6328 9.37988 90.3105 10.2764C90.5801 10.2764 91.7021 11.3164 93.6768 13.3965H93.9141C93.5332 14.5156 93.2139 15.0752 92.9561 15.0752H91.5146L89.3525 12.9131C88.749 14.835 87.7881 15.7959 86.4697 15.7959C86.4697 15.6787 86.3086 15.2773 85.9863 14.5918C86.666 13.4375 87.3076 11.6768 87.9111 9.30957V9.07227C87.2373 9.39453 85.6377 9.71387 83.1123 10.0303L82.6289 9.30957C82.9863 8.2373 83.4668 7.59863 84.0703 7.39355C84.2285 7.39355 84.3076 7.47266 84.3076 7.63086C84.9639 7.30859 85.4443 7.14746 85.749 7.14746V6.91016C85.749 6.03125 85.6699 4.91211 85.5117 3.55273C85.5117 2.9082 86.1504 2.42773 87.4277 2.11133ZM95.3555 4.51074H96.3135C97.1807 4.51074 97.6611 6.11035 97.7549 9.30957L99.4336 8.83496C99.1172 7.23535 98.959 6.19531 98.959 5.71484C99.2754 5.19336 99.4336 4.79199 99.4336 4.51074H100.4C101.268 4.51074 102.146 7.87109 103.037 14.5918C103.037 15.2773 102.237 15.7578 100.638 16.0332L99.917 10.9971C99.3311 11.3135 98.6895 11.4717 97.9922 11.4717L98.2383 14.3545C98.2383 15.4736 97.6787 16.0332 96.5596 16.0332C96.5596 15.875 96.4775 15.7959 96.3135 15.7959C96.3135 15.9541 96.2344 16.0332 96.0762 16.0332C95.7539 15.2363 95.3525 11.7969 94.8721 5.71484C95.1943 5.19336 95.3555 4.79199 95.3555 4.51074ZM112.12 1.85645C112.923 1.95605 113.324 2.43652 113.324 3.29785L113.078 4.98535C116.605 6.93652 118.369 8.1377 118.369 8.58887V9.07227C118.211 9.55273 117.73 9.79297 116.928 9.79297C116.389 9.79297 114.865 8.99023 112.357 7.38477C112.357 9.30664 111.798 10.2676 110.679 10.2676H109.958C109.636 10.2676 109.475 10.1094 109.475 9.79297C109.475 8.50391 110.034 6.09863 111.153 2.57715C110.995 2.57715 110.916 2.49805 110.916 2.33984C111.197 2.33984 111.599 2.17871 112.12 1.85645ZM115.003 11.4717H115.724C116.081 11.4717 116.403 12.2744 116.69 13.8799H116.444C116.444 16.124 116.846 17.2461 117.648 17.2461C118.281 17.4043 118.841 17.4834 119.327 17.4834C119.409 17.4834 119.731 17.4043 120.294 17.2461C121.255 17.4453 121.735 18.166 121.735 19.4082C121.208 19.7246 120.728 19.8828 120.294 19.8828H116.207C116.043 19.8828 115.961 19.8037 115.961 19.6455L115.486 19.8828H111.153C110.327 19.8828 109.847 19.6426 109.712 19.1621V18.2041C109.712 17.9521 110.034 17.6328 110.679 17.2461H114.52C114.361 16.3672 114.282 14.6035 114.282 11.9551L115.003 11.4717ZM125.341 1.61914C126.302 1.71875 126.782 1.95898 126.782 2.33984V2.82324C126.302 4.24707 126.062 5.04688 126.062 5.22266C128.306 7.5957 129.428 9.11914 129.428 9.79297C129.105 10.5898 128.625 10.9883 127.986 10.9883C127.717 10.9883 126.674 9.86914 124.857 7.63086C124.348 9.55273 123.867 10.5137 123.416 10.5137H122.212L121.975 9.30957C123.475 4.18262 124.597 1.61914 125.341 1.61914ZM137.118 2.57715C137.646 2.57715 137.965 3.62012 138.076 5.70605V10.2676C138.076 11.3926 137.596 11.9551 136.635 11.9551C135.996 11.7969 135.677 11.3164 135.677 10.5137V8.10547C135.677 7.78906 135.516 7.63086 135.193 7.63086H134.719C133.711 7.63086 132.507 7.70996 131.106 7.86816C129.829 7.7627 129.19 7.60156 129.19 7.38477L128.707 6.66406C128.707 5.76758 129.108 5.20801 129.911 4.98535C131.188 5.09082 131.827 5.24902 131.827 5.45996L132.311 5.22266H135.193L135.677 5.45996C135.677 3.53809 136.078 2.57715 136.881 2.57715H137.118ZM128.944 13.3965H134.473C135.598 13.3965 136.16 14.5186 136.16 16.7627V17.9668C136.16 19.0039 134.317 19.6426 130.632 19.8828C130.632 20.1348 130.951 20.457 131.59 20.8496H135.677C135.999 20.8965 136.16 21.0576 136.16 21.333C136.16 22.7744 134.956 23.4951 132.548 23.4951C129.665 23.4951 128.224 22.1328 128.224 19.4082C128.868 17.9668 130.31 17.2461 132.548 17.2461C133.351 17.2461 133.752 17.085 133.752 16.7627V16.2793C133.752 15.957 133.591 15.7959 133.269 15.7959H133.031C132.105 15.7959 130.825 15.8779 129.19 16.042C128.458 15.7314 128.057 15.4092 127.986 15.0752V14.3545C127.986 14.1084 128.306 13.7891 128.944 13.3965Z" fill="#222222"/>
</svg>
