<svg width="116" height="24" viewBox="0 0 116 24" fill="none" xmlns="http://www.w3.org/2000/svg">
<path d="M1.73145 1.11816C6.54199 1.11816 8.94727 1.60156 8.94727 2.56836V3.04297C8.94727 3.62891 8.70703 4.1123 8.22656 4.49316C5.42578 4.1709 3.66211 4.00977 2.93555 4.00977V5.45117C2.93555 6.73438 4.21875 7.37598 6.78516 7.37598H7.25977L7.50586 8.58008V9.30078C7.18359 9.93945 6.7002 10.2588 6.05566 10.2588C2.52832 10.2588 0.764648 8.89648 0.764648 6.17188L0.527344 4.49316H0.764648L0.527344 4.00977V3.52637C0.527344 3.16309 0.928711 2.36035 1.73145 1.11816ZM13.2715 1.36426C13.916 2.41309 14.2383 3.61426 14.2383 4.96777C16.4824 5.08496 17.6045 5.24609 17.6045 5.45117C17.9268 5.97852 18.0879 6.45898 18.0879 6.89258V7.13867C18.0879 7.36719 17.8477 7.60742 17.3672 7.85938H14.4756V10.0215L14.7217 11.2256L13.7549 11.9463H12.7969C12.3164 11.7881 12.0762 11.3076 12.0762 10.5049V6.65527C12.0762 5.91113 11.915 4.62793 11.5928 2.80566C11.8799 1.84473 12.4395 1.36426 13.2715 1.36426ZM5.58105 12.667C10.3916 12.667 12.7969 13.4697 12.7969 15.0752V16.2705C12.2402 18.6787 10.7959 19.8828 8.46387 19.8828V20.1201L9.90527 20.3662C10.1045 20.3662 10.9072 20.2842 12.3135 20.1201L13.0342 21.0869C13.0342 22.0479 12.1523 22.7686 10.3887 23.249C7.18359 23.249 5.58105 22.2881 5.58105 20.3662V20.1201C5.58105 18.374 7.10449 17.1729 10.1514 16.5166L10.3887 16.0332V15.7959H9.90527C6.21973 15.7959 4.37695 15.4736 4.37695 14.8291V14.3545C4.37695 13.4521 4.77832 12.8896 5.58105 12.667ZM23.8467 0.661133H25.7627C26.7646 0.661133 27.4062 1.54297 27.6875 3.30664C27.7871 3.30664 28.0273 4.98828 28.4082 8.35156C28.1562 9.3125 27.5967 9.79297 26.7295 9.79297H26.0088L25.7627 8.58887V6.91016L20.7178 7.63086C20.0791 7.39063 19.7598 7.15039 19.7598 6.91016V5.46875C20.8438 5.02344 22.7656 4.62207 25.5254 4.26465C25.3203 3.46191 25.0801 3.06055 24.8047 3.06055H24.5674C23.876 3.06055 22.1123 3.22168 19.2764 3.54395C18.6377 3.30371 18.3184 3.06348 18.3184 2.82324V1.86523C18.3184 1.0625 20.1611 0.661133 23.8467 0.661133ZM23.6006 8.35156C24.2451 8.35156 24.5674 9.3125 24.5674 11.2344V11.9551H24.8047C26.627 11.6328 27.9072 11.4717 28.6455 11.4717H29.3662C29.6006 11.4717 29.8408 11.7119 30.0869 12.1924V12.9131C30.0869 13.6807 28.0068 14.2432 23.8467 14.6006C23.8467 14.8174 22.5635 15.0576 19.9971 15.3213C19.2705 15.0107 18.8721 14.6885 18.8018 14.3545V13.1592C20.1611 12.6787 21.2803 12.4385 22.1592 12.4385V11.9551L21.9219 9.07227C22.5078 8.5918 23.0674 8.35156 23.6006 8.35156ZM29.1289 15.5586C29.6094 16.1445 29.8496 16.7041 29.8496 17.2373V17.7207C29.8496 21.2422 29.1289 23.0029 27.6875 23.0029C27.6875 23.1318 27.3682 23.293 26.7295 23.4863L25.5254 23.249H23.8467C23.6826 23.249 23.6006 23.167 23.6006 23.0029C23.29 23.167 23.0498 23.249 22.8799 23.249C22.2412 23.0088 21.9219 22.7686 21.9219 22.5283V22.2822C21.9219 20.0908 21.6816 18.7314 21.2012 18.2041V17.2373C21.2012 16.5986 23.8438 16.0391 29.1289 15.5586ZM24.084 18.6787V19.1621L24.3213 20.8408H26.9668C27.2891 19.2939 27.4502 18.415 27.4502 18.2041C25.3174 18.5205 24.1953 18.6787 24.084 18.6787ZM33.6924 2.10254H33.9297C35.0488 2.10254 35.6084 3.22461 35.6084 5.46875C35.7725 5.46875 35.8545 5.94922 35.8545 6.91016H37.7705C39.2822 6.91016 40.4043 7.22949 41.1367 7.86816C41.1367 8.9873 40.6562 9.54688 39.6953 9.54688H38.2539C38.6113 10.0566 38.9307 10.8594 39.2119 11.9551C39.0361 14.1992 37.9961 15.3213 36.0918 15.3213H35.6084C34.3311 15.3213 33.2119 14.4395 32.251 12.6758V10.9971L32.4883 9.79297H31.5303L30.3262 9.54688V8.82617C30.3262 7.70703 31.3662 7.14746 33.4463 7.14746C33.1299 5.38965 32.9717 4.18848 32.9717 3.54395C33.1299 2.58301 33.3701 2.10254 33.6924 2.10254ZM44.7402 4.74805H45.4609C46.0996 4.74805 46.501 6.10742 46.665 8.82617L48.8271 8.35156C49.9463 8.50977 50.5059 8.75 50.5059 9.07227V9.79297C50.5059 10.5371 49.3047 11.0176 46.9023 11.2344C47.0195 11.5215 47.1807 12.6436 47.3857 14.6006C47.0752 15.3271 46.7529 15.7256 46.4189 15.7959H45.2236C44.7432 14.4365 44.5029 13.4756 44.5029 12.9131H44.7402C44.582 12.3799 44.2627 10.1387 43.7822 6.18945C44.1045 5.22852 44.4238 4.74805 44.7402 4.74805ZM34.6504 10.5137C34.4922 10.8242 34.4131 11.0645 34.4131 11.2344C34.7295 12.1016 35.21 12.6611 35.8545 12.9131C36.335 12.7549 36.5752 12.5967 36.5752 12.4385C36.458 11.1553 35.8164 10.5137 34.6504 10.5137ZM40.1787 16.7627H40.8994C41.5967 16.7627 41.9951 18.1221 42.0947 20.8408C42.4932 20.8408 43.6943 20.6826 45.6982 20.3662C46.501 20.6826 46.9023 20.9229 46.9023 21.0869C46.9023 22.5283 45.2207 23.249 41.8574 23.249H41.374C40.0967 23.249 39.458 21.7256 39.458 18.6787V18.4414C39.5635 17.3223 39.8037 16.7627 40.1787 16.7627ZM61.5049 1.38184H63.1924C63.4209 1.38184 63.6611 1.62207 63.9131 2.10254V3.78125L63.4297 4.50195V4.74805C63.4297 4.90039 64.71 5.7002 67.2705 7.14746V7.38477L67.0332 8.58887C66.875 8.58887 66.7959 8.50977 66.7959 8.35156C66.4854 8.50977 66.2451 8.58887 66.0752 8.58887C63.5908 7.46973 62.3076 6.91016 62.2256 6.91016V7.14746C61.5459 8.91113 60.9072 9.79297 60.3096 9.79297C59.5771 9.48242 59.1758 9.16016 59.1055 8.82617V8.58887C59.1055 7.9502 59.9053 6.26855 61.5049 3.54395L58.6221 3.78125H57.9014C57.5732 3.71094 57.2539 3.3125 56.9434 2.58594C56.9434 1.7832 58.4639 1.38184 61.5049 1.38184ZM67.0332 10.9971C68.1523 10.9971 68.7119 11.5566 68.7119 12.6758C68.3955 13.0625 68.2373 13.3818 68.2373 13.6338H67.2705C66.9541 13.6338 66.7959 13.4756 66.7959 13.1592L66.3125 13.3965H65.5918C65.4336 13.3965 65.3545 13.3174 65.3545 13.1592C65.0439 13.3174 64.8037 13.3965 64.6338 13.3965V15.0752C64.6338 15.3975 64.4727 15.5586 64.1504 15.5586H63.1924C62.8701 14.6797 62.709 13.959 62.709 13.3965C60.5352 13.5547 59.0146 13.6338 58.1475 13.6338C57.667 13.0127 57.4268 12.5322 57.4268 12.1924C57.667 11.5537 57.9072 11.2344 58.1475 11.2344C62.8232 11.0762 65.7852 10.9971 67.0332 10.9971ZM63.4297 16.5166H63.667C65.9111 17.1436 67.0332 18.1865 67.0332 19.6455C66.7637 21.8838 65.7236 23.0029 63.9131 23.0029C62.3018 23.0029 61.1797 21.8018 60.5469 19.3994V18.6787H61.0303L60.7842 18.2041C60.7842 17.29 61.666 16.7275 63.4297 16.5166ZM62.9463 18.4414L62.709 18.9248V19.6455C62.7793 19.9736 63.1807 20.293 63.9131 20.6035C64.2236 20.4453 64.4639 20.3662 64.6338 20.3662V18.4414L64.1504 18.6787L62.9463 18.4414ZM70.1553 0.880859L73.0381 1.11816H74.9629L77.8545 0.880859V1.11816L78.3291 0.880859H78.5752C79.0557 1.86523 79.2959 2.50684 79.2959 2.80566V3.04297C79.2959 3.52344 78.2529 3.76367 76.167 3.76367H74.7256C74.5615 3.76367 74.4795 3.68457 74.4795 3.52637L74.0049 3.76367H71.5967C71.5967 3.92773 71.6758 4.00977 71.834 4.00977L71.5967 5.21387V5.68848C71.5967 6.33301 72.8008 6.65527 75.209 6.65527H76.8877C77.251 6.65527 77.5732 6.57324 77.8545 6.40918C78.2002 6.44434 78.6807 6.92773 79.2959 7.85938C79.2959 8.97852 78.4932 9.53809 76.8877 9.53809V9.30078L76.4043 9.53809H76.167L75.6836 9.30078V9.53809C75.8477 10.1768 75.9297 10.7393 75.9297 11.2256H79.2959C79.5127 11.2314 79.832 11.6328 80.2539 12.4297V13.1504C80.2539 13.3086 79.9346 13.6279 79.2959 14.1084L77.6084 13.8711H76.6504L75.4463 14.1084V13.8711L74.9629 14.1084C74.6055 14.1084 74.2861 14.0293 74.0049 13.8711C73.6943 14.0293 73.4541 14.1084 73.2842 14.1084V13.8711C73.1201 13.8711 73.0381 13.9502 73.0381 14.1084C70.4717 14.1084 69.1885 13.3877 69.1885 11.9463C69.4287 11.3018 69.6689 10.9795 69.9092 10.9795C71.5146 11.1436 72.7188 11.2256 73.5215 11.2256V10.9795C73.5215 9.69629 73.041 9.05469 72.0801 9.05469C69.9941 9.05469 68.9512 6.73145 68.9512 2.08496C69.0039 1.55176 69.4053 1.15039 70.1553 0.880859ZM71.1133 15.5498H75.9297C78.1738 15.7725 79.2959 16.6543 79.2959 18.1953V20.3662C79.2959 22.4463 78.5723 23.4863 77.125 23.4863L76.4043 22.5283V21.8076C76.4043 21.6201 76.5654 20.7383 76.8877 19.1621V18.4414H75.4463C75.2881 18.4414 75.209 18.3594 75.209 18.1953C75.0449 18.1953 74.9629 18.2773 74.9629 18.4414C71.916 18.4414 70.3926 17.9609 70.3926 17V16.5166C70.6328 15.8721 70.873 15.5498 71.1133 15.5498ZM89.3369 1.85645C90.1396 1.95605 90.541 2.43652 90.541 3.29785L90.2949 4.98535C93.8223 6.93652 95.5859 8.1377 95.5859 8.58887V9.07227C95.4277 9.55273 94.9473 9.79297 94.1445 9.79297C93.6055 9.79297 92.082 8.99023 89.5742 7.38477C89.5742 9.30664 89.0146 10.2676 87.8955 10.2676H87.1748C86.8525 10.2676 86.6914 10.1094 86.6914 9.79297C86.6914 8.50391 87.251 6.09863 88.3701 2.57715C88.2119 2.57715 88.1328 2.49805 88.1328 2.33984C88.4141 2.33984 88.8154 2.17871 89.3369 1.85645ZM92.2197 11.4717H92.9404C93.2979 11.4717 93.6201 12.2744 93.9072 13.8799H93.6611C93.6611 16.124 94.0625 17.2461 94.8652 17.2461C95.498 17.4043 96.0576 17.4834 96.5439 17.4834C96.626 17.4834 96.9482 17.4043 97.5107 17.2461C98.4717 17.4453 98.9521 18.166 98.9521 19.4082C98.4248 19.7246 97.9443 19.8828 97.5107 19.8828H93.4238C93.2598 19.8828 93.1777 19.8037 93.1777 19.6455L92.7031 19.8828H88.3701C87.5439 19.8828 87.0635 19.6426 86.9287 19.1621V18.2041C86.9287 17.9521 87.251 17.6328 87.8955 17.2461H91.7363C91.5781 16.3672 91.499 14.6035 91.499 11.9551L92.2197 11.4717ZM102.558 1.61914C103.519 1.71875 103.999 1.95898 103.999 2.33984V2.82324C103.519 4.24707 103.278 5.04688 103.278 5.22266C105.522 7.5957 106.645 9.11914 106.645 9.79297C106.322 10.5898 105.842 10.9883 105.203 10.9883C104.934 10.9883 103.891 9.86914 102.074 7.63086C101.564 9.55273 101.084 10.5137 100.633 10.5137H99.4287L99.1914 9.30957C100.691 4.18262 101.813 1.61914 102.558 1.61914ZM114.335 2.57715C114.862 2.57715 115.182 3.62012 115.293 5.70605V10.2676C115.293 11.3926 114.812 11.9551 113.852 11.9551C113.213 11.7969 112.894 11.3164 112.894 10.5137V8.10547C112.894 7.78906 112.732 7.63086 112.41 7.63086H111.936C110.928 7.63086 109.724 7.70996 108.323 7.86816C107.046 7.7627 106.407 7.60156 106.407 7.38477L105.924 6.66406C105.924 5.76758 106.325 5.20801 107.128 4.98535C108.405 5.09082 109.044 5.24902 109.044 5.45996L109.527 5.22266H112.41L112.894 5.45996C112.894 3.53809 113.295 2.57715 114.098 2.57715H114.335ZM106.161 13.3965H111.689C112.814 13.3965 113.377 14.5186 113.377 16.7627V17.9668C113.377 19.0039 111.534 19.6426 107.849 19.8828C107.849 20.1348 108.168 20.457 108.807 20.8496H112.894C113.216 20.8965 113.377 21.0576 113.377 21.333C113.377 22.7744 112.173 23.4951 109.765 23.4951C106.882 23.4951 105.44 22.1328 105.44 19.4082C106.085 17.9668 107.526 17.2461 109.765 17.2461C110.567 17.2461 110.969 17.085 110.969 16.7627V16.2793C110.969 15.957 110.808 15.7959 110.485 15.7959H110.248C109.322 15.7959 108.042 15.8779 106.407 16.042C105.675 15.7314 105.273 15.4092 105.203 15.0752V14.3545C105.203 14.1084 105.522 13.7891 106.161 13.3965Z" fill="#222222"/>
</svg>
