<svg width="89" height="25" viewBox="0 0 89 25" fill="none" xmlns="http://www.w3.org/2000/svg">
<path d="M1.24805 0.880859C5.25586 1.39648 7.25977 1.71582 7.25977 1.83887L7.74316 1.60156H9.66797C11.9121 2.02344 13.0342 3.86621 13.0342 7.12988C12.7236 7.8623 12.4043 8.26367 12.0762 8.33398H11.5928C11.0127 8.33398 10.5322 6.89258 10.1514 4.00977C9.8291 4.00977 9.66797 3.92773 9.66797 3.76367L9.18457 4.00977H8.94727C8.7832 4.00977 8.70117 3.92773 8.70117 3.76367C7.74023 3.97461 7.25977 4.21484 7.25977 4.48438V7.37598C7.25977 8.33691 6.7793 8.81738 5.81836 8.81738C5.17969 8.2373 4.86035 7.5957 4.86035 6.89258V3.76367C1.97168 3.44727 0.527344 3.04883 0.527344 2.56836V1.11816C0.697266 1.11816 0.9375 1.03906 1.24805 0.880859ZM2.45215 9.78418C3.2959 9.94238 3.77637 10.0215 3.89355 10.0215C8.82129 9.86328 12.1904 9.78418 14.001 9.78418L14.7217 10.7422V11.4629C14.7217 11.6914 14.4814 11.9316 14.001 12.1836H9.43066V12.9043L9.66797 14.5918H11.1094C12.3926 14.5918 13.0342 15.3125 13.0342 16.7539V18.1953C13.0342 20.123 10.9512 21.0869 6.78516 21.0869V21.5615C8.60742 21.8838 9.8877 22.0449 10.626 22.0449H12.0762C12.3047 22.0449 12.5449 22.2852 12.7969 22.7656V23.0117C12.2988 23.9727 11.335 24.4531 9.90527 24.4531C7.11035 24.4531 5.18555 23.249 4.13086 20.8408C4.53516 19.5576 5.33789 18.916 6.53906 18.916C9.18164 18.7578 10.626 18.2773 10.8721 17.4746V16.7539C7.24512 16.918 4.99805 17 4.13086 17L3.41016 16.0332L3.65625 14.8291H6.30176L7.50586 14.5918L7.25977 14.1084V12.4297H5.09766C2.85352 12.4297 1.73145 11.8672 1.73145 10.7422L2.45215 9.78418ZM18.5645 0.177734H19.0479C21.1279 1.60156 22.168 2.88477 22.168 4.02734C22.168 5.04102 21.5264 6.00195 20.2432 6.91016L20.4893 8.58887V9.30957H21.4473C22.4082 9.30957 22.8887 9.79004 22.8887 10.751C22.6484 11.3955 22.4082 11.7178 22.168 11.7178H16.8857C16.5811 11.7178 15.9395 11.4775 14.9609 10.9971V9.79297C14.9609 9.66406 15.2012 9.42383 15.6816 9.07227L16.8857 9.30957H18.0811V7.14746C16.001 6.9248 14.9609 6.04297 14.9609 4.50195V3.30664C14.9609 1.2207 16.1621 0.177734 18.5645 0.177734ZM26.9756 1.38184H27.4502C28.4111 1.38184 28.8916 1.8623 28.8916 2.82324V5.94336C29.2139 5.94336 29.375 6.02539 29.375 6.18945L29.8584 5.94336H31.5371C31.7656 5.94336 32.0059 6.18359 32.2578 6.66406V6.91016C32.2578 7.87109 31.5371 8.35156 30.0957 8.35156C29.293 8.35156 28.8916 8.5127 28.8916 8.83496V11.9551C28.8916 12.2773 28.7334 12.4385 28.417 12.4385H27.2129C26.9844 12.4385 26.7441 12.1982 26.4922 11.7178V8.10547C26.4922 7.94727 26.5713 7.86816 26.7295 7.86816L26.4922 7.38477V6.91016C26.4922 6.74609 26.5713 6.66406 26.7295 6.66406L26.4922 6.18945V3.54395C26.4922 3.14551 26.6533 2.4248 26.9756 1.38184ZM17.3604 2.58594V4.26465C17.3604 4.62793 17.7617 4.86816 18.5645 4.98535C19.2969 4.6748 19.6982 4.35547 19.7686 4.02734C19.3936 3.06641 19.0713 2.58594 18.8018 2.58594H17.3604ZM23.126 13.6338C26.1729 13.6338 27.6963 14.9961 27.6963 17.7207C27.6963 19.6719 26.6533 20.9521 24.5674 21.5615H22.4053C20.6475 20.583 19.7686 19.3818 19.7686 17.958C19.7686 15.4268 20.8877 13.9854 23.126 13.6338ZM22.168 17.7207C22.168 18.5586 22.7275 19.0391 23.8467 19.1621C24.5029 18.8398 24.9834 18.6787 25.2881 18.6787V16.042C24.6494 16.042 24.3301 15.96 24.3301 15.7959L23.8467 16.042C23.6885 16.042 23.6094 15.96 23.6094 15.7959C22.8945 15.7959 22.4141 16.4375 22.168 17.7207ZM37.0498 2.10254C37.6943 2.77051 38.0166 3.57031 38.0166 4.50195V5.46875L37.7705 5.94336C39.5342 7.63672 40.416 8.67969 40.416 9.07227H40.1787L40.416 9.55566C40.416 9.78418 40.1758 10.0244 39.6953 10.2764C39.3379 10.2764 38.6172 9.79297 37.5332 8.82617H37.2959L36.8125 10.2764H36.3291L35.1338 10.0303V9.79297C35.1338 9.59375 35.374 7.99121 35.8545 4.98535V4.50195L32.9717 4.74805L32.4883 4.02734V3.54395C32.8105 2.90527 33.0508 2.58594 33.209 2.58594C33.9297 2.58594 35.21 2.4248 37.0498 2.10254ZM47.8604 3.06055H48.8271C49.3545 3.06055 49.6738 4.18262 49.7852 6.42676L52.668 6.18945H52.9141V6.91016L52.668 7.38477H53.1514C53.1514 7.70703 52.9111 7.86816 52.4307 7.86816L52.668 8.35156H50.2686V8.58887C50.2686 8.93457 50.3477 9.81641 50.5059 11.2344C50.3477 11.873 49.9463 12.1924 49.3018 12.1924C48.5049 12.1924 47.9453 9.38867 47.623 3.78125C47.7812 3.4707 47.8604 3.23047 47.8604 3.06055ZM42.8154 3.78125C43.46 4.39648 43.8613 5.43945 44.0195 6.91016C45.4609 7.66016 46.1816 8.54199 46.1816 9.55566C45.8594 9.55566 45.6982 9.71387 45.6982 10.0303H44.7402C43.9316 9.3916 43.4512 9.07227 43.2988 9.07227L42.3408 10.751H41.374C41.0576 10.751 40.8994 10.5928 40.8994 10.2764V9.55566L41.8574 5.94336H41.6201C41.2158 5.94336 40.4951 6.10449 39.458 6.42676C38.8135 6.18652 38.4912 5.94629 38.4912 5.70605V5.46875C38.4912 4.50781 39.2119 4.02734 40.6533 4.02734C41.251 3.86328 41.9717 3.78125 42.8154 3.78125ZM44.5029 13.6338H45.4609C47.8633 13.6338 49.0645 15.0752 49.0645 17.958C49.0645 19.3643 48.0244 20.2461 45.9443 20.6035C45.8037 20.6035 45.1621 20.3633 44.0195 19.8828V20.1201C43.0527 20.1201 42.332 18.7607 41.8574 16.042C42.4902 14.4365 43.3721 13.6338 44.5029 13.6338ZM44.2568 15.3213L44.0195 16.5166C44.0195 17.6885 44.9014 18.3301 46.665 18.4414L47.1396 17.7207V16.7627C46.583 15.8018 45.8623 15.3213 44.9775 15.3213H44.2568ZM62.2432 1.85645C63.0459 1.95605 63.4473 2.43652 63.4473 3.29785L63.2012 4.98535C66.7285 6.93652 68.4922 8.1377 68.4922 8.58887V9.07227C68.334 9.55273 67.8535 9.79297 67.0508 9.79297C66.5117 9.79297 64.9883 8.99023 62.4805 7.38477C62.4805 9.30664 61.9209 10.2676 60.8018 10.2676H60.0811C59.7588 10.2676 59.5977 10.1094 59.5977 9.79297C59.5977 8.50391 60.1572 6.09863 61.2764 2.57715C61.1182 2.57715 61.0391 2.49805 61.0391 2.33984C61.3203 2.33984 61.7217 2.17871 62.2432 1.85645ZM65.126 11.4717H65.8467C66.2041 11.4717 66.5264 12.2744 66.8135 13.8799H66.5674C66.5674 16.124 66.9688 17.2461 67.7715 17.2461C68.4043 17.4043 68.9639 17.4834 69.4502 17.4834C69.5322 17.4834 69.8545 17.4043 70.417 17.2461C71.3779 17.4453 71.8584 18.166 71.8584 19.4082C71.3311 19.7246 70.8506 19.8828 70.417 19.8828H66.3301C66.166 19.8828 66.084 19.8037 66.084 19.6455L65.6094 19.8828H61.2764C60.4502 19.8828 59.9697 19.6426 59.835 19.1621V18.2041C59.835 17.9521 60.1572 17.6328 60.8018 17.2461H64.6426C64.4844 16.3672 64.4053 14.6035 64.4053 11.9551L65.126 11.4717ZM75.4639 1.61914C76.4248 1.71875 76.9053 1.95898 76.9053 2.33984V2.82324C76.4248 4.24707 76.1846 5.04688 76.1846 5.22266C78.4287 7.5957 79.5508 9.11914 79.5508 9.79297C79.2285 10.5898 78.748 10.9883 78.1094 10.9883C77.8398 10.9883 76.7969 9.86914 74.9805 7.63086C74.4707 9.55273 73.9902 10.5137 73.5391 10.5137H72.335L72.0977 9.30957C73.5977 4.18262 74.7197 1.61914 75.4639 1.61914ZM87.2412 2.57715C87.7686 2.57715 88.0879 3.62012 88.1992 5.70605V10.2676C88.1992 11.3926 87.7188 11.9551 86.7578 11.9551C86.1191 11.7969 85.7998 11.3164 85.7998 10.5137V8.10547C85.7998 7.78906 85.6387 7.63086 85.3164 7.63086H84.8418C83.834 7.63086 82.6299 7.70996 81.2295 7.86816C79.9521 7.7627 79.3135 7.60156 79.3135 7.38477L78.8301 6.66406C78.8301 5.76758 79.2314 5.20801 80.0342 4.98535C81.3115 5.09082 81.9502 5.24902 81.9502 5.45996L82.4336 5.22266H85.3164L85.7998 5.45996C85.7998 3.53809 86.2012 2.57715 87.0039 2.57715H87.2412ZM79.0674 13.3965H84.5957C85.7207 13.3965 86.2832 14.5186 86.2832 16.7627V17.9668C86.2832 19.0039 84.4404 19.6426 80.7549 19.8828C80.7549 20.1348 81.0742 20.457 81.7129 20.8496H85.7998C86.1221 20.8965 86.2832 21.0576 86.2832 21.333C86.2832 22.7744 85.0791 23.4951 82.6709 23.4951C79.7881 23.4951 78.3467 22.1328 78.3467 19.4082C78.9912 17.9668 80.4326 17.2461 82.6709 17.2461C83.4736 17.2461 83.875 17.085 83.875 16.7627V16.2793C83.875 15.957 83.7139 15.7959 83.3916 15.7959H83.1543C82.2285 15.7959 80.9482 15.8779 79.3135 16.042C78.5811 15.7314 78.1797 15.4092 78.1094 15.0752V14.3545C78.1094 14.1084 78.4287 13.7891 79.0674 13.3965Z" fill="#222222"/>
</svg>
