<svg width="168" height="26" viewBox="0 0 168 26" fill="none" xmlns="http://www.w3.org/2000/svg">
<path d="M6.47461 4.40527C7.08333 4.40527 7.3877 4.76221 7.3877 5.47607C7.3877 6.09033 6.00977 6.39746 3.25391 6.39746H3.10449C2.83333 6.39746 2.57601 6.1429 2.33252 5.63379C2.33252 4.93652 3.71322 4.52702 6.47461 4.40527ZM11.6792 5.16895C13.7212 5.53418 14.7422 6.04606 14.7422 6.70459C14.6426 7.75049 14.5928 8.56673 14.5928 9.15332L15.0493 9.46045H16.4272C16.9364 9.46045 17.3957 9.71501 17.8052 10.2241V10.8384C17.8052 10.9491 17.5506 11.1538 17.0415 11.4526L15.9707 11.3032H14.8916C14.5872 11.4028 14.4351 11.7072 14.4351 12.2163V15.2793C14.4351 16.0208 14.1279 16.4303 13.5137 16.5078C12.9049 16.3307 12.6006 15.8714 12.6006 15.1299C12.6006 13.7188 12.6504 11.0625 12.75 7.16113C11.859 7.16113 11.195 6.70182 10.7578 5.7832C10.863 5.3737 11.1701 5.16895 11.6792 5.16895ZM7.85254 8.23193C8.77116 8.38688 9.23047 8.74658 9.23047 9.31104C9.02572 9.91976 8.46403 10.2241 7.54541 10.2241H6.62402C5.28483 10.2241 3.54997 10.3265 1.41943 10.5312C0.998861 10.3929 0.691732 10.1383 0.498047 9.76758V9.15332C0.498047 8.73828 2.94954 8.43115 7.85254 8.23193ZM5.24609 11.3032H5.70264C6.76514 11.3032 7.48177 12.0669 7.85254 13.5942V14.2085C7.37109 15.9461 6.45247 16.8149 5.09668 16.8149C3.59147 16.8149 2.57048 15.9987 2.03369 14.3662V13.4448C2.03369 12.0171 3.10449 11.3032 5.24609 11.3032ZM3.56104 14.0591V14.2085C3.82113 14.7176 4.23063 14.9722 4.78955 14.9722C5.56429 14.9722 6.0236 14.4631 6.16748 13.4448C6.16748 12.9357 5.91016 12.6812 5.39551 12.6812C4.17253 12.6812 3.56104 13.1405 3.56104 14.0591ZM6.93115 17.8857H7.69482C8.08219 17.8857 8.43913 19.0589 8.76562 21.4053L14.1279 21.0981C14.7422 21.3638 15.0493 21.7235 15.0493 22.1772C15.0493 22.8302 12.8524 23.237 8.4585 23.3975C8.4585 23.5026 8.15413 23.5552 7.54541 23.5552C6.83154 23.2508 6.47461 21.4634 6.47461 18.1929L6.93115 17.8857ZM25.4424 4.27246H26.0566C26.5381 4.27246 26.895 5.44564 27.1274 7.79199C28.8042 7.58724 30.1296 7.48486 31.1035 7.48486H31.2529C31.4854 7.48486 31.6901 7.43506 31.8672 7.33545C33.6989 7.33545 34.6147 7.79199 34.6147 8.70508C34.6147 8.9375 34.3104 9.19206 33.7017 9.46875L32.938 9.31934C31.1893 9.31934 28.9951 9.52409 26.3555 9.93359C25.4424 9.93359 24.9858 8.45329 24.9858 5.49268C24.8807 5.49268 24.8281 5.34049 24.8281 5.03613C25.0273 4.57129 25.2321 4.31673 25.4424 4.27246ZM34.9219 11.3115C35.6357 11.5107 35.9927 11.9175 35.9927 12.5317V12.6812C35.9927 12.8306 35.7381 13.0353 35.229 13.2954L34.1582 13.146H32.7803C32.1715 13.2069 31.8672 13.359 31.8672 13.6025V16.8149C31.8672 16.9754 31.6624 17.1802 31.2529 17.4292C30.3343 17.241 29.875 16.8315 29.875 16.2007C29.9801 15.1603 30.0327 14.3441 30.0327 13.752L29.7256 13.6025L25.1353 14.0591C24.2277 14.0591 23.6162 13.7547 23.3008 13.146V12.8389C23.3008 12.3298 24.6261 12.0752 27.2769 12.0752C29.8667 11.5661 32.415 11.3115 34.9219 11.3115ZM25.5918 15.437C26.4329 15.437 27.0444 16.8149 27.4263 19.5708H27.584L35.8433 18.7988C36.3524 18.9427 36.6069 19.2996 36.6069 19.8696V20.0273C36.6069 20.6139 33.8538 21.0732 28.3477 21.4053C28.3477 21.527 27.786 21.6792 26.6626 21.8618C25.8491 21.8618 25.4424 21.0456 25.4424 19.4131C25.0329 17.7197 24.8281 16.5991 24.8281 16.0513C24.8281 15.9019 25.0827 15.6971 25.5918 15.437ZM51.478 3.02734C53.6252 3.6416 54.6987 4.35547 54.6987 5.16895C54.5272 5.16895 54.375 9.10075 54.2422 16.9644C53.9821 18.0877 53.7248 18.6494 53.4702 18.6494H53.1631C52.6152 18.6494 52.2583 18.4447 52.0923 18.0352C52.297 17.266 52.452 13.0298 52.5571 5.32666C51.229 4.79541 50.5649 4.23372 50.5649 3.6416C50.6646 3.2321 50.9689 3.02734 51.478 3.02734ZM47.0371 4.7124H47.1948C49.0321 4.98356 49.9507 5.44287 49.9507 6.09033C50.0503 6.09033 50.1001 6.29508 50.1001 6.70459V9.00391C50.1001 9.10352 50.0503 9.15332 49.9507 9.15332C49.9507 9.25846 50.0005 9.31104 50.1001 9.31104C50.0005 10.5063 49.9507 11.3724 49.9507 11.9092V14.5156C49.9507 16.3529 49.7459 17.2715 49.3364 17.2715H49.0293C48.2878 17.2715 47.881 16.8122 47.8091 15.8936C47.9087 14.8477 47.9585 14.0314 47.9585 13.4448V12.0669C47.9585 11.9175 47.8063 11.7625 47.502 11.6021C46.5833 11.6021 46.124 12.0116 46.124 12.8306C45.0505 14.0591 43.263 14.9279 40.7617 15.437H40.1475C38.0003 14.7342 36.9268 13.6108 36.9268 12.0669L36.7773 10.689C36.7773 8.75765 37.9007 7.07259 40.1475 5.63379C40.557 5.63379 40.7617 5.58122 40.7617 5.47607C43.2409 5.47607 44.9757 6.70182 45.9663 9.15332C46.1655 9.61816 46.3703 9.87272 46.5806 9.91699H47.1948C47.9087 9.91699 48.2656 9.3055 48.2656 8.08252V7.31885C48.2656 6.97021 47.7537 6.56071 46.73 6.09033L46.4312 5.47607C46.6248 5.01123 46.8268 4.75667 47.0371 4.7124ZM38.6118 11.1455V11.4526C38.6118 12.4653 39.0213 13.1792 39.8403 13.5942H40.4546C43.2104 12.9246 44.5884 12.0586 44.5884 10.9961V10.5312C44.2563 8.28451 43.1855 7.16113 41.376 7.16113C40.5846 7.16113 39.7158 8.02995 38.7695 9.76758C38.6644 10.321 38.6118 10.7803 38.6118 11.1455ZM70.5952 0.75293H72.2803C72.4408 0.75293 72.6455 0.957682 72.8945 1.36719V1.82373C72.8945 2.57633 72.842 3.13802 72.7368 3.50879C72.842 4.17839 72.8945 4.83968 72.8945 5.49268V7.17773C72.7285 7.58724 72.3716 7.79199 71.8237 7.79199C71.2095 7.79199 70.9023 6.56624 70.9023 4.11475V3.35107L71.0601 2.5874L70.7529 2.43799H70.4458C70.3296 2.43799 69.7679 2.54036 68.7607 2.74512H68.3042C67.4852 2.66764 67.0757 2.31071 67.0757 1.67432C67.0757 1.29248 68.2489 0.985352 70.5952 0.75293ZM65.0918 1.36719C65.7005 1.52767 66.0049 1.83203 66.0049 2.28027C66.5195 5.58952 66.7769 7.52913 66.7769 8.09912C66.4006 8.40348 66.0436 8.55566 65.7061 8.55566C65.0033 8.55566 64.5938 7.12793 64.4775 4.27246L64.021 3.20166L61.1157 3.50879C60.6951 3.36491 60.388 3.11035 60.1943 2.74512V2.28027C60.1943 1.8763 61.8268 1.57194 65.0918 1.36719ZM72.7368 8.86279C74.3693 9.03988 75.1855 9.39681 75.1855 9.93359C75.1523 10.1715 74.848 10.5285 74.2725 11.0044C73.708 10.8993 73.2985 10.8467 73.0439 10.8467C72.3688 10.8467 71.298 11.0016 69.8315 11.3115V11.9175C69.8315 12.3657 69.9339 12.7752 70.1387 13.146C70.1387 13.2843 69.9339 13.6413 69.5244 14.2168V14.3662H69.9893C70.4707 14.3662 70.9798 14.3164 71.5166 14.2168C72.5348 14.3496 73.0439 14.8089 73.0439 15.5947L72.8945 16.3584L73.0439 16.9727C73.0439 17.9909 72.0755 18.5 70.1387 18.5C67.6927 18.7048 66.4697 18.9593 66.4697 19.2637C66.4697 19.8779 66.6717 20.1851 67.0757 20.1851C70.0806 19.8807 71.7131 19.7285 71.9731 19.7285C72.6095 19.9333 72.9665 20.1878 73.0439 20.4922V20.9487C73.0439 21.3029 72.485 21.5575 71.3672 21.7124C71.262 21.7124 71.2095 21.6626 71.2095 21.563C68.7303 21.8674 66.8958 22.0195 65.7061 22.0195C65.1914 21.6488 64.7321 20.4258 64.3281 18.3506C64.3281 17.7363 65.042 17.4292 66.4697 17.4292C67.2832 17.2244 68.8133 16.9699 71.0601 16.6655V16.209C70.9494 16.209 70.7944 16.1564 70.5952 16.0513C68.5588 16.256 66.6219 16.3584 64.7847 16.3584C64.3752 15.9489 64.1704 15.6418 64.1704 15.437C64.1704 14.8283 65.5483 14.5239 68.3042 14.5239C68.4813 14.4188 68.686 14.3662 68.9185 14.3662C68.4204 13.9014 68.0635 12.9329 67.8477 11.4609H65.0918C64.4997 11.4609 63.6834 11.5135 62.6431 11.6187C62.4051 11.5799 62.0482 11.2728 61.5723 10.6973C61.5723 9.9834 63.1522 9.62646 66.312 9.62646C68.1382 9.62646 70.2798 9.37191 72.7368 8.86279ZM89.7412 4.41357C90.7594 4.41357 91.5757 4.82308 92.1899 5.64209C92.1346 11.3586 91.9299 14.2168 91.5757 14.2168C91.3986 14.3164 91.1938 14.3662 90.9614 14.3662C90.6349 14.3662 90.278 14.0093 89.8906 13.2954C89.9958 12.4266 90.0483 11.7127 90.0483 11.1538V10.2324C90.0483 10.0277 89.946 9.92529 89.7412 9.92529H88.2056C87.6466 9.92529 87.1873 9.61816 86.8276 9.00391V8.70508C86.8608 8.50033 86.9632 8.39795 87.1348 8.39795H89.2847C89.9985 8.39795 90.3555 7.78369 90.3555 6.55518C90.3555 6.4445 89.8962 5.93538 88.9775 5.02783V4.57129L89.7412 4.41357ZM86.3711 5.64209C86.7806 5.64209 87.0877 5.84408 87.2925 6.24805V6.71289C87.2925 6.91764 87.1901 7.02002 86.9854 7.02002H86.2217C85.1979 7.02002 84.5339 7.22201 84.2295 7.62598L84.3789 8.39795V9.16162C84.3789 10.285 84.4813 11.2534 84.686 12.0669H84.9932C85.3363 12.0669 85.5908 12.1195 85.7568 12.2246L86.6782 12.0669C87.4972 12.0669 87.9067 12.4266 87.9067 13.146C87.7684 13.55 87.3091 13.752 86.5288 13.752H83.6152C82.8018 13.752 82.395 11.71 82.395 7.62598V6.40576C83.7951 5.89665 85.1204 5.64209 86.3711 5.64209ZM79.1743 5.94922C79.7886 6.15397 80.0957 6.35596 80.0957 6.55518V7.02002C80.0957 7.24691 79.1771 7.50146 77.3398 7.78369V8.39795C77.943 11.3586 78.4023 12.8389 78.7178 12.8389H79.332C79.7526 12.8389 80.3143 12.7863 81.0171 12.6812C81.4377 12.825 81.742 13.0796 81.9302 13.4448V13.9097C81.9302 14.214 81.7254 14.3662 81.3159 14.3662C80.6408 14.3662 79.5202 14.4686 77.9541 14.6733C76.8307 14.6733 76.269 13.6523 76.269 11.6104C75.6548 9.72331 75.3477 8.14062 75.3477 6.8623C76.0394 6.50814 77.3149 6.20378 79.1743 5.94922ZM87.2925 16.5078C87.8016 17.0501 88.0562 17.4596 88.0562 17.7363C88.0562 20.4922 87.8016 21.8701 87.2925 21.8701H86.6782C86.2355 21.6156 85.9284 21.2586 85.7568 20.7993C85.862 20.1021 85.9146 19.5404 85.9146 19.1143V18.5C85.9146 18.2952 85.8122 18.1929 85.6074 18.1929C84.4066 18.298 83.5378 18.3506 83.001 18.3506C82.3369 18.3506 81.8278 18.0435 81.4736 17.4292V17.1221C81.4736 16.7126 83.4132 16.5078 87.2925 16.5078ZM92.9746 6.24805H93.2817C93.8905 6.24805 94.1948 6.55518 94.1948 7.16943V8.70508C94.1948 10.6973 94.2972 12.8887 94.502 15.2793C94.0924 15.6888 93.7881 15.8936 93.5889 15.8936C92.8695 15.8936 92.5098 14.3136 92.5098 11.1538L92.3604 10.0747H92.5098L92.3604 9.77588V9.16162C92.3604 7.21924 92.5651 6.24805 92.9746 6.24805ZM93.7383 18.6494H94.3525C94.8617 18.9095 95.1162 19.319 95.1162 19.8779C95.1162 20.4922 94.7593 20.9487 94.0454 21.2476C93.0216 20.9653 92.5098 20.661 92.5098 20.3345V20.0273C92.5098 19.1087 92.9193 18.6494 93.7383 18.6494ZM111.179 2.71191H111.644C114.195 3.38151 115.47 3.993 115.47 4.54639V5.31836C115.47 7.1722 115.42 9.77588 115.321 13.1294C115.321 13.2954 115.066 13.5527 114.557 13.9014C113.738 13.752 113.329 13.3424 113.329 12.6729V12.5151C113.533 8.45882 113.636 6.26188 113.636 5.92432C113.636 5.16618 112.817 4.60449 111.179 4.23926L110.722 3.625V3.16846C110.722 3.01904 110.874 2.86686 111.179 2.71191ZM105.966 3.93213C108.622 4.3693 109.95 5.49544 109.95 7.31055C109.95 9.52409 109.236 11.057 107.809 11.9092C106.973 12.5788 106.104 12.9357 105.202 12.98C102.136 12.7199 100.604 11.6463 100.604 9.75928V8.22363C100.604 7.17773 101.268 6.10693 102.596 5.01123C103.575 4.29183 104.699 3.93213 105.966 3.93213ZM102.289 9.30273C102.289 10.5257 102.953 11.1372 104.281 11.1372H104.746C106.528 11.1372 107.651 9.96403 108.116 7.61768V7.15283C107.977 6.12907 107.465 5.61719 106.58 5.61719H105.659C103.921 5.61719 102.798 6.8457 102.289 9.30273ZM104.746 14.665H105.352C105.866 14.8698 106.124 15.2267 106.124 15.7358V16.5078C106.124 18.6494 106.378 19.7202 106.887 19.7202C107.59 19.7202 109.889 19.5182 113.785 19.1143C114.704 19.2305 115.163 19.6372 115.163 20.3345V20.4922C114.931 21.1064 113.093 21.4136 109.651 21.4136C109.651 21.4634 108.32 21.6156 105.659 21.8701C104.74 21.8701 104.281 20.4396 104.281 17.5786V15.1216C104.281 14.9777 104.436 14.8255 104.746 14.665ZM125.145 4.39697C127.602 4.97803 128.831 5.48714 128.831 5.92432C129.135 9.18929 129.287 10.9297 129.287 11.1455C129.082 13.7077 128.98 15.2406 128.98 15.7441C129.085 16.862 129.138 17.8332 129.138 18.6577C129.138 19.189 128.88 19.5985 128.366 19.8862H128.216C127.657 19.8862 127.248 19.5791 126.988 18.9648C126.988 18.4336 126.938 17.4098 126.838 15.8936C126.938 14.3607 127.04 13.5444 127.146 13.4448L126.988 13.1377C127.093 11.8483 127.146 11.0819 127.146 10.8384C127.146 7.97184 126.888 6.53857 126.374 6.53857C125.045 6.14567 124.381 5.63656 124.381 5.01123C124.426 4.79541 124.68 4.59066 125.145 4.39697ZM121.924 7.76709C122.566 7.76709 122.926 8.27897 123.003 9.30273C123.003 13.6136 121.775 16.4248 119.318 17.7363C118.936 17.6146 118.579 17.36 118.247 16.9727C118.374 16.3695 118.834 15.6528 119.625 14.8228C120.444 13.7824 120.854 12.1471 120.854 9.91699H120.704C120.599 9.91699 120.546 9.86442 120.546 9.75928C119.932 9.96403 118.604 10.0664 116.562 10.0664C116.153 10.0664 115.845 9.86165 115.641 9.45215V8.83789C115.641 8.44499 117.226 8.19043 120.397 8.07422C120.397 7.95247 120.906 7.8501 121.924 7.76709ZM140.137 3.78271C142.334 3.78271 143.764 4.75391 144.428 6.69629V7.45996C143.748 9.50195 142.624 10.5229 141.058 10.5229H140.909C138.352 10.5229 137.074 9.75651 137.074 8.22363C136.974 8.22363 136.924 7.91927 136.924 7.31055C136.924 5.87728 137.281 5.16064 137.995 5.16064C138.698 4.24202 139.412 3.78271 140.137 3.78271ZM151.027 3.78271H151.326C153.374 4.24202 154.397 4.75391 154.397 5.31836C154.193 6.80143 154.09 8.5363 154.09 10.5229V10.8301C154.09 10.9352 154.14 10.9878 154.24 10.9878C154.24 11.0874 154.19 11.1372 154.09 11.1372L154.24 12.2163V14.8145C154.24 15.4232 153.935 15.8327 153.327 16.043C152.607 15.8659 152.248 15.4066 152.248 14.665C152.248 14.3607 152.3 14.2085 152.405 14.2085C152.3 13.1847 152.248 12.4183 152.248 11.9092V5.92432C151.124 5.61995 150.562 5.26302 150.562 4.85352V4.23926C150.562 4.09538 150.717 3.9432 151.027 3.78271ZM147.807 5.31836H147.956C149.694 5.79427 150.562 6.40576 150.562 7.15283V8.99561C150.562 9.09521 150.615 9.14502 150.72 9.14502C150.41 9.88656 150.255 10.9103 150.255 12.2163C150.255 12.4432 150.308 12.6452 150.413 12.8223C150.413 12.9274 150.361 12.98 150.255 12.98L150.413 13.7437C150.413 14.6789 150.208 15.3429 149.799 15.7358C150.264 15.9351 150.518 16.1398 150.562 16.3501V16.6572L150.106 18.5L150.413 23.0986C150.413 23.8125 149.34 24.1694 147.192 24.1694C145.886 24.3742 144.813 24.4766 143.972 24.4766C143.463 24.4766 143.208 22.5868 143.208 18.8071V16.5078C143.236 16.3031 143.338 16.2007 143.515 16.2007H144.121C144.614 16.2007 144.973 17.1193 145.2 18.9565H145.35C147.397 18.9565 148.421 18.702 148.421 18.1929C148.421 17.4901 148.675 16.6213 149.185 15.5864C148.675 15.5034 148.421 15.0939 148.421 14.3579V10.3735H147.342L146.429 10.5229C145.914 10.5229 145.505 10.2684 145.2 9.75928V8.99561C145.261 8.68571 145.671 8.53076 146.429 8.53076H147.342C147.447 8.53076 147.5 8.48096 147.5 8.38135L147.807 8.53076C148.255 8.43115 148.562 8.1766 148.728 7.76709C148.728 7.65088 148.368 7.29395 147.649 6.69629C147.444 6.36426 147.342 6.10693 147.342 5.92432C147.497 5.52035 147.652 5.31836 147.807 5.31836ZM138.609 7.15283V7.45996C138.609 8.27897 139.323 8.68848 140.751 8.68848C141.979 8.07975 142.594 7.41569 142.594 6.69629C142.062 5.97689 141.296 5.61719 140.294 5.61719C139.824 5.7832 139.262 6.29508 138.609 7.15283ZM144.279 10.9878C144.699 11.1261 145.007 11.3807 145.2 11.7515V11.9092C145.2 12.4404 144.943 12.7974 144.428 12.98C144.323 12.98 144.171 12.9274 143.972 12.8223C141.725 12.8223 140.602 13.0796 140.602 13.5942C140.602 15.6196 139.63 17.4596 137.688 19.1143H137.53C136.816 19.1143 136.459 18.6522 136.459 17.728C137.826 16.4995 138.593 15.1216 138.759 13.5942C138.659 13.5942 138.609 13.5417 138.609 13.4365C137.586 13.5417 136.819 13.5942 136.31 13.5942H135.538C135.029 13.3286 134.774 12.9191 134.774 12.3657V12.2163C134.774 11.9562 134.979 11.8013 135.389 11.7515C140.214 11.2424 143.178 10.9878 144.279 10.9878ZM145.2 20.9487V22.0195C145.233 22.2243 145.336 22.3267 145.507 22.3267C147.45 22.3267 148.421 22.1247 148.421 21.7207V20.6416H148.114C146.985 20.6416 146.014 20.744 145.2 20.9487ZM164.064 4.7041C164.529 4.90332 164.783 5.10807 164.828 5.31836V6.08203C164.728 6.38639 164.421 6.53857 163.906 6.53857H161.607C159.261 6.53857 158.087 6.7959 158.087 7.31055C158.121 8.12402 158.223 8.53076 158.395 8.53076C161.394 8.43115 163.132 8.38135 163.607 8.38135C164.011 8.83512 164.213 9.08968 164.213 9.14502V9.60986C164.213 9.75374 164.061 9.90592 163.757 10.0664H162.528C159.772 10.0664 158.395 10.2712 158.395 10.6807L158.702 11.9092C160.816 11.804 162.451 11.6491 163.607 11.4443C164.072 11.6436 164.327 11.8483 164.371 12.0586V12.8223C164.371 13.1322 162.736 13.3895 159.465 13.5942C159.465 13.716 158.953 13.8682 157.93 14.0508C157.216 14.0508 156.859 12.825 156.859 10.3735C156.715 10.3735 156.613 9.14779 156.552 6.69629C156.895 5.57292 157.611 5.01123 158.702 5.01123L164.064 4.7041ZM166.67 14.9722C166.809 14.9722 167.063 15.2267 167.434 15.7358V16.2007C167.434 16.505 167.229 16.6572 166.82 16.6572C165.414 16.6572 163.934 16.8122 162.379 17.1221C162.379 17.6589 162.481 18.7297 162.686 20.3345C162.476 20.9487 162.271 21.2559 162.072 21.2559H161.765C161.256 20.9958 161.001 20.5863 161.001 20.0273V18.5C161.001 17.7474 160.846 17.3379 160.536 17.2715H160.387C156.502 17.2715 154.56 16.9146 154.56 16.2007V15.8936C154.62 15.5837 154.977 15.4287 155.63 15.4287C156.798 15.4287 157.872 15.4813 158.851 15.5864L166.67 14.9722ZM157.623 18.9565H157.93C158.544 18.9565 158.851 20.4894 158.851 23.5552C159.056 23.5884 159.158 23.6908 159.158 23.8623L164.521 23.248H166.056C166.466 23.4141 166.67 23.771 166.67 24.3188C166.67 24.8556 163.962 25.2651 158.544 25.5474H158.395C157.576 25.5474 157.166 23.9647 157.166 20.7993V19.4214C157.166 19.272 157.318 19.117 157.623 18.9565Z" fill="#222222"/>
</svg>
