<svg width="128" height="23" viewBox="0 0 128 23" fill="none" xmlns="http://www.w3.org/2000/svg">
<path d="M10.8291 0.919922H11.4639C11.7432 0.96224 11.8828 1.10189 11.8828 1.33887L11.248 4.27148V6.37891C11.248 7.13216 10.9688 7.61882 10.4102 7.83887L9.15332 7.63574C6.21647 7.77116 4.74805 8.1224 4.74805 8.68945V9.1084C4.74805 10.5049 5.02734 11.2708 5.58594 11.4062L7.68066 11.2031H9.57227L10.626 10.9873L11.0449 11.6221C11.0449 11.8844 10.6937 12.3034 9.99121 12.8789L9.57227 12.6758H9.15332C7.44368 12.6758 5.83561 12.8154 4.3291 13.0947C3.62663 12.4938 3.27539 10.6742 3.27539 7.63574C3.27539 7.25488 5.44629 6.764 9.78809 6.16309C9.78809 4.62272 9.92773 3.29395 10.207 2.17676H9.36914C6.65234 2.17676 4.13444 2.38835 1.81543 2.81152C1.11296 2.63379 0.761719 2.4222 0.761719 2.17676V1.97363C0.761719 1.27116 4.11751 0.919922 10.8291 0.919922ZM17.7607 1.33887H18.1797L18.5986 1.55469C18.4632 3.00195 18.3955 3.83984 18.3955 4.06836C18.3955 4.56771 18.4632 5.19824 18.5986 5.95996C18.4632 7.02637 18.3955 8.21549 18.3955 9.52734V9.73047C18.3955 10.2383 18.4632 10.8688 18.5986 11.6221C18.3278 12.2568 18.0485 12.6081 17.7607 12.6758C17.6169 12.6758 17.3376 12.3965 16.9229 11.8379L17.126 10.7842V5.12207L16.9229 3.85254C17.0583 2.17676 17.3376 1.33887 17.7607 1.33887ZM15.4502 1.55469C15.4925 1.83398 15.6322 1.97363 15.8691 1.97363C15.5898 5.33366 15.4502 8.19857 15.4502 10.5684L15.666 12.041C15.209 12.3203 14.8577 12.46 14.6123 12.46L13.9775 11.6221V8.05469H13.5586C12.5853 8.09701 12.0986 8.23665 12.0986 8.47363C11.5316 8.26204 11.248 8.05046 11.248 7.83887V7.41992C11.248 6.95443 12.2298 6.60742 14.1934 6.37891V3.64941C14.1934 2.25293 14.6123 1.55469 15.4502 1.55469ZM26.1045 1.74512C28.7705 2.62533 30.1035 4.16569 30.1035 6.36621C29.6719 10.708 28.0596 12.8789 25.2666 12.8789C22.0674 12.8789 20.1081 11.2666 19.3887 8.04199V7.00098C19.3887 5.17285 20.6497 3.49284 23.1719 1.96094L26.1045 1.74512ZM32.1982 2.16406C32.4183 2.16406 32.6976 2.44336 33.0361 3.00195C32.8161 3.54362 32.6087 5.01628 32.4141 7.41992C32.7526 7.55534 33.4508 7.69499 34.5088 7.83887V8.67676C34.5088 8.87988 34.2972 9.08724 33.874 9.29883H33.6709L32.6172 9.0957L32.4141 9.51465V12.041C32.4141 12.7604 32.2025 13.1794 31.7793 13.2979H30.9414V12.8789C30.9414 5.73568 31.2884 2.16406 31.9824 2.16406H32.1982ZM20.8613 7.2041C21.1406 9.86165 22.2578 11.1904 24.2129 11.1904L25.0635 11.4062C26.9593 11.4062 28.0765 10.2171 28.415 7.83887C28.415 7.36491 28.487 7.01367 28.6309 6.78516C28.6309 4.83854 27.7887 3.71712 26.1045 3.4209H25.4824L25.0635 3.63672V3.4209C22.262 3.6748 20.8613 4.93587 20.8613 7.2041ZM32.1982 13.9199L32.4141 14.3389C32.4141 17.0049 31.7835 18.3379 30.5225 18.3379H26.9424C26.6631 18.3802 26.5234 18.5199 26.5234 18.7568V19.3789L27.5771 19.5947L31.9824 19.1758L32.1982 19.5947C32.1982 19.8656 32.0586 20.3564 31.7793 21.0674L30.7256 20.8516C28.1019 20.9954 26.4938 21.1351 25.9014 21.2705C25.1989 21.2705 24.8477 20.64 24.8477 19.3789V18.541C24.8477 17.5677 25.6898 17.0811 27.374 17.0811C29.6084 16.9795 30.7256 16.696 30.7256 16.2305V15.6084H29.0498C28.9059 15.6084 28.834 15.5365 28.834 15.3926L28.415 15.6084H25.9014C25.3428 15.6084 24.4329 15.748 23.1719 16.0273L22.9561 15.6084V14.9736C23.1846 14.415 23.6755 14.1357 24.4287 14.1357H27.9961C28.9102 14.1357 30.3109 14.0638 32.1982 13.9199ZM53.5449 3.4209L53.9639 4.05566C53.6846 4.55501 53.4053 5.46484 53.126 6.78516C53.2614 7.54688 53.3291 8.31706 53.3291 9.0957C54.3109 8.85026 54.8018 8.57096 54.8018 8.25781V6.36621C54.8018 4.82585 55.2926 4.05566 56.2744 4.05566C56.5537 4.05566 56.6934 4.26725 56.6934 4.69043C56.2702 6.41699 56.0586 9.56543 56.0586 14.1357H56.2744C56.0459 14.8298 55.627 15.1768 55.0176 15.1768C54.7383 14.6182 54.5267 14.3389 54.3828 14.3389L54.5986 13.2852V10.3525H54.3828C54.1458 10.3525 53.7269 10.4922 53.126 10.7715L53.3291 11.1904V13.9199C53.3291 14.123 53.1217 14.3346 52.707 14.5547H52.4912C52.2965 14.5547 52.0892 14.3431 51.8691 13.9199C51.7253 10.6784 51.6533 8.99837 51.6533 8.87988C51.6533 8.77832 51.7253 8.35938 51.8691 7.62305L51.6533 7.2041C51.8141 4.68197 52.4447 3.4209 53.5449 3.4209ZM50.1807 4.25879L50.3965 4.69043C49.694 8.21126 49.3428 10.5895 49.3428 11.8252H49.5586C49.3301 12.9424 49.0508 13.501 48.7207 13.501H48.5049C48.3018 13.501 48.0944 13.2894 47.8828 12.8662V11.8252C48.1621 9.27767 48.3018 7.31836 48.3018 5.94727C48.1579 5.94727 48.0859 5.87533 48.0859 5.73145C45.0898 5.90072 43.4098 6.1123 43.0459 6.36621C42.4873 6.36621 42.0684 6.01497 41.7891 5.3125C41.7891 4.75391 44.5863 4.40267 50.1807 4.25879ZM63.9834 1.54199L65.0244 2.16406C67.4619 1.88477 68.9346 1.74512 69.4424 1.74512L69.8613 2.37988C69.7174 3.81022 69.6455 4.92741 69.6455 5.73145C69.6455 6.15462 69.7174 6.36621 69.8613 6.36621L69.6455 7.41992V9.93359C69.6455 10.069 69.3662 10.3483 68.8076 10.7715L67.9697 10.3525L68.1729 8.87988V3.63672C68.1729 3.35742 68.0332 3.21777 67.7539 3.21777C65.6549 3.21777 64.6055 3.77637 64.6055 4.89355L64.4023 5.94727C64.5378 6.86979 64.6055 7.77962 64.6055 8.67676V9.51465C64.6055 10.2679 64.3262 10.7588 63.7676 10.9873C63.5645 10.9873 63.3529 10.7757 63.1328 10.3525V3.4209H62.9297C61.7448 3.4209 60.0648 3.63249 57.8896 4.05566L57.4707 3.4209V3.21777C57.4707 2.61686 59.5697 2.12598 63.7676 1.74512C63.7676 1.6097 63.8395 1.54199 63.9834 1.54199ZM71.3213 11.8252C71.8799 11.9606 72.1592 12.2399 72.1592 12.6631L71.5371 13.7168L70.4834 13.501H67.9697C67.8258 14.4997 67.7539 15.0583 67.7539 15.1768L68.1729 15.3926H70.2803C70.5596 15.4349 70.6992 15.5745 70.6992 15.8115V16.6494L70.4834 17.9062L70.6992 18.3252C70.6992 19.6286 68.9473 20.3988 65.4434 20.6357V21.0547H66.916C67.0599 21.0547 67.1318 21.1266 67.1318 21.2705L71.3213 20.6357C71.5921 20.7796 71.8037 20.8516 71.9561 20.8516V21.0547C71.9561 21.901 71.4652 22.3242 70.4834 22.3242C68.8076 22.4258 67.9697 22.5654 67.9697 22.7432C67.8258 22.7432 67.7539 22.6712 67.7539 22.5273L65.2402 22.7432H64.8213C64.2965 22.7432 63.8776 21.973 63.5645 20.4326C63.5645 19.6032 65.0329 19.1123 67.9697 18.96C68.6637 18.6045 69.0107 18.3252 69.0107 18.1221V17.2842L68.8076 16.8652L63.7676 17.7031L63.5645 17.2842V16.4463C65.5195 16.0231 66.4971 15.6719 66.4971 15.3926V13.7168C65.9385 13.7168 65.6592 13.6449 65.6592 13.501C62.0452 14.0596 60.014 14.3389 59.5654 14.3389C59.2861 14.3389 59.1465 14.1992 59.1465 13.9199V13.7168C59.1465 12.7604 63.2048 12.1299 71.3213 11.8252ZM88.6787 1.97363L89.0977 2.5957C88.8184 4.79622 88.611 7.52572 88.4756 10.7842C88.611 10.9619 88.6787 11.4486 88.6787 12.2441C88.6787 12.4303 88.3317 12.7816 87.6377 13.2979H87.4219C87.1426 13.2979 87.0029 13.1582 87.0029 12.8789C87.0029 12.752 87.0749 12.1934 87.2188 11.2031L87.0029 10.7842L87.2188 9.51465V8.67676L87.0029 8.25781C86.4528 8.40169 85.9619 8.61328 85.5303 8.89258L85.7461 9.94629C85.6022 10.6742 85.5303 11.0931 85.5303 11.2031C85.6742 11.474 85.7461 11.6813 85.7461 11.8252C85.6022 12.3838 85.251 12.6631 84.6924 12.6631C84.2777 12.0537 84.0703 11.5671 84.0703 11.2031C84.0703 10.9238 84.138 10.7842 84.2734 10.7842L84.0703 8.67676V8.25781C84.1719 4.20378 84.5908 2.17676 85.3271 2.17676H85.7461C86.0254 2.21908 86.165 2.35872 86.165 2.5957V3.01465C85.7419 4.83431 85.5303 6.02344 85.5303 6.58203V7.00098H86.7998C87.1891 7.00098 87.4684 5.53255 87.6377 2.5957C87.9678 2.18099 88.3148 1.97363 88.6787 1.97363ZM79.8682 3.23047L80.2871 3.43359H81.3408C81.4847 3.43359 81.5566 3.36589 81.5566 3.23047C81.7174 3.23047 82.0645 3.43783 82.5977 3.85254C81.9967 5.15592 80.8076 6.90365 79.0303 9.0957V9.51465C81.1969 10.9196 82.3184 11.7617 82.3945 12.041V12.2441C82.3945 12.4473 82.1829 12.6589 81.7598 12.8789C81.252 12.8789 80.0628 12.1087 78.1924 10.5684H77.7734C77.5957 11.5586 76.8975 12.5361 75.6787 13.501H75.4629C75.1836 13.501 75.0439 13.3613 75.0439 13.082V12.8789C75.0439 12.2949 76.5124 10.0563 79.4492 6.16309C80.0078 5.53678 80.2871 5.0459 80.2871 4.69043H79.665L78.4082 4.90625C78.2643 4.90625 78.1924 4.83431 78.1924 4.69043L73.7871 5.3252C73.3724 5.22363 73.0931 4.94434 72.9492 4.4873C72.9492 3.87793 74.2061 3.52669 76.7197 3.43359V3.64941L77.1387 3.43359H79.665C79.8005 3.43359 79.8682 3.36589 79.8682 3.23047ZM79.8682 14.9736H86.584L87.0029 15.1895C86.8675 16.5859 86.7998 17.6312 86.7998 18.3252L87.0029 19.5947C86.8421 20.1195 86.4951 20.6061 85.9619 21.0547L85.5303 20.8516H84.6924C82.0179 21.4102 80.4818 21.6895 80.084 21.6895C79.627 21.6895 79.2757 19.9417 79.0303 16.4463C79.2757 15.4645 79.555 14.9736 79.8682 14.9736ZM81.5566 16.4463H80.9219C80.6426 16.4463 80.5029 16.6536 80.5029 17.0684C80.6045 19.0319 80.8838 20.0137 81.3408 20.0137C83.042 19.7344 84.0195 19.5228 84.2734 19.3789C84.5189 19.5228 84.7982 19.5947 85.1113 19.5947L85.3271 19.1758V16.6494L85.1113 16.2305C83.4694 16.3743 82.2845 16.4463 81.5566 16.4463ZM100.771 0.513672C100.906 0.513672 100.974 0.585612 100.974 0.729492C101.126 0.729492 101.338 0.657552 101.608 0.513672C105.383 1.10612 107.271 2.71419 107.271 5.33789C107.271 7.32682 105.87 9.0026 103.068 10.3652H102.865V10.5811H106.852C106.852 10.7249 106.919 10.9323 107.055 11.2031C106.775 11.7786 106.636 12.1976 106.636 12.46H106.852C107.131 12.46 107.271 12.3203 107.271 12.041V11.4189C107.575 7.9235 108.062 6.17578 108.73 6.17578H109.149C109.429 6.17578 109.568 6.38314 109.568 6.79785C109.154 8.47363 108.807 10.2214 108.527 12.041L108.73 12.46V14.1357C108.73 15.2106 108.451 15.8411 107.893 16.0273H107.689C107.579 16.0273 107.368 15.8158 107.055 15.3926L107.271 14.9736V14.3516C107.271 14.0723 107.131 13.9326 106.852 13.9326H106.014C103.991 14.2119 102.941 14.3516 102.865 14.3516L102.649 13.9326V13.5137C102.649 12.9551 103.559 12.6038 105.379 12.46V12.2568L104.325 12.041C102.793 12.041 102.027 12.2526 102.027 12.6758V15.6084C102.027 15.9215 102.095 16.2008 102.23 16.4463C102.095 17.0049 101.748 17.2842 101.189 17.2842L100.555 16.4463V12.8789L100.352 12.46C100.005 12.46 99.027 12.5996 97.4189 12.8789C96.8604 12.6758 96.5811 12.4684 96.5811 12.2568V11.8379C96.5811 11.3809 98.3965 11.0296 102.027 10.7842V10.5811C98.2526 10.0563 96.3652 8.30859 96.3652 5.33789C96.6445 3.94141 97.5544 2.47298 99.0947 0.932617C100.212 0.839518 100.771 0.69987 100.771 0.513672ZM98.041 5.33789V5.95996C98.041 7.46647 99.2301 8.44824 101.608 8.90527H102.23C103.415 8.90527 104.537 7.9235 105.595 5.95996V5.75684C105.595 3.37858 104.545 2.18945 102.446 2.18945H100.352C98.8112 3.14583 98.041 4.19531 98.041 5.33789ZM110.622 5.75684C111.181 5.89225 111.46 6.3112 111.46 7.01367V7.43262L110.203 14.9736C110.482 15.5492 110.622 15.9723 110.622 16.2432C110.622 19.5947 110.203 21.2705 109.365 21.2705C108.536 21.2705 107.207 21.4102 105.379 21.6895C104.82 21.1309 104.541 20.0137 104.541 18.3379C104.541 16.7975 105.032 16.0273 106.014 16.0273L106.433 16.6621L106.217 17.9189C108.036 17.8174 108.946 17.6058 108.946 17.2842V16.6621C109.403 9.39193 109.962 5.75684 110.622 5.75684ZM106.217 19.7979C106.361 19.7979 106.433 19.8698 106.433 20.0137C107.965 19.8698 108.73 19.6582 108.73 19.3789V18.96H108.527C106.987 19.1715 106.217 19.4508 106.217 19.7979ZM127.561 1.55469L127.776 1.97363C127.776 2.69303 127.565 3.11198 127.142 3.23047C119.034 3.23047 114.979 3.57747 114.979 4.27148C114.836 4.54232 114.764 4.75391 114.764 4.90625C114.908 5.64258 114.979 6.34082 114.979 7.00098C118.306 6.58626 121.522 6.30697 124.628 6.16309C124.763 6.43392 124.831 6.64551 124.831 6.79785C124.628 7.35645 124.421 7.63574 124.209 7.63574H123.79C119.931 7.63574 117.062 7.98275 115.183 8.67676L115.817 11.2031C116.588 11.2031 119.592 10.8519 124.831 10.1494H125.885C126.088 10.1494 126.299 10.361 126.52 10.7842C126.249 11.4189 125.969 11.766 125.682 11.8252H123.371C118.056 12.2061 115.398 12.625 115.398 13.082C114.654 13.082 114.023 10.7757 113.507 6.16309V4.90625C112.669 4.36458 112.25 4.01335 112.25 3.85254C112.25 2.70996 116.935 2.01172 126.304 1.75781C126.304 1.6224 126.723 1.55469 127.561 1.55469ZM126.52 13.082L126.723 13.501C126.723 14.2035 126.583 14.5547 126.304 14.5547C123.849 14.6986 122.381 14.7705 121.898 14.7705L121.695 15.1895V18.541C121.695 18.7441 121.484 18.9557 121.061 19.1758C120.502 18.9473 120.223 18.4564 120.223 17.7031V14.9736C117.777 15.2529 115.398 15.6042 113.088 16.0273L112.669 15.3926C112.669 14.4531 116.935 13.7549 125.466 13.2979C125.466 13.154 125.817 13.082 126.52 13.082ZM117.074 17.2842H118.128C118.128 17.5635 118.196 17.7031 118.331 17.7031L118.128 18.7568C118.263 19.9756 118.331 20.6738 118.331 20.8516C119.355 20.8516 121.873 20.4326 125.885 19.5947C126.443 19.7301 126.723 20.0094 126.723 20.4326C126.723 20.915 126.092 21.262 124.831 21.4736L124.412 21.2705L117.493 22.5273C117.078 21.8587 116.871 20.8092 116.871 19.3789V18.3379L117.074 17.2842Z" fill="#222222"/>
</svg>
