<svg width="89" height="26" viewBox="0 0 89 26" fill="none" xmlns="http://www.w3.org/2000/svg">
<path d="M1.24805 0.880859C5.25586 1.39648 7.25977 1.71582 7.25977 1.83887L7.74316 1.60156H9.66797C11.9121 2.02344 13.0342 3.86621 13.0342 7.12988C12.7236 7.8623 12.4043 8.26367 12.0762 8.33398H11.5928C11.0127 8.33398 10.5322 6.89258 10.1514 4.00977C9.8291 4.00977 9.66797 3.92773 9.66797 3.76367L9.18457 4.00977H8.94727C8.7832 4.00977 8.70117 3.92773 8.70117 3.76367C7.74023 3.97461 7.25977 4.21484 7.25977 4.48438V7.37598C7.25977 8.33691 6.7793 8.81738 5.81836 8.81738C5.17969 8.2373 4.86035 7.5957 4.86035 6.89258V3.76367C1.97168 3.44727 0.527344 3.04883 0.527344 2.56836V1.11816C0.697266 1.11816 0.9375 1.03906 1.24805 0.880859ZM2.45215 9.78418C3.2959 9.94238 3.77637 10.0215 3.89355 10.0215C8.82129 9.86328 12.1904 9.78418 14.001 9.78418L14.7217 10.7422V11.4629C14.7217 11.6914 14.4814 11.9316 14.001 12.1836H9.43066V12.9043L9.66797 14.5918H11.1094C12.3926 14.5918 13.0342 15.3125 13.0342 16.7539V18.1953C13.0342 20.123 10.9512 21.0869 6.78516 21.0869V21.5615C8.60742 21.8838 9.8877 22.0449 10.626 22.0449H12.0762C12.3047 22.0449 12.5449 22.2852 12.7969 22.7656V23.0117C12.2988 23.9727 11.335 24.4531 9.90527 24.4531C7.11035 24.4531 5.18555 23.249 4.13086 20.8408C4.53516 19.5576 5.33789 18.916 6.53906 18.916C9.18164 18.7578 10.626 18.2773 10.8721 17.4746V16.7539C7.24512 16.918 4.99805 17 4.13086 17L3.41016 16.0332L3.65625 14.8291H6.30176L7.50586 14.5918L7.25977 14.1084V12.4297H5.09766C2.85352 12.4297 1.73145 11.8672 1.73145 10.7422L2.45215 9.78418ZM18.5645 0.177734H19.0479C21.1279 1.60156 22.168 2.88477 22.168 4.02734C22.168 5.04102 21.5264 6.00195 20.2432 6.91016L20.4893 8.58887V9.30957H21.4473C22.4082 9.30957 22.8887 9.79004 22.8887 10.751C22.6484 11.3955 22.4082 11.7178 22.168 11.7178H16.8857C16.5811 11.7178 15.9395 11.4775 14.9609 10.9971V9.79297C14.9609 9.66406 15.2012 9.42383 15.6816 9.07227L16.8857 9.30957H18.0811V7.14746C16.001 6.9248 14.9609 6.04297 14.9609 4.50195V3.30664C14.9609 1.2207 16.1621 0.177734 18.5645 0.177734ZM26.9756 1.38184H27.4502C28.4111 1.38184 28.8916 1.8623 28.8916 2.82324V5.94336C29.2139 5.94336 29.375 6.02539 29.375 6.18945L29.8584 5.94336H31.5371C31.7656 5.94336 32.0059 6.18359 32.2578 6.66406V6.91016C32.2578 7.87109 31.5371 8.35156 30.0957 8.35156C29.293 8.35156 28.8916 8.5127 28.8916 8.83496V11.9551C28.8916 12.2773 28.7334 12.4385 28.417 12.4385H27.2129C26.9844 12.4385 26.7441 12.1982 26.4922 11.7178V8.10547C26.4922 7.94727 26.5713 7.86816 26.7295 7.86816L26.4922 7.38477V6.91016C26.4922 6.74609 26.5713 6.66406 26.7295 6.66406L26.4922 6.18945V3.54395C26.4922 3.14551 26.6533 2.4248 26.9756 1.38184ZM17.3604 2.58594V4.26465C17.3604 4.62793 17.7617 4.86816 18.5645 4.98535C19.2969 4.6748 19.6982 4.35547 19.7686 4.02734C19.3936 3.06641 19.0713 2.58594 18.8018 2.58594H17.3604ZM23.126 13.6338C26.1729 13.6338 27.6963 14.9961 27.6963 17.7207C27.6963 19.6719 26.6533 20.9521 24.5674 21.5615H22.4053C20.6475 20.583 19.7686 19.3818 19.7686 17.958C19.7686 15.4268 20.8877 13.9854 23.126 13.6338ZM22.168 17.7207C22.168 18.5586 22.7275 19.0391 23.8467 19.1621C24.5029 18.8398 24.9834 18.6787 25.2881 18.6787V16.042C24.6494 16.042 24.3301 15.96 24.3301 15.7959L23.8467 16.042C23.6885 16.042 23.6094 15.96 23.6094 15.7959C22.8945 15.7959 22.4141 16.4375 22.168 17.7207ZM37.0498 2.10254C37.6943 2.77051 38.0166 3.57031 38.0166 4.50195V5.46875L37.7705 5.94336C39.5342 7.63672 40.416 8.67969 40.416 9.07227H40.1787L40.416 9.55566C40.416 9.78418 40.1758 10.0244 39.6953 10.2764C39.3379 10.2764 38.6172 9.79297 37.5332 8.82617H37.2959L36.8125 10.2764H36.3291L35.1338 10.0303V9.79297C35.1338 9.59375 35.374 7.99121 35.8545 4.98535V4.50195L32.9717 4.74805L32.4883 4.02734V3.54395C32.8105 2.90527 33.0508 2.58594 33.209 2.58594C33.9297 2.58594 35.21 2.4248 37.0498 2.10254ZM47.8604 3.06055H48.8271C49.3545 3.06055 49.6738 4.18262 49.7852 6.42676L52.668 6.18945H52.9141V6.91016L52.668 7.38477H53.1514C53.1514 7.70703 52.9111 7.86816 52.4307 7.86816L52.668 8.35156H50.2686V8.58887C50.2686 8.93457 50.3477 9.81641 50.5059 11.2344C50.3477 11.873 49.9463 12.1924 49.3018 12.1924C48.5049 12.1924 47.9453 9.38867 47.623 3.78125C47.7812 3.4707 47.8604 3.23047 47.8604 3.06055ZM42.8154 3.78125C43.46 4.39648 43.8613 5.43945 44.0195 6.91016C45.4609 7.66016 46.1816 8.54199 46.1816 9.55566C45.8594 9.55566 45.6982 9.71387 45.6982 10.0303H44.7402C43.9316 9.3916 43.4512 9.07227 43.2988 9.07227L42.3408 10.751H41.374C41.0576 10.751 40.8994 10.5928 40.8994 10.2764V9.55566L41.8574 5.94336H41.6201C41.2158 5.94336 40.4951 6.10449 39.458 6.42676C38.8135 6.18652 38.4912 5.94629 38.4912 5.70605V5.46875C38.4912 4.50781 39.2119 4.02734 40.6533 4.02734C41.251 3.86328 41.9717 3.78125 42.8154 3.78125ZM44.5029 13.6338H45.4609C47.8633 13.6338 49.0645 15.0752 49.0645 17.958C49.0645 19.3643 48.0244 20.2461 45.9443 20.6035C45.8037 20.6035 45.1621 20.3633 44.0195 19.8828V20.1201C43.0527 20.1201 42.332 18.7607 41.8574 16.042C42.4902 14.4365 43.3721 13.6338 44.5029 13.6338ZM44.2568 15.3213L44.0195 16.5166C44.0195 17.6885 44.9014 18.3301 46.665 18.4414L47.1396 17.7207V16.7627C46.583 15.8018 45.8623 15.3213 44.9775 15.3213H44.2568ZM62.7266 1.37305C63.7461 2.01758 64.707 2.33984 65.6094 2.33984C66.5703 3.3418 67.0508 4.7041 67.0508 6.42676C67.0508 7.6748 65.8496 8.47461 63.4473 8.82617C60.8809 8.35742 59.5977 6.67578 59.5977 3.78125C59.5977 2.7793 60.6406 1.97656 62.7266 1.37305ZM61.7598 4.26465C62.1641 5.50684 62.6445 6.22754 63.2012 6.42676H63.4473C64.2734 6.42676 64.7539 6.18652 64.8887 5.70605C64.8887 4.42285 64.2471 3.78125 62.9639 3.78125H62.2432C61.9209 3.82812 61.7598 3.98926 61.7598 4.26465ZM71.375 3.78125H72.0957C72.9043 3.78125 73.3848 6.74609 73.5371 12.6758C73.3789 13.3145 73.0596 13.6338 72.5791 13.6338C71.4541 13.6338 70.8916 13.0742 70.8916 11.9551H71.1377L70.8916 11.4717C70.8916 11.3135 70.9736 11.2344 71.1377 11.2344L70.8916 10.751V9.30957L69.6963 9.54688H69.2129C68.3809 9.54688 67.9004 9.30664 67.7715 8.82617V8.10547C67.7715 7.67188 68.8115 7.35254 70.8916 7.14746V6.66406C70.8916 6.46484 70.8125 5.66504 70.6543 4.26465L71.375 3.78125ZM75.4619 4.26465H75.9453C76.9062 4.26465 77.3867 7.3877 77.3867 13.6338H77.1494C76.8682 13.7979 76.5459 13.8799 76.1826 13.8799C75.2217 13.8799 74.7412 11.3955 74.7412 6.42676V4.98535C74.7412 4.75098 74.9814 4.51074 75.4619 4.26465ZM61.2764 10.0303H68.2549C68.4834 10.0303 68.7236 10.2705 68.9756 10.751V11.9551L67.2881 12.1924H65.6094V12.4385L65.8467 14.6006C65.6064 15.2393 65.3662 15.5586 65.126 15.5586H64.168C63.6875 15.459 63.4473 14.8174 63.4473 13.6338V12.1924H61.5225C61.1299 11.876 60.8076 11.7178 60.5557 11.7178V10.751C60.5557 10.5225 60.7959 10.2822 61.2764 10.0303ZM74.7412 15.0752C75.2217 15.7842 75.4619 16.3467 75.4619 16.7627C75.2217 20.7705 74.7412 22.7744 74.0205 22.7744H72.3418C69.1367 22.7744 67.5342 21.9717 67.5342 20.3662H67.7715C67.4492 19.2236 67.2881 17.6211 67.2881 15.5586L67.7715 15.3213H68.7295C69.374 15.5381 69.6963 16.2588 69.6963 17.4834H73.0625C73.0625 15.8779 73.6221 15.0752 74.7412 15.0752ZM69.9336 19.4082V20.1289C71.7031 20.4453 72.6641 20.6035 72.8164 20.6035V19.8828C71.3164 19.6895 70.3555 19.5312 69.9336 19.4082ZM80.0254 1.85645H85.3076C85.6299 1.90918 85.791 2.07031 85.791 2.33984C85.791 3.45898 85.4717 4.01855 84.833 4.01855C84.6572 4.01855 84.4141 4.10059 84.1035 4.26465C83.9453 4.26465 83.8662 4.18262 83.8662 4.01855L82.1875 4.26465H79.7793L80.0254 4.73926V5.94336L84.5869 5.45996C85.7119 5.84082 86.2744 6.16309 86.2744 6.42676C86.2744 7.5459 85.5508 8.10547 84.1035 8.10547V7.86816C83.7637 8.02637 82.5625 8.1875 80.5 8.35156V9.07227C80.5527 9.38867 80.7139 9.54688 80.9834 9.54688C82.1025 9.54688 83.8662 9.46777 86.2744 9.30957L86.749 10.0303C86.749 11.3135 85.3867 11.9551 82.6621 11.9551C82.5215 11.9551 81.8828 12.0342 80.7461 12.1924C79.1406 12.1924 78.3379 11.2314 78.3379 9.30957L77.6172 4.01855C77.8984 2.57715 78.7012 1.85645 80.0254 1.85645ZM88.1904 12.9131C88.501 13.0771 88.7412 13.1592 88.9111 13.1592V13.8799C88.9111 14.999 88.4307 15.5586 87.4697 15.5586V15.3213C87.2295 15.4795 86.749 15.5586 86.0283 15.5586L86.2744 18.9248L85.5537 19.4082H84.833C84.4111 19.4082 83.9277 18.2041 83.3828 15.7959H83.1455C82.9756 15.7959 82.7354 15.8779 82.4248 16.042C80.5029 15.8779 79.542 15.5557 79.542 15.0752V14.3545C79.7998 13.7158 80.3594 13.3965 81.2207 13.3965H82.4248C83.2861 13.3965 85.208 13.2354 88.1904 12.9131ZM81.2207 19.1621H82.9082C83.3887 21.8867 84.0303 23.249 84.833 23.249C86.1104 22.9326 87.1504 22.7744 87.9531 22.7744C88.2754 23.1611 88.4365 23.4805 88.4365 23.7324C88.4365 24.5352 87.2354 25.1768 84.833 25.6572V25.4111C84.6689 25.4111 84.5869 25.4932 84.5869 25.6572C82.5068 25.499 81.4668 24.5381 81.4668 22.7744C81.1855 22.7744 80.9453 21.8105 80.7461 19.8828C81.0625 19.8828 81.2207 19.6426 81.2207 19.1621Z" fill="#222222"/>
</svg>
