<svg width="159" height="23" viewBox="0 0 159 23" fill="none" xmlns="http://www.w3.org/2000/svg">
<path d="M7.27441 1.54199L8.31543 2.16406C10.7529 1.88477 12.2256 1.74512 12.7334 1.74512L13.1523 2.37988C13.0085 3.81022 12.9365 4.92741 12.9365 5.73145C12.9365 6.15462 13.0085 6.36621 13.1523 6.36621L12.9365 7.41992V9.93359C12.9365 10.069 12.6572 10.3483 12.0986 10.7715L11.2607 10.3525L11.4639 8.87988V3.63672C11.4639 3.35742 11.3242 3.21777 11.0449 3.21777C8.94596 3.21777 7.89648 3.77637 7.89648 4.89355L7.69336 5.94727C7.82878 6.86979 7.89648 7.77962 7.89648 8.67676V9.51465C7.89648 10.2679 7.61719 10.7588 7.05859 10.9873C6.85547 10.9873 6.64388 10.7757 6.42383 10.3525V3.4209H6.2207C5.03581 3.4209 3.35579 3.63249 1.18066 4.05566L0.761719 3.4209V3.21777C0.761719 2.61686 2.86068 2.12598 7.05859 1.74512C7.05859 1.6097 7.13053 1.54199 7.27441 1.54199ZM14.6123 11.8252C15.1709 11.9606 15.4502 12.2399 15.4502 12.6631L14.8281 13.7168L13.7744 13.501H11.2607C11.1169 14.4997 11.0449 15.0583 11.0449 15.1768L11.4639 15.3926H13.5713C13.8506 15.4349 13.9902 15.5745 13.9902 15.8115V16.6494L13.7744 17.9062L13.9902 18.3252C13.9902 19.6286 12.2383 20.3988 8.73438 20.6357V21.0547H10.207C10.3509 21.0547 10.4229 21.1266 10.4229 21.2705L14.6123 20.6357C14.8831 20.7796 15.0947 20.8516 15.2471 20.8516V21.0547C15.2471 21.901 14.7562 22.3242 13.7744 22.3242C12.0986 22.4258 11.2607 22.5654 11.2607 22.7432C11.1169 22.7432 11.0449 22.6712 11.0449 22.5273L8.53125 22.7432H8.1123C7.58757 22.7432 7.16862 21.973 6.85547 20.4326C6.85547 19.6032 8.32389 19.1123 11.2607 18.96C11.9548 18.6045 12.3018 18.3252 12.3018 18.1221V17.2842L12.0986 16.8652L7.05859 17.7031L6.85547 17.2842V16.4463C8.81055 16.0231 9.78809 15.6719 9.78809 15.3926V13.7168C9.22949 13.7168 8.9502 13.6449 8.9502 13.501C5.33626 14.0596 3.30501 14.3389 2.85645 14.3389C2.57715 14.3389 2.4375 14.1992 2.4375 13.9199V13.7168C2.4375 12.7604 6.49577 12.1299 14.6123 11.8252ZM30.7256 1.33887H30.9287C31.1318 1.33887 31.3434 1.55046 31.5635 1.97363C31.1403 4.41113 30.9287 5.94727 30.9287 6.58203V10.5684L31.1445 11.8379C31.1445 12.0241 30.8652 12.5107 30.3066 13.2979C29.7396 13.1624 29.4561 12.7435 29.4561 12.041V8.68945H29.2529C27.8734 8.96875 27.1032 9.1084 26.9424 9.1084C26.6631 9.1084 26.5234 8.96875 26.5234 8.68945V8.27051C26.5234 7.85579 27.5729 7.36491 29.6719 6.79785V4.90625C29.765 2.52799 30.1162 1.33887 30.7256 1.33887ZM23.7939 1.55469H26.1045C26.3076 1.55469 26.515 1.76204 26.7266 2.17676V2.39258C26.4473 4.43229 26.3076 5.54948 26.3076 5.74414V6.58203C26.3076 6.72591 26.3796 6.79785 26.5234 6.79785C26.5234 7.95736 24.4964 8.72754 20.4424 9.1084C20.4424 9.3877 20.3027 9.52734 20.0234 9.52734L20.2266 10.9873V11.8379H20.4424C22.0674 11.8379 23.8151 11.6263 25.6855 11.2031C25.9564 11.3385 26.1637 11.4062 26.3076 11.4062V12.2568C26.3076 12.4515 26.1003 12.6589 25.6855 12.8789H24.2129L19.8076 13.5137C18.9697 13.5137 18.5508 11.9733 18.5508 8.89258C18.5508 8.10547 20.5778 7.47493 24.6318 7.00098L24.8477 6.58203V5.3252L25.0508 3.23047L24.6318 3.01465H24.2129C20.015 3.01465 17.6367 3.22624 17.0781 3.64941C16.5195 3.43783 16.2402 3.22624 16.2402 3.01465V2.39258C17.1712 1.83398 19.6891 1.55469 23.7939 1.55469ZM26.3076 14.3516C28.8298 14.6309 30.0908 15.6803 30.0908 17.5V17.7031C29.4561 20.0814 28.2669 21.2705 26.5234 21.2705C24.4245 21.0589 23.375 20.0094 23.375 18.1221C23.375 16.1585 24.3525 14.9017 26.3076 14.3516ZM24.8477 17.2842V18.1221C24.8477 18.8753 25.127 19.3662 25.6855 19.5947H26.3076C27.3994 19.5947 28.1019 19.2435 28.415 18.541V17.7031C28.415 17.0091 27.9961 16.5225 27.1582 16.2432C27.1582 15.9639 27.0143 15.8242 26.7266 15.8242C25.9225 15.8242 25.2962 16.3109 24.8477 17.2842ZM45.3564 1.54199L46.3975 2.16406C48.835 1.88477 50.3076 1.74512 50.8154 1.74512L51.2344 2.37988C51.0905 3.81022 51.0186 4.92741 51.0186 5.73145C51.0186 6.15462 51.0905 6.36621 51.2344 6.36621L51.0186 7.41992V9.93359C51.0186 10.069 50.7393 10.3483 50.1807 10.7715L49.3428 10.3525L49.5459 8.87988V3.63672C49.5459 3.35742 49.4062 3.21777 49.127 3.21777C47.028 3.21777 45.9785 3.77637 45.9785 4.89355L45.7754 5.94727C45.9108 6.86979 45.9785 7.77962 45.9785 8.67676V9.51465C45.9785 10.2679 45.6992 10.7588 45.1406 10.9873C44.9375 10.9873 44.7259 10.7757 44.5059 10.3525V3.4209H44.3027C43.1178 3.4209 41.4378 3.63249 39.2627 4.05566L38.8438 3.4209V3.21777C38.8438 2.61686 40.9427 2.12598 45.1406 1.74512C45.1406 1.6097 45.2126 1.54199 45.3564 1.54199ZM52.6943 11.8252C53.2529 11.9606 53.5322 12.2399 53.5322 12.6631L52.9102 13.7168L51.8564 13.501H49.3428C49.1989 14.4997 49.127 15.0583 49.127 15.1768L49.5459 15.3926H51.6533C51.9326 15.4349 52.0723 15.5745 52.0723 15.8115V16.6494L51.8564 17.9062L52.0723 18.3252C52.0723 19.6286 50.3203 20.3988 46.8164 20.6357V21.0547H48.2891C48.4329 21.0547 48.5049 21.1266 48.5049 21.2705L52.6943 20.6357C52.9652 20.7796 53.1768 20.8516 53.3291 20.8516V21.0547C53.3291 21.901 52.8382 22.3242 51.8564 22.3242C50.1807 22.4258 49.3428 22.5654 49.3428 22.7432C49.1989 22.7432 49.127 22.6712 49.127 22.5273L46.6133 22.7432H46.1943C45.6696 22.7432 45.2507 21.973 44.9375 20.4326C44.9375 19.6032 46.4059 19.1123 49.3428 18.96C50.0368 18.6045 50.3838 18.3252 50.3838 18.1221V17.2842L50.1807 16.8652L45.1406 17.7031L44.9375 17.2842V16.4463C46.8926 16.0231 47.8701 15.6719 47.8701 15.3926V13.7168C47.3115 13.7168 47.0322 13.6449 47.0322 13.501C43.4183 14.0596 41.387 14.3389 40.9385 14.3389C40.6592 14.3389 40.5195 14.1992 40.5195 13.9199V13.7168C40.5195 12.7604 44.5778 12.1299 52.6943 11.8252ZM68.8076 1.33887H69.0107C69.2139 1.33887 69.4255 1.55046 69.6455 1.97363C69.2223 4.41113 69.0107 5.94727 69.0107 6.58203V10.5684L69.2266 11.8379C69.2266 12.0241 68.9473 12.5107 68.3887 13.2979C67.8216 13.1624 67.5381 12.7435 67.5381 12.041V8.68945H67.335C65.9554 8.96875 65.1852 9.1084 65.0244 9.1084C64.7451 9.1084 64.6055 8.96875 64.6055 8.68945V8.27051C64.6055 7.85579 65.6549 7.36491 67.7539 6.79785V4.90625C67.847 2.52799 68.1982 1.33887 68.8076 1.33887ZM61.876 1.55469H64.1865C64.3896 1.55469 64.597 1.76204 64.8086 2.17676V2.39258C64.5293 4.43229 64.3896 5.54948 64.3896 5.74414V6.58203C64.3896 6.72591 64.4616 6.79785 64.6055 6.79785C64.6055 7.95736 62.5785 8.72754 58.5244 9.1084C58.5244 9.3877 58.3848 9.52734 58.1055 9.52734L58.3086 10.9873V11.8379H58.5244C60.1494 11.8379 61.8971 11.6263 63.7676 11.2031C64.0384 11.3385 64.2458 11.4062 64.3896 11.4062V12.2568C64.3896 12.4515 64.1823 12.6589 63.7676 12.8789H62.2949L57.8896 13.5137C57.0518 13.5137 56.6328 11.9733 56.6328 8.89258C56.6328 8.10547 58.6598 7.47493 62.7139 7.00098L62.9297 6.58203V5.3252L63.1328 3.23047L62.7139 3.01465H62.2949C58.097 3.01465 55.7188 3.22624 55.1602 3.64941C54.6016 3.43783 54.3223 3.22624 54.3223 3.01465V2.39258C55.2533 1.83398 57.7712 1.55469 61.876 1.55469ZM64.3896 14.3516C66.9118 14.6309 68.1729 15.6803 68.1729 17.5V17.7031C67.5381 20.0814 66.349 21.2705 64.6055 21.2705C62.5065 21.0589 61.457 20.0094 61.457 18.1221C61.457 16.1585 62.4346 14.9017 64.3896 14.3516ZM62.9297 17.2842V18.1221C62.9297 18.8753 63.209 19.3662 63.7676 19.5947H64.3896C65.4814 19.5947 66.1839 19.2435 66.4971 18.541V17.7031C66.4971 17.0091 66.0781 16.5225 65.2402 16.2432C65.2402 15.9639 65.0964 15.8242 64.8086 15.8242C64.0046 15.8242 63.3783 16.3109 62.9297 17.2842ZM74.4219 0.919922H74.625L75.2598 1.33887C74.9805 2.59993 74.8408 3.50977 74.8408 4.06836C74.9847 4.06836 75.0566 4.13607 75.0566 4.27148C75.9199 3.99219 77.3164 3.85254 79.2461 3.85254C79.2461 3.99642 79.318 4.06836 79.4619 4.06836C79.4619 4.82161 78.2728 5.3125 75.8945 5.54102L71.0703 6.16309C70.7995 6.02767 70.5879 5.95996 70.4355 5.95996V5.3252C70.4355 4.96126 71.485 4.54232 73.584 4.06836C73.584 1.9694 73.8633 0.919922 74.4219 0.919922ZM81.9756 3.43359C82.5342 3.64518 82.8135 3.85677 82.8135 4.06836C82.5342 5.46484 82.3945 6.86133 82.3945 8.25781V9.31152L83.4482 9.0957H83.8672C84.0618 9.0957 84.2692 9.30729 84.4893 9.73047V9.94629C84.4893 10.251 83.791 10.5303 82.3945 10.7842V12.6631C82.3945 12.807 82.4622 12.8789 82.5977 12.8789C82.3945 13.4375 82.1872 13.7168 81.9756 13.7168H81.5566C81.1335 13.5729 80.9219 13.154 80.9219 12.46V9.31152C80.9219 5.56217 81.2731 3.60286 81.9756 3.43359ZM74.0029 6.79785C74.2738 6.93327 74.4811 7.00098 74.625 7.00098C74.7012 7.00098 74.9847 6.93327 75.4756 6.79785C77.5661 7.43262 78.6113 8.33822 78.6113 9.51465V9.73047C78.1543 12.8112 76.6859 14.3516 74.2061 14.3516C71.9717 13.9284 70.8545 12.8789 70.8545 11.2031V10.7842C70.8545 9.21842 71.904 7.88965 74.0029 6.79785ZM72.3271 10.5684V11.4062C72.9027 12.5234 73.6009 13.082 74.4219 13.082C75.8861 13.082 76.7959 12.0368 77.1514 9.94629V9.0957C77.1514 8.90951 76.6605 8.5625 75.6787 8.05469C73.4443 8.44401 72.3271 9.2819 72.3271 10.5684ZM78.4082 14.1357H78.6113L79.2461 14.5547C78.9668 16.0273 78.8271 16.9372 78.8271 17.2842C79.208 17.2842 80.6045 17.0726 83.0166 16.6494L83.2324 17.0684V17.9062C83.2324 18.1432 81.9756 18.4268 79.4619 18.7568C79.4619 19.0361 79.1107 19.1758 78.4082 19.1758H78.1924C77.7777 19.0319 77.5703 18.6087 77.5703 17.9062V17.0684C77.5703 15.1133 77.8496 14.1357 78.4082 14.1357ZM96.7969 1.56738L97.2158 1.77051C96.8011 2.47298 96.5938 3.03158 96.5938 3.44629V4.70312C96.6361 4.98242 96.7757 5.12207 97.0127 5.12207H99.9453L100.999 5.33789V5.54102C100.999 6.19271 100.44 7.10254 99.3232 8.27051V8.48633C101.278 10.5007 102.256 11.6178 102.256 11.8379C102.112 12.1087 102.04 12.3203 102.04 12.4727H100.999C100.999 12.0664 100.089 11.0846 98.2695 9.52734H97.8506C97.6729 9.52734 96.2764 11.0677 93.6611 14.1484H93.2422C92.9629 14.1484 92.8232 14.0088 92.8232 13.7295V13.3105C94.0505 11.6855 95.8659 9.51888 98.2695 6.81055H98.0664C95.8913 6.94596 93.932 7.22526 92.1885 7.64844L91.7695 7.01367V6.81055C91.7695 6.29427 92.8867 5.87109 95.1211 5.54102V4.28418C95.1211 2.8877 95.4723 1.9821 96.1748 1.56738H96.7969ZM103.729 6.17578H103.932C104.143 6.17578 104.355 6.45508 104.566 7.01367C104.287 8.41016 104.147 9.66699 104.147 10.7842V13.3105C104.147 14.4193 104.215 15.8877 104.351 17.7158C104.08 18.3506 103.8 18.6976 103.513 18.7568H103.31C103.013 18.7568 102.662 17.847 102.256 16.0273L95.7559 17.2842C95.485 17.1488 95.2734 17.0811 95.1211 17.0811V16.4463C95.1211 16.1501 95.8913 15.7311 97.4316 15.1895C97.5163 12.6758 97.9352 11.4189 98.6885 11.4189L99.5264 12.041C99.2471 12.5234 99.0397 13.5052 98.9043 14.9863C99.0397 14.9863 99.1074 15.054 99.1074 15.1895C101.486 14.8594 102.675 14.5124 102.675 14.1484V11.2031C102.675 10.89 102.747 10.6107 102.891 10.3652C102.747 10.1198 102.675 9.84049 102.675 9.52734V8.90527C102.675 7.2972 103.026 6.38737 103.729 6.17578ZM111.628 0.945312C111.907 0.98763 112.047 1.12728 112.047 1.36426C112.047 1.69434 111.281 3.02311 109.749 5.35059C109.605 5.59603 109.533 5.87533 109.533 6.18848C112.749 8.87142 114.357 10.6149 114.357 11.4189C114.357 11.6982 114.146 11.8379 113.723 11.8379L109.114 7.86426L108.276 7.64844C107.303 9.60352 106.744 11 106.601 11.8379L106.182 12.0537H105.979C105.657 12.0537 105.445 11.7025 105.344 11C105.632 9.45964 107.519 6.10807 111.006 0.945312H111.628ZM118.128 1.99902C118.687 2.13444 118.966 2.55339 118.966 3.25586C118.593 3.25586 118.242 5.97689 117.912 11.4189L118.128 11.8379C117.849 12.9635 117.569 13.5264 117.29 13.5264H116.871C116.592 13.5264 116.452 13.3867 116.452 13.1074C116.731 5.70182 117.29 1.99902 118.128 1.99902ZM112.885 13.3105C113.443 13.5221 113.723 13.7337 113.723 13.9453V14.1484C113.308 14.6816 113.101 15.3122 113.101 16.04V17.2969C113.101 17.4323 113.38 17.6396 113.938 17.9189C114.624 17.7835 116.372 17.5762 119.182 17.2969L119.385 17.7158V17.9189C119.385 18.2998 119.245 18.7188 118.966 19.1758L117.912 18.9727C116.676 18.9727 114.933 19.18 112.682 19.5947C111.979 19.5947 111.628 18.2702 111.628 15.6211C111.95 14.0807 112.368 13.3105 112.885 13.3105ZM131.058 0.513672C131.193 0.513672 131.261 0.585612 131.261 0.729492C131.413 0.729492 131.625 0.657552 131.896 0.513672C135.67 1.10612 137.558 2.71419 137.558 5.33789C137.558 7.32682 136.157 9.0026 133.355 10.3652H133.152V10.5811H137.139C137.139 10.7249 137.206 10.9323 137.342 11.2031C137.062 11.7786 136.923 12.1976 136.923 12.46H137.139C137.418 12.46 137.558 12.3203 137.558 12.041V11.4189C137.862 7.9235 138.349 6.17578 139.018 6.17578H139.437C139.716 6.17578 139.855 6.38314 139.855 6.79785C139.441 8.47363 139.094 10.2214 138.814 12.041L139.018 12.46V14.1357C139.018 15.2106 138.738 15.8411 138.18 16.0273H137.977C137.867 16.0273 137.655 15.8158 137.342 15.3926L137.558 14.9736V14.3516C137.558 14.0723 137.418 13.9326 137.139 13.9326H136.301C134.278 14.2119 133.229 14.3516 133.152 14.3516L132.937 13.9326V13.5137C132.937 12.9551 133.846 12.6038 135.666 12.46V12.2568L134.612 12.041C133.08 12.041 132.314 12.2526 132.314 12.6758V15.6084C132.314 15.9215 132.382 16.2008 132.518 16.4463C132.382 17.0049 132.035 17.2842 131.477 17.2842L130.842 16.4463V12.8789L130.639 12.46C130.292 12.46 129.314 12.5996 127.706 12.8789C127.147 12.6758 126.868 12.4684 126.868 12.2568V11.8379C126.868 11.3809 128.684 11.0296 132.314 10.7842V10.5811C128.54 10.0563 126.652 8.30859 126.652 5.33789C126.932 3.94141 127.841 2.47298 129.382 0.932617C130.499 0.839518 131.058 0.69987 131.058 0.513672ZM128.328 5.33789V5.95996C128.328 7.46647 129.517 8.44824 131.896 8.90527H132.518C133.702 8.90527 134.824 7.9235 135.882 5.95996V5.75684C135.882 3.37858 134.832 2.18945 132.733 2.18945H130.639C129.098 3.14583 128.328 4.19531 128.328 5.33789ZM140.909 5.75684C141.468 5.89225 141.747 6.3112 141.747 7.01367V7.43262L140.49 14.9736C140.77 15.5492 140.909 15.9723 140.909 16.2432C140.909 19.5947 140.49 21.2705 139.652 21.2705C138.823 21.2705 137.494 21.4102 135.666 21.6895C135.107 21.1309 134.828 20.0137 134.828 18.3379C134.828 16.7975 135.319 16.0273 136.301 16.0273L136.72 16.6621L136.504 17.9189C138.324 17.8174 139.233 17.6058 139.233 17.2842V16.6621C139.69 9.39193 140.249 5.75684 140.909 5.75684ZM136.504 19.7979C136.648 19.7979 136.72 19.8698 136.72 20.0137C138.252 19.8698 139.018 19.6582 139.018 19.3789V18.96H138.814C137.274 19.1715 136.504 19.4508 136.504 19.7979ZM157.848 1.55469L158.063 1.97363C158.063 2.69303 157.852 3.11198 157.429 3.23047C149.321 3.23047 145.267 3.57747 145.267 4.27148C145.123 4.54232 145.051 4.75391 145.051 4.90625C145.195 5.64258 145.267 6.34082 145.267 7.00098C148.593 6.58626 151.809 6.30697 154.915 6.16309C155.05 6.43392 155.118 6.64551 155.118 6.79785C154.915 7.35645 154.708 7.63574 154.496 7.63574H154.077C150.218 7.63574 147.349 7.98275 145.47 8.67676L146.104 11.2031C146.875 11.2031 149.879 10.8519 155.118 10.1494H156.172C156.375 10.1494 156.587 10.361 156.807 10.7842C156.536 11.4189 156.257 11.766 155.969 11.8252H153.658C148.343 12.2061 145.686 12.625 145.686 13.082C144.941 13.082 144.31 10.7757 143.794 6.16309V4.90625C142.956 4.36458 142.537 4.01335 142.537 3.85254C142.537 2.70996 147.222 2.01172 156.591 1.75781C156.591 1.6224 157.01 1.55469 157.848 1.55469ZM156.807 13.082L157.01 13.501C157.01 14.2035 156.87 14.5547 156.591 14.5547C154.136 14.6986 152.668 14.7705 152.186 14.7705L151.982 15.1895V18.541C151.982 18.7441 151.771 18.9557 151.348 19.1758C150.789 18.9473 150.51 18.4564 150.51 17.7031V14.9736C148.064 15.2529 145.686 15.6042 143.375 16.0273L142.956 15.3926C142.956 14.4531 147.222 13.7549 155.753 13.2979C155.753 13.154 156.104 13.082 156.807 13.082ZM147.361 17.2842H148.415C148.415 17.5635 148.483 17.7031 148.618 17.7031L148.415 18.7568C148.55 19.9756 148.618 20.6738 148.618 20.8516C149.642 20.8516 152.16 20.4326 156.172 19.5947C156.73 19.7301 157.01 20.0094 157.01 20.4326C157.01 20.915 156.379 21.262 155.118 21.4736L154.699 21.2705L147.78 22.5273C147.366 21.8587 147.158 20.8092 147.158 19.3789V18.3379L147.361 17.2842Z" fill="#222222"/>
</svg>
