<svg width="117" height="24" viewBox="0 0 117 24" fill="none" xmlns="http://www.w3.org/2000/svg">
<path d="M5.78906 3.20215H6.20801C9.22103 3.47298 11.1084 4.72982 11.8701 6.97266L12.0732 8.22949C11.4639 12.0042 9.64844 13.8916 6.62695 13.8916C2.7168 13.5615 0.761719 11.8857 0.761719 8.86426C0.761719 6.24056 2.4375 4.35319 5.78906 3.20215ZM2.23438 8.02637V8.22949C2.23438 10.2015 3.00033 11.4583 4.53223 12C4.9554 12 5.514 12.1396 6.20801 12.4189C9.14486 12.0973 10.6133 10.7008 10.6133 8.22949C10.6133 6.53678 9.42415 5.4196 7.0459 4.87793C7.0459 4.74251 6.69889 4.6748 6.00488 4.6748C4.36296 5.16569 3.10612 6.28288 2.23438 8.02637ZM6.42383 14.3105L6.84277 14.9453V17.459H8.09961C8.23503 17.459 8.30273 17.387 8.30273 17.2432C8.44661 17.2432 8.51855 17.3151 8.51855 17.459L9.55957 17.2432H10.6133C11.028 17.2432 11.2354 17.5225 11.2354 18.0811C11.0999 18.6396 10.8206 18.9189 10.3975 18.9189C9.93197 18.9189 9.58496 18.8512 9.35645 18.7158L2.65332 19.1348C2.38249 18.9909 2.1709 18.9189 2.01855 18.9189V18.2969C2.01855 17.8822 3.13574 17.5309 5.37012 17.2432L5.16699 16.8242C5.36165 15.1484 5.7806 14.3105 6.42383 14.3105ZM14.5391 3.81152H15.1738C15.1738 3.9554 15.2415 4.16276 15.377 4.43359C15.0977 5.95703 14.958 6.9388 14.958 7.37891C15.0342 9.05469 15.2458 9.89258 15.5928 9.89258C17.6663 9.89258 20.0446 9.75293 22.7275 9.47363L23.1465 10.0957V10.7305C23.1465 10.9336 22.9349 11.1452 22.5117 11.3652C21.9531 11.2552 21.6738 11.1156 21.6738 10.9463L14.5391 11.7842C13.9805 11.4541 13.7012 9.84603 13.7012 6.95996V5.90625C13.8704 4.50977 14.1497 3.81152 14.5391 3.81152ZM23.9844 13.041L24.4033 13.6631C24.2256 14.3656 24.014 14.7168 23.7686 14.7168C22.5837 14.5729 21.6061 14.501 20.8359 14.501C20.6836 14.501 20.472 14.5729 20.2012 14.7168L19.7822 14.501L18.7412 14.7168C18.5973 14.7168 18.5254 14.6449 18.5254 14.501L13.2822 15.1357L12.8633 14.501V14.082C12.8633 13.8874 13.0749 13.68 13.498 13.46C18.4492 13.1807 21.9447 13.041 23.9844 13.041ZM23.3496 15.5547C23.6289 15.8932 23.7686 16.1725 23.7686 16.3926L23.5654 16.8115L23.7686 17.2305C23.7686 19.4733 22.5794 20.5947 20.2012 20.5947C19.1686 20.5947 18.4027 20.6624 17.9033 20.7979V21.4326C17.9456 21.7119 18.0853 21.8516 18.3223 21.8516C19.1771 21.8516 21.2041 21.64 24.4033 21.2168L24.8223 21.8516C24.8223 22.6895 23.8447 23.1084 21.8896 23.1084C19.8669 23.2438 18.7454 23.3835 18.5254 23.5273C18.2546 23.3835 18.0472 23.3115 17.9033 23.3115L17.4844 23.5273C16.638 23.5273 16.2148 22.5498 16.2148 20.5947V20.1758C16.2148 19.651 17.9668 19.2279 21.4707 18.9062C21.6654 18.9062 21.8727 18.6989 22.0928 18.2842V17.2305H21.8896C17.971 17.5098 16.0117 17.7891 16.0117 18.0684C15.7409 17.9329 15.5293 17.8652 15.377 17.8652V17.0273C15.377 16.3672 18.0345 15.8763 23.3496 15.5547ZM36.4951 1.51367C36.6305 1.51367 36.6982 1.58561 36.6982 1.72949C36.8506 1.72949 37.0622 1.65755 37.333 1.51367C41.1077 2.10612 42.9951 3.71419 42.9951 6.33789C42.9951 8.32682 41.5944 10.0026 38.793 11.3652H38.5898V11.5811H42.5762C42.5762 11.7249 42.6439 11.9323 42.7793 12.2031C42.5 12.7786 42.3604 13.1976 42.3604 13.46H42.5762C42.8555 13.46 42.9951 13.3203 42.9951 13.041V12.4189C43.2998 8.9235 43.7865 7.17578 44.4551 7.17578H44.874C45.1533 7.17578 45.293 7.38314 45.293 7.79785C44.8783 9.47363 44.5312 11.2214 44.252 13.041L44.4551 13.46V15.1357C44.4551 16.2106 44.1758 16.8411 43.6172 17.0273H43.4141C43.304 17.0273 43.0924 16.8158 42.7793 16.3926L42.9951 15.9736V15.3516C42.9951 15.0723 42.8555 14.9326 42.5762 14.9326H41.7383C39.7155 15.2119 38.666 15.3516 38.5898 15.3516L38.374 14.9326V14.5137C38.374 13.9551 39.2839 13.6038 41.1035 13.46V13.2568L40.0498 13.041C38.5179 13.041 37.752 13.2526 37.752 13.6758V16.6084C37.752 16.9215 37.8197 17.2008 37.9551 17.4463C37.8197 18.0049 37.4727 18.2842 36.9141 18.2842L36.2793 17.4463V13.8789L36.0762 13.46C35.7292 13.46 34.7516 13.5996 33.1436 13.8789C32.585 13.6758 32.3057 13.4684 32.3057 13.2568V12.8379C32.3057 12.3809 34.1211 12.0296 37.752 11.7842V11.5811C33.9772 11.0563 32.0898 9.30859 32.0898 6.33789C32.3691 4.94141 33.279 3.47298 34.8193 1.93262C35.9365 1.83952 36.4951 1.69987 36.4951 1.51367ZM33.7656 6.33789V6.95996C33.7656 8.46647 34.9548 9.44824 37.333 9.90527H37.9551C39.14 9.90527 40.2614 8.9235 41.3193 6.95996V6.75684C41.3193 4.37858 40.2699 3.18945 38.1709 3.18945H36.0762C34.5358 4.14583 33.7656 5.19531 33.7656 6.33789ZM46.3467 6.75684C46.9053 6.89225 47.1846 7.3112 47.1846 8.01367V8.43262L45.9277 15.9736C46.207 16.5492 46.3467 16.9723 46.3467 17.2432C46.3467 20.5947 45.9277 22.2705 45.0898 22.2705C44.2604 22.2705 42.9316 22.4102 41.1035 22.6895C40.5449 22.1309 40.2656 21.0137 40.2656 19.3379C40.2656 17.7975 40.7565 17.0273 41.7383 17.0273L42.1572 17.6621L41.9414 18.9189C43.7611 18.8174 44.6709 18.6058 44.6709 18.2842V17.6621C45.1279 10.3919 45.6865 6.75684 46.3467 6.75684ZM41.9414 20.7979C42.0853 20.7979 42.1572 20.8698 42.1572 21.0137C43.6891 20.8698 44.4551 20.6582 44.4551 20.3789V19.96H44.252C42.7116 20.1715 41.9414 20.4508 41.9414 20.7979ZM63.2852 2.55469L63.501 2.97363C63.501 3.69303 63.2894 4.11198 62.8662 4.23047C54.7581 4.23047 50.7041 4.57747 50.7041 5.27148C50.5602 5.54232 50.4883 5.75391 50.4883 5.90625C50.6322 6.64258 50.7041 7.34082 50.7041 8.00098C54.0303 7.58626 57.2464 7.30697 60.3525 7.16309C60.488 7.43392 60.5557 7.64551 60.5557 7.79785C60.3525 8.35645 60.1452 8.63574 59.9336 8.63574H59.5146C55.6553 8.63574 52.7861 8.98275 50.9072 9.67676L51.542 12.2031C52.3122 12.2031 55.3167 11.8519 60.5557 11.1494H61.6094C61.8125 11.1494 62.0241 11.361 62.2441 11.7842C61.9733 12.4189 61.694 12.766 61.4062 12.8252H59.0957C53.7806 13.2061 51.123 13.625 51.123 14.082C50.3783 14.082 49.7477 11.7757 49.2314 7.16309V5.90625C48.3936 5.36458 47.9746 5.01335 47.9746 4.85254C47.9746 3.70996 52.6592 3.01172 62.0283 2.75781C62.0283 2.6224 62.4473 2.55469 63.2852 2.55469ZM62.2441 14.082L62.4473 14.501C62.4473 15.2035 62.3076 15.5547 62.0283 15.5547C59.5739 15.6986 58.1055 15.7705 57.623 15.7705L57.4199 16.1895V19.541C57.4199 19.7441 57.2083 19.9557 56.7852 20.1758C56.2266 19.9473 55.9473 19.4564 55.9473 18.7031V15.9736C53.5013 16.2529 51.123 16.6042 48.8125 17.0273L48.3936 16.3926C48.3936 15.4531 52.6592 14.7549 61.1904 14.2979C61.1904 14.154 61.5417 14.082 62.2441 14.082ZM52.7988 18.2842H53.8525C53.8525 18.5635 53.9202 18.7031 54.0557 18.7031L53.8525 19.7568C53.988 20.9756 54.0557 21.6738 54.0557 21.8516C55.0798 21.8516 57.5977 21.4326 61.6094 20.5947C62.168 20.7301 62.4473 21.0094 62.4473 21.4326C62.4473 21.915 61.8167 22.262 60.5557 22.4736L60.1367 22.2705L53.2178 23.5273C52.8031 22.8587 52.5957 21.8092 52.5957 20.3789V19.3379L52.7988 18.2842ZM70.5752 0.459961C72.1071 0.459961 73.5755 1.72103 74.9805 4.24316C75.1243 4.47168 75.1963 4.81868 75.1963 5.28418C75.1963 7.73014 74.2865 9.5498 72.4668 10.7432L69.9531 11.3652C67.5579 11.3652 65.6706 9.96875 64.291 7.17578V6.12207C64.291 2.94824 66.3857 1.06087 70.5752 0.459961ZM65.7637 7.17578C67.2533 8.99544 68.6497 9.90527 69.9531 9.90527C72.1875 9.36361 73.3047 8.59342 73.3047 7.59473C73.584 7.59473 73.7236 6.6849 73.7236 4.86523C73.2581 3.46875 72.0013 2.77051 69.9531 2.77051V2.14844H69.5342C67.486 2.14844 66.2292 3.75228 65.7637 6.95996V7.17578ZM77.4941 4.24316H77.9131C78.3363 4.24316 78.5479 4.52246 78.5479 5.08105C77.8454 8.39876 77.4941 10.7728 77.4941 12.2031V15.5547C77.4941 15.834 77.3545 15.9736 77.0752 15.9736H76.4531C76.0299 15.8382 75.8184 15.4193 75.8184 14.7168V13.46H75.6152C74.4134 13.46 71.2692 13.8112 66.1826 14.5137L65.7637 13.8789V13.46C66.4238 12.7913 69.7754 12.3724 75.8184 12.2031C76.377 9.49479 76.7959 6.90918 77.0752 4.44629L77.4941 4.24316ZM92.1123 1.94531C92.3916 1.98763 92.5312 2.12728 92.5312 2.36426C92.5312 2.69434 91.7653 4.02311 90.2334 6.35059C90.0895 6.59603 90.0176 6.87533 90.0176 7.18848C93.2337 9.87142 94.8418 11.6149 94.8418 12.4189C94.8418 12.6982 94.6302 12.8379 94.207 12.8379L89.5986 8.86426L88.7607 8.64844C87.7874 10.6035 87.2288 12 87.085 12.8379L86.666 13.0537H86.4629C86.1413 13.0537 85.9297 12.7025 85.8281 12C86.1159 10.4596 88.0033 7.10807 91.4902 1.94531H92.1123ZM98.6123 2.99902C99.1709 3.13444 99.4502 3.55339 99.4502 4.25586C99.0778 4.25586 98.7266 6.97689 98.3965 12.4189L98.6123 12.8379C98.333 13.9635 98.0537 14.5264 97.7744 14.5264H97.3555C97.0762 14.5264 96.9365 14.3867 96.9365 14.1074C97.2158 6.70182 97.7744 2.99902 98.6123 2.99902ZM93.3691 14.3105C93.9277 14.5221 94.207 14.7337 94.207 14.9453V15.1484C93.7923 15.6816 93.585 16.3122 93.585 17.04V18.2969C93.585 18.4323 93.8643 18.6396 94.4229 18.9189C95.1084 18.7835 96.8561 18.5762 99.666 18.2969L99.8691 18.7158V18.9189C99.8691 19.2998 99.7295 19.7188 99.4502 20.1758L98.3965 19.9727C97.1608 19.9727 95.4173 20.18 93.166 20.5947C92.4635 20.5947 92.1123 19.2702 92.1123 16.6211C92.4339 15.0807 92.8529 14.3105 93.3691 14.3105ZM114.281 4.23047L114.7 4.85254C114.565 5.80892 114.497 6.5791 114.497 7.16309C114.497 7.30697 114.565 7.37891 114.7 7.37891L114.497 7.79785V10.5146H116.376C116.655 10.5654 116.795 10.7093 116.795 10.9463C116.795 11.4456 116.588 11.8646 116.173 12.2031L115.754 11.9873H114.916L114.497 12.2031L114.7 13.2441V13.6631L114.497 14.082H114.7C114.429 14.7253 114.15 15.0765 113.862 15.1357C113.304 15.1357 113.024 13.2484 113.024 9.47363V6.95996C113.024 5.1403 113.443 4.23047 114.281 4.23047ZM109.457 5.27148V5.4873L109.876 5.27148H110.511C110.925 5.27148 111.133 5.55078 111.133 6.10938C109.034 9.18164 107.984 10.9336 107.984 11.3652C110.507 12.4147 111.768 13.2526 111.768 13.8789V14.082L111.133 14.501H110.714C108.64 13.1045 107.312 12.4062 106.728 12.4062C106.507 13.3288 105.809 14.3783 104.633 15.5547H104.214C103.892 15.5547 103.681 15.2035 103.579 14.501C103.841 14.4502 105.589 12.0042 108.822 7.16309V6.74414C106.799 6.74414 104.214 6.95573 101.065 7.37891L100.646 6.74414V6.3252C100.993 5.62272 103.93 5.27148 109.457 5.27148ZM113.443 16.3926H115.119C115.398 16.4349 115.538 16.5745 115.538 16.8115C115.538 16.8792 115.331 17.6494 114.916 19.1221V22.6895C114.544 23.375 114.264 23.7262 114.078 23.7432H113.659C113.456 23.7432 113.244 23.5316 113.024 23.1084C113.16 22.6683 113.228 20.9883 113.228 18.0684C112.957 17.9329 112.749 17.8652 112.605 17.8652C108.797 18.5592 106.838 18.9062 106.728 18.9062C106.448 18.5677 106.309 18.2884 106.309 18.0684C106.309 17.4421 107.989 17.0231 111.349 16.8115C111.349 16.5661 112.047 16.4264 113.443 16.3926Z" fill="#222222"/>
</svg>
