<svg width="139" height="26" viewBox="0 0 139 26" fill="none" xmlns="http://www.w3.org/2000/svg">
<path d="M3.17285 0.661133H4.36816C5.0127 0.661133 5.41406 1.7832 5.57227 4.02734L6.05566 3.78125H6.53027C6.69434 3.78125 6.77637 3.86328 6.77637 4.02734L7.25098 3.78125C7.89551 4.02148 8.21777 4.26172 8.21777 4.50195C8.21777 5.05273 7.89551 5.85547 7.25098 6.91016C7.50879 6.91016 8.55176 7.54883 10.3799 8.82617C10.0576 10.1094 9.73535 10.751 9.41309 10.751H9.17578C8.8125 10.751 7.61133 10.1914 5.57227 9.07227V9.30957C4.81055 10.751 4.33008 11.4717 4.13086 11.4717H3.41016C2.92969 11.3135 2.68945 10.833 2.68945 10.0303V9.54688C2.68945 9.45898 3.24902 8.58008 4.36816 6.91016V6.66406L1.24805 7.14746C0.9375 6.98926 0.697266 6.91016 0.527344 6.91016V5.22266C0.527344 4.7832 1.32715 4.46387 2.92676 4.26465V1.86523L3.17285 0.661133ZM10.1338 11.9551C10.9482 12.2773 11.5107 12.4385 11.8213 12.4385V13.3965C11.3994 14.1875 11.0771 14.5889 10.8545 14.6006H8.45508C8.45508 15.7197 8.77441 16.2793 9.41309 16.2793C10.3037 16.543 10.9453 16.9443 11.3379 17.4834V18.9248C11.3379 21.0049 10.2979 22.0449 8.21777 22.0449C7.7373 22.4141 7.49707 22.6543 7.49707 22.7656C7.65527 22.7656 7.73438 22.8447 7.73438 23.0029C9.30469 22.5225 10.3447 22.2822 10.8545 22.2822C11.0947 22.2822 11.335 22.6045 11.5752 23.249C10.9717 24.6904 9.53027 25.4111 7.25098 25.4111C6.17871 25.0889 5.54004 24.6084 5.33496 23.9697V22.5283C5.33496 21.4209 6.4541 20.3779 8.69238 19.3994L8.93848 18.9248H8.45508C7.95703 18.9248 6.43652 19.0039 3.89355 19.1621L3.64746 17.958C3.64746 16.9971 4.36816 16.5166 5.80957 16.5166H6.29297L6.05566 16.042V14.8379C3.50684 14.9961 1.9834 15.0752 1.48535 15.0752C0.84668 14.917 0.527344 14.4365 0.527344 13.6338C0.685547 12.8369 1.08691 12.4385 1.73145 12.4385C6.01465 12.2744 8.65723 12.1924 9.65918 12.1924L10.1338 11.9551ZM18.8096 3.29785C19.0908 3.46191 19.4131 3.54395 19.7764 3.54395V4.98535C19.7764 5.65918 18.1738 6.05762 14.9688 6.18066V7.86816C17.7754 7.70996 19.457 7.63086 20.0137 7.63086C20.541 7.78906 20.8604 8.1084 20.9717 8.58887C20.9717 9.70801 19.29 10.2676 15.9268 10.2676H15.4434V10.5137L15.6895 11.709L18.8096 11.2344C20.415 11.4336 21.2178 11.7529 21.2178 12.1924V12.6758C20.8955 13.4785 20.333 13.8799 19.5303 13.8799C19.7998 16.4404 20.1221 17.7207 20.4971 17.7207C20.667 17.7207 20.9072 17.6416 21.2178 17.4834L23.3799 17.9668V18.2041C23.3799 19.3232 22.4189 19.8828 20.4971 19.8828C19.835 19.8828 19.1934 19.9648 18.5723 20.1289V19.8828L18.0889 20.1289H17.6055C17.248 20.1289 16.9287 20.0469 16.6475 19.8828L16.1641 20.1289C15.5254 19.8887 15.2061 19.6484 15.2061 19.4082V18.4414C15.2061 18.002 16.0879 17.6826 17.8516 17.4834C17.6875 17.3252 17.5264 16.2822 17.3682 14.3545C17.5264 14.0439 17.6055 13.8037 17.6055 13.6338C16.8848 13.9561 15.8447 14.1172 14.4854 14.1172H14.2393C13.583 14.1172 13.0234 10.9912 12.5605 4.73926C12.5605 3.77832 14.6436 3.29785 18.8096 3.29785ZM27.4668 7.63086H27.7041C28.5068 7.66602 28.9082 7.82422 28.9082 8.10547C29.5469 12.4355 29.8662 15.8809 29.8662 18.4414L28.9082 19.1621H28.1875C27.6074 19.1621 27.127 15.8779 26.7461 9.30957C26.582 9.30957 26.5 9.23047 26.5 9.07227C26.8281 8.11133 27.1504 7.63086 27.4668 7.63086ZM38.542 1.60156H39.2627C41.3486 1.85937 42.3916 2.82031 42.3916 4.48438V9.30078C42.3916 9.66406 41.9902 9.9043 41.1875 10.0215C40.2266 10.0215 39.7461 8.89941 39.7461 6.65527L39.9834 5.45117C39.8252 4.32617 39.585 3.76367 39.2627 3.76367H37.8213L36.6172 4.00977V3.76367C36.2832 3.89258 35.4014 4.05371 33.9717 4.24707V4.00977C33.6611 4.16797 33.4209 4.24707 33.251 4.24707L32.7676 4.00977C32.4863 4.16797 32.167 4.24707 31.8096 4.24707C31.2822 3.7666 30.8809 3.52637 30.6055 3.52637C30.6055 3.36816 30.6846 3.28906 30.8428 3.28906L30.6055 2.80566V2.56836C30.7051 2.08203 31.3467 1.83887 32.5303 1.83887V2.08496L33.0137 1.83887C33.1719 1.83887 33.251 1.9209 33.251 2.08496L33.7344 1.83887H33.9717C34.1299 1.83887 34.209 1.9209 34.209 2.08496C35.0234 1.7627 36.4678 1.60156 38.542 1.60156ZM32.293 12.1836C34.5254 12.3477 35.9668 12.4297 36.6172 12.4297C37.6367 12.4297 39.7227 12.3477 42.875 12.1836V12.4297L43.3496 12.1836C43.9941 12.4473 44.3164 13.0098 44.3164 13.8711C44.3164 14.1875 44.1553 14.3457 43.833 14.3457C39.9834 14.5098 38.0586 14.6709 38.0586 14.8291C34.0508 14.8291 32.0469 14.1875 32.0469 12.9043C32.2109 12.5938 32.293 12.3535 32.293 12.1836ZM35.1758 16.2705C35.8145 16.2705 36.2949 17.3135 36.6172 19.3994C38.3809 19.5283 39.2627 19.6895 39.2627 19.8828L39.7461 19.6455C41.0293 19.6455 41.6709 20.126 41.6709 21.0869V21.5615C41.6709 21.8076 41.3486 22.0508 40.7041 22.291C38.0146 21.9688 36.4912 21.8076 36.1338 21.8076C36.1338 21.5439 35.6533 21.2217 34.6924 20.8408C34.2119 20.2666 33.8926 18.9043 33.7344 16.7539C34.2617 16.4316 34.7422 16.2705 35.1758 16.2705ZM52.7119 5.94336C53.2979 6.26563 53.9395 6.42676 54.6367 6.42676H57.2822C57.4404 6.42676 57.5195 6.50586 57.5195 6.66406L58.0029 6.42676C58.8701 6.58496 59.5908 6.66406 60.165 6.66406H60.4111C60.8916 7.70117 61.1318 8.74414 61.1318 9.79297V10.751H64.0146C64.3955 7.86816 64.876 6.42676 65.4561 6.42676H65.9395C66.1855 6.42676 66.5049 6.74609 66.8975 7.38477C66.2588 10.8652 65.9395 13.8301 65.9395 16.2793C65.9395 17.1113 65.6992 17.5918 65.2188 17.7207H64.252L63.2939 17L63.7773 13.3965L62.5732 13.1592H61.1318C60.8564 13.1592 60.4551 14.1992 59.9277 16.2793C59.0781 16.7598 58.1963 17 57.2822 17C55.2021 17 54.001 16.5986 53.6787 15.7959C52.8467 15.7959 52.3662 14.3545 52.2373 11.4717C51.915 10.7393 51.7539 9.21875 51.7539 6.91016C51.8711 6.42383 52.1904 6.10156 52.7119 5.94336ZM68.8223 6.91016C69.625 7.13281 70.0264 7.69238 70.0264 8.58887C70.0264 14.6768 69.5459 17.7207 68.585 17.7207C67.9639 17.7207 67.4014 17.4014 66.8975 16.7627C67.3779 12.8428 67.6973 9.7168 67.8555 7.38477L68.8223 6.91016ZM54.1621 9.07227C54.748 12.5938 55.2285 14.3545 55.6035 14.3545H58.2402C58.5625 12.7197 58.7236 10.959 58.7236 9.07227H56.5615C56.4033 9.07227 56.3242 8.99023 56.3242 8.82617C56.2188 8.99023 55.498 9.07227 54.1621 9.07227ZM75.0898 4.50195C77.8145 5.46875 79.1768 7.39063 79.1768 10.2676V10.5137C79.1768 12.7578 78.0547 13.8799 75.8105 13.8799H75.0898C72.207 13.3994 70.7656 11.4746 70.7656 8.10547V7.63086C70.7656 6.34766 72.207 5.30469 75.0898 4.50195ZM84.9512 4.50195C85.4961 4.50195 86.0557 7.94727 86.6299 14.8379C86.4717 15.1484 86.3926 15.3887 86.3926 15.5586H84.7051C84.2246 15.5586 83.7441 12.2744 83.2637 5.70605C83.2637 5.16113 83.8262 4.75977 84.9512 4.50195ZM73.1738 7.63086V8.10547C73.1738 9.99219 73.8945 11.1143 75.3359 11.4717H75.5732C76.376 11.3545 76.7773 11.1143 76.7773 10.751V10.0303C76.4551 8.1084 75.8135 7.14746 74.8525 7.14746L73.1738 7.63086ZM92.8975 3.29785H96.7471L96.9844 4.98535V5.45996L95.7803 5.70605H92.6602L90.252 5.94336V7.38477H90.498L92.1768 7.14746V7.38477L92.6602 7.14746H94.585L96.2637 6.90137V7.14746C96.4219 7.14746 96.501 7.06543 96.501 6.90137L97.7051 7.14746H98.4258L98.6631 8.35156V8.82617C98.6631 9.06641 98.3438 9.30664 97.7051 9.54688C97.3477 9.54688 97.0283 9.46777 96.7471 9.30957C93.7705 9.63184 91.8457 9.79297 90.9727 9.79297C90.9727 10.3145 91.2949 11.0352 91.9395 11.9551C93.9961 11.6328 95.918 11.4717 97.7051 11.4717L98.1885 12.1924V13.6338C97.2568 13.9561 94.9336 14.2783 91.2188 14.6006C89.5371 14.6006 88.2539 11.2344 87.3691 4.50195H87.6064C87.9287 4.50195 88.0898 4.18262 88.0898 3.54395C90.252 3.37988 91.8545 3.29785 92.8975 3.29785ZM100.351 16.2793C100.661 16.4434 100.901 16.5254 101.071 16.5254V18.4414C100.093 18.7637 98.0889 19.0859 95.0596 19.4082V19.1621C94.9482 19.3262 93.5859 19.4873 90.9727 19.6455L90.498 18.9248C90.498 17.4834 92.1006 16.7627 95.3057 16.7627C95.3057 16.6045 96.9873 16.4434 100.351 16.2793ZM111.646 1.37305C112.666 2.01758 113.627 2.33984 114.529 2.33984C115.49 3.3418 115.971 4.7041 115.971 6.42676C115.971 7.6748 114.77 8.47461 112.367 8.82617C109.801 8.35742 108.518 6.67578 108.518 3.78125C108.518 2.7793 109.561 1.97656 111.646 1.37305ZM110.68 4.26465C111.084 5.50684 111.564 6.22754 112.121 6.42676H112.367C113.193 6.42676 113.674 6.18652 113.809 5.70605C113.809 4.42285 113.167 3.78125 111.884 3.78125H111.163C110.841 3.82812 110.68 3.98926 110.68 4.26465ZM120.295 3.78125H121.016C121.824 3.78125 122.305 6.74609 122.457 12.6758C122.299 13.3145 121.979 13.6338 121.499 13.6338C120.374 13.6338 119.812 13.0742 119.812 11.9551H120.058L119.812 11.4717C119.812 11.3135 119.894 11.2344 120.058 11.2344L119.812 10.751V9.30957L118.616 9.54688H118.133C117.301 9.54688 116.82 9.30664 116.691 8.82617V8.10547C116.691 7.67188 117.731 7.35254 119.812 7.14746V6.66406C119.812 6.46484 119.732 5.66504 119.574 4.26465L120.295 3.78125ZM124.382 4.26465H124.865C125.826 4.26465 126.307 7.3877 126.307 13.6338H126.069C125.788 13.7979 125.466 13.8799 125.103 13.8799C124.142 13.8799 123.661 11.3955 123.661 6.42676V4.98535C123.661 4.75098 123.901 4.51074 124.382 4.26465ZM110.196 10.0303H117.175C117.403 10.0303 117.644 10.2705 117.896 10.751V11.9551L116.208 12.1924H114.529V12.4385L114.767 14.6006C114.526 15.2393 114.286 15.5586 114.046 15.5586H113.088C112.607 15.459 112.367 14.8174 112.367 13.6338V12.1924H110.442C110.05 11.876 109.728 11.7178 109.476 11.7178V10.751C109.476 10.5225 109.716 10.2822 110.196 10.0303ZM123.661 15.0752C124.142 15.7842 124.382 16.3467 124.382 16.7627C124.142 20.7705 123.661 22.7744 122.94 22.7744H121.262C118.057 22.7744 116.454 21.9717 116.454 20.3662H116.691C116.369 19.2236 116.208 17.6211 116.208 15.5586L116.691 15.3213H117.649C118.294 15.5381 118.616 16.2588 118.616 17.4834H121.982C121.982 15.8779 122.542 15.0752 123.661 15.0752ZM118.854 19.4082V20.1289C120.623 20.4453 121.584 20.6035 121.736 20.6035V19.8828C120.236 19.6895 119.275 19.5312 118.854 19.4082ZM129.445 1.85645H134.728C135.05 1.90918 135.211 2.07031 135.211 2.33984C135.211 3.45898 134.892 4.01855 134.253 4.01855C134.077 4.01855 133.834 4.10059 133.523 4.26465C133.365 4.26465 133.286 4.18262 133.286 4.01855L131.607 4.26465H129.199L129.445 4.73926V5.94336L134.007 5.45996C135.132 5.84082 135.694 6.16309 135.694 6.42676C135.694 7.5459 134.971 8.10547 133.523 8.10547V7.86816C133.184 8.02637 131.982 8.1875 129.92 8.35156V9.07227C129.973 9.38867 130.134 9.54688 130.403 9.54688C131.522 9.54688 133.286 9.46777 135.694 9.30957L136.169 10.0303C136.169 11.3135 134.807 11.9551 132.082 11.9551C131.941 11.9551 131.303 12.0342 130.166 12.1924C128.561 12.1924 127.758 11.2314 127.758 9.30957L127.037 4.01855C127.318 2.57715 128.121 1.85645 129.445 1.85645ZM137.61 12.9131C137.921 13.0771 138.161 13.1592 138.331 13.1592V13.8799C138.331 14.999 137.851 15.5586 136.89 15.5586V15.3213C136.649 15.4795 136.169 15.5586 135.448 15.5586L135.694 18.9248L134.974 19.4082H134.253C133.831 19.4082 133.348 18.2041 132.803 15.7959H132.565C132.396 15.7959 132.155 15.8779 131.845 16.042C129.923 15.8779 128.962 15.5557 128.962 15.0752V14.3545C129.22 13.7158 129.779 13.3965 130.641 13.3965H131.845C132.706 13.3965 134.628 13.2354 137.61 12.9131ZM130.641 19.1621H132.328C132.809 21.8867 133.45 23.249 134.253 23.249C135.53 22.9326 136.57 22.7744 137.373 22.7744C137.695 23.1611 137.856 23.4805 137.856 23.7324C137.856 24.5352 136.655 25.1768 134.253 25.6572V25.4111C134.089 25.4111 134.007 25.4932 134.007 25.6572C131.927 25.499 130.887 24.5381 130.887 22.7744C130.605 22.7744 130.365 21.8105 130.166 19.8828C130.482 19.8828 130.641 19.6426 130.641 19.1621Z" fill="#222222"/>
</svg>
