<svg width="141" height="23" viewBox="0 0 141 23" fill="none" xmlns="http://www.w3.org/2000/svg">
<path d="M13.1523 3.63672H13.3555C13.4655 3.63672 13.6771 3.84408 13.9902 4.25879C13.7448 4.72428 13.4655 6.47624 13.1523 9.51465H15.4629C15.6576 9.51465 15.8649 9.72201 16.085 10.1367V10.3525C16.0257 10.6403 15.6745 10.9196 15.0312 11.1904L13.9902 10.9873C13.2878 11.165 12.9365 11.3724 12.9365 11.6094V14.5547C12.9365 14.7493 12.7249 14.9567 12.3018 15.1768C11.7432 15.0413 11.4639 14.6224 11.4639 13.9199C11.6162 7.06445 12.179 3.63672 13.1523 3.63672ZM9.15332 4.69043C9.72038 4.71582 10.0039 4.85547 10.0039 5.10938C9.30143 8.41862 8.9502 10.4456 8.9502 11.1904V12.4473C8.69629 13.7083 8.41699 14.3389 8.1123 14.3389H7.47754L7.27441 13.501C7.40983 11.3428 7.68913 9.03223 8.1123 6.56934L7.69336 6.36621H6.42383C3.28385 6.78092 1.46842 6.98828 0.977539 6.98828L0.761719 6.56934V6.36621C0.761719 5.50293 3.55892 4.94434 9.15332 4.69043ZM10.8418 15.1768H11.2607C11.54 15.2191 11.6797 15.3587 11.6797 15.5957C11.6797 16.2982 11.54 16.6494 11.2607 16.6494C11.3285 17.2419 12.5176 18.2236 14.8281 19.5947L15.0312 20.0137C15.0228 20.2083 14.7435 20.5553 14.1934 21.0547L10.4229 18.3252C10.1012 18.3252 9.67806 19.1673 9.15332 20.8516L8.73438 21.0547H8.31543C8.03613 21.0547 7.89648 20.915 7.89648 20.6357V20.4326C8.64974 17.8851 9.63151 16.1331 10.8418 15.1768ZM31.7793 1.33887H31.9824L32.6172 1.75781L31.9824 10.5684C32.1263 10.7546 32.1982 11.2454 32.1982 12.041C32.1982 12.2441 31.9867 12.4557 31.5635 12.6758H31.1445C30.9414 12.6758 30.7298 12.4642 30.5098 12.041C30.7975 7.28451 30.9414 4.06836 30.9414 2.39258C31.2122 1.74935 31.4915 1.39811 31.7793 1.33887ZM29.0498 2.17676C29.5068 2.32064 29.7861 2.59993 29.8877 3.01465C29.7438 3.57324 29.3249 3.85254 28.6309 3.85254H28.2119C28.068 3.85254 27.9961 3.78483 27.9961 3.64941C25.8971 3.64941 24.8477 4.06836 24.8477 4.90625L24.6445 5.74414C24.7799 8.10547 24.9873 9.78548 25.2666 10.7842L29.0498 10.1494C29.3206 10.2933 29.528 10.3652 29.6719 10.3652V11.2031C29.6719 11.5671 28.3431 11.9183 25.6855 12.2568C25.6855 12.5361 25.1989 12.6758 24.2256 12.6758L23.5908 12.2568C22.6852 12.2568 21.1449 12.4642 18.9697 12.8789C17.9964 10.9408 17.5098 8.14355 17.5098 4.4873C17.2982 4.4873 17.0866 4.20801 16.875 3.64941C16.875 2.81152 19.0417 2.39258 23.375 2.39258C25.2031 2.39258 27.0947 2.32064 29.0498 2.17676ZM21.4961 4.06836H19.6045C19.3252 4.11068 19.1855 4.25033 19.1855 4.4873V7.00098C19.1855 8.81217 19.3929 10.141 19.8076 10.9873L21.2803 10.7842H23.1719C23.4512 10.7842 23.5908 10.5726 23.5908 10.1494C23.5908 9.20996 23.4512 8.09277 23.1719 6.79785H23.375L23.1719 6.37891V6.16309L23.375 4.06836C23.2311 4.06836 23.0238 3.99642 22.7529 3.85254V4.06836C22.609 4.06836 22.5371 3.99642 22.5371 3.85254L21.4961 4.06836ZM26.5234 14.1357C28.9948 14.1357 30.4674 15.0456 30.9414 16.8652V17.5C30.5605 20.4368 29.1598 21.9053 26.7393 21.9053C24.6403 20.9235 23.5908 19.6624 23.5908 18.1221C24.1325 15.4645 25.11 14.1357 26.5234 14.1357ZM25.2666 17.5V18.1221C25.5459 19.527 26.2441 20.2295 27.3613 20.2295C28.487 20.2295 29.1895 19.2477 29.4688 17.2842C29.4688 16.6748 28.6266 16.1162 26.9424 15.6084C26.0452 15.6084 25.4867 16.2389 25.2666 17.5ZM47.0293 3.23047L47.4482 3.85254C47.3128 4.80892 47.2451 5.5791 47.2451 6.16309C47.2451 6.30697 47.3128 6.37891 47.4482 6.37891L47.2451 6.79785V9.51465H49.124C49.4033 9.56543 49.543 9.70931 49.543 9.94629C49.543 10.4456 49.3356 10.8646 48.9209 11.2031L48.502 10.9873H47.6641L47.2451 11.2031L47.4482 12.2441V12.6631L47.2451 13.082H47.4482C47.1774 13.7253 46.8981 14.0765 46.6104 14.1357C46.0518 14.1357 45.7725 12.2484 45.7725 8.47363V5.95996C45.7725 4.1403 46.1914 3.23047 47.0293 3.23047ZM42.2051 4.27148V4.4873L42.624 4.27148H43.2588C43.6735 4.27148 43.8809 4.55078 43.8809 5.10938C41.7819 8.18164 40.7324 9.93359 40.7324 10.3652C43.2546 11.4147 44.5156 12.2526 44.5156 12.8789V13.082L43.8809 13.501H43.4619C41.3883 12.1045 40.0596 11.4062 39.4756 11.4062C39.2555 12.3288 38.5573 13.3783 37.3809 14.5547H36.9619C36.6403 14.5547 36.4287 14.2035 36.3271 13.501C36.5895 13.4502 38.3372 11.0042 41.5703 6.16309V5.74414C39.5475 5.74414 36.9619 5.95573 33.8135 6.37891L33.3945 5.74414V5.3252C33.7415 4.62272 36.6784 4.27148 42.2051 4.27148ZM46.1914 15.3926H47.8672C48.1465 15.4349 48.2861 15.5745 48.2861 15.8115C48.2861 15.8792 48.0788 16.6494 47.6641 18.1221V21.6895C47.2917 22.375 47.0124 22.7262 46.8262 22.7432H46.4072C46.2041 22.7432 45.9925 22.5316 45.7725 22.1084C45.9079 21.6683 45.9756 19.9883 45.9756 17.0684C45.7048 16.9329 45.4974 16.8652 45.3535 16.8652C41.5449 17.5592 39.5856 17.9062 39.4756 17.9062C39.1963 17.5677 39.0566 17.2884 39.0566 17.0684C39.0566 16.4421 40.7367 16.0231 44.0967 15.8115C44.0967 15.5661 44.7949 15.4264 46.1914 15.3926ZM67.7158 2.17676C67.8597 2.44759 67.9316 2.65918 67.9316 2.81152C67.9316 3.514 66.5309 5.54102 63.7295 8.89258V9.0957C64.8975 10.543 66.4378 11.8717 68.3506 13.082V13.501C68.2067 14.068 67.8555 14.3516 67.2969 14.3516C67.2884 14.1992 65.7523 12.8704 62.6885 10.3652C61.402 12.5996 60.6318 13.7168 60.3779 13.7168H59.959C59.6797 13.7168 59.54 13.5771 59.54 13.2979C59.54 12.9932 60.2383 11.6644 61.6348 9.31152C61.6348 8.69368 62.1257 8.2028 63.1074 7.83887L65.6211 4.06836V3.64941H65.418C61.7702 3.92871 59.0407 4.27572 57.2295 4.69043C56.9502 4.24186 56.8105 3.89486 56.8105 3.64941C56.8105 2.9554 60.4456 2.46452 67.7158 2.17676ZM71.499 2.39258H71.918L72.54 2.81152L72.1211 6.37891C72.265 6.79362 72.4046 7.00098 72.54 7.00098L72.3369 8.05469V14.1357C72.3369 14.9229 71.9857 15.4137 71.2832 15.6084C71.0039 15.0498 70.7965 14.7705 70.6611 14.7705L70.8643 13.2979V9.51465L70.6611 8.47363C68.486 8.88835 67.1572 9.0957 66.6748 9.0957L66.459 8.67676V8.25781C66.459 7.8431 67.8597 7.42415 70.6611 7.00098L70.8643 6.58203V4.06836C70.8643 3.03581 71.0758 2.47721 71.499 2.39258ZM86.5459 2.81152C86.749 2.81152 86.9606 3.01888 87.1807 3.43359C86.9014 4.75391 86.7617 5.80339 86.7617 6.58203V7.2168L86.5459 7.63574L86.9648 7.83887H89.0596C89.3389 7.83887 89.4785 8.05046 89.4785 8.47363C89.3431 9.03223 89.0638 9.31152 88.6406 9.31152C88.5391 9.31152 88.1201 9.23958 87.3838 9.0957C86.6898 9.0957 86.3428 9.65853 86.3428 10.7842V10.9873L86.5459 13.082C86.2074 13.3613 85.9281 13.501 85.708 13.501C85.2848 13.4079 85.0055 13.1286 84.8701 12.6631C85.1071 6.09538 85.6657 2.81152 86.5459 2.81152ZM82.1406 3.23047C82.4115 3.36589 82.623 3.43359 82.7754 3.43359V4.27148C82.7754 4.46615 81.654 5.86686 79.4111 8.47363V8.89258C80.0036 9.55273 81.3324 10.4626 83.3975 11.6221L83.8164 12.2441C83.8164 12.4473 83.609 12.6589 83.1943 12.8789H82.9785C82.623 12.8789 81.1546 11.9691 78.5732 10.1494L78.1543 9.94629C76.6393 12.2738 75.5898 13.6702 75.0059 14.1357H74.8027C74.5996 14.1357 74.388 13.9242 74.168 13.501V13.082C78.222 7.88542 80.249 5.16016 80.249 4.90625H80.0459C78.3363 5.18555 76.1696 5.3929 73.5459 5.52832L73.3301 5.10938V4.69043C73.3301 4.15723 75.429 3.81022 79.627 3.64941C79.627 3.50553 80.4648 3.36589 82.1406 3.23047ZM81.3027 14.9736C84.5189 15.3883 86.127 16.7171 86.127 18.96C85.3229 21.1943 83.9941 22.3115 82.1406 22.3115H81.7217C79.208 21.9053 77.9512 20.86 77.9512 19.1758C77.9512 16.9753 79.0684 15.5745 81.3027 14.9736ZM79.627 18.3252V18.96C79.8047 20.221 80.431 20.8516 81.5059 20.8516H82.1406C83.8164 20.4622 84.6543 19.6921 84.6543 18.541C84.6543 17.6693 83.6768 16.971 81.7217 16.4463C80.3252 16.6325 79.627 17.2588 79.627 18.3252ZM95.2832 0.526367H95.499C95.6937 0.526367 95.901 0.737956 96.1211 1.16113L95.918 2.41797C96.7135 3.21354 98.3174 4.19108 100.729 5.35059L101.148 6.18848C100.878 6.82324 100.598 7.17025 100.311 7.22949C99.6165 6.3916 98.292 5.55371 96.3369 4.71582C96.3369 4.63118 95.918 4.28418 95.0801 3.6748H94.8643C93.5101 5.64681 92.2533 8.08854 91.0938 11H90.8906C90.6875 11 90.4759 10.7926 90.2559 10.3779V9.95898C90.2559 9.36654 91.3053 7.13216 93.4043 3.25586C93.4043 2.57878 94.0306 1.66895 95.2832 0.526367ZM96.7559 7.64844H97.1748C97.4541 7.69922 97.5938 7.83887 97.5938 8.06738C97.3145 10.9873 97.1748 12.807 97.1748 13.5264C97.3102 13.5264 97.3779 13.5941 97.3779 13.7295L99.4727 13.5264H101.148C101.428 13.5687 101.567 13.7083 101.567 13.9453V14.7832C101.567 14.9779 101.36 15.1852 100.945 15.4053L99.8916 14.9863C99.57 14.9863 98.5247 15.126 96.7559 15.4053L95.7021 15.2021L92.7695 15.4053L92.5664 14.9863V14.1484L93.6074 13.9453H95.499C95.7783 13.9453 95.918 13.8057 95.918 13.5264V11.6348C95.918 8.97721 96.1973 7.64844 96.7559 7.64844ZM113.253 0.513672C113.388 0.513672 113.456 0.585612 113.456 0.729492C113.608 0.729492 113.82 0.657552 114.091 0.513672C117.866 1.10612 119.753 2.71419 119.753 5.33789C119.753 7.32682 118.352 9.0026 115.551 10.3652H115.348V10.5811H119.334C119.334 10.7249 119.402 10.9323 119.537 11.2031C119.258 11.7786 119.118 12.1976 119.118 12.46H119.334C119.613 12.46 119.753 12.3203 119.753 12.041V11.4189C120.058 7.9235 120.544 6.17578 121.213 6.17578H121.632C121.911 6.17578 122.051 6.38314 122.051 6.79785C121.636 8.47363 121.289 10.2214 121.01 12.041L121.213 12.46V14.1357C121.213 15.2106 120.934 15.8411 120.375 16.0273H120.172C120.062 16.0273 119.85 15.8158 119.537 15.3926L119.753 14.9736V14.3516C119.753 14.0723 119.613 13.9326 119.334 13.9326H118.496C116.473 14.2119 115.424 14.3516 115.348 14.3516L115.132 13.9326V13.5137C115.132 12.9551 116.042 12.6038 117.861 12.46V12.2568L116.808 12.041C115.276 12.041 114.51 12.2526 114.51 12.6758V15.6084C114.51 15.9215 114.577 16.2008 114.713 16.4463C114.577 17.0049 114.23 17.2842 113.672 17.2842L113.037 16.4463V12.8789L112.834 12.46C112.487 12.46 111.509 12.5996 109.901 12.8789C109.343 12.6758 109.063 12.4684 109.063 12.2568V11.8379C109.063 11.3809 110.879 11.0296 114.51 10.7842V10.5811C110.735 10.0563 108.848 8.30859 108.848 5.33789C109.127 3.94141 110.037 2.47298 111.577 0.932617C112.694 0.839518 113.253 0.69987 113.253 0.513672ZM110.523 5.33789V5.95996C110.523 7.46647 111.713 8.44824 114.091 8.90527H114.713C115.898 8.90527 117.019 7.9235 118.077 5.95996V5.75684C118.077 3.37858 117.028 2.18945 114.929 2.18945H112.834C111.294 3.14583 110.523 4.19531 110.523 5.33789ZM123.104 5.75684C123.663 5.89225 123.942 6.3112 123.942 7.01367V7.43262L122.686 14.9736C122.965 15.5492 123.104 15.9723 123.104 16.2432C123.104 19.5947 122.686 21.2705 121.848 21.2705C121.018 21.2705 119.689 21.4102 117.861 21.6895C117.303 21.1309 117.023 20.0137 117.023 18.3379C117.023 16.7975 117.514 16.0273 118.496 16.0273L118.915 16.6621L118.699 17.9189C120.519 17.8174 121.429 17.6058 121.429 17.2842V16.6621C121.886 9.39193 122.444 5.75684 123.104 5.75684ZM118.699 19.7979C118.843 19.7979 118.915 19.8698 118.915 20.0137C120.447 19.8698 121.213 19.6582 121.213 19.3789V18.96H121.01C119.469 19.1715 118.699 19.4508 118.699 19.7979ZM140.043 1.55469L140.259 1.97363C140.259 2.69303 140.047 3.11198 139.624 3.23047C131.516 3.23047 127.462 3.57747 127.462 4.27148C127.318 4.54232 127.246 4.75391 127.246 4.90625C127.39 5.64258 127.462 6.34082 127.462 7.00098C130.788 6.58626 134.004 6.30697 137.11 6.16309C137.246 6.43392 137.313 6.64551 137.313 6.79785C137.11 7.35645 136.903 7.63574 136.691 7.63574H136.272C132.413 7.63574 129.544 7.98275 127.665 8.67676L128.3 11.2031C129.07 11.2031 132.075 10.8519 137.313 10.1494H138.367C138.57 10.1494 138.782 10.361 139.002 10.7842C138.731 11.4189 138.452 11.766 138.164 11.8252H135.854C130.538 12.2061 127.881 12.625 127.881 13.082C127.136 13.082 126.506 10.7757 125.989 6.16309V4.90625C125.151 4.36458 124.732 4.01335 124.732 3.85254C124.732 2.70996 129.417 2.01172 138.786 1.75781C138.786 1.6224 139.205 1.55469 140.043 1.55469ZM139.002 13.082L139.205 13.501C139.205 14.2035 139.065 14.5547 138.786 14.5547C136.332 14.6986 134.863 14.7705 134.381 14.7705L134.178 15.1895V18.541C134.178 18.7441 133.966 18.9557 133.543 19.1758C132.984 18.9473 132.705 18.4564 132.705 17.7031V14.9736C130.259 15.2529 127.881 15.6042 125.57 16.0273L125.151 15.3926C125.151 14.4531 129.417 13.7549 137.948 13.2979C137.948 13.154 138.299 13.082 139.002 13.082ZM129.557 17.2842H130.61C130.61 17.5635 130.678 17.7031 130.813 17.7031L130.61 18.7568C130.746 19.9756 130.813 20.6738 130.813 20.8516C131.838 20.8516 134.355 20.4326 138.367 19.5947C138.926 19.7301 139.205 20.0094 139.205 20.4326C139.205 20.915 138.575 21.262 137.313 21.4736L136.895 21.2705L129.976 22.5273C129.561 21.8587 129.354 20.8092 129.354 19.3789V18.3379L129.557 17.2842Z" fill="#222222"/>
</svg>
