<svg width="143" height="23" viewBox="0 0 143 23" fill="none" xmlns="http://www.w3.org/2000/svg">
<path d="M7.27441 1.54199L8.31543 2.16406C10.7529 1.88477 12.2256 1.74512 12.7334 1.74512L13.1523 2.37988C13.0085 3.81022 12.9365 4.92741 12.9365 5.73145C12.9365 6.15462 13.0085 6.36621 13.1523 6.36621L12.9365 7.41992V9.93359C12.9365 10.069 12.6572 10.3483 12.0986 10.7715L11.2607 10.3525L11.4639 8.87988V3.63672C11.4639 3.35742 11.3242 3.21777 11.0449 3.21777C8.94596 3.21777 7.89648 3.77637 7.89648 4.89355L7.69336 5.94727C7.82878 6.86979 7.89648 7.77962 7.89648 8.67676V9.51465C7.89648 10.2679 7.61719 10.7588 7.05859 10.9873C6.85547 10.9873 6.64388 10.7757 6.42383 10.3525V3.4209H6.2207C5.03581 3.4209 3.35579 3.63249 1.18066 4.05566L0.761719 3.4209V3.21777C0.761719 2.61686 2.86068 2.12598 7.05859 1.74512C7.05859 1.6097 7.13053 1.54199 7.27441 1.54199ZM14.6123 11.8252C15.1709 11.9606 15.4502 12.2399 15.4502 12.6631L14.8281 13.7168L13.7744 13.501H11.2607C11.1169 14.4997 11.0449 15.0583 11.0449 15.1768L11.4639 15.3926H13.5713C13.8506 15.4349 13.9902 15.5745 13.9902 15.8115V16.6494L13.7744 17.9062L13.9902 18.3252C13.9902 19.6286 12.2383 20.3988 8.73438 20.6357V21.0547H10.207C10.3509 21.0547 10.4229 21.1266 10.4229 21.2705L14.6123 20.6357C14.8831 20.7796 15.0947 20.8516 15.2471 20.8516V21.0547C15.2471 21.901 14.7562 22.3242 13.7744 22.3242C12.0986 22.4258 11.2607 22.5654 11.2607 22.7432C11.1169 22.7432 11.0449 22.6712 11.0449 22.5273L8.53125 22.7432H8.1123C7.58757 22.7432 7.16862 21.973 6.85547 20.4326C6.85547 19.6032 8.32389 19.1123 11.2607 18.96C11.9548 18.6045 12.3018 18.3252 12.3018 18.1221V17.2842L12.0986 16.8652L7.05859 17.7031L6.85547 17.2842V16.4463C8.81055 16.0231 9.78809 15.6719 9.78809 15.3926V13.7168C9.22949 13.7168 8.9502 13.6449 8.9502 13.501C5.33626 14.0596 3.30501 14.3389 2.85645 14.3389C2.57715 14.3389 2.4375 14.1992 2.4375 13.9199V13.7168C2.4375 12.7604 6.49577 12.1299 14.6123 11.8252ZM31.9697 1.97363L32.3887 2.5957C32.1094 4.79622 31.902 7.52572 31.7666 10.7842C31.902 10.9619 31.9697 11.4486 31.9697 12.2441C31.9697 12.4303 31.6227 12.7816 30.9287 13.2979H30.7129C30.4336 13.2979 30.2939 13.1582 30.2939 12.8789C30.2939 12.752 30.3659 12.1934 30.5098 11.2031L30.2939 10.7842L30.5098 9.51465V8.67676L30.2939 8.25781C29.7438 8.40169 29.2529 8.61328 28.8213 8.89258L29.0371 9.94629C28.8932 10.6742 28.8213 11.0931 28.8213 11.2031C28.9652 11.474 29.0371 11.6813 29.0371 11.8252C28.8932 12.3838 28.542 12.6631 27.9834 12.6631C27.5687 12.0537 27.3613 11.5671 27.3613 11.2031C27.3613 10.9238 27.429 10.7842 27.5645 10.7842L27.3613 8.67676V8.25781C27.4629 4.20378 27.8818 2.17676 28.6182 2.17676H29.0371C29.3164 2.21908 29.4561 2.35872 29.4561 2.5957V3.01465C29.0329 4.83431 28.8213 6.02344 28.8213 6.58203V7.00098H30.0908C30.4801 7.00098 30.7594 5.53255 30.9287 2.5957C31.2588 2.18099 31.6058 1.97363 31.9697 1.97363ZM23.1592 3.23047L23.5781 3.43359H24.6318C24.7757 3.43359 24.8477 3.36589 24.8477 3.23047C25.0085 3.23047 25.3555 3.43783 25.8887 3.85254C25.2878 5.15592 24.0986 6.90365 22.3213 9.0957V9.51465C24.488 10.9196 25.6094 11.7617 25.6855 12.041V12.2441C25.6855 12.4473 25.474 12.6589 25.0508 12.8789C24.543 12.8789 23.3538 12.1087 21.4834 10.5684H21.0645C20.8867 11.5586 20.1885 12.5361 18.9697 13.501H18.7539C18.4746 13.501 18.335 13.3613 18.335 13.082V12.8789C18.335 12.2949 19.8034 10.0563 22.7402 6.16309C23.2988 5.53678 23.5781 5.0459 23.5781 4.69043H22.9561L21.6992 4.90625C21.5553 4.90625 21.4834 4.83431 21.4834 4.69043L17.0781 5.3252C16.6634 5.22363 16.3841 4.94434 16.2402 4.4873C16.2402 3.87793 17.4971 3.52669 20.0107 3.43359V3.64941L20.4297 3.43359H22.9561C23.0915 3.43359 23.1592 3.36589 23.1592 3.23047ZM23.1592 14.9736H29.875L30.2939 15.1895C30.1585 16.5859 30.0908 17.6312 30.0908 18.3252L30.2939 19.5947C30.1331 20.1195 29.7861 20.6061 29.2529 21.0547L28.8213 20.8516H27.9834C25.3089 21.4102 23.7728 21.6895 23.375 21.6895C22.918 21.6895 22.5667 19.9417 22.3213 16.4463C22.5667 15.4645 22.846 14.9736 23.1592 14.9736ZM24.8477 16.4463H24.2129C23.9336 16.4463 23.7939 16.6536 23.7939 17.0684C23.8955 19.0319 24.1748 20.0137 24.6318 20.0137C26.333 19.7344 27.3105 19.5228 27.5645 19.3789C27.8099 19.5228 28.0892 19.5947 28.4023 19.5947L28.6182 19.1758V16.6494L28.4023 16.2305C26.7604 16.3743 25.5755 16.4463 24.8477 16.4463ZM34.6387 2.17676C34.918 2.5153 35.0576 2.7946 35.0576 3.01465C34.7783 4.89355 34.6387 6.08268 34.6387 6.58203V7.63574C37.5501 7.35645 39.6491 7.2168 40.9355 7.2168L41.1387 6.79785C41.0033 5.36751 40.9355 4.24609 40.9355 3.43359C40.9355 3.29818 41.2148 3.01888 41.7734 2.5957L42.6113 3.01465C42.4674 5.11361 42.3955 6.65397 42.3955 7.63574V11.4062C42.3955 12.0156 42.2559 12.5785 41.9766 13.0947L40.085 12.8789C38.9593 12.8789 37.0042 13.0186 34.2197 13.2979C33.8304 13.2979 33.4792 11.4105 33.166 7.63574C33.166 3.99642 33.6569 2.17676 34.6387 2.17676ZM34.8418 9.31152V9.73047C34.8418 10.763 35.0534 11.3216 35.4766 11.4062H39.4629L40.9355 11.2031V9.31152C40.9355 8.98991 40.5843 8.78255 39.8818 8.68945C39.2555 8.68945 37.5755 8.89681 34.8418 9.31152ZM38.2061 13.5137H38.8281L39.0439 14.5547V16.6621H39.8818C40.652 16.6621 41.6296 16.5902 42.8145 16.4463C43.4661 16.6325 43.8174 16.9118 43.8682 17.2842C43.5804 18.1221 43.3011 18.541 43.0303 18.541C42.5732 18.2617 42.1543 18.1221 41.7734 18.1221H41.5576C40.3896 18.1221 38.2907 18.2617 35.2607 18.541C34.9899 18.4056 34.7826 18.3379 34.6387 18.3379V17.5C34.6387 17.1191 35.6162 16.8398 37.5713 16.6621V14.7705C37.6559 13.9326 37.8675 13.5137 38.2061 13.5137ZM57.874 2.81152C58.0771 2.81152 58.2887 3.01888 58.5088 3.43359C58.2295 4.75391 58.0898 5.80339 58.0898 6.58203V7.2168L57.874 7.63574L58.293 7.83887H60.3877C60.667 7.83887 60.8066 8.05046 60.8066 8.47363C60.6712 9.03223 60.3919 9.31152 59.9688 9.31152C59.8672 9.31152 59.4482 9.23958 58.7119 9.0957C58.0179 9.0957 57.6709 9.65853 57.6709 10.7842V10.9873L57.874 13.082C57.5355 13.3613 57.2562 13.501 57.0361 13.501C56.613 13.4079 56.3337 13.1286 56.1982 12.6631C56.4352 6.09538 56.9938 2.81152 57.874 2.81152ZM53.4688 3.23047C53.7396 3.36589 53.9512 3.43359 54.1035 3.43359V4.27148C54.1035 4.46615 52.9821 5.86686 50.7393 8.47363V8.89258C51.3317 9.55273 52.6605 10.4626 54.7256 11.6221L55.1445 12.2441C55.1445 12.4473 54.9372 12.6589 54.5225 12.8789H54.3066C53.9512 12.8789 52.4827 11.9691 49.9014 10.1494L49.4824 9.94629C47.9674 12.2738 46.918 13.6702 46.334 14.1357H46.1309C45.9277 14.1357 45.7161 13.9242 45.4961 13.501V13.082C49.5501 7.88542 51.5771 5.16016 51.5771 4.90625H51.374C49.6644 5.18555 47.4977 5.3929 44.874 5.52832L44.6582 5.10938V4.69043C44.6582 4.15723 46.7572 3.81022 50.9551 3.64941C50.9551 3.50553 51.793 3.36589 53.4688 3.23047ZM52.6309 14.9736C55.847 15.3883 57.4551 16.7171 57.4551 18.96C56.651 21.1943 55.3223 22.3115 53.4688 22.3115H53.0498C50.5361 21.9053 49.2793 20.86 49.2793 19.1758C49.2793 16.9753 50.3965 15.5745 52.6309 14.9736ZM50.9551 18.3252V18.96C51.1328 20.221 51.7591 20.8516 52.834 20.8516H53.4688C55.1445 20.4622 55.9824 19.6921 55.9824 18.541C55.9824 17.6693 55.0049 16.971 53.0498 16.4463C51.6533 16.6325 50.9551 17.2588 50.9551 18.3252ZM63.6787 3.66211L63.8945 4.08105C63.8945 4.60579 63.6152 6.07422 63.0566 8.48633C63.0566 8.62174 63.1243 8.68945 63.2598 8.68945L63.0566 10.1621V11.8379L63.2598 13.0947C63.1667 13.4671 62.8197 13.8141 62.2188 14.1357C62.0156 14.1357 61.804 13.9284 61.584 13.5137C61.584 6.94596 62.2145 3.66211 63.4756 3.66211H63.6787ZM62.4219 15.8115H62.8408C63.1201 15.8623 63.2598 16.0062 63.2598 16.2432V16.8652C63.2598 16.9753 63.0524 17.1868 62.6377 17.5C62.2145 17.3984 61.9352 17.1191 61.7998 16.6621C62.0029 16.0951 62.2103 15.8115 62.4219 15.8115ZM75.5674 0.513672C75.7028 0.513672 75.7705 0.585612 75.7705 0.729492C75.9229 0.729492 76.1344 0.657552 76.4053 0.513672C80.18 1.10612 82.0674 2.71419 82.0674 5.33789C82.0674 7.32682 80.6667 9.0026 77.8652 10.3652H77.6621V10.5811H81.6484C81.6484 10.7249 81.7161 10.9323 81.8516 11.2031C81.5723 11.7786 81.4326 12.1976 81.4326 12.46H81.6484C81.9277 12.46 82.0674 12.3203 82.0674 12.041V11.4189C82.3721 7.9235 82.8587 6.17578 83.5273 6.17578H83.9463C84.2256 6.17578 84.3652 6.38314 84.3652 6.79785C83.9505 8.47363 83.6035 10.2214 83.3242 12.041L83.5273 12.46V14.1357C83.5273 15.2106 83.248 15.8411 82.6895 16.0273H82.4863C82.3763 16.0273 82.1647 15.8158 81.8516 15.3926L82.0674 14.9736V14.3516C82.0674 14.0723 81.9277 13.9326 81.6484 13.9326H80.8105C78.7878 14.2119 77.7383 14.3516 77.6621 14.3516L77.4463 13.9326V13.5137C77.4463 12.9551 78.3561 12.6038 80.1758 12.46V12.2568L79.1221 12.041C77.5902 12.041 76.8242 12.2526 76.8242 12.6758V15.6084C76.8242 15.9215 76.8919 16.2008 77.0273 16.4463C76.8919 17.0049 76.5449 17.2842 75.9863 17.2842L75.3516 16.4463V12.8789L75.1484 12.46C74.8014 12.46 73.8239 12.5996 72.2158 12.8789C71.6572 12.6758 71.3779 12.4684 71.3779 12.2568V11.8379C71.3779 11.3809 73.1934 11.0296 76.8242 10.7842V10.5811C73.0495 10.0563 71.1621 8.30859 71.1621 5.33789C71.4414 3.94141 72.3512 2.47298 73.8916 0.932617C75.0088 0.839518 75.5674 0.69987 75.5674 0.513672ZM72.8379 5.33789V5.95996C72.8379 7.46647 74.027 8.44824 76.4053 8.90527H77.0273C78.2122 8.90527 79.3337 7.9235 80.3916 5.95996V5.75684C80.3916 3.37858 79.3421 2.18945 77.2432 2.18945H75.1484C73.6081 3.14583 72.8379 4.19531 72.8379 5.33789ZM85.4189 5.75684C85.9775 5.89225 86.2568 6.3112 86.2568 7.01367V7.43262L85 14.9736C85.2793 15.5492 85.4189 15.9723 85.4189 16.2432C85.4189 19.5947 85 21.2705 84.1621 21.2705C83.3327 21.2705 82.0039 21.4102 80.1758 21.6895C79.6172 21.1309 79.3379 20.0137 79.3379 18.3379C79.3379 16.7975 79.8288 16.0273 80.8105 16.0273L81.2295 16.6621L81.0137 17.9189C82.8333 17.8174 83.7432 17.6058 83.7432 17.2842V16.6621C84.2002 9.39193 84.7588 5.75684 85.4189 5.75684ZM81.0137 19.7979C81.1576 19.7979 81.2295 19.8698 81.2295 20.0137C82.7614 19.8698 83.5273 19.6582 83.5273 19.3789V18.96H83.3242C81.7839 19.1715 81.0137 19.4508 81.0137 19.7979ZM102.357 1.55469L102.573 1.97363C102.573 2.69303 102.362 3.11198 101.938 3.23047C93.8304 3.23047 89.7764 3.57747 89.7764 4.27148C89.6325 4.54232 89.5605 4.75391 89.5605 4.90625C89.7044 5.64258 89.7764 6.34082 89.7764 7.00098C93.1025 6.58626 96.3187 6.30697 99.4248 6.16309C99.5602 6.43392 99.6279 6.64551 99.6279 6.79785C99.4248 7.35645 99.2174 7.63574 99.0059 7.63574H98.5869C94.7275 7.63574 91.8584 7.98275 89.9795 8.67676L90.6143 11.2031C91.3844 11.2031 94.389 10.8519 99.6279 10.1494H100.682C100.885 10.1494 101.096 10.361 101.316 10.7842C101.046 11.4189 100.766 11.766 100.479 11.8252H98.168C92.8529 12.2061 90.1953 12.625 90.1953 13.082C89.4505 13.082 88.82 10.7757 88.3037 6.16309V4.90625C87.4658 4.36458 87.0469 4.01335 87.0469 3.85254C87.0469 2.70996 91.7314 2.01172 101.101 1.75781C101.101 1.6224 101.52 1.55469 102.357 1.55469ZM101.316 13.082L101.52 13.501C101.52 14.2035 101.38 14.5547 101.101 14.5547C98.6462 14.6986 97.1777 14.7705 96.6953 14.7705L96.4922 15.1895V18.541C96.4922 18.7441 96.2806 18.9557 95.8574 19.1758C95.2988 18.9473 95.0195 18.4564 95.0195 17.7031V14.9736C92.5736 15.2529 90.1953 15.6042 87.8848 16.0273L87.4658 15.3926C87.4658 14.4531 91.7314 13.7549 100.263 13.2979C100.263 13.154 100.614 13.082 101.316 13.082ZM91.8711 17.2842H92.9248C92.9248 17.5635 92.9925 17.7031 93.1279 17.7031L92.9248 18.7568C93.0602 19.9756 93.1279 20.6738 93.1279 20.8516C94.152 20.8516 96.6699 20.4326 100.682 19.5947C101.24 19.7301 101.52 20.0094 101.52 20.4326C101.52 20.915 100.889 21.262 99.6279 21.4736L99.209 21.2705L92.29 22.5273C91.8753 21.8587 91.668 20.8092 91.668 19.3789V18.3379L91.8711 17.2842ZM124.961 2.17676C125.24 2.5153 125.38 2.7946 125.38 3.01465C125.101 3.01465 124.889 4.69466 124.745 8.05469H124.961L127.056 7.83887L127.271 8.25781V9.0957C125.587 9.41732 124.745 9.70085 124.745 9.94629V10.1494C124.745 10.8857 124.817 12.0749 124.961 13.7168L124.326 14.1357H124.123C123.7 13.9919 123.488 13.5729 123.488 12.8789C123.488 11.5924 123.421 9.77279 123.285 7.41992C123.488 3.92448 123.975 2.17676 124.745 2.17676H124.961ZM122.65 2.5957L123.069 3.23047L122.435 4.27148L122.016 4.06836H120.34C119.925 4.06836 119.646 5.25749 119.502 7.63574V8.05469C119.502 9.86589 119.642 11.1227 119.921 11.8252L121.812 11.4062C122.083 11.5501 122.291 11.6221 122.435 11.6221V12.041C122.435 12.862 119.218 13.5602 112.786 14.1357L112.583 13.7168V13.2979C112.583 13.0863 112.862 12.8747 113.421 12.6631C113.142 10.5895 113.002 8.2832 113.002 5.74414C113.002 5.64258 113.07 5.22363 113.205 4.4873H110.488C110.285 4.4873 110.074 4.27572 109.854 3.85254V3.64941C109.913 3.36165 110.264 3.08236 110.907 2.81152L112.786 3.01465L113.205 2.81152C113.349 2.81152 113.421 2.87923 113.421 3.01465L122.65 2.5957ZM114.259 6.58203C114.259 10.6361 114.678 12.6631 115.516 12.6631C115.744 12.6631 116.654 12.4557 118.245 12.041V6.58203L118.461 4.06836C115.803 4.06836 114.475 4.41536 114.475 5.10938L114.259 6.58203ZM141.684 1.12305H142.103C142.382 1.12305 142.521 1.33464 142.521 1.75781C142.521 1.9694 142.382 2.59993 142.103 3.64941C142.246 6.23079 142.318 8.39746 142.318 10.1494C142.318 10.3018 142.386 10.5133 142.521 10.7842C142.386 11.0296 142.318 11.3089 142.318 11.6221V12.041C142.318 12.1764 142.386 12.2441 142.521 12.2441L142.318 12.6631C142.454 13.6618 142.521 14.2246 142.521 14.3516C142.251 14.9863 141.971 15.3333 141.684 15.3926H141.48C141.142 15.3926 140.93 14.762 140.846 13.501L141.062 13.082L140.846 12.6631L141.062 11.2031C141.062 11.0508 140.99 10.8392 140.846 10.5684C140.846 10.4245 140.918 10.2171 141.062 9.94629C140.918 8.41439 140.846 7.08561 140.846 5.95996V3.64941C140.846 1.96517 141.125 1.12305 141.684 1.12305ZM136.44 2.5957L136.859 2.81152C137.613 2.66764 138.243 2.5957 138.751 2.5957H139.17C139.449 2.63802 139.589 2.77767 139.589 3.01465V3.23047C139.31 3.56901 139.17 3.84831 139.17 4.06836H137.913C135.399 4.06836 133.021 4.27572 130.778 4.69043V6.37891C130.778 6.51432 130.706 6.58203 130.562 6.58203L130.778 7.00098V8.25781H130.981C133.402 7.69922 135.501 7.35221 137.278 7.2168L137.697 7.83887V8.25781L137.278 8.89258L136.225 8.67676C133.203 9.16764 131.527 9.59082 131.197 9.94629C131.333 10.9365 131.4 11.4951 131.4 11.6221C132.306 11.6221 134.545 11.3428 138.116 10.7842C138.319 10.7842 138.531 10.9915 138.751 11.4062C138.751 12.2272 136.792 12.7181 132.873 12.8789C132.873 13.1582 132.175 13.2979 130.778 13.2979C130.135 12.2992 129.576 9.50195 129.103 4.90625C128.544 4.90625 128.193 4.62695 128.049 4.06836C128.049 3.56055 130.846 3.06966 136.44 2.5957Z" fill="#222222"/>
</svg>
