<svg width="120" height="26" viewBox="0 0 120 26" fill="none" xmlns="http://www.w3.org/2000/svg">
<path d="M11.5479 1.30762C12.0205 1.37923 12.2568 1.85547 12.2568 2.73633V6.85059C12.2568 7.02962 12.0205 7.20866 11.5479 7.3877L11.1934 6.85059V2.55371C11.1934 2.31738 11.0716 2.19922 10.8281 2.19922H10.1191C9.56771 2.19922 8.61523 2.31738 7.26172 2.55371L7.0791 2.19922V2.0166C7.0791 1.54395 8.56868 1.30762 11.5479 1.30762ZM4.22168 1.84473H4.75879C5.58952 1.84473 6.00488 2.2028 6.00488 2.91895C5.8903 3.92871 5.83301 4.76302 5.83301 5.42188V7.3877C5.83301 7.55957 5.65397 7.73861 5.2959 7.9248C5.05957 7.80306 4.88053 7.74219 4.75879 7.74219C4.87337 5.54362 4.93066 3.93587 4.93066 2.91895C4.39355 2.91895 4.03548 2.85807 3.85645 2.73633C3.17611 2.85807 2.28451 3.09798 1.18164 3.45605C0.952474 3.33431 0.773438 3.27344 0.644531 3.27344V2.38184C2.32747 2.02376 3.51986 1.84473 4.22168 1.84473ZM14.4053 10.9541L14.5879 11.3193C14.5879 11.9137 13.2773 12.2109 10.6562 12.2109L10.291 12.748C10.4128 14.9395 10.5918 16.25 10.8281 16.6797L10.4736 17.3887H12.7939C13.3167 17.3887 13.6175 18.5238 13.6963 20.7939C13.3883 21.2236 11.3617 21.818 7.61621 22.5771C7.61621 22.6989 7.49805 22.7598 7.26172 22.7598V22.9316C7.54102 24.2422 8.07454 24.8975 8.8623 24.8975H10.8281C13.2559 24.8975 14.8063 24.7184 15.4795 24.3604L15.834 24.8975C15.6693 25.4919 15.2539 25.7891 14.5879 25.7891C14.4661 25.7891 14.4053 25.7318 14.4053 25.6172C13.0732 25.8535 11.5264 25.9717 9.76465 25.9717C7.73796 25.9717 6.72461 25.4346 6.72461 24.3604C6.48828 24.3389 6.30924 23.9235 6.1875 23.1143V22.5771C6.1875 22.1117 8.27148 21.3955 12.4395 20.4287C12.5612 20.1995 12.6221 20.0205 12.6221 19.8916C12.6221 19.376 12.5003 18.8424 12.2568 18.291C11.1182 18.5273 9.09505 18.6455 6.1875 18.6455C6.1875 18.5238 6.12663 18.4629 6.00488 18.4629C6.09798 17.8685 7.40853 17.5713 9.93652 17.5713V17.3887C9.72884 17.3887 9.49251 15.7809 9.22754 12.5654C7.3584 12.6872 5.98698 12.748 5.11328 12.748C4.6263 12.748 3.91016 12.6299 2.96484 12.3936V11.8564L3.14746 11.4912L5.65039 11.6738C8.65104 11.4375 11.5693 11.1403 14.4053 10.7822V10.9541ZM29.0244 4.70215H29.207C29.3717 4.70215 29.5472 4.88118 29.7334 5.23926L30.2705 13.6396V13.8115C30.2705 14.0479 30.1523 14.166 29.916 14.166H29.3789L29.207 13.2744V12.3828C29.1283 10.0052 28.9492 8.81641 28.6699 8.81641C28.2975 8.81641 27.1051 8.99186 25.0928 9.34277L24.9102 8.98828V8.81641C24.9102 8.53711 26.2207 8.11816 28.8418 7.55957V7.37695C28.7272 6.36719 28.6699 5.53646 28.6699 4.88477L29.0244 4.70215ZM20.2695 5.23926L20.624 5.77637V5.94824C20.624 6.19173 20.3877 7.14779 19.915 8.81641C21.2256 10.0482 21.8809 10.6999 21.8809 10.7715C22.7116 9.0957 23.127 7.96419 23.127 7.37695H22.418L21.1611 7.55957C21.1611 7.32324 21.043 7.20508 20.8066 7.20508C20.8066 6.75391 21.8773 6.39583 24.0186 6.13086C24.0544 6.36719 24.1725 6.48535 24.373 6.48535L23.6641 9.52539C25.2109 11.0436 25.9844 11.9388 25.9844 12.2109C25.8698 12.4401 25.8125 12.6156 25.8125 12.7373H25.2754C24.1296 11.3122 23.4743 10.5996 23.3096 10.5996H23.127C22.9264 10.5996 22.5684 11.4339 22.0527 13.1025C21.9382 13.1025 21.8809 13.1598 21.8809 13.2744C21.5228 13.1885 21.2829 12.9521 21.1611 12.5654L21.5156 11.6738C21.3366 11.6738 20.624 11.0186 19.3779 9.70801C18.6618 10.9541 18.3037 11.7275 18.3037 12.0283H17.4121V11.6738C17.4121 11.4447 17.9456 10.3704 19.0127 8.45117C19.2562 7.4987 19.3779 6.9043 19.3779 6.66797V6.48535C19.0986 6.48535 18.2643 6.66439 16.875 7.02246C16.6458 6.90788 16.4668 6.85059 16.3379 6.85059V6.31348C16.3379 6.0485 17.6484 5.69043 20.2695 5.23926ZM28.8418 15.7773C29.1641 15.7773 29.4613 17.804 29.7334 21.8574C29.5544 22.3301 29.3789 22.5664 29.207 22.5664H29.0244C28.6663 22.5664 28.4264 20.7223 28.3047 17.0342C28.1829 17.0342 28.0039 16.9733 27.7676 16.8516L23.8467 17.5713C23.3669 17.3923 23.127 17.2132 23.127 17.0342V16.8516C23.3346 16.2572 25.0605 15.96 28.3047 15.96C28.3047 15.8382 28.4837 15.7773 28.8418 15.7773ZM34.5342 3.98242L34.8994 4.51953V6.85059C34.8994 7.08691 35.0749 7.20508 35.4258 7.20508C35.5762 7.20508 36.1742 7.14421 37.2197 7.02246L37.3916 7.37695V7.74219C37.3916 7.91406 37.2161 8.0931 36.8652 8.2793H32.3965L31.1396 8.45117L30.7852 7.91406C30.7852 7.55599 31.7985 7.25879 33.8252 7.02246L33.9971 5.23926V4.16504C34.126 4.16504 34.305 4.10417 34.5342 3.98242ZM43.1172 4.34766H43.6543V8.63379L43.4717 9.70801C43.5934 10.3024 43.7116 10.5996 43.8262 10.5996C45.4518 10.4779 46.4652 10.417 46.8662 10.417L47.0488 10.7715V11.3086C47.0488 11.5521 46.9271 11.6738 46.6836 11.6738L45.4375 11.4912C44.2487 11.5843 43.6543 11.7633 43.6543 12.0283V12.3828C43.6543 13.0417 43.7116 13.876 43.8262 14.8857C43.8262 15.3656 43.529 15.7236 42.9346 15.96L42.5801 15.4229C42.5801 14.3057 42.6374 13.1742 42.752 12.0283C42.752 11.8421 42.6947 10.8896 42.5801 9.1709C42.6947 7.41634 42.752 5.86589 42.752 4.51953L43.1172 4.34766ZM34.8994 9.70801C35.9951 9.70801 36.7077 10.4814 37.0371 12.0283V12.3828C37.0371 13.3353 36.3818 13.9297 35.0713 14.166H34.8994C33.5889 14.166 32.9336 13.6325 32.9336 12.5654V11.4912C32.9336 10.5745 33.5889 9.98014 34.8994 9.70801ZM33.8252 12.3828C33.861 12.6979 34.1582 12.9951 34.7168 13.2744C35.6693 12.9593 36.1455 12.6621 36.1455 12.3828V12.2109C36.1455 11.2513 35.7301 10.7715 34.8994 10.7715H34.7168C34.3874 10.7715 34.0902 11.3086 33.8252 12.3828ZM38.6484 16.1318C38.8418 16.3252 39.0781 17.5176 39.3574 19.709H39.7227C42.8522 19.5872 44.6963 19.5264 45.2549 19.5264L45.4375 19.8916V20.2461C45.4375 20.4824 45.2585 20.6006 44.9004 20.6006C41.6562 20.7223 39.6904 20.7832 39.0029 20.7832V20.9658C38.4085 20.7939 38.1113 20.375 38.1113 19.709V16.3145C38.2402 16.3145 38.4193 16.2536 38.6484 16.1318ZM57.4668 3.81055H58.0039C58.2402 4.58398 58.3584 5.11751 58.3584 5.41113V6.48535L58.541 6.85059L59.4326 6.66797H59.6152C60.3958 6.66797 60.9294 6.9043 61.2158 7.37695C61.2158 7.65625 60.8613 8.3724 60.1523 9.52539C60.1523 9.64714 60.2096 9.70801 60.3242 9.70801C61.1764 10.1377 62.2507 10.4349 63.5469 10.5996V11.3086L62.8271 11.4912C62.5192 11.4912 61.3268 11.1331 59.25 10.417C59.25 10.6032 58.4157 11.3766 56.7471 12.7373H56.3926C56.1562 12.7373 56.0381 12.6191 56.0381 12.3828V12.2109C58.1221 10.3991 59.4326 9.02767 59.9697 8.09668V7.55957C59.4111 7.55957 57.9824 7.91764 55.6836 8.63379C55.4401 8.63379 55.3184 8.51562 55.3184 8.2793V7.74219C56.6719 7.74219 57.388 7.26595 57.4668 6.31348V3.81055ZM66.5762 5.59375H66.7588C66.9951 5.59375 67.1133 5.77279 67.1133 6.13086C67.3138 15.541 67.5537 20.2461 67.833 20.2461C67.6755 20.8405 67.4964 21.1377 67.2959 21.1377H66.7588C66.7588 20.8727 66.6979 20.6364 66.5762 20.4287C66.5762 20.307 66.637 20.2461 66.7588 20.2461L66.5762 18.0977V16.1318H64.9756C64.2236 16.1318 60.6501 16.5508 54.2549 17.3887L54.0723 17.0342V16.6689C56.0632 16.404 57.5527 16.1068 58.541 15.7773C58.6556 15.5697 58.7129 15.3333 58.7129 15.0684V12.9199C58.7559 12.6836 58.8776 12.5654 59.0781 12.5654H59.6152L59.4326 13.8115C59.4326 15.1221 59.6725 15.7773 60.1523 15.7773C63.1243 15.3047 65.0293 15.0684 65.8672 15.0684C66.0964 15.1829 66.2754 15.2402 66.4043 15.2402C66.2826 10.929 66.2217 7.83171 66.2217 5.94824C66.2575 5.71191 66.3757 5.59375 66.5762 5.59375ZM77.6396 2.55371H78.3486C78.8285 5.41113 79.0684 7.91406 79.0684 10.0625L78.8857 11.8457C79.0075 12.2897 79.0684 12.8268 79.0684 13.457L78.7139 13.6396H78.5312C78.4382 13.6396 78.2591 13.4606 77.9941 13.1025C78.1159 11.9137 78.1768 11.0186 78.1768 10.417V10.2451C78.1768 7.53092 77.9368 5.14616 77.457 3.09082C77.5788 2.86165 77.6396 2.68262 77.6396 2.55371ZM72.6338 2.73633H72.8164C73.0527 2.77214 73.1709 2.8903 73.1709 3.09082V3.27344L71.0225 5.94824V6.48535C71.223 6.48535 72.5335 7.2015 74.9541 8.63379C75.6702 8.63379 76.0283 8.81283 76.0283 9.1709V9.34277C76.0283 9.70085 75.792 9.87988 75.3193 9.87988C72.2829 8.09668 70.6143 7.20508 70.3135 7.20508C69.4183 8.8737 68.8812 9.70801 68.7021 9.70801C68.4658 9.70801 68.3477 9.58626 68.3477 9.34277V8.81641C69.8516 6.01628 71.2803 3.98958 72.6338 2.73633ZM72.0967 13.8115C72.4906 13.8115 72.9095 15.4801 73.3535 18.8174C73.5827 18.9391 73.7617 19 73.8906 19C75.194 19 77.5752 18.8783 81.0342 18.6348C81.5068 18.8138 81.7432 18.9928 81.7432 19.1719V19.3545L81.3887 19.8916L79.7773 19.709C79.541 19.709 77.2207 19.8271 72.8164 20.0635C72.5801 19.3688 72.1611 17.403 71.5596 14.166L72.0967 13.8115ZM92.709 0.953125H93.9658C94.861 0.953125 95.5163 1.25033 95.9316 1.84473V2.02734C95.5664 4.16862 94.9111 5.23926 93.9658 5.23926C92.0537 4.93848 91.0977 4.22233 91.0977 3.09082V2.55371C91.2552 1.48665 91.7923 0.953125 92.709 0.953125ZM93.0635 1.84473C93.0635 2.36751 92.7663 2.78288 92.1719 3.09082V3.27344C92.4798 3.86784 92.9561 4.16504 93.6006 4.16504H93.9658C94.3382 4.16504 94.6927 3.50977 95.0293 2.19922L94.4922 1.84473H93.0635ZM100.218 1.66211L100.755 2.02734L100.572 3.81055V5.05664C100.572 5.6224 100.633 6.22038 100.755 6.85059C100.633 7.2946 100.572 7.82812 100.572 8.45117V8.98828L100.755 10.0625C100.633 10.263 100.572 10.5602 100.572 10.9541C100.572 11.792 100.69 12.2109 100.927 12.2109C100.748 12.6836 100.569 12.9199 100.39 12.9199H100.218C99.8597 12.8483 99.6807 12.3721 99.6807 11.4912V11.3193C99.6807 10.639 99.7415 10.2201 99.8633 10.0625C99.7415 9.41797 99.6807 8.88086 99.6807 8.45117V6.66797C97.9261 7.02604 96.8519 7.20508 96.458 7.20508L96.2861 6.85059V6.48535C96.2861 6.33496 97.2995 6.03776 99.3262 5.59375C99.3262 5.47917 99.4443 5.42188 99.6807 5.42188V2.19922C99.6807 2.02734 99.8597 1.84831 100.218 1.66211ZM103.075 2.38184H103.43L103.795 2.55371L103.612 4.34766V7.3877C103.612 9.06348 103.852 11.4447 104.332 14.5312L103.795 14.8857C103.286 14.8857 102.928 12.0856 102.721 6.48535V2.73633C102.757 2.5 102.875 2.38184 103.075 2.38184ZM96.8232 8.09668C97.0309 8.21842 97.2673 8.2793 97.5322 8.2793V8.98828C97.5322 9.08138 97.3532 9.26042 96.9951 9.52539L95.749 9.35352H94.6748L94.4922 10.2451V12.3936C94.7357 13.2386 94.8574 13.7148 94.8574 13.8223C94.7357 14.2949 94.4385 14.5312 93.9658 14.5312L93.6006 13.9941V13.8223C93.6006 12.8698 93.5433 11.6165 93.4287 10.0625C93.5433 9.83333 93.6006 9.6543 93.6006 9.52539L93.2461 9.35352H89.1318C88.8955 9.35352 88.7773 9.23177 88.7773 8.98828V8.45117L89.6689 8.2793H96.6406C96.7624 8.2793 96.8232 8.21842 96.8232 8.09668ZM97.5322 16.3252H97.8975C98.1338 16.361 98.252 16.4792 98.252 16.6797V19.1826C98.2878 19.4189 98.4059 19.5371 98.6064 19.5371H98.9609C100.873 19.5371 101.829 19.3581 101.829 19V16.6797C101.865 16.4434 101.983 16.3252 102.184 16.3252H102.538C102.774 16.361 102.893 16.4792 102.893 16.6797C102.893 16.8587 102.774 17.3958 102.538 18.291C102.538 18.5059 102.656 18.9821 102.893 19.7197L102.721 20.0742C102.835 20.7188 102.893 21.2559 102.893 21.6855V22.04C102.893 22.5199 101.285 22.7598 98.0693 22.7598C97.4749 21.041 97.1777 19.1325 97.1777 17.0342V16.6797C97.2135 16.4434 97.3317 16.3252 97.5322 16.3252ZM98.4238 21.1484C98.5456 21.3776 98.6064 21.5566 98.6064 21.6855H99.6807C101.228 21.6855 102.001 21.4456 102.001 20.9658C101.886 20.7367 101.829 20.5576 101.829 20.4287H101.292C99.3799 20.4287 98.4238 20.6686 98.4238 21.1484ZM113.956 3.08008H114.311V3.2627C114.311 3.97884 113.777 4.33691 112.71 4.33691C112.309 4.33691 111.353 4.45508 109.842 4.69141V6.65723L110.024 7.02246C111.636 6.87923 113.007 6.7002 114.139 6.48535L114.848 7.02246C114.669 7.49512 114.49 7.73145 114.311 7.73145H113.064C111.152 7.73145 110.196 7.91048 110.196 8.26855C110.196 8.45475 110.436 8.69466 110.916 8.98828H111.099C111.493 8.98828 112.803 8.80924 115.03 8.45117C115.267 8.48698 115.385 8.60514 115.385 8.80566V9.1709C115.385 9.37858 113.956 9.67578 111.099 10.0625C109.545 10.0625 108.768 8.45117 108.768 5.22852V3.98242C108.803 3.73893 108.925 3.61719 109.133 3.61719H109.67C110.966 3.61719 112.395 3.43815 113.956 3.08008ZM118.425 13.1025L118.607 13.457V13.6396C118.607 13.9977 117.952 14.234 116.642 14.3486H115.385C115.27 14.5635 115.213 14.8034 115.213 15.0684V15.4229C115.213 16.4971 115.331 17.5104 115.567 18.4629C115.388 18.9427 115.209 19.1826 115.03 19.1826H114.848C114.676 19.1826 114.497 19.0036 114.311 18.6455V14.7139L114.139 14.3486C109.19 14.5921 106.268 14.7139 105.373 14.7139C105.144 14.5921 104.965 14.5312 104.836 14.5312V14.1768C104.958 13.8187 105.316 13.6396 105.91 13.6396H109.842L118.425 13.1025ZM110.733 17.5713H111.271C111.478 17.5713 111.718 18.4056 111.99 20.0742C112.585 20.3464 112.882 20.5254 112.882 20.6113C114.758 20.4538 116.667 20.0957 118.607 19.5371C118.837 19.6589 119.016 19.7197 119.145 19.7197V19.9023C119.145 20.6113 118.607 20.9658 117.533 20.9658C115.105 21.3239 113.258 21.5029 111.99 21.5029C111.038 20.4502 110.562 19.3187 110.562 18.1084C110.676 17.8792 110.733 17.7002 110.733 17.5713Z" fill="#222222"/>
<path d="M11.5479 1.30762L11.5853 1.06044L11.5667 1.05762H11.5479V1.30762ZM11.5479 7.3877L11.3392 7.52541L11.4494 7.69233L11.6364 7.62149L11.5479 7.3877ZM11.1934 6.85059H10.9434V6.92565L10.9847 6.9883L11.1934 6.85059ZM7.26172 2.55371L7.03947 2.6682L7.12365 2.8316L7.30472 2.79999L7.26172 2.55371ZM7.0791 2.19922H6.8291V2.25983L6.85686 2.31371L7.0791 2.19922ZM6.00488 2.91895L6.25329 2.94713L6.25488 2.93308V2.91895H6.00488ZM5.2959 7.9248L5.18141 8.14705L5.29644 8.20631L5.41124 8.14661L5.2959 7.9248ZM4.75879 7.74219L4.50913 7.72918L4.49542 7.99219H4.75879V7.74219ZM4.93066 2.91895H5.18066V2.66895H4.93066V2.91895ZM3.85645 2.73633L3.99702 2.5296L3.91274 2.47228L3.81241 2.49024L3.85645 2.73633ZM1.18164 3.45605L1.06435 3.67683L1.15799 3.72658L1.25884 3.69384L1.18164 3.45605ZM0.644531 3.27344H0.394531V3.52344H0.644531V3.27344ZM0.644531 2.38184L0.592504 2.13731L0.394531 2.17943V2.38184H0.644531ZM14.4053 10.9541H14.1553V11.0131L14.1817 11.0659L14.4053 10.9541ZM14.5879 11.3193H14.8379V11.2603L14.8115 11.2075L14.5879 11.3193ZM10.6562 12.2109V11.9609H10.5239L10.4495 12.0704L10.6562 12.2109ZM10.291 12.748L10.0843 12.6075L10.0367 12.6774L10.0414 12.7619L10.291 12.748ZM10.8281 16.6797L11.0517 16.7915L11.1104 16.6742L11.0472 16.5592L10.8281 16.6797ZM10.4736 17.3887L10.25 17.2769L10.0691 17.6387H10.4736V17.3887ZM13.6963 20.7939L13.8995 20.9396L13.9491 20.8704L13.9461 20.7853L13.6963 20.7939ZM7.61621 22.5771L7.56655 22.3321L7.36621 22.3727V22.5771H7.61621ZM7.26172 22.7598V22.5098H7.01172V22.7598H7.26172ZM7.26172 22.9316H7.01172V22.958L7.01721 22.9837L7.26172 22.9316ZM15.4795 24.3604L15.6881 24.2226L15.5629 24.0328L15.3621 24.1396L15.4795 24.3604ZM15.834 24.8975L16.0749 24.9642L16.1053 24.8546L16.0426 24.7598L15.834 24.8975ZM14.4053 25.6172H14.6553V25.3189L14.3616 25.371L14.4053 25.6172ZM6.72461 24.3604H6.97461V24.132L6.74724 24.1114L6.72461 24.3604ZM6.1875 23.1143H5.9375V23.133L5.94028 23.1514L6.1875 23.1143ZM12.4395 20.4287L12.4959 20.6722L12.6068 20.6465L12.6602 20.546L12.4395 20.4287ZM12.2568 18.291L12.4855 18.19L12.4039 18.0052L12.206 18.0462L12.2568 18.291ZM6.1875 18.6455H5.9375V18.8955H6.1875V18.6455ZM6.00488 18.4629L5.75789 18.4242L5.71268 18.7129H6.00488V18.4629ZM9.93652 17.5713V17.8213H10.1865V17.5713H9.93652ZM9.93652 17.3887H10.1865V17.1387H9.93652V17.3887ZM9.22754 12.5654L9.47669 12.5449L9.45651 12.3L9.21129 12.316L9.22754 12.5654ZM2.96484 12.3936H2.71484V12.5887L2.90421 12.6361L2.96484 12.3936ZM2.96484 11.8564L2.74124 11.7446L2.71484 11.7974V11.8564H2.96484ZM3.14746 11.4912L3.16565 11.2419L2.99871 11.2297L2.92385 11.3794L3.14746 11.4912ZM5.65039 11.6738L5.6322 11.9232L5.65111 11.9245L5.67002 11.9231L5.65039 11.6738ZM14.4053 10.7822H14.6553V10.4987L14.374 10.5342L14.4053 10.7822ZM11.5104 1.5548C11.6561 1.57687 11.769 1.65503 11.8556 1.82964C11.949 2.01766 12.0068 2.31219 12.0068 2.73633H12.5068C12.5068 2.2796 12.4466 1.89559 12.3035 1.60738C12.1539 1.30575 11.9123 1.10998 11.5853 1.06044L11.5104 1.5548ZM12.0068 2.73633V6.85059H12.5068V2.73633H12.0068ZM12.0068 6.85059C12.0068 6.82207 12.025 6.84685 11.9286 6.91987C11.8383 6.98832 11.6866 7.06779 11.4593 7.15391L11.6364 7.62149C11.8817 7.52856 12.0846 7.429 12.2306 7.31841C12.3705 7.21239 12.5068 7.05814 12.5068 6.85059H12.0068ZM11.7565 7.24998L11.402 6.71288L10.9847 6.9883L11.3392 7.52541L11.7565 7.24998ZM11.4434 6.85059V2.55371H10.9434V6.85059H11.4434ZM11.4434 2.55371C11.4434 2.39508 11.4021 2.23064 11.2762 2.10845C11.1517 1.9876 10.9866 1.94922 10.8281 1.94922V2.44922C10.8695 2.44922 10.8958 2.45433 10.911 2.45924C10.9183 2.4616 10.9226 2.46379 10.9249 2.46511C10.927 2.46636 10.9278 2.46712 10.9279 2.46724C10.928 2.46734 10.9285 2.46778 10.9293 2.46915C10.9302 2.4706 10.932 2.47387 10.9341 2.47982C10.9383 2.4922 10.9434 2.51537 10.9434 2.55371H11.4434ZM10.8281 1.94922H10.1191V2.44922H10.8281V1.94922ZM10.1191 1.94922C9.54356 1.94922 8.57164 2.07121 7.21872 2.30744L7.30472 2.79999C8.65883 2.56355 9.59186 2.44922 10.1191 2.44922V1.94922ZM7.48396 2.43922L7.30135 2.08473L6.85686 2.31371L7.03947 2.6682L7.48396 2.43922ZM7.3291 2.19922V2.0166H6.8291V2.19922H7.3291ZM7.3291 2.0166C7.3291 2.05252 7.29848 2.01181 7.46584 1.93216C7.61944 1.85905 7.8706 1.78966 8.23546 1.73178C8.96017 1.6168 10.0613 1.55762 11.5479 1.55762V1.05762C10.0552 1.05762 8.922 1.1166 8.15712 1.23795C7.77718 1.29823 7.46975 1.37655 7.25096 1.48069C7.04592 1.57827 6.8291 1.74436 6.8291 2.0166H7.3291ZM4.22168 2.09473H4.75879V1.59473H4.22168V2.09473ZM4.75879 2.09473C5.14396 2.09473 5.38617 2.17853 5.53012 2.30263C5.66698 2.42062 5.75488 2.60989 5.75488 2.91895H6.25488C6.25488 2.51186 6.1351 2.16402 5.85659 1.92393C5.58519 1.68996 5.20435 1.59473 4.75879 1.59473V2.09473ZM5.75648 2.89076C5.64133 3.90545 5.58301 4.75 5.58301 5.42188H6.08301C6.08301 4.77604 6.13926 3.95197 6.25329 2.94713L5.75648 2.89076ZM5.58301 5.42188V7.3877H6.08301V5.42188H5.58301ZM5.58301 7.3877C5.58301 7.38155 5.58667 7.40939 5.52195 7.4741C5.45794 7.53811 5.3487 7.61557 5.18056 7.703L5.41124 8.14661C5.60117 8.04784 5.76048 7.94268 5.87551 7.82766C5.98983 7.71333 6.08301 7.56572 6.08301 7.3877H5.58301ZM5.41039 7.70256C5.1711 7.57929 4.94544 7.49219 4.75879 7.49219V7.99219C4.81563 7.99219 4.94804 8.02683 5.18141 8.14705L5.41039 7.70256ZM5.00845 7.7552C5.12306 5.55608 5.18066 3.94282 5.18066 2.91895H4.68066C4.68066 3.92893 4.62368 5.53116 4.50913 7.72918L5.00845 7.7552ZM4.93066 2.66895C4.67017 2.66895 4.46151 2.65408 4.30118 2.62683C4.13666 2.59886 4.04332 2.56108 3.99702 2.5296L3.71587 2.94306C3.84861 3.03332 4.02382 3.08685 4.21738 3.11976C4.41511 3.15337 4.65405 3.16895 4.93066 3.16895V2.66895ZM3.81241 2.49024C3.11586 2.61488 2.21195 2.85869 1.10444 3.21827L1.25884 3.69384C2.35706 3.33727 3.23636 3.10126 3.90048 2.98242L3.81241 2.49024ZM1.29893 3.23528C1.06322 3.11005 0.838198 3.02344 0.644531 3.02344V3.52344C0.708677 3.52344 0.841729 3.55857 1.06435 3.67683L1.29893 3.23528ZM0.894531 3.27344V2.38184H0.394531V3.27344H0.894531ZM0.696558 2.62636C2.37993 2.2682 3.54904 2.09473 4.22168 2.09473V1.59473C3.49067 1.59473 2.27501 1.77933 0.592504 2.13731L0.696558 2.62636ZM14.1817 11.0659L14.3643 11.4311L14.8115 11.2075L14.6289 10.8423L14.1817 11.0659ZM14.3379 11.3193C14.3379 11.3588 14.3221 11.4207 14.2015 11.5027C14.0755 11.5884 13.865 11.6727 13.5497 11.7442C12.9225 11.8865 11.9622 11.9609 10.6562 11.9609V12.4609C11.9714 12.4609 12.977 12.3868 13.6603 12.2318C14.0002 12.1548 14.2812 12.0533 14.4828 11.9161C14.6898 11.7752 14.8379 11.5771 14.8379 11.3193H14.3379ZM10.4495 12.0704L10.0843 12.6075L10.4977 12.8886L10.863 12.3515L10.4495 12.0704ZM10.0414 12.7619C10.1024 13.8606 10.1781 14.7436 10.2689 15.4083C10.3143 15.7407 10.364 16.022 10.4185 16.2503C10.4721 16.4749 10.5337 16.6632 10.6091 16.8002L11.0472 16.5592C11.0044 16.4813 10.955 16.3447 10.9048 16.1342C10.8554 15.9275 10.8084 15.6636 10.7643 15.3407C10.6761 14.6949 10.6013 13.8269 10.5406 12.7342L10.0414 12.7619ZM10.6045 16.5679L10.25 17.2769L10.6972 17.5005L11.0517 16.7915L10.6045 16.5679ZM10.4736 17.6387H12.7939V17.1387H10.4736V17.6387ZM12.7939 17.6387C12.8188 17.6387 12.8687 17.6472 12.9421 17.7483C13.0187 17.854 13.0981 18.0327 13.17 18.304C13.313 18.8437 13.4072 19.6723 13.4464 20.8026L13.9461 20.7853C13.9066 19.6454 13.8111 18.7714 13.6533 18.176C13.5748 17.8797 13.476 17.6328 13.3468 17.4547C13.2143 17.2721 13.0304 17.1387 12.7939 17.1387V17.6387ZM13.4931 20.6483C13.4814 20.6647 13.4464 20.7006 13.3657 20.7521C13.2881 20.8016 13.1816 20.8572 13.0426 20.9182C12.7648 21.04 12.3771 21.1748 11.875 21.3221C10.8718 21.6163 9.4369 21.9531 7.56655 22.3321L7.66587 22.8222C9.54096 22.4421 10.9921 22.1021 12.0157 21.8019C12.5269 21.652 12.9376 21.5102 13.2435 21.376C13.3964 21.309 13.528 21.2417 13.6348 21.1735C13.7385 21.1073 13.8342 21.0307 13.8995 20.9396L13.4931 20.6483ZM7.36621 22.5771C7.36621 22.5653 7.3697 22.5436 7.38416 22.5212C7.39784 22.5001 7.41241 22.4922 7.4131 22.4919C7.41327 22.4918 7.41056 22.4932 7.40391 22.4952C7.39728 22.4973 7.38767 22.4997 7.3745 22.502C7.34772 22.5066 7.31075 22.5098 7.26172 22.5098V23.0098C7.39323 23.0098 7.52982 22.9942 7.64208 22.9364C7.70184 22.9056 7.76072 22.8597 7.80395 22.7929C7.84795 22.7249 7.86621 22.6498 7.86621 22.5771H7.36621ZM7.01172 22.7598V22.9316H7.51172V22.7598H7.01172ZM7.01721 22.9837C7.16078 23.6574 7.37521 24.1926 7.67747 24.5639C7.98776 24.9449 8.38719 25.1475 8.8623 25.1475V24.6475C8.54966 24.6475 8.28844 24.5223 8.0652 24.2482C7.83394 23.9641 7.64196 23.5164 7.50623 22.8795L7.01721 22.9837ZM8.8623 25.1475H10.8281V24.6475H8.8623V25.1475ZM10.8281 25.1475C12.0469 25.1475 13.052 25.1026 13.8404 25.0115C14.6211 24.9214 15.2166 24.7833 15.5969 24.5811L15.3621 24.1396C15.0692 24.2954 14.5529 24.4259 13.7831 24.5148C13.0211 24.6028 12.037 24.6475 10.8281 24.6475V25.1475ZM15.2708 24.4981L15.6253 25.0352L16.0426 24.7598L15.6881 24.2226L15.2708 24.4981ZM15.5931 24.8307C15.5227 25.0847 15.4055 25.254 15.2535 25.3628C15.0995 25.473 14.8845 25.5391 14.5879 25.5391V26.0391C14.9573 26.0391 15.283 25.9565 15.5444 25.7695C15.8077 25.5811 15.9806 25.3047 16.0749 24.9642L15.5931 24.8307ZM14.5879 25.5391C14.5619 25.5391 14.5889 25.5327 14.6223 25.564C14.6585 25.5981 14.6553 25.6319 14.6553 25.6172H14.1553C14.1553 25.717 14.1825 25.8368 14.2796 25.9281C14.3738 26.0168 14.4921 26.0391 14.5879 26.0391V25.5391ZM14.3616 25.371C13.0475 25.6042 11.5158 25.7217 9.76465 25.7217V26.2217C11.5369 26.2217 13.0989 26.1029 14.4489 25.8633L14.3616 25.371ZM9.76465 25.7217C8.76523 25.7217 8.05433 25.5879 7.6017 25.348C7.3791 25.23 7.22527 25.0897 7.12624 24.9322C7.02776 24.7756 6.97461 24.588 6.97461 24.3604H6.47461C6.47461 24.6698 6.54812 24.9522 6.70298 25.1984C6.85729 25.4438 7.08347 25.6392 7.36754 25.7897C7.92826 26.0869 8.73737 26.2217 9.76465 26.2217V25.7217ZM6.74724 24.1114C6.77988 24.1143 6.72823 24.1323 6.64267 23.9338C6.56591 23.7557 6.49452 23.4746 6.43472 23.0771L5.94028 23.1514C6.00222 23.5632 6.08123 23.8944 6.18351 24.1317C6.27698 24.3485 6.43301 24.5849 6.70198 24.6093L6.74724 24.1114ZM6.4375 23.1143V22.5771H5.9375V23.1143H6.4375ZM6.4375 22.5771C6.4375 22.6145 6.41783 22.6124 6.46317 22.5664C6.50527 22.5237 6.58069 22.467 6.70156 22.3985C6.94185 22.2623 7.31536 22.1048 7.83174 21.9273C8.86123 21.5736 10.4141 21.1551 12.4959 20.6722L12.383 20.1852C10.2968 20.6691 8.72374 21.0921 7.66924 21.4545C7.14362 21.6351 6.73564 21.8044 6.45494 21.9636C6.31531 22.0427 6.19535 22.1259 6.10721 22.2153C6.02229 22.3014 5.9375 22.4234 5.9375 22.5771H6.4375ZM12.6602 20.546C12.7855 20.3103 12.8721 20.0853 12.8721 19.8916H12.3721C12.3721 19.9557 12.3369 20.0888 12.2187 20.3114L12.6602 20.546ZM12.8721 19.8916C12.8721 19.3358 12.7407 18.768 12.4855 18.19L12.0281 18.392C12.2599 18.9169 12.3721 19.4161 12.3721 19.8916H12.8721ZM12.206 18.0462C11.0954 18.2767 9.09587 18.3955 6.1875 18.3955V18.8955C9.09423 18.8955 11.1409 18.7779 12.3076 18.5358L12.206 18.0462ZM6.4375 18.6455C6.4375 18.5461 6.41248 18.4256 6.31862 18.3318C6.22477 18.2379 6.10429 18.2129 6.00488 18.2129V18.7129C6.02722 18.7129 5.99805 18.7183 5.96507 18.6853C5.93209 18.6523 5.9375 18.6232 5.9375 18.6455H6.4375ZM6.25187 18.5016C6.26026 18.448 6.29811 18.3721 6.43702 18.2838C6.57803 18.1943 6.79818 18.1094 7.11291 18.038C7.74055 17.8957 8.67789 17.8213 9.93652 17.8213V17.3213C8.66716 17.3213 7.68523 17.3955 7.00233 17.5504C6.66178 17.6276 6.37884 17.7285 6.16893 17.8618C5.95693 17.9965 5.79606 18.1805 5.75789 18.4242L6.25187 18.5016ZM10.1865 17.5713V17.3887H9.68652V17.5713H10.1865ZM9.93652 17.1387C10.0097 17.1387 10.0552 17.175 10.0696 17.1887C10.0834 17.2019 10.0849 17.2087 10.0778 17.1955C10.064 17.1697 10.0425 17.1154 10.0164 17.0207C9.96509 16.835 9.90956 16.5459 9.85086 16.1465C9.73389 15.3508 9.60908 14.1514 9.47669 12.5449L8.97838 12.586C9.11097 14.1949 9.23681 15.4072 9.35617 16.2192C9.41563 16.6237 9.47469 16.9375 9.53441 17.1538C9.56374 17.26 9.59686 17.3564 9.63682 17.4312C9.65658 17.4681 9.6847 17.5127 9.72494 17.551C9.76573 17.5898 9.83736 17.6387 9.93652 17.6387V17.1387ZM9.21129 12.316C7.3429 12.4377 5.97833 12.498 5.11328 12.498V12.998C5.99563 12.998 7.37389 12.9367 9.24379 12.8149L9.21129 12.316ZM5.11328 12.498C4.65822 12.498 3.96656 12.3863 3.02548 12.151L2.90421 12.6361C3.85376 12.8735 4.59438 12.998 5.11328 12.998V12.498ZM3.21484 12.3936V11.8564H2.71484V12.3936H3.21484ZM3.18845 11.9682L3.37107 11.603L2.92385 11.3794L2.74124 11.7446L3.18845 11.9682ZM3.12927 11.7405L5.6322 11.9232L5.66858 11.4245L3.16565 11.2419L3.12927 11.7405ZM5.67002 11.9231C8.67437 11.6864 11.5966 11.3888 14.4366 11.0303L14.374 10.5342C11.5421 10.8918 8.62771 11.1886 5.63076 11.4246L5.67002 11.9231ZM14.1553 10.7822V10.9541H14.6553V10.7822H14.1553ZM29.0244 4.70215V4.45215H28.9638L28.9099 4.4799L29.0244 4.70215ZM29.7334 5.23926L29.9829 5.22331L29.9795 5.17069L29.9552 5.12392L29.7334 5.23926ZM30.2705 13.6396H30.5205V13.6317L30.52 13.6237L30.2705 13.6396ZM29.3789 14.166L29.1334 14.2133L29.1725 14.416H29.3789V14.166ZM29.207 13.2744H28.957V13.2983L28.9616 13.3217L29.207 13.2744ZM29.207 12.3828H29.4572L29.4569 12.3745L29.207 12.3828ZM25.0928 9.34277L24.8705 9.45726L24.9547 9.62063L25.1357 9.58906L25.0928 9.34277ZM24.9102 8.98828H24.6602V9.04889L24.6879 9.10277L24.9102 8.98828ZM28.8418 7.55957L28.8939 7.80408L29.0918 7.76191V7.55957H28.8418ZM28.8418 7.37695H29.0918V7.36281L29.0902 7.34877L28.8418 7.37695ZM28.6699 4.88477L28.5554 4.66252L28.4199 4.73233V4.88477H28.6699ZM20.2695 5.23926L20.4782 5.10155L20.3882 4.96516L20.2271 4.99288L20.2695 5.23926ZM20.624 5.77637H20.874V5.7013L20.8327 5.63866L20.624 5.77637ZM19.915 8.81641L19.6745 8.74827L19.6331 8.89449L19.7438 8.99857L19.915 8.81641ZM21.8809 10.7715H21.6309L22.1048 10.8825L21.8809 10.7715ZM23.127 7.37695H23.377V7.12695H23.127V7.37695ZM22.418 7.37695V7.12695H22.3999L22.382 7.12955L22.418 7.37695ZM21.1611 7.55957H20.9111V7.84852L21.1971 7.80697L21.1611 7.55957ZM20.8066 7.20508H20.5566V7.45508H20.8066V7.20508ZM24.0186 6.13086L24.2657 6.09341L24.2293 5.85287L23.9879 5.88275L24.0186 6.13086ZM24.373 6.48535L24.6165 6.54213L24.6881 6.23535H24.373V6.48535ZM23.6641 9.52539L23.4206 9.46861L23.3887 9.60541L23.4889 9.70381L23.6641 9.52539ZM25.9844 12.2109L26.208 12.3227L26.2344 12.27V12.2109H25.9844ZM25.8125 12.7373V12.9873H26.0625V12.7373H25.8125ZM25.2754 12.7373L25.0806 12.894L25.1556 12.9873H25.2754V12.7373ZM22.0527 13.1025V13.3525H22.2371L22.2916 13.1763L22.0527 13.1025ZM21.8809 13.2744L21.8225 13.5175L22.1309 13.5915V13.2744H21.8809ZM21.1611 12.5654L20.9288 12.4731L20.896 12.5557L20.9227 12.6405L21.1611 12.5654ZM21.5156 11.6738L21.7479 11.7662L21.8841 11.4238H21.5156V11.6738ZM19.3779 9.70801L19.5591 9.53574L19.3282 9.29286L19.1612 9.58344L19.3779 9.70801ZM18.3037 12.0283V12.2783H18.5537V12.0283H18.3037ZM17.4121 12.0283H17.1621V12.2783H17.4121V12.0283ZM19.0127 8.45117L19.2312 8.57265L19.2469 8.5444L19.2549 8.51309L19.0127 8.45117ZM19.3779 6.48535H19.6279V6.23535H19.3779V6.48535ZM16.875 7.02246L16.7632 7.24607L16.8468 7.28789L16.9374 7.26455L16.875 7.02246ZM16.3379 6.85059H16.0879V7.10059H16.3379V6.85059ZM29.7334 21.8574L29.9672 21.946L29.9865 21.895L29.9828 21.8407L29.7334 21.8574ZM28.3047 17.0342L28.5546 17.0259L28.5466 16.7842H28.3047V17.0342ZM27.7676 16.8516L27.8821 16.6293L27.8063 16.5903L27.7224 16.6057L27.7676 16.8516ZM23.8467 17.5713L23.7593 17.8055L23.8239 17.8296L23.8918 17.8172L23.8467 17.5713ZM23.127 16.8516L22.8909 16.7691L22.877 16.8091V16.8516H23.127ZM28.3047 15.96V16.21H28.5547V15.96H28.3047ZM29.0244 4.95215H29.207V4.45215H29.0244V4.95215ZM29.207 4.95215C29.1941 4.95215 29.2187 4.94519 29.2836 5.01141C29.3468 5.07589 29.4238 5.18585 29.5116 5.3546L29.9552 5.12392C29.8568 4.9346 29.753 4.776 29.6407 4.66144C29.5301 4.54862 29.3847 4.45215 29.207 4.45215V4.95215ZM29.4839 5.25521L30.021 13.6556L30.52 13.6237L29.9829 5.22331L29.4839 5.25521ZM30.0205 13.6396V13.8115H30.5205V13.6396H30.0205ZM30.0205 13.8115C30.0205 13.8505 30.0155 13.8745 30.0112 13.8876C30.0091 13.8939 30.0072 13.8974 30.0063 13.8989C30.0058 13.8997 30.0055 13.9002 30.0053 13.9004C30.0052 13.9005 30.0052 13.9005 30.0052 13.9006C30.0051 13.9006 30.0051 13.9006 30.0051 13.9006C30.0051 13.9006 30.0051 13.9006 30.0051 13.9007C30.005 13.9007 30.005 13.9007 30.0049 13.9008C30.0047 13.901 30.0042 13.9013 30.0034 13.9018C30.0018 13.9027 29.9983 13.9046 29.992 13.9067C29.979 13.9111 29.955 13.916 29.916 13.916V14.416C30.0727 14.416 30.2362 14.3767 30.3587 14.2542C30.4812 14.1317 30.5205 13.9682 30.5205 13.8115H30.0205ZM29.916 13.916H29.3789V14.416H29.916V13.916ZM29.6244 14.1187L29.4525 13.2271L28.9616 13.3217L29.1334 14.2133L29.6244 14.1187ZM29.457 13.2744V12.3828H28.957V13.2744H29.457ZM29.4569 12.3745C29.4174 11.1835 29.3526 10.28 29.2609 9.67078C29.2154 9.36844 29.1611 9.1239 29.0939 8.94937C29.0606 8.86308 29.0181 8.77761 28.9599 8.70962C28.9004 8.64008 28.8037 8.56641 28.6699 8.56641V9.06641C28.606 9.06641 28.5759 9.02988 28.58 9.03464C28.5854 9.04096 28.6033 9.06693 28.6273 9.12924C28.6746 9.25191 28.7225 9.45318 28.7665 9.74524C28.8537 10.3248 28.9179 11.2045 28.9572 12.3911L29.4569 12.3745ZM28.6699 8.56641C28.462 8.56641 28.0521 8.61353 27.4599 8.70066C26.8606 8.78886 26.0569 8.92088 25.0498 9.09649L25.1357 9.58906C26.141 9.41376 26.9397 9.2826 27.5327 9.19533C28.133 9.10701 28.5054 9.06641 28.6699 9.06641V8.56641ZM25.315 9.22828L25.1324 8.87379L24.6879 9.10277L24.8705 9.45726L25.315 9.22828ZM25.1602 8.98828V8.81641H24.6602V8.98828H25.1602ZM25.1602 8.81641C25.1602 8.88189 25.1233 8.90605 25.1446 8.88556C25.1619 8.869 25.2007 8.84015 25.2734 8.80139C25.4172 8.72478 25.646 8.63418 25.9692 8.53085C26.6123 8.32527 27.5854 8.08294 28.8939 7.80408L28.7897 7.31506C27.4771 7.59479 26.4844 7.84124 25.8169 8.0546C25.4849 8.16074 25.2222 8.26216 25.0383 8.36011C24.9473 8.40863 24.8632 8.4627 24.7985 8.52469C24.738 8.58275 24.6602 8.6811 24.6602 8.81641H25.1602ZM29.0918 7.55957V7.37695H28.5918V7.55957H29.0918ZM29.0902 7.34877C28.9762 6.34381 28.9199 5.52336 28.9199 4.88477H28.4199C28.4199 5.54955 28.4783 6.39057 28.5934 7.40514L29.0902 7.34877ZM28.7844 5.10701L29.1389 4.92439L28.9099 4.4799L28.5554 4.66252L28.7844 5.10701ZM20.0609 5.37697L20.4154 5.91408L20.8327 5.63866L20.4782 5.10155L20.0609 5.37697ZM20.374 5.77637V5.94824H20.874V5.77637H20.374ZM20.374 5.94824C20.374 5.98186 20.3641 6.06537 20.3344 6.21614C20.306 6.36056 20.2627 6.55074 20.2041 6.78791C20.0869 7.26191 19.9105 7.91497 19.6745 8.74827L20.1556 8.88454C20.3922 8.04922 20.5703 7.38994 20.6895 6.90789C20.749 6.66703 20.7944 6.46826 20.825 6.31279C20.8544 6.16368 20.874 6.03637 20.874 5.94824H20.374ZM19.7438 8.99857C20.3987 9.61405 20.888 10.083 21.2131 10.4063C21.376 10.5683 21.4952 10.6913 21.5727 10.7769C21.6119 10.8202 21.6369 10.8499 21.6507 10.8682C21.658 10.8778 21.6584 10.8793 21.6558 10.8748C21.6545 10.8725 21.65 10.8644 21.6452 10.8518C21.6415 10.842 21.6309 10.8124 21.6309 10.7715H22.1309C22.1309 10.7261 22.1189 10.6909 22.1127 10.6743C22.1053 10.655 22.0969 10.639 22.0905 10.6277C22.0777 10.6052 22.0628 10.5841 22.0495 10.5666C22.0224 10.5308 21.986 10.4883 21.9433 10.4412C21.8569 10.3459 21.7304 10.2155 21.5657 10.0517C21.2355 9.72334 20.742 9.25054 20.0863 8.63424L19.7438 8.99857ZM22.1048 10.8825C22.5223 10.0404 22.8381 9.32968 23.0501 8.75217C23.2596 8.18161 23.377 7.71711 23.377 7.37695H22.877C22.877 7.62404 22.7867 8.01891 22.5807 8.57986C22.3774 9.13386 22.0702 9.82676 21.6569 10.6604L22.1048 10.8825ZM23.127 7.12695H22.418V7.62695H23.127V7.12695ZM22.382 7.12955L21.1252 7.31217L21.1971 7.80697L22.4539 7.62436L22.382 7.12955ZM21.4111 7.55957C21.4111 7.40287 21.3718 7.23943 21.2493 7.11692C21.1268 6.99442 20.9633 6.95508 20.8066 6.95508V7.45508C20.8456 7.45508 20.8696 7.46004 20.8827 7.4644C20.889 7.4665 20.8925 7.46836 20.894 7.4693C20.8948 7.46979 20.8953 7.47012 20.8955 7.47027C20.8956 7.47035 20.8956 7.4704 20.8957 7.47043C20.8957 7.47046 20.8957 7.47047 20.8957 7.47048C20.8957 7.47048 20.8958 7.4705 20.8958 7.47053C20.8958 7.47056 20.8959 7.47062 20.8959 7.47073C20.8961 7.47092 20.8964 7.47137 20.8969 7.47218C20.8978 7.47374 20.8997 7.47724 20.9018 7.48354C20.9062 7.49663 20.9111 7.52058 20.9111 7.55957H21.4111ZM21.0566 7.20508C21.0566 7.20325 21.0552 7.16142 21.1581 7.08359C21.2606 7.00617 21.4319 6.92118 21.6889 6.83524C22.2 6.66429 22.9831 6.5109 24.0493 6.37897L23.9879 5.88275C22.9127 6.01579 22.0898 6.17393 21.5303 6.36105C21.252 6.45414 21.0219 6.55982 20.8566 6.68472C20.6919 6.80921 20.5566 6.98132 20.5566 7.20508H21.0566ZM23.7714 6.16831C23.794 6.3173 23.8473 6.46355 23.9573 6.57351C24.0724 6.68863 24.2207 6.73535 24.373 6.73535V6.23535C24.3249 6.23535 24.3138 6.22299 24.3108 6.21995C24.3026 6.21174 24.279 6.18074 24.2657 6.09341L23.7714 6.16831ZM24.1296 6.42857L23.4206 9.46861L23.9075 9.58217L24.6165 6.54213L24.1296 6.42857ZM23.4889 9.70381C24.2608 10.4614 24.8351 11.0591 25.2151 11.4989C25.4056 11.7193 25.5428 11.895 25.631 12.0281C25.6751 12.0947 25.7036 12.1457 25.7203 12.1826C25.739 12.2239 25.7344 12.2293 25.7344 12.2109H26.2344C26.2344 12.1245 26.2056 12.0424 26.1759 11.9767C26.1443 11.9067 26.1003 11.8312 26.0478 11.7519C25.9426 11.5932 25.7897 11.3992 25.5935 11.172C25.2 10.7166 24.6142 10.1076 23.8392 9.34697L23.4889 9.70381ZM25.7608 12.0991C25.6439 12.3328 25.5625 12.5532 25.5625 12.7373H26.0625C26.0625 12.6779 26.0957 12.5474 26.208 12.3227L25.7608 12.0991ZM25.8125 12.4873H25.2754V12.9873H25.8125V12.4873ZM25.4702 12.5807C24.8963 11.8668 24.4419 11.3273 24.1086 10.9648C23.9425 10.7842 23.802 10.6427 23.6891 10.5445C23.633 10.4958 23.578 10.4528 23.5261 10.4205C23.4843 10.3947 23.4048 10.3496 23.3096 10.3496V10.8496C23.2556 10.8496 23.2325 10.8268 23.2626 10.8455C23.2825 10.8578 23.3147 10.8816 23.3611 10.9219C23.4532 11.0019 23.579 11.1276 23.7405 11.3033C24.0625 11.6533 24.5086 12.1826 25.0806 12.894L25.4702 12.5807ZM23.3096 10.3496H23.127V10.8496H23.3096V10.3496ZM23.127 10.3496C23.015 10.3496 22.9306 10.4064 22.8803 10.4501C22.8269 10.4965 22.7803 10.5557 22.7393 10.617C22.6567 10.7404 22.5698 10.9134 22.4783 11.1267C22.2939 11.5563 22.0724 12.1922 21.8139 13.0287L22.2916 13.1763C22.5487 12.3443 22.764 11.7287 22.9377 11.3239C23.0252 11.1201 23.0977 10.9803 23.1548 10.8951C23.1836 10.8521 23.2019 10.8331 23.2084 10.8274C23.2181 10.8189 23.1888 10.8496 23.127 10.8496V10.3496ZM22.0527 12.8525C21.9569 12.8525 21.8391 12.8767 21.7471 12.9687C21.655 13.0608 21.6309 13.1786 21.6309 13.2744H22.1309C22.1309 13.2557 22.1354 13.2875 22.1006 13.3223C22.0658 13.3571 22.034 13.3525 22.0527 13.3525V12.8525ZM21.9392 13.0313C21.6764 12.9682 21.4982 12.8035 21.3996 12.4904L20.9227 12.6405C21.0676 13.1008 21.3692 13.4087 21.8225 13.5175L21.9392 13.0313ZM21.3934 12.6578L21.7479 11.7662L21.2833 11.5815L20.9288 12.4731L21.3934 12.6578ZM21.5156 11.4238C21.5567 11.4238 21.5712 11.4383 21.5396 11.4217C21.5161 11.4094 21.48 11.3867 21.4294 11.3495C21.3288 11.2756 21.1917 11.1598 21.0161 10.9984C20.6661 10.6764 20.181 10.1898 19.5591 9.53574L19.1968 9.88027C19.821 10.5368 20.3152 11.033 20.6777 11.3664C20.8584 11.5326 21.011 11.6625 21.1333 11.7524C21.1941 11.7971 21.2528 11.8359 21.3074 11.8645C21.3539 11.8889 21.4298 11.9238 21.5156 11.9238V11.4238ZM19.1612 9.58344C18.8016 10.2092 18.5289 10.7213 18.3454 11.1176C18.2537 11.3157 18.1825 11.4887 18.1337 11.6351C18.0865 11.7765 18.0537 11.9121 18.0537 12.0283H18.5537C18.5537 11.9942 18.5656 11.9203 18.608 11.7932C18.6488 11.6709 18.7118 11.5164 18.7991 11.3277C18.9737 10.9506 19.2382 10.4529 19.5947 9.83258L19.1612 9.58344ZM18.3037 11.7783H17.4121V12.2783H18.3037V11.7783ZM17.6621 12.0283V11.6738H17.1621V12.0283H17.6621ZM17.6621 11.6738C17.6621 11.6836 17.6612 11.671 17.6764 11.6207C17.6899 11.5761 17.7118 11.5158 17.7435 11.4382C17.8069 11.2834 17.9039 11.0738 18.0362 10.8075C18.3003 10.2756 18.6983 9.53118 19.2312 8.57265L18.7942 8.32969C18.2601 9.29043 17.8577 10.0428 17.5884 10.5851C17.4539 10.8559 17.3508 11.0778 17.2808 11.2488C17.2458 11.3342 17.2177 11.4104 17.1978 11.4758C17.1797 11.5357 17.1621 11.6067 17.1621 11.6738H17.6621ZM19.2549 8.51309C19.3771 8.03502 19.4695 7.64396 19.5315 7.34118C19.5921 7.04528 19.6279 6.81462 19.6279 6.66797H19.1279C19.1279 6.75765 19.1028 6.94235 19.0417 7.24085C18.982 7.53247 18.8918 7.91485 18.7705 8.38925L19.2549 8.51309ZM19.6279 6.66797V6.48535H19.1279V6.66797H19.6279ZM19.3779 6.23535C19.2072 6.23535 18.9026 6.28671 18.4903 6.37519C18.0683 6.46574 17.5087 6.60097 16.8126 6.78037L16.9374 7.26455C17.6306 7.08588 18.1828 6.95255 18.5952 6.86406C19.0171 6.77351 19.2694 6.73535 19.3779 6.73535V6.23535ZM16.9868 6.79885C16.7507 6.6808 16.5279 6.60059 16.3379 6.60059V7.10059C16.4057 7.10059 16.541 7.13496 16.7632 7.24607L16.9868 6.79885ZM16.5879 6.85059V6.31348H16.0879V6.85059H16.5879ZM16.5879 6.31348C16.5879 6.38749 16.5436 6.41579 16.5645 6.39745C16.5803 6.3835 16.6181 6.35771 16.691 6.32307C16.8345 6.25482 17.0633 6.17572 17.3867 6.08735C18.03 5.91158 19.0033 5.71089 20.3119 5.48563L20.2271 4.99288C18.9146 5.2188 17.9221 5.42273 17.2549 5.60503C16.9231 5.6957 16.6603 5.784 16.4763 5.87151C16.3853 5.91475 16.3002 5.96394 16.2342 6.02205C16.1731 6.07577 16.0879 6.17321 16.0879 6.31348H16.5879ZM28.8418 16.0273C28.7427 16.0273 28.7176 15.9537 28.7493 16.0046C28.7717 16.0405 28.8033 16.1112 28.8397 16.2304C28.9115 16.4653 28.9852 16.8302 29.059 17.3336C29.2062 18.3369 29.348 19.849 29.484 21.8742L29.9828 21.8407C29.8467 19.8125 29.7038 18.2845 29.5538 17.2611C29.479 16.7512 29.401 16.3561 29.3179 16.0843C29.2769 15.9502 29.2302 15.8309 29.1736 15.74C29.1264 15.6643 29.0215 15.5273 28.8418 15.5273V16.0273ZM29.4996 21.7689C29.4133 21.9967 29.3344 22.1491 29.2668 22.2401C29.1933 22.3392 29.1714 22.3164 29.207 22.3164V22.8164C29.4146 22.8164 29.5663 22.6755 29.6683 22.5382C29.7761 22.3929 29.8744 22.1908 29.9672 21.946L29.4996 21.7689ZM29.207 22.3164H29.0244V22.8164H29.207V22.3164ZM29.0244 22.3164C29.0989 22.3164 29.1213 22.3658 29.0993 22.3349C29.0799 22.3077 29.0501 22.2492 29.0158 22.1435C28.9483 21.9354 28.8833 21.608 28.8238 21.1511C28.7055 20.2414 28.6154 18.8682 28.5546 17.0259L28.0548 17.0424C28.1158 18.8884 28.2065 20.2812 28.328 21.2156C28.3885 21.6807 28.4582 22.0448 28.5402 22.2978C28.5807 22.4226 28.6293 22.537 28.6921 22.625C28.7522 22.7094 28.8605 22.8164 29.0244 22.8164V22.3164ZM28.3047 16.7842C28.2479 16.7842 28.1154 16.7495 27.8821 16.6293L27.6531 17.0738C27.8924 17.1971 28.118 17.2842 28.3047 17.2842V16.7842ZM27.7224 16.6057L23.8015 17.3254L23.8918 17.8172L27.8127 17.0975L27.7224 16.6057ZM23.9341 17.3371C23.703 17.2508 23.5486 17.1712 23.4564 17.1024C23.3576 17.0286 23.377 17.004 23.377 17.0342H22.877C22.877 17.2434 23.0163 17.3978 23.1574 17.5031C23.3051 17.6133 23.5105 17.7127 23.7593 17.8055L23.9341 17.3371ZM23.377 17.0342V16.8516H22.877V17.0342H23.377ZM23.363 16.934C23.3812 16.8817 23.4518 16.7901 23.6721 16.6885C23.8854 16.5902 24.1977 16.5019 24.6196 16.4292C25.4614 16.2843 26.687 16.21 28.3047 16.21V15.71C26.6782 15.71 25.4189 15.7842 24.5347 15.9365C24.0937 16.0124 23.7328 16.1099 23.4627 16.2345C23.1996 16.3558 22.9765 16.5242 22.8909 16.7691L23.363 16.934ZM28.5547 15.96C28.5547 15.9985 28.5377 16.0338 28.5168 16.0551C28.5018 16.0704 28.4954 16.0679 28.5194 16.0597C28.5692 16.0428 28.6702 16.0273 28.8418 16.0273V15.5273C28.6553 15.5273 28.4877 15.5424 28.3585 15.5863C28.2336 15.6288 28.0547 15.7359 28.0547 15.96H28.5547ZM34.5342 3.98242L34.7409 3.84184L34.6149 3.65647L34.4169 3.76164L34.5342 3.98242ZM34.8994 4.51953H35.1494V4.44258L35.1061 4.37895L34.8994 4.51953ZM37.2197 7.02246L37.4447 6.91339L37.3672 6.7536L37.1908 6.77414L37.2197 7.02246ZM37.3916 7.37695H37.6416V7.31954L37.6166 7.26788L37.3916 7.37695ZM36.8652 8.2793V8.5293H36.9275L36.9824 8.50013L36.8652 8.2793ZM32.3965 8.2793V8.0293H32.3795L32.3626 8.0316L32.3965 8.2793ZM31.1396 8.45117L30.931 8.58888L31.0177 8.72018L31.1735 8.69887L31.1396 8.45117ZM30.7852 7.91406H30.5352V7.98913L30.5765 8.05177L30.7852 7.91406ZM33.8252 7.02246L33.8542 7.27078L34.0547 7.2474L34.074 7.04645L33.8252 7.02246ZM33.9971 5.23926L34.2459 5.26324L34.2471 5.25128V5.23926H33.9971ZM33.9971 4.16504V3.91504H33.7471V4.16504H33.9971ZM43.1172 4.34766V4.09766H43.0613L43.0107 4.12145L43.1172 4.34766ZM43.6543 4.34766H43.9043V4.09766H43.6543V4.34766ZM43.6543 8.63379L43.9008 8.67569L43.9043 8.65489V8.63379H43.6543ZM43.4717 9.70801L43.2252 9.66611L43.2174 9.71229L43.2268 9.75817L43.4717 9.70801ZM43.8262 10.5996V10.8496H43.8355L43.8448 10.8489L43.8262 10.5996ZM46.8662 10.417L47.0885 10.3025L47.0186 10.167H46.8662V10.417ZM47.0488 10.7715H47.2988V10.7109L47.2711 10.657L47.0488 10.7715ZM46.6836 11.6738L46.6473 11.9212L46.6654 11.9238H46.6836V11.6738ZM45.4375 11.4912L45.4738 11.2439L45.446 11.2398L45.418 11.242L45.4375 11.4912ZM43.8262 14.8857H44.0762V14.8716L44.0746 14.8576L43.8262 14.8857ZM42.9346 15.96L42.7259 16.0977L42.8379 16.2674L43.0269 16.1923L42.9346 15.96ZM42.5801 15.4229H42.3301V15.4979L42.3714 15.5606L42.5801 15.4229ZM42.752 12.0283L43.0007 12.0532L43.002 12.0408V12.0283H42.752ZM42.5801 9.1709L42.3306 9.15461L42.3295 9.17107L42.3306 9.18753L42.5801 9.1709ZM42.752 4.51953L42.6455 4.29333L42.502 4.36088V4.51953H42.752ZM34.8994 9.70801V9.45801H34.8737L34.8486 9.46323L34.8994 9.70801ZM37.0371 12.0283H37.2871V12.002L37.2816 11.9762L37.0371 12.0283ZM35.0713 14.166V14.416H35.0937L35.1157 14.412L35.0713 14.166ZM33.8252 12.3828L33.5825 12.3229L33.5717 12.3665L33.5768 12.411L33.8252 12.3828ZM34.7168 13.2744L34.605 13.498L34.6973 13.5442L34.7953 13.5118L34.7168 13.2744ZM38.6484 16.1318L38.8252 15.9551L38.6945 15.8243L38.5311 15.9111L38.6484 16.1318ZM39.3574 19.709L39.1094 19.7406L39.1373 19.959H39.3574V19.709ZM39.7227 19.709V19.9592L39.7324 19.9588L39.7227 19.709ZM45.2549 19.5264L45.4785 19.4146L45.4094 19.2764H45.2549V19.5264ZM45.4375 19.8916H45.6875V19.8326L45.6611 19.7798L45.4375 19.8916ZM44.9004 20.6006V20.3504L44.891 20.3508L44.9004 20.6006ZM39.0029 20.7832V20.5332H38.7529V20.7832H39.0029ZM39.0029 20.9658L38.9335 21.206L39.2529 21.2984V20.9658H39.0029ZM38.1113 16.3145V16.0645H37.8613V16.3145H38.1113ZM34.3274 4.123L34.6927 4.66011L35.1061 4.37895L34.7409 3.84184L34.3274 4.123ZM34.6494 4.51953V6.85059H35.1494V4.51953H34.6494ZM34.6494 6.85059C34.6494 7.0405 34.7257 7.21223 34.8914 7.32381C35.0395 7.42356 35.2301 7.45508 35.4258 7.45508V6.95508C35.2705 6.95508 35.198 6.92751 35.1707 6.9091C35.1602 6.90208 35.1577 6.89744 35.1564 6.89478C35.1545 6.89104 35.1494 6.87863 35.1494 6.85059H34.6494ZM35.4258 7.45508C35.5949 7.45508 36.2133 7.39134 37.2486 7.27078L37.1908 6.77414C36.135 6.89707 35.5574 6.95508 35.4258 6.95508V7.45508ZM36.9948 7.13153L37.1666 7.48602L37.6166 7.26788L37.4447 6.91339L36.9948 7.13153ZM37.1416 7.37695V7.74219H37.6416V7.37695H37.1416ZM37.1416 7.74219C37.1416 7.74227 37.1416 7.74252 37.1415 7.74301C37.1415 7.74352 37.1413 7.74441 37.141 7.74575C37.1403 7.74841 37.1388 7.75332 37.1351 7.76063C37.1275 7.77579 37.1119 7.79932 37.0815 7.83039C37.0191 7.89407 36.9124 7.97123 36.7481 8.05846L36.9824 8.50013C37.1689 8.40116 37.3255 8.29571 37.4386 8.18035C37.5512 8.06545 37.6416 7.91835 37.6416 7.74219H37.1416ZM36.8652 8.0293H32.3965V8.5293H36.8652V8.0293ZM32.3626 8.0316L31.1058 8.20348L31.1735 8.69887L32.4304 8.52699L32.3626 8.0316ZM31.3483 8.31346L30.9938 7.77635L30.5765 8.05177L30.931 8.58888L31.3483 8.31346ZM31.0352 7.91406C31.0352 7.95494 31.0061 7.93464 31.1109 7.86685C31.2077 7.80429 31.3708 7.73429 31.6155 7.6625C32.1014 7.52001 32.8444 7.38852 33.8542 7.27078L33.7962 6.77414C32.7793 6.89273 32.0023 7.02801 31.4748 7.18271C31.2129 7.25953 30.996 7.34573 30.8394 7.44699C30.6909 7.54302 30.5352 7.69415 30.5352 7.91406H31.0352ZM34.074 7.04645L34.2459 5.26324L33.7482 5.21527L33.5763 6.99848L34.074 7.04645ZM34.2471 5.23926V4.16504H33.7471V5.23926H34.2471ZM33.9971 4.41504C34.1907 4.41504 34.4158 4.32842 34.6515 4.2032L34.4169 3.76164C34.1943 3.87991 34.0612 3.91504 33.9971 3.91504V4.41504ZM43.1172 4.59766H43.6543V4.09766H43.1172V4.59766ZM43.4043 4.34766V8.63379H43.9043V4.34766H43.4043ZM43.4078 8.59189L43.2252 9.66611L43.7181 9.74991L43.9008 8.67569L43.4078 8.59189ZM43.2268 9.75817C43.2885 10.0594 43.3519 10.2996 43.4193 10.4691C43.4524 10.5525 43.4922 10.6335 43.5427 10.698C43.5889 10.757 43.6822 10.8496 43.8262 10.8496V10.3496C43.9129 10.3496 43.9484 10.4051 43.9364 10.3897C43.9287 10.38 43.9099 10.3496 43.8839 10.2843C43.8331 10.1566 43.7766 9.951 43.7166 9.65784L43.2268 9.75817ZM43.8448 10.8489C45.4741 10.7269 46.4767 10.667 46.8662 10.667V10.167C46.4537 10.167 45.4296 10.2288 43.8075 10.3503L43.8448 10.8489ZM46.644 10.5315L46.8266 10.886L47.2711 10.657L47.0885 10.3025L46.644 10.5315ZM46.7988 10.7715V11.3086H47.2988V10.7715H46.7988ZM46.7988 11.3086C46.7988 11.3494 46.7936 11.3749 46.7888 11.3893C46.7865 11.3963 46.7844 11.4004 46.7831 11.4025C46.7819 11.4046 46.7811 11.4054 46.7807 11.4057C46.7804 11.4061 46.7796 11.4069 46.7775 11.4081C46.7754 11.4094 46.7713 11.4115 46.7643 11.4138C46.7499 11.4186 46.7244 11.4238 46.6836 11.4238V11.9238C46.8439 11.9238 47.01 11.8836 47.1343 11.7593C47.2586 11.635 47.2988 11.4689 47.2988 11.3086H46.7988ZM46.7198 11.4265L45.4738 11.2439L45.4012 11.7386L46.6473 11.9212L46.7198 11.4265ZM45.418 11.242C44.8189 11.2889 44.3515 11.3585 44.028 11.4559C43.8677 11.5042 43.7243 11.5646 43.6161 11.6454C43.5056 11.728 43.4043 11.8548 43.4043 12.0283H43.9043C43.9043 12.0694 43.8773 12.0744 43.9154 12.046C43.9558 12.0158 44.0353 11.9759 44.1722 11.9347C44.4431 11.8531 44.8673 11.7866 45.457 11.7404L45.418 11.242ZM43.4043 12.0283V12.3828H43.9043V12.0283H43.4043ZM43.4043 12.3828C43.4043 13.0547 43.4626 13.8992 43.5778 14.9139L44.0746 14.8576C43.9606 13.8527 43.9043 13.0286 43.9043 12.3828H43.4043ZM43.5762 14.8857C43.5762 15.0693 43.521 15.2218 43.4109 15.3545C43.2972 15.4915 43.1144 15.6194 42.8422 15.7276L43.0269 16.1923C43.3492 16.0642 43.6122 15.8949 43.7956 15.6738C43.9827 15.4484 44.0762 15.182 44.0762 14.8857H43.5762ZM43.1432 15.8223L42.7887 15.2851L42.3714 15.5606L42.7259 16.0977L43.1432 15.8223ZM42.8301 15.4229C42.8301 14.3142 42.8869 13.191 43.0007 12.0532L42.5032 12.0034C42.3878 13.1573 42.3301 14.2971 42.3301 15.4229H42.8301ZM43.002 12.0283C43.002 11.8312 42.9436 10.8661 42.8295 9.15427L42.3306 9.18753C42.4457 10.9132 42.502 11.853 42.502 12.0283H43.002ZM42.8295 9.18719C42.9444 7.42875 43.002 5.87267 43.002 4.51953H42.502C42.502 5.8591 42.4449 7.40394 42.3306 9.15461L42.8295 9.18719ZM42.8584 4.74574L43.2236 4.57386L43.0107 4.12145L42.6455 4.29333L42.8584 4.74574ZM34.8994 9.95801C35.3807 9.95801 35.765 10.1245 36.0718 10.4575C36.3861 10.7987 36.6329 11.3303 36.7926 12.0804L37.2816 11.9762C37.1119 11.1794 36.8377 10.551 36.4395 10.1187C36.0337 9.67821 35.5138 9.45801 34.8994 9.45801V9.95801ZM36.7871 12.0283V12.3828H37.2871V12.0283H36.7871ZM36.7871 12.3828C36.7871 12.7946 36.6488 13.1119 36.3777 13.3578C36.0981 13.6114 35.6578 13.8062 35.0269 13.92L35.1157 14.412C35.7953 14.2895 36.338 14.0689 36.7136 13.7281C37.0978 13.3796 37.2871 12.9235 37.2871 12.3828H36.7871ZM35.0713 13.916H34.8994V14.416H35.0713V13.916ZM34.8994 13.916C34.2716 13.916 33.8472 13.7872 33.5829 13.572C33.3284 13.3648 33.1836 13.0453 33.1836 12.5654H32.6836C32.6836 13.1526 32.8664 13.6334 33.2672 13.9597C33.6582 14.2781 34.2166 14.416 34.8994 14.416V13.916ZM33.1836 12.5654V11.4912H32.6836V12.5654H33.1836ZM33.1836 11.4912C33.1836 11.1005 33.3197 10.791 33.593 10.5431C33.8749 10.2874 34.3179 10.0841 34.9502 9.95279L34.8486 9.46323C34.1703 9.60407 33.6305 9.834 33.2571 10.1727C32.8751 10.5192 32.6836 10.9652 32.6836 11.4912H33.1836ZM33.5768 12.411C33.6284 12.8652 34.0395 13.2153 34.605 13.498L34.8286 13.0508C34.2769 12.775 34.0936 12.5306 34.0736 12.3546L33.5768 12.411ZM34.7953 13.5118C35.2781 13.352 35.6574 13.1916 35.9207 13.0273C36.0523 12.9451 36.166 12.8553 36.249 12.7549C36.3329 12.6532 36.3955 12.5278 36.3955 12.3828H35.8955C35.8955 12.3774 35.8986 12.3939 35.8635 12.4364C35.8274 12.4801 35.7625 12.5366 35.656 12.6031C35.443 12.736 35.1079 12.8817 34.6383 13.0371L34.7953 13.5118ZM36.3955 12.3828V12.2109H35.8955V12.3828H36.3955ZM36.3955 12.2109C36.3955 11.7007 36.2859 11.2714 36.023 10.9677C35.7542 10.6572 35.3635 10.5215 34.8994 10.5215V11.0215C35.2661 11.0215 35.4984 11.1257 35.645 11.295C35.7975 11.4711 35.8955 11.7615 35.8955 12.2109H36.3955ZM34.8994 10.5215H34.7168V11.0215H34.8994V10.5215ZM34.7168 10.5215C34.4035 10.5215 34.183 10.7733 34.0281 11.0533C33.8635 11.3506 33.7167 11.7786 33.5825 12.3229L34.0679 12.4427C34.1986 11.9128 34.3329 11.5351 34.4656 11.2954C34.6078 11.0383 34.7006 11.0215 34.7168 11.0215V10.5215ZM38.4717 16.3086C38.4646 16.3015 38.4746 16.3096 38.4959 16.3558C38.5152 16.3977 38.5377 16.4575 38.5627 16.5382C38.6127 16.6994 38.6671 16.9253 38.7255 17.2197C38.842 17.8075 38.97 18.6468 39.1094 19.7406L39.6054 19.6774C39.4655 18.5798 39.3358 17.7272 39.2159 17.1225C39.1561 16.8208 39.0977 16.5754 39.0403 16.3901C39.0116 16.2976 38.9817 16.2154 38.95 16.1466C38.9203 16.082 38.8806 16.0105 38.8252 15.9551L38.4717 16.3086ZM39.3574 19.959H39.7227V19.459H39.3574V19.959ZM39.7324 19.9588C42.8648 19.8369 44.7025 19.7764 45.2549 19.7764V19.2764C44.6901 19.2764 42.8396 19.3375 39.7129 19.4592L39.7324 19.9588ZM45.0313 19.6382L45.2139 20.0034L45.6611 19.7798L45.4785 19.4146L45.0313 19.6382ZM45.1875 19.8916V20.2461H45.6875V19.8916H45.1875ZM45.1875 20.2461C45.1875 20.2734 45.1824 20.2852 45.1808 20.2885C45.1796 20.2908 45.1769 20.2958 45.1655 20.3033C45.1359 20.3228 45.0599 20.3506 44.9004 20.3506V20.8506C45.099 20.8506 45.2915 20.8193 45.4409 20.7206C45.6086 20.61 45.6875 20.4382 45.6875 20.2461H45.1875ZM44.891 20.3508C41.6446 20.4726 39.6846 20.5332 39.0029 20.5332V21.0332C39.6963 21.0332 41.6679 20.9721 44.9098 20.8504L44.891 20.3508ZM38.7529 20.7832V20.9658H39.2529V20.7832H38.7529ZM39.0724 20.7257C38.818 20.6521 38.6477 20.5325 38.5381 20.3781C38.4273 20.2218 38.3613 20.0055 38.3613 19.709H37.8613C37.8613 20.0785 37.944 20.4046 38.1303 20.6674C38.318 20.9319 38.5935 21.1077 38.9335 21.206L39.0724 20.7257ZM38.3613 19.709V16.3145H37.8613V19.709H38.3613ZM38.1113 16.5645C38.305 16.5645 38.53 16.4778 38.7657 16.3526L38.5311 15.9111C38.3085 16.0293 38.1755 16.0645 38.1113 16.0645V16.5645ZM57.4668 3.81055V3.56055H57.2168V3.81055H57.4668ZM58.0039 3.81055L58.243 3.73749L58.1889 3.56055H58.0039V3.81055ZM58.3584 6.48535H58.1084V6.54437L58.1348 6.59716L58.3584 6.48535ZM58.541 6.85059L58.3174 6.96239L58.4032 7.134L58.5912 7.0955L58.541 6.85059ZM59.4326 6.66797V6.41797H59.4073L59.3825 6.42305L59.4326 6.66797ZM61.2158 7.37695H61.4658V7.30711L61.4296 7.24738L61.2158 7.37695ZM60.1523 9.52539L59.9394 9.39444L59.9023 9.45468V9.52539H60.1523ZM60.3242 9.70801L60.4368 9.48478L60.3837 9.45801H60.3242V9.70801ZM63.5469 10.5996H63.7969V10.3794L63.5784 10.3516L63.5469 10.5996ZM63.5469 11.3086L63.6084 11.5509L63.7969 11.5031V11.3086H63.5469ZM62.8271 11.4912V11.7412H62.8584L62.8886 11.7335L62.8271 11.4912ZM59.25 10.417L59.3315 10.1806L59 10.0663V10.417H59.25ZM56.7471 12.7373V12.9873H56.8361L56.9051 12.9311L56.7471 12.7373ZM56.0381 12.2109L55.8741 12.0223L55.7881 12.097V12.2109H56.0381ZM59.9697 8.09668L60.1863 8.22161L60.2197 8.16362V8.09668H59.9697ZM59.9697 7.55957H60.2197V7.30957H59.9697V7.55957ZM55.6836 8.63379V8.88379H55.7216L55.7579 8.87248L55.6836 8.63379ZM55.3184 7.74219V7.49219H55.0684V7.74219H55.3184ZM57.4668 6.31348L57.7159 6.33408L57.7168 6.3238V6.31348H57.4668ZM67.1133 6.13086H66.8632L66.8633 6.13619L67.1133 6.13086ZM67.833 20.2461L68.0747 20.3101L68.1579 19.9961H67.833V20.2461ZM66.7588 21.1377H66.5088V21.3877H66.7588V21.1377ZM66.5762 20.4287H66.3262V20.4966L66.3605 20.5551L66.5762 20.4287ZM66.7588 20.2461V20.4961H67.0309L67.0079 20.2249L66.7588 20.2461ZM66.5762 18.0977H66.3262V18.1083L66.3271 18.1188L66.5762 18.0977ZM66.5762 16.1318H66.8262V15.8818H66.5762V16.1318ZM54.2549 17.3887L54.0326 17.5032L54.1131 17.6594L54.2874 17.6366L54.2549 17.3887ZM54.0723 17.0342H53.8223V17.0948L53.85 17.1487L54.0723 17.0342ZM54.0723 16.6689L54.0393 16.4211L53.8223 16.45V16.6689H54.0723ZM58.541 15.7773L58.6201 16.0145L58.7127 15.9836L58.7599 15.8981L58.541 15.7773ZM58.7129 12.9199L58.4669 12.8752L58.4629 12.8974V12.9199H58.7129ZM59.6152 12.5654L59.8626 12.6017L59.9045 12.3154H59.6152V12.5654ZM59.4326 13.8115L59.1853 13.7753L59.1826 13.7933V13.8115H59.4326ZM60.1523 15.7773V16.0273H60.1721L60.1916 16.0242L60.1523 15.7773ZM65.8672 15.0684L65.979 14.8448L65.9262 14.8184H65.8672V15.0684ZM66.4043 15.2402V15.4902H66.6615L66.6542 15.2332L66.4043 15.2402ZM66.2217 5.94824L65.9745 5.91079L65.9717 5.92941V5.94824H66.2217ZM57.4668 4.06055H58.0039V3.56055H57.4668V4.06055ZM57.7648 3.8836C58.0024 4.66104 58.1084 5.16026 58.1084 5.41113H58.6084C58.6084 5.07476 58.4781 4.50693 58.243 3.73749L57.7648 3.8836ZM58.1084 5.41113V6.48535H58.6084V5.41113H58.1084ZM58.1348 6.59716L58.3174 6.96239L58.7646 6.73878L58.582 6.37355L58.1348 6.59716ZM58.5912 7.0955L59.4828 6.91288L59.3825 6.42305L58.4909 6.60567L58.5912 7.0955ZM59.4326 6.91797H59.6152V6.41797H59.4326V6.91797ZM59.6152 6.91797C60.3482 6.91797 60.7783 7.13732 61.002 7.50653L61.4296 7.24738C61.0805 6.67128 60.4435 6.41797 59.6152 6.41797V6.91797ZM60.9658 7.37695C60.9658 7.40298 60.9555 7.4674 60.9138 7.58447C60.874 7.69628 60.8121 7.83842 60.7259 8.01263C60.5536 8.36078 60.2922 8.82066 59.9394 9.39444L60.3653 9.65634C60.7215 9.07713 60.9918 8.60244 61.174 8.23444C61.265 8.05058 61.3361 7.88925 61.3849 7.7522C61.4318 7.62041 61.4658 7.49058 61.4658 7.37695H60.9658ZM59.9023 9.52539C59.9023 9.62115 59.9246 9.73948 60.0133 9.83369C60.1046 9.93076 60.2244 9.95801 60.3242 9.95801V9.45801C60.3095 9.45801 60.3433 9.45482 60.3774 9.49101C60.4087 9.52436 60.4023 9.55137 60.4023 9.52539H59.9023ZM60.2117 9.93124C61.0967 10.3775 62.2006 10.6805 63.5154 10.8476L63.5784 10.3516C62.3007 10.1892 61.2561 9.89789 60.4368 9.48478L60.2117 9.93124ZM63.2969 10.5996V11.3086H63.7969V10.5996H63.2969ZM63.4854 11.0663L62.7657 11.2489L62.8886 11.7335L63.6084 11.5509L63.4854 11.0663ZM62.8271 11.2412C62.783 11.2412 62.6769 11.2259 62.4884 11.1809C62.3074 11.1377 62.0697 11.0721 61.7738 10.9832C61.1824 10.8056 60.3687 10.5383 59.3315 10.1806L59.1685 10.6533C60.2081 11.0118 61.0291 11.2816 61.63 11.4621C61.9303 11.5523 62.1782 11.6209 62.3723 11.6672C62.5589 11.7118 62.7173 11.7412 62.8271 11.7412V11.2412ZM59 10.417C59 10.3642 59.0223 10.3445 58.999 10.3816C58.9827 10.4076 58.953 10.4474 58.9049 10.5027C58.8094 10.6126 58.6606 10.7622 58.4543 10.9534C58.0431 11.3346 57.4222 11.8642 56.5891 12.5436L56.9051 12.9311C57.7406 12.2498 58.3712 11.7122 58.7942 11.3201C59.0051 11.1245 59.1692 10.9608 59.2822 10.8308C59.3384 10.7662 59.3869 10.7043 59.4228 10.647C59.4516 10.601 59.5 10.5163 59.5 10.417H59ZM56.7471 12.4873H56.3926V12.9873H56.7471V12.4873ZM56.3926 12.4873C56.3536 12.4873 56.3296 12.4823 56.3165 12.478C56.3102 12.4759 56.3068 12.474 56.3052 12.4731C56.3044 12.4726 56.3039 12.4723 56.3037 12.4721C56.3036 12.472 56.3036 12.472 56.3035 12.472C56.3035 12.4719 56.3035 12.4719 56.3035 12.4719C56.3035 12.4719 56.3035 12.4719 56.3034 12.4719C56.3034 12.4718 56.3034 12.4718 56.3033 12.4717C56.3031 12.4715 56.3028 12.471 56.3023 12.4702C56.3014 12.4686 56.2995 12.4651 56.2974 12.4588C56.293 12.4458 56.2881 12.4218 56.2881 12.3828H55.7881C55.7881 12.5395 55.8274 12.703 55.9499 12.8255C56.0724 12.948 56.2359 12.9873 56.3926 12.9873V12.4873ZM56.2881 12.3828V12.2109H55.7881V12.3828H56.2881ZM56.2021 12.3996C58.2842 10.5894 59.6256 9.19339 60.1863 8.22161L59.7532 7.97175C59.2396 8.86195 57.96 10.2088 55.8741 12.0223L56.2021 12.3996ZM60.2197 8.09668V7.55957H59.7197V8.09668H60.2197ZM59.9697 7.30957C59.6555 7.30957 59.1306 7.40715 58.4185 7.58563C57.6976 7.76629 56.7607 8.03639 55.6092 8.3951L55.7579 8.87248C56.9053 8.51505 57.8322 8.24803 58.54 8.07062C59.2566 7.89102 59.7254 7.80957 59.9697 7.80957V7.30957ZM55.6836 8.38379C55.6422 8.38379 55.6159 8.37867 55.6008 8.37377C55.5934 8.37141 55.5891 8.36921 55.5868 8.3679C55.5847 8.36664 55.5839 8.36589 55.5838 8.36577C55.5837 8.36567 55.5832 8.36523 55.5824 8.36386C55.5815 8.3624 55.5797 8.35913 55.5776 8.35318C55.5734 8.34081 55.5684 8.31764 55.5684 8.2793H55.0684C55.0684 8.43792 55.1096 8.60236 55.2355 8.72456C55.3601 8.84541 55.5252 8.88379 55.6836 8.88379V8.38379ZM55.5684 8.2793V7.74219H55.0684V8.2793H55.5684ZM55.3184 7.99219C56.0184 7.99219 56.5926 7.87009 57.009 7.59318C57.4384 7.30766 57.6711 6.87682 57.7159 6.33408L57.2176 6.29287C57.1838 6.70261 57.019 6.98612 56.7322 7.17684C56.4324 7.37616 55.9719 7.49219 55.3184 7.49219V7.99219ZM57.7168 6.31348V3.81055H57.2168V6.31348H57.7168ZM66.5762 5.84375H66.7588V5.34375H66.5762V5.84375ZM66.7588 5.84375C66.7861 5.84375 66.7979 5.8488 66.8012 5.85047C66.8035 5.85165 66.8085 5.85432 66.816 5.86574C66.8355 5.89532 66.8633 5.97139 66.8633 6.13086H67.3633C67.3633 5.93226 67.332 5.73977 67.2333 5.59032C67.1227 5.42267 66.9509 5.34375 66.7588 5.34375V5.84375ZM66.8633 6.13619C66.9636 10.8418 67.0738 14.3736 67.1939 16.73C67.254 17.9074 67.3167 18.7956 67.3824 19.3913C67.4151 19.6877 67.4494 19.9199 67.4864 20.0814C67.5045 20.1601 67.5261 20.2357 67.5545 20.2966C67.5684 20.3264 67.5904 20.367 67.6249 20.4037C67.6595 20.4404 67.7294 20.4961 67.833 20.4961V19.9961C67.9191 19.9961 67.9717 20.0426 67.989 20.0609C68.0062 20.0793 68.0109 20.0923 68.0077 20.0853C68.0018 20.0727 67.9895 20.038 67.9738 19.9697C67.9434 19.8372 67.9116 19.6282 67.8794 19.3365C67.8153 18.7559 67.7532 17.8797 67.6933 16.7046C67.5735 14.3559 67.4635 10.8301 67.3632 6.12553L66.8633 6.13619ZM67.5914 20.182C67.5147 20.4711 67.4378 20.6673 67.3664 20.7858C67.2887 20.9148 67.2589 20.8877 67.2959 20.8877V21.3877C67.5334 21.3877 67.6934 21.212 67.7947 21.0438C67.9024 20.8651 67.9937 20.6155 68.0747 20.3101L67.5914 20.182ZM67.2959 20.8877H66.7588V21.3877H67.2959V20.8877ZM67.0088 21.1377C67.0088 20.8329 66.9383 20.5521 66.7918 20.3023L66.3605 20.5551C66.4576 20.7207 66.5088 20.9126 66.5088 21.1377H67.0088ZM66.8262 20.4287C66.8262 20.4064 66.8316 20.4355 66.7986 20.4685C66.7656 20.5015 66.7365 20.4961 66.7588 20.4961V19.9961C66.6594 19.9961 66.5389 20.0211 66.4451 20.115C66.3512 20.2088 66.3262 20.3293 66.3262 20.4287H66.8262ZM67.0079 20.2249L66.8253 18.0765L66.3271 18.1188L66.5097 20.2673L67.0079 20.2249ZM66.8262 18.0977V16.1318H66.3262V18.0977H66.8262ZM66.5762 15.8818H64.9756V16.3818H66.5762V15.8818ZM64.9756 15.8818C64.5813 15.8818 63.482 15.9891 61.7023 16.1977C59.9139 16.4074 57.4204 16.7218 54.2224 17.1408L54.2874 17.6366C57.4846 17.2177 59.9754 16.9036 61.7606 16.6943C63.5545 16.484 64.6179 16.3818 64.9756 16.3818V15.8818ZM54.4771 17.2742L54.2945 16.9197L53.85 17.1487L54.0326 17.5032L54.4771 17.2742ZM54.3223 17.0342V16.6689H53.8223V17.0342H54.3223ZM54.1052 16.9168C56.1002 16.6512 57.6088 16.3516 58.6201 16.0145L58.462 15.5402C57.4967 15.8619 56.0261 16.1567 54.0393 16.4211L54.1052 16.9168ZM58.7599 15.8981C58.8972 15.6493 58.9629 15.3705 58.9629 15.0684H58.4629C58.4629 15.2961 58.414 15.49 58.3221 15.6566L58.7599 15.8981ZM58.9629 15.0684V12.9199H58.4629V15.0684H58.9629ZM58.9589 12.9646C58.9748 12.8772 58.9997 12.844 59.0105 12.8334C59.0164 12.8278 59.0302 12.8154 59.0781 12.8154V12.3154C58.9255 12.3154 58.7782 12.3622 58.6623 12.4747C58.5514 12.5823 58.494 12.7264 58.4669 12.8752L58.9589 12.9646ZM59.0781 12.8154H59.6152V12.3154H59.0781V12.8154ZM59.3679 12.5292L59.1853 13.7753L59.68 13.8478L59.8626 12.6017L59.3679 12.5292ZM59.1826 13.8115C59.1826 14.475 59.2424 15.0021 59.3778 15.3718C59.446 15.5582 59.5393 15.7211 59.6692 15.8393C59.8044 15.9625 59.9692 16.0273 60.1523 16.0273V15.5273C60.0956 15.5273 60.0504 15.5103 60.0058 15.4696C59.9557 15.424 59.899 15.3413 59.8473 15.1999C59.7428 14.9144 59.6826 14.4585 59.6826 13.8115H59.1826ZM60.1916 16.0242C63.1695 15.5506 65.0531 15.3184 65.8672 15.3184V14.8184C65.0054 14.8184 63.0792 15.0587 60.1131 15.5304L60.1916 16.0242ZM65.7554 15.292C65.9915 15.41 66.2143 15.4902 66.4043 15.4902V14.9902C66.3364 14.9902 66.2012 14.9559 65.979 14.8448L65.7554 15.292ZM66.6542 15.2332C66.5325 10.9221 66.4717 7.82787 66.4717 5.94824H65.9717C65.9717 7.83554 66.0326 10.9359 66.1544 15.2473L66.6542 15.2332ZM66.4689 5.98569C66.4821 5.89836 66.5057 5.86736 66.5139 5.85915C66.517 5.85611 66.528 5.84375 66.5762 5.84375V5.34375C66.4238 5.34375 66.2755 5.39047 66.1604 5.5056C66.0504 5.61555 65.9971 5.7618 65.9745 5.91079L66.4689 5.98569ZM77.6396 2.55371V2.30371H77.3896V2.55371H77.6396ZM78.3486 2.55371L78.5952 2.51231L78.5602 2.30371H78.3486V2.55371ZM79.0684 10.0625L79.3171 10.088L79.3184 10.0753V10.0625H79.0684ZM78.8857 11.8457L78.637 11.8202L78.6323 11.8667L78.6446 11.9118L78.8857 11.8457ZM79.0684 13.457L79.1828 13.6793L79.3184 13.6095V13.457H79.0684ZM78.7139 13.6396V13.8896H78.7745L78.8284 13.8619L78.7139 13.6396ZM77.9941 13.1025L77.7454 13.0771L77.7356 13.1734L77.7932 13.2513L77.9941 13.1025ZM77.457 3.09082L77.2363 2.97353L77.1923 3.05634L77.2136 3.14765L77.457 3.09082ZM72.6338 2.73633V2.48633H72.5358L72.4639 2.55289L72.6338 2.73633ZM72.8164 2.73633L72.8539 2.48915L72.8352 2.48633H72.8164V2.73633ZM73.1709 3.27344L73.3658 3.42999L73.4209 3.36141V3.27344H73.1709ZM71.0225 5.94824L70.8276 5.79169L70.7725 5.86027V5.94824H71.0225ZM71.0225 6.48535H70.7725V6.73535H71.0225V6.48535ZM74.9541 8.63379L74.8268 8.84894L74.8857 8.88379H74.9541V8.63379ZM75.3193 9.87988L75.1927 10.0955L75.2514 10.1299H75.3193V9.87988ZM70.3135 7.20508V6.95508H70.1639L70.0932 7.08689L70.3135 7.20508ZM68.3477 8.81641L68.1274 8.69812L68.0977 8.75352V8.81641H68.3477ZM72.0967 13.8115V13.5615H72.0216L71.959 13.6029L72.0967 13.8115ZM73.3535 18.8174L73.1057 18.8504L73.1227 18.9778L73.2362 19.0382L73.3535 18.8174ZM81.0342 18.6348L81.1227 18.401L81.0714 18.3815L81.0166 18.3854L81.0342 18.6348ZM81.7432 19.3545L81.9518 19.4922L81.9932 19.4296V19.3545H81.7432ZM81.3887 19.8916L81.3605 20.14L81.5129 20.1573L81.5973 20.0293L81.3887 19.8916ZM79.7773 19.709L79.8055 19.4606L79.7915 19.459H79.7773V19.709ZM72.8164 20.0635L72.5797 20.144L72.6407 20.3233L72.8298 20.3131L72.8164 20.0635ZM71.5596 14.166L71.4219 13.9574L71.2835 14.0487L71.3138 14.2117L71.5596 14.166ZM77.6396 2.80371H78.3486V2.30371H77.6396V2.80371ZM78.1021 2.59511C78.5803 5.44324 78.8184 7.93177 78.8184 10.0625H79.3184C79.3184 7.89636 79.0766 5.37903 78.5952 2.51231L78.1021 2.59511ZM78.8197 10.037L78.637 11.8202L79.1344 11.8712L79.3171 10.088L78.8197 10.037ZM78.6446 11.9118C78.7588 12.328 78.8184 12.8416 78.8184 13.457H79.3184C79.3184 12.8121 79.2562 12.2514 79.1268 11.7796L78.6446 11.9118ZM78.9539 13.2348L78.5994 13.4174L78.8284 13.8619L79.1828 13.6793L78.9539 13.2348ZM78.7139 13.3896H78.5312V13.8896H78.7139V13.3896ZM78.5312 13.3896C78.5813 13.3896 78.6028 13.4104 78.5827 13.3972C78.5684 13.3878 78.5425 13.3672 78.5039 13.3286C78.4273 13.252 78.3249 13.1292 78.1951 12.9538L77.7932 13.2513C77.9284 13.434 78.0479 13.5797 78.1504 13.6821C78.2013 13.7331 78.2542 13.7796 78.3079 13.8149C78.3559 13.8465 78.4347 13.8896 78.5312 13.8896V13.3896ZM78.2428 13.128C78.3648 11.9373 78.4268 11.0318 78.4268 10.417H77.9268C77.9268 11.0053 77.867 11.8902 77.7454 13.0771L78.2428 13.128ZM78.4268 10.417V10.2451H77.9268V10.417H78.4268ZM78.4268 10.2451C78.4268 7.51693 78.1857 5.11237 77.7005 3.03399L77.2136 3.14765C77.688 5.17995 77.9268 7.54492 77.9268 10.2451H78.4268ZM77.6778 3.20811C77.803 2.9724 77.8896 2.74738 77.8896 2.55371H77.3896C77.3896 2.61786 77.3545 2.75091 77.2363 2.97353L77.6778 3.20811ZM72.6338 2.98633H72.8164V2.48633H72.6338V2.98633ZM72.779 2.98351C72.8663 2.99674 72.8973 3.02038 72.9055 3.02858C72.9085 3.03162 72.9209 3.04267 72.9209 3.09082H73.4209C73.4209 2.93845 73.3742 2.79016 73.259 2.67503C73.1491 2.56507 73.0029 2.51172 72.8539 2.48915L72.779 2.98351ZM72.9209 3.09082V3.27344H73.4209V3.09082H72.9209ZM72.976 3.11688L70.8276 5.79169L71.2174 6.1048L73.3658 3.42999L72.976 3.11688ZM70.7725 5.94824V6.48535H71.2725V5.94824H70.7725ZM71.0225 6.73535C70.9967 6.73535 70.9999 6.72977 71.062 6.75304C71.1124 6.77191 71.1824 6.80216 71.2739 6.84554C71.4564 6.93201 71.7097 7.06362 72.0359 7.24184C72.6874 7.59784 73.6172 8.13322 74.8268 8.84894L75.0814 8.41863C73.8704 7.70206 72.9347 7.16323 72.2756 6.80308C71.9465 6.62322 71.6834 6.48628 71.4881 6.39372C71.3907 6.34758 71.3065 6.31069 71.2374 6.2848C71.18 6.26331 71.0983 6.23535 71.0225 6.23535V6.73535ZM74.9541 8.88379C75.2994 8.88379 75.5212 8.92828 75.648 8.99167C75.7078 9.0216 75.7377 9.05138 75.7532 9.07459C75.7676 9.09623 75.7783 9.12513 75.7783 9.1709H76.2783C76.2783 9.03763 76.2443 8.90988 76.1692 8.79724C76.0951 8.68617 75.9907 8.60405 75.8716 8.54446C75.6403 8.42882 75.3249 8.38379 74.9541 8.38379V8.88379ZM75.7783 9.1709V9.34277H76.2783V9.1709H75.7783ZM75.7783 9.34277C75.7783 9.46175 75.7427 9.51408 75.7001 9.54633C75.6444 9.58851 75.5312 9.62988 75.3193 9.62988V10.1299C75.5801 10.1299 75.8214 10.0817 76.002 9.94488C76.1958 9.79809 76.2783 9.58187 76.2783 9.34277H75.7783ZM75.4459 9.66431C73.9268 8.77218 72.7471 8.10147 71.9083 7.65328C71.4894 7.4294 71.1521 7.25927 70.8986 7.14451C70.7721 7.08723 70.6627 7.04204 70.5723 7.01067C70.4904 6.98227 70.3967 6.95508 70.3135 6.95508V7.45508C70.3055 7.45508 70.3297 7.45575 70.4085 7.48307C70.4787 7.50743 70.5728 7.54582 70.6924 7.6C70.9313 7.70813 71.2574 7.87235 71.6727 8.09428C72.5025 8.53769 73.6754 9.20438 75.1927 10.0955L75.4459 9.66431ZM70.0932 7.08689C69.6465 7.91958 69.2921 8.53831 69.0291 8.94695C68.8969 9.15224 68.7922 9.29743 68.7139 9.38874C68.6742 9.43492 68.6475 9.45998 68.6327 9.47146C68.609 9.48984 68.6375 9.45801 68.7021 9.45801V9.95801C68.8115 9.95801 68.896 9.9001 68.9394 9.86634C68.9918 9.82567 69.0434 9.77252 69.0933 9.71441C69.1939 9.59714 69.3131 9.42947 69.4495 9.2176C69.7235 8.79193 70.0853 8.15919 70.5338 7.32326L70.0932 7.08689ZM68.7021 9.45801C68.6638 9.45801 68.6406 9.45299 68.6283 9.44874C68.6223 9.44669 68.619 9.4449 68.6176 9.444C68.6162 9.44315 68.6158 9.44269 68.6157 9.44258C68.6156 9.44246 68.6148 9.44169 68.6135 9.43953C68.6122 9.43728 68.61 9.43293 68.6077 9.42561C68.6028 9.41045 68.5977 9.38419 68.5977 9.34277H68.0977C68.0977 9.50121 68.136 9.6663 68.2569 9.79082C68.3791 9.91672 68.5435 9.95801 68.7021 9.95801V9.45801ZM68.5977 9.34277V8.81641H68.0977V9.34277H68.5977ZM68.5679 8.9347C70.0667 6.14398 71.4799 4.14542 72.8036 2.91977L72.4639 2.55289C71.0806 3.83375 69.6364 5.88857 68.1274 8.69812L68.5679 8.9347ZM72.0967 14.0615C72.0514 14.0615 72.0402 14.0368 72.0651 14.0628C72.0896 14.0883 72.1266 14.1406 72.172 14.2339C72.2622 14.4189 72.3604 14.7119 72.4638 15.1239C72.6697 15.944 72.884 17.184 73.1057 18.8504L73.6013 18.7844C73.379 17.1135 73.1618 15.8506 72.9488 15.0021C72.8427 14.5798 72.7346 14.247 72.6215 14.0149C72.5654 13.8996 72.5015 13.7954 72.426 13.7167C72.3509 13.6384 72.2404 13.5615 72.0967 13.5615V14.0615ZM73.2362 19.0382C73.4719 19.1634 73.697 19.25 73.8906 19.25V18.75C73.8265 18.75 73.6934 18.7149 73.4708 18.5966L73.2362 19.0382ZM73.8906 19.25C75.204 19.25 77.5934 19.1276 81.0517 18.8841L81.0166 18.3854C77.557 18.6289 75.184 18.75 73.8906 18.75V19.25ZM80.9456 18.8686C81.173 18.9547 81.3246 19.0341 81.415 19.1026C81.5113 19.1756 81.4932 19.2004 81.4932 19.1719H81.9932C81.9932 18.9643 81.8568 18.8101 81.7169 18.704C81.5709 18.5935 81.3681 18.4939 81.1227 18.401L80.9456 18.8686ZM81.4932 19.1719V19.3545H81.9932V19.1719H81.4932ZM81.5345 19.2168L81.18 19.7539L81.5973 20.0293L81.9518 19.4922L81.5345 19.2168ZM81.4168 19.6432L79.8055 19.4606L79.7492 19.9574L81.3605 20.14L81.4168 19.6432ZM79.7773 19.459C79.5321 19.459 77.2001 19.5779 72.803 19.8138L72.8298 20.3131C77.2413 20.0764 79.5499 19.959 79.7773 19.959V19.459ZM73.0531 19.983C72.824 19.3096 72.4084 17.3653 71.8054 14.1203L71.3138 14.2117C71.9138 17.4406 72.3362 19.4281 72.5797 20.144L73.0531 19.983ZM71.6973 14.3747L72.2344 14.0202L71.959 13.6029L71.4219 13.9574L71.6973 14.3747ZM95.9316 1.84473H96.1816V1.76603L96.1366 1.70153L95.9316 1.84473ZM95.9316 2.02734L96.1781 2.06938L96.1816 2.04851V2.02734H95.9316ZM93.9658 5.23926L93.927 5.48622L93.9463 5.48926H93.9658V5.23926ZM91.0977 2.55371L90.8503 2.51719L90.8477 2.53535V2.55371H91.0977ZM93.0635 1.84473V1.59473H92.8135V1.84473H93.0635ZM92.1719 3.09082L92.0569 2.86884L91.9219 2.93878V3.09082H92.1719ZM92.1719 3.27344H91.9219V3.33435L91.9499 3.38844L92.1719 3.27344ZM95.0293 2.19922L95.2714 2.26141L95.3158 2.08876L95.167 1.99057L95.0293 2.19922ZM94.4922 1.84473L94.6299 1.63607L94.5673 1.59473H94.4922V1.84473ZM100.218 1.66211L100.358 1.45538L100.235 1.37143L100.102 1.44031L100.218 1.66211ZM100.755 2.02734L101.004 2.05281L101.019 1.90447L100.895 1.82061L100.755 2.02734ZM100.572 3.81055L100.324 3.78508L100.322 3.79778V3.81055H100.572ZM100.755 6.85059L100.996 6.91669L101.011 6.86044L101 6.80317L100.755 6.85059ZM100.572 8.98828H100.322V9.00938L100.326 9.03018L100.572 8.98828ZM100.755 10.0625L100.969 10.1922L101.017 10.1125L101.001 10.0206L100.755 10.0625ZM100.927 12.2109L101.161 12.2995L101.289 11.9609H100.927V12.2109ZM100.218 12.9199L100.169 13.1651L100.193 13.1699H100.218V12.9199ZM99.8633 10.0625L100.061 10.2154L100.13 10.1265L100.109 10.0161L99.8633 10.0625ZM99.6807 6.66797H99.9307V6.3618L99.6307 6.42302L99.6807 6.66797ZM96.458 7.20508L96.2331 7.31415L96.3014 7.45508H96.458V7.20508ZM96.2861 6.85059H96.0361V6.908L96.0612 6.95965L96.2861 6.85059ZM99.3262 5.59375L99.3797 5.83796L99.5762 5.79491V5.59375H99.3262ZM99.6807 5.42188V5.67188H99.9307V5.42188H99.6807ZM103.43 2.38184L103.536 2.15563L103.486 2.13184H103.43V2.38184ZM103.795 2.55371L104.044 2.57903L104.062 2.40289L103.901 2.32751L103.795 2.55371ZM103.612 4.34766L103.364 4.32234L103.362 4.33496V4.34766H103.612ZM104.332 14.5312L104.47 14.7399L104.604 14.6515L104.579 14.4928L104.332 14.5312ZM103.795 14.8857V15.1357H103.87L103.933 15.0944L103.795 14.8857ZM102.721 6.48535H102.471L102.471 6.49462L102.721 6.48535ZM102.721 2.73633L102.474 2.69888L102.471 2.7175V2.73633H102.721ZM96.8232 8.09668L96.9497 7.88101L96.5732 7.66034V8.09668H96.8232ZM97.5322 8.2793H97.7822V8.0293H97.5322V8.2793ZM96.9951 9.52539L96.961 9.77305L97.0619 9.78697L97.1438 9.72635L96.9951 9.52539ZM95.749 9.35352L95.7832 9.10586L95.7662 9.10352H95.749V9.35352ZM94.6748 9.35352V9.10352H94.4708L94.4299 9.30335L94.6748 9.35352ZM94.4922 10.2451L94.2473 10.195L94.2422 10.2198V10.2451H94.4922ZM94.4922 12.3936H94.2422V12.4289L94.252 12.4628L94.4922 12.3936ZM94.8574 13.8223L95.0995 13.8846L95.1074 13.8539V13.8223H94.8574ZM93.9658 14.5312L93.7591 14.6718L93.8335 14.7812H93.9658V14.5312ZM93.6006 13.9941H93.3506V14.0711L93.3939 14.1347L93.6006 13.9941ZM93.4287 10.0625L93.2051 9.9507L93.1743 10.0122L93.1794 10.0809L93.4287 10.0625ZM93.6006 9.52539H93.8506V9.36877L93.7097 9.30044L93.6006 9.52539ZM93.2461 9.35352L93.3552 9.12856L93.3035 9.10352H93.2461V9.35352ZM88.7773 8.45117L88.73 8.20569L88.5273 8.24476V8.45117H88.7773ZM89.6689 8.2793V8.0293H89.6451L89.6216 8.03382L89.6689 8.2793ZM97.8975 16.3252L97.9349 16.078L97.9163 16.0752H97.8975V16.3252ZM98.252 19.1826H98.002V19.2014L98.0048 19.2201L98.252 19.1826ZM101.829 16.6797L101.582 16.6422L101.579 16.6609V16.6797H101.829ZM102.538 16.3252L102.576 16.078L102.557 16.0752H102.538V16.3252ZM102.538 18.291L102.296 18.2272L102.288 18.2586V18.291H102.538ZM102.893 19.7197L103.118 19.8288L103.161 19.7387L103.131 19.6434L102.893 19.7197ZM102.721 20.0742L102.496 19.9652L102.46 20.0381L102.475 20.118L102.721 20.0742ZM98.0693 22.7598L97.8331 22.8415L97.8913 23.0098H98.0693V22.7598ZM97.1777 16.6797L96.9306 16.6422L96.9277 16.6609V16.6797H97.1777ZM98.4238 21.1484H98.1738V21.2107L98.203 21.2657L98.4238 21.1484ZM98.6064 21.6855H98.3564V21.9355H98.6064V21.6855ZM102.001 20.9658H102.251V20.9068L102.225 20.854L102.001 20.9658ZM101.829 20.4287H102.079V20.1787H101.829V20.4287ZM92.709 1.20312H93.9658V0.703125H92.709V1.20312ZM93.9658 1.20312C94.801 1.20312 95.3693 1.4764 95.7267 1.98793L96.1366 1.70153C95.6633 1.02425 94.9211 0.703125 93.9658 0.703125V1.20312ZM95.6816 1.84473V2.02734H96.1816V1.84473H95.6816ZM95.6852 1.98531C95.5046 3.04412 95.2562 3.81046 94.953 4.30577C94.654 4.79431 94.3235 4.98926 93.9658 4.98926V5.48926C94.5535 5.48926 95.0232 5.14889 95.3795 4.56679C95.7316 3.99146 95.9934 3.15184 96.1781 2.06938L95.6852 1.98531ZM94.0047 4.99229C93.0666 4.84474 92.3957 4.59944 91.9646 4.27647C91.5455 3.96254 91.3477 3.57285 91.3477 3.09082H90.8477C90.8477 3.7403 91.1279 4.27444 91.6648 4.67665C92.1897 5.06983 92.9529 5.333 93.927 5.48622L94.0047 4.99229ZM91.3477 3.09082V2.55371H90.8477V3.09082H91.3477ZM91.345 2.59023C91.4191 2.08812 91.5778 1.74622 91.7948 1.53064C92.007 1.3199 92.3018 1.20312 92.709 1.20312V0.703125C92.1995 0.703125 91.7674 0.853112 91.4425 1.1759C91.1224 1.49385 90.9338 1.95225 90.8503 2.51719L91.345 2.59023ZM92.8135 1.84473C92.8135 2.2468 92.5958 2.58965 92.0569 2.86884L92.2869 3.3128C92.9368 2.9761 93.3135 2.48823 93.3135 1.84473H92.8135ZM91.9219 3.09082V3.27344H92.4219V3.09082H91.9219ZM91.9499 3.38844C92.1205 3.71775 92.3447 3.97768 92.6277 4.15423C92.9111 4.3311 93.2386 4.41504 93.6006 4.41504V3.91504C93.318 3.91504 93.0852 3.85037 92.8924 3.73005C92.699 3.6094 92.5312 3.42353 92.3939 3.15844L91.9499 3.38844ZM93.6006 4.41504H93.9658V3.91504H93.6006V4.41504ZM93.9658 4.41504C94.1381 4.41504 94.2871 4.33788 94.4092 4.22786C94.5292 4.11962 94.635 3.96972 94.7309 3.79254C94.9227 3.43797 95.1015 2.92319 95.2714 2.26141L94.7872 2.13703C94.6205 2.7858 94.4538 3.25392 94.2911 3.55463C94.2097 3.70508 94.136 3.80091 94.0744 3.85649C94.0147 3.91029 93.9798 3.91504 93.9658 3.91504V4.41504ZM95.167 1.99057L94.6299 1.63607L94.3545 2.05338L94.8916 2.40787L95.167 1.99057ZM94.4922 1.59473H93.0635V2.09473H94.4922V1.59473ZM100.077 1.86884L100.614 2.23408L100.895 1.82061L100.358 1.45538L100.077 1.86884ZM100.506 2.00187L100.324 3.78508L100.821 3.83602L101.004 2.05281L100.506 2.00187ZM100.322 3.81055V5.05664H100.822V3.81055H100.322ZM100.322 5.05664C100.322 5.64027 100.385 6.25422 100.509 6.898L101 6.80317C100.881 6.18654 100.822 5.60453 100.822 5.05664H100.322ZM100.514 6.78448C100.384 7.25609 100.322 7.8131 100.322 8.45117H100.822C100.822 7.84315 100.882 7.3331 100.996 6.91669L100.514 6.78448ZM100.322 8.45117V8.98828H100.822V8.45117H100.322ZM100.326 9.03018L100.508 10.1044L101.001 10.0206L100.819 8.94638L100.326 9.03018ZM100.541 9.93276C100.385 10.1907 100.322 10.5421 100.322 10.9541H100.822C100.822 10.5784 100.882 10.3354 100.969 10.1922L100.541 9.93276ZM100.322 10.9541C100.322 11.379 100.352 11.7211 100.42 11.9646C100.454 12.0858 100.504 12.2029 100.581 12.2939C100.664 12.3923 100.782 12.4609 100.927 12.4609V11.9609C100.953 11.9609 100.968 11.9772 100.963 11.9709C100.951 11.9572 100.926 11.9172 100.902 11.8289C100.852 11.6534 100.822 11.3671 100.822 10.9541H100.322ZM100.693 12.1224C100.607 12.3497 100.527 12.5014 100.459 12.5917C100.386 12.6881 100.361 12.6699 100.39 12.6699V13.1699C100.597 13.1699 100.751 13.0336 100.857 12.8936C100.968 12.7477 101.068 12.5448 101.161 12.2995L100.693 12.1224ZM100.39 12.6699H100.218V13.1699H100.39V12.6699ZM100.267 12.6748C100.204 12.6621 100.121 12.6135 100.049 12.4211C99.975 12.2244 99.9307 11.9203 99.9307 11.4912H99.4307C99.4307 11.943 99.4758 12.3174 99.5809 12.597C99.6876 12.8809 99.8739 13.1061 100.169 13.1651L100.267 12.6748ZM99.9307 11.4912V11.3193H99.4307V11.4912H99.9307ZM99.9307 11.3193C99.9307 10.9849 99.9457 10.7235 99.9737 10.5308C100.003 10.326 100.043 10.239 100.061 10.2154L99.6655 9.90964C99.562 10.0435 99.51 10.2448 99.4789 10.4589C99.446 10.6852 99.4307 10.9734 99.4307 11.3193H99.9307ZM100.109 10.0161C99.9887 9.37978 99.9307 8.85944 99.9307 8.45117H99.4307C99.4307 8.90228 99.4943 9.45616 99.6176 10.1089L100.109 10.0161ZM99.9307 8.45117V6.66797H99.4307V8.45117H99.9307ZM99.6307 6.42302C98.7547 6.60178 98.0508 6.73539 97.518 6.8242C96.9787 6.91409 96.6312 6.95508 96.458 6.95508V7.45508C96.6786 7.45508 97.0653 7.40655 97.6002 7.3174C98.1415 7.22717 98.852 7.09223 99.7307 6.91292L99.6307 6.42302ZM96.683 7.09601L96.5111 6.74152L96.0612 6.95965L96.2331 7.31415L96.683 7.09601ZM96.5361 6.85059V6.48535H96.0361V6.85059H96.5361ZM96.5361 6.48535C96.5361 6.54806 96.5098 6.58979 96.4979 6.60552C96.486 6.62141 96.4772 6.62681 96.4822 6.62318C96.492 6.61592 96.52 6.59895 96.5771 6.57372C96.6886 6.52449 96.8661 6.46301 97.1165 6.38955C97.6146 6.24348 98.3677 6.05966 99.3797 5.83796L99.2727 5.34954C98.2579 5.57185 97.4911 5.75864 96.9758 5.90976C96.7196 5.98491 96.517 6.05367 96.3751 6.11635C96.3056 6.14706 96.2386 6.18145 96.1851 6.22097C96.1584 6.24072 96.1258 6.26837 96.0981 6.30535C96.0704 6.34217 96.0361 6.40384 96.0361 6.48535H96.5361ZM99.5762 5.59375C99.5762 5.61046 99.571 5.63589 99.5543 5.66019C99.539 5.68253 99.5234 5.69004 99.5239 5.6898C99.5252 5.68916 99.537 5.68401 99.5655 5.67941C99.5932 5.67493 99.631 5.67188 99.6807 5.67188V5.17188C99.5503 5.17188 99.4161 5.18639 99.3057 5.23989C99.2471 5.26829 99.1872 5.31161 99.1423 5.37692C99.0961 5.44418 99.0762 5.51975 99.0762 5.59375H99.5762ZM99.9307 5.42188V2.19922H99.4307V5.42188H99.9307ZM99.9307 2.19922C99.9307 2.20536 99.927 2.17752 99.9917 2.11281C100.056 2.0488 100.165 1.97135 100.333 1.88391L100.102 1.44031C99.9125 1.53907 99.7532 1.64423 99.6382 1.75926C99.5238 1.87358 99.4307 2.0212 99.4307 2.19922H99.9307ZM103.075 2.63184H103.43V2.13184H103.075V2.63184ZM103.323 2.60804L103.688 2.77992L103.901 2.32751L103.536 2.15563L103.323 2.60804ZM103.546 2.52839L103.364 4.32234L103.861 4.37297L104.044 2.57903L103.546 2.52839ZM103.362 4.34766V7.3877H103.862V4.34766H103.362ZM103.362 7.3877C103.362 9.08295 103.605 11.4792 104.085 14.5697L104.579 14.4928C104.1 11.4101 103.862 9.044 103.862 7.3877H103.362ZM104.194 14.3226L103.657 14.6771L103.933 15.0944L104.47 14.7399L104.194 14.3226ZM103.795 14.6357C103.858 14.6357 103.862 14.6795 103.819 14.615C103.78 14.5573 103.732 14.453 103.681 14.2868C103.579 13.9579 103.482 13.4502 103.393 12.7539C103.215 11.3654 103.074 9.27449 102.971 6.47609L102.471 6.49462C102.575 9.29647 102.717 11.4057 102.897 12.8174C102.987 13.5211 103.088 14.0635 103.203 14.4346C103.26 14.6185 103.325 14.7767 103.404 14.894C103.478 15.0045 103.605 15.1357 103.795 15.1357V14.6357ZM102.971 6.48535V2.73633H102.471V6.48535H102.971ZM102.968 2.77378C102.981 2.68644 103.005 2.65544 103.013 2.64724C103.016 2.6442 103.027 2.63184 103.075 2.63184V2.13184C102.923 2.13184 102.775 2.17855 102.659 2.29368C102.549 2.40364 102.496 2.54988 102.474 2.69888L102.968 2.77378ZM96.6968 8.31235C96.9466 8.45879 97.2274 8.5293 97.5322 8.5293V8.0293C97.3071 8.0293 97.1152 7.97806 96.9497 7.88101L96.6968 8.31235ZM97.2822 8.2793V8.98828H97.7822V8.2793H97.2822ZM97.2822 8.98828C97.2822 8.93826 97.303 8.91673 97.2898 8.93681C97.2804 8.95112 97.2598 8.97703 97.2212 9.01561C97.1446 9.09221 97.0218 9.19468 96.8464 9.32443L97.1438 9.72635C97.3266 9.59113 97.4723 9.47159 97.5747 9.36916C97.6257 9.31822 97.6722 9.26535 97.7075 9.21162C97.7391 9.16367 97.7822 9.08485 97.7822 8.98828H97.2822ZM97.0293 9.27774L95.7832 9.10586L95.7149 9.60117L96.961 9.77305L97.0293 9.27774ZM95.749 9.10352H94.6748V9.60352H95.749V9.10352ZM94.4299 9.30335L94.2473 10.195L94.7371 10.2953L94.9197 9.40368L94.4299 9.30335ZM94.2422 10.2451V12.3936H94.7422V10.2451H94.2422ZM94.252 12.4628C94.3735 12.8844 94.464 13.212 94.5239 13.4464C94.5539 13.5639 94.5757 13.6558 94.5899 13.7236C94.6057 13.7994 94.6074 13.825 94.6074 13.8223H95.1074C95.1074 13.7658 95.094 13.6916 95.0793 13.6215C95.063 13.5433 95.0392 13.4433 95.0083 13.3226C94.9465 13.0809 94.8544 12.7477 94.7324 12.3243L94.252 12.4628ZM94.6153 13.7599C94.5641 13.9587 94.4829 14.0826 94.3876 14.1583C94.2932 14.2334 94.1598 14.2812 93.9658 14.2812V14.7812C94.2445 14.7812 94.496 14.7109 94.6988 14.5497C94.9008 14.3891 95.029 14.1585 95.0995 13.8846L94.6153 13.7599ZM94.1726 14.3907L93.8073 13.8536L93.3939 14.1347L93.7591 14.6718L94.1726 14.3907ZM93.8506 13.9941V13.8223H93.3506V13.9941H93.8506ZM93.8506 13.8223C93.8506 12.8611 93.7928 11.601 93.678 10.0441L93.1794 10.0809C93.2938 11.6321 93.3506 12.8785 93.3506 13.8223H93.8506ZM93.6523 10.1743C93.7704 9.93819 93.8506 9.71536 93.8506 9.52539H93.3506C93.3506 9.59324 93.3162 9.72848 93.2051 9.9507L93.6523 10.1743ZM93.7097 9.30044L93.3552 9.12856L93.137 9.57847L93.4915 9.75034L93.7097 9.30044ZM93.2461 9.10352H89.1318V9.60352H93.2461V9.10352ZM89.1318 9.10352C89.0935 9.10352 89.0703 9.09849 89.0579 9.09424C89.052 9.0922 89.0487 9.09041 89.0473 9.08951C89.0459 9.08866 89.0455 9.08819 89.0454 9.08809C89.0452 9.08797 89.0445 9.0872 89.0432 9.08504C89.0419 9.08278 89.0397 9.07843 89.0374 9.07112C89.0325 9.05596 89.0273 9.0297 89.0273 8.98828H88.5273C88.5273 9.14672 88.5657 9.31181 88.6866 9.43633C88.8088 9.56223 88.9732 9.60352 89.1318 9.60352V9.10352ZM89.0273 8.98828V8.45117H88.5273V8.98828H89.0273ZM88.8247 8.69665L89.7163 8.52478L89.6216 8.03382L88.73 8.20569L88.8247 8.69665ZM89.6689 8.5293H96.6406V8.0293H89.6689V8.5293ZM96.6406 8.5293C96.74 8.5293 96.8605 8.50428 96.9544 8.41042C97.0482 8.31656 97.0732 8.19609 97.0732 8.09668H96.5732C96.5732 8.11902 96.5678 8.08985 96.6008 8.05687C96.6338 8.02388 96.663 8.0293 96.6406 8.0293V8.5293ZM97.5322 16.5752H97.8975V16.0752H97.5322V16.5752ZM97.86 16.5724C97.9473 16.5856 97.9783 16.6092 97.9866 16.6175C97.9896 16.6205 98.002 16.6315 98.002 16.6797H98.502C98.502 16.5273 98.4552 16.379 98.3401 16.2639C98.2301 16.1539 98.0839 16.1006 97.9349 16.078L97.86 16.5724ZM98.002 16.6797V19.1826H98.502V16.6797H98.002ZM98.0048 19.2201C98.0274 19.3691 98.0807 19.5153 98.1907 19.6253C98.3058 19.7404 98.4541 19.7871 98.6064 19.7871V19.2871C98.5583 19.2871 98.5472 19.2747 98.5442 19.2717C98.536 19.2635 98.5124 19.2325 98.4991 19.1452L98.0048 19.2201ZM98.6064 19.7871H98.9609V19.2871H98.6064V19.7871ZM98.9609 19.7871C99.9207 19.7871 100.657 19.7425 101.158 19.6486C101.407 19.602 101.617 19.54 101.772 19.4529C101.925 19.367 102.079 19.222 102.079 19H101.579C101.579 18.957 101.613 18.9687 101.527 19.017C101.443 19.0643 101.296 19.1141 101.066 19.1571C100.612 19.2422 99.9133 19.2871 98.9609 19.2871V19.7871ZM102.079 19V16.6797H101.579V19H102.079ZM102.076 16.7171C102.09 16.6298 102.113 16.5988 102.121 16.5906C102.124 16.5876 102.135 16.5752 102.184 16.5752V16.0752C102.031 16.0752 101.883 16.1219 101.768 16.237C101.658 16.347 101.604 16.4932 101.582 16.6422L102.076 16.7171ZM102.184 16.5752H102.538V16.0752H102.184V16.5752ZM102.501 16.5724C102.588 16.5856 102.619 16.6092 102.627 16.6175C102.63 16.6205 102.643 16.6315 102.643 16.6797H103.143C103.143 16.5273 103.096 16.379 102.981 16.2639C102.871 16.1539 102.725 16.1006 102.576 16.078L102.501 16.5724ZM102.643 16.6797C102.643 16.7373 102.62 16.8895 102.56 17.1631C102.502 17.4267 102.414 17.781 102.296 18.2272L102.78 18.3548C102.898 17.9058 102.988 17.544 103.048 17.2705C103.106 17.007 103.143 16.8011 103.143 16.6797H102.643ZM102.288 18.291C102.288 18.4316 102.325 18.6303 102.384 18.8695C102.445 19.1152 102.535 19.4245 102.654 19.796L103.131 19.6434C103.013 19.2773 102.927 18.9797 102.869 18.7491C102.811 18.5121 102.788 18.3652 102.788 18.291H102.288ZM102.668 19.6107L102.496 19.9652L102.946 20.1833L103.118 19.8288L102.668 19.6107ZM102.475 20.118C102.588 20.7547 102.643 21.276 102.643 21.6855H103.143C103.143 21.2357 103.083 20.6828 102.967 20.0305L102.475 20.118ZM102.643 21.6855V22.04H103.143V21.6855H102.643ZM102.643 22.04C102.643 21.9978 102.678 22.0422 102.489 22.1267C102.319 22.2026 102.045 22.2736 101.65 22.3326C100.865 22.4497 99.6742 22.5098 98.0693 22.5098V23.0098C99.68 23.0098 100.901 22.9499 101.724 22.8271C102.133 22.7661 102.461 22.6871 102.693 22.5831C102.906 22.4877 103.143 22.3222 103.143 22.04H102.643ZM98.3056 22.6781C97.7216 20.9893 97.4277 19.1089 97.4277 17.0342H96.9277C96.9277 19.1561 97.2283 21.0927 97.8331 22.8415L98.3056 22.6781ZM97.4277 17.0342V16.6797H96.9277V17.0342H97.4277ZM97.4249 16.7171C97.4381 16.6298 97.4618 16.5988 97.47 16.5906C97.473 16.5876 97.4841 16.5752 97.5322 16.5752V16.0752C97.3799 16.0752 97.2316 16.1219 97.1164 16.237C97.0065 16.347 96.9531 16.4932 96.9306 16.6422L97.4249 16.7171ZM98.203 21.2657C98.3213 21.4883 98.3564 21.6214 98.3564 21.6855H98.8564C98.8564 21.4919 98.7698 21.2669 98.6446 21.0311L98.203 21.2657ZM98.6064 21.9355H99.6807V21.4355H98.6064V21.9355ZM99.6807 21.9355C100.461 21.9355 101.071 21.8758 101.495 21.7444C101.904 21.6176 102.251 21.3823 102.251 20.9658H101.751C101.751 21.0292 101.711 21.1537 101.347 21.2668C100.997 21.3754 100.447 21.4355 99.6807 21.4355V21.9355ZM102.225 20.854C102.113 20.6318 102.079 20.4966 102.079 20.4287H101.579C101.579 20.6187 101.659 20.8415 101.777 21.0776L102.225 20.854ZM101.829 20.1787H101.292V20.6787H101.829V20.1787ZM101.292 20.1787C100.331 20.1787 99.5888 20.2385 99.08 20.3662C98.8269 20.4297 98.6107 20.5149 98.4527 20.6338C98.2877 20.7581 98.1738 20.9307 98.1738 21.1484H98.6738C98.6738 21.1263 98.6795 21.089 98.7534 21.0333C98.8345 20.9723 98.9768 20.9076 99.2017 20.8511C99.649 20.7389 100.341 20.6787 101.292 20.6787V20.1787ZM113.956 3.08008V2.83008H113.928L113.9 2.83641L113.956 3.08008ZM114.311 3.08008H114.561V2.83008H114.311V3.08008ZM109.842 4.69141L109.803 4.44441L109.592 4.47747V4.69141H109.842ZM109.842 6.65723H109.592V6.71624L109.618 6.76903L109.842 6.65723ZM110.024 7.02246L109.801 7.13426L109.877 7.28655L110.047 7.27148L110.024 7.02246ZM114.139 6.48535L114.29 6.28608L114.201 6.21903L114.092 6.23974L114.139 6.48535ZM114.848 7.02246L115.081 7.11102L115.148 6.93612L114.999 6.82319L114.848 7.02246ZM110.916 8.98828L110.786 9.20152L110.846 9.23828H110.916V8.98828ZM115.03 8.45117L115.068 8.20399L115.029 8.19815L114.991 8.20434L115.03 8.45117ZM111.099 10.0625V10.3125H111.115L111.132 10.3102L111.099 10.0625ZM108.768 3.98242L108.52 3.94605L108.518 3.96414V3.98242H108.768ZM118.425 13.1025L118.647 12.988L118.572 12.8428L118.409 12.853L118.425 13.1025ZM118.607 13.457H118.857V13.3964L118.83 13.3425L118.607 13.457ZM116.642 14.3486V14.5986H116.653L116.663 14.5977L116.642 14.3486ZM115.385 14.3486V14.0986H115.235L115.164 14.231L115.385 14.3486ZM115.567 18.4629L115.802 18.5503L115.829 18.4778L115.81 18.4027L115.567 18.4629ZM114.311 18.6455H114.061V18.7066L114.089 18.7608L114.311 18.6455ZM114.311 14.7139H114.561V14.658L114.537 14.6074L114.311 14.7139ZM114.139 14.3486L114.365 14.2422L114.294 14.0907L114.126 14.0989L114.139 14.3486ZM105.373 14.7139L105.256 14.9346L105.311 14.9639H105.373V14.7139ZM104.836 14.5312H104.586V14.7812H104.836V14.5312ZM104.836 14.1768L104.599 14.0963L104.586 14.1354V14.1768H104.836ZM109.842 13.6396V13.8896H109.85L109.857 13.8892L109.842 13.6396ZM110.733 17.5713V17.3213H110.483V17.5713H110.733ZM111.99 20.0742L111.743 20.1145L111.765 20.246L111.886 20.3015L111.99 20.0742ZM112.882 20.6113H112.632V20.8832L112.903 20.8605L112.882 20.6113ZM118.607 19.5371L118.725 19.3163L118.635 19.2689L118.538 19.2969L118.607 19.5371ZM119.145 19.7197H119.395V19.4697H119.145V19.7197ZM117.533 20.9658V20.7158H117.515L117.497 20.7185L117.533 20.9658ZM111.99 21.5029L111.805 21.6707L111.879 21.7529H111.99V21.5029ZM110.562 18.1084L110.338 17.9966L110.312 18.0494V18.1084H110.562ZM113.956 3.33008H114.311V2.83008H113.956V3.33008ZM114.061 3.08008V3.2627H114.561V3.08008H114.061ZM114.061 3.2627C114.061 3.54865 113.96 3.73408 113.771 3.86078C113.565 3.99934 113.223 4.08691 112.71 4.08691V4.58691C113.264 4.58691 113.723 4.49545 114.05 4.27594C114.394 4.04456 114.561 3.69288 114.561 3.2627H114.061ZM112.71 4.08691C112.285 4.08691 111.308 4.20911 109.803 4.44441L109.88 4.9384C111.398 4.70104 112.333 4.58691 112.71 4.58691V4.08691ZM109.592 4.69141V6.65723H110.092V4.69141H109.592ZM109.618 6.76903L109.801 7.13426L110.248 6.91066L110.065 6.54542L109.618 6.76903ZM110.047 7.27148C111.663 7.12779 113.043 6.94782 114.185 6.73096L114.092 6.23974C112.971 6.45257 111.608 6.63068 110.002 6.77344L110.047 7.27148ZM113.988 6.68462L114.697 7.22173L114.999 6.82319L114.29 6.28608L113.988 6.68462ZM114.614 6.9339C114.528 7.16124 114.448 7.31288 114.38 7.40323C114.307 7.49961 114.282 7.48145 114.311 7.48145V7.98145C114.518 7.98145 114.672 7.84511 114.778 7.70516C114.889 7.55919 114.989 7.35634 115.081 7.11102L114.614 6.9339ZM114.311 7.48145H113.064V7.98145H114.311V7.48145ZM113.064 7.48145C112.105 7.48145 111.369 7.52608 110.867 7.61999C110.619 7.66652 110.408 7.72856 110.253 7.81561C110.1 7.90154 109.946 8.04651 109.946 8.26855H110.446C110.446 8.31156 110.412 8.29988 110.498 8.25153C110.582 8.2043 110.73 8.15444 110.959 8.11145C111.414 8.02633 112.112 7.98145 113.064 7.98145V7.48145ZM109.946 8.26855C109.946 8.46491 110.068 8.63307 110.199 8.76491C110.339 8.90491 110.538 9.05021 110.786 9.20152L111.047 8.77504C110.814 8.63274 110.653 8.51127 110.553 8.41136C110.445 8.30329 110.446 8.2584 110.446 8.26855H109.946ZM110.916 9.23828H111.099V8.73828H110.916V9.23828ZM111.099 9.23828C111.316 9.23828 111.76 9.19064 112.411 9.1017C113.069 9.0118 113.956 8.87717 115.07 8.698L114.991 8.20434C113.878 8.38325 112.996 8.51717 112.343 8.6063C111.684 8.6964 111.275 8.73828 111.099 8.73828V9.23828ZM114.993 8.69835C115.08 8.71158 115.111 8.73522 115.119 8.74343C115.122 8.74646 115.135 8.75752 115.135 8.80566H115.635C115.635 8.65329 115.588 8.505 115.473 8.38987C115.363 8.27992 115.217 8.22657 115.068 8.20399L114.993 8.69835ZM115.135 8.80566V9.1709H115.635V8.80566H115.135ZM115.135 9.1709C115.135 9.10854 115.162 9.06777 115.174 9.05284C115.186 9.0387 115.193 9.03622 115.182 9.0428C115.162 9.05592 115.116 9.07845 115.034 9.10773C114.871 9.1651 114.617 9.2311 114.262 9.3048C113.557 9.45155 112.492 9.62159 111.065 9.81476L111.132 10.3102C112.562 10.1167 113.641 9.94478 114.364 9.79432C114.724 9.71942 115.005 9.64801 115.2 9.57916C115.296 9.54533 115.384 9.50754 115.453 9.46315C115.488 9.44097 115.528 9.41044 115.562 9.36894C115.596 9.32665 115.635 9.25922 115.635 9.1709H115.135ZM111.099 9.8125C110.756 9.8125 110.467 9.72447 110.221 9.55473C109.973 9.38359 109.756 9.11932 109.576 8.74541C109.212 7.99084 109.018 6.82774 109.018 5.22852H108.518C108.518 6.85195 108.712 8.10584 109.125 8.96259C109.333 9.39435 109.601 9.73433 109.937 9.96603C110.274 10.1991 110.664 10.3125 111.099 10.3125V9.8125ZM109.018 5.22852V3.98242H108.518V5.22852H109.018ZM109.015 4.0188C109.028 3.92813 109.053 3.89492 109.063 3.88527C109.067 3.88069 109.081 3.86719 109.133 3.86719V3.36719C108.977 3.36719 108.826 3.41455 108.709 3.53172C108.597 3.64382 108.543 3.79322 108.52 3.94605L109.015 4.0188ZM109.133 3.86719H109.67V3.36719H109.133V3.86719ZM109.67 3.86719C110.989 3.86719 112.437 3.68509 114.012 3.32375L113.9 2.83641C112.353 3.19122 110.944 3.36719 109.67 3.36719V3.86719ZM118.203 13.217L118.385 13.5715L118.83 13.3425L118.647 12.988L118.203 13.217ZM118.357 13.457V13.6396H118.857V13.457H118.357ZM118.357 13.6396C118.357 13.6425 118.36 13.6613 118.317 13.7002C118.269 13.7436 118.18 13.7966 118.031 13.8503C117.735 13.9572 117.269 14.0428 116.62 14.0996L116.663 14.5977C117.325 14.5399 117.842 14.45 118.201 14.3206C118.38 14.2561 118.537 14.1757 118.653 14.0705C118.773 13.9609 118.857 13.8158 118.857 13.6396H118.357ZM116.642 14.0986H115.385V14.5986H116.642V14.0986ZM115.164 14.231C115.029 14.4852 114.963 14.7661 114.963 15.0684H115.463C115.463 14.8407 115.512 14.6418 115.605 14.4663L115.164 14.231ZM114.963 15.0684V15.4229H115.463V15.0684H114.963ZM114.963 15.4229C114.963 16.5155 115.083 17.5492 115.325 18.5231L115.81 18.4027C115.579 17.4717 115.463 16.4787 115.463 15.4229H114.963ZM115.333 18.3755C115.247 18.6066 115.167 18.761 115.098 18.8532C115.025 18.952 115 18.9326 115.03 18.9326V19.4326C115.24 19.4326 115.394 19.2933 115.499 19.1522C115.609 19.0045 115.709 18.799 115.802 18.5503L115.333 18.3755ZM115.03 18.9326H114.848V19.4326H115.03V18.9326ZM114.848 18.9326C114.854 18.9326 114.826 18.9363 114.761 18.8716C114.697 18.8076 114.62 18.6983 114.532 18.5302L114.089 18.7608C114.188 18.9508 114.293 19.1101 114.408 19.2251C114.522 19.3394 114.67 19.4326 114.848 19.4326V18.9326ZM114.561 18.6455V14.7139H114.061V18.6455H114.561ZM114.537 14.6074L114.365 14.2422L113.912 14.4551L114.084 14.8203L114.537 14.6074ZM114.126 14.0989C109.174 14.3426 106.26 14.4639 105.373 14.4639V14.9639C106.276 14.9639 109.206 14.8416 114.151 14.5983L114.126 14.0989ZM105.49 14.4931C105.255 14.3679 105.03 14.2812 104.836 14.2812V14.7812C104.9 14.7812 105.033 14.8164 105.256 14.9346L105.49 14.4931ZM105.086 14.5312V14.1768H104.586V14.5312H105.086ZM105.073 14.2572C105.141 14.0548 105.351 13.8896 105.91 13.8896V13.3896C105.28 13.3896 104.774 13.5826 104.599 14.0963L105.073 14.2572ZM105.91 13.8896H109.842V13.3896H105.91V13.8896ZM109.857 13.8892L118.44 13.3521L118.409 12.853L109.826 13.3901L109.857 13.8892ZM110.733 17.8213H111.271V17.3213H110.733V17.8213ZM111.271 17.8213C111.24 17.8213 111.216 17.8134 111.199 17.8053C111.184 17.7978 111.176 17.7905 111.176 17.7901C111.176 17.7896 111.179 17.7931 111.186 17.803C111.193 17.8127 111.202 17.8267 111.212 17.8459C111.255 17.9267 111.308 18.063 111.366 18.2661C111.482 18.6687 111.608 19.2826 111.743 20.1145L112.237 20.034C112.101 19.1972 111.971 18.5597 111.846 18.1279C111.785 17.9139 111.721 17.7373 111.653 17.6095C111.619 17.5462 111.577 17.482 111.524 17.4307C111.471 17.3795 111.385 17.3213 111.271 17.3213V17.8213ZM111.886 20.3015C112.181 20.4365 112.394 20.5446 112.53 20.6267C112.599 20.6685 112.64 20.6981 112.66 20.716C112.67 20.7251 112.668 20.7249 112.661 20.7154C112.656 20.7083 112.632 20.671 112.632 20.6113H113.132C113.132 20.5301 113.098 20.4685 113.075 20.4341C113.05 20.3973 113.019 20.3669 112.992 20.3428C112.938 20.2945 112.867 20.2463 112.788 20.1985C112.627 20.1016 112.394 19.9841 112.094 19.8469L111.886 20.3015ZM112.903 20.8605C114.797 20.7014 116.721 20.3402 118.677 19.7774L118.538 19.2969C116.612 19.8512 114.72 20.2061 112.861 20.3622L112.903 20.8605ZM118.49 19.7579C118.726 19.8831 118.951 19.9697 119.145 19.9697V19.4697C119.08 19.4697 118.947 19.4346 118.725 19.3163L118.49 19.7579ZM118.895 19.7197V19.9023H119.395V19.7197H118.895ZM118.895 19.9023C118.895 20.1829 118.794 20.3656 118.604 20.4913C118.395 20.629 118.051 20.7158 117.533 20.7158V21.2158C118.09 21.2158 118.551 21.1254 118.879 20.9086C119.226 20.6798 119.395 20.3307 119.395 19.9023H118.895ZM117.497 20.7185C115.072 21.0761 113.239 21.2529 111.99 21.2529V21.7529C113.277 21.7529 115.139 21.5717 117.57 21.2131L117.497 20.7185ZM112.176 21.3352C111.257 20.32 110.812 19.2462 110.812 18.1084H110.312C110.312 19.3912 110.818 20.5804 111.805 21.6707L112.176 21.3352ZM110.785 18.2202C110.903 17.9841 110.983 17.7613 110.983 17.5713H110.483C110.483 17.6391 110.449 17.7744 110.338 17.9966L110.785 18.2202Z" fill="#222222"/>
</svg>
