<svg width="153" height="27" viewBox="0 0 153 27" fill="none" xmlns="http://www.w3.org/2000/svg">
<path d="M1.01074 5.73047C1.28613 5.73047 1.7666 5.8916 2.45215 6.21387C2.59277 6.21387 3.23438 6.13184 4.37695 5.96777C8.0625 5.96777 9.90527 6.84961 9.90527 8.61328C9.90527 9.27539 9.9873 9.91699 10.1514 10.5381C10.1514 14.3877 9.26953 16.3125 7.50586 16.3125H6.05566C3.00879 16.3125 1.48535 15.3516 1.48535 13.4297C0.84668 10.1016 0.527344 7.93652 0.527344 6.93457C0.849609 6.41309 1.01074 6.01172 1.01074 5.73047ZM13.5176 5.73047H14.4756C14.4756 5.9707 14.7158 6.29004 15.1963 6.68848V10.7842C17.9268 11.042 19.292 11.5225 19.292 12.2256V12.9463C19.292 13.1748 19.0488 13.415 18.5625 13.667C17.2031 13.667 16.1631 13.5059 15.4424 13.1836C15.4424 13.3477 15.3604 13.4297 15.1963 13.4297L15.4424 13.9043V16.0752C15.4424 16.2334 15.3604 16.3125 15.1963 16.3125L15.4424 16.7959V17.5166C15.4424 17.7334 15.041 18.1348 14.2383 18.7207C13.2773 18.3867 12.7969 17.7451 12.7969 16.7959V7.17188C12.8965 6.21094 13.1367 5.73047 13.5176 5.73047ZM3.17285 8.61328C3.55957 11.9824 3.96094 13.667 4.37695 13.667C5.79492 13.8252 6.67676 13.9043 7.02246 13.9043C7.34473 13.2773 7.50586 12.3955 7.50586 11.2588V11.0215L7.25977 8.61328C7.10156 8.61328 7.02246 8.69531 7.02246 8.85938L5.81836 8.61328H3.17285ZM23.8809 1.17773C25.3516 1.17773 26.6318 1.89844 27.7217 3.33984C27.8857 4.21875 27.9678 4.86035 27.9678 5.26465C27.5518 7.50879 26.6699 8.63086 25.3223 8.63086H24.3555C21.4727 7.66406 20.0312 5.97949 20.0312 3.57715C20.0312 2.61621 21.3145 1.81641 23.8809 1.17773ZM22.4395 3.82324V4.29785C23.3477 5.58105 24.2266 6.22266 25.0762 6.22266C25.3984 5.58398 25.5596 5.02441 25.5596 4.54395C24.8857 3.89941 24.2441 3.57715 23.6348 3.57715L22.4395 3.82324ZM23.6348 10.793V11.0303L24.1182 10.793H29.4092C29.8896 10.9512 30.1299 11.4316 30.1299 12.2344V12.4717C30.1299 12.7236 29.8076 13.0459 29.1631 13.4385H24.8389C23.9131 13.4385 22.6299 13.5176 20.9893 13.6758C20.3506 13.5469 20.0312 12.9053 20.0312 11.751C20.8223 11.2705 22.0234 10.9512 23.6348 10.793ZM28.2051 15.3545C29.166 15.3545 29.6465 17.5195 29.6465 21.8496C29.2715 22.9688 28.5508 23.5283 27.4844 23.5283H26.7637C23.5586 23.335 21.9561 22.6934 21.9561 21.6035V16.5586C21.9561 15.7559 24.0391 15.3545 28.2051 15.3545ZM24.3555 18.4834V20.8828H27.001V17.7627C25.2373 17.9209 24.3555 18.1611 24.3555 18.4834ZM35.4395 0.694336C38 1.66699 39.2803 3.1084 39.2803 5.01855C38.6768 7.2627 37.6367 8.38477 36.1602 8.38477C32.9551 8.00977 31.3525 6.40723 31.3525 3.57715C31.3525 2.08887 32.7148 1.12793 35.4395 0.694336ZM33.998 3.57715V4.06055C34.1562 5.34375 34.877 5.98535 36.1602 5.98535C36.4766 5.45801 36.6348 4.97754 36.6348 4.54395C36.377 3.74121 35.8965 3.33984 35.1934 3.33984L33.998 3.57715ZM31.8271 9.82617H40.2471C40.4756 9.82617 40.7158 10.0664 40.9678 10.5469V11.5137C40.9678 11.7422 40.5664 12.0615 39.7637 12.4717C38.8848 12.3135 38.2432 12.2344 37.8389 12.2344C36.79 12.2344 35.4277 12.3135 33.752 12.4717L30.8691 11.9883V11.751C30.8691 11.5928 30.9482 11.5137 31.1064 11.5137L30.8691 11.0303V10.3096C31.1211 10.3096 31.4404 10.1484 31.8271 9.82617ZM34.4727 14.6338L35.6768 14.8799H39.043C39.8457 15.2607 40.2471 16.7021 40.2471 19.2041C40.2471 20.3232 39.4443 20.8828 37.8389 20.8828V20.6455C37.5049 20.8037 36.623 20.9648 35.1934 21.1289V21.3662C35.1934 21.5947 35.4336 21.835 35.9141 22.0869C36.5059 22.0869 37.6279 21.9258 39.2803 21.6035C39.9248 21.7676 40.2471 22.251 40.2471 23.0537C39.9248 24.0146 39.043 24.4951 37.6016 24.4951H36.1602C33.752 24.4951 32.5479 23.291 32.5479 20.8828C32.5479 19.6289 33.8311 18.8291 36.3975 18.4834H37.6016V17.5254C33.5938 17.5254 31.5898 17.2031 31.5898 16.5586L31.3525 15.6006C31.9443 15.1611 32.9844 14.8389 34.4727 14.6338ZM49.1348 1.88086C53.1426 2.39648 55.1465 2.71582 55.1465 2.83887L55.6299 2.60156H57.5547C59.7988 3.02344 60.9209 4.86621 60.9209 8.12988C60.6104 8.8623 60.291 9.26367 59.9629 9.33398H59.4795C58.8994 9.33398 58.4189 7.89258 58.0381 5.00977C57.7158 5.00977 57.5547 4.92773 57.5547 4.76367L57.0713 5.00977H56.834C56.6699 5.00977 56.5879 4.92773 56.5879 4.76367C55.627 4.97461 55.1465 5.21484 55.1465 5.48438V8.37598C55.1465 9.33691 54.666 9.81738 53.7051 9.81738C53.0664 9.2373 52.7471 8.5957 52.7471 7.89258V4.76367C49.8584 4.44727 48.4141 4.04883 48.4141 3.56836V2.11816C48.584 2.11816 48.8242 2.03906 49.1348 1.88086ZM50.3389 10.7842C51.1826 10.9424 51.6631 11.0215 51.7803 11.0215C56.708 10.8633 60.0771 10.7842 61.8877 10.7842L62.6084 11.7422V12.4629C62.6084 12.6914 62.3682 12.9316 61.8877 13.1836H57.3174V13.9043L57.5547 15.5918H58.9961C60.2793 15.5918 60.9209 16.3125 60.9209 17.7539V19.1953C60.9209 21.123 58.8379 22.0869 54.6719 22.0869V22.5615C56.4941 22.8838 57.7744 23.0449 58.5127 23.0449H59.9629C60.1914 23.0449 60.4316 23.2852 60.6836 23.7656V24.0117C60.1855 24.9727 59.2217 25.4531 57.792 25.4531C54.9971 25.4531 53.0723 24.249 52.0176 21.8408C52.4219 20.5576 53.2246 19.916 54.4258 19.916C57.0684 19.7578 58.5127 19.2773 58.7588 18.4746V17.7539C55.1318 17.918 52.8848 18 52.0176 18L51.2969 17.0332L51.543 15.8291H54.1885L55.3926 15.5918L55.1465 15.1084V13.4297H52.9844C50.7402 13.4297 49.6182 12.8672 49.6182 11.7422L50.3389 10.7842ZM64.0684 3.56836C64.2266 3.56836 64.3057 3.64746 64.3057 3.80566L65.9932 3.56836H67.918C69.5234 3.67969 70.3262 4.23926 70.3262 5.24707H72.7256C73.9561 5.24707 74.7588 6.12891 75.1338 7.89258L75.6172 7.65527C75.7754 7.65527 75.8545 7.73438 75.8545 7.89258L76.3379 7.65527H78.5C78.5 7.55566 78.4209 6.5127 78.2627 4.52637L78.9834 4.04297H79.7041C80.2549 4.04297 80.6562 5.00684 80.9082 6.93457H80.6621C81.1426 8.21777 81.3828 9.58008 81.3828 11.0215V12.7002C81.3828 13.667 80.9023 14.1504 79.9414 14.1504C79.3027 13.9102 78.9834 13.6699 78.9834 13.4297V12.9463C78.9834 12.583 79.0625 12.2607 79.2207 11.9795C79.0625 11.6982 78.9834 11.3789 78.9834 11.0215V10.3008H77.7793L74.8965 10.5381V12.2256C74.8965 12.4541 74.6533 12.6943 74.167 12.9463H73.209C73.209 12.6943 73.0479 12.3721 72.7256 11.9795V8.85938L72.4883 7.65527H71.2842C70.9619 7.70215 70.8008 7.86035 70.8008 8.12988V11.2588C70.8008 11.4932 70.5605 11.7334 70.0801 11.9795H68.876L68.4014 10.3008V7.89258L68.1553 6.21387H67.4346C66.5557 6.21387 65.4336 6.29297 64.0684 6.45117C63.7578 6.29297 63.5176 6.21387 63.3477 6.21387V5.24707C63.3477 4.87793 63.5879 4.31836 64.0684 3.56836ZM77.7793 15.5918C79.3848 15.9141 80.1875 16.7959 80.1875 18.2373V20.6455C79.8652 21.0322 79.7041 21.3516 79.7041 21.6035H78.5C78.2363 21.6035 77.9961 21.041 77.7793 19.916C77.9375 19.6406 78.0166 19.3213 78.0166 18.958L77.542 18.2373C76.915 18.5596 76.0332 18.7207 74.8965 18.7207H72.0049C72.0049 18.5977 71.8438 18.1963 71.5215 17.5166C71.5215 16.5557 73.127 16.0752 76.3379 16.0752L77.7793 15.5918ZM85.7168 4.54395H86.6748C87.1553 4.54395 87.7178 6.30469 88.3623 9.82617H90.2783C90.6416 9.82617 90.9639 9.74707 91.2451 9.58887C92.2061 9.91699 92.6865 10.2363 92.6865 10.5469C92.6865 11.6719 92.0449 12.2344 90.7617 12.2344C91.5645 13.1543 91.9658 13.9541 91.9658 14.6338V15.3545C91.7666 17.9209 90.5654 19.2041 88.3623 19.2041C86.2705 19.2041 84.8291 18.0029 84.0381 15.6006L84.5127 12.4717C83.6748 12.6357 83.1943 12.7178 83.0713 12.7178C82.4326 12.4775 82.1133 12.2373 82.1133 11.9971V11.5137C82.1133 10.5527 82.834 10.0723 84.2754 10.0723C84.3984 10.0723 84.8789 9.99023 85.7168 9.82617C85.2363 7.86914 84.9961 6.66797 84.9961 6.22266C85.1543 5.10352 85.3945 4.54395 85.7168 4.54395ZM96.5273 6.94336C97.6465 6.94336 98.2061 7.9043 98.2061 9.82617L98.4521 11.5137L100.852 11.2764H102.056C102.442 11.5928 102.762 11.751 103.014 11.751V12.4717C102.604 13.4326 101.725 13.9131 100.377 13.9131H98.9268C98.9268 14.3057 99.0879 15.668 99.4102 18C99.1289 19.1191 98.8096 19.6787 98.4521 19.6787H97.4854C96.9287 19.6787 96.5303 17.5986 96.29 13.4385C96.0322 13.4385 95.792 11.7539 95.5693 8.38477C95.8916 7.42383 96.2109 6.94336 96.5273 6.94336ZM86.9209 13.4385L86.4375 14.3965C86.625 15.8379 87.2666 16.5586 88.3623 16.5586H88.8369C88.8369 16.459 88.998 15.9785 89.3203 15.1172C88.793 13.998 87.9932 13.4385 86.9209 13.4385ZM105.186 2.36426C106.146 2.36426 106.627 4.20703 106.627 7.89258C108.695 8.21484 110.061 8.37598 110.723 8.37598L113.122 8.13867V8.37598L113.605 8.13867H114.089C114.335 8.13867 114.654 8.45801 115.047 9.09668V10.3008C115.047 10.5293 114.807 10.7695 114.326 11.0215H112.164C111.625 11.0215 111.224 11.1006 110.96 11.2588C106.308 11.2588 103.981 9.81738 103.981 6.93457V6.45117H104.228L103.981 5.96777V3.08496C103.981 2.71582 104.383 2.47559 105.186 2.36426ZM104.465 12.9463H105.186C105.35 12.9463 105.432 13.0254 105.432 13.1836L105.906 12.9463H106.152C106.311 12.9463 106.39 13.0254 106.39 13.1836C106.548 13.1836 106.627 13.1045 106.627 12.9463L107.831 13.1836C108.001 13.1836 108.241 13.1045 108.552 12.9463L109.035 13.1836C109.357 13.1836 109.519 13.1045 109.519 12.9463L111.918 13.1836H114.563C114.956 13.5059 115.278 13.667 115.53 13.667V15.1084C115.53 15.5479 114.569 15.8701 112.647 16.0752L111.443 15.8291H105.432C104.564 15.8291 104.002 15.5098 103.744 14.8711V13.9043C104.225 13.5059 104.465 13.1865 104.465 12.9463ZM106.873 17.0332C107.617 17.0332 108.098 18.2373 108.314 20.6455C110.195 20.8037 111.558 20.8828 112.401 20.8828H114.089L114.326 21.8408C114.326 23.124 113.685 23.7656 112.401 23.7656C108.071 23.7656 105.906 22.9658 105.906 21.3662C105.748 20.7686 105.669 20.0449 105.669 19.1953V18.2373C105.669 18.0205 106.07 17.6191 106.873 17.0332ZM126.105 2.37305C127.125 3.01758 128.086 3.33984 128.988 3.33984C129.949 4.3418 130.43 5.7041 130.43 7.42676C130.43 8.6748 129.229 9.47461 126.826 9.82617C124.26 9.35742 122.977 7.67578 122.977 4.78125C122.977 3.7793 124.02 2.97656 126.105 2.37305ZM125.139 5.26465C125.543 6.50684 126.023 7.22754 126.58 7.42676H126.826C127.652 7.42676 128.133 7.18652 128.268 6.70605C128.268 5.42285 127.626 4.78125 126.343 4.78125H125.622C125.3 4.82812 125.139 4.98926 125.139 5.26465ZM134.754 4.78125H135.475C136.283 4.78125 136.764 7.74609 136.916 13.6758C136.758 14.3145 136.438 14.6338 135.958 14.6338C134.833 14.6338 134.271 14.0742 134.271 12.9551H134.517L134.271 12.4717C134.271 12.3135 134.353 12.2344 134.517 12.2344L134.271 11.751V10.3096L133.075 10.5469H132.592C131.76 10.5469 131.279 10.3066 131.15 9.82617V9.10547C131.15 8.67188 132.19 8.35254 134.271 8.14746V7.66406C134.271 7.46484 134.191 6.66504 134.033 5.26465L134.754 4.78125ZM138.841 5.26465H139.324C140.285 5.26465 140.766 8.3877 140.766 14.6338H140.528C140.247 14.7979 139.925 14.8799 139.562 14.8799C138.601 14.8799 138.12 12.3955 138.12 7.42676V5.98535C138.12 5.75098 138.36 5.51074 138.841 5.26465ZM124.655 11.0303H131.634C131.862 11.0303 132.103 11.2705 132.354 11.751V12.9551L130.667 13.1924H128.988V13.4385L129.226 15.6006C128.985 16.2393 128.745 16.5586 128.505 16.5586H127.547C127.066 16.459 126.826 15.8174 126.826 14.6338V13.1924H124.901C124.509 12.876 124.187 12.7178 123.935 12.7178V11.751C123.935 11.5225 124.175 11.2822 124.655 11.0303ZM138.12 16.0752C138.601 16.7842 138.841 17.3467 138.841 17.7627C138.601 21.7705 138.12 23.7744 137.399 23.7744H135.721C132.516 23.7744 130.913 22.9717 130.913 21.3662H131.15C130.828 20.2236 130.667 18.6211 130.667 16.5586L131.15 16.3213H132.108C132.753 16.5381 133.075 17.2588 133.075 18.4834H136.441C136.441 16.8779 137.001 16.0752 138.12 16.0752ZM133.312 20.4082V21.1289C135.082 21.4453 136.043 21.6035 136.195 21.6035V20.8828C134.695 20.6895 133.734 20.5312 133.312 20.4082ZM143.904 2.85645H149.187C149.509 2.90918 149.67 3.07031 149.67 3.33984C149.67 4.45898 149.351 5.01855 148.712 5.01855C148.536 5.01855 148.293 5.10059 147.982 5.26465C147.824 5.26465 147.745 5.18262 147.745 5.01855L146.066 5.26465H143.658L143.904 5.73926V6.94336L148.466 6.45996C149.591 6.84082 150.153 7.16309 150.153 7.42676C150.153 8.5459 149.43 9.10547 147.982 9.10547V8.86816C147.643 9.02637 146.441 9.1875 144.379 9.35156V10.0723C144.432 10.3887 144.593 10.5469 144.862 10.5469C145.981 10.5469 147.745 10.4678 150.153 10.3096L150.628 11.0303C150.628 12.3135 149.266 12.9551 146.541 12.9551C146.4 12.9551 145.762 13.0342 144.625 13.1924C143.02 13.1924 142.217 12.2314 142.217 10.3096L141.496 5.01855C141.777 3.57715 142.58 2.85645 143.904 2.85645ZM152.069 13.9131C152.38 14.0771 152.62 14.1592 152.79 14.1592V14.8799C152.79 15.999 152.31 16.5586 151.349 16.5586V16.3213C151.108 16.4795 150.628 16.5586 149.907 16.5586L150.153 19.9248L149.433 20.4082H148.712C148.29 20.4082 147.807 19.2041 147.262 16.7959H147.024C146.854 16.7959 146.614 16.8779 146.304 17.042C144.382 16.8779 143.421 16.5557 143.421 16.0752V15.3545C143.679 14.7158 144.238 14.3965 145.1 14.3965H146.304C147.165 14.3965 149.087 14.2354 152.069 13.9131ZM145.1 20.1621H146.787C147.268 22.8867 147.909 24.249 148.712 24.249C149.989 23.9326 151.029 23.7744 151.832 23.7744C152.154 24.1611 152.315 24.4805 152.315 24.7324C152.315 25.5352 151.114 26.1768 148.712 26.6572V26.4111C148.548 26.4111 148.466 26.4932 148.466 26.6572C146.386 26.499 145.346 25.5381 145.346 23.7744C145.064 23.7744 144.824 22.8105 144.625 20.8828C144.941 20.8828 145.1 20.6426 145.1 20.1621Z" fill="#222222"/>
</svg>
