<svg width="108" height="23" viewBox="0 0 108 23" fill="none" xmlns="http://www.w3.org/2000/svg">
<path d="M5.16699 0.513672C5.30241 0.513672 5.37012 0.585612 5.37012 0.729492C5.52246 0.729492 5.73405 0.657552 6.00488 0.513672C9.77962 1.10612 11.667 2.71419 11.667 5.33789C11.667 7.32682 10.2663 9.0026 7.46484 10.3652H7.26172V10.5811H11.248C11.248 10.7249 11.3158 10.9323 11.4512 11.2031C11.1719 11.7786 11.0322 12.1976 11.0322 12.46H11.248C11.5273 12.46 11.667 12.3203 11.667 12.041V11.4189C11.9717 7.9235 12.4583 6.17578 13.127 6.17578H13.5459C13.8252 6.17578 13.9648 6.38314 13.9648 6.79785C13.5501 8.47363 13.2031 10.2214 12.9238 12.041L13.127 12.46V14.1357C13.127 15.2106 12.8477 15.8411 12.2891 16.0273H12.0859C11.9759 16.0273 11.7643 15.8158 11.4512 15.3926L11.667 14.9736V14.3516C11.667 14.0723 11.5273 13.9326 11.248 13.9326H10.4102C8.38737 14.2119 7.33789 14.3516 7.26172 14.3516L7.0459 13.9326V13.5137C7.0459 12.9551 7.95573 12.6038 9.77539 12.46V12.2568L8.72168 12.041C7.18978 12.041 6.42383 12.2526 6.42383 12.6758V15.6084C6.42383 15.9215 6.49154 16.2008 6.62695 16.4463C6.49154 17.0049 6.14453 17.2842 5.58594 17.2842L4.95117 16.4463V12.8789L4.74805 12.46C4.40104 12.46 3.4235 12.5996 1.81543 12.8789C1.25684 12.6758 0.977539 12.4684 0.977539 12.2568V11.8379C0.977539 11.3809 2.79297 11.0296 6.42383 10.7842V10.5811C2.64909 10.0563 0.761719 8.30859 0.761719 5.33789C1.04102 3.94141 1.95085 2.47298 3.49121 0.932617C4.6084 0.839518 5.16699 0.69987 5.16699 0.513672ZM2.4375 5.33789V5.95996C2.4375 7.46647 3.62663 8.44824 6.00488 8.90527H6.62695C7.81185 8.90527 8.93327 7.9235 9.99121 5.95996V5.75684C9.99121 3.37858 8.94173 2.18945 6.84277 2.18945H4.74805C3.20768 3.14583 2.4375 4.19531 2.4375 5.33789ZM15.0186 5.75684C15.5771 5.89225 15.8564 6.3112 15.8564 7.01367V7.43262L14.5996 14.9736C14.8789 15.5492 15.0186 15.9723 15.0186 16.2432C15.0186 19.5947 14.5996 21.2705 13.7617 21.2705C12.9323 21.2705 11.6035 21.4102 9.77539 21.6895C9.2168 21.1309 8.9375 20.0137 8.9375 18.3379C8.9375 16.7975 9.42839 16.0273 10.4102 16.0273L10.8291 16.6621L10.6133 17.9189C12.4329 17.8174 13.3428 17.6058 13.3428 17.2842V16.6621C13.7998 9.39193 14.3584 5.75684 15.0186 5.75684ZM10.6133 19.7979C10.7572 19.7979 10.8291 19.8698 10.8291 20.0137C12.361 19.8698 13.127 19.6582 13.127 19.3789V18.96H12.9238C11.3835 19.1715 10.6133 19.4508 10.6133 19.7979ZM31.957 1.55469L32.1729 1.97363C32.1729 2.69303 31.9613 3.11198 31.5381 3.23047C23.43 3.23047 19.376 3.57747 19.376 4.27148C19.2321 4.54232 19.1602 4.75391 19.1602 4.90625C19.304 5.64258 19.376 6.34082 19.376 7.00098C22.7021 6.58626 25.9183 6.30697 29.0244 6.16309C29.1598 6.43392 29.2275 6.64551 29.2275 6.79785C29.0244 7.35645 28.8171 7.63574 28.6055 7.63574H28.1865C24.3271 7.63574 21.458 7.98275 19.5791 8.67676L20.2139 11.2031C20.984 11.2031 23.9886 10.8519 29.2275 10.1494H30.2812C30.4844 10.1494 30.696 10.361 30.916 10.7842C30.6452 11.4189 30.3659 11.766 30.0781 11.8252H27.7676C22.4525 12.2061 19.7949 12.625 19.7949 13.082C19.0501 13.082 18.4196 10.7757 17.9033 6.16309V4.90625C17.0654 4.36458 16.6465 4.01335 16.6465 3.85254C16.6465 2.70996 21.3311 2.01172 30.7002 1.75781C30.7002 1.6224 31.1191 1.55469 31.957 1.55469ZM30.916 13.082L31.1191 13.501C31.1191 14.2035 30.9795 14.5547 30.7002 14.5547C28.2458 14.6986 26.7773 14.7705 26.2949 14.7705L26.0918 15.1895V18.541C26.0918 18.7441 25.8802 18.9557 25.457 19.1758C24.8984 18.9473 24.6191 18.4564 24.6191 17.7031V14.9736C22.1732 15.2529 19.7949 15.6042 17.4844 16.0273L17.0654 15.3926C17.0654 14.4531 21.3311 13.7549 29.8623 13.2979C29.8623 13.154 30.2135 13.082 30.916 13.082ZM21.4707 17.2842H22.5244C22.5244 17.5635 22.5921 17.7031 22.7275 17.7031L22.5244 18.7568C22.6598 19.9756 22.7275 20.6738 22.7275 20.8516C23.7516 20.8516 26.2695 20.4326 30.2812 19.5947C30.8398 19.7301 31.1191 20.0094 31.1191 20.4326C31.1191 20.915 30.4886 21.262 29.2275 21.4736L28.8086 21.2705L21.8896 22.5273C21.4749 21.8587 21.2676 20.8092 21.2676 19.3789V18.3379L21.4707 17.2842ZM53.0752 0.945312L53.4941 1.16113C53.7396 1.01725 54.0189 0.945312 54.332 0.945312H55.1699C55.4492 0.98763 55.5889 1.12728 55.5889 1.36426C55.5889 2.09212 55.3815 2.51107 54.9668 2.62109C52.7409 2.48568 51.4121 2.41797 50.9805 2.41797C50.4219 2.97656 50.1426 4.30111 50.1426 6.3916V8.2832H52.2373C52.5505 8.2832 52.8298 8.21126 53.0752 8.06738C53.346 8.21126 53.5576 8.2832 53.71 8.2832V9.12109C53.71 9.32422 53.4984 9.53158 53.0752 9.74316H52.0215L42.6016 10.5811L42.1826 9.95898C42.1826 9.44271 43.2279 9.09147 45.3184 8.90527V8.70215C44.7598 8.70215 44.4805 7.65267 44.4805 5.55371V2.62109H43.8584C42.7751 2.62109 41.4463 2.83268 39.8721 3.25586C39.5928 2.90885 39.4531 2.62956 39.4531 2.41797C39.4531 1.58008 41.6198 1.16113 45.9531 1.16113L53.0752 0.945312ZM45.7373 4.29688V4.71582C45.7373 6.30697 46.0166 7.35645 46.5752 7.86426L46.3721 8.90527L48.4668 8.70215H48.6699V8.48633C48.6699 6.96289 48.8815 5.07975 49.3047 2.83691L48.8857 2.62109H46.3721C45.9489 2.70573 45.7373 3.26432 45.7373 4.29688ZM48.6699 10.5811C48.7122 10.8604 48.8519 11 49.0889 11C49.0889 11.2624 48.9492 11.8252 48.6699 12.6885C48.9408 12.8239 49.1523 12.8916 49.3047 12.8916C51.6745 12.6123 53.0033 12.4727 53.291 12.4727L53.71 13.1074C53.473 13.8014 53.1217 14.1484 52.6562 14.1484C50.168 14.1484 47.1634 14.5674 43.6426 15.4053C43.3717 15.2699 43.1644 15.2021 43.0205 15.2021V14.1484C45.9489 13.5306 47.4131 13.1117 47.4131 12.8916C47.4131 11.3512 47.832 10.5811 48.6699 10.5811ZM50.1426 15.2021H50.9805C51.8945 15.2021 52.5928 15.4814 53.0752 16.04L52.8594 16.459C52.8594 16.8737 52.9313 17.0811 53.0752 17.0811C53.0752 19.3154 52.5166 20.4326 51.3994 20.4326C49.7998 20.5765 48.3314 20.7881 46.9941 21.0674C46.3001 21.0674 45.9531 20.1576 45.9531 18.3379C45.9531 16.5267 46.3721 15.6211 47.21 15.6211C48.2594 15.3418 49.237 15.2021 50.1426 15.2021ZM47.4131 18.1348V18.9727C47.4131 19.252 47.6247 19.3916 48.0479 19.3916C50.2822 19.2054 51.3994 18.9261 51.3994 18.5537V17.0811C51.3148 16.6663 50.8239 16.459 49.9268 16.459C48.251 16.459 47.4131 17.0176 47.4131 18.1348ZM74.6123 2.17676H75.4502C75.4502 2.45605 75.5221 2.5957 75.666 2.5957C75.3867 3.23047 75.2471 4.1403 75.2471 5.3252V10.5684L75.4502 13.082C75.1709 13.082 75.0312 13.2936 75.0312 13.7168H74.4092C73.986 13.6322 73.7744 13.0736 73.7744 12.041V4.90625C73.876 3.08659 74.1553 2.17676 74.6123 2.17676ZM71.0449 3.01465C71.4681 4.5804 71.6797 6.26042 71.6797 8.05469V8.89258C71.6797 9.02799 71.7516 9.0957 71.8955 9.0957C71.8955 9.23958 71.8236 9.31152 71.6797 9.31152L71.8955 10.7842V10.9873C71.8955 11.7152 71.6839 12.3457 71.2607 12.8789L69.7881 12.6631H69.166C68.0996 12.6631 66.4915 13.0143 64.3418 13.7168C63.5547 13.7168 63.0638 11.5501 62.8691 7.2168C62.8691 4.55924 63.2204 3.23047 63.9229 3.23047H64.3418C64.4772 3.23047 64.5449 3.29818 64.5449 3.43359L64.9639 3.23047C68.0361 3.08659 70.0632 3.01465 71.0449 3.01465ZM64.3418 7.83887C64.3418 9.65007 64.5492 10.9788 64.9639 11.8252C66.5889 11.4105 68.2689 11.2031 70.0039 11.2031H70.207L70.4229 10.1494V8.05469C70.2451 5.67643 69.8939 4.4873 69.3691 4.4873H68.3281C65.6706 4.4873 64.3418 4.83854 64.3418 5.54102V7.83887ZM80.8486 0.932617H81.0518L81.4707 1.14844L81.2676 3.66211V4.28418H82.1055C83.0111 4.28418 83.9886 4.14453 85.0381 3.86523L85.457 4.5V4.91895C85.457 5.24056 84.2002 6.70898 81.6865 9.32422C81.8981 10.0859 82.8757 11.2031 84.6191 12.6758V12.8916C84.4837 13.3486 84.2044 13.6279 83.7812 13.7295C81.9616 12.2399 81.0518 11.2581 81.0518 10.7842H80.6328C80.2689 10.9196 79.6426 11.8294 78.7539 13.5137H78.1191C77.8398 13.5137 77.7002 13.374 77.7002 13.0947C77.7002 12.3669 79.3802 9.98861 82.7402 5.95996V5.75684H82.5244C79.029 6.03613 77.2812 6.24349 77.2812 6.37891L76.4434 5.75684C76.4434 5.05436 77.0739 4.70312 78.335 4.70312H79.5918C79.8711 4.70312 80.0107 4.56348 80.0107 4.28418V2.40527C80.0107 1.65202 80.29 1.16113 80.8486 0.932617ZM89.6592 3.66211L90.0781 4.28418L89.2402 9.32422L89.4434 10.1621C89.3079 11.3809 89.2402 12.4303 89.2402 13.3105V13.5137C88.9609 14.2161 88.4701 14.5674 87.7676 14.5674L87.5645 14.1484L87.7676 10.7842C87.6322 10.7842 87.5645 10.7165 87.5645 10.5811C86.8112 10.8604 85.6221 11.0677 83.9971 11.2031L83.7812 10.7842V10.3652C83.7812 9.91667 85.11 9.49772 87.7676 9.1084L87.9834 8.68945V8.27051C87.9834 7.99121 87.8438 7.85156 87.5645 7.85156L83.9971 8.68945H83.7812C83.502 8.68945 83.3623 8.5498 83.3623 8.27051V7.85156C83.3623 7.43685 85.0423 6.87826 88.4023 6.17578C88.4023 4.5 88.8213 3.66211 89.6592 3.66211ZM88.1865 14.9863L88.6055 15.6084L87.9834 17.7158C89.6592 19.1377 90.4971 19.9756 90.4971 20.2295C90.2262 20.8643 89.9469 21.2113 89.6592 21.2705C88.0511 19.5947 87.1413 18.7568 86.9297 18.7568C86.0156 20.9574 85.457 22.0745 85.2539 22.1084H84.835C84.5557 22.1084 84.416 21.9688 84.416 21.6895V21.4863L84.6191 20.0137C83.8743 19.4551 83.248 19.1758 82.7402 19.1758C82.4186 19.2266 82.0674 19.8571 81.6865 21.0674C81.4072 21.0674 81.2676 21.1351 81.2676 21.2705C80.9967 21.1351 80.7852 21.0674 80.6328 21.0674V19.8105C82.2493 16.7298 83.5104 15.1895 84.416 15.1895L84.835 15.8242V16.0273C84.1325 16.9583 83.7812 17.5889 83.7812 17.9189C84.4837 18.3421 85.0423 18.5537 85.457 18.5537C86.7435 16.1755 87.6533 14.9863 88.1865 14.9863ZM103.03 4.06836H104.084C104.084 4.21224 104.156 4.4196 104.3 4.69043C104.156 5.65527 104.084 6.42546 104.084 7.00098L104.3 8.25781C104.156 8.49479 104.084 8.84603 104.084 9.31152L104.503 9.51465H106.598C106.877 9.56543 107.017 9.70931 107.017 9.94629L106.813 10.9873H105.341L104.3 11.2031V12.041C104.3 12.4557 104.228 12.6631 104.084 12.6631L104.3 13.7168V15.8115C104.3 16.0316 104.016 16.3109 103.449 16.6494C103.255 16.6494 103.047 16.4421 102.827 16.0273V11.8252C102.827 11.055 102.755 10.0775 102.611 8.89258L102.827 8.47363L102.611 7.2168V7.00098C102.611 6.09538 102.751 5.11784 103.03 4.06836ZM92.7598 4.69043C93.75 4.83431 94.3086 4.90625 94.4355 4.90625L95.6924 4.69043V4.90625L96.1113 4.69043H100.313C100.313 4.96973 100.381 5.10938 100.517 5.10938C100.187 6.09115 99.9072 6.58203 99.6787 6.58203C99.5602 6.58203 99.0016 6.44238 98.0029 6.16309C97.5205 6.16309 96.0521 6.23503 93.5977 6.37891V6.58203C93.5977 7.00521 93.5257 7.49609 93.3818 8.05469C93.5257 10.526 93.877 12.4811 94.4355 13.9199H96.9492C97.6517 13.9199 98.7012 13.8522 100.098 13.7168L100.517 14.3516V14.5547C100.229 15.1133 99.8776 15.3926 99.4629 15.3926C97.127 15.3926 95.2396 15.5322 93.8008 15.8115C92.8275 15.3883 92.3408 13.6406 92.3408 10.5684C92.0869 10.5684 91.9473 9.73047 91.9219 8.05469V6.58203C91.4987 6.04036 91.2871 5.62142 91.2871 5.3252C91.9049 4.90202 92.3958 4.69043 92.7598 4.69043Z" fill="#222222"/>
</svg>
