<svg width="117" height="26" viewBox="0 0 117 26" fill="none" xmlns="http://www.w3.org/2000/svg">
<path d="M11.5479 1.30762C12.0205 1.37923 12.2568 1.85547 12.2568 2.73633V6.85059C12.2568 7.02962 12.0205 7.20866 11.5479 7.3877L11.1934 6.85059V2.55371C11.1934 2.31738 11.0716 2.19922 10.8281 2.19922H10.1191C9.56771 2.19922 8.61523 2.31738 7.26172 2.55371L7.0791 2.19922V2.0166C7.0791 1.54395 8.56868 1.30762 11.5479 1.30762ZM4.22168 1.84473H4.75879C5.58952 1.84473 6.00488 2.2028 6.00488 2.91895C5.8903 3.92871 5.83301 4.76302 5.83301 5.42188V7.3877C5.83301 7.55957 5.65397 7.73861 5.2959 7.9248C5.05957 7.80306 4.88053 7.74219 4.75879 7.74219C4.87337 5.54362 4.93066 3.93587 4.93066 2.91895C4.39355 2.91895 4.03548 2.85807 3.85645 2.73633C3.17611 2.85807 2.28451 3.09798 1.18164 3.45605C0.952474 3.33431 0.773438 3.27344 0.644531 3.27344V2.38184C2.32747 2.02376 3.51986 1.84473 4.22168 1.84473ZM14.4053 10.9541L14.5879 11.3193C14.5879 11.9137 13.2773 12.2109 10.6562 12.2109L10.291 12.748C10.4128 14.9395 10.5918 16.25 10.8281 16.6797L10.4736 17.3887H12.7939C13.3167 17.3887 13.6175 18.5238 13.6963 20.7939C13.3883 21.2236 11.3617 21.818 7.61621 22.5771C7.61621 22.6989 7.49805 22.7598 7.26172 22.7598V22.9316C7.54102 24.2422 8.07454 24.8975 8.8623 24.8975H10.8281C13.2559 24.8975 14.8063 24.7184 15.4795 24.3604L15.834 24.8975C15.6693 25.4919 15.2539 25.7891 14.5879 25.7891C14.4661 25.7891 14.4053 25.7318 14.4053 25.6172C13.0732 25.8535 11.5264 25.9717 9.76465 25.9717C7.73796 25.9717 6.72461 25.4346 6.72461 24.3604C6.48828 24.3389 6.30924 23.9235 6.1875 23.1143V22.5771C6.1875 22.1117 8.27148 21.3955 12.4395 20.4287C12.5612 20.1995 12.6221 20.0205 12.6221 19.8916C12.6221 19.376 12.5003 18.8424 12.2568 18.291C11.1182 18.5273 9.09505 18.6455 6.1875 18.6455C6.1875 18.5238 6.12663 18.4629 6.00488 18.4629C6.09798 17.8685 7.40853 17.5713 9.93652 17.5713V17.3887C9.72884 17.3887 9.49251 15.7809 9.22754 12.5654C7.3584 12.6872 5.98698 12.748 5.11328 12.748C4.6263 12.748 3.91016 12.6299 2.96484 12.3936V11.8564L3.14746 11.4912L5.65039 11.6738C8.65104 11.4375 11.5693 11.1403 14.4053 10.7822V10.9541ZM25.2754 3.27344C25.5046 3.39518 25.6836 3.45605 25.8125 3.45605V6.66797L25.9844 7.02246L28.4873 6.66797V4.88477C28.4873 4.61263 28.4264 4.37272 28.3047 4.16504C28.4264 3.93587 28.4873 3.75684 28.4873 3.62793H29.0244C29.2607 3.62793 29.3789 3.80697 29.3789 4.16504C29.3789 5.34668 29.4398 6.77539 29.5615 8.45117C29.4398 9.79753 29.3789 11.0508 29.3789 12.2109L28.8418 12.5654L28.3047 12.2109L28.6699 8.63379C28.5482 8.43327 28.4873 8.13607 28.4873 7.74219H27.7676C26.8509 7.74219 26.2565 8.03939 25.9844 8.63379V10.2451C25.9844 10.3597 25.9271 10.417 25.8125 10.417L26.167 12.5654C26.0452 12.7946 25.9844 12.9736 25.9844 13.1025H25.6299C25.458 13.1025 25.279 12.9235 25.0928 12.5654C24.971 8.3903 24.9102 5.5293 24.9102 3.98242C24.9388 3.50977 25.0605 3.27344 25.2754 3.27344ZM22.7725 4.51953L22.9443 4.88477V5.05664C21.1611 6.58919 20.2695 7.48438 20.2695 7.74219C21.8952 8.71615 22.7868 9.37142 22.9443 9.70801C22.9443 9.94434 22.8262 10.0625 22.5898 10.0625H22.0527C20.9857 9.23177 20.0941 8.69466 19.3779 8.45117C18.1748 9.76172 17.5195 10.417 17.4121 10.417H17.2295C16.9932 10.417 16.875 10.2988 16.875 10.0625C16.875 9.72591 18.1247 8.2972 20.624 5.77637L16.6924 6.13086L16.3379 5.59375C16.3379 5.30013 16.5778 5.12109 17.0576 5.05664C17.7738 5.05664 19.6787 4.8776 22.7725 4.51953ZM28.6699 13.9941L29.3789 14.5312C28.8418 17.3887 28.3047 18.8174 27.7676 18.8174H27.4131C27.2985 18.8174 27.2412 18.7565 27.2412 18.6348L26.876 18.8174H26.167L24.373 19C24.0508 19 23.7536 17.4495 23.4814 14.3486L23.8467 14.166H25.2754C26.235 14.166 27.3665 14.1087 28.6699 13.9941ZM26.7041 15.0684H24.9102C24.6738 15.1042 24.5557 15.2223 24.5557 15.4229C24.5557 15.8597 24.6738 16.694 24.9102 17.9258L26.7041 17.7432H27.5957C27.9538 16.9769 28.1328 16.2035 28.1328 15.4229V15.2402L27.9502 14.8857L26.7041 15.0684ZM41.7842 2.91895C42.2568 3.09798 42.4932 3.27702 42.4932 3.45605V4.16504C42.7008 7.28027 42.9408 9.1888 43.2129 9.89062C43.1556 10.1341 42.8548 10.3704 42.3105 10.5996L41.6016 10.0625C41.7233 9.41081 41.7842 8.93457 41.7842 8.63379C41.7842 8.19694 41.6051 6.82552 41.2471 4.51953H40.71C40.3161 4.51953 39.3027 4.82031 37.6699 5.42188H37.4873C37.251 5.42188 37.1328 5.30013 37.1328 5.05664C37.1328 4.10417 37.9671 3.62793 39.6357 3.62793C39.8864 3.62793 40.6025 3.3916 41.7842 2.91895ZM44.8135 13.457C44.9854 13.457 45.1644 13.6361 45.3506 13.9941C45.3506 14.6387 45.1143 15.0576 44.6416 15.251L43.3848 15.0684C40.7279 15.4264 38.583 15.7845 36.9502 16.1426L36.5957 15.6055C36.5957 14.832 38.8014 14.2949 43.2129 13.9941C43.2129 13.8509 43.7464 13.6719 44.8135 13.457ZM62.0312 2.55371H62.2139C62.4932 2.55371 62.7295 3.68522 62.9229 5.94824L63.8145 5.77637H65.9629C66.1348 5.77637 66.3138 5.9554 66.5 6.31348V6.48535C66.5 6.72884 66.3818 6.85059 66.1455 6.85059H62.9229V7.02246C63.1663 9.91569 63.2881 11.5234 63.2881 11.8457C63.2881 12.3255 63.1663 13.2207 62.9229 14.5312C62.9229 14.653 62.9837 14.832 63.1055 15.0684C62.9837 17.2096 62.8047 18.2803 62.5684 18.2803C61.9238 18.2803 60.6133 18.4593 58.6367 18.8174C57.806 18.8174 57.3906 16.9124 57.3906 13.1025L57.7451 12.9199H57.9277C58.0996 12.9199 58.3359 13.6361 58.6367 15.0684H61.6768C61.9131 15.0684 62.0312 14.9466 62.0312 14.7031V12.9199C62.0599 12.3255 62.1781 12.0283 62.3857 12.0283C62.2712 11.7992 62.2139 11.6201 62.2139 11.4912L61.6768 2.73633L62.0312 2.55371ZM52.7393 4.70215H57.9277C58.1641 4.73796 58.2822 4.85612 58.2822 5.05664L56.499 7.37695C58.5186 8.33659 59.5283 8.8737 59.5283 8.98828V9.1709C59.5283 9.52897 59.292 9.70801 58.8193 9.70801C57.3369 8.75553 56.1445 8.2793 55.2422 8.2793C55.2422 8.42253 54.4688 9.19596 52.9219 10.5996C52.6927 10.4779 52.5137 10.417 52.3848 10.417V9.70801C54.5618 7.81022 55.9333 6.49967 56.499 5.77637L56.3164 5.41113L55.4248 5.59375H53.6309C53.3659 5.59375 53.1296 5.65462 52.9219 5.77637C52.6927 5.65462 52.5137 5.59375 52.3848 5.59375V5.05664C52.4206 4.82031 52.5387 4.70215 52.7393 4.70215ZM58.4648 16.4971C58.7012 17.2132 58.9375 17.5713 59.1738 17.5713C61.0788 17.4495 62.0312 17.2096 62.0312 16.8516V15.96H58.9912C58.8193 15.96 58.6439 16.139 58.4648 16.4971ZM70.2158 0.587891H70.3984L70.7529 0.770508L70.5811 2.91895V3.81055C71.7699 3.81055 72.3643 4.10775 72.3643 4.70215C71.4691 6.09863 70.8747 7.34831 70.5811 8.45117C72.1279 9.29622 72.9014 10.0697 72.9014 10.7715C72.7725 10.7715 72.5934 10.8324 72.3643 10.9541C71.8701 10.6605 71.0967 10.0661 70.0439 9.1709H69.5068C68.9626 10.2236 68.5436 10.818 68.25 10.9541H67.8955C67.6592 10.9541 67.541 10.8359 67.541 10.5996V10.2451C69.4388 8.29004 70.5703 6.50326 70.9355 4.88477H69.3242C69.1882 4.88477 68.5329 5.00293 67.3584 5.23926C67.1221 5.23926 67.0039 5.12109 67.0039 4.88477V4.70215C67.0039 4.38704 67.8955 4.08984 69.6787 3.81055L69.5068 3.09082C69.5928 1.4222 69.8291 0.587891 70.2158 0.587891ZM75.2217 2.55371C75.7015 2.71842 75.9414 3.25553 75.9414 4.16504V8.2793C75.9772 8.51562 76.0954 8.63379 76.2959 8.63379C77.6064 8.36165 78.2617 8.12174 78.2617 7.91406C78.2617 6.47461 78.0827 4.92773 77.7246 3.27344C77.8464 3.04427 77.9072 2.86523 77.9072 2.73633H78.2617C78.9779 2.73633 79.3359 5.77279 79.3359 11.8457C79.2142 12.5905 79.1533 13.4248 79.1533 14.3486C79.3896 14.8285 79.5078 15.2474 79.5078 15.6055C79.3574 16.1999 79.1784 16.4971 78.9707 16.4971H78.7988C78.498 16.4971 78.319 16.2572 78.2617 15.7773C78.3763 12.6478 78.4336 10.8037 78.4336 10.2451L78.2617 9.34277C76.5931 9.34277 75.7588 9.87988 75.7588 10.9541V12.3828L75.9414 14.166L75.5762 14.3486H75.4043C75.1035 14.3486 74.9245 14.1123 74.8672 13.6396L75.0391 12.0283C75.0391 11.792 74.9818 11.6738 74.8672 11.6738L75.0391 9.52539V5.59375C75.0391 5.32878 74.9818 5.09245 74.8672 4.88477L75.0391 4.51953C74.9245 3.875 74.8672 3.34147 74.8672 2.91895C74.903 2.67546 75.0212 2.55371 75.2217 2.55371ZM90.4629 0.953125H91.7197C92.6149 0.953125 93.2702 1.25033 93.6855 1.84473V2.02734C93.3203 4.16862 92.665 5.23926 91.7197 5.23926C89.8076 4.93848 88.8516 4.22233 88.8516 3.09082V2.55371C89.0091 1.48665 89.5462 0.953125 90.4629 0.953125ZM90.8174 1.84473C90.8174 2.36751 90.5202 2.78288 89.9258 3.09082V3.27344C90.2337 3.86784 90.71 4.16504 91.3545 4.16504H91.7197C92.0921 4.16504 92.4466 3.50977 92.7832 2.19922L92.2461 1.84473H90.8174ZM97.9717 1.66211L98.5088 2.02734L98.3262 3.81055V5.05664C98.3262 5.6224 98.387 6.22038 98.5088 6.85059C98.387 7.2946 98.3262 7.82812 98.3262 8.45117V8.98828L98.5088 10.0625C98.387 10.263 98.3262 10.5602 98.3262 10.9541C98.3262 11.792 98.4443 12.2109 98.6807 12.2109C98.5016 12.6836 98.3226 12.9199 98.1436 12.9199H97.9717C97.6136 12.8483 97.4346 12.3721 97.4346 11.4912V11.3193C97.4346 10.639 97.4954 10.2201 97.6172 10.0625C97.4954 9.41797 97.4346 8.88086 97.4346 8.45117V6.66797C95.68 7.02604 94.6058 7.20508 94.2119 7.20508L94.04 6.85059V6.48535C94.04 6.33496 95.0534 6.03776 97.0801 5.59375C97.0801 5.47917 97.1982 5.42188 97.4346 5.42188V2.19922C97.4346 2.02734 97.6136 1.84831 97.9717 1.66211ZM100.829 2.38184H101.184L101.549 2.55371L101.366 4.34766V7.3877C101.366 9.06348 101.606 11.4447 102.086 14.5312L101.549 14.8857C101.04 14.8857 100.682 12.0856 100.475 6.48535V2.73633C100.51 2.5 100.629 2.38184 100.829 2.38184ZM94.5771 8.09668C94.7848 8.21842 95.0212 8.2793 95.2861 8.2793V8.98828C95.2861 9.08138 95.1071 9.26042 94.749 9.52539L93.5029 9.35352H92.4287L92.2461 10.2451V12.3936C92.4896 13.2386 92.6113 13.7148 92.6113 13.8223C92.4896 14.2949 92.1924 14.5312 91.7197 14.5312L91.3545 13.9941V13.8223C91.3545 12.8698 91.2972 11.6165 91.1826 10.0625C91.2972 9.83333 91.3545 9.6543 91.3545 9.52539L91 9.35352H86.8857C86.6494 9.35352 86.5312 9.23177 86.5312 8.98828V8.45117L87.4229 8.2793H94.3945C94.5163 8.2793 94.5771 8.21842 94.5771 8.09668ZM95.2861 16.3252H95.6514C95.8877 16.361 96.0059 16.4792 96.0059 16.6797V19.1826C96.0417 19.4189 96.1598 19.5371 96.3604 19.5371H96.7148C98.627 19.5371 99.583 19.3581 99.583 19V16.6797C99.6188 16.4434 99.737 16.3252 99.9375 16.3252H100.292C100.528 16.361 100.646 16.4792 100.646 16.6797C100.646 16.8587 100.528 17.3958 100.292 18.291C100.292 18.5059 100.41 18.9821 100.646 19.7197L100.475 20.0742C100.589 20.7188 100.646 21.2559 100.646 21.6855V22.04C100.646 22.5199 99.0387 22.7598 95.8232 22.7598C95.2288 21.041 94.9316 19.1325 94.9316 17.0342V16.6797C94.9674 16.4434 95.0856 16.3252 95.2861 16.3252ZM96.1777 21.1484C96.2995 21.3776 96.3604 21.5566 96.3604 21.6855H97.4346C98.9814 21.6855 99.7549 21.4456 99.7549 20.9658C99.6403 20.7367 99.583 20.5576 99.583 20.4287H99.0459C97.1338 20.4287 96.1777 20.6686 96.1777 21.1484ZM111.71 3.08008H112.064V3.2627C112.064 3.97884 111.531 4.33691 110.464 4.33691C110.063 4.33691 109.107 4.45508 107.596 4.69141V6.65723L107.778 7.02246C109.39 6.87923 110.761 6.7002 111.893 6.48535L112.602 7.02246C112.423 7.49512 112.243 7.73145 112.064 7.73145H110.818C108.906 7.73145 107.95 7.91048 107.95 8.26855C107.95 8.45475 108.19 8.69466 108.67 8.98828H108.853C109.246 8.98828 110.557 8.80924 112.784 8.45117C113.021 8.48698 113.139 8.60514 113.139 8.80566V9.1709C113.139 9.37858 111.71 9.67578 108.853 10.0625C107.299 10.0625 106.521 8.45117 106.521 5.22852V3.98242C106.557 3.73893 106.679 3.61719 106.887 3.61719H107.424C108.72 3.61719 110.149 3.43815 111.71 3.08008ZM116.179 13.1025L116.361 13.457V13.6396C116.361 13.9977 115.706 14.234 114.396 14.3486H113.139C113.024 14.5635 112.967 14.8034 112.967 15.0684V15.4229C112.967 16.4971 113.085 17.5104 113.321 18.4629C113.142 18.9427 112.963 19.1826 112.784 19.1826H112.602C112.43 19.1826 112.251 19.0036 112.064 18.6455V14.7139L111.893 14.3486C106.944 14.5921 104.022 14.7139 103.127 14.7139C102.898 14.5921 102.719 14.5312 102.59 14.5312V14.1768C102.712 13.8187 103.07 13.6396 103.664 13.6396H107.596L116.179 13.1025ZM108.487 17.5713H109.024C109.232 17.5713 109.472 18.4056 109.744 20.0742C110.339 20.3464 110.636 20.5254 110.636 20.6113C112.512 20.4538 114.421 20.0957 116.361 19.5371C116.59 19.6589 116.77 19.7197 116.898 19.7197V19.9023C116.898 20.6113 116.361 20.9658 115.287 20.9658C112.859 21.3239 111.012 21.5029 109.744 21.5029C108.792 20.4502 108.315 19.3187 108.315 18.1084C108.43 17.8792 108.487 17.7002 108.487 17.5713Z" fill="#222222"/>
<path d="M11.5479 1.30762L11.5853 1.06044L11.5667 1.05762H11.5479V1.30762ZM11.5479 7.3877L11.3392 7.52541L11.4494 7.69233L11.6364 7.62149L11.5479 7.3877ZM11.1934 6.85059H10.9434V6.92565L10.9847 6.9883L11.1934 6.85059ZM7.26172 2.55371L7.03947 2.6682L7.12365 2.8316L7.30472 2.79999L7.26172 2.55371ZM7.0791 2.19922H6.8291V2.25983L6.85686 2.31371L7.0791 2.19922ZM6.00488 2.91895L6.25329 2.94713L6.25488 2.93308V2.91895H6.00488ZM5.2959 7.9248L5.18141 8.14705L5.29644 8.20631L5.41124 8.14661L5.2959 7.9248ZM4.75879 7.74219L4.50913 7.72918L4.49542 7.99219H4.75879V7.74219ZM4.93066 2.91895H5.18066V2.66895H4.93066V2.91895ZM3.85645 2.73633L3.99702 2.5296L3.91274 2.47228L3.81241 2.49024L3.85645 2.73633ZM1.18164 3.45605L1.06435 3.67683L1.15799 3.72658L1.25884 3.69384L1.18164 3.45605ZM0.644531 3.27344H0.394531V3.52344H0.644531V3.27344ZM0.644531 2.38184L0.592504 2.13731L0.394531 2.17943V2.38184H0.644531ZM14.4053 10.9541H14.1553V11.0131L14.1817 11.0659L14.4053 10.9541ZM14.5879 11.3193H14.8379V11.2603L14.8115 11.2075L14.5879 11.3193ZM10.6562 12.2109V11.9609H10.5239L10.4495 12.0704L10.6562 12.2109ZM10.291 12.748L10.0843 12.6075L10.0367 12.6774L10.0414 12.7619L10.291 12.748ZM10.8281 16.6797L11.0517 16.7915L11.1104 16.6742L11.0472 16.5592L10.8281 16.6797ZM10.4736 17.3887L10.25 17.2769L10.0691 17.6387H10.4736V17.3887ZM13.6963 20.7939L13.8995 20.9396L13.9491 20.8704L13.9461 20.7853L13.6963 20.7939ZM7.61621 22.5771L7.56655 22.3321L7.36621 22.3727V22.5771H7.61621ZM7.26172 22.7598V22.5098H7.01172V22.7598H7.26172ZM7.26172 22.9316H7.01172V22.958L7.01721 22.9837L7.26172 22.9316ZM15.4795 24.3604L15.6881 24.2226L15.5629 24.0328L15.3621 24.1396L15.4795 24.3604ZM15.834 24.8975L16.0749 24.9642L16.1053 24.8546L16.0426 24.7598L15.834 24.8975ZM14.4053 25.6172H14.6553V25.3189L14.3616 25.371L14.4053 25.6172ZM6.72461 24.3604H6.97461V24.132L6.74724 24.1114L6.72461 24.3604ZM6.1875 23.1143H5.9375V23.133L5.94028 23.1514L6.1875 23.1143ZM12.4395 20.4287L12.4959 20.6722L12.6068 20.6465L12.6602 20.546L12.4395 20.4287ZM12.2568 18.291L12.4855 18.19L12.4039 18.0052L12.206 18.0462L12.2568 18.291ZM6.1875 18.6455H5.9375V18.8955H6.1875V18.6455ZM6.00488 18.4629L5.75789 18.4242L5.71268 18.7129H6.00488V18.4629ZM9.93652 17.5713V17.8213H10.1865V17.5713H9.93652ZM9.93652 17.3887H10.1865V17.1387H9.93652V17.3887ZM9.22754 12.5654L9.47669 12.5449L9.45651 12.3L9.21129 12.316L9.22754 12.5654ZM2.96484 12.3936H2.71484V12.5887L2.90421 12.6361L2.96484 12.3936ZM2.96484 11.8564L2.74124 11.7446L2.71484 11.7974V11.8564H2.96484ZM3.14746 11.4912L3.16565 11.2419L2.99871 11.2297L2.92385 11.3794L3.14746 11.4912ZM5.65039 11.6738L5.6322 11.9232L5.65111 11.9245L5.67002 11.9231L5.65039 11.6738ZM14.4053 10.7822H14.6553V10.4987L14.374 10.5342L14.4053 10.7822ZM11.5104 1.5548C11.6561 1.57687 11.769 1.65503 11.8556 1.82964C11.949 2.01766 12.0068 2.31219 12.0068 2.73633H12.5068C12.5068 2.2796 12.4466 1.89559 12.3035 1.60738C12.1539 1.30575 11.9123 1.10998 11.5853 1.06044L11.5104 1.5548ZM12.0068 2.73633V6.85059H12.5068V2.73633H12.0068ZM12.0068 6.85059C12.0068 6.82207 12.025 6.84685 11.9286 6.91987C11.8383 6.98832 11.6866 7.06779 11.4593 7.15391L11.6364 7.62149C11.8817 7.52856 12.0846 7.429 12.2306 7.31841C12.3705 7.21239 12.5068 7.05814 12.5068 6.85059H12.0068ZM11.7565 7.24998L11.402 6.71288L10.9847 6.9883L11.3392 7.52541L11.7565 7.24998ZM11.4434 6.85059V2.55371H10.9434V6.85059H11.4434ZM11.4434 2.55371C11.4434 2.39508 11.4021 2.23064 11.2762 2.10845C11.1517 1.9876 10.9866 1.94922 10.8281 1.94922V2.44922C10.8695 2.44922 10.8958 2.45433 10.911 2.45924C10.9183 2.4616 10.9226 2.46379 10.9249 2.46511C10.927 2.46636 10.9278 2.46712 10.9279 2.46724C10.928 2.46734 10.9285 2.46778 10.9293 2.46915C10.9302 2.4706 10.932 2.47387 10.9341 2.47982C10.9383 2.4922 10.9434 2.51537 10.9434 2.55371H11.4434ZM10.8281 1.94922H10.1191V2.44922H10.8281V1.94922ZM10.1191 1.94922C9.54356 1.94922 8.57164 2.07121 7.21872 2.30744L7.30472 2.79999C8.65883 2.56355 9.59186 2.44922 10.1191 2.44922V1.94922ZM7.48396 2.43922L7.30135 2.08473L6.85686 2.31371L7.03947 2.6682L7.48396 2.43922ZM7.3291 2.19922V2.0166H6.8291V2.19922H7.3291ZM7.3291 2.0166C7.3291 2.05252 7.29848 2.01181 7.46584 1.93216C7.61944 1.85905 7.8706 1.78966 8.23546 1.73178C8.96017 1.6168 10.0613 1.55762 11.5479 1.55762V1.05762C10.0552 1.05762 8.922 1.1166 8.15712 1.23795C7.77718 1.29823 7.46975 1.37655 7.25096 1.48069C7.04592 1.57827 6.8291 1.74436 6.8291 2.0166H7.3291ZM4.22168 2.09473H4.75879V1.59473H4.22168V2.09473ZM4.75879 2.09473C5.14396 2.09473 5.38617 2.17853 5.53012 2.30263C5.66698 2.42062 5.75488 2.60989 5.75488 2.91895H6.25488C6.25488 2.51186 6.1351 2.16402 5.85659 1.92393C5.58519 1.68996 5.20435 1.59473 4.75879 1.59473V2.09473ZM5.75648 2.89076C5.64133 3.90545 5.58301 4.75 5.58301 5.42188H6.08301C6.08301 4.77604 6.13926 3.95197 6.25329 2.94713L5.75648 2.89076ZM5.58301 5.42188V7.3877H6.08301V5.42188H5.58301ZM5.58301 7.3877C5.58301 7.38155 5.58667 7.40939 5.52195 7.4741C5.45794 7.53811 5.3487 7.61557 5.18056 7.703L5.41124 8.14661C5.60117 8.04784 5.76048 7.94268 5.87551 7.82766C5.98983 7.71333 6.08301 7.56572 6.08301 7.3877H5.58301ZM5.41039 7.70256C5.1711 7.57929 4.94544 7.49219 4.75879 7.49219V7.99219C4.81563 7.99219 4.94804 8.02683 5.18141 8.14705L5.41039 7.70256ZM5.00845 7.7552C5.12306 5.55608 5.18066 3.94282 5.18066 2.91895H4.68066C4.68066 3.92893 4.62368 5.53116 4.50913 7.72918L5.00845 7.7552ZM4.93066 2.66895C4.67017 2.66895 4.46151 2.65408 4.30118 2.62683C4.13666 2.59886 4.04332 2.56108 3.99702 2.5296L3.71587 2.94306C3.84861 3.03332 4.02382 3.08685 4.21738 3.11976C4.41511 3.15337 4.65405 3.16895 4.93066 3.16895V2.66895ZM3.81241 2.49024C3.11586 2.61488 2.21195 2.85869 1.10444 3.21827L1.25884 3.69384C2.35706 3.33727 3.23636 3.10126 3.90048 2.98242L3.81241 2.49024ZM1.29893 3.23528C1.06322 3.11005 0.838198 3.02344 0.644531 3.02344V3.52344C0.708677 3.52344 0.841729 3.55857 1.06435 3.67683L1.29893 3.23528ZM0.894531 3.27344V2.38184H0.394531V3.27344H0.894531ZM0.696558 2.62636C2.37993 2.2682 3.54904 2.09473 4.22168 2.09473V1.59473C3.49067 1.59473 2.27501 1.77933 0.592504 2.13731L0.696558 2.62636ZM14.1817 11.0659L14.3643 11.4311L14.8115 11.2075L14.6289 10.8423L14.1817 11.0659ZM14.3379 11.3193C14.3379 11.3588 14.3221 11.4207 14.2015 11.5027C14.0755 11.5884 13.865 11.6727 13.5497 11.7442C12.9225 11.8865 11.9622 11.9609 10.6562 11.9609V12.4609C11.9714 12.4609 12.977 12.3868 13.6603 12.2318C14.0002 12.1548 14.2812 12.0533 14.4828 11.9161C14.6898 11.7752 14.8379 11.5771 14.8379 11.3193H14.3379ZM10.4495 12.0704L10.0843 12.6075L10.4977 12.8886L10.863 12.3515L10.4495 12.0704ZM10.0414 12.7619C10.1024 13.8606 10.1781 14.7436 10.2689 15.4083C10.3143 15.7407 10.364 16.022 10.4185 16.2503C10.4721 16.4749 10.5337 16.6632 10.6091 16.8002L11.0472 16.5592C11.0044 16.4813 10.955 16.3447 10.9048 16.1342C10.8554 15.9275 10.8084 15.6636 10.7643 15.3407C10.6761 14.6949 10.6013 13.8269 10.5406 12.7342L10.0414 12.7619ZM10.6045 16.5679L10.25 17.2769L10.6972 17.5005L11.0517 16.7915L10.6045 16.5679ZM10.4736 17.6387H12.7939V17.1387H10.4736V17.6387ZM12.7939 17.6387C12.8188 17.6387 12.8687 17.6472 12.9421 17.7483C13.0187 17.854 13.0981 18.0327 13.17 18.304C13.313 18.8437 13.4072 19.6723 13.4464 20.8026L13.9461 20.7853C13.9066 19.6454 13.8111 18.7714 13.6533 18.176C13.5748 17.8797 13.476 17.6328 13.3468 17.4547C13.2143 17.2721 13.0304 17.1387 12.7939 17.1387V17.6387ZM13.4931 20.6483C13.4814 20.6647 13.4464 20.7006 13.3657 20.7521C13.2881 20.8016 13.1816 20.8572 13.0426 20.9182C12.7648 21.04 12.3771 21.1748 11.875 21.3221C10.8718 21.6163 9.4369 21.9531 7.56655 22.3321L7.66587 22.8222C9.54096 22.4421 10.9921 22.1021 12.0157 21.8019C12.5269 21.652 12.9376 21.5102 13.2435 21.376C13.3964 21.309 13.528 21.2417 13.6348 21.1735C13.7385 21.1073 13.8342 21.0307 13.8995 20.9396L13.4931 20.6483ZM7.36621 22.5771C7.36621 22.5653 7.3697 22.5436 7.38416 22.5212C7.39784 22.5001 7.41241 22.4922 7.4131 22.4919C7.41327 22.4918 7.41056 22.4932 7.40391 22.4952C7.39728 22.4973 7.38767 22.4997 7.3745 22.502C7.34772 22.5066 7.31075 22.5098 7.26172 22.5098V23.0098C7.39323 23.0098 7.52982 22.9942 7.64208 22.9364C7.70184 22.9056 7.76072 22.8597 7.80395 22.7929C7.84795 22.7249 7.86621 22.6498 7.86621 22.5771H7.36621ZM7.01172 22.7598V22.9316H7.51172V22.7598H7.01172ZM7.01721 22.9837C7.16078 23.6574 7.37521 24.1926 7.67747 24.5639C7.98776 24.9449 8.38719 25.1475 8.8623 25.1475V24.6475C8.54966 24.6475 8.28844 24.5223 8.0652 24.2482C7.83394 23.9641 7.64196 23.5164 7.50623 22.8795L7.01721 22.9837ZM8.8623 25.1475H10.8281V24.6475H8.8623V25.1475ZM10.8281 25.1475C12.0469 25.1475 13.052 25.1026 13.8404 25.0115C14.6211 24.9214 15.2166 24.7833 15.5969 24.5811L15.3621 24.1396C15.0692 24.2954 14.5529 24.4259 13.7831 24.5148C13.0211 24.6028 12.037 24.6475 10.8281 24.6475V25.1475ZM15.2708 24.4981L15.6253 25.0352L16.0426 24.7598L15.6881 24.2226L15.2708 24.4981ZM15.5931 24.8307C15.5227 25.0847 15.4055 25.254 15.2535 25.3628C15.0995 25.473 14.8845 25.5391 14.5879 25.5391V26.0391C14.9573 26.0391 15.283 25.9565 15.5444 25.7695C15.8077 25.5811 15.9806 25.3047 16.0749 24.9642L15.5931 24.8307ZM14.5879 25.5391C14.5619 25.5391 14.5889 25.5327 14.6223 25.564C14.6585 25.5981 14.6553 25.6319 14.6553 25.6172H14.1553C14.1553 25.717 14.1825 25.8368 14.2796 25.9281C14.3738 26.0168 14.4921 26.0391 14.5879 26.0391V25.5391ZM14.3616 25.371C13.0475 25.6042 11.5158 25.7217 9.76465 25.7217V26.2217C11.5369 26.2217 13.0989 26.1029 14.4489 25.8633L14.3616 25.371ZM9.76465 25.7217C8.76523 25.7217 8.05433 25.5879 7.6017 25.348C7.3791 25.23 7.22527 25.0897 7.12624 24.9322C7.02776 24.7756 6.97461 24.588 6.97461 24.3604H6.47461C6.47461 24.6698 6.54812 24.9522 6.70298 25.1984C6.85729 25.4438 7.08347 25.6392 7.36754 25.7897C7.92826 26.0869 8.73737 26.2217 9.76465 26.2217V25.7217ZM6.74724 24.1114C6.77988 24.1143 6.72823 24.1323 6.64267 23.9338C6.56591 23.7557 6.49452 23.4746 6.43472 23.0771L5.94028 23.1514C6.00222 23.5632 6.08123 23.8944 6.18351 24.1317C6.27698 24.3485 6.43301 24.5849 6.70198 24.6093L6.74724 24.1114ZM6.4375 23.1143V22.5771H5.9375V23.1143H6.4375ZM6.4375 22.5771C6.4375 22.6145 6.41783 22.6124 6.46317 22.5664C6.50527 22.5237 6.58069 22.467 6.70156 22.3985C6.94185 22.2623 7.31536 22.1048 7.83174 21.9273C8.86123 21.5736 10.4141 21.1551 12.4959 20.6722L12.383 20.1852C10.2968 20.6691 8.72374 21.0921 7.66924 21.4545C7.14362 21.6351 6.73564 21.8044 6.45494 21.9636C6.31531 22.0427 6.19535 22.1259 6.10721 22.2153C6.02229 22.3014 5.9375 22.4234 5.9375 22.5771H6.4375ZM12.6602 20.546C12.7855 20.3103 12.8721 20.0853 12.8721 19.8916H12.3721C12.3721 19.9557 12.3369 20.0888 12.2187 20.3114L12.6602 20.546ZM12.8721 19.8916C12.8721 19.3358 12.7407 18.768 12.4855 18.19L12.0281 18.392C12.2599 18.9169 12.3721 19.4161 12.3721 19.8916H12.8721ZM12.206 18.0462C11.0954 18.2767 9.09587 18.3955 6.1875 18.3955V18.8955C9.09423 18.8955 11.1409 18.7779 12.3076 18.5358L12.206 18.0462ZM6.4375 18.6455C6.4375 18.5461 6.41248 18.4256 6.31862 18.3318C6.22477 18.2379 6.10429 18.2129 6.00488 18.2129V18.7129C6.02722 18.7129 5.99805 18.7183 5.96507 18.6853C5.93209 18.6523 5.9375 18.6232 5.9375 18.6455H6.4375ZM6.25187 18.5016C6.26026 18.448 6.29811 18.3721 6.43702 18.2838C6.57803 18.1943 6.79818 18.1094 7.11291 18.038C7.74055 17.8957 8.67789 17.8213 9.93652 17.8213V17.3213C8.66716 17.3213 7.68523 17.3955 7.00233 17.5504C6.66178 17.6276 6.37884 17.7285 6.16893 17.8618C5.95693 17.9965 5.79606 18.1805 5.75789 18.4242L6.25187 18.5016ZM10.1865 17.5713V17.3887H9.68652V17.5713H10.1865ZM9.93652 17.1387C10.0097 17.1387 10.0552 17.175 10.0696 17.1887C10.0834 17.2019 10.0849 17.2087 10.0778 17.1955C10.064 17.1697 10.0425 17.1154 10.0164 17.0207C9.96509 16.835 9.90956 16.5459 9.85086 16.1465C9.73389 15.3508 9.60908 14.1514 9.47669 12.5449L8.97838 12.586C9.11097 14.1949 9.23681 15.4072 9.35617 16.2192C9.41563 16.6237 9.47469 16.9375 9.53441 17.1538C9.56374 17.26 9.59686 17.3564 9.63682 17.4312C9.65658 17.4681 9.6847 17.5127 9.72494 17.551C9.76573 17.5898 9.83736 17.6387 9.93652 17.6387V17.1387ZM9.21129 12.316C7.3429 12.4377 5.97833 12.498 5.11328 12.498V12.998C5.99563 12.998 7.37389 12.9367 9.24379 12.8149L9.21129 12.316ZM5.11328 12.498C4.65822 12.498 3.96656 12.3863 3.02548 12.151L2.90421 12.6361C3.85376 12.8735 4.59438 12.998 5.11328 12.998V12.498ZM3.21484 12.3936V11.8564H2.71484V12.3936H3.21484ZM3.18845 11.9682L3.37107 11.603L2.92385 11.3794L2.74124 11.7446L3.18845 11.9682ZM3.12927 11.7405L5.6322 11.9232L5.66858 11.4245L3.16565 11.2419L3.12927 11.7405ZM5.67002 11.9231C8.67437 11.6864 11.5966 11.3888 14.4366 11.0303L14.374 10.5342C11.5421 10.8918 8.62771 11.1886 5.63076 11.4246L5.67002 11.9231ZM14.1553 10.7822V10.9541H14.6553V10.7822H14.1553ZM25.2754 3.27344L25.3927 3.05266L25.3377 3.02344H25.2754V3.27344ZM25.8125 3.45605H26.0625V3.20605H25.8125V3.45605ZM25.8125 6.66797H25.5625V6.72538L25.5875 6.77704L25.8125 6.66797ZM25.9844 7.02246L25.7594 7.13153L25.8389 7.29555L26.0194 7.26999L25.9844 7.02246ZM28.4873 6.66797L28.5224 6.9155L28.7373 6.88506V6.66797H28.4873ZM28.3047 4.16504L28.0839 4.04775L28.0184 4.17103L28.089 4.29147L28.3047 4.16504ZM28.4873 3.62793V3.37793H28.2373V3.62793H28.4873ZM29.5615 8.45117L29.8105 8.47369L29.8123 8.45339L29.8109 8.43306L29.5615 8.45117ZM29.3789 12.2109L29.5166 12.4196L29.6289 12.3455V12.2109H29.3789ZM28.8418 12.5654L28.7041 12.7741L28.8418 12.865L28.9795 12.7741L28.8418 12.5654ZM28.3047 12.2109L28.056 12.1855L28.0406 12.3362L28.167 12.4196L28.3047 12.2109ZM28.6699 8.63379L28.9186 8.65918L28.9271 8.57574L28.8836 8.50404L28.6699 8.63379ZM28.4873 7.74219H28.7373V7.49219H28.4873V7.74219ZM25.9844 8.63379L25.7571 8.52972L25.7344 8.57928V8.63379H25.9844ZM25.8125 10.417V10.167H25.5179L25.5658 10.4577L25.8125 10.417ZM26.167 12.5654L26.3878 12.6827L26.4274 12.6081L26.4137 12.5247L26.167 12.5654ZM25.9844 13.1025V13.3525H26.2344V13.1025H25.9844ZM25.0928 12.5654L24.8429 12.5727L24.8445 12.63L24.871 12.6808L25.0928 12.5654ZM24.9102 3.98242L24.6606 3.9673L24.6602 3.97485V3.98242H24.9102ZM22.7725 4.51953L22.9987 4.41308L22.9222 4.25053L22.7437 4.27119L22.7725 4.51953ZM22.9443 4.88477H23.1943V4.82888L23.1705 4.77832L22.9443 4.88477ZM22.9443 5.05664L23.1073 5.24624L23.1943 5.17142V5.05664H22.9443ZM20.2695 7.74219H20.0195V7.88384L20.141 7.95664L20.2695 7.74219ZM22.9443 9.70801H23.1943V9.65239L23.1708 9.60202L22.9443 9.70801ZM22.0527 10.0625L21.8992 10.2598L21.9669 10.3125H22.0527V10.0625ZM19.3779 8.45117L19.4584 8.21448L19.304 8.16199L19.1938 8.2821L19.3779 8.45117ZM20.624 5.77637L20.8016 5.95239L21.2839 5.46585L20.6016 5.52738L20.624 5.77637ZM16.6924 6.13086L16.4837 6.26857L16.566 6.39327L16.7148 6.37985L16.6924 6.13086ZM16.3379 5.59375H16.0879V5.66881L16.1292 5.73146L16.3379 5.59375ZM17.0576 5.05664V4.80664H17.0409L17.0243 4.80887L17.0576 5.05664ZM28.6699 13.9941L28.8209 13.7949L28.7441 13.7367L28.648 13.7451L28.6699 13.9941ZM29.3789 14.5312L29.6246 14.5774L29.6532 14.4254L29.5299 14.332L29.3789 14.5312ZM27.2412 18.6348H27.4912V18.2303L27.1294 18.4112L27.2412 18.6348ZM26.876 18.8174V19.0674H26.935L26.9878 19.041L26.876 18.8174ZM26.167 18.8174V18.5674H26.1543L26.1417 18.5687L26.167 18.8174ZM24.373 19V19.25H24.3857L24.3984 19.2487L24.373 19ZM23.4814 14.3486L23.3696 14.125L23.2175 14.2011L23.2324 14.3705L23.4814 14.3486ZM23.8467 14.166V13.916H23.7877L23.7349 13.9424L23.8467 14.166ZM26.7041 15.0684V15.3184H26.7223L26.7404 15.3157L26.7041 15.0684ZM24.9102 15.0684V14.8184H24.8913L24.8727 14.8212L24.9102 15.0684ZM24.9102 17.9258L24.6646 17.9729L24.7078 18.1977L24.9355 18.1745L24.9102 17.9258ZM26.7041 17.7432V17.4932H26.6914L26.6788 17.4944L26.7041 17.7432ZM27.5957 17.7432V17.9932H27.7548L27.8222 17.849L27.5957 17.7432ZM28.1328 15.2402H28.3828V15.1796L28.3551 15.1257L28.1328 15.2402ZM27.9502 14.8857L28.1724 14.7713L28.0907 14.6125L27.9139 14.6384L27.9502 14.8857ZM25.1581 3.49422C25.3938 3.61944 25.6188 3.70605 25.8125 3.70605V3.20605C25.7484 3.20605 25.6153 3.17093 25.3927 3.05266L25.1581 3.49422ZM25.5625 3.45605V6.66797H26.0625V3.45605H25.5625ZM25.5875 6.77704L25.7594 7.13153L26.2093 6.91339L26.0375 6.5589L25.5875 6.77704ZM26.0194 7.26999L28.5224 6.9155L28.4522 6.42044L25.9493 6.77493L26.0194 7.26999ZM28.7373 6.66797V4.88477H28.2373V6.66797H28.7373ZM28.7373 4.88477C28.7373 4.5741 28.6674 4.28943 28.5204 4.03861L28.089 4.29147C28.1855 4.45601 28.2373 4.65116 28.2373 4.88477H28.7373ZM28.5255 4.28233C28.6507 4.04662 28.7373 3.8216 28.7373 3.62793H28.2373C28.2373 3.69208 28.2022 3.82513 28.0839 4.04775L28.5255 4.28233ZM28.4873 3.87793H29.0244V3.37793H28.4873V3.87793ZM29.0244 3.87793C29.0517 3.87793 29.0635 3.88298 29.0668 3.88465C29.0691 3.88583 29.0741 3.8885 29.0816 3.89992C29.1012 3.9295 29.1289 4.00557 29.1289 4.16504H29.6289C29.6289 3.96644 29.5976 3.77395 29.4989 3.6245C29.3883 3.45685 29.2165 3.37793 29.0244 3.37793V3.87793ZM29.1289 4.16504C29.1289 5.35465 29.1902 6.78976 29.3122 8.46929L29.8109 8.43306C29.6894 6.76102 29.6289 5.33871 29.6289 4.16504H29.1289ZM29.3125 8.42866C29.1902 9.78131 29.1289 11.0422 29.1289 12.2109H29.6289C29.6289 11.0594 29.6893 9.81374 29.8105 8.47369L29.3125 8.42866ZM29.2412 12.0023L28.7041 12.3568L28.9795 12.7741L29.5166 12.4196L29.2412 12.0023ZM28.9795 12.3568L28.4424 12.0023L28.167 12.4196L28.7041 12.7741L28.9795 12.3568ZM28.5534 12.2363L28.9186 8.65918L28.4212 8.6084L28.056 12.1855L28.5534 12.2363ZM28.8836 8.50404C28.7967 8.36092 28.7373 8.1179 28.7373 7.74219H28.2373C28.2373 8.15424 28.2996 8.50562 28.4562 8.76353L28.8836 8.50404ZM28.4873 7.49219H27.7676V7.99219H28.4873V7.49219ZM27.7676 7.49219C26.799 7.49219 26.0861 7.81113 25.7571 8.52972L26.2117 8.73786C26.427 8.26765 26.9028 7.99219 27.7676 7.99219V7.49219ZM25.7344 8.63379V10.2451H26.2344V8.63379H25.7344ZM25.7344 10.2451C25.7344 10.2639 25.7299 10.232 25.7646 10.1972C25.7994 10.1625 25.8313 10.167 25.8125 10.167V10.667C25.9083 10.667 26.0261 10.6429 26.1182 10.5508C26.2102 10.4587 26.2344 10.3409 26.2344 10.2451H25.7344ZM25.5658 10.4577L25.9203 12.6061L26.4137 12.5247L26.0592 10.3763L25.5658 10.4577ZM25.9462 12.4481C25.821 12.6839 25.7344 12.9089 25.7344 13.1025H26.2344C26.2344 13.0384 26.2695 12.9053 26.3878 12.6827L25.9462 12.4481ZM25.9844 12.8525H25.6299V13.3525H25.9844V12.8525ZM25.6299 12.8525C25.636 12.8525 25.6082 12.8562 25.5435 12.7915C25.4795 12.7275 25.402 12.6182 25.3146 12.4501L24.871 12.6808C24.9697 12.8707 25.0749 13.03 25.1899 13.145C25.3042 13.2594 25.4519 13.3525 25.6299 13.3525V12.8525ZM25.3427 12.5581C25.2209 8.3827 25.1602 5.52515 25.1602 3.98242H24.6602C24.6602 5.53345 24.7211 8.3979 24.8429 12.5727L25.3427 12.5581ZM25.1597 3.99755C25.1733 3.77298 25.2081 3.6371 25.2452 3.56517C25.2624 3.53184 25.2747 3.52285 25.2754 3.52235C25.2756 3.52221 25.2745 3.5229 25.2729 3.52341C25.2713 3.5239 25.2717 3.52344 25.2754 3.52344V3.02344C25.0505 3.02344 24.8923 3.15841 24.8007 3.33619C24.716 3.5006 24.6756 3.71921 24.6606 3.9673L25.1597 3.99755ZM22.5463 4.62598L22.7181 4.99121L23.1705 4.77832L22.9987 4.41308L22.5463 4.62598ZM22.6943 4.88477V5.05664H23.1943V4.88477H22.6943ZM22.7814 4.86704C21.8883 5.63461 21.2138 6.24651 20.7611 6.70102C20.5353 6.92769 20.3597 7.12017 20.2389 7.27639C20.1787 7.35427 20.1278 7.42864 20.0908 7.49781C20.0573 7.56065 20.0195 7.64731 20.0195 7.74219H20.5195C20.5195 7.77261 20.5097 7.7749 20.5318 7.73345C20.5506 7.69833 20.5832 7.6485 20.6345 7.58225C20.7366 7.45023 20.8953 7.27478 21.1154 7.05386C21.5543 6.61319 22.2172 6.01122 23.1073 5.24624L22.7814 4.86704ZM20.141 7.95664C20.9512 8.44199 21.5728 8.84468 22.0094 9.16556C22.2279 9.32612 22.396 9.46324 22.5168 9.57748C22.6425 9.69632 22.6992 9.77397 22.7179 9.81399L23.1708 9.60202C23.1107 9.47375 22.9969 9.34327 22.8603 9.21415C22.7188 9.08042 22.5329 8.92974 22.3055 8.76266C21.8505 8.42827 21.2136 8.01634 20.398 7.52773L20.141 7.95664ZM22.6943 9.70801C22.6943 9.747 22.6894 9.77095 22.685 9.78404C22.6829 9.79034 22.6811 9.79384 22.6801 9.7954C22.6796 9.79621 22.6793 9.79666 22.6791 9.79685C22.6791 9.79695 22.679 9.79702 22.679 9.79705C22.679 9.79708 22.6789 9.79709 22.6789 9.7971C22.6789 9.79711 22.6789 9.79712 22.6789 9.79715C22.6789 9.79718 22.6788 9.79723 22.6787 9.79731C22.6785 9.79746 22.678 9.79779 22.6772 9.79828C22.6757 9.79922 22.6722 9.80107 22.6659 9.80317C22.6528 9.80754 22.6288 9.8125 22.5898 9.8125V10.3125C22.7465 10.3125 22.91 10.2732 23.0325 10.1507C23.155 10.0282 23.1943 9.86471 23.1943 9.70801H22.6943ZM22.5898 9.8125H22.0527V10.3125H22.5898V9.8125ZM22.2063 9.86523C21.1317 9.02865 20.214 8.47139 19.4584 8.21448L19.2975 8.68787C19.9741 8.91794 20.8396 9.4349 21.8992 10.2598L22.2063 9.86523ZM19.1938 8.2821C18.5929 8.93667 18.1311 9.42498 17.8074 9.74876C17.645 9.91116 17.5206 10.0288 17.4325 10.1045C17.3879 10.1428 17.3574 10.1662 17.3389 10.1786C17.3294 10.1849 17.3281 10.185 17.3331 10.1827C17.3359 10.1814 17.3433 10.1781 17.3544 10.1749C17.3647 10.1719 17.3851 10.167 17.4121 10.167V10.667C17.4738 10.667 17.5226 10.646 17.5442 10.6359C17.5712 10.6234 17.5962 10.6081 17.6173 10.5939C17.6598 10.5654 17.7076 10.5273 17.7583 10.4838C17.8608 10.3957 17.9957 10.2676 18.1609 10.1023C18.4924 9.77082 18.9599 9.27622 19.5621 8.62024L19.1938 8.2821ZM17.4121 10.167H17.2295V10.667H17.4121V10.167ZM17.2295 10.167C17.1905 10.167 17.1666 10.162 17.1535 10.1577C17.1472 10.1556 17.1437 10.1537 17.1421 10.1528C17.1413 10.1523 17.1408 10.152 17.1406 10.1518C17.1405 10.1517 17.1405 10.1517 17.1405 10.1516C17.1404 10.1516 17.1404 10.1516 17.1404 10.1516C17.1404 10.1516 17.1404 10.1516 17.1404 10.1515C17.1403 10.1515 17.1403 10.1514 17.1402 10.1513C17.14 10.1512 17.1397 10.1507 17.1392 10.1499C17.1383 10.1483 17.1364 10.1448 17.1343 10.1385C17.13 10.1254 17.125 10.1015 17.125 10.0625H16.625C16.625 10.2192 16.6643 10.3826 16.7868 10.5051C16.9093 10.6276 17.0728 10.667 17.2295 10.667V10.167ZM17.125 10.0625C17.125 10.0834 17.1201 10.0693 17.1561 9.99911C17.1875 9.9377 17.2387 9.85523 17.3134 9.74973C17.4623 9.53936 17.6901 9.25788 18.0004 8.90312C18.6201 8.1947 19.553 7.21169 20.8016 5.95239L20.4465 5.60035C19.1957 6.86188 18.2541 7.85364 17.6241 8.57393C17.3095 8.93353 17.0688 9.22988 16.9053 9.46084C16.8237 9.57601 16.7577 9.68007 16.7111 9.77107C16.669 9.85326 16.625 9.95744 16.625 10.0625H17.125ZM20.6016 5.52738L16.6699 5.88187L16.7148 6.37985L20.6465 6.02536L20.6016 5.52738ZM16.901 5.99315L16.5465 5.45604L16.1292 5.73146L16.4837 6.26857L16.901 5.99315ZM16.5879 5.59375C16.5879 5.52764 16.6092 5.48303 16.6673 5.43962C16.7383 5.38663 16.8698 5.33411 17.0909 5.30442L17.0243 4.80887C16.7656 4.84363 16.5372 4.91285 16.3683 5.0389C16.1866 5.17452 16.0879 5.36624 16.0879 5.59375H16.5879ZM17.0576 5.30664C17.7916 5.30664 19.7136 5.12523 22.8012 4.76787L22.7437 4.27119C19.6438 4.62998 17.7559 4.80664 17.0576 4.80664V5.30664ZM28.519 14.1934L29.2279 14.7305L29.5299 14.332L28.8209 13.7949L28.519 14.1934ZM29.1332 14.4851C28.8654 15.9098 28.6 16.9643 28.3392 17.6579C28.2083 18.0061 28.084 18.2485 27.9706 18.3993C27.8525 18.5564 27.783 18.5674 27.7676 18.5674V19.0674C28.0207 19.0674 28.2198 18.8998 28.3702 18.6997C28.5254 18.4934 28.6696 18.1999 28.8073 17.8338C29.0836 17.0987 29.3553 16.0101 29.6246 14.5774L29.1332 14.4851ZM27.7676 18.5674H27.4131V19.0674H27.7676V18.5674ZM27.4131 18.5674C27.3983 18.5674 27.4322 18.5642 27.4662 18.6004C27.4976 18.6337 27.4912 18.6607 27.4912 18.6348H26.9912C26.9912 18.7305 27.0135 18.8489 27.1021 18.9431C27.1935 19.0401 27.3133 19.0674 27.4131 19.0674V18.5674ZM27.1294 18.4112L26.7642 18.5938L26.9878 19.041L27.353 18.8584L27.1294 18.4112ZM26.876 18.5674H26.167V19.0674H26.876V18.5674ZM26.1417 18.5687L24.3477 18.7513L24.3984 19.2487L26.1923 19.0661L26.1417 18.5687ZM24.373 18.75C24.4415 18.75 24.4656 18.7919 24.4471 18.7694C24.4308 18.7493 24.4029 18.7034 24.3682 18.6165C24.2998 18.4452 24.2274 18.1733 24.154 17.7901C24.0079 17.0278 23.8664 15.8752 23.7305 14.3268L23.2324 14.3705C23.3686 15.923 23.5118 17.0961 23.6629 17.8842C23.7381 18.2763 23.8175 18.5857 23.9039 18.802C23.9466 18.909 23.9969 19.0084 24.0596 19.0853C24.1202 19.1596 24.224 19.25 24.373 19.25V18.75ZM23.5932 14.5722L23.9585 14.3896L23.7349 13.9424L23.3696 14.125L23.5932 14.5722ZM23.8467 14.416H25.2754V13.916H23.8467V14.416ZM25.2754 14.416C26.2444 14.416 27.3836 14.3582 28.6918 14.2432L28.648 13.7451C27.3495 13.8593 26.2256 13.916 25.2754 13.916V14.416ZM26.7041 14.8184H24.9102V15.3184H26.7041V14.8184ZM24.8727 14.8212C24.7237 14.8438 24.5775 14.8971 24.4675 15.0071C24.3524 15.1222 24.3057 15.2705 24.3057 15.4229H24.8057C24.8057 15.3747 24.818 15.3637 24.8211 15.3606C24.8293 15.3524 24.8603 15.3288 24.9476 15.3155L24.8727 14.8212ZM24.3057 15.4229C24.3057 15.8872 24.4289 16.7443 24.6646 17.9729L25.1557 17.8787C24.9187 16.6437 24.8057 15.8322 24.8057 15.4229H24.3057ZM24.9355 18.1745L26.7294 17.9919L26.6788 17.4944L24.8848 17.6771L24.9355 18.1745ZM26.7041 17.9932H27.5957V17.4932H26.7041V17.9932ZM27.8222 17.849C28.1944 17.0524 28.3828 16.243 28.3828 15.4229H27.8828C27.8828 16.1639 27.7131 16.9014 27.3692 17.6373L27.8222 17.849ZM28.3828 15.4229V15.2402H27.8828V15.4229H28.3828ZM28.3551 15.1257L28.1724 14.7713L27.728 15.0002L27.9106 15.3547L28.3551 15.1257ZM27.9139 14.6384L26.6679 14.821L26.7404 15.3157L27.9864 15.1331L27.9139 14.6384ZM41.7842 2.91895L41.8727 2.68516L41.7817 2.65068L41.6913 2.68683L41.7842 2.91895ZM42.4932 4.16504H42.2432V4.17336L42.2437 4.18167L42.4932 4.16504ZM43.2129 9.89062L43.4562 9.94789L43.474 9.87247L43.446 9.80024L43.2129 9.89062ZM42.3105 10.5996L42.1596 10.7989L42.2746 10.886L42.4076 10.83L42.3105 10.5996ZM41.6016 10.0625L41.3558 10.0166L41.3274 10.1685L41.4506 10.2618L41.6016 10.0625ZM41.2471 4.51953L41.4941 4.48117L41.4612 4.26953H41.2471V4.51953ZM37.6699 5.42188V5.67188H37.7145L37.7563 5.65646L37.6699 5.42188ZM44.8135 13.457V13.207H44.7886L44.7641 13.2119L44.8135 13.457ZM45.3506 13.9941H45.6006V13.933L45.5724 13.8788L45.3506 13.9941ZM44.6416 15.251L44.6057 15.4984L44.6731 15.5082L44.7363 15.4824L44.6416 15.251ZM43.3848 15.0684L43.4207 14.821L43.3861 14.8159L43.3514 14.8206L43.3848 15.0684ZM36.9502 16.1426L36.7415 16.2803L36.8361 16.4235L37.0037 16.3868L36.9502 16.1426ZM36.5957 15.6055H36.3457V15.6805L36.3871 15.7432L36.5957 15.6055ZM43.2129 13.9941L43.2299 14.2436L43.4629 14.2277V13.9941H43.2129ZM41.6956 3.15274C41.923 3.23885 42.0746 3.31832 42.165 3.38677C42.2613 3.45979 42.2432 3.48457 42.2432 3.45605H42.7432C42.7432 3.2485 42.6068 3.09425 42.4669 2.98823C42.3209 2.87764 42.1181 2.77808 41.8727 2.68516L41.6956 3.15274ZM42.2432 3.45605V4.16504H42.7432V3.45605H42.2432ZM42.2437 4.18167C42.3477 5.74156 42.46 7.00292 42.5808 7.96404C42.7006 8.91675 42.8312 9.59789 42.9798 9.98101L43.446 9.80024C43.3224 9.48153 43.1971 8.8575 43.0769 7.90168C42.9578 6.95428 42.8463 5.70375 42.7426 4.14841L42.2437 4.18167ZM42.9695 9.83336C42.9592 9.87743 42.9181 9.95315 42.7899 10.0539C42.6638 10.1529 42.475 10.2591 42.2135 10.3692L42.4076 10.83C42.6904 10.7109 42.9241 10.5844 43.0988 10.4471C43.2713 10.3115 43.4093 10.1473 43.4562 9.94789L42.9695 9.83336ZM42.4615 10.4003L41.7525 9.86323L41.4506 10.2618L42.1596 10.7989L42.4615 10.4003ZM41.8473 10.1084C41.9693 9.45517 42.0342 8.95943 42.0342 8.63379H41.5342C41.5342 8.90971 41.4773 9.36644 41.3558 10.0166L41.8473 10.1084ZM42.0342 8.63379C42.0342 8.39619 41.9869 7.92757 41.8978 7.24523C41.8079 6.55662 41.6733 5.63501 41.4941 4.48117L41 4.55789C41.1789 5.71004 41.3129 6.62714 41.402 7.30995C41.492 7.99902 41.5342 8.43454 41.5342 8.63379H42.0342ZM41.2471 4.26953H40.71V4.76953H41.2471V4.26953ZM40.71 4.26953C40.4717 4.26953 40.0869 4.35601 39.5834 4.50545C39.0694 4.65803 38.4022 4.88567 37.5835 5.18729L37.7563 5.65646C38.5705 5.35652 39.2264 5.13299 39.7257 4.98478C40.2355 4.83345 40.5543 4.76953 40.71 4.76953V4.26953ZM37.6699 5.17188H37.4873V5.67188H37.6699V5.17188ZM37.4873 5.17188C37.449 5.17188 37.4258 5.16685 37.4134 5.1626C37.4075 5.16056 37.4042 5.15877 37.4027 5.15787C37.4014 5.15702 37.4009 5.15655 37.4008 5.15645C37.4007 5.15633 37.4 5.15556 37.3987 5.1534C37.3974 5.15114 37.3952 5.14679 37.3928 5.13948C37.3879 5.12432 37.3828 5.09806 37.3828 5.05664H36.8828C36.8828 5.21508 36.9212 5.38017 37.042 5.50469C37.1642 5.63058 37.3287 5.67188 37.4873 5.67188V5.17188ZM37.3828 5.05664C37.3828 4.67112 37.5424 4.39632 37.8825 4.20223C38.2434 3.9962 38.817 3.87793 39.6357 3.87793V3.37793C38.7858 3.37793 38.108 3.49778 37.6346 3.76799C37.1403 4.05013 36.8828 4.48969 36.8828 5.05664H37.3828ZM39.6357 3.87793C39.7295 3.87793 39.8452 3.85707 39.9704 3.82647C40.1 3.79479 40.2567 3.7483 40.4392 3.68809C40.8043 3.56759 41.2842 3.3882 41.877 3.15106L41.6913 2.68683C41.1025 2.92235 40.6335 3.09745 40.2825 3.21328C40.1069 3.27123 39.9637 3.31337 39.8516 3.34077C39.7351 3.36925 39.6673 3.37793 39.6357 3.37793V3.87793ZM44.8135 13.707C44.8073 13.707 44.8352 13.7034 44.8999 13.7681C44.9639 13.8321 45.0413 13.9413 45.1288 14.1095L45.5724 13.8788C45.4736 13.6889 45.3685 13.5296 45.2534 13.4145C45.1391 13.3002 44.9915 13.207 44.8135 13.207V13.707ZM45.1006 13.9941C45.1006 14.2875 45.0466 14.5075 44.9556 14.6689C44.8669 14.8262 44.7346 14.9428 44.5469 15.0196L44.7363 15.4824C45.0212 15.3658 45.2435 15.1762 45.3911 14.9146C45.5364 14.657 45.6006 14.3454 45.6006 13.9941H45.1006ZM44.6775 15.0036L43.4207 14.821L43.3488 15.3158L44.6057 15.4984L44.6775 15.0036ZM43.3514 14.8206C40.6912 15.1791 38.5389 15.5382 36.8966 15.8984L37.0037 16.3868C38.6272 16.0308 40.7645 15.6738 43.4182 15.3161L43.3514 14.8206ZM37.1588 16.0049L36.8044 15.4678L36.3871 15.7432L36.7415 16.2803L37.1588 16.0049ZM36.8457 15.6055C36.8457 15.5472 36.8854 15.4341 37.137 15.2846C37.381 15.1396 37.7663 14.9976 38.3091 14.8655C39.3907 14.6021 41.0277 14.3937 43.2299 14.2436L43.1959 13.7447C40.9866 13.8954 39.3151 14.1059 38.1909 14.3797C37.6308 14.516 37.189 14.6721 36.8816 14.8548C36.5817 15.0329 36.3457 15.277 36.3457 15.6055H36.8457ZM43.4629 13.9941C43.4629 14.0578 43.4328 14.0956 43.4259 14.1035C43.4191 14.1113 43.4203 14.1072 43.4422 14.094C43.4854 14.0679 43.5651 14.0322 43.6926 13.9895C43.9441 13.905 44.332 13.809 44.8628 13.7021L44.7641 13.2119C44.2279 13.3199 43.8155 13.4208 43.5335 13.5154C43.3943 13.5622 43.2738 13.6116 43.1837 13.666C43.1389 13.6931 43.0901 13.7281 43.0499 13.774C43.0096 13.8199 42.9629 13.8947 42.9629 13.9941H43.4629ZM62.0312 2.55371V2.30371H61.9706L61.9168 2.33147L62.0312 2.55371ZM62.9229 5.94824L62.6738 5.96953L62.6974 6.2463L62.9702 6.19372L62.9229 5.94824ZM63.8145 5.77637V5.52637H63.7906L63.7671 5.53089L63.8145 5.77637ZM66.5 6.31348H66.75V6.25236L66.7218 6.19814L66.5 6.31348ZM62.9229 6.85059V6.60059H62.6729V6.85059H62.9229ZM62.9229 7.02246H62.6729V7.03296L62.6737 7.04343L62.9229 7.02246ZM62.9229 14.5312L62.6771 14.4856L62.6729 14.5082V14.5312H62.9229ZM63.1055 15.0684L63.3551 15.0826L63.3589 15.0145L63.3277 14.9539L63.1055 15.0684ZM58.6367 18.8174V19.0674H58.6592L58.6813 19.0634L58.6367 18.8174ZM57.3906 13.1025L57.2761 12.8803L57.1406 12.9501V13.1025H57.3906ZM57.7451 12.9199V12.6699H57.6845L57.6306 12.6977L57.7451 12.9199ZM58.6367 15.0684L58.3921 15.1197L58.4338 15.3184H58.6367V15.0684ZM62.0312 12.9199L61.7812 12.9079V12.9199H62.0312ZM62.3857 12.0283V12.2783H62.7902L62.6093 11.9165L62.3857 12.0283ZM62.2139 11.4912H62.4639V11.4835L62.4634 11.4759L62.2139 11.4912ZM61.6768 2.73633L61.5623 2.51408L61.4172 2.5888L61.4272 2.75164L61.6768 2.73633ZM57.9277 4.70215L57.9652 4.45497L57.9466 4.45215H57.9277V4.70215ZM58.2822 5.05664L58.4804 5.20898L58.5322 5.14161V5.05664H58.2822ZM56.499 7.37695L56.3008 7.22461L56.1123 7.46996L56.3917 7.60276L56.499 7.37695ZM58.8193 9.70801L58.6842 9.91834L58.7459 9.95801H58.8193V9.70801ZM55.2422 8.2793V8.0293H54.9922V8.2793H55.2422ZM52.9219 10.5996L52.8046 10.8204L52.9598 10.9028L53.0899 10.7847L52.9219 10.5996ZM52.3848 10.417H52.1348V10.667H52.3848V10.417ZM52.3848 9.70801L52.2205 9.51956L52.1348 9.59428V9.70801H52.3848ZM56.499 5.77637L56.6959 5.93039L56.7933 5.80591L56.7226 5.66456L56.499 5.77637ZM56.3164 5.41113L56.54 5.29933L56.4542 5.12772L56.2662 5.16622L56.3164 5.41113ZM55.4248 5.59375V5.84375H55.4501L55.475 5.83867L55.4248 5.59375ZM52.9219 5.77637L52.8046 5.99715L52.9279 6.06264L53.0483 5.99204L52.9219 5.77637ZM52.3848 5.59375H52.1348V5.84375H52.3848V5.59375ZM52.3848 5.05664L52.1376 5.01919L52.1348 5.03781V5.05664H52.3848ZM58.4648 16.4971L58.2412 16.3853L58.1951 16.4775L58.2274 16.5754L58.4648 16.4971ZM59.1738 17.5713V17.8213H59.1818L59.1898 17.8208L59.1738 17.5713ZM62.0312 15.96H62.2812V15.71H62.0312V15.96ZM62.0312 2.80371H62.2139V2.30371H62.0312V2.80371ZM62.2139 2.80371C62.1566 2.80371 62.1297 2.77304 62.1353 2.77888C62.1419 2.78582 62.1611 2.81091 62.1878 2.86954C62.2406 2.98548 62.2979 3.17606 62.3559 3.45346C62.4709 4.00399 62.5773 4.84043 62.6738 5.96953L63.1719 5.92696C63.0751 4.79303 62.9666 3.93221 62.8453 3.35123C62.7851 3.06287 62.7188 2.82914 62.6428 2.6622C62.605 2.57939 62.5584 2.4984 62.4979 2.43462C62.4363 2.36974 62.3409 2.30371 62.2139 2.30371V2.80371ZM62.9702 6.19372L63.8618 6.02185L63.7671 5.53089L62.8755 5.70276L62.9702 6.19372ZM63.8145 6.02637H65.9629V5.52637H63.8145V6.02637ZM65.9629 6.02637C65.9567 6.02637 65.9846 6.02271 66.0493 6.08742C66.1133 6.15143 66.1908 6.26067 66.2782 6.42881L66.7218 6.19814C66.623 6.00821 66.5179 5.8489 66.4028 5.73387C66.2885 5.61954 66.1409 5.52637 65.9629 5.52637V6.02637ZM66.25 6.31348V6.48535H66.75V6.31348H66.25ZM66.25 6.48535C66.25 6.52677 66.2449 6.55303 66.24 6.56819C66.2376 6.5755 66.2354 6.57985 66.2341 6.58211C66.2329 6.58427 66.2321 6.58504 66.232 6.58516C66.2319 6.58526 66.2314 6.58573 66.2301 6.58658C66.2286 6.58748 66.2253 6.58927 66.2194 6.59131C66.207 6.59556 66.1838 6.60059 66.1455 6.60059V7.10059C66.3041 7.10059 66.4686 7.0593 66.5908 6.9334C66.7116 6.80888 66.75 6.64379 66.75 6.48535H66.25ZM66.1455 6.60059H62.9229V7.10059H66.1455V6.60059ZM62.6729 6.85059V7.02246H63.1729V6.85059H62.6729ZM62.6737 7.04343C62.9179 9.94532 63.0381 11.5372 63.0381 11.8457H63.5381C63.5381 11.5097 63.4147 9.88606 63.172 7.0015L62.6737 7.04343ZM63.0381 11.8457C63.0381 12.2991 62.921 13.1725 62.6771 14.4856L63.1686 14.5769C63.4117 13.2689 63.5381 12.3519 63.5381 11.8457H63.0381ZM62.6729 14.5312C62.6729 14.7179 62.76 14.9436 62.8832 15.1828L63.3277 14.9539C63.2075 14.7205 63.1729 14.5881 63.1729 14.5312H62.6729ZM62.8559 15.0542C62.7951 16.1227 62.7205 16.9146 62.6333 17.4361C62.5893 17.699 62.5443 17.8795 62.5018 17.9891C62.4916 18.0154 62.4824 18.0352 62.4748 18.0494C62.4711 18.0564 62.468 18.0616 62.4656 18.0652C62.4644 18.067 62.4635 18.0683 62.4629 18.0692C62.4622 18.0701 62.4619 18.0705 62.4619 18.0705C62.4619 18.0705 62.462 18.0704 62.4622 18.0701C62.4624 18.0699 62.4627 18.0696 62.4631 18.0691C62.4639 18.0683 62.4653 18.0669 62.4671 18.0653C62.4708 18.062 62.477 18.0571 62.4859 18.0518C62.5051 18.0407 62.5336 18.0303 62.5684 18.0303V18.5303C62.702 18.5303 62.7945 18.4527 62.8467 18.3897C62.8992 18.3264 62.9377 18.2479 62.9679 18.17C63.0293 18.0119 63.0809 17.791 63.1265 17.5185C63.2183 16.9693 63.2941 16.1553 63.3551 15.0826L62.8559 15.0542ZM62.5684 18.0303C61.8974 18.0303 60.5643 18.2141 58.5922 18.5714L58.6813 19.0634C60.6622 18.7045 61.9502 18.5303 62.5684 18.5303V18.0303ZM58.6367 18.5674C58.5428 18.5674 58.4292 18.5196 58.3008 18.3234C58.1695 18.1227 58.0477 17.8 57.9464 17.3354C57.7446 16.41 57.6406 15.0031 57.6406 13.1025H57.1406C57.1406 15.0119 57.2443 16.4624 57.4579 17.4419C57.5643 17.9298 57.7021 18.3215 57.8823 18.5971C58.0655 18.877 58.3153 19.0674 58.6367 19.0674V18.5674ZM57.5051 13.3248L57.8596 13.1422L57.6306 12.6977L57.2761 12.8803L57.5051 13.3248ZM57.7451 13.1699H57.9277V12.6699H57.7451V13.1699ZM57.9277 13.1699C57.8938 13.1699 57.8669 13.1609 57.8494 13.1521C57.8328 13.1439 57.8242 13.1358 57.8228 13.1345C57.8214 13.1332 57.8319 13.1435 57.8515 13.178C57.8902 13.2458 57.9391 13.3614 57.9965 13.5354C58.1102 13.8798 58.2422 14.4059 58.3921 15.1197L58.8814 15.017C58.7305 14.2985 58.5939 13.7504 58.4713 13.3787C58.4105 13.1946 58.3493 13.0416 58.2859 12.9304C58.2545 12.8753 58.216 12.8185 58.1676 12.7725C58.1208 12.7279 58.0396 12.6699 57.9277 12.6699V13.1699ZM58.6367 15.3184H61.6768V14.8184H58.6367V15.3184ZM61.6768 15.3184C61.8354 15.3184 61.9998 15.2771 62.122 15.1512C62.2429 15.0267 62.2812 14.8616 62.2812 14.7031H61.7812C61.7812 14.7445 61.7761 14.7708 61.7712 14.786C61.7689 14.7933 61.7667 14.7976 61.7654 14.7999C61.7641 14.802 61.7633 14.8028 61.7632 14.8029C61.7631 14.803 61.7627 14.8035 61.7613 14.8043C61.7599 14.8052 61.7566 14.807 61.7506 14.8091C61.7383 14.8133 61.7151 14.8184 61.6768 14.8184V15.3184ZM62.2812 14.7031V12.9199H61.7812V14.7031H62.2812ZM62.281 12.932C62.2949 12.6429 62.3301 12.4532 62.3737 12.3436C62.4184 12.2311 62.4357 12.2783 62.3857 12.2783V11.7783C62.1281 11.7783 61.9825 11.9742 61.909 12.1589C61.8345 12.3465 61.7963 12.6026 61.7815 12.9079L62.281 12.932ZM62.6093 11.9165C62.4982 11.6943 62.4639 11.5591 62.4639 11.4912H61.9639C61.9639 11.6812 62.0441 11.904 62.1621 12.1401L62.6093 11.9165ZM62.4634 11.4759L61.9263 2.72102L61.4272 2.75164L61.9643 11.5065L62.4634 11.4759ZM61.7912 2.95857L62.1457 2.77595L61.9168 2.33147L61.5623 2.51408L61.7912 2.95857ZM52.7393 4.95215H57.9277V4.45215H52.7393V4.95215ZM57.8903 4.94933C57.9776 4.96256 58.0086 4.9862 58.0168 4.9944C58.0199 4.99744 58.0322 5.0085 58.0322 5.05664H58.5322C58.5322 4.90427 58.4855 4.75598 58.3704 4.64085C58.2604 4.53089 58.1142 4.47754 57.9652 4.45497L57.8903 4.94933ZM58.084 4.9043L56.3008 7.22461L56.6972 7.52929L58.4804 5.20898L58.084 4.9043ZM56.3917 7.60276C57.4006 8.08217 58.1538 8.45441 58.6536 8.72023C58.9043 8.85358 59.0862 8.95752 59.2034 9.03317C59.263 9.07163 59.2986 9.09814 59.3166 9.1139C59.3261 9.12217 59.3237 9.12138 59.3169 9.11236C59.3158 9.11088 59.2783 9.06475 59.2783 8.98828H59.7783C59.7783 8.89749 59.733 8.83373 59.7161 8.81133C59.6935 8.78139 59.6674 8.75637 59.6453 8.73711C59.6003 8.69782 59.5412 8.65607 59.4746 8.61307C59.3393 8.52579 59.1426 8.41399 58.8884 8.27879C58.3784 8.00751 57.6169 7.63137 56.6063 7.15115L56.3917 7.60276ZM59.2783 8.98828V9.1709H59.7783V8.98828H59.2783ZM59.2783 9.1709C59.2783 9.28987 59.2427 9.34221 59.2001 9.37446C59.1444 9.41663 59.0312 9.45801 58.8193 9.45801V9.95801C59.0801 9.95801 59.3214 9.90987 59.502 9.773C59.6958 9.62622 59.7783 9.41 59.7783 9.1709H59.2783ZM58.9545 9.49768C57.4637 8.53986 56.2199 8.0293 55.2422 8.0293V8.5293C56.0691 8.5293 57.2101 8.9712 58.6842 9.91834L58.9545 9.49768ZM54.9922 8.2793C54.9922 8.25658 54.9959 8.23955 54.9982 8.2306C55.0007 8.22121 55.0032 8.21534 55.0039 8.21372C55.0051 8.21103 55.0036 8.21505 54.9956 8.22736C54.9799 8.25185 54.9515 8.28991 54.9061 8.34367C54.8162 8.45018 54.677 8.59831 54.4853 8.79002C54.103 9.17237 53.5265 9.7134 52.7539 10.4145L53.0899 10.7847C53.8641 10.0822 54.4478 9.53466 54.8389 9.14357C55.0339 8.94857 55.1847 8.78876 55.2882 8.6661C55.3396 8.60527 55.3836 8.54844 55.4162 8.49774C55.4325 8.47245 55.4491 8.4438 55.4623 8.41335C55.4739 8.38679 55.4922 8.33844 55.4922 8.2793H54.9922ZM53.0392 10.3788C52.8035 10.2536 52.5784 10.167 52.3848 10.167V10.667C52.4489 10.667 52.582 10.7021 52.8046 10.8204L53.0392 10.3788ZM52.6348 10.417V9.70801H52.1348V10.417H52.6348ZM52.549 9.89646C54.7224 8.0019 56.1129 6.67582 56.6959 5.93039L56.3021 5.62234C55.7537 6.32353 54.4013 7.61854 52.2205 9.51956L52.549 9.89646ZM56.7226 5.66456L56.54 5.29933L56.0928 5.52294L56.2754 5.88817L56.7226 5.66456ZM56.2662 5.16622L55.3746 5.34883L55.475 5.83867L56.3666 5.65605L56.2662 5.16622ZM55.4248 5.34375H53.6309V5.84375H55.4248V5.34375ZM53.6309 5.34375C53.326 5.34375 53.0453 5.41425 52.7954 5.56069L53.0483 5.99204C53.2139 5.89499 53.4057 5.84375 53.6309 5.84375V5.34375ZM53.0392 5.55559C52.8035 5.43037 52.5784 5.34375 52.3848 5.34375V5.84375C52.4489 5.84375 52.582 5.87888 52.8046 5.99715L53.0392 5.55559ZM52.6348 5.59375V5.05664H52.1348V5.59375H52.6348ZM52.6319 5.09409C52.6452 5.00676 52.6688 4.97575 52.677 4.96755C52.6801 4.96451 52.6911 4.95215 52.7393 4.95215V4.45215C52.5869 4.45215 52.4386 4.49887 52.3235 4.61399C52.2135 4.72395 52.1602 4.8702 52.1376 5.01919L52.6319 5.09409ZM58.2274 16.5754C58.3481 16.9412 58.4745 17.2341 58.6107 17.4404C58.7384 17.6339 58.9218 17.8213 59.1738 17.8213V17.3213C59.1896 17.3213 59.1366 17.3296 59.028 17.165C58.9278 17.0133 58.8179 16.7691 58.7023 16.4187L58.2274 16.5754ZM59.1898 17.8208C60.1461 17.7597 60.8789 17.6682 61.378 17.5425C61.6255 17.4801 61.8337 17.405 61.9856 17.3097C62.1339 17.2166 62.2812 17.0684 62.2812 16.8516H61.7812C61.7812 16.8138 61.8096 16.8298 61.7197 16.8862C61.6335 16.9404 61.4845 17 61.2558 17.0576C60.8024 17.1718 60.1065 17.2612 59.1579 17.3218L59.1898 17.8208ZM62.2812 16.8516V15.96H61.7812V16.8516H62.2812ZM62.0312 15.71H58.9912V16.21H62.0312V15.71ZM58.9912 15.71C58.8125 15.71 58.6653 15.8038 58.5522 15.9193C58.4387 16.0351 58.3363 16.1951 58.2412 16.3853L58.6884 16.6089C58.7724 16.441 58.8473 16.3325 58.9093 16.2692C58.9716 16.2056 58.9981 16.21 58.9912 16.21V15.71ZM70.3984 0.587891L70.5129 0.365647L70.459 0.337891H70.3984V0.587891ZM70.7529 0.770508L71.0021 0.790444L71.0154 0.624501L70.8674 0.548264L70.7529 0.770508ZM70.5811 2.91895L70.3318 2.89901L70.3311 2.90896V2.91895H70.5811ZM70.5811 3.81055H70.3311V4.06055H70.5811V3.81055ZM72.3643 4.70215L72.5747 4.83706L72.6143 4.7754V4.70215H72.3643ZM70.5811 8.45117L70.3395 8.38685L70.289 8.57649L70.4612 8.67057L70.5811 8.45117ZM72.9014 10.7715V11.0215H73.1514V10.7715H72.9014ZM72.3643 10.9541L72.2365 11.169L72.3574 11.2408L72.4815 11.1749L72.3643 10.9541ZM70.0439 9.1709L70.2059 8.98045L70.1359 8.9209H70.0439V9.1709ZM69.5068 9.1709V8.9209H69.3547L69.2848 9.05608L69.5068 9.1709ZM68.25 10.9541V11.2041H68.3051L68.3551 11.1809L68.25 10.9541ZM67.541 10.2451L67.3616 10.071L67.291 10.1437V10.2451H67.541ZM70.9355 4.88477L71.1794 4.9398L71.2483 4.63477H70.9355V4.88477ZM67.3584 5.23926V5.48926H67.3833L67.4077 5.48435L67.3584 5.23926ZM69.6787 3.81055L69.7174 4.05754L69.9847 4.01567L69.9219 3.75248L69.6787 3.81055ZM69.5068 3.09082L69.2572 3.07796L69.2553 3.11389L69.2637 3.14889L69.5068 3.09082ZM75.2217 2.55371L75.3028 2.31726L75.2634 2.30371H75.2217V2.55371ZM75.9414 8.2793H75.6914V8.29813L75.6942 8.31675L75.9414 8.2793ZM76.2959 8.63379V8.88379H76.3216L76.3467 8.87857L76.2959 8.63379ZM77.7246 3.27344L77.5038 3.15615L77.4609 3.23693L77.4803 3.32633L77.7246 3.27344ZM77.9072 2.73633V2.48633H77.6572V2.73633H77.9072ZM79.3359 11.8457L79.5827 11.886L79.5859 11.866V11.8457H79.3359ZM79.1533 14.3486H78.9033V14.4069L78.929 14.4591L79.1533 14.3486ZM79.5078 15.6055L79.7502 15.6668L79.7578 15.6366V15.6055H79.5078ZM78.2617 15.7773L78.0119 15.7682L78.0112 15.7877L78.0135 15.807L78.2617 15.7773ZM78.4336 10.2451H78.6836V10.2215L78.6792 10.1983L78.4336 10.2451ZM78.2617 9.34277L78.5073 9.296L78.4686 9.09277H78.2617V9.34277ZM75.7588 12.3828H75.5088V12.3956L75.5101 12.4083L75.7588 12.3828ZM75.9414 14.166L76.0532 14.3896L76.2077 14.3124L76.1901 14.1405L75.9414 14.166ZM75.5762 14.3486V14.5986H75.6352L75.688 14.5722L75.5762 14.3486ZM74.8672 13.6396L74.6186 13.6131L74.6156 13.6415L74.619 13.6697L74.8672 13.6396ZM75.0391 12.0283L75.2877 12.0548L75.2891 12.0416V12.0283H75.0391ZM74.8672 11.6738L74.618 11.6539L74.5964 11.9238H74.8672V11.6738ZM75.0391 9.52539L75.2883 9.54533L75.2891 9.53537V9.52539H75.0391ZM74.8672 4.88477L74.641 4.77832L74.5866 4.89379L74.6483 5.00553L74.8672 4.88477ZM75.0391 4.51953L75.2653 4.62598L75.2991 4.55405L75.2852 4.47577L75.0391 4.51953ZM74.8672 2.91895L74.6199 2.88257L74.6172 2.90066V2.91895H74.8672ZM70.2158 0.837891H70.3984V0.337891H70.2158V0.837891ZM70.284 0.810134L70.6384 0.992751L70.8674 0.548264L70.5129 0.365647L70.284 0.810134ZM70.5037 0.750571L70.3318 2.89901L70.8303 2.93888L71.0021 0.790444L70.5037 0.750571ZM70.3311 2.91895V3.81055H70.8311V2.91895H70.3311ZM70.5811 4.06055C71.1627 4.06055 71.5617 4.13457 71.8067 4.25705C71.9256 4.31653 71.9998 4.38323 72.0448 4.45075C72.0888 4.5167 72.1143 4.59729 72.1143 4.70215H72.6143C72.6143 4.5098 72.5655 4.33035 72.4608 4.1734C72.3572 4.01801 72.2085 3.89897 72.0303 3.80984C71.6808 3.63512 71.1882 3.56055 70.5811 3.56055V4.06055ZM72.1538 4.56723C71.2504 5.97655 70.642 7.25045 70.3395 8.38685L70.8226 8.51549C71.1073 7.44616 71.6878 6.22072 72.5747 4.83706L72.1538 4.56723ZM70.4612 8.67057C71.2248 9.08774 71.7817 9.47901 72.1445 9.84182C72.5098 10.2071 72.6514 10.5158 72.6514 10.7715H73.1514C73.1514 10.3253 72.9062 9.89639 72.4981 9.48826C72.0874 9.07763 71.4842 8.65966 70.7009 8.23178L70.4612 8.67057ZM72.9014 10.5215C72.7077 10.5215 72.4827 10.6081 72.247 10.7333L72.4815 11.1749C72.7042 11.0566 72.8372 11.0215 72.9014 11.0215V10.5215ZM72.492 10.7392C72.0179 10.4575 71.2586 9.87563 70.2059 8.98045L69.882 9.36135C70.9347 10.2565 71.7224 10.8635 72.2365 11.169L72.492 10.7392ZM70.0439 8.9209H69.5068V9.4209H70.0439V8.9209ZM69.2848 9.05608C69.015 9.57777 68.7802 9.97829 68.5801 10.2622C68.3716 10.558 68.2261 10.6897 68.1449 10.7273L68.3551 11.1809C68.5676 11.0825 68.7783 10.8489 68.9888 10.5503C69.2076 10.2398 69.4544 9.81676 69.7289 9.28571L69.2848 9.05608ZM68.25 10.7041H67.8955V11.2041H68.25V10.7041ZM67.8955 10.7041C67.8565 10.7041 67.8326 10.6991 67.8195 10.6948C67.8132 10.6927 67.8097 10.6908 67.8081 10.6899C67.8073 10.6894 67.8069 10.6891 67.8067 10.6889C67.8066 10.6888 67.8065 10.6888 67.8065 10.6888C67.8064 10.6887 67.8064 10.6887 67.8064 10.6887C67.8064 10.6887 67.8064 10.6887 67.8064 10.6886C67.8063 10.6886 67.8063 10.6886 67.8062 10.6885C67.8061 10.6883 67.8057 10.6878 67.8052 10.687C67.8043 10.6854 67.8024 10.6819 67.8003 10.6756C67.796 10.6625 67.791 10.6386 67.791 10.5996H67.291C67.291 10.7563 67.3304 10.9198 67.4529 11.0423C67.5754 11.1648 67.7388 11.2041 67.8955 11.2041V10.7041ZM67.791 10.5996V10.2451H67.291V10.5996H67.791ZM67.7204 10.4192C69.6318 8.45017 70.7995 6.62341 71.1794 4.9398L70.6917 4.82973C70.3411 6.3831 69.2458 8.12991 67.3616 10.071L67.7204 10.4192ZM70.9355 4.63477H69.3242V5.13477H70.9355V4.63477ZM69.3242 4.63477C69.2686 4.63477 69.184 4.64531 69.0879 4.65966C68.9854 4.67497 68.8512 4.69762 68.6863 4.72736C68.3562 4.78688 67.8969 4.87589 67.3091 4.99417L67.4077 5.48435C67.9944 5.3663 68.4499 5.27806 68.7751 5.21942C68.9378 5.19008 69.0664 5.16842 69.1617 5.15418C69.2094 5.14706 69.2475 5.142 69.2765 5.13878C69.2909 5.13717 69.3023 5.13611 69.3109 5.13548C69.3152 5.13516 69.3185 5.13498 69.3209 5.13487C69.3233 5.13477 69.3244 5.13477 69.3242 5.13477V4.63477ZM67.3584 4.98926C67.3194 4.98926 67.2955 4.9843 67.2824 4.97993C67.2761 4.97783 67.2726 4.97597 67.271 4.97503C67.2702 4.97455 67.2697 4.97422 67.2696 4.97407C67.2695 4.97399 67.2694 4.97393 67.2694 4.97391C67.2693 4.97388 67.2693 4.97387 67.2693 4.97386C67.2693 4.97385 67.2693 4.97384 67.2693 4.97381C67.2692 4.97377 67.2692 4.97371 67.2691 4.97361C67.2689 4.97342 67.2686 4.97297 67.2681 4.97216C67.2672 4.97059 67.2653 4.9671 67.2632 4.9608C67.2589 4.9477 67.2539 4.92376 67.2539 4.88477H66.7539C66.7539 5.04147 66.7933 5.20491 66.9158 5.32741C67.0383 5.44991 67.2017 5.48926 67.3584 5.48926V4.98926ZM67.2539 4.88477V4.70215H66.7539V4.88477H67.2539ZM67.2539 4.70215C67.2539 4.75073 67.2208 4.73833 67.3126 4.67526C67.3957 4.61821 67.5372 4.55158 67.7517 4.48009C68.1773 4.33822 68.8295 4.19661 69.7174 4.05754L69.64 3.56356C68.7448 3.70378 68.0595 3.85042 67.5936 4.00575C67.3622 4.08286 67.1694 4.16707 67.0296 4.26309C66.8985 4.3531 66.7539 4.49601 66.7539 4.70215H67.2539ZM69.9219 3.75248L69.75 3.03275L69.2637 3.14889L69.4355 3.86862L69.9219 3.75248ZM69.7565 3.10368C69.7992 2.27423 69.8788 1.67119 69.9891 1.28176C70.0446 1.08566 70.1029 0.962779 70.1543 0.893911C70.1789 0.860918 70.1971 0.846952 70.2061 0.841614C70.213 0.837452 70.215 0.837891 70.2158 0.837891V0.337891C70.0148 0.337891 69.8611 0.450922 69.7537 0.594737C69.6493 0.734446 69.5706 0.924436 69.508 1.14549C69.382 1.59036 69.3004 2.23879 69.2572 3.07796L69.7565 3.10368ZM75.1405 2.79017C75.4532 2.8975 75.6914 3.26953 75.6914 4.16504H76.1914C76.1914 3.24154 75.9498 2.53935 75.3028 2.31726L75.1405 2.79017ZM75.6914 4.16504V8.2793H76.1914V4.16504H75.6914ZM75.6942 8.31675C75.7168 8.46574 75.7701 8.61199 75.8801 8.72194C75.9952 8.83707 76.1435 8.88379 76.2959 8.88379V8.38379C76.2477 8.38379 76.2367 8.37143 76.2337 8.36839C76.2255 8.36018 76.2018 8.32918 76.1886 8.24185L75.6942 8.31675ZM76.3467 8.87857C77.0052 8.74183 77.511 8.61089 77.8562 8.48452C78.0272 8.42192 78.1726 8.35554 78.2799 8.2823C78.3714 8.2198 78.5117 8.10046 78.5117 7.91406H78.0117C78.0117 7.83151 78.0702 7.82004 77.9978 7.86943C77.9413 7.90809 77.841 7.95764 77.6843 8.015C77.3742 8.12853 76.8971 8.25361 76.2451 8.38901L76.3467 8.87857ZM78.5117 7.91406C78.5117 6.45405 78.3301 4.88928 77.9689 3.22055L77.4803 3.32633C77.8352 4.96619 78.0117 6.49517 78.0117 7.91406H78.5117ZM77.9454 3.39073C78.0706 3.15502 78.1572 2.93 78.1572 2.73633H77.6572C77.6572 2.80047 77.6221 2.93353 77.5038 3.15615L77.9454 3.39073ZM77.9072 2.98633H78.2617V2.48633H77.9072V2.98633ZM78.2617 2.98633C78.2618 2.98633 78.2618 2.98633 78.2617 2.98632C78.2616 2.9863 78.2616 2.9863 78.2618 2.98636C78.2622 2.98647 78.2645 2.98711 78.2688 2.98954C78.2779 2.99468 78.2959 3.00774 78.3207 3.03781C78.3723 3.10036 78.4332 3.21159 78.496 3.38904C78.6208 3.74184 78.7302 4.28896 78.8191 5.04295C78.9964 6.54609 79.0859 8.81148 79.0859 11.8457H79.5859C79.5859 8.80701 79.4965 6.51771 79.3157 4.98439C79.2255 4.22016 79.1111 3.62861 78.9674 3.22228C78.8959 3.02018 78.8113 2.84674 78.7063 2.71951C78.5992 2.58981 78.451 2.48633 78.2617 2.48633V2.98633ZM79.0892 11.8054C78.9649 12.5661 78.9033 13.4142 78.9033 14.3486H79.4033C79.4033 13.4354 79.4635 12.6149 79.5827 11.886L79.0892 11.8054ZM78.929 14.4591C79.1561 14.9201 79.2578 15.2999 79.2578 15.6055H79.7578C79.7578 15.1949 79.6232 14.7368 79.3776 14.2382L78.929 14.4591ZM79.2654 15.5441C79.1924 15.8328 79.1173 16.0278 79.0466 16.1452C78.9711 16.2705 78.9398 16.2471 78.9707 16.2471V16.7471C79.2093 16.7471 79.3714 16.575 79.4749 16.4032C79.5832 16.2233 79.6728 15.9725 79.7502 15.6668L79.2654 15.5441ZM78.9707 16.2471H78.7988V16.7471H78.9707V16.2471ZM78.7988 16.2471C78.7269 16.2471 78.6814 16.224 78.6393 16.1676C78.5874 16.098 78.5363 15.9681 78.51 15.7477L78.0135 15.807C78.0445 16.0664 78.1115 16.2963 78.2386 16.4667C78.3756 16.6502 78.57 16.7471 78.7988 16.7471V16.2471ZM78.5116 15.7865C78.626 12.6596 78.6836 10.8095 78.6836 10.2451H78.1836C78.1836 10.7979 78.1266 12.636 78.0119 15.7682L78.5116 15.7865ZM78.6792 10.1983L78.5073 9.296L78.0161 9.38955L78.188 10.2919L78.6792 10.1983ZM78.2617 9.09277C77.4086 9.09277 76.7257 9.22863 76.2492 9.5354C75.7538 9.85433 75.5088 10.3404 75.5088 10.9541H76.0088C76.0088 10.4936 76.1809 10.174 76.5198 9.95581C76.8776 9.72548 77.4462 9.59277 78.2617 9.59277V9.09277ZM75.5088 10.9541V12.3828H76.0088V10.9541H75.5088ZM75.5101 12.4083L75.6927 14.1915L76.1901 14.1405L76.0075 12.3573L75.5101 12.4083ZM75.8296 13.9424L75.4644 14.125L75.688 14.5722L76.0532 14.3896L75.8296 13.9424ZM75.5762 14.0986H75.4043V14.5986H75.5762V14.0986ZM75.4043 14.0986C75.3308 14.0986 75.2852 14.0751 75.2437 14.0204C75.1925 13.9528 75.1416 13.826 75.1154 13.6096L74.619 13.6697C74.6501 13.926 74.7174 14.1537 74.8452 14.3224C74.9827 14.504 75.177 14.5986 75.4043 14.5986V14.0986ZM75.1158 13.6662L75.2877 12.0548L74.7905 12.0018L74.6186 13.6131L75.1158 13.6662ZM75.2891 12.0283C75.2891 11.898 75.2746 11.7637 75.221 11.6534C75.1926 11.5948 75.1493 11.5349 75.084 11.49C75.0168 11.4437 74.9412 11.4238 74.8672 11.4238V11.9238C74.8505 11.9238 74.825 11.9187 74.8008 11.902C74.7784 11.8866 74.7709 11.871 74.7711 11.8715C74.7718 11.8728 74.7769 11.8847 74.7815 11.9131C74.786 11.9409 74.7891 11.9787 74.7891 12.0283H75.2891ZM75.1164 11.6938L75.2883 9.54533L74.7899 9.50545L74.618 11.6539L75.1164 11.6938ZM75.2891 9.52539V5.59375H74.7891V9.52539H75.2891ZM75.2891 5.59375C75.2891 5.29158 75.2234 5.01284 75.0861 4.764L74.6483 5.00553C74.7402 5.17206 74.7891 5.36597 74.7891 5.59375H75.2891ZM75.0934 4.99121L75.2653 4.62598L74.8129 4.41308L74.641 4.77832L75.0934 4.99121ZM75.2852 4.47577C75.172 3.83875 75.1172 3.32113 75.1172 2.91895H74.6172C74.6172 3.36182 74.677 3.91125 74.7929 4.56329L75.2852 4.47577ZM75.1145 2.95532C75.1281 2.86306 75.1526 2.82884 75.1621 2.81914C75.1656 2.81554 75.1757 2.80371 75.2217 2.80371V2.30371C75.0671 2.30371 74.9179 2.35275 74.8033 2.4709C74.6945 2.58295 74.6421 2.73134 74.6199 2.88257L75.1145 2.95532ZM93.6855 1.84473H93.9355V1.76603L93.8905 1.70153L93.6855 1.84473ZM93.6855 2.02734L93.932 2.06938L93.9355 2.04851V2.02734H93.6855ZM91.7197 5.23926L91.6809 5.48622L91.7002 5.48926H91.7197V5.23926ZM88.8516 2.55371L88.6042 2.51719L88.6016 2.53535V2.55371H88.8516ZM90.8174 1.84473V1.59473H90.5674V1.84473H90.8174ZM89.9258 3.09082L89.8108 2.86884L89.6758 2.93878V3.09082H89.9258ZM89.9258 3.27344H89.6758V3.33435L89.7038 3.38844L89.9258 3.27344ZM92.7832 2.19922L93.0253 2.26141L93.0697 2.08876L92.9209 1.99057L92.7832 2.19922ZM92.2461 1.84473L92.3838 1.63607L92.3212 1.59473H92.2461V1.84473ZM97.9717 1.66211L98.1123 1.45538L97.9888 1.37143L97.8563 1.44031L97.9717 1.66211ZM98.5088 2.02734L98.7575 2.05281L98.7727 1.90447L98.6494 1.82061L98.5088 2.02734ZM98.3262 3.81055L98.0775 3.78508L98.0762 3.79778V3.81055H98.3262ZM98.5088 6.85059L98.7499 6.91669L98.7653 6.86044L98.7542 6.80317L98.5088 6.85059ZM98.3262 8.98828H98.0762V9.00938L98.0797 9.03018L98.3262 8.98828ZM98.5088 10.0625L98.7225 10.1922L98.7709 10.1125L98.7553 10.0206L98.5088 10.0625ZM98.6807 12.2109L98.9145 12.2995L99.0427 11.9609H98.6807V12.2109ZM97.9717 12.9199L97.9227 13.1651L97.9469 13.1699H97.9717V12.9199ZM97.6172 10.0625L97.815 10.2154L97.8837 10.1265L97.8628 10.0161L97.6172 10.0625ZM97.4346 6.66797H97.6846V6.3618L97.3846 6.42302L97.4346 6.66797ZM94.2119 7.20508L93.987 7.31415L94.0553 7.45508H94.2119V7.20508ZM94.04 6.85059H93.79V6.908L93.8151 6.95965L94.04 6.85059ZM97.0801 5.59375L97.1336 5.83796L97.3301 5.79491V5.59375H97.0801ZM97.4346 5.42188V5.67188H97.6846V5.42188H97.4346ZM101.184 2.38184L101.29 2.15563L101.239 2.13184H101.184V2.38184ZM101.549 2.55371L101.798 2.57903L101.815 2.40289L101.655 2.32751L101.549 2.55371ZM101.366 4.34766L101.117 4.32234L101.116 4.33496V4.34766H101.366ZM102.086 14.5312L102.224 14.7399L102.358 14.6515L102.333 14.4928L102.086 14.5312ZM101.549 14.8857V15.1357H101.624L101.687 15.0944L101.549 14.8857ZM100.475 6.48535H100.224L100.225 6.49462L100.475 6.48535ZM100.475 2.73633L100.227 2.69888L100.225 2.7175V2.73633H100.475ZM94.5771 8.09668L94.7036 7.88101L94.3271 7.66034V8.09668H94.5771ZM95.2861 8.2793H95.5361V8.0293H95.2861V8.2793ZM94.749 9.52539L94.7149 9.77305L94.8158 9.78697L94.8977 9.72635L94.749 9.52539ZM93.5029 9.35352L93.5371 9.10586L93.5201 9.10352H93.5029V9.35352ZM92.4287 9.35352V9.10352H92.2247L92.1838 9.30335L92.4287 9.35352ZM92.2461 10.2451L92.0012 10.195L91.9961 10.2198V10.2451H92.2461ZM92.2461 12.3936H91.9961V12.4289L92.0059 12.4628L92.2461 12.3936ZM92.6113 13.8223L92.8534 13.8846L92.8613 13.8539V13.8223H92.6113ZM91.7197 14.5312L91.513 14.6718L91.5874 14.7812H91.7197V14.5312ZM91.3545 13.9941H91.1045V14.0711L91.1478 14.1347L91.3545 13.9941ZM91.1826 10.0625L90.959 9.9507L90.9282 10.0122L90.9333 10.0809L91.1826 10.0625ZM91.3545 9.52539H91.6045V9.36877L91.4636 9.30044L91.3545 9.52539ZM91 9.35352L91.1091 9.12856L91.0574 9.10352H91V9.35352ZM86.5312 8.45117L86.4839 8.20569L86.2812 8.24476V8.45117H86.5312ZM87.4229 8.2793V8.0293H87.399L87.3755 8.03382L87.4229 8.2793ZM95.6514 16.3252L95.6888 16.078L95.6702 16.0752H95.6514V16.3252ZM96.0059 19.1826H95.7559V19.2014L95.7587 19.2201L96.0059 19.1826ZM99.583 16.6797L99.3358 16.6422L99.333 16.6609V16.6797H99.583ZM100.292 16.3252L100.329 16.078L100.311 16.0752H100.292V16.3252ZM100.292 18.291L100.05 18.2272L100.042 18.2586V18.291H100.292ZM100.646 19.7197L100.871 19.8288L100.915 19.7387L100.885 19.6434L100.646 19.7197ZM100.475 20.0742L100.25 19.9652L100.214 20.0381L100.228 20.118L100.475 20.0742ZM95.8232 22.7598L95.587 22.8415L95.6452 23.0098H95.8232V22.7598ZM94.9316 16.6797L94.6845 16.6422L94.6816 16.6609V16.6797H94.9316ZM96.1777 21.1484H95.9277V21.2107L95.957 21.2657L96.1777 21.1484ZM96.3604 21.6855H96.1104V21.9355H96.3604V21.6855ZM99.7549 20.9658H100.005V20.9068L99.9785 20.854L99.7549 20.9658ZM99.583 20.4287H99.833V20.1787H99.583V20.4287ZM90.4629 1.20312H91.7197V0.703125H90.4629V1.20312ZM91.7197 1.20312C92.5549 1.20312 93.1232 1.4764 93.4806 1.98793L93.8905 1.70153C93.4172 1.02425 92.675 0.703125 91.7197 0.703125V1.20312ZM93.4355 1.84473V2.02734H93.9355V1.84473H93.4355ZM93.4391 1.98531C93.2585 3.04412 93.0101 3.81046 92.7069 4.30577C92.4079 4.79431 92.0774 4.98926 91.7197 4.98926V5.48926C92.3074 5.48926 92.7771 5.14889 93.1334 4.56679C93.4855 3.99146 93.7474 3.15184 93.932 2.06938L93.4391 1.98531ZM91.7586 4.99229C90.8205 4.84474 90.1497 4.59944 89.7185 4.27647C89.2994 3.96254 89.1016 3.57285 89.1016 3.09082H88.6016C88.6016 3.7403 88.8818 4.27444 89.4187 4.67665C89.9436 5.06983 90.7068 5.333 91.6809 5.48622L91.7586 4.99229ZM89.1016 3.09082V2.55371H88.6016V3.09082H89.1016ZM89.0989 2.59023C89.173 2.08812 89.3317 1.74622 89.5487 1.53064C89.7609 1.3199 90.0557 1.20312 90.4629 1.20312V0.703125C89.9534 0.703125 89.5213 0.853112 89.1964 1.1759C88.8763 1.49385 88.6877 1.95225 88.6042 2.51719L89.0989 2.59023ZM90.5674 1.84473C90.5674 2.2468 90.3497 2.58965 89.8108 2.86884L90.0408 3.3128C90.6907 2.9761 91.0674 2.48823 91.0674 1.84473H90.5674ZM89.6758 3.09082V3.27344H90.1758V3.09082H89.6758ZM89.7038 3.38844C89.8744 3.71775 90.0987 3.97768 90.3816 4.15423C90.665 4.3311 90.9925 4.41504 91.3545 4.41504V3.91504C91.0719 3.91504 90.8391 3.85037 90.6463 3.73005C90.4529 3.6094 90.2851 3.42353 90.1478 3.15844L89.7038 3.38844ZM91.3545 4.41504H91.7197V3.91504H91.3545V4.41504ZM91.7197 4.41504C91.892 4.41504 92.041 4.33788 92.1631 4.22786C92.2831 4.11962 92.3889 3.96972 92.4848 3.79254C92.6766 3.43797 92.8554 2.92319 93.0253 2.26141L92.5411 2.13703C92.3744 2.7858 92.2077 3.25392 92.045 3.55463C91.9636 3.70508 91.8899 3.80091 91.8283 3.85649C91.7686 3.91029 91.7337 3.91504 91.7197 3.91504V4.41504ZM92.9209 1.99057L92.3838 1.63607L92.1084 2.05338L92.6455 2.40787L92.9209 1.99057ZM92.2461 1.59473H90.8174V2.09473H92.2461V1.59473ZM97.8311 1.86884L98.3682 2.23408L98.6494 1.82061L98.1123 1.45538L97.8311 1.86884ZM98.2601 2.00187L98.0775 3.78508L98.5749 3.83602L98.7575 2.05281L98.2601 2.00187ZM98.0762 3.81055V5.05664H98.5762V3.81055H98.0762ZM98.0762 5.05664C98.0762 5.64027 98.139 6.25422 98.2633 6.898L98.7542 6.80317C98.6351 6.18654 98.5762 5.60453 98.5762 5.05664H98.0762ZM98.2677 6.78448C98.1384 7.25609 98.0762 7.8131 98.0762 8.45117H98.5762C98.5762 7.84315 98.6357 7.3331 98.7499 6.91669L98.2677 6.78448ZM98.0762 8.45117V8.98828H98.5762V8.45117H98.0762ZM98.0797 9.03018L98.2623 10.1044L98.7553 10.0206L98.5726 8.94638L98.0797 9.03018ZM98.2951 9.93276C98.1385 10.1907 98.0762 10.5421 98.0762 10.9541H98.5762C98.5762 10.5784 98.6356 10.3354 98.7225 10.1922L98.2951 9.93276ZM98.0762 10.9541C98.0762 11.379 98.1055 11.7211 98.1742 11.9646C98.2084 12.0858 98.2577 12.2029 98.3347 12.2939C98.418 12.3923 98.5358 12.4609 98.6807 12.4609V11.9609C98.7073 11.9609 98.7217 11.9772 98.7164 11.9709C98.7048 11.9572 98.6803 11.9172 98.6554 11.8289C98.6059 11.6534 98.5762 11.3671 98.5762 10.9541H98.0762ZM98.4469 12.1224C98.3608 12.3497 98.2813 12.5014 98.2128 12.5917C98.1398 12.6881 98.115 12.6699 98.1436 12.6699V13.1699C98.3511 13.1699 98.5054 13.0336 98.6114 12.8936C98.722 12.7477 98.8215 12.5448 98.9145 12.2995L98.4469 12.1224ZM98.1436 12.6699H97.9717V13.1699H98.1436V12.6699ZM98.0207 12.6748C97.9575 12.6621 97.8752 12.6135 97.8029 12.4211C97.7289 12.2244 97.6846 11.9203 97.6846 11.4912H97.1846C97.1846 11.943 97.2297 12.3174 97.3348 12.597C97.4415 12.8809 97.6278 13.1061 97.9227 13.1651L98.0207 12.6748ZM97.6846 11.4912V11.3193H97.1846V11.4912H97.6846ZM97.6846 11.3193C97.6846 10.9849 97.6996 10.7235 97.7276 10.5308C97.7574 10.326 97.7967 10.239 97.815 10.2154L97.4194 9.90964C97.3159 10.0435 97.2639 10.2448 97.2328 10.4589C97.1999 10.6852 97.1846 10.9734 97.1846 11.3193H97.6846ZM97.8628 10.0161C97.7427 9.37978 97.6846 8.85944 97.6846 8.45117H97.1846C97.1846 8.90228 97.2482 9.45616 97.3715 10.1089L97.8628 10.0161ZM97.6846 8.45117V6.66797H97.1846V8.45117H97.6846ZM97.3846 6.42302C96.5086 6.60178 95.8047 6.73539 95.2719 6.8242C94.7326 6.91409 94.3852 6.95508 94.2119 6.95508V7.45508C94.4326 7.45508 94.8192 7.40655 95.3541 7.3174C95.8954 7.22717 96.6059 7.09223 97.4846 6.91292L97.3846 6.42302ZM94.4369 7.09601L94.265 6.74152L93.8151 6.95965L93.987 7.31415L94.4369 7.09601ZM94.29 6.85059V6.48535H93.79V6.85059H94.29ZM94.29 6.48535C94.29 6.54806 94.2637 6.58979 94.2519 6.60552C94.2399 6.62141 94.2311 6.62681 94.2361 6.62318C94.2459 6.61592 94.2739 6.59895 94.3311 6.57372C94.4425 6.52449 94.62 6.46301 94.8704 6.38955C95.3685 6.24348 96.1216 6.05966 97.1336 5.83796L97.0266 5.34954C96.0119 5.57185 95.245 5.75864 94.7297 5.90976C94.4735 5.98491 94.2709 6.05367 94.129 6.11635C94.0595 6.14706 93.9925 6.18145 93.939 6.22097C93.9123 6.24072 93.8797 6.26837 93.852 6.30535C93.8243 6.34217 93.79 6.40384 93.79 6.48535H94.29ZM97.3301 5.59375C97.3301 5.61046 97.3249 5.63589 97.3082 5.66019C97.2929 5.68253 97.2773 5.69004 97.2778 5.6898C97.2791 5.68916 97.2909 5.68401 97.3194 5.67941C97.3471 5.67493 97.3849 5.67188 97.4346 5.67188V5.17188C97.3042 5.17188 97.17 5.18639 97.0596 5.23989C97.0011 5.26829 96.9411 5.31161 96.8962 5.37692C96.85 5.44418 96.8301 5.51975 96.8301 5.59375H97.3301ZM97.6846 5.42188V2.19922H97.1846V5.42188H97.6846ZM97.6846 2.19922C97.6846 2.20536 97.6809 2.17752 97.7456 2.11281C97.8096 2.0488 97.9189 1.97135 98.087 1.88391L97.8563 1.44031C97.6664 1.53907 97.5071 1.64423 97.3921 1.75926C97.2777 1.87358 97.1846 2.0212 97.1846 2.19922H97.6846ZM100.829 2.63184H101.184V2.13184H100.829V2.63184ZM101.077 2.60804L101.442 2.77992L101.655 2.32751L101.29 2.15563L101.077 2.60804ZM101.3 2.52839L101.117 4.32234L101.615 4.37297L101.798 2.57903L101.3 2.52839ZM101.116 4.34766V7.3877H101.616V4.34766H101.116ZM101.116 7.3877C101.116 9.08295 101.358 11.4792 101.839 14.5697L102.333 14.4928C101.854 11.4101 101.616 9.044 101.616 7.3877H101.116ZM101.948 14.3226L101.411 14.6771L101.687 15.0944L102.224 14.7399L101.948 14.3226ZM101.549 14.6357C101.612 14.6357 101.616 14.6795 101.573 14.615C101.534 14.5573 101.486 14.453 101.435 14.2868C101.333 13.9579 101.236 13.4502 101.147 12.7539C100.969 11.3654 100.828 9.27449 100.724 6.47609L100.225 6.49462C100.329 9.29647 100.47 11.4057 100.651 12.8174C100.741 13.5211 100.842 14.0635 100.957 14.4346C101.014 14.6185 101.079 14.7767 101.158 14.894C101.232 15.0045 101.359 15.1357 101.549 15.1357V14.6357ZM100.725 6.48535V2.73633H100.225V6.48535H100.725ZM100.722 2.77378C100.735 2.68644 100.759 2.65544 100.767 2.64724C100.77 2.6442 100.781 2.63184 100.829 2.63184V2.13184C100.677 2.13184 100.528 2.17855 100.413 2.29368C100.303 2.40364 100.25 2.54988 100.227 2.69888L100.722 2.77378ZM94.4507 8.31235C94.7005 8.45879 94.9813 8.5293 95.2861 8.5293V8.0293C95.061 8.0293 94.8691 7.97806 94.7036 7.88101L94.4507 8.31235ZM95.0361 8.2793V8.98828H95.5361V8.2793H95.0361ZM95.0361 8.98828C95.0361 8.93826 95.0569 8.91673 95.0437 8.93681C95.0343 8.95112 95.0137 8.97703 94.9751 9.01561C94.8985 9.09221 94.7757 9.19468 94.6003 9.32443L94.8977 9.72635C95.0805 9.59113 95.2262 9.47159 95.3286 9.36916C95.3796 9.31822 95.4261 9.26535 95.4614 9.21162C95.493 9.16367 95.5361 9.08485 95.5361 8.98828H95.0361ZM94.7832 9.27774L93.5371 9.10586L93.4688 9.60117L94.7149 9.77305L94.7832 9.27774ZM93.5029 9.10352H92.4287V9.60352H93.5029V9.10352ZM92.1838 9.30335L92.0012 10.195L92.491 10.2953L92.6736 9.40368L92.1838 9.30335ZM91.9961 10.2451V12.3936H92.4961V10.2451H91.9961ZM92.0059 12.4628C92.1274 12.8844 92.2179 13.212 92.2778 13.4464C92.3078 13.5639 92.3296 13.6558 92.3438 13.7236C92.3596 13.7994 92.3613 13.825 92.3613 13.8223H92.8613C92.8613 13.7658 92.8479 13.6916 92.8332 13.6215C92.8169 13.5433 92.7931 13.4433 92.7622 13.3226C92.7004 13.0809 92.6083 12.7477 92.4863 12.3243L92.0059 12.4628ZM92.3692 13.7599C92.318 13.9587 92.2368 14.0826 92.1415 14.1583C92.0471 14.2334 91.9137 14.2812 91.7197 14.2812V14.7812C91.9984 14.7812 92.2499 14.7109 92.4527 14.5497C92.6547 14.3891 92.7829 14.1585 92.8534 13.8846L92.3692 13.7599ZM91.9265 14.3907L91.5612 13.8536L91.1478 14.1347L91.513 14.6718L91.9265 14.3907ZM91.6045 13.9941V13.8223H91.1045V13.9941H91.6045ZM91.6045 13.8223C91.6045 12.8611 91.5467 11.601 91.4319 10.0441L90.9333 10.0809C91.0477 11.6321 91.1045 12.8785 91.1045 13.8223H91.6045ZM91.4062 10.1743C91.5243 9.93819 91.6045 9.71536 91.6045 9.52539H91.1045C91.1045 9.59324 91.0701 9.72848 90.959 9.9507L91.4062 10.1743ZM91.4636 9.30044L91.1091 9.12856L90.8909 9.57847L91.2454 9.75034L91.4636 9.30044ZM91 9.10352H86.8857V9.60352H91V9.10352ZM86.8857 9.10352C86.8474 9.10352 86.8242 9.09849 86.8119 9.09424C86.8059 9.0922 86.8026 9.09041 86.8012 9.08951C86.7998 9.08866 86.7994 9.08819 86.7993 9.08809C86.7992 9.08797 86.7984 9.0872 86.7971 9.08504C86.7958 9.08278 86.7936 9.07843 86.7913 9.07112C86.7864 9.05596 86.7812 9.0297 86.7812 8.98828H86.2812C86.2812 9.14672 86.3196 9.31181 86.4405 9.43633C86.5627 9.56223 86.7271 9.60352 86.8857 9.60352V9.10352ZM86.7812 8.98828V8.45117H86.2812V8.98828H86.7812ZM86.5786 8.69665L87.4702 8.52478L87.3755 8.03382L86.4839 8.20569L86.5786 8.69665ZM87.4229 8.5293H94.3945V8.0293H87.4229V8.5293ZM94.3945 8.5293C94.4939 8.5293 94.6144 8.50428 94.7083 8.41042C94.8021 8.31656 94.8271 8.19609 94.8271 8.09668H94.3271C94.3271 8.11902 94.3217 8.08985 94.3547 8.05687C94.3877 8.02388 94.4169 8.0293 94.3945 8.0293V8.5293ZM95.2861 16.5752H95.6514V16.0752H95.2861V16.5752ZM95.6139 16.5724C95.7012 16.5856 95.7323 16.6092 95.7405 16.6175C95.7435 16.6205 95.7559 16.6315 95.7559 16.6797H96.2559C96.2559 16.5273 96.2091 16.379 96.094 16.2639C95.9841 16.1539 95.8378 16.1006 95.6888 16.078L95.6139 16.5724ZM95.7559 16.6797V19.1826H96.2559V16.6797H95.7559ZM95.7587 19.2201C95.7813 19.3691 95.8346 19.5153 95.9446 19.6253C96.0597 19.7404 96.208 19.7871 96.3604 19.7871V19.2871C96.3122 19.2871 96.3011 19.2747 96.2981 19.2717C96.2899 19.2635 96.2663 19.2325 96.253 19.1452L95.7587 19.2201ZM96.3604 19.7871H96.7148V19.2871H96.3604V19.7871ZM96.7148 19.7871C97.6746 19.7871 98.4105 19.7425 98.912 19.6486C99.1604 19.602 99.3713 19.54 99.5262 19.4529C99.6791 19.367 99.833 19.222 99.833 19H99.333C99.333 18.957 99.3674 18.9687 99.2813 19.017C99.1972 19.0643 99.0495 19.1141 98.82 19.1571C98.3654 19.2422 97.6672 19.2871 96.7148 19.2871V19.7871ZM99.833 19V16.6797H99.333V19H99.833ZM99.8302 16.7171C99.8434 16.6298 99.8671 16.5988 99.8753 16.5906C99.8783 16.5876 99.8894 16.5752 99.9375 16.5752V16.0752C99.7851 16.0752 99.6368 16.1219 99.5217 16.237C99.4118 16.347 99.3584 16.4932 99.3358 16.6422L99.8302 16.7171ZM99.9375 16.5752H100.292V16.0752H99.9375V16.5752ZM100.255 16.5724C100.342 16.5856 100.373 16.6092 100.381 16.6175C100.384 16.6205 100.396 16.6315 100.396 16.6797H100.896C100.896 16.5273 100.85 16.379 100.735 16.2639C100.625 16.1539 100.478 16.1006 100.329 16.078L100.255 16.5724ZM100.396 16.6797C100.396 16.7373 100.374 16.8895 100.314 17.1631C100.256 17.4267 100.168 17.781 100.05 18.2272L100.534 18.3548C100.652 17.9058 100.742 17.544 100.802 17.2705C100.86 17.007 100.896 16.8011 100.896 16.6797H100.396ZM100.042 18.291C100.042 18.4316 100.079 18.6303 100.138 18.8695C100.199 19.1152 100.289 19.4245 100.408 19.796L100.885 19.6434C100.767 19.2773 100.68 18.9797 100.623 18.7491C100.564 18.5121 100.542 18.3652 100.542 18.291H100.042ZM100.422 19.6107L100.25 19.9652L100.7 20.1833L100.871 19.8288L100.422 19.6107ZM100.228 20.118C100.342 20.7547 100.396 21.276 100.396 21.6855H100.896C100.896 21.2357 100.837 20.6828 100.721 20.0305L100.228 20.118ZM100.396 21.6855V22.04H100.896V21.6855H100.396ZM100.396 22.04C100.396 21.9978 100.432 22.0422 100.243 22.1267C100.073 22.2026 99.7988 22.2736 99.4038 22.3326C98.6189 22.4497 97.4281 22.5098 95.8232 22.5098V23.0098C97.4339 23.0098 98.6548 22.9499 99.4776 22.8271C99.8865 22.7661 100.215 22.6871 100.447 22.5831C100.66 22.4877 100.896 22.3222 100.896 22.04H100.396ZM96.0595 22.6781C95.4755 20.9893 95.1816 19.1089 95.1816 17.0342H94.6816C94.6816 19.1561 94.9822 21.0927 95.587 22.8415L96.0595 22.6781ZM95.1816 17.0342V16.6797H94.6816V17.0342H95.1816ZM95.1788 16.7171C95.1921 16.6298 95.2157 16.5988 95.2239 16.5906C95.2269 16.5876 95.238 16.5752 95.2861 16.5752V16.0752C95.1338 16.0752 94.9855 16.1219 94.8703 16.237C94.7604 16.347 94.707 16.4932 94.6845 16.6422L95.1788 16.7171ZM95.957 21.2657C96.0752 21.4883 96.1104 21.6214 96.1104 21.6855H96.6104C96.6104 21.4919 96.5237 21.2669 96.3985 21.0311L95.957 21.2657ZM96.3604 21.9355H97.4346V21.4355H96.3604V21.9355ZM97.4346 21.9355C98.2147 21.9355 98.8253 21.8758 99.2489 21.7444C99.6577 21.6176 100.005 21.3823 100.005 20.9658H99.5049C99.5049 21.0292 99.4654 21.1537 99.1007 21.2668C98.7509 21.3754 98.2013 21.4355 97.4346 21.4355V21.9355ZM99.9785 20.854C99.8674 20.6318 99.833 20.4966 99.833 20.4287H99.333C99.333 20.6187 99.4132 20.8415 99.5313 21.0776L99.9785 20.854ZM99.583 20.1787H99.0459V20.6787H99.583V20.1787ZM99.0459 20.1787C98.0847 20.1787 97.3427 20.2385 96.8339 20.3662C96.5808 20.4297 96.3646 20.5149 96.2066 20.6338C96.0416 20.7581 95.9277 20.9307 95.9277 21.1484H96.4277C96.4277 21.1263 96.4334 21.089 96.5074 21.0333C96.5884 20.9723 96.7307 20.9076 96.9556 20.8511C97.4029 20.7389 98.095 20.6787 99.0459 20.6787V20.1787ZM111.71 3.08008V2.83008H111.682L111.654 2.83641L111.71 3.08008ZM112.064 3.08008H112.314V2.83008H112.064V3.08008ZM107.596 4.69141L107.557 4.44441L107.346 4.47747V4.69141H107.596ZM107.596 6.65723H107.346V6.71624L107.372 6.76903L107.596 6.65723ZM107.778 7.02246L107.555 7.13426L107.631 7.28655L107.8 7.27148L107.778 7.02246ZM111.893 6.48535L112.044 6.28608L111.955 6.21903L111.846 6.23974L111.893 6.48535ZM112.602 7.02246L112.835 7.11102L112.902 6.93612L112.753 6.82319L112.602 7.02246ZM108.67 8.98828L108.539 9.20152L108.6 9.23828H108.67V8.98828ZM112.784 8.45117L112.822 8.20399L112.783 8.19815L112.744 8.20434L112.784 8.45117ZM108.853 10.0625V10.3125H108.869L108.886 10.3102L108.853 10.0625ZM106.521 3.98242L106.274 3.94605L106.271 3.96414V3.98242H106.521ZM116.179 13.1025L116.401 12.988L116.326 12.8428L116.163 12.853L116.179 13.1025ZM116.361 13.457H116.611V13.3964L116.584 13.3425L116.361 13.457ZM114.396 14.3486V14.5986H114.406L114.417 14.5977L114.396 14.3486ZM113.139 14.3486V14.0986H112.989L112.918 14.231L113.139 14.3486ZM113.321 18.4629L113.556 18.5503L113.583 18.4778L113.564 18.4027L113.321 18.4629ZM112.064 18.6455H111.814V18.7066L111.843 18.7608L112.064 18.6455ZM112.064 14.7139H112.314V14.658L112.291 14.6074L112.064 14.7139ZM111.893 14.3486L112.119 14.2422L112.048 14.0907L111.88 14.0989L111.893 14.3486ZM103.127 14.7139L103.01 14.9346L103.065 14.9639H103.127V14.7139ZM102.59 14.5312H102.34V14.7812H102.59V14.5312ZM102.59 14.1768L102.353 14.0963L102.34 14.1354V14.1768H102.59ZM107.596 13.6396V13.8896H107.604L107.611 13.8892L107.596 13.6396ZM108.487 17.5713V17.3213H108.237V17.5713H108.487ZM109.744 20.0742L109.497 20.1145L109.519 20.246L109.64 20.3015L109.744 20.0742ZM110.636 20.6113H110.386V20.8832L110.657 20.8605L110.636 20.6113ZM116.361 19.5371L116.479 19.3163L116.389 19.2689L116.292 19.2969L116.361 19.5371ZM116.898 19.7197H117.148V19.4697H116.898V19.7197ZM115.287 20.9658V20.7158H115.269L115.251 20.7185L115.287 20.9658ZM109.744 21.5029L109.559 21.6707L109.633 21.7529H109.744V21.5029ZM108.315 18.1084L108.092 17.9966L108.065 18.0494V18.1084H108.315ZM111.71 3.33008H112.064V2.83008H111.71V3.33008ZM111.814 3.08008V3.2627H112.314V3.08008H111.814ZM111.814 3.2627C111.814 3.54865 111.714 3.73408 111.525 3.86078C111.319 3.99934 110.977 4.08691 110.464 4.08691V4.58691C111.017 4.58691 111.477 4.49545 111.804 4.27594C112.148 4.04456 112.314 3.69288 112.314 3.2627H111.814ZM110.464 4.08691C110.039 4.08691 109.062 4.20911 107.557 4.44441L107.634 4.9384C109.152 4.70104 110.087 4.58691 110.464 4.58691V4.08691ZM107.346 4.69141V6.65723H107.846V4.69141H107.346ZM107.372 6.76903L107.555 7.13426L108.002 6.91066L107.819 6.54542L107.372 6.76903ZM107.8 7.27148C109.417 7.12779 110.797 6.94782 111.939 6.73096L111.846 6.23974C110.725 6.45257 109.362 6.63068 107.756 6.77344L107.8 7.27148ZM111.742 6.68462L112.451 7.22173L112.753 6.82319L112.044 6.28608L111.742 6.68462ZM112.368 6.9339C112.282 7.16124 112.202 7.31288 112.134 7.40323C112.061 7.49961 112.036 7.48145 112.064 7.48145V7.98145C112.272 7.98145 112.426 7.84511 112.532 7.70516C112.643 7.55919 112.742 7.35634 112.835 7.11102L112.368 6.9339ZM112.064 7.48145H110.818V7.98145H112.064V7.48145ZM110.818 7.48145C109.859 7.48145 109.123 7.52608 108.621 7.61999C108.373 7.66652 108.162 7.72856 108.007 7.81561C107.854 7.90154 107.7 8.04651 107.7 8.26855H108.2C108.2 8.31156 108.166 8.29988 108.252 8.25153C108.336 8.2043 108.484 8.15444 108.713 8.11145C109.168 8.02633 109.866 7.98145 110.818 7.98145V7.48145ZM107.7 8.26855C107.7 8.46491 107.822 8.63307 107.953 8.76491C108.093 8.90491 108.292 9.05021 108.539 9.20152L108.8 8.77504C108.568 8.63274 108.407 8.51127 108.307 8.41136C108.199 8.30329 108.2 8.2584 108.2 8.26855H107.7ZM108.67 9.23828H108.853V8.73828H108.67V9.23828ZM108.853 9.23828C109.07 9.23828 109.514 9.19064 110.165 9.1017C110.823 9.0118 111.709 8.87717 112.824 8.698L112.744 8.20434C111.632 8.38325 110.749 8.51717 110.097 8.6063C109.438 8.6964 109.029 8.73828 108.853 8.73828V9.23828ZM112.747 8.69835C112.834 8.71158 112.865 8.73522 112.873 8.74343C112.876 8.74646 112.889 8.75752 112.889 8.80566H113.389C113.389 8.65329 113.342 8.505 113.227 8.38987C113.117 8.27992 112.971 8.22657 112.822 8.20399L112.747 8.69835ZM112.889 8.80566V9.1709H113.389V8.80566H112.889ZM112.889 9.1709C112.889 9.10854 112.916 9.06777 112.928 9.05284C112.94 9.0387 112.947 9.03622 112.936 9.0428C112.916 9.05592 112.87 9.07845 112.787 9.10773C112.625 9.1651 112.37 9.2311 112.016 9.3048C111.311 9.45155 110.246 9.62159 108.819 9.81476L108.886 10.3102C110.316 10.1167 111.395 9.94478 112.118 9.79432C112.478 9.71942 112.759 9.64801 112.954 9.57916C113.05 9.54533 113.138 9.50754 113.207 9.46315C113.242 9.44097 113.282 9.41044 113.316 9.36894C113.35 9.32665 113.389 9.25922 113.389 9.1709H112.889ZM108.853 9.8125C108.51 9.8125 108.22 9.72447 107.975 9.55473C107.727 9.38359 107.51 9.11932 107.329 8.74541C106.966 7.99084 106.771 6.82774 106.771 5.22852H106.271C106.271 6.85195 106.466 8.10584 106.879 8.96259C107.087 9.39435 107.355 9.73433 107.691 9.96603C108.028 10.1991 108.418 10.3125 108.853 10.3125V9.8125ZM106.771 5.22852V3.98242H106.271V5.22852H106.771ZM106.769 4.0188C106.782 3.92813 106.807 3.89492 106.816 3.88527C106.821 3.88069 106.835 3.86719 106.887 3.86719V3.36719C106.731 3.36719 106.58 3.41455 106.463 3.53172C106.351 3.64382 106.297 3.79322 106.274 3.94605L106.769 4.0188ZM106.887 3.86719H107.424V3.36719H106.887V3.86719ZM107.424 3.86719C108.743 3.86719 110.19 3.68509 111.766 3.32375L111.654 2.83641C110.107 3.19122 108.697 3.36719 107.424 3.36719V3.86719ZM115.956 13.217L116.139 13.5715L116.584 13.3425L116.401 12.988L115.956 13.217ZM116.111 13.457V13.6396H116.611V13.457H116.111ZM116.111 13.6396C116.111 13.6425 116.113 13.6613 116.07 13.7002C116.023 13.7436 115.934 13.7966 115.785 13.8503C115.488 13.9572 115.023 14.0428 114.374 14.0996L114.417 14.5977C115.079 14.5399 115.596 14.45 115.955 14.3206C116.134 14.2561 116.29 14.1757 116.406 14.0705C116.527 13.9609 116.611 13.8158 116.611 13.6396H116.111ZM114.396 14.0986H113.139V14.5986H114.396V14.0986ZM112.918 14.231C112.783 14.4852 112.717 14.7661 112.717 15.0684H113.217C113.217 14.8407 113.266 14.6418 113.359 14.4663L112.918 14.231ZM112.717 15.0684V15.4229H113.217V15.0684H112.717ZM112.717 15.4229C112.717 16.5155 112.837 17.5492 113.079 18.5231L113.564 18.4027C113.333 17.4717 113.217 16.4787 113.217 15.4229H112.717ZM113.087 18.3755C113.001 18.6066 112.921 18.761 112.852 18.8532C112.779 18.952 112.754 18.9326 112.784 18.9326V19.4326C112.993 19.4326 113.148 19.2933 113.253 19.1522C113.363 19.0045 113.463 18.799 113.556 18.5503L113.087 18.3755ZM112.784 18.9326H112.602V19.4326H112.784V18.9326ZM112.602 18.9326C112.608 18.9326 112.58 18.9363 112.515 18.8716C112.451 18.8076 112.374 18.6983 112.286 18.5302L111.843 18.7608C111.941 18.9508 112.047 19.1101 112.162 19.2251C112.276 19.3394 112.424 19.4326 112.602 19.4326V18.9326ZM112.314 18.6455V14.7139H111.814V18.6455H112.314ZM112.291 14.6074L112.119 14.2422L111.666 14.4551L111.838 14.8203L112.291 14.6074ZM111.88 14.0989C106.928 14.3426 104.014 14.4639 103.127 14.4639V14.9639C104.03 14.9639 106.96 14.8416 111.905 14.5983L111.88 14.0989ZM103.244 14.4931C103.009 14.3679 102.784 14.2812 102.59 14.2812V14.7812C102.654 14.7812 102.787 14.8164 103.01 14.9346L103.244 14.4931ZM102.84 14.5312V14.1768H102.34V14.5312H102.84ZM102.827 14.2572C102.895 14.0548 103.105 13.8896 103.664 13.8896V13.3896C103.034 13.3896 102.528 13.5826 102.353 14.0963L102.827 14.2572ZM103.664 13.8896H107.596V13.3896H103.664V13.8896ZM107.611 13.8892L116.194 13.3521L116.163 12.853L107.58 13.3901L107.611 13.8892ZM108.487 17.8213H109.024V17.3213H108.487V17.8213ZM109.024 17.8213C108.994 17.8213 108.97 17.8134 108.953 17.8053C108.938 17.7978 108.93 17.7905 108.93 17.7901C108.93 17.7896 108.933 17.7931 108.94 17.803C108.947 17.8127 108.956 17.8267 108.966 17.8459C109.009 17.9267 109.061 18.063 109.12 18.2661C109.236 18.6687 109.362 19.2826 109.497 20.1145L109.991 20.034C109.854 19.1972 109.725 18.5597 109.6 18.1279C109.539 17.9139 109.475 17.7373 109.407 17.6095C109.373 17.5462 109.331 17.482 109.278 17.4307C109.225 17.3795 109.139 17.3213 109.024 17.3213V17.8213ZM109.64 20.3015C109.935 20.4365 110.147 20.5446 110.284 20.6267C110.353 20.6685 110.394 20.6981 110.414 20.716C110.424 20.7251 110.422 20.7249 110.415 20.7154C110.41 20.7083 110.386 20.671 110.386 20.6113H110.886C110.886 20.5301 110.852 20.4685 110.829 20.4341C110.803 20.3973 110.773 20.3669 110.746 20.3428C110.692 20.2945 110.621 20.2463 110.542 20.1985C110.381 20.1016 110.148 19.9841 109.848 19.8469L109.64 20.3015ZM110.657 20.8605C112.55 20.7014 114.475 20.3402 116.43 19.7774L116.292 19.2969C114.366 19.8512 112.474 20.2061 110.615 20.3622L110.657 20.8605ZM116.244 19.7579C116.48 19.8831 116.705 19.9697 116.898 19.9697V19.4697C116.834 19.4697 116.701 19.4346 116.479 19.3163L116.244 19.7579ZM116.648 19.7197V19.9023H117.148V19.7197H116.648ZM116.648 19.9023C116.648 20.1829 116.548 20.3656 116.358 20.4913C116.149 20.629 115.805 20.7158 115.287 20.7158V21.2158C115.844 21.2158 116.305 21.1254 116.633 20.9086C116.98 20.6798 117.148 20.3307 117.148 19.9023H116.648ZM115.251 20.7185C112.826 21.0761 110.993 21.2529 109.744 21.2529V21.7529C111.03 21.7529 112.893 21.5717 115.324 21.2131L115.251 20.7185ZM109.93 21.3352C109.011 20.32 108.565 19.2462 108.565 18.1084H108.065C108.065 19.3912 108.572 20.5804 109.559 21.6707L109.93 21.3352ZM108.539 18.2202C108.657 17.9841 108.737 17.7613 108.737 17.5713H108.237C108.237 17.6391 108.203 17.7744 108.092 17.9966L108.539 18.2202Z" fill="#222222"/>
</svg>
