<svg width="118" height="26" viewBox="0 0 118 26" fill="none" xmlns="http://www.w3.org/2000/svg">
<path d="M11.5479 1.30762C12.0205 1.37923 12.2568 1.85547 12.2568 2.73633V6.85059C12.2568 7.02962 12.0205 7.20866 11.5479 7.3877L11.1934 6.85059V2.55371C11.1934 2.31738 11.0716 2.19922 10.8281 2.19922H10.1191C9.56771 2.19922 8.61523 2.31738 7.26172 2.55371L7.0791 2.19922V2.0166C7.0791 1.54395 8.56868 1.30762 11.5479 1.30762ZM4.22168 1.84473H4.75879C5.58952 1.84473 6.00488 2.2028 6.00488 2.91895C5.8903 3.92871 5.83301 4.76302 5.83301 5.42188V7.3877C5.83301 7.55957 5.65397 7.73861 5.2959 7.9248C5.05957 7.80306 4.88053 7.74219 4.75879 7.74219C4.87337 5.54362 4.93066 3.93587 4.93066 2.91895C4.39355 2.91895 4.03548 2.85807 3.85645 2.73633C3.17611 2.85807 2.28451 3.09798 1.18164 3.45605C0.952474 3.33431 0.773438 3.27344 0.644531 3.27344V2.38184C2.32747 2.02376 3.51986 1.84473 4.22168 1.84473ZM14.4053 10.9541L14.5879 11.3193C14.5879 11.9137 13.2773 12.2109 10.6562 12.2109L10.291 12.748C10.4128 14.9395 10.5918 16.25 10.8281 16.6797L10.4736 17.3887H12.7939C13.3167 17.3887 13.6175 18.5238 13.6963 20.7939C13.3883 21.2236 11.3617 21.818 7.61621 22.5771C7.61621 22.6989 7.49805 22.7598 7.26172 22.7598V22.9316C7.54102 24.2422 8.07454 24.8975 8.8623 24.8975H10.8281C13.2559 24.8975 14.8063 24.7184 15.4795 24.3604L15.834 24.8975C15.6693 25.4919 15.2539 25.7891 14.5879 25.7891C14.4661 25.7891 14.4053 25.7318 14.4053 25.6172C13.0732 25.8535 11.5264 25.9717 9.76465 25.9717C7.73796 25.9717 6.72461 25.4346 6.72461 24.3604C6.48828 24.3389 6.30924 23.9235 6.1875 23.1143V22.5771C6.1875 22.1117 8.27148 21.3955 12.4395 20.4287C12.5612 20.1995 12.6221 20.0205 12.6221 19.8916C12.6221 19.376 12.5003 18.8424 12.2568 18.291C11.1182 18.5273 9.09505 18.6455 6.1875 18.6455C6.1875 18.5238 6.12663 18.4629 6.00488 18.4629C6.09798 17.8685 7.40853 17.5713 9.93652 17.5713V17.3887C9.72884 17.3887 9.49251 15.7809 9.22754 12.5654C7.3584 12.6872 5.98698 12.748 5.11328 12.748C4.6263 12.748 3.91016 12.6299 2.96484 12.3936V11.8564L3.14746 11.4912L5.65039 11.6738C8.65104 11.4375 11.5693 11.1403 14.4053 10.7822V10.9541ZM24.373 1.30762L24.7383 1.84473V2.55371C24.4948 3.70671 24.373 4.36198 24.373 4.51953C26.4069 4.99935 27.4811 5.41829 27.5957 5.77637C27.4167 6.24902 27.2376 6.48535 27.0586 6.48535H26.876C26.3102 6.0127 25.3005 5.77637 23.8467 5.77637C23.8467 6.39225 23.6676 6.75033 23.3096 6.85059H22.9443C22.708 6.85059 22.5898 6.67155 22.5898 6.31348C23.306 4.30111 23.6641 3.10872 23.6641 2.73633L23.4814 2.38184C21.4619 2.73991 20.4521 3.15527 20.4521 3.62793C20.3662 3.62793 20.1263 3.92513 19.7324 4.51953V4.70215C20.8066 5.4541 21.3438 6.0485 21.3438 6.48535L20.9785 6.66797C20.7279 6.66797 20.0153 6.3099 18.8408 5.59375L17.584 7.55957H17.4121C17.2402 7.55957 17.0612 7.38053 16.875 7.02246C16.875 6.80046 17.7666 5.43262 19.5498 2.91895V2.73633H17.4121C17.2904 2.73633 17.2295 2.7972 17.2295 2.91895C16.6351 2.76139 16.3379 2.58236 16.3379 2.38184V2.0166L19.7324 1.66211C20.377 1.78385 21.0322 1.84473 21.6982 1.84473L24.373 1.30762ZM28.6699 9.34277L28.8418 10.0625L28.3047 10.417H23.6641C22.9479 10.4958 22.5898 10.6748 22.5898 10.9541V13.9941L22.9443 14.5312L24.2012 14.3486H26.876C27.1195 14.3486 27.2985 14.943 27.4131 16.1318C27.2985 16.7764 27.2412 17.3135 27.2412 17.7432V18.4629C27.2412 18.5775 27.1803 18.6348 27.0586 18.6348L27.2412 19V19.8916C27.2412 20.1279 27.1195 20.2461 26.876 20.2461H26.5215C26.2852 20.2461 26.167 20.0671 26.167 19.709C26.167 19.1647 26.2243 17.7969 26.3389 15.6055L25.8125 15.2402L18.6582 15.7773L18.4863 15.4229C18.6797 14.943 19.0951 14.7031 19.7324 14.7031H21.1611C21.4333 14.7031 21.6123 13.8115 21.6982 12.0283C21.5765 11.5557 21.5156 11.1367 21.5156 10.7715C20.7852 10.7715 19.2992 10.8932 17.0576 11.1367C16.5778 10.9577 16.3379 10.7786 16.3379 10.5996C16.3379 10.4277 16.5169 10.2487 16.875 10.0625H17.584C21.0143 9.70443 24.7096 9.46452 28.6699 9.34277ZM33.0947 3.98242L33.46 4.51953V6.85059C33.46 7.08691 33.6354 7.20508 33.9863 7.20508C34.1367 7.20508 34.7347 7.14421 35.7803 7.02246L35.9521 7.37695V7.74219C35.9521 7.91406 35.7767 8.0931 35.4258 8.2793H30.957L29.7002 8.45117L29.3457 7.91406C29.3457 7.55599 30.359 7.25879 32.3857 7.02246L32.5576 5.23926V4.16504C32.6865 4.16504 32.8656 4.10417 33.0947 3.98242ZM41.6777 4.34766H42.2148V8.63379L42.0322 9.70801C42.154 10.3024 42.2721 10.5996 42.3867 10.5996C44.0124 10.4779 45.0257 10.417 45.4268 10.417L45.6094 10.7715V11.3086C45.6094 11.5521 45.4876 11.6738 45.2441 11.6738L43.998 11.4912C42.8092 11.5843 42.2148 11.7633 42.2148 12.0283V12.3828C42.2148 13.0417 42.2721 13.876 42.3867 14.8857C42.3867 15.3656 42.0895 15.7236 41.4951 15.96L41.1406 15.4229C41.1406 14.3057 41.1979 13.1742 41.3125 12.0283C41.3125 11.8421 41.2552 10.8896 41.1406 9.1709C41.2552 7.41634 41.3125 5.86589 41.3125 4.51953L41.6777 4.34766ZM33.46 9.70801C34.5557 9.70801 35.2682 10.4814 35.5977 12.0283V12.3828C35.5977 13.3353 34.9424 13.9297 33.6318 14.166H33.46C32.1494 14.166 31.4941 13.6325 31.4941 12.5654V11.4912C31.4941 10.5745 32.1494 9.98014 33.46 9.70801ZM32.3857 12.3828C32.4215 12.6979 32.7188 12.9951 33.2773 13.2744C34.2298 12.9593 34.7061 12.6621 34.7061 12.3828V12.2109C34.7061 11.2513 34.2907 10.7715 33.46 10.7715H33.2773C32.9479 10.7715 32.6507 11.3086 32.3857 12.3828ZM37.209 16.1318C37.4023 16.3252 37.6387 17.5176 37.918 19.709H38.2832C41.4128 19.5872 43.2568 19.5264 43.8154 19.5264L43.998 19.8916V20.2461C43.998 20.4824 43.819 20.6006 43.4609 20.6006C40.2168 20.7223 38.251 20.7832 37.5635 20.7832V20.9658C36.9691 20.7939 36.6719 20.375 36.6719 19.709V16.3145C36.8008 16.3145 36.9798 16.2536 37.209 16.1318ZM56.0273 3.81055H56.5645C56.8008 4.58398 56.9189 5.11751 56.9189 5.41113V6.48535L57.1016 6.85059L57.9932 6.66797H58.1758C58.9564 6.66797 59.4899 6.9043 59.7764 7.37695C59.7764 7.65625 59.4219 8.3724 58.7129 9.52539C58.7129 9.64714 58.7702 9.70801 58.8848 9.70801C59.737 10.1377 60.8112 10.4349 62.1074 10.5996V11.3086L61.3877 11.4912C61.0798 11.4912 59.8874 11.1331 57.8105 10.417C57.8105 10.6032 56.9762 11.3766 55.3076 12.7373H54.9531C54.7168 12.7373 54.5986 12.6191 54.5986 12.3828V12.2109C56.6826 10.3991 57.9932 9.02767 58.5303 8.09668V7.55957C57.9717 7.55957 56.543 7.91764 54.2441 8.63379C54.0007 8.63379 53.8789 8.51562 53.8789 8.2793V7.74219C55.2324 7.74219 55.9486 7.26595 56.0273 6.31348V3.81055ZM65.1367 5.59375H65.3193C65.5557 5.59375 65.6738 5.77279 65.6738 6.13086C65.8743 15.541 66.1143 20.2461 66.3936 20.2461C66.236 20.8405 66.057 21.1377 65.8564 21.1377H65.3193C65.3193 20.8727 65.2585 20.6364 65.1367 20.4287C65.1367 20.307 65.1976 20.2461 65.3193 20.2461L65.1367 18.0977V16.1318H63.5361C62.7842 16.1318 59.2106 16.5508 52.8154 17.3887L52.6328 17.0342V16.6689C54.6237 16.404 56.1133 16.1068 57.1016 15.7773C57.2161 15.5697 57.2734 15.3333 57.2734 15.0684V12.9199C57.3164 12.6836 57.4382 12.5654 57.6387 12.5654H58.1758L57.9932 13.8115C57.9932 15.1221 58.2331 15.7773 58.7129 15.7773C61.6849 15.3047 63.5898 15.0684 64.4277 15.0684C64.6569 15.1829 64.8359 15.2402 64.9648 15.2402C64.8431 10.929 64.7822 7.83171 64.7822 5.94824C64.818 5.71191 64.9362 5.59375 65.1367 5.59375ZM76.2002 2.55371H76.9092C77.389 5.41113 77.6289 7.91406 77.6289 10.0625L77.4463 11.8457C77.568 12.2897 77.6289 12.8268 77.6289 13.457L77.2744 13.6396H77.0918C76.9987 13.6396 76.8197 13.4606 76.5547 13.1025C76.6764 11.9137 76.7373 11.0186 76.7373 10.417V10.2451C76.7373 7.53092 76.4974 5.14616 76.0176 3.09082C76.1393 2.86165 76.2002 2.68262 76.2002 2.55371ZM71.1943 2.73633H71.377C71.6133 2.77214 71.7314 2.8903 71.7314 3.09082V3.27344L69.583 5.94824V6.48535C69.7835 6.48535 71.0941 7.2015 73.5146 8.63379C74.2308 8.63379 74.5889 8.81283 74.5889 9.1709V9.34277C74.5889 9.70085 74.3525 9.87988 73.8799 9.87988C70.8434 8.09668 69.1748 7.20508 68.874 7.20508C67.9788 8.8737 67.4417 9.70801 67.2627 9.70801C67.0264 9.70801 66.9082 9.58626 66.9082 9.34277V8.81641C68.4121 6.01628 69.8408 3.98958 71.1943 2.73633ZM70.6572 13.8115C71.0511 13.8115 71.4701 15.4801 71.9141 18.8174C72.1432 18.9391 72.3223 19 72.4512 19C73.7546 19 76.1357 18.8783 79.5947 18.6348C80.0674 18.8138 80.3037 18.9928 80.3037 19.1719V19.3545L79.9492 19.8916L78.3379 19.709C78.1016 19.709 75.7812 19.8271 71.377 20.0635C71.1406 19.3688 70.7217 17.403 70.1201 14.166L70.6572 13.8115ZM91.2695 0.953125H92.5264C93.4215 0.953125 94.0768 1.25033 94.4922 1.84473V2.02734C94.127 4.16862 93.4717 5.23926 92.5264 5.23926C90.6143 4.93848 89.6582 4.22233 89.6582 3.09082V2.55371C89.8158 1.48665 90.3529 0.953125 91.2695 0.953125ZM91.624 1.84473C91.624 2.36751 91.3268 2.78288 90.7324 3.09082V3.27344C91.0404 3.86784 91.5166 4.16504 92.1611 4.16504H92.5264C92.8988 4.16504 93.2533 3.50977 93.5898 2.19922L93.0527 1.84473H91.624ZM98.7783 1.66211L99.3154 2.02734L99.1328 3.81055V5.05664C99.1328 5.6224 99.1937 6.22038 99.3154 6.85059C99.1937 7.2946 99.1328 7.82812 99.1328 8.45117V8.98828L99.3154 10.0625C99.1937 10.263 99.1328 10.5602 99.1328 10.9541C99.1328 11.792 99.251 12.2109 99.4873 12.2109C99.3083 12.6836 99.1292 12.9199 98.9502 12.9199H98.7783C98.4202 12.8483 98.2412 12.3721 98.2412 11.4912V11.3193C98.2412 10.639 98.3021 10.2201 98.4238 10.0625C98.3021 9.41797 98.2412 8.88086 98.2412 8.45117V6.66797C96.4867 7.02604 95.4124 7.20508 95.0186 7.20508L94.8467 6.85059V6.48535C94.8467 6.33496 95.86 6.03776 97.8867 5.59375C97.8867 5.47917 98.0049 5.42188 98.2412 5.42188V2.19922C98.2412 2.02734 98.4202 1.84831 98.7783 1.66211ZM101.636 2.38184H101.99L102.355 2.55371L102.173 4.34766V7.3877C102.173 9.06348 102.413 11.4447 102.893 14.5312L102.355 14.8857C101.847 14.8857 101.489 12.0856 101.281 6.48535V2.73633C101.317 2.5 101.435 2.38184 101.636 2.38184ZM95.3838 8.09668C95.5915 8.21842 95.8278 8.2793 96.0928 8.2793V8.98828C96.0928 9.08138 95.9137 9.26042 95.5557 9.52539L94.3096 9.35352H93.2354L93.0527 10.2451V12.3936C93.2962 13.2386 93.418 13.7148 93.418 13.8223C93.2962 14.2949 92.999 14.5312 92.5264 14.5312L92.1611 13.9941V13.8223C92.1611 12.8698 92.1038 11.6165 91.9893 10.0625C92.1038 9.83333 92.1611 9.6543 92.1611 9.52539L91.8066 9.35352H87.6924C87.4561 9.35352 87.3379 9.23177 87.3379 8.98828V8.45117L88.2295 8.2793H95.2012C95.3229 8.2793 95.3838 8.21842 95.3838 8.09668ZM96.0928 16.3252H96.458C96.6943 16.361 96.8125 16.4792 96.8125 16.6797V19.1826C96.8483 19.4189 96.9665 19.5371 97.167 19.5371H97.5215C99.4336 19.5371 100.39 19.3581 100.39 19V16.6797C100.425 16.4434 100.544 16.3252 100.744 16.3252H101.099C101.335 16.361 101.453 16.4792 101.453 16.6797C101.453 16.8587 101.335 17.3958 101.099 18.291C101.099 18.5059 101.217 18.9821 101.453 19.7197L101.281 20.0742C101.396 20.7188 101.453 21.2559 101.453 21.6855V22.04C101.453 22.5199 99.8454 22.7598 96.6299 22.7598C96.0355 21.041 95.7383 19.1325 95.7383 17.0342V16.6797C95.7741 16.4434 95.8923 16.3252 96.0928 16.3252ZM96.9844 21.1484C97.1061 21.3776 97.167 21.5566 97.167 21.6855H98.2412C99.7881 21.6855 100.562 21.4456 100.562 20.9658C100.447 20.7367 100.39 20.5576 100.39 20.4287H99.8525C97.9404 20.4287 96.9844 20.6686 96.9844 21.1484ZM112.517 3.08008H112.871V3.2627C112.871 3.97884 112.338 4.33691 111.271 4.33691C110.869 4.33691 109.913 4.45508 108.402 4.69141V6.65723L108.585 7.02246C110.196 6.87923 111.568 6.7002 112.699 6.48535L113.408 7.02246C113.229 7.49512 113.05 7.73145 112.871 7.73145H111.625C109.713 7.73145 108.757 7.91048 108.757 8.26855C108.757 8.45475 108.997 8.69466 109.477 8.98828H109.659C110.053 8.98828 111.364 8.80924 113.591 8.45117C113.827 8.48698 113.945 8.60514 113.945 8.80566V9.1709C113.945 9.37858 112.517 9.67578 109.659 10.0625C108.105 10.0625 107.328 8.45117 107.328 5.22852V3.98242C107.364 3.73893 107.486 3.61719 107.693 3.61719H108.23C109.527 3.61719 110.955 3.43815 112.517 3.08008ZM116.985 13.1025L117.168 13.457V13.6396C117.168 13.9977 116.513 14.234 115.202 14.3486H113.945C113.831 14.5635 113.773 14.8034 113.773 15.0684V15.4229C113.773 16.4971 113.892 17.5104 114.128 18.4629C113.949 18.9427 113.77 19.1826 113.591 19.1826H113.408C113.236 19.1826 113.057 19.0036 112.871 18.6455V14.7139L112.699 14.3486C107.751 14.5921 104.829 14.7139 103.934 14.7139C103.704 14.5921 103.525 14.5312 103.396 14.5312V14.1768C103.518 13.8187 103.876 13.6396 104.471 13.6396H108.402L116.985 13.1025ZM109.294 17.5713H109.831C110.039 17.5713 110.279 18.4056 110.551 20.0742C111.145 20.3464 111.442 20.5254 111.442 20.6113C113.319 20.4538 115.227 20.0957 117.168 19.5371C117.397 19.6589 117.576 19.7197 117.705 19.7197V19.9023C117.705 20.6113 117.168 20.9658 116.094 20.9658C113.666 21.3239 111.818 21.5029 110.551 21.5029C109.598 20.4502 109.122 19.3187 109.122 18.1084C109.237 17.8792 109.294 17.7002 109.294 17.5713Z" fill="#222222"/>
<path d="M11.5479 1.30762L11.5853 1.06044L11.5667 1.05762H11.5479V1.30762ZM11.5479 7.3877L11.3392 7.52541L11.4494 7.69233L11.6364 7.62149L11.5479 7.3877ZM11.1934 6.85059H10.9434V6.92565L10.9847 6.9883L11.1934 6.85059ZM7.26172 2.55371L7.03947 2.6682L7.12365 2.8316L7.30472 2.79999L7.26172 2.55371ZM7.0791 2.19922H6.8291V2.25983L6.85686 2.31371L7.0791 2.19922ZM6.00488 2.91895L6.25329 2.94713L6.25488 2.93308V2.91895H6.00488ZM5.2959 7.9248L5.18141 8.14705L5.29644 8.20631L5.41124 8.14661L5.2959 7.9248ZM4.75879 7.74219L4.50913 7.72918L4.49542 7.99219H4.75879V7.74219ZM4.93066 2.91895H5.18066V2.66895H4.93066V2.91895ZM3.85645 2.73633L3.99702 2.5296L3.91274 2.47228L3.81241 2.49024L3.85645 2.73633ZM1.18164 3.45605L1.06435 3.67683L1.15799 3.72658L1.25884 3.69384L1.18164 3.45605ZM0.644531 3.27344H0.394531V3.52344H0.644531V3.27344ZM0.644531 2.38184L0.592504 2.13731L0.394531 2.17943V2.38184H0.644531ZM14.4053 10.9541H14.1553V11.0131L14.1817 11.0659L14.4053 10.9541ZM14.5879 11.3193H14.8379V11.2603L14.8115 11.2075L14.5879 11.3193ZM10.6562 12.2109V11.9609H10.5239L10.4495 12.0704L10.6562 12.2109ZM10.291 12.748L10.0843 12.6075L10.0367 12.6774L10.0414 12.7619L10.291 12.748ZM10.8281 16.6797L11.0517 16.7915L11.1104 16.6742L11.0472 16.5592L10.8281 16.6797ZM10.4736 17.3887L10.25 17.2769L10.0691 17.6387H10.4736V17.3887ZM13.6963 20.7939L13.8995 20.9396L13.9491 20.8704L13.9461 20.7853L13.6963 20.7939ZM7.61621 22.5771L7.56655 22.3321L7.36621 22.3727V22.5771H7.61621ZM7.26172 22.7598V22.5098H7.01172V22.7598H7.26172ZM7.26172 22.9316H7.01172V22.958L7.01721 22.9837L7.26172 22.9316ZM15.4795 24.3604L15.6881 24.2226L15.5629 24.0328L15.3621 24.1396L15.4795 24.3604ZM15.834 24.8975L16.0749 24.9642L16.1053 24.8546L16.0426 24.7598L15.834 24.8975ZM14.4053 25.6172H14.6553V25.3189L14.3616 25.371L14.4053 25.6172ZM6.72461 24.3604H6.97461V24.132L6.74724 24.1114L6.72461 24.3604ZM6.1875 23.1143H5.9375V23.133L5.94028 23.1514L6.1875 23.1143ZM12.4395 20.4287L12.4959 20.6722L12.6068 20.6465L12.6602 20.546L12.4395 20.4287ZM12.2568 18.291L12.4855 18.19L12.4039 18.0052L12.206 18.0462L12.2568 18.291ZM6.1875 18.6455H5.9375V18.8955H6.1875V18.6455ZM6.00488 18.4629L5.75789 18.4242L5.71268 18.7129H6.00488V18.4629ZM9.93652 17.5713V17.8213H10.1865V17.5713H9.93652ZM9.93652 17.3887H10.1865V17.1387H9.93652V17.3887ZM9.22754 12.5654L9.47669 12.5449L9.45651 12.3L9.21129 12.316L9.22754 12.5654ZM2.96484 12.3936H2.71484V12.5887L2.90421 12.6361L2.96484 12.3936ZM2.96484 11.8564L2.74124 11.7446L2.71484 11.7974V11.8564H2.96484ZM3.14746 11.4912L3.16565 11.2419L2.99871 11.2297L2.92385 11.3794L3.14746 11.4912ZM5.65039 11.6738L5.6322 11.9232L5.65111 11.9245L5.67002 11.9231L5.65039 11.6738ZM14.4053 10.7822H14.6553V10.4987L14.374 10.5342L14.4053 10.7822ZM11.5104 1.5548C11.6561 1.57687 11.769 1.65503 11.8556 1.82964C11.949 2.01766 12.0068 2.31219 12.0068 2.73633H12.5068C12.5068 2.2796 12.4466 1.89559 12.3035 1.60738C12.1539 1.30575 11.9123 1.10998 11.5853 1.06044L11.5104 1.5548ZM12.0068 2.73633V6.85059H12.5068V2.73633H12.0068ZM12.0068 6.85059C12.0068 6.82207 12.025 6.84685 11.9286 6.91987C11.8383 6.98832 11.6866 7.06779 11.4593 7.15391L11.6364 7.62149C11.8817 7.52856 12.0846 7.429 12.2306 7.31841C12.3705 7.21239 12.5068 7.05814 12.5068 6.85059H12.0068ZM11.7565 7.24998L11.402 6.71288L10.9847 6.9883L11.3392 7.52541L11.7565 7.24998ZM11.4434 6.85059V2.55371H10.9434V6.85059H11.4434ZM11.4434 2.55371C11.4434 2.39508 11.4021 2.23064 11.2762 2.10845C11.1517 1.9876 10.9866 1.94922 10.8281 1.94922V2.44922C10.8695 2.44922 10.8958 2.45433 10.911 2.45924C10.9183 2.4616 10.9226 2.46379 10.9249 2.46511C10.927 2.46636 10.9278 2.46712 10.9279 2.46724C10.928 2.46734 10.9285 2.46778 10.9293 2.46915C10.9302 2.4706 10.932 2.47387 10.9341 2.47982C10.9383 2.4922 10.9434 2.51537 10.9434 2.55371H11.4434ZM10.8281 1.94922H10.1191V2.44922H10.8281V1.94922ZM10.1191 1.94922C9.54356 1.94922 8.57164 2.07121 7.21872 2.30744L7.30472 2.79999C8.65883 2.56355 9.59186 2.44922 10.1191 2.44922V1.94922ZM7.48396 2.43922L7.30135 2.08473L6.85686 2.31371L7.03947 2.6682L7.48396 2.43922ZM7.3291 2.19922V2.0166H6.8291V2.19922H7.3291ZM7.3291 2.0166C7.3291 2.05252 7.29848 2.01181 7.46584 1.93216C7.61944 1.85905 7.8706 1.78966 8.23546 1.73178C8.96017 1.6168 10.0613 1.55762 11.5479 1.55762V1.05762C10.0552 1.05762 8.922 1.1166 8.15712 1.23795C7.77718 1.29823 7.46975 1.37655 7.25096 1.48069C7.04592 1.57827 6.8291 1.74436 6.8291 2.0166H7.3291ZM4.22168 2.09473H4.75879V1.59473H4.22168V2.09473ZM4.75879 2.09473C5.14396 2.09473 5.38617 2.17853 5.53012 2.30263C5.66698 2.42062 5.75488 2.60989 5.75488 2.91895H6.25488C6.25488 2.51186 6.1351 2.16402 5.85659 1.92393C5.58519 1.68996 5.20435 1.59473 4.75879 1.59473V2.09473ZM5.75648 2.89076C5.64133 3.90545 5.58301 4.75 5.58301 5.42188H6.08301C6.08301 4.77604 6.13926 3.95197 6.25329 2.94713L5.75648 2.89076ZM5.58301 5.42188V7.3877H6.08301V5.42188H5.58301ZM5.58301 7.3877C5.58301 7.38155 5.58667 7.40939 5.52195 7.4741C5.45794 7.53811 5.3487 7.61557 5.18056 7.703L5.41124 8.14661C5.60117 8.04784 5.76048 7.94268 5.87551 7.82766C5.98983 7.71333 6.08301 7.56572 6.08301 7.3877H5.58301ZM5.41039 7.70256C5.1711 7.57929 4.94544 7.49219 4.75879 7.49219V7.99219C4.81563 7.99219 4.94804 8.02683 5.18141 8.14705L5.41039 7.70256ZM5.00845 7.7552C5.12306 5.55608 5.18066 3.94282 5.18066 2.91895H4.68066C4.68066 3.92893 4.62368 5.53116 4.50913 7.72918L5.00845 7.7552ZM4.93066 2.66895C4.67017 2.66895 4.46151 2.65408 4.30118 2.62683C4.13666 2.59886 4.04332 2.56108 3.99702 2.5296L3.71587 2.94306C3.84861 3.03332 4.02382 3.08685 4.21738 3.11976C4.41511 3.15337 4.65405 3.16895 4.93066 3.16895V2.66895ZM3.81241 2.49024C3.11586 2.61488 2.21195 2.85869 1.10444 3.21827L1.25884 3.69384C2.35706 3.33727 3.23636 3.10126 3.90048 2.98242L3.81241 2.49024ZM1.29893 3.23528C1.06322 3.11005 0.838198 3.02344 0.644531 3.02344V3.52344C0.708677 3.52344 0.841729 3.55857 1.06435 3.67683L1.29893 3.23528ZM0.894531 3.27344V2.38184H0.394531V3.27344H0.894531ZM0.696558 2.62636C2.37993 2.2682 3.54904 2.09473 4.22168 2.09473V1.59473C3.49067 1.59473 2.27501 1.77933 0.592504 2.13731L0.696558 2.62636ZM14.1817 11.0659L14.3643 11.4311L14.8115 11.2075L14.6289 10.8423L14.1817 11.0659ZM14.3379 11.3193C14.3379 11.3588 14.3221 11.4207 14.2015 11.5027C14.0755 11.5884 13.865 11.6727 13.5497 11.7442C12.9225 11.8865 11.9622 11.9609 10.6562 11.9609V12.4609C11.9714 12.4609 12.977 12.3868 13.6603 12.2318C14.0002 12.1548 14.2812 12.0533 14.4828 11.9161C14.6898 11.7752 14.8379 11.5771 14.8379 11.3193H14.3379ZM10.4495 12.0704L10.0843 12.6075L10.4977 12.8886L10.863 12.3515L10.4495 12.0704ZM10.0414 12.7619C10.1024 13.8606 10.1781 14.7436 10.2689 15.4083C10.3143 15.7407 10.364 16.022 10.4185 16.2503C10.4721 16.4749 10.5337 16.6632 10.6091 16.8002L11.0472 16.5592C11.0044 16.4813 10.955 16.3447 10.9048 16.1342C10.8554 15.9275 10.8084 15.6636 10.7643 15.3407C10.6761 14.6949 10.6013 13.8269 10.5406 12.7342L10.0414 12.7619ZM10.6045 16.5679L10.25 17.2769L10.6972 17.5005L11.0517 16.7915L10.6045 16.5679ZM10.4736 17.6387H12.7939V17.1387H10.4736V17.6387ZM12.7939 17.6387C12.8188 17.6387 12.8687 17.6472 12.9421 17.7483C13.0187 17.854 13.0981 18.0327 13.17 18.304C13.313 18.8437 13.4072 19.6723 13.4464 20.8026L13.9461 20.7853C13.9066 19.6454 13.8111 18.7714 13.6533 18.176C13.5748 17.8797 13.476 17.6328 13.3468 17.4547C13.2143 17.2721 13.0304 17.1387 12.7939 17.1387V17.6387ZM13.4931 20.6483C13.4814 20.6647 13.4464 20.7006 13.3657 20.7521C13.2881 20.8016 13.1816 20.8572 13.0426 20.9182C12.7648 21.04 12.3771 21.1748 11.875 21.3221C10.8718 21.6163 9.4369 21.9531 7.56655 22.3321L7.66587 22.8222C9.54096 22.4421 10.9921 22.1021 12.0157 21.8019C12.5269 21.652 12.9376 21.5102 13.2435 21.376C13.3964 21.309 13.528 21.2417 13.6348 21.1735C13.7385 21.1073 13.8342 21.0307 13.8995 20.9396L13.4931 20.6483ZM7.36621 22.5771C7.36621 22.5653 7.3697 22.5436 7.38416 22.5212C7.39784 22.5001 7.41241 22.4922 7.4131 22.4919C7.41327 22.4918 7.41056 22.4932 7.40391 22.4952C7.39728 22.4973 7.38767 22.4997 7.3745 22.502C7.34772 22.5066 7.31075 22.5098 7.26172 22.5098V23.0098C7.39323 23.0098 7.52982 22.9942 7.64208 22.9364C7.70184 22.9056 7.76072 22.8597 7.80395 22.7929C7.84795 22.7249 7.86621 22.6498 7.86621 22.5771H7.36621ZM7.01172 22.7598V22.9316H7.51172V22.7598H7.01172ZM7.01721 22.9837C7.16078 23.6574 7.37521 24.1926 7.67747 24.5639C7.98776 24.9449 8.38719 25.1475 8.8623 25.1475V24.6475C8.54966 24.6475 8.28844 24.5223 8.0652 24.2482C7.83394 23.9641 7.64196 23.5164 7.50623 22.8795L7.01721 22.9837ZM8.8623 25.1475H10.8281V24.6475H8.8623V25.1475ZM10.8281 25.1475C12.0469 25.1475 13.052 25.1026 13.8404 25.0115C14.6211 24.9214 15.2166 24.7833 15.5969 24.5811L15.3621 24.1396C15.0692 24.2954 14.5529 24.4259 13.7831 24.5148C13.0211 24.6028 12.037 24.6475 10.8281 24.6475V25.1475ZM15.2708 24.4981L15.6253 25.0352L16.0426 24.7598L15.6881 24.2226L15.2708 24.4981ZM15.5931 24.8307C15.5227 25.0847 15.4055 25.254 15.2535 25.3628C15.0995 25.473 14.8845 25.5391 14.5879 25.5391V26.0391C14.9573 26.0391 15.283 25.9565 15.5444 25.7695C15.8077 25.5811 15.9806 25.3047 16.0749 24.9642L15.5931 24.8307ZM14.5879 25.5391C14.5619 25.5391 14.5889 25.5327 14.6223 25.564C14.6585 25.5981 14.6553 25.6319 14.6553 25.6172H14.1553C14.1553 25.717 14.1825 25.8368 14.2796 25.9281C14.3738 26.0168 14.4921 26.0391 14.5879 26.0391V25.5391ZM14.3616 25.371C13.0475 25.6042 11.5158 25.7217 9.76465 25.7217V26.2217C11.5369 26.2217 13.0989 26.1029 14.4489 25.8633L14.3616 25.371ZM9.76465 25.7217C8.76523 25.7217 8.05433 25.5879 7.6017 25.348C7.3791 25.23 7.22527 25.0897 7.12624 24.9322C7.02776 24.7756 6.97461 24.588 6.97461 24.3604H6.47461C6.47461 24.6698 6.54812 24.9522 6.70298 25.1984C6.85729 25.4438 7.08347 25.6392 7.36754 25.7897C7.92826 26.0869 8.73737 26.2217 9.76465 26.2217V25.7217ZM6.74724 24.1114C6.77988 24.1143 6.72823 24.1323 6.64267 23.9338C6.56591 23.7557 6.49452 23.4746 6.43472 23.0771L5.94028 23.1514C6.00222 23.5632 6.08123 23.8944 6.18351 24.1317C6.27698 24.3485 6.43301 24.5849 6.70198 24.6093L6.74724 24.1114ZM6.4375 23.1143V22.5771H5.9375V23.1143H6.4375ZM6.4375 22.5771C6.4375 22.6145 6.41783 22.6124 6.46317 22.5664C6.50527 22.5237 6.58069 22.467 6.70156 22.3985C6.94185 22.2623 7.31536 22.1048 7.83174 21.9273C8.86123 21.5736 10.4141 21.1551 12.4959 20.6722L12.383 20.1852C10.2968 20.6691 8.72374 21.0921 7.66924 21.4545C7.14362 21.6351 6.73564 21.8044 6.45494 21.9636C6.31531 22.0427 6.19535 22.1259 6.10721 22.2153C6.02229 22.3014 5.9375 22.4234 5.9375 22.5771H6.4375ZM12.6602 20.546C12.7855 20.3103 12.8721 20.0853 12.8721 19.8916H12.3721C12.3721 19.9557 12.3369 20.0888 12.2187 20.3114L12.6602 20.546ZM12.8721 19.8916C12.8721 19.3358 12.7407 18.768 12.4855 18.19L12.0281 18.392C12.2599 18.9169 12.3721 19.4161 12.3721 19.8916H12.8721ZM12.206 18.0462C11.0954 18.2767 9.09587 18.3955 6.1875 18.3955V18.8955C9.09423 18.8955 11.1409 18.7779 12.3076 18.5358L12.206 18.0462ZM6.4375 18.6455C6.4375 18.5461 6.41248 18.4256 6.31862 18.3318C6.22477 18.2379 6.10429 18.2129 6.00488 18.2129V18.7129C6.02722 18.7129 5.99805 18.7183 5.96507 18.6853C5.93209 18.6523 5.9375 18.6232 5.9375 18.6455H6.4375ZM6.25187 18.5016C6.26026 18.448 6.29811 18.3721 6.43702 18.2838C6.57803 18.1943 6.79818 18.1094 7.11291 18.038C7.74055 17.8957 8.67789 17.8213 9.93652 17.8213V17.3213C8.66716 17.3213 7.68523 17.3955 7.00233 17.5504C6.66178 17.6276 6.37884 17.7285 6.16893 17.8618C5.95693 17.9965 5.79606 18.1805 5.75789 18.4242L6.25187 18.5016ZM10.1865 17.5713V17.3887H9.68652V17.5713H10.1865ZM9.93652 17.1387C10.0097 17.1387 10.0552 17.175 10.0696 17.1887C10.0834 17.2019 10.0849 17.2087 10.0778 17.1955C10.064 17.1697 10.0425 17.1154 10.0164 17.0207C9.96509 16.835 9.90956 16.5459 9.85086 16.1465C9.73389 15.3508 9.60908 14.1514 9.47669 12.5449L8.97838 12.586C9.11097 14.1949 9.23681 15.4072 9.35617 16.2192C9.41563 16.6237 9.47469 16.9375 9.53441 17.1538C9.56374 17.26 9.59686 17.3564 9.63682 17.4312C9.65658 17.4681 9.6847 17.5127 9.72494 17.551C9.76573 17.5898 9.83736 17.6387 9.93652 17.6387V17.1387ZM9.21129 12.316C7.3429 12.4377 5.97833 12.498 5.11328 12.498V12.998C5.99563 12.998 7.37389 12.9367 9.24379 12.8149L9.21129 12.316ZM5.11328 12.498C4.65822 12.498 3.96656 12.3863 3.02548 12.151L2.90421 12.6361C3.85376 12.8735 4.59438 12.998 5.11328 12.998V12.498ZM3.21484 12.3936V11.8564H2.71484V12.3936H3.21484ZM3.18845 11.9682L3.37107 11.603L2.92385 11.3794L2.74124 11.7446L3.18845 11.9682ZM3.12927 11.7405L5.6322 11.9232L5.66858 11.4245L3.16565 11.2419L3.12927 11.7405ZM5.67002 11.9231C8.67437 11.6864 11.5966 11.3888 14.4366 11.0303L14.374 10.5342C11.5421 10.8918 8.62771 11.1886 5.63076 11.4246L5.67002 11.9231ZM14.1553 10.7822V10.9541H14.6553V10.7822H14.1553ZM24.373 1.30762L24.5798 1.16704L24.4865 1.02985L24.3238 1.06251L24.373 1.30762ZM24.7383 1.84473H24.9883V1.76778L24.945 1.70415L24.7383 1.84473ZM24.7383 2.55371L24.9829 2.60537L24.9883 2.57982V2.55371H24.7383ZM24.373 4.51953H24.123V4.71742L24.3156 4.76285L24.373 4.51953ZM27.5957 5.77637L27.8295 5.86492L27.8604 5.7833L27.8338 5.70017L27.5957 5.77637ZM26.876 6.48535L26.7157 6.67721L26.7853 6.73535H26.876V6.48535ZM23.8467 5.77637V5.52637H23.5967V5.77637H23.8467ZM23.3096 6.85059V7.10059H23.3439L23.377 7.09133L23.3096 6.85059ZM22.5898 6.31348L22.3543 6.22966L22.3398 6.27032V6.31348H22.5898ZM23.6641 2.73633H23.9141V2.67572L23.8863 2.62184L23.6641 2.73633ZM23.4814 2.38184L23.7037 2.26735L23.6193 2.1035L23.4378 2.13568L23.4814 2.38184ZM20.4521 3.62793V3.87793H20.7021V3.62793H20.4521ZM19.7324 4.51953L19.524 4.38144L19.4824 4.44422V4.51953H19.7324ZM19.7324 4.70215H19.4824V4.83231L19.5891 4.90696L19.7324 4.70215ZM21.3438 6.48535L21.4556 6.70896L21.5938 6.63986V6.48535H21.3438ZM20.9785 6.66797V6.91797H21.0375L21.0903 6.89158L20.9785 6.66797ZM18.8408 5.59375L18.971 5.3803L18.762 5.25289L18.6302 5.45908L18.8408 5.59375ZM17.584 7.55957V7.80957H17.7209L17.7946 7.69424L17.584 7.55957ZM16.875 7.02246H16.625V7.08358L16.6532 7.1378L16.875 7.02246ZM19.5498 2.91895L19.7537 3.06359L19.7998 2.99862V2.91895H19.5498ZM19.5498 2.73633H19.7998V2.48633H19.5498V2.73633ZM17.2295 2.91895L17.1654 3.1606L17.4795 3.24384V2.91895H17.2295ZM16.3379 2.0166L16.3119 1.76795L16.0879 1.79135V2.0166H16.3379ZM19.7324 1.66211L19.7788 1.41645L19.7429 1.40966L19.7065 1.41346L19.7324 1.66211ZM21.6982 1.84473V2.09473H21.7231L21.7475 2.08983L21.6982 1.84473ZM28.6699 9.34277L28.9131 9.2847L28.8658 9.08663L28.6622 9.09289L28.6699 9.34277ZM28.8418 10.0625L28.9795 10.2712L29.1256 10.1747L29.085 10.0044L28.8418 10.0625ZM28.3047 10.417V10.667H28.3797L28.4424 10.6256L28.3047 10.417ZM23.6641 10.417V10.167H23.6504L23.6367 10.1685L23.6641 10.417ZM22.5898 13.9941H22.3398V14.0692L22.3812 14.1319L22.5898 13.9941ZM22.9443 14.5312L22.7357 14.669L22.8231 14.8015L22.9803 14.7787L22.9443 14.5312ZM24.2012 14.3486V14.0986H24.1831L24.1652 14.1012L24.2012 14.3486ZM27.4131 16.1318L27.6592 16.1756L27.6652 16.1419L27.6619 16.1079L27.4131 16.1318ZM27.0586 18.6348V18.3848H26.6541L26.835 18.7466L27.0586 18.6348ZM27.2412 19H27.4912V18.941L27.4648 18.8882L27.2412 19ZM26.3389 15.6055L26.5885 15.6185L26.5958 15.4795L26.4814 15.4001L26.3389 15.6055ZM25.8125 15.2402L25.955 15.0348L25.8822 14.9843L25.7938 14.9909L25.8125 15.2402ZM18.6582 15.7773L18.4333 15.8864L18.5074 16.0394L18.6769 16.0266L18.6582 15.7773ZM18.4863 15.4229L18.2544 15.3294L18.213 15.4322L18.2614 15.5319L18.4863 15.4229ZM21.6982 12.0283L21.948 12.0404L21.9498 12.0026L21.9403 11.966L21.6982 12.0283ZM21.5156 10.7715H21.7656V10.5215H21.5156V10.7715ZM17.0576 11.1367L16.9702 11.3709L17.0257 11.3917L17.0846 11.3853L17.0576 11.1367ZM16.875 10.0625V9.8125H16.8139L16.7597 9.8407L16.875 10.0625ZM17.584 10.0625V10.3125H17.597L17.6099 10.3111L17.584 10.0625ZM24.1663 1.44819L24.5315 1.9853L24.945 1.70415L24.5798 1.16704L24.1663 1.44819ZM24.4883 1.84473V2.55371H24.9883V1.84473H24.4883ZM24.4937 2.50206C24.3718 3.07929 24.28 3.53365 24.2186 3.86425C24.1594 4.18248 24.123 4.41229 24.123 4.51953H24.623C24.623 4.46922 24.6475 4.29261 24.7101 3.95558C24.7705 3.6309 24.8613 3.18113 24.9829 2.60537L24.4937 2.50206ZM24.3156 4.76285C25.3287 5.00186 26.0924 5.2234 26.6133 5.42652C26.8744 5.52834 27.065 5.62197 27.1931 5.70566C27.2568 5.74731 27.2995 5.78295 27.3265 5.81139C27.3539 5.84028 27.3582 5.85436 27.3576 5.85256L27.8338 5.70017C27.7778 5.52502 27.6262 5.39144 27.4666 5.28713C27.2975 5.17657 27.071 5.06834 26.7949 4.96069C26.2415 4.74486 25.4512 4.51702 24.4305 4.27621L24.3156 4.76285ZM27.3619 5.68781C27.2758 5.91515 27.1963 6.06678 27.1279 6.15714C27.0549 6.25352 27.0301 6.23535 27.0586 6.23535V6.73535C27.2661 6.73535 27.4204 6.59902 27.5264 6.45907C27.637 6.3131 27.7366 6.11024 27.8295 5.86492L27.3619 5.68781ZM27.0586 6.23535H26.876V6.73535H27.0586V6.23535ZM27.0363 6.2935C26.3987 5.76086 25.3105 5.52637 23.8467 5.52637V6.02637C25.2904 6.02637 26.2217 6.26454 26.7157 6.67721L27.0363 6.2935ZM23.5967 5.77637C23.5967 6.06444 23.5541 6.26441 23.4888 6.39503C23.4281 6.51641 23.3476 6.58031 23.2422 6.60985L23.377 7.09133C23.6296 7.0206 23.8177 6.85534 23.936 6.61864C24.0497 6.39119 24.0967 6.10418 24.0967 5.77637H23.5967ZM23.3096 6.60059H22.9443V7.10059H23.3096V6.60059ZM22.9443 6.60059C22.917 6.60059 22.9053 6.59554 22.9019 6.59386C22.8996 6.59268 22.8947 6.59002 22.8871 6.5786C22.8676 6.54902 22.8398 6.47295 22.8398 6.31348H22.3398C22.3398 6.51208 22.3712 6.70456 22.4698 6.85402C22.5805 7.02167 22.7523 7.10059 22.9443 7.10059V6.60059ZM22.8254 6.39729C23.184 5.38952 23.4542 4.58384 23.6349 3.98182C23.7253 3.68094 23.7941 3.42825 23.8406 3.22514C23.8859 3.02723 23.9141 2.85952 23.9141 2.73633H23.4141C23.4141 2.79934 23.3975 2.92032 23.3532 3.11361C23.3102 3.30169 23.2448 3.54269 23.1561 3.83801C22.9788 4.42836 22.7118 5.22506 22.3543 6.22966L22.8254 6.39729ZM23.8863 2.62184L23.7037 2.26735L23.2592 2.49633L23.4418 2.85082L23.8863 2.62184ZM23.4378 2.13568C22.4229 2.31562 21.6445 2.51266 21.1144 2.73071C20.8502 2.83936 20.6322 2.95938 20.4764 3.09645C20.3197 3.23426 20.2021 3.41163 20.2021 3.62793H20.7021C20.7021 3.6079 20.7108 3.5561 20.8066 3.47191C20.9032 3.38698 21.0638 3.29215 21.3046 3.19312C21.7843 2.9958 22.5205 2.80612 23.5251 2.628L23.4378 2.13568ZM20.4521 3.37793C20.3751 3.37793 20.3153 3.40884 20.2845 3.42722C20.2492 3.44832 20.2174 3.47426 20.1904 3.49895C20.1359 3.54863 20.0763 3.61565 20.0132 3.6938C19.8858 3.85162 19.7223 4.08226 19.524 4.38144L19.9408 4.65763C20.1365 4.3624 20.2898 4.14724 20.4023 4.00786C20.4592 3.93741 20.5003 3.89298 20.5273 3.86836C20.541 3.8559 20.5451 3.85398 20.5409 3.85651C20.5384 3.85799 20.5304 3.86259 20.5175 3.86714C20.5049 3.8716 20.4822 3.87793 20.4521 3.87793V3.37793ZM19.4824 4.51953V4.70215H19.9824V4.51953H19.4824ZM19.5891 4.90696C20.1192 5.27804 20.5049 5.60224 20.7554 5.87953C21.0134 6.16497 21.0938 6.36316 21.0938 6.48535H21.5938C21.5938 6.1707 21.4056 5.85326 21.1264 5.5443C20.8399 5.22718 20.4199 4.87821 19.8758 4.49734L19.5891 4.90696ZM21.2319 6.26174L20.8667 6.44436L21.0903 6.89158L21.4556 6.70896L21.2319 6.26174ZM20.9785 6.41797C20.9629 6.41797 20.9065 6.40944 20.791 6.3665C20.6825 6.32616 20.5423 6.26342 20.3684 6.17603C20.021 6.00148 19.5559 5.73696 18.971 5.3803L18.7107 5.8072C19.3002 6.16668 19.7787 6.43928 20.1439 6.6228C20.3262 6.71445 20.4845 6.78598 20.6168 6.83516C20.7421 6.88174 20.8688 6.91797 20.9785 6.91797V6.41797ZM18.6302 5.45908L17.3734 7.4249L17.7946 7.69424L19.0515 5.72842L18.6302 5.45908ZM17.584 7.30957H17.4121V7.80957H17.584V7.30957ZM17.4121 7.30957C17.4183 7.30957 17.3904 7.31323 17.3257 7.24852C17.2617 7.18451 17.1842 7.07526 17.0968 6.90712L16.6532 7.1378C16.752 7.32773 16.8571 7.48704 16.9721 7.60207C17.0865 7.71639 17.2341 7.80957 17.4121 7.80957V7.30957ZM17.125 7.02246C17.125 7.05322 17.1169 7.05167 17.1458 6.98587C17.1689 6.93299 17.2063 6.85953 17.2602 6.7634C17.3676 6.57186 17.5313 6.30692 17.7531 5.96659C18.1962 5.28685 18.8627 4.31965 19.7537 3.06359L19.3459 2.7743C18.4537 4.03191 17.7828 5.00547 17.3343 5.69356C17.1103 6.03716 16.9396 6.3129 16.8241 6.51883C16.7666 6.62143 16.7204 6.71089 16.6878 6.78512C16.6609 6.84645 16.625 6.9362 16.625 7.02246H17.125ZM19.7998 2.91895V2.73633H19.2998V2.91895H19.7998ZM19.5498 2.48633H17.4121V2.98633H19.5498V2.48633ZM17.4121 2.48633C17.3127 2.48633 17.1922 2.51135 17.0984 2.60521C17.0045 2.69906 16.9795 2.81954 16.9795 2.91895H17.4795C17.4795 2.89661 17.4849 2.92578 17.4519 2.95876C17.4189 2.99174 17.3898 2.98633 17.4121 2.98633V2.48633ZM17.2935 2.67729C17.0045 2.60067 16.8083 2.52375 16.6898 2.45236C16.5608 2.37462 16.5879 2.34483 16.5879 2.38184H16.0879C16.0879 2.61936 16.2636 2.77935 16.4318 2.88065C16.6105 2.98829 16.8601 3.07967 17.1654 3.1606L17.2935 2.67729ZM16.5879 2.38184V2.0166H16.0879V2.38184H16.5879ZM16.3639 2.26525L19.7584 1.91076L19.7065 1.41346L16.3119 1.76795L16.3639 2.26525ZM19.686 1.90777C20.3461 2.03244 21.0169 2.09473 21.6982 2.09473V1.59473C21.0476 1.59473 20.4078 1.53526 19.7788 1.41645L19.686 1.90777ZM21.7475 2.08983L24.4223 1.55272L24.3238 1.06251L21.649 1.59962L21.7475 2.08983ZM28.4268 9.40084L28.5986 10.1206L29.085 10.0044L28.9131 9.2847L28.4268 9.40084ZM28.7041 9.85385L28.167 10.2083L28.4424 10.6256L28.9795 10.2712L28.7041 9.85385ZM28.3047 10.167H23.6641V10.667H28.3047V10.167ZM23.6367 10.1685C23.2689 10.209 22.9653 10.2774 22.7466 10.3867C22.5246 10.4977 22.3398 10.6807 22.3398 10.9541H22.8398C22.8398 10.9482 22.8341 10.902 22.9702 10.834C23.1095 10.7643 23.3431 10.7038 23.6914 10.6655L23.6367 10.1685ZM22.3398 10.9541V13.9941H22.8398V10.9541H22.3398ZM22.3812 14.1319L22.7357 14.669L23.153 14.3935L22.7985 13.8564L22.3812 14.1319ZM22.9803 14.7787L24.2371 14.596L24.1652 14.1012L22.9084 14.2838L22.9803 14.7787ZM24.2012 14.5986H26.876V14.0986H24.2012V14.5986ZM26.876 14.5986C26.8214 14.5986 26.8124 14.5622 26.8427 14.6049C26.8726 14.6469 26.9119 14.7284 26.9535 14.8665C27.0358 15.1396 27.1074 15.5657 27.1642 16.1558L27.6619 16.1079C27.6042 15.5092 27.529 15.0436 27.4322 14.7223C27.3843 14.5633 27.3261 14.4219 27.2503 14.3152C27.175 14.2093 27.0523 14.0986 26.876 14.0986V14.5986ZM27.1669 16.0881C27.051 16.7404 26.9912 17.2933 26.9912 17.7432H27.4912C27.4912 17.3336 27.546 16.8123 27.6592 16.1756L27.1669 16.0881ZM26.9912 17.7432V18.4629H27.4912V17.7432H26.9912ZM26.9912 18.4629C26.9912 18.4776 26.988 18.4438 27.0242 18.4097C27.0576 18.3784 27.0846 18.3848 27.0586 18.3848V18.8848C27.1544 18.8848 27.2727 18.8625 27.3669 18.7738C27.464 18.6825 27.4912 18.5627 27.4912 18.4629H26.9912ZM26.835 18.7466L27.0176 19.1118L27.4648 18.8882L27.2822 18.523L26.835 18.7466ZM26.9912 19V19.8916H27.4912V19H26.9912ZM26.9912 19.8916C26.9912 19.9299 26.9862 19.9531 26.9819 19.9655C26.9799 19.9714 26.9781 19.9747 26.9772 19.9762C26.9764 19.9775 26.9759 19.978 26.9758 19.9781C26.9757 19.9782 26.9749 19.9789 26.9727 19.9802C26.9705 19.9815 26.9661 19.9837 26.9588 19.9861C26.9437 19.991 26.9174 19.9961 26.876 19.9961V20.4961C27.0344 20.4961 27.1995 20.4577 27.324 20.3369C27.4499 20.2147 27.4912 20.0502 27.4912 19.8916H26.9912ZM26.876 19.9961H26.5215V20.4961H26.876V19.9961ZM26.5215 19.9961C26.4942 19.9961 26.4824 19.991 26.4791 19.9894C26.4768 19.9882 26.4718 19.9855 26.4643 19.9741C26.4447 19.9445 26.417 19.8685 26.417 19.709H25.917C25.917 19.9076 25.9483 20.1001 26.047 20.2495C26.1576 20.4172 26.3294 20.4961 26.5215 20.4961V19.9961ZM26.417 19.709C26.417 19.1727 26.4738 17.8124 26.5885 15.6185L26.0892 15.5924C25.9748 17.7813 25.917 19.1567 25.917 19.709H26.417ZM26.4814 15.4001L25.955 15.0348L25.67 15.4456L26.1963 15.8109L26.4814 15.4001ZM25.7938 14.9909L18.6395 15.528L18.6769 16.0266L25.8312 15.4895L25.7938 14.9909ZM18.8832 15.6683L18.7113 15.3138L18.2614 15.5319L18.4333 15.8864L18.8832 15.6683ZM18.7182 15.5163C18.7958 15.3238 18.9125 15.1893 19.0679 15.0995C19.2271 15.0076 19.4437 14.9531 19.7324 14.9531V14.4531C19.3838 14.4531 19.074 14.5186 18.8178 14.6666C18.5579 14.8167 18.3703 15.042 18.2544 15.3294L18.7182 15.5163ZM19.7324 14.9531H21.1611V14.4531H19.7324V14.9531ZM21.1611 14.9531C21.383 14.9531 21.508 14.773 21.5708 14.6488C21.6426 14.5071 21.6984 14.3137 21.7446 14.0836C21.8379 13.6189 21.9048 12.935 21.948 12.0404L21.4485 12.0163C21.4057 12.9049 21.3401 13.5584 21.2544 13.9852C21.2111 14.2009 21.1658 14.3419 21.1247 14.4231C21.0748 14.5218 21.0753 14.4531 21.1611 14.4531V14.9531ZM21.9403 11.966C21.8222 11.5073 21.7656 11.11 21.7656 10.7715H21.2656C21.2656 11.1634 21.3308 11.604 21.4561 12.0907L21.9403 11.966ZM21.5156 10.5215C20.7693 10.5215 19.2696 10.645 17.0306 10.8882L17.0846 11.3853C19.3287 11.1415 20.801 11.0215 21.5156 11.0215V10.5215ZM17.145 10.9025C16.9139 10.8163 16.7595 10.7366 16.6673 10.6678C16.5685 10.5941 16.5879 10.5694 16.5879 10.5996H16.0879C16.0879 10.8088 16.2272 10.9632 16.3683 11.0685C16.516 11.1788 16.7215 11.2781 16.9702 11.3709L17.145 10.9025ZM16.5879 10.5996C16.5879 10.6058 16.5842 10.5779 16.6489 10.5132C16.713 10.4492 16.8222 10.3717 16.9903 10.2843L16.7597 9.8407C16.5697 9.93946 16.4104 10.0446 16.2954 10.1596C16.1811 10.274 16.0879 10.4216 16.0879 10.5996H16.5879ZM16.875 10.3125H17.584V9.8125H16.875V10.3125ZM17.6099 10.3111C21.0334 9.95379 24.7225 9.71424 28.6776 9.59266L28.6622 9.09289C24.6967 9.2148 20.9953 9.45506 17.558 9.81385L17.6099 10.3111ZM33.0947 3.98242L33.3015 3.84184L33.1754 3.65647L32.9774 3.76164L33.0947 3.98242ZM33.46 4.51953H33.71V4.44258L33.6667 4.37895L33.46 4.51953ZM35.7803 7.02246L36.0052 6.91339L35.9278 6.7536L35.7514 6.77414L35.7803 7.02246ZM35.9521 7.37695H36.2021V7.31954L36.1771 7.26788L35.9521 7.37695ZM35.4258 8.2793V8.5293H35.488L35.543 8.50013L35.4258 8.2793ZM30.957 8.2793V8.0293H30.94L30.9232 8.0316L30.957 8.2793ZM29.7002 8.45117L29.4915 8.58888L29.5782 8.72018L29.7341 8.69887L29.7002 8.45117ZM29.3457 7.91406H29.0957V7.98913L29.1371 8.05177L29.3457 7.91406ZM32.3857 7.02246L32.4147 7.27078L32.6152 7.2474L32.6346 7.04645L32.3857 7.02246ZM32.5576 5.23926L32.8065 5.26324L32.8076 5.25128V5.23926H32.5576ZM32.5576 4.16504V3.91504H32.3076V4.16504H32.5576ZM41.6777 4.34766V4.09766H41.6218L41.5713 4.12145L41.6777 4.34766ZM42.2148 4.34766H42.4648V4.09766H42.2148V4.34766ZM42.2148 8.63379L42.4613 8.67569L42.4648 8.65489V8.63379H42.2148ZM42.0322 9.70801L41.7858 9.66611L41.7779 9.71229L41.7873 9.75817L42.0322 9.70801ZM42.3867 10.5996V10.8496H42.3961L42.4054 10.8489L42.3867 10.5996ZM45.4268 10.417L45.649 10.3025L45.5792 10.167H45.4268V10.417ZM45.6094 10.7715H45.8594V10.7109L45.8316 10.657L45.6094 10.7715ZM45.2441 11.6738L45.2079 11.9212L45.2259 11.9238H45.2441V11.6738ZM43.998 11.4912L44.0343 11.2439L44.0065 11.2398L43.9785 11.242L43.998 11.4912ZM42.3867 14.8857H42.6367V14.8716L42.6351 14.8576L42.3867 14.8857ZM41.4951 15.96L41.2865 16.0977L41.3985 16.2674L41.5875 16.1923L41.4951 15.96ZM41.1406 15.4229H40.8906V15.4979L40.932 15.5606L41.1406 15.4229ZM41.3125 12.0283L41.5613 12.0532L41.5625 12.0408V12.0283H41.3125ZM41.1406 9.1709L40.8912 9.15461L40.8901 9.17107L40.8912 9.18753L41.1406 9.1709ZM41.3125 4.51953L41.2061 4.29333L41.0625 4.36088V4.51953H41.3125ZM33.46 9.70801V9.45801H33.4343L33.4091 9.46323L33.46 9.70801ZM35.5977 12.0283H35.8477V12.002L35.8422 11.9762L35.5977 12.0283ZM33.6318 14.166V14.416H33.6542L33.6762 14.412L33.6318 14.166ZM32.3857 12.3828L32.143 12.3229L32.1323 12.3665L32.1373 12.411L32.3857 12.3828ZM33.2773 13.2744L33.1655 13.498L33.2579 13.5442L33.3559 13.5118L33.2773 13.2744ZM37.209 16.1318L37.3858 15.9551L37.255 15.8243L37.0917 15.9111L37.209 16.1318ZM37.918 19.709L37.67 19.7406L37.6978 19.959H37.918V19.709ZM38.2832 19.709V19.9592L38.2929 19.9588L38.2832 19.709ZM43.8154 19.5264L44.039 19.4146L43.9699 19.2764H43.8154V19.5264ZM43.998 19.8916H44.248V19.8326L44.2217 19.7798L43.998 19.8916ZM43.4609 20.6006V20.3504L43.4516 20.3508L43.4609 20.6006ZM37.5635 20.7832V20.5332H37.3135V20.7832H37.5635ZM37.5635 20.9658L37.494 21.206L37.8135 21.2984V20.9658H37.5635ZM36.6719 16.3145V16.0645H36.4219V16.3145H36.6719ZM32.888 4.123L33.2532 4.66011L33.6667 4.37895L33.3015 3.84184L32.888 4.123ZM33.21 4.51953V6.85059H33.71V4.51953H33.21ZM33.21 6.85059C33.21 7.0405 33.2862 7.21223 33.4519 7.32381C33.6 7.42356 33.7907 7.45508 33.9863 7.45508V6.95508C33.8311 6.95508 33.7585 6.92751 33.7312 6.9091C33.7208 6.90208 33.7182 6.89744 33.7169 6.89478C33.7151 6.89104 33.71 6.87863 33.71 6.85059H33.21ZM33.9863 7.45508C34.1555 7.45508 34.7738 7.39134 35.8092 7.27078L35.7514 6.77414C34.6956 6.89707 34.118 6.95508 33.9863 6.95508V7.45508ZM35.5553 7.13153L35.7272 7.48602L36.1771 7.26788L36.0052 6.91339L35.5553 7.13153ZM35.7021 7.37695V7.74219H36.2021V7.37695H35.7021ZM35.7021 7.74219C35.7021 7.74227 35.7021 7.74252 35.7021 7.74301C35.702 7.74352 35.7019 7.74441 35.7015 7.74575C35.7009 7.74841 35.6993 7.75332 35.6956 7.76063C35.6881 7.77579 35.6725 7.79932 35.642 7.83039C35.5796 7.89407 35.473 7.97123 35.3086 8.05846L35.543 8.50013C35.7295 8.40116 35.8861 8.29571 35.9991 8.18035C36.1117 8.06545 36.2021 7.91835 36.2021 7.74219H35.7021ZM35.4258 8.0293H30.957V8.5293H35.4258V8.0293ZM30.9232 8.0316L29.6663 8.20348L29.7341 8.69887L30.9909 8.52699L30.9232 8.0316ZM29.9088 8.31346L29.5544 7.77635L29.1371 8.05177L29.4915 8.58888L29.9088 8.31346ZM29.5957 7.91406C29.5957 7.95494 29.5666 7.93464 29.6715 7.86685C29.7682 7.80429 29.9313 7.73429 30.1761 7.6625C30.6619 7.52001 31.405 7.38852 32.4147 7.27078L32.3568 6.77414C31.3398 6.89273 30.5628 7.02801 30.0354 7.18271C29.7734 7.25953 29.5565 7.34573 29.4 7.44699C29.2514 7.54302 29.0957 7.69415 29.0957 7.91406H29.5957ZM32.6346 7.04645L32.8065 5.26324L32.3088 5.21527L32.1369 6.99848L32.6346 7.04645ZM32.8076 5.23926V4.16504H32.3076V5.23926H32.8076ZM32.5576 4.41504C32.7513 4.41504 32.9763 4.32842 33.212 4.2032L32.9774 3.76164C32.7548 3.87991 32.6218 3.91504 32.5576 3.91504V4.41504ZM41.6777 4.59766H42.2148V4.09766H41.6777V4.59766ZM41.9648 4.34766V8.63379H42.4648V4.34766H41.9648ZM41.9684 8.59189L41.7858 9.66611L42.2787 9.74991L42.4613 8.67569L41.9684 8.59189ZM41.7873 9.75817C41.849 10.0594 41.9125 10.2996 41.9798 10.4691C42.013 10.5525 42.0528 10.6335 42.1033 10.698C42.1494 10.757 42.2427 10.8496 42.3867 10.8496V10.3496C42.4734 10.3496 42.509 10.4051 42.4969 10.3897C42.4893 10.38 42.4704 10.3496 42.4445 10.2843C42.3937 10.1566 42.3372 9.951 42.2771 9.65784L41.7873 9.75817ZM42.4054 10.8489C44.0346 10.7269 45.0372 10.667 45.4268 10.667V10.167C45.0142 10.167 43.9901 10.2288 42.368 10.3503L42.4054 10.8489ZM45.2045 10.5315L45.3871 10.886L45.8316 10.657L45.649 10.3025L45.2045 10.5315ZM45.3594 10.7715V11.3086H45.8594V10.7715H45.3594ZM45.3594 11.3086C45.3594 11.3494 45.3542 11.3749 45.3494 11.3893C45.3471 11.3963 45.3449 11.4004 45.3436 11.4025C45.3424 11.4046 45.3416 11.4054 45.3413 11.4057C45.341 11.4061 45.3401 11.4069 45.3381 11.4081C45.336 11.4094 45.3318 11.4115 45.3249 11.4138C45.3104 11.4186 45.2849 11.4238 45.2441 11.4238V11.9238C45.4044 11.9238 45.5705 11.8836 45.6948 11.7593C45.8191 11.635 45.8594 11.4689 45.8594 11.3086H45.3594ZM45.2804 11.4265L44.0343 11.2439L43.9618 11.7386L45.2079 11.9212L45.2804 11.4265ZM43.9785 11.242C43.3794 11.2889 42.912 11.3585 42.5885 11.4559C42.4282 11.5042 42.2849 11.5646 42.1767 11.6454C42.0661 11.728 41.9648 11.8548 41.9648 12.0283H42.4648C42.4648 12.0694 42.4379 12.0744 42.4759 12.046C42.5163 12.0158 42.5959 11.9759 42.7327 11.9347C43.0037 11.8531 43.4279 11.7866 44.0176 11.7404L43.9785 11.242ZM41.9648 12.0283V12.3828H42.4648V12.0283H41.9648ZM41.9648 12.3828C41.9648 13.0547 42.0232 13.8992 42.1383 14.9139L42.6351 14.8576C42.5211 13.8527 42.4648 13.0286 42.4648 12.3828H41.9648ZM42.1367 14.8857C42.1367 15.0693 42.0816 15.2218 41.9714 15.3545C41.8577 15.4915 41.6749 15.6194 41.4028 15.7276L41.5875 16.1923C41.9097 16.0642 42.1727 15.8949 42.3562 15.6738C42.5433 15.4484 42.6367 15.182 42.6367 14.8857H42.1367ZM41.7038 15.8223L41.3493 15.2851L40.932 15.5606L41.2865 16.0977L41.7038 15.8223ZM41.3906 15.4229C41.3906 14.3142 41.4475 13.191 41.5613 12.0532L41.0637 12.0034C40.9484 13.1573 40.8906 14.2971 40.8906 15.4229H41.3906ZM41.5625 12.0283C41.5625 11.8312 41.5042 10.8661 41.3901 9.15427L40.8912 9.18753C41.0062 10.9132 41.0625 11.853 41.0625 12.0283H41.5625ZM41.3901 9.18719C41.5049 7.42875 41.5625 5.87267 41.5625 4.51953H41.0625C41.0625 5.8591 41.0055 7.40394 40.8912 9.15461L41.3901 9.18719ZM41.4189 4.74574L41.7842 4.57386L41.5713 4.12145L41.2061 4.29333L41.4189 4.74574ZM33.46 9.95801C33.9413 9.95801 34.3255 10.1245 34.6323 10.4575C34.9466 10.7987 35.1934 11.3303 35.3531 12.0804L35.8422 11.9762C35.6725 11.1794 35.3983 10.551 35 10.1187C34.5942 9.67821 34.0744 9.45801 33.46 9.45801V9.95801ZM35.3477 12.0283V12.3828H35.8477V12.0283H35.3477ZM35.3477 12.3828C35.3477 12.7946 35.2093 13.1119 34.9382 13.3578C34.6586 13.6114 34.2183 13.8062 33.5875 13.92L33.6762 14.412C34.3559 14.2895 34.8985 14.0689 35.2742 13.7281C35.6584 13.3796 35.8477 12.9235 35.8477 12.3828H35.3477ZM33.6318 13.916H33.46V14.416H33.6318V13.916ZM33.46 13.916C32.8322 13.916 32.4077 13.7872 32.1434 13.572C31.889 13.3648 31.7441 13.0453 31.7441 12.5654H31.2441C31.2441 13.1526 31.4269 13.6334 31.8277 13.9597C32.2187 14.2781 32.7772 14.416 33.46 14.416V13.916ZM31.7441 12.5654V11.4912H31.2441V12.5654H31.7441ZM31.7441 11.4912C31.7441 11.1005 31.8803 10.791 32.1536 10.5431C32.4354 10.2874 32.8785 10.0841 33.5108 9.95279L33.4091 9.46323C32.7309 9.60407 32.1911 9.834 31.8176 10.1727C31.4356 10.5192 31.2441 10.9652 31.2441 11.4912H31.7441ZM32.1373 12.411C32.189 12.8652 32.6 13.2153 33.1655 13.498L33.3891 13.0508C32.8375 12.775 32.6541 12.5306 32.6341 12.3546L32.1373 12.411ZM33.3559 13.5118C33.8387 13.352 34.218 13.1916 34.4812 13.0273C34.6129 12.9451 34.7265 12.8553 34.8095 12.7549C34.8935 12.6532 34.9561 12.5278 34.9561 12.3828H34.4561C34.4561 12.3774 34.4591 12.3939 34.424 12.4364C34.3879 12.4801 34.323 12.5366 34.2165 12.6031C34.0035 12.736 33.6685 12.8817 33.1988 13.0371L33.3559 13.5118ZM34.9561 12.3828V12.2109H34.4561V12.3828H34.9561ZM34.9561 12.2109C34.9561 11.7007 34.8464 11.2714 34.5835 10.9677C34.3147 10.6572 33.924 10.5215 33.46 10.5215V11.0215C33.8266 11.0215 34.059 11.1257 34.2055 11.295C34.358 11.4711 34.4561 11.7615 34.4561 12.2109H34.9561ZM33.46 10.5215H33.2773V11.0215H33.46V10.5215ZM33.2773 10.5215C32.9641 10.5215 32.7436 10.7733 32.5886 11.0533C32.4241 11.3506 32.2773 11.7786 32.143 12.3229L32.6285 12.4427C32.7592 11.9128 32.8935 11.5351 33.0261 11.2954C33.1684 11.0383 33.2612 11.0215 33.2773 11.0215V10.5215ZM37.0322 16.3086C37.0251 16.3015 37.0352 16.3096 37.0564 16.3558C37.0758 16.3977 37.0983 16.4575 37.1233 16.5382C37.1732 16.6994 37.2277 16.9253 37.286 17.2197C37.4025 17.8075 37.5306 18.6468 37.67 19.7406L38.166 19.6774C38.0261 18.5798 37.8963 17.7272 37.7765 17.1225C37.7167 16.8208 37.6583 16.5754 37.6008 16.3901C37.5722 16.2976 37.5423 16.2154 37.5106 16.1466C37.4808 16.082 37.4412 16.0105 37.3858 15.9551L37.0322 16.3086ZM37.918 19.959H38.2832V19.459H37.918V19.959ZM38.2929 19.9588C41.4253 19.8369 43.263 19.7764 43.8154 19.7764V19.2764C43.2507 19.2764 41.4002 19.3375 38.2735 19.4592L38.2929 19.9588ZM43.5918 19.6382L43.7744 20.0034L44.2217 19.7798L44.039 19.4146L43.5918 19.6382ZM43.748 19.8916V20.2461H44.248V19.8916H43.748ZM43.748 20.2461C43.748 20.2734 43.743 20.2852 43.7413 20.2885C43.7401 20.2908 43.7375 20.2958 43.7261 20.3033C43.6965 20.3228 43.6204 20.3506 43.4609 20.3506V20.8506C43.6595 20.8506 43.852 20.8193 44.0015 20.7206C44.1691 20.61 44.248 20.4382 44.248 20.2461H43.748ZM43.4516 20.3508C40.2052 20.4726 38.2451 20.5332 37.5635 20.5332V21.0332C38.2568 21.0332 40.2284 20.9721 43.4703 20.8504L43.4516 20.3508ZM37.3135 20.7832V20.9658H37.8135V20.7832H37.3135ZM37.6329 20.7257C37.3786 20.6521 37.2082 20.5325 37.0987 20.3781C36.9879 20.2218 36.9219 20.0055 36.9219 19.709H36.4219C36.4219 20.0785 36.5045 20.4046 36.6909 20.6674C36.8785 20.9319 37.154 21.1077 37.494 21.206L37.6329 20.7257ZM36.9219 19.709V16.3145H36.4219V19.709H36.9219ZM36.6719 16.5645C36.8655 16.5645 37.0906 16.4778 37.3263 16.3526L37.0917 15.9111C36.8691 16.0293 36.736 16.0645 36.6719 16.0645V16.5645ZM56.0273 3.81055V3.56055H55.7773V3.81055H56.0273ZM56.5645 3.81055L56.8035 3.73749L56.7495 3.56055H56.5645V3.81055ZM56.9189 6.48535H56.6689V6.54437L56.6953 6.59716L56.9189 6.48535ZM57.1016 6.85059L56.878 6.96239L56.9638 7.134L57.1517 7.0955L57.1016 6.85059ZM57.9932 6.66797V6.41797H57.9678L57.943 6.42305L57.9932 6.66797ZM59.7764 7.37695H60.0264V7.30711L59.9902 7.24738L59.7764 7.37695ZM58.7129 9.52539L58.4999 9.39444L58.4629 9.45468V9.52539H58.7129ZM58.8848 9.70801L58.9973 9.48478L58.9442 9.45801H58.8848V9.70801ZM62.1074 10.5996H62.3574V10.3794L62.1389 10.3516L62.1074 10.5996ZM62.1074 11.3086L62.1689 11.5509L62.3574 11.5031V11.3086H62.1074ZM61.3877 11.4912V11.7412H61.4189L61.4492 11.7335L61.3877 11.4912ZM57.8105 10.417L57.892 10.1806L57.5605 10.0663V10.417H57.8105ZM55.3076 12.7373V12.9873H55.3966L55.4656 12.9311L55.3076 12.7373ZM54.5986 12.2109L54.4346 12.0223L54.3486 12.097V12.2109H54.5986ZM58.5303 8.09668L58.7468 8.22161L58.7803 8.16362V8.09668H58.5303ZM58.5303 7.55957H58.7803V7.30957H58.5303V7.55957ZM54.2441 8.63379V8.88379H54.2822L54.3185 8.87248L54.2441 8.63379ZM53.8789 7.74219V7.49219H53.6289V7.74219H53.8789ZM56.0273 6.31348L56.2765 6.33408L56.2773 6.3238V6.31348H56.0273ZM65.6738 6.13086H65.4238L65.4239 6.13619L65.6738 6.13086ZM66.3936 20.2461L66.6352 20.3101L66.7185 19.9961H66.3936V20.2461ZM65.3193 21.1377H65.0693V21.3877H65.3193V21.1377ZM65.1367 20.4287H64.8867V20.4966L64.921 20.5551L65.1367 20.4287ZM65.3193 20.2461V20.4961H65.5915L65.5684 20.2249L65.3193 20.2461ZM65.1367 18.0977H64.8867V18.1083L64.8876 18.1188L65.1367 18.0977ZM65.1367 16.1318H65.3867V15.8818H65.1367V16.1318ZM52.8154 17.3887L52.5932 17.5032L52.6737 17.6594L52.8479 17.6366L52.8154 17.3887ZM52.6328 17.0342H52.3828V17.0948L52.4106 17.1487L52.6328 17.0342ZM52.6328 16.6689L52.5998 16.4211L52.3828 16.45V16.6689H52.6328ZM57.1016 15.7773L57.1806 16.0145L57.2733 15.9836L57.3205 15.8981L57.1016 15.7773ZM57.2734 12.9199L57.0275 12.8752L57.0234 12.8974V12.9199H57.2734ZM58.1758 12.5654L58.4231 12.6017L58.4651 12.3154H58.1758V12.5654ZM57.9932 13.8115L57.7458 13.7753L57.7432 13.7933V13.8115H57.9932ZM58.7129 15.7773V16.0273H58.7326L58.7522 16.0242L58.7129 15.7773ZM64.4277 15.0684L64.5395 14.8448L64.4867 14.8184H64.4277V15.0684ZM64.9648 15.2402V15.4902H65.222L65.2147 15.2332L64.9648 15.2402ZM64.7822 5.94824L64.535 5.91079L64.5322 5.92941V5.94824H64.7822ZM56.0273 4.06055H56.5645V3.56055H56.0273V4.06055ZM56.3254 3.8836C56.5629 4.66104 56.6689 5.16026 56.6689 5.41113H57.1689C57.1689 5.07476 57.0386 4.50693 56.8035 3.73749L56.3254 3.8836ZM56.6689 5.41113V6.48535H57.1689V5.41113H56.6689ZM56.6953 6.59716L56.878 6.96239L57.3252 6.73878L57.1426 6.37355L56.6953 6.59716ZM57.1517 7.0955L58.0433 6.91288L57.943 6.42305L57.0514 6.60567L57.1517 7.0955ZM57.9932 6.91797H58.1758V6.41797H57.9932V6.91797ZM58.1758 6.91797C58.9088 6.91797 59.3388 7.13732 59.5626 7.50653L59.9902 7.24738C59.641 6.67128 59.004 6.41797 58.1758 6.41797V6.91797ZM59.5264 7.37695C59.5264 7.40298 59.5161 7.4674 59.4744 7.58447C59.4346 7.69628 59.3727 7.83842 59.2864 8.01263C59.1141 8.36078 58.8528 8.82066 58.4999 9.39444L58.9258 9.65634C59.282 9.07713 59.5524 8.60244 59.7346 8.23444C59.8256 8.05058 59.8966 7.88925 59.9454 7.7522C59.9923 7.62041 60.0264 7.49058 60.0264 7.37695H59.5264ZM58.4629 9.52539C58.4629 9.62115 58.4851 9.73948 58.5738 9.83369C58.6652 9.93076 58.7849 9.95801 58.8848 9.95801V9.45801C58.87 9.45801 58.9038 9.45482 58.9379 9.49101C58.9693 9.52436 58.9629 9.55137 58.9629 9.52539H58.4629ZM58.7722 9.93124C59.6573 10.3775 60.7611 10.6805 62.0759 10.8476L62.1389 10.3516C60.8613 10.1892 59.8167 9.89789 58.9973 9.48478L58.7722 9.93124ZM61.8574 10.5996V11.3086H62.3574V10.5996H61.8574ZM62.0459 11.0663L61.3262 11.2489L61.4492 11.7335L62.1689 11.5509L62.0459 11.0663ZM61.3877 11.2412C61.3436 11.2412 61.2375 11.2259 61.0489 11.1809C60.868 11.1377 60.6303 11.0721 60.3344 10.9832C59.7429 10.8056 58.9293 10.5383 57.892 10.1806L57.729 10.6533C58.7686 11.0118 59.5896 11.2816 60.1905 11.4621C60.4908 11.5523 60.7387 11.6209 60.9329 11.6672C61.1194 11.7118 61.2779 11.7412 61.3877 11.7412V11.2412ZM57.5605 10.417C57.5605 10.3642 57.5829 10.3445 57.5596 10.3816C57.5433 10.4076 57.5136 10.4474 57.4654 10.5027C57.3699 10.6126 57.2211 10.7622 57.0149 10.9534C56.6036 11.3346 55.9828 11.8642 55.1496 12.5436L55.4656 12.9311C56.3011 12.2498 56.9317 11.7122 57.3548 11.3201C57.5657 11.1245 57.7297 10.9608 57.8428 10.8308C57.8989 10.7662 57.9474 10.7043 57.9833 10.647C58.0122 10.601 58.0605 10.5163 58.0605 10.417H57.5605ZM55.3076 12.4873H54.9531V12.9873H55.3076V12.4873ZM54.9531 12.4873C54.9141 12.4873 54.8902 12.4823 54.8771 12.478C54.8708 12.4759 54.8673 12.474 54.8657 12.4731C54.8649 12.4726 54.8645 12.4723 54.8643 12.4721C54.8642 12.472 54.8641 12.472 54.8641 12.472C54.8641 12.4719 54.864 12.4719 54.864 12.4719C54.864 12.4719 54.864 12.4719 54.864 12.4719C54.864 12.4718 54.8639 12.4718 54.8638 12.4717C54.8637 12.4715 54.8633 12.471 54.8629 12.4702C54.8619 12.4686 54.8601 12.4651 54.858 12.4588C54.8536 12.4458 54.8486 12.4218 54.8486 12.3828H54.3486C54.3486 12.5395 54.388 12.703 54.5105 12.8255C54.633 12.948 54.7964 12.9873 54.9531 12.9873V12.4873ZM54.8486 12.3828V12.2109H54.3486V12.3828H54.8486ZM54.7627 12.3996C56.8447 10.5894 58.1862 9.19339 58.7468 8.22161L58.3137 7.97175C57.8001 8.86195 56.5205 10.2088 54.4346 12.0223L54.7627 12.3996ZM58.7803 8.09668V7.55957H58.2803V8.09668H58.7803ZM58.5303 7.30957C58.216 7.30957 57.6911 7.40715 56.979 7.58563C56.2582 7.76629 55.3213 8.03639 54.1698 8.3951L54.3185 8.87248C55.4658 8.51505 56.3927 8.24803 57.1006 8.07062C57.8172 7.89102 58.2859 7.80957 58.5303 7.80957V7.30957ZM54.2441 8.38379C54.2027 8.38379 54.1765 8.37867 54.1613 8.37377C54.154 8.37141 54.1496 8.36921 54.1474 8.3679C54.1452 8.36664 54.1445 8.36589 54.1443 8.36577C54.1442 8.36567 54.1438 8.36523 54.1429 8.36386C54.142 8.3624 54.1402 8.35913 54.1382 8.35318C54.1339 8.34081 54.1289 8.31764 54.1289 8.2793H53.6289C53.6289 8.43792 53.6702 8.60236 53.7961 8.72456C53.9206 8.84541 54.0857 8.88379 54.2441 8.88379V8.38379ZM54.1289 8.2793V7.74219H53.6289V8.2793H54.1289ZM53.8789 7.99219C54.5789 7.99219 55.1532 7.87009 55.5696 7.59318C55.9989 7.30766 56.2316 6.87682 56.2765 6.33408L55.7782 6.29287C55.7443 6.70261 55.5795 6.98612 55.2927 7.17684C54.993 7.37616 54.5324 7.49219 53.8789 7.49219V7.99219ZM56.2773 6.31348V3.81055H55.7773V6.31348H56.2773ZM65.1367 5.84375H65.3193V5.34375H65.1367V5.84375ZM65.3193 5.84375C65.3467 5.84375 65.3584 5.8488 65.3617 5.85047C65.3641 5.85165 65.369 5.85432 65.3766 5.86574C65.3961 5.89532 65.4238 5.97139 65.4238 6.13086H65.9238C65.9238 5.93226 65.8925 5.73977 65.7939 5.59032C65.6832 5.42267 65.5114 5.34375 65.3193 5.34375V5.84375ZM65.4239 6.13619C65.5242 10.8418 65.6343 14.3736 65.7545 16.73C65.8145 17.9074 65.8772 18.7956 65.943 19.3913C65.9757 19.6877 66.01 19.9199 66.047 20.0814C66.065 20.1601 66.0867 20.2357 66.1151 20.2966C66.129 20.3264 66.1509 20.367 66.1855 20.4037C66.22 20.4404 66.29 20.4961 66.3936 20.4961V19.9961C66.4797 19.9961 66.5322 20.0426 66.5495 20.0609C66.5668 20.0793 66.5715 20.0923 66.5682 20.0853C66.5623 20.0727 66.55 20.038 66.5344 19.9697C66.504 19.8372 66.4722 19.6282 66.44 19.3365C66.3759 18.7559 66.3137 17.8797 66.2538 16.7046C66.1341 14.3559 66.024 10.8301 65.9238 6.12553L65.4239 6.13619ZM66.1519 20.182C66.0753 20.4711 65.9984 20.6673 65.927 20.7858C65.8492 20.9148 65.8194 20.8877 65.8564 20.8877V21.3877C66.094 21.3877 66.254 21.212 66.3553 21.0438C66.4629 20.8651 66.5543 20.6155 66.6352 20.3101L66.1519 20.182ZM65.8564 20.8877H65.3193V21.3877H65.8564V20.8877ZM65.5693 21.1377C65.5693 20.8329 65.4988 20.5521 65.3524 20.3023L64.921 20.5551C65.0181 20.7207 65.0693 20.9126 65.0693 21.1377H65.5693ZM65.3867 20.4287C65.3867 20.4064 65.3921 20.4355 65.3591 20.4685C65.3262 20.5015 65.297 20.4961 65.3193 20.4961V19.9961C65.2199 19.9961 65.0994 20.0211 65.0056 20.115C64.9117 20.2088 64.8867 20.3293 64.8867 20.4287H65.3867ZM65.5684 20.2249L65.3858 18.0765L64.8876 18.1188L65.0702 20.2673L65.5684 20.2249ZM65.3867 18.0977V16.1318H64.8867V18.0977H65.3867ZM65.1367 15.8818H63.5361V16.3818H65.1367V15.8818ZM63.5361 15.8818C63.1418 15.8818 62.0425 15.9891 60.2629 16.1977C58.4744 16.4074 55.9809 16.7218 52.783 17.1408L52.8479 17.6366C56.0451 17.2177 58.536 16.9036 60.3211 16.6943C62.115 16.484 63.1785 16.3818 63.5361 16.3818V15.8818ZM53.0377 17.2742L52.8551 16.9197L52.4106 17.1487L52.5932 17.5032L53.0377 17.2742ZM52.8828 17.0342V16.6689H52.3828V17.0342H52.8828ZM52.6658 16.9168C54.6608 16.6512 56.1693 16.3516 57.1806 16.0145L57.0225 15.5402C56.0573 15.8619 54.5866 16.1567 52.5998 16.4211L52.6658 16.9168ZM57.3205 15.8981C57.4577 15.6493 57.5234 15.3705 57.5234 15.0684H57.0234C57.0234 15.2961 56.9745 15.49 56.8827 15.6566L57.3205 15.8981ZM57.5234 15.0684V12.9199H57.0234V15.0684H57.5234ZM57.5194 12.9646C57.5353 12.8772 57.5603 12.844 57.5711 12.8334C57.577 12.8278 57.5908 12.8154 57.6387 12.8154V12.3154C57.4861 12.3154 57.3387 12.3622 57.2229 12.4747C57.1119 12.5823 57.0545 12.7264 57.0275 12.8752L57.5194 12.9646ZM57.6387 12.8154H58.1758V12.3154H57.6387V12.8154ZM57.9284 12.5292L57.7458 13.7753L58.2405 13.8478L58.4231 12.6017L57.9284 12.5292ZM57.7432 13.8115C57.7432 14.475 57.803 15.0021 57.9383 15.3718C58.0066 15.5582 58.0998 15.7211 58.2297 15.8393C58.365 15.9625 58.5297 16.0273 58.7129 16.0273V15.5273C58.6562 15.5273 58.611 15.5103 58.5663 15.4696C58.5163 15.424 58.4596 15.3413 58.4079 15.1999C58.3033 14.9144 58.2432 14.4585 58.2432 13.8115H57.7432ZM58.7522 16.0242C61.73 15.5506 63.6137 15.3184 64.4277 15.3184V14.8184C63.566 14.8184 61.6398 15.0587 58.6736 15.5304L58.7522 16.0242ZM64.3159 15.292C64.552 15.41 64.7749 15.4902 64.9648 15.4902V14.9902C64.897 14.9902 64.7618 14.9559 64.5395 14.8448L64.3159 15.292ZM65.2147 15.2332C65.093 10.9221 65.0322 7.82787 65.0322 5.94824H64.5322C64.5322 7.83554 64.5932 10.9359 64.7149 15.2473L65.2147 15.2332ZM65.0294 5.98569C65.0426 5.89836 65.0663 5.86736 65.0745 5.85915C65.0775 5.85611 65.0886 5.84375 65.1367 5.84375V5.34375C64.9843 5.34375 64.8361 5.39047 64.7209 5.5056C64.611 5.61555 64.5576 5.7618 64.535 5.91079L65.0294 5.98569ZM76.2002 2.55371V2.30371H75.9502V2.55371H76.2002ZM76.9092 2.55371L77.1557 2.51231L77.1207 2.30371H76.9092V2.55371ZM77.6289 10.0625L77.8776 10.088L77.8789 10.0753V10.0625H77.6289ZM77.4463 11.8457L77.1976 11.8202L77.1928 11.8667L77.2052 11.9118L77.4463 11.8457ZM77.6289 13.457L77.7434 13.6793L77.8789 13.6095V13.457H77.6289ZM77.2744 13.6396V13.8896H77.335L77.3889 13.8619L77.2744 13.6396ZM76.5547 13.1025L76.306 13.0771L76.2961 13.1734L76.3537 13.2513L76.5547 13.1025ZM76.0176 3.09082L75.7968 2.97353L75.7528 3.05634L75.7741 3.14765L76.0176 3.09082ZM71.1943 2.73633V2.48633H71.0964L71.0245 2.55289L71.1943 2.73633ZM71.377 2.73633L71.4144 2.48915L71.3958 2.48633H71.377V2.73633ZM71.7314 3.27344L71.9264 3.42999L71.9814 3.36141V3.27344H71.7314ZM69.583 5.94824L69.3881 5.79169L69.333 5.86027V5.94824H69.583ZM69.583 6.48535H69.333V6.73535H69.583V6.48535ZM73.5146 8.63379L73.3873 8.84894L73.4462 8.88379H73.5146V8.63379ZM73.8799 9.87988L73.7533 10.0955L73.8119 10.1299H73.8799V9.87988ZM68.874 7.20508V6.95508H68.7244L68.6537 7.08689L68.874 7.20508ZM66.9082 8.81641L66.688 8.69812L66.6582 8.75352V8.81641H66.9082ZM70.6572 13.8115V13.5615H70.5822L70.5195 13.6029L70.6572 13.8115ZM71.9141 18.8174L71.6662 18.8504L71.6832 18.9778L71.7968 19.0382L71.9141 18.8174ZM79.5947 18.6348L79.6833 18.401L79.6319 18.3815L79.5772 18.3854L79.5947 18.6348ZM80.3037 19.3545L80.5124 19.4922L80.5537 19.4296V19.3545H80.3037ZM79.9492 19.8916L79.9211 20.14L80.0734 20.1573L80.1579 20.0293L79.9492 19.8916ZM78.3379 19.709L78.366 19.4606L78.352 19.459H78.3379V19.709ZM71.377 20.0635L71.1403 20.144L71.2013 20.3233L71.3904 20.3131L71.377 20.0635ZM70.1201 14.166L69.9824 13.9574L69.844 14.0487L69.8743 14.2117L70.1201 14.166ZM76.2002 2.80371H76.9092V2.30371H76.2002V2.80371ZM76.6626 2.59511C77.1409 5.44324 77.3789 7.93177 77.3789 10.0625H77.8789C77.8789 7.89636 77.6371 5.37903 77.1557 2.51231L76.6626 2.59511ZM77.3802 10.037L77.1976 11.8202L77.695 11.8712L77.8776 10.088L77.3802 10.037ZM77.2052 11.9118C77.3193 12.328 77.3789 12.8416 77.3789 13.457H77.8789C77.8789 12.8121 77.8168 12.2514 77.6874 11.7796L77.2052 11.9118ZM77.5144 13.2348L77.1599 13.4174L77.3889 13.8619L77.7434 13.6793L77.5144 13.2348ZM77.2744 13.3896H77.0918V13.8896H77.2744V13.3896ZM77.0918 13.3896C77.1418 13.3896 77.1633 13.4104 77.1433 13.3972C77.129 13.3878 77.1031 13.3672 77.0645 13.3286C76.9879 13.252 76.8854 13.1292 76.7556 12.9538L76.3537 13.2513C76.4889 13.434 76.6085 13.5797 76.7109 13.6821C76.7619 13.7331 76.8147 13.7796 76.8685 13.8149C76.9164 13.8465 76.9952 13.8896 77.0918 13.8896V13.3896ZM76.8034 13.128C76.9253 11.9373 76.9873 11.0318 76.9873 10.417H76.4873C76.4873 11.0053 76.4275 11.8902 76.306 13.0771L76.8034 13.128ZM76.9873 10.417V10.2451H76.4873V10.417H76.9873ZM76.9873 10.2451C76.9873 7.51693 76.7462 5.11237 76.261 3.03399L75.7741 3.14765C76.2486 5.17995 76.4873 7.54492 76.4873 10.2451H76.9873ZM76.2384 3.20811C76.3636 2.9724 76.4502 2.74738 76.4502 2.55371H75.9502C75.9502 2.61786 75.9151 2.75091 75.7968 2.97353L76.2384 3.20811ZM71.1943 2.98633H71.377V2.48633H71.1943V2.98633ZM71.3395 2.98351C71.4268 2.99674 71.4578 3.02038 71.466 3.02858C71.4691 3.03162 71.4814 3.04267 71.4814 3.09082H71.9814C71.9814 2.93845 71.9347 2.79016 71.8196 2.67503C71.7096 2.56507 71.5634 2.51172 71.4144 2.48915L71.3395 2.98351ZM71.4814 3.09082V3.27344H71.9814V3.09082H71.4814ZM71.5365 3.11688L69.3881 5.79169L69.7779 6.1048L71.9264 3.42999L71.5365 3.11688ZM69.333 5.94824V6.48535H69.833V5.94824H69.333ZM69.583 6.73535C69.5573 6.73535 69.5604 6.72977 69.6226 6.75304C69.6729 6.77191 69.7429 6.80216 69.8345 6.84554C70.0169 6.93201 70.2703 7.06362 70.5964 7.24184C71.2479 7.59784 72.1778 8.13322 73.3873 8.84894L73.642 8.41863C72.431 7.70206 71.4953 7.16323 70.8362 6.80308C70.5071 6.62322 70.2439 6.48628 70.0486 6.39372C69.9513 6.34758 69.867 6.31069 69.7979 6.2848C69.7405 6.26331 69.6589 6.23535 69.583 6.23535V6.73535ZM73.5146 8.88379C73.86 8.88379 74.0817 8.92828 74.2085 8.99167C74.2684 9.0216 74.2982 9.05138 74.3137 9.07459C74.3281 9.09623 74.3389 9.12513 74.3389 9.1709H74.8389C74.8389 9.03763 74.8048 8.90988 74.7297 8.79724C74.6557 8.68617 74.5513 8.60405 74.4321 8.54446C74.2008 8.42882 73.8855 8.38379 73.5146 8.38379V8.88379ZM74.3389 9.1709V9.34277H74.8389V9.1709H74.3389ZM74.3389 9.34277C74.3389 9.46175 74.3032 9.51408 74.2607 9.54633C74.205 9.58851 74.0918 9.62988 73.8799 9.62988V10.1299C74.1406 10.1299 74.3819 10.0817 74.5626 9.94488C74.7563 9.79809 74.8389 9.58187 74.8389 9.34277H74.3389ZM74.0065 9.66431C72.4874 8.77218 71.3077 8.10147 70.4689 7.65328C70.0499 7.4294 69.7127 7.25927 69.4592 7.14451C69.3327 7.08723 69.2233 7.04204 69.1329 7.01067C69.0509 6.98227 68.9572 6.95508 68.874 6.95508V7.45508C68.866 7.45508 68.8902 7.45575 68.969 7.48307C69.0393 7.50743 69.1333 7.54582 69.253 7.6C69.4918 7.70813 69.8179 7.87235 70.2333 8.09428C71.0631 8.53769 72.2359 9.20438 73.7533 10.0955L74.0065 9.66431ZM68.6537 7.08689C68.207 7.91958 67.8527 8.53831 67.5896 8.94695C67.4574 9.15224 67.3528 9.29743 67.2744 9.38874C67.2348 9.43492 67.208 9.45998 67.1933 9.47146C67.1696 9.48984 67.1981 9.45801 67.2627 9.45801V9.95801C67.3721 9.95801 67.4565 9.9001 67.5 9.86634C67.5523 9.82567 67.6039 9.77252 67.6538 9.71441C67.7545 9.59714 67.8736 9.42947 68.01 9.2176C68.284 8.79193 68.6459 8.15919 69.0943 7.32326L68.6537 7.08689ZM67.2627 9.45801C67.2244 9.45801 67.2012 9.45299 67.1888 9.44874C67.1829 9.44669 67.1796 9.4449 67.1781 9.444C67.1768 9.44315 67.1763 9.44269 67.1762 9.44258C67.1761 9.44246 67.1753 9.44169 67.1741 9.43953C67.1728 9.43728 67.1706 9.43293 67.1682 9.42561C67.1633 9.41045 67.1582 9.38419 67.1582 9.34277H66.6582C66.6582 9.50121 66.6966 9.6663 66.8174 9.79082C66.9396 9.91672 67.1041 9.95801 67.2627 9.95801V9.45801ZM67.1582 9.34277V8.81641H66.6582V9.34277H67.1582ZM67.1284 8.9347C68.6273 6.14398 70.0405 4.14542 71.3642 2.91977L71.0245 2.55289C69.6412 3.83375 68.1969 5.88857 66.688 8.69812L67.1284 8.9347ZM70.6572 14.0615C70.6119 14.0615 70.6007 14.0368 70.6257 14.0628C70.6502 14.0883 70.6872 14.1406 70.7326 14.2339C70.8227 14.4189 70.9209 14.7119 71.0244 15.1239C71.2303 15.944 71.4445 17.184 71.6662 18.8504L72.1619 18.7844C71.9396 17.1135 71.7224 15.8506 71.5093 15.0021C71.4033 14.5798 71.2951 14.247 71.1821 14.0149C71.1259 13.8996 71.0621 13.7954 70.9865 13.7167C70.9115 13.6384 70.801 13.5615 70.6572 13.5615V14.0615ZM71.7968 19.0382C72.0325 19.1634 72.2575 19.25 72.4512 19.25V18.75C72.387 18.75 72.254 18.7149 72.0313 18.5966L71.7968 19.0382ZM72.4512 19.25C73.7645 19.25 76.154 19.1276 79.6123 18.8841L79.5772 18.3854C76.1175 18.6289 73.7446 18.75 72.4512 18.75V19.25ZM79.5062 18.8686C79.7335 18.9547 79.8851 19.0341 79.9755 19.1026C80.0719 19.1756 80.0537 19.2004 80.0537 19.1719H80.5537C80.5537 18.9643 80.4174 18.8101 80.2774 18.704C80.1315 18.5935 79.9286 18.4939 79.6833 18.401L79.5062 18.8686ZM80.0537 19.1719V19.3545H80.5537V19.1719H80.0537ZM80.0951 19.2168L79.7406 19.7539L80.1579 20.0293L80.5124 19.4922L80.0951 19.2168ZM79.9774 19.6432L78.366 19.4606L78.3097 19.9574L79.9211 20.14L79.9774 19.6432ZM78.3379 19.459C78.0927 19.459 75.7607 19.5779 71.3636 19.8138L71.3904 20.3131C75.8018 20.0764 78.1105 19.959 78.3379 19.959V19.459ZM71.6136 19.983C71.3845 19.3096 70.969 17.3653 70.3659 14.1203L69.8743 14.2117C70.4744 17.4406 70.8967 19.4281 71.1403 20.144L71.6136 19.983ZM70.2578 14.3747L70.7949 14.0202L70.5195 13.6029L69.9824 13.9574L70.2578 14.3747ZM94.4922 1.84473H94.7422V1.76603L94.6971 1.70153L94.4922 1.84473ZM94.4922 2.02734L94.7386 2.06938L94.7422 2.04851V2.02734H94.4922ZM92.5264 5.23926L92.4875 5.48622L92.5068 5.48926H92.5264V5.23926ZM89.6582 2.55371L89.4109 2.51719L89.4082 2.53535V2.55371H89.6582ZM91.624 1.84473V1.59473H91.374V1.84473H91.624ZM90.7324 3.09082L90.6174 2.86884L90.4824 2.93878V3.09082H90.7324ZM90.7324 3.27344H90.4824V3.33435L90.5104 3.38844L90.7324 3.27344ZM93.5898 2.19922L93.832 2.26141L93.8763 2.08876L93.7276 1.99057L93.5898 2.19922ZM93.0527 1.84473L93.1904 1.63607L93.1278 1.59473H93.0527V1.84473ZM98.7783 1.66211L98.9189 1.45538L98.7954 1.37143L98.663 1.44031L98.7783 1.66211ZM99.3154 2.02734L99.5641 2.05281L99.5793 1.90447L99.456 1.82061L99.3154 2.02734ZM99.1328 3.81055L98.8841 3.78508L98.8828 3.79778V3.81055H99.1328ZM99.3154 6.85059L99.5565 6.91669L99.572 6.86044L99.5609 6.80317L99.3154 6.85059ZM99.1328 8.98828H98.8828V9.00938L98.8863 9.03018L99.1328 8.98828ZM99.3154 10.0625L99.5291 10.1922L99.5775 10.1125L99.5619 10.0206L99.3154 10.0625ZM99.4873 12.2109L99.7211 12.2995L99.8493 11.9609H99.4873V12.2109ZM98.7783 12.9199L98.7293 13.1651L98.7536 13.1699H98.7783V12.9199ZM98.4238 10.0625L98.6217 10.2154L98.6903 10.1265L98.6695 10.0161L98.4238 10.0625ZM98.2412 6.66797H98.4912V6.3618L98.1912 6.42302L98.2412 6.66797ZM95.0186 7.20508L94.7936 7.31415L94.8619 7.45508H95.0186V7.20508ZM94.8467 6.85059H94.5967V6.908L94.6217 6.95965L94.8467 6.85059ZM97.8867 5.59375L97.9402 5.83796L98.1367 5.79491V5.59375H97.8867ZM98.2412 5.42188V5.67188H98.4912V5.42188H98.2412ZM101.99 2.38184L102.097 2.15563L102.046 2.13184H101.99V2.38184ZM102.355 2.55371L102.604 2.57903L102.622 2.40289L102.462 2.32751L102.355 2.55371ZM102.173 4.34766L101.924 4.32234L101.923 4.33496V4.34766H102.173ZM102.893 14.5312L103.03 14.7399L103.164 14.6515L103.14 14.4928L102.893 14.5312ZM102.355 14.8857V15.1357H102.431L102.493 15.0944L102.355 14.8857ZM101.281 6.48535H101.031L101.031 6.49462L101.281 6.48535ZM101.281 2.73633L101.034 2.69888L101.031 2.7175V2.73633H101.281ZM95.3838 8.09668L95.5102 7.88101L95.1338 7.66034V8.09668H95.3838ZM96.0928 8.2793H96.3428V8.0293H96.0928V8.2793ZM95.5557 9.52539L95.5215 9.77305L95.6225 9.78697L95.7044 9.72635L95.5557 9.52539ZM94.3096 9.35352L94.3437 9.10586L94.3267 9.10352H94.3096V9.35352ZM93.2354 9.35352V9.10352H93.0314L92.9904 9.30335L93.2354 9.35352ZM93.0527 10.2451L92.8078 10.195L92.8027 10.2198V10.2451H93.0527ZM93.0527 12.3936H92.8027V12.4289L92.8125 12.4628L93.0527 12.3936ZM93.418 13.8223L93.6601 13.8846L93.668 13.8539V13.8223H93.418ZM92.5264 14.5312L92.3196 14.6718L92.394 14.7812H92.5264V14.5312ZM92.1611 13.9941H91.9111V14.0711L91.9544 14.1347L92.1611 13.9941ZM91.9893 10.0625L91.7656 9.9507L91.7349 10.0122L91.7399 10.0809L91.9893 10.0625ZM92.1611 9.52539H92.4111V9.36877L92.2702 9.30044L92.1611 9.52539ZM91.8066 9.35352L91.9157 9.12856L91.8641 9.10352H91.8066V9.35352ZM87.3379 8.45117L87.2906 8.20569L87.0879 8.24476V8.45117H87.3379ZM88.2295 8.2793V8.0293H88.2056L88.1822 8.03382L88.2295 8.2793ZM96.458 16.3252L96.4955 16.078L96.4768 16.0752H96.458V16.3252ZM96.8125 19.1826H96.5625V19.2014L96.5653 19.2201L96.8125 19.1826ZM100.39 16.6797L100.142 16.6422L100.14 16.6609V16.6797H100.39ZM101.099 16.3252L101.136 16.078L101.117 16.0752H101.099V16.3252ZM101.099 18.291L100.857 18.2272L100.849 18.2586V18.291H101.099ZM101.453 19.7197L101.678 19.8288L101.722 19.7387L101.691 19.6434L101.453 19.7197ZM101.281 20.0742L101.056 19.9652L101.021 20.0381L101.035 20.118L101.281 20.0742ZM96.6299 22.7598L96.3936 22.8415L96.4518 23.0098H96.6299V22.7598ZM95.7383 16.6797L95.4911 16.6422L95.4883 16.6609V16.6797H95.7383ZM96.9844 21.1484H96.7344V21.2107L96.7636 21.2657L96.9844 21.1484ZM97.167 21.6855H96.917V21.9355H97.167V21.6855ZM100.562 20.9658H100.812V20.9068L100.785 20.854L100.562 20.9658ZM100.39 20.4287H100.64V20.1787H100.39V20.4287ZM91.2695 1.20312H92.5264V0.703125H91.2695V1.20312ZM92.5264 1.20312C93.3615 1.20312 93.9298 1.4764 94.2873 1.98793L94.6971 1.70153C94.2238 1.02425 93.4816 0.703125 92.5264 0.703125V1.20312ZM94.2422 1.84473V2.02734H94.7422V1.84473H94.2422ZM94.2458 1.98531C94.0651 3.04412 93.8167 3.81046 93.5136 4.30577C93.2146 4.79431 92.884 4.98926 92.5264 4.98926V5.48926C93.114 5.48926 93.5838 5.14889 93.94 4.56679C94.2922 3.99146 94.554 3.15184 94.7386 2.06938L94.2458 1.98531ZM92.5652 4.99229C91.6272 4.84474 90.9563 4.59944 90.5251 4.27647C90.106 3.96254 89.9082 3.57285 89.9082 3.09082H89.4082C89.4082 3.7403 89.6884 4.27444 90.2254 4.67665C90.7503 5.06983 91.5135 5.333 92.4875 5.48622L92.5652 4.99229ZM89.9082 3.09082V2.55371H89.4082V3.09082H89.9082ZM89.9055 2.59023C89.9797 2.08812 90.1384 1.74622 90.3554 1.53064C90.5675 1.3199 90.8624 1.20312 91.2695 1.20312V0.703125C90.76 0.703125 90.328 0.853112 90.003 1.1759C89.6829 1.49385 89.4943 1.95225 89.4109 2.51719L89.9055 2.59023ZM91.374 1.84473C91.374 2.2468 91.1563 2.58965 90.6174 2.86884L90.8474 3.3128C91.4973 2.9761 91.874 2.48823 91.874 1.84473H91.374ZM90.4824 3.09082V3.27344H90.9824V3.09082H90.4824ZM90.5104 3.38844C90.681 3.71775 90.9053 3.97768 91.1882 4.15423C91.4716 4.3311 91.7992 4.41504 92.1611 4.41504V3.91504C91.8786 3.91504 91.6457 3.85037 91.4529 3.73005C91.2596 3.6094 91.0917 3.42353 90.9544 3.15844L90.5104 3.38844ZM92.1611 4.41504H92.5264V3.91504H92.1611V4.41504ZM92.5264 4.41504C92.6986 4.41504 92.8477 4.33788 92.9697 4.22786C93.0898 4.11962 93.1956 3.96972 93.2914 3.79254C93.4832 3.43797 93.662 2.92319 93.832 2.26141L93.3477 2.13703C93.1811 2.7858 93.0143 3.25392 92.8516 3.55463C92.7703 3.70508 92.6966 3.80091 92.6349 3.85649C92.5752 3.91029 92.5403 3.91504 92.5264 3.91504V4.41504ZM93.7276 1.99057L93.1904 1.63607L92.915 2.05338L93.4521 2.40787L93.7276 1.99057ZM93.0527 1.59473H91.624V2.09473H93.0527V1.59473ZM98.6377 1.86884L99.1749 2.23408L99.456 1.82061L98.9189 1.45538L98.6377 1.86884ZM99.0667 2.00187L98.8841 3.78508L99.3815 3.83602L99.5641 2.05281L99.0667 2.00187ZM98.8828 3.81055V5.05664H99.3828V3.81055H98.8828ZM98.8828 5.05664C98.8828 5.64027 98.9456 6.25422 99.07 6.898L99.5609 6.80317C99.4418 6.18654 99.3828 5.60453 99.3828 5.05664H98.8828ZM99.0743 6.78448C98.945 7.25609 98.8828 7.8131 98.8828 8.45117H99.3828C99.3828 7.84315 99.4424 7.3331 99.5565 6.91669L99.0743 6.78448ZM98.8828 8.45117V8.98828H99.3828V8.45117H98.8828ZM98.8863 9.03018L99.069 10.1044L99.5619 10.0206L99.3793 8.94638L98.8863 9.03018ZM99.1017 9.93276C98.9451 10.1907 98.8828 10.5421 98.8828 10.9541H99.3828C99.3828 10.5784 99.4422 10.3354 99.5291 10.1922L99.1017 9.93276ZM98.8828 10.9541C98.8828 11.379 98.9121 11.7211 98.9808 11.9646C99.015 12.0858 99.0644 12.2029 99.1414 12.2939C99.2247 12.3923 99.3425 12.4609 99.4873 12.4609V11.9609C99.514 11.9609 99.5284 11.9772 99.5231 11.9709C99.5114 11.9572 99.4869 11.9172 99.4621 11.8289C99.4126 11.6534 99.3828 11.3671 99.3828 10.9541H98.8828ZM99.2535 12.1224C99.1674 12.3497 99.0879 12.5014 99.0195 12.5917C98.9465 12.6881 98.9217 12.6699 98.9502 12.6699V13.1699C99.1578 13.1699 99.312 13.0336 99.418 12.8936C99.5286 12.7477 99.6282 12.5448 99.7211 12.2995L99.2535 12.1224ZM98.9502 12.6699H98.7783V13.1699H98.9502V12.6699ZM98.8273 12.6748C98.7642 12.6621 98.6818 12.6135 98.6095 12.4211C98.5356 12.2244 98.4912 11.9203 98.4912 11.4912H97.9912C97.9912 11.943 98.0364 12.3174 98.1415 12.597C98.2482 12.8809 98.4344 13.1061 98.7293 13.1651L98.8273 12.6748ZM98.4912 11.4912V11.3193H97.9912V11.4912H98.4912ZM98.4912 11.3193C98.4912 10.9849 98.5063 10.7235 98.5343 10.5308C98.564 10.326 98.6034 10.239 98.6217 10.2154L98.226 9.90964C98.1225 10.0435 98.0706 10.2448 98.0395 10.4589C98.0066 10.6852 97.9912 10.9734 97.9912 11.3193H98.4912ZM98.6695 10.0161C98.5493 9.37978 98.4912 8.85944 98.4912 8.45117H97.9912C97.9912 8.90228 98.0549 9.45616 98.1782 10.1089L98.6695 10.0161ZM98.4912 8.45117V6.66797H97.9912V8.45117H98.4912ZM98.1912 6.42302C97.3153 6.60178 96.6114 6.73539 96.0785 6.8242C95.5392 6.91409 95.1918 6.95508 95.0186 6.95508V7.45508C95.2392 7.45508 95.6258 7.40655 96.1607 7.3174C96.7021 7.22717 97.4126 7.09223 98.2912 6.91292L98.1912 6.42302ZM95.2435 7.09601L95.0716 6.74152L94.6217 6.95965L94.7936 7.31415L95.2435 7.09601ZM95.0967 6.85059V6.48535H94.5967V6.85059H95.0967ZM95.0967 6.48535C95.0967 6.54806 95.0703 6.58979 95.0585 6.60552C95.0466 6.62141 95.0378 6.62681 95.0427 6.62318C95.0525 6.61592 95.0806 6.59895 95.1377 6.57372C95.2491 6.52449 95.4266 6.46301 95.677 6.38955C96.1751 6.24348 96.9282 6.05966 97.9402 5.83796L97.8332 5.34954C96.8185 5.57185 96.0516 5.75864 95.5363 5.90976C95.2801 5.98491 95.0776 6.05367 94.9357 6.11635C94.8661 6.14706 94.7992 6.18145 94.7457 6.22097C94.7189 6.24072 94.6864 6.26837 94.6586 6.30535C94.631 6.34217 94.5967 6.40384 94.5967 6.48535H95.0967ZM98.1367 5.59375C98.1367 5.61046 98.1316 5.63589 98.1149 5.66019C98.0995 5.68253 98.0839 5.69004 98.0844 5.6898C98.0857 5.68916 98.0975 5.68401 98.126 5.67941C98.1538 5.67493 98.1916 5.67188 98.2412 5.67188V5.17188C98.1108 5.17188 97.9766 5.18639 97.8663 5.23989C97.8077 5.26829 97.7478 5.31161 97.7029 5.37692C97.6566 5.44418 97.6367 5.51975 97.6367 5.59375H98.1367ZM98.4912 5.42188V2.19922H97.9912V5.42188H98.4912ZM98.4912 2.19922C98.4912 2.20536 98.4875 2.17752 98.5523 2.11281C98.6163 2.0488 98.7255 1.97135 98.8937 1.88391L98.663 1.44031C98.4731 1.53907 98.3137 1.64423 98.1987 1.75926C98.0844 1.87358 97.9912 2.0212 97.9912 2.19922H98.4912ZM101.636 2.63184H101.99V2.13184H101.636V2.63184ZM101.884 2.60804L102.249 2.77992L102.462 2.32751L102.097 2.15563L101.884 2.60804ZM102.107 2.52839L101.924 4.32234L102.422 4.37297L102.604 2.57903L102.107 2.52839ZM101.923 4.34766V7.3877H102.423V4.34766H101.923ZM101.923 7.3877C101.923 9.08295 102.165 11.4792 102.646 14.5697L103.14 14.4928C102.66 11.4101 102.423 9.044 102.423 7.3877H101.923ZM102.755 14.3226L102.218 14.6771L102.493 15.0944L103.03 14.7399L102.755 14.3226ZM102.355 14.6357C102.418 14.6357 102.423 14.6795 102.379 14.615C102.34 14.5573 102.293 14.453 102.241 14.2868C102.139 13.9579 102.043 13.4502 101.954 12.7539C101.776 11.3654 101.635 9.27449 101.531 6.47609L101.031 6.49462C101.135 9.29647 101.277 11.4057 101.458 12.8174C101.548 13.5211 101.649 14.0635 101.763 14.4346C101.82 14.6185 101.885 14.7767 101.964 14.894C102.039 15.0045 102.165 15.1357 102.355 15.1357V14.6357ZM101.531 6.48535V2.73633H101.031V6.48535H101.531ZM101.528 2.77378C101.542 2.68644 101.565 2.65544 101.574 2.64724C101.577 2.6442 101.588 2.63184 101.636 2.63184V2.13184C101.483 2.13184 101.335 2.17855 101.22 2.29368C101.11 2.40364 101.057 2.54988 101.034 2.69888L101.528 2.77378ZM95.2574 8.31235C95.5072 8.45879 95.788 8.5293 96.0928 8.5293V8.0293C95.8676 8.0293 95.6758 7.97806 95.5102 7.88101L95.2574 8.31235ZM95.8428 8.2793V8.98828H96.3428V8.2793H95.8428ZM95.8428 8.98828C95.8428 8.93826 95.8636 8.91673 95.8503 8.93681C95.8409 8.95112 95.8203 8.97703 95.7817 9.01561C95.7051 9.09221 95.5823 9.19468 95.407 9.32443L95.7044 9.72635C95.8871 9.59113 96.0328 9.47159 96.1353 9.36916C96.1862 9.31822 96.2327 9.26535 96.2681 9.21162C96.2996 9.16367 96.3428 9.08485 96.3428 8.98828H95.8428ZM95.5898 9.27774L94.3437 9.10586L94.2754 9.60117L95.5215 9.77305L95.5898 9.27774ZM94.3096 9.10352H93.2354V9.60352H94.3096V9.10352ZM92.9904 9.30335L92.8078 10.195L93.2977 10.2953L93.4803 9.40368L92.9904 9.30335ZM92.8027 10.2451V12.3936H93.3027V10.2451H92.8027ZM92.8125 12.4628C92.934 12.8844 93.0245 13.212 93.0844 13.4464C93.1145 13.5639 93.1363 13.6558 93.1504 13.7236C93.1662 13.7994 93.168 13.825 93.168 13.8223H93.668C93.668 13.7658 93.6545 13.6916 93.6399 13.6215C93.6236 13.5433 93.5997 13.4433 93.5689 13.3226C93.5071 13.0809 93.415 12.7477 93.293 12.3243L92.8125 12.4628ZM93.1759 13.7599C93.1247 13.9587 93.0434 14.0826 92.9482 14.1583C92.8537 14.2334 92.7203 14.2812 92.5264 14.2812V14.7812C92.805 14.7812 93.0566 14.7109 93.2594 14.5497C93.4613 14.3891 93.5895 14.1585 93.6601 13.8846L93.1759 13.7599ZM92.7331 14.3907L92.3679 13.8536L91.9544 14.1347L92.3196 14.6718L92.7331 14.3907ZM92.4111 13.9941V13.8223H91.9111V13.9941H92.4111ZM92.4111 13.8223C92.4111 12.8611 92.3534 11.601 92.2386 10.0441L91.7399 10.0809C91.8543 11.6321 91.9111 12.8785 91.9111 13.8223H92.4111ZM92.2129 10.1743C92.3309 9.93819 92.4111 9.71536 92.4111 9.52539H91.9111C91.9111 9.59324 91.8768 9.72848 91.7656 9.9507L92.2129 10.1743ZM92.2702 9.30044L91.9157 9.12856L91.6976 9.57847L92.0521 9.75034L92.2702 9.30044ZM91.8066 9.10352H87.6924V9.60352H91.8066V9.10352ZM87.6924 9.10352C87.654 9.10352 87.6309 9.09849 87.6185 9.09424C87.6125 9.0922 87.6093 9.09041 87.6078 9.08951C87.6064 9.08866 87.606 9.08819 87.6059 9.08809C87.6058 9.08797 87.605 9.0872 87.6038 9.08504C87.6025 9.08278 87.6003 9.07843 87.5979 9.07112C87.593 9.05596 87.5879 9.0297 87.5879 8.98828H87.0879C87.0879 9.14672 87.1263 9.31181 87.2471 9.43633C87.3693 9.56223 87.5338 9.60352 87.6924 9.60352V9.10352ZM87.5879 8.98828V8.45117H87.0879V8.98828H87.5879ZM87.3852 8.69665L88.2768 8.52478L88.1822 8.03382L87.2906 8.20569L87.3852 8.69665ZM88.2295 8.5293H95.2012V8.0293H88.2295V8.5293ZM95.2012 8.5293C95.3006 8.5293 95.4211 8.50428 95.5149 8.41042C95.6088 8.31656 95.6338 8.19609 95.6338 8.09668H95.1338C95.1338 8.11902 95.1284 8.08985 95.1614 8.05687C95.1943 8.02388 95.2235 8.0293 95.2012 8.0293V8.5293ZM96.0928 16.5752H96.458V16.0752H96.0928V16.5752ZM96.4206 16.5724C96.5079 16.5856 96.5389 16.6092 96.5471 16.6175C96.5501 16.6205 96.5625 16.6315 96.5625 16.6797H97.0625C97.0625 16.5273 97.0158 16.379 96.9007 16.2639C96.7907 16.1539 96.6445 16.1006 96.4955 16.078L96.4206 16.5724ZM96.5625 16.6797V19.1826H97.0625V16.6797H96.5625ZM96.5653 19.2201C96.5879 19.3691 96.6412 19.5153 96.7512 19.6253C96.8663 19.7404 97.0146 19.7871 97.167 19.7871V19.2871C97.1188 19.2871 97.1078 19.2747 97.1048 19.2717C97.0965 19.2635 97.0729 19.2325 97.0597 19.1452L96.5653 19.2201ZM97.167 19.7871H97.5215V19.2871H97.167V19.7871ZM97.5215 19.7871C98.4812 19.7871 99.2171 19.7425 99.7186 19.6486C99.9671 19.602 100.178 19.54 100.333 19.4529C100.486 19.367 100.64 19.222 100.64 19H100.14C100.14 18.957 100.174 18.9687 100.088 19.017C100.004 19.0643 99.8562 19.1141 99.6266 19.1571C99.1721 19.2422 98.4739 19.2871 97.5215 19.2871V19.7871ZM100.64 19V16.6797H100.14V19H100.64ZM100.637 16.7171C100.65 16.6298 100.674 16.5988 100.682 16.5906C100.685 16.5876 100.696 16.5752 100.744 16.5752V16.0752C100.592 16.0752 100.443 16.1219 100.328 16.237C100.218 16.347 100.165 16.4932 100.142 16.6422L100.637 16.7171ZM100.744 16.5752H101.099V16.0752H100.744V16.5752ZM101.061 16.5724C101.149 16.5856 101.18 16.6092 101.188 16.6175C101.191 16.6205 101.203 16.6315 101.203 16.6797H101.703C101.703 16.5273 101.656 16.379 101.541 16.2639C101.431 16.1539 101.285 16.1006 101.136 16.078L101.061 16.5724ZM101.203 16.6797C101.203 16.7373 101.181 16.8895 101.12 17.1631C101.062 17.4267 100.975 17.781 100.857 18.2272L101.34 18.3548C101.459 17.9058 101.549 17.544 101.609 17.2705C101.667 17.007 101.703 16.8011 101.703 16.6797H101.203ZM100.849 18.291C100.849 18.4316 100.885 18.6303 100.945 18.8695C101.006 19.1152 101.096 19.4245 101.215 19.796L101.691 19.6434C101.574 19.2773 101.487 18.9797 101.43 18.7491C101.371 18.5121 101.349 18.3652 101.349 18.291H100.849ZM101.228 19.6107L101.056 19.9652L101.506 20.1833L101.678 19.8288L101.228 19.6107ZM101.035 20.118C101.148 20.7547 101.203 21.276 101.203 21.6855H101.703C101.703 21.2357 101.643 20.6828 101.527 20.0305L101.035 20.118ZM101.203 21.6855V22.04H101.703V21.6855H101.203ZM101.203 22.04C101.203 21.9978 101.238 22.0422 101.05 22.1267C100.88 22.2026 100.605 22.2736 100.21 22.3326C99.4255 22.4497 98.2348 22.5098 96.6299 22.5098V23.0098C98.2405 23.0098 99.4614 22.9499 100.284 22.8271C100.693 22.7661 101.021 22.6871 101.254 22.5831C101.467 22.4877 101.703 22.3222 101.703 22.04H101.203ZM96.8661 22.6781C96.2821 20.9893 95.9883 19.1089 95.9883 17.0342H95.4883C95.4883 19.1561 95.7888 21.0927 96.3936 22.8415L96.8661 22.6781ZM95.9883 17.0342V16.6797H95.4883V17.0342H95.9883ZM95.9855 16.7171C95.9987 16.6298 96.0223 16.5988 96.0305 16.5906C96.0336 16.5876 96.0446 16.5752 96.0928 16.5752V16.0752C95.9404 16.0752 95.7921 16.1219 95.677 16.237C95.567 16.347 95.5137 16.4932 95.4911 16.6422L95.9855 16.7171ZM96.7636 21.2657C96.8819 21.4883 96.917 21.6214 96.917 21.6855H97.417C97.417 21.4919 97.3304 21.2669 97.2052 21.0311L96.7636 21.2657ZM97.167 21.9355H98.2412V21.4355H97.167V21.9355ZM98.2412 21.9355C99.0213 21.9355 99.6319 21.8758 100.056 21.7444C100.464 21.6176 100.812 21.3823 100.812 20.9658H100.312C100.312 21.0292 100.272 21.1537 99.9074 21.2668C99.5575 21.3754 99.008 21.4355 98.2412 21.4355V21.9355ZM100.785 20.854C100.674 20.6318 100.64 20.4966 100.64 20.4287H100.14C100.14 20.6187 100.22 20.8415 100.338 21.0776L100.785 20.854ZM100.39 20.1787H99.8525V20.6787H100.39V20.1787ZM99.8525 20.1787C98.8913 20.1787 98.1493 20.2385 97.6406 20.3662C97.3875 20.4297 97.1713 20.5149 97.0133 20.6338C96.8482 20.7581 96.7344 20.9307 96.7344 21.1484H97.2344C97.2344 21.1263 97.24 21.089 97.314 21.0333C97.395 20.9723 97.5373 20.9076 97.7623 20.8511C98.2096 20.7389 98.9016 20.6787 99.8525 20.6787V20.1787ZM112.517 3.08008V2.83008H112.488L112.461 2.83641L112.517 3.08008ZM112.871 3.08008H113.121V2.83008H112.871V3.08008ZM108.402 4.69141L108.364 4.44441L108.152 4.47747V4.69141H108.402ZM108.402 6.65723H108.152V6.71624L108.179 6.76903L108.402 6.65723ZM108.585 7.02246L108.361 7.13426L108.438 7.28655L108.607 7.27148L108.585 7.02246ZM112.699 6.48535L112.85 6.28608L112.762 6.21903L112.653 6.23974L112.699 6.48535ZM113.408 7.02246L113.642 7.11102L113.708 6.93612L113.559 6.82319L113.408 7.02246ZM109.477 8.98828L109.346 9.20152L109.406 9.23828H109.477V8.98828ZM113.591 8.45117L113.628 8.20399L113.59 8.19815L113.551 8.20434L113.591 8.45117ZM109.659 10.0625V10.3125H109.676L109.693 10.3102L109.659 10.0625ZM107.328 3.98242L107.081 3.94605L107.078 3.96414V3.98242H107.328ZM116.985 13.1025L117.208 12.988L117.133 12.8428L116.97 12.853L116.985 13.1025ZM117.168 13.457H117.418V13.3964L117.39 13.3425L117.168 13.457ZM115.202 14.3486V14.5986H115.213L115.224 14.5977L115.202 14.3486ZM113.945 14.3486V14.0986H113.795L113.725 14.231L113.945 14.3486ZM114.128 18.4629L114.362 18.5503L114.389 18.4778L114.371 18.4027L114.128 18.4629ZM112.871 18.6455H112.621V18.7066L112.649 18.7608L112.871 18.6455ZM112.871 14.7139H113.121V14.658L113.097 14.6074L112.871 14.7139ZM112.699 14.3486L112.925 14.2422L112.854 14.0907L112.687 14.0989L112.699 14.3486ZM103.934 14.7139L103.816 14.9346L103.871 14.9639H103.934V14.7139ZM103.396 14.5312H103.146V14.7812H103.396V14.5312ZM103.396 14.1768L103.16 14.0963L103.146 14.1354V14.1768H103.396ZM108.402 13.6396V13.8896H108.41L108.418 13.8892L108.402 13.6396ZM109.294 17.5713V17.3213H109.044V17.5713H109.294ZM110.551 20.0742L110.304 20.1145L110.326 20.246L110.447 20.3015L110.551 20.0742ZM111.442 20.6113H111.192V20.8832L111.463 20.8605L111.442 20.6113ZM117.168 19.5371L117.285 19.3163L117.196 19.2689L117.099 19.2969L117.168 19.5371ZM117.705 19.7197H117.955V19.4697H117.705V19.7197ZM116.094 20.9658V20.7158H116.075L116.057 20.7185L116.094 20.9658ZM110.551 21.5029L110.365 21.6707L110.44 21.7529H110.551V21.5029ZM109.122 18.1084L108.898 17.9966L108.872 18.0494V18.1084H109.122ZM112.517 3.33008H112.871V2.83008H112.517V3.33008ZM112.621 3.08008V3.2627H113.121V3.08008H112.621ZM112.621 3.2627C112.621 3.54865 112.52 3.73408 112.332 3.86078C112.125 3.99934 111.784 4.08691 111.271 4.08691V4.58691C111.824 4.58691 112.283 4.49545 112.61 4.27594C112.955 4.04456 113.121 3.69288 113.121 3.2627H112.621ZM111.271 4.08691C110.846 4.08691 109.868 4.20911 108.364 4.44441L108.441 4.9384C109.959 4.70104 110.893 4.58691 111.271 4.58691V4.08691ZM108.152 4.69141V6.65723H108.652V4.69141H108.152ZM108.179 6.76903L108.361 7.13426L108.809 6.91066L108.626 6.54542L108.179 6.76903ZM108.607 7.27148C110.224 7.12779 111.604 6.94782 112.746 6.73096L112.653 6.23974C111.532 6.45257 110.169 6.63068 108.563 6.77344L108.607 7.27148ZM112.548 6.68462L113.257 7.22173L113.559 6.82319L112.85 6.28608L112.548 6.68462ZM113.174 6.9339C113.088 7.16124 113.009 7.31288 112.94 7.40323C112.867 7.49961 112.843 7.48145 112.871 7.48145V7.98145C113.079 7.98145 113.233 7.84511 113.339 7.70516C113.45 7.55919 113.549 7.35634 113.642 7.11102L113.174 6.9339ZM112.871 7.48145H111.625V7.98145H112.871V7.48145ZM111.625 7.48145C110.665 7.48145 109.929 7.52608 109.428 7.61999C109.179 7.66652 108.969 7.72856 108.814 7.81561C108.661 7.90154 108.507 8.04651 108.507 8.26855H109.007C109.007 8.31156 108.972 8.29988 109.059 8.25153C109.143 8.2043 109.29 8.15444 109.52 8.11145C109.974 8.02633 110.673 7.98145 111.625 7.98145V7.48145ZM108.507 8.26855C108.507 8.46491 108.628 8.63307 108.76 8.76491C108.9 8.90491 109.099 9.05021 109.346 9.20152L109.607 8.77504C109.375 8.63274 109.213 8.51127 109.114 8.41136C109.005 8.30329 109.007 8.2584 109.007 8.26855H108.507ZM109.477 9.23828H109.659V8.73828H109.477V9.23828ZM109.659 9.23828C109.876 9.23828 110.32 9.19064 110.971 9.1017C111.629 9.0118 112.516 8.87717 113.631 8.698L113.551 8.20434C112.438 8.38325 111.556 8.51717 110.904 8.6063C110.244 8.6964 109.836 8.73828 109.659 8.73828V9.23828ZM113.553 8.69835C113.641 8.71158 113.672 8.73522 113.68 8.74343C113.683 8.74646 113.695 8.75752 113.695 8.80566H114.195C114.195 8.65329 114.149 8.505 114.033 8.38987C113.924 8.27992 113.777 8.22657 113.628 8.20399L113.553 8.69835ZM113.695 8.80566V9.1709H114.195V8.80566H113.695ZM113.695 9.1709C113.695 9.10854 113.723 9.06777 113.735 9.05284C113.746 9.0387 113.753 9.03622 113.743 9.0428C113.723 9.05592 113.677 9.07845 113.594 9.10773C113.432 9.1651 113.177 9.2311 112.823 9.3048C112.117 9.45155 111.053 9.62159 109.626 9.81476L109.693 10.3102C111.123 10.1167 112.201 9.94478 112.925 9.79432C113.285 9.71942 113.566 9.64801 113.761 9.57916C113.856 9.54533 113.945 9.50754 114.014 9.46315C114.048 9.44097 114.088 9.41044 114.122 9.36894C114.157 9.32665 114.195 9.25922 114.195 9.1709H113.695ZM109.659 9.8125C109.316 9.8125 109.027 9.72447 108.781 9.55473C108.534 9.38359 108.316 9.11932 108.136 8.74541C107.772 7.99084 107.578 6.82774 107.578 5.22852H107.078C107.078 6.85195 107.273 8.10584 107.686 8.96259C107.894 9.39435 108.162 9.73433 108.497 9.96603C108.834 10.1991 109.225 10.3125 109.659 10.3125V9.8125ZM107.578 5.22852V3.98242H107.078V5.22852H107.578ZM107.575 4.0188C107.589 3.92813 107.613 3.89492 107.623 3.88527C107.628 3.88069 107.641 3.86719 107.693 3.86719V3.36719C107.538 3.36719 107.387 3.41455 107.27 3.53172C107.157 3.64382 107.103 3.79322 107.081 3.94605L107.575 4.0188ZM107.693 3.86719H108.23V3.36719H107.693V3.86719ZM108.23 3.86719C109.549 3.86719 110.997 3.68509 112.572 3.32375L112.461 2.83641C110.914 3.19122 109.504 3.36719 108.23 3.36719V3.86719ZM116.763 13.217L116.946 13.5715L117.39 13.3425L117.208 12.988L116.763 13.217ZM116.918 13.457V13.6396H117.418V13.457H116.918ZM116.918 13.6396C116.918 13.6425 116.92 13.6613 116.877 13.7002C116.829 13.7436 116.74 13.7966 116.592 13.8503C116.295 13.9572 115.83 14.0428 115.18 14.0996L115.224 14.5977C115.885 14.5399 116.403 14.45 116.761 14.3206C116.94 14.2561 117.097 14.1757 117.213 14.0705C117.334 13.9609 117.418 13.8158 117.418 13.6396H116.918ZM115.202 14.0986H113.945V14.5986H115.202V14.0986ZM113.725 14.231C113.589 14.4852 113.523 14.7661 113.523 15.0684H114.023C114.023 14.8407 114.072 14.6418 114.166 14.4663L113.725 14.231ZM113.523 15.0684V15.4229H114.023V15.0684H113.523ZM113.523 15.4229C113.523 16.5155 113.644 17.5492 113.885 18.5231L114.371 18.4027C114.14 17.4717 114.023 16.4787 114.023 15.4229H113.523ZM113.894 18.3755C113.807 18.6066 113.728 18.761 113.659 18.8532C113.585 18.952 113.561 18.9326 113.591 18.9326V19.4326C113.8 19.4326 113.954 19.2933 114.06 19.1522C114.17 19.0045 114.269 18.799 114.362 18.5503L113.894 18.3755ZM113.591 18.9326H113.408V19.4326H113.591V18.9326ZM113.408 18.9326C113.414 18.9326 113.387 18.9363 113.322 18.8716C113.258 18.8076 113.18 18.6983 113.093 18.5302L112.649 18.7608C112.748 18.9508 112.853 19.1101 112.968 19.2251C113.083 19.3394 113.23 19.4326 113.408 19.4326V18.9326ZM113.121 18.6455V14.7139H112.621V18.6455H113.121ZM113.097 14.6074L112.925 14.2422L112.473 14.4551L112.645 14.8203L113.097 14.6074ZM112.687 14.0989C107.735 14.3426 104.821 14.4639 103.934 14.4639V14.9639C104.837 14.9639 107.766 14.8416 112.712 14.5983L112.687 14.0989ZM104.051 14.4931C103.815 14.3679 103.59 14.2812 103.396 14.2812V14.7812C103.461 14.7812 103.594 14.8164 103.816 14.9346L104.051 14.4931ZM103.646 14.5312V14.1768H103.146V14.5312H103.646ZM103.633 14.2572C103.702 14.0548 103.912 13.8896 104.471 13.8896V13.3896C103.841 13.3896 103.334 13.5826 103.16 14.0963L103.633 14.2572ZM104.471 13.8896H108.402V13.3896H104.471V13.8896ZM108.418 13.8892L117.001 13.3521L116.97 12.853L108.387 13.3901L108.418 13.8892ZM109.294 17.8213H109.831V17.3213H109.294V17.8213ZM109.831 17.8213C109.801 17.8213 109.776 17.8134 109.76 17.8053C109.745 17.7978 109.737 17.7905 109.737 17.7901C109.736 17.7896 109.74 17.7931 109.747 17.803C109.754 17.8127 109.762 17.8267 109.773 17.8459C109.816 17.9267 109.868 18.063 109.926 18.2661C110.042 18.6687 110.168 19.2826 110.304 20.1145L110.798 20.034C110.661 19.1972 110.531 18.5597 110.407 18.1279C110.345 17.9139 110.282 17.7373 110.213 17.6095C110.179 17.5462 110.137 17.482 110.084 17.4307C110.031 17.3795 109.946 17.3213 109.831 17.3213V17.8213ZM110.447 20.3015C110.741 20.4365 110.954 20.5446 111.09 20.6267C111.16 20.6685 111.2 20.6981 111.22 20.716C111.23 20.7251 111.228 20.7249 111.222 20.7154C111.217 20.7083 111.192 20.671 111.192 20.6113H111.692C111.692 20.5301 111.659 20.4685 111.635 20.4341C111.61 20.3973 111.58 20.3669 111.553 20.3428C111.499 20.2945 111.428 20.2463 111.348 20.1985C111.188 20.1016 110.955 19.9841 110.655 19.8469L110.447 20.3015ZM111.463 20.8605C113.357 20.7014 115.282 20.3402 117.237 19.7774L117.099 19.2969C115.173 19.8512 113.28 20.2061 111.421 20.3622L111.463 20.8605ZM117.051 19.7579C117.286 19.8831 117.511 19.9697 117.705 19.9697V19.4697C117.641 19.4697 117.508 19.4346 117.285 19.3163L117.051 19.7579ZM117.455 19.7197V19.9023H117.955V19.7197H117.455ZM117.455 19.9023C117.455 20.1829 117.355 20.3656 117.165 20.4913C116.956 20.629 116.611 20.7158 116.094 20.7158V21.2158C116.65 21.2158 117.111 21.1254 117.44 20.9086C117.787 20.6798 117.955 20.3307 117.955 19.9023H117.455ZM116.057 20.7185C113.633 21.0761 111.8 21.2529 110.551 21.2529V21.7529C111.837 21.7529 113.699 21.5717 116.13 21.2131L116.057 20.7185ZM110.736 21.3352C109.818 20.32 109.372 19.2462 109.372 18.1084H108.872C108.872 19.3912 109.379 20.5804 110.365 21.6707L110.736 21.3352ZM109.346 18.2202C109.464 17.9841 109.544 17.7613 109.544 17.5713H109.044C109.044 17.6391 109.01 17.7744 108.898 17.9966L109.346 18.2202Z" fill="#222222"/>
</svg>
