<svg width="160" height="24" viewBox="0 0 160 24" fill="none" xmlns="http://www.w3.org/2000/svg">
<path d="M6.42383 2.36426C9.77539 3.33757 11.4512 4.66634 11.4512 6.35059V7.81055C11.4512 10.9082 9.49609 12.7279 5.58594 13.2695C4.17253 13.2695 2.7041 12.1481 1.18066 9.90527C0.901367 9.44824 0.761719 9.0293 0.761719 8.64844V7.3916C0.761719 5.35189 2.1582 3.67611 4.95117 2.36426H6.42383ZM15.8564 3.41797H16.2754C16.5547 3.46029 16.6943 3.59993 16.6943 3.83691C16.1357 6.31673 15.8564 8.55111 15.8564 10.54V10.7432L16.0596 12C15.8395 12.8464 15.3486 13.2695 14.5869 13.2695L14.168 10.7432L12.708 10.959H12.2891C12.0098 10.959 11.8701 10.8193 11.8701 10.54V10.1211C11.8701 9.78255 12.708 9.43132 14.3838 9.06738L14.5869 8.02637L14.168 7.81055L12.2891 8.02637L12.0732 7.60742V6.97266C12.0732 6.63411 12.9111 6.35482 14.5869 6.13477C14.917 4.32357 15.3402 3.41797 15.8564 3.41797ZM2.23438 8.02637C2.23438 9.5752 3.27962 10.7601 5.37012 11.5811H6.20801C8.12077 11.5811 9.3776 10.3962 9.97852 8.02637V6.76953C9.97852 5.09375 8.65397 4.25586 6.00488 4.25586C6.00488 3.97656 5.86523 3.83691 5.58594 3.83691C3.35156 4.37012 2.23438 5.7666 2.23438 8.02637ZM14.5869 14.9453C15.2894 15.0384 15.6406 15.2458 15.6406 15.5674V16.4053C15.3613 17.7594 15.2217 18.5296 15.2217 18.7158V19.3379C15.2217 19.4818 15.2936 19.5537 15.4375 19.5537L15.2217 19.9727L15.4375 20.8105C15.1667 21.4453 14.8831 21.7923 14.5869 21.8516C14.3669 21.8516 14.0199 21.5046 13.5459 20.8105C13.6813 20.0742 13.821 18.6777 13.9648 16.6211C13.694 16.4772 13.4824 16.4053 13.3301 16.4053C11.9505 16.4053 10.2747 16.6169 8.30273 17.04H7.88379L7.68066 16.2021C7.68066 15.3643 9.98275 14.9453 14.5869 14.9453ZM33.0107 3.17676L33.6328 3.5957C33.3535 6.25326 33.2139 9.1224 33.2139 12.2031L33.4297 15.1357L32.7949 15.5547H32.1729C32.1729 14.9961 32.0332 14.7168 31.7539 14.7168L31.957 13.2441V11.3652C31.957 11.2214 31.8893 11.1494 31.7539 11.1494L31.957 10.7305V10.5146C31.957 10.2354 31.8174 10.0957 31.5381 10.0957C31.0811 10.375 30.6621 10.5146 30.2812 10.5146V14.9199C30.2812 15.2077 30.1416 15.3516 29.8623 15.3516H29.4434C28.8848 15.3516 28.6055 12.1312 28.6055 5.69043H27.5518L26.9297 5.27148H23.7812C21.2591 5.27148 19.998 5.48307 19.998 5.90625C19.998 6.18555 20.07 6.3252 20.2139 6.3252L19.998 8.41992V8.63574C20.3197 11.9873 20.7386 13.6631 21.2549 13.6631C21.7204 13.6631 23.612 13.1764 26.9297 12.2031C27.209 12.2454 27.3486 12.3851 27.3486 12.6221V12.8252C27.3486 13.6631 26.8577 14.082 25.876 14.082C24.7673 14.082 22.9476 14.6449 20.417 15.7705C19.723 15.0088 19.0967 12.7702 18.5381 9.05469C18.5381 8.91081 18.6058 8.83887 18.7412 8.83887C18.7412 6.73991 18.3942 5.69043 17.7002 5.69043C17.5563 5.69043 17.4844 5.62272 17.4844 5.4873V4.85254C17.4844 4.37012 19.1644 4.02311 22.5244 3.81152C22.7952 3.94694 23.0026 4.01465 23.1465 4.01465L23.5654 3.81152C23.7093 3.81152 23.7812 3.87923 23.7812 4.01465L24.8223 3.81152H25.2412C25.9437 3.81152 26.9932 3.87923 28.3896 4.01465V3.81152L28.8086 4.01465L30.0654 3.81152C30.1162 4.09082 30.2601 4.23047 30.4971 4.23047L29.8623 7.37891C29.9977 7.62435 30.0654 7.90365 30.0654 8.2168V9.05469C31.3265 8.77539 31.957 8.49609 31.957 8.2168V5.69043C32.2025 4.01465 32.5537 3.17676 33.0107 3.17676ZM47.4131 2.54199L48.4541 3.16406C50.8916 2.88477 52.3643 2.74512 52.8721 2.74512L53.291 3.37988C53.1471 4.81022 53.0752 5.92741 53.0752 6.73145C53.0752 7.15462 53.1471 7.36621 53.291 7.36621L53.0752 8.41992V10.9336C53.0752 11.069 52.7959 11.3483 52.2373 11.7715L51.3994 11.3525L51.6025 9.87988V4.63672C51.6025 4.35742 51.4629 4.21777 51.1836 4.21777C49.0846 4.21777 48.0352 4.77637 48.0352 5.89355L47.832 6.94727C47.9674 7.86979 48.0352 8.77962 48.0352 9.67676V10.5146C48.0352 11.2679 47.7559 11.7588 47.1973 11.9873C46.9941 11.9873 46.7826 11.7757 46.5625 11.3525V4.4209H46.3594C45.1745 4.4209 43.4945 4.63249 41.3193 5.05566L40.9004 4.4209V4.21777C40.9004 3.61686 42.9993 3.12598 47.1973 2.74512C47.1973 2.6097 47.2692 2.54199 47.4131 2.54199ZM54.751 12.8252C55.3096 12.9606 55.5889 13.2399 55.5889 13.6631L54.9668 14.7168L53.9131 14.501H51.3994C51.2555 15.4997 51.1836 16.0583 51.1836 16.1768L51.6025 16.3926H53.71C53.9893 16.4349 54.1289 16.5745 54.1289 16.8115V17.6494L53.9131 18.9062L54.1289 19.3252C54.1289 20.6286 52.377 21.3988 48.873 21.6357V22.0547H50.3457C50.4896 22.0547 50.5615 22.1266 50.5615 22.2705L54.751 21.6357C55.0218 21.7796 55.2334 21.8516 55.3857 21.8516V22.0547C55.3857 22.901 54.8949 23.3242 53.9131 23.3242C52.2373 23.4258 51.3994 23.5654 51.3994 23.7432C51.2555 23.7432 51.1836 23.6712 51.1836 23.5273L48.6699 23.7432H48.251C47.7262 23.7432 47.3073 22.973 46.9941 21.4326C46.9941 20.6032 48.4626 20.1123 51.3994 19.96C52.0934 19.6045 52.4404 19.3252 52.4404 19.1221V18.2842L52.2373 17.8652L47.1973 18.7031L46.9941 18.2842V17.4463C48.9492 17.0231 49.9268 16.6719 49.9268 16.3926V14.7168C49.3682 14.7168 49.0889 14.6449 49.0889 14.501C45.4749 15.0596 43.4437 15.3389 42.9951 15.3389C42.7158 15.3389 42.5762 15.1992 42.5762 14.9199V14.7168C42.5762 13.7604 46.6344 13.1299 54.751 12.8252ZM70.0137 4.23047L70.4326 4.85254C70.2972 5.80892 70.2295 6.5791 70.2295 7.16309C70.2295 7.30697 70.2972 7.37891 70.4326 7.37891L70.2295 7.79785V10.5146H72.1084C72.3877 10.5654 72.5273 10.7093 72.5273 10.9463C72.5273 11.4456 72.32 11.8646 71.9053 12.2031L71.4863 11.9873H70.6484L70.2295 12.2031L70.4326 13.2441V13.6631L70.2295 14.082H70.4326C70.1618 14.7253 69.8825 15.0765 69.5947 15.1357C69.0361 15.1357 68.7568 13.2484 68.7568 9.47363V6.95996C68.7568 5.1403 69.1758 4.23047 70.0137 4.23047ZM65.1895 5.27148V5.4873L65.6084 5.27148H66.2432C66.6579 5.27148 66.8652 5.55078 66.8652 6.10938C64.7663 9.18164 63.7168 10.9336 63.7168 11.3652C66.2389 12.4147 67.5 13.2526 67.5 13.8789V14.082L66.8652 14.501H66.4463C64.3727 13.1045 63.0439 12.4062 62.46 12.4062C62.2399 13.3288 61.5417 14.3783 60.3652 15.5547H59.9463C59.6247 15.5547 59.4131 15.2035 59.3115 14.501C59.5739 14.4502 61.3216 12.0042 64.5547 7.16309V6.74414C62.5319 6.74414 59.9463 6.95573 56.7979 7.37891L56.3789 6.74414V6.3252C56.7259 5.62272 59.6628 5.27148 65.1895 5.27148ZM69.1758 16.3926H70.8516C71.1309 16.4349 71.2705 16.5745 71.2705 16.8115C71.2705 16.8792 71.0632 17.6494 70.6484 19.1221V22.6895C70.276 23.375 69.9967 23.7262 69.8105 23.7432H69.3916C69.1885 23.7432 68.9769 23.5316 68.7568 23.1084C68.8923 22.6683 68.96 20.9883 68.96 18.0684C68.6891 17.9329 68.4818 17.8652 68.3379 17.8652C64.5293 18.5592 62.57 18.9062 62.46 18.9062C62.1807 18.5677 62.041 18.2884 62.041 18.0684C62.041 17.4421 63.721 17.0231 67.0811 16.8115C67.0811 16.5661 67.7793 16.4264 69.1758 16.3926ZM85.2412 0.0410156C85.8083 0.252604 86.0918 0.464193 86.0918 0.675781C85.8464 1.05664 85.6348 1.96647 85.457 3.40527L85.876 3.6084H89.2275C89.4307 3.6084 89.6423 3.81999 89.8623 4.24316C89.346 5.12337 88.7155 5.96126 87.9707 6.75684V6.95996C89.7904 7.56934 90.7002 8.06022 90.7002 8.43262V9.06738C90.7002 9.34668 90.5605 9.48633 90.2812 9.48633H89.8623C88.432 8.50456 87.3825 8.01367 86.7139 8.01367H86.5107C83.887 10.3496 82.4863 11.9577 82.3086 12.8379C82.0632 12.9733 81.7839 13.041 81.4707 13.041C81.1914 13.041 81.0518 12.9014 81.0518 12.6221V12C83.6331 9.08854 85.1016 7.34082 85.457 6.75684C85.457 6.28288 85.9479 5.93164 86.9297 5.70312L87.3486 5.08105V4.86523L85.876 5.08105C85.7236 5.08105 85.512 5.00911 85.2412 4.86523C85.0465 5.00911 83.3031 5.08105 80.0107 5.08105L79.7949 4.66211C80.0573 3.95964 80.6159 3.6084 81.4707 3.6084H84.2002V2.35156C84.4118 0.811198 84.7588 0.0410156 85.2412 0.0410156ZM87.3486 9.27051H87.5518L88.1865 9.68945C87.7633 10.7305 87.5518 11.6403 87.5518 12.4189H91.335C91.6143 12.4613 91.7539 12.6009 91.7539 12.8379V13.4727C91.7539 13.5742 91.5423 13.7816 91.1191 14.0947C90.9668 14.0947 90.7552 14.027 90.4844 13.8916C88.6478 13.9001 86.1341 14.1074 82.9434 14.5137H82.5244C82.2451 14.5137 82.1055 14.374 82.1055 14.0947V13.4727C83.1042 13.1003 84.4329 12.749 86.0918 12.4189C86.278 10.32 86.6969 9.27051 87.3486 9.27051ZM87.3486 15.7705H87.9707C89.6465 16.1598 90.4844 16.93 90.4844 18.0811C89.9512 20.7386 88.7663 22.0674 86.9297 22.0674C84.6868 21.5426 83.5654 20.5651 83.5654 19.1348C83.5654 17.6452 84.8265 16.5238 87.3486 15.7705ZM85.2412 18.9189V19.3379C85.766 20.1758 86.3965 20.5947 87.1328 20.5947C88.3939 19.943 89.0244 19.1729 89.0244 18.2842C88.7451 17.5902 88.2542 17.2432 87.5518 17.2432C86.807 17.2432 86.0368 17.8018 85.2412 18.9189ZM104.274 3.5957H104.693C104.896 3.5957 105.108 3.80729 105.328 4.23047C104.88 10.9421 104.528 14.2979 104.274 14.2979L103.652 14.7168C103.297 14.7168 103.085 14.4375 103.018 13.8789C103.441 10.5866 103.652 8.76693 103.652 8.41992L103.437 7.58203C103.53 4.92448 103.809 3.5957 104.274 3.5957ZM98.4092 4.01465H100.504C100.783 4.05697 100.923 4.19661 100.923 4.43359V5.06836C100.457 6.10091 99.6872 7.29004 98.6123 8.63574V9.25781C100.203 10.9421 101.465 11.7842 102.396 11.7842V11.9873C102.396 12.6898 102.116 13.1087 101.558 13.2441L97.3555 10.5146C96.6191 12.0212 95.7812 13.2822 94.8418 14.2979C94.4186 14.1963 94.1393 13.917 94.0039 13.46C96.196 10.1507 97.7321 7.56087 98.6123 5.69043V5.4873H98.4092L92.9502 6.3252L92.5312 5.69043V5.06836C92.5312 4.56901 94.4906 4.21777 98.4092 4.01465ZM103.018 15.1357L103.437 15.7705V16.8115C103.301 20.307 102.882 22.0547 102.18 22.0547H100.085L97.9902 22.2705C97.2878 21.7119 96.9365 20.1038 96.9365 17.4463C97.0804 16.1852 97.3597 15.5547 97.7744 15.5547H98.1934C98.4727 15.597 98.6123 15.7367 98.6123 15.9736V16.3926L98.4092 17.4463L98.8281 17.6494H99.0312C100.851 17.6494 101.761 17.3701 101.761 16.8115C101.761 15.6943 102.18 15.1357 103.018 15.1357ZM98.4092 19.541C98.5446 19.7865 98.6123 20.0658 98.6123 20.3789H100.923C101.202 20.3789 101.481 19.96 101.761 19.1221C101.625 19.1221 101.558 19.0501 101.558 18.9062C99.6956 19.0501 98.6462 19.2617 98.4092 19.541ZM111.349 1.7041H111.564C111.844 1.75488 111.983 1.89453 111.983 2.12305V3.5957L112.187 4.85254C112.051 5.12337 111.983 5.33496 111.983 5.4873H112.187C112.762 5.4873 113.951 5.34766 115.754 5.06836C116.033 5.4069 116.173 5.6862 116.173 5.90625C115.961 6.46484 115.754 6.74414 115.551 6.74414H115.132C114.26 6.74414 111.67 6.95573 107.362 7.37891H106.74C106.63 7.37891 106.419 7.16732 106.105 6.74414C106.105 6.37174 106.457 6.02051 107.159 5.69043C107.887 5.83431 108.306 5.90625 108.416 5.90625C109.812 5.90625 110.511 5.55501 110.511 4.85254C110.604 2.75358 110.883 1.7041 111.349 1.7041ZM118.902 4.85254L119.321 5.4873C118.898 6.40983 118.687 7.04036 118.687 7.37891V9.47363H119.74L120.794 9.67676V10.5146C120.794 10.8024 120.091 11.014 118.687 11.1494V13.2441C118.687 13.7181 118.479 14.209 118.064 14.7168C118.344 14.7591 118.483 14.8988 118.483 15.1357C118.34 17.057 117.921 18.8047 117.227 20.3789H117.011C116.596 20.3789 116.389 20.3112 116.389 20.1758C116.135 20.3112 115.013 20.3789 113.024 20.3789C112.61 19.6595 112.402 18.3307 112.402 16.3926C112.538 15.5547 112.745 15.1357 113.024 15.1357H113.659C113.938 15.1781 114.078 15.3177 114.078 15.5547V15.7705L113.862 16.8115L114.281 17.0273H115.551C116.524 17.0273 117.011 16.3249 117.011 14.9199L117.43 14.7168L117.227 13.2441V12.8252C117.227 7.51009 117.713 4.85254 118.687 4.85254H118.902ZM110.93 7.79785C113.587 7.79785 114.916 8.63574 114.916 10.3115V11.3652C114.916 13.1764 113.659 14.2936 111.146 14.7168C109.461 14.7168 108.479 13.5277 108.2 11.1494C108.395 9.89681 109.237 8.77962 110.727 7.79785H110.93ZM109.673 11.3652V11.9873C110.028 12.8252 110.587 13.2441 111.349 13.2441C112.745 13.0579 113.443 12.3597 113.443 11.1494V10.0957C113.443 9.90104 113.096 9.62174 112.402 9.25781C110.583 9.40169 109.673 10.1042 109.673 11.3652ZM115.132 18.4873H114.497V18.9062H115.132L116.173 18.7031V18.2842L115.132 18.4873ZM132.479 1.51367C132.615 1.51367 132.683 1.58561 132.683 1.72949C132.835 1.72949 133.047 1.65755 133.317 1.51367C137.092 2.10612 138.979 3.71419 138.979 6.33789C138.979 8.32682 137.579 10.0026 134.777 11.3652H134.574V11.5811H138.561C138.561 11.7249 138.628 11.9323 138.764 12.2031C138.484 12.7786 138.345 13.1976 138.345 13.46H138.561C138.84 13.46 138.979 13.3203 138.979 13.041V12.4189C139.284 8.9235 139.771 7.17578 140.439 7.17578H140.858C141.138 7.17578 141.277 7.38314 141.277 7.79785C140.863 9.47363 140.516 11.2214 140.236 13.041L140.439 13.46V15.1357C140.439 16.2106 140.16 16.8411 139.602 17.0273H139.398C139.288 17.0273 139.077 16.8158 138.764 16.3926L138.979 15.9736V15.3516C138.979 15.0723 138.84 14.9326 138.561 14.9326H137.723C135.7 15.2119 134.65 15.3516 134.574 15.3516L134.358 14.9326V14.5137C134.358 13.9551 135.268 13.6038 137.088 13.46V13.2568L136.034 13.041C134.502 13.041 133.736 13.2526 133.736 13.6758V16.6084C133.736 16.9215 133.804 17.2008 133.939 17.4463C133.804 18.0049 133.457 18.2842 132.898 18.2842L132.264 17.4463V13.8789L132.061 13.46C131.714 13.46 130.736 13.5996 129.128 13.8789C128.569 13.6758 128.29 13.4684 128.29 13.2568V12.8379C128.29 12.3809 130.105 12.0296 133.736 11.7842V11.5811C129.962 11.0563 128.074 9.30859 128.074 6.33789C128.354 4.94141 129.263 3.47298 130.804 1.93262C131.921 1.83952 132.479 1.69987 132.479 1.51367ZM129.75 6.33789V6.95996C129.75 8.46647 130.939 9.44824 133.317 9.90527H133.939C135.124 9.90527 136.246 8.9235 137.304 6.95996V6.75684C137.304 4.37858 136.254 3.18945 134.155 3.18945H132.061C130.52 4.14583 129.75 5.19531 129.75 6.33789ZM142.331 6.75684C142.89 6.89225 143.169 7.3112 143.169 8.01367V8.43262L141.912 15.9736C142.191 16.5492 142.331 16.9723 142.331 17.2432C142.331 20.5947 141.912 22.2705 141.074 22.2705C140.245 22.2705 138.916 22.4102 137.088 22.6895C136.529 22.1309 136.25 21.0137 136.25 19.3379C136.25 17.7975 136.741 17.0273 137.723 17.0273L138.142 17.6621L137.926 18.9189C139.745 18.8174 140.655 18.6058 140.655 18.2842V17.6621C141.112 10.3919 141.671 6.75684 142.331 6.75684ZM137.926 20.7979C138.07 20.7979 138.142 20.8698 138.142 21.0137C139.674 20.8698 140.439 20.6582 140.439 20.3789V19.96H140.236C138.696 20.1715 137.926 20.4508 137.926 20.7979ZM159.27 2.55469L159.485 2.97363C159.485 3.69303 159.274 4.11198 158.851 4.23047C150.743 4.23047 146.688 4.57747 146.688 5.27148C146.545 5.54232 146.473 5.75391 146.473 5.90625C146.617 6.64258 146.688 7.34082 146.688 8.00098C150.015 7.58626 153.231 7.30697 156.337 7.16309C156.472 7.43392 156.54 7.64551 156.54 7.79785C156.337 8.35645 156.13 8.63574 155.918 8.63574H155.499C151.64 8.63574 148.771 8.98275 146.892 9.67676L147.526 12.2031C148.297 12.2031 151.301 11.8519 156.54 11.1494H157.594C157.797 11.1494 158.008 11.361 158.229 11.7842C157.958 12.4189 157.678 12.766 157.391 12.8252H155.08C149.765 13.2061 147.107 13.625 147.107 14.082C146.363 14.082 145.732 11.7757 145.216 7.16309V5.90625C144.378 5.36458 143.959 5.01335 143.959 4.85254C143.959 3.70996 148.644 3.01172 158.013 2.75781C158.013 2.6224 158.432 2.55469 159.27 2.55469ZM158.229 14.082L158.432 14.501C158.432 15.2035 158.292 15.5547 158.013 15.5547C155.558 15.6986 154.09 15.7705 153.607 15.7705L153.404 16.1895V19.541C153.404 19.7441 153.193 19.9557 152.77 20.1758C152.211 19.9473 151.932 19.4564 151.932 18.7031V15.9736C149.486 16.2529 147.107 16.6042 144.797 17.0273L144.378 16.3926C144.378 15.4531 148.644 14.7549 157.175 14.2979C157.175 14.154 157.526 14.082 158.229 14.082ZM148.783 18.2842H149.837C149.837 18.5635 149.905 18.7031 150.04 18.7031L149.837 19.7568C149.972 20.9756 150.04 21.6738 150.04 21.8516C151.064 21.8516 153.582 21.4326 157.594 20.5947C158.152 20.7301 158.432 21.0094 158.432 21.4326C158.432 21.915 157.801 22.262 156.54 22.4736L156.121 22.2705L149.202 23.5273C148.787 22.8587 148.58 21.8092 148.58 20.3789V19.3379L148.783 18.2842Z" fill="#222222"/>
</svg>
