<svg width="149" height="24" viewBox="0 0 149 24" fill="none" xmlns="http://www.w3.org/2000/svg">
<path d="M7.0459 0.891602C9.84733 1.92415 11.248 3.10905 11.248 4.44629V5.91895C11.248 8.88118 9.91927 10.7686 7.26172 11.5811H6.42383C3.41927 11.5811 1.5319 10.2523 0.761719 7.59473V6.12207C0.761719 4.15853 2.4375 2.48275 5.78906 1.09473L7.0459 0.891602ZM2.23438 6.75684C2.23438 8.74577 3.77051 9.86296 6.84277 10.1084C8.94173 9.36361 9.99121 7.82747 9.99121 5.5V5.28418C9.99121 3.98926 8.86979 3.08366 6.62695 2.56738C4.90039 2.56738 3.50391 3.61263 2.4375 5.70312C2.30208 5.9401 2.23438 6.29134 2.23438 6.75684ZM11.248 12C11.8066 12.2031 12.0859 12.4105 12.0859 12.6221V13.2568C12.0859 13.46 11.8743 13.6673 11.4512 13.8789H10.8291L8.30273 13.6758L8.09961 14.0947V15.5547C8.14193 15.834 8.28158 15.9736 8.51855 15.9736H10.1943C10.3382 15.9736 10.4102 15.9059 10.4102 15.7705L11.4512 16.3926C11.4512 19.194 10.6133 20.5947 8.9375 20.5947C7.39714 20.5947 6.06836 20.7344 4.95117 21.0137V22.0547H8.09961C10.1393 21.7754 11.2565 21.6357 11.4512 21.6357L11.8701 22.2705C11.7347 22.9645 11.4554 23.3115 11.0322 23.3115C9.47493 23.3115 7.10091 23.5231 3.91016 23.9463C3.48698 23.2269 3.27539 22.5286 3.27539 21.8516V21.4326C3.27539 20.1715 3.90592 19.541 5.16699 19.541C8.10384 19.3802 9.57227 19.0332 9.57227 18.5V17.4463H8.51855C5.02311 17.4801 3.27539 17.6198 3.27539 17.8652C2.7168 17.6536 2.4375 17.4463 2.4375 17.2432V17.0273C2.4375 16.4434 3.83398 16.0921 6.62695 15.9736V13.8789H6.42383C3.72396 14.0228 2.11589 14.2344 1.59961 14.5137C1.04102 14.3698 0.761719 13.9508 0.761719 13.2568C0.761719 12.8844 3.20768 12.5332 8.09961 12.2031H11.0322C11.1761 12.2031 11.248 12.1354 11.248 12ZM25.0254 2.75781C25.2962 2.90169 25.5078 2.97363 25.6602 2.97363V3.17676C25.6602 3.68457 25.4486 4.10352 25.0254 4.43359L23.7686 4.23047C18.5973 4.23047 16.0117 4.50977 16.0117 5.06836C15.8678 5.61003 15.7959 6.16862 15.7959 6.74414C15.9398 7.97135 16.0117 8.6696 16.0117 8.83887C18.6185 8.65267 20.015 8.51302 20.2012 8.41992C20.3451 8.41992 20.417 8.49186 20.417 8.63574C22.8291 8.35645 24.2975 8.2168 24.8223 8.2168L25.0254 8.63574V9.05469C25.0254 9.25781 24.818 9.46517 24.4033 9.67676C19.0882 9.82064 16.4307 10.0999 16.4307 10.5146V10.7305C16.4307 11.3398 16.5703 11.8984 16.8496 12.4062C18.6354 11.9915 21.221 11.5049 24.6064 10.9463C24.8857 11.2848 25.0254 11.5641 25.0254 11.7842C24.89 12.055 24.8223 12.2624 24.8223 12.4062H23.9844L22.9307 12.6221V12.4062C18.8851 13.388 16.5788 13.8789 16.0117 13.8789C15.0299 11.7376 14.5391 9.29167 14.5391 6.54102V5.27148C14.5391 4.99219 13.9805 4.78483 12.8633 4.64941V4.01465C12.8633 3.32064 16.0117 2.97363 22.3086 2.97363H24.1875C24.5091 2.97363 24.7884 2.90169 25.0254 2.75781ZM26.0791 15.3516L26.2949 15.7705C26.2949 16.2699 26.0833 16.6888 25.6602 17.0273C25.5078 17.0273 25.2962 16.9554 25.0254 16.8115C21.1152 17.0908 17.8991 17.4421 15.377 17.8652C14.8184 17.6536 14.5391 17.4421 14.5391 17.2305V16.8115C14.5391 16.5322 14.7507 16.3926 15.1738 16.3926L26.0791 15.3516ZM39.0312 4.01465C39.4883 4.15853 39.7676 4.43783 39.8691 4.85254C39.3105 6.25749 39.0312 7.9375 39.0312 9.89258C39.1751 9.89258 39.2471 9.96452 39.2471 10.1084C40.3643 9.91374 40.9229 9.70215 40.9229 9.47363C41.5576 9.74447 41.9089 10.0238 41.9766 10.3115V10.5273C41.9766 11.0859 40.9948 11.4329 39.0312 11.5684L38.8281 12.6221V13.041L39.0312 15.5547L38.1934 16.1895H37.5586L37.3555 15.3516C37.3555 7.79362 37.9141 4.01465 39.0312 4.01465ZM35.0449 4.23047C35.6035 4.36589 35.8828 4.78483 35.8828 5.4873V7.79785L36.0986 10.3115C35.5231 11.1494 33.8431 11.5684 31.0586 11.5684H30.4238L30.2207 11.9873V12.8379C30.2546 13.5319 30.3942 13.8789 30.6396 13.8789L35.6797 13.2568L36.0986 13.8789C36.0986 14.7168 35.1169 15.1357 33.1533 15.1357C32.5101 15.1357 31.2533 15.3473 29.3828 15.7705C28.8242 14.3402 28.5449 13.0791 28.5449 11.9873V11.3652C28.5449 10.7051 30.4323 10.1465 34.207 9.68945C34.3509 9.41862 34.4229 9.20703 34.4229 9.05469C34.279 7.29427 34.207 6.24479 34.207 5.90625H33.9912L27.2881 6.3252L27.0723 5.4873C27.0723 4.97103 29.5902 4.55208 34.626 4.23047H35.0449ZM57.2266 3.39258H57.6455C57.9248 3.4349 58.0645 3.57454 58.0645 3.81152C57.7259 10.8024 57.3789 14.2979 57.0234 14.2979H56.6045L55.9697 13.8789C56.249 11.8984 56.3887 10.4977 56.3887 9.67676H56.1855C54.9245 9.67676 54.2939 10.2396 54.2939 11.3652C54.1924 13.1764 53.9808 14.082 53.6592 14.082H53.0371L52.8213 13.2441C52.8213 6.95573 53.2402 3.81152 54.0781 3.81152H54.4971C54.7764 3.85384 54.916 3.99349 54.916 4.23047C54.6367 6.69336 54.4294 8.16178 54.2939 8.63574H54.4971C54.8525 8.63574 55.4831 8.49609 56.3887 8.2168C56.5495 5.00065 56.8288 3.39258 57.2266 3.39258ZM51.5645 3.5957C51.7083 3.86654 51.7803 4.07812 51.7803 4.23047C51.501 6.60026 51.3613 7.99674 51.3613 8.41992C51.3613 8.57227 51.429 8.78385 51.5645 9.05469C51.3952 12.9648 51.0439 14.9199 50.5107 14.9199H50.3076C50.1976 14.9199 49.986 14.7126 49.6729 14.2979L49.8887 13.8789V10.0957C49.6094 10.0957 47.722 10.3792 44.2266 10.9463L44.0107 10.5146V10.3115C44.0107 9.60905 45.8981 9.11816 49.6729 8.83887C49.9521 8.5765 50.1637 7.24772 50.3076 4.85254C47.193 5.13184 44.9544 5.27148 43.5918 5.27148V5.4873C43.0332 5.27572 42.7539 5.06413 42.7539 4.85254C42.7539 4.01465 44.9206 3.5957 49.2539 3.5957H51.5645ZM55.7666 14.9199H56.1855C56.4648 14.9707 56.6045 15.1146 56.6045 15.3516V15.9736C56.6045 16.473 56.5326 17.1035 56.3887 17.8652C56.3887 18.0007 56.4606 18.0684 56.6045 18.0684L56.3887 19.541V21.0137C56.3887 21.1491 56.4606 21.2168 56.6045 21.2168L55.9697 22.6895L55.1318 22.4736C54.277 22.4736 52.8086 22.6133 50.7266 22.8926C50.4473 22.8926 50.168 21.0771 49.8887 17.4463V16.6084C49.8887 16.4053 50.096 16.1937 50.5107 15.9736H50.9297C51.2174 15.9736 51.3613 16.1852 51.3613 16.6084L51.1455 18.0684H51.5645C52.3008 18.0684 53.4899 18.0007 55.1318 17.8652C55.2334 15.9017 55.445 14.9199 55.7666 14.9199ZM51.3613 19.96C51.3613 20.2308 51.501 20.7217 51.7803 21.4326L52.8213 21.2168H54.7129C54.9922 21.2168 55.1318 21.0771 55.1318 20.7979V19.3252C52.6182 19.3252 51.3613 19.5368 51.3613 19.96ZM63.0312 3.41797C63.3613 3.41797 64.0596 3.97656 65.126 5.09375C68.6214 7.18424 70.3691 8.30143 70.3691 8.44531V8.64844C70.2253 8.91927 70.1533 9.13086 70.1533 9.2832H69.7344C69.2604 9.2832 67.2376 8.16602 63.666 5.93164C62.9212 6.48177 61.804 8.36491 60.3145 11.5811L60.5176 12C60.3822 12.5586 60.1029 12.8379 59.6797 12.8379C59.4596 12.8379 59.1803 12.5586 58.8418 12C58.8926 11.0859 60.0817 8.71191 62.4092 4.87793V4.45898C62.4092 4.32357 62.3372 4.25586 62.1934 4.25586C62.3372 3.69727 62.6165 3.41797 63.0312 3.41797ZM63.666 9.70215C63.9368 9.83757 64.1442 9.90527 64.2881 9.90527C64.0088 11.9535 63.8691 13.0749 63.8691 13.2695V14.5264C63.9115 14.8057 64.0511 14.9453 64.2881 14.9453H64.9229C65.2021 13.0664 65.3418 11.8773 65.3418 11.3779V10.54C65.3418 10.3369 65.5492 10.1253 65.9639 9.90527C66.5225 9.98991 66.8018 10.5485 66.8018 11.5811C66.8018 11.8434 66.5225 12.9648 65.9639 14.9453L69.7344 14.5264C70.293 14.7295 70.5723 14.9368 70.5723 15.1484V15.5674C70.5723 15.9229 69.946 16.2021 68.6934 16.4053C68.4141 16.4053 68.2744 16.3376 68.2744 16.2021C66.8779 16.3376 65.8285 16.4053 65.126 16.4053H60.0986C59.887 16.4053 59.6797 16.126 59.4766 15.5674C59.8151 15.195 60.8604 14.9157 62.6123 14.7295L62.4092 14.3105V13.0537C62.4092 11.234 62.8281 10.1169 63.666 9.70215ZM66.1797 17.2432C67.8555 17.7171 68.6934 18.555 68.6934 19.7568C68.6934 22.4144 67.5762 23.7432 65.3418 23.7432H64.085C62.6885 22.9561 61.9902 21.9785 61.9902 20.8105C62.4727 18.5762 63.5898 17.459 65.3418 17.459C65.5872 17.3151 65.8665 17.2432 66.1797 17.2432ZM63.4502 21.0137C63.738 21.8516 64.2965 22.2705 65.126 22.2705H65.3418C66.5944 22.2705 67.2207 21.7119 67.2207 20.5947V19.5537C67.2207 19.3506 67.0133 19.139 66.5986 18.9189H65.3418C64.3262 18.9189 63.6956 19.6172 63.4502 21.0137ZM84.3525 2.54199L85.3936 3.16406C87.8311 2.88477 89.3037 2.74512 89.8115 2.74512L90.2305 3.37988C90.0866 4.81022 90.0146 5.92741 90.0146 6.73145C90.0146 7.15462 90.0866 7.36621 90.2305 7.36621L90.0146 8.41992V10.9336C90.0146 11.069 89.7354 11.3483 89.1768 11.7715L88.3389 11.3525L88.542 9.87988V4.63672C88.542 4.35742 88.4023 4.21777 88.123 4.21777C86.0241 4.21777 84.9746 4.77637 84.9746 5.89355L84.7715 6.94727C84.9069 7.86979 84.9746 8.77962 84.9746 9.67676V10.5146C84.9746 11.2679 84.6953 11.7588 84.1367 11.9873C83.9336 11.9873 83.722 11.7757 83.502 11.3525V4.4209H83.2988C82.1139 4.4209 80.4339 4.63249 78.2588 5.05566L77.8398 4.4209V4.21777C77.8398 3.61686 79.9388 3.12598 84.1367 2.74512C84.1367 2.6097 84.2087 2.54199 84.3525 2.54199ZM91.6904 12.8252C92.249 12.9606 92.5283 13.2399 92.5283 13.6631L91.9062 14.7168L90.8525 14.501H88.3389C88.195 15.4997 88.123 16.0583 88.123 16.1768L88.542 16.3926H90.6494C90.9287 16.4349 91.0684 16.5745 91.0684 16.8115V17.6494L90.8525 18.9062L91.0684 19.3252C91.0684 20.6286 89.3164 21.3988 85.8125 21.6357V22.0547H87.2852C87.429 22.0547 87.501 22.1266 87.501 22.2705L91.6904 21.6357C91.9613 21.7796 92.1729 21.8516 92.3252 21.8516V22.0547C92.3252 22.901 91.8343 23.3242 90.8525 23.3242C89.1768 23.4258 88.3389 23.5654 88.3389 23.7432C88.195 23.7432 88.123 23.6712 88.123 23.5273L85.6094 23.7432H85.1904C84.6657 23.7432 84.2467 22.973 83.9336 21.4326C83.9336 20.6032 85.402 20.1123 88.3389 19.96C89.0329 19.6045 89.3799 19.3252 89.3799 19.1221V18.2842L89.1768 17.8652L84.1367 18.7031L83.9336 18.2842V17.4463C85.8887 17.0231 86.8662 16.6719 86.8662 16.3926V14.7168C86.3076 14.7168 86.0283 14.6449 86.0283 14.501C82.4144 15.0596 80.3831 15.3389 79.9346 15.3389C79.6553 15.3389 79.5156 15.1992 79.5156 14.9199V14.7168C79.5156 13.7604 83.5739 13.1299 91.6904 12.8252ZM109.048 2.97363L109.467 3.5957C109.188 5.79622 108.98 8.52572 108.845 11.7842C108.98 11.9619 109.048 12.4486 109.048 13.2441C109.048 13.4303 108.701 13.7816 108.007 14.2979H107.791C107.512 14.2979 107.372 14.1582 107.372 13.8789C107.372 13.752 107.444 13.1934 107.588 12.2031L107.372 11.7842L107.588 10.5146V9.67676L107.372 9.25781C106.822 9.40169 106.331 9.61328 105.899 9.89258L106.115 10.9463C105.971 11.6742 105.899 12.0931 105.899 12.2031C106.043 12.474 106.115 12.6813 106.115 12.8252C105.971 13.3838 105.62 13.6631 105.062 13.6631C104.647 13.0537 104.439 12.5671 104.439 12.2031C104.439 11.9238 104.507 11.7842 104.643 11.7842L104.439 9.67676V9.25781C104.541 5.20378 104.96 3.17676 105.696 3.17676H106.115C106.395 3.21908 106.534 3.35872 106.534 3.5957V4.01465C106.111 5.83431 105.899 7.02344 105.899 7.58203V8.00098H107.169C107.558 8.00098 107.838 6.53255 108.007 3.5957C108.337 3.18099 108.684 2.97363 109.048 2.97363ZM100.237 4.23047L100.656 4.43359H101.71C101.854 4.43359 101.926 4.36589 101.926 4.23047C102.087 4.23047 102.434 4.43783 102.967 4.85254C102.366 6.15592 101.177 7.90365 99.3994 10.0957V10.5146C101.566 11.9196 102.688 12.7617 102.764 13.041V13.2441C102.764 13.4473 102.552 13.6589 102.129 13.8789C101.621 13.8789 100.432 13.1087 98.5615 11.5684H98.1426C97.9648 12.5586 97.2666 13.5361 96.0479 14.501H95.832C95.5527 14.501 95.4131 14.3613 95.4131 14.082V13.8789C95.4131 13.2949 96.8815 11.0563 99.8184 7.16309C100.377 6.53678 100.656 6.0459 100.656 5.69043H100.034L98.7773 5.90625C98.6335 5.90625 98.5615 5.83431 98.5615 5.69043L94.1562 6.3252C93.7415 6.22363 93.4622 5.94434 93.3184 5.4873C93.3184 4.87793 94.5752 4.52669 97.0889 4.43359V4.64941L97.5078 4.43359H100.034C100.17 4.43359 100.237 4.36589 100.237 4.23047ZM100.237 15.9736H106.953L107.372 16.1895C107.237 17.5859 107.169 18.6312 107.169 19.3252L107.372 20.5947C107.211 21.1195 106.864 21.6061 106.331 22.0547L105.899 21.8516H105.062C102.387 22.4102 100.851 22.6895 100.453 22.6895C99.9961 22.6895 99.6449 20.9417 99.3994 17.4463C99.6449 16.4645 99.9242 15.9736 100.237 15.9736ZM101.926 17.4463H101.291C101.012 17.4463 100.872 17.6536 100.872 18.0684C100.974 20.0319 101.253 21.0137 101.71 21.0137C103.411 20.7344 104.389 20.5228 104.643 20.3789C104.888 20.5228 105.167 20.5947 105.48 20.5947L105.696 20.1758V17.6494L105.48 17.2305C103.839 17.3743 102.654 17.4463 101.926 17.4463ZM121.14 1.51367C121.275 1.51367 121.343 1.58561 121.343 1.72949C121.495 1.72949 121.707 1.65755 121.978 1.51367C125.752 2.10612 127.64 3.71419 127.64 6.33789C127.64 8.32682 126.239 10.0026 123.438 11.3652H123.234V11.5811H127.221C127.221 11.7249 127.288 11.9323 127.424 12.2031C127.145 12.7786 127.005 13.1976 127.005 13.46H127.221C127.5 13.46 127.64 13.3203 127.64 13.041V12.4189C127.944 8.9235 128.431 7.17578 129.1 7.17578H129.519C129.798 7.17578 129.938 7.38314 129.938 7.79785C129.523 9.47363 129.176 11.2214 128.896 13.041L129.1 13.46V15.1357C129.1 16.2106 128.82 16.8411 128.262 17.0273H128.059C127.949 17.0273 127.737 16.8158 127.424 16.3926L127.64 15.9736V15.3516C127.64 15.0723 127.5 14.9326 127.221 14.9326H126.383C124.36 15.2119 123.311 15.3516 123.234 15.3516L123.019 14.9326V14.5137C123.019 13.9551 123.928 13.6038 125.748 13.46V13.2568L124.694 13.041C123.162 13.041 122.396 13.2526 122.396 13.6758V16.6084C122.396 16.9215 122.464 17.2008 122.6 17.4463C122.464 18.0049 122.117 18.2842 121.559 18.2842L120.924 17.4463V13.8789L120.721 13.46C120.374 13.46 119.396 13.5996 117.788 13.8789C117.229 13.6758 116.95 13.4684 116.95 13.2568V12.8379C116.95 12.3809 118.766 12.0296 122.396 11.7842V11.5811C118.622 11.0563 116.734 9.30859 116.734 6.33789C117.014 4.94141 117.924 3.47298 119.464 1.93262C120.581 1.83952 121.14 1.69987 121.14 1.51367ZM118.41 6.33789V6.95996C118.41 8.46647 119.599 9.44824 121.978 9.90527H122.6C123.785 9.90527 124.906 8.9235 125.964 6.95996V6.75684C125.964 4.37858 124.914 3.18945 122.815 3.18945H120.721C119.18 4.14583 118.41 5.19531 118.41 6.33789ZM130.991 6.75684C131.55 6.89225 131.829 7.3112 131.829 8.01367V8.43262L130.572 15.9736C130.852 16.5492 130.991 16.9723 130.991 17.2432C130.991 20.5947 130.572 22.2705 129.734 22.2705C128.905 22.2705 127.576 22.4102 125.748 22.6895C125.189 22.1309 124.91 21.0137 124.91 19.3379C124.91 17.7975 125.401 17.0273 126.383 17.0273L126.802 17.6621L126.586 18.9189C128.406 18.8174 129.315 18.6058 129.315 18.2842V17.6621C129.772 10.3919 130.331 6.75684 130.991 6.75684ZM126.586 20.7979C126.73 20.7979 126.802 20.8698 126.802 21.0137C128.334 20.8698 129.1 20.6582 129.1 20.3789V19.96H128.896C127.356 20.1715 126.586 20.4508 126.586 20.7979ZM147.93 2.55469L148.146 2.97363C148.146 3.69303 147.934 4.11198 147.511 4.23047C139.403 4.23047 135.349 4.57747 135.349 5.27148C135.205 5.54232 135.133 5.75391 135.133 5.90625C135.277 6.64258 135.349 7.34082 135.349 8.00098C138.675 7.58626 141.891 7.30697 144.997 7.16309C145.132 7.43392 145.2 7.64551 145.2 7.79785C144.997 8.35645 144.79 8.63574 144.578 8.63574H144.159C140.3 8.63574 137.431 8.98275 135.552 9.67676L136.187 12.2031C136.957 12.2031 139.961 11.8519 145.2 11.1494H146.254C146.457 11.1494 146.669 11.361 146.889 11.7842C146.618 12.4189 146.339 12.766 146.051 12.8252H143.74C138.425 13.2061 135.768 13.625 135.768 14.082C135.023 14.082 134.392 11.7757 133.876 7.16309V5.90625C133.038 5.36458 132.619 5.01335 132.619 4.85254C132.619 3.70996 137.304 3.01172 146.673 2.75781C146.673 2.6224 147.092 2.55469 147.93 2.55469ZM146.889 14.082L147.092 14.501C147.092 15.2035 146.952 15.5547 146.673 15.5547C144.218 15.6986 142.75 15.7705 142.268 15.7705L142.064 16.1895V19.541C142.064 19.7441 141.853 19.9557 141.43 20.1758C140.871 19.9473 140.592 19.4564 140.592 18.7031V15.9736C138.146 16.2529 135.768 16.6042 133.457 17.0273L133.038 16.3926C133.038 15.4531 137.304 14.7549 145.835 14.2979C145.835 14.154 146.186 14.082 146.889 14.082ZM137.443 18.2842H138.497C138.497 18.5635 138.565 18.7031 138.7 18.7031L138.497 19.7568C138.632 20.9756 138.7 21.6738 138.7 21.8516C139.724 21.8516 142.242 21.4326 146.254 20.5947C146.812 20.7301 147.092 21.0094 147.092 21.4326C147.092 21.915 146.461 22.262 145.2 22.4736L144.781 22.2705L137.862 23.5273C137.448 22.8587 137.24 21.8092 137.24 20.3789V19.3379L137.443 18.2842Z" fill="#222222"/>
</svg>
