<svg width="124" height="23" viewBox="0 0 124 23" fill="none" xmlns="http://www.w3.org/2000/svg">
<path d="M7.27441 1.54199L8.31543 2.16406C10.7529 1.88477 12.2256 1.74512 12.7334 1.74512L13.1523 2.37988C13.0085 3.81022 12.9365 4.92741 12.9365 5.73145C12.9365 6.15462 13.0085 6.36621 13.1523 6.36621L12.9365 7.41992V9.93359C12.9365 10.069 12.6572 10.3483 12.0986 10.7715L11.2607 10.3525L11.4639 8.87988V3.63672C11.4639 3.35742 11.3242 3.21777 11.0449 3.21777C8.94596 3.21777 7.89648 3.77637 7.89648 4.89355L7.69336 5.94727C7.82878 6.86979 7.89648 7.77962 7.89648 8.67676V9.51465C7.89648 10.2679 7.61719 10.7588 7.05859 10.9873C6.85547 10.9873 6.64388 10.7757 6.42383 10.3525V3.4209H6.2207C5.03581 3.4209 3.35579 3.63249 1.18066 4.05566L0.761719 3.4209V3.21777C0.761719 2.61686 2.86068 2.12598 7.05859 1.74512C7.05859 1.6097 7.13053 1.54199 7.27441 1.54199ZM14.6123 11.8252C15.1709 11.9606 15.4502 12.2399 15.4502 12.6631L14.8281 13.7168L13.7744 13.501H11.2607C11.1169 14.4997 11.0449 15.0583 11.0449 15.1768L11.4639 15.3926H13.5713C13.8506 15.4349 13.9902 15.5745 13.9902 15.8115V16.6494L13.7744 17.9062L13.9902 18.3252C13.9902 19.6286 12.2383 20.3988 8.73438 20.6357V21.0547H10.207C10.3509 21.0547 10.4229 21.1266 10.4229 21.2705L14.6123 20.6357C14.8831 20.7796 15.0947 20.8516 15.2471 20.8516V21.0547C15.2471 21.901 14.7562 22.3242 13.7744 22.3242C12.0986 22.4258 11.2607 22.5654 11.2607 22.7432C11.1169 22.7432 11.0449 22.6712 11.0449 22.5273L8.53125 22.7432H8.1123C7.58757 22.7432 7.16862 21.973 6.85547 20.4326C6.85547 19.6032 8.32389 19.1123 11.2607 18.96C11.9548 18.6045 12.3018 18.3252 12.3018 18.1221V17.2842L12.0986 16.8652L7.05859 17.7031L6.85547 17.2842V16.4463C8.81055 16.0231 9.78809 15.6719 9.78809 15.3926V13.7168C9.22949 13.7168 8.9502 13.6449 8.9502 13.501C5.33626 14.0596 3.30501 14.3389 2.85645 14.3389C2.57715 14.3389 2.4375 14.1992 2.4375 13.9199V13.7168C2.4375 12.7604 6.49577 12.1299 14.6123 11.8252ZM29.875 3.23047L30.2939 3.85254C30.1585 4.80892 30.0908 5.5791 30.0908 6.16309C30.0908 6.30697 30.1585 6.37891 30.2939 6.37891L30.0908 6.79785V9.51465H31.9697C32.249 9.56543 32.3887 9.70931 32.3887 9.94629C32.3887 10.4456 32.1813 10.8646 31.7666 11.2031L31.3477 10.9873H30.5098L30.0908 11.2031L30.2939 12.2441V12.6631L30.0908 13.082H30.2939C30.0231 13.7253 29.7438 14.0765 29.4561 14.1357C28.8975 14.1357 28.6182 12.2484 28.6182 8.47363V5.95996C28.6182 4.1403 29.0371 3.23047 29.875 3.23047ZM25.0508 4.27148V4.4873L25.4697 4.27148H26.1045C26.5192 4.27148 26.7266 4.55078 26.7266 5.10938C24.6276 8.18164 23.5781 9.93359 23.5781 10.3652C26.1003 11.4147 27.3613 12.2526 27.3613 12.8789V13.082L26.7266 13.501H26.3076C24.234 12.1045 22.9053 11.4062 22.3213 11.4062C22.1012 12.3288 21.403 13.3783 20.2266 14.5547H19.8076C19.486 14.5547 19.2744 14.2035 19.1729 13.501C19.4352 13.4502 21.1829 11.0042 24.416 6.16309V5.74414C22.3932 5.74414 19.8076 5.95573 16.6592 6.37891L16.2402 5.74414V5.3252C16.5872 4.62272 19.5241 4.27148 25.0508 4.27148ZM29.0371 15.3926H30.7129C30.9922 15.4349 31.1318 15.5745 31.1318 15.8115C31.1318 15.8792 30.9245 16.6494 30.5098 18.1221V21.6895C30.1374 22.375 29.8581 22.7262 29.6719 22.7432H29.2529C29.0498 22.7432 28.8382 22.5316 28.6182 22.1084C28.7536 21.6683 28.8213 19.9883 28.8213 17.0684C28.5505 16.9329 28.3431 16.8652 28.1992 16.8652C24.3906 17.5592 22.4313 17.9062 22.3213 17.9062C22.042 17.5677 21.9023 17.2884 21.9023 17.0684C21.9023 16.4421 23.5824 16.0231 26.9424 15.8115C26.9424 15.5661 27.6406 15.4264 29.0371 15.3926ZM50.5615 2.17676C50.7054 2.44759 50.7773 2.65918 50.7773 2.81152C50.7773 3.514 49.3766 5.54102 46.5752 8.89258V9.0957C47.7432 10.543 49.2835 11.8717 51.1963 13.082V13.501C51.0524 14.068 50.7012 14.3516 50.1426 14.3516C50.1341 14.1992 48.598 12.8704 45.5342 10.3652C44.2477 12.5996 43.4775 13.7168 43.2236 13.7168H42.8047C42.5254 13.7168 42.3857 13.5771 42.3857 13.2979C42.3857 12.9932 43.084 11.6644 44.4805 9.31152C44.4805 8.69368 44.9714 8.2028 45.9531 7.83887L48.4668 4.06836V3.64941H48.2637C44.6159 3.92871 41.8864 4.27572 40.0752 4.69043C39.7959 4.24186 39.6562 3.89486 39.6562 3.64941C39.6562 2.9554 43.2913 2.46452 50.5615 2.17676ZM54.3447 2.39258H54.7637L55.3857 2.81152L54.9668 6.37891C55.1107 6.79362 55.2503 7.00098 55.3857 7.00098L55.1826 8.05469V14.1357C55.1826 14.9229 54.8314 15.4137 54.1289 15.6084C53.8496 15.0498 53.6423 14.7705 53.5068 14.7705L53.71 13.2979V9.51465L53.5068 8.47363C51.3317 8.88835 50.0029 9.0957 49.5205 9.0957L49.3047 8.67676V8.25781C49.3047 7.8431 50.7054 7.42415 53.5068 7.00098L53.71 6.58203V4.06836C53.71 3.03581 53.9215 2.47721 54.3447 2.39258ZM69.3916 2.81152C69.5947 2.81152 69.8063 3.01888 70.0264 3.43359C69.7471 4.75391 69.6074 5.80339 69.6074 6.58203V7.2168L69.3916 7.63574L69.8105 7.83887H71.9053C72.1846 7.83887 72.3242 8.05046 72.3242 8.47363C72.1888 9.03223 71.9095 9.31152 71.4863 9.31152C71.3848 9.31152 70.9658 9.23958 70.2295 9.0957C69.5355 9.0957 69.1885 9.65853 69.1885 10.7842V10.9873L69.3916 13.082C69.0531 13.3613 68.7738 13.501 68.5537 13.501C68.1305 13.4079 67.8512 13.1286 67.7158 12.6631C67.9528 6.09538 68.5114 2.81152 69.3916 2.81152ZM64.9863 3.23047C65.2572 3.36589 65.4688 3.43359 65.6211 3.43359V4.27148C65.6211 4.46615 64.4997 5.86686 62.2568 8.47363V8.89258C62.8493 9.55273 64.1781 10.4626 66.2432 11.6221L66.6621 12.2441C66.6621 12.4473 66.4548 12.6589 66.04 12.8789H65.8242C65.4688 12.8789 64.0003 11.9691 61.4189 10.1494L61 9.94629C59.485 12.2738 58.4355 13.6702 57.8516 14.1357H57.6484C57.4453 14.1357 57.2337 13.9242 57.0137 13.501V13.082C61.0677 7.88542 63.0947 5.16016 63.0947 4.90625H62.8916C61.182 5.18555 59.0153 5.3929 56.3916 5.52832L56.1758 5.10938V4.69043C56.1758 4.15723 58.2747 3.81022 62.4727 3.64941C62.4727 3.50553 63.3105 3.36589 64.9863 3.23047ZM64.1484 14.9736C67.3646 15.3883 68.9727 16.7171 68.9727 18.96C68.1686 21.1943 66.8398 22.3115 64.9863 22.3115H64.5674C62.0537 21.9053 60.7969 20.86 60.7969 19.1758C60.7969 16.9753 61.9141 15.5745 64.1484 14.9736ZM62.4727 18.3252V18.96C62.6504 20.221 63.2767 20.8516 64.3516 20.8516H64.9863C66.6621 20.4622 67.5 19.6921 67.5 18.541C67.5 17.6693 66.5225 16.971 64.5674 16.4463C63.1709 16.6325 62.4727 17.2588 62.4727 18.3252ZM78.1289 0.526367H78.3447C78.5394 0.526367 78.7467 0.737956 78.9668 1.16113L78.7637 2.41797C79.5592 3.21354 81.1631 4.19108 83.5752 5.35059L83.9941 6.18848C83.7233 6.82324 83.444 7.17025 83.1562 7.22949C82.4622 6.3916 81.1377 5.55371 79.1826 4.71582C79.1826 4.63118 78.7637 4.28418 77.9258 3.6748H77.71C76.3558 5.64681 75.099 8.08854 73.9395 11H73.7363C73.5332 11 73.3216 10.7926 73.1016 10.3779V9.95898C73.1016 9.36654 74.151 7.13216 76.25 3.25586C76.25 2.57878 76.8763 1.66895 78.1289 0.526367ZM79.6016 7.64844H80.0205C80.2998 7.69922 80.4395 7.83887 80.4395 8.06738C80.1602 10.9873 80.0205 12.807 80.0205 13.5264C80.1559 13.5264 80.2236 13.5941 80.2236 13.7295L82.3184 13.5264H83.9941C84.2734 13.5687 84.4131 13.7083 84.4131 13.9453V14.7832C84.4131 14.9779 84.2057 15.1852 83.791 15.4053L82.7373 14.9863C82.4157 14.9863 81.3704 15.126 79.6016 15.4053L78.5479 15.2021L75.6152 15.4053L75.4121 14.9863V14.1484L76.4531 13.9453H78.3447C78.624 13.9453 78.7637 13.8057 78.7637 13.5264V11.6348C78.7637 8.97721 79.043 7.64844 79.6016 7.64844ZM96.0986 0.513672C96.234 0.513672 96.3018 0.585612 96.3018 0.729492C96.4541 0.729492 96.6657 0.657552 96.9365 0.513672C100.711 1.10612 102.599 2.71419 102.599 5.33789C102.599 7.32682 101.198 9.0026 98.3965 10.3652H98.1934V10.5811H102.18C102.18 10.7249 102.247 10.9323 102.383 11.2031C102.104 11.7786 101.964 12.1976 101.964 12.46H102.18C102.459 12.46 102.599 12.3203 102.599 12.041V11.4189C102.903 7.9235 103.39 6.17578 104.059 6.17578H104.478C104.757 6.17578 104.896 6.38314 104.896 6.79785C104.482 8.47363 104.135 10.2214 103.855 12.041L104.059 12.46V14.1357C104.059 15.2106 103.779 15.8411 103.221 16.0273H103.018C102.908 16.0273 102.696 15.8158 102.383 15.3926L102.599 14.9736V14.3516C102.599 14.0723 102.459 13.9326 102.18 13.9326H101.342C99.319 14.2119 98.2695 14.3516 98.1934 14.3516L97.9775 13.9326V13.5137C97.9775 12.9551 98.8874 12.6038 100.707 12.46V12.2568L99.6533 12.041C98.1214 12.041 97.3555 12.2526 97.3555 12.6758V15.6084C97.3555 15.9215 97.4232 16.2008 97.5586 16.4463C97.4232 17.0049 97.0762 17.2842 96.5176 17.2842L95.8828 16.4463V12.8789L95.6797 12.46C95.3327 12.46 94.3551 12.5996 92.7471 12.8789C92.1885 12.6758 91.9092 12.4684 91.9092 12.2568V11.8379C91.9092 11.3809 93.7246 11.0296 97.3555 10.7842V10.5811C93.5807 10.0563 91.6934 8.30859 91.6934 5.33789C91.9727 3.94141 92.8825 2.47298 94.4229 0.932617C95.54 0.839518 96.0986 0.69987 96.0986 0.513672ZM93.3691 5.33789V5.95996C93.3691 7.46647 94.5583 8.44824 96.9365 8.90527H97.5586C98.7435 8.90527 99.8649 7.9235 100.923 5.95996V5.75684C100.923 3.37858 99.8734 2.18945 97.7744 2.18945H95.6797C94.1393 3.14583 93.3691 4.19531 93.3691 5.33789ZM105.95 5.75684C106.509 5.89225 106.788 6.3112 106.788 7.01367V7.43262L105.531 14.9736C105.811 15.5492 105.95 15.9723 105.95 16.2432C105.95 19.5947 105.531 21.2705 104.693 21.2705C103.864 21.2705 102.535 21.4102 100.707 21.6895C100.148 21.1309 99.8691 20.0137 99.8691 18.3379C99.8691 16.7975 100.36 16.0273 101.342 16.0273L101.761 16.6621L101.545 17.9189C103.365 17.8174 104.274 17.6058 104.274 17.2842V16.6621C104.731 9.39193 105.29 5.75684 105.95 5.75684ZM101.545 19.7979C101.689 19.7979 101.761 19.8698 101.761 20.0137C103.293 19.8698 104.059 19.6582 104.059 19.3789V18.96H103.855C102.315 19.1715 101.545 19.4508 101.545 19.7979ZM122.889 1.55469L123.104 1.97363C123.104 2.69303 122.893 3.11198 122.47 3.23047C114.362 3.23047 110.308 3.57747 110.308 4.27148C110.164 4.54232 110.092 4.75391 110.092 4.90625C110.236 5.64258 110.308 6.34082 110.308 7.00098C113.634 6.58626 116.85 6.30697 119.956 6.16309C120.091 6.43392 120.159 6.64551 120.159 6.79785C119.956 7.35645 119.749 7.63574 119.537 7.63574H119.118C115.259 7.63574 112.39 7.98275 110.511 8.67676L111.146 11.2031C111.916 11.2031 114.92 10.8519 120.159 10.1494H121.213C121.416 10.1494 121.628 10.361 121.848 10.7842C121.577 11.4189 121.298 11.766 121.01 11.8252H118.699C113.384 12.2061 110.727 12.625 110.727 13.082C109.982 13.082 109.351 10.7757 108.835 6.16309V4.90625C107.997 4.36458 107.578 4.01335 107.578 3.85254C107.578 2.70996 112.263 2.01172 121.632 1.75781C121.632 1.6224 122.051 1.55469 122.889 1.55469ZM121.848 13.082L122.051 13.501C122.051 14.2035 121.911 14.5547 121.632 14.5547C119.177 14.6986 117.709 14.7705 117.227 14.7705L117.023 15.1895V18.541C117.023 18.7441 116.812 18.9557 116.389 19.1758C115.83 18.9473 115.551 18.4564 115.551 17.7031V14.9736C113.105 15.2529 110.727 15.6042 108.416 16.0273L107.997 15.3926C107.997 14.4531 112.263 13.7549 120.794 13.2979C120.794 13.154 121.145 13.082 121.848 13.082ZM112.402 17.2842H113.456C113.456 17.5635 113.524 17.7031 113.659 17.7031L113.456 18.7568C113.591 19.9756 113.659 20.6738 113.659 20.8516C114.683 20.8516 117.201 20.4326 121.213 19.5947C121.771 19.7301 122.051 20.0094 122.051 20.4326C122.051 20.915 121.42 21.262 120.159 21.4736L119.74 21.2705L112.821 22.5273C112.407 21.8587 112.199 20.8092 112.199 19.3789V18.3379L112.402 17.2842Z" fill="#222222"/>
</svg>
