<svg width="137" height="23" viewBox="0 0 137 23" fill="none" xmlns="http://www.w3.org/2000/svg">
<path d="M7.27441 1.54199L8.31543 2.16406C10.7529 1.88477 12.2256 1.74512 12.7334 1.74512L13.1523 2.37988C13.0085 3.81022 12.9365 4.92741 12.9365 5.73145C12.9365 6.15462 13.0085 6.36621 13.1523 6.36621L12.9365 7.41992V9.93359C12.9365 10.069 12.6572 10.3483 12.0986 10.7715L11.2607 10.3525L11.4639 8.87988V3.63672C11.4639 3.35742 11.3242 3.21777 11.0449 3.21777C8.94596 3.21777 7.89648 3.77637 7.89648 4.89355L7.69336 5.94727C7.82878 6.86979 7.89648 7.77962 7.89648 8.67676V9.51465C7.89648 10.2679 7.61719 10.7588 7.05859 10.9873C6.85547 10.9873 6.64388 10.7757 6.42383 10.3525V3.4209H6.2207C5.03581 3.4209 3.35579 3.63249 1.18066 4.05566L0.761719 3.4209V3.21777C0.761719 2.61686 2.86068 2.12598 7.05859 1.74512C7.05859 1.6097 7.13053 1.54199 7.27441 1.54199ZM14.6123 11.8252C15.1709 11.9606 15.4502 12.2399 15.4502 12.6631L14.8281 13.7168L13.7744 13.501H11.2607C11.1169 14.4997 11.0449 15.0583 11.0449 15.1768L11.4639 15.3926H13.5713C13.8506 15.4349 13.9902 15.5745 13.9902 15.8115V16.6494L13.7744 17.9062L13.9902 18.3252C13.9902 19.6286 12.2383 20.3988 8.73438 20.6357V21.0547H10.207C10.3509 21.0547 10.4229 21.1266 10.4229 21.2705L14.6123 20.6357C14.8831 20.7796 15.0947 20.8516 15.2471 20.8516V21.0547C15.2471 21.901 14.7562 22.3242 13.7744 22.3242C12.0986 22.4258 11.2607 22.5654 11.2607 22.7432C11.1169 22.7432 11.0449 22.6712 11.0449 22.5273L8.53125 22.7432H8.1123C7.58757 22.7432 7.16862 21.973 6.85547 20.4326C6.85547 19.6032 8.32389 19.1123 11.2607 18.96C11.9548 18.6045 12.3018 18.3252 12.3018 18.1221V17.2842L12.0986 16.8652L7.05859 17.7031L6.85547 17.2842V16.4463C8.81055 16.0231 9.78809 15.6719 9.78809 15.3926V13.7168C9.22949 13.7168 8.9502 13.6449 8.9502 13.501C5.33626 14.0596 3.30501 14.3389 2.85645 14.3389C2.57715 14.3389 2.4375 14.1992 2.4375 13.9199V13.7168C2.4375 12.7604 6.49577 12.1299 14.6123 11.8252ZM23.7939 3.86523C25.0465 3.86523 25.6729 4.14453 25.6729 4.70312C25.4443 9.73893 24.9577 12.2568 24.2129 12.2568H23.5781L23.9971 5.75684C23.8617 5.75684 23.7939 5.6849 23.7939 5.54102C20.2308 5.6849 17.7848 5.96419 16.4561 6.37891L16.2402 5.95996V5.33789C16.2402 5.11784 16.5195 4.83854 17.0781 4.5H17.4971C19.4352 4.5 21.5342 4.28841 23.7939 3.86523ZM27.9834 5.12207C28.1273 5.54525 28.2669 5.75684 28.4023 5.75684C28.123 6.87402 27.9834 8.2028 27.9834 9.74316V10.3652C28.0257 10.6445 28.1654 10.7842 28.4023 10.7842L28.8213 10.5811C29.3799 10.7926 29.6592 11 29.6592 11.2031V11.6221C29.6592 11.986 29.0329 12.2695 27.7803 12.4727V15.8242C27.7803 16.1035 27.6406 16.2432 27.3613 16.2432H26.9297C26.515 16.1585 26.3076 15.5999 26.3076 14.5674V13.9326H26.0918L25.4697 14.3516H25.0508C24.9069 14.3516 24.835 14.2839 24.835 14.1484C23.0238 14.707 20.5101 15.126 17.2939 15.4053L17.0781 14.9863V14.7705C17.0781 14.3981 18.0557 13.9115 20.0107 13.3105V10.7842C20.0107 10.5895 20.2223 10.3822 20.6455 10.1621H21.0645C21.3438 10.2044 21.4834 10.3441 21.4834 10.5811V12.6758L21.2676 13.0947L21.6865 13.3105C24.2256 12.752 25.6263 12.4727 25.8887 12.4727H26.3076C26.3076 7.57227 26.7985 5.12207 27.7803 5.12207H27.9834ZM24.835 16.2432C26.4515 16.2432 27.4333 16.9414 27.7803 18.3379V18.5537C27.3825 21.0674 26.2611 22.3242 24.416 22.3242C24.1875 22.4596 23.8405 22.5273 23.375 22.5273C21.9701 21.9349 21.2676 21.1689 21.2676 20.2295V19.5947C21.2676 17.665 22.4567 16.5479 24.835 16.2432ZM22.7402 19.8105C22.7402 20.4792 23.2311 20.8981 24.2129 21.0674C25.6094 20.6019 26.3076 19.8317 26.3076 18.7568C26.096 18.1982 25.8844 17.9189 25.6729 17.9189H24.6318C23.3708 18.0967 22.7402 18.7272 22.7402 19.8105ZM42.4209 1.32617C42.7002 1.66471 42.8398 1.94401 42.8398 2.16406C42.5605 3.07812 42.4209 3.70866 42.4209 4.05566V6.56934C42.4632 6.84863 42.6029 6.98828 42.8398 6.98828H43.2588C43.5719 6.98828 43.8512 6.92057 44.0967 6.78516C44.7907 6.92057 45.1377 7.19987 45.1377 7.62305C45.1377 8.22396 44.2321 8.5752 42.4209 8.67676V12.8662C42.4209 13.7126 42.0697 14.1357 41.3672 14.1357C41.0879 13.7887 40.9482 13.5094 40.9482 13.2979C40.9482 11.0804 41.016 7.44108 41.1514 2.37988C41.3799 1.67741 41.8031 1.32617 42.4209 1.32617ZM31.2871 1.54199H31.7061C31.9854 1.54199 32.125 1.74935 32.125 2.16406C32.0488 3.70443 31.9092 4.47461 31.7061 4.47461C32.2646 9.23112 32.6836 11.6094 32.9629 11.6094C36.6699 11.0508 38.9128 10.6318 39.6914 10.3525L40.1104 10.9873C40.1104 11.9606 38.9212 12.4473 36.543 12.4473C34.5117 12.7266 33.2507 13.0778 32.7598 13.501H32.125C31.3633 13.501 30.8047 10.0013 30.4492 3.00195C30.6439 2.02865 30.9232 1.54199 31.2871 1.54199ZM49.2793 2.5957L50.1172 3.23047C49.7025 3.92448 49.4951 4.48307 49.4951 4.90625V8.67676C49.4951 9.28613 49.6348 9.84896 49.9141 10.3652C50.5658 10.2214 52.944 10.0098 57.0488 9.73047C57.3281 10.069 57.4678 10.3483 57.4678 10.5684C57.2562 11.127 57.0446 11.4062 56.833 11.4062C53.4222 11.4062 50.8366 11.6178 49.0762 12.041H48.6572C48.234 10.0267 48.0225 7.50879 48.0225 4.4873C48.234 3.22624 48.653 2.5957 49.2793 2.5957ZM58.7246 12.8789C59.4271 13.0566 59.7783 13.264 59.7783 13.501C59.7783 13.7464 59.6387 14.1696 59.3594 14.7705L56.833 14.5547H55.792C52.6774 14.5547 49.529 14.834 46.3467 15.3926L45.9277 14.7705V14.5547C46.2917 13.5729 49.9268 13.082 56.833 13.082H57.8867C58.1999 13.082 58.4792 13.0143 58.7246 12.8789ZM52.0088 15.3926C52.0511 15.6719 52.1908 15.8115 52.4277 15.8115L52.2246 18.3379V19.7979C56.7272 19.3831 59.1055 19.1758 59.3594 19.1758C59.4948 19.5905 59.6344 19.7979 59.7783 19.7979C59.4482 20.6357 59.1689 21.0547 58.9404 21.0547H58.5088C58.0433 21.0547 57.6963 20.987 57.4678 20.8516L51.5898 21.6895C51.0312 21.0039 50.752 20.0264 50.752 18.7568C50.752 16.514 51.1709 15.3926 52.0088 15.3926ZM73.3428 0.945312C73.6221 0.98763 73.7617 1.12728 73.7617 1.36426C73.7617 1.69434 72.9958 3.02311 71.4639 5.35059C71.32 5.59603 71.248 5.87533 71.248 6.18848C74.4642 8.87142 76.0723 10.6149 76.0723 11.4189C76.0723 11.6982 75.8607 11.8379 75.4375 11.8379L70.8291 7.86426L69.9912 7.64844C69.0179 9.60352 68.4593 11 68.3154 11.8379L67.8965 12.0537H67.6934C67.3717 12.0537 67.1602 11.7025 67.0586 11C67.3464 9.45964 69.2337 6.10807 72.7207 0.945312H73.3428ZM79.8428 1.99902C80.4014 2.13444 80.6807 2.55339 80.6807 3.25586C80.3083 3.25586 79.957 5.97689 79.627 11.4189L79.8428 11.8379C79.5635 12.9635 79.2842 13.5264 79.0049 13.5264H78.5859C78.3066 13.5264 78.167 13.3867 78.167 13.1074C78.4463 5.70182 79.0049 1.99902 79.8428 1.99902ZM74.5996 13.3105C75.1582 13.5221 75.4375 13.7337 75.4375 13.9453V14.1484C75.0228 14.6816 74.8154 15.3122 74.8154 16.04V17.2969C74.8154 17.4323 75.0947 17.6396 75.6533 17.9189C76.3389 17.7835 78.0866 17.5762 80.8965 17.2969L81.0996 17.7158V17.9189C81.0996 18.2998 80.96 18.7188 80.6807 19.1758L79.627 18.9727C78.3913 18.9727 76.6478 19.18 74.3965 19.5947C73.694 19.5947 73.3428 18.2702 73.3428 15.6211C73.6644 14.0807 74.0833 13.3105 74.5996 13.3105ZM95.5117 3.23047L95.9307 3.85254C95.7952 4.80892 95.7275 5.5791 95.7275 6.16309C95.7275 6.30697 95.7952 6.37891 95.9307 6.37891L95.7275 6.79785V9.51465H97.6064C97.8857 9.56543 98.0254 9.70931 98.0254 9.94629C98.0254 10.4456 97.818 10.8646 97.4033 11.2031L96.9844 10.9873H96.1465L95.7275 11.2031L95.9307 12.2441V12.6631L95.7275 13.082H95.9307C95.6598 13.7253 95.3805 14.0765 95.0928 14.1357C94.5342 14.1357 94.2549 12.2484 94.2549 8.47363V5.95996C94.2549 4.1403 94.6738 3.23047 95.5117 3.23047ZM90.6875 4.27148V4.4873L91.1064 4.27148H91.7412C92.1559 4.27148 92.3633 4.55078 92.3633 5.10938C90.2643 8.18164 89.2148 9.93359 89.2148 10.3652C91.737 11.4147 92.998 12.2526 92.998 12.8789V13.082L92.3633 13.501H91.9443C89.8708 12.1045 88.542 11.4062 87.958 11.4062C87.738 12.3288 87.0397 13.3783 85.8633 14.5547H85.4443C85.1227 14.5547 84.9111 14.2035 84.8096 13.501C85.0719 13.4502 86.8197 11.0042 90.0527 6.16309V5.74414C88.0299 5.74414 85.4443 5.95573 82.2959 6.37891L81.877 5.74414V5.3252C82.224 4.62272 85.1608 4.27148 90.6875 4.27148ZM94.6738 15.3926H96.3496C96.6289 15.4349 96.7686 15.5745 96.7686 15.8115C96.7686 15.8792 96.5612 16.6494 96.1465 18.1221V21.6895C95.7741 22.375 95.4948 22.7262 95.3086 22.7432H94.8896C94.6865 22.7432 94.4749 22.5316 94.2549 22.1084C94.3903 21.6683 94.458 19.9883 94.458 17.0684C94.1872 16.9329 93.9798 16.8652 93.8359 16.8652C90.0273 17.5592 88.068 17.9062 87.958 17.9062C87.6787 17.5677 87.5391 17.2884 87.5391 17.0684C87.5391 16.4421 89.2191 16.0231 92.5791 15.8115C92.5791 15.5661 93.2773 15.4264 94.6738 15.3926ZM109.698 0.513672C109.834 0.513672 109.901 0.585612 109.901 0.729492C110.054 0.729492 110.265 0.657552 110.536 0.513672C114.311 1.10612 116.198 2.71419 116.198 5.33789C116.198 7.32682 114.798 9.0026 111.996 10.3652H111.793V10.5811H115.779C115.779 10.7249 115.847 10.9323 115.982 11.2031C115.703 11.7786 115.563 12.1976 115.563 12.46H115.779C116.059 12.46 116.198 12.3203 116.198 12.041V11.4189C116.503 7.9235 116.99 6.17578 117.658 6.17578H118.077C118.356 6.17578 118.496 6.38314 118.496 6.79785C118.081 8.47363 117.734 10.2214 117.455 12.041L117.658 12.46V14.1357C117.658 15.2106 117.379 15.8411 116.82 16.0273H116.617C116.507 16.0273 116.296 15.8158 115.982 15.3926L116.198 14.9736V14.3516C116.198 14.0723 116.059 13.9326 115.779 13.9326H114.941C112.919 14.2119 111.869 14.3516 111.793 14.3516L111.577 13.9326V13.5137C111.577 12.9551 112.487 12.6038 114.307 12.46V12.2568L113.253 12.041C111.721 12.041 110.955 12.2526 110.955 12.6758V15.6084C110.955 15.9215 111.023 16.2008 111.158 16.4463C111.023 17.0049 110.676 17.2842 110.117 17.2842L109.482 16.4463V12.8789L109.279 12.46C108.932 12.46 107.955 12.5996 106.347 12.8789C105.788 12.6758 105.509 12.4684 105.509 12.2568V11.8379C105.509 11.3809 107.324 11.0296 110.955 10.7842V10.5811C107.18 10.0563 105.293 8.30859 105.293 5.33789C105.572 3.94141 106.482 2.47298 108.022 0.932617C109.14 0.839518 109.698 0.69987 109.698 0.513672ZM106.969 5.33789V5.95996C106.969 7.46647 108.158 8.44824 110.536 8.90527H111.158C112.343 8.90527 113.465 7.9235 114.522 5.95996V5.75684C114.522 3.37858 113.473 2.18945 111.374 2.18945H109.279C107.739 3.14583 106.969 4.19531 106.969 5.33789ZM119.55 5.75684C120.108 5.89225 120.388 6.3112 120.388 7.01367V7.43262L119.131 14.9736C119.41 15.5492 119.55 15.9723 119.55 16.2432C119.55 19.5947 119.131 21.2705 118.293 21.2705C117.464 21.2705 116.135 21.4102 114.307 21.6895C113.748 21.1309 113.469 20.0137 113.469 18.3379C113.469 16.7975 113.96 16.0273 114.941 16.0273L115.36 16.6621L115.145 17.9189C116.964 17.8174 117.874 17.6058 117.874 17.2842V16.6621C118.331 9.39193 118.89 5.75684 119.55 5.75684ZM115.145 19.7979C115.288 19.7979 115.36 19.8698 115.36 20.0137C116.892 19.8698 117.658 19.6582 117.658 19.3789V18.96H117.455C115.915 19.1715 115.145 19.4508 115.145 19.7979ZM136.488 1.55469L136.704 1.97363C136.704 2.69303 136.493 3.11198 136.069 3.23047C127.961 3.23047 123.907 3.57747 123.907 4.27148C123.763 4.54232 123.691 4.75391 123.691 4.90625C123.835 5.64258 123.907 6.34082 123.907 7.00098C127.233 6.58626 130.45 6.30697 133.556 6.16309C133.691 6.43392 133.759 6.64551 133.759 6.79785C133.556 7.35645 133.348 7.63574 133.137 7.63574H132.718C128.858 7.63574 125.989 7.98275 124.11 8.67676L124.745 11.2031C125.515 11.2031 128.52 10.8519 133.759 10.1494H134.812C135.016 10.1494 135.227 10.361 135.447 10.7842C135.176 11.4189 134.897 11.766 134.609 11.8252H132.299C126.984 12.2061 124.326 12.625 124.326 13.082C123.581 13.082 122.951 10.7757 122.435 6.16309V4.90625C121.597 4.36458 121.178 4.01335 121.178 3.85254C121.178 2.70996 125.862 2.01172 135.231 1.75781C135.231 1.6224 135.65 1.55469 136.488 1.55469ZM135.447 13.082L135.65 13.501C135.65 14.2035 135.511 14.5547 135.231 14.5547C132.777 14.6986 131.309 14.7705 130.826 14.7705L130.623 15.1895V18.541C130.623 18.7441 130.411 18.9557 129.988 19.1758C129.43 18.9473 129.15 18.4564 129.15 17.7031V14.9736C126.704 15.2529 124.326 15.6042 122.016 16.0273L121.597 15.3926C121.597 14.4531 125.862 13.7549 134.394 13.2979C134.394 13.154 134.745 13.082 135.447 13.082ZM126.002 17.2842H127.056C127.056 17.5635 127.123 17.7031 127.259 17.7031L127.056 18.7568C127.191 19.9756 127.259 20.6738 127.259 20.8516C128.283 20.8516 130.801 20.4326 134.812 19.5947C135.371 19.7301 135.65 20.0094 135.65 20.4326C135.65 20.915 135.02 21.262 133.759 21.4736L133.34 21.2705L126.421 22.5273C126.006 21.8587 125.799 20.8092 125.799 19.3789V18.3379L126.002 17.2842Z" fill="#222222"/>
</svg>
