<svg width="133" height="26" viewBox="0 0 133 26" fill="none" xmlns="http://www.w3.org/2000/svg">
<path d="M1.24805 0.880859C5.25586 1.39648 7.25977 1.71582 7.25977 1.83887L7.74316 1.60156H9.66797C11.9121 2.02344 13.0342 3.86621 13.0342 7.12988C12.7236 7.8623 12.4043 8.26367 12.0762 8.33398H11.5928C11.0127 8.33398 10.5322 6.89258 10.1514 4.00977C9.8291 4.00977 9.66797 3.92773 9.66797 3.76367L9.18457 4.00977H8.94727C8.7832 4.00977 8.70117 3.92773 8.70117 3.76367C7.74023 3.97461 7.25977 4.21484 7.25977 4.48438V7.37598C7.25977 8.33691 6.7793 8.81738 5.81836 8.81738C5.17969 8.2373 4.86035 7.5957 4.86035 6.89258V3.76367C1.97168 3.44727 0.527344 3.04883 0.527344 2.56836V1.11816C0.697266 1.11816 0.9375 1.03906 1.24805 0.880859ZM2.45215 9.78418C3.2959 9.94238 3.77637 10.0215 3.89355 10.0215C8.82129 9.86328 12.1904 9.78418 14.001 9.78418L14.7217 10.7422V11.4629C14.7217 11.6914 14.4814 11.9316 14.001 12.1836H9.43066V12.9043L9.66797 14.5918H11.1094C12.3926 14.5918 13.0342 15.3125 13.0342 16.7539V18.1953C13.0342 20.123 10.9512 21.0869 6.78516 21.0869V21.5615C8.60742 21.8838 9.8877 22.0449 10.626 22.0449H12.0762C12.3047 22.0449 12.5449 22.2852 12.7969 22.7656V23.0117C12.2988 23.9727 11.335 24.4531 9.90527 24.4531C7.11035 24.4531 5.18555 23.249 4.13086 20.8408C4.53516 19.5576 5.33789 18.916 6.53906 18.916C9.18164 18.7578 10.626 18.2773 10.8721 17.4746V16.7539C7.24512 16.918 4.99805 17 4.13086 17L3.41016 16.0332L3.65625 14.8291H6.30176L7.50586 14.5918L7.25977 14.1084V12.4297H5.09766C2.85352 12.4297 1.73145 11.8672 1.73145 10.7422L2.45215 9.78418ZM19.7852 2.58594L20.5059 3.79004V4.51074L20.2598 4.99414H20.5059C21.0918 4.67187 21.7305 4.51074 22.4219 4.51074H22.9053C23.0635 4.51074 23.1426 4.58984 23.1426 4.74805L23.626 4.51074H24.3467C24.9854 4.85645 25.3047 5.57715 25.3047 6.67285L26.5088 5.46875H28.9082L28.6709 3.79004L29.6289 3.06934H30.1123C30.9092 3.06934 31.4688 5.71191 31.791 10.9971V11.2344C31.791 12.0371 31.4688 12.5176 30.8242 12.6758C30.0273 12.6758 29.6289 12.5146 29.6289 12.1924C29.6289 11.6943 29.5498 10.1738 29.3916 7.63086H26.2627L25.3047 6.91016V7.14746C26.9043 8.59473 27.7041 9.47656 27.7041 9.79297C27.4932 10.5312 27.1738 10.9326 26.7461 10.9971C26.2832 10.9033 25.6416 10.502 24.8213 9.79297C24.6045 10.9121 24.2852 11.4717 23.8633 11.4717H22.668C22.3457 11.4717 22.1846 11.2314 22.1846 10.751L23.1426 6.67285H20.7432L20.2598 6.43555V6.67285C21.3848 7.46387 21.9473 8.4248 21.9473 9.55566L21.2266 10.0303H20.2598L19.3018 9.07227H19.0645C19.0645 10.0332 18.8242 10.5137 18.3438 10.5137H17.3857C17.1455 10.5137 16.9053 10.1943 16.665 9.55566C17.626 7.05371 18.1064 5.5332 18.1064 4.99414V4.74805H17.3857C17.0225 4.74805 16.7002 4.83008 16.4189 4.99414C16.1377 4.83008 15.8184 4.74805 15.4609 4.74805V4.27344C15.4609 3.14844 16.5801 2.58594 18.8184 2.58594H19.7852ZM28.6709 13.1504C29.1514 13.9531 29.3916 14.5947 29.3916 15.0752V19.1533C29.2275 19.6338 28.7471 19.874 27.9502 19.874H27.4668L27.2295 18.6787V15.7959L26.9834 15.3125C24.8447 15.793 23.3242 16.0332 22.4219 16.0332L21.9473 15.3125V14.5918C21.9473 13.9121 24.1885 13.4316 28.6709 13.1504ZM35.8877 2.10254H36.125C37.2441 2.10254 37.8037 3.22461 37.8037 5.46875C37.9678 5.46875 38.0498 5.94922 38.0498 6.91016H39.9658C41.4775 6.91016 42.5996 7.22949 43.332 7.86816C43.332 8.9873 42.8516 9.54688 41.8906 9.54688H40.4492C40.8066 10.0566 41.126 10.8594 41.4072 11.9551C41.2314 14.1992 40.1914 15.3213 38.2871 15.3213H37.8037C36.5264 15.3213 35.4072 14.4395 34.4463 12.6758V10.9971L34.6836 9.79297H33.7256L32.5215 9.54688V8.82617C32.5215 7.70703 33.5615 7.14746 35.6416 7.14746C35.3252 5.38965 35.167 4.18848 35.167 3.54395C35.3252 2.58301 35.5654 2.10254 35.8877 2.10254ZM46.9355 4.74805H47.6562C48.2949 4.74805 48.6963 6.10742 48.8604 8.82617L51.0225 8.35156C52.1416 8.50977 52.7012 8.75 52.7012 9.07227V9.79297C52.7012 10.5371 51.5 11.0176 49.0977 11.2344C49.2148 11.5215 49.376 12.6436 49.5811 14.6006C49.2705 15.3271 48.9482 15.7256 48.6143 15.7959H47.4189C46.9385 14.4365 46.6982 13.4756 46.6982 12.9131H46.9355C46.7773 12.3799 46.458 10.1387 45.9775 6.18945C46.2998 5.22852 46.6191 4.74805 46.9355 4.74805ZM36.8457 10.5137C36.6875 10.8242 36.6084 11.0645 36.6084 11.2344C36.9248 12.1016 37.4053 12.6611 38.0498 12.9131C38.5303 12.7549 38.7705 12.5967 38.7705 12.4385C38.6533 11.1553 38.0117 10.5137 36.8457 10.5137ZM42.374 16.7627H43.0947C43.792 16.7627 44.1904 18.1221 44.29 20.8408C44.6885 20.8408 45.8896 20.6826 47.8936 20.3662C48.6963 20.6826 49.0977 20.9229 49.0977 21.0869C49.0977 22.5283 47.416 23.249 44.0527 23.249H43.5693C42.292 23.249 41.6533 21.7256 41.6533 18.6787V18.4414C41.7588 17.3223 41.999 16.7627 42.374 16.7627ZM65.667 2.33984L66.3877 3.30664V3.78125C66.3877 3.94531 66.3057 4.02734 66.1416 4.02734L66.3877 4.50195V7.38477L67.8291 7.86816V9.79297C67.8291 9.95703 69.1094 10.7568 71.6699 12.1924C71.3184 13.1533 70.5186 13.6338 69.2705 13.6338L67.8291 12.9131L67.3457 13.1592C67.0645 12.9951 66.7451 12.9131 66.3877 12.9131C66.3877 14.0029 65.8252 14.8848 64.7002 15.5586H64.2256C63.9912 15.5586 63.751 15.3184 63.5049 14.8379V14.6006C63.5049 14.1084 64.0645 12.5059 65.1836 9.79297H64.9463C64.583 9.91016 63.54 10.0713 61.8174 10.2764V10.0303L61.3428 10.2764H61.0967C60.458 9.9541 60.1387 9.71094 60.1387 9.54688C60.1387 8.42773 60.6982 7.86816 61.8174 7.86816H63.5049C63.8213 7.86816 63.9795 7.70703 63.9795 7.38477C63.8213 5.79102 63.7422 4.58984 63.7422 3.78125C63.9473 3.78125 64.3486 3.38281 64.9463 2.58594C65.2568 2.42187 65.4971 2.33984 65.667 2.33984ZM78.1562 7.63086C78.9238 7.63086 79.6445 10.833 80.3184 17.2373C80.4824 17.2373 80.5645 17.5596 80.5645 18.2041C80.5645 19.165 79.9229 19.7246 78.6396 19.8828H78.4023C77.7227 19.8828 77.0811 16.1973 76.4775 8.82617C76.7002 8.0293 77.2598 7.63086 78.1562 7.63086ZM68.7871 14.6006C69.2676 15.4092 69.6689 16.7686 69.9912 18.6787C70.1494 18.6787 70.2285 18.7607 70.2285 18.9248L70.7119 18.6787H73.832C73.832 18.9307 73.9932 19.2529 74.3154 19.6455L73.832 20.3662C73.9902 20.3662 74.0693 20.4453 74.0693 20.6035C73.8232 20.6035 73.5039 20.7646 73.1113 21.0869H72.3906C71.4941 21.0869 68.9307 21.2451 64.7002 21.5615L64.4629 21.0869V20.8408C64.4629 19.7217 65.4238 19.1621 67.3457 19.1621L66.8623 16.042C67.1084 15.0811 67.75 14.6006 68.7871 14.6006ZM84.1777 2.10254H84.6611C85.2998 2.41895 85.6191 2.89941 85.6191 3.54395C85.3027 4.74512 85.1445 5.46582 85.1445 5.70605C86.7266 6.81934 88.2471 8.33984 89.7061 10.2676C89.3838 11.2344 89.0645 11.7178 88.748 11.7178H88.2646C87.9365 11.7178 86.7354 10.5137 84.6611 8.10547H84.4238C83.8379 10.3379 83.3545 11.46 82.9736 11.4717H82.7363C81.7754 11.4717 81.2949 11.1523 81.2949 10.5137C82.6367 4.90625 83.5977 2.10254 84.1777 2.10254ZM93.793 3.78125H94.2764C94.915 3.78125 95.3164 5.22266 95.4805 8.10547C95.3164 8.41602 95.2344 8.65625 95.2344 8.82617C95.3984 9.13672 95.4805 9.37695 95.4805 9.54688H95.2344C95.3574 9.91016 95.5186 10.9531 95.7178 12.6758C95.3955 13.1973 95.2344 13.5986 95.2344 13.8799H94.7598C93.6348 13.8799 93.0723 12.916 93.0723 10.9883V6.18066C93.0723 5.82324 92.9932 5.50391 92.835 5.22266C93.21 4.26172 93.5293 3.78125 93.793 3.78125ZM87.5439 14.8379C88.2412 14.8379 88.8037 15.96 89.2314 18.2041C89.5479 18.2041 89.7061 18.2832 89.7061 18.4414L90.1895 18.2041C90.3477 18.2041 90.4268 18.2832 90.4268 18.4414L90.9102 18.2041H93.5557C94.0361 18.3623 94.2764 18.8428 94.2764 19.6455C94.1182 20.126 93.957 20.3662 93.793 20.3662C93.3125 20.3662 92.2725 20.5273 90.6729 20.8496C87.9482 20.8496 86.5859 19.8066 86.5859 17.7207V16.2793C86.5859 15.3184 86.9053 14.8379 87.5439 14.8379ZM106.293 1.37305C107.312 2.01758 108.273 2.33984 109.176 2.33984C110.137 3.3418 110.617 4.7041 110.617 6.42676C110.617 7.6748 109.416 8.47461 107.014 8.82617C104.447 8.35742 103.164 6.67578 103.164 3.78125C103.164 2.7793 104.207 1.97656 106.293 1.37305ZM105.326 4.26465C105.73 5.50684 106.211 6.22754 106.768 6.42676H107.014C107.84 6.42676 108.32 6.18652 108.455 5.70605C108.455 4.42285 107.813 3.78125 106.53 3.78125H105.81C105.487 3.82812 105.326 3.98926 105.326 4.26465ZM114.941 3.78125H115.662C116.471 3.78125 116.951 6.74609 117.104 12.6758C116.945 13.3145 116.626 13.6338 116.146 13.6338C115.021 13.6338 114.458 13.0742 114.458 11.9551H114.704L114.458 11.4717C114.458 11.3135 114.54 11.2344 114.704 11.2344L114.458 10.751V9.30957L113.263 9.54688H112.779C111.947 9.54688 111.467 9.30664 111.338 8.82617V8.10547C111.338 7.67188 112.378 7.35254 114.458 7.14746V6.66406C114.458 6.46484 114.379 5.66504 114.221 4.26465L114.941 3.78125ZM119.028 4.26465H119.512C120.473 4.26465 120.953 7.3877 120.953 13.6338H120.716C120.435 13.7979 120.112 13.8799 119.749 13.8799C118.788 13.8799 118.308 11.3955 118.308 6.42676V4.98535C118.308 4.75098 118.548 4.51074 119.028 4.26465ZM104.843 10.0303H111.821C112.05 10.0303 112.29 10.2705 112.542 10.751V11.9551L110.854 12.1924H109.176V12.4385L109.413 14.6006C109.173 15.2393 108.933 15.5586 108.692 15.5586H107.734C107.254 15.459 107.014 14.8174 107.014 13.6338V12.1924H105.089C104.696 11.876 104.374 11.7178 104.122 11.7178V10.751C104.122 10.5225 104.362 10.2822 104.843 10.0303ZM118.308 15.0752C118.788 15.7842 119.028 16.3467 119.028 16.7627C118.788 20.7705 118.308 22.7744 117.587 22.7744H115.908C112.703 22.7744 111.101 21.9717 111.101 20.3662H111.338C111.016 19.2236 110.854 17.6211 110.854 15.5586L111.338 15.3213H112.296C112.94 15.5381 113.263 16.2588 113.263 17.4834H116.629C116.629 15.8779 117.188 15.0752 118.308 15.0752ZM113.5 19.4082V20.1289C115.27 20.4453 116.23 20.6035 116.383 20.6035V19.8828C114.883 19.6895 113.922 19.5312 113.5 19.4082ZM124.092 1.85645H129.374C129.696 1.90918 129.857 2.07031 129.857 2.33984C129.857 3.45898 129.538 4.01855 128.899 4.01855C128.724 4.01855 128.48 4.10059 128.17 4.26465C128.012 4.26465 127.933 4.18262 127.933 4.01855L126.254 4.26465H123.846L124.092 4.73926V5.94336L128.653 5.45996C129.778 5.84082 130.341 6.16309 130.341 6.42676C130.341 7.5459 129.617 8.10547 128.17 8.10547V7.86816C127.83 8.02637 126.629 8.1875 124.566 8.35156V9.07227C124.619 9.38867 124.78 9.54688 125.05 9.54688C126.169 9.54688 127.933 9.46777 130.341 9.30957L130.815 10.0303C130.815 11.3135 129.453 11.9551 126.729 11.9551C126.588 11.9551 125.949 12.0342 124.812 12.1924C123.207 12.1924 122.404 11.2314 122.404 9.30957L121.684 4.01855C121.965 2.57715 122.768 1.85645 124.092 1.85645ZM132.257 12.9131C132.567 13.0771 132.808 13.1592 132.978 13.1592V13.8799C132.978 14.999 132.497 15.5586 131.536 15.5586V15.3213C131.296 15.4795 130.815 15.5586 130.095 15.5586L130.341 18.9248L129.62 19.4082H128.899C128.478 19.4082 127.994 18.2041 127.449 15.7959H127.212C127.042 15.7959 126.802 15.8779 126.491 16.042C124.569 15.8779 123.608 15.5557 123.608 15.0752V14.3545C123.866 13.7158 124.426 13.3965 125.287 13.3965H126.491C127.353 13.3965 129.274 13.2354 132.257 12.9131ZM125.287 19.1621H126.975C127.455 21.8867 128.097 23.249 128.899 23.249C130.177 22.9326 131.217 22.7744 132.02 22.7744C132.342 23.1611 132.503 23.4805 132.503 23.7324C132.503 24.5352 131.302 25.1768 128.899 25.6572V25.4111C128.735 25.4111 128.653 25.4932 128.653 25.6572C126.573 25.499 125.533 24.5381 125.533 22.7744C125.252 22.7744 125.012 21.8105 124.812 19.8828C125.129 19.8828 125.287 19.6426 125.287 19.1621Z" fill="#222222"/>
</svg>
