<svg width="162" height="23" viewBox="0 0 162 23" fill="none" xmlns="http://www.w3.org/2000/svg">
<path d="M5.37012 1.58008C8.17155 1.58008 9.84733 2.41797 10.3975 4.09375C10.6768 5.32943 10.8164 6.16732 10.8164 6.60742C10.8164 8.35091 9.69922 10.306 7.46484 12.4727C6.44922 12.8958 5.82292 13.1074 5.58594 13.1074C3.79167 13.1074 2.39518 12.1976 1.39648 10.3779C0.973307 9.30306 0.761719 8.53288 0.761719 8.06738V6.18848C0.761719 4.4196 2.23014 2.88346 5.16699 1.58008H5.37012ZM15.6406 2.20215H16.0596C16.2627 2.20215 16.4743 2.41374 16.6943 2.83691V3.25586L16.0596 7.86426L16.2754 8.2832L16.0596 9.32422L16.2754 9.74316L16.0596 10.1621C16.0596 10.306 16.1315 10.3779 16.2754 10.3779L16.0596 11.8506V12.4727C16.0596 12.6165 16.1315 12.6885 16.2754 12.6885C16.0046 13.3232 15.7253 13.6702 15.4375 13.7295H15.0186C14.7308 13.7295 14.5869 13.5898 14.5869 13.3105V9.74316H13.127L11.8701 9.95898C11.5993 9.8151 11.3877 9.74316 11.2354 9.74316V9.12109C11.2354 8.61328 12.3525 8.26204 14.5869 8.06738L14.8027 7.64844V7.22949C14.8027 7.03483 14.5911 6.82747 14.168 6.60742C13.4147 6.74284 12.7884 6.81055 12.2891 6.81055C12.0098 6.81055 11.8701 6.6709 11.8701 6.3916V5.97266C11.8701 5.50716 12.9196 5.16016 15.0186 4.93164C15.0186 3.11198 15.2259 2.20215 15.6406 2.20215ZM2.01855 7.64844C2.75488 10.306 3.94401 11.6348 5.58594 11.6348C8.09961 10.2891 9.35645 8.54134 9.35645 6.3916C9.35645 4.15723 8.16732 3.04004 5.78906 3.04004C4.67188 3.04004 3.48698 3.94987 2.23438 5.76953C2.23438 7.02214 2.16243 7.64844 2.01855 7.64844ZM31.7412 0.297852L31.957 0.716797C31.6777 3.32357 31.5381 5.84147 31.5381 8.27051V10.1621C31.5381 10.2975 31.6058 10.3652 31.7412 10.3652C31.4196 11.2031 31.1403 11.6221 30.9033 11.6221H30.4844C30.2051 11.6221 30.0654 11.4824 30.0654 11.2031V8.68945C30.0654 3.09505 30.4844 0.297852 31.3223 0.297852H31.7412ZM25.876 1.77051C26.2907 1.91439 26.498 2.05404 26.498 2.18945C26.0833 4.14453 25.7363 6.94173 25.457 10.5811C25.5924 10.8519 25.6602 11.0592 25.6602 11.2031C25.3809 11.6602 25.2412 12.0114 25.2412 12.2568H24.6191C24.5176 12.2568 24.306 12.0452 23.9844 11.6221C24.2637 8.05046 24.543 5.3252 24.8223 3.44629H24.6191C23.7474 3.44629 21.4411 3.72559 17.7002 4.28418L17.4844 3.86523V3.24316C17.4844 2.70996 19.5114 2.35872 23.5654 2.18945C24.8096 2.02018 25.5798 1.88053 25.876 1.77051ZM27.3359 12.6758H27.5518C27.8311 12.7181 27.9707 12.8577 27.9707 13.0947C27.9707 13.5179 27.4798 14.4954 26.498 16.0273C27.2259 16.7298 27.8564 17.0811 28.3896 17.0811C28.8721 15.7015 29.71 14.5124 30.9033 13.5137H31.7412V13.9326C31.7412 14.195 31.5339 14.7536 31.1191 15.6084C31.1191 16.1331 32.0967 17.1826 34.0518 18.7568C34.0518 19.5101 33.7725 20.001 33.2139 20.2295L30.0654 17.0811C29.7438 17.0811 29.1852 18.0586 28.3896 20.0137L27.9707 20.2295C27.6999 20.0856 27.4883 20.0137 27.3359 20.0137V18.5537C27.3359 18.3844 26.8493 18.0332 25.876 17.5C25.7067 17.5 25.2878 18.1982 24.6191 19.5947H23.9844C23.7051 19.5947 23.5654 19.3874 23.5654 18.9727C25.2666 14.7747 26.5234 12.6758 27.3359 12.6758ZM46.585 4.06836H47.6387C47.6387 4.21224 47.7106 4.4196 47.8545 4.69043C47.7106 5.65527 47.6387 6.42546 47.6387 7.00098L47.8545 8.25781C47.7106 8.49479 47.6387 8.84603 47.6387 9.31152L48.0576 9.51465H50.1523C50.4316 9.56543 50.5713 9.70931 50.5713 9.94629L50.3682 10.9873H48.8955L47.8545 11.2031V12.041C47.8545 12.4557 47.7826 12.6631 47.6387 12.6631L47.8545 13.7168V15.8115C47.8545 16.0316 47.571 16.3109 47.0039 16.6494C46.8092 16.6494 46.6019 16.4421 46.3818 16.0273V11.8252C46.3818 11.055 46.3099 10.0775 46.166 8.89258L46.3818 8.47363L46.166 7.2168V7.00098C46.166 6.09538 46.3057 5.11784 46.585 4.06836ZM36.3145 4.69043C37.3047 4.83431 37.8633 4.90625 37.9902 4.90625L39.2471 4.69043V4.90625L39.666 4.69043H43.8682C43.8682 4.96973 43.9359 5.10938 44.0713 5.10938C43.7412 6.09115 43.4619 6.58203 43.2334 6.58203C43.1149 6.58203 42.5563 6.44238 41.5576 6.16309C41.0752 6.16309 39.6068 6.23503 37.1523 6.37891V6.58203C37.1523 7.00521 37.0804 7.49609 36.9365 8.05469C37.0804 10.526 37.4316 12.4811 37.9902 13.9199H40.5039C41.2064 13.9199 42.2559 13.8522 43.6523 13.7168L44.0713 14.3516V14.5547C43.7835 15.1133 43.4323 15.3926 43.0176 15.3926C40.6816 15.3926 38.7943 15.5322 37.3555 15.8115C36.3822 15.3883 35.8955 13.6406 35.8955 10.5684C35.6416 10.5684 35.502 9.73047 35.4766 8.05469V6.58203C35.0534 6.04036 34.8418 5.62142 34.8418 5.3252C35.4596 4.90202 35.9505 4.69043 36.3145 4.69043ZM69.5947 4.69043H69.8105L70.4326 5.10938C70.0179 7.14909 69.8105 9.52734 69.8105 12.2441V16.0273L70.0137 17.4873L68.9727 18.3379C68.7695 18.3379 68.5579 18.1263 68.3379 17.7031V14.7705C68.3379 8.05046 68.7568 4.69043 69.5947 4.69043ZM58.4863 5.10938H58.9053C59.1846 5.16016 59.3242 5.30404 59.3242 5.54102V5.74414C59.3242 11.6178 59.6035 14.5547 60.1621 14.5547C63.7507 14.2754 66.057 13.9961 67.0811 13.7168L67.2969 14.1357V14.3516C67.2969 15.1895 66.6663 15.6084 65.4053 15.6084C64.1781 15.6084 62.151 15.8877 59.3242 16.4463C58.3424 16.2347 57.8516 12.9466 57.8516 6.58203C57.9954 5.60026 58.207 5.10938 58.4863 5.10938ZM84.0449 0.881836H84.2607C84.54 0.924154 84.6797 1.0638 84.6797 1.30078C84.4004 3.05273 84.2607 4.52539 84.2607 5.71875V6.1377C84.3031 6.41699 84.4427 6.55664 84.6797 6.55664H85.0986C85.598 6.55664 86.2285 6.4847 86.9902 6.34082C87.2611 6.4847 87.4727 6.55664 87.625 6.55664V6.75977C87.625 7.48763 87.4134 7.91081 86.9902 8.0293H84.6797C84.4766 8.0293 84.265 8.23665 84.0449 8.65137L84.6797 12.8662L83.8291 13.4883H83.626C83.1266 13.4883 82.7754 11.529 82.5723 7.61035C82.7669 3.12467 83.2578 0.881836 84.0449 0.881836ZM80.6807 1.71973C80.9515 1.86361 81.1631 1.93555 81.3154 1.93555V2.13867L80.2617 7.17871C80.2617 7.32259 80.3337 7.39453 80.4775 7.39453L80.2617 8.86719L80.4775 10.3398L79.4238 11.1777C79.0684 11.1777 78.8568 10.8984 78.7891 10.3398C78.7891 8.45247 79.0007 6.1377 79.4238 3.39551H78.1543C74.2018 3.96257 72.0309 4.24609 71.6416 4.24609L71.2227 3.61133V3.39551C71.3073 3.06543 71.7982 2.71842 72.6953 2.35449C72.8307 2.35449 72.8984 2.4222 72.8984 2.55762C73.0339 2.55762 75.6279 2.27832 80.6807 1.71973ZM99.7168 0.0947266H100.339C100.339 0.24707 100.411 0.458659 100.555 0.729492C100.275 1.18652 100.136 1.60547 100.136 1.98633V3.02734L100.339 3.44629L103.906 3.02734L104.325 3.66211C104.325 4.11068 103.208 5.50716 100.974 7.85156C100.974 8.01237 101.951 8.78255 103.906 10.1621V10.5811C103.906 10.8604 103.767 11 103.487 11H102.865L100.339 9.32422H100.136C99.9665 9.32422 99.3359 10.2298 98.2441 12.041H97.8252C97.6221 12.041 97.4147 11.8337 97.2031 11.4189C97.7533 10.0309 99.2174 7.86426 101.596 4.91895V4.70312H100.974C97.9014 5.1263 96.1536 5.33789 95.7305 5.33789L94.8926 4.70312C94.8926 3.86523 96.1494 3.44629 98.6631 3.44629V1.77051C98.6631 1.00879 99.0143 0.450195 99.7168 0.0947266ZM105.798 2.40527H106.42C106.699 2.40527 106.839 2.61263 106.839 3.02734C106.28 5.57487 106.001 7.04329 106.001 7.43262H107.677C107.88 7.43262 108.091 7.63997 108.312 8.05469V8.48633C108.312 8.79948 107.474 9.00684 105.798 9.1084L105.582 9.52734V12.2568C105.582 12.5361 105.442 12.6758 105.163 12.6758H104.96C104.757 12.6758 104.545 12.4642 104.325 12.041V11C104.833 5.27018 105.324 2.40527 105.798 2.40527ZM105.582 13.0947L105.798 13.5137C105.798 14.1654 105.239 15.0033 104.122 16.0273C104.122 16.1882 104.888 17.026 106.42 18.541V18.96C106.42 19.18 106.141 19.4593 105.582 19.7979C104.592 18.7145 103.754 17.9486 103.068 17.5C101.993 19.1758 101.363 20.0137 101.177 20.0137C100.982 20.0137 100.775 19.8021 100.555 19.3789V19.1758C100.555 18.6934 101.393 17.2926 103.068 14.9736C103.068 14.8382 103.001 14.7705 102.865 14.7705C102.501 14.7705 101.24 14.9779 99.082 15.3926C98.9466 14.9779 98.807 14.7705 98.6631 14.7705C98.6631 13.958 100.69 13.3994 104.744 13.0947H105.582ZM112.453 2.5957L113.291 3.23047C112.876 3.92448 112.669 4.48307 112.669 4.90625V8.67676C112.669 9.28613 112.809 9.84896 113.088 10.3652C113.74 10.2214 116.118 10.0098 120.223 9.73047C120.502 10.069 120.642 10.3483 120.642 10.5684C120.43 11.127 120.218 11.4062 120.007 11.4062C116.596 11.4062 114.01 11.6178 112.25 12.041H111.831C111.408 10.0267 111.196 7.50879 111.196 4.4873C111.408 3.22624 111.827 2.5957 112.453 2.5957ZM121.898 12.8789C122.601 13.0566 122.952 13.264 122.952 13.501C122.952 13.7464 122.812 14.1696 122.533 14.7705L120.007 14.5547H118.966C115.851 14.5547 112.703 14.834 109.521 15.3926L109.102 14.7705V14.5547C109.465 13.5729 113.101 13.082 120.007 13.082H121.061C121.374 13.082 121.653 13.0143 121.898 12.8789ZM115.183 15.3926C115.225 15.6719 115.365 15.8115 115.602 15.8115L115.398 18.3379V19.7979C119.901 19.3831 122.279 19.1758 122.533 19.1758C122.669 19.5905 122.808 19.7979 122.952 19.7979C122.622 20.6357 122.343 21.0547 122.114 21.0547H121.683C121.217 21.0547 120.87 20.987 120.642 20.8516L114.764 21.6895C114.205 21.0039 113.926 20.0264 113.926 18.7568C113.926 16.514 114.345 15.3926 115.183 15.3926ZM134.638 0.513672C134.773 0.513672 134.841 0.585612 134.841 0.729492C134.993 0.729492 135.205 0.657552 135.476 0.513672C139.25 1.10612 141.138 2.71419 141.138 5.33789C141.138 7.32682 139.737 9.0026 136.936 10.3652H136.732V10.5811H140.719C140.719 10.7249 140.786 10.9323 140.922 11.2031C140.643 11.7786 140.503 12.1976 140.503 12.46H140.719C140.998 12.46 141.138 12.3203 141.138 12.041V11.4189C141.442 7.9235 141.929 6.17578 142.598 6.17578H143.017C143.296 6.17578 143.436 6.38314 143.436 6.79785C143.021 8.47363 142.674 10.2214 142.395 12.041L142.598 12.46V14.1357C142.598 15.2106 142.318 15.8411 141.76 16.0273H141.557C141.447 16.0273 141.235 15.8158 140.922 15.3926L141.138 14.9736V14.3516C141.138 14.0723 140.998 13.9326 140.719 13.9326H139.881C137.858 14.2119 136.809 14.3516 136.732 14.3516L136.517 13.9326V13.5137C136.517 12.9551 137.426 12.6038 139.246 12.46V12.2568L138.192 12.041C136.66 12.041 135.895 12.2526 135.895 12.6758V15.6084C135.895 15.9215 135.962 16.2008 136.098 16.4463C135.962 17.0049 135.615 17.2842 135.057 17.2842L134.422 16.4463V12.8789L134.219 12.46C133.872 12.46 132.894 12.5996 131.286 12.8789C130.728 12.6758 130.448 12.4684 130.448 12.2568V11.8379C130.448 11.3809 132.264 11.0296 135.895 10.7842V10.5811C132.12 10.0563 130.232 8.30859 130.232 5.33789C130.512 3.94141 131.422 2.47298 132.962 0.932617C134.079 0.839518 134.638 0.69987 134.638 0.513672ZM131.908 5.33789V5.95996C131.908 7.46647 133.097 8.44824 135.476 8.90527H136.098C137.283 8.90527 138.404 7.9235 139.462 5.95996V5.75684C139.462 3.37858 138.412 2.18945 136.313 2.18945H134.219C132.678 3.14583 131.908 4.19531 131.908 5.33789ZM144.489 5.75684C145.048 5.89225 145.327 6.3112 145.327 7.01367V7.43262L144.07 14.9736C144.35 15.5492 144.489 15.9723 144.489 16.2432C144.489 19.5947 144.07 21.2705 143.232 21.2705C142.403 21.2705 141.074 21.4102 139.246 21.6895C138.688 21.1309 138.408 20.0137 138.408 18.3379C138.408 16.7975 138.899 16.0273 139.881 16.0273L140.3 16.6621L140.084 17.9189C141.904 17.8174 142.813 17.6058 142.813 17.2842V16.6621C143.271 9.39193 143.829 5.75684 144.489 5.75684ZM140.084 19.7979C140.228 19.7979 140.3 19.8698 140.3 20.0137C141.832 19.8698 142.598 19.6582 142.598 19.3789V18.96H142.395C140.854 19.1715 140.084 19.4508 140.084 19.7979ZM161.428 1.55469L161.644 1.97363C161.644 2.69303 161.432 3.11198 161.009 3.23047C152.901 3.23047 148.847 3.57747 148.847 4.27148C148.703 4.54232 148.631 4.75391 148.631 4.90625C148.775 5.64258 148.847 6.34082 148.847 7.00098C152.173 6.58626 155.389 6.30697 158.495 6.16309C158.631 6.43392 158.698 6.64551 158.698 6.79785C158.495 7.35645 158.288 7.63574 158.076 7.63574H157.657C153.798 7.63574 150.929 7.98275 149.05 8.67676L149.685 11.2031C150.455 11.2031 153.459 10.8519 158.698 10.1494H159.752C159.955 10.1494 160.167 10.361 160.387 10.7842C160.116 11.4189 159.837 11.766 159.549 11.8252H157.238C151.923 12.2061 149.266 12.625 149.266 13.082C148.521 13.082 147.89 10.7757 147.374 6.16309V4.90625C146.536 4.36458 146.117 4.01335 146.117 3.85254C146.117 2.70996 150.802 2.01172 160.171 1.75781C160.171 1.6224 160.59 1.55469 161.428 1.55469ZM160.387 13.082L160.59 13.501C160.59 14.2035 160.45 14.5547 160.171 14.5547C157.716 14.6986 156.248 14.7705 155.766 14.7705L155.562 15.1895V18.541C155.562 18.7441 155.351 18.9557 154.928 19.1758C154.369 18.9473 154.09 18.4564 154.09 17.7031V14.9736C151.644 15.2529 149.266 15.6042 146.955 16.0273L146.536 15.3926C146.536 14.4531 150.802 13.7549 159.333 13.2979C159.333 13.154 159.684 13.082 160.387 13.082ZM150.941 17.2842H151.995C151.995 17.5635 152.063 17.7031 152.198 17.7031L151.995 18.7568C152.131 19.9756 152.198 20.6738 152.198 20.8516C153.222 20.8516 155.74 20.4326 159.752 19.5947C160.311 19.7301 160.59 20.0094 160.59 20.4326C160.59 20.915 159.959 21.262 158.698 21.4736L158.279 21.2705L151.36 22.5273C150.946 21.8587 150.738 20.8092 150.738 19.3789V18.3379L150.941 17.2842Z" fill="#222222"/>
</svg>
