<svg width="106" height="26" viewBox="0 0 106 26" fill="none" xmlns="http://www.w3.org/2000/svg">
<path d="M6.58496 1.36035C7.27962 1.56087 8.27148 1.66113 9.56055 1.66113L10.1514 1.36035C11.9346 1.36035 12.8262 2.25195 12.8262 4.03516C13.0267 4.82292 13.127 5.51758 13.127 6.11914L12.8262 9.08398H11.6445C11.2435 9.08398 11.043 8.88704 11.043 8.49316V6.11914L10.7529 3.14355H7.18652C7.37988 5.47103 7.47656 7.15397 7.47656 8.19238L6.58496 8.79395C5.59668 8.79395 5.10254 6.91048 5.10254 3.14355H4.80176C4.09277 3.14355 3.20117 3.24382 2.12695 3.44434C1.13867 3.18652 0.644531 2.88932 0.644531 2.55273V1.95117L6.58496 1.36035ZM1.83691 10.8672C4.30762 11.2682 6.38802 11.4688 8.07812 11.4688H9.86133C10.3053 11.4688 10.6992 11.3685 11.043 11.168C12.8262 11.4043 13.7178 11.7015 13.7178 12.0596V12.3604C13.7178 12.7542 13.5208 12.9512 13.127 12.9512H10.7529L10.4521 14.4336V15.0352C10.5166 15.429 10.7135 15.626 11.043 15.626H12.8262C13.2272 17.3232 13.4277 18.8092 13.4277 20.084C12.6973 20.6784 12.0026 20.9756 11.3438 20.9756H10.7529C9.70736 20.9756 8.02083 20.8753 5.69336 20.6748L6.29492 23.3496H7.77734C7.97786 23.3496 8.07812 23.4499 8.07812 23.6504L8.66895 23.3496H12.2354V24.832L10.1514 25.1328H8.07812C5.5 25.1328 4.21094 24.4382 4.21094 23.0488C4.01042 22.3327 3.91016 21.2441 3.91016 19.7832L4.51172 19.4824C5.89388 19.4824 8.07096 19.5827 11.043 19.7832L11.3438 19.1924V17.4092H10.7529C6.25553 17.4092 3.87793 16.915 3.62012 15.9268V15.626L5.69336 15.3252L8.66895 15.626V12.9512C8.22493 12.9512 7.82747 13.0514 7.47656 13.252C3.31576 13.0085 1.23535 12.5107 1.23535 11.7588V11.4688C1.2998 11.0677 1.50033 10.8672 1.83691 10.8672ZM26.2744 1.84375H26.8545C27.4417 1.84375 27.8356 3.60547 28.0361 7.12891H28.3262C29.028 7.12891 29.9089 7.03223 30.9688 6.83887C31.3483 7.03223 31.6419 7.12891 31.8496 7.12891V8.00977C31.8496 8.29622 31.556 8.58984 30.9688 8.89062H28.3262V13.0049C28.3262 13.3988 28.1292 13.5957 27.7354 13.5957H27.1553C26.8688 13.5957 26.5752 13.3021 26.2744 12.7148V12.4248C26.2744 9.52441 25.9808 6.19434 25.3936 2.43457L26.2744 1.84375ZM19.8076 2.43457C20.6169 2.43457 21.3044 4.48991 21.8701 8.60059C22.2568 8.60059 22.4502 9.28809 22.4502 10.6631L21.5693 11.2432H15.1133C14.6263 11.2432 14.3327 10.8529 14.2324 10.0723C14.2324 9.67839 14.3291 9.48145 14.5225 9.48145L14.2324 7.42969V3.90625C14.2324 3.58398 15.9941 3.1901 19.5176 2.72461C19.5176 2.53125 19.6143 2.43457 19.8076 2.43457ZM16.2842 5.07715V9.48145H20.1084V9.19141L19.2275 4.48633L16.2842 5.07715ZM23.041 12.7148L24.2119 13.3057L23.6318 16.2383C26.2959 18.222 27.8607 19.5934 28.3262 20.3525V20.9326C27.9323 20.9326 27.7354 21.1296 27.7354 21.5234H27.1553L22.751 18C21.9704 19.819 21.1862 20.9935 20.3984 21.5234H20.1084C19.7145 21.5234 19.5176 21.3265 19.5176 20.9326V20.3525C19.5176 19.9801 20.2015 18.4118 21.5693 15.6475C21.7197 13.6924 22.2103 12.7148 23.041 12.7148ZM44.3525 4.25C45.5199 4.52214 46.1035 6.37337 46.1035 9.80371L47.2744 18.8809H45.5234L43.4717 4.54004C43.8512 4.34668 44.1449 4.25 44.3525 4.25ZM36.7471 7.7627C39.2822 7.7627 40.5498 9.51725 40.5498 13.0264C40.5498 15.0173 39.2822 16.2848 36.7471 16.8291H35.8662C33.8037 16.8291 32.6328 15.2679 32.3535 12.1455C33.3704 9.22363 34.835 7.7627 36.7471 7.7627ZM34.4053 12.1455V13.0264C34.6416 14.4873 35.0319 15.2679 35.5762 15.3682H36.7471C38.1077 14.7451 38.7881 13.8678 38.7881 12.7363V11.5654C38.7881 10.5055 38.3011 9.72493 37.3271 9.22363H37.0371C35.2826 9.74642 34.4053 10.7204 34.4053 12.1455ZM58.3701 5.07715H58.6602C59.2474 5.07715 59.541 6.34831 59.541 8.89062V12.4248H62.4844C62.8711 12.4821 63.0645 12.6755 63.0645 13.0049C63.0645 13.5921 61.7933 13.986 59.251 14.1865V19.1816C59.251 19.5684 59.054 19.7617 58.6602 19.7617H58.0693C57.6826 19.7617 57.4893 19.5684 57.4893 19.1816C57.6826 14.0684 57.7793 10.0508 57.7793 7.12891V5.65723C57.8366 5.27051 58.0335 5.07715 58.3701 5.07715ZM54.8359 5.95801L55.1367 7.12891L54.2559 7.71973H53.375C50.8255 7.71973 49.5508 8.01335 49.5508 8.60059V9.48145L49.8408 13.0049H49.5508L49.8408 13.5957V15.3574H50.4316C51.4128 15.3574 52.8809 15.2607 54.8359 15.0674L55.1367 15.6475V16.2383C55.1367 16.6322 54.8431 16.8291 54.2559 16.8291C53.4609 16.8291 51.6956 16.9258 48.96 17.1191C48.3727 16.403 48.0791 15.7191 48.0791 15.0674L48.3799 13.8857C48.1794 13.5635 48.0791 13.0765 48.0791 12.4248H48.3799L48.0791 11.834V8.89062L47.7891 6.83887C48.1686 6.64551 48.4622 6.54883 48.6699 6.54883C50.0664 6.54883 52.1217 6.35189 54.8359 5.95801ZM64.4492 0.382812C64.8932 0.382812 65.2835 1.55729 65.6201 3.90625H65.3301C65.724 4.85156 66.0176 7.20052 66.2109 10.9531L65.6201 11.2432H65.3301C64.349 10.8564 63.8584 7.72689 63.8584 1.85449C63.665 1.85449 63.5684 1.56087 63.5684 0.973633L64.4492 0.382812ZM66.2109 15.0566C67.0202 15.3288 67.6074 15.8193 67.9727 16.5283C67.9727 17.7028 67.3854 18.5837 66.2109 19.1709H65.9209C64.818 19.1709 64.1305 18.6803 63.8584 17.6992C64.1449 15.9375 64.929 15.0566 66.2109 15.0566ZM81.1836 1.31738C82.7448 1.88314 83.5254 2.86068 83.5254 4.25V4.54004C83.5254 6.10124 82.4512 7.07878 80.3027 7.47266H78.5518C78.2868 7.47266 77.7998 6.9821 77.0908 6.00098V5.4209C77.3916 2.68522 78.7559 1.31738 81.1836 1.31738ZM79.7227 3.65918H79.4326L78.8418 3.36914L78.2617 4.83008C78.5697 5.8112 79.25 6.30176 80.3027 6.30176C81.334 6.30176 81.9212 5.32422 82.0645 3.36914C81.6706 3.36914 81.4736 3.07552 81.4736 2.48828C80.3063 2.48828 79.7227 2.87858 79.7227 3.65918ZM92.0117 3.36914H92.3018C92.6956 3.43359 92.8926 3.63053 92.8926 3.95996V4.83008C92.8926 5.0306 92.7923 5.13086 92.5918 5.13086L92.8926 5.71094V6.30176C92.8926 6.49512 92.7923 6.5918 92.5918 6.5918L92.8926 7.17188V8.34277C92.8926 8.53613 92.7923 8.63281 92.5918 8.63281C92.5918 8.83333 92.6921 8.93359 92.8926 8.93359L92.5918 10.1045C92.7923 11.8089 92.8926 12.7829 92.8926 13.0264L92.5918 13.6172C92.7923 13.9538 92.8926 14.3441 92.8926 14.7881L92.3018 15.0781H92.0117C91.7324 15.0781 91.4388 14.7845 91.1309 14.1973V10.9746C91.1309 10.5378 91.0342 10.1475 90.8408 9.80371C91.0342 8.24967 91.2275 7.47266 91.4209 7.47266L91.1309 6.88184C91.3242 6.50228 91.4209 6.20866 91.4209 6.00098L91.1309 5.4209C91.3958 4.05306 91.6895 3.36914 92.0117 3.36914ZM87.9189 4.83008H88.209C88.9395 4.83008 89.4264 7.36882 89.6699 12.4463C89.4766 12.7686 89.3799 13.2555 89.3799 13.9072V14.7881H88.7891C88.4954 14.7881 88.2054 14.3978 87.9189 13.6172L84.4062 13.9072H83.2354C83.2354 13.6995 83.1351 13.4059 82.9346 13.0264C83.5791 12.6396 84.1663 12.4463 84.6963 12.4463C84.8896 12.4463 84.9863 12.543 84.9863 12.7363C85.459 12.543 86.4365 12.346 87.9189 12.1455V9.80371C87.5251 10.1976 85.6702 10.5879 82.3545 10.9746V11.2754C82.5479 13.7103 82.6445 15.0745 82.6445 15.3682H81.4736C81.0869 14.1006 80.8936 13.2233 80.8936 12.7363V11.2754H79.4326C76.7614 11.2754 75.2969 10.7848 75.0391 9.80371C75.6263 9.61035 75.9199 9.41699 75.9199 9.22363C77.4811 9.61035 79.139 9.80371 80.8936 9.80371C84.4814 9.49577 86.4329 9.10547 86.748 8.63281H87.3281V9.22363H87.6182V7.17188L87.3281 5.13086L87.9189 4.83008ZM83.5254 15.6582C84.2201 15.6582 84.707 16.8291 84.9863 19.1709L86.1572 18.8809L88.7891 19.1709C88.7891 18.9775 88.8893 18.8809 89.0898 18.8809L88.7891 17.4199V15.959H89.96C90.5472 17.5345 90.8408 18.9954 90.8408 20.3418V20.6318C90.8408 22.3936 89.9635 23.2744 88.209 23.2744C87.5 23.4678 86.4258 23.5645 84.9863 23.5645H84.4062C83.819 23.5645 83.3285 21.126 82.9346 16.249C83.3285 16.249 83.5254 16.0521 83.5254 15.6582ZM85.2764 20.0518V22.3936C87.8187 22.3936 89.0898 21.9066 89.0898 20.9326C89.2832 20.5531 89.3799 20.2594 89.3799 20.0518L87.9189 20.3418H85.8672L85.2764 20.0518ZM95.7383 2.48828H96.0283C96.2288 2.48828 96.3291 2.58496 96.3291 2.77832C96.5225 2.77832 96.6191 2.68164 96.6191 2.48828C96.8268 2.48828 97.1204 2.58496 97.5 2.77832C98.5527 2.58496 99.43 2.48828 100.132 2.48828V2.77832C100.511 2.58496 100.805 2.48828 101.013 2.48828C101.392 2.68164 101.682 2.77832 101.883 2.77832V3.06836C101.883 3.34766 101.593 3.64128 101.013 3.94922H96.6191C95.6022 3.94922 95.015 3.6556 94.8574 3.06836L95.7383 2.48828ZM103.054 5.41016L103.354 6.00098C103.354 6.78158 101.013 7.17188 96.3291 7.17188V9.22363C96.3291 9.51725 96.7194 9.80729 97.5 10.0938C100.579 9.70703 102.334 9.51367 102.764 9.51367L103.054 10.0938C103.054 10.8743 101.006 11.2646 96.9092 11.2646C96.1286 11.2646 95.4447 10.7777 94.8574 9.80371V9.51367C94.8574 9.32031 94.9577 9.22363 95.1582 9.22363L94.8574 8.63281V8.34277L95.1582 6.88184C94.3776 6.88184 93.9873 6.6849 93.9873 6.29102C93.9873 5.9043 94.2773 5.71094 94.8574 5.71094C96.3828 5.71094 99.1149 5.61068 103.054 5.41016ZM105.696 12.4463V13.0264C105.696 13.6136 104.622 13.9072 102.474 13.9072H101.883C101.689 16.0557 101.399 17.1299 101.013 17.1299C100.733 17.1299 100.44 16.8363 100.132 16.249V15.959C100.132 15.7585 100.229 15.6582 100.422 15.6582C100.229 15.3359 100.132 14.849 100.132 14.1973H99.8418C97.1921 14.1973 95.0436 14.0039 93.3965 13.6172V13.3164C93.3965 12.9297 93.6901 12.7363 94.2773 12.7363C100.859 12.543 104.665 12.4463 105.696 12.4463ZM96.9092 16.249C97.2887 16.4424 97.5824 16.5391 97.79 16.5391V19.1709C97.79 19.4574 98.0837 19.751 98.6709 20.0518H100.422C101.403 20.0518 102.868 19.9551 104.815 19.7617V20.3418C104.815 20.929 103.158 21.4196 99.8418 21.8135C98.0801 21.8135 96.9092 21.1296 96.3291 19.7617V16.8291C96.3864 16.4424 96.5798 16.249 96.9092 16.249Z" fill="#222222"/>
</svg>
