<svg width="103" height="27" viewBox="0 0 103 27" fill="none" xmlns="http://www.w3.org/2000/svg">
<path d="M11.5479 2.30762C12.0205 2.37923 12.2568 2.85547 12.2568 3.73633V7.85059C12.2568 8.02962 12.0205 8.20866 11.5479 8.3877L11.1934 7.85059V3.55371C11.1934 3.31738 11.0716 3.19922 10.8281 3.19922H10.1191C9.56771 3.19922 8.61523 3.31738 7.26172 3.55371L7.0791 3.19922V3.0166C7.0791 2.54395 8.56868 2.30762 11.5479 2.30762ZM4.22168 2.84473H4.75879C5.58952 2.84473 6.00488 3.2028 6.00488 3.91895C5.8903 4.92871 5.83301 5.76302 5.83301 6.42188V8.3877C5.83301 8.55957 5.65397 8.73861 5.2959 8.9248C5.05957 8.80306 4.88053 8.74219 4.75879 8.74219C4.87337 6.54362 4.93066 4.93587 4.93066 3.91895C4.39355 3.91895 4.03548 3.85807 3.85645 3.73633C3.17611 3.85807 2.28451 4.09798 1.18164 4.45605C0.952474 4.33431 0.773438 4.27344 0.644531 4.27344V3.38184C2.32747 3.02376 3.51986 2.84473 4.22168 2.84473ZM14.4053 11.9541L14.5879 12.3193C14.5879 12.9137 13.2773 13.2109 10.6562 13.2109L10.291 13.748C10.4128 15.9395 10.5918 17.25 10.8281 17.6797L10.4736 18.3887H12.7939C13.3167 18.3887 13.6175 19.5238 13.6963 21.7939C13.3883 22.2236 11.3617 22.818 7.61621 23.5771C7.61621 23.6989 7.49805 23.7598 7.26172 23.7598V23.9316C7.54102 25.2422 8.07454 25.8975 8.8623 25.8975H10.8281C13.2559 25.8975 14.8063 25.7184 15.4795 25.3604L15.834 25.8975C15.6693 26.4919 15.2539 26.7891 14.5879 26.7891C14.4661 26.7891 14.4053 26.7318 14.4053 26.6172C13.0732 26.8535 11.5264 26.9717 9.76465 26.9717C7.73796 26.9717 6.72461 26.4346 6.72461 25.3604C6.48828 25.3389 6.30924 24.9235 6.1875 24.1143V23.5771C6.1875 23.1117 8.27148 22.3955 12.4395 21.4287C12.5612 21.1995 12.6221 21.0205 12.6221 20.8916C12.6221 20.376 12.5003 19.8424 12.2568 19.291C11.1182 19.5273 9.09505 19.6455 6.1875 19.6455C6.1875 19.5238 6.12663 19.4629 6.00488 19.4629C6.09798 18.8685 7.40853 18.5713 9.93652 18.5713V18.3887C9.72884 18.3887 9.49251 16.7809 9.22754 13.5654C7.3584 13.6872 5.98698 13.748 5.11328 13.748C4.6263 13.748 3.91016 13.6299 2.96484 13.3936V12.8564L3.14746 12.4912L5.65039 12.6738C8.65104 12.4375 11.5693 12.1403 14.4053 11.7822V11.9541ZM24.9209 1.57715H25.6299C25.902 3.99772 26.2028 5.78809 26.5322 6.94824C28.7093 6.59017 30.0807 6.41113 30.6465 6.41113L30.8184 6.76562V7.12012C30.8184 7.50684 29.5078 7.74674 26.8867 7.83984L26.5322 8.37695C26.5322 9.20768 26.5895 10.5182 26.7041 12.3086L25.9951 12.4912L25.6299 11.9541V9.98828C25.6299 8.74219 25.3327 6.11751 24.7383 2.11426C24.86 1.88509 24.9209 1.70605 24.9209 1.57715ZM21.1611 3.0166C21.8773 3.0166 22.2354 3.85091 22.2354 5.51953V7.12012L22.6006 7.65723V8.19434C22.3213 8.70996 22.0205 9.00716 21.6982 9.08594C21.1898 8.72786 19.8219 8.54883 17.5947 8.54883C17.0505 8.54883 16.6315 7.05924 16.3379 4.08008C16.3379 3.37109 17.9456 3.0166 21.1611 3.0166ZM17.4121 4.7998C17.5697 6.59017 17.806 7.48535 18.1211 7.48535C18.5221 7.48535 19.5355 7.54264 21.1611 7.65723V4.61719C21.1611 4.44531 20.9821 4.26628 20.624 4.08008H20.2695L19.1953 4.2627L18.8408 4.08008C17.8883 4.32357 17.4121 4.56348 17.4121 4.7998ZM22.6006 13.2002H22.7725C23.0088 13.236 23.127 13.3577 23.127 13.5654C22.8906 14.4105 22.7725 14.8867 22.7725 14.9941C22.7725 15.1875 23.6068 15.6029 25.2754 16.2402C27.4238 17.515 28.498 18.2311 28.498 18.3887V18.9258C28.3691 18.9258 28.1901 18.9831 27.9609 19.0977C25.082 17.1927 23.1735 16.2402 22.2354 16.2402C21.7126 17.8086 21.2363 18.7611 20.8066 19.0977H20.4521C20.2158 19.0977 20.0977 18.9795 20.0977 18.7432C21.3294 15.3988 22.1637 13.5511 22.6006 13.2002ZM40.1621 0.696289H40.3447C40.5811 0.732096 40.6992 0.853841 40.6992 1.06152V2.66211L41.0537 3.19922L41.9561 3.0166H42.665C42.9014 3.05957 43.0195 3.18132 43.0195 3.38184V3.73633C43.0195 3.99414 42.7223 4.71029 42.1279 5.88477C43.7035 6.88737 44.5986 7.54264 44.8135 7.85059C44.6917 8.07975 44.6309 8.25521 44.6309 8.37695H44.0938C42.6615 7.3099 41.888 6.77637 41.7734 6.77637H41.4189L39.4531 8.55957H39.0879C38.8516 8.55957 38.7334 8.38053 38.7334 8.02246C38.7334 7.87923 39.5677 7.04492 41.2363 5.51953C41.2363 5.2474 41.4154 4.8929 41.7734 4.45605V4.09082L38.5615 4.45605C38.3467 4.33431 38.1068 4.27344 37.8418 4.27344V3.91895C37.8418 3.61816 38.4971 3.37826 39.8076 3.19922V1.06152C39.8434 0.818034 39.9616 0.696289 40.1621 0.696289ZM46.5967 1.41602H46.7793C47.1374 1.5306 47.3164 1.88867 47.3164 2.49023V6.23926C47.4382 6.23926 47.6136 6.29655 47.8428 6.41113C48.3226 6.1748 48.7415 6.05664 49.0996 6.05664C49.5723 6.23568 49.8086 6.41471 49.8086 6.59375V6.77637C49.8086 7.0127 49.0352 7.24902 47.4883 7.48535L47.3164 7.85059V10.3428C47.3164 10.5146 47.1374 10.6937 46.7793 10.8799L46.2422 10.5254L46.4141 8.37695V3.38184L46.2422 1.58789L46.5967 1.41602ZM45.7051 12.1367C46.5358 12.3014 46.9512 12.5378 46.9512 12.8457L46.4141 14.6396C47.3164 15.5993 48.2116 16.3118 49.0996 16.7773V17.1318C49.0996 17.4899 48.8597 17.6689 48.3799 17.6689C48.1364 17.6689 47.3021 16.9564 45.877 15.5312C45.7982 15.5312 45.2646 16.0648 44.2764 17.1318H44.0938C43.8574 17.1318 43.7393 17.0137 43.7393 16.7773V16.4229C45.0498 14.9333 45.7051 13.8626 45.7051 13.2109V13.0283H45.168L41.4189 13.9199L41.2363 13.5654V13.3828C41.2363 12.8171 42.7259 12.4017 45.7051 12.1367ZM59.959 3.38184H60.1416C60.3779 3.41764 60.4961 3.53581 60.4961 3.73633V4.45605C60.4961 5.64486 60.557 7.43164 60.6787 9.81641C60.915 9.85221 61.0332 9.97038 61.0332 10.1709L64.793 9.63379C65.0221 9.75553 65.2012 9.81641 65.3301 9.81641V10.3535C65.3301 10.5254 65.151 10.7044 64.793 10.8906H64.4277C62.1647 10.8906 61.0332 11.0661 61.0332 11.417C61.1549 13.3363 61.4521 15.1266 61.9248 16.7881C61.7744 17.3825 61.599 17.6797 61.3984 17.6797H61.2158C60.8577 17.6797 60.5605 16.0719 60.3242 12.8564C60.0664 12.8564 59.7692 9.93457 59.4326 4.09082C59.6117 3.61816 59.7871 3.38184 59.959 3.38184ZM52.8154 7.66797C54.484 7.93294 55.3184 8.58822 55.3184 9.63379V9.98828C55.3184 11.6569 54.305 12.4912 52.2783 12.4912C50.9678 12.1188 50.3125 11.4635 50.3125 10.5254V9.81641C50.3125 9.54427 50.3734 9.30436 50.4951 9.09668L50.3125 8.74219C50.3125 8.34831 51.1468 7.99023 52.8154 7.66797ZM51.2041 10.3535V10.5254C51.4404 11.1198 51.8594 11.417 52.4609 11.417H52.8154C53.8896 11.417 54.4268 10.8226 54.4268 9.63379C54.1976 9.03939 53.7214 8.74219 52.998 8.74219C51.8021 8.9069 51.2041 9.44401 51.2041 10.3535ZM76.2852 1.95312H77.542C78.4372 1.95312 79.0924 2.25033 79.5078 2.84473V3.02734C79.1426 5.16862 78.4873 6.23926 77.542 6.23926C75.6299 5.93848 74.6738 5.22233 74.6738 4.09082V3.55371C74.8314 2.48665 75.3685 1.95312 76.2852 1.95312ZM76.6396 2.84473C76.6396 3.36751 76.3424 3.78288 75.748 4.09082V4.27344C76.056 4.86784 76.5322 5.16504 77.1768 5.16504H77.542C77.9144 5.16504 78.2689 4.50977 78.6055 3.19922L78.0684 2.84473H76.6396ZM83.7939 2.66211L84.3311 3.02734L84.1484 4.81055V6.05664C84.1484 6.6224 84.2093 7.22038 84.3311 7.85059C84.2093 8.2946 84.1484 8.82812 84.1484 9.45117V9.98828L84.3311 11.0625C84.2093 11.263 84.1484 11.5602 84.1484 11.9541C84.1484 12.792 84.2666 13.2109 84.5029 13.2109C84.3239 13.6836 84.1449 13.9199 83.9658 13.9199H83.7939C83.4359 13.8483 83.2568 13.3721 83.2568 12.4912V12.3193C83.2568 11.639 83.3177 11.2201 83.4395 11.0625C83.3177 10.418 83.2568 9.88086 83.2568 9.45117V7.66797C81.5023 8.02604 80.4281 8.20508 80.0342 8.20508L79.8623 7.85059V7.48535C79.8623 7.33496 80.8757 7.03776 82.9023 6.59375C82.9023 6.47917 83.0205 6.42188 83.2568 6.42188V3.19922C83.2568 3.02734 83.4359 2.84831 83.7939 2.66211ZM86.6514 3.38184H87.0059L87.3711 3.55371L87.1885 5.34766V8.3877C87.1885 10.0635 87.4284 12.4447 87.9082 15.5312L87.3711 15.8857C86.8626 15.8857 86.5046 13.0856 86.2969 7.48535V3.73633C86.3327 3.5 86.4508 3.38184 86.6514 3.38184ZM80.3994 9.09668C80.6071 9.21842 80.8434 9.2793 81.1084 9.2793V9.98828C81.1084 10.0814 80.9294 10.2604 80.5713 10.5254L79.3252 10.3535H78.251L78.0684 11.2451V13.3936C78.3118 14.2386 78.4336 14.7148 78.4336 14.8223C78.3118 15.2949 78.0146 15.5312 77.542 15.5312L77.1768 14.9941V14.8223C77.1768 13.8698 77.1195 12.6165 77.0049 11.0625C77.1195 10.8333 77.1768 10.6543 77.1768 10.5254L76.8223 10.3535H72.708C72.4717 10.3535 72.3535 10.2318 72.3535 9.98828V9.45117L73.2451 9.2793H80.2168C80.3385 9.2793 80.3994 9.21842 80.3994 9.09668ZM81.1084 17.3252H81.4736C81.71 17.361 81.8281 17.4792 81.8281 17.6797V20.1826C81.8639 20.4189 81.9821 20.5371 82.1826 20.5371H82.5371C84.4492 20.5371 85.4053 20.3581 85.4053 20V17.6797C85.4411 17.4434 85.5592 17.3252 85.7598 17.3252H86.1143C86.3506 17.361 86.4688 17.4792 86.4688 17.6797C86.4688 17.8587 86.3506 18.3958 86.1143 19.291C86.1143 19.5059 86.2324 19.9821 86.4688 20.7197L86.2969 21.0742C86.4115 21.7188 86.4688 22.2559 86.4688 22.6855V23.04C86.4688 23.5199 84.861 23.7598 81.6455 23.7598C81.0511 22.041 80.7539 20.1325 80.7539 18.0342V17.6797C80.7897 17.4434 80.9079 17.3252 81.1084 17.3252ZM82 22.1484C82.1217 22.3776 82.1826 22.5566 82.1826 22.6855H83.2568C84.8037 22.6855 85.5771 22.4456 85.5771 21.9658C85.4626 21.7367 85.4053 21.5576 85.4053 21.4287H84.8682C82.9561 21.4287 82 21.6686 82 22.1484ZM97.5322 4.08008H97.8867V4.2627C97.8867 4.97884 97.3532 5.33691 96.2861 5.33691C95.8851 5.33691 94.929 5.45508 93.418 5.69141V7.65723L93.6006 8.02246C95.2119 7.87923 96.5833 7.7002 97.7148 7.48535L98.4238 8.02246C98.2448 8.49512 98.0658 8.73145 97.8867 8.73145H96.6406C94.7285 8.73145 93.7725 8.91048 93.7725 9.26855C93.7725 9.45475 94.0124 9.69466 94.4922 9.98828H94.6748C95.0687 9.98828 96.3792 9.80924 98.6064 9.45117C98.8428 9.48698 98.9609 9.60514 98.9609 9.80566V10.1709C98.9609 10.3786 97.5322 10.6758 94.6748 11.0625C93.1208 11.0625 92.3438 9.45117 92.3438 6.22852V4.98242C92.3796 4.73893 92.5013 4.61719 92.709 4.61719H93.2461C94.5423 4.61719 95.971 4.43815 97.5322 4.08008ZM102.001 14.1025L102.184 14.457V14.6396C102.184 14.9977 101.528 15.234 100.218 15.3486H98.9609C98.8464 15.5635 98.7891 15.8034 98.7891 16.0684V16.4229C98.7891 17.4971 98.9072 18.5104 99.1436 19.4629C98.9645 19.9427 98.7855 20.1826 98.6064 20.1826H98.4238C98.252 20.1826 98.0729 20.0036 97.8867 19.6455V15.7139L97.7148 15.3486C92.7663 15.5921 89.8444 15.7139 88.9492 15.7139C88.7201 15.5921 88.541 15.5312 88.4121 15.5312V15.1768C88.5339 14.8187 88.8919 14.6396 89.4863 14.6396H93.418L102.001 14.1025ZM94.3096 18.5713H94.8467C95.0544 18.5713 95.2943 19.4056 95.5664 21.0742C96.1608 21.3464 96.458 21.5254 96.458 21.6113C98.3343 21.4538 100.243 21.0957 102.184 20.5371C102.413 20.6589 102.592 20.7197 102.721 20.7197V20.9023C102.721 21.6113 102.184 21.9658 101.109 21.9658C98.6816 22.3239 96.834 22.5029 95.5664 22.5029C94.6139 21.4502 94.1377 20.3187 94.1377 19.1084C94.2523 18.8792 94.3096 18.7002 94.3096 18.5713Z" fill="#222222"/>
<path d="M11.5479 2.30762L11.5853 2.06044L11.5667 2.05762H11.5479V2.30762ZM11.5479 8.3877L11.3392 8.52541L11.4494 8.69233L11.6364 8.62149L11.5479 8.3877ZM11.1934 7.85059H10.9434V7.92565L10.9847 7.9883L11.1934 7.85059ZM7.26172 3.55371L7.03947 3.6682L7.12365 3.8316L7.30472 3.79999L7.26172 3.55371ZM7.0791 3.19922H6.8291V3.25983L6.85686 3.31371L7.0791 3.19922ZM6.00488 3.91895L6.25329 3.94713L6.25488 3.93308V3.91895H6.00488ZM5.2959 8.9248L5.18141 9.14705L5.29644 9.20631L5.41124 9.14661L5.2959 8.9248ZM4.75879 8.74219L4.50913 8.72918L4.49542 8.99219H4.75879V8.74219ZM4.93066 3.91895H5.18066V3.66895H4.93066V3.91895ZM3.85645 3.73633L3.99702 3.5296L3.91274 3.47228L3.81241 3.49024L3.85645 3.73633ZM1.18164 4.45605L1.06435 4.67683L1.15799 4.72658L1.25884 4.69384L1.18164 4.45605ZM0.644531 4.27344H0.394531V4.52344H0.644531V4.27344ZM0.644531 3.38184L0.592504 3.13731L0.394531 3.17943V3.38184H0.644531ZM14.4053 11.9541H14.1553V12.0131L14.1817 12.0659L14.4053 11.9541ZM14.5879 12.3193H14.8379V12.2603L14.8115 12.2075L14.5879 12.3193ZM10.6562 13.2109V12.9609H10.5239L10.4495 13.0704L10.6562 13.2109ZM10.291 13.748L10.0843 13.6075L10.0367 13.6774L10.0414 13.7619L10.291 13.748ZM10.8281 17.6797L11.0517 17.7915L11.1104 17.6742L11.0472 17.5592L10.8281 17.6797ZM10.4736 18.3887L10.25 18.2769L10.0691 18.6387H10.4736V18.3887ZM13.6963 21.7939L13.8995 21.9396L13.9491 21.8704L13.9461 21.7853L13.6963 21.7939ZM7.61621 23.5771L7.56655 23.3321L7.36621 23.3727V23.5771H7.61621ZM7.26172 23.7598V23.5098H7.01172V23.7598H7.26172ZM7.26172 23.9316H7.01172V23.958L7.01721 23.9837L7.26172 23.9316ZM15.4795 25.3604L15.6881 25.2226L15.5629 25.0328L15.3621 25.1396L15.4795 25.3604ZM15.834 25.8975L16.0749 25.9642L16.1053 25.8546L16.0426 25.7598L15.834 25.8975ZM14.4053 26.6172H14.6553V26.3189L14.3616 26.371L14.4053 26.6172ZM6.72461 25.3604H6.97461V25.132L6.74724 25.1114L6.72461 25.3604ZM6.1875 24.1143H5.9375V24.133L5.94028 24.1514L6.1875 24.1143ZM12.4395 21.4287L12.4959 21.6722L12.6068 21.6465L12.6602 21.546L12.4395 21.4287ZM12.2568 19.291L12.4855 19.19L12.4039 19.0052L12.206 19.0462L12.2568 19.291ZM6.1875 19.6455H5.9375V19.8955H6.1875V19.6455ZM6.00488 19.4629L5.75789 19.4242L5.71268 19.7129H6.00488V19.4629ZM9.93652 18.5713V18.8213H10.1865V18.5713H9.93652ZM9.93652 18.3887H10.1865V18.1387H9.93652V18.3887ZM9.22754 13.5654L9.47669 13.5449L9.45651 13.3L9.21129 13.316L9.22754 13.5654ZM2.96484 13.3936H2.71484V13.5887L2.90421 13.6361L2.96484 13.3936ZM2.96484 12.8564L2.74124 12.7446L2.71484 12.7974V12.8564H2.96484ZM3.14746 12.4912L3.16565 12.2419L2.99871 12.2297L2.92385 12.3794L3.14746 12.4912ZM5.65039 12.6738L5.6322 12.9232L5.65111 12.9245L5.67002 12.9231L5.65039 12.6738ZM14.4053 11.7822H14.6553V11.4987L14.374 11.5342L14.4053 11.7822ZM11.5104 2.5548C11.6561 2.57687 11.769 2.65503 11.8556 2.82964C11.949 3.01766 12.0068 3.31219 12.0068 3.73633H12.5068C12.5068 3.2796 12.4466 2.89559 12.3035 2.60738C12.1539 2.30575 11.9123 2.10998 11.5853 2.06044L11.5104 2.5548ZM12.0068 3.73633V7.85059H12.5068V3.73633H12.0068ZM12.0068 7.85059C12.0068 7.82207 12.025 7.84685 11.9286 7.91987C11.8383 7.98832 11.6866 8.06779 11.4593 8.15391L11.6364 8.62149C11.8817 8.52856 12.0846 8.429 12.2306 8.31841C12.3705 8.21239 12.5068 8.05814 12.5068 7.85059H12.0068ZM11.7565 8.24998L11.402 7.71288L10.9847 7.9883L11.3392 8.52541L11.7565 8.24998ZM11.4434 7.85059V3.55371H10.9434V7.85059H11.4434ZM11.4434 3.55371C11.4434 3.39508 11.4021 3.23064 11.2762 3.10845C11.1517 2.9876 10.9866 2.94922 10.8281 2.94922V3.44922C10.8695 3.44922 10.8958 3.45433 10.911 3.45924C10.9183 3.4616 10.9226 3.46379 10.9249 3.46511C10.927 3.46636 10.9278 3.46712 10.9279 3.46724C10.928 3.46734 10.9285 3.46778 10.9293 3.46915C10.9302 3.4706 10.932 3.47387 10.9341 3.47982C10.9383 3.4922 10.9434 3.51537 10.9434 3.55371H11.4434ZM10.8281 2.94922H10.1191V3.44922H10.8281V2.94922ZM10.1191 2.94922C9.54356 2.94922 8.57164 3.07121 7.21872 3.30744L7.30472 3.79999C8.65883 3.56355 9.59186 3.44922 10.1191 3.44922V2.94922ZM7.48396 3.43922L7.30135 3.08473L6.85686 3.31371L7.03947 3.6682L7.48396 3.43922ZM7.3291 3.19922V3.0166H6.8291V3.19922H7.3291ZM7.3291 3.0166C7.3291 3.05252 7.29848 3.01181 7.46584 2.93216C7.61944 2.85905 7.8706 2.78966 8.23546 2.73178C8.96017 2.6168 10.0613 2.55762 11.5479 2.55762V2.05762C10.0552 2.05762 8.922 2.1166 8.15712 2.23795C7.77718 2.29823 7.46975 2.37655 7.25096 2.48069C7.04592 2.57827 6.8291 2.74436 6.8291 3.0166H7.3291ZM4.22168 3.09473H4.75879V2.59473H4.22168V3.09473ZM4.75879 3.09473C5.14396 3.09473 5.38617 3.17853 5.53012 3.30263C5.66698 3.42062 5.75488 3.60989 5.75488 3.91895H6.25488C6.25488 3.51186 6.1351 3.16402 5.85659 2.92393C5.58519 2.68996 5.20435 2.59473 4.75879 2.59473V3.09473ZM5.75648 3.89076C5.64133 4.90545 5.58301 5.75 5.58301 6.42188H6.08301C6.08301 5.77604 6.13926 4.95197 6.25329 3.94713L5.75648 3.89076ZM5.58301 6.42188V8.3877H6.08301V6.42188H5.58301ZM5.58301 8.3877C5.58301 8.38155 5.58667 8.40939 5.52195 8.4741C5.45794 8.53811 5.3487 8.61557 5.18056 8.703L5.41124 9.14661C5.60117 9.04784 5.76048 8.94268 5.87551 8.82766C5.98983 8.71333 6.08301 8.56572 6.08301 8.3877H5.58301ZM5.41039 8.70256C5.1711 8.57929 4.94544 8.49219 4.75879 8.49219V8.99219C4.81563 8.99219 4.94804 9.02683 5.18141 9.14705L5.41039 8.70256ZM5.00845 8.7552C5.12306 6.55608 5.18066 4.94282 5.18066 3.91895H4.68066C4.68066 4.92893 4.62368 6.53116 4.50913 8.72918L5.00845 8.7552ZM4.93066 3.66895C4.67017 3.66895 4.46151 3.65408 4.30118 3.62683C4.13666 3.59886 4.04332 3.56108 3.99702 3.5296L3.71587 3.94306C3.84861 4.03332 4.02382 4.08685 4.21738 4.11976C4.41511 4.15337 4.65405 4.16895 4.93066 4.16895V3.66895ZM3.81241 3.49024C3.11586 3.61488 2.21195 3.85869 1.10444 4.21827L1.25884 4.69384C2.35706 4.33727 3.23636 4.10126 3.90048 3.98242L3.81241 3.49024ZM1.29893 4.23528C1.06322 4.11005 0.838198 4.02344 0.644531 4.02344V4.52344C0.708677 4.52344 0.841729 4.55857 1.06435 4.67683L1.29893 4.23528ZM0.894531 4.27344V3.38184H0.394531V4.27344H0.894531ZM0.696558 3.62636C2.37993 3.2682 3.54904 3.09473 4.22168 3.09473V2.59473C3.49067 2.59473 2.27501 2.77933 0.592504 3.13731L0.696558 3.62636ZM14.1817 12.0659L14.3643 12.4311L14.8115 12.2075L14.6289 11.8423L14.1817 12.0659ZM14.3379 12.3193C14.3379 12.3588 14.3221 12.4207 14.2015 12.5027C14.0755 12.5884 13.865 12.6727 13.5497 12.7442C12.9225 12.8865 11.9622 12.9609 10.6562 12.9609V13.4609C11.9714 13.4609 12.977 13.3868 13.6603 13.2318C14.0002 13.1548 14.2812 13.0533 14.4828 12.9161C14.6898 12.7752 14.8379 12.5771 14.8379 12.3193H14.3379ZM10.4495 13.0704L10.0843 13.6075L10.4977 13.8886L10.863 13.3515L10.4495 13.0704ZM10.0414 13.7619C10.1024 14.8606 10.1781 15.7436 10.2689 16.4083C10.3143 16.7407 10.364 17.022 10.4185 17.2503C10.4721 17.4749 10.5337 17.6632 10.6091 17.8002L11.0472 17.5592C11.0044 17.4813 10.955 17.3447 10.9048 17.1342C10.8554 16.9275 10.8084 16.6636 10.7643 16.3407C10.6761 15.6949 10.6013 14.8269 10.5406 13.7342L10.0414 13.7619ZM10.6045 17.5679L10.25 18.2769L10.6972 18.5005L11.0517 17.7915L10.6045 17.5679ZM10.4736 18.6387H12.7939V18.1387H10.4736V18.6387ZM12.7939 18.6387C12.8188 18.6387 12.8687 18.6472 12.9421 18.7483C13.0187 18.854 13.0981 19.0327 13.17 19.304C13.313 19.8437 13.4072 20.6723 13.4464 21.8026L13.9461 21.7853C13.9066 20.6454 13.8111 19.7714 13.6533 19.176C13.5748 18.8797 13.476 18.6328 13.3468 18.4547C13.2143 18.2721 13.0304 18.1387 12.7939 18.1387V18.6387ZM13.4931 21.6483C13.4814 21.6647 13.4464 21.7006 13.3657 21.7521C13.2881 21.8016 13.1816 21.8572 13.0426 21.9182C12.7648 22.04 12.3771 22.1748 11.875 22.3221C10.8718 22.6163 9.4369 22.9531 7.56655 23.3321L7.66587 23.8222C9.54096 23.4421 10.9921 23.1021 12.0157 22.8019C12.5269 22.652 12.9376 22.5102 13.2435 22.376C13.3964 22.309 13.528 22.2417 13.6348 22.1735C13.7385 22.1073 13.8342 22.0307 13.8995 21.9396L13.4931 21.6483ZM7.36621 23.5771C7.36621 23.5653 7.3697 23.5436 7.38416 23.5212C7.39784 23.5001 7.41241 23.4922 7.4131 23.4919C7.41327 23.4918 7.41056 23.4932 7.40391 23.4952C7.39728 23.4973 7.38767 23.4997 7.3745 23.502C7.34772 23.5066 7.31075 23.5098 7.26172 23.5098V24.0098C7.39323 24.0098 7.52982 23.9942 7.64208 23.9364C7.70184 23.9056 7.76072 23.8597 7.80395 23.7929C7.84795 23.7249 7.86621 23.6498 7.86621 23.5771H7.36621ZM7.01172 23.7598V23.9316H7.51172V23.7598H7.01172ZM7.01721 23.9837C7.16078 24.6574 7.37521 25.1926 7.67747 25.5639C7.98776 25.9449 8.38719 26.1475 8.8623 26.1475V25.6475C8.54966 25.6475 8.28844 25.5223 8.0652 25.2482C7.83394 24.9641 7.64196 24.5164 7.50623 23.8795L7.01721 23.9837ZM8.8623 26.1475H10.8281V25.6475H8.8623V26.1475ZM10.8281 26.1475C12.0469 26.1475 13.052 26.1026 13.8404 26.0115C14.6211 25.9214 15.2166 25.7833 15.5969 25.5811L15.3621 25.1396C15.0692 25.2954 14.5529 25.4259 13.7831 25.5148C13.0211 25.6028 12.037 25.6475 10.8281 25.6475V26.1475ZM15.2708 25.4981L15.6253 26.0352L16.0426 25.7598L15.6881 25.2226L15.2708 25.4981ZM15.5931 25.8307C15.5227 26.0847 15.4055 26.254 15.2535 26.3628C15.0995 26.473 14.8845 26.5391 14.5879 26.5391V27.0391C14.9573 27.0391 15.283 26.9565 15.5444 26.7695C15.8077 26.5811 15.9806 26.3047 16.0749 25.9642L15.5931 25.8307ZM14.5879 26.5391C14.5619 26.5391 14.5889 26.5327 14.6223 26.564C14.6585 26.5981 14.6553 26.6319 14.6553 26.6172H14.1553C14.1553 26.717 14.1825 26.8368 14.2796 26.9281C14.3738 27.0168 14.4921 27.0391 14.5879 27.0391V26.5391ZM14.3616 26.371C13.0475 26.6042 11.5158 26.7217 9.76465 26.7217V27.2217C11.5369 27.2217 13.0989 27.1029 14.4489 26.8633L14.3616 26.371ZM9.76465 26.7217C8.76523 26.7217 8.05433 26.5879 7.6017 26.348C7.3791 26.23 7.22527 26.0897 7.12624 25.9322C7.02776 25.7756 6.97461 25.588 6.97461 25.3604H6.47461C6.47461 25.6698 6.54812 25.9522 6.70298 26.1984C6.85729 26.4438 7.08347 26.6392 7.36754 26.7897C7.92826 27.0869 8.73737 27.2217 9.76465 27.2217V26.7217ZM6.74724 25.1114C6.77988 25.1143 6.72823 25.1323 6.64267 24.9338C6.56591 24.7557 6.49452 24.4746 6.43472 24.0771L5.94028 24.1514C6.00222 24.5632 6.08123 24.8944 6.18351 25.1317C6.27698 25.3485 6.43301 25.5849 6.70198 25.6093L6.74724 25.1114ZM6.4375 24.1143V23.5771H5.9375V24.1143H6.4375ZM6.4375 23.5771C6.4375 23.6145 6.41783 23.6124 6.46317 23.5664C6.50527 23.5237 6.58069 23.467 6.70156 23.3985C6.94185 23.2623 7.31536 23.1048 7.83174 22.9273C8.86123 22.5736 10.4141 22.1551 12.4959 21.6722L12.383 21.1852C10.2968 21.6691 8.72374 22.0921 7.66924 22.4545C7.14362 22.6351 6.73564 22.8044 6.45494 22.9636C6.31531 23.0427 6.19535 23.1259 6.10721 23.2153C6.02229 23.3014 5.9375 23.4234 5.9375 23.5771H6.4375ZM12.6602 21.546C12.7855 21.3103 12.8721 21.0853 12.8721 20.8916H12.3721C12.3721 20.9557 12.3369 21.0888 12.2187 21.3114L12.6602 21.546ZM12.8721 20.8916C12.8721 20.3358 12.7407 19.768 12.4855 19.19L12.0281 19.392C12.2599 19.9169 12.3721 20.4161 12.3721 20.8916H12.8721ZM12.206 19.0462C11.0954 19.2767 9.09587 19.3955 6.1875 19.3955V19.8955C9.09423 19.8955 11.1409 19.7779 12.3076 19.5358L12.206 19.0462ZM6.4375 19.6455C6.4375 19.5461 6.41248 19.4256 6.31862 19.3318C6.22477 19.2379 6.10429 19.2129 6.00488 19.2129V19.7129C6.02722 19.7129 5.99805 19.7183 5.96507 19.6853C5.93209 19.6523 5.9375 19.6232 5.9375 19.6455H6.4375ZM6.25187 19.5016C6.26026 19.448 6.29811 19.3721 6.43702 19.2838C6.57803 19.1943 6.79818 19.1094 7.11291 19.038C7.74055 18.8957 8.67789 18.8213 9.93652 18.8213V18.3213C8.66716 18.3213 7.68523 18.3955 7.00233 18.5504C6.66178 18.6276 6.37884 18.7285 6.16893 18.8618C5.95693 18.9965 5.79606 19.1805 5.75789 19.4242L6.25187 19.5016ZM10.1865 18.5713V18.3887H9.68652V18.5713H10.1865ZM9.93652 18.1387C10.0097 18.1387 10.0552 18.175 10.0696 18.1887C10.0834 18.2019 10.0849 18.2087 10.0778 18.1955C10.064 18.1697 10.0425 18.1154 10.0164 18.0207C9.96509 17.835 9.90956 17.5459 9.85086 17.1465C9.73389 16.3508 9.60908 15.1514 9.47669 13.5449L8.97838 13.586C9.11097 15.1949 9.23681 16.4072 9.35617 17.2192C9.41563 17.6237 9.47469 17.9375 9.53441 18.1538C9.56374 18.26 9.59686 18.3564 9.63682 18.4312C9.65658 18.4681 9.6847 18.5127 9.72494 18.551C9.76573 18.5898 9.83736 18.6387 9.93652 18.6387V18.1387ZM9.21129 13.316C7.3429 13.4377 5.97833 13.498 5.11328 13.498V13.998C5.99563 13.998 7.37389 13.9367 9.24379 13.8149L9.21129 13.316ZM5.11328 13.498C4.65822 13.498 3.96656 13.3863 3.02548 13.151L2.90421 13.6361C3.85376 13.8735 4.59438 13.998 5.11328 13.998V13.498ZM3.21484 13.3936V12.8564H2.71484V13.3936H3.21484ZM3.18845 12.9682L3.37107 12.603L2.92385 12.3794L2.74124 12.7446L3.18845 12.9682ZM3.12927 12.7405L5.6322 12.9232L5.66858 12.4245L3.16565 12.2419L3.12927 12.7405ZM5.67002 12.9231C8.67437 12.6864 11.5966 12.3888 14.4366 12.0303L14.374 11.5342C11.5421 11.8918 8.62771 12.1886 5.63076 12.4246L5.67002 12.9231ZM14.1553 11.7822V11.9541H14.6553V11.7822H14.1553ZM24.9209 1.57715V1.32715H24.6709V1.57715H24.9209ZM25.6299 1.57715L25.8783 1.54922L25.8534 1.32715H25.6299V1.57715ZM26.5322 6.94824L26.2917 7.01653L26.3527 7.23113L26.5728 7.19493L26.5322 6.94824ZM30.6465 6.41113L30.8714 6.30206L30.8031 6.16113H30.6465V6.41113ZM30.8184 6.76562H31.0684V6.70821L31.0433 6.65656L30.8184 6.76562ZM26.8867 7.83984L26.8778 7.59L26.7491 7.59458L26.6781 7.70213L26.8867 7.83984ZM26.5322 8.37695L26.3236 8.23924L26.2822 8.30189V8.37695H26.5322ZM26.7041 12.3086L26.7665 12.5507L26.9668 12.4991L26.9536 12.2926L26.7041 12.3086ZM25.9951 12.4912L25.7884 12.6318L25.8872 12.7772L26.0575 12.7333L25.9951 12.4912ZM25.6299 11.9541H25.3799V12.031L25.4232 12.0947L25.6299 11.9541ZM24.7383 2.11426L24.5175 1.99697L24.4789 2.06961L24.491 2.15098L24.7383 2.11426ZM22.2354 7.12012H21.9854V7.19706L22.0286 7.26069L22.2354 7.12012ZM22.6006 7.65723H22.8506V7.58028L22.8073 7.51665L22.6006 7.65723ZM22.6006 8.19434L22.8204 8.31341L22.8506 8.2577V8.19434H22.6006ZM21.6982 9.08594L21.5543 9.29034L21.6472 9.35577L21.7576 9.32879L21.6982 9.08594ZM16.3379 4.08008H16.0879V4.09237L16.0891 4.1046L16.3379 4.08008ZM17.4121 4.7998H17.1621V4.81078L17.1631 4.82172L17.4121 4.7998ZM21.1611 7.65723L21.1436 7.90661L21.4111 7.92547V7.65723H21.1611ZM20.624 4.08008L20.7394 3.85827L20.6851 3.83008H20.624V4.08008ZM20.2695 4.08008V3.83008H20.2484L20.2276 3.83361L20.2695 4.08008ZM19.1953 4.2627L19.0808 4.48494L19.155 4.52314L19.2372 4.50916L19.1953 4.2627ZM18.8408 4.08008L18.9553 3.85783L18.8709 3.81435L18.7789 3.83787L18.8408 4.08008ZM22.6006 13.2002V12.9502H22.5126L22.444 13.0053L22.6006 13.2002ZM22.7725 13.2002L22.8099 12.953L22.7913 12.9502H22.7725V13.2002ZM23.127 13.5654L23.3677 13.6328L23.377 13.5997V13.5654H23.127ZM25.2754 16.2402L25.403 16.0252L25.3846 16.0143L25.3646 16.0067L25.2754 16.2402ZM28.498 18.9258V19.1758H28.748V18.9258H28.498ZM27.9609 19.0977L27.823 19.3061L27.9435 19.3859L28.0727 19.3213L27.9609 19.0977ZM22.2354 16.2402V15.9902H22.0552L21.9982 16.1612L22.2354 16.2402ZM20.8066 19.0977V19.3477H20.8929L20.9608 19.2945L20.8066 19.0977ZM20.0977 18.7432L19.8631 18.6568L19.8477 18.6986V18.7432H20.0977ZM24.9209 1.82715H25.6299V1.32715H24.9209V1.82715ZM25.3814 1.60508C25.6539 4.02848 25.9564 5.83571 26.2917 7.01653L26.7727 6.87995C26.4492 5.74046 26.1501 3.96697 25.8783 1.54922L25.3814 1.60508ZM26.5728 7.19493C28.7571 6.83566 30.1057 6.66113 30.6465 6.66113V6.16113C30.0558 6.16113 28.6615 6.34467 26.4917 6.70156L26.5728 7.19493ZM30.4215 6.5202L30.5934 6.87469L31.0433 6.65656L30.8714 6.30206L30.4215 6.5202ZM30.5684 6.76562V7.12012H31.0684V6.76562H30.5684ZM30.5684 7.12012C30.5684 7.05735 30.619 7.08334 30.4648 7.15709C30.3311 7.22103 30.1112 7.28546 29.7904 7.34417C29.1536 7.46075 28.1855 7.54355 26.8778 7.59L26.8956 8.08969C28.209 8.04303 29.2067 7.95934 29.8805 7.836C30.215 7.77477 30.4866 7.70089 30.6805 7.60817C30.8539 7.52526 31.0684 7.37624 31.0684 7.12012H30.5684ZM26.6781 7.70213L26.3236 8.23924L26.7409 8.51466L27.0954 7.97755L26.6781 7.70213ZM26.2822 8.37695C26.2822 9.2162 26.34 10.5335 26.4546 12.3246L26.9536 12.2926C26.8391 10.503 26.7822 9.19916 26.7822 8.37695H26.2822ZM26.6417 12.0665L25.9328 12.2491L26.0575 12.7333L26.7665 12.5507L26.6417 12.0665ZM26.2018 12.3506L25.8366 11.8135L25.4232 12.0947L25.7884 12.6318L26.2018 12.3506ZM25.8799 11.9541V9.98828H25.3799V11.9541H25.8799ZM25.8799 9.98828C25.8799 8.7203 25.5794 6.07663 24.9856 2.07754L24.491 2.15098C25.086 6.1584 25.3799 8.76407 25.3799 9.98828H25.8799ZM24.9591 2.23155C25.0843 1.99584 25.1709 1.77082 25.1709 1.57715H24.6709C24.6709 1.64129 24.6358 1.77435 24.5175 1.99697L24.9591 2.23155ZM21.1611 3.2666C21.2878 3.2666 21.3898 3.30214 21.4778 3.37048C21.5693 3.44156 21.6588 3.5587 21.7371 3.74093C21.8958 4.11079 21.9854 4.69547 21.9854 5.51953H22.4854C22.4854 4.67497 22.3959 4.00819 22.1965 3.54374C22.0957 3.30882 21.9615 3.11308 21.7845 2.97559C21.6039 2.83535 21.3925 2.7666 21.1611 2.7666V3.2666ZM21.9854 5.51953V7.12012H22.4854V5.51953H21.9854ZM22.0286 7.26069L22.3939 7.7978L22.8073 7.51665L22.4421 6.97954L22.0286 7.26069ZM22.3506 7.65723V8.19434H22.8506V7.65723H22.3506ZM22.3808 8.07526C22.111 8.57337 21.8553 8.79018 21.6389 8.84309L21.7576 9.32879C22.1857 9.22414 22.5316 8.84656 22.8204 8.31341L22.3808 8.07526ZM21.8422 8.88154C21.5337 8.66429 21.0099 8.52507 20.3235 8.43522C19.6243 8.34371 18.7135 8.29883 17.5947 8.29883V8.79883C18.7032 8.79883 19.5899 8.84347 20.2586 8.93099C20.94 9.02018 21.3543 9.14951 21.5543 9.29034L21.8422 8.88154ZM17.5947 8.29883C17.5867 8.29883 17.5241 8.29483 17.42 8.13378C17.3196 7.97862 17.2152 7.72734 17.113 7.36395C16.9096 6.64089 16.7331 5.54138 16.5867 4.05556L16.0891 4.1046C16.2363 5.59794 16.4161 6.73281 16.6317 7.49933C16.7389 7.88073 16.8596 8.18804 17.0001 8.40528C17.1368 8.61663 17.3306 8.79883 17.5947 8.79883V8.29883ZM16.5879 4.08008C16.5879 4.01528 16.6186 3.9283 16.7773 3.82332C16.9407 3.71521 17.2074 3.61262 17.5975 3.52661C18.3741 3.35539 19.5578 3.2666 21.1611 3.2666V2.7666C19.549 2.7666 18.3211 2.85506 17.4899 3.03833C17.0761 3.12956 16.7399 3.24853 16.5014 3.4063C16.2582 3.56719 16.0879 3.79039 16.0879 4.08008H16.5879ZM17.1631 4.82172C17.2422 5.72049 17.3421 6.40903 17.4658 6.87778C17.5272 7.11019 17.5987 7.30574 17.6867 7.44862C17.7699 7.58376 17.9092 7.73535 18.1211 7.73535V7.23535C18.1754 7.23535 18.167 7.27505 18.1124 7.18639C18.0625 7.10547 18.006 6.96533 17.9492 6.75015C17.8367 6.32371 17.7396 5.66948 17.6611 4.77789L17.1631 4.82172ZM18.1211 7.73535C18.5113 7.73535 19.5145 7.79179 21.1436 7.90661L21.1787 7.40785C19.5564 7.2935 18.533 7.23535 18.1211 7.23535V7.73535ZM21.4111 7.65723V4.61719H20.9111V7.65723H21.4111ZM21.4111 4.61719C21.4111 4.43917 21.318 4.29155 21.2036 4.17723C21.0886 4.0622 20.9293 3.95704 20.7394 3.85827L20.5087 4.30188C20.6768 4.38932 20.7861 4.46677 20.8501 4.53078C20.9148 4.59549 20.9111 4.62333 20.9111 4.61719H21.4111ZM20.624 3.83008H20.2695V4.33008H20.624V3.83008ZM20.2276 3.83361L19.1534 4.01623L19.2372 4.50916L20.3114 4.32654L20.2276 3.83361ZM19.3098 4.04045L18.9553 3.85783L18.7263 4.30232L19.0808 4.48494L19.3098 4.04045ZM18.7789 3.83787C18.2972 3.96101 17.9193 4.08714 17.6568 4.21936C17.5262 4.28518 17.4107 4.35908 17.3246 4.44511C17.2383 4.53144 17.1621 4.65058 17.1621 4.7998H17.6621C17.6621 4.83086 17.6455 4.83139 17.6782 4.79866C17.7112 4.76564 17.7743 4.72003 17.8818 4.6659C18.0955 4.5582 18.432 4.44263 18.9027 4.32229L18.7789 3.83787ZM22.6006 13.4502H22.7725V12.9502H22.6006V13.4502ZM22.735 13.4474C22.8207 13.4604 22.8507 13.484 22.8589 13.4925C22.863 13.4967 22.877 13.5112 22.877 13.5654H23.377C23.377 13.412 23.3318 13.2618 23.2177 13.1442C23.1078 13.031 22.9606 12.9758 22.8099 12.953L22.735 13.4474ZM22.8862 13.4981C22.7678 13.9215 22.6784 14.2545 22.6184 14.4962C22.5885 14.6168 22.5654 14.7168 22.5496 14.7948C22.5354 14.865 22.5225 14.9386 22.5225 14.9941H23.0225C23.0225 14.996 23.0243 14.9697 23.0396 14.894C23.0534 14.8261 23.0746 14.7341 23.1037 14.6166C23.1619 14.382 23.2498 14.0544 23.3677 13.6328L22.8862 13.4981ZM22.5225 14.9941C22.5225 15.1055 22.5797 15.1896 22.62 15.2376C22.6644 15.2906 22.7214 15.3389 22.7815 15.3827C22.9028 15.4712 23.0739 15.5685 23.2868 15.6745C23.715 15.8877 24.3498 16.1543 25.1862 16.4738L25.3646 16.0067C24.5323 15.6888 23.9157 15.429 23.5096 15.2269C23.3053 15.1252 23.1636 15.0426 23.0762 14.9788C23.0321 14.9466 23.0109 14.9257 23.0032 14.9165C22.9913 14.9023 23.0225 14.9311 23.0225 14.9941H22.5225ZM25.1478 16.4552C26.2211 17.092 27.0222 17.5871 27.5537 17.9414C27.8203 18.1191 28.0139 18.2581 28.1389 18.3597C28.2021 18.4112 28.2412 18.4477 28.2622 18.471C28.2729 18.4828 28.2735 18.4853 28.2702 18.4797C28.2695 18.4785 28.248 18.4443 28.248 18.3887H28.748C28.748 18.3133 28.7182 18.2551 28.7007 18.2255C28.6806 18.1914 28.6561 18.1611 28.6332 18.1358C28.5871 18.0848 28.5254 18.0296 28.4544 17.9718C28.3108 17.8551 28.1016 17.7058 27.8311 17.5254C27.2884 17.1636 26.4782 16.6632 25.403 16.0252L25.1478 16.4552ZM28.248 18.3887V18.9258H28.748V18.3887H28.248ZM28.498 18.6758C28.3081 18.6758 28.0852 18.756 27.8491 18.874L28.0727 19.3213C28.295 19.2102 28.4302 19.1758 28.498 19.1758V18.6758ZM28.0989 18.8892C26.6555 17.9341 25.4491 17.2136 24.482 16.7309C23.5265 16.254 22.7684 15.9902 22.2354 15.9902V16.4902C22.6405 16.4902 23.3057 16.7027 24.2587 17.1783C25.2001 17.6481 26.3875 18.3563 27.823 19.3061L28.0989 18.8892ZM21.9982 16.1612C21.7387 16.9395 21.4933 17.5575 21.2625 18.0191C21.0281 18.4878 20.8218 18.7682 20.6525 18.9008L20.9608 19.2945C21.2211 19.0905 21.4678 18.7264 21.7097 18.2427C21.9551 17.7517 22.2092 17.1093 22.4725 16.3193L21.9982 16.1612ZM20.8066 18.8477H20.4521V19.3477H20.8066V18.8477ZM20.4521 18.8477C20.4132 18.8477 20.3892 18.8427 20.3761 18.8383C20.3698 18.8362 20.3663 18.8344 20.3648 18.8334C20.3639 18.8329 20.3635 18.8326 20.3633 18.8325C20.3632 18.8324 20.3631 18.8323 20.3631 18.8323C20.3631 18.8323 20.3631 18.8323 20.3631 18.8323C20.363 18.8322 20.363 18.8322 20.363 18.8322C20.363 18.8322 20.3629 18.8321 20.3628 18.832C20.3627 18.8318 20.3624 18.8314 20.3619 18.8306C20.3609 18.829 20.3591 18.8255 20.357 18.8192C20.3526 18.8061 20.3477 18.7822 20.3477 18.7432H19.8477C19.8477 18.8999 19.887 19.0633 20.0095 19.1858C20.132 19.3083 20.2954 19.3477 20.4521 19.3477V18.8477ZM20.3323 18.8296C20.9474 17.1595 21.4615 15.8679 21.8751 14.952C22.082 14.4938 22.2618 14.1338 22.4149 13.8692C22.5729 13.5957 22.6875 13.4511 22.7571 13.3951L22.444 13.0053C22.2953 13.1248 22.1417 13.3426 21.982 13.6189C21.8172 13.9039 21.6296 14.2806 21.4194 14.7462C20.9986 15.678 20.4797 16.9825 19.8631 18.6568L20.3323 18.8296ZM40.3447 0.696289L40.3822 0.44911L40.3636 0.446289H40.3447V0.696289ZM40.6992 2.66211H40.4492V2.73717L40.4906 2.79982L40.6992 2.66211ZM41.0537 3.19922L40.8451 3.33693L40.938 3.47771L41.1033 3.44425L41.0537 3.19922ZM41.9561 3.0166V2.7666H41.931L41.9065 2.77157L41.9561 3.0166ZM42.665 3.0166L42.7098 2.77063L42.6876 2.7666H42.665V3.0166ZM42.1279 5.88477L41.9049 5.77188L41.8026 5.97404L41.9937 6.09568L42.1279 5.88477ZM44.8135 7.85059L45.0343 7.96787L45.106 7.83289L45.0185 7.70754L44.8135 7.85059ZM44.6309 8.37695V8.62695H44.8809V8.37695H44.6309ZM44.0938 8.37695L43.9444 8.57743L44.0109 8.62695H44.0938V8.37695ZM41.4189 6.77637V6.52637H41.3224L41.251 6.5912L41.4189 6.77637ZM39.4531 8.55957V8.80957H39.5496L39.6211 8.74474L39.4531 8.55957ZM41.2363 5.51953L41.405 5.70405L41.4863 5.62971V5.51953H41.2363ZM41.7734 4.45605L41.9668 4.61454L42.0234 4.54542V4.45605H41.7734ZM41.7734 4.09082H42.0234V3.81078L41.7452 3.84242L41.7734 4.09082ZM38.5615 4.45605L38.4383 4.67356L38.509 4.71364L38.5898 4.70445L38.5615 4.45605ZM37.8418 4.27344H37.5918V4.52344H37.8418V4.27344ZM39.8076 3.19922L39.8415 3.44692L40.0576 3.41739V3.19922H39.8076ZM39.8076 1.06152L39.5603 1.02515L39.5576 1.04324V1.06152H39.8076ZM46.5967 1.41602V1.16602H46.5393L46.4876 1.19106L46.5967 1.41602ZM46.7793 1.41602L46.8555 1.17791L46.8183 1.16602H46.7793V1.41602ZM47.3164 6.23926H47.0664V6.48926H47.3164V6.23926ZM47.8428 6.41113L47.731 6.63474L47.8419 6.69022L47.9532 6.63541L47.8428 6.41113ZM49.0996 6.05664L49.1882 5.82285L49.1454 5.80664H49.0996V6.05664ZM47.4883 7.48535L47.4505 7.23822L47.3188 7.25834L47.2621 7.3789L47.4883 7.48535ZM47.3164 7.85059L47.0902 7.74414L47.0664 7.7947V7.85059H47.3164ZM46.7793 10.8799L46.6416 11.0885L46.7642 11.1695L46.8946 11.1017L46.7793 10.8799ZM46.2422 10.5254L45.993 10.5055L45.9812 10.6527L46.1045 10.734L46.2422 10.5254ZM46.4141 8.37695L46.6633 8.39689L46.6641 8.38694V8.37695H46.4141ZM46.4141 3.38184H46.6641V3.36989L46.6629 3.35799L46.4141 3.38184ZM46.2422 1.58789L46.1331 1.36294L45.9768 1.43875L45.9933 1.61173L46.2422 1.58789ZM45.7051 12.1367L45.7537 11.8915L45.7186 11.8845L45.6829 11.8877L45.7051 12.1367ZM46.9512 12.8457L47.1907 12.9174L47.2012 12.8823V12.8457H46.9512ZM46.4141 14.6396L46.1746 14.5679L46.1332 14.706L46.2319 14.8109L46.4141 14.6396ZM49.0996 16.7773H49.3496V16.6261L49.2157 16.5559L49.0996 16.7773ZM45.877 15.5312L46.0537 15.3545L45.9805 15.2812H45.877V15.5312ZM44.2764 17.1318V17.3818H44.3856L44.4598 17.3017L44.2764 17.1318ZM43.7393 16.4229L43.5516 16.2577L43.4893 16.3285V16.4229H43.7393ZM45.7051 13.0283H45.9551V12.7783H45.7051V13.0283ZM45.168 13.0283V12.7783H45.1386L45.1101 12.7851L45.168 13.0283ZM41.4189 13.9199L41.1967 14.0344L41.2863 14.2084L41.4768 14.1631L41.4189 13.9199ZM41.2363 13.5654H40.9863V13.626L41.0141 13.6799L41.2363 13.5654ZM40.1621 0.946289H40.3447V0.446289H40.1621V0.946289ZM40.3073 0.943468C40.393 0.956449 40.423 0.9801 40.4312 0.988572C40.4353 0.992786 40.4492 1.00727 40.4492 1.06152H40.9492C40.9492 0.908094 40.9041 0.757865 40.79 0.640334C40.68 0.527062 40.5328 0.471936 40.3822 0.44911L40.3073 0.943468ZM40.4492 1.06152V2.66211H40.9492V1.06152H40.4492ZM40.4906 2.79982L40.8451 3.33693L41.2624 3.06151L40.9079 2.5244L40.4906 2.79982ZM41.1033 3.44425L42.0056 3.26163L41.9065 2.77157L41.0041 2.95419L41.1033 3.44425ZM41.9561 3.2666H42.665V2.7666H41.9561V3.2666ZM42.6203 3.26257C42.7078 3.27848 42.741 3.30344 42.7515 3.31426C42.7572 3.32012 42.7695 3.33393 42.7695 3.38184H43.2695C43.2695 3.22922 43.2228 3.0819 43.1103 2.96602C43.0026 2.85509 42.8586 2.7977 42.7098 2.77063L42.6203 3.26257ZM42.7695 3.38184V3.73633H43.2695V3.38184H42.7695ZM42.7695 3.73633C42.7695 3.76229 42.7602 3.82625 42.7247 3.94266C42.6908 4.05377 42.6383 4.19599 42.5657 4.37097C42.4206 4.72065 42.2009 5.18696 41.9049 5.77188L42.351 5.99766C42.6494 5.4081 42.8755 4.92909 43.0275 4.56262C43.1035 4.37953 43.1625 4.22097 43.2029 4.08859C43.2417 3.96151 43.2695 3.83927 43.2695 3.73633H42.7695ZM41.9937 6.09568C42.7795 6.59574 43.392 7.0069 43.8333 7.3299C44.054 7.49147 44.2293 7.6291 44.3609 7.74333C44.496 7.86049 44.573 7.94281 44.6084 7.99363L45.0185 7.70754C44.9465 7.60439 44.8311 7.48932 44.6886 7.36568C44.5428 7.2391 44.3555 7.09251 44.1286 6.92644C43.6747 6.59417 43.0519 6.17639 42.2621 5.67385L41.9937 6.09568ZM44.5927 7.7333C44.4688 7.96648 44.3809 8.18906 44.3809 8.37695H44.8809C44.8809 8.32135 44.9146 8.19303 45.0343 7.96787L44.5927 7.7333ZM44.6309 8.12695H44.0938V8.62695H44.6309V8.12695ZM44.2431 8.17647C43.5263 7.64243 42.9719 7.24012 42.5814 6.97073C42.3866 6.83634 42.2294 6.73283 42.1117 6.66211C42.0532 6.62699 42.0003 6.5974 41.955 6.57578C41.9325 6.56502 41.9079 6.55431 41.8828 6.54583C41.8621 6.53882 41.8216 6.52637 41.7734 6.52637V7.02637C41.7541 7.02637 41.74 7.02372 41.7338 7.02239C41.7269 7.02092 41.7228 7.01954 41.7225 7.01941C41.722 7.01927 41.7272 7.02106 41.7396 7.02697C41.7641 7.0387 41.8016 7.05912 41.8542 7.0907C41.9585 7.15336 42.1056 7.24992 42.2975 7.3823C42.6804 7.64644 43.2289 8.04442 43.9444 8.57743L44.2431 8.17647ZM41.7734 6.52637H41.4189V7.02637H41.7734V6.52637ZM41.251 6.5912L39.2852 8.3744L39.6211 8.74474L41.5869 6.96154L41.251 6.5912ZM39.4531 8.30957H39.0879V8.80957H39.4531V8.30957ZM39.0879 8.30957C39.0606 8.30957 39.0488 8.30452 39.0455 8.30285C39.0432 8.30167 39.0382 8.299 39.0307 8.28758C39.0112 8.258 38.9834 8.18193 38.9834 8.02246H38.4834C38.4834 8.22106 38.5147 8.41355 38.6134 8.563C38.724 8.73065 38.8958 8.80957 39.0879 8.80957V8.30957ZM38.9834 8.02246C38.9834 8.04713 38.9791 8.0654 38.9766 8.07435C38.9739 8.0839 38.9713 8.08969 38.9708 8.09089C38.9699 8.09278 38.9721 8.08774 38.9812 8.07407C38.999 8.047 39.0306 8.00562 39.08 7.94776C39.1779 7.83308 39.3288 7.67316 39.5359 7.46608C39.949 7.05297 40.5714 6.46606 41.405 5.70405L41.0676 5.33501C40.2326 6.0984 39.6035 6.69134 39.1824 7.11253C38.9723 7.32261 38.8104 7.49346 38.6997 7.62317C38.6448 7.6875 38.5981 7.74671 38.5639 7.79864C38.5468 7.82447 38.5294 7.85353 38.5156 7.88412C38.5038 7.90991 38.4834 7.96034 38.4834 8.02246H38.9834ZM41.4863 5.51953C41.4863 5.34145 41.6127 5.04657 41.9668 4.61454L41.5801 4.29757C41.2181 4.73924 40.9863 5.15335 40.9863 5.51953H41.4863ZM42.0234 4.45605V4.09082H41.5234V4.45605H42.0234ZM41.7452 3.84242L38.5333 4.20766L38.5898 4.70445L41.8017 4.33922L41.7452 3.84242ZM38.6848 4.23855C38.4296 4.09395 38.1467 4.02344 37.8418 4.02344V4.52344C38.0668 4.52344 38.2637 4.57467 38.4383 4.67356L38.6848 4.23855ZM38.0918 4.27344V3.91895H37.5918V4.27344H38.0918ZM38.0918 3.91895C38.0918 3.94543 38.0746 3.93813 38.1238 3.8976C38.1743 3.8559 38.2672 3.80385 38.4192 3.74819C38.7211 3.63766 39.1912 3.53576 39.8415 3.44692L39.7738 2.95152C39.1135 3.04172 38.6007 3.14929 38.2473 3.27867C38.0717 3.34296 37.9188 3.41848 37.8055 3.51194C37.6909 3.60658 37.5918 3.74207 37.5918 3.91895H38.0918ZM40.0576 3.19922V1.06152H39.5576V3.19922H40.0576ZM40.055 1.0979C40.0685 1.00564 40.0931 0.971417 40.1025 0.961716C40.106 0.958122 40.1162 0.946289 40.1621 0.946289V0.446289C40.0075 0.446289 39.8584 0.495328 39.7437 0.613479C39.635 0.725523 39.5825 0.873916 39.5603 1.02515L40.055 1.0979ZM46.5967 1.66602H46.7793V1.16602H46.5967V1.66602ZM46.7031 1.65412C46.8998 1.71707 47.0664 1.92097 47.0664 2.49023H47.5664C47.5664 1.85637 47.3749 1.34413 46.8555 1.17791L46.7031 1.65412ZM47.0664 2.49023V6.23926H47.5664V2.49023H47.0664ZM47.3164 6.48926C47.3758 6.48926 47.5063 6.52242 47.731 6.63474L47.9546 6.18753C47.7209 6.07068 47.5005 5.98926 47.3164 5.98926V6.48926ZM47.9532 6.63541C48.4142 6.40835 48.794 6.30664 49.0996 6.30664V5.80664C48.689 5.80664 48.2309 5.94126 47.7323 6.18686L47.9532 6.63541ZM49.0111 6.29043C49.2384 6.37654 49.39 6.45602 49.4804 6.52447C49.5768 6.59748 49.5586 6.62227 49.5586 6.59375H50.0586C50.0586 6.3862 49.9223 6.23195 49.7823 6.12592C49.6363 6.01534 49.4335 5.91577 49.1882 5.82285L49.0111 6.29043ZM49.5586 6.59375V6.77637H50.0586V6.59375H49.5586ZM49.5586 6.77637C49.5586 6.69233 49.6211 6.6866 49.5332 6.74029C49.4633 6.78304 49.3418 6.83484 49.1555 6.89177C48.7865 7.00451 48.2209 7.12053 47.4505 7.23822L47.526 7.73248C48.3026 7.61385 48.8971 7.49354 49.3016 7.36995C49.502 7.30872 49.6705 7.24235 49.7939 7.16693C49.8994 7.10246 50.0586 6.97857 50.0586 6.77637H49.5586ZM47.2621 7.3789L47.0902 7.74414L47.5426 7.95704L47.7145 7.5918L47.2621 7.3789ZM47.0664 7.85059V10.3428H47.5664V7.85059H47.0664ZM47.0664 10.3428C47.0664 10.3366 47.0701 10.3645 47.0054 10.4292C46.9413 10.4932 46.8321 10.5706 46.664 10.6581L46.8946 11.1017C47.0846 11.0029 47.2439 10.8978 47.3589 10.7827C47.4732 10.6684 47.5664 10.5208 47.5664 10.3428H47.0664ZM46.917 10.6712L46.3799 10.3167L46.1045 10.734L46.6416 11.0885L46.917 10.6712ZM46.4914 10.5453L46.6633 8.39689L46.1649 8.35702L45.993 10.5055L46.4914 10.5453ZM46.6641 8.37695V3.38184H46.1641V8.37695H46.6641ZM46.6629 3.35799L46.491 1.56405L45.9933 1.61173L46.1652 3.40568L46.6629 3.35799ZM46.3513 1.81284L46.7057 1.64097L46.4876 1.19106L46.1331 1.36294L46.3513 1.81284ZM45.6565 12.3819C46.0625 12.4625 46.3431 12.5564 46.516 12.6548C46.6919 12.7549 46.7012 12.8245 46.7012 12.8457H47.2012C47.2012 12.5589 47.0028 12.3565 46.7633 12.2202C46.5209 12.0823 46.1784 11.9757 45.7537 11.8915L45.6565 12.3819ZM46.7117 12.774L46.1746 14.5679L46.6536 14.7114L47.1907 12.9174L46.7117 12.774ZM46.2319 14.8109C47.1477 15.7848 48.0645 16.517 48.9835 16.9988L49.2157 16.5559C48.3587 16.1067 47.4851 15.4137 46.5962 14.4684L46.2319 14.8109ZM48.8496 16.7773V17.1318H49.3496V16.7773H48.8496ZM48.8496 17.1318C48.8496 17.2494 48.8141 17.3015 48.7702 17.3343C48.7125 17.3774 48.5959 17.4189 48.3799 17.4189V17.9189C48.6436 17.9189 48.887 17.871 49.0692 17.735C49.2652 17.5888 49.3496 17.3723 49.3496 17.1318H48.8496ZM48.3799 17.4189C48.4028 17.4189 48.402 17.4251 48.3645 17.408C48.3318 17.3931 48.2857 17.3673 48.2244 17.3268C48.102 17.2459 47.9393 17.1198 47.7339 16.9444C47.3242 16.5945 46.7648 16.0655 46.0537 15.3545L45.7002 15.708C46.4142 16.4221 46.9845 16.9619 47.4092 17.3246C47.621 17.5055 47.8015 17.6466 47.9486 17.7439C48.022 17.7924 48.0922 17.8334 48.1573 17.8631C48.2175 17.8905 48.2961 17.9189 48.3799 17.9189V17.4189ZM45.877 15.2812C45.8127 15.2812 45.7634 15.3049 45.7465 15.3132C45.7226 15.3249 45.701 15.3388 45.6837 15.3508C45.6485 15.3752 45.6093 15.4071 45.5684 15.4428C45.4853 15.5152 45.3756 15.62 45.2409 15.7546C44.9707 16.0248 44.5877 16.4278 44.0929 16.962L44.4598 17.3017C44.9534 16.7688 45.3312 16.3715 45.5945 16.1082C45.7266 15.976 45.8268 15.8808 45.8968 15.8198C45.9324 15.7888 45.9556 15.7707 45.9685 15.7617C45.9752 15.7571 45.9741 15.7584 45.9672 15.7618C45.9635 15.7637 45.9549 15.7677 45.9425 15.7715C45.9311 15.7751 45.9079 15.7812 45.877 15.7812V15.2812ZM44.2764 16.8818H44.0938V17.3818H44.2764V16.8818ZM44.0938 16.8818C44.0548 16.8818 44.0308 16.8769 44.0177 16.8725C44.0114 16.8704 44.0079 16.8686 44.0064 16.8676C44.0056 16.8671 44.0051 16.8668 44.0049 16.8666C44.0048 16.8666 44.0047 16.8665 44.0047 16.8665C44.0047 16.8665 44.0047 16.8664 44.0047 16.8664C44.0047 16.8664 44.0046 16.8664 44.0046 16.8664C44.0046 16.8664 44.0045 16.8663 44.0044 16.8662C44.0043 16.866 44.004 16.8655 44.0035 16.8647C44.0025 16.8632 44.0007 16.8597 43.9986 16.8534C43.9942 16.8403 43.9893 16.8163 43.9893 16.7773H43.4893C43.4893 16.934 43.5286 17.0975 43.6511 17.22C43.7736 17.3425 43.937 17.3818 44.0938 17.3818V16.8818ZM43.9893 16.7773V16.4229H43.4893V16.7773H43.9893ZM43.927 16.588C44.5869 15.8378 45.0887 15.1857 45.4269 14.6332C45.7599 14.089 45.9551 13.6087 45.9551 13.2109H45.4551C45.4551 13.4648 45.3226 13.8458 45.0004 14.3722C44.6833 14.8903 44.2021 15.5183 43.5516 16.2577L43.927 16.588ZM45.9551 13.2109V13.0283H45.4551V13.2109H45.9551ZM45.7051 12.7783H45.168V13.2783H45.7051V12.7783ZM45.1101 12.7851L41.3611 13.6767L41.4768 14.1631L45.2258 13.2715L45.1101 12.7851ZM41.6412 13.8054L41.4586 13.4509L41.0141 13.6799L41.1967 14.0344L41.6412 13.8054ZM41.4863 13.5654V13.3828H40.9863V13.5654H41.4863ZM41.4863 13.3828C41.4863 13.3657 41.4951 13.2996 41.6531 13.1955C41.8074 13.0938 42.0578 12.989 42.4207 12.8878C43.1428 12.6864 44.2416 12.5179 45.7272 12.3857L45.6829 11.8877C44.1894 12.0205 43.0538 12.1922 42.2864 12.4062C41.9045 12.5126 41.5962 12.6343 41.3781 12.7779C41.1637 12.9191 40.9863 13.117 40.9863 13.3828H41.4863ZM60.1416 3.38184L60.1791 3.13466L60.1604 3.13184H60.1416V3.38184ZM60.6787 9.81641L60.429 9.82915L60.4394 10.033L60.6413 10.0636L60.6787 9.81641ZM61.0332 10.1709H60.7832V10.4592L61.0686 10.4184L61.0332 10.1709ZM64.793 9.63379L64.9103 9.41301L64.8383 9.37478L64.7576 9.3863L64.793 9.63379ZM65.3301 9.81641H65.5801V9.56641H65.3301V9.81641ZM64.793 10.8906V11.1406H64.8541L64.9083 11.1124L64.793 10.8906ZM61.0332 11.417H60.7832V11.4249L60.7837 11.4328L61.0332 11.417ZM61.9248 16.7881L62.1672 16.8494L62.1836 16.7843L62.1653 16.7197L61.9248 16.7881ZM60.3242 12.8564L60.5735 12.8381L60.5565 12.6064H60.3242V12.8564ZM59.4326 4.09082L59.1988 4.00226L59.18 4.05205L59.183 4.1052L59.4326 4.09082ZM52.8154 7.66797L52.8546 7.42106L52.8112 7.41417L52.768 7.4225L52.8154 7.66797ZM52.2783 12.4912L52.21 12.7317L52.2435 12.7412H52.2783V12.4912ZM50.4951 9.09668L50.7108 9.22311L50.7803 9.10446L50.7174 8.98219L50.4951 9.09668ZM50.3125 8.74219H50.0625V8.8028L50.0903 8.85668L50.3125 8.74219ZM51.2041 10.5254H50.9541V10.5733L50.9718 10.6178L51.2041 10.5254ZM54.4268 9.63379H54.6768V9.58727L54.66 9.54386L54.4268 9.63379ZM52.998 8.74219V8.49219H52.9809L52.9639 8.49453L52.998 8.74219ZM59.959 3.63184H60.1416V3.13184H59.959V3.63184ZM60.1041 3.62901C60.1915 3.64225 60.2225 3.66588 60.2307 3.67409C60.2337 3.67713 60.2461 3.68818 60.2461 3.73633H60.7461C60.7461 3.58395 60.6994 3.43567 60.5842 3.32054C60.4743 3.21058 60.328 3.15723 60.1791 3.13466L60.1041 3.62901ZM60.2461 3.73633V4.45605H60.7461V3.73633H60.2461ZM60.2461 4.45605C60.2461 5.65148 60.3072 7.44347 60.429 9.82915L60.9284 9.80366C60.8067 7.41981 60.7461 5.63823 60.7461 4.45605H60.2461ZM60.6413 10.0636C60.7286 10.0768 60.7596 10.1005 60.7678 10.1087C60.7708 10.1117 60.7832 10.1228 60.7832 10.1709H61.2832C61.2832 10.0185 61.2365 9.87024 61.1214 9.75511C61.0114 9.64515 60.8652 9.5918 60.7162 9.56923L60.6413 10.0636ZM61.0686 10.4184L64.8283 9.88128L64.7576 9.3863L60.9978 9.92341L61.0686 10.4184ZM64.6757 9.85457C64.9114 9.97979 65.1364 10.0664 65.3301 10.0664V9.56641C65.2659 9.56641 65.1329 9.53128 64.9103 9.41301L64.6757 9.85457ZM65.0801 9.81641V10.3535H65.5801V9.81641H65.0801ZM65.0801 10.3535C65.0801 10.3474 65.0837 10.3752 65.019 10.4399C64.955 10.5039 64.8458 10.5814 64.6776 10.6688L64.9083 11.1124C65.0982 11.0137 65.2576 10.9085 65.3726 10.7935C65.4869 10.6792 65.5801 10.5315 65.5801 10.3535H65.0801ZM64.793 10.6406H64.4277V11.1406H64.793V10.6406ZM64.4277 10.6406C63.2932 10.6406 62.4289 10.6844 61.8435 10.7752C61.5533 10.8202 61.3135 10.8793 61.1399 10.96C60.9821 11.0334 60.7832 11.1722 60.7832 11.417H61.2832C61.2832 11.4864 61.2257 11.4716 61.3508 11.4134C61.4601 11.3625 61.6446 11.312 61.9201 11.2693C62.4662 11.1846 63.2992 11.1406 64.4277 11.1406V10.6406ZM60.7837 11.4328C60.9065 13.3679 61.2063 15.1761 61.6843 16.8565L62.1653 16.7197C61.698 15.0772 61.4034 13.3046 61.2827 11.4012L60.7837 11.4328ZM61.6824 16.7268C61.6093 17.0158 61.5348 17.2116 61.4651 17.3297C61.3893 17.4581 61.3604 17.4297 61.3984 17.4297V17.9297C61.637 17.9297 61.796 17.7527 61.8957 17.5839C62.0015 17.4047 62.0899 17.1548 62.1672 16.8494L61.6824 16.7268ZM61.3984 17.4297H61.2158V17.9297H61.3984V17.4297ZM61.2158 17.4297C61.2735 17.4297 61.293 17.4637 61.2746 17.4421C61.2566 17.421 61.2267 17.3734 61.1902 17.2839C61.1181 17.1069 61.0436 16.8255 60.9702 16.4284C60.8242 15.6384 60.6916 14.4437 60.5735 12.8381L60.0749 12.8748C60.1932 14.4847 60.3274 15.7016 60.4785 16.5193C60.5537 16.9261 60.6355 17.2476 60.7272 17.4726C60.7726 17.584 60.8265 17.6872 60.8942 17.7666C60.9615 17.8455 61.0686 17.9297 61.2158 17.9297V17.4297ZM60.3242 12.6064C60.3785 12.6064 60.4195 12.6264 60.4435 12.6432C60.4657 12.6588 60.4764 12.6736 60.4784 12.6762C60.4814 12.6805 60.4741 12.6709 60.4604 12.6335C60.4342 12.5618 60.4031 12.4409 60.3691 12.2619C60.3018 11.9077 60.2308 11.3685 60.1567 10.6397C60.0086 9.18445 59.8504 6.9975 59.6822 4.07644L59.183 4.1052C59.3514 7.0279 59.5101 9.22375 59.6592 10.6903C59.7337 11.4225 59.8064 11.9791 59.8779 12.3552C59.9132 12.5415 59.9503 12.6946 59.991 12.8055C60.0107 12.8594 60.0365 12.9183 60.0725 12.9682C60.1017 13.0088 60.183 13.1064 60.3242 13.1064V12.6064ZM59.6664 4.17938C59.7527 3.95156 59.8316 3.79913 59.8992 3.70811C59.9727 3.60909 59.9947 3.63184 59.959 3.63184V3.13184C59.7514 3.13184 59.5997 3.27275 59.4978 3.41006C59.3899 3.55536 59.2916 3.75743 59.1988 4.00226L59.6664 4.17938ZM52.7762 7.91488C53.5909 8.04425 54.1688 8.2646 54.5382 8.55476C54.8961 8.83582 55.0684 9.18904 55.0684 9.63379H55.5684C55.5684 9.03297 55.3235 8.53577 54.847 8.16155C54.3822 7.79644 53.7085 7.55666 52.8546 7.42106L52.7762 7.91488ZM55.0684 9.63379V9.98828H55.5684V9.63379H55.0684ZM55.0684 9.98828C55.0684 10.7699 54.8334 11.3152 54.3994 11.6725C53.9562 12.0374 53.2637 12.2412 52.2783 12.2412V12.7412C53.3197 12.7412 54.1471 12.5279 54.7173 12.0585C55.2967 11.5814 55.5684 10.8753 55.5684 9.98828H55.0684ZM52.3467 12.2507C51.7144 12.0711 51.2674 11.8303 50.9807 11.5437C50.7006 11.2636 50.5625 10.9291 50.5625 10.5254H50.0625C50.0625 11.0598 50.252 11.5221 50.6272 11.8972C50.9958 12.2659 51.5317 12.5389 52.21 12.7317L52.3467 12.2507ZM50.5625 10.5254V9.81641H50.0625V10.5254H50.5625ZM50.5625 9.81641C50.5625 9.5828 50.6143 9.38765 50.7108 9.22311L50.2794 8.97025C50.1324 9.22108 50.0625 9.50574 50.0625 9.81641H50.5625ZM50.7174 8.98219L50.5347 8.6277L50.0903 8.85668L50.2729 9.21117L50.7174 8.98219ZM50.5625 8.74219C50.5625 8.74044 50.5617 8.70647 50.6363 8.6392C50.7116 8.57133 50.8399 8.49247 51.0368 8.40796C51.429 8.23965 52.0337 8.07356 52.8628 7.91343L52.768 7.4225C51.9285 7.58464 51.2818 7.75872 50.8396 7.94849C50.6194 8.04301 50.4348 8.14767 50.3016 8.26779C50.1676 8.3885 50.0625 8.54699 50.0625 8.74219H50.5625ZM50.9541 10.3535V10.5254H51.4541V10.3535H50.9541ZM50.9718 10.6178C51.1034 10.9488 51.2934 11.2153 51.5509 11.398C51.8095 11.5815 52.1175 11.667 52.4609 11.667V11.167C52.2029 11.167 52.0005 11.1039 51.8402 10.9902C51.6788 10.8757 51.5411 10.6964 51.4364 10.433L50.9718 10.6178ZM52.4609 11.667H52.8154V11.167H52.4609V11.667ZM52.8154 11.667C53.398 11.667 53.8788 11.5047 54.2094 11.1388C54.5357 10.7778 54.6768 10.2608 54.6768 9.63379H54.1768C54.1768 10.1956 54.0493 10.5702 53.8384 10.8036C53.6319 11.0321 53.3071 11.167 52.8154 11.167V11.667ZM54.66 9.54386C54.5287 9.20321 54.3203 8.9341 54.0301 8.753C53.7423 8.57342 53.3932 8.49219 52.998 8.49219V8.99219C53.3262 8.99219 53.5769 9.05956 53.7654 9.17718C53.9514 9.29328 54.0957 9.46997 54.1935 9.72372L54.66 9.54386ZM52.9639 8.49453C52.3398 8.58048 51.836 8.76776 51.4855 9.08257C51.1265 9.40504 50.9541 9.83815 50.9541 10.3535H51.4541C51.4541 9.95937 51.5807 9.66918 51.8196 9.45454C52.0671 9.23224 52.4603 9.0686 53.0322 8.98985L52.9639 8.49453ZM79.5078 2.84473H79.7578V2.76603L79.7127 2.70153L79.5078 2.84473ZM79.5078 3.02734L79.7542 3.06938L79.7578 3.04851V3.02734H79.5078ZM77.542 6.23926L77.5031 6.48622L77.5224 6.48926H77.542V6.23926ZM74.6738 3.55371L74.4265 3.51719L74.4238 3.53535V3.55371H74.6738ZM76.6396 2.84473V2.59473H76.3896V2.84473H76.6396ZM75.748 4.09082L75.633 3.86884L75.498 3.93878V4.09082H75.748ZM75.748 4.27344H75.498V4.33435L75.5261 4.38844L75.748 4.27344ZM78.6055 3.19922L78.8476 3.26141L78.892 3.08876L78.7432 2.99057L78.6055 3.19922ZM78.0684 2.84473L78.2061 2.63607L78.1434 2.59473H78.0684V2.84473ZM83.7939 2.66211L83.9345 2.45538L83.8111 2.37143L83.6786 2.44031L83.7939 2.66211ZM84.3311 3.02734L84.5798 3.05281L84.5949 2.90447L84.4716 2.82061L84.3311 3.02734ZM84.1484 4.81055L83.8997 4.78508L83.8984 4.79778V4.81055H84.1484ZM84.3311 7.85059L84.5722 7.91669L84.5876 7.86044L84.5765 7.80317L84.3311 7.85059ZM84.1484 9.98828H83.8984V10.0094L83.902 10.0302L84.1484 9.98828ZM84.3311 11.0625L84.5448 11.1922L84.5931 11.1125L84.5775 11.0206L84.3311 11.0625ZM84.5029 13.2109L84.7367 13.2995L84.865 12.9609H84.5029V13.2109ZM83.7939 13.9199L83.7449 14.1651L83.7692 14.1699H83.7939V13.9199ZM83.4395 11.0625L83.6373 11.2154L83.706 11.1265L83.6851 11.0161L83.4395 11.0625ZM83.2568 7.66797H83.5068V7.3618L83.2068 7.42302L83.2568 7.66797ZM80.0342 8.20508L79.8092 8.31415L79.8776 8.45508H80.0342V8.20508ZM79.8623 7.85059H79.6123V7.908L79.6374 7.95965L79.8623 7.85059ZM82.9023 6.59375L82.9558 6.83796L83.1523 6.79491V6.59375H82.9023ZM83.2568 6.42188V6.67188H83.5068V6.42188H83.2568ZM87.0059 3.38184L87.1123 3.15563L87.0617 3.13184H87.0059V3.38184ZM87.3711 3.55371L87.6198 3.57903L87.6377 3.40289L87.4775 3.32751L87.3711 3.55371ZM87.1885 5.34766L86.9398 5.32234L86.9385 5.33496V5.34766H87.1885ZM87.9082 15.5312L88.0459 15.7399L88.1799 15.6515L88.1552 15.4928L87.9082 15.5312ZM87.3711 15.8857V16.1357H87.4462L87.5088 16.0944L87.3711 15.8857ZM86.2969 7.48535H86.0467L86.0471 7.49462L86.2969 7.48535ZM86.2969 3.73633L86.0497 3.69888L86.0469 3.7175V3.73633H86.2969ZM80.3994 9.09668L80.5258 8.88101L80.1494 8.66034V9.09668H80.3994ZM81.1084 9.2793H81.3584V9.0293H81.1084V9.2793ZM80.5713 10.5254L80.5371 10.773L80.6381 10.787L80.72 10.7264L80.5713 10.5254ZM79.3252 10.3535L79.3594 10.1059L79.3424 10.1035H79.3252V10.3535ZM78.251 10.3535V10.1035H78.047L78.0061 10.3034L78.251 10.3535ZM78.0684 11.2451L77.8234 11.195L77.8184 11.2198V11.2451H78.0684ZM78.0684 13.3936H77.8184V13.4289L77.8281 13.4628L78.0684 13.3936ZM78.4336 14.8223L78.6757 14.8846L78.6836 14.8539V14.8223H78.4336ZM77.542 15.5312L77.3353 15.6718L77.4097 15.7812H77.542V15.5312ZM77.1768 14.9941H76.9268V15.0711L76.97 15.1347L77.1768 14.9941ZM77.0049 11.0625L76.7813 10.9507L76.7505 11.0122L76.7556 11.0809L77.0049 11.0625ZM77.1768 10.5254H77.4268V10.3688L77.2858 10.3004L77.1768 10.5254ZM76.8223 10.3535L76.9313 10.1286L76.8797 10.1035H76.8223V10.3535ZM72.3535 9.45117L72.3062 9.20569L72.1035 9.24476V9.45117H72.3535ZM73.2451 9.2793V9.0293H73.2212L73.1978 9.03382L73.2451 9.2793ZM81.4736 17.3252L81.5111 17.078L81.4925 17.0752H81.4736V17.3252ZM81.8281 20.1826H81.5781V20.2014L81.5809 20.2201L81.8281 20.1826ZM85.4053 17.6797L85.1581 17.6422L85.1553 17.6609V17.6797H85.4053ZM86.1143 17.3252L86.1517 17.078L86.1331 17.0752H86.1143V17.3252ZM86.1143 19.291L85.8725 19.2272L85.8643 19.2586V19.291H86.1143ZM86.4688 20.7197L86.6937 20.8288L86.7374 20.7387L86.7068 20.6434L86.4688 20.7197ZM86.2969 21.0742L86.0719 20.9652L86.0365 21.0381L86.0507 21.118L86.2969 21.0742ZM81.6455 23.7598L81.4092 23.8415L81.4674 24.0098H81.6455V23.7598ZM80.7539 17.6797L80.5067 17.6422L80.5039 17.6609V17.6797H80.7539ZM82 22.1484H81.75V22.2107L81.7792 22.2657L82 22.1484ZM82.1826 22.6855H81.9326V22.9355H82.1826V22.6855ZM85.5771 21.9658H85.8271V21.9068L85.8008 21.854L85.5771 21.9658ZM85.4053 21.4287H85.6553V21.1787H85.4053V21.4287ZM76.2852 2.20312H77.542V1.70312H76.2852V2.20312ZM77.542 2.20312C78.3771 2.20312 78.9454 2.4764 79.3029 2.98793L79.7127 2.70153C79.2395 2.02425 78.4972 1.70312 77.542 1.70312V2.20312ZM79.2578 2.84473V3.02734H79.7578V2.84473H79.2578ZM79.2614 2.98531C79.0808 4.04412 78.8324 4.81046 78.5292 5.30577C78.2302 5.79431 77.8997 5.98926 77.542 5.98926V6.48926C78.1296 6.48926 78.5994 6.14889 78.9557 5.56679C79.3078 4.99146 79.5696 4.15184 79.7542 3.06938L79.2614 2.98531ZM77.5808 5.99229C76.6428 5.84474 75.9719 5.59944 75.5407 5.27647C75.1216 4.96254 74.9238 4.57285 74.9238 4.09082H74.4238C74.4238 4.7403 74.704 5.27444 75.241 5.67665C75.7659 6.06983 76.5291 6.333 77.5031 6.48622L77.5808 5.99229ZM74.9238 4.09082V3.55371H74.4238V4.09082H74.9238ZM74.9212 3.59023C74.9953 3.08812 75.154 2.74622 75.371 2.53064C75.5832 2.3199 75.878 2.20312 76.2852 2.20312V1.70312C75.7757 1.70312 75.3436 1.85311 75.0186 2.1759C74.6986 2.49385 74.5099 2.95225 74.4265 3.51719L74.9212 3.59023ZM76.3896 2.84473C76.3896 3.2468 76.1719 3.58965 75.633 3.86884L75.863 4.3128C76.513 3.9761 76.8896 3.48823 76.8896 2.84473H76.3896ZM75.498 4.09082V4.27344H75.998V4.09082H75.498ZM75.5261 4.38844C75.6967 4.71775 75.9209 4.97768 76.2038 5.15423C76.4873 5.3311 76.8148 5.41504 77.1768 5.41504V4.91504C76.8942 4.91504 76.6613 4.85037 76.4685 4.73005C76.2752 4.6094 76.1074 4.42353 75.97 4.15844L75.5261 4.38844ZM77.1768 5.41504H77.542V4.91504H77.1768V5.41504ZM77.542 5.41504C77.7142 5.41504 77.8633 5.33788 77.9853 5.22786C78.1054 5.11962 78.2112 4.96972 78.307 4.79254C78.4989 4.43797 78.6776 3.92319 78.8476 3.26141L78.3633 3.13703C78.1967 3.7858 78.0299 4.25392 77.8673 4.55463C77.7859 4.70508 77.7122 4.80091 77.6505 4.85649C77.5909 4.91029 77.5559 4.91504 77.542 4.91504V5.41504ZM78.7432 2.99057L78.2061 2.63607L77.9306 3.05338L78.4678 3.40787L78.7432 2.99057ZM78.0684 2.59473H76.6396V3.09473H78.0684V2.59473ZM83.6534 2.86884L84.1905 3.23408L84.4716 2.82061L83.9345 2.45538L83.6534 2.86884ZM84.0824 3.00187L83.8997 4.78508L84.3971 4.83602L84.5798 3.05281L84.0824 3.00187ZM83.8984 4.81055V6.05664H84.3984V4.81055H83.8984ZM83.8984 6.05664C83.8984 6.64027 83.9612 7.25422 84.0856 7.898L84.5765 7.80317C84.4574 7.18654 84.3984 6.60453 84.3984 6.05664H83.8984ZM84.09 7.78448C83.9606 8.25609 83.8984 8.8131 83.8984 9.45117H84.3984C84.3984 8.84315 84.458 8.3331 84.5722 7.91669L84.09 7.78448ZM83.8984 9.45117V9.98828H84.3984V9.45117H83.8984ZM83.902 10.0302L84.0846 11.1044L84.5775 11.0206L84.3949 9.94638L83.902 10.0302ZM84.1174 10.9328C83.9608 11.1907 83.8984 11.5421 83.8984 11.9541H84.3984C84.3984 11.5784 84.4579 11.3354 84.5448 11.1922L84.1174 10.9328ZM83.8984 11.9541C83.8984 12.379 83.9278 12.7211 83.9964 12.9646C84.0306 13.0858 84.08 13.2029 84.157 13.2939C84.2403 13.3923 84.3581 13.4609 84.5029 13.4609V12.9609C84.5296 12.9609 84.544 12.9772 84.5387 12.9709C84.5271 12.9572 84.5026 12.9172 84.4777 12.8289C84.4282 12.6534 84.3984 12.3671 84.3984 11.9541H83.8984ZM84.2691 13.1224C84.183 13.3497 84.1036 13.5014 84.0351 13.5917C83.9621 13.6881 83.9373 13.6699 83.9658 13.6699V14.1699C84.1734 14.1699 84.3276 14.0336 84.4336 13.8936C84.5442 13.7477 84.6438 13.5448 84.7367 13.2995L84.2691 13.1224ZM83.9658 13.6699H83.7939V14.1699H83.9658V13.6699ZM83.843 13.6748C83.7798 13.6621 83.6974 13.6135 83.6251 13.4211C83.5512 13.2244 83.5068 12.9203 83.5068 12.4912H83.0068C83.0068 12.943 83.052 13.3174 83.1571 13.597C83.2638 13.8809 83.45 14.1061 83.7449 14.1651L83.843 13.6748ZM83.5068 12.4912V12.3193H83.0068V12.4912H83.5068ZM83.5068 12.3193C83.5068 11.9849 83.5219 11.7235 83.5499 11.5308C83.5796 11.326 83.619 11.239 83.6373 11.2154L83.2416 10.9096C83.1382 11.0435 83.0862 11.2448 83.0551 11.4589C83.0222 11.6852 83.0068 11.9734 83.0068 12.3193H83.5068ZM83.6851 11.0161C83.5649 10.3798 83.5068 9.85944 83.5068 9.45117H83.0068C83.0068 9.90228 83.0705 10.4562 83.1938 11.1089L83.6851 11.0161ZM83.5068 9.45117V7.66797H83.0068V9.45117H83.5068ZM83.2068 7.42302C82.3309 7.60178 81.627 7.73539 81.0942 7.8242C80.5548 7.91409 80.2074 7.95508 80.0342 7.95508V8.45508C80.2548 8.45508 80.6414 8.40655 81.1764 8.3174C81.7177 8.22717 82.4282 8.09223 83.3068 7.91292L83.2068 7.42302ZM80.2591 8.09601L80.0873 7.74152L79.6374 7.95965L79.8092 8.31415L80.2591 8.09601ZM80.1123 7.85059V7.48535H79.6123V7.85059H80.1123ZM80.1123 7.48535C80.1123 7.54806 80.0859 7.58979 80.0741 7.60552C80.0622 7.62141 80.0534 7.62681 80.0583 7.62318C80.0681 7.61592 80.0962 7.59895 80.1533 7.57372C80.2648 7.52449 80.4422 7.46301 80.6927 7.38955C81.1907 7.24348 81.9439 7.05966 82.9558 6.83796L82.8488 6.34954C81.8341 6.57185 81.0672 6.75864 80.552 6.90976C80.2957 6.98491 80.0932 7.05367 79.9513 7.11635C79.8818 7.14706 79.8148 7.18145 79.7613 7.22097C79.7345 7.24072 79.702 7.26837 79.6742 7.30535C79.6466 7.34217 79.6123 7.40384 79.6123 7.48535H80.1123ZM83.1523 6.59375C83.1523 6.61046 83.1472 6.63589 83.1305 6.66019C83.1152 6.68253 83.0995 6.69004 83.1 6.6898C83.1013 6.68916 83.1132 6.68401 83.1416 6.67941C83.1694 6.67493 83.2072 6.67188 83.2568 6.67188V6.17188C83.1265 6.17188 82.9922 6.18639 82.8819 6.23989C82.8233 6.26829 82.7634 6.31161 82.7185 6.37692C82.6722 6.44418 82.6523 6.51975 82.6523 6.59375H83.1523ZM83.5068 6.42188V3.19922H83.0068V6.42188H83.5068ZM83.5068 3.19922C83.5068 3.20536 83.5032 3.17752 83.5679 3.11281C83.6319 3.0488 83.7411 2.97135 83.9093 2.88391L83.6786 2.44031C83.4887 2.53907 83.3294 2.64423 83.2143 2.75926C83.1 2.87358 83.0068 3.0212 83.0068 3.19922H83.5068ZM86.6514 3.63184H87.0059V3.13184H86.6514V3.63184ZM86.8994 3.60804L87.2646 3.77992L87.4775 3.32751L87.1123 3.15563L86.8994 3.60804ZM87.1224 3.52839L86.9398 5.32234L87.4372 5.37297L87.6198 3.57903L87.1224 3.52839ZM86.9385 5.34766V8.3877H87.4385V5.34766H86.9385ZM86.9385 8.3877C86.9385 10.083 87.1808 12.4792 87.6612 15.5697L88.1552 15.4928C87.676 12.4101 87.4385 10.044 87.4385 8.3877H86.9385ZM87.7705 15.3226L87.2334 15.6771L87.5088 16.0944L88.0459 15.7399L87.7705 15.3226ZM87.3711 15.6357C87.4341 15.6357 87.4383 15.6795 87.3949 15.615C87.3561 15.5573 87.3082 15.453 87.2568 15.2868C87.155 14.9579 87.0582 14.4502 86.9692 13.7539C86.7916 12.3654 86.6505 10.2745 86.5467 7.47609L86.0471 7.49462C86.151 10.2965 86.2927 12.4057 86.4732 13.8174C86.5632 14.5211 86.6643 15.0635 86.7791 15.4346C86.836 15.6185 86.9011 15.7767 86.98 15.894C87.0543 16.0045 87.181 16.1357 87.3711 16.1357V15.6357ZM86.5469 7.48535V3.73633H86.0469V7.48535H86.5469ZM86.5441 3.77378C86.5573 3.68644 86.5809 3.65544 86.5891 3.64724C86.5922 3.6442 86.6032 3.63184 86.6514 3.63184V3.13184C86.499 3.13184 86.3507 3.17855 86.2356 3.29368C86.1256 3.40364 86.0723 3.54988 86.0497 3.69888L86.5441 3.77378ZM80.273 9.31235C80.5228 9.45879 80.8036 9.5293 81.1084 9.5293V9.0293C80.8833 9.0293 80.6914 8.97806 80.5258 8.88101L80.273 9.31235ZM80.8584 9.2793V9.98828H81.3584V9.2793H80.8584ZM80.8584 9.98828C80.8584 9.93826 80.8792 9.91673 80.866 9.93681C80.8566 9.95112 80.8359 9.97703 80.7973 10.0156C80.7207 10.0922 80.5979 10.1947 80.4226 10.3244L80.72 10.7264C80.9027 10.5911 81.0485 10.4716 81.1509 10.3692C81.2018 10.3182 81.2483 10.2653 81.2837 10.2116C81.3152 10.1637 81.3584 10.0848 81.3584 9.98828H80.8584ZM80.6054 10.2777L79.3594 10.1059L79.291 10.6012L80.5371 10.773L80.6054 10.2777ZM79.3252 10.1035H78.251V10.6035H79.3252V10.1035ZM78.0061 10.3034L77.8234 11.195L78.3133 11.2953L78.4959 10.4037L78.0061 10.3034ZM77.8184 11.2451V13.3936H78.3184V11.2451H77.8184ZM77.8281 13.4628C77.9496 13.8844 78.0401 14.212 78.1001 14.4464C78.1301 14.5639 78.1519 14.6558 78.166 14.7236C78.1818 14.7994 78.1836 14.825 78.1836 14.8223H78.6836C78.6836 14.7658 78.6701 14.6916 78.6555 14.6215C78.6392 14.5433 78.6153 14.4433 78.5845 14.3226C78.5227 14.0809 78.4306 13.7477 78.3086 13.3243L77.8281 13.4628ZM78.1915 14.7599C78.1403 14.9587 78.059 15.0826 77.9638 15.1583C77.8694 15.2334 77.736 15.2812 77.542 15.2812V15.7812C77.8207 15.7812 78.0722 15.7109 78.275 15.5497C78.4769 15.3891 78.6051 15.1585 78.6757 14.8846L78.1915 14.7599ZM77.7487 15.3907L77.3835 14.8536L76.97 15.1347L77.3353 15.6718L77.7487 15.3907ZM77.4268 14.9941V14.8223H76.9268V14.9941H77.4268ZM77.4268 14.8223C77.4268 13.8611 77.369 12.601 77.2542 11.0441L76.7556 11.0809C76.8699 12.6321 76.9268 13.8785 76.9268 14.8223H77.4268ZM77.2285 11.1743C77.3465 10.9382 77.4268 10.7154 77.4268 10.5254H76.9268C76.9268 10.5932 76.8924 10.7285 76.7813 10.9507L77.2285 11.1743ZM77.2858 10.3004L76.9313 10.1286L76.7132 10.5785L77.0677 10.7503L77.2858 10.3004ZM76.8223 10.1035H72.708V10.6035H76.8223V10.1035ZM72.708 10.1035C72.6697 10.1035 72.6465 10.0985 72.6341 10.0942C72.6282 10.0922 72.6249 10.0904 72.6234 10.0895C72.6221 10.0887 72.6216 10.0882 72.6215 10.0881C72.6214 10.088 72.6207 10.0872 72.6194 10.085C72.6181 10.0828 72.6159 10.0784 72.6135 10.0711C72.6086 10.056 72.6035 10.0297 72.6035 9.98828H72.1035C72.1035 10.1467 72.1419 10.3118 72.2627 10.4363C72.3849 10.5622 72.5494 10.6035 72.708 10.6035V10.1035ZM72.6035 9.98828V9.45117H72.1035V9.98828H72.6035ZM72.4008 9.69665L73.2924 9.52478L73.1978 9.03382L72.3062 9.20569L72.4008 9.69665ZM73.2451 9.5293H80.2168V9.0293H73.2451V9.5293ZM80.2168 9.5293C80.3162 9.5293 80.4367 9.50428 80.5305 9.41042C80.6244 9.31656 80.6494 9.19609 80.6494 9.09668H80.1494C80.1494 9.11902 80.144 9.08985 80.177 9.05687C80.21 9.02388 80.2391 9.0293 80.2168 9.0293V9.5293ZM81.1084 17.5752H81.4736V17.0752H81.1084V17.5752ZM81.4362 17.5724C81.5235 17.5856 81.5545 17.6092 81.5627 17.6175C81.5658 17.6205 81.5781 17.6315 81.5781 17.6797H82.0781C82.0781 17.5273 82.0314 17.379 81.9163 17.2639C81.8063 17.1539 81.6601 17.1006 81.5111 17.078L81.4362 17.5724ZM81.5781 17.6797V20.1826H82.0781V17.6797H81.5781ZM81.5809 20.2201C81.6035 20.3691 81.6569 20.5153 81.7668 20.6253C81.882 20.7404 82.0302 20.7871 82.1826 20.7871V20.2871C82.1345 20.2871 82.1234 20.2747 82.1204 20.2717C82.1122 20.2635 82.0885 20.2325 82.0753 20.1452L81.5809 20.2201ZM82.1826 20.7871H82.5371V20.2871H82.1826V20.7871ZM82.5371 20.7871C83.4968 20.7871 84.2327 20.7425 84.7342 20.6486C84.9827 20.602 85.1935 20.54 85.3485 20.4529C85.5014 20.367 85.6553 20.222 85.6553 20H85.1553C85.1553 19.957 85.1896 19.9687 85.1036 20.017C85.0195 20.0643 84.8718 20.1141 84.6422 20.1571C84.1877 20.2422 83.4895 20.2871 82.5371 20.2871V20.7871ZM85.6553 20V17.6797H85.1553V20H85.6553ZM85.6525 17.7171C85.6657 17.6298 85.6893 17.5988 85.6975 17.5906C85.7006 17.5876 85.7116 17.5752 85.7598 17.5752V17.0752C85.6074 17.0752 85.4591 17.1219 85.344 17.237C85.234 17.347 85.1807 17.4932 85.1581 17.6422L85.6525 17.7171ZM85.7598 17.5752H86.1143V17.0752H85.7598V17.5752ZM86.0768 17.5724C86.1641 17.5856 86.1951 17.6092 86.2034 17.6175C86.2064 17.6205 86.2188 17.6315 86.2188 17.6797H86.7188C86.7188 17.5273 86.672 17.379 86.5569 17.2639C86.4469 17.1539 86.3007 17.1006 86.1517 17.078L86.0768 17.5724ZM86.2188 17.6797C86.2188 17.7373 86.1962 17.8895 86.136 18.1631C86.078 18.4267 85.9903 18.781 85.8725 19.2272L86.356 19.3548C86.4745 18.9058 86.5641 18.544 86.6243 18.2705C86.6823 18.007 86.7188 17.8011 86.7188 17.6797H86.2188ZM85.8643 19.291C85.8643 19.4316 85.9009 19.6303 85.9602 19.8695C86.0212 20.1152 86.1117 20.4245 86.2307 20.796L86.7068 20.6434C86.5895 20.2773 86.5027 19.9797 86.4455 19.7491C86.3867 19.5121 86.3643 19.3652 86.3643 19.291H85.8643ZM86.2438 20.6107L86.0719 20.9652L86.5218 21.1833L86.6937 20.8288L86.2438 20.6107ZM86.0507 21.118C86.1639 21.7547 86.2188 22.276 86.2188 22.6855H86.7188C86.7188 22.2357 86.659 21.6828 86.543 21.0305L86.0507 21.118ZM86.2188 22.6855V23.04H86.7188V22.6855H86.2188ZM86.2188 23.04C86.2188 22.9978 86.2541 23.0422 86.0651 23.1267C85.8956 23.2026 85.621 23.2736 85.226 23.3326C84.4411 23.4497 83.2504 23.5098 81.6455 23.5098V24.0098C83.2561 24.0098 84.477 23.9499 85.2998 23.8271C85.7087 23.7661 86.037 23.6871 86.2694 23.5831C86.4824 23.4877 86.7188 23.3222 86.7188 23.04H86.2188ZM81.8818 23.6781C81.2977 21.9893 81.0039 20.1089 81.0039 18.0342H80.5039C80.5039 20.1561 80.8045 22.0927 81.4092 23.8415L81.8818 23.6781ZM81.0039 18.0342V17.6797H80.5039V18.0342H81.0039ZM81.0011 17.7171C81.0143 17.6298 81.038 17.5988 81.0462 17.5906C81.0492 17.5876 81.0602 17.5752 81.1084 17.5752V17.0752C80.956 17.0752 80.8077 17.1219 80.6926 17.237C80.5826 17.347 80.5293 17.4932 80.5067 17.6422L81.0011 17.7171ZM81.7792 22.2657C81.8975 22.4883 81.9326 22.6214 81.9326 22.6855H82.4326C82.4326 22.4919 82.346 22.2669 82.2208 22.0311L81.7792 22.2657ZM82.1826 22.9355H83.2568V22.4355H82.1826V22.9355ZM83.2568 22.9355C84.0369 22.9355 84.6476 22.8758 85.0711 22.7444C85.4799 22.6176 85.8271 22.3823 85.8271 21.9658H85.3271C85.3271 22.0292 85.2877 22.1537 84.923 22.2668C84.5731 22.3754 84.0236 22.4355 83.2568 22.4355V22.9355ZM85.8008 21.854C85.6896 21.6318 85.6553 21.4966 85.6553 21.4287H85.1553C85.1553 21.6187 85.2355 21.8415 85.3535 22.0776L85.8008 21.854ZM85.4053 21.1787H84.8682V21.6787H85.4053V21.1787ZM84.8682 21.1787C83.907 21.1787 83.1649 21.2385 82.6562 21.3662C82.4031 21.4297 82.1869 21.5149 82.0289 21.6338C81.8638 21.7581 81.75 21.9307 81.75 22.1484H82.25C82.25 22.1263 82.2557 22.089 82.3296 22.0333C82.4107 21.9723 82.553 21.9076 82.7779 21.8511C83.2252 21.7389 83.9173 21.6787 84.8682 21.6787V21.1787ZM97.5322 4.08008V3.83008H97.5039L97.4763 3.83641L97.5322 4.08008ZM97.8867 4.08008H98.1367V3.83008H97.8867V4.08008ZM93.418 5.69141L93.3793 5.44441L93.168 5.47747V5.69141H93.418ZM93.418 7.65723H93.168V7.71624L93.1944 7.76903L93.418 7.65723ZM93.6006 8.02246L93.377 8.13426L93.4531 8.28655L93.6227 8.27148L93.6006 8.02246ZM97.7148 7.48535L97.8658 7.28608L97.7773 7.21903L97.6682 7.23974L97.7148 7.48535ZM98.4238 8.02246L98.6576 8.11102L98.7239 7.93612L98.5748 7.82319L98.4238 8.02246ZM94.4922 9.98828L94.3617 10.2015L94.4218 10.2383H94.4922V9.98828ZM98.6064 9.45117L98.6439 9.20399L98.6053 9.19815L98.5668 9.20434L98.6064 9.45117ZM94.6748 11.0625V11.3125H94.6916L94.7083 11.3102L94.6748 11.0625ZM92.3438 4.98242L92.0964 4.94605L92.0938 4.96414V4.98242H92.3438ZM102.001 14.1025L102.223 13.988L102.148 13.8428L101.985 13.853L102.001 14.1025ZM102.184 14.457H102.434V14.3964L102.406 14.3425L102.184 14.457ZM100.218 15.3486V15.5986H100.229L100.24 15.5977L100.218 15.3486ZM98.9609 15.3486V15.0986H98.8109L98.7403 15.231L98.9609 15.3486ZM99.1436 19.4629L99.3778 19.5503L99.4048 19.4778L99.3862 19.4027L99.1436 19.4629ZM97.8867 19.6455H97.6367V19.7066L97.6649 19.7608L97.8867 19.6455ZM97.8867 15.7139H98.1367V15.658L98.1129 15.6074L97.8867 15.7139ZM97.7148 15.3486L97.941 15.2422L97.8698 15.0907L97.7026 15.0989L97.7148 15.3486ZM88.9492 15.7139L88.8319 15.9346L88.8869 15.9639H88.9492V15.7139ZM88.4121 15.5312H88.1621V15.7812H88.4121V15.5312ZM88.4121 15.1768L88.1754 15.0963L88.1621 15.1354V15.1768H88.4121ZM93.418 14.6396V14.8896H93.4258L93.4336 14.8892L93.418 14.6396ZM94.3096 18.5713V18.3213H94.0596V18.5713H94.3096ZM95.5664 21.0742L95.3197 21.1145L95.3411 21.246L95.4623 21.3015L95.5664 21.0742ZM96.458 21.6113H96.208V21.8832L96.4789 21.8605L96.458 21.6113ZM102.184 20.5371L102.301 20.3163L102.212 20.2689L102.114 20.2969L102.184 20.5371ZM102.721 20.7197H102.971V20.4697H102.721V20.7197ZM101.109 21.9658V21.7158H101.091L101.073 21.7185L101.109 21.9658ZM95.5664 22.5029L95.381 22.6707L95.4555 22.7529H95.5664V22.5029ZM94.1377 19.1084L93.9141 18.9966L93.8877 19.0494V19.1084H94.1377ZM97.5322 4.33008H97.8867V3.83008H97.5322V4.33008ZM97.6367 4.08008V4.2627H98.1367V4.08008H97.6367ZM97.6367 4.2627C97.6367 4.54865 97.536 4.73408 97.3473 4.86078C97.1408 4.99934 96.7996 5.08691 96.2861 5.08691V5.58691C96.8398 5.58691 97.2988 5.49545 97.6259 5.27594C97.9706 5.04456 98.1367 4.69288 98.1367 4.2627H97.6367ZM96.2861 5.08691C95.8614 5.08691 94.8838 5.20911 93.3793 5.44441L93.4566 5.9384C94.9743 5.70104 95.9088 5.58691 96.2861 5.58691V5.08691ZM93.168 5.69141V7.65723H93.668V5.69141H93.168ZM93.1944 7.76903L93.377 8.13426L93.8242 7.91066L93.6416 7.54542L93.1944 7.76903ZM93.6227 8.27148C95.2393 8.12779 96.6194 7.94782 97.7615 7.73096L97.6682 7.23974C96.5473 7.45257 95.1846 7.63068 93.5785 7.77344L93.6227 8.27148ZM97.5639 7.68462L98.2729 8.22173L98.5748 7.82319L97.8658 7.28608L97.5639 7.68462ZM98.19 7.9339C98.1039 8.16124 98.0245 8.31288 97.956 8.40323C97.883 8.49961 97.8582 8.48145 97.8867 8.48145V8.98145C98.0943 8.98145 98.2485 8.84511 98.3545 8.70516C98.4651 8.55919 98.5647 8.35634 98.6576 8.11102L98.19 7.9339ZM97.8867 8.48145H96.6406V8.98145H97.8867V8.48145ZM96.6406 8.48145C95.6809 8.48145 94.945 8.52608 94.4435 8.61999C94.195 8.66652 93.9842 8.72856 93.8293 8.81561C93.6763 8.90154 93.5225 9.04651 93.5225 9.26855H94.0225C94.0225 9.31156 93.9881 9.29988 94.0742 9.25153C94.1582 9.2043 94.3059 9.15444 94.5355 9.11145C94.9901 9.02633 95.6882 8.98145 96.6406 8.98145V8.48145ZM93.5225 9.26855C93.5225 9.46491 93.6438 9.63307 93.7756 9.76491C93.9156 9.90491 94.1144 10.0502 94.3617 10.2015L94.6227 9.77504C94.3901 9.63274 94.2291 9.51127 94.1292 9.41136C94.0211 9.30329 94.0225 9.2584 94.0225 9.26855H93.5225ZM94.4922 10.2383H94.6748V9.73828H94.4922V10.2383ZM94.6748 10.2383C94.892 10.2383 95.3359 10.1906 95.987 10.1017C96.6451 10.0118 97.5317 9.87717 98.6461 9.698L98.5668 9.20434C97.454 9.38325 96.5717 9.51717 95.9193 9.6063C95.2598 9.6964 94.8515 9.73828 94.6748 9.73828V10.2383ZM98.569 9.69835C98.6563 9.71158 98.6873 9.73522 98.6955 9.74343C98.6986 9.74646 98.7109 9.75752 98.7109 9.80566H99.2109C99.2109 9.65329 99.1642 9.505 99.0491 9.38987C98.9391 9.27992 98.7929 9.22657 98.6439 9.20399L98.569 9.69835ZM98.7109 9.80566V10.1709H99.2109V9.80566H98.7109ZM98.7109 10.1709C98.7109 10.1085 98.7383 10.0678 98.7505 10.0528C98.762 10.0387 98.7688 10.0362 98.7586 10.0428C98.7382 10.0559 98.6926 10.0784 98.6098 10.1077C98.4474 10.1651 98.1928 10.2311 97.8385 10.3048C97.133 10.4515 96.0686 10.6216 94.6413 10.8148L94.7083 11.3102C96.1384 11.1167 97.217 10.9448 97.9403 10.7943C98.3004 10.7194 98.5815 10.648 98.7764 10.5792C98.8721 10.5453 98.9604 10.5075 99.0293 10.4632C99.0638 10.441 99.104 10.4104 99.1379 10.3689C99.1724 10.3267 99.2109 10.2592 99.2109 10.1709H98.7109ZM94.6748 10.8125C94.3319 10.8125 94.0427 10.7245 93.7971 10.5547C93.5495 10.3836 93.332 10.1193 93.1517 9.74541C92.7878 8.99084 92.5938 7.82774 92.5938 6.22852H92.0938C92.0938 7.85195 92.2882 9.10584 92.7013 9.96259C92.9095 10.3944 93.1776 10.7343 93.5128 10.966C93.85 11.1991 94.2407 11.3125 94.6748 11.3125V10.8125ZM92.5938 6.22852V4.98242H92.0938V6.22852H92.5938ZM92.5911 5.0188C92.6044 4.92813 92.629 4.89492 92.6387 4.88527C92.6433 4.88069 92.6568 4.86719 92.709 4.86719V4.36719C92.5535 4.36719 92.4023 4.41455 92.2851 4.53172C92.173 4.64382 92.1189 4.79322 92.0964 4.94605L92.5911 5.0188ZM92.709 4.86719H93.2461V4.36719H92.709V4.86719ZM93.2461 4.86719C94.5649 4.86719 96.0127 4.68509 97.5881 4.32375L97.4763 3.83641C95.9294 4.19122 94.5197 4.36719 93.2461 4.36719V4.86719ZM101.779 14.217L101.961 14.5715L102.406 14.3425L102.223 13.988L101.779 14.217ZM101.934 14.457V14.6396H102.434V14.457H101.934ZM101.934 14.6396C101.934 14.6425 101.936 14.6613 101.893 14.7002C101.845 14.7436 101.756 14.7966 101.607 14.8503C101.311 14.9572 100.845 15.0428 100.196 15.0996L100.24 15.5977C100.901 15.5399 101.418 15.45 101.777 15.3206C101.956 15.2561 102.113 15.1757 102.229 15.0705C102.35 14.9609 102.434 14.8158 102.434 14.6396H101.934ZM100.218 15.0986H98.9609V15.5986H100.218V15.0986ZM98.7403 15.231C98.6048 15.4852 98.5391 15.7661 98.5391 16.0684H99.0391C99.0391 15.8407 99.0879 15.6418 99.1815 15.4663L98.7403 15.231ZM98.5391 16.0684V16.4229H99.0391V16.0684H98.5391ZM98.5391 16.4229C98.5391 17.5155 98.6593 18.5492 98.9009 19.5231L99.3862 19.4027C99.1552 18.4717 99.0391 17.4787 99.0391 16.4229H98.5391ZM98.9093 19.3755C98.8231 19.6066 98.7434 19.761 98.6746 19.8532C98.6009 19.952 98.5762 19.9326 98.6064 19.9326V20.4326C98.8157 20.4326 98.9701 20.2933 99.0754 20.1522C99.1856 20.0045 99.285 19.799 99.3778 19.5503L98.9093 19.3755ZM98.6064 19.9326H98.4238V20.4326H98.6064V19.9326ZM98.4238 19.9326C98.43 19.9326 98.4021 19.9363 98.3374 19.8716C98.2734 19.8076 98.196 19.6983 98.1085 19.5302L97.6649 19.7608C97.7637 19.9508 97.8688 20.1101 97.9839 20.2251C98.0982 20.3394 98.2458 20.4326 98.4238 20.4326V19.9326ZM98.1367 19.6455V15.7139H97.6367V19.6455H98.1367ZM98.1129 15.6074L97.941 15.2422L97.4886 15.4551L97.6605 15.8203L98.1129 15.6074ZM97.7026 15.0989C92.7504 15.3426 89.8366 15.4639 88.9492 15.4639V15.9639C89.8522 15.9639 92.7821 15.8416 97.7271 15.5983L97.7026 15.0989ZM89.0665 15.4931C88.8308 15.3679 88.6058 15.2812 88.4121 15.2812V15.7812C88.4763 15.7812 88.6093 15.8164 88.8319 15.9346L89.0665 15.4931ZM88.6621 15.5312V15.1768H88.1621V15.5312H88.6621ZM88.6488 15.2572C88.7176 15.0548 88.9274 14.8896 89.4863 14.8896V14.3896C88.8565 14.3896 88.3501 14.5826 88.1754 15.0963L88.6488 15.2572ZM89.4863 14.8896H93.418V14.3896H89.4863V14.8896ZM93.4336 14.8892L102.017 14.3521L101.985 13.853L93.4024 14.3901L93.4336 14.8892ZM94.3096 18.8213H94.8467V18.3213H94.3096V18.8213ZM94.8467 18.8213C94.8164 18.8213 94.7919 18.8134 94.7755 18.8053C94.7601 18.7978 94.7527 18.7905 94.7523 18.7901C94.7518 18.7896 94.7553 18.7931 94.7623 18.803C94.7691 18.8127 94.7779 18.8267 94.7882 18.8459C94.8315 18.9267 94.8837 19.063 94.9421 19.2661C95.0579 19.6687 95.184 20.2826 95.3197 21.1145L95.8131 21.034C95.6767 20.1972 95.5468 19.5597 95.4226 19.1279C95.3611 18.9139 95.2973 18.7373 95.2288 18.6095C95.1948 18.5462 95.1529 18.482 95.0998 18.4307C95.0469 18.3795 94.9615 18.3213 94.8467 18.3213V18.8213ZM95.4623 21.3015C95.757 21.4365 95.9697 21.5446 96.1061 21.6267C96.1753 21.6685 96.2158 21.6981 96.2359 21.716C96.2461 21.7251 96.2438 21.7249 96.2374 21.7154C96.2326 21.7083 96.208 21.671 96.208 21.6113H96.708C96.708 21.5301 96.6742 21.4685 96.6508 21.4341C96.6257 21.3973 96.5956 21.3669 96.5686 21.3428C96.5145 21.2945 96.4435 21.2463 96.3641 21.1985C96.2033 21.1016 95.9702 20.9841 95.6705 20.8469L95.4623 21.3015ZM96.4789 21.8605C98.3727 21.7014 100.297 21.3402 102.253 20.7774L102.114 20.2969C100.188 20.8512 98.2959 21.2061 96.4371 21.3622L96.4789 21.8605ZM102.066 20.7579C102.302 20.8831 102.527 20.9697 102.721 20.9697V20.4697C102.657 20.4697 102.524 20.4346 102.301 20.3163L102.066 20.7579ZM102.471 20.7197V20.9023H102.971V20.7197H102.471ZM102.471 20.9023C102.471 21.1829 102.371 21.3656 102.18 21.4913C101.972 21.629 101.627 21.7158 101.109 21.7158V22.2158C101.666 22.2158 102.127 22.1254 102.456 21.9086C102.802 21.6798 102.971 21.3307 102.971 20.9023H102.471ZM101.073 21.7185C98.6483 22.0761 96.8152 22.2529 95.5664 22.2529V22.7529C96.8528 22.7529 98.715 22.5717 101.146 22.2131L101.073 21.7185ZM95.7518 22.3352C94.8333 21.32 94.3877 20.2462 94.3877 19.1084H93.8877C93.8877 20.3912 94.3946 21.5804 95.381 22.6707L95.7518 22.3352ZM94.3613 19.2202C94.4794 18.9841 94.5596 18.7613 94.5596 18.5713H94.0596C94.0596 18.6391 94.0252 18.7744 93.9141 18.9966L94.3613 19.2202Z" fill="#222222"/>
</svg>
