<svg width="162" height="25" viewBox="0 0 162 25" fill="none" xmlns="http://www.w3.org/2000/svg">
<path d="M12.3018 3.5957L12.7207 4.23047C12.4837 4.92448 12.1325 5.27148 11.667 5.27148C5.93717 5.27148 3.07227 5.55078 3.07227 6.10938V9.47363L8.73438 8.63574C8.77669 8.91504 8.91634 9.05469 9.15332 9.05469C8.96712 9.89258 8.75553 10.3115 8.51855 10.3115C8.10384 10.3115 7.89648 10.2396 7.89648 10.0957C4.68034 10.5189 3.07227 10.9421 3.07227 11.3652C3.48698 12.6855 3.69434 13.3838 3.69434 13.46H4.11328C5.60286 13.46 7.56217 13.041 9.99121 12.2031C10.5498 12.4062 10.8291 12.6136 10.8291 12.8252V13.041C10.8291 13.7012 8.3112 14.3994 3.27539 15.1357C2.35286 15.1357 1.79427 13.0368 1.59961 8.83887V5.90625C1.04102 5.90625 0.761719 5.69466 0.761719 5.27148V5.06836C0.761719 4.50977 3.41927 4.09082 8.73438 3.81152C10.224 3.81152 11.4131 3.73958 12.3018 3.5957ZM16.4912 4.01465H16.707C16.8171 4.01465 17.0244 4.22624 17.3291 4.64941C17.0837 5.59733 16.8763 7.4847 16.707 10.3115C16.8424 10.557 16.9102 10.8363 16.9102 11.1494H16.707L16.9102 11.5684V13.041C16.9102 13.7943 16.6309 14.2809 16.0723 14.501C15.8776 14.501 15.6702 14.2936 15.4502 13.8789V10.0957C15.4502 6.04167 15.7972 4.01465 16.4912 4.01465ZM14.8154 5.06836L15.0312 5.4873C14.752 7.87402 14.6123 9.4821 14.6123 10.3115V11.5684L14.8154 13.6631L13.7744 14.2979C13.3512 13.7816 13.1396 13.2907 13.1396 12.8252V10.3115L12.9238 9.89258C12.2298 10.3073 11.6712 10.5146 11.248 10.5146L10.8291 9.89258V9.67676C10.8291 9.26204 11.667 8.8431 13.3428 8.41992L13.5586 6.95996H13.3428C13.512 5.69889 14.0029 5.06836 14.8154 5.06836ZM9.57227 16.1895H9.78809C10.0674 16.2318 10.207 16.3714 10.207 16.6084V19.96C11.0703 19.96 12.7461 19.6807 15.2344 19.1221C15.793 19.266 16.0723 19.5452 16.0723 19.96L15.4502 21.0137C15.2979 21.0137 15.0863 20.9417 14.8154 20.7979L9.36914 21.6357C8.94596 21.1025 8.73438 20.4762 8.73438 19.7568V19.1221C8.73438 17.167 9.01367 16.1895 9.57227 16.1895ZM23.1465 3.41797H23.5654C23.8447 3.46029 23.9844 3.59993 23.9844 3.83691C23.9844 4.17546 23.1465 5.85124 21.4707 8.86426V9.06738C22.4863 10.8193 24.1621 12.4274 26.498 13.8916V14.1074C26.2611 14.8014 25.9141 15.1484 25.457 15.1484C25.2201 15.1484 23.6839 13.752 20.8486 10.959H20.6328C19.8626 14.1751 19.304 15.7832 18.957 15.7832H18.5381C18.2588 15.7832 18.1191 15.6436 18.1191 15.3643V15.1484C19.4648 9.62174 21.1406 5.71159 23.1465 3.41797ZM30.9033 4.25586H31.1064C31.3096 4.25586 31.5212 4.46322 31.7412 4.87793L31.1064 9.90527V13.2695C31.1064 13.7689 31.1784 14.3952 31.3223 15.1484C31.0514 15.7832 30.7721 16.1344 30.4844 16.2021H30.2686C30.0739 16.2021 29.8665 15.9906 29.6465 15.5674V14.9453C29.6465 14.6237 29.7142 14.3444 29.8496 14.1074C29.7142 13.862 29.6465 13.5827 29.6465 13.2695V12.4189C28.9102 12.4189 27.721 12.4909 26.0791 12.6348L25.876 11.7969C26.5023 11.2891 27.8268 10.9378 29.8496 10.7432L29.6465 10.3242V8.64844C28.0046 8.79232 26.8154 8.86426 26.0791 8.86426H25.2412C25.2412 8.58496 25.1735 8.44531 25.0381 8.44531C25.3174 7.60742 26.0833 7.18848 27.3359 7.18848L27.7549 7.3916L29.0117 7.18848H29.8496C30.0358 5.2334 30.387 4.25586 30.9033 4.25586ZM25.457 17.2432H25.6602C25.8717 17.2432 26.0833 17.5225 26.2949 18.0811C26.0156 18.5973 25.876 19.1559 25.876 19.7568V21.2295C25.9183 21.5088 26.0579 21.6484 26.2949 21.6484C27.7591 21.6484 29.2952 21.4368 30.9033 21.0137H31.1064C31.3857 21.056 31.5254 21.1956 31.5254 21.4326V22.2705C31.5254 22.4736 31.318 22.6852 30.9033 22.9053C30.751 22.9053 30.5394 22.8333 30.2686 22.6895C27.5941 23.1126 25.7786 23.3242 24.8223 23.3242C24.7122 22.7656 24.5726 22.4863 24.4033 22.4863C24.4033 22.3424 24.4753 22.2705 24.6191 22.2705L24.4033 20.3916C24.5472 18.2926 24.8984 17.2432 25.457 17.2432ZM52.25 2.54199C52.5293 2.88053 52.6689 3.15983 52.6689 3.37988C52.5251 6.94303 52.4531 9.04199 52.4531 9.67676C52.4447 9.87988 52.1654 10.2269 51.6152 10.7178L50.7773 10.2988C50.9212 9.60482 51.0609 7.5778 51.1963 4.21777L50.7773 4.00195C48.2552 4.17122 46.9941 4.59017 46.9941 5.25879C46.8587 7.52702 46.791 8.78809 46.791 9.04199H46.9941L46.791 9.46094C46.791 9.57096 46.8587 9.98991 46.9941 10.7178C46.9857 10.9209 46.7064 11.2721 46.1562 11.7715C45.5977 11.6361 45.3184 11.2171 45.3184 10.5146L45.5342 9.04199L45.3184 8.62305L45.5342 7.36621V6.73145C45.5342 6.59603 45.4622 6.52832 45.3184 6.52832L45.5342 6.10938V4.21777L39.4404 4.83984C39.305 4.42513 39.1654 4.21777 39.0215 4.21777C39.0215 3.37988 40.9089 2.96094 44.6836 2.96094C44.6836 2.81706 45.1745 2.74512 46.1562 2.74512L48.0479 2.96094C50.0791 2.68164 51.4798 2.54199 52.25 2.54199ZM55.1826 11.9873C55.4619 11.9873 55.6016 12.1947 55.6016 12.6094C55.3223 13.0664 55.1826 13.4176 55.1826 13.6631H54.7637C54.4505 13.6631 54.1712 13.5911 53.9258 13.4473C53.7819 13.4473 53.71 13.5192 53.71 13.6631L52.6689 13.4473C48.2256 13.4473 44.307 13.7985 40.9131 14.501L40.4941 13.8662C40.4941 12.6136 45.3903 11.9873 55.1826 11.9873ZM52.25 14.2979L52.6689 14.9199C52.3219 18.0007 51.7633 19.541 50.9932 19.541H49.7236C49.4105 19.541 49.1312 19.4691 48.8857 19.3252C47.4893 19.4691 46.791 19.6807 46.791 19.96V20.5947L46.9941 21.0137C48.8138 20.8698 50.6335 20.6582 52.4531 20.3789L52.6689 20.7979V21.6357C52.6689 21.8389 52.4574 22.0505 52.0342 22.2705C51.721 22.2705 51.4417 22.1986 51.1963 22.0547L45.7373 22.6895C45.3226 21.9616 45.1152 20.8402 45.1152 19.3252C45.3776 18.6312 45.9362 18.2842 46.791 18.2842H49.9395C50.498 18.1403 50.7773 17.3701 50.7773 15.9736C50.6335 15.9736 50.5615 15.9017 50.5615 15.7578L50.1426 15.9736H49.3047C47.4004 16.109 45.7923 16.1768 44.4805 16.1768C44.3366 15.9313 44.2646 15.652 44.2646 15.3389C44.2646 14.8734 46.9264 14.5264 52.25 14.2979ZM62.8916 0.43457H63.5137C66.7383 1.71257 68.3506 3.74382 68.3506 6.52832C67.5973 10.3031 66.6156 12.1904 65.4053 12.1904C65.4053 12.8421 64.3558 13.2653 62.2568 13.46C60.1579 13.46 58.4102 12.2666 57.0137 9.87988C56.5905 8.80501 56.3789 8.03483 56.3789 7.56934V6.94727C56.3789 4.62826 57.568 2.66895 59.9463 1.06934L62.8916 0.43457ZM71.918 0.650391L72.5527 1.06934L72.3369 4.00195C72.3369 4.74674 72.4089 5.37728 72.5527 5.89355C72.4089 6.81608 72.3369 7.72591 72.3369 8.62305V10.2988C72.3369 10.8066 72.4089 11.4372 72.5527 12.1904C72.2819 12.8337 72.0026 13.1849 71.7148 13.2441C71.1478 12.9564 70.8643 12.6051 70.8643 12.1904C70.8643 11.8773 70.9362 11.598 71.0801 11.3525C70.9362 10.5993 70.8643 9.96875 70.8643 9.46094V7.36621L70.6611 6.94727L69.6074 7.36621L68.7695 6.73145C68.7695 6.13053 69.5397 5.63965 71.0801 5.25879V2.11035C71.0801 1.3571 71.3594 0.870443 71.918 0.650391ZM57.8516 6.3125V7.36621C57.8516 9.74447 59.4596 11.2848 62.6758 11.9873C65.1979 11.1748 66.459 9.84603 66.459 8.00098C66.569 8.00098 66.7087 7.71745 66.8779 7.15039C66.8779 5.04297 66.04 3.5026 64.3643 2.5293H64.1484C64.1484 2.81706 64.0088 2.96094 63.7295 2.96094C63.2132 2.53776 62.7223 2.32617 62.2568 2.32617H61.6348C59.8659 2.32617 58.6048 3.65495 57.8516 6.3125ZM85.2666 1.94531C86.6631 1.94531 88.4108 2.92285 90.5098 4.87793L91.1318 7.81055C91.1318 9.54557 89.9469 10.9421 87.5771 12C86.6631 12.2793 86.0326 12.4189 85.6855 12.4189L85.9014 13.4727L85.6855 14.5264C85.9564 14.6618 86.168 14.7295 86.3203 14.7295C87.4036 14.7295 89.3587 14.6618 92.1855 14.5264L92.3887 14.9453V15.5674C92.3887 15.7705 92.1813 15.9821 91.7666 16.2021C90.5309 16.0583 89.7607 15.9863 89.4561 15.9863C89.3545 15.9863 88.9355 16.0583 88.1992 16.2021L87.7803 15.9863C85.9775 16.2656 83.3962 16.4053 80.0361 16.4053L79.8203 15.9863V15.5674C79.8203 15.3643 80.0319 15.1569 80.4551 14.9453H83.8066C84.0182 14.9453 84.2975 14.2471 84.6445 12.8506C84.7799 12.8506 84.8477 12.7786 84.8477 12.6348V12.4189C82.444 12.4189 80.7682 10.9548 79.8203 8.02637V7.60742C79.8203 5.2207 81.3564 3.40527 84.4287 2.16113C84.7419 2.16113 85.0212 2.08919 85.2666 1.94531ZM81.293 7.3916C81.877 9.76986 83.0618 10.959 84.8477 10.959H85.4824C88.2754 10.5273 89.6719 9.33822 89.6719 7.3916C89.0286 5.30111 88.1188 4.25586 86.9424 4.25586C85.9945 4.05273 85.2962 3.84115 84.8477 3.62109C82.4779 4.42513 81.293 5.68197 81.293 7.3916ZM90.9287 17.459L91.1318 17.8779C90.8525 20.1123 90.5055 21.2295 90.0908 21.2295H86.7393C84.9196 21.3311 84.0098 21.6104 84.0098 22.0674V22.2705C84.0521 22.5498 84.1917 22.6895 84.4287 22.6895H86.1045C86.8831 22.6895 88.2119 22.4821 90.0908 22.0674H90.2939C90.5732 22.0674 90.7129 22.2747 90.7129 22.6895C90.7129 23.1296 90.5055 23.5485 90.0908 23.9463C89.9385 23.9463 89.7269 23.8786 89.4561 23.7432L84.2256 24.3652C82.9645 24.3652 82.334 23.4596 82.334 21.6484C82.334 20.5312 83.9421 19.9727 87.1582 19.9727C88.5547 19.9727 89.2529 19.7611 89.2529 19.3379V18.9189C86.5361 19.1982 84.1621 19.3379 82.1309 19.3379V19.5537C81.5723 19.3421 81.293 19.1305 81.293 18.9189V18.5C81.4284 18.0853 81.8473 17.8779 82.5498 17.8779C84.4033 17.8779 87.1963 17.7383 90.9287 17.459ZM100.72 2.33887H102.192C102.396 2.33887 102.603 2.55046 102.814 2.97363V3.17676C102.814 4.37858 102.747 5.63965 102.611 6.95996L102.814 8.00098C102.628 8.58496 102.281 9.00814 101.773 9.27051H101.139C97.9225 9.37207 96.3145 9.65137 96.3145 10.1084V12.2031C96.4499 12.6263 96.8688 12.8379 97.5713 12.8379H101.977C102.256 12.8379 102.396 13.0452 102.396 13.46C102.192 14.0186 101.985 14.2979 101.773 14.2979H97.9902L95.8955 14.5137C95.1761 13.515 94.7572 12.3258 94.6387 10.9463C94.6387 9.26204 95.1253 8.41992 96.0986 8.41992C99.2894 7.97135 101.041 7.62435 101.354 7.37891L101.139 5.90625V3.81152H99.2471C98.1976 3.81152 96.2425 4.01888 93.3818 4.43359V4.23047L93.166 3.39258C94.0124 2.6901 96.5303 2.33887 100.72 2.33887ZM107.436 2.97363H108.07C108.07 3.25293 108.138 3.39258 108.273 3.39258L107.854 11.3652L108.273 13.46C108.138 14.0186 107.719 14.2979 107.017 14.2979C106.593 13.79 106.382 12.6009 106.382 10.7305H106.179C105.95 10.7305 105.04 10.9421 103.449 11.3652C103.178 11.2214 102.967 11.1494 102.814 11.1494V10.3115C102.814 9.91374 104.076 9.56673 106.598 9.27051V8.41992L105.76 8.2168C104.803 8.35221 104.033 8.41992 103.449 8.41992L103.233 8.00098V7.58203C103.233 7.2181 103.796 6.9388 104.922 6.74414H106.598V5.4873C106.598 3.81152 106.877 2.97363 107.436 2.97363ZM119.334 3.39258L119.537 3.81152V4.23047C118.962 5.13607 118.403 5.83431 117.861 6.3252V6.52832C119.122 8.2041 119.753 9.25358 119.753 9.67676C119.753 9.87988 119.541 10.0915 119.118 10.3115L116.604 7.58203C116.418 7.58203 115.09 8.91081 112.618 11.5684H112.402C112.132 11.4329 111.924 11.3652 111.78 11.3652V11.1494C111.78 10.3877 113.249 8.63997 116.186 5.90625L116.808 5.06836C116.537 4.92448 116.329 4.85254 116.186 4.85254C114.891 4.85254 113.143 4.99219 110.942 5.27148L110.727 4.85254V4.23047C110.727 3.75651 113.596 3.47721 119.334 3.39258ZM121.429 11.5684V11.7842L121.848 11.5684H122.901C123.181 11.6107 123.32 11.7503 123.32 11.9873V12.2031C123.32 13.041 122.901 13.46 122.063 13.46L120.794 13.041C119.262 13.041 118.496 13.5277 118.496 14.501C118.352 15.0596 118.28 15.5505 118.28 15.9736H118.496C119.19 15.9736 120.235 15.9059 121.632 15.7705C121.683 16.0498 121.826 16.1895 122.063 16.1895C122.063 19.1263 121.082 20.5947 119.118 20.5947C118.983 20.5947 118.915 20.5228 118.915 20.3789L117.442 20.5947H117.023C117.023 20.7386 116.951 20.946 116.808 21.2168L117.227 21.4326C117.768 21.4326 119.309 21.293 121.848 21.0137L122.267 21.6357L121.632 22.8926L120.172 22.6895C119.012 22.6895 117.612 22.8291 115.97 23.1084C115.555 22.6006 115.348 22.1097 115.348 21.6357V20.5947C115.348 19.4691 116.676 18.9062 119.334 18.9062C119.893 18.9062 120.172 18.6989 120.172 18.2842V17.4463H118.28C117.679 17.4463 116.143 17.5859 113.672 17.8652L113.456 17.4463V17.0273C113.541 16.5703 114.73 16.2191 117.023 15.9736V15.7705C117.023 15.6605 116.951 15.2373 116.808 14.501L117.023 13.2441H115.132C113.727 13.2441 111.979 13.3838 109.889 13.6631C109.33 13.46 109.051 13.2526 109.051 13.041V12.6221C109.051 12.0635 111.776 11.7842 117.227 11.7842H119.334L121.429 11.5684ZM134.993 1.51367C135.129 1.51367 135.196 1.58561 135.196 1.72949C135.349 1.72949 135.56 1.65755 135.831 1.51367C139.606 2.10612 141.493 3.71419 141.493 6.33789C141.493 8.32682 140.092 10.0026 137.291 11.3652H137.088V11.5811H141.074C141.074 11.7249 141.142 11.9323 141.277 12.2031C140.998 12.7786 140.858 13.1976 140.858 13.46H141.074C141.354 13.46 141.493 13.3203 141.493 13.041V12.4189C141.798 8.9235 142.285 7.17578 142.953 7.17578H143.372C143.651 7.17578 143.791 7.38314 143.791 7.79785C143.376 9.47363 143.029 11.2214 142.75 13.041L142.953 13.46V15.1357C142.953 16.2106 142.674 16.8411 142.115 17.0273H141.912C141.802 17.0273 141.59 16.8158 141.277 16.3926L141.493 15.9736V15.3516C141.493 15.0723 141.354 14.9326 141.074 14.9326H140.236C138.214 15.2119 137.164 15.3516 137.088 15.3516L136.872 14.9326V14.5137C136.872 13.9551 137.782 13.6038 139.602 13.46V13.2568L138.548 13.041C137.016 13.041 136.25 13.2526 136.25 13.6758V16.6084C136.25 16.9215 136.318 17.2008 136.453 17.4463C136.318 18.0049 135.971 18.2842 135.412 18.2842L134.777 17.4463V13.8789L134.574 13.46C134.227 13.46 133.25 13.5996 131.642 13.8789C131.083 13.6758 130.804 13.4684 130.804 13.2568V12.8379C130.804 12.3809 132.619 12.0296 136.25 11.7842V11.5811C132.475 11.0563 130.588 9.30859 130.588 6.33789C130.867 4.94141 131.777 3.47298 133.317 1.93262C134.435 1.83952 134.993 1.69987 134.993 1.51367ZM132.264 6.33789V6.95996C132.264 8.46647 133.453 9.44824 135.831 9.90527H136.453C137.638 9.90527 138.759 8.9235 139.817 6.95996V6.75684C139.817 4.37858 138.768 3.18945 136.669 3.18945H134.574C133.034 4.14583 132.264 5.19531 132.264 6.33789ZM144.845 6.75684C145.403 6.89225 145.683 7.3112 145.683 8.01367V8.43262L144.426 15.9736C144.705 16.5492 144.845 16.9723 144.845 17.2432C144.845 20.5947 144.426 22.2705 143.588 22.2705C142.758 22.2705 141.43 22.4102 139.602 22.6895C139.043 22.1309 138.764 21.0137 138.764 19.3379C138.764 17.7975 139.255 17.0273 140.236 17.0273L140.655 17.6621L140.439 18.9189C142.259 18.8174 143.169 18.6058 143.169 18.2842V17.6621C143.626 10.3919 144.185 6.75684 144.845 6.75684ZM140.439 20.7979C140.583 20.7979 140.655 20.8698 140.655 21.0137C142.187 20.8698 142.953 20.6582 142.953 20.3789V19.96H142.75C141.21 20.1715 140.439 20.4508 140.439 20.7979ZM161.783 2.55469L161.999 2.97363C161.999 3.69303 161.787 4.11198 161.364 4.23047C153.256 4.23047 149.202 4.57747 149.202 5.27148C149.058 5.54232 148.986 5.75391 148.986 5.90625C149.13 6.64258 149.202 7.34082 149.202 8.00098C152.528 7.58626 155.744 7.30697 158.851 7.16309C158.986 7.43392 159.054 7.64551 159.054 7.79785C158.851 8.35645 158.643 8.63574 158.432 8.63574H158.013C154.153 8.63574 151.284 8.98275 149.405 9.67676L150.04 12.2031C150.81 12.2031 153.815 11.8519 159.054 11.1494H160.107C160.311 11.1494 160.522 11.361 160.742 11.7842C160.471 12.4189 160.192 12.766 159.904 12.8252H157.594C152.279 13.2061 149.621 13.625 149.621 14.082C148.876 14.082 148.246 11.7757 147.729 7.16309V5.90625C146.892 5.36458 146.473 5.01335 146.473 4.85254C146.473 3.70996 151.157 3.01172 160.526 2.75781C160.526 2.6224 160.945 2.55469 161.783 2.55469ZM160.742 14.082L160.945 14.501C160.945 15.2035 160.806 15.5547 160.526 15.5547C158.072 15.6986 156.604 15.7705 156.121 15.7705L155.918 16.1895V19.541C155.918 19.7441 155.706 19.9557 155.283 20.1758C154.725 19.9473 154.445 19.4564 154.445 18.7031V15.9736C151.999 16.2529 149.621 16.6042 147.311 17.0273L146.892 16.3926C146.892 15.4531 151.157 14.7549 159.688 14.2979C159.688 14.154 160.04 14.082 160.742 14.082ZM151.297 18.2842H152.351C152.351 18.5635 152.418 18.7031 152.554 18.7031L152.351 19.7568C152.486 20.9756 152.554 21.6738 152.554 21.8516C153.578 21.8516 156.096 21.4326 160.107 20.5947C160.666 20.7301 160.945 21.0094 160.945 21.4326C160.945 21.915 160.315 22.262 159.054 22.4736L158.635 22.2705L151.716 23.5273C151.301 22.8587 151.094 21.8092 151.094 20.3789V19.3379L151.297 18.2842Z" fill="#222222"/>
</svg>
