<svg width="153" height="23" viewBox="0 0 153 23" fill="none" xmlns="http://www.w3.org/2000/svg">
<path d="M7.27441 1.54199L8.31543 2.16406C10.7529 1.88477 12.2256 1.74512 12.7334 1.74512L13.1523 2.37988C13.0085 3.81022 12.9365 4.92741 12.9365 5.73145C12.9365 6.15462 13.0085 6.36621 13.1523 6.36621L12.9365 7.41992V9.93359C12.9365 10.069 12.6572 10.3483 12.0986 10.7715L11.2607 10.3525L11.4639 8.87988V3.63672C11.4639 3.35742 11.3242 3.21777 11.0449 3.21777C8.94596 3.21777 7.89648 3.77637 7.89648 4.89355L7.69336 5.94727C7.82878 6.86979 7.89648 7.77962 7.89648 8.67676V9.51465C7.89648 10.2679 7.61719 10.7588 7.05859 10.9873C6.85547 10.9873 6.64388 10.7757 6.42383 10.3525V3.4209H6.2207C5.03581 3.4209 3.35579 3.63249 1.18066 4.05566L0.761719 3.4209V3.21777C0.761719 2.61686 2.86068 2.12598 7.05859 1.74512C7.05859 1.6097 7.13053 1.54199 7.27441 1.54199ZM14.6123 11.8252C15.1709 11.9606 15.4502 12.2399 15.4502 12.6631L14.8281 13.7168L13.7744 13.501H11.2607C11.1169 14.4997 11.0449 15.0583 11.0449 15.1768L11.4639 15.3926H13.5713C13.8506 15.4349 13.9902 15.5745 13.9902 15.8115V16.6494L13.7744 17.9062L13.9902 18.3252C13.9902 19.6286 12.2383 20.3988 8.73438 20.6357V21.0547H10.207C10.3509 21.0547 10.4229 21.1266 10.4229 21.2705L14.6123 20.6357C14.8831 20.7796 15.0947 20.8516 15.2471 20.8516V21.0547C15.2471 21.901 14.7562 22.3242 13.7744 22.3242C12.0986 22.4258 11.2607 22.5654 11.2607 22.7432C11.1169 22.7432 11.0449 22.6712 11.0449 22.5273L8.53125 22.7432H8.1123C7.58757 22.7432 7.16862 21.973 6.85547 20.4326C6.85547 19.6032 8.32389 19.1123 11.2607 18.96C11.9548 18.6045 12.3018 18.3252 12.3018 18.1221V17.2842L12.0986 16.8652L7.05859 17.7031L6.85547 17.2842V16.4463C8.81055 16.0231 9.78809 15.6719 9.78809 15.3926V13.7168C9.22949 13.7168 8.9502 13.6449 8.9502 13.501C5.33626 14.0596 3.30501 14.3389 2.85645 14.3389C2.57715 14.3389 2.4375 14.1992 2.4375 13.9199V13.7168C2.4375 12.7604 6.49577 12.1299 14.6123 11.8252ZM31.5508 1.55469L31.7666 1.97363C31.7666 2.69303 31.555 3.11198 31.1318 3.23047C23.0238 3.23047 18.9697 3.57747 18.9697 4.27148C18.8258 4.54232 18.7539 4.75391 18.7539 4.90625C18.8978 5.64258 18.9697 6.34082 18.9697 7.00098C22.2959 6.58626 25.512 6.30697 28.6182 6.16309C28.7536 6.43392 28.8213 6.64551 28.8213 6.79785C28.6182 7.35645 28.4108 7.63574 28.1992 7.63574H27.7803C23.9209 7.63574 21.0518 7.98275 19.1729 8.67676L19.8076 11.2031C20.5778 11.2031 23.5824 10.8519 28.8213 10.1494H29.875C30.0781 10.1494 30.2897 10.361 30.5098 10.7842C30.2389 11.4189 29.9596 11.766 29.6719 11.8252H27.3613C22.0462 12.2061 19.3887 12.625 19.3887 13.082C18.6439 13.082 18.0133 10.7757 17.4971 6.16309V4.90625C16.6592 4.36458 16.2402 4.01335 16.2402 3.85254C16.2402 2.70996 20.9248 2.01172 30.2939 1.75781C30.2939 1.6224 30.7129 1.55469 31.5508 1.55469ZM30.5098 13.082L30.7129 13.501C30.7129 14.2035 30.5732 14.5547 30.2939 14.5547C27.8395 14.6986 26.3711 14.7705 25.8887 14.7705L25.6855 15.1895V18.541C25.6855 18.7441 25.474 18.9557 25.0508 19.1758C24.4922 18.9473 24.2129 18.4564 24.2129 17.7031V14.9736C21.7669 15.2529 19.3887 15.6042 17.0781 16.0273L16.6592 15.3926C16.6592 14.4531 20.9248 13.7549 29.4561 13.2979C29.4561 13.154 29.8073 13.082 30.5098 13.082ZM21.0645 17.2842H22.1182C22.1182 17.5635 22.1859 17.7031 22.3213 17.7031L22.1182 18.7568C22.2536 19.9756 22.3213 20.6738 22.3213 20.8516C23.3454 20.8516 25.8633 20.4326 29.875 19.5947C30.4336 19.7301 30.7129 20.0094 30.7129 20.4326C30.7129 20.915 30.0824 21.262 28.8213 21.4736L28.4023 21.2705L21.4834 22.5273C21.0687 21.8587 20.8613 20.8092 20.8613 19.3789V18.3379L21.0645 17.2842ZM43.4521 0.729492C46.8037 1.2627 48.4795 2.72689 48.4795 5.12207V5.54102C48.0986 9.59505 46.7699 11.6221 44.4932 11.6221C44.0277 11.6221 43.6807 11.694 43.4521 11.8379C41.5902 11.8379 40.1937 10.7207 39.2627 8.48633C39.1188 7.52995 39.0469 6.75977 39.0469 6.17578C39.6901 2.54492 41.1585 0.729492 43.4521 0.729492ZM50.9932 1.56738H51.4121C51.6152 1.56738 51.8268 1.77474 52.0469 2.18945C51.8014 2.18945 51.5898 4.28841 51.4121 8.48633C51.556 9.44271 51.6279 10.2087 51.6279 10.7842C51.4502 11.4867 51.2386 11.8379 50.9932 11.8379H50.3711L49.9521 10.3652V8.68945C49.9521 7.57227 50.0199 6.10384 50.1553 4.28418C50.0199 4.01335 49.9521 3.80599 49.9521 3.66211C50.3669 2.26562 50.7139 1.56738 50.9932 1.56738ZM40.5195 6.79785C40.875 9.04069 41.8525 10.1621 43.4521 10.1621C45.8219 10.1621 47.0068 8.76139 47.0068 5.95996C47.0068 4.07259 45.9616 2.81576 43.8711 2.18945C41.6367 2.63802 40.5195 4.17415 40.5195 6.79785ZM47.0068 12.041H47.2227L47.8574 12.46L47.6416 14.5547V16.2432H49.9521C50.113 16.2432 50.8789 16.1035 52.25 15.8242C52.5293 16.1628 52.6689 16.4421 52.6689 16.6621C52.3981 17.2969 52.1188 17.6439 51.8311 17.7031H51.209C50.0833 17.7031 48.7546 17.7751 47.2227 17.9189C46.5202 17.7243 46.1689 17.2334 46.1689 16.4463V13.5137C46.1689 12.7604 46.4482 12.2695 47.0068 12.041ZM65.6211 1.56738H66.04C66.3193 1.6097 66.459 1.74935 66.459 1.98633C66.0443 3.75521 65.8369 6.12923 65.8369 9.1084V10.3652L66.04 11.6221C66.04 11.7575 65.7607 12.1807 65.2021 12.8916C64.6436 12.68 64.3643 12.4684 64.3643 12.2568C64.3643 5.13053 64.7832 1.56738 65.6211 1.56738ZM62.0537 3.02734H62.8916L63.3105 3.24316C63.3105 3.55632 62.8916 5.37174 62.0537 8.68945C61.7744 11.347 61.4274 12.6758 61.0127 12.6758H60.7969C60.5938 12.6758 60.3864 12.4684 60.1748 12.0537C60.3102 10.1833 60.7969 7.73307 61.6348 4.70312L61.2158 4.5C58.4482 4.63542 56.0023 4.84277 53.8779 5.12207L53.459 4.5V4.28418C53.7467 3.72559 54.098 3.44629 54.5127 3.44629C58.4652 3.16699 60.9788 3.02734 62.0537 3.02734ZM75.4023 2.6084H78.5508C78.6862 2.6084 78.7539 2.68034 78.7539 2.82422L79.1729 2.6084H85.6729C87.4925 2.6084 88.4023 2.8877 88.4023 3.44629C88.3939 3.64941 88.1146 4.00065 87.5645 4.5L84.416 4.08105C83.8743 4.21647 83.3158 4.28418 82.7402 4.28418H82.3213V11.6221C82.3213 12.2061 82.3932 12.9762 82.5371 13.9326L82.3213 14.3516C82.6006 15.2148 82.7402 15.7734 82.7402 16.0273C82.4102 16.8652 82.1309 17.2842 81.9023 17.2842H81.2676L80.8486 16.0273C80.8486 15.748 80.9206 15.6084 81.0645 15.6084L80.8486 13.5137V4.28418C80.7301 4.28418 80.1715 4.21647 79.1729 4.08105C79.0713 4.08105 78.6523 4.14876 77.916 4.28418L77.4971 4.08105L74.1455 4.5C73.8662 4.16146 73.7266 3.88216 73.7266 3.66211C73.9889 2.95964 74.5475 2.6084 75.4023 2.6084ZM95.4639 1.14844C96.0817 1.14844 96.7122 1.28809 97.3555 1.56738C97.6009 1.4235 97.8802 1.35156 98.1934 1.35156C101.266 2.37565 102.802 3.77214 102.802 5.54102C102.802 6.57357 102.874 7.34375 103.018 7.85156C101.968 11.9056 100.711 13.9326 99.2471 13.9326C99.2471 14.542 98.1257 14.889 95.8828 14.9736H95.4639C92.6624 14.9736 90.7074 13.5771 89.5986 10.7842C89.3193 10.3271 89.1797 9.9082 89.1797 9.52734V8.48633C89.1797 4.61003 91.0671 2.16406 94.8418 1.14844H95.4639ZM90.6523 7.85156C90.7878 8.09701 90.8555 8.3763 90.8555 8.68945L90.6523 9.1084C91.5918 12.0452 93.4072 13.5137 96.0986 13.5137C98.46 13.5137 100.208 11.9775 101.342 8.90527V6.17578C101.342 4.70312 100.225 3.65365 97.9902 3.02734L97.5713 3.24316L96.3018 2.6084H95.8828C93.5384 2.6084 91.8626 4.00488 90.8555 6.79785C90.8555 7.27181 90.7878 7.62305 90.6523 7.85156ZM107.146 0.932617V1.14844L107.565 0.932617C109.842 0.932617 111.869 2.18945 113.646 4.70312V6.17578C113.646 7.52995 112.809 9.06608 111.133 10.7842C110.413 11.3428 108.598 12.041 105.687 12.8789V13.5137C105.687 13.9792 105.754 14.3262 105.89 14.5547C105.754 16.6536 105.475 17.7031 105.052 17.7031H104.633C104.43 17.7031 104.222 17.4958 104.011 17.0811C104.011 16.6579 104.078 16.167 104.214 15.6084C103.935 12.3923 103.795 9.1084 103.795 5.75684V2.82422C103.795 1.56315 104.912 0.932617 107.146 0.932617ZM105.268 4.28418V8.05469C105.268 8.75716 105.335 9.80664 105.471 11.2031H105.89C107.616 11.1016 109.364 10.2637 111.133 8.68945C111.835 7.27604 112.187 6.15885 112.187 5.33789C110.959 3.51823 109.14 2.6084 106.728 2.6084H105.89C105.475 2.69303 105.268 3.25163 105.268 4.28418ZM125.319 0.513672C125.455 0.513672 125.522 0.585612 125.522 0.729492C125.675 0.729492 125.886 0.657552 126.157 0.513672C129.932 1.10612 131.819 2.71419 131.819 5.33789C131.819 7.32682 130.419 9.0026 127.617 10.3652H127.414V10.5811H131.4C131.4 10.7249 131.468 10.9323 131.604 11.2031C131.324 11.7786 131.185 12.1976 131.185 12.46H131.4C131.68 12.46 131.819 12.3203 131.819 12.041V11.4189C132.124 7.9235 132.611 6.17578 133.279 6.17578H133.698C133.978 6.17578 134.117 6.38314 134.117 6.79785C133.702 8.47363 133.355 10.2214 133.076 12.041L133.279 12.46V14.1357C133.279 15.2106 133 15.8411 132.441 16.0273H132.238C132.128 16.0273 131.917 15.8158 131.604 15.3926L131.819 14.9736V14.3516C131.819 14.0723 131.68 13.9326 131.4 13.9326H130.562C128.54 14.2119 127.49 14.3516 127.414 14.3516L127.198 13.9326V13.5137C127.198 12.9551 128.108 12.6038 129.928 12.46V12.2568L128.874 12.041C127.342 12.041 126.576 12.2526 126.576 12.6758V15.6084C126.576 15.9215 126.644 16.2008 126.779 16.4463C126.644 17.0049 126.297 17.2842 125.738 17.2842L125.104 16.4463V12.8789L124.9 12.46C124.553 12.46 123.576 12.5996 121.968 12.8789C121.409 12.6758 121.13 12.4684 121.13 12.2568V11.8379C121.13 11.3809 122.945 11.0296 126.576 10.7842V10.5811C122.801 10.0563 120.914 8.30859 120.914 5.33789C121.193 3.94141 122.103 2.47298 123.644 0.932617C124.761 0.839518 125.319 0.69987 125.319 0.513672ZM122.59 5.33789V5.95996C122.59 7.46647 123.779 8.44824 126.157 8.90527H126.779C127.964 8.90527 129.086 7.9235 130.144 5.95996V5.75684C130.144 3.37858 129.094 2.18945 126.995 2.18945H124.9C123.36 3.14583 122.59 4.19531 122.59 5.33789ZM135.171 5.75684C135.729 5.89225 136.009 6.3112 136.009 7.01367V7.43262L134.752 14.9736C135.031 15.5492 135.171 15.9723 135.171 16.2432C135.171 19.5947 134.752 21.2705 133.914 21.2705C133.085 21.2705 131.756 21.4102 129.928 21.6895C129.369 21.1309 129.09 20.0137 129.09 18.3379C129.09 16.7975 129.581 16.0273 130.562 16.0273L130.981 16.6621L130.766 17.9189C132.585 17.8174 133.495 17.6058 133.495 17.2842V16.6621C133.952 9.39193 134.511 5.75684 135.171 5.75684ZM130.766 19.7979C130.91 19.7979 130.981 19.8698 130.981 20.0137C132.513 19.8698 133.279 19.6582 133.279 19.3789V18.96H133.076C131.536 19.1715 130.766 19.4508 130.766 19.7979ZM152.109 1.55469L152.325 1.97363C152.325 2.69303 152.114 3.11198 151.69 3.23047C143.582 3.23047 139.528 3.57747 139.528 4.27148C139.384 4.54232 139.312 4.75391 139.312 4.90625C139.456 5.64258 139.528 6.34082 139.528 7.00098C142.854 6.58626 146.071 6.30697 149.177 6.16309C149.312 6.43392 149.38 6.64551 149.38 6.79785C149.177 7.35645 148.969 7.63574 148.758 7.63574H148.339C144.479 7.63574 141.61 7.98275 139.731 8.67676L140.366 11.2031C141.136 11.2031 144.141 10.8519 149.38 10.1494H150.434C150.637 10.1494 150.848 10.361 151.068 10.7842C150.798 11.4189 150.518 11.766 150.23 11.8252H147.92C142.605 12.2061 139.947 12.625 139.947 13.082C139.202 13.082 138.572 10.7757 138.056 6.16309V4.90625C137.218 4.36458 136.799 4.01335 136.799 3.85254C136.799 2.70996 141.483 2.01172 150.853 1.75781C150.853 1.6224 151.271 1.55469 152.109 1.55469ZM151.068 13.082L151.271 13.501C151.271 14.2035 151.132 14.5547 150.853 14.5547C148.398 14.6986 146.93 14.7705 146.447 14.7705L146.244 15.1895V18.541C146.244 18.7441 146.033 18.9557 145.609 19.1758C145.051 18.9473 144.771 18.4564 144.771 17.7031V14.9736C142.326 15.2529 139.947 15.6042 137.637 16.0273L137.218 15.3926C137.218 14.4531 141.483 13.7549 150.015 13.2979C150.015 13.154 150.366 13.082 151.068 13.082ZM141.623 17.2842H142.677C142.677 17.5635 142.744 17.7031 142.88 17.7031L142.677 18.7568C142.812 19.9756 142.88 20.6738 142.88 20.8516C143.904 20.8516 146.422 20.4326 150.434 19.5947C150.992 19.7301 151.271 20.0094 151.271 20.4326C151.271 20.915 150.641 21.262 149.38 21.4736L148.961 21.2705L142.042 22.5273C141.627 21.8587 141.42 20.8092 141.42 19.3789V18.3379L141.623 17.2842Z" fill="#222222"/>
</svg>
