<svg width="153" height="26" viewBox="0 0 153 26" fill="none" xmlns="http://www.w3.org/2000/svg">
<path d="M6.58496 1.36035C7.27962 1.56087 8.27148 1.66113 9.56055 1.66113L10.1514 1.36035C11.9346 1.36035 12.8262 2.25195 12.8262 4.03516C13.0267 4.82292 13.127 5.51758 13.127 6.11914L12.8262 9.08398H11.6445C11.2435 9.08398 11.043 8.88704 11.043 8.49316V6.11914L10.7529 3.14355H7.18652C7.37988 5.47103 7.47656 7.15397 7.47656 8.19238L6.58496 8.79395C5.59668 8.79395 5.10254 6.91048 5.10254 3.14355H4.80176C4.09277 3.14355 3.20117 3.24382 2.12695 3.44434C1.13867 3.18652 0.644531 2.88932 0.644531 2.55273V1.95117L6.58496 1.36035ZM1.83691 10.8672C4.30762 11.2682 6.38802 11.4688 8.07812 11.4688H9.86133C10.3053 11.4688 10.6992 11.3685 11.043 11.168C12.8262 11.4043 13.7178 11.7015 13.7178 12.0596V12.3604C13.7178 12.7542 13.5208 12.9512 13.127 12.9512H10.7529L10.4521 14.4336V15.0352C10.5166 15.429 10.7135 15.626 11.043 15.626H12.8262C13.2272 17.3232 13.4277 18.8092 13.4277 20.084C12.6973 20.6784 12.0026 20.9756 11.3438 20.9756H10.7529C9.70736 20.9756 8.02083 20.8753 5.69336 20.6748L6.29492 23.3496H7.77734C7.97786 23.3496 8.07812 23.4499 8.07812 23.6504L8.66895 23.3496H12.2354V24.832L10.1514 25.1328H8.07812C5.5 25.1328 4.21094 24.4382 4.21094 23.0488C4.01042 22.3327 3.91016 21.2441 3.91016 19.7832L4.51172 19.4824C5.89388 19.4824 8.07096 19.5827 11.043 19.7832L11.3438 19.1924V17.4092H10.7529C6.25553 17.4092 3.87793 16.915 3.62012 15.9268V15.626L5.69336 15.3252L8.66895 15.626V12.9512C8.22493 12.9512 7.82747 13.0514 7.47656 13.252C3.31576 13.0085 1.23535 12.5107 1.23535 11.7588V11.4688C1.2998 11.0677 1.50033 10.8672 1.83691 10.8672ZM20.1729 1.36035C20.8675 1.56087 21.8594 1.66113 23.1484 1.66113L23.7393 1.36035C25.5225 1.36035 26.4141 2.25195 26.4141 4.03516C26.6146 4.82292 26.7148 5.51758 26.7148 6.11914L26.4141 9.08398H25.2324C24.8314 9.08398 24.6309 8.88704 24.6309 8.49316V6.11914L24.3408 3.14355H20.7744C20.9678 5.47103 21.0645 7.15397 21.0645 8.19238L20.1729 8.79395C19.1846 8.79395 18.6904 6.91048 18.6904 3.14355H18.3896C17.6807 3.14355 16.7891 3.24382 15.7148 3.44434C14.7266 3.18652 14.2324 2.88932 14.2324 2.55273V1.95117L20.1729 1.36035ZM15.4248 10.8672C17.8955 11.2682 19.9759 11.4688 21.666 11.4688H23.4492C23.8932 11.4688 24.2871 11.3685 24.6309 11.168C26.4141 11.4043 27.3057 11.7015 27.3057 12.0596V12.3604C27.3057 12.7542 27.1087 12.9512 26.7148 12.9512H24.3408L24.04 14.4336V15.0352C24.1045 15.429 24.3014 15.626 24.6309 15.626H26.4141C26.8151 17.3232 27.0156 18.8092 27.0156 20.084C26.2852 20.6784 25.5905 20.9756 24.9316 20.9756H24.3408C23.2952 20.9756 21.6087 20.8753 19.2812 20.6748L19.8828 23.3496H21.3652C21.5658 23.3496 21.666 23.4499 21.666 23.6504L22.2568 23.3496H25.8232V24.832L23.7393 25.1328H21.666C19.0879 25.1328 17.7988 24.4382 17.7988 23.0488C17.5983 22.3327 17.498 21.2441 17.498 19.7832L18.0996 19.4824C19.4818 19.4824 21.6589 19.5827 24.6309 19.7832L24.9316 19.1924V17.4092H24.3408C19.8434 17.4092 17.4658 16.915 17.208 15.9268V15.626L19.2812 15.3252L22.2568 15.626V12.9512C21.8128 12.9512 21.4154 13.0514 21.0645 13.252C16.9036 13.0085 14.8232 12.5107 14.8232 11.7588V11.4688C14.8877 11.0677 15.0882 10.8672 15.4248 10.8672ZM41.7305 5.07715L42.3105 5.95801V6.24805C42.3105 6.64193 42.1172 6.83887 41.7305 6.83887H41.1396C40.1585 6.83887 38.6904 6.93555 36.7354 7.12891L37.3262 12.124H37.6162C38.0531 12.124 38.4434 12.0273 38.7871 11.834L39.3779 12.124C39.7575 11.9307 40.0511 11.834 40.2588 11.834C41.4333 12.0273 42.0205 12.321 42.0205 12.7148V13.0049C42.0205 13.3988 41.8236 13.5957 41.4297 13.5957H39.9688L39.3779 13.3057C39.5212 13.7425 39.7181 15.0137 39.9688 17.1191H40.8496C41.2865 17.1191 41.6768 17.0225 42.0205 16.8291C42.3643 17.0225 42.7581 17.1191 43.2021 17.1191V18.3008L41.7305 18.5908C37.1901 18.7842 34.8376 18.8809 34.6729 18.8809L34.3828 18.3008V18C34.3828 17.6133 35.6576 17.223 38.207 16.8291V15.9482C38.207 14.5016 37.9134 13.7174 37.3262 13.5957H35.8545C35.4606 12.0417 35.2637 10.083 35.2637 7.71973C35.3281 6.15137 35.5251 5.36719 35.8545 5.36719C39.2275 5.17383 41.1862 5.07715 41.7305 5.07715ZM48.7773 5.95801C49.8802 5.95801 50.5677 8.99447 50.8398 15.0674H50.5391L50.8398 15.6475V18C50.8398 18.3939 50.6429 18.5908 50.249 18.5908H49.0781C48.9492 14.6735 48.7523 12.7148 48.4873 12.7148C48.1436 12.5215 47.7497 12.4248 47.3057 12.4248C46.9261 12.6182 46.6325 12.7148 46.4248 12.7148C46.4248 12.5215 46.3281 12.4248 46.1348 12.4248V17.1191H44.6631L44.373 15.6475V11.2432C44.373 10.2549 44.1761 9.0804 43.7822 7.71973L44.373 7.42969H44.9639C45.501 7.42969 45.8913 8.40723 46.1348 10.3623V10.9531H48.4873V10.6523C48.4873 8.9694 48.2904 7.60156 47.8965 6.54883L48.7773 5.95801ZM63.9336 5.10938C64.3203 5.10938 64.6139 8.33203 64.8145 14.7773H64.5137L64.8145 15.3574V17.4092C64.8145 17.8031 64.6175 18 64.2236 18H63.9336C63.3464 17.8783 63.0527 17.1943 63.0527 15.9482C63.0527 14.3584 62.9561 10.8457 62.7627 5.41016C62.863 5.41016 63.2533 5.3099 63.9336 5.10938ZM58.6592 5.99023H58.96V6.28027C58.96 7.3903 58.5697 8.66146 57.7891 10.0938C59.5436 12.3997 60.4209 13.9609 60.4209 14.7773L59.8301 15.0674H59.54L56.9082 12.1348C56.1204 12.8581 55.4365 14.1292 54.8564 15.9482H54.5664C54.2871 15.9482 53.9935 15.6546 53.6855 15.0674V14.7773C53.6855 14.3763 54.6631 12.4248 56.6182 8.92285L56.9082 7.75195H56.6182C53.5889 8.13867 52.0277 8.33203 51.9346 8.33203L51.3438 7.45117C51.3438 6.92122 53.7822 6.43424 58.6592 5.99023ZM66.1992 0.382812C66.6432 0.382812 67.0335 1.55729 67.3701 3.90625H67.0801C67.474 4.85156 67.7676 7.20052 67.9609 10.9531L67.3701 11.2432H67.0801C66.099 10.8564 65.6084 7.72689 65.6084 1.85449C65.415 1.85449 65.3184 1.56087 65.3184 0.973633L66.1992 0.382812ZM67.9609 15.0566C68.7702 15.3288 69.3574 15.8193 69.7227 16.5283C69.7227 17.7028 69.1354 18.5837 67.9609 19.1709H67.6709C66.568 19.1709 65.8805 18.6803 65.6084 17.6992C65.8949 15.9375 66.679 15.0566 67.9609 15.0566ZM82.7295 1.36035C83.4242 1.56087 84.416 1.66113 85.7051 1.66113L86.2959 1.36035C88.0791 1.36035 88.9707 2.25195 88.9707 4.03516C89.1712 4.82292 89.2715 5.51758 89.2715 6.11914L88.9707 9.08398H87.7891C87.388 9.08398 87.1875 8.88704 87.1875 8.49316V6.11914L86.8975 3.14355H83.3311C83.5244 5.47103 83.6211 7.15397 83.6211 8.19238L82.7295 8.79395C81.7412 8.79395 81.2471 6.91048 81.2471 3.14355H80.9463C80.2373 3.14355 79.3457 3.24382 78.2715 3.44434C77.2832 3.18652 76.7891 2.88932 76.7891 2.55273V1.95117L82.7295 1.36035ZM77.9814 10.8672C80.4521 11.2682 82.5326 11.4688 84.2227 11.4688H86.0059C86.4499 11.4688 86.8438 11.3685 87.1875 11.168C88.9707 11.4043 89.8623 11.7015 89.8623 12.0596V12.3604C89.8623 12.7542 89.6654 12.9512 89.2715 12.9512H86.8975L86.5967 14.4336V15.0352C86.6611 15.429 86.8581 15.626 87.1875 15.626H88.9707C89.3717 17.3232 89.5723 18.8092 89.5723 20.084C88.8418 20.6784 88.1471 20.9756 87.4883 20.9756H86.8975C85.8519 20.9756 84.1654 20.8753 81.8379 20.6748L82.4395 23.3496H83.9219C84.1224 23.3496 84.2227 23.4499 84.2227 23.6504L84.8135 23.3496H88.3799V24.832L86.2959 25.1328H84.2227C81.6445 25.1328 80.3555 24.4382 80.3555 23.0488C80.1549 22.3327 80.0547 21.2441 80.0547 19.7832L80.6562 19.4824C82.0384 19.4824 84.2155 19.5827 87.1875 19.7832L87.4883 19.1924V17.4092H86.8975C82.4001 17.4092 80.0225 16.915 79.7646 15.9268V15.626L81.8379 15.3252L84.8135 15.626V12.9512C84.3695 12.9512 83.972 13.0514 83.6211 13.252C79.4603 13.0085 77.3799 12.5107 77.3799 11.7588V11.4688C77.4443 11.0677 77.6449 10.8672 77.9814 10.8672ZM92.7188 2.48828H93.0088C93.2093 2.48828 93.3096 2.58496 93.3096 2.77832C93.5029 2.77832 93.5996 2.68164 93.5996 2.48828C93.8073 2.48828 94.1009 2.58496 94.4805 2.77832C95.5332 2.58496 96.4105 2.48828 97.1123 2.48828V2.77832C97.4919 2.58496 97.7855 2.48828 97.9932 2.48828C98.3727 2.68164 98.6628 2.77832 98.8633 2.77832V3.06836C98.8633 3.34766 98.5732 3.64128 97.9932 3.94922H93.5996C92.5827 3.94922 91.9954 3.6556 91.8379 3.06836L92.7188 2.48828ZM100.034 5.41016L100.335 6.00098C100.335 6.78158 97.9932 7.17188 93.3096 7.17188V9.22363C93.3096 9.51725 93.6999 9.80729 94.4805 10.0938C97.5599 9.70703 99.3145 9.51367 99.7441 9.51367L100.034 10.0938C100.034 10.8743 97.986 11.2646 93.8896 11.2646C93.109 11.2646 92.4251 10.7777 91.8379 9.80371V9.51367C91.8379 9.32031 91.9382 9.22363 92.1387 9.22363L91.8379 8.63281V8.34277L92.1387 6.88184C91.3581 6.88184 90.9678 6.6849 90.9678 6.29102C90.9678 5.9043 91.2578 5.71094 91.8379 5.71094C93.3633 5.71094 96.0954 5.61068 100.034 5.41016ZM102.677 12.4463V13.0264C102.677 13.6136 101.603 13.9072 99.4541 13.9072H98.8633C98.6699 16.0557 98.3799 17.1299 97.9932 17.1299C97.7139 17.1299 97.4202 16.8363 97.1123 16.249V15.959C97.1123 15.7585 97.209 15.6582 97.4023 15.6582C97.209 15.3359 97.1123 14.849 97.1123 14.1973H96.8223C94.1725 14.1973 92.0241 14.0039 90.377 13.6172V13.3164C90.377 12.9297 90.6706 12.7363 91.2578 12.7363C97.8392 12.543 101.646 12.4463 102.677 12.4463ZM93.8896 16.249C94.2692 16.4424 94.5628 16.5391 94.7705 16.5391V19.1709C94.7705 19.4574 95.0641 19.751 95.6514 20.0518H97.4023C98.3835 20.0518 99.848 19.9551 101.796 19.7617V20.3418C101.796 20.929 100.138 21.4196 96.8223 21.8135C95.0605 21.8135 93.8896 21.1296 93.3096 19.7617V16.8291C93.3669 16.4424 93.5602 16.249 93.8896 16.249ZM108.756 1.9082C110.897 2.22331 111.968 3.29395 111.968 5.12012C111.502 7.65527 110.432 8.92285 108.756 8.92285C106.908 8.92285 105.54 7.85221 104.652 5.71094C104.652 3.17578 105.823 1.9082 108.165 1.9082H108.756ZM106.113 5.71094C106.751 7.07878 107.435 7.7627 108.165 7.7627C109.726 7.39746 110.507 6.5166 110.507 5.12012C110.507 4.14616 109.823 3.36556 108.455 2.77832C106.894 2.77832 106.113 3.75586 106.113 5.71094ZM114.6 10.3945V11.2646C114.6 11.8519 112.358 12.5358 107.875 13.3164V13.0264L107.284 13.3164H106.414C104.266 13.3164 103.191 13.0228 103.191 12.4355V11.8555H105.533C106.901 11.8555 109.923 11.3685 114.6 10.3945ZM106.113 14.7773H106.704C107.148 14.7773 107.635 16.4352 108.165 19.751L113.139 18.8809L113.429 19.4609V19.751C113.429 20.2666 111.771 20.7572 108.455 21.2227C107.094 21.2227 106.414 20.6354 106.414 19.4609C106.414 18.0501 106.217 16.7826 105.823 15.6582C106.017 15.2786 106.113 14.985 106.113 14.7773ZM127.811 1.31738C129.372 1.88314 130.152 2.86068 130.152 4.25V4.54004C130.152 6.10124 129.078 7.07878 126.93 7.47266H125.179C124.914 7.47266 124.427 6.9821 123.718 6.00098V5.4209C124.019 2.68522 125.383 1.31738 127.811 1.31738ZM126.35 3.65918H126.06L125.469 3.36914L124.889 4.83008C125.197 5.8112 125.877 6.30176 126.93 6.30176C127.961 6.30176 128.548 5.32422 128.691 3.36914C128.298 3.36914 128.101 3.07552 128.101 2.48828C126.933 2.48828 126.35 2.87858 126.35 3.65918ZM138.639 3.36914H138.929C139.323 3.43359 139.52 3.63053 139.52 3.95996V4.83008C139.52 5.0306 139.419 5.13086 139.219 5.13086L139.52 5.71094V6.30176C139.52 6.49512 139.419 6.5918 139.219 6.5918L139.52 7.17188V8.34277C139.52 8.53613 139.419 8.63281 139.219 8.63281C139.219 8.83333 139.319 8.93359 139.52 8.93359L139.219 10.1045C139.419 11.8089 139.52 12.7829 139.52 13.0264L139.219 13.6172C139.419 13.9538 139.52 14.3441 139.52 14.7881L138.929 15.0781H138.639C138.359 15.0781 138.066 14.7845 137.758 14.1973V10.9746C137.758 10.5378 137.661 10.1475 137.468 9.80371C137.661 8.24967 137.854 7.47266 138.048 7.47266L137.758 6.88184C137.951 6.50228 138.048 6.20866 138.048 6.00098L137.758 5.4209C138.023 4.05306 138.316 3.36914 138.639 3.36914ZM134.546 4.83008H134.836C135.566 4.83008 136.053 7.36882 136.297 12.4463C136.104 12.7686 136.007 13.2555 136.007 13.9072V14.7881H135.416C135.122 14.7881 134.832 14.3978 134.546 13.6172L131.033 13.9072H129.862C129.862 13.6995 129.762 13.4059 129.562 13.0264C130.206 12.6396 130.793 12.4463 131.323 12.4463C131.517 12.4463 131.613 12.543 131.613 12.7363C132.086 12.543 133.063 12.346 134.546 12.1455V9.80371C134.152 10.1976 132.297 10.5879 128.981 10.9746V11.2754C129.175 13.7103 129.271 15.0745 129.271 15.3682H128.101C127.714 14.1006 127.521 13.2233 127.521 12.7363V11.2754H126.06C123.388 11.2754 121.924 10.7848 121.666 9.80371C122.253 9.61035 122.547 9.41699 122.547 9.22363C124.108 9.61035 125.766 9.80371 127.521 9.80371C131.108 9.49577 133.06 9.10547 133.375 8.63281H133.955V9.22363H134.245V7.17188L133.955 5.13086L134.546 4.83008ZM130.152 15.6582C130.847 15.6582 131.334 16.8291 131.613 19.1709L132.784 18.8809L135.416 19.1709C135.416 18.9775 135.516 18.8809 135.717 18.8809L135.416 17.4199V15.959H136.587C137.174 17.5345 137.468 18.9954 137.468 20.3418V20.6318C137.468 22.3936 136.59 23.2744 134.836 23.2744C134.127 23.4678 133.053 23.5645 131.613 23.5645H131.033C130.446 23.5645 129.955 21.126 129.562 16.249C129.955 16.249 130.152 16.0521 130.152 15.6582ZM131.903 20.0518V22.3936C134.446 22.3936 135.717 21.9066 135.717 20.9326C135.91 20.5531 136.007 20.2594 136.007 20.0518L134.546 20.3418H132.494L131.903 20.0518ZM142.365 2.48828H142.655C142.856 2.48828 142.956 2.58496 142.956 2.77832C143.149 2.77832 143.246 2.68164 143.246 2.48828C143.454 2.48828 143.747 2.58496 144.127 2.77832C145.18 2.58496 146.057 2.48828 146.759 2.48828V2.77832C147.138 2.58496 147.432 2.48828 147.64 2.48828C148.019 2.68164 148.309 2.77832 148.51 2.77832V3.06836C148.51 3.34766 148.22 3.64128 147.64 3.94922H143.246C142.229 3.94922 141.642 3.6556 141.484 3.06836L142.365 2.48828ZM149.681 5.41016L149.981 6.00098C149.981 6.78158 147.64 7.17188 142.956 7.17188V9.22363C142.956 9.51725 143.346 9.80729 144.127 10.0938C147.206 9.70703 148.961 9.51367 149.391 9.51367L149.681 10.0938C149.681 10.8743 147.632 11.2646 143.536 11.2646C142.756 11.2646 142.072 10.7777 141.484 9.80371V9.51367C141.484 9.32031 141.585 9.22363 141.785 9.22363L141.484 8.63281V8.34277L141.785 6.88184C141.005 6.88184 140.614 6.6849 140.614 6.29102C140.614 5.9043 140.904 5.71094 141.484 5.71094C143.01 5.71094 145.742 5.61068 149.681 5.41016ZM152.323 12.4463V13.0264C152.323 13.6136 151.249 13.9072 149.101 13.9072H148.51C148.316 16.0557 148.026 17.1299 147.64 17.1299C147.36 17.1299 147.067 16.8363 146.759 16.249V15.959C146.759 15.7585 146.855 15.6582 147.049 15.6582C146.855 15.3359 146.759 14.849 146.759 14.1973H146.469C143.819 14.1973 141.671 14.0039 140.023 13.6172V13.3164C140.023 12.9297 140.317 12.7363 140.904 12.7363C147.486 12.543 151.292 12.4463 152.323 12.4463ZM143.536 16.249C143.916 16.4424 144.209 16.5391 144.417 16.5391V19.1709C144.417 19.4574 144.711 19.751 145.298 20.0518H147.049C148.03 20.0518 149.494 19.9551 151.442 19.7617V20.3418C151.442 20.929 149.785 21.4196 146.469 21.8135C144.707 21.8135 143.536 21.1296 142.956 19.7617V16.8291C143.013 16.4424 143.207 16.249 143.536 16.249Z" fill="#222222"/>
</svg>
