<svg width="151" height="27" viewBox="0 0 151 27" fill="none" xmlns="http://www.w3.org/2000/svg">
<path d="M3.89355 3.10254H4.13086C5.25 3.10254 5.80957 4.22461 5.80957 6.46875C5.97363 6.46875 6.05566 6.94922 6.05566 7.91016H7.97168C9.4834 7.91016 10.6055 8.22949 11.3379 8.86816C11.3379 9.9873 10.8574 10.5469 9.89648 10.5469H8.45508C8.8125 11.0566 9.13184 11.8594 9.41309 12.9551C9.2373 15.1992 8.19727 16.3213 6.29297 16.3213H5.80957C4.53223 16.3213 3.41309 15.4395 2.45215 13.6758V11.9971L2.68945 10.793H1.73145L0.527344 10.5469V9.82617C0.527344 8.70703 1.56738 8.14746 3.64746 8.14746C3.33105 6.38965 3.17285 5.18848 3.17285 4.54395C3.33105 3.58301 3.57129 3.10254 3.89355 3.10254ZM14.9414 5.74805H15.6621C16.3008 5.74805 16.7021 7.10742 16.8662 9.82617L19.0283 9.35156C20.1475 9.50977 20.707 9.75 20.707 10.0723V10.793C20.707 11.5371 19.5059 12.0176 17.1035 12.2344C17.2207 12.5215 17.3818 13.6436 17.5869 15.6006C17.2764 16.3271 16.9541 16.7256 16.6201 16.7959H15.4248C14.9443 15.4365 14.7041 14.4756 14.7041 13.9131H14.9414C14.7832 13.3799 14.4639 11.1387 13.9834 7.18945C14.3057 6.22852 14.625 5.74805 14.9414 5.74805ZM4.85156 11.5137C4.69336 11.8242 4.61426 12.0645 4.61426 12.2344C4.93066 13.1016 5.41113 13.6611 6.05566 13.9131C6.53613 13.7549 6.77637 13.5967 6.77637 13.4385C6.65918 12.1553 6.01758 11.5137 4.85156 11.5137ZM10.3799 17.7627H11.1006C11.7979 17.7627 12.1963 19.1221 12.2959 21.8408C12.6943 21.8408 13.8955 21.6826 15.8994 21.3662C16.7021 21.6826 17.1035 21.9229 17.1035 22.0869C17.1035 23.5283 15.4219 24.249 12.0586 24.249H11.5752C10.2979 24.249 9.65918 22.7256 9.65918 19.6787V19.4414C9.76465 18.3223 10.0049 17.7627 10.3799 17.7627ZM41.5586 5.98535H42.7627C43.4248 6.53027 44.0635 10.1338 44.6787 16.7959C44.3975 17.7568 43.8379 18.2373 43 18.2373C42.3613 18.0791 42.042 17.5986 42.042 16.7959V14.8799C42.042 14.5576 41.8809 14.3965 41.5586 14.3965V14.8799C39.4492 14.7158 37.6885 14.4756 36.2764 14.1592V13.6758C36.2764 13.2422 36.4346 12.7617 36.751 12.2344L39.6338 12.4717H41.3213L41.7959 12.7178V12.4717C41.6377 11.376 41.5586 10.4971 41.5586 9.83496H41.0752V10.3096L40.6006 10.0723H37.4717C36.6455 10.0723 36.165 9.83203 36.0303 9.35156C36.2354 8.39062 36.9561 7.91016 38.1924 7.91016H40.6006L41.0752 8.14746V6.46875C41.3975 6.46875 41.5586 6.30762 41.5586 5.98535ZM29.79 6.46875C30.1475 6.46875 30.4668 6.54785 30.748 6.70605C31.0586 6.54785 31.2988 6.46875 31.4688 6.46875C34.0293 7.20703 35.3096 8.64844 35.3096 10.793V11.0303C35.3096 11.1943 35.2305 11.2764 35.0723 11.2764L35.3096 11.751C34.6182 13.6729 33.6572 14.6338 32.4268 14.6338H31.7061C28.665 14.0947 27.1445 12.5742 27.1445 10.0723V8.38477C27.9531 7.10742 28.835 6.46875 29.79 6.46875ZM30.0273 8.14746C30.0273 8.27637 29.7871 8.5166 29.3066 8.86816C29.3066 11.2705 30.4287 12.4717 32.6729 12.4717C32.8311 11.5107 32.9893 11.0303 33.1475 11.0303C33.1475 10.2334 32.1865 9.27246 30.2646 8.14746H30.0273ZM49.7256 0.914062H50.6924C52.9365 0.914062 54.0586 2.2793 54.0586 5.00977C53.5898 6.45117 52.5469 7.17188 50.9297 7.17188V6.93457C50.666 7.09277 50.2646 7.17188 49.7256 7.17188V7.65527C50.0479 7.65527 50.209 7.57324 50.209 7.40918C53.0977 7.40918 54.542 7.89258 54.542 8.85938V9.58008C53.7393 9.94336 53.3379 10.1836 53.3379 10.3008C49.166 10.3008 47.0801 9.73828 47.0801 8.61328L46.8428 7.40918C46.8428 5.4873 48.3662 4.52637 51.4131 4.52637V3.80566C51.4131 3.4834 51.252 3.32227 50.9297 3.32227H50.4463L47.5635 3.56836L47.0801 2.83887V1.64355C47.0801 1.15723 47.9619 0.914062 49.7256 0.914062ZM45.6387 11.2588C46.9219 11.3643 47.5635 11.5254 47.5635 11.7422C47.7217 11.7422 47.8008 11.6631 47.8008 11.5049C48.123 11.5049 48.2842 11.584 48.2842 11.7422L50.6924 11.5049H51.8965C52.0547 11.5049 52.1338 11.584 52.1338 11.7422C52.292 11.7422 52.3711 11.6631 52.3711 11.5049C56.0625 11.751 57.9082 12.2314 57.9082 12.9463V13.1836C57.9082 13.9863 57.5859 14.4668 56.9414 14.625C55.2773 14.3086 51.5889 14.0684 45.876 13.9043C45.2373 13.5879 44.918 13.3477 44.918 13.1836V11.5049C45.0879 11.5049 45.3281 11.4229 45.6387 11.2588ZM49.9717 15.8291H52.6172C55.1836 15.8291 56.4668 16.5527 56.4668 18V18.958C56.4668 19.1162 56.3848 19.1953 56.2207 19.1953L56.4668 19.6787V20.1621C56.4668 20.3203 56.3848 20.3994 56.2207 20.3994L56.4668 20.8828C56.0625 22.166 55.2598 22.8076 54.0586 22.8076C53.1738 22.9658 52.5322 23.0449 52.1338 23.0449V22.8076L51.6504 23.0449C49.4062 22.3477 48.2842 21.7881 48.2842 21.3662C48.126 21.0967 48.0469 20.6953 48.0469 20.1621V16.7959C48.0469 16.374 48.6885 16.0518 49.9717 15.8291ZM50.4463 18.7207V18.958C50.4463 19.9189 50.9297 20.3994 51.8965 20.3994H53.8213V18.2373H50.9297C50.6074 18.2842 50.4463 18.4453 50.4463 18.7207ZM61.2676 3.82324C64.3086 3.82324 65.8291 5.50488 65.8291 8.86816C65.8291 10.4326 64.707 11.4727 62.4629 11.9883C60.2891 11.9883 58.8477 10.4678 58.1387 7.42676C58.1387 5.83301 58.9414 4.71094 60.5469 4.06055C61.0273 4.06055 61.2676 3.98145 61.2676 3.82324ZM60.5469 7.18066C60.8984 8.18262 61.5371 8.98535 62.4629 9.58887C63.1074 9.34863 63.4297 9.1084 63.4297 8.86816V8.38477C63.4297 7.16016 63.1074 6.43945 62.4629 6.22266H61.2676C60.8633 6.22266 60.623 6.54199 60.5469 7.18066ZM71.6035 6.45996H71.8408C72.2861 6.45996 72.6875 7.9834 73.0449 11.0303H72.7988C73.4434 15.2432 73.7656 17.6484 73.7656 18.2461C73.1445 18.7266 72.6641 18.9668 72.3242 18.9668C71.3633 18.9668 70.8828 17.2822 70.8828 13.9131C70.5605 10.6318 70.2383 8.62793 69.916 7.90137C69.916 6.94043 70.4785 6.45996 71.6035 6.45996ZM63.4297 14.6338L63.9043 14.8799L64.8711 14.6338C66.9512 14.7568 67.9912 14.918 67.9912 15.1172L68.2373 16.0752C68.2373 16.7197 67.6748 17.2031 66.5498 17.5254L64.1504 17.2793H62.2256L60.5469 17.5254C60.5469 17.3613 60.4648 17.2793 60.3008 17.2793C60.3008 17.4434 60.2217 17.5254 60.0635 17.5254C60.0635 17.2031 59.583 16.8809 58.6221 16.5586V15.6006C58.6221 15.3662 58.8623 15.126 59.3428 14.8799H61.9883L63.4297 14.6338ZM80.9238 1.88086C84.9316 2.39648 86.9355 2.71582 86.9355 2.83887L87.4189 2.60156H89.3438C91.5879 3.02344 92.71 4.86621 92.71 8.12988C92.3994 8.8623 92.0801 9.26367 91.752 9.33398H91.2686C90.6885 9.33398 90.208 7.89258 89.8271 5.00977C89.5049 5.00977 89.3438 4.92773 89.3438 4.76367L88.8604 5.00977H88.623C88.459 5.00977 88.377 4.92773 88.377 4.76367C87.416 4.97461 86.9355 5.21484 86.9355 5.48438V8.37598C86.9355 9.33691 86.4551 9.81738 85.4941 9.81738C84.8555 9.2373 84.5361 8.5957 84.5361 7.89258V4.76367C81.6475 4.44727 80.2031 4.04883 80.2031 3.56836V2.11816C80.373 2.11816 80.6133 2.03906 80.9238 1.88086ZM82.1279 10.7842C82.9717 10.9424 83.4521 11.0215 83.5693 11.0215C88.4971 10.8633 91.8662 10.7842 93.6768 10.7842L94.3975 11.7422V12.4629C94.3975 12.6914 94.1572 12.9316 93.6768 13.1836H89.1064V13.9043L89.3438 15.5918H90.7852C92.0684 15.5918 92.71 16.3125 92.71 17.7539V19.1953C92.71 21.123 90.627 22.0869 86.4609 22.0869V22.5615C88.2832 22.8838 89.5635 23.0449 90.3018 23.0449H91.752C91.9805 23.0449 92.2207 23.2852 92.4727 23.7656V24.0117C91.9746 24.9727 91.0107 25.4531 89.5811 25.4531C86.7861 25.4531 84.8613 24.249 83.8066 21.8408C84.2109 20.5576 85.0137 19.916 86.2148 19.916C88.8574 19.7578 90.3018 19.2773 90.5479 18.4746V17.7539C86.9209 17.918 84.6738 18 83.8066 18L83.0859 17.0332L83.332 15.8291H85.9775L87.1816 15.5918L86.9355 15.1084V13.4297H84.7734C82.5293 13.4297 81.4072 12.8672 81.4072 11.7422L82.1279 10.7842ZM98.4775 2.62793H100.877C102.002 2.62793 102.564 3.34863 102.564 4.79004C102.4 6.24902 102.078 7.28906 101.598 7.91016C103.52 9.1582 104.48 10.1982 104.48 11.0303V11.5137C104.48 11.8359 104.319 11.9971 103.997 11.9971H103.522C102.825 11.9971 101.864 11.3555 100.64 10.0723H100.402C99.5469 11.9941 98.8262 12.9551 98.2402 12.9551C97.2793 12.9551 96.7988 12.5537 96.7988 11.751C98.6152 8.86816 99.7344 6.62695 100.156 5.02734V4.55273H98.9609C98.0645 4.55273 96.8633 4.71094 95.3574 5.02734C95.3574 4.71094 95.1172 4.55273 94.6367 4.55273V3.83203C94.6367 3.13477 95.917 2.7334 98.4775 2.62793ZM109.042 2.86523H109.763C110.302 2.86523 110.621 4.30664 110.721 7.18945L111.204 6.95215H114.324C114.805 7.11035 115.045 7.59082 115.045 8.39355C115.045 9.03223 114.084 9.35156 112.162 9.35156H110.967C111.125 10.2305 111.204 11.9912 111.204 14.6338L110.246 15.1172C109.285 15.1172 108.805 13.9951 108.805 11.751C108.482 8.15332 108.321 5.51367 108.321 3.83203V3.58594C108.321 3.35742 108.562 3.11719 109.042 2.86523ZM107.847 15.8379H109.042C109.487 15.8379 109.807 16.6377 110 18.2373V20.3994C110 22.3213 109.602 23.2822 108.805 23.2822C108.002 23.2822 107.521 22.8809 107.363 22.0781C107.686 20.0449 107.847 18.7646 107.847 18.2373C107.483 18.2373 107.161 18.1582 106.88 18C106.481 18 105.201 18.3193 103.039 18.958C103.039 18.7998 102.96 18.7207 102.802 18.7207C102.802 18.8789 102.723 18.958 102.564 18.958C102.564 18.6357 102.403 18.4746 102.081 18.4746V17.2793C103.095 16.3184 105.017 15.8379 107.847 15.8379ZM124.611 2.37305C125.631 3.01758 126.592 3.33984 127.494 3.33984C128.455 4.3418 128.936 5.7041 128.936 7.42676C128.936 8.6748 127.734 9.47461 125.332 9.82617C122.766 9.35742 121.482 7.67578 121.482 4.78125C121.482 3.7793 122.525 2.97656 124.611 2.37305ZM123.645 5.26465C124.049 6.50684 124.529 7.22754 125.086 7.42676H125.332C126.158 7.42676 126.639 7.18652 126.773 6.70605C126.773 5.42285 126.132 4.78125 124.849 4.78125H124.128C123.806 4.82812 123.645 4.98926 123.645 5.26465ZM133.26 4.78125H133.98C134.789 4.78125 135.27 7.74609 135.422 13.6758C135.264 14.3145 134.944 14.6338 134.464 14.6338C133.339 14.6338 132.776 14.0742 132.776 12.9551H133.022L132.776 12.4717C132.776 12.3135 132.858 12.2344 133.022 12.2344L132.776 11.751V10.3096L131.581 10.5469H131.098C130.266 10.5469 129.785 10.3066 129.656 9.82617V9.10547C129.656 8.67188 130.696 8.35254 132.776 8.14746V7.66406C132.776 7.46484 132.697 6.66504 132.539 5.26465L133.26 4.78125ZM137.347 5.26465H137.83C138.791 5.26465 139.271 8.3877 139.271 14.6338H139.034C138.753 14.7979 138.431 14.8799 138.067 14.8799C137.106 14.8799 136.626 12.3955 136.626 7.42676V5.98535C136.626 5.75098 136.866 5.51074 137.347 5.26465ZM123.161 11.0303H130.14C130.368 11.0303 130.608 11.2705 130.86 11.751V12.9551L129.173 13.1924H127.494V13.4385L127.731 15.6006C127.491 16.2393 127.251 16.5586 127.011 16.5586H126.053C125.572 16.459 125.332 15.8174 125.332 14.6338V13.1924H123.407C123.015 12.876 122.692 12.7178 122.44 12.7178V11.751C122.44 11.5225 122.681 11.2822 123.161 11.0303ZM136.626 16.0752C137.106 16.7842 137.347 17.3467 137.347 17.7627C137.106 21.7705 136.626 23.7744 135.905 23.7744H134.227C131.021 23.7744 129.419 22.9717 129.419 21.3662H129.656C129.334 20.2236 129.173 18.6211 129.173 16.5586L129.656 16.3213H130.614C131.259 16.5381 131.581 17.2588 131.581 18.4834H134.947C134.947 16.8779 135.507 16.0752 136.626 16.0752ZM131.818 20.4082V21.1289C133.588 21.4453 134.549 21.6035 134.701 21.6035V20.8828C133.201 20.6895 132.24 20.5312 131.818 20.4082ZM141.91 2.85645H147.192C147.515 2.90918 147.676 3.07031 147.676 3.33984C147.676 4.45898 147.356 5.01855 146.718 5.01855C146.542 5.01855 146.299 5.10059 145.988 5.26465C145.83 5.26465 145.751 5.18262 145.751 5.01855L144.072 5.26465H141.664L141.91 5.73926V6.94336L146.472 6.45996C147.597 6.84082 148.159 7.16309 148.159 7.42676C148.159 8.5459 147.436 9.10547 145.988 9.10547V8.86816C145.648 9.02637 144.447 9.1875 142.385 9.35156V10.0723C142.438 10.3887 142.599 10.5469 142.868 10.5469C143.987 10.5469 145.751 10.4678 148.159 10.3096L148.634 11.0303C148.634 12.3135 147.271 12.9551 144.547 12.9551C144.406 12.9551 143.768 13.0342 142.631 13.1924C141.025 13.1924 140.223 12.2314 140.223 10.3096L139.502 5.01855C139.783 3.57715 140.586 2.85645 141.91 2.85645ZM150.075 13.9131C150.386 14.0771 150.626 14.1592 150.796 14.1592V14.8799C150.796 15.999 150.315 16.5586 149.354 16.5586V16.3213C149.114 16.4795 148.634 16.5586 147.913 16.5586L148.159 19.9248L147.438 20.4082H146.718C146.296 20.4082 145.812 19.2041 145.268 16.7959H145.03C144.86 16.7959 144.62 16.8779 144.31 17.042C142.388 16.8779 141.427 16.5557 141.427 16.0752V15.3545C141.685 14.7158 142.244 14.3965 143.105 14.3965H144.31C145.171 14.3965 147.093 14.2354 150.075 13.9131ZM143.105 20.1621H144.793C145.273 22.8867 145.915 24.249 146.718 24.249C147.995 23.9326 149.035 23.7744 149.838 23.7744C150.16 24.1611 150.321 24.4805 150.321 24.7324C150.321 25.5352 149.12 26.1768 146.718 26.6572V26.4111C146.554 26.4111 146.472 26.4932 146.472 26.6572C144.392 26.499 143.352 25.5381 143.352 23.7744C143.07 23.7744 142.83 22.8105 142.631 20.8828C142.947 20.8828 143.105 20.6426 143.105 20.1621Z" fill="#222222"/>
</svg>
