<svg width="118" height="24" viewBox="0 0 118 24" fill="none" xmlns="http://www.w3.org/2000/svg">
<path d="M8.73438 2.39258H9.57227C9.88542 2.39258 10.1647 2.46029 10.4102 2.5957C10.6556 2.46029 10.9349 2.39258 11.248 2.39258L11.8828 2.81152C11.5527 3.78483 11.2734 4.27148 11.0449 4.27148C10.0716 3.99219 9.22949 3.85254 8.51855 3.85254H8.09961C5.16276 3.85254 3.69434 4.13184 3.69434 4.69043L3.27539 7.00098C3.55469 9.37923 3.83398 10.708 4.11328 10.9873C6.15299 10.8519 8.25195 10.6445 10.4102 10.3652L10.8291 10.9873V11.4062C10.8291 11.8294 10.5498 12.041 9.99121 12.041L8.9375 11.8252C6.13607 12.3838 4.38835 12.6631 3.69434 12.6631H3.49121C2.71257 12.6631 2.22168 10.6361 2.01855 6.58203V4.90625L2.23438 4.4873L1.81543 4.27148C1.56999 4.41536 1.29069 4.4873 0.977539 4.4873L0.761719 4.06836V3.23047C0.804036 2.95117 0.943685 2.81152 1.18066 2.81152H1.39648C5.90755 2.53223 8.35352 2.39258 8.73438 2.39258ZM13.9775 2.39258H14.3965C14.6758 2.4349 14.8154 2.57454 14.8154 2.81152V3.23047C14.5361 5.27018 14.3965 6.38737 14.3965 6.58203V8.05469H16.2881C16.4912 8.05469 16.6986 8.26204 16.9102 8.67676C16.9102 8.84603 16.7028 9.19727 16.2881 9.73047L15.2344 9.51465C14.5404 9.61621 14.1934 9.8278 14.1934 10.1494C14.3288 11.5882 14.4684 12.4261 14.6123 12.6631C14.3415 13.3063 14.0622 13.6576 13.7744 13.7168H13.5586C13.3555 13.7168 13.1439 13.5052 12.9238 13.082V11.2031C12.9238 5.32943 13.2751 2.39258 13.9775 2.39258ZM13.5586 14.3516C13.5586 14.6309 13.6305 14.7705 13.7744 14.7705C13.3512 15.9469 13.1396 17.0641 13.1396 18.1221L13.3428 18.541C13.1566 19.1165 12.8096 19.5355 12.3018 19.7979H9.15332C8.87402 19.8402 8.73438 19.9798 8.73438 20.2168V20.8516C8.73438 21.1309 8.94596 21.2705 9.36914 21.2705C11.7389 20.9912 13.1354 20.8516 13.5586 20.8516L13.7744 21.2705V21.8926C13.7744 22.0957 13.5628 22.3073 13.1396 22.5273H11.248L8.09961 23.1621C7.4056 23.1621 7.05859 21.8333 7.05859 19.1758C7.33789 18.7865 8.87402 18.4352 11.667 18.1221C11.667 17.8258 11.7389 17.0557 11.8828 15.8115H10.626C10.389 15.8115 8.70898 16.0231 5.58594 16.4463C5.58594 16.2939 5.51823 16.0824 5.38281 15.8115C5.38281 14.8382 8.10807 14.3516 13.5586 14.3516ZM26.7139 2.17676H27.7549L28.1738 2.39258C27.9538 8.40169 27.5348 11.4062 26.917 11.4062C26.6462 11.2708 26.4388 11.2031 26.2949 11.2031C26.4303 9.80664 26.498 8.75716 26.498 8.05469C26.3626 8.05469 26.2949 7.98275 26.2949 7.83887C26.1087 7.83887 24.0098 8.05046 19.998 8.47363L19.7822 8.05469V7.83887C19.7822 7.14486 22.0208 6.72591 26.498 6.58203L26.7139 6.16309V4.69043L26.917 3.64941C25.749 3.64941 22.7445 3.85677 17.9033 4.27148C17.7594 4.00065 17.6875 3.79329 17.6875 3.64941C17.8314 3.09082 18.1107 2.81152 18.5254 2.81152C23.2396 2.38835 25.9691 2.17676 26.7139 2.17676ZM23.1465 10.5684H23.3496C23.6289 10.6107 23.7686 10.7503 23.7686 10.9873C23.6331 12.2314 23.5654 13.0016 23.5654 13.2979H23.7686C24.5049 13.2979 26.3923 13.1582 29.4307 12.8789L29.6465 13.2979V13.9199C29.6465 14.2077 29.5068 14.3516 29.2275 14.3516C28.305 14.3516 24.5303 14.5589 17.9033 14.9736C17.9033 14.6943 17.8314 14.5547 17.6875 14.5547C17.6875 13.793 19.2279 13.374 22.3086 13.2979V12.46C22.3086 11.3851 22.5879 10.7546 23.1465 10.5684ZM27.5518 15.8115C27.5518 15.9554 27.6195 16.0273 27.7549 16.0273C27.6195 17.6693 27.5518 18.8584 27.5518 19.5947V21.8926C27.5518 22.1719 27.4121 22.3115 27.1328 22.3115H25.2412C23.5654 22.3454 22.7275 22.4893 22.7275 22.7432C21.8812 22.7432 21.458 21.2028 21.458 18.1221V16.8652L22.0928 16.0273C22.1943 16.0273 22.6133 16.0951 23.3496 16.2305C25.3385 15.9512 26.7393 15.8115 27.5518 15.8115ZM22.7275 18.1221C22.7275 20.0771 22.9349 21.0547 23.3496 21.0547C25.4486 21.0547 26.498 20.8473 26.498 20.4326V19.7979C26.498 19.4847 26.4303 19.2054 26.2949 18.96C26.4303 18.7145 26.498 18.4352 26.498 18.1221V17.0684H26.2949C23.9167 17.0684 22.7275 17.4196 22.7275 18.1221ZM34.4102 0.919922H34.6133L35.248 1.33887C34.9688 2.59993 34.8291 3.50977 34.8291 4.06836C34.973 4.06836 35.0449 4.13607 35.0449 4.27148C35.9082 3.99219 37.3047 3.85254 39.2344 3.85254C39.2344 3.99642 39.3063 4.06836 39.4502 4.06836C39.4502 4.82161 38.2611 5.3125 35.8828 5.54102L31.0586 6.16309C30.7878 6.02767 30.5762 5.95996 30.4238 5.95996V5.3252C30.4238 4.96126 31.4733 4.54232 33.5723 4.06836C33.5723 1.9694 33.8516 0.919922 34.4102 0.919922ZM41.9639 3.43359C42.5225 3.64518 42.8018 3.85677 42.8018 4.06836C42.5225 5.46484 42.3828 6.86133 42.3828 8.25781V9.31152L43.4365 9.0957H43.8555C44.0501 9.0957 44.2575 9.30729 44.4775 9.73047V9.94629C44.4775 10.251 43.7793 10.5303 42.3828 10.7842V12.6631C42.3828 12.807 42.4505 12.8789 42.5859 12.8789C42.3828 13.4375 42.1755 13.7168 41.9639 13.7168H41.5449C41.1217 13.5729 40.9102 13.154 40.9102 12.46V9.31152C40.9102 5.56217 41.2614 3.60286 41.9639 3.43359ZM33.9912 6.79785C34.262 6.93327 34.4694 7.00098 34.6133 7.00098C34.6895 7.00098 34.973 6.93327 35.4639 6.79785C37.5544 7.43262 38.5996 8.33822 38.5996 9.51465V9.73047C38.1426 12.8112 36.6742 14.3516 34.1943 14.3516C31.96 13.9284 30.8428 12.8789 30.8428 11.2031V10.7842C30.8428 9.21842 31.8923 7.88965 33.9912 6.79785ZM32.3154 10.5684V11.4062C32.891 12.5234 33.5892 13.082 34.4102 13.082C35.8743 13.082 36.7842 12.0368 37.1396 9.94629V9.0957C37.1396 8.90951 36.6488 8.5625 35.667 8.05469C33.4326 8.44401 32.3154 9.2819 32.3154 10.5684ZM38.3965 14.1357H38.5996L39.2344 14.5547C38.9551 16.0273 38.8154 16.9372 38.8154 17.2842C39.1963 17.2842 40.5928 17.0726 43.0049 16.6494L43.2207 17.0684V17.9062C43.2207 18.1432 41.9639 18.4268 39.4502 18.7568C39.4502 19.0361 39.099 19.1758 38.3965 19.1758H38.1807C37.766 19.0319 37.5586 18.6087 37.5586 17.9062V17.0684C37.5586 15.1133 37.8379 14.1357 38.3965 14.1357ZM60.9873 2.39258L61.4062 3.01465C61.1777 3.58171 60.6191 4.4196 59.7305 5.52832V5.74414C61.4062 7.64844 62.2441 8.83757 62.2441 9.31152L61.6221 9.73047C59.6585 8.08854 58.6768 7.17871 58.6768 7.00098H58.2578C58.0632 7.00098 56.7344 8.26204 54.2715 10.7842H54.0684C53.8652 10.7842 53.6536 10.5726 53.4336 10.1494C54.3561 8.89681 56.1038 6.9375 58.6768 4.27148V4.06836H58.4736C57.4665 4.06836 55.4395 4.27572 52.3926 4.69043L51.9736 4.06836C51.9736 3.12044 54.7708 2.56185 60.3652 2.39258H60.9873ZM63.7168 10.3652L63.9199 10.7842C63.9199 11.4782 63.6406 11.8971 63.082 12.041C62.9382 12.041 62.7308 11.9691 62.46 11.8252C60.9196 11.8252 60.1494 12.1045 60.1494 12.6631C60.1494 12.8154 60.2214 13.027 60.3652 13.2979C60.2214 14.3558 60.0775 15.054 59.9336 15.3926C61.8971 16.112 62.8789 17.0895 62.8789 18.3252C62.1426 20.568 61.0931 21.6895 59.7305 21.6895H58.2578C56.819 21.6895 55.8415 20.568 55.3252 18.3252C56.0446 16.3701 57.1618 15.3926 58.6768 15.3926V12.46H57.4199C56.252 12.46 54.5762 12.6673 52.3926 13.082C52.1217 12.9466 51.9102 12.8789 51.7578 12.8789V12.2441C51.7578 11.584 55.7441 10.9577 63.7168 10.3652ZM57.001 18.7568C57.3649 19.7301 58.0632 20.2168 59.0957 20.2168C60.5007 20.2168 61.2031 19.5863 61.2031 18.3252C61.2031 17.6312 60.4329 17.0726 58.8926 16.6494C57.6315 17.1318 57.001 17.8343 57.001 18.7568ZM65.5352 1.97363H73.3047C73.6178 1.97363 73.8971 2.04134 74.1426 2.17676C74.388 2.04134 74.6673 1.97363 74.9805 1.97363H75.3994C76.2035 2.00749 76.9017 2.35449 77.4941 3.01465C77.2233 3.65788 76.944 4.00911 76.6562 4.06836L73.7236 3.43359C73.5798 3.43359 73.5078 3.50553 73.5078 3.64941L71.4131 3.43359H70.1562C69.4538 3.43359 68.4043 3.50553 67.0078 3.64941V5.95996C67.0078 6.09538 66.9359 6.16309 66.792 6.16309L67.0078 6.58203V8.68945C67.0078 9.29036 67.1475 9.84896 67.4268 10.3652C72.708 9.80664 75.5052 9.52734 75.8184 9.52734L76.2373 10.1494C76.0596 10.8519 75.8522 11.2031 75.6152 11.2031H72.6699L71.6162 11.4062C71.904 11.7533 72.0479 12.0368 72.0479 12.2568C72.0479 12.6715 71.904 13.2301 71.6162 13.9326L72.0479 14.1357H76.6562C76.9694 14.1357 77.2487 14.068 77.4941 13.9326C78.0527 14.068 78.332 14.3473 78.332 14.7705C78.0612 15.4053 77.7819 15.7565 77.4941 15.8242C75.8184 15.748 74.9805 15.6084 74.9805 15.4053L73.9268 15.6084H72.4668C70.1139 15.6084 67.943 15.748 65.9541 16.0273L65.5352 15.4053C65.5352 14.5589 66.5169 14.1357 68.4805 14.1357H70.1562C70.1562 13.4163 70.5033 12.5065 71.1973 11.4062L66.792 12.041C65.8187 12.041 65.332 9.52311 65.332 4.4873C65.4674 4.24186 65.5352 3.96257 65.5352 3.64941C64.9766 3.64941 64.6973 3.43783 64.6973 3.01465V2.81152C64.6973 2.59147 64.9766 2.31217 65.5352 1.97363ZM70.7783 17.2842H75.8184L76.2373 17.5L75.6152 21.9053C75.7507 22.1761 75.8184 22.3877 75.8184 22.54C75.5475 23.1748 75.2682 23.5218 74.9805 23.5811H74.7646C74.57 23.5811 74.3626 23.3737 74.1426 22.959C74.4219 20.5807 74.5615 19.18 74.5615 18.7568H70.9941C70.8503 18.7568 70.7783 18.8288 70.7783 18.9727L70.3594 18.7568C70.0716 18.7568 69.3734 18.9684 68.2646 19.3916L67.8457 18.7568V18.3379C67.8457 17.737 68.8232 17.3857 70.7783 17.2842ZM90.0049 0.513672C90.1403 0.513672 90.208 0.585612 90.208 0.729492C90.3604 0.729492 90.5719 0.657552 90.8428 0.513672C94.6175 1.10612 96.5049 2.71419 96.5049 5.33789C96.5049 7.32682 95.1042 9.0026 92.3027 10.3652H92.0996V10.5811H96.0859C96.0859 10.7249 96.1536 10.9323 96.2891 11.2031C96.0098 11.7786 95.8701 12.1976 95.8701 12.46H96.0859C96.3652 12.46 96.5049 12.3203 96.5049 12.041V11.4189C96.8096 7.9235 97.2962 6.17578 97.9648 6.17578H98.3838C98.6631 6.17578 98.8027 6.38314 98.8027 6.79785C98.388 8.47363 98.041 10.2214 97.7617 12.041L97.9648 12.46V14.1357C97.9648 15.2106 97.6855 15.8411 97.127 16.0273H96.9238C96.8138 16.0273 96.6022 15.8158 96.2891 15.3926L96.5049 14.9736V14.3516C96.5049 14.0723 96.3652 13.9326 96.0859 13.9326H95.248C93.2253 14.2119 92.1758 14.3516 92.0996 14.3516L91.8838 13.9326V13.5137C91.8838 12.9551 92.7936 12.6038 94.6133 12.46V12.2568L93.5596 12.041C92.0277 12.041 91.2617 12.2526 91.2617 12.6758V15.6084C91.2617 15.9215 91.3294 16.2008 91.4648 16.4463C91.3294 17.0049 90.9824 17.2842 90.4238 17.2842L89.7891 16.4463V12.8789L89.5859 12.46C89.2389 12.46 88.2614 12.5996 86.6533 12.8789C86.0947 12.6758 85.8154 12.4684 85.8154 12.2568V11.8379C85.8154 11.3809 87.6309 11.0296 91.2617 10.7842V10.5811C87.487 10.0563 85.5996 8.30859 85.5996 5.33789C85.8789 3.94141 86.7887 2.47298 88.3291 0.932617C89.4463 0.839518 90.0049 0.69987 90.0049 0.513672ZM87.2754 5.33789V5.95996C87.2754 7.46647 88.4645 8.44824 90.8428 8.90527H91.4648C92.6497 8.90527 93.7712 7.9235 94.8291 5.95996V5.75684C94.8291 3.37858 93.7796 2.18945 91.6807 2.18945H89.5859C88.0456 3.14583 87.2754 4.19531 87.2754 5.33789ZM99.8564 5.75684C100.415 5.89225 100.694 6.3112 100.694 7.01367V7.43262L99.4375 14.9736C99.7168 15.5492 99.8564 15.9723 99.8564 16.2432C99.8564 19.5947 99.4375 21.2705 98.5996 21.2705C97.7702 21.2705 96.4414 21.4102 94.6133 21.6895C94.0547 21.1309 93.7754 20.0137 93.7754 18.3379C93.7754 16.7975 94.2663 16.0273 95.248 16.0273L95.667 16.6621L95.4512 17.9189C97.2708 17.8174 98.1807 17.6058 98.1807 17.2842V16.6621C98.6377 9.39193 99.1963 5.75684 99.8564 5.75684ZM95.4512 19.7979C95.5951 19.7979 95.667 19.8698 95.667 20.0137C97.1989 19.8698 97.9648 19.6582 97.9648 19.3789V18.96H97.7617C96.2214 19.1715 95.4512 19.4508 95.4512 19.7979ZM116.795 1.55469L117.011 1.97363C117.011 2.69303 116.799 3.11198 116.376 3.23047C108.268 3.23047 104.214 3.57747 104.214 4.27148C104.07 4.54232 103.998 4.75391 103.998 4.90625C104.142 5.64258 104.214 6.34082 104.214 7.00098C107.54 6.58626 110.756 6.30697 113.862 6.16309C113.998 6.43392 114.065 6.64551 114.065 6.79785C113.862 7.35645 113.655 7.63574 113.443 7.63574H113.024C109.165 7.63574 106.296 7.98275 104.417 8.67676L105.052 11.2031C105.822 11.2031 108.826 10.8519 114.065 10.1494H115.119C115.322 10.1494 115.534 10.361 115.754 10.7842C115.483 11.4189 115.204 11.766 114.916 11.8252H112.605C107.29 12.2061 104.633 12.625 104.633 13.082C103.888 13.082 103.257 10.7757 102.741 6.16309V4.90625C101.903 4.36458 101.484 4.01335 101.484 3.85254C101.484 2.70996 106.169 2.01172 115.538 1.75781C115.538 1.6224 115.957 1.55469 116.795 1.55469ZM115.754 13.082L115.957 13.501C115.957 14.2035 115.817 14.5547 115.538 14.5547C113.084 14.6986 111.615 14.7705 111.133 14.7705L110.93 15.1895V18.541C110.93 18.7441 110.718 18.9557 110.295 19.1758C109.736 18.9473 109.457 18.4564 109.457 17.7031V14.9736C107.011 15.2529 104.633 15.6042 102.322 16.0273L101.903 15.3926C101.903 14.4531 106.169 13.7549 114.7 13.2979C114.7 13.154 115.051 13.082 115.754 13.082ZM106.309 17.2842H107.362C107.362 17.5635 107.43 17.7031 107.565 17.7031L107.362 18.7568C107.498 19.9756 107.565 20.6738 107.565 20.8516C108.59 20.8516 111.107 20.4326 115.119 19.5947C115.678 19.7301 115.957 20.0094 115.957 20.4326C115.957 20.915 115.326 21.262 114.065 21.4736L113.646 21.2705L106.728 22.5273C106.313 21.8587 106.105 20.8092 106.105 19.3789V18.3379L106.309 17.2842Z" fill="#222222"/>
</svg>
