<svg width="173" height="23" viewBox="0 0 173 23" fill="none" xmlns="http://www.w3.org/2000/svg">
<path d="M7.27441 1.54199L8.31543 2.16406C10.7529 1.88477 12.2256 1.74512 12.7334 1.74512L13.1523 2.37988C13.0085 3.81022 12.9365 4.92741 12.9365 5.73145C12.9365 6.15462 13.0085 6.36621 13.1523 6.36621L12.9365 7.41992V9.93359C12.9365 10.069 12.6572 10.3483 12.0986 10.7715L11.2607 10.3525L11.4639 8.87988V3.63672C11.4639 3.35742 11.3242 3.21777 11.0449 3.21777C8.94596 3.21777 7.89648 3.77637 7.89648 4.89355L7.69336 5.94727C7.82878 6.86979 7.89648 7.77962 7.89648 8.67676V9.51465C7.89648 10.2679 7.61719 10.7588 7.05859 10.9873C6.85547 10.9873 6.64388 10.7757 6.42383 10.3525V3.4209H6.2207C5.03581 3.4209 3.35579 3.63249 1.18066 4.05566L0.761719 3.4209V3.21777C0.761719 2.61686 2.86068 2.12598 7.05859 1.74512C7.05859 1.6097 7.13053 1.54199 7.27441 1.54199ZM14.6123 11.8252C15.1709 11.9606 15.4502 12.2399 15.4502 12.6631L14.8281 13.7168L13.7744 13.501H11.2607C11.1169 14.4997 11.0449 15.0583 11.0449 15.1768L11.4639 15.3926H13.5713C13.8506 15.4349 13.9902 15.5745 13.9902 15.8115V16.6494L13.7744 17.9062L13.9902 18.3252C13.9902 19.6286 12.2383 20.3988 8.73438 20.6357V21.0547H10.207C10.3509 21.0547 10.4229 21.1266 10.4229 21.2705L14.6123 20.6357C14.8831 20.7796 15.0947 20.8516 15.2471 20.8516V21.0547C15.2471 21.901 14.7562 22.3242 13.7744 22.3242C12.0986 22.4258 11.2607 22.5654 11.2607 22.7432C11.1169 22.7432 11.0449 22.6712 11.0449 22.5273L8.53125 22.7432H8.1123C7.58757 22.7432 7.16862 21.973 6.85547 20.4326C6.85547 19.6032 8.32389 19.1123 11.2607 18.96C11.9548 18.6045 12.3018 18.3252 12.3018 18.1221V17.2842L12.0986 16.8652L7.05859 17.7031L6.85547 17.2842V16.4463C8.81055 16.0231 9.78809 15.6719 9.78809 15.3926V13.7168C9.22949 13.7168 8.9502 13.6449 8.9502 13.501C5.33626 14.0596 3.30501 14.3389 2.85645 14.3389C2.57715 14.3389 2.4375 14.1992 2.4375 13.9199V13.7168C2.4375 12.7604 6.49577 12.1299 14.6123 11.8252ZM16.875 2.16406H17.2939C17.5732 2.20638 17.7129 2.34603 17.7129 2.58301V3.4209C17.7129 3.97949 17.641 4.25879 17.4971 4.25879L17.7129 5.73145V7.83887C17.7129 10.3525 17.9922 11.6094 18.5508 11.6094C21.9193 11.0508 23.8786 10.7715 24.4287 10.7715C24.6318 10.7715 24.8392 10.9831 25.0508 11.4062C24.7122 12.0156 24.2256 12.4346 23.5908 12.6631L22.7529 12.4473L17.2939 13.501C16.7015 13.501 16.3503 10.0732 16.2402 3.21777C16.3418 2.5153 16.5534 2.16406 16.875 2.16406ZM27.5771 2.16406H27.7803C28.1019 2.16406 28.3135 2.5153 28.415 3.21777L27.9961 4.89355L28.2119 5.3125L27.9961 6.36621L28.2119 6.78516C28.068 7.05599 27.9961 7.26758 27.9961 7.41992L28.415 7.62305L30.0908 7.2041V5.94727C30.1839 3.56901 30.5352 2.37988 31.1445 2.37988H31.5635C31.8428 2.4222 31.9824 2.56185 31.9824 2.79883C31.5931 4.30534 31.3138 7.73307 31.1445 13.082C31.2884 13.2598 31.3604 13.7507 31.3604 14.5547L30.5098 15.1768C30.3151 15.1768 30.1077 14.9694 29.8877 14.5547V9.71777C29.8877 9.58236 29.9554 9.51465 30.0908 9.51465C29.9554 9.24382 29.8877 9.03223 29.8877 8.87988H29.4688C29.0879 8.87988 28.6689 9.01953 28.2119 9.29883L28.415 10.3525V13.082C28.415 13.2852 28.2035 13.4967 27.7803 13.7168H27.5771C27.374 13.7168 27.1624 13.5052 26.9424 13.082C26.807 8.01237 26.6673 5.07129 26.5234 4.25879C26.8366 2.8623 27.1878 2.16406 27.5771 2.16406ZM45.582 0.881836H45.7979C46.0771 0.924154 46.2168 1.0638 46.2168 1.30078C45.9375 3.05273 45.7979 4.52539 45.7979 5.71875V6.1377C45.8402 6.41699 45.9798 6.55664 46.2168 6.55664H46.6357C47.1351 6.55664 47.7656 6.4847 48.5273 6.34082C48.7982 6.4847 49.0098 6.55664 49.1621 6.55664V6.75977C49.1621 7.48763 48.9505 7.91081 48.5273 8.0293H46.2168C46.0137 8.0293 45.8021 8.23665 45.582 8.65137L46.2168 12.8662L45.3662 13.4883H45.1631C44.6637 13.4883 44.3125 11.529 44.1094 7.61035C44.304 3.12467 44.7949 0.881836 45.582 0.881836ZM42.2178 1.71973C42.4886 1.86361 42.7002 1.93555 42.8525 1.93555V2.13867L41.7988 7.17871C41.7988 7.32259 41.8708 7.39453 42.0146 7.39453L41.7988 8.86719L42.0146 10.3398L40.9609 11.1777C40.6055 11.1777 40.3939 10.8984 40.3262 10.3398C40.3262 8.45247 40.5378 6.1377 40.9609 3.39551H39.6914C35.7389 3.96257 33.568 4.24609 33.1787 4.24609L32.7598 3.61133V3.39551C32.8444 3.06543 33.3353 2.71842 34.2324 2.35449C34.3678 2.35449 34.4355 2.4222 34.4355 2.55762C34.571 2.55762 37.165 2.27832 42.2178 1.71973ZM61.876 0.526367L62.2949 1.16113V2.20215C66.349 4.07259 68.376 5.12207 68.376 5.35059C68.5114 5.62142 68.5791 5.82878 68.5791 5.97266C68.4437 6.42969 68.1644 6.70898 67.7412 6.81055C67.335 6.4043 65.3799 5.28711 61.876 3.45898C61.876 3.32357 61.8083 3.25586 61.6729 3.25586H61.0381C58.8037 7.47917 57.6865 10.2002 57.6865 11.4189L57.2676 11.6348H57.0645C56.8613 11.6348 56.6497 11.4232 56.4297 11V10.7969C56.4297 9.66276 57.6188 6.79785 59.9971 2.20215V1.36426L61.876 0.526367ZM63.5518 6.81055H63.7676C64.0469 6.85286 64.1865 6.99251 64.1865 7.22949V11.2158C64.4827 11.2158 65.2487 11.2835 66.4844 11.4189L69.417 11.2158L69.6328 11.6348C69.6328 12.3626 69.4212 12.7816 68.998 12.8916H63.9707C62.4134 12.8916 60.7376 13.0312 58.9434 13.3105L58.7402 12.8916V12.4727C58.7402 12.0241 59.5062 11.6729 61.0381 11.4189C61.2835 11.5628 61.5628 11.6348 61.876 11.6348C62.4346 11.4232 62.7139 11.2116 62.7139 11V8.2832C62.7139 7.52995 62.9932 7.03906 63.5518 6.81055ZM67.3223 13.9453C67.5508 13.9453 67.8301 14.2246 68.1602 14.7832L67.957 15.8242V16.2432L68.1602 17.2969C67.5846 18.2702 66.1882 18.7568 63.9707 18.7568H62.0918V19.1758C62.1341 19.4551 62.2738 19.5947 62.5107 19.5947H67.957L69.2139 19.3916C69.7725 19.527 70.0518 19.946 70.0518 20.6484C69.4932 20.9277 69.2139 21.1351 69.2139 21.2705L68.1602 20.8516L67.1191 21.0674L65.8623 20.8516L61.457 21.2705C60.763 21.0081 60.416 20.4495 60.416 19.5947V17.9189C60.416 17.7158 60.6234 17.5085 61.0381 17.2969H61.457C62.1257 17.2969 62.8239 17.3646 63.5518 17.5C65.5068 17.263 66.4844 16.9837 66.4844 16.6621V16.04C66.4844 15.7607 66.3447 15.6211 66.0654 15.6211H63.3486C62.3584 15.6211 61.5882 15.7607 61.0381 16.04C60.4795 15.8285 60.2002 15.6169 60.2002 15.4053V15.2021C60.2002 14.6774 61.0381 14.3262 62.7139 14.1484C62.8577 14.1484 62.9297 14.2204 62.9297 14.3643L63.9707 14.1484H67.1191C67.2546 14.1484 67.3223 14.0807 67.3223 13.9453ZM76.2881 0.526367L76.707 1.16113V2.20215C80.7611 4.07259 82.7881 5.12207 82.7881 5.35059C82.9235 5.62142 82.9912 5.82878 82.9912 5.97266C82.8558 6.42969 82.5765 6.70898 82.1533 6.81055C81.7471 6.4043 79.792 5.28711 76.2881 3.45898C76.2881 3.32357 76.2204 3.25586 76.085 3.25586H75.4502C73.2158 7.47917 72.0986 10.2002 72.0986 11.4189L71.6797 11.6348H71.4766C71.2734 11.6348 71.0618 11.4232 70.8418 11V10.7969C70.8418 9.66276 72.0309 6.79785 74.4092 2.20215V1.36426L76.2881 0.526367ZM77.9639 6.81055H78.1797C78.459 6.85286 78.5986 6.99251 78.5986 7.22949V11.2158C78.8949 11.2158 79.6608 11.2835 80.8965 11.4189L83.8291 11.2158L84.0449 11.6348C84.0449 12.3626 83.8333 12.7816 83.4102 12.8916H78.3828C76.8255 12.8916 75.1497 13.0312 73.3555 13.3105L73.1523 12.8916V12.4727C73.1523 12.0241 73.9183 11.6729 75.4502 11.4189C75.6956 11.5628 75.9749 11.6348 76.2881 11.6348C76.8467 11.4232 77.126 11.2116 77.126 11V8.2832C77.126 7.52995 77.4053 7.03906 77.9639 6.81055ZM81.7344 13.9453C81.9629 13.9453 82.2422 14.2246 82.5723 14.7832L82.3691 15.8242V16.2432L82.5723 17.2969C81.9967 18.2702 80.6003 18.7568 78.3828 18.7568H76.5039V19.1758C76.5462 19.4551 76.6859 19.5947 76.9229 19.5947H82.3691L83.626 19.3916C84.1846 19.527 84.4639 19.946 84.4639 20.6484C83.9053 20.9277 83.626 21.1351 83.626 21.2705L82.5723 20.8516L81.5312 21.0674L80.2744 20.8516L75.8691 21.2705C75.1751 21.0081 74.8281 20.4495 74.8281 19.5947V17.9189C74.8281 17.7158 75.0355 17.5085 75.4502 17.2969H75.8691C76.5378 17.2969 77.236 17.3646 77.9639 17.5C79.9189 17.263 80.8965 16.9837 80.8965 16.6621V16.04C80.8965 15.7607 80.7568 15.6211 80.4775 15.6211H77.7607C76.7705 15.6211 76.0003 15.7607 75.4502 16.04C74.8916 15.8285 74.6123 15.6169 74.6123 15.4053V15.2021C74.6123 14.6774 75.4502 14.3262 77.126 14.1484C77.2699 14.1484 77.3418 14.2204 77.3418 14.3643L78.3828 14.1484H81.5312C81.6667 14.1484 81.7344 14.0807 81.7344 13.9453ZM88.6055 4.91895H90.7002C91.9189 5.78223 92.9007 7.03906 93.6455 8.68945C94.1533 9.11263 94.64 9.32422 95.1055 9.32422H95.9434C96.7812 9.32422 97.2721 7.9235 97.416 5.12207C97.4837 5.12207 97.763 5.05436 98.2539 4.91895L98.876 5.75684V6.17578C98.876 9.52734 97.4795 11.2031 94.6865 11.2031C93.7048 11.2031 92.3083 9.80664 90.4971 7.01367C90.4971 6.76823 90.1458 6.62858 89.4434 6.59473C87.6322 6.59473 86.7266 8.2028 86.7266 11.4189L86.3076 11.6221H85.8887C85.5417 11.6221 85.3301 10.9238 85.2539 9.52734C85.9987 6.45508 87.1159 4.91895 88.6055 4.91895ZM111.184 1.56738L111.603 1.77051C111.188 2.47298 110.98 3.03158 110.98 3.44629V4.70312C111.023 4.98242 111.162 5.12207 111.399 5.12207H114.332L115.386 5.33789V5.54102C115.386 6.19271 114.827 7.10254 113.71 8.27051V8.48633C115.665 10.5007 116.643 11.6178 116.643 11.8379C116.499 12.1087 116.427 12.3203 116.427 12.4727H115.386C115.386 12.0664 114.476 11.0846 112.656 9.52734H112.237C112.06 9.52734 110.663 11.0677 108.048 14.1484H107.629C107.35 14.1484 107.21 14.0088 107.21 13.7295V13.3105C108.437 11.6855 110.253 9.51888 112.656 6.81055H112.453C110.278 6.94596 108.319 7.22526 106.575 7.64844L106.156 7.01367V6.81055C106.156 6.29427 107.273 5.87109 109.508 5.54102V4.28418C109.508 2.8877 109.859 1.9821 110.562 1.56738H111.184ZM118.115 6.17578H118.318C118.53 6.17578 118.742 6.45508 118.953 7.01367C118.674 8.41016 118.534 9.66699 118.534 10.7842V13.3105C118.534 14.4193 118.602 15.8877 118.737 17.7158C118.466 18.3506 118.187 18.6976 117.899 18.7568H117.696C117.4 18.7568 117.049 17.847 116.643 16.0273L110.143 17.2842C109.872 17.1488 109.66 17.0811 109.508 17.0811V16.4463C109.508 16.1501 110.278 15.7311 111.818 15.1895C111.903 12.6758 112.322 11.4189 113.075 11.4189L113.913 12.041C113.634 12.5234 113.426 13.5052 113.291 14.9863C113.426 14.9863 113.494 15.054 113.494 15.1895C115.872 14.8594 117.062 14.5124 117.062 14.1484V11.2031C117.062 10.89 117.133 10.6107 117.277 10.3652C117.133 10.1198 117.062 9.84049 117.062 9.52734V8.90527C117.062 7.2972 117.413 6.38737 118.115 6.17578ZM126.015 0.945312C126.294 0.98763 126.434 1.12728 126.434 1.36426C126.434 1.69434 125.668 3.02311 124.136 5.35059C123.992 5.59603 123.92 5.87533 123.92 6.18848C127.136 8.87142 128.744 10.6149 128.744 11.4189C128.744 11.6982 128.533 11.8379 128.109 11.8379L123.501 7.86426L122.663 7.64844C121.69 9.60352 121.131 11 120.987 11.8379L120.568 12.0537H120.365C120.044 12.0537 119.832 11.7025 119.73 11C120.018 9.45964 121.906 6.10807 125.393 0.945312H126.015ZM132.515 1.99902C133.073 2.13444 133.353 2.55339 133.353 3.25586C132.98 3.25586 132.629 5.97689 132.299 11.4189L132.515 11.8379C132.235 12.9635 131.956 13.5264 131.677 13.5264H131.258C130.979 13.5264 130.839 13.3867 130.839 13.1074C131.118 5.70182 131.677 1.99902 132.515 1.99902ZM127.271 13.3105C127.83 13.5221 128.109 13.7337 128.109 13.9453V14.1484C127.695 14.6816 127.487 15.3122 127.487 16.04V17.2969C127.487 17.4323 127.767 17.6396 128.325 17.9189C129.011 17.7835 130.758 17.5762 133.568 17.2969L133.771 17.7158V17.9189C133.771 18.2998 133.632 18.7188 133.353 19.1758L132.299 18.9727C131.063 18.9727 129.32 19.18 127.068 19.5947C126.366 19.5947 126.015 18.2702 126.015 15.6211C126.336 14.0807 126.755 13.3105 127.271 13.3105ZM145.444 0.513672C145.58 0.513672 145.647 0.585612 145.647 0.729492C145.8 0.729492 146.011 0.657552 146.282 0.513672C150.057 1.10612 151.944 2.71419 151.944 5.33789C151.944 7.32682 150.544 9.0026 147.742 10.3652H147.539V10.5811H151.525C151.525 10.7249 151.593 10.9323 151.729 11.2031C151.449 11.7786 151.31 12.1976 151.31 12.46H151.525C151.805 12.46 151.944 12.3203 151.944 12.041V11.4189C152.249 7.9235 152.736 6.17578 153.404 6.17578H153.823C154.103 6.17578 154.242 6.38314 154.242 6.79785C153.827 8.47363 153.48 10.2214 153.201 12.041L153.404 12.46V14.1357C153.404 15.2106 153.125 15.8411 152.566 16.0273H152.363C152.253 16.0273 152.042 15.8158 151.729 15.3926L151.944 14.9736V14.3516C151.944 14.0723 151.805 13.9326 151.525 13.9326H150.688C148.665 14.2119 147.615 14.3516 147.539 14.3516L147.323 13.9326V13.5137C147.323 12.9551 148.233 12.6038 150.053 12.46V12.2568L148.999 12.041C147.467 12.041 146.701 12.2526 146.701 12.6758V15.6084C146.701 15.9215 146.769 16.2008 146.904 16.4463C146.769 17.0049 146.422 17.2842 145.863 17.2842L145.229 16.4463V12.8789L145.025 12.46C144.678 12.46 143.701 12.5996 142.093 12.8789C141.534 12.6758 141.255 12.4684 141.255 12.2568V11.8379C141.255 11.3809 143.07 11.0296 146.701 10.7842V10.5811C142.926 10.0563 141.039 8.30859 141.039 5.33789C141.318 3.94141 142.228 2.47298 143.769 0.932617C144.886 0.839518 145.444 0.69987 145.444 0.513672ZM142.715 5.33789V5.95996C142.715 7.46647 143.904 8.44824 146.282 8.90527H146.904C148.089 8.90527 149.211 7.9235 150.269 5.95996V5.75684C150.269 3.37858 149.219 2.18945 147.12 2.18945H145.025C143.485 3.14583 142.715 4.19531 142.715 5.33789ZM155.296 5.75684C155.854 5.89225 156.134 6.3112 156.134 7.01367V7.43262L154.877 14.9736C155.156 15.5492 155.296 15.9723 155.296 16.2432C155.296 19.5947 154.877 21.2705 154.039 21.2705C153.21 21.2705 151.881 21.4102 150.053 21.6895C149.494 21.1309 149.215 20.0137 149.215 18.3379C149.215 16.7975 149.706 16.0273 150.688 16.0273L151.106 16.6621L150.891 17.9189C152.71 17.8174 153.62 17.6058 153.62 17.2842V16.6621C154.077 9.39193 154.636 5.75684 155.296 5.75684ZM150.891 19.7979C151.035 19.7979 151.106 19.8698 151.106 20.0137C152.638 19.8698 153.404 19.6582 153.404 19.3789V18.96H153.201C151.661 19.1715 150.891 19.4508 150.891 19.7979ZM172.234 1.55469L172.45 1.97363C172.45 2.69303 172.239 3.11198 171.815 3.23047C163.707 3.23047 159.653 3.57747 159.653 4.27148C159.509 4.54232 159.438 4.75391 159.438 4.90625C159.581 5.64258 159.653 6.34082 159.653 7.00098C162.979 6.58626 166.196 6.30697 169.302 6.16309C169.437 6.43392 169.505 6.64551 169.505 6.79785C169.302 7.35645 169.094 7.63574 168.883 7.63574H168.464C164.604 7.63574 161.735 7.98275 159.856 8.67676L160.491 11.2031C161.261 11.2031 164.266 10.8519 169.505 10.1494H170.559C170.762 10.1494 170.973 10.361 171.193 10.7842C170.923 11.4189 170.643 11.766 170.355 11.8252H168.045C162.73 12.2061 160.072 12.625 160.072 13.082C159.327 13.082 158.697 10.7757 158.181 6.16309V4.90625C157.343 4.36458 156.924 4.01335 156.924 3.85254C156.924 2.70996 161.608 2.01172 170.978 1.75781C170.978 1.6224 171.396 1.55469 172.234 1.55469ZM171.193 13.082L171.396 13.501C171.396 14.2035 171.257 14.5547 170.978 14.5547C168.523 14.6986 167.055 14.7705 166.572 14.7705L166.369 15.1895V18.541C166.369 18.7441 166.158 18.9557 165.734 19.1758C165.176 18.9473 164.896 18.4564 164.896 17.7031V14.9736C162.451 15.2529 160.072 15.6042 157.762 16.0273L157.343 15.3926C157.343 14.4531 161.608 13.7549 170.14 13.2979C170.14 13.154 170.491 13.082 171.193 13.082ZM161.748 17.2842H162.802C162.802 17.5635 162.869 17.7031 163.005 17.7031L162.802 18.7568C162.937 19.9756 163.005 20.6738 163.005 20.8516C164.029 20.8516 166.547 20.4326 170.559 19.5947C171.117 19.7301 171.396 20.0094 171.396 20.4326C171.396 20.915 170.766 21.262 169.505 21.4736L169.086 21.2705L162.167 22.5273C161.752 21.8587 161.545 20.8092 161.545 19.3789V18.3379L161.748 17.2842Z" fill="#222222"/>
</svg>
