<svg width="81" height="26" viewBox="0 0 81 26" fill="none" xmlns="http://www.w3.org/2000/svg">
<path d="M11.5479 1.30762C12.0205 1.37923 12.2568 1.85547 12.2568 2.73633V6.85059C12.2568 7.02962 12.0205 7.20866 11.5479 7.3877L11.1934 6.85059V2.55371C11.1934 2.31738 11.0716 2.19922 10.8281 2.19922H10.1191C9.56771 2.19922 8.61523 2.31738 7.26172 2.55371L7.0791 2.19922V2.0166C7.0791 1.54395 8.56868 1.30762 11.5479 1.30762ZM4.22168 1.84473H4.75879C5.58952 1.84473 6.00488 2.2028 6.00488 2.91895C5.8903 3.92871 5.83301 4.76302 5.83301 5.42188V7.3877C5.83301 7.55957 5.65397 7.73861 5.2959 7.9248C5.05957 7.80306 4.88053 7.74219 4.75879 7.74219C4.87337 5.54362 4.93066 3.93587 4.93066 2.91895C4.39355 2.91895 4.03548 2.85807 3.85645 2.73633C3.17611 2.85807 2.28451 3.09798 1.18164 3.45605C0.952474 3.33431 0.773438 3.27344 0.644531 3.27344V2.38184C2.32747 2.02376 3.51986 1.84473 4.22168 1.84473ZM14.4053 10.9541L14.5879 11.3193C14.5879 11.9137 13.2773 12.2109 10.6562 12.2109L10.291 12.748C10.4128 14.9395 10.5918 16.25 10.8281 16.6797L10.4736 17.3887H12.7939C13.3167 17.3887 13.6175 18.5238 13.6963 20.7939C13.3883 21.2236 11.3617 21.818 7.61621 22.5771C7.61621 22.6989 7.49805 22.7598 7.26172 22.7598V22.9316C7.54102 24.2422 8.07454 24.8975 8.8623 24.8975H10.8281C13.2559 24.8975 14.8063 24.7184 15.4795 24.3604L15.834 24.8975C15.6693 25.4919 15.2539 25.7891 14.5879 25.7891C14.4661 25.7891 14.4053 25.7318 14.4053 25.6172C13.0732 25.8535 11.5264 25.9717 9.76465 25.9717C7.73796 25.9717 6.72461 25.4346 6.72461 24.3604C6.48828 24.3389 6.30924 23.9235 6.1875 23.1143V22.5771C6.1875 22.1117 8.27148 21.3955 12.4395 20.4287C12.5612 20.1995 12.6221 20.0205 12.6221 19.8916C12.6221 19.376 12.5003 18.8424 12.2568 18.291C11.1182 18.5273 9.09505 18.6455 6.1875 18.6455C6.1875 18.5238 6.12663 18.4629 6.00488 18.4629C6.09798 17.8685 7.40853 17.5713 9.93652 17.5713V17.3887C9.72884 17.3887 9.49251 15.7809 9.22754 12.5654C7.3584 12.6872 5.98698 12.748 5.11328 12.748C4.6263 12.748 3.91016 12.6299 2.96484 12.3936V11.8564L3.14746 11.4912L5.65039 11.6738C8.65104 11.4375 11.5693 11.1403 14.4053 10.7822V10.9541ZM18.1211 3.62793C18.6224 3.62793 18.9805 4.82031 19.1953 7.20508L22.2354 6.85059C22.443 6.96517 22.6794 7.02246 22.9443 7.02246V6.66797C22.9443 6.06641 22.887 5.17122 22.7725 3.98242L23.127 3.81055H23.3096C23.6676 3.92513 23.8467 4.2832 23.8467 4.88477V6.66797C23.8467 9.64714 23.5459 11.2549 22.9443 11.4912H21.6982C21.2972 11.4912 20.4629 11.6094 19.1953 11.8457C18.3646 10.0339 17.9492 7.35547 17.9492 3.81055C18.0638 3.81055 18.1211 3.74967 18.1211 3.62793ZM22.418 7.91406H20.8066C19.9473 7.91406 19.471 8.21484 19.3779 8.81641C19.5212 10.0052 19.7575 10.5996 20.0869 10.5996C21.7555 10.5996 22.5898 10.3597 22.5898 9.87988C22.5898 9.72233 22.708 9.06706 22.9443 7.91406C22.8298 7.91406 22.7725 7.85677 22.7725 7.74219L22.418 7.91406ZM20.2695 13.6396C20.3053 13.876 20.4235 13.9941 20.624 13.9941C20.5094 14.6172 20.4521 14.9753 20.4521 15.0684C20.4521 15.6055 20.5703 16.5579 20.8066 17.9258C22.776 17.804 24.2656 17.7432 25.2754 17.7432H25.4473C25.6908 17.779 25.8125 17.8971 25.8125 18.0977V18.4629L25.4473 19C24.9102 19 24.5521 18.9391 24.373 18.8174C22.375 18.9391 20.8281 19 19.7324 19H16.6924C16.4561 19 16.3379 18.8783 16.3379 18.6348V18.2803C16.4596 17.9222 16.8177 17.7432 17.4121 17.7432H18.1211L19.3779 17.9258L19.5498 17.5713V14.166C19.5498 13.9941 19.7897 13.8187 20.2695 13.6396ZM36.5107 2.0166C37.2126 2.0166 37.6315 3.86426 37.7676 7.55957C38.1113 9.10645 38.4085 9.87988 38.6592 9.87988C39.9626 9.7653 41.3913 9.58626 42.9453 9.34277C43.0671 9.5791 43.1279 9.75814 43.1279 9.87988C42.9489 10.3597 42.7699 10.5996 42.5908 10.5996C40.5068 10.7214 39.1963 10.7822 38.6592 10.7822C38.6592 11.0186 38.5374 11.1367 38.2939 11.1367L39.0137 17.3994L38.4766 17.7539C38.1185 17.7539 37.7031 14.832 37.2305 8.98828C36.987 8.12174 36.6862 6.03418 36.3281 2.72559H36.1562L36.5107 2.0166ZM31.6768 4.33691H33.6533V4.87402C33.6533 4.99577 33.4134 5.1748 32.9336 5.41113C32.7044 5.28939 32.5254 5.22852 32.3965 5.22852C32.1602 5.22852 32.042 5.28939 32.042 5.41113C31.3831 5.28939 30.9069 5.22852 30.6133 5.22852C28.8229 5.22852 27.9277 5.40755 27.9277 5.76562V6.13086C28.3216 9.58268 28.8587 11.3086 29.5391 11.3086C30.8639 11.4303 32.0563 11.4912 33.1162 11.4912L34.3623 11.3086L34.5449 11.6738V12.2109C34.5449 12.4473 34.4268 12.5654 34.1904 12.5654C30.0153 12.5654 27.9277 12.1465 27.9277 11.3086C27.2116 7.65625 26.7354 5.62956 26.499 5.22852H26.3164C26.3164 4.63411 28.1032 4.33691 31.6768 4.33691ZM54.0938 0.953125H55.3506C56.2458 0.953125 56.901 1.25033 57.3164 1.84473V2.02734C56.9512 4.16862 56.2959 5.23926 55.3506 5.23926C53.4385 4.93848 52.4824 4.22233 52.4824 3.09082V2.55371C52.64 1.48665 53.1771 0.953125 54.0938 0.953125ZM54.4482 1.84473C54.4482 2.36751 54.151 2.78288 53.5566 3.09082V3.27344C53.8646 3.86784 54.3408 4.16504 54.9854 4.16504H55.3506C55.723 4.16504 56.0775 3.50977 56.4141 2.19922L55.877 1.84473H54.4482ZM61.6025 1.66211L62.1396 2.02734L61.957 3.81055V5.05664C61.957 5.6224 62.0179 6.22038 62.1396 6.85059C62.0179 7.2946 61.957 7.82812 61.957 8.45117V8.98828L62.1396 10.0625C62.0179 10.263 61.957 10.5602 61.957 10.9541C61.957 11.792 62.0752 12.2109 62.3115 12.2109C62.1325 12.6836 61.9535 12.9199 61.7744 12.9199H61.6025C61.2445 12.8483 61.0654 12.3721 61.0654 11.4912V11.3193C61.0654 10.639 61.1263 10.2201 61.248 10.0625C61.1263 9.41797 61.0654 8.88086 61.0654 8.45117V6.66797C59.3109 7.02604 58.2367 7.20508 57.8428 7.20508L57.6709 6.85059V6.48535C57.6709 6.33496 58.6842 6.03776 60.7109 5.59375C60.7109 5.47917 60.8291 5.42188 61.0654 5.42188V2.19922C61.0654 2.02734 61.2445 1.84831 61.6025 1.66211ZM64.46 2.38184H64.8145L65.1797 2.55371L64.9971 4.34766V7.3877C64.9971 9.06348 65.237 11.4447 65.7168 14.5312L65.1797 14.8857C64.6712 14.8857 64.3132 12.0856 64.1055 6.48535V2.73633C64.1413 2.5 64.2594 2.38184 64.46 2.38184ZM58.208 8.09668C58.4157 8.21842 58.652 8.2793 58.917 8.2793V8.98828C58.917 9.08138 58.738 9.26042 58.3799 9.52539L57.1338 9.35352H56.0596L55.877 10.2451V12.3936C56.1204 13.2386 56.2422 13.7148 56.2422 13.8223C56.1204 14.2949 55.8232 14.5312 55.3506 14.5312L54.9854 13.9941V13.8223C54.9854 12.8698 54.9281 11.6165 54.8135 10.0625C54.9281 9.83333 54.9854 9.6543 54.9854 9.52539L54.6309 9.35352H50.5166C50.2803 9.35352 50.1621 9.23177 50.1621 8.98828V8.45117L51.0537 8.2793H58.0254C58.1471 8.2793 58.208 8.21842 58.208 8.09668ZM58.917 16.3252H59.2822C59.5186 16.361 59.6367 16.4792 59.6367 16.6797V19.1826C59.6725 19.4189 59.7907 19.5371 59.9912 19.5371H60.3457C62.2578 19.5371 63.2139 19.3581 63.2139 19V16.6797C63.2497 16.4434 63.3678 16.3252 63.5684 16.3252H63.9229C64.1592 16.361 64.2773 16.4792 64.2773 16.6797C64.2773 16.8587 64.1592 17.3958 63.9229 18.291C63.9229 18.5059 64.041 18.9821 64.2773 19.7197L64.1055 20.0742C64.2201 20.7188 64.2773 21.2559 64.2773 21.6855V22.04C64.2773 22.5199 62.6696 22.7598 59.4541 22.7598C58.8597 21.041 58.5625 19.1325 58.5625 17.0342V16.6797C58.5983 16.4434 58.7165 16.3252 58.917 16.3252ZM59.8086 21.1484C59.9303 21.3776 59.9912 21.5566 59.9912 21.6855H61.0654C62.6123 21.6855 63.3857 21.4456 63.3857 20.9658C63.2712 20.7367 63.2139 20.5576 63.2139 20.4287H62.6768C60.7646 20.4287 59.8086 20.6686 59.8086 21.1484ZM75.3408 3.08008H75.6953V3.2627C75.6953 3.97884 75.1618 4.33691 74.0947 4.33691C73.6937 4.33691 72.7376 4.45508 71.2266 4.69141V6.65723L71.4092 7.02246C73.0205 6.87923 74.3919 6.7002 75.5234 6.48535L76.2324 7.02246C76.0534 7.49512 75.8743 7.73145 75.6953 7.73145H74.4492C72.5371 7.73145 71.5811 7.91048 71.5811 8.26855C71.5811 8.45475 71.821 8.69466 72.3008 8.98828H72.4834C72.8773 8.98828 74.1878 8.80924 76.415 8.45117C76.6514 8.48698 76.7695 8.60514 76.7695 8.80566V9.1709C76.7695 9.37858 75.3408 9.67578 72.4834 10.0625C70.9294 10.0625 70.1523 8.45117 70.1523 5.22852V3.98242C70.1882 3.73893 70.3099 3.61719 70.5176 3.61719H71.0547C72.3509 3.61719 73.7796 3.43815 75.3408 3.08008ZM79.8096 13.1025L79.9922 13.457V13.6396C79.9922 13.9977 79.3369 14.234 78.0264 14.3486H76.7695C76.6549 14.5635 76.5977 14.8034 76.5977 15.0684V15.4229C76.5977 16.4971 76.7158 17.5104 76.9521 18.4629C76.7731 18.9427 76.5941 19.1826 76.415 19.1826H76.2324C76.0605 19.1826 75.8815 19.0036 75.6953 18.6455V14.7139L75.5234 14.3486C70.5749 14.5921 67.653 14.7139 66.7578 14.7139C66.5286 14.5921 66.3496 14.5312 66.2207 14.5312V14.1768C66.3424 13.8187 66.7005 13.6396 67.2949 13.6396H71.2266L79.8096 13.1025ZM72.1182 17.5713H72.6553C72.863 17.5713 73.1029 18.4056 73.375 20.0742C73.9694 20.3464 74.2666 20.5254 74.2666 20.6113C76.1429 20.4538 78.0514 20.0957 79.9922 19.5371C80.2214 19.6589 80.4004 19.7197 80.5293 19.7197V19.9023C80.5293 20.6113 79.9922 20.9658 78.918 20.9658C76.4902 21.3239 74.6426 21.5029 73.375 21.5029C72.4225 20.4502 71.9463 19.3187 71.9463 18.1084C72.0609 17.8792 72.1182 17.7002 72.1182 17.5713Z" fill="#222222"/>
<path d="M11.5479 1.30762L11.5853 1.06044L11.5667 1.05762H11.5479V1.30762ZM11.5479 7.3877L11.3392 7.52541L11.4494 7.69233L11.6364 7.62149L11.5479 7.3877ZM11.1934 6.85059H10.9434V6.92565L10.9847 6.9883L11.1934 6.85059ZM7.26172 2.55371L7.03947 2.6682L7.12365 2.8316L7.30472 2.79999L7.26172 2.55371ZM7.0791 2.19922H6.8291V2.25983L6.85686 2.31371L7.0791 2.19922ZM6.00488 2.91895L6.25329 2.94713L6.25488 2.93308V2.91895H6.00488ZM5.2959 7.9248L5.18141 8.14705L5.29644 8.20631L5.41124 8.14661L5.2959 7.9248ZM4.75879 7.74219L4.50913 7.72918L4.49542 7.99219H4.75879V7.74219ZM4.93066 2.91895H5.18066V2.66895H4.93066V2.91895ZM3.85645 2.73633L3.99702 2.5296L3.91274 2.47228L3.81241 2.49024L3.85645 2.73633ZM1.18164 3.45605L1.06435 3.67683L1.15799 3.72658L1.25884 3.69384L1.18164 3.45605ZM0.644531 3.27344H0.394531V3.52344H0.644531V3.27344ZM0.644531 2.38184L0.592504 2.13731L0.394531 2.17943V2.38184H0.644531ZM14.4053 10.9541H14.1553V11.0131L14.1817 11.0659L14.4053 10.9541ZM14.5879 11.3193H14.8379V11.2603L14.8115 11.2075L14.5879 11.3193ZM10.6562 12.2109V11.9609H10.5239L10.4495 12.0704L10.6562 12.2109ZM10.291 12.748L10.0843 12.6075L10.0367 12.6774L10.0414 12.7619L10.291 12.748ZM10.8281 16.6797L11.0517 16.7915L11.1104 16.6742L11.0472 16.5592L10.8281 16.6797ZM10.4736 17.3887L10.25 17.2769L10.0691 17.6387H10.4736V17.3887ZM13.6963 20.7939L13.8995 20.9396L13.9491 20.8704L13.9461 20.7853L13.6963 20.7939ZM7.61621 22.5771L7.56655 22.3321L7.36621 22.3727V22.5771H7.61621ZM7.26172 22.7598V22.5098H7.01172V22.7598H7.26172ZM7.26172 22.9316H7.01172V22.958L7.01721 22.9837L7.26172 22.9316ZM15.4795 24.3604L15.6881 24.2226L15.5629 24.0328L15.3621 24.1396L15.4795 24.3604ZM15.834 24.8975L16.0749 24.9642L16.1053 24.8546L16.0426 24.7598L15.834 24.8975ZM14.4053 25.6172H14.6553V25.3189L14.3616 25.371L14.4053 25.6172ZM6.72461 24.3604H6.97461V24.132L6.74724 24.1114L6.72461 24.3604ZM6.1875 23.1143H5.9375V23.133L5.94028 23.1514L6.1875 23.1143ZM12.4395 20.4287L12.4959 20.6722L12.6068 20.6465L12.6602 20.546L12.4395 20.4287ZM12.2568 18.291L12.4855 18.19L12.4039 18.0052L12.206 18.0462L12.2568 18.291ZM6.1875 18.6455H5.9375V18.8955H6.1875V18.6455ZM6.00488 18.4629L5.75789 18.4242L5.71268 18.7129H6.00488V18.4629ZM9.93652 17.5713V17.8213H10.1865V17.5713H9.93652ZM9.93652 17.3887H10.1865V17.1387H9.93652V17.3887ZM9.22754 12.5654L9.47669 12.5449L9.45651 12.3L9.21129 12.316L9.22754 12.5654ZM2.96484 12.3936H2.71484V12.5887L2.90421 12.6361L2.96484 12.3936ZM2.96484 11.8564L2.74124 11.7446L2.71484 11.7974V11.8564H2.96484ZM3.14746 11.4912L3.16565 11.2419L2.99871 11.2297L2.92385 11.3794L3.14746 11.4912ZM5.65039 11.6738L5.6322 11.9232L5.65111 11.9245L5.67002 11.9231L5.65039 11.6738ZM14.4053 10.7822H14.6553V10.4987L14.374 10.5342L14.4053 10.7822ZM11.5104 1.5548C11.6561 1.57687 11.769 1.65503 11.8556 1.82964C11.949 2.01766 12.0068 2.31219 12.0068 2.73633H12.5068C12.5068 2.2796 12.4466 1.89559 12.3035 1.60738C12.1539 1.30575 11.9123 1.10998 11.5853 1.06044L11.5104 1.5548ZM12.0068 2.73633V6.85059H12.5068V2.73633H12.0068ZM12.0068 6.85059C12.0068 6.82207 12.025 6.84685 11.9286 6.91987C11.8383 6.98832 11.6866 7.06779 11.4593 7.15391L11.6364 7.62149C11.8817 7.52856 12.0846 7.429 12.2306 7.31841C12.3705 7.21239 12.5068 7.05814 12.5068 6.85059H12.0068ZM11.7565 7.24998L11.402 6.71288L10.9847 6.9883L11.3392 7.52541L11.7565 7.24998ZM11.4434 6.85059V2.55371H10.9434V6.85059H11.4434ZM11.4434 2.55371C11.4434 2.39508 11.4021 2.23064 11.2762 2.10845C11.1517 1.9876 10.9866 1.94922 10.8281 1.94922V2.44922C10.8695 2.44922 10.8958 2.45433 10.911 2.45924C10.9183 2.4616 10.9226 2.46379 10.9249 2.46511C10.927 2.46636 10.9278 2.46712 10.9279 2.46724C10.928 2.46734 10.9285 2.46778 10.9293 2.46915C10.9302 2.4706 10.932 2.47387 10.9341 2.47982C10.9383 2.4922 10.9434 2.51537 10.9434 2.55371H11.4434ZM10.8281 1.94922H10.1191V2.44922H10.8281V1.94922ZM10.1191 1.94922C9.54356 1.94922 8.57164 2.07121 7.21872 2.30744L7.30472 2.79999C8.65883 2.56355 9.59186 2.44922 10.1191 2.44922V1.94922ZM7.48396 2.43922L7.30135 2.08473L6.85686 2.31371L7.03947 2.6682L7.48396 2.43922ZM7.3291 2.19922V2.0166H6.8291V2.19922H7.3291ZM7.3291 2.0166C7.3291 2.05252 7.29848 2.01181 7.46584 1.93216C7.61944 1.85905 7.8706 1.78966 8.23546 1.73178C8.96017 1.6168 10.0613 1.55762 11.5479 1.55762V1.05762C10.0552 1.05762 8.922 1.1166 8.15712 1.23795C7.77718 1.29823 7.46975 1.37655 7.25096 1.48069C7.04592 1.57827 6.8291 1.74436 6.8291 2.0166H7.3291ZM4.22168 2.09473H4.75879V1.59473H4.22168V2.09473ZM4.75879 2.09473C5.14396 2.09473 5.38617 2.17853 5.53012 2.30263C5.66698 2.42062 5.75488 2.60989 5.75488 2.91895H6.25488C6.25488 2.51186 6.1351 2.16402 5.85659 1.92393C5.58519 1.68996 5.20435 1.59473 4.75879 1.59473V2.09473ZM5.75648 2.89076C5.64133 3.90545 5.58301 4.75 5.58301 5.42188H6.08301C6.08301 4.77604 6.13926 3.95197 6.25329 2.94713L5.75648 2.89076ZM5.58301 5.42188V7.3877H6.08301V5.42188H5.58301ZM5.58301 7.3877C5.58301 7.38155 5.58667 7.40939 5.52195 7.4741C5.45794 7.53811 5.3487 7.61557 5.18056 7.703L5.41124 8.14661C5.60117 8.04784 5.76048 7.94268 5.87551 7.82766C5.98983 7.71333 6.08301 7.56572 6.08301 7.3877H5.58301ZM5.41039 7.70256C5.1711 7.57929 4.94544 7.49219 4.75879 7.49219V7.99219C4.81563 7.99219 4.94804 8.02683 5.18141 8.14705L5.41039 7.70256ZM5.00845 7.7552C5.12306 5.55608 5.18066 3.94282 5.18066 2.91895H4.68066C4.68066 3.92893 4.62368 5.53116 4.50913 7.72918L5.00845 7.7552ZM4.93066 2.66895C4.67017 2.66895 4.46151 2.65408 4.30118 2.62683C4.13666 2.59886 4.04332 2.56108 3.99702 2.5296L3.71587 2.94306C3.84861 3.03332 4.02382 3.08685 4.21738 3.11976C4.41511 3.15337 4.65405 3.16895 4.93066 3.16895V2.66895ZM3.81241 2.49024C3.11586 2.61488 2.21195 2.85869 1.10444 3.21827L1.25884 3.69384C2.35706 3.33727 3.23636 3.10126 3.90048 2.98242L3.81241 2.49024ZM1.29893 3.23528C1.06322 3.11005 0.838198 3.02344 0.644531 3.02344V3.52344C0.708677 3.52344 0.841729 3.55857 1.06435 3.67683L1.29893 3.23528ZM0.894531 3.27344V2.38184H0.394531V3.27344H0.894531ZM0.696558 2.62636C2.37993 2.2682 3.54904 2.09473 4.22168 2.09473V1.59473C3.49067 1.59473 2.27501 1.77933 0.592504 2.13731L0.696558 2.62636ZM14.1817 11.0659L14.3643 11.4311L14.8115 11.2075L14.6289 10.8423L14.1817 11.0659ZM14.3379 11.3193C14.3379 11.3588 14.3221 11.4207 14.2015 11.5027C14.0755 11.5884 13.865 11.6727 13.5497 11.7442C12.9225 11.8865 11.9622 11.9609 10.6562 11.9609V12.4609C11.9714 12.4609 12.977 12.3868 13.6603 12.2318C14.0002 12.1548 14.2812 12.0533 14.4828 11.9161C14.6898 11.7752 14.8379 11.5771 14.8379 11.3193H14.3379ZM10.4495 12.0704L10.0843 12.6075L10.4977 12.8886L10.863 12.3515L10.4495 12.0704ZM10.0414 12.7619C10.1024 13.8606 10.1781 14.7436 10.2689 15.4083C10.3143 15.7407 10.364 16.022 10.4185 16.2503C10.4721 16.4749 10.5337 16.6632 10.6091 16.8002L11.0472 16.5592C11.0044 16.4813 10.955 16.3447 10.9048 16.1342C10.8554 15.9275 10.8084 15.6636 10.7643 15.3407C10.6761 14.6949 10.6013 13.8269 10.5406 12.7342L10.0414 12.7619ZM10.6045 16.5679L10.25 17.2769L10.6972 17.5005L11.0517 16.7915L10.6045 16.5679ZM10.4736 17.6387H12.7939V17.1387H10.4736V17.6387ZM12.7939 17.6387C12.8188 17.6387 12.8687 17.6472 12.9421 17.7483C13.0187 17.854 13.0981 18.0327 13.17 18.304C13.313 18.8437 13.4072 19.6723 13.4464 20.8026L13.9461 20.7853C13.9066 19.6454 13.8111 18.7714 13.6533 18.176C13.5748 17.8797 13.476 17.6328 13.3468 17.4547C13.2143 17.2721 13.0304 17.1387 12.7939 17.1387V17.6387ZM13.4931 20.6483C13.4814 20.6647 13.4464 20.7006 13.3657 20.7521C13.2881 20.8016 13.1816 20.8572 13.0426 20.9182C12.7648 21.04 12.3771 21.1748 11.875 21.3221C10.8718 21.6163 9.4369 21.9531 7.56655 22.3321L7.66587 22.8222C9.54096 22.4421 10.9921 22.1021 12.0157 21.8019C12.5269 21.652 12.9376 21.5102 13.2435 21.376C13.3964 21.309 13.528 21.2417 13.6348 21.1735C13.7385 21.1073 13.8342 21.0307 13.8995 20.9396L13.4931 20.6483ZM7.36621 22.5771C7.36621 22.5653 7.3697 22.5436 7.38416 22.5212C7.39784 22.5001 7.41241 22.4922 7.4131 22.4919C7.41327 22.4918 7.41056 22.4932 7.40391 22.4952C7.39728 22.4973 7.38767 22.4997 7.3745 22.502C7.34772 22.5066 7.31075 22.5098 7.26172 22.5098V23.0098C7.39323 23.0098 7.52982 22.9942 7.64208 22.9364C7.70184 22.9056 7.76072 22.8597 7.80395 22.7929C7.84795 22.7249 7.86621 22.6498 7.86621 22.5771H7.36621ZM7.01172 22.7598V22.9316H7.51172V22.7598H7.01172ZM7.01721 22.9837C7.16078 23.6574 7.37521 24.1926 7.67747 24.5639C7.98776 24.9449 8.38719 25.1475 8.8623 25.1475V24.6475C8.54966 24.6475 8.28844 24.5223 8.0652 24.2482C7.83394 23.9641 7.64196 23.5164 7.50623 22.8795L7.01721 22.9837ZM8.8623 25.1475H10.8281V24.6475H8.8623V25.1475ZM10.8281 25.1475C12.0469 25.1475 13.052 25.1026 13.8404 25.0115C14.6211 24.9214 15.2166 24.7833 15.5969 24.5811L15.3621 24.1396C15.0692 24.2954 14.5529 24.4259 13.7831 24.5148C13.0211 24.6028 12.037 24.6475 10.8281 24.6475V25.1475ZM15.2708 24.4981L15.6253 25.0352L16.0426 24.7598L15.6881 24.2226L15.2708 24.4981ZM15.5931 24.8307C15.5227 25.0847 15.4055 25.254 15.2535 25.3628C15.0995 25.473 14.8845 25.5391 14.5879 25.5391V26.0391C14.9573 26.0391 15.283 25.9565 15.5444 25.7695C15.8077 25.5811 15.9806 25.3047 16.0749 24.9642L15.5931 24.8307ZM14.5879 25.5391C14.5619 25.5391 14.5889 25.5327 14.6223 25.564C14.6585 25.5981 14.6553 25.6319 14.6553 25.6172H14.1553C14.1553 25.717 14.1825 25.8368 14.2796 25.9281C14.3738 26.0168 14.4921 26.0391 14.5879 26.0391V25.5391ZM14.3616 25.371C13.0475 25.6042 11.5158 25.7217 9.76465 25.7217V26.2217C11.5369 26.2217 13.0989 26.1029 14.4489 25.8633L14.3616 25.371ZM9.76465 25.7217C8.76523 25.7217 8.05433 25.5879 7.6017 25.348C7.3791 25.23 7.22527 25.0897 7.12624 24.9322C7.02776 24.7756 6.97461 24.588 6.97461 24.3604H6.47461C6.47461 24.6698 6.54812 24.9522 6.70298 25.1984C6.85729 25.4438 7.08347 25.6392 7.36754 25.7897C7.92826 26.0869 8.73737 26.2217 9.76465 26.2217V25.7217ZM6.74724 24.1114C6.77988 24.1143 6.72823 24.1323 6.64267 23.9338C6.56591 23.7557 6.49452 23.4746 6.43472 23.0771L5.94028 23.1514C6.00222 23.5632 6.08123 23.8944 6.18351 24.1317C6.27698 24.3485 6.43301 24.5849 6.70198 24.6093L6.74724 24.1114ZM6.4375 23.1143V22.5771H5.9375V23.1143H6.4375ZM6.4375 22.5771C6.4375 22.6145 6.41783 22.6124 6.46317 22.5664C6.50527 22.5237 6.58069 22.467 6.70156 22.3985C6.94185 22.2623 7.31536 22.1048 7.83174 21.9273C8.86123 21.5736 10.4141 21.1551 12.4959 20.6722L12.383 20.1852C10.2968 20.6691 8.72374 21.0921 7.66924 21.4545C7.14362 21.6351 6.73564 21.8044 6.45494 21.9636C6.31531 22.0427 6.19535 22.1259 6.10721 22.2153C6.02229 22.3014 5.9375 22.4234 5.9375 22.5771H6.4375ZM12.6602 20.546C12.7855 20.3103 12.8721 20.0853 12.8721 19.8916H12.3721C12.3721 19.9557 12.3369 20.0888 12.2187 20.3114L12.6602 20.546ZM12.8721 19.8916C12.8721 19.3358 12.7407 18.768 12.4855 18.19L12.0281 18.392C12.2599 18.9169 12.3721 19.4161 12.3721 19.8916H12.8721ZM12.206 18.0462C11.0954 18.2767 9.09587 18.3955 6.1875 18.3955V18.8955C9.09423 18.8955 11.1409 18.7779 12.3076 18.5358L12.206 18.0462ZM6.4375 18.6455C6.4375 18.5461 6.41248 18.4256 6.31862 18.3318C6.22477 18.2379 6.10429 18.2129 6.00488 18.2129V18.7129C6.02722 18.7129 5.99805 18.7183 5.96507 18.6853C5.93209 18.6523 5.9375 18.6232 5.9375 18.6455H6.4375ZM6.25187 18.5016C6.26026 18.448 6.29811 18.3721 6.43702 18.2838C6.57803 18.1943 6.79818 18.1094 7.11291 18.038C7.74055 17.8957 8.67789 17.8213 9.93652 17.8213V17.3213C8.66716 17.3213 7.68523 17.3955 7.00233 17.5504C6.66178 17.6276 6.37884 17.7285 6.16893 17.8618C5.95693 17.9965 5.79606 18.1805 5.75789 18.4242L6.25187 18.5016ZM10.1865 17.5713V17.3887H9.68652V17.5713H10.1865ZM9.93652 17.1387C10.0097 17.1387 10.0552 17.175 10.0696 17.1887C10.0834 17.2019 10.0849 17.2087 10.0778 17.1955C10.064 17.1697 10.0425 17.1154 10.0164 17.0207C9.96509 16.835 9.90956 16.5459 9.85086 16.1465C9.73389 15.3508 9.60908 14.1514 9.47669 12.5449L8.97838 12.586C9.11097 14.1949 9.23681 15.4072 9.35617 16.2192C9.41563 16.6237 9.47469 16.9375 9.53441 17.1538C9.56374 17.26 9.59686 17.3564 9.63682 17.4312C9.65658 17.4681 9.6847 17.5127 9.72494 17.551C9.76573 17.5898 9.83736 17.6387 9.93652 17.6387V17.1387ZM9.21129 12.316C7.3429 12.4377 5.97833 12.498 5.11328 12.498V12.998C5.99563 12.998 7.37389 12.9367 9.24379 12.8149L9.21129 12.316ZM5.11328 12.498C4.65822 12.498 3.96656 12.3863 3.02548 12.151L2.90421 12.6361C3.85376 12.8735 4.59438 12.998 5.11328 12.998V12.498ZM3.21484 12.3936V11.8564H2.71484V12.3936H3.21484ZM3.18845 11.9682L3.37107 11.603L2.92385 11.3794L2.74124 11.7446L3.18845 11.9682ZM3.12927 11.7405L5.6322 11.9232L5.66858 11.4245L3.16565 11.2419L3.12927 11.7405ZM5.67002 11.9231C8.67437 11.6864 11.5966 11.3888 14.4366 11.0303L14.374 10.5342C11.5421 10.8918 8.62771 11.1886 5.63076 11.4246L5.67002 11.9231ZM14.1553 10.7822V10.9541H14.6553V10.7822H14.1553ZM18.1211 3.62793V3.37793H17.8711V3.62793H18.1211ZM19.1953 7.20508L18.9463 7.22751L18.9693 7.48312L19.2243 7.4534L19.1953 7.20508ZM22.2354 6.85059L22.3561 6.63169L22.286 6.59299L22.2064 6.60227L22.2354 6.85059ZM22.9443 7.02246V7.27246H23.1943V7.02246H22.9443ZM22.7725 3.98242L22.6634 3.75747L22.5069 3.83333L22.5236 4.00641L22.7725 3.98242ZM23.127 3.81055V3.56055H23.0695L23.0179 3.58559L23.127 3.81055ZM23.3096 3.81055L23.3858 3.57244L23.3486 3.56055H23.3096V3.81055ZM22.9443 11.4912V11.7412H22.9917L23.0357 11.7239L22.9443 11.4912ZM19.1953 11.8457L18.9681 11.9499L19.0494 12.1272L19.2411 12.0915L19.1953 11.8457ZM17.9492 3.81055V3.56055H17.6992V3.81055H17.9492ZM22.418 7.91406V8.16406H22.4754L22.527 8.13902L22.418 7.91406ZM19.3779 8.81641L19.1309 8.77817L19.1256 8.81216L19.1297 8.84631L19.3779 8.81641ZM22.9443 7.91406L23.1892 7.96426L23.2508 7.66406H22.9443V7.91406ZM22.7725 7.74219H23.0225V7.34314L22.6634 7.51723L22.7725 7.74219ZM20.2695 13.6396L20.5167 13.6022L20.4706 13.2978L20.1821 13.4054L20.2695 13.6396ZM20.624 13.9941L20.8699 14.0394L20.9242 13.7441H20.624V13.9941ZM20.8066 17.9258L20.5603 17.9683L20.5984 18.1891L20.8221 18.1753L20.8066 17.9258ZM25.4473 17.7432L25.4836 17.4958L25.4655 17.4932H25.4473V17.7432ZM25.8125 18.4629L26.0192 18.6035L26.0625 18.5398V18.4629H25.8125ZM25.4473 19V19.25H25.5796L25.654 19.1406L25.4473 19ZM24.373 18.8174L24.5136 18.6107L24.443 18.5627L24.3578 18.5678L24.373 18.8174ZM16.3379 18.2803L16.1012 18.1998L16.0879 18.2389V18.2803H16.3379ZM18.1211 17.7432L18.157 17.4958L18.1392 17.4932H18.1211V17.7432ZM19.3779 17.9258L19.342 18.1732L19.5231 18.1995L19.6029 18.0348L19.3779 17.9258ZM19.5498 17.5713L19.7748 17.6804L19.7998 17.6287V17.5713H19.5498ZM18.1211 3.87793C18.1334 3.87793 18.1839 3.88181 18.2674 3.99767C18.3511 4.11385 18.4399 4.30685 18.5262 4.59412C18.6978 5.16554 18.8393 6.03954 18.9463 7.22751L19.4443 7.18265C19.3365 5.98585 19.1915 5.07127 19.0051 4.45031C18.9123 4.14139 18.8041 3.88725 18.673 3.70533C18.5417 3.52309 18.3594 3.37793 18.1211 3.37793V3.87793ZM19.2243 7.4534L22.2643 7.0989L22.2064 6.60227L19.1664 6.95676L19.2243 7.4534ZM22.1146 7.06948C22.3634 7.20677 22.6422 7.27246 22.9443 7.27246V6.77246C22.7166 6.77246 22.5226 6.72357 22.3561 6.63169L22.1146 7.06948ZM23.1943 7.02246V6.66797H22.6943V7.02246H23.1943ZM23.1943 6.66797C23.1943 6.05398 23.1361 5.14907 23.0213 3.95844L22.5236 4.00641C22.638 5.19338 22.6943 6.07884 22.6943 6.66797H23.1943ZM22.8815 4.20738L23.236 4.0355L23.0179 3.58559L22.6634 3.75747L22.8815 4.20738ZM23.127 4.06055H23.3096V3.56055H23.127V4.06055ZM23.2334 4.04865C23.4301 4.1116 23.5967 4.31551 23.5967 4.88477H24.0967C24.0967 4.2509 23.9052 3.73866 23.3858 3.57244L23.2334 4.04865ZM23.5967 4.88477V6.66797H24.0967V4.88477H23.5967ZM23.5967 6.66797C23.5967 8.15248 23.5215 9.28106 23.3754 10.0622C23.3022 10.4534 23.2134 10.745 23.1146 10.9469C23.0138 11.1528 22.9192 11.2325 22.8529 11.2585L23.0357 11.7239C23.2703 11.6318 23.4388 11.4219 23.5637 11.1667C23.6904 10.9076 23.7896 10.5668 23.8668 10.1541C24.0215 9.32751 24.0967 8.16263 24.0967 6.66797H23.5967ZM22.9443 11.2412H21.6982V11.7412H22.9443V11.2412ZM21.6982 11.2412C21.2699 11.2412 20.412 11.3646 19.1495 11.5999L19.2411 12.0915C20.5138 11.8542 21.3245 11.7412 21.6982 11.7412V11.2412ZM19.4226 11.7415C18.6143 9.97864 18.1992 7.34325 18.1992 3.81055H17.6992C17.6992 7.36768 18.1149 10.0891 18.9681 11.9499L19.4226 11.7415ZM17.9492 4.06055C18.0491 4.06055 18.1688 4.0333 18.2602 3.93623C18.3489 3.84201 18.3711 3.72369 18.3711 3.62793H17.8711C17.8711 3.65391 17.8647 3.6269 17.8961 3.59355C17.9301 3.55736 17.964 3.56055 17.9492 3.56055V4.06055ZM22.418 7.66406H20.8066V8.16406H22.418V7.66406ZM20.8066 7.66406C20.3527 7.66406 19.9653 7.74267 19.6714 7.92828C19.3669 8.12064 19.1875 8.41249 19.1309 8.77817L19.625 8.85464C19.6615 8.61876 19.7668 8.45944 19.9384 8.35102C20.1208 8.23585 20.4012 8.16406 20.8066 8.16406V7.66406ZM19.1297 8.84631C19.2021 9.44697 19.3 9.91848 19.4303 10.2462C19.4953 10.4097 19.5747 10.5538 19.6762 10.6605C19.7818 10.7714 19.9201 10.8496 20.0869 10.8496V10.3496C20.0848 10.3496 20.0823 10.3495 20.0769 10.3468C20.0705 10.3437 20.0572 10.3356 20.0384 10.3158C19.9985 10.2739 19.9481 10.1951 19.8949 10.0614C19.7889 9.79474 19.697 9.37464 19.6261 8.7865L19.1297 8.84631ZM20.0869 10.8496C20.9273 10.8496 21.5815 10.7898 22.0332 10.6599C22.2586 10.5951 22.4538 10.5073 22.5967 10.3841C22.747 10.2544 22.8398 10.0837 22.8398 9.87988H22.3398C22.3398 9.91595 22.3284 9.95517 22.2701 10.0055C22.2044 10.0621 22.0867 10.1243 21.895 10.1794C21.5124 10.2894 20.9152 10.3496 20.0869 10.3496V10.8496ZM22.8398 9.87988C22.8398 9.82874 22.8638 9.65138 22.9245 9.31463C22.9831 8.98987 23.0712 8.54004 23.1892 7.96426L22.6994 7.86386C22.5811 8.44108 22.492 8.89538 22.4324 9.2259C22.375 9.54442 22.3398 9.77347 22.3398 9.87988H22.8398ZM22.9443 7.66406C22.9256 7.66406 22.9574 7.65954 22.9922 7.69432C23.027 7.72909 23.0225 7.76094 23.0225 7.74219H22.5225C22.5225 7.83802 22.5466 7.9558 22.6387 8.04787C22.7307 8.13994 22.8485 8.16406 22.9443 8.16406V7.66406ZM22.6634 7.51723L22.3089 7.68911L22.527 8.13902L22.8815 7.96714L22.6634 7.51723ZM20.0224 13.6771C20.0449 13.8261 20.0983 13.9723 20.2082 14.0823C20.3234 14.1974 20.4716 14.2441 20.624 14.2441V13.7441C20.5759 13.7441 20.5648 13.7318 20.5618 13.7287C20.5536 13.7205 20.5299 13.6895 20.5167 13.6022L20.0224 13.6771ZM20.3781 13.9489C20.3207 14.2612 20.2774 14.5086 20.2483 14.6905C20.2207 14.8625 20.2021 14.9975 20.2021 15.0684H20.7021C20.7021 15.0686 20.7022 15.0667 20.7024 15.062C20.7027 15.0574 20.7031 15.0513 20.7038 15.0434C20.7053 15.0275 20.7076 15.0067 20.7109 14.9803C20.7176 14.9277 20.7279 14.8577 20.742 14.7695C20.7702 14.5933 20.8127 14.3502 20.8699 14.0394L20.3781 13.9489ZM20.2021 15.0684C20.2021 15.6296 20.3242 16.6017 20.5603 17.9683L21.053 17.8832C20.8165 16.5142 20.7021 15.5813 20.7021 15.0684H20.2021ZM20.8221 18.1753C22.7902 18.0536 24.2736 17.9932 25.2754 17.9932V17.4932C24.2577 17.4932 22.7619 17.5544 20.7912 17.6763L20.8221 18.1753ZM25.2754 17.9932H25.4473V17.4932H25.2754V17.9932ZM25.4109 17.9905C25.5031 18.0041 25.5374 18.0286 25.5471 18.038C25.5507 18.0415 25.5625 18.0517 25.5625 18.0977H26.0625C26.0625 17.9431 26.0135 17.7939 25.8953 17.6792C25.7833 17.5705 25.6349 17.5181 25.4836 17.4958L25.4109 17.9905ZM25.5625 18.0977V18.4629H26.0625V18.0977H25.5625ZM25.6058 18.3223L25.2405 18.8594L25.654 19.1406L26.0192 18.6035L25.6058 18.3223ZM25.4473 18.75C25.1868 18.75 24.9781 18.7351 24.8178 18.7079C24.6533 18.6799 24.5599 18.6421 24.5136 18.6107L24.2325 19.0241C24.3652 19.1144 24.5404 19.1679 24.734 19.2008C24.9317 19.2344 25.1706 19.25 25.4473 19.25V18.75ZM24.3578 18.5678C22.3615 18.6895 20.8205 18.75 19.7324 18.75V19.25C20.8357 19.25 22.3885 19.1888 24.3883 19.0669L24.3578 18.5678ZM19.7324 18.75H16.6924V19.25H19.7324V18.75ZM16.6924 18.75C16.654 18.75 16.6309 18.745 16.6185 18.7407C16.6125 18.7387 16.6093 18.7369 16.6078 18.736C16.6064 18.7351 16.606 18.7347 16.6059 18.7346C16.6058 18.7345 16.605 18.7337 16.6038 18.7315C16.6025 18.7293 16.6003 18.7249 16.5979 18.7176C16.593 18.7024 16.5879 18.6762 16.5879 18.6348H16.0879C16.0879 18.7932 16.1263 18.9583 16.2471 19.0828C16.3693 19.2087 16.5338 19.25 16.6924 19.25V18.75ZM16.5879 18.6348V18.2803H16.0879V18.6348H16.5879ZM16.5746 18.3607C16.6434 18.1583 16.8532 17.9932 17.4121 17.9932V17.4932C16.7822 17.4932 16.2759 17.6861 16.1012 18.1998L16.5746 18.3607ZM17.4121 17.9932H18.1211V17.4932H17.4121V17.9932ZM18.0851 17.9906L19.342 18.1732L19.4139 17.6784L18.157 17.4958L18.0851 17.9906ZM19.6029 18.0348L19.7748 17.6804L19.3249 17.4622L19.153 17.8167L19.6029 18.0348ZM19.7998 17.5713V14.166H19.2998V17.5713H19.7998ZM19.7998 14.166C19.7998 14.2034 19.7758 14.1816 19.8773 14.1073C19.9702 14.0394 20.1254 13.9603 20.3569 13.8739L20.1821 13.4054C19.9339 13.4981 19.7292 13.5962 19.5822 13.7037C19.4438 13.8049 19.2998 13.9568 19.2998 14.166H19.7998ZM36.5107 2.0166V1.7666H36.3562L36.2871 1.9048L36.5107 2.0166ZM37.7676 7.55957L37.5177 7.56877L37.5186 7.59155L37.5235 7.6138L37.7676 7.55957ZM38.6592 9.87988V10.1299H38.6701L38.6811 10.1289L38.6592 9.87988ZM42.9453 9.34277L43.1676 9.22828L43.0849 9.06785L42.9066 9.09579L42.9453 9.34277ZM43.1279 9.87988L43.3622 9.96728L43.3779 9.925V9.87988H43.1279ZM42.5908 10.5996V10.3496H42.5835L42.5762 10.35L42.5908 10.5996ZM38.6592 10.7822V10.5322H38.4092V10.7822H38.6592ZM38.2939 11.1367V10.8867H38.0136L38.0456 11.1653L38.2939 11.1367ZM39.0137 17.3994L39.1514 17.6081L39.2796 17.5235L39.262 17.3709L39.0137 17.3994ZM38.4766 17.7539V18.0039H38.5516L38.6143 17.9626L38.4766 17.7539ZM37.2305 8.98828L37.4797 8.96813L37.4777 8.94398L37.4711 8.92065L37.2305 8.98828ZM36.3281 2.72559L36.5767 2.69869L36.5525 2.47559H36.3281V2.72559ZM36.1562 2.72559L35.9326 2.61378L35.7517 2.97559H36.1562V2.72559ZM33.6533 4.33691H33.9033V4.08691H33.6533V4.33691ZM32.9336 5.41113L32.8163 5.63191L32.9293 5.69193L33.0441 5.63541L32.9336 5.41113ZM32.042 5.41113L31.9966 5.65697L32.292 5.71156V5.41113H32.042ZM27.9277 6.13086H27.6777V6.14508L27.6793 6.1592L27.9277 6.13086ZM29.5391 11.3086L29.5619 11.0596L29.5505 11.0586H29.5391V11.3086ZM33.1162 11.4912V11.7412H33.1344L33.1525 11.7386L33.1162 11.4912ZM34.3623 11.3086L34.5859 11.1968L34.505 11.035L34.3261 11.0612L34.3623 11.3086ZM34.5449 11.6738H34.7949V11.6148L34.7685 11.562L34.5449 11.6738ZM27.9277 11.3086H28.1777V11.2843L28.1731 11.2605L27.9277 11.3086ZM26.499 5.22852L26.7144 5.10159L26.6419 4.97852H26.499V5.22852ZM26.3164 5.22852H26.0664V5.47852H26.3164V5.22852ZM36.5107 2.2666C36.5582 2.2666 36.6495 2.29349 36.7703 2.4927C36.8897 2.68957 37.005 3.00533 37.1075 3.45763C37.3117 4.35807 37.4499 5.72494 37.5177 7.56877L38.0174 7.55037C37.9492 5.69889 37.8099 4.29427 37.5951 3.34706C37.4882 2.87553 37.3586 2.49842 37.1978 2.23338C37.0385 1.97067 36.8142 1.7666 36.5107 1.7666V2.2666ZM37.5235 7.6138C37.6961 8.39053 37.8595 8.98511 38.0149 9.38948C38.092 9.59011 38.1722 9.75762 38.2585 9.87937C38.3344 9.98665 38.4654 10.1299 38.6592 10.1299V9.62988C38.7276 9.62988 38.7274 9.67643 38.6665 9.59036C38.6157 9.51874 38.5532 9.39622 38.4817 9.21013C38.3398 8.84106 38.1828 8.27549 38.0116 7.50534L37.5235 7.6138ZM38.6811 10.1289C39.9911 10.0138 41.4255 9.83396 42.984 9.58976L42.9066 9.09579C41.3571 9.33857 39.9341 9.51684 38.6373 9.63084L38.6811 10.1289ZM42.7231 9.45726C42.8433 9.69063 42.8779 9.82305 42.8779 9.87988H43.3779C43.3779 9.69323 43.2908 9.46757 43.1676 9.22828L42.7231 9.45726ZM42.8937 9.79249C42.8075 10.0236 42.7278 10.178 42.659 10.2702C42.5853 10.369 42.5606 10.3496 42.5908 10.3496V10.8496C42.8001 10.8496 42.9544 10.7103 43.0597 10.5692C43.17 10.4215 43.2693 10.216 43.3622 9.96728L42.8937 9.79249ZM42.5762 10.35C40.4897 10.4719 39.1874 10.5322 38.6592 10.5322V11.0322C39.2052 11.0322 40.524 10.9708 42.6054 10.8492L42.5762 10.35ZM38.4092 10.7822C38.4092 10.8206 38.4042 10.8437 38.3999 10.8561C38.3979 10.8621 38.3961 10.8653 38.3952 10.8668C38.3943 10.8682 38.3939 10.8686 38.3938 10.8687C38.3936 10.8688 38.3929 10.8696 38.3907 10.8708C38.3884 10.8721 38.3841 10.8743 38.3768 10.8767C38.3616 10.8816 38.3354 10.8867 38.2939 10.8867V11.3867C38.4524 11.3867 38.6175 11.3483 38.742 11.2275C38.8679 11.1053 38.9092 10.9409 38.9092 10.7822H38.4092ZM38.0456 11.1653L38.7653 17.428L39.262 17.3709L38.5423 11.1082L38.0456 11.1653ZM38.876 17.1908L38.3389 17.5453L38.6143 17.9626L39.1514 17.6081L38.876 17.1908ZM38.4766 17.5039C38.545 17.5039 38.5823 17.5396 38.5855 17.5429C38.5888 17.5462 38.5798 17.5377 38.5623 17.5034C38.5279 17.4359 38.4859 17.3193 38.4389 17.1421C38.3461 16.7915 38.2475 16.2554 38.144 15.5273C37.9374 14.0741 37.7159 11.8888 37.4797 8.96813L36.9813 9.00844C37.2177 11.9315 37.4402 14.129 37.649 15.5977C37.7532 16.3306 37.855 16.8902 37.9556 17.27C38.0054 17.458 38.0582 17.6153 38.1169 17.7305C38.1459 17.7875 38.183 17.8475 38.232 17.8964C38.2809 17.9453 38.3633 18.0039 38.4766 18.0039V17.5039ZM37.4711 8.92065C37.2345 8.07842 36.9355 6.01395 36.5767 2.69869L36.0796 2.75249C36.4369 6.05441 36.7395 8.16507 36.9898 9.05591L37.4711 8.92065ZM36.3281 2.47559H36.1562V2.97559H36.3281V2.47559ZM36.3799 2.83739L36.7343 2.1284L36.2871 1.9048L35.9326 2.61378L36.3799 2.83739ZM31.6768 4.58691H33.6533V4.08691H31.6768V4.58691ZM33.4033 4.33691V4.87402H33.9033V4.33691H33.4033ZM33.4033 4.87402C33.4033 4.82322 33.4268 4.80278 33.4129 4.82018C33.4015 4.83449 33.3751 4.86104 33.3239 4.89925C33.2222 4.97516 33.0582 5.07107 32.8231 5.18686L33.0441 5.63541C33.2888 5.51486 33.4847 5.4031 33.6229 5.29997C33.6917 5.24866 33.7552 5.19285 33.8038 5.13196C33.8499 5.07417 33.9033 4.9857 33.9033 4.87402H33.4033ZM33.0509 5.19035C32.8152 5.06513 32.5902 4.97852 32.3965 4.97852V5.47852C32.4606 5.47852 32.5937 5.51364 32.8163 5.63191L33.0509 5.19035ZM32.3965 4.97852C32.265 4.97852 32.1284 4.9941 32.0161 5.05193C31.9564 5.08272 31.8975 5.12863 31.8543 5.19543C31.8103 5.26343 31.792 5.33845 31.792 5.41113H32.292C32.292 5.42294 32.2885 5.4447 32.274 5.46705C32.2604 5.4882 32.2458 5.49606 32.2451 5.49641C32.2449 5.4965 32.2476 5.4951 32.2543 5.49305C32.2609 5.491 32.2705 5.48858 32.2837 5.48632C32.3105 5.48172 32.3475 5.47852 32.3965 5.47852V4.97852ZM32.0874 5.16529C31.4277 5.04338 30.9318 4.97852 30.6133 4.97852V5.47852C30.882 5.47852 31.3386 5.5354 31.9966 5.65697L32.0874 5.16529ZM30.6133 4.97852C29.7141 4.97852 29.0227 5.02313 28.5501 5.11765C28.316 5.16447 28.1152 5.2273 27.967 5.31627C27.8174 5.406 27.6777 5.55185 27.6777 5.76562H28.1777C28.1777 5.80036 28.15 5.78956 28.2242 5.74501C28.2997 5.69971 28.4347 5.65063 28.6481 5.60794C29.0708 5.52342 29.7221 5.47852 30.6133 5.47852V4.97852ZM27.6777 5.76562V6.13086H28.1777V5.76562H27.6777ZM27.6793 6.1592C27.8768 7.88924 28.1116 9.2025 28.3873 10.0884C28.5246 10.5298 28.6772 10.8821 28.8514 11.1291C29.0237 11.3733 29.2504 11.5586 29.5391 11.5586V11.0586C29.4876 11.0586 29.392 11.0281 29.26 10.8409C29.1298 10.6564 28.9959 10.3615 28.8647 9.93987C28.6033 9.09991 28.3726 7.8243 28.1761 6.10252L27.6793 6.1592ZM29.5162 11.5575C30.8468 11.6798 32.047 11.7412 33.1162 11.7412V11.2412C32.0656 11.2412 30.881 11.1809 29.5619 11.0596L29.5162 11.5575ZM33.1525 11.7386L34.3986 11.556L34.3261 11.0612L33.08 11.2439L33.1525 11.7386ZM34.1387 11.4204L34.3213 11.7856L34.7685 11.562L34.5859 11.1968L34.1387 11.4204ZM34.2949 11.6738V12.2109H34.7949V11.6738H34.2949ZM34.2949 12.2109C34.2949 12.2499 34.29 12.2739 34.2856 12.287C34.2835 12.2933 34.2816 12.2968 34.2807 12.2983C34.2802 12.2991 34.2799 12.2996 34.2797 12.2998C34.2797 12.2999 34.2796 12.2999 34.2796 12.3C34.2795 12.3 34.2795 12.3 34.2795 12.3C34.2795 12.3 34.2795 12.3001 34.2795 12.3001C34.2794 12.3001 34.2794 12.3002 34.2793 12.3002C34.2791 12.3004 34.2786 12.3007 34.2778 12.3012C34.2763 12.3021 34.2728 12.304 34.2665 12.3061C34.2534 12.3105 34.2294 12.3154 34.1904 12.3154V12.8154C34.3471 12.8154 34.5106 12.7761 34.6331 12.6536C34.7556 12.5311 34.7949 12.3676 34.7949 12.2109H34.2949ZM34.1904 12.3154C32.1068 12.3154 30.5613 12.2106 29.5426 12.0061C29.0311 11.9035 28.6726 11.7795 28.4481 11.6443C28.225 11.51 28.1777 11.3942 28.1777 11.3086H27.6777C27.6777 11.6419 27.8914 11.8927 28.1902 12.0726C28.4876 12.2517 28.9119 12.3895 29.4442 12.4963C30.5131 12.7108 32.0989 12.8154 34.1904 12.8154V12.3154ZM28.1731 11.2605C27.8148 9.43324 27.516 8.00995 27.2768 6.99213C27.1573 6.48345 27.052 6.07341 26.9611 5.7637C26.8729 5.46317 26.7915 5.23236 26.7144 5.10159L26.2836 5.35544C26.3247 5.4252 26.3914 5.59811 26.4814 5.90451C26.5686 6.20173 26.6715 6.60184 26.7901 7.1065C27.0271 8.11537 27.3245 9.5316 27.6824 11.3567L28.1731 11.2605ZM26.499 4.97852H26.3164V5.47852H26.499V4.97852ZM26.5664 5.22852C26.5664 5.22778 26.5633 5.16182 26.7631 5.06214C26.9529 4.96738 27.2588 4.87939 27.6975 4.80643C28.5699 4.66132 29.8932 4.58691 31.6768 4.58691V4.08691C29.8867 4.08691 28.5299 4.16111 27.6155 4.3132C27.1607 4.38884 26.7966 4.4866 26.5398 4.61474C26.2929 4.73796 26.0664 4.93205 26.0664 5.22852H26.5664ZM57.3164 1.84473H57.5664V1.76603L57.5213 1.70153L57.3164 1.84473ZM57.3164 2.02734L57.5628 2.06938L57.5664 2.04851V2.02734H57.3164ZM55.3506 5.23926L55.3117 5.48622L55.331 5.48926H55.3506V5.23926ZM52.4824 2.55371L52.2351 2.51719L52.2324 2.53535V2.55371H52.4824ZM54.4482 1.84473V1.59473H54.1982V1.84473H54.4482ZM53.5566 3.09082L53.4416 2.86884L53.3066 2.93878V3.09082H53.5566ZM53.5566 3.27344H53.3066V3.33435L53.3347 3.38844L53.5566 3.27344ZM56.4141 2.19922L56.6562 2.26141L56.7005 2.08876L56.5518 1.99057L56.4141 2.19922ZM55.877 1.84473L56.0147 1.63607L55.952 1.59473H55.877V1.84473ZM61.6025 1.66211L61.7431 1.45538L61.6197 1.37143L61.4872 1.44031L61.6025 1.66211ZM62.1396 2.02734L62.3883 2.05281L62.4035 1.90447L62.2802 1.82061L62.1396 2.02734ZM61.957 3.81055L61.7083 3.78508L61.707 3.79778V3.81055H61.957ZM62.1396 6.85059L62.3807 6.91669L62.3962 6.86044L62.3851 6.80317L62.1396 6.85059ZM61.957 8.98828H61.707V9.00938L61.7106 9.03018L61.957 8.98828ZM62.1396 10.0625L62.3533 10.1922L62.4017 10.1125L62.3861 10.0206L62.1396 10.0625ZM62.3115 12.2109L62.5453 12.2995L62.6736 11.9609H62.3115V12.2109ZM61.6025 12.9199L61.5535 13.1651L61.5778 13.1699H61.6025V12.9199ZM61.248 10.0625L61.4459 10.2154L61.5146 10.1265L61.4937 10.0161L61.248 10.0625ZM61.0654 6.66797H61.3154V6.3618L61.0154 6.42302L61.0654 6.66797ZM57.8428 7.20508L57.6178 7.31415L57.6861 7.45508H57.8428V7.20508ZM57.6709 6.85059H57.4209V6.908L57.4459 6.95965L57.6709 6.85059ZM60.7109 5.59375L60.7644 5.83796L60.9609 5.79491V5.59375H60.7109ZM61.0654 5.42188V5.67188H61.3154V5.42188H61.0654ZM64.8145 2.38184L64.9209 2.15563L64.8703 2.13184H64.8145V2.38184ZM65.1797 2.55371L65.4284 2.57903L65.4463 2.40289L65.2861 2.32751L65.1797 2.55371ZM64.9971 4.34766L64.7484 4.32234L64.7471 4.33496V4.34766H64.9971ZM65.7168 14.5312L65.8545 14.7399L65.9885 14.6515L65.9638 14.4928L65.7168 14.5312ZM65.1797 14.8857V15.1357H65.2548L65.3174 15.0944L65.1797 14.8857ZM64.1055 6.48535H63.8553L63.8556 6.49462L64.1055 6.48535ZM64.1055 2.73633L63.8583 2.69888L63.8555 2.7175V2.73633H64.1055ZM58.208 8.09668L58.3344 7.88101L57.958 7.66034V8.09668H58.208ZM58.917 8.2793H59.167V8.0293H58.917V8.2793ZM58.3799 9.52539L58.3457 9.77305L58.4467 9.78697L58.5286 9.72635L58.3799 9.52539ZM57.1338 9.35352L57.1679 9.10586L57.1509 9.10352H57.1338V9.35352ZM56.0596 9.35352V9.10352H55.8556L55.8147 9.30335L56.0596 9.35352ZM55.877 10.2451L55.632 10.195L55.627 10.2198V10.2451H55.877ZM55.877 12.3936H55.627V12.4289L55.6367 12.4628L55.877 12.3936ZM56.2422 13.8223L56.4843 13.8846L56.4922 13.8539V13.8223H56.2422ZM55.3506 14.5312L55.1439 14.6718L55.2183 14.7812H55.3506V14.5312ZM54.9854 13.9941H54.7354V14.0711L54.7786 14.1347L54.9854 13.9941ZM54.8135 10.0625L54.5899 9.9507L54.5591 10.0122L54.5642 10.0809L54.8135 10.0625ZM54.9854 9.52539H55.2354V9.36877L55.0944 9.30044L54.9854 9.52539ZM54.6309 9.35352L54.7399 9.12856L54.6883 9.10352H54.6309V9.35352ZM50.1621 8.45117L50.1148 8.20569L49.9121 8.24476V8.45117H50.1621ZM51.0537 8.2793V8.0293H51.0298L51.0064 8.03382L51.0537 8.2793ZM59.2822 16.3252L59.3197 16.078L59.3011 16.0752H59.2822V16.3252ZM59.6367 19.1826H59.3867V19.2014L59.3895 19.2201L59.6367 19.1826ZM63.2139 16.6797L62.9667 16.6422L62.9639 16.6609V16.6797H63.2139ZM63.9229 16.3252L63.9603 16.078L63.9417 16.0752H63.9229V16.3252ZM63.9229 18.291L63.6811 18.2272L63.6729 18.2586V18.291H63.9229ZM64.2773 19.7197L64.5023 19.8288L64.546 19.7387L64.5154 19.6434L64.2773 19.7197ZM64.1055 20.0742L63.8805 19.9652L63.8451 20.0381L63.8593 20.118L64.1055 20.0742ZM59.4541 22.7598L59.2178 22.8415L59.276 23.0098H59.4541V22.7598ZM58.5625 16.6797L58.3153 16.6422L58.3125 16.6609V16.6797H58.5625ZM59.8086 21.1484H59.5586V21.2107L59.5878 21.2657L59.8086 21.1484ZM59.9912 21.6855H59.7412V21.9355H59.9912V21.6855ZM63.3857 20.9658H63.6357V20.9068L63.6093 20.854L63.3857 20.9658ZM63.2139 20.4287H63.4639V20.1787H63.2139V20.4287ZM54.0938 1.20312H55.3506V0.703125H54.0938V1.20312ZM55.3506 1.20312C56.1857 1.20312 56.754 1.4764 57.1115 1.98793L57.5213 1.70153C57.0481 1.02425 56.3058 0.703125 55.3506 0.703125V1.20312ZM57.0664 1.84473V2.02734H57.5664V1.84473H57.0664ZM57.07 1.98531C56.8894 3.04412 56.6409 3.81046 56.3378 4.30577C56.0388 4.79431 55.7083 4.98926 55.3506 4.98926V5.48926C55.9382 5.48926 56.408 5.14889 56.7643 4.56679C57.1164 3.99146 57.3782 3.15184 57.5628 2.06938L57.07 1.98531ZM55.3894 4.99229C54.4514 4.84474 53.7805 4.59944 53.3493 4.27647C52.9302 3.96254 52.7324 3.57285 52.7324 3.09082H52.2324C52.2324 3.7403 52.5126 4.27444 53.0496 4.67665C53.5745 5.06983 54.3377 5.333 55.3117 5.48622L55.3894 4.99229ZM52.7324 3.09082V2.55371H52.2324V3.09082H52.7324ZM52.7297 2.59023C52.8039 2.08812 52.9626 1.74622 53.1796 1.53064C53.3918 1.3199 53.6866 1.20312 54.0938 1.20312V0.703125C53.5842 0.703125 53.1522 0.853112 52.8272 1.1759C52.5072 1.49385 52.3185 1.95225 52.2351 2.51719L52.7297 2.59023ZM54.1982 1.84473C54.1982 2.2468 53.9805 2.58965 53.4416 2.86884L53.6716 3.3128C54.3215 2.9761 54.6982 2.48823 54.6982 1.84473H54.1982ZM53.3066 3.09082V3.27344H53.8066V3.09082H53.3066ZM53.3347 3.38844C53.5053 3.71775 53.7295 3.97768 54.0124 4.15423C54.2958 4.3311 54.6234 4.41504 54.9854 4.41504V3.91504C54.7028 3.91504 54.4699 3.85037 54.2771 3.73005C54.0838 3.6094 53.916 3.42353 53.7786 3.15844L53.3347 3.38844ZM54.9854 4.41504H55.3506V3.91504H54.9854V4.41504ZM55.3506 4.41504C55.5228 4.41504 55.6719 4.33788 55.7939 4.22786C55.914 4.11962 56.0198 3.96972 56.1156 3.79254C56.3075 3.43797 56.4862 2.92319 56.6562 2.26141L56.1719 2.13703C56.0053 2.7858 55.8385 3.25392 55.6759 3.55463C55.5945 3.70508 55.5208 3.80091 55.4591 3.85649C55.3995 3.91029 55.3645 3.91504 55.3506 3.91504V4.41504ZM56.5518 1.99057L56.0147 1.63607L55.7392 2.05338L56.2764 2.40787L56.5518 1.99057ZM55.877 1.59473H54.4482V2.09473H55.877V1.59473ZM61.462 1.86884L61.9991 2.23408L62.2802 1.82061L61.7431 1.45538L61.462 1.86884ZM61.8909 2.00187L61.7083 3.78508L62.2057 3.83602L62.3883 2.05281L61.8909 2.00187ZM61.707 3.81055V5.05664H62.207V3.81055H61.707ZM61.707 5.05664C61.707 5.64027 61.7698 6.25422 61.8942 6.898L62.3851 6.80317C62.266 6.18654 62.207 5.60453 62.207 5.05664H61.707ZM61.8985 6.78448C61.7692 7.25609 61.707 7.8131 61.707 8.45117H62.207C62.207 7.84315 62.2666 7.3331 62.3807 6.91669L61.8985 6.78448ZM61.707 8.45117V8.98828H62.207V8.45117H61.707ZM61.7106 9.03018L61.8932 10.1044L62.3861 10.0206L62.2035 8.94638L61.7106 9.03018ZM61.926 9.93276C61.7694 10.1907 61.707 10.5421 61.707 10.9541H62.207C62.207 10.5784 62.2664 10.3354 62.3533 10.1922L61.926 9.93276ZM61.707 10.9541C61.707 11.379 61.7364 11.7211 61.805 11.9646C61.8392 12.0858 61.8886 12.2029 61.9656 12.2939C62.0489 12.3923 62.1667 12.4609 62.3115 12.4609V11.9609C62.3382 11.9609 62.3526 11.9772 62.3473 11.9709C62.3357 11.9572 62.3112 11.9172 62.2863 11.8289C62.2368 11.6534 62.207 11.3671 62.207 10.9541H61.707ZM62.0777 12.1224C61.9916 12.3497 61.9121 12.5014 61.8437 12.5917C61.7707 12.6881 61.7459 12.6699 61.7744 12.6699V13.1699C61.982 13.1699 62.1362 13.0336 62.2422 12.8936C62.3528 12.7477 62.4524 12.5448 62.5453 12.2995L62.0777 12.1224ZM61.7744 12.6699H61.6025V13.1699H61.7744V12.6699ZM61.6516 12.6748C61.5884 12.6621 61.506 12.6135 61.4337 12.4211C61.3598 12.2244 61.3154 11.9203 61.3154 11.4912H60.8154C60.8154 11.943 60.8606 12.3174 60.9657 12.597C61.0724 12.8809 61.2586 13.1061 61.5535 13.1651L61.6516 12.6748ZM61.3154 11.4912V11.3193H60.8154V11.4912H61.3154ZM61.3154 11.3193C61.3154 10.9849 61.3305 10.7235 61.3585 10.5308C61.3882 10.326 61.4276 10.239 61.4459 10.2154L61.0502 9.90964C60.9468 10.0435 60.8948 10.2448 60.8637 10.4589C60.8308 10.6852 60.8154 10.9734 60.8154 11.3193H61.3154ZM61.4937 10.0161C61.3735 9.37978 61.3154 8.85944 61.3154 8.45117H60.8154C60.8154 8.90228 60.8791 9.45616 61.0024 10.1089L61.4937 10.0161ZM61.3154 8.45117V6.66797H60.8154V8.45117H61.3154ZM61.0154 6.42302C60.1395 6.60178 59.4356 6.73539 58.9027 6.8242C58.3634 6.91409 58.016 6.95508 57.8428 6.95508V7.45508C58.0634 7.45508 58.45 7.40655 58.9849 7.3174C59.5263 7.22717 60.2368 7.09223 61.1154 6.91292L61.0154 6.42302ZM58.0677 7.09601L57.8959 6.74152L57.4459 6.95965L57.6178 7.31415L58.0677 7.09601ZM57.9209 6.85059V6.48535H57.4209V6.85059H57.9209ZM57.9209 6.48535C57.9209 6.54806 57.8945 6.58979 57.8827 6.60552C57.8708 6.62141 57.862 6.62681 57.8669 6.62318C57.8767 6.61592 57.9048 6.59895 57.9619 6.57372C58.0734 6.52449 58.2508 6.46301 58.5013 6.38955C58.9993 6.24348 59.7525 6.05966 60.7644 5.83796L60.6574 5.34954C59.6427 5.57185 58.8758 5.75864 58.3605 5.90976C58.1043 5.98491 57.9018 6.05367 57.7599 6.11635C57.6904 6.14706 57.6234 6.18145 57.5699 6.22097C57.5431 6.24072 57.5106 6.26837 57.4828 6.30535C57.4552 6.34217 57.4209 6.40384 57.4209 6.48535H57.9209ZM60.9609 5.59375C60.9609 5.61046 60.9558 5.63589 60.9391 5.66019C60.9237 5.68253 60.9081 5.69004 60.9086 5.6898C60.9099 5.68916 60.9218 5.68401 60.9502 5.67941C60.978 5.67493 61.0158 5.67188 61.0654 5.67188V5.17188C60.9351 5.17188 60.8008 5.18639 60.6905 5.23989C60.6319 5.26829 60.572 5.31161 60.5271 5.37692C60.4808 5.44418 60.4609 5.51975 60.4609 5.59375H60.9609ZM61.3154 5.42188V2.19922H60.8154V5.42188H61.3154ZM61.3154 2.19922C61.3154 2.20536 61.3118 2.17752 61.3765 2.11281C61.4405 2.0488 61.5497 1.97135 61.7179 1.88391L61.4872 1.44031C61.2973 1.53907 61.138 1.64423 61.0229 1.75926C60.9086 1.87358 60.8154 2.0212 60.8154 2.19922H61.3154ZM64.46 2.63184H64.8145V2.13184H64.46V2.63184ZM64.708 2.60804L65.0732 2.77992L65.2861 2.32751L64.9209 2.15563L64.708 2.60804ZM64.931 2.52839L64.7484 4.32234L65.2458 4.37297L65.4284 2.57903L64.931 2.52839ZM64.7471 4.34766V7.3877H65.2471V4.34766H64.7471ZM64.7471 7.3877C64.7471 9.08295 64.9893 11.4792 65.4698 14.5697L65.9638 14.4928C65.4846 11.4101 65.2471 9.044 65.2471 7.3877H64.7471ZM65.5791 14.3226L65.042 14.6771L65.3174 15.0944L65.8545 14.7399L65.5791 14.3226ZM65.1797 14.6357C65.2427 14.6357 65.2469 14.6795 65.2035 14.615C65.1647 14.5573 65.1168 14.453 65.0654 14.2868C64.9636 13.9579 64.8668 13.4502 64.7778 12.7539C64.6002 11.3654 64.4591 9.27449 64.3553 6.47609L63.8556 6.49462C63.9595 9.29647 64.1013 11.4057 64.2818 12.8174C64.3718 13.5211 64.4728 14.0635 64.5877 14.4346C64.6446 14.6185 64.7097 14.7767 64.7886 14.894C64.8629 15.0045 64.9896 15.1357 65.1797 15.1357V14.6357ZM64.3555 6.48535V2.73633H63.8555V6.48535H64.3555ZM64.3526 2.77378C64.3659 2.68644 64.3895 2.65544 64.3977 2.64724C64.4008 2.6442 64.4118 2.63184 64.46 2.63184V2.13184C64.3076 2.13184 64.1593 2.17855 64.0442 2.29368C63.9342 2.40364 63.8809 2.54988 63.8583 2.69888L64.3526 2.77378ZM58.0816 8.31235C58.3314 8.45879 58.6122 8.5293 58.917 8.5293V8.0293C58.6919 8.0293 58.5 7.97806 58.3344 7.88101L58.0816 8.31235ZM58.667 8.2793V8.98828H59.167V8.2793H58.667ZM58.667 8.98828C58.667 8.93826 58.6878 8.91673 58.6746 8.93681C58.6652 8.95112 58.6445 8.97703 58.6059 9.01561C58.5293 9.09221 58.4065 9.19468 58.2312 9.32443L58.5286 9.72635C58.7113 9.59113 58.8571 9.47159 58.9595 9.36916C59.0104 9.31822 59.0569 9.26535 59.0923 9.21162C59.1238 9.16367 59.167 9.08485 59.167 8.98828H58.667ZM58.414 9.27774L57.1679 9.10586L57.0996 9.60117L58.3457 9.77305L58.414 9.27774ZM57.1338 9.10352H56.0596V9.60352H57.1338V9.10352ZM55.8147 9.30335L55.632 10.195L56.1219 10.2953L56.3045 9.40368L55.8147 9.30335ZM55.627 10.2451V12.3936H56.127V10.2451H55.627ZM55.6367 12.4628C55.7582 12.8844 55.8487 13.212 55.9087 13.4464C55.9387 13.5639 55.9605 13.6558 55.9746 13.7236C55.9904 13.7994 55.9922 13.825 55.9922 13.8223H56.4922C56.4922 13.7658 56.4787 13.6916 56.4641 13.6215C56.4478 13.5433 56.4239 13.4433 56.3931 13.3226C56.3313 13.0809 56.2392 12.7477 56.1172 12.3243L55.6367 12.4628ZM56.0001 13.7599C55.9489 13.9587 55.8676 14.0826 55.7724 14.1583C55.678 14.2334 55.5446 14.2812 55.3506 14.2812V14.7812C55.6293 14.7812 55.8808 14.7109 56.0836 14.5497C56.2855 14.3891 56.4137 14.1585 56.4843 13.8846L56.0001 13.7599ZM55.5573 14.3907L55.1921 13.8536L54.7786 14.1347L55.1439 14.6718L55.5573 14.3907ZM55.2354 13.9941V13.8223H54.7354V13.9941H55.2354ZM55.2354 13.8223C55.2354 12.8611 55.1776 11.601 55.0628 10.0441L54.5642 10.0809C54.6785 11.6321 54.7354 12.8785 54.7354 13.8223H55.2354ZM55.0371 10.1743C55.1551 9.93819 55.2354 9.71536 55.2354 9.52539H54.7354C54.7354 9.59324 54.701 9.72848 54.5899 9.9507L55.0371 10.1743ZM55.0944 9.30044L54.7399 9.12856L54.5218 9.57847L54.8763 9.75034L55.0944 9.30044ZM54.6309 9.10352H50.5166V9.60352H54.6309V9.10352ZM50.5166 9.10352C50.4783 9.10352 50.4551 9.09849 50.4427 9.09424C50.4368 9.0922 50.4335 9.09041 50.432 9.08951C50.4307 9.08866 50.4302 9.08819 50.4301 9.08809C50.43 9.08797 50.4293 9.0872 50.428 9.08504C50.4267 9.08278 50.4245 9.07843 50.4221 9.07112C50.4172 9.05596 50.4121 9.0297 50.4121 8.98828H49.9121C49.9121 9.14672 49.9505 9.31181 50.0713 9.43633C50.1935 9.56223 50.358 9.60352 50.5166 9.60352V9.10352ZM50.4121 8.98828V8.45117H49.9121V8.98828H50.4121ZM50.2094 8.69665L51.101 8.52478L51.0064 8.03382L50.1148 8.20569L50.2094 8.69665ZM51.0537 8.5293H58.0254V8.0293H51.0537V8.5293ZM58.0254 8.5293C58.1248 8.5293 58.2453 8.50428 58.3391 8.41042C58.433 8.31656 58.458 8.19609 58.458 8.09668H57.958C57.958 8.11902 57.9526 8.08985 57.9856 8.05687C58.0186 8.02388 58.0477 8.0293 58.0254 8.0293V8.5293ZM58.917 16.5752H59.2822V16.0752H58.917V16.5752ZM59.2448 16.5724C59.3321 16.5856 59.3631 16.6092 59.3713 16.6175C59.3744 16.6205 59.3867 16.6315 59.3867 16.6797H59.8867C59.8867 16.5273 59.84 16.379 59.7249 16.2639C59.6149 16.1539 59.4687 16.1006 59.3197 16.078L59.2448 16.5724ZM59.3867 16.6797V19.1826H59.8867V16.6797H59.3867ZM59.3895 19.2201C59.4121 19.3691 59.4655 19.5153 59.5754 19.6253C59.6905 19.7404 59.8388 19.7871 59.9912 19.7871V19.2871C59.9431 19.2871 59.932 19.2747 59.929 19.2717C59.9208 19.2635 59.8971 19.2325 59.8839 19.1452L59.3895 19.2201ZM59.9912 19.7871H60.3457V19.2871H59.9912V19.7871ZM60.3457 19.7871C61.3054 19.7871 62.0413 19.7425 62.5428 19.6486C62.7913 19.602 63.0021 19.54 63.1571 19.4529C63.31 19.367 63.4639 19.222 63.4639 19H62.9639C62.9639 18.957 62.9982 18.9687 62.9122 19.017C62.8281 19.0643 62.6804 19.1141 62.4508 19.1571C61.9963 19.2422 61.2981 19.2871 60.3457 19.2871V19.7871ZM63.4639 19V16.6797H62.9639V19H63.4639ZM63.461 16.7171C63.4743 16.6298 63.4979 16.5988 63.5061 16.5906C63.5092 16.5876 63.5202 16.5752 63.5684 16.5752V16.0752C63.416 16.0752 63.2677 16.1219 63.1526 16.237C63.0426 16.347 62.9893 16.4932 62.9667 16.6422L63.461 16.7171ZM63.5684 16.5752H63.9229V16.0752H63.5684V16.5752ZM63.8854 16.5724C63.9727 16.5856 64.0037 16.6092 64.0119 16.6175C64.015 16.6205 64.0273 16.6315 64.0273 16.6797H64.5273C64.5273 16.5273 64.4806 16.379 64.3655 16.2639C64.2555 16.1539 64.1093 16.1006 63.9603 16.078L63.8854 16.5724ZM64.0273 16.6797C64.0273 16.7373 64.0048 16.8895 63.9446 17.1631C63.8866 17.4267 63.7989 17.781 63.6811 18.2272L64.1646 18.3548C64.2831 17.9058 64.3727 17.544 64.4329 17.2705C64.4909 17.007 64.5273 16.8011 64.5273 16.6797H64.0273ZM63.6729 18.291C63.6729 18.4316 63.7095 18.6303 63.7688 18.8695C63.8298 19.1152 63.9202 19.4245 64.0393 19.796L64.5154 19.6434C64.3981 19.2773 64.3113 18.9797 64.2541 18.7491C64.1953 18.5121 64.1729 18.3652 64.1729 18.291H63.6729ZM64.0524 19.6107L63.8805 19.9652L64.3304 20.1833L64.5023 19.8288L64.0524 19.6107ZM63.8593 20.118C63.9725 20.7547 64.0273 21.276 64.0273 21.6855H64.5273C64.5273 21.2357 64.4676 20.6828 64.3516 20.0305L63.8593 20.118ZM64.0273 21.6855V22.04H64.5273V21.6855H64.0273ZM64.0273 22.04C64.0273 21.9978 64.0627 22.0422 63.8737 22.1267C63.7042 22.2026 63.4296 22.2736 63.0346 22.3326C62.2497 22.4497 61.059 22.5098 59.4541 22.5098V23.0098C61.0647 23.0098 62.2856 22.9499 63.1084 22.8271C63.5173 22.7661 63.8456 22.6871 64.078 22.5831C64.291 22.4877 64.5273 22.3222 64.5273 22.04H64.0273ZM59.6904 22.6781C59.1063 20.9893 58.8125 19.1089 58.8125 17.0342H58.3125C58.3125 19.1561 58.6131 21.0927 59.2178 22.8415L59.6904 22.6781ZM58.8125 17.0342V16.6797H58.3125V17.0342H58.8125ZM58.8097 16.7171C58.8229 16.6298 58.8465 16.5988 58.8548 16.5906C58.8578 16.5876 58.8688 16.5752 58.917 16.5752V16.0752C58.7646 16.0752 58.6163 16.1219 58.5012 16.237C58.3912 16.347 58.3379 16.4932 58.3153 16.6422L58.8097 16.7171ZM59.5878 21.2657C59.7061 21.4883 59.7412 21.6214 59.7412 21.6855H60.2412C60.2412 21.4919 60.1546 21.2669 60.0294 21.0311L59.5878 21.2657ZM59.9912 21.9355H61.0654V21.4355H59.9912V21.9355ZM61.0654 21.9355C61.8455 21.9355 62.4562 21.8758 62.8797 21.7444C63.2885 21.6176 63.6357 21.3823 63.6357 20.9658H63.1357C63.1357 21.0292 63.0963 21.1537 62.7316 21.2668C62.3817 21.3754 61.8322 21.4355 61.0654 21.4355V21.9355ZM63.6093 20.854C63.4982 20.6318 63.4639 20.4966 63.4639 20.4287H62.9639C62.9639 20.6187 63.0441 20.8415 63.1621 21.0776L63.6093 20.854ZM63.2139 20.1787H62.6768V20.6787H63.2139V20.1787ZM62.6768 20.1787C61.7156 20.1787 60.9735 20.2385 60.4648 20.3662C60.2117 20.4297 59.9955 20.5149 59.8375 20.6338C59.6724 20.7581 59.5586 20.9307 59.5586 21.1484H60.0586C60.0586 21.1263 60.0643 21.089 60.1382 21.0333C60.2192 20.9723 60.3616 20.9076 60.5865 20.8511C61.0338 20.7389 61.7258 20.6787 62.6768 20.6787V20.1787ZM75.3408 3.08008V2.83008H75.3125L75.2849 2.83641L75.3408 3.08008ZM75.6953 3.08008H75.9453V2.83008H75.6953V3.08008ZM71.2266 4.69141L71.1879 4.44441L70.9766 4.47747V4.69141H71.2266ZM71.2266 6.65723H70.9766V6.71624L71.003 6.76903L71.2266 6.65723ZM71.4092 7.02246L71.1856 7.13426L71.2617 7.28655L71.4313 7.27148L71.4092 7.02246ZM75.5234 6.48535L75.6744 6.28608L75.5859 6.21903L75.4768 6.23974L75.5234 6.48535ZM76.2324 7.02246L76.4662 7.11102L76.5325 6.93612L76.3834 6.82319L76.2324 7.02246ZM72.3008 8.98828L72.1703 9.20152L72.2304 9.23828H72.3008V8.98828ZM76.415 8.45117L76.4525 8.20399L76.4139 8.19815L76.3754 8.20434L76.415 8.45117ZM72.4834 10.0625V10.3125H72.5002L72.5169 10.3102L72.4834 10.0625ZM70.1523 3.98242L69.905 3.94605L69.9023 3.96414V3.98242H70.1523ZM79.8096 13.1025L80.0318 12.988L79.957 12.8428L79.794 12.853L79.8096 13.1025ZM79.9922 13.457H80.2422V13.3964L80.2144 13.3425L79.9922 13.457ZM78.0264 14.3486V14.5986H78.0373L78.0481 14.5977L78.0264 14.3486ZM76.7695 14.3486V14.0986H76.6195L76.5489 14.231L76.7695 14.3486ZM76.9521 18.4629L77.1864 18.5503L77.2134 18.4778L77.1948 18.4027L76.9521 18.4629ZM75.6953 18.6455H75.4453V18.7066L75.4735 18.7608L75.6953 18.6455ZM75.6953 14.7139H75.9453V14.658L75.9215 14.6074L75.6953 14.7139ZM75.5234 14.3486L75.7496 14.2422L75.6784 14.0907L75.5112 14.0989L75.5234 14.3486ZM66.7578 14.7139L66.6405 14.9346L66.6955 14.9639H66.7578V14.7139ZM66.2207 14.5312H65.9707V14.7812H66.2207V14.5312ZM66.2207 14.1768L65.984 14.0963L65.9707 14.1354V14.1768H66.2207ZM71.2266 13.6396V13.8896H71.2344L71.2422 13.8892L71.2266 13.6396ZM72.1182 17.5713V17.3213H71.8682V17.5713H72.1182ZM73.375 20.0742L73.1283 20.1145L73.1497 20.246L73.2709 20.3015L73.375 20.0742ZM74.2666 20.6113H74.0166V20.8832L74.2875 20.8605L74.2666 20.6113ZM79.9922 19.5371L80.1095 19.3163L80.0202 19.2689L79.923 19.2969L79.9922 19.5371ZM80.5293 19.7197H80.7793V19.4697H80.5293V19.7197ZM78.918 20.9658V20.7158H78.8996L78.8815 20.7185L78.918 20.9658ZM73.375 21.5029L73.1896 21.6707L73.2641 21.7529H73.375V21.5029ZM71.9463 18.1084L71.7227 17.9966L71.6963 18.0494V18.1084H71.9463ZM75.3408 3.33008H75.6953V2.83008H75.3408V3.33008ZM75.4453 3.08008V3.2627H75.9453V3.08008H75.4453ZM75.4453 3.2627C75.4453 3.54865 75.3446 3.73408 75.1558 3.86078C74.9494 3.99934 74.6082 4.08691 74.0947 4.08691V4.58691C74.6484 4.58691 75.1074 4.49545 75.4345 4.27594C75.7792 4.04456 75.9453 3.69288 75.9453 3.2627H75.4453ZM74.0947 4.08691C73.67 4.08691 72.6924 4.20911 71.1879 4.44441L71.2652 4.9384C72.7829 4.70104 73.7174 4.58691 74.0947 4.58691V4.08691ZM70.9766 4.69141V6.65723H71.4766V4.69141H70.9766ZM71.003 6.76903L71.1856 7.13426L71.6328 6.91066L71.4502 6.54542L71.003 6.76903ZM71.4313 7.27148C73.0479 7.12779 74.428 6.94782 75.5701 6.73096L75.4768 6.23974C74.3559 6.45257 72.9932 6.63068 71.387 6.77344L71.4313 7.27148ZM75.3725 6.68462L76.0815 7.22173L76.3834 6.82319L75.6744 6.28608L75.3725 6.68462ZM75.9986 6.9339C75.9125 7.16124 75.833 7.31288 75.7646 7.40323C75.6916 7.49961 75.6668 7.48145 75.6953 7.48145V7.98145C75.9029 7.98145 76.0571 7.84511 76.1631 7.70516C76.2737 7.55919 76.3733 7.35634 76.4662 7.11102L75.9986 6.9339ZM75.6953 7.48145H74.4492V7.98145H75.6953V7.48145ZM74.4492 7.48145C73.4895 7.48145 72.7536 7.52608 72.2521 7.61999C72.0036 7.66652 71.7928 7.72856 71.6379 7.81561C71.4849 7.90154 71.3311 8.04651 71.3311 8.26855H71.8311C71.8311 8.31156 71.7967 8.29988 71.8828 8.25153C71.9668 8.2043 72.1145 8.15444 72.3441 8.11145C72.7986 8.02633 73.4968 7.98145 74.4492 7.98145V7.48145ZM71.3311 8.26855C71.3311 8.46491 71.4524 8.63307 71.5842 8.76491C71.7242 8.90491 71.923 9.05021 72.1703 9.20152L72.4313 8.77504C72.1987 8.63274 72.0377 8.51127 71.9378 8.41136C71.8297 8.30329 71.8311 8.2584 71.8311 8.26855H71.3311ZM72.3008 9.23828H72.4834V8.73828H72.3008V9.23828ZM72.4834 9.23828C72.7006 9.23828 73.1445 9.19064 73.7956 9.1017C74.4537 9.0118 75.3403 8.87717 76.4547 8.698L76.3754 8.20434C75.2626 8.38325 74.3803 8.51717 73.7279 8.6063C73.0684 8.6964 72.6601 8.73828 72.4834 8.73828V9.23828ZM76.3776 8.69835C76.4649 8.71158 76.4959 8.73522 76.5041 8.74343C76.5072 8.74646 76.5195 8.75752 76.5195 8.80566H77.0195C77.0195 8.65329 76.9728 8.505 76.8577 8.38987C76.7477 8.27992 76.6015 8.22657 76.4525 8.20399L76.3776 8.69835ZM76.5195 8.80566V9.1709H77.0195V8.80566H76.5195ZM76.5195 9.1709C76.5195 9.10854 76.5469 9.06777 76.5591 9.05284C76.5706 9.0387 76.5774 9.03622 76.5672 9.0428C76.5468 9.05592 76.5012 9.07845 76.4184 9.10773C76.256 9.1651 76.0014 9.2311 75.6471 9.3048C74.9416 9.45155 73.8772 9.62159 72.4499 9.81476L72.5169 10.3102C73.947 10.1167 75.0256 9.94478 75.7489 9.79432C76.109 9.71942 76.3901 9.64801 76.5849 9.57916C76.6807 9.54533 76.769 9.50754 76.8379 9.46315C76.8724 9.44097 76.9126 9.41044 76.9465 9.36894C76.981 9.32665 77.0195 9.25922 77.0195 9.1709H76.5195ZM72.4834 9.8125C72.1405 9.8125 71.8513 9.72447 71.6057 9.55473C71.3581 9.38359 71.1406 9.11932 70.9603 8.74541C70.5964 7.99084 70.4023 6.82774 70.4023 5.22852H69.9023C69.9023 6.85195 70.0968 8.10584 70.5099 8.96259C70.7181 9.39435 70.9862 9.73433 71.3214 9.96603C71.6586 10.1991 72.0492 10.3125 72.4834 10.3125V9.8125ZM70.4023 5.22852V3.98242H69.9023V5.22852H70.4023ZM70.3997 4.0188C70.413 3.92813 70.4376 3.89492 70.4473 3.88527C70.4519 3.88069 70.4654 3.86719 70.5176 3.86719V3.36719C70.362 3.36719 70.2109 3.41455 70.0937 3.53172C69.9816 3.64382 69.9275 3.79322 69.905 3.94605L70.3997 4.0188ZM70.5176 3.86719H71.0547V3.36719H70.5176V3.86719ZM71.0547 3.86719C72.3735 3.86719 73.8213 3.68509 75.3967 3.32375L75.2849 2.83641C73.738 3.19122 72.3283 3.36719 71.0547 3.36719V3.86719ZM79.5873 13.217L79.7699 13.5715L80.2144 13.3425L80.0318 12.988L79.5873 13.217ZM79.7422 13.457V13.6396H80.2422V13.457H79.7422ZM79.7422 13.6396C79.7422 13.6425 79.7443 13.6613 79.7014 13.7002C79.6535 13.7436 79.5647 13.7966 79.4159 13.8503C79.1193 13.9572 78.6538 14.0428 78.0046 14.0996L78.0481 14.5977C78.7095 14.5399 79.2269 14.45 79.5855 14.3206C79.7644 14.2561 79.9213 14.1757 80.0373 14.0705C80.1582 13.9609 80.2422 13.8158 80.2422 13.6396H79.7422ZM78.0264 14.0986H76.7695V14.5986H78.0264V14.0986ZM76.5489 14.231C76.4134 14.4852 76.3477 14.7661 76.3477 15.0684H76.8477C76.8477 14.8407 76.8965 14.6418 76.9901 14.4663L76.5489 14.231ZM76.3477 15.0684V15.4229H76.8477V15.0684H76.3477ZM76.3477 15.4229C76.3477 16.5155 76.4679 17.5492 76.7095 18.5231L77.1948 18.4027C76.9638 17.4717 76.8477 16.4787 76.8477 15.4229H76.3477ZM76.7179 18.3755C76.6317 18.6066 76.552 18.761 76.4832 18.8532C76.4095 18.952 76.3848 18.9326 76.415 18.9326V19.4326C76.6243 19.4326 76.7786 19.2933 76.8839 19.1522C76.9942 19.0045 77.0936 18.799 77.1864 18.5503L76.7179 18.3755ZM76.415 18.9326H76.2324V19.4326H76.415V18.9326ZM76.2324 18.9326C76.2386 18.9326 76.2107 18.9363 76.146 18.8716C76.082 18.8076 76.0045 18.6983 75.9171 18.5302L75.4735 18.7608C75.5723 18.9508 75.6774 19.1101 75.7925 19.2251C75.9068 19.3394 76.0544 19.4326 76.2324 19.4326V18.9326ZM75.9453 18.6455V14.7139H75.4453V18.6455H75.9453ZM75.9215 14.6074L75.7496 14.2422L75.2972 14.4551L75.4691 14.8203L75.9215 14.6074ZM75.5112 14.0989C70.559 14.3426 67.6452 14.4639 66.7578 14.4639V14.9639C67.6608 14.9639 70.5907 14.8416 75.5357 14.5983L75.5112 14.0989ZM66.8751 14.4931C66.6394 14.3679 66.4144 14.2812 66.2207 14.2812V14.7812C66.2849 14.7812 66.4179 14.8164 66.6405 14.9346L66.8751 14.4931ZM66.4707 14.5312V14.1768H65.9707V14.5312H66.4707ZM66.4574 14.2572C66.5262 14.0548 66.736 13.8896 67.2949 13.8896V13.3896C66.665 13.3896 66.1587 13.5826 65.984 14.0963L66.4574 14.2572ZM67.2949 13.8896H71.2266V13.3896H67.2949V13.8896ZM71.2422 13.8892L79.8252 13.3521L79.794 12.853L71.2109 13.3901L71.2422 13.8892ZM72.1182 17.8213H72.6553V17.3213H72.1182V17.8213ZM72.6553 17.8213C72.625 17.8213 72.6005 17.8134 72.5841 17.8053C72.5687 17.7978 72.5613 17.7905 72.5609 17.7901C72.5604 17.7896 72.5639 17.7931 72.5709 17.803C72.5777 17.8127 72.5865 17.8267 72.5968 17.8459C72.6401 17.9267 72.6923 18.063 72.7507 18.2661C72.8665 18.6687 72.9926 19.2826 73.1283 20.1145L73.6217 20.034C73.4853 19.1972 73.3554 18.5597 73.2312 18.1279C73.1697 17.9139 73.1059 17.7373 73.0374 17.6095C73.0034 17.5462 72.9615 17.482 72.9084 17.4307C72.8555 17.3795 72.7701 17.3213 72.6553 17.3213V17.8213ZM73.2709 20.3015C73.5656 20.4365 73.7783 20.5446 73.9147 20.6267C73.9839 20.6685 74.0244 20.6981 74.0445 20.716C74.0547 20.7251 74.0524 20.7249 74.046 20.7154C74.0412 20.7083 74.0166 20.671 74.0166 20.6113H74.5166C74.5166 20.5301 74.4828 20.4685 74.4594 20.4341C74.4343 20.3973 74.4042 20.3669 74.3772 20.3428C74.3231 20.2945 74.2521 20.2463 74.1727 20.1985C74.0119 20.1016 73.7788 19.9841 73.4791 19.8469L73.2709 20.3015ZM74.2875 20.8605C76.1813 20.7014 78.106 20.3402 80.0613 19.7774L79.923 19.2969C77.9969 19.8512 76.1045 20.2061 74.2457 20.3622L74.2875 20.8605ZM79.8749 19.7579C80.1106 19.8831 80.3356 19.9697 80.5293 19.9697V19.4697C80.4651 19.4697 80.3321 19.4346 80.1095 19.3163L79.8749 19.7579ZM80.2793 19.7197V19.9023H80.7793V19.7197H80.2793ZM80.2793 19.9023C80.2793 20.1829 80.1792 20.3656 79.9888 20.4913C79.7801 20.629 79.4355 20.7158 78.918 20.7158V21.2158C79.4746 21.2158 79.9357 21.1254 80.2642 20.9086C80.6109 20.6798 80.7793 20.3307 80.7793 19.9023H80.2793ZM78.8815 20.7185C76.4569 21.0761 74.6238 21.2529 73.375 21.2529V21.7529C74.6614 21.7529 76.5236 21.5717 78.9544 21.2131L78.8815 20.7185ZM73.5604 21.3352C72.6419 20.32 72.1963 19.2462 72.1963 18.1084H71.6963C71.6963 19.3912 72.2032 20.5804 73.1896 21.6707L73.5604 21.3352ZM72.1699 18.2202C72.288 17.9841 72.3682 17.7613 72.3682 17.5713H71.8682C71.8682 17.6391 71.8338 17.7744 71.7227 17.9966L72.1699 18.2202Z" fill="#222222"/>
</svg>
