<svg width="118" height="26" viewBox="0 0 118 26" fill="none" xmlns="http://www.w3.org/2000/svg">
<path d="M6.58496 1.36035C7.27962 1.56087 8.27148 1.66113 9.56055 1.66113L10.1514 1.36035C11.9346 1.36035 12.8262 2.25195 12.8262 4.03516C13.0267 4.82292 13.127 5.51758 13.127 6.11914L12.8262 9.08398H11.6445C11.2435 9.08398 11.043 8.88704 11.043 8.49316V6.11914L10.7529 3.14355H7.18652C7.37988 5.47103 7.47656 7.15397 7.47656 8.19238L6.58496 8.79395C5.59668 8.79395 5.10254 6.91048 5.10254 3.14355H4.80176C4.09277 3.14355 3.20117 3.24382 2.12695 3.44434C1.13867 3.18652 0.644531 2.88932 0.644531 2.55273V1.95117L6.58496 1.36035ZM1.83691 10.8672C4.30762 11.2682 6.38802 11.4688 8.07812 11.4688H9.86133C10.3053 11.4688 10.6992 11.3685 11.043 11.168C12.8262 11.4043 13.7178 11.7015 13.7178 12.0596V12.3604C13.7178 12.7542 13.5208 12.9512 13.127 12.9512H10.7529L10.4521 14.4336V15.0352C10.5166 15.429 10.7135 15.626 11.043 15.626H12.8262C13.2272 17.3232 13.4277 18.8092 13.4277 20.084C12.6973 20.6784 12.0026 20.9756 11.3438 20.9756H10.7529C9.70736 20.9756 8.02083 20.8753 5.69336 20.6748L6.29492 23.3496H7.77734C7.97786 23.3496 8.07812 23.4499 8.07812 23.6504L8.66895 23.3496H12.2354V24.832L10.1514 25.1328H8.07812C5.5 25.1328 4.21094 24.4382 4.21094 23.0488C4.01042 22.3327 3.91016 21.2441 3.91016 19.7832L4.51172 19.4824C5.89388 19.4824 8.07096 19.5827 11.043 19.7832L11.3438 19.1924V17.4092H10.7529C6.25553 17.4092 3.87793 16.915 3.62012 15.9268V15.626L5.69336 15.3252L8.66895 15.626V12.9512C8.22493 12.9512 7.82747 13.0514 7.47656 13.252C3.31576 13.0085 1.23535 12.5107 1.23535 11.7588V11.4688C1.2998 11.0677 1.50033 10.8672 1.83691 10.8672ZM27.4238 4.21777H27.7139C28.695 4.21777 29.2822 7.05371 29.4756 12.7256V14.4873L29.7656 16.2383C29.5723 16.6178 29.4756 16.9115 29.4756 17.1191H28.3047L28.0146 15.6582V12.7256C27.6208 12.7256 27.4238 12.6289 27.4238 12.4355L26.833 12.7256H23.9111C23.4313 12.3317 23.0374 12.1348 22.7295 12.1348V11.5547C22.7939 11.1608 22.9909 10.9639 23.3203 10.9639H28.0146V10.6738L27.7139 9.20215C27.5993 9.20215 26.3317 9.30241 23.9111 9.50293L22.7295 9.20215V8.32129C22.7939 7.93457 22.9909 7.74121 23.3203 7.74121H25.082L27.1338 7.45117C27.1338 7.64453 27.2305 7.74121 27.4238 7.74121V7.15039C27.4238 6.85677 27.2269 5.97949 26.833 4.51855L27.4238 4.21777ZM14.5225 6.26953C18.4326 6.26953 20.3877 6.95345 20.3877 8.32129C20.7816 10.083 20.9785 11.3542 20.9785 12.1348V14.7773C20.9785 15.207 18.9268 15.5973 14.8232 15.9482C14.4294 15.4684 14.2324 15.0781 14.2324 14.7773C14.2324 13.5026 14.3291 11.5475 14.5225 8.91211C14.3291 7.83789 14.2324 7.05729 14.2324 6.57031C14.4258 6.57031 14.5225 6.47005 14.5225 6.26953ZM15.9941 8.62207V13.8965H17.4551C18.8229 13.8965 19.5068 13.6995 19.5068 13.3057C19.5068 11.7373 19.2132 9.97917 18.626 8.03125H16.5742C16.1875 8.0957 15.9941 8.29264 15.9941 8.62207ZM34.0938 2.72461H34.3838C34.5771 2.72461 34.6738 2.82129 34.6738 3.01465L35.2646 2.72461H35.5547C36.1419 2.72461 36.4355 2.82129 36.4355 3.01465L37.9072 2.72461H39.9697V3.89551C38.4014 4.28939 36.7363 4.48633 34.9746 4.48633H33.5029C33.8467 6.64193 34.237 7.71973 34.6738 7.71973H39.0889C39.4756 7.77702 39.6689 7.97396 39.6689 8.31055V9.19141H34.3838C33.0088 9.19141 32.3213 8.60417 32.3213 7.42969H32.6221C32.4215 6.94987 32.2246 5.96875 32.0312 4.48633L32.3213 3.89551V3.01465L34.0938 2.72461ZM30.8604 10.3623C32.4645 10.5557 33.4421 10.7526 33.793 10.9531L34.3838 10.6523L34.9746 10.9531C35.3112 10.7526 35.7015 10.6523 36.1455 10.6523V10.9531C36.2816 10.7526 37.9466 10.5557 41.1406 10.3623L41.7314 11.2432V11.834C39.7048 12.2279 36.9619 12.4248 33.5029 12.4248C31.3473 12.2243 30.2695 11.8304 30.2695 11.2432L30.8604 10.3623ZM35.5547 13.3057L36.7363 13.5957C37.1159 13.4023 37.4095 13.3057 37.6172 13.3057C38.3691 13.3057 38.9564 14.3799 39.3789 16.5283C39.1855 16.9079 39.0889 17.2051 39.0889 17.4199H38.7881C37.764 17.4199 36.099 17.5166 33.793 17.71V19.7617C33.8574 20.1556 34.0544 20.3525 34.3838 20.3525H37.9072L39.3789 20.0625V20.3525L39.9697 20.0625L41.4307 20.3525V20.9434C41.4307 21.6094 39.3753 21.9997 35.2646 22.1143L34.6738 21.8242L34.0938 22.1143C32.9121 22.1143 32.3213 20.7428 32.3213 18V17.4199C32.3213 16.8255 33.8896 16.5283 37.0264 16.5283H37.6172V16.2383L37.3164 14.7666L35.2646 15.0674H32.3213V14.1865C32.3213 13.5993 33.3991 13.3057 35.5547 13.3057ZM54.8359 0.146484H56.0068C56.7301 0.36849 57.3174 3.49089 57.7686 9.51367V10.3945C57.7686 10.6738 57.4749 10.9674 56.8877 11.2754C56.3005 11.0749 56.0068 10.4876 56.0068 9.51367V6.58105C56.0068 6.19434 55.8135 6.00098 55.4268 6.00098H51.6133L50.7324 5.41016C50.7324 5.61068 50.6357 5.71094 50.4424 5.71094L50.7324 6.29102C49.8659 8.63281 48.3047 9.80371 46.0488 9.80371H45.1787C43.2236 8.82975 42.2461 6.97493 42.2461 4.23926C42.2461 2.24837 43.8073 1.17773 46.9297 1.02734C46.9297 1.41406 47.7103 1.7041 49.2715 1.89746C50.0521 2.82845 50.4424 3.90267 50.4424 5.12012C51.1585 4.7334 51.9391 4.54004 52.7842 4.54004H55.126L55.7168 4.23926C55.1296 2.38444 54.8359 1.02018 54.8359 0.146484ZM45.1787 2.48828C44.3981 3.16862 44.0078 3.85254 44.0078 4.54004V5.12012C44.0078 6.93913 44.6882 8.01335 46.0488 8.34277C48.0039 7.88444 48.9814 6.9069 48.9814 5.41016C48.9814 3.6556 48.1042 2.77832 46.3496 2.77832L45.1787 2.48828ZM53.9551 10.6846H54.2559C54.8359 10.6846 55.126 11.0749 55.126 11.8555L54.8359 13.0264C54.8359 13.2197 54.9326 13.3164 55.126 13.3164L54.8359 14.7881V15.3682C54.8359 15.6188 56.0068 16.4961 58.3486 18C58.542 18.3438 58.6387 18.734 58.6387 19.1709H57.7686L53.9551 17.1299C53.9551 18.2041 53.3714 19.0814 52.2041 19.7617H51.9033C51.624 19.7617 51.334 19.4681 51.0332 18.8809L51.9033 17.71C51.5667 17.71 50.4961 17.3197 48.6914 16.5391C48.3477 17.9069 47.9574 18.5908 47.5205 18.5908C47.234 18.5908 46.9404 18.2972 46.6396 17.71V17.4199L48.3906 12.1455C48.4909 12.1455 48.8812 12.0488 49.5615 11.8555L49.8623 12.4463V15.0781C50.736 15.8587 51.6133 16.249 52.4941 16.249C53.0814 13.807 53.375 12.5394 53.375 12.4463C53.1816 12.1025 53.085 11.7122 53.085 11.2754L53.9551 10.6846ZM69.7236 5.07715H70.0137C70.6009 5.07715 70.8945 6.34831 70.8945 8.89062V12.4248H73.8379C74.2246 12.4821 74.418 12.6755 74.418 13.0049C74.418 13.5921 73.1468 13.986 70.6045 14.1865V19.1816C70.6045 19.5684 70.4076 19.7617 70.0137 19.7617H69.4229C69.0361 19.7617 68.8428 19.5684 68.8428 19.1816C69.0361 14.0684 69.1328 10.0508 69.1328 7.12891V5.65723C69.1901 5.27051 69.387 5.07715 69.7236 5.07715ZM66.1895 5.95801L66.4902 7.12891L65.6094 7.71973H64.7285C62.179 7.71973 60.9043 8.01335 60.9043 8.60059V9.48145L61.1943 13.0049H60.9043L61.1943 13.5957V15.3574H61.7852C62.7663 15.3574 64.2344 15.2607 66.1895 15.0674L66.4902 15.6475V16.2383C66.4902 16.6322 66.1966 16.8291 65.6094 16.8291C64.8145 16.8291 63.0492 16.9258 60.3135 17.1191C59.7262 16.403 59.4326 15.7191 59.4326 15.0674L59.7334 13.8857C59.5329 13.5635 59.4326 13.0765 59.4326 12.4248H59.7334L59.4326 11.834V8.89062L59.1426 6.83887C59.5221 6.64551 59.8158 6.54883 60.0234 6.54883C61.4199 6.54883 63.4753 6.35189 66.1895 5.95801ZM75.8027 0.382812C76.2467 0.382812 76.637 1.55729 76.9736 3.90625H76.6836C77.0775 4.85156 77.3711 7.20052 77.5645 10.9531L76.9736 11.2432H76.6836C75.7025 10.8564 75.2119 7.72689 75.2119 1.85449C75.0186 1.85449 74.9219 1.56087 74.9219 0.973633L75.8027 0.382812ZM77.5645 15.0566C78.3737 15.3288 78.9609 15.8193 79.3262 16.5283C79.3262 17.7028 78.7389 18.5837 77.5645 19.1709H77.2744C76.1715 19.1709 75.484 18.6803 75.2119 17.6992C75.4984 15.9375 76.2826 15.0566 77.5645 15.0566ZM92.5371 1.31738C94.0983 1.88314 94.8789 2.86068 94.8789 4.25V4.54004C94.8789 6.10124 93.8047 7.07878 91.6562 7.47266H89.9053C89.6403 7.47266 89.1533 6.9821 88.4443 6.00098V5.4209C88.7451 2.68522 90.1094 1.31738 92.5371 1.31738ZM91.0762 3.65918H90.7861L90.1953 3.36914L89.6152 4.83008C89.9232 5.8112 90.6035 6.30176 91.6562 6.30176C92.6875 6.30176 93.2747 5.32422 93.418 3.36914C93.0241 3.36914 92.8271 3.07552 92.8271 2.48828C91.6598 2.48828 91.0762 2.87858 91.0762 3.65918ZM103.365 3.36914H103.655C104.049 3.43359 104.246 3.63053 104.246 3.95996V4.83008C104.246 5.0306 104.146 5.13086 103.945 5.13086L104.246 5.71094V6.30176C104.246 6.49512 104.146 6.5918 103.945 6.5918L104.246 7.17188V8.34277C104.246 8.53613 104.146 8.63281 103.945 8.63281C103.945 8.83333 104.046 8.93359 104.246 8.93359L103.945 10.1045C104.146 11.8089 104.246 12.7829 104.246 13.0264L103.945 13.6172C104.146 13.9538 104.246 14.3441 104.246 14.7881L103.655 15.0781H103.365C103.086 15.0781 102.792 14.7845 102.484 14.1973V10.9746C102.484 10.5378 102.388 10.1475 102.194 9.80371C102.388 8.24967 102.581 7.47266 102.774 7.47266L102.484 6.88184C102.678 6.50228 102.774 6.20866 102.774 6.00098L102.484 5.4209C102.749 4.05306 103.043 3.36914 103.365 3.36914ZM99.2725 4.83008H99.5625C100.293 4.83008 100.78 7.36882 101.023 12.4463C100.83 12.7686 100.733 13.2555 100.733 13.9072V14.7881H100.143C99.849 14.7881 99.5589 14.3978 99.2725 13.6172L95.7598 13.9072H94.5889C94.5889 13.6995 94.4886 13.4059 94.2881 13.0264C94.9326 12.6396 95.5199 12.4463 96.0498 12.4463C96.2432 12.4463 96.3398 12.543 96.3398 12.7363C96.8125 12.543 97.79 12.346 99.2725 12.1455V9.80371C98.8786 10.1976 97.0238 10.5879 93.708 10.9746V11.2754C93.9014 13.7103 93.998 15.0745 93.998 15.3682H92.8271C92.4404 14.1006 92.2471 13.2233 92.2471 12.7363V11.2754H90.7861C88.1149 11.2754 86.6504 10.7848 86.3926 9.80371C86.9798 9.61035 87.2734 9.41699 87.2734 9.22363C88.8346 9.61035 90.4925 9.80371 92.2471 9.80371C95.835 9.49577 97.7865 9.10547 98.1016 8.63281H98.6816V9.22363H98.9717V7.17188L98.6816 5.13086L99.2725 4.83008ZM94.8789 15.6582C95.5736 15.6582 96.0605 16.8291 96.3398 19.1709L97.5107 18.8809L100.143 19.1709C100.143 18.9775 100.243 18.8809 100.443 18.8809L100.143 17.4199V15.959H101.313C101.901 17.5345 102.194 18.9954 102.194 20.3418V20.6318C102.194 22.3936 101.317 23.2744 99.5625 23.2744C98.8535 23.4678 97.7793 23.5645 96.3398 23.5645H95.7598C95.1725 23.5645 94.682 21.126 94.2881 16.249C94.682 16.249 94.8789 16.0521 94.8789 15.6582ZM96.6299 20.0518V22.3936C99.1722 22.3936 100.443 21.9066 100.443 20.9326C100.637 20.5531 100.733 20.2594 100.733 20.0518L99.2725 20.3418H97.2207L96.6299 20.0518ZM107.092 2.48828H107.382C107.582 2.48828 107.683 2.58496 107.683 2.77832C107.876 2.77832 107.973 2.68164 107.973 2.48828C108.18 2.48828 108.474 2.58496 108.854 2.77832C109.906 2.58496 110.784 2.48828 111.485 2.48828V2.77832C111.865 2.58496 112.159 2.48828 112.366 2.48828C112.746 2.68164 113.036 2.77832 113.236 2.77832V3.06836C113.236 3.34766 112.946 3.64128 112.366 3.94922H107.973C106.956 3.94922 106.368 3.6556 106.211 3.06836L107.092 2.48828ZM114.407 5.41016L114.708 6.00098C114.708 6.78158 112.366 7.17188 107.683 7.17188V9.22363C107.683 9.51725 108.073 9.80729 108.854 10.0938C111.933 9.70703 113.688 9.51367 114.117 9.51367L114.407 10.0938C114.407 10.8743 112.359 11.2646 108.263 11.2646C107.482 11.2646 106.798 10.7777 106.211 9.80371V9.51367C106.211 9.32031 106.311 9.22363 106.512 9.22363L106.211 8.63281V8.34277L106.512 6.88184C105.731 6.88184 105.341 6.6849 105.341 6.29102C105.341 5.9043 105.631 5.71094 106.211 5.71094C107.736 5.71094 110.468 5.61068 114.407 5.41016ZM117.05 12.4463V13.0264C117.05 13.6136 115.976 13.9072 113.827 13.9072H113.236C113.043 16.0557 112.753 17.1299 112.366 17.1299C112.087 17.1299 111.793 16.8363 111.485 16.249V15.959C111.485 15.7585 111.582 15.6582 111.775 15.6582C111.582 15.3359 111.485 14.849 111.485 14.1973H111.195C108.546 14.1973 106.397 14.0039 104.75 13.6172V13.3164C104.75 12.9297 105.044 12.7363 105.631 12.7363C112.212 12.543 116.019 12.4463 117.05 12.4463ZM108.263 16.249C108.642 16.4424 108.936 16.5391 109.144 16.5391V19.1709C109.144 19.4574 109.437 19.751 110.024 20.0518H111.775C112.757 20.0518 114.221 19.9551 116.169 19.7617V20.3418C116.169 20.929 114.511 21.4196 111.195 21.8135C109.434 21.8135 108.263 21.1296 107.683 19.7617V16.8291C107.74 16.4424 107.933 16.249 108.263 16.249Z" fill="#222222"/>
</svg>
