<svg width="50" height="50" viewBox="0 0 50 50" fill="none" xmlns="http://www.w3.org/2000/svg">
    <path opacity="0.15"
          d="M9 42.8597C9 43.1408 9.42425 43.4191 10.2485 43.6787C11.0728 43.9384 12.2809 44.1744 13.804 44.3731C15.327 44.5719 17.1352 44.7295 19.1251 44.8371C21.1151 44.9446 23.2479 45 25.4019 45C27.5558 45 29.6886 44.9446 31.6786 44.8371C33.6685 44.7295 35.4767 44.5719 36.9997 44.3731C38.5228 44.1744 39.7309 43.9384 40.5552 43.6787C41.3795 43.4191 41.8037 43.1408 41.8037 42.8597C41.8037 42.5786 41.3795 42.3003 40.5552 42.0406C39.7309 41.7809 38.5228 41.545 36.9997 41.3462C35.4767 41.1475 33.6685 40.9898 31.6786 40.8823C29.6886 40.7747 27.5558 40.7194 25.4019 40.7194C23.2479 40.7194 21.1151 40.7747 19.1251 40.8823C17.1352 40.9898 15.327 41.1475 13.804 41.3462C12.2809 41.545 11.0728 41.7809 10.2485 42.0406C9.42425 42.3003 9 42.5786 9 42.8597V42.8597Z"
          fill="#45413C"/>
    <path d="M35.9178 40.9705C29.1412 43.4274 21.7171 43.4274 14.9405 40.9705C14.4422 40.8079 13.987 40.5349 13.6088 40.1719C13.2307 39.8088 12.9393 39.3652 12.7565 38.8739L10.6926 31.4046C9.11914 26.8315 8.90671 21.9 10.0811 17.2086L11.1731 15.0246H39.6852L40.7772 17.2086C41.9441 21.9008 41.7318 26.8301 40.1657 31.4046L38.0691 38.8739C37.8903 39.3621 37.6042 39.804 37.2319 40.1668C36.8596 40.5297 36.4105 40.8044 35.9178 40.9705V40.9705Z"
          fill="#DEE0E3"/>
    <path d="M40.9847 18.3115C40.9083 17.9293 40.8427 17.5471 40.7445 17.2195L39.6525 15.0355H11.2058L10.1138 17.2195C10.0156 17.6017 9.93911 17.9839 9.86267 18.377C12.549 20.5938 17.3866 21.9588 25.4018 21.9588C33.4171 21.9588 38.3311 20.5829 40.9847 18.3115Z"
          fill="#C8CED8"/>
    <path d="M35.9178 40.9705C29.1412 43.4274 21.7171 43.4274 14.9405 40.9705C14.4422 40.8079 13.987 40.5349 13.6088 40.1719C13.2307 39.8088 12.9393 39.3652 12.7565 38.8739L10.6926 31.4046C9.11914 26.8315 8.90671 21.9 10.0811 17.2086L11.1731 15.0246H39.6852L40.7772 17.2086C41.9441 21.9008 41.7318 26.8301 40.1657 31.4046L38.0691 38.8739C37.8903 39.3621 37.6042 39.804 37.2319 40.1668C36.8596 40.5297 36.4105 40.8044 35.9178 40.9705V40.9705Z"
          stroke="#222222" stroke-width="1.5" stroke-linecap="round" stroke-linejoin="round"/>
    <path d="M25.4019 18.5736C37.6978 18.5736 40.8537 15.4177 40.3186 11.1152C39.9146 7.92658 34.8586 5.03278 25.4019 5.03278C15.9452 5.03278 10.8564 7.92658 10.4633 11.148C9.92822 15.4177 13.1387 18.5736 25.4019 18.5736Z"
          fill="#DEE0E3"/>
    <path d="M25.4019 7.63172C34.4 7.63172 39.4232 10.2634 40.2203 13.2664C40.3838 12.5502 40.4171 11.8105 40.3186 11.0824C39.9146 7.8938 34.8586 5 25.4019 5C15.9451 5 10.8564 7.92656 10.4633 11.148C10.3575 11.8756 10.3909 12.6167 10.5616 13.332C11.3696 10.2525 16.4475 7.63172 25.4019 7.63172Z"
          fill="#F9F9FA"/>
    <path d="M25.4019 18.5736C37.6978 18.5736 40.8537 15.4177 40.3186 11.1152C39.9146 7.92658 34.8586 5.03278 25.4019 5.03278C15.9452 5.03278 10.8564 7.92658 10.4633 11.148C9.92822 15.4177 13.1387 18.5736 25.4019 18.5736Z"
          stroke="#222222" stroke-width="1.5" stroke-linecap="round" stroke-linejoin="round"/>
    <path d="M14.0232 11.2899C14.0232 11.7373 14.3184 12.1804 14.8918 12.5937C15.4653 13.0071 16.3059 13.3827 17.3655 13.6991C18.4252 14.0154 19.6831 14.2664 21.0676 14.4376C22.4521 14.6088 23.936 14.697 25.4346 14.697C26.9332 14.697 28.4171 14.6088 29.8016 14.4376C31.1861 14.2664 32.444 14.0154 33.5037 13.6991C34.5633 13.3827 35.4039 13.0071 35.9774 12.5937C36.5508 12.1804 36.846 11.7373 36.846 11.2899C36.846 10.8425 36.5508 10.3995 35.9774 9.9861C35.4039 9.57274 34.5633 9.19715 33.5037 8.88077C32.444 8.5644 31.1861 8.31344 29.8016 8.14222C28.4171 7.971 26.9332 7.88287 25.4346 7.88287C23.936 7.88287 22.4521 7.971 21.0676 8.14222C19.6831 8.31344 18.4252 8.5644 17.3655 8.88077C16.3059 9.19715 15.4653 9.57274 14.8918 9.9861C14.3184 10.3995 14.0232 10.8425 14.0232 11.2899V11.2899Z"
          fill="#FFE500"/>
    <path d="M15.2899 12.8515C15.2899 13.3438 16.3587 13.816 18.2612 14.1642C20.1637 14.5123 22.7441 14.7079 25.4346 14.7079C28.1251 14.7079 30.7055 14.5123 32.608 14.1642C34.5105 13.816 35.5793 13.3438 35.5793 12.8515C35.5793 12.3591 34.5105 11.887 32.608 11.5388C30.7055 11.1907 28.1251 10.9951 25.4346 10.9951C22.7441 10.9951 20.1637 11.1907 18.2612 11.5388C16.3587 11.887 15.2899 12.3591 15.2899 12.8515V12.8515Z"
          fill="#EBCB00"/>
    <path d="M14.0232 11.2899C14.0232 11.7373 14.3184 12.1804 14.8918 12.5937C15.4653 13.0071 16.3059 13.3827 17.3655 13.6991C18.4252 14.0154 19.6831 14.2664 21.0676 14.4376C22.4521 14.6088 23.936 14.697 25.4346 14.697C26.9332 14.697 28.4171 14.6088 29.8016 14.4376C31.1861 14.2664 32.444 14.0154 33.5037 13.6991C34.5633 13.3827 35.4039 13.0071 35.9774 12.5937C36.5508 12.1804 36.846 11.7373 36.846 11.2899C36.846 10.8425 36.5508 10.3995 35.9774 9.9861C35.4039 9.57274 34.5633 9.19715 33.5037 8.88077C32.444 8.5644 31.1861 8.31344 29.8016 8.14222C28.4171 7.971 26.9332 7.88287 25.4346 7.88287C23.936 7.88287 22.4521 7.971 21.0676 8.14222C19.6831 8.31344 18.4252 8.5644 17.3655 8.88077C16.3059 9.19715 15.4653 9.57274 14.8918 9.9861C14.3184 10.3995 14.0232 10.8425 14.0232 11.2899V11.2899Z"
          stroke="#222222" stroke-width="1.5" stroke-linecap="round" stroke-linejoin="round"/>
    <path d="M39.1283 34.9427L40.1002 31.4046C40.5286 30.1475 40.8572 28.8586 41.083 27.5498C38.7461 28.9694 34.1378 30.6948 25.4018 30.6948C16.6658 30.6948 12.0467 28.9367 9.7207 27.528C9.94505 28.8513 10.2737 30.1549 10.7035 31.4264L11.6754 34.9427C16.0939 36.4891 20.7544 37.2288 25.4346 37.1267C30.093 37.2229 34.7309 36.4832 39.1283 34.9427V34.9427Z"
          fill="#B9C1CC" stroke="#222222" stroke-width="1.5" stroke-linecap="round" stroke-linejoin="round"/>
</svg>
