<?xml version="1.0" encoding="UTF-8"?>
<svg id="_소셜계정" xmlns="http://www.w3.org/2000/svg" viewBox="0 0 48 48">
    <defs>
        <style>
            .cls-1{clip-path:url(#clippath-11);}.cls-2{clip-path:url(#clippath-16);}.cls-3{fill:#fff;}.cls-4{fill:#ffe143;}.cls-5{clip-path:url(#clippath-2);}.cls-6{clip-path:url(#clippath-13);}.cls-7{clip-path:url(#clippath-15);}.cls-8{clip-path:url(#clippath-6);}.cls-9{clip-path:url(#clippath-7);}.cls-10{fill:#111;}.cls-11{clip-path:url(#clippath-1);}.cls-12{clip-path:url(#clippath-4);}.cls-13{fill:#ffd833;}.cls-14{clip-path:url(#clippath-12);}.cls-15{clip-path:url(#clippath-9);}.cls-16{clip-path:url(#clippath);}.cls-17{fill:none;}.cls-18{clip-path:url(#clippath-3);}.cls-19{clip-path:url(#clippath-8);}.cls-20{mask:url(#mask-1);}.cls-21{mask:url(#mask);}.cls-22{clip-path:url(#clippath-14);}.cls-23{clip-path:url(#clippath-5);}.cls-24{clip-path:url(#clippath-10);}
        </style>
        <clipPath id="clippath">
            <rect class="cls-17" width="48" height="48"/>
        </clipPath>
        <clipPath id="clippath-1">
            <rect class="cls-17" x="-11" y="-11" width="70" height="70" transform="translate(48) rotate(90)"/>
        </clipPath>
        <clipPath id="clippath-2">
            <rect class="cls-17" x="50.44" y="38" width="14.35" height="24.31"/>
        </clipPath>
        <clipPath id="clippath-3">
            <rect class="cls-17" x="36.09" y="38" width="14.35" height="24.31"/>
        </clipPath>
        <clipPath id="clippath-4">
            <rect class="cls-17" x="21.74" y="38" width="14.35" height="24.31"/>
        </clipPath>
        <clipPath id="clippath-5">
            <rect class="cls-17" x="7.38" y="38" width="14.35" height="24.31"/>
        </clipPath>
        <clipPath id="clippath-6">
            <rect class="cls-17" x="-6.97" y="38" width="14.35" height="24.31"/>
        </clipPath>
        <clipPath id="clippath-7">
            <rect class="cls-17" x="50.44" y="13.7" width="14.35" height="24.31"/>
        </clipPath>
        <clipPath id="clippath-8">
            <rect class="cls-17" x="36.09" y="13.7" width="14.35" height="24.31"/>
        </clipPath>
        <clipPath id="clippath-9">
            <rect class="cls-17" x="21.74" y="13.7" width="14.35" height="24.31"/>
        </clipPath>
        <clipPath id="clippath-10">
            <rect class="cls-17" x="7.38" y="13.7" width="14.35" height="24.31"/>
        </clipPath>
        <clipPath id="clippath-11">
            <rect class="cls-17" x="-6.97" y="13.7" width="14.35" height="24.31"/>
        </clipPath>
        <clipPath id="clippath-12">
            <rect class="cls-17" x="50.44" y="-10.61" width="14.35" height="24.31"/>
        </clipPath>
        <clipPath id="clippath-13">
            <rect class="cls-17" x="36.09" y="-10.61" width="14.35" height="24.31"/>
        </clipPath>
        <clipPath id="clippath-14">
            <rect class="cls-17" x="21.74" y="-10.61" width="14.35" height="24.31"/>
        </clipPath>
        <clipPath id="clippath-15">
            <rect class="cls-17" x="7.38" y="-10.61" width="14.35" height="24.31"/>
        </clipPath>
        <clipPath id="clippath-16">
            <rect class="cls-17" x="-6.97" y="-10.61" width="14.35" height="24.31"/>
        </clipPath>
        <mask id="mask" x="6.42" y="4.84" width="34.72" height="38.48" maskUnits="userSpaceOnUse">
            <g id="path-1-outside-1_3109_71715">
                <rect class="cls-3" x="6.42" y="4.84" width="34.72" height="38.48"/>
                <path d="m15.13,18.94c0,.42-.14.77-.42,1.06-.28.29-.67.44-1.15.44-.44,0-.8-.15-1.08-.44-.28-.29-.42-.65-.42-1.06v-3.41c0-.32-.06-.59-.18-.81-.12-.22-.35-.33-.7-.33h-1.06c-.42,0-.78-.13-1.08-.38-.31-.26-.46-.6-.46-1.04,0-.46.15-.82.46-1.08.31-.26.67-.38,1.08-.38h2.86c.63,0,1.15.2,1.56.59.4.39.6.9.6,1.54v5.32Zm3.67,8.94c.71,0,1.28.19,1.7.57.43.38.64.95.64,1.7v3.41c0,.68-.23,1.23-.7,1.63-.46.4-1.01.6-1.65.6h-2.49c-.46,0-.75.1-.86.29-.11.19-.16.4-.16.62v.29c0,.24.05.48.16.7.11.22.43.33.97.33h3.48c.44,0,.8.13,1.08.38.28.26.42.62.42,1.08,0,.42-.14.77-.42,1.06-.28.29-.64.44-1.08.44h-5.43c-.64,0-1.19-.22-1.65-.66-.46-.44-.7-1-.7-1.69v-3.37c0-.71.24-1.28.73-1.72.49-.44,1.07-.66,1.76-.66h2.38c.44,0,.73-.09.88-.27.15-.18.22-.37.22-.57v-.29c0-.22-.07-.44-.2-.66-.13-.22-.47-.33-1.01-.33h-3.12c-.44,0-.81-.13-1.1-.38-.29-.26-.44-.62-.44-1.08s.15-.79.44-1.04c.29-.26.66-.38,1.1-.38h1.61c-.22-.27-.33-.61-.33-1.03v-.77c0-.68-.32-1.03-.95-1.03h-2.57c-.51,0-.89-.15-1.14-.44-.24-.29-.37-.61-.37-.95,0-.42.14-.76.42-1.03.28-.27.64-.4,1.08-.4h10.15c.46,0,.84.13,1.12.4.28.27.42.61.42,1.03,0,.34-.13.66-.38.95-.26.29-.64.44-1.15.44h-2.6c-.64,0-.95.35-.95,1.06v.73c0,.42-.11.76-.33,1.03h.99Zm3.52-8.91c0,.42-.15.77-.44,1.06-.29.29-.66.44-1.1.44-.46,0-.83-.15-1.1-.44-.27-.29-.4-.65-.4-1.06v-3.45c0-.32-.06-.59-.18-.81-.12-.22-.35-.33-.7-.33h-1.28c-.46,0-.84-.13-1.12-.4-.28-.27-.42-.62-.42-1.06,0-.46.14-.82.42-1.08.28-.26.65-.38,1.12-.38h3.08c.63,0,1.15.2,1.54.59.39.39.59.9.59,1.54v5.39Z"/>
                <path d="m33.9,26.86c0,.42-.13.78-.38,1.08-.26.31-.64.46-1.15.46-.46,0-.84-.14-1.12-.42-.28-.28-.42-.65-.42-1.12v-.77c0-.68-.32-1.03-.95-1.03h-2.57c-.51,0-.89-.15-1.14-.44-.24-.29-.37-.61-.37-.95,0-.42.14-.76.42-1.03.28-.27.64-.4,1.08-.4h10.15c.46,0,.84.13,1.12.4.28.27.42.61.42,1.03,0,.34-.13.66-.38.95-.26.29-.64.44-1.15.44h-2.6c-.64,0-.95.35-.95,1.06v.73Zm-6.42,1.76c0-.44.15-.81.44-1.1.29-.29.67-.44,1.14-.44.42,0,.77.15,1.08.44.31.29.46.66.46,1.1v2.35c0,.34.1.67.31.97.21.3.56.46,1.04.46h3.89c.44,0,.81.13,1.1.4.29.27.44.61.44,1.03,0,.46-.15.83-.44,1.1-.29.27-.66.4-1.1.4h-6.01c-.64,0-1.19-.2-1.65-.6-.46-.4-.7-.96-.7-1.67v-4.44Zm2.46-8.32c-.71,0-1.28-.22-1.7-.66-.43-.44-.64-1-.64-1.69v-8.61c0-.71.21-1.28.64-1.7.43-.43.99-.64,1.7-.64h5.5c.44,0,.8.14,1.08.42.28.28.42.63.42,1.04,0,.46-.14.83-.42,1.1-.28.27-.64.4-1.08.4h-3.78c-.39,0-.65.11-.79.33-.13.22-.2.44-.2.66v.33c0,.27.09.48.26.64.17.16.38.24.62.24h3.59c.49,0,.87.13,1.14.4.27.27.4.59.4.95,0,.39-.13.72-.4.99-.27.27-.65.4-1.14.4h-3.59c-.27,0-.48.09-.64.27-.16.18-.24.38-.24.6v.51c0,.29.08.54.24.73.16.2.41.29.75.29h3.96c.41,0,.77.13,1.06.38.29.26.44.62.44,1.08s-.15.79-.44,1.04c-.29.26-.65.41-1.06.46h-5.68Z"/>
            </g>
        </mask>
        <mask id="mask-1" x="6.42" y="4.84" width="34.72" height="38.48" maskUnits="userSpaceOnUse">
            <g id="path-1-outside-1_3109_71715-2">
                <rect class="cls-3" x="6.42" y="4.84" width="34.72" height="38.48"/>
                <path d="m15.13,18.94c0,.42-.14.77-.42,1.06-.28.29-.67.44-1.15.44-.44,0-.8-.15-1.08-.44-.28-.29-.42-.65-.42-1.06v-3.41c0-.32-.06-.59-.18-.81-.12-.22-.35-.33-.7-.33h-1.06c-.42,0-.78-.13-1.08-.38-.31-.26-.46-.6-.46-1.04,0-.46.15-.82.46-1.08.31-.26.67-.38,1.08-.38h2.86c.63,0,1.15.2,1.56.59.4.39.6.9.6,1.54v5.32Zm3.67,8.94c.71,0,1.28.19,1.7.57.43.38.64.95.64,1.7v3.41c0,.68-.23,1.23-.7,1.63-.46.4-1.01.6-1.65.6h-2.49c-.46,0-.75.1-.86.29-.11.19-.16.4-.16.62v.29c0,.24.05.48.16.7.11.22.43.33.97.33h3.48c.44,0,.8.13,1.08.38.28.26.42.62.42,1.08,0,.42-.14.77-.42,1.06-.28.29-.64.44-1.08.44h-5.43c-.64,0-1.19-.22-1.65-.66-.46-.44-.7-1-.7-1.69v-3.37c0-.71.24-1.28.73-1.72.49-.44,1.07-.66,1.76-.66h2.38c.44,0,.73-.09.88-.27.15-.18.22-.37.22-.57v-.29c0-.22-.07-.44-.2-.66-.13-.22-.47-.33-1.01-.33h-3.12c-.44,0-.81-.13-1.1-.38-.29-.26-.44-.62-.44-1.08s.15-.79.44-1.04c.29-.26.66-.38,1.1-.38h1.61c-.22-.27-.33-.61-.33-1.03v-.77c0-.68-.32-1.03-.95-1.03h-2.57c-.51,0-.89-.15-1.14-.44-.24-.29-.37-.61-.37-.95,0-.42.14-.76.42-1.03.28-.27.64-.4,1.08-.4h10.15c.46,0,.84.13,1.12.4.28.27.42.61.42,1.03,0,.34-.13.66-.38.95-.26.29-.64.44-1.15.44h-2.6c-.64,0-.95.35-.95,1.06v.73c0,.42-.11.76-.33,1.03h.99Zm3.52-8.91c0,.42-.15.77-.44,1.06-.29.29-.66.44-1.1.44-.46,0-.83-.15-1.1-.44-.27-.29-.4-.65-.4-1.06v-3.45c0-.32-.06-.59-.18-.81-.12-.22-.35-.33-.7-.33h-1.28c-.46,0-.84-.13-1.12-.4-.28-.27-.42-.62-.42-1.06,0-.46.14-.82.42-1.08.28-.26.65-.38,1.12-.38h3.08c.63,0,1.15.2,1.54.59.39.39.59.9.59,1.54v5.39Z"/>
                <path d="m33.9,26.86c0,.42-.13.78-.38,1.08-.26.31-.64.46-1.15.46-.46,0-.84-.14-1.12-.42-.28-.28-.42-.65-.42-1.12v-.77c0-.68-.32-1.03-.95-1.03h-2.57c-.51,0-.89-.15-1.14-.44-.24-.29-.37-.61-.37-.95,0-.42.14-.76.42-1.03.28-.27.64-.4,1.08-.4h10.15c.46,0,.84.13,1.12.4.28.27.42.61.42,1.03,0,.34-.13.66-.38.95-.26.29-.64.44-1.15.44h-2.6c-.64,0-.95.35-.95,1.06v.73Zm-6.42,1.76c0-.44.15-.81.44-1.1.29-.29.67-.44,1.14-.44.42,0,.77.15,1.08.44.31.29.46.66.46,1.1v2.35c0,.34.1.67.31.97.21.3.56.46,1.04.46h3.89c.44,0,.81.13,1.1.4.29.27.44.61.44,1.03,0,.46-.15.83-.44,1.1-.29.27-.66.4-1.1.4h-6.01c-.64,0-1.19-.2-1.65-.6-.46-.4-.7-.96-.7-1.67v-4.44Zm2.46-8.32c-.71,0-1.28-.22-1.7-.66-.43-.44-.64-1-.64-1.69v-8.61c0-.71.21-1.28.64-1.7.43-.43.99-.64,1.7-.64h5.5c.44,0,.8.14,1.08.42.28.28.42.63.42,1.04,0,.46-.14.83-.42,1.1-.28.27-.64.4-1.08.4h-3.78c-.39,0-.65.11-.79.33-.13.22-.2.44-.2.66v.33c0,.27.09.48.26.64.17.16.38.24.62.24h3.59c.49,0,.87.13,1.14.4.27.27.4.59.4.95,0,.39-.13.72-.4.99-.27.27-.65.4-1.14.4h-3.59c-.27,0-.48.09-.64.27-.16.18-.24.38-.24.6v.51c0,.29.08.54.24.73.16.2.41.29.75.29h3.96c.41,0,.77.13,1.06.38.29.26.44.62.44,1.08s-.15.79-.44,1.04c-.29.26-.65.41-1.06.46h-5.68Z"/>
            </g>
        </mask>
    </defs>
    <rect class="cls-4" width="48" height="48"/>
    <g class="cls-16">
        <g class="cls-11">
            <g class="cls-5">
                <polygon class="cls-13"
                         points="56.05 41.24 56.05 34.76 50.44 31.52 44.82 34.76 44.82 41.24 50.44 44.49 56.05 41.24"/>
            </g>
            <g class="cls-18">
                <polygon class="cls-13"
                         points="41.7 41.24 41.7 34.76 36.09 31.52 30.47 34.76 30.47 41.24 36.09 44.49 41.7 41.24"/>
                <polygon class="cls-13"
                         points="48.87 53.4 48.87 46.92 43.26 43.68 37.65 46.92 37.65 53.4 43.26 56.64 48.87 53.4"/>
                <polygon class="cls-13"
                         points="56.05 41.24 56.05 34.76 50.44 31.52 44.82 34.76 44.82 41.24 50.44 44.49 56.05 41.24"/>
            </g>
            <g class="cls-12">
                <polygon class="cls-13"
                         points="27.35 41.24 27.35 34.76 21.74 31.52 16.12 34.76 16.12 41.24 21.74 44.49 27.35 41.24"/>
                <polygon class="cls-13"
                         points="34.52 53.4 34.52 46.92 28.91 43.68 23.3 46.92 23.3 53.4 28.91 56.64 34.52 53.4"/>
                <polygon class="cls-13"
                         points="41.7 41.24 41.7 34.76 36.09 31.52 30.47 34.76 30.47 41.24 36.09 44.49 41.7 41.24"/>
            </g>
            <g class="cls-23">
                <polygon class="cls-13"
                         points="13 41.24 13 34.76 7.38 31.52 1.77 34.76 1.77 41.24 7.38 44.49 13 41.24"/>
                <polygon class="cls-13"
                         points="20.17 53.4 20.17 46.92 14.56 43.68 8.95 46.92 8.95 53.4 14.56 56.64 20.17 53.4"/>
                <polygon class="cls-13"
                         points="27.35 41.24 27.35 34.76 21.74 31.52 16.12 34.76 16.12 41.24 21.74 44.49 27.35 41.24"/>
            </g>
            <g class="cls-8">
                <polygon class="cls-13"
                         points="5.82 53.4 5.82 46.92 .21 43.68 -5.4 46.92 -5.4 53.4 .21 56.64 5.82 53.4"/>
                <polygon class="cls-13"
                         points="13 41.24 13 34.76 7.38 31.52 1.77 34.76 1.77 41.24 7.38 44.49 13 41.24"/>
            </g>
            <g class="cls-9">
                <polygon class="cls-13"
                         points="56.05 41.24 56.05 34.76 50.44 31.52 44.82 34.76 44.82 41.24 50.44 44.49 56.05 41.24"/>
                <polygon class="cls-13"
                         points="56.05 16.94 56.05 10.46 50.44 7.22 44.82 10.46 44.82 16.94 50.44 20.18 56.05 16.94"/>
            </g>
            <g class="cls-19">
                <polygon class="cls-13"
                         points="41.7 41.24 41.7 34.76 36.09 31.52 30.47 34.76 30.47 41.24 36.09 44.49 41.7 41.24"/>
                <polygon class="cls-13"
                         points="41.7 16.94 41.7 10.46 36.09 7.22 30.47 10.46 30.47 16.94 36.09 20.18 41.7 16.94"/>
                <polygon class="cls-13"
                         points="48.87 29.09 48.87 22.61 43.26 19.37 37.65 22.61 37.65 29.09 43.26 32.33 48.87 29.09"/>
                <polygon class="cls-13"
                         points="56.05 41.24 56.05 34.76 50.44 31.52 44.82 34.76 44.82 41.24 50.44 44.49 56.05 41.24"/>
                <polygon class="cls-13"
                         points="56.05 16.94 56.05 10.46 50.44 7.22 44.82 10.46 44.82 16.94 50.44 20.18 56.05 16.94"/>
            </g>
            <g class="cls-15">
                <polygon class="cls-13"
                         points="27.35 41.24 27.35 34.76 21.74 31.52 16.12 34.76 16.12 41.24 21.74 44.49 27.35 41.24"/>
                <polygon class="cls-13"
                         points="27.35 16.94 27.35 10.46 21.74 7.22 16.12 10.46 16.12 16.94 21.74 20.18 27.35 16.94"/>
                <polygon class="cls-13"
                         points="34.52 29.09 34.52 22.61 28.91 19.37 23.3 22.61 23.3 29.09 28.91 32.33 34.52 29.09"/>
                <polygon class="cls-13"
                         points="41.7 41.24 41.7 34.76 36.09 31.52 30.47 34.76 30.47 41.24 36.09 44.49 41.7 41.24"/>
                <polygon class="cls-13"
                         points="41.7 16.94 41.7 10.46 36.09 7.22 30.47 10.46 30.47 16.94 36.09 20.18 41.7 16.94"/>
            </g>
            <g class="cls-24">
                <polygon class="cls-13"
                         points="13 41.24 13 34.76 7.38 31.52 1.77 34.76 1.77 41.24 7.38 44.49 13 41.24"/>
                <polygon class="cls-13" points="13 16.94 13 10.46 7.38 7.22 1.77 10.46 1.77 16.94 7.38 20.18 13 16.94"/>
                <polygon class="cls-13"
                         points="20.17 29.09 20.17 22.61 14.56 19.37 8.95 22.61 8.95 29.09 14.56 32.33 20.17 29.09"/>
                <polygon class="cls-13"
                         points="27.35 41.24 27.35 34.76 21.74 31.52 16.12 34.76 16.12 41.24 21.74 44.49 27.35 41.24"/>
                <polygon class="cls-13"
                         points="27.35 16.94 27.35 10.46 21.74 7.22 16.12 10.46 16.12 16.94 21.74 20.18 27.35 16.94"/>
            </g>
            <g class="cls-1">
                <polygon class="cls-13"
                         points="5.82 29.09 5.82 22.61 .21 19.37 -5.4 22.61 -5.4 29.09 .21 32.33 5.82 29.09"/>
                <polygon class="cls-13"
                         points="13 41.24 13 34.76 7.38 31.52 1.77 34.76 1.77 41.24 7.38 44.49 13 41.24"/>
                <polygon class="cls-13" points="13 16.94 13 10.46 7.38 7.22 1.77 10.46 1.77 16.94 7.38 20.18 13 16.94"/>
            </g>
            <g class="cls-14">
                <polygon class="cls-13"
                         points="56.05 16.94 56.05 10.46 50.44 7.22 44.82 10.46 44.82 16.94 50.44 20.18 56.05 16.94"/>
            </g>
            <g class="cls-6">
                <polygon class="cls-13"
                         points="41.7 16.94 41.7 10.46 36.09 7.22 30.47 10.46 30.47 16.94 36.09 20.18 41.7 16.94"/>
                <polygon class="cls-13"
                         points="48.87 4.79 48.87 -1.7 43.26 -4.94 37.65 -1.7 37.65 4.79 43.26 8.03 48.87 4.79"/>
                <polygon class="cls-13"
                         points="56.05 16.94 56.05 10.46 50.44 7.22 44.82 10.46 44.82 16.94 50.44 20.18 56.05 16.94"/>
            </g>
            <g class="cls-22">
                <polygon class="cls-13"
                         points="27.35 16.94 27.35 10.46 21.74 7.22 16.12 10.46 16.12 16.94 21.74 20.18 27.35 16.94"/>
                <polygon class="cls-13"
                         points="34.52 4.79 34.52 -1.7 28.91 -4.94 23.3 -1.7 23.3 4.79 28.91 8.03 34.52 4.79"/>
                <polygon class="cls-13"
                         points="41.7 16.94 41.7 10.46 36.09 7.22 30.47 10.46 30.47 16.94 36.09 20.18 41.7 16.94"/>
            </g>
            <g class="cls-7">
                <polygon class="cls-13" points="13 16.94 13 10.46 7.38 7.22 1.77 10.46 1.77 16.94 7.38 20.18 13 16.94"/>
                <polygon class="cls-13"
                         points="20.17 4.79 20.17 -1.7 14.56 -4.94 8.95 -1.7 8.95 4.79 14.56 8.03 20.17 4.79"/>
                <polygon class="cls-13"
                         points="27.35 16.94 27.35 10.46 21.74 7.22 16.12 10.46 16.12 16.94 21.74 20.18 27.35 16.94"/>
            </g>
            <g class="cls-2">
                <polygon class="cls-13" points="5.82 4.79 5.82 -1.7 .21 -4.94 -5.4 -1.7 -5.4 4.79 .21 8.03 5.82 4.79"/>
                <polygon class="cls-13" points="13 16.94 13 10.46 7.38 7.22 1.77 10.46 1.77 16.94 7.38 20.18 13 16.94"/>
            </g>
        </g>
    </g>
    <path class="cls-10"
          d="m24.51,38.4c-2.45.42-4.25.34-6.48-.1-4.29-.84-7.88-3.36-10.72-7.61-3.17-4.75-3.84-9.31-1.9-13.66.96-2.15,2.37-3.83,4.12-5.12,4.28-3.18,9.27-4.74,14.85-4.88,2.54-.07,5.13.46,7.73,1.52,2.66,1.09,5.18,2.58,7.34,4.96,3.21,3.53,4.68,7.46,4.15,11.79-.25,2.05-1,3.79-2.09,5.27-2.61,3.56-5.85,6.26-9.85,7.89-.22.09-.43.19-.66.26-1.47.41-2.09.86-3.31,1.86-.2.16-.42.34-.67.41-.2.06-.51.03-.7-.09s-.25-.5-.27-.63-.02-.22-.02-.42.21-1.42.21-1.42c.01-.09.02-.17.04-.26l-1.75.25Z"/>
    <path class="cls-4"
          d="m15.13,18.94c0,.42-.14.77-.42,1.06-.28.29-.67.44-1.15.44-.44,0-.8-.15-1.08-.44-.28-.29-.42-.65-.42-1.06v-3.41c0-.32-.06-.59-.18-.81-.12-.22-.35-.33-.7-.33h-1.06c-.42,0-.78-.13-1.08-.38-.31-.26-.46-.6-.46-1.04,0-.46.15-.82.46-1.08.31-.26.67-.38,1.08-.38h2.86c.63,0,1.15.2,1.56.59.4.39.6.9.6,1.54v5.32Zm3.67,8.94c.71,0,1.28.19,1.7.57.43.38.64.95.64,1.7v3.41c0,.68-.23,1.23-.7,1.63-.46.4-1.01.6-1.65.6h-2.49c-.46,0-.75.1-.86.29-.11.19-.16.4-.16.62v.29c0,.24.05.48.16.7.11.22.43.33.97.33h3.48c.44,0,.8.13,1.08.38.28.26.42.62.42,1.08,0,.42-.14.77-.42,1.06-.28.29-.64.44-1.08.44h-5.43c-.64,0-1.19-.22-1.65-.66-.46-.44-.7-1-.7-1.69v-3.37c0-.71.24-1.28.73-1.72.49-.44,1.07-.66,1.76-.66h2.38c.44,0,.73-.09.88-.27.15-.18.22-.37.22-.57v-.29c0-.22-.07-.44-.2-.66-.13-.22-.47-.33-1.01-.33h-3.12c-.44,0-.81-.13-1.1-.38-.29-.26-.44-.62-.44-1.08s.15-.79.44-1.04c.29-.26.66-.38,1.1-.38h1.61c-.22-.27-.33-.61-.33-1.03v-.77c0-.68-.32-1.03-.95-1.03h-2.57c-.51,0-.89-.15-1.14-.44-.24-.29-.37-.61-.37-.95,0-.42.14-.76.42-1.03.28-.27.64-.4,1.08-.4h10.15c.46,0,.84.13,1.12.4.28.27.42.61.42,1.03,0,.34-.13.66-.38.95-.26.29-.64.44-1.15.44h-2.6c-.64,0-.95.35-.95,1.06v.73c0,.42-.11.76-.33,1.03h.99Zm3.52-8.91c0,.42-.15.77-.44,1.06-.29.29-.66.44-1.1.44-.46,0-.83-.15-1.1-.44-.27-.29-.4-.65-.4-1.06v-3.45c0-.32-.06-.59-.18-.81-.12-.22-.35-.33-.7-.33h-1.28c-.46,0-.84-.13-1.12-.4-.28-.27-.42-.62-.42-1.06,0-.46.14-.82.42-1.08.28-.26.65-.38,1.12-.38h3.08c.63,0,1.15.2,1.54.59.39.39.59.9.59,1.54v5.39Z"/>
    <path class="cls-3"
          d="m33.9,26.86c0,.42-.13.78-.38,1.08-.26.31-.64.46-1.15.46-.46,0-.84-.14-1.12-.42-.28-.28-.42-.65-.42-1.12v-.77c0-.68-.32-1.03-.95-1.03h-2.57c-.51,0-.89-.15-1.14-.44-.24-.29-.37-.61-.37-.95,0-.42.14-.76.42-1.03.28-.27.64-.4,1.08-.4h10.15c.46,0,.84.13,1.12.4.28.27.42.61.42,1.03,0,.34-.13.66-.38.95-.26.29-.64.44-1.15.44h-2.6c-.64,0-.95.35-.95,1.06v.73Zm-6.42,1.76c0-.44.15-.81.44-1.1.29-.29.67-.44,1.14-.44.42,0,.77.15,1.08.44.31.29.46.66.46,1.1v2.35c0,.34.1.67.31.97.21.3.56.46,1.04.46h3.89c.44,0,.81.13,1.1.4.29.27.44.61.44,1.03,0,.46-.15.83-.44,1.1-.29.27-.66.4-1.1.4h-6.01c-.64,0-1.19-.2-1.65-.6-.46-.4-.7-.96-.7-1.67v-4.44Zm2.46-8.32c-.71,0-1.28-.22-1.7-.66-.43-.44-.64-1-.64-1.69v-8.61c0-.71.21-1.28.64-1.7.43-.43.99-.64,1.7-.64h5.5c.44,0,.8.14,1.08.42.28.28.42.63.42,1.04,0,.46-.14.83-.42,1.1-.28.27-.64.4-1.08.4h-3.78c-.39,0-.65.11-.79.33-.13.22-.2.44-.2.66v.33c0,.27.09.48.26.64.17.16.38.24.62.24h3.59c.49,0,.87.13,1.14.4.27.27.4.59.4.95,0,.39-.13.72-.4.99-.27.27-.65.4-1.14.4h-3.59c-.27,0-.48.09-.64.27-.16.18-.24.38-.24.6v.51c0,.29.08.54.24.73.16.2.41.29.75.29h3.96c.41,0,.77.13,1.06.38.29.26.44.62.44,1.08s-.15.79-.44,1.04c-.29.26-.65.41-1.06.46h-5.68Z"/>
    <g class="cls-21">
        <path class="cls-10"
              d="m19.89,43.16h-5.43c-1.18,0-2.27-.43-3.13-1.25-.89-.85-1.37-1.97-1.37-3.24v-3.37c0-1.27.46-2.39,1.34-3.23-.02-.02-.04-.03-.06-.05-.76-.66-1.17-1.62-1.17-2.7,0-.97.33-1.67.71-2.17-1.03-.18-1.67-.7-2.04-1.15-.56-.67-.86-1.48-.86-2.32,0-1.01.37-1.9,1.08-2.58.35-.34.75-.59,1.2-.76-.18-.43-.27-.9-.27-1.39v-2.4c-.84-.04-1.62-.35-2.26-.88-.79-.66-1.22-1.62-1.22-2.69s.44-2.07,1.23-2.73c.69-.58,1.54-.89,2.46-.89h2.86c.77,0,1.49.17,2.11.51.48-.3,1.15-.54,2.03-.54h3.08c1.2,0,2.26.42,3.06,1.21.8.8,1.22,1.86,1.22,3.06v5.39c0,.67-.17,1.29-.49,1.84.11.08.22.17.32.27.71.69,1.09,1.58,1.09,2.58,0,.86-.32,1.68-.92,2.37-.4.46-1.1,1-2.21,1.14.53.6,1.04,1.54,1.04,2.98v3.41c0,1.19-.41,2.22-1.18,3.01.11.08.21.16.32.26.51.47,1.12,1.31,1.12,2.67,0,.97-.35,1.85-1.02,2.55-.69.72-1.6,1.1-2.63,1.1Zm-3.57-7.27h0Zm.78-15.8h.19c-.04-.12-.07-.24-.09-.36-.03.12-.06.24-.1.36Z"/>
    </g>
    <g class="cls-20">
        <path class="cls-10"
              d="m35.84,37.48h-6.01c-1.15,0-2.21-.39-3.06-1.13-.65-.57-1.43-1.6-1.43-3.29v-4.44c0-.62.14-1.19.4-1.71-.57-.24-.96-.6-1.23-.91-.56-.67-.86-1.48-.86-2.33,0-1.01.37-1.9,1.08-2.58.38-.37.83-.63,1.32-.8-.4-.68-.61-1.48-.61-2.34v-8.61c0-1.28.44-2.39,1.27-3.22.83-.83,1.95-1.27,3.22-1.27h5.5c1.01,0,1.91.36,2.6,1.05.69.7,1.05,1.58,1.05,2.57,0,1.33-.59,2.18-1.08,2.65-.03.02-.05.05-.08.07.59.66.9,1.46.9,2.34,0,.92-.32,1.75-.94,2.41.07.05.14.11.21.17.76.66,1.17,1.62,1.17,2.7,0,.63-.14,1.15-.34,1.57.42.17.8.41,1.12.72.71.69,1.09,1.58,1.09,2.58,0,.86-.32,1.68-.92,2.37-.47.54-1.33,1.17-2.77,1.17h-1.42c-.07.78-.37,1.51-.87,2.11-.27.32-.68.68-1.25.93h1.93c.98,0,1.86.34,2.55.97.73.67,1.13,1.59,1.13,2.61,0,1.07-.39,2-1.13,2.68-.69.64-1.58.97-2.55.97Z"/>
    </g>
</svg>