<svg width="50" height="50" viewBox="0 0 50 50" fill="none" xmlns="http://www.w3.org/2000/svg">
    <path opacity="0.15"
          d="M9 46.8828C9 47.1609 9.41966 47.4362 10.235 47.693C11.0504 47.9499 12.2455 48.1833 13.752 48.3799C15.2586 48.5765 17.0472 48.7325 19.0157 48.8388C20.9841 48.9452 23.0939 49 25.2245 49C27.3551 49 29.4649 48.9452 31.4333 48.8388C33.4018 48.7325 35.1904 48.5765 36.697 48.3799C38.2035 48.1833 39.3986 47.9499 40.214 47.693C41.0293 47.4362 41.449 47.1609 41.449 46.8828C41.449 46.6048 41.0293 46.3295 40.214 46.0726C39.3986 45.8158 38.2035 45.5824 36.697 45.3858C35.1904 45.1892 33.4018 45.0332 31.4333 44.9268C29.4649 44.8204 27.3551 44.7657 25.2245 44.7657C23.0939 44.7657 20.9841 44.8204 19.0157 44.9268C17.0472 45.0332 15.2586 45.1892 13.752 45.3858C12.2455 45.5824 11.0504 45.8158 10.235 46.0726C9.41966 46.3295 9 46.6048 9 46.8828V46.8828Z"
          fill="#45413C"/>
    <path d="M35.6268 45.0141C28.9234 47.4444 21.5796 47.4444 14.8763 45.0141C14.3833 44.8532 13.933 44.5832 13.559 44.2241C13.1849 43.865 12.8967 43.4261 12.7159 42.9401L10.6743 35.5516C9.11785 31.0279 8.90772 26.1498 10.0694 21.5091L11.1496 19.3487H39.3534L40.4336 21.5091C41.5879 26.1506 41.3778 31.0266 39.8287 35.5516L37.7547 42.9401C37.5779 43.4231 37.2949 43.8601 36.9266 44.2191C36.5583 44.5781 36.1141 44.8497 35.6268 45.0141V45.0141Z"
          fill="#AFCEF5"/>
    <path d="M40.6389 22.6001C40.5633 22.222 40.4985 21.8439 40.4013 21.5199L39.3211 19.3595H11.182L10.1018 21.5199C10.0046 21.898 9.92901 22.276 9.85339 22.6649C12.5107 24.8577 17.2959 26.2079 25.2245 26.2079C33.1532 26.2079 38.014 24.8469 40.6389 22.6001Z"
          fill="#6B9EDD"/>
    <path d="M35.6268 45.0141C28.9234 47.4444 21.5796 47.4444 14.8763 45.0141C14.3833 44.8532 13.933 44.5832 13.559 44.2241C13.1849 43.865 12.8967 43.4261 12.7159 42.9401L10.6743 35.5516C9.11785 31.0279 8.90772 26.1498 10.0694 21.5091L11.1496 19.3487H39.3534L40.4336 21.5091C41.5879 26.1506 41.3778 31.0266 39.8287 35.5516L37.7547 42.9401C37.5779 43.4231 37.2949 43.8601 36.9266 44.2191C36.5583 44.5781 36.1141 44.8497 35.6268 45.0141V45.0141Z"
          stroke="#222222" stroke-width="1.5" stroke-linecap="round" stroke-linejoin="round"/>
    <path d="M25.2245 22.8593C37.3875 22.8593 40.5093 19.7375 39.98 15.4816C39.5803 12.3274 34.579 9.4649 25.2245 9.4649C15.8701 9.4649 10.8364 12.3274 10.4475 15.514C9.91821 19.7375 13.094 22.8593 25.2245 22.8593Z"
          fill="#AFCEF5"/>
    <path d="M25.2245 12.0358C34.1253 12.0358 39.0942 14.6391 39.8827 17.6096C40.0444 16.9011 40.0773 16.1693 39.9799 15.4492C39.5802 12.295 34.5789 9.43253 25.2245 9.43253C15.87 9.43253 10.8363 12.3274 10.4474 15.514C10.3428 16.2338 10.3758 16.9669 10.5447 17.6744C11.344 14.6283 16.3669 12.0358 25.2245 12.0358Z"
          fill="#D1E6FF"/>
    <path d="M25.2245 22.8593C37.3875 22.8593 40.5093 19.7375 39.98 15.4816C39.5803 12.3274 34.579 9.4649 25.2245 9.4649C15.8701 9.4649 10.8364 12.3274 10.4475 15.514C9.91821 19.7375 13.094 22.8593 25.2245 22.8593Z"
          stroke="#222222" stroke-width="1.5" stroke-linecap="round" stroke-linejoin="round"/>
    <path d="M13.9689 15.6544C13.9689 16.097 14.2608 16.5353 14.8281 16.9442C15.3954 17.3531 16.2269 17.7246 17.2751 18.0375C18.3232 18.3505 19.5676 18.5987 20.9372 18.7681C22.3067 18.9375 23.7745 19.0246 25.2569 19.0246C26.7393 19.0246 28.2071 18.9375 29.5766 18.7681C30.9462 18.5987 32.1905 18.3505 33.2387 18.0375C34.2869 17.7246 35.1184 17.3531 35.6857 16.9442C36.2529 16.5353 36.5449 16.097 36.5449 15.6544C36.5449 15.2119 36.2529 14.7736 35.6857 14.3647C35.1184 13.9558 34.2869 13.5843 33.2387 13.2714C32.1905 12.9584 30.9462 12.7102 29.5766 12.5408C28.2071 12.3714 26.7393 12.2842 25.2569 12.2842C23.7745 12.2842 22.3067 12.3714 20.9372 12.5408C19.5676 12.7102 18.3232 12.9584 17.2751 13.2714C16.2269 13.5843 15.3954 13.9558 14.8281 14.3647C14.2608 14.7736 13.9689 15.2119 13.9689 15.6544V15.6544Z"
          fill="#FFE500"/>
    <path d="M15.2219 17.1991C15.2219 17.6861 16.2791 18.1532 18.161 18.4976C20.043 18.842 22.5954 19.0354 25.2569 19.0354C27.9183 19.0354 30.4707 18.842 32.3527 18.4976C34.2346 18.1532 35.2918 17.6861 35.2918 17.1991C35.2918 16.7121 34.2346 16.245 32.3527 15.9006C30.4707 15.5563 27.9183 15.3628 25.2569 15.3628C22.5954 15.3628 20.043 15.5563 18.161 15.9006C16.2791 16.245 15.2219 16.7121 15.2219 17.1991V17.1991Z"
          fill="#EBCB00"/>
    <path d="M13.9689 15.6544C13.9689 16.097 14.2608 16.5353 14.8281 16.9442C15.3954 17.3531 16.2269 17.7246 17.2751 18.0375C18.3232 18.3505 19.5676 18.5987 20.9372 18.7681C22.3067 18.9375 23.7745 19.0246 25.2569 19.0246C26.7393 19.0246 28.2071 18.9375 29.5766 18.7681C30.9462 18.5987 32.1905 18.3505 33.2387 18.0375C34.2869 17.7246 35.1184 17.3531 35.6857 16.9442C36.2529 16.5353 36.5449 16.097 36.5449 15.6544C36.5449 15.2119 36.2529 14.7736 35.6857 14.3647C35.1184 13.9558 34.2869 13.5843 33.2387 13.2714C32.1905 12.9584 30.9462 12.7102 29.5766 12.5408C28.2071 12.3714 26.7393 12.2842 25.2569 12.2842C23.7745 12.2842 22.3067 12.3714 20.9372 12.5408C19.5676 12.7102 18.3232 12.9584 17.2751 13.2714C16.2269 13.5843 15.3954 13.9558 14.8281 14.3647C14.2608 14.7736 13.9689 15.2119 13.9689 15.6544V15.6544Z"
          stroke="#222222" stroke-width="1.5" stroke-linecap="round" stroke-linejoin="round"/>
    <path d="M38.8026 39.0514L39.7639 35.5516C40.1877 34.3081 40.5128 33.0331 40.7361 31.7385C38.4245 33.1428 33.8661 34.8495 25.2245 34.8495C16.583 34.8495 12.0138 33.1104 9.71295 31.7169C9.93487 33.026 10.2599 34.3154 10.6851 35.5732L11.6465 39.0514C16.0173 40.5811 20.6273 41.3129 25.2569 41.2118C29.865 41.307 34.4527 40.5753 38.8026 39.0514V39.0514Z"
          fill="#447CC1" stroke="#222222" stroke-width="1.5" stroke-linecap="round" stroke-linejoin="round"/>
    <path d="M35.0111 1.06103C34.4046 0.932736 33.7726 1.00794 33.2132 1.27501C32.6537 1.54207 32.1978 1.9861 31.9161 2.53838C31.6345 3.09065 31.5427 3.72037 31.655 4.33007C31.7673 4.93977 32.0775 5.49545 32.5375 5.9111L29.8046 18.7546C30.8116 18.6252 31.808 18.423 32.7859 18.1497L35.2919 6.4944C35.8659 6.29216 36.359 5.90963 36.6976 5.40397C37.0362 4.89831 37.2021 4.29667 37.1705 3.68893C37.1389 3.0812 36.9115 2.50001 36.5223 2.03219C36.1331 1.56438 35.6029 1.23506 35.0111 1.09344V1.06103Z"
          fill="#EFF6FE"/>
    <path d="M32.4834 14.5742C31.8613 14.8997 31.2058 15.1569 30.5283 15.3412L29.8046 18.7546C30.8116 18.6252 31.808 18.423 32.7859 18.1497L33.6825 13.9477L32.4834 14.5742Z"
          fill="#D1E6FF"/>
    <path d="M35.0111 1.06103C34.4046 0.932736 33.7726 1.00794 33.2132 1.27501C32.6537 1.54207 32.1978 1.9861 31.9161 2.53838C31.6345 3.09065 31.5427 3.72037 31.655 4.33007C31.7673 4.93977 32.0775 5.49545 32.5375 5.9111L29.8046 18.7546C30.8116 18.6252 31.808 18.423 32.7859 18.1497L35.2919 6.4944C35.8659 6.29216 36.359 5.90963 36.6976 5.40397C37.0362 4.89831 37.2021 4.29667 37.1705 3.68893C37.1389 3.0812 36.9115 2.50001 36.5223 2.03219C36.1331 1.56438 35.6029 1.23506 35.0111 1.09344V1.06103Z"
          stroke="#222222" stroke-width="1.5" stroke-linecap="round" stroke-linejoin="round"/>
    <path d="M17.8252 16.7022C15.5136 16.1837 14.3469 16.7022 13.6016 18.8626C12.8563 21.023 14.0877 22.6865 13.9689 25.0197C13.8501 27.5906 16.4101 28.1199 17.5011 26.4348C18.0304 25.6138 17.5011 23.6154 18.9054 23.6154C21.2926 23.6154 19.089 31.3712 22.4376 31.3712C25.7862 31.3712 25.5918 28.3791 25.5918 25.9163C25.6096 23.5337 25.8483 21.1579 26.3047 18.8194C26.78 16.8318 22.7184 17.804 17.8252 16.7022Z"
          fill="#FFE500"/>
    <path d="M13.6448 21.6387C14.5306 19.4783 15.9024 19.003 18.6461 19.4783C21.0949 19.877 23.5661 20.1223 26.0455 20.2129C26.1319 19.6188 26.2183 19.1327 26.3047 18.7762C26.78 16.7887 22.7185 17.7608 17.836 16.6158C15.5136 16.0973 14.347 16.6158 13.6016 18.7762C13.3008 19.784 13.3008 20.8577 13.6016 21.8656C13.6091 21.7888 13.6236 21.7129 13.6448 21.6387V21.6387Z"
          fill="#FFF48C"/>
    <path d="M17.8252 16.7022C15.5136 16.1837 14.3469 16.7022 13.6016 18.8626C12.8563 21.023 14.0877 22.6865 13.9689 25.0197C13.8501 27.5906 16.4101 28.1199 17.5011 26.4348C18.0304 25.6138 17.5011 23.6154 18.9054 23.6154C21.2926 23.6154 19.089 31.3712 22.4376 31.3712C25.7862 31.3712 25.5918 28.3791 25.5918 25.9163C25.6096 23.5337 25.8483 21.1579 26.3047 18.8194C26.78 16.8318 22.7184 17.804 17.8252 16.7022Z"
          stroke="#222222" stroke-width="1.5" stroke-linecap="round" stroke-linejoin="round"/>
</svg>
